  0
SECTION
  2
HEADER
  9
$ACADVER
  1
AC1024
  9
$ACADMAINTVER
 70
     6
  9
$DWGCODEPAGE
  3
UNDEFINED
  9
$INSBASE
 10
0.0
 20
0.0
 30
0.0
  9
$EXTMIN
 10
1.000000000000000E+20
 20
1.000000000000000E+20
 30
1.000000000000000E+20
  9
$EXTMAX
 10
-1.000000000000000E+20
 20
-1.000000000000000E+20
 30
-1.000000000000000E+20
  9
$LIMMIN
 10
0.0
 20
0.0
  9
$LIMMAX
 10
12.0
 20
9.0
  9
$ORTHOMODE
 70
     0
  9
$REGENMODE
 70
     1
  9
$FILLMODE
 70
     1
  9
$QTEXTMODE
 70
     0
  9
$MIRRTEXT
 70
     1
  9
$LTSCALE
 40
1.0
  9
$ATTMODE
 70
     1
  9
$TEXTSIZE
 40
0.2
  9
$TRACEWID
 40
0.05
  9
$TEXTSTYLE
  7
Standard
  9
$CLAYER
  8
0
  9
$CELTYPE
  6
ByLayer
  9
$CECOLOR
 62
   256
  9
$CELTSCALE
 40
1.0
  9
$DISPSILH
 70
     0
  9
$DIMSCALE
 40
1.0
  9
$DIMASZ
 40
0.18
  9
$DIMEXO
 40
0.0625
  9
$DIMDLI
 40
0.38
  9
$DIMRND
 40
0.0
  9
$DIMDLE
 40
0.0
  9
$DIMEXE
 40
0.18
  9
$DIMTP
 40
0.0
  9
$DIMTM
 40
0.0
  9
$DIMTXT
 40
0.18
  9
$DIMCEN
 40
0.09
  9
$DIMTSZ
 40
0.0
  9
$DIMTOL
 70
     0
  9
$DIMLIM
 70
     0
  9
$DIMTIH
 70
     1
  9
$DIMTOH
 70
     1
  9
$DIMSE1
 70
     0
  9
$DIMSE2
 70
     0
  9
$DIMTAD
 70
     0
  9
$DIMZIN
 70
     0
  9
$DIMBLK
  1

  9
$DIMASO
 70
     1
  9
$DIMSHO
 70
     1
  9
$DIMPOST
  1

  9
$DIMAPOST
  1

  9
$DIMALT
 70
     0
  9
$DIMALTD
 70
     2
  9
$DIMALTF
 40
25.4
  9
$DIMLFAC
 40
1.0
  9
$DIMTOFL
 70
     0
  9
$DIMTVP
 40
0.0
  9
$DIMTIX
 70
     0
  9
$DIMSOXD
 70
     0
  9
$DIMSAH
 70
     0
  9
$DIMBLK1
  1

  9
$DIMBLK2
  1

  9
$DIMSTYLE
  2
Standard
  9
$DIMCLRD
 70
     0
  9
$DIMCLRE
 70
     0
  9
$DIMCLRT
 70
     0
  9
$DIMTFAC
 40
1.0
  9
$DIMGAP
 40
0.09
  9
$DIMJUST
 70
     0
  9
$DIMSD1
 70
     0
  9
$DIMSD2
 70
     0
  9
$DIMTOLJ
 70
     1
  9
$DIMTZIN
 70
     0
  9
$DIMALTZ
 70
     0
  9
$DIMALTTZ
 70
     0
  9
$DIMUPT
 70
     0
  9
$DIMDEC
 70
     4
  9
$DIMTDEC
 70
     4
  9
$DIMALTU
 70
     2
  9
$DIMALTTD
 70
     2
  9
$DIMTXSTY
  7
Standard
  9
$DIMAUNIT
 70
     0
  9
$DIMADEC
 70
     0
  9
$DIMALTRND
 40
0.0
  9
$DIMAZIN
 70
     0
  9
$DIMDSEP
 70
    46
  9
$DIMATFIT
 70
     3
  9
$DIMFRAC
 70
     0
  9
$DIMLDRBLK
  1

  9
$DIMLUNIT
 70
     2
  9
$DIMLWD
 70
    -2
  9
$DIMLWE
 70
    -2
  9
$DIMTMOVE
 70
     0
  9
$DIMFXL
 40
1.0
  9
$DIMFXLON
 70
     0
  9
$DIMJOGANG
 40
0.7853981633974483
  9
$DIMTFILL
 70
     0
  9
$DIMTFILLCLR
 70
     0
  9
$DIMARCSYM
 70
     0
  9
$DIMLTYPE
  6

  9
$DIMLTEX1
  6

  9
$DIMLTEX2
  6

  9
$DIMTXTDIRECTION
 70
     0
  9
$LUNITS
 70
     2
  9
$LUPREC
 70
     4
  9
$SKETCHINC
 40
0.1
  9
$FILLETRAD
 40
0.5
  9
$AUNITS
 70
     0
  9
$AUPREC
 70
     0
  9
$MENU
  1
.
  9
$ELEVATION
 40
0.0
  9
$PELEVATION
 40
0.0
  9
$THICKNESS
 40
0.0
  9
$LIMCHECK
 70
     0
  9
$CHAMFERA
 40
0.5
  9
$CHAMFERB
 40
0.5
  9
$CHAMFERC
 40
1.0
  9
$CHAMFERD
 40
0.0
  9
$SKPOLY
 70
     0
  9
$TDCREATE
 40
2459060.734513877
  9
$TDUCREATE
 40
2459060.692847222
  9
$TDUPDATE
 40
2459060.734513877
  9
$TDUUPDATE
 40
2459060.692847222
  9
$TDINDWG
 40
0.0000000116
  9
$TDUSRTIMER
 40
0.0000000116
  9
$USRTIMER
 70
     1
  9
$ANGBASE
 50
0.0
  9
$ANGDIR
 70
     0
  9
$PDMODE
 70
     0
  9
$PDSIZE
 40
0.0
  9
$PLINEWID
 40
0.0
  9
$SPLFRAME
 70
     0
  9
$SPLINETYPE
 70
     6
  9
$SPLINESEGS
 70
     8
  9
$HANDSEED
  5
131
  9
$SURFTAB1
 70
     6
  9
$SURFTAB2
 70
     6
  9
$SURFTYPE
 70
     6
  9
$SURFU
 70
     6
  9
$SURFV
 70
     6
  9
$UCSBASE
  2

  9
$UCSNAME
  2

  9
$UCSORG
 10
0.0
 20
0.0
 30
0.0
  9
$UCSXDIR
 10
1.0
 20
0.0
 30
0.0
  9
$UCSYDIR
 10
0.0
 20
1.0
 30
0.0
  9
$UCSORTHOREF
  2

  9
$UCSORTHOVIEW
 70
     0
  9
$UCSORGTOP
 10
0.0
 20
0.0
 30
0.0
  9
$UCSORGBOTTOM
 10
0.0
 20
0.0
 30
0.0
  9
$UCSORGLEFT
 10
0.0
 20
0.0
 30
0.0
  9
$UCSORGRIGHT
 10
0.0
 20
0.0
 30
0.0
  9
$UCSORGFRONT
 10
0.0
 20
0.0
 30
0.0
  9
$UCSORGBACK
 10
0.0
 20
0.0
 30
0.0
  9
$PUCSBASE
  2

  9
$PUCSNAME
  2

  9
$PUCSORG
 10
0.0
 20
0.0
 30
0.0
  9
$PUCSXDIR
 10
1.0
 20
0.0
 30
0.0
  9
$PUCSYDIR
 10
0.0
 20
1.0
 30
0.0
  9
$PUCSORTHOREF
  2

  9
$PUCSORTHOVIEW
 70
     0
  9
$PUCSORGTOP
 10
0.0
 20
0.0
 30
0.0
  9
$PUCSORGBOTTOM
 10
0.0
 20
0.0
 30
0.0
  9
$PUCSORGLEFT
 10
0.0
 20
0.0
 30
0.0
  9
$PUCSORGRIGHT
 10
0.0
 20
0.0
 30
0.0
  9
$PUCSORGFRONT
 10
0.0
 20
0.0
 30
0.0
  9
$PUCSORGBACK
 10
0.0
 20
0.0
 30
0.0
  9
$USERI1
 70
     0
  9
$USERI2
 70
     0
  9
$USERI3
 70
     0
  9
$USERI4
 70
     0
  9
$USERI5
 70
     0
  9
$USERR1
 40
0.0
  9
$USERR2
 40
0.0
  9
$USERR3
 40
0.0
  9
$USERR4
 40
0.0
  9
$USERR5
 40
0.0
  9
$WORLDVIEW
 70
     1
  9
$SHADEDGE
 70
     3
  9
$SHADEDIF
 70
    70
  9
$TILEMODE
 70
     1
  9
$MAXACTVP
 70
    64
  9
$PINSBASE
 10
0.0
 20
0.0
 30
0.0
  9
$PLIMCHECK
 70
     0
  9
$PEXTMIN
 10
1.000000000000000E+20
 20
1.000000000000000E+20
 30
1.000000000000000E+20
  9
$PEXTMAX
 10
-1.000000000000000E+20
 20
-1.000000000000000E+20
 30
-1.000000000000000E+20
  9
$PLIMMIN
 10
0.0
 20
0.0
  9
$PLIMMAX
 10
12.0
 20
9.0
  9
$UNITMODE
 70
     0
  9
$VISRETAIN
 70
     1
  9
$PLINEGEN
 70
     0
  9
$PSLTSCALE
 70
     1
  9
$TREEDEPTH
 70
  3020
  9
$CMLSTYLE
  2
Standard
  9
$CMLJUST
 70
     0
  9
$CMLSCALE
 40
1.0
  9
$PROXYGRAPHICS
 70
     1
  9
$MEASUREMENT
 70
     0
  9
$CELWEIGHT
370
    -1
  9
$ENDCAPS
280
     0
  9
$JOINSTYLE
280
     0
  9
$LWDISPLAY
290
     1
  9
$INSUNITS
 70
     4
  9
$HYPERLINKBASE
  1

  9
$STYLESHEET
  1

  9
$XEDIT
290
     1
  9
$CEPSNTYPE
380
     0
  9
$PSTYLEMODE
290
     1
  9
$FINGERPRINTGUID
  2
{1E48A700-05D7-3717-002F-BC66BB828541}
  9
$VERSIONGUID
  2
{FAEB1C32-E019-11D5-929B-00C0DF256EC4}
  9
$EXTNAMES
290
     1
  9
$PSVPSCALE
 40
0.0
  9
$OLESTARTUP
290
     0
  9
$SORTENTS
280
   127
  9
$INDEXCTL
280
     0
  9
$HIDETEXT
280
     1
  9
$XCLIPFRAME
280
     2
  9
$HALOGAP
280
     0
  9
$OBSCOLOR
 70
   257
  9
$OBSLTYPE
280
     0
  9
$INTERSECTIONDISPLAY
280
     0
  9
$INTERSECTIONCOLOR
 70
   257
  9
$DIMASSOC
280
     2
  9
$PROJECTNAME
  1

  9
$CAMERADISPLAY
290
     0
  9
$LENSLENGTH
 40
50.0
  9
$CAMERAHEIGHT
 40
0.0
  9
$STEPSPERSEC
 40
2.0
  9
$STEPSIZE
 40
6.0
  9
$3DDWFPREC
 40
2.0
  9
$PSOLWIDTH
 40
0.25
  9
$PSOLHEIGHT
 40
4.0
  9
$LOFTANG1
 40
1.570796326794897
  9
$LOFTANG2
 40
1.570796326794897
  9
$LOFTMAG1
 40
0.0
  9
$LOFTMAG2
 40
0.0
  9
$LOFTPARAM
 70
     7
  9
$LOFTNORMALS
280
     1
  9
$LATITUDE
 40
37.795
  9
$LONGITUDE
 40
-122.394
  9
$NORTHDIRECTION
 40
0.0
  9
$TIMEZONE
 70
 -8000
  9
$LIGHTGLYPHDISPLAY
280
     1
  9
$TILEMODELIGHTSYNCH
280
     1
  9
$CMATERIAL
347
3C
  9
$SOLIDHIST
280
     1
  9
$SHOWHIST
280
     1
  9
$DWFFRAME
280
     2
  9
$DGNFRAME
280
     2
  9
$REALWORLDSCALE
290
     1
  9
$INTERFERECOLOR
 62
   256
  9
$CSHADOW
280
     0
  9
$SHADOWPLANELOCATION
 40
0.0
  0
ENDSEC
  0
SECTION
  2
CLASSES
  0
CLASS
  1
ACDBDICTIONARYWDFLT
  2
AcDbDictionaryWithDefault
  3
ObjectDBX Classes
 90
        0
 91
        4
280
     0
281
     0
  0
CLASS
  1
VISUALSTYLE
  2
AcDbVisualStyle
  3
ObjectDBX Classes
 90
     4095
 91
        4
280
     0
281
     0
  0
CLASS
  1
MATERIAL
  2
AcDbMaterial
  3
ObjectDBX Classes
 90
     1153
 91
        4
280
     0
281
     0
  0
CLASS
  1
SUN
  2
AcDbSun
  3
SCENEOE
 90
     1024
 91
        4
280
     0
281
     0
  0
ENDSEC
  0
SECTION
  2
TABLES
  0
TABLE
  2
VPORT
  5
8
330
0
100
AcDbSymbolTable
 70
     1
  0
VPORT
  5
29
330
8
100
AcDbSymbolTableRecord
100
AcDbViewportTableRecord
  2
*Active
 70
     0
 10
0.0
 20
0.0
 11
1.0
 21
1.0
 12
0.0
 22
0.0
 13
0.0
 23
0.0
 14
0.5
 24
0.5
 15
0.5
 25
0.5
 16
0.0
 26
0.0
 36
1.0
 17
-144.0000096362258
 27
-81.00000081329446
 37
0.0
 40
249.9999927148555
 41
1.999999998181128
 42
50.0
 43
0.0
 44
0.0
 50
0.0
 51
0.0
 71
     0
 72
   100
 73
     1
 74
     3
 75
     0
 76
     0
 77
     0
 78
     0
281
     0
 65
     1
110
0.0
120
0.0
130
0.0
111
1.0
121
0.0
131
0.0
112
0.0
122
1.0
132
0.0
 79
     0
146
0.0
 60
     3
 61
     5
292
     1
282
     1
141
0.0
142
0.0
 63
   250
361
3F
  0
ENDTAB
  0
TABLE
  2
LTYPE
  5
5
330
0
100
AcDbSymbolTable
 70
     1
  0
LTYPE
  5
14
330
5
100
AcDbSymbolTableRecord
100
AcDbLinetypeTableRecord
  2
ByBlock
 70
     0
  3

 72
    65
 73
     0
 40
0.0
  0
LTYPE
  5
15
330
5
100
AcDbSymbolTableRecord
100
AcDbLinetypeTableRecord
  2
ByLayer
 70
     0
  3

 72
    65
 73
     0
 40
0.0
  0
LTYPE
  5
16
330
5
100
AcDbSymbolTableRecord
100
AcDbLinetypeTableRecord
  2
Continuous
 70
     0
  3
Solid line
 72
    65
 73
     0
 40
0.0
  0
ENDTAB
  0
TABLE
  2
LAYER
  5
2
330
0
100
AcDbSymbolTable
 70
     2
  0
LAYER
  5
10
330
2
100
AcDbSymbolTableRecord
100
AcDbLayerTableRecord
  2
0
 70
     0
 62
     7
  6
Continuous
370
    -3
390
F
347
3E
  0
LAYER
  5
40
330
2
100
AcDbSymbolTableRecord
100
AcDbLayerTableRecord
  2
_U+68F0_U+7481_U+60E7
 70
     0
 62
     7
  6
Continuous
370
    -3
390
F
347
3E
  0
ENDTAB
  0
TABLE
  2
STYLE
  5
3
330
0
100
AcDbSymbolTable
 70
     1
  0
STYLE
  5
11
330
3
100
AcDbSymbolTableRecord
100
AcDbTextStyleTableRecord
  2
Standard
 70
     0
 40
0.0
 41
1.0
 50
0.0
 71
     0
 42
0.2
  3
txt
  4

  0
ENDTAB
  0
TABLE
  2
VIEW
  5
6
330
0
100
AcDbSymbolTable
 70
     0
  0
ENDTAB
  0
TABLE
  2
UCS
  5
7
330
0
100
AcDbSymbolTable
 70
     0
  0
ENDTAB
  0
TABLE
  2
APPID
  5
9
330
0
100
AcDbSymbolTable
 70
     1
  0
APPID
  5
12
330
9
100
AcDbSymbolTableRecord
100
AcDbRegAppTableRecord
  2
ACAD
 70
     0
  0
ENDTAB
  0
TABLE
  2
DIMSTYLE
  5
A
330
0
100
AcDbSymbolTable
 70
     1
100
AcDbDimStyleTable
  0
DIMSTYLE
105
27
330
A
100
AcDbSymbolTableRecord
100
AcDbDimStyleTableRecord
  2
Standard
 70
     0
178
     0
340
11
  0
ENDTAB
  0
TABLE
  2
BLOCK_RECORD
  5
1
330
0
100
AcDbSymbolTable
 70
     5
  0
BLOCK_RECORD
  5
1F
330
1
100
AcDbSymbolTableRecord
100
AcDbBlockTableRecord
  2
*Model_Space
340
22
 70
     0
280
     1
281
     0
  0
BLOCK_RECORD
  5
1B
330
1
100
AcDbSymbolTableRecord
100
AcDbBlockTableRecord
  2
*Paper_Space
340
1E
 70
     0
280
     1
281
     0
  0
BLOCK_RECORD
  5
23
330
1
100
AcDbSymbolTableRecord
100
AcDbBlockTableRecord
  2
*Paper_Space0
340
26
 70
     0
280
     1
281
     0
  0
BLOCK_RECORD
  5
AA
330
1
100
AcDbSymbolTableRecord
100
AcDbBlockTableRecord
  2
block 2
340
0
102
{BLKREFS
331
AB
102
}
 70
     0
280
     1
281
     0
  0
BLOCK_RECORD
  5
C6
330
1
100
AcDbSymbolTableRecord
100
AcDbBlockTableRecord
  2
block 3
340
0
102
{BLKREFS
331
C7
102
}
 70
     0
280
     1
281
     0
  0
BLOCK_RECORD
  5
102
330
1
100
AcDbSymbolTableRecord
100
AcDbBlockTableRecord
  2
block 4
340
0
102
{BLKREFS
331
103
102
}
 70
     0
280
     1
281
     0
  0
BLOCK_RECORD
  5
11C
330
1
100
AcDbSymbolTableRecord
100
AcDbBlockTableRecord
  2
block 5
340
0
102
{BLKREFS
331
11D
102
}
 70
     0
280
     1
281
     0
  0
ENDTAB
  0
ENDSEC
  0
SECTION
  2
BLOCKS
  0
BLOCK
  5
20
330
1F
100
AcDbEntity
  8
0
100
AcDbBlockBegin
  2
*Model_Space
 70
     0
 10
0.0
 20
0.0
 30
0.0
  3
*Model_Space
  1

  0
ENDBLK
  5
21
330
1F
100
AcDbEntity
  8
0
100
AcDbBlockEnd
  0
BLOCK
  5
1C
330
1B
100
AcDbEntity
 67
     1
  8
0
100
AcDbBlockBegin
  2
*Paper_Space
 70
     0
 10
0.0
 20
0.0
 30
0.0
  3
*Paper_Space
  1

  0
ENDBLK
  5
1D
330
1B
100
AcDbEntity
 67
     1
  8
0
100
AcDbBlockEnd
  0
BLOCK
  5
24
330
23
100
AcDbEntity
  8
0
100
AcDbBlockBegin
  2
*Paper_Space0
 70
     0
 10
0.0
 20
0.0
 30
0.0
  3
*Paper_Space0
  1

  0
ENDBLK
  5
25
330
23
100
AcDbEntity
  8
0
100
AcDbBlockEnd
  0
BLOCK
  5
AC
330
AA
100
AcDbEntity
  8
0
100
AcDbBlockBegin
  2
block 2
 70
     0
 10
0.0
 20
0.0
 30
0.0
  3
block 2
  1

  0
POLYLINE
  5
AE
330
AA
100
AcDbEntity
  8
_U+68F0_U+7481_U+60E7
 62
     7
420
 16777215
370
    35
100
AcDb2dPolyline
 66
     1
 10
0.0
 20
0.0
 30
0.0
  0
VERTEX
  5
AF
330
AE
100
AcDbEntity
  8
_U+68F0_U+7481_U+60E7
 62
     7
420
 16777215
370
    35
100
AcDbVertex
100
AcDb2dVertex
 10
-27.55643519257204
 20
-173.2899653787043
 30
0.0
  0
VERTEX
  5
B0
330
AE
100
AcDbEntity
  8
_U+68F0_U+7481_U+60E7
 62
     7
420
 16777215
370
    35
100
AcDbVertex
100
AcDb2dVertex
 10
-17.55645519507512
 20
-173.3447517680282
 30
0.0
  0
VERTEX
  5
B1
330
AE
100
AcDbEntity
  8
_U+68F0_U+7481_U+60E7
 62
     7
420
 16777215
370
    35
100
AcDbVertex
100
AcDb2dVertex
 10
43.96389701177434
 20
-173.1787698263873
 30
0.0
  0
VERTEX
  5
B2
330
AE
100
AcDbEntity
  8
_U+68F0_U+7481_U+60E7
 62
     7
420
 16777215
370
    35
100
AcDbVertex
100
AcDb2dVertex
 10
-2.55644991324498
 20
0.4374973545191627
 30
0.0
  0
VERTEX
  5
B3
330
AE
100
AcDbEntity
  8
_U+68F0_U+7481_U+60E7
 62
     7
420
 16777215
370
    35
100
AcDbVertex
100
AcDb2dVertex
 10
-17.55645518727302
 20
0.437497355192305
 30
0.0
  0
VERTEX
  5
B4
330
AE
100
AcDbEntity
  8
_U+68F0_U+7481_U+60E7
 62
     7
420
 16777215
370
    35
100
AcDbVertex
100
AcDb2dVertex
 10
-27.55643518477251
 20
0.4374973556414943
 30
0.0
  0
VERTEX
  5
B5
330
AE
100
AcDbEntity
  8
_U+68F0_U+7481_U+60E7
 62
     7
420
 16777215
370
    35
100
AcDbVertex
100
AcDb2dVertex
 10
-27.55643518522138
 20
-9.562517919636157
 30
0.0
  0
VERTEX
  5
B6
330
AE
100
AcDbEntity
  8
_U+68F0_U+7481_U+60E7
 62
     7
420
 16777215
370
    35
100
AcDbVertex
100
AcDb2dVertex
 10
-17.55645518817076
 20
-19.56249791758484
 30
0.0
  0
VERTEX
  5
B7
330
AE
100
AcDbEntity
  8
_U+68F0_U+7481_U+60E7
 62
     7
420
 16777215
370
    35
100
AcDbVertex
100
AcDb2dVertex
 10
-17.55645519417481
 20
-153.2899701063751
 30
0.0
  0
VERTEX
  5
B8
330
AE
100
AcDbEntity
  8
_U+68F0_U+7481_U+60E7
 62
     7
420
 16777215
370
    35
100
AcDbVertex
100
AcDb2dVertex
 10
-27.55643519212317
 20
-163.2899501034267
 30
0.0
  0
VERTEX
  5
B9
330
AE
100
AcDbEntity
  8
_U+68F0_U+7481_U+60E7
 62
     7
420
 16777215
370
    35
100
AcDbVertex
100
AcDb2dVertex
 10
-27.55643519257204
 20
-173.2899653787043
 30
0.0
  0
SEQEND
  5
BA
330
AE
100
AcDbEntity
  8
_U+68F0_U+7481_U+60E7
 62
     7
420
 16777215
370
    35
  0
ENDBLK
  5
AD
330
AA
100
AcDbEntity
  8
0
100
AcDbBlockEnd
  0
BLOCK
  5
C8
330
C6
100
AcDbEntity
  8
0
100
AcDbBlockBegin
  2
block 3
 70
     0
 10
0.0
 20
0.0
 30
0.0
  3
block 3
  1

  0
POLYLINE
  5
CA
330
C6
100
AcDbEntity
  8
_U+68F0_U+7481_U+60E7
 62
     7
420
 16777215
370
    35
100
AcDb2dPolyline
 66
     1
 10
0.0
 20
0.0
 30
0.0
  0
VERTEX
  5
CB
330
CA
100
AcDbEntity
  8
_U+68F0_U+7481_U+60E7
 62
     7
420
 16777215
370
    35
100
AcDbVertex
100
AcDb2dVertex
 10
0.9563745518601131
 20
-45.47368241668879
 30
0.0
  0
VERTEX
  5
CC
330
CA
100
AcDbEntity
  8
_U+68F0_U+7481_U+60E7
 62
     7
420
 16777215
370
    35
100
AcDbVertex
100
AcDb2dVertex
 10
3.854152025577737
 20
-44.69722526506163
 30
0.0
  0
VERTEX
  5
CD
330
CA
100
AcDbEntity
  8
_U+68F0_U+7481_U+60E7
 62
     7
420
 16777215
370
    35
100
AcDbVertex
100
AcDb2dVertex
 10
-3.910422222682198
 20
-15.71944033200123
 30
0.0
  0
VERTEX
  5
CE
330
CA
100
AcDbEntity
  8
_U+68F0_U+7481_U+60E7
 62
     7
420
 16777215
370
    35
100
AcDbVertex
100
AcDb2dVertex
 10
-6.808199696399822
 20
-16.49589748362966
 30
0.0
  0
VERTEX
  5
CF
330
CA
100
AcDbEntity
  8
_U+68F0_U+7481_U+60E7
 62
     7
420
 16777215
370
    35
100
AcDbVertex
100
AcDb2dVertex
 10
0.9563745518601131
 20
-45.47368241668879
 30
0.0
  0
SEQEND
  5
D0
330
CA
100
AcDbEntity
  8
_U+68F0_U+7481_U+60E7
 62
     7
420
 16777215
370
    35
  0
POLYLINE
  5
D1
330
C6
100
AcDbEntity
  8
_U+68F0_U+7481_U+60E7
 62
     7
420
 16777215
370
    35
100
AcDb2dPolyline
 66
     1
 10
0.0
 20
0.0
 30
0.0
  0
VERTEX
  5
D2
330
D1
100
AcDbEntity
  8
_U+68F0_U+7481_U+60E7
 62
     7
420
 16777215
370
    35
100
AcDbVertex
100
AcDb2dVertex
 10
31.49689181557483
 20
-159.4524419360091
 30
0.0
  0
VERTEX
  5
D3
330
D1
100
AcDbEntity
  8
_U+68F0_U+7481_U+60E7
 62
     7
420
 16777215
370
    35
100
AcDbVertex
100
AcDb2dVertex
 10
34.39466928929246
 20
-158.6759847843813
 30
0.0
  0
VERTEX
  5
D4
330
D1
100
AcDbEntity
  8
_U+68F0_U+7481_U+60E7
 62
     7
420
 16777215
370
    35
100
AcDbVertex
100
AcDb2dVertex
 10
26.63009504103252
 20
-129.6981998513209
 30
0.0
  0
VERTEX
  5
D5
330
D1
100
AcDbEntity
  8
_U+68F0_U+7481_U+60E7
 62
     7
420
 16777215
370
    35
100
AcDbVertex
100
AcDb2dVertex
 10
23.73231756731458
 20
-130.4746570029486
 30
0.0
  0
VERTEX
  5
D6
330
D1
100
AcDbEntity
  8
_U+68F0_U+7481_U+60E7
 62
     7
420
 16777215
370
    35
100
AcDbVertex
100
AcDb2dVertex
 10
31.49689181557483
 20
-159.4524419360091
 30
0.0
  0
SEQEND
  5
D7
330
D1
100
AcDbEntity
  8
_U+68F0_U+7481_U+60E7
 62
     7
420
 16777215
370
    35
  0
ENDBLK
  5
C9
330
C6
100
AcDbEntity
  8
0
100
AcDbBlockEnd
  0
BLOCK
  5
104
330
102
100
AcDbEntity
  8
0
100
AcDbBlockBegin
  2
block 4
 70
     0
 10
0.0
 20
0.0
 30
0.0
  3
block 4
  1

  0
POLYLINE
  5
106
330
102
100
AcDbEntity
  8
_U+68F0_U+7481_U+60E7
 62
     7
420
 16777215
370
    35
100
AcDb2dPolyline
 66
     1
 10
0.0
 20
0.0
 30
0.0
  0
VERTEX
  5
107
330
106
100
AcDbEntity
  8
_U+68F0_U+7481_U+60E7
 62
     7
420
 16777215
370
    35
100
AcDbVertex
100
AcDb2dVertex
 10
72.1861192356832
 20
21.5493776236634
 30
0.0
  0
VERTEX
  5
108
330
106
100
AcDbEntity
  8
_U+68F0_U+7481_U+60E7
 62
     7
420
 16777215
370
    35
100
AcDbVertex
100
AcDb2dVertex
 10
62.18613923818562
 20
21.60416401298727
 30
0.0
  0
VERTEX
  5
109
330
106
100
AcDbEntity
  8
_U+68F0_U+7481_U+60E7
 62
     7
420
 16777215
370
    35
100
AcDbVertex
100
AcDb2dVertex
 10
0.6657870313371362
 20
21.43818207134639
 30
0.0
  0
VERTEX
  5
10A
330
106
100
AcDbEntity
  8
_U+68F0_U+7481_U+60E7
 62
     7
420
 16777215
370
    35
100
AcDbVertex
100
AcDb2dVertex
 10
47.18613395635645
 20
-152.1780851095594
 30
0.0
  0
VERTEX
  5
10B
330
106
100
AcDbEntity
  8
_U+68F0_U+7481_U+60E7
 62
     7
420
 16777215
370
    35
100
AcDbVertex
100
AcDb2dVertex
 10
62.18613923038353
 20
-152.1780851102332
 30
0.0
  0
VERTEX
  5
10C
330
106
100
AcDbEntity
  8
_U+68F0_U+7481_U+60E7
 62
     7
420
 16777215
370
    35
100
AcDbVertex
100
AcDb2dVertex
 10
72.18611922788334
 20
-152.1780851106824
 30
0.0
  0
VERTEX
  5
10D
330
106
100
AcDbEntity
  8
_U+68F0_U+7481_U+60E7
 62
     7
420
 16777215
370
    35
100
AcDbVertex
100
AcDb2dVertex
 10
72.1861192283322
 20
-142.1780698354048
 30
0.0
  0
VERTEX
  5
10E
330
106
100
AcDbEntity
  8
_U+68F0_U+7481_U+60E7
 62
     7
420
 16777215
370
    35
100
AcDbVertex
100
AcDb2dVertex
 10
62.18613923128127
 20
-132.1780898374561
 30
0.0
  0
VERTEX
  5
10F
330
106
100
AcDbEntity
  8
_U+68F0_U+7481_U+60E7
 62
     7
420
 16777215
370
    35
100
AcDbVertex
100
AcDb2dVertex
 10
62.18613923728532
 20
1.549382351334168
 30
0.0
  0
VERTEX
  5
110
330
106
100
AcDbEntity
  8
_U+68F0_U+7481_U+60E7
 62
     7
420
 16777215
370
    35
100
AcDbVertex
100
AcDb2dVertex
 10
72.186119235234
 20
11.54936234838575
 30
0.0
  0
VERTEX
  5
111
330
106
100
AcDbEntity
  8
_U+68F0_U+7481_U+60E7
 62
     7
420
 16777215
370
    35
100
AcDbVertex
100
AcDb2dVertex
 10
72.1861192356832
 20
21.5493776236634
 30
0.0
  0
SEQEND
  5
112
330
106
100
AcDbEntity
  8
_U+68F0_U+7481_U+60E7
 62
     7
420
 16777215
370
    35
  0
ENDBLK
  5
105
330
102
100
AcDbEntity
  8
0
100
AcDbBlockEnd
  0
BLOCK
  5
11E
330
11C
100
AcDbEntity
  8
0
100
AcDbBlockBegin
  2
block 5
 70
     0
 10
0.0
 20
0.0
 30
0.0
  3
block 5
  1

  0
POLYLINE
  5
120
330
11C
100
AcDbEntity
  8
_U+68F0_U+7481_U+60E7
 62
     7
420
 16777215
370
    35
100
AcDb2dPolyline
 66
     1
 10
0.0
 20
0.0
 30
0.0
  0
VERTEX
  5
121
330
120
100
AcDbEntity
  8
_U+68F0_U+7481_U+60E7
 62
     7
420
 16777215
370
    35
100
AcDbVertex
100
AcDb2dVertex
 10
43.67330949125136
 20
-106.2669053383521
 30
0.0
  0
VERTEX
  5
122
330
120
100
AcDbEntity
  8
_U+68F0_U+7481_U+60E7
 62
     7
420
 16777215
370
    35
100
AcDbVertex
100
AcDb2dVertex
 10
40.77553201753405
 20
-107.0433624899793
 30
0.0
  0
VERTEX
  5
123
330
120
100
AcDbEntity
  8
_U+68F0_U+7481_U+60E7
 62
     7
420
 16777215
370
    35
100
AcDbVertex
100
AcDb2dVertex
 10
48.54010626579399
 20
-136.0211474230397
 30
0.0
  0
VERTEX
  5
124
330
120
100
AcDbEntity
  8
_U+68F0_U+7481_U+60E7
 62
     7
420
 16777215
370
    35
100
AcDbVertex
100
AcDb2dVertex
 10
51.43788373951129
 20
-135.2446902714113
 30
0.0
  0
VERTEX
  5
125
330
120
100
AcDbEntity
  8
_U+68F0_U+7481_U+60E7
 62
     7
420
 16777215
370
    35
100
AcDbVertex
100
AcDb2dVertex
 10
43.67330949125136
 20
-106.2669053383521
 30
0.0
  0
SEQEND
  5
126
330
120
100
AcDbEntity
  8
_U+68F0_U+7481_U+60E7
 62
     7
420
 16777215
370
    35
  0
POLYLINE
  5
127
330
11C
100
AcDbEntity
  8
_U+68F0_U+7481_U+60E7
 62
     7
420
 16777215
370
    35
100
AcDb2dPolyline
 66
     1
 10
0.0
 20
0.0
 30
0.0
  0
VERTEX
  5
128
330
127
100
AcDbEntity
  8
_U+68F0_U+7481_U+60E7
 62
     7
420
 16777215
370
    35
100
AcDbVertex
100
AcDb2dVertex
 10
13.13279222753664
 20
7.711854180968141
 30
0.0
  0
VERTEX
  5
129
330
127
100
AcDbEntity
  8
_U+68F0_U+7481_U+60E7
 62
     7
420
 16777215
370
    35
100
AcDbVertex
100
AcDb2dVertex
 10
10.23501475381934
 20
6.935397029340348
 30
0.0
  0
VERTEX
  5
12A
330
127
100
AcDbEntity
  8
_U+68F0_U+7481_U+60E7
 62
     7
420
 16777215
370
    35
100
AcDbVertex
100
AcDb2dVertex
 10
17.99958900207927
 20
-22.04238790371942
 30
0.0
  0
VERTEX
  5
12B
330
127
100
AcDbEntity
  8
_U+68F0_U+7481_U+60E7
 62
     7
420
 16777215
370
    35
100
AcDbVertex
100
AcDb2dVertex
 10
20.89736647579722
 20
-21.26593075209227
 30
0.0
  0
VERTEX
  5
12C
330
127
100
AcDbEntity
  8
_U+68F0_U+7481_U+60E7
 62
     7
420
 16777215
370
    35
100
AcDbVertex
100
AcDb2dVertex
 10
13.13279222753664
 20
7.711854180968141
 30
0.0
  0
SEQEND
  5
12D
330
127
100
AcDbEntity
  8
_U+68F0_U+7481_U+60E7
 62
     7
420
 16777215
370
    35
  0
ENDBLK
  5
11F
330
11C
100
AcDbEntity
  8
0
100
AcDbBlockEnd
  0
ENDSEC
  0
SECTION
  2
ENTITIES
  0
SPLINE
  5
41
330
1F
100
AcDbEntity
  8
_U+68F0_U+7481_U+60E7
 62
     7
420
 16777215
370
    35
100
AcDbSpline
210
0.0
220
0.0
230
1.0
 70
    11
 71
     3
 72
    17
 73
    13
 74
     0
 42
0.0000000001
 43
0.0000000001
 12
1.0
 22
0.0
 32
0.0
 13
1.0
 23
0.0
 33
0.0
 40
0.0
 40
0.0
 40
0.0
 40
0.0
 40
1.0
 40
1.0
 40
1.0
 40
2.0
 40
2.0
 40
2.0
 40
3.0
 40
3.0
 40
3.0
 40
4.0
 40
4.0
 40
4.0
 40
4.0
 10
-213.5691514460665
 20
-58.28333387132736
 30
0.0
 10
-213.5691514460293
 20
-57.45490581597839
 30
0.0
 10
-212.8975683906115
 20
-56.78332276062127
 30
0.0
 10
-212.0691403352628
 20
-56.78332276065849
 30
0.0
 10
-211.2407122799148
 20
-56.78332276069571
 30
0.0
 10
-210.5691292245571
 20
-57.45490581611315
 30
0.0
 10
-210.5691292245943
 20
-58.28333387146212
 30
0.0
 10
-210.5691292246315
 20
-59.11176192681044
 30
0.0
 10
-211.2407122800496
 20
-59.78334498216757
 30
0.0
 10
-212.0691403353976
 20
-59.78334498213035
 30
0.0
 10
-212.8975683907462
 20
-59.78334498209313
 30
0.0
 10
-213.5691514461037
 20
-59.11176192667569
 30
0.0
 10
-213.5691514460665
 20
-58.28333387132736
 30
0.0
  0
SPLINE
  5
42
330
1F
100
AcDbEntity
  8
_U+68F0_U+7481_U+60E7
 62
     7
420
 16777215
370
    35
100
AcDbSpline
210
0.0
220
0.0
230
1.0
 70
    11
 71
     3
 72
    17
 73
    13
 74
     0
 42
0.0000000001
 43
0.0000000001
 12
1.0
 22
0.0
 32
0.0
 13
1.0
 23
0.0
 33
0.0
 40
0.0
 40
0.0
 40
0.0
 40
0.0
 40
1.0
 40
1.0
 40
1.0
 40
2.0
 40
2.0
 40
2.0
 40
3.0
 40
3.0
 40
3.0
 40
4.0
 40
4.0
 40
4.0
 40
4.0
 10
-279.5691464295663
 20
-58.283333868364
 30
0.0
 10
-279.5691464295291
 20
-57.45490581301503
 30
0.0
 10
-278.8975633741114
 20
-56.78332275765791
 30
0.0
 10
-278.069135318763
 20
-56.78332275769512
 30
0.0
 10
-277.2407072634147
 20
-56.78332275773234
 30
0.0
 10
-276.5691594858348
 20
-57.45490581314979
 30
0.0
 10
-276.5691594858723
 20
-58.28333386849875
 30
0.0
 10
-276.5691594859092
 20
-59.11176192384708
 30
0.0
 10
-277.2407072635494
 20
-59.7833449792042
 30
0.0
 10
-278.0691353188978
 20
-59.78334497916698
 30
0.0
 10
-278.8975633742461
 20
-59.78334497912977
 30
0.0
 10
-279.5691464296036
 20
-59.11176192371232
 30
0.0
 10
-279.5691464295663
 20
-58.283333868364
 30
0.0
  0
SPLINE
  5
43
330
1F
100
AcDbEntity
  8
_U+68F0_U+7481_U+60E7
 62
     7
420
 16777215
370
    35
100
AcDbSpline
210
0.0
220
0.0
230
1.0
 70
    11
 71
     3
 72
    17
 73
    13
 74
     0
 42
0.0000000001
 43
0.0000000001
 12
1.0
 22
0.0
 32
0.0
 13
1.0
 23
0.0
 33
0.0
 40
0.0
 40
0.0
 40
0.0
 40
0.0
 40
1.0
 40
1.0
 40
1.0
 40
2.0
 40
2.0
 40
2.0
 40
3.0
 40
3.0
 40
3.0
 40
4.0
 40
4.0
 40
4.0
 40
4.0
 10
-279.5691464266033
 20
7.716661115136199
 30
0.0
 10
-279.5691464265664
 20
8.545089170485168
 30
0.0
 10
-278.8975633711483
 20
9.216672225842292
 30
0.0
 10
-278.0691353158003
 20
9.216672225805073
 30
0.0
 10
-277.2407072604516
 20
9.216672225767855
 30
0.0
 10
-276.5691594828717
 20
8.54508917035041
 30
0.0
 10
-276.569159482909
 20
7.716661115001443
 30
0.0
 10
-276.5691594829462
 20
6.888233059653117
 30
0.0
 10
-277.2407072605864
 20
6.21665000429535
 30
0.0
 10
-278.0691353159351
 20
6.216650004332569
 30
0.0
 10
-278.8975633712831
 20
6.216650004369788
 30
0.0
 10
-279.5691464266408
 20
6.888233059787873
 30
0.0
 10
-279.5691464266033
 20
7.716661115136199
 30
0.0
  0
SPLINE
  5
44
330
1F
100
AcDbEntity
  8
_U+68F0_U+7481_U+60E7
 62
     7
420
 16777215
370
    35
100
AcDbSpline
210
0.0
220
0.0
230
1.0
 70
    11
 71
     3
 72
    17
 73
    13
 74
     0
 42
0.0000000001
 43
0.0000000001
 12
1.0
 22
0.0
 32
0.0
 13
1.0
 23
0.0
 33
0.0
 40
0.0
 40
0.0
 40
0.0
 40
0.0
 40
1.0
 40
1.0
 40
1.0
 40
2.0
 40
2.0
 40
2.0
 40
3.0
 40
3.0
 40
3.0
 40
4.0
 40
4.0
 40
4.0
 40
4.0
 10
-213.5691514431034
 20
7.716661112172834
 30
0.0
 10
-213.5691514430662
 20
8.545089167521802
 30
0.0
 10
-212.8975683876484
 20
9.216672222878925
 30
0.0
 10
-212.0691403322998
 20
9.216672222841707
 30
0.0
 10
-211.2407122769515
 20
9.216672222804489
 30
0.0
 10
-210.569129221594
 20
8.545089167387045
 30
0.0
 10
-210.5691292216312
 20
7.716661112038077
 30
0.0
 10
-210.5691292216684
 20
6.88823305668975
 30
0.0
 10
-211.2407122770862
 20
6.216650001331985
 30
0.0
 10
-212.0691403324346
 20
6.216650001369203
 30
0.0
 10
-212.8975683877835
 20
6.216650001406421
 30
0.0
 10
-213.5691514431406
 20
6.888233056824507
 30
0.0
 10
-213.5691514431034
 20
7.716661112172834
 30
0.0
  0
SPLINE
  5
45
330
1F
100
AcDbEntity
  8
_U+68F0_U+7481_U+60E7
 62
     7
420
 16777215
370
    35
100
AcDbSpline
210
0.0
220
0.0
230
1.0
 70
    11
 71
     3
 72
    17
 73
    13
 74
     0
 42
0.0000000001
 43
0.0000000001
 12
1.0
 22
0.0
 32
0.0
 13
1.0
 23
0.0
 33
0.0
 40
0.0
 40
0.0
 40
0.0
 40
0.0
 40
1.0
 40
1.0
 40
1.0
 40
2.0
 40
2.0
 40
2.0
 40
3.0
 40
3.0
 40
3.0
 40
4.0
 40
4.0
 40
4.0
 40
4.0
 10
-263.0691300425805
 20
-8.78331999259045
 30
0.0
 10
-263.0691300425433
 20
-7.954891937242124
 30
0.0
 10
-262.397582264903
 20
-7.283344159661877
 30
0.0
 10
-261.569154209555
 20
-7.283344159699095
 30
0.0
 10
-260.7407261542061
 20
-7.283344159736314
 30
0.0
 10
-260.0691430988492
 20
-7.95489193737688
 30
0.0
 10
-260.0691430988862
 20
-8.783319992725207
 30
0.0
 10
-260.0691430989237
 20
-9.611748048073533
 30
0.0
 10
-260.7407261543408
 20
-10.28333110343066
 30
0.0
 10
-261.5691542096898
 20
-10.28333110339344
 30
0.0
 10
-262.3975822650378
 20
-10.28333110335622
 30
0.0
 10
-263.0691300426177
 20
-9.611748047938777
 30
0.0
 10
-263.0691300425805
 20
-8.78331999259045
 30
0.0
  0
SPLINE
  5
46
330
1F
100
AcDbEntity
  8
_U+68F0_U+7481_U+60E7
 62
     7
420
 16777215
370
    35
100
AcDbSpline
210
0.0
220
0.0
230
1.0
 70
    11
 71
     3
 72
    17
 73
    13
 74
     0
 42
0.0000000001
 43
0.0000000001
 12
1.0
 22
0.0
 32
0.0
 13
1.0
 23
0.0
 33
0.0
 40
0.0
 40
0.0
 40
0.0
 40
0.0
 40
1.0
 40
1.0
 40
1.0
 40
2.0
 40
2.0
 40
2.0
 40
3.0
 40
3.0
 40
3.0
 40
4.0
 40
4.0
 40
4.0
 40
4.0
 10
-263.0691300440621
 20
-41.78331748434023
 30
0.0
 10
-263.069130044025
 20
-40.9548894289919
 30
0.0
 10
-262.3975822663847
 20
-40.28334165141229
 30
0.0
 10
-261.5691542110364
 20
-40.28334165144951
 30
0.0
 10
-260.7407261556878
 20
-40.28334165148674
 30
0.0
 10
-260.0691431003309
 20
-40.95488942912666
 30
0.0
 10
-260.0691431003679
 20
-41.78331748447498
 30
0.0
 10
-260.0691431004047
 20
-42.61174553982331
 30
0.0
 10
-260.7407261558222
 20
-43.28332859518108
 30
0.0
 10
-261.5691542111711
 20
-43.28332859514386
 30
0.0
 10
-262.3975822665191
 20
-43.28332859510664
 30
0.0
 10
-263.069130044099
 20
-42.61174553968856
 30
0.0
 10
-263.0691300440621
 20
-41.78331748434023
 30
0.0
  0
SPLINE
  5
47
330
1F
100
AcDbEntity
  8
_U+68F0_U+7481_U+60E7
 62
     7
420
 16777215
370
    35
100
AcDbSpline
210
0.0
220
0.0
230
1.0
 70
    11
 71
     3
 72
    17
 73
    13
 74
     0
 42
0.0000000001
 43
0.0000000001
 12
1.0
 22
0.0
 32
0.0
 13
1.0
 23
0.0
 33
0.0
 40
0.0
 40
0.0
 40
0.0
 40
0.0
 40
1.0
 40
1.0
 40
1.0
 40
2.0
 40
2.0
 40
2.0
 40
3.0
 40
3.0
 40
3.0
 40
4.0
 40
4.0
 40
4.0
 40
4.0
 10
-230.0691325523121
 20
-41.78331748582191
 30
0.0
 10
-230.0691325522749
 20
-40.95488943047359
 30
0.0
 10
-229.3975847746346
 20
-40.28334165289398
 30
0.0
 10
-228.5691567192863
 20
-40.2833416529312
 30
0.0
 10
-227.7407286639383
 20
-40.28334165296842
 30
0.0
 10
-227.0691456085805
 20
-40.95488943060834
 30
0.0
 10
-227.0691456086177
 20
-41.78331748595667
 30
0.0
 10
-227.0691456086546
 20
-42.61174554130499
 30
0.0
 10
-227.7407286640724
 20
-43.28332859666276
 30
0.0
 10
-228.5691567194207
 20
-43.28332859662554
 30
0.0
 10
-229.3975847747691
 20
-43.28332859658832
 30
0.0
 10
-230.069132552349
 20
-42.61174554117024
 30
0.0
 10
-230.0691325523121
 20
-41.78331748582191
 30
0.0
  0
SPLINE
  5
48
330
1F
100
AcDbEntity
  8
_U+68F0_U+7481_U+60E7
 62
     7
420
 16777215
370
    35
100
AcDbSpline
210
0.0
220
0.0
230
1.0
 70
    11
 71
     3
 72
    17
 73
    13
 74
     0
 42
0.0000000001
 43
0.0000000001
 12
1.0
 22
0.0
 32
0.0
 13
1.0
 23
0.0
 33
0.0
 40
0.0
 40
0.0
 40
0.0
 40
0.0
 40
1.0
 40
1.0
 40
1.0
 40
2.0
 40
2.0
 40
2.0
 40
3.0
 40
3.0
 40
3.0
 40
4.0
 40
4.0
 40
4.0
 40
4.0
 10
-230.0691325508304
 20
-8.783319994072134
 30
0.0
 10
-230.0691325507932
 20
-7.954891938723806
 30
0.0
 10
-229.3975847731529
 20
-7.28334416114356
 30
0.0
 10
-228.5691567178046
 20
-7.283344161180779
 30
0.0
 10
-227.7407286624566
 20
-7.283344161217998
 30
0.0
 10
-227.0691456070988
 20
-7.954891938858563
 30
0.0
 10
-227.0691456071361
 20
-8.78331999420689
 30
0.0
 10
-227.0691456071733
 20
-9.611748049555215
 30
0.0
 10
-227.7407286625914
 20
-10.28333110491234
 30
0.0
 10
-228.5691567179394
 20
-10.28333110487512
 30
0.0
 10
-229.3975847732877
 20
-10.2833311048379
 30
0.0
 10
-230.0691325508676
 20
-9.61174804942046
 30
0.0
 10
-230.0691325508304
 20
-8.783319994072134
 30
0.0
  0
SPLINE
  5
49
330
1F
100
AcDbEntity
  8
_U+68F0_U+7481_U+60E7
 62
     7
420
 16777215
370
    35
100
AcDbSpline
210
0.0
220
0.0
230
1.0
 70
    11
 71
     3
 72
    17
 73
    13
 74
     0
 42
0.0000000001
 43
0.0000000001
 12
1.0
 22
0.0
 32
0.0
 13
1.0
 23
0.0
 33
0.0
 40
0.0
 40
0.0
 40
0.0
 40
0.0
 40
1.0
 40
1.0
 40
1.0
 40
2.0
 40
2.0
 40
2.0
 40
3.0
 40
3.0
 40
3.0
 40
4.0
 40
4.0
 40
4.0
 40
4.0
 10
-291.5691294821187
 20
-58.19912581229051
 30
0.0
 10
-291.5691294820818
 20
-57.37069775694154
 30
0.0
 10
-290.8975817044412
 20
-56.69914997936193
 30
0.0
 10
-290.0691536490925
 20
-56.69914997939915
 30
0.0
 10
-289.2407255937442
 20
-56.69914997943637
 30
0.0
 10
-288.5691425383868
 20
-57.3706977570763
 30
0.0
 10
-288.569142538424
 20
-58.19912581242527
 30
0.0
 10
-288.5691425384612
 20
-59.02755386777359
 30
0.0
 10
-289.2407255938787
 20
-59.69913692313072
 30
0.0
 10
-290.069153649227
 20
-59.6991369230935
 30
0.0
 10
-290.8975817045759
 20
-59.69913692305628
 30
0.0
 10
-291.5691294821562
 20
-59.02755386763884
 30
0.0
 10
-291.5691294821187
 20
-58.19912581229051
 30
0.0
  0
SPLINE
  5
4A
330
1F
100
AcDbEntity
  8
_U+68F0_U+7481_U+60E7
 62
     7
420
 16777215
370
    35
100
AcDbSpline
210
0.0
220
0.0
230
1.0
 70
    11
 71
     3
 72
    17
 73
    13
 74
     0
 42
0.0000000001
 43
0.0000000001
 12
1.0
 22
0.0
 32
0.0
 13
1.0
 23
0.0
 33
0.0
 40
0.0
 40
0.0
 40
0.0
 40
0.0
 40
1.0
 40
1.0
 40
1.0
 40
2.0
 40
2.0
 40
2.0
 40
3.0
 40
3.0
 40
3.0
 40
4.0
 40
4.0
 40
4.0
 40
4.0
 10
-357.5691576087464
 20
-58.19912580932778
 30
0.0
 10
-357.5691576087075
 20
-57.37069775397882
 30
0.0
 10
-356.8975745702566
 20
-56.69914997639921
 30
0.0
 10
-356.069146535835
 20
-56.69914997643643
 30
0.0
 10
-355.2407185014167
 20
-56.69914997647365
 30
0.0
 10
-354.5691354630226
 20
-57.37069775411357
 30
0.0
 10
-354.5691354630614
 20
-58.19912580946254
 30
0.0
 10
-354.5691354631002
 20
-59.02755386481087
 30
0.0
 10
-355.2407185015508
 20
-59.69913692016799
 30
0.0
 10
-356.0691465359724
 20
-59.69913692013077
 30
0.0
 10
-356.8975745703907
 20
-59.69913692009355
 30
0.0
 10
-357.5691576087852
 20
-59.02755386467611
 30
0.0
 10
-357.5691576087464
 20
-58.19912580932778
 30
0.0
  0
SPLINE
  5
4B
330
1F
100
AcDbEntity
  8
_U+68F0_U+7481_U+60E7
 62
     7
420
 16777215
370
    35
100
AcDbSpline
210
0.0
220
0.0
230
1.0
 70
    11
 71
     3
 72
    17
 73
    13
 74
     0
 42
0.0000000001
 43
0.0000000001
 12
1.0
 22
0.0
 32
0.0
 13
1.0
 23
0.0
 33
0.0
 40
0.0
 40
0.0
 40
0.0
 40
0.0
 40
1.0
 40
1.0
 40
1.0
 40
2.0
 40
2.0
 40
2.0
 40
3.0
 40
3.0
 40
3.0
 40
4.0
 40
4.0
 40
4.0
 40
4.0
 10
-357.569157605783
 20
7.800869174172413
 30
0.0
 10
-357.5691576057442
 20
8.62929722952074
 30
0.0
 10
-356.8975745672932
 20
9.300845007100985
 30
0.0
 10
-356.0691465328717
 20
9.300845007063767
 30
0.0
 10
-355.2407184984536
 20
9.300845007026549
 30
0.0
 10
-354.5691354600592
 20
8.629297229385982
 30
0.0
 10
-354.569135460098
 20
7.800869174037656
 30
0.0
 10
-354.5691354601333
 20
6.972441118689329
 30
0.0
 10
-355.2407184985875
 20
6.300858063332205
 30
0.0
 10
-356.0691465330093
 20
6.300858063369424
 30
0.0
 10
-356.8975745674273
 20
6.300858063406642
 30
0.0
 10
-357.5691576058218
 20
6.972441118824086
 30
0.0
 10
-357.569157605783
 20
7.800869174172413
 30
0.0
  0
SPLINE
  5
4C
330
1F
100
AcDbEntity
  8
_U+68F0_U+7481_U+60E7
 62
     7
420
 16777215
370
    35
100
AcDbSpline
210
0.0
220
0.0
230
1.0
 70
    11
 71
     3
 72
    17
 73
    13
 74
     0
 42
0.0000000001
 43
0.0000000001
 12
1.0
 22
0.0
 32
0.0
 13
1.0
 23
0.0
 33
0.0
 40
0.0
 40
0.0
 40
0.0
 40
0.0
 40
1.0
 40
1.0
 40
1.0
 40
2.0
 40
2.0
 40
2.0
 40
3.0
 40
3.0
 40
3.0
 40
4.0
 40
4.0
 40
4.0
 40
4.0
 10
-291.5691294791553
 20
7.800869171209689
 30
0.0
 10
-291.5691294791181
 20
8.629297226558014
 30
0.0
 10
-290.8975817014779
 20
9.300845004138262
 30
0.0
 10
-290.0691536461292
 20
9.300845004101042
 30
0.0
 10
-289.2407255907809
 20
9.300845004063824
 30
0.0
 10
-288.5691425354234
 20
8.629297226423258
 30
0.0
 10
-288.5691425354606
 20
7.800869171074932
 30
0.0
 10
-288.5691425354979
 20
6.972441115726605
 30
0.0
 10
-289.2407255909156
 20
6.300858060369481
 30
0.0
 10
-290.0691536462639
 20
6.3008580604067
 30
0.0
 10
-290.8975817016126
 20
6.300858060443918
 30
0.0
 10
-291.5691294791925
 20
6.972441115861362
 30
0.0
 10
-291.5691294791553
 20
7.800869171209689
 30
0.0
  0
SPLINE
  5
4D
330
1F
100
AcDbEntity
  8
_U+68F0_U+7481_U+60E7
 62
     7
420
 16777215
370
    35
100
AcDbSpline
210
0.0
220
0.0
230
1.0
 70
    11
 71
     3
 72
    17
 73
    13
 74
     0
 42
0.0000000001
 43
0.0000000001
 12
1.0
 22
0.0
 32
0.0
 13
1.0
 23
0.0
 33
0.0
 40
0.0
 40
0.0
 40
0.0
 40
0.0
 40
1.0
 40
1.0
 40
1.0
 40
2.0
 40
2.0
 40
2.0
 40
3.0
 40
3.0
 40
3.0
 40
4.0
 40
4.0
 40
4.0
 40
4.0
 10
-341.0691416385854
 20
-8.699147211331756
 30
0.0
 10
-341.0691416385482
 20
-7.87071915598343
 30
0.0
 10
-340.397558600096
 20
-7.199136100625664
 30
0.0
 10
-339.5691305656754
 20
-7.199136100662883
 30
0.0
 10
-338.7407025312545
 20
-7.199136100700101
 30
0.0
 10
-338.0691547706398
 20
-7.870719156118187
 30
0.0
 10
-338.069154770677
 20
-8.699147211466514
 30
0.0
 10
-338.0691547707142
 20
-9.52757526681484
 30
0.0
 10
-338.7407025313896
 20
-10.19912304439509
 30
0.0
 10
-339.5691305658102
 20
-10.19912304435787
 30
0.0
 10
-340.3975586002308
 20
-10.19912304432065
 30
0.0
 10
-341.0691416386226
 20
-9.527575266680083
 30
0.0
 10
-341.0691416385854
 20
-8.699147211331756
 30
0.0
  0
SPLINE
  5
4E
330
1F
100
AcDbEntity
  8
_U+68F0_U+7481_U+60E7
 62
     7
420
 16777215
370
    35
100
AcDbSpline
210
0.0
220
0.0
230
1.0
 70
    11
 71
     3
 72
    17
 73
    13
 74
     0
 42
0.0000000001
 43
0.0000000001
 12
1.0
 22
0.0
 32
0.0
 13
1.0
 23
0.0
 33
0.0
 40
0.0
 40
0.0
 40
0.0
 40
0.0
 40
1.0
 40
1.0
 40
1.0
 40
2.0
 40
2.0
 40
2.0
 40
3.0
 40
3.0
 40
3.0
 40
4.0
 40
4.0
 40
4.0
 40
4.0
 10
-341.0691416400671
 20
-41.69914470308218
 30
0.0
 10
-341.0691416400299
 20
-40.8707166477332
 30
0.0
 10
-340.3975586015777
 20
-40.19913359237609
 30
0.0
 10
-339.5691305671571
 20
-40.1991335924133
 30
0.0
 10
-338.7407025327368
 20
-40.19913359245052
 30
0.0
 10
-338.0691547721215
 20
-40.87071664786797
 30
0.0
 10
-338.0691547721584
 20
-41.69914470321693
 30
0.0
 10
-338.0691547721959
 20
-42.52757275856526
 30
0.0
 10
-338.7407025328709
 20
-43.19915581392238
 30
0.0
 10
-339.5691305672918
 20
-43.19915581388516
 30
0.0
 10
-340.3975586017124
 20
-43.19915581384794
 30
0.0
 10
-341.0691416401043
 20
-42.5275727584305
 30
0.0
 10
-341.0691416400671
 20
-41.69914470308218
 30
0.0
  0
SPLINE
  5
4F
330
1F
100
AcDbEntity
  8
_U+68F0_U+7481_U+60E7
 62
     7
420
 16777215
370
    35
100
AcDbSpline
210
0.0
220
0.0
230
1.0
 70
    11
 71
     3
 72
    17
 73
    13
 74
     0
 42
0.0000000001
 43
0.0000000001
 12
1.0
 22
0.0
 32
0.0
 13
1.0
 23
0.0
 33
0.0
 40
0.0
 40
0.0
 40
0.0
 40
0.0
 40
1.0
 40
1.0
 40
1.0
 40
2.0
 40
2.0
 40
2.0
 40
3.0
 40
3.0
 40
3.0
 40
4.0
 40
4.0
 40
4.0
 40
4.0
 10
-308.0691458661415
 20
-41.69914470456386
 30
0.0
 10
-308.0691458661042
 20
-40.87071664921489
 30
0.0
 10
-307.3975628106868
 20
-40.19913359385777
 30
0.0
 10
-306.5691347553382
 20
-40.19913359389498
 30
0.0
 10
-305.7407066999895
 20
-40.1991335939322
 30
0.0
 10
-305.0691589224099
 20
-40.87071664934965
 30
0.0
 10
-305.0691589224471
 20
-41.69914470469862
 30
0.0
 10
-305.0691589224843
 20
-42.52757276004694
 30
0.0
 10
-305.7407067001243
 20
-43.19915581540407
 30
0.0
 10
-306.5691347554729
 20
-43.19915581536685
 30
0.0
 10
-307.3975628108209
 20
-43.19915581532963
 30
0.0
 10
-308.0691458661787
 20
-42.52757275991218
 30
0.0
 10
-308.0691458661415
 20
-41.69914470456386
 30
0.0
  0
SPLINE
  5
50
330
1F
100
AcDbEntity
  8
_U+68F0_U+7481_U+60E7
 62
     7
420
 16777215
370
    35
100
AcDbSpline
210
0.0
220
0.0
230
1.0
 70
    11
 71
     3
 72
    17
 73
    13
 74
     0
 42
0.0000000001
 43
0.0000000001
 12
1.0
 22
0.0
 32
0.0
 13
1.0
 23
0.0
 33
0.0
 40
0.0
 40
0.0
 40
0.0
 40
0.0
 40
1.0
 40
1.0
 40
1.0
 40
2.0
 40
2.0
 40
2.0
 40
3.0
 40
3.0
 40
3.0
 40
4.0
 40
4.0
 40
4.0
 40
4.0
 10
-308.0691458646598
 20
-8.69914721281344
 30
0.0
 10
-308.0691458646226
 20
-7.870719157465113
 30
0.0
 10
-307.3975628092045
 20
-7.199136102107347
 30
0.0
 10
-306.5691347538565
 20
-7.199136102144566
 30
0.0
 10
-305.7407066985078
 20
-7.199136102181784
 30
0.0
 10
-305.0691589209282
 20
-7.870719157599869
 30
0.0
 10
-305.0691589209654
 20
-8.699147212948196
 30
0.0
 10
-305.0691589210027
 20
-9.527575268296523
 30
0.0
 10
-305.7407066986426
 20
-10.19912304587677
 30
0.0
 10
-306.5691347539912
 20
-10.19912304583955
 30
0.0
 10
-307.3975628093395
 20
-10.19912304580233
 30
0.0
 10
-308.069145864697
 20
-9.527575268161765
 30
0.0
 10
-308.0691458646598
 20
-8.69914721281344
 30
0.0
  0
SPLINE
  5
51
330
1F
100
AcDbEntity
  8
_U+68F0_U+7481_U+60E7
 62
     7
420
 16777215
370
    35
100
AcDbSpline
210
0.0
220
0.0
230
1.0
 70
    11
 71
     3
 72
    17
 73
    13
 74
     0
 42
0.0000000001
 43
0.0000000001
 12
1.0
 22
0.0
 32
0.0
 13
1.0
 23
0.0
 33
0.0
 40
0.0
 40
0.0
 40
0.0
 40
0.0
 40
1.0
 40
1.0
 40
1.0
 40
2.0
 40
2.0
 40
2.0
 40
3.0
 40
3.0
 40
3.0
 40
4.0
 40
4.0
 40
4.0
 40
4.0
 10
-182.0691297850487
 20
-8.699147218470658
 30
0.0
 10
-182.0691297850115
 20
-7.870719163122332
 30
0.0
 10
-182.740712840369
 20
-7.199136107704246
 30
0.0
 10
-183.5691408957176
 20
-7.199136107667027
 30
0.0
 10
-184.3975689510659
 20
-7.199136107629809
 30
0.0
 10
-185.0691520064837
 20
-7.870719162987575
 30
0.0
 10
-185.0691520065209
 20
-8.6991472183359
 30
0.0
 10
-185.0691520065581
 20
-9.527575273684228
 30
0.0
 10
-184.3975689512007
 20
-10.19912305132479
 30
0.0
 10
-183.5691408958523
 20
-10.19912305136201
 30
0.0
 10
-182.7407128405037
 20
-10.19912305139923
 30
0.0
 10
-182.0691297850859
 20
-9.527575273818984
 30
0.0
 10
-182.0691297850487
 20
-8.699147218470658
 30
0.0
  0
SPLINE
  5
52
330
1F
100
AcDbEntity
  8
_U+68F0_U+7481_U+60E7
 62
     7
420
 16777215
370
    35
100
AcDbSpline
210
0.0
220
0.0
230
1.0
 70
    11
 71
     3
 72
    17
 73
    13
 74
     0
 42
0.0000000001
 43
0.0000000001
 12
1.0
 22
0.0
 32
0.0
 13
1.0
 23
0.0
 33
0.0
 40
0.0
 40
0.0
 40
0.0
 40
0.0
 40
1.0
 40
1.0
 40
1.0
 40
2.0
 40
2.0
 40
2.0
 40
3.0
 40
3.0
 40
3.0
 40
4.0
 40
4.0
 40
4.0
 40
4.0
 10
-182.0691297865304
 20
-41.69914471022108
 30
0.0
 10
-182.0691297864932
 20
-40.87071665487211
 30
0.0
 10
-182.7407128418506
 20
-40.19913359945466
 30
0.0
 10
-183.5691408971993
 20
-40.19913359941744
 30
0.0
 10
-184.3975689525479
 20
-40.19913359938023
 30
0.0
 10
-185.0691520079654
 20
-40.87071665473735
 30
0.0
 10
-185.0691520080026
 20
-41.69914471008632
 30
0.0
 10
-185.0691520080398
 20
-42.52757276543465
 30
0.0
 10
-184.3975689526827
 20
-43.19915582085209
 30
0.0
 10
-183.5691408973341
 20
-43.19915582088931
 30
0.0
 10
-182.7407128419854
 20
-43.19915582092653
 30
0.0
 10
-182.0691297865676
 20
-42.5275727655694
 30
0.0
 10
-182.0691297865304
 20
-41.69914471022108
 30
0.0
  0
SPLINE
  5
53
330
1F
100
AcDbEntity
  8
_U+68F0_U+7481_U+60E7
 62
     7
420
 16777215
370
    35
100
AcDbSpline
210
0.0
220
0.0
230
1.0
 70
    11
 71
     3
 72
    17
 73
    13
 74
     0
 42
0.0000000001
 43
0.0000000001
 12
1.0
 22
0.0
 32
0.0
 13
1.0
 23
0.0
 33
0.0
 40
0.0
 40
0.0
 40
0.0
 40
0.0
 40
1.0
 40
1.0
 40
1.0
 40
2.0
 40
2.0
 40
2.0
 40
3.0
 40
3.0
 40
3.0
 40
4.0
 40
4.0
 40
4.0
 40
4.0
 10
-149.0691322947803
 20
-41.69914471170212
 30
0.0
 10
-149.0691322947431
 20
-40.87071665635315
 30
0.0
 10
-149.7407153501009
 20
-40.19913360093571
 30
0.0
 10
-150.5691434054495
 20
-40.19913360089913
 30
0.0
 10
-151.3975714607975
 20
-40.19913360086191
 30
0.0
 10
-152.0691545162153
 20
-40.87071665621904
 30
0.0
 10
-152.0691545162525
 20
-41.699144711568
 30
0.0
 10
-152.0691545162897
 20
-42.52757276691633
 30
0.0
 10
-151.3975714609323
 20
-43.19915582233377
 30
0.0
 10
-150.5691434055843
 20
-43.19915582237099
 30
0.0
 10
-149.7407153502356
 20
-43.19915582240757
 30
0.0
 10
-149.0691322948175
 20
-42.52757276705044
 30
0.0
 10
-149.0691322947803
 20
-41.69914471170212
 30
0.0
  0
SPLINE
  5
54
330
1F
100
AcDbEntity
  8
_U+68F0_U+7481_U+60E7
 62
     7
420
 16777215
370
    35
100
AcDbSpline
210
0.0
220
0.0
230
1.0
 70
    11
 71
     3
 72
    17
 73
    13
 74
     0
 42
0.0000000001
 43
0.0000000001
 12
1.0
 22
0.0
 32
0.0
 13
1.0
 23
0.0
 33
0.0
 40
0.0
 40
0.0
 40
0.0
 40
0.0
 40
1.0
 40
1.0
 40
1.0
 40
2.0
 40
2.0
 40
2.0
 40
3.0
 40
3.0
 40
3.0
 40
4.0
 40
4.0
 40
4.0
 40
4.0
 10
-149.0691322932986
 20
-8.6991472199517
 30
0.0
 10
-149.0691322932614
 20
-7.870719164603373
 30
0.0
 10
-149.7407153486192
 20
-7.199136109185288
 30
0.0
 10
-150.5691434039678
 20
-7.199136109148711
 30
0.0
 10
-151.3975714593158
 20
-7.199136109111492
 30
0.0
 10
-152.0691545147339
 20
-7.870719164469258
 30
0.0
 10
-152.0691545147708
 20
-8.699147219817585
 30
0.0
 10
-152.0691545148084
 20
-9.52757527516591
 30
0.0
 10
-151.3975714594506
 20
-10.19912305280648
 30
0.0
 10
-150.5691434041026
 20
-10.1991230528437
 30
0.0
 10
-149.7407153487539
 20
-10.19912305288027
 30
0.0
 10
-149.0691322933359
 20
-9.527575275300025
 30
0.0
 10
-149.0691322932986
 20
-8.6991472199517
 30
0.0
  0
SPLINE
  5
55
330
1F
100
AcDbEntity
  8
_U+68F0_U+7481_U+60E7
 62
     7
420
 16777215
370
    35
100
AcDbSpline
210
0.0
220
0.0
230
1.0
 70
    11
 71
     3
 72
    17
 73
    13
 74
     0
 42
0.0000000001
 43
0.0000000001
 12
1.0
 22
0.0
 32
0.0
 13
1.0
 23
0.0
 33
0.0
 40
0.0
 40
0.0
 40
0.0
 40
0.0
 40
1.0
 40
1.0
 40
1.0
 40
2.0
 40
2.0
 40
2.0
 40
3.0
 40
3.0
 40
3.0
 40
4.0
 40
4.0
 40
4.0
 40
4.0
 10
-198.5691461690718
 20
7.800869167034152
 30
0.0
 10
-198.5691461690346
 20
8.62929722238248
 30
0.0
 10
-199.2407292243924
 20
9.300845000023045
 30
0.0
 10
-200.0691572797404
 20
9.300845000060264
 30
0.0
 10
-200.897585335089
 20
9.300845000097482
 30
0.0
 10
-201.569133112729
 20
8.629297222517236
 30
0.0
 10
-201.5691331127662
 20
7.800869167168909
 30
0.0
 10
-201.5691331128034
 20
6.972441111820583
 30
0.0
 10
-200.8975853352238
 20
6.300858056403139
 30
0.0
 10
-200.0691572798752
 20
6.300858056365921
 30
0.0
 10
-199.2407292245265
 20
6.300858056328702
 30
0.0
 10
-198.5691461691091
 20
6.972441111685827
 30
0.0
 10
-198.5691461690718
 20
7.800869167034152
 30
0.0
  0
SPLINE
  5
56
330
1F
100
AcDbEntity
  8
_U+68F0_U+7481_U+60E7
 62
     7
420
 16777215
370
    35
100
AcDbSpline
210
0.0
220
0.0
230
1.0
 70
    11
 71
     3
 72
    17
 73
    13
 74
     0
 42
0.0000000001
 43
0.0000000001
 12
1.0
 22
0.0
 32
0.0
 13
1.0
 23
0.0
 33
0.0
 40
0.0
 40
0.0
 40
0.0
 40
0.0
 40
1.0
 40
1.0
 40
1.0
 40
2.0
 40
2.0
 40
2.0
 40
3.0
 40
3.0
 40
3.0
 40
4.0
 40
4.0
 40
4.0
 40
4.0
 10
-132.5691511855717
 20
7.800869164070787
 30
0.0
 10
-132.5691511855344
 20
8.629297219419113
 30
0.0
 10
-133.2407342408922
 20
9.300844997059679
 30
0.0
 10
-134.0691622962405
 20
9.300844997096897
 30
0.0
 10
-134.8975550738113
 20
9.300844997134115
 30
0.0
 10
-135.5691381292291
 20
8.62929721955387
 30
0.0
 10
-135.5691381292663
 20
7.800869164205543
 30
0.0
 10
-135.5691381293035
 20
6.972441108857217
 30
0.0
 10
-134.8975550739461
 20
6.300858053439773
 30
0.0
 10
-134.0691622963753
 20
6.300858053402554
 30
0.0
 10
-133.240734241027
 20
6.300858053365336
 30
0.0
 10
-132.5691511856089
 20
6.97244110872246
 30
0.0
 10
-132.5691511855717
 20
7.800869164070787
 30
0.0
  0
SPLINE
  5
57
330
1F
100
AcDbEntity
  8
_U+68F0_U+7481_U+60E7
 62
     7
420
 16777215
370
    35
100
AcDbSpline
210
0.0
220
0.0
230
1.0
 70
    11
 71
     3
 72
    17
 73
    13
 74
     0
 42
0.0000000001
 43
0.0000000001
 12
1.0
 22
0.0
 32
0.0
 13
1.0
 23
0.0
 33
0.0
 40
0.0
 40
0.0
 40
0.0
 40
0.0
 40
1.0
 40
1.0
 40
1.0
 40
2.0
 40
2.0
 40
2.0
 40
3.0
 40
3.0
 40
3.0
 40
4.0
 40
4.0
 40
4.0
 40
4.0
 10
-132.569151188535
 20
-58.19912581942941
 30
0.0
 10
-132.5691511884978
 20
-57.37069776408044
 30
0.0
 10
-133.2407342438556
 20
-56.69914998644052
 30
0.0
 10
-134.0691622992039
 20
-56.6991499864033
 30
0.0
 10
-134.8975550767747
 20
-56.69914998636608
 30
0.0
 10
-135.5691381321925
 20
-57.37069776394569
 30
0.0
 10
-135.5691381322297
 20
-58.19912581929465
 30
0.0
 10
-135.5691381322669
 20
-59.02755387464298
 30
0.0
 10
-134.8975550769091
 20
-59.69913693006043
 30
0.0
 10
-134.0691622993383
 20
-59.69913693009764
 30
0.0
 10
-133.24073424399
 20
-59.69913693013486
 30
0.0
 10
-132.5691511885722
 20
-59.02755387477774
 30
0.0
 10
-132.569151188535
 20
-58.19912581942941
 30
0.0
  0
SPLINE
  5
58
330
1F
100
AcDbEntity
  8
_U+68F0_U+7481_U+60E7
 62
     7
420
 16777215
370
    35
100
AcDbSpline
210
0.0
220
0.0
230
1.0
 70
    11
 71
     3
 72
    17
 73
    13
 74
     0
 42
0.0000000001
 43
0.0000000001
 12
1.0
 22
0.0
 32
0.0
 13
1.0
 23
0.0
 33
0.0
 40
0.0
 40
0.0
 40
0.0
 40
0.0
 40
1.0
 40
1.0
 40
1.0
 40
2.0
 40
2.0
 40
2.0
 40
3.0
 40
3.0
 40
3.0
 40
4.0
 40
4.0
 40
4.0
 40
4.0
 10
-198.5691461720352
 20
-58.19912581646604
 30
0.0
 10
-198.569146171998
 20
-57.37069776111708
 30
0.0
 10
-199.2407292273558
 20
-56.69914998347715
 30
0.0
 10
-200.0691572827038
 20
-56.69914998343993
 30
0.0
 10
-200.8975853380524
 20
-56.69914998340271
 30
0.0
 10
-201.5691331156924
 20
-57.37069776098232
 30
0.0
 10
-201.5691331157296
 20
-58.19912581633129
 30
0.0
 10
-201.5691331157668
 20
-59.02755387167961
 30
0.0
 10
-200.8975853381868
 20
-59.69913692709706
 30
0.0
 10
-200.0691572828382
 20
-59.69913692713428
 30
0.0
 10
-199.2407292274899
 20
-59.69913692717149
 30
0.0
 10
-198.5691461720724
 20
-59.02755387181437
 30
0.0
 10
-198.5691461720352
 20
-58.19912581646604
 30
0.0
  0
SPLINE
  5
59
330
1F
100
AcDbEntity
  8
_U+68F0_U+7481_U+60E7
 62
     7
420
 16777215
370
    35
100
AcDbSpline
210
0.0
220
0.0
230
1.0
 70
    11
 71
     3
 72
    17
 73
    13
 74
     0
 42
0.0000000001
 43
0.0000000001
 12
1.0
 22
0.0
 32
0.0
 13
1.0
 23
0.0
 33
0.0
 40
0.0
 40
0.0
 40
0.0
 40
0.0
 40
1.0
 40
1.0
 40
1.0
 40
2.0
 40
2.0
 40
2.0
 40
3.0
 40
3.0
 40
3.0
 40
4.0
 40
4.0
 40
4.0
 40
4.0
 10
-198.5691461725813
 20
-70.3675249800905
 30
0.0
 10
-198.5691461726185
 20
-71.19595303543883
 30
0.0
 10
-199.2407292280366
 20
-71.86753609079595
 30
0.0
 10
-200.0691572833846
 20
-71.86753609075873
 30
0.0
 10
-200.8975853387333
 20
-71.86753609072152
 30
0.0
 10
-201.5691331163129
 20
-71.19595303530407
 30
0.0
 10
-201.5691331162757
 20
-70.36752497995575
 30
0.0
 10
-201.5691331162384
 20
-69.53909692460742
 30
0.0
 10
-200.8975853385985
 20
-68.86751386924965
 30
0.0
 10
-200.0691572832499
 20
-68.86751386928687
 30
0.0
 10
-199.2407292279019
 20
-68.86751386932409
 30
0.0
 10
-198.5691461725441
 20
-69.53909692474217
 30
0.0
 10
-198.5691461725813
 20
-70.3675249800905
 30
0.0
  0
SPLINE
  5
5A
330
1F
100
AcDbEntity
  8
_U+68F0_U+7481_U+60E7
 62
     7
420
 16777215
370
    35
100
AcDbSpline
210
0.0
220
0.0
230
1.0
 70
    11
 71
     3
 72
    17
 73
    13
 74
     0
 42
0.0000000001
 43
0.0000000001
 12
1.0
 22
0.0
 32
0.0
 13
1.0
 23
0.0
 33
0.0
 40
0.0
 40
0.0
 40
0.0
 40
0.0
 40
1.0
 40
1.0
 40
1.0
 40
2.0
 40
2.0
 40
2.0
 40
3.0
 40
3.0
 40
3.0
 40
4.0
 40
4.0
 40
4.0
 40
4.0
 10
-132.5691511890811
 20
-70.36752498305387
 30
0.0
 10
-132.5691511891183
 20
-71.1959530384022
 30
0.0
 10
-133.2407342445364
 20
-71.86753609375931
 30
0.0
 10
-134.0691622998851
 20
-71.8675360937221
 30
0.0
 10
-134.8975550774555
 20
-71.86753609368488
 30
0.0
 10
-135.569138132813
 20
-71.19595303826743
 30
0.0
 10
-135.5691381327758
 20
-70.36752498291911
 30
0.0
 10
-135.5691381327385
 20
-69.53909692757078
 30
0.0
 10
-134.8975550773208
 20
-68.86751387221302
 30
0.0
 10
-134.0691622997503
 20
-68.86751387225024
 30
0.0
 10
-133.2407342444017
 20
-68.86751387228746
 30
0.0
 10
-132.5691511890439
 20
-69.53909692770554
 30
0.0
 10
-132.5691511890811
 20
-70.36752498305387
 30
0.0
  0
SPLINE
  5
5B
330
1F
100
AcDbEntity
  8
_U+68F0_U+7481_U+60E7
 62
     7
420
 16777215
370
    35
100
AcDbSpline
210
0.0
220
0.0
230
1.0
 70
    11
 71
     3
 72
    17
 73
    13
 74
     0
 42
0.0000000001
 43
0.0000000001
 12
1.0
 22
0.0
 32
0.0
 13
1.0
 23
0.0
 33
0.0
 40
0.0
 40
0.0
 40
0.0
 40
0.0
 40
1.0
 40
1.0
 40
1.0
 40
2.0
 40
2.0
 40
2.0
 40
3.0
 40
3.0
 40
3.0
 40
4.0
 40
4.0
 40
4.0
 40
4.0
 10
-132.5691511920445
 20
-136.3675199665534
 30
0.0
 10
-132.5691511920817
 20
-137.1959480219024
 30
0.0
 10
-133.2407342474998
 20
-137.8675310772595
 30
0.0
 10
-134.0691623028481
 20
-137.8675310772223
 30
0.0
 10
-134.8975550804189
 20
-137.8675310771851
 30
0.0
 10
-135.5691381357764
 20
-137.1959480217676
 30
0.0
 10
-135.5691381357391
 20
-136.3675199664187
 30
0.0
 10
-135.5691381357019
 20
-135.5390919110703
 30
0.0
 10
-134.8975550802841
 20
-134.8675441334907
 30
0.0
 10
-134.0691623027134
 20
-134.867544133528
 30
0.0
 10
-133.240734247365
 20
-134.8675441335652
 30
0.0
 10
-132.5691511920073
 20
-135.5390919112051
 30
0.0
 10
-132.5691511920445
 20
-136.3675199665534
 30
0.0
  0
SPLINE
  5
5C
330
1F
100
AcDbEntity
  8
_U+68F0_U+7481_U+60E7
 62
     7
420
 16777215
370
    35
100
AcDbSpline
210
0.0
220
0.0
230
1.0
 70
    11
 71
     3
 72
    17
 73
    13
 74
     0
 42
0.0000000001
 43
0.0000000001
 12
1.0
 22
0.0
 32
0.0
 13
1.0
 23
0.0
 33
0.0
 40
0.0
 40
0.0
 40
0.0
 40
0.0
 40
1.0
 40
1.0
 40
1.0
 40
2.0
 40
2.0
 40
2.0
 40
3.0
 40
3.0
 40
3.0
 40
4.0
 40
4.0
 40
4.0
 40
4.0
 10
-198.5691461755447
 20
-136.36751996359
 30
0.0
 10
-198.5691461755819
 20
-137.195948018939
 30
0.0
 10
-199.240729231
 20
-137.8675310742962
 30
0.0
 10
-200.069157286348
 20
-137.8675310742589
 30
0.0
 10
-200.8975853416966
 20
-137.8675310742217
 30
0.0
 10
-201.5691331192762
 20
-137.1959480188043
 30
0.0
 10
-201.569133119239
 20
-136.3675199634553
 30
0.0
 10
-201.5691331192018
 20
-135.539091908107
 30
0.0
 10
-200.8975853415619
 20
-134.8675441305274
 30
0.0
 10
-200.0691572862132
 20
-134.8675441305646
 30
0.0
 10
-199.2407292308652
 20
-134.8675441306018
 30
0.0
 10
-198.5691461755075
 20
-135.5390919082417
 30
0.0
 10
-198.5691461755447
 20
-136.36751996359
 30
0.0
  0
SPLINE
  5
5D
330
1F
100
AcDbEntity
  8
_U+68F0_U+7481_U+60E7
 62
     7
420
 16777215
370
    35
100
AcDbSpline
210
0.0
220
0.0
230
1.0
 70
    11
 71
     3
 72
    17
 73
    13
 74
     0
 42
0.0000000001
 43
0.0000000001
 12
1.0
 22
0.0
 32
0.0
 13
1.0
 23
0.0
 33
0.0
 40
0.0
 40
0.0
 40
0.0
 40
0.0
 40
1.0
 40
1.0
 40
1.0
 40
2.0
 40
2.0
 40
2.0
 40
3.0
 40
3.0
 40
3.0
 40
4.0
 40
4.0
 40
4.0
 40
4.0
 10
-149.0691322982898
 20
-119.8675388588261
 30
0.0
 10
-149.069132298327
 20
-120.6959669141751
 30
0.0
 10
-149.7407153537451
 20
-121.3675146917547
 30
0.0
 10
-150.5691434090934
 20
-121.3675146917181
 30
0.0
 10
-151.3975714644417
 20
-121.3675146916809
 30
0.0
 10
-152.0691545197992
 20
-120.695966914041
 30
0.0
 10
-152.069154519762
 20
-119.867538858692
 30
0.0
 10
-152.0691545197247
 20
-119.0391108033437
 30
0.0
 10
-151.397571464307
 20
-118.3675277479866
 30
0.0
 10
-150.5691434089586
 20
-118.3675277480238
 30
0.0
 10
-149.7407153536103
 20
-118.3675277480604
 30
0.0
 10
-149.0691322982526
 20
-119.0391108034778
 30
0.0
 10
-149.0691322982898
 20
-119.8675388588261
 30
0.0
  0
SPLINE
  5
5E
330
1F
100
AcDbEntity
  8
_U+68F0_U+7481_U+60E7
 62
     7
420
 16777215
370
    35
100
AcDbSpline
210
0.0
220
0.0
230
1.0
 70
    11
 71
     3
 72
    17
 73
    13
 74
     0
 42
0.0000000001
 43
0.0000000001
 12
1.0
 22
0.0
 32
0.0
 13
1.0
 23
0.0
 33
0.0
 40
0.0
 40
0.0
 40
0.0
 40
0.0
 40
1.0
 40
1.0
 40
1.0
 40
2.0
 40
2.0
 40
2.0
 40
3.0
 40
3.0
 40
3.0
 40
4.0
 40
4.0
 40
4.0
 40
4.0
 10
-149.0691322968081
 20
-86.86754136707636
 30
0.0
 10
-149.0691322968453
 20
-87.69596942242468
 30
0.0
 10
-149.7407153522634
 20
-88.36751720000429
 30
0.0
 10
-150.569143407612
 20
-88.36751719996771
 30
0.0
 10
-151.39757146296
 20
-88.36751719993049
 30
0.0
 10
-152.0691545183175
 20
-87.69596942229056
 30
0.0
 10
-152.0691545182803
 20
-86.86754136694223
 30
0.0
 10
-152.069154518243
 20
-86.03911331159391
 30
0.0
 10
-151.3975714628253
 20
-85.36753025623615
 30
0.0
 10
-150.5691434074773
 20
-85.36753025627337
 30
0.0
 10
-149.7407153521286
 20
-85.36753025630993
 30
0.0
 10
-149.0691322967708
 20
-86.03911331172803
 30
0.0
 10
-149.0691322968081
 20
-86.86754136707636
 30
0.0
  0
SPLINE
  5
5F
330
1F
100
AcDbEntity
  8
_U+68F0_U+7481_U+60E7
 62
     7
420
 16777215
370
    35
100
AcDbSpline
210
0.0
220
0.0
230
1.0
 70
    11
 71
     3
 72
    17
 73
    13
 74
     0
 42
0.0000000001
 43
0.0000000001
 12
1.0
 22
0.0
 32
0.0
 13
1.0
 23
0.0
 33
0.0
 40
0.0
 40
0.0
 40
0.0
 40
0.0
 40
1.0
 40
1.0
 40
1.0
 40
2.0
 40
2.0
 40
2.0
 40
3.0
 40
3.0
 40
3.0
 40
4.0
 40
4.0
 40
4.0
 40
4.0
 10
-182.0691297885582
 20
-86.86754136559532
 30
0.0
 10
-182.0691297885954
 20
-87.69596942094364
 30
0.0
 10
-182.7407128440132
 20
-88.36751719852325
 30
0.0
 10
-183.5691408993618
 20
-88.36751719848603
 30
0.0
 10
-184.3975689547105
 20
-88.36751719844881
 30
0.0
 10
-185.0691520100676
 20
-87.69596942080888
 30
0.0
 10
-185.0691520100304
 20
-86.86754136546055
 30
0.0
 10
-185.0691520099931
 20
-86.03911331011223
 30
0.0
 10
-184.3975689545754
 20
-85.36753025475446
 30
0.0
 10
-183.5691408992271
 20
-85.36753025479167
 30
0.0
 10
-182.7407128438784
 20
-85.36753025482889
 30
0.0
 10
-182.069129788521
 20
-86.03911331024699
 30
0.0
 10
-182.0691297885582
 20
-86.86754136559532
 30
0.0
  0
SPLINE
  5
60
330
1F
100
AcDbEntity
  8
_U+68F0_U+7481_U+60E7
 62
     7
420
 16777215
370
    35
100
AcDbSpline
210
0.0
220
0.0
230
1.0
 70
    11
 71
     3
 72
    17
 73
    13
 74
     0
 42
0.0000000001
 43
0.0000000001
 12
1.0
 22
0.0
 32
0.0
 13
1.0
 23
0.0
 33
0.0
 40
0.0
 40
0.0
 40
0.0
 40
0.0
 40
1.0
 40
1.0
 40
1.0
 40
2.0
 40
2.0
 40
2.0
 40
3.0
 40
3.0
 40
3.0
 40
4.0
 40
4.0
 40
4.0
 40
4.0
 10
-182.0691297900402
 20
-119.8675388573451
 30
0.0
 10
-182.0691297900771
 20
-120.6959669126941
 30
0.0
 10
-182.7407128454948
 20
-121.3675146902737
 30
0.0
 10
-183.5691409008435
 20
-121.3675146902364
 30
0.0
 10
-184.3975689561918
 20
-121.3675146901992
 30
0.0
 10
-185.0691520115492
 20
-120.6959669125593
 30
0.0
 10
-185.069152011512
 20
-119.8675388572103
 30
0.0
 10
-185.0691520114748
 20
-119.039110801862
 30
0.0
 10
-184.3975689560571
 20
-118.3675277465049
 30
0.0
 10
-183.5691409007087
 20
-118.3675277465421
 30
0.0
 10
-182.7407128453601
 20
-118.3675277465793
 30
0.0
 10
-182.0691297900026
 20
-119.0391108019968
 30
0.0
 10
-182.0691297900402
 20
-119.8675388573451
 30
0.0
  0
SPLINE
  5
61
330
1F
100
AcDbEntity
  8
_U+68F0_U+7481_U+60E7
 62
     7
420
 16777215
370
    35
100
AcDbSpline
210
0.0
220
0.0
230
1.0
 70
    11
 71
     3
 72
    17
 73
    13
 74
     0
 42
0.0000000001
 43
0.0000000001
 12
1.0
 22
0.0
 32
0.0
 13
1.0
 23
0.0
 33
0.0
 40
0.0
 40
0.0
 40
0.0
 40
0.0
 40
1.0
 40
1.0
 40
1.0
 40
2.0
 40
2.0
 40
2.0
 40
3.0
 40
3.0
 40
3.0
 40
4.0
 40
4.0
 40
4.0
 40
4.0
 10
-308.0691458696509
 20
-119.8675388516879
 30
0.0
 10
-308.0691458696882
 20
-120.6959669070368
 30
0.0
 10
-307.397562814331
 20
-121.3675146846768
 30
0.0
 10
-306.5691347589824
 20
-121.367514684714
 30
0.0
 10
-305.7407067036337
 20
-121.3675146847512
 30
0.0
 10
-305.0691589259938
 20
-120.6959669071716
 30
0.0
 10
-305.0691589259566
 20
-119.8675388518226
 30
0.0
 10
-305.0691589259193
 20
-119.0391107964743
 30
0.0
 10
-305.740706703499
 20
-118.3675277410569
 30
0.0
 10
-306.5691347588476
 20
-118.3675277410196
 30
0.0
 10
-307.3975628141962
 20
-118.3675277409824
 30
0.0
 10
-308.0691458696137
 20
-119.0391107963395
 30
0.0
 10
-308.0691458696509
 20
-119.8675388516879
 30
0.0
  0
SPLINE
  5
62
330
1F
100
AcDbEntity
  8
_U+68F0_U+7481_U+60E7
 62
     7
420
 16777215
370
    35
100
AcDbSpline
210
0.0
220
0.0
230
1.0
 70
    11
 71
     3
 72
    17
 73
    13
 74
     0
 42
0.0000000001
 43
0.0000000001
 12
1.0
 22
0.0
 32
0.0
 13
1.0
 23
0.0
 33
0.0
 40
0.0
 40
0.0
 40
0.0
 40
0.0
 40
1.0
 40
1.0
 40
1.0
 40
2.0
 40
2.0
 40
2.0
 40
3.0
 40
3.0
 40
3.0
 40
4.0
 40
4.0
 40
4.0
 40
4.0
 10
-308.0691458681692
 20
-86.86754135993809
 30
0.0
 10
-308.0691458682065
 20
-87.69596941528641
 30
0.0
 10
-307.3975628128493
 20
-88.36751719292634
 30
0.0
 10
-306.5691347575007
 20
-88.36751719296356
 30
0.0
 10
-305.7407067021521
 20
-88.36751719300078
 30
0.0
 10
-305.0691589245121
 20
-87.69596941542117
 30
0.0
 10
-305.0691589244749
 20
-86.86754136007285
 30
0.0
 10
-305.0691589244377
 20
-86.03911330472452
 30
0.0
 10
-305.7407067020173
 20
-85.36753024930644
 30
0.0
 10
-306.5691347573659
 20
-85.36753024926922
 30
0.0
 10
-307.3975628127146
 20
-85.367530249232
 30
0.0
 10
-308.069145868132
 20
-86.03911330458976
 30
0.0
 10
-308.0691458681692
 20
-86.86754135993809
 30
0.0
  0
SPLINE
  5
63
330
1F
100
AcDbEntity
  8
_U+68F0_U+7481_U+60E7
 62
     7
420
 16777215
370
    35
100
AcDbSpline
210
0.0
220
0.0
230
1.0
 70
    11
 71
     3
 72
    17
 73
    13
 74
     0
 42
0.0000000001
 43
0.0000000001
 12
1.0
 22
0.0
 32
0.0
 13
1.0
 23
0.0
 33
0.0
 40
0.0
 40
0.0
 40
0.0
 40
0.0
 40
1.0
 40
1.0
 40
1.0
 40
2.0
 40
2.0
 40
2.0
 40
3.0
 40
3.0
 40
3.0
 40
4.0
 40
4.0
 40
4.0
 40
4.0
 10
-341.0691416420948
 20
-86.8675413584564
 30
0.0
 10
-341.0691416421321
 20
-87.69596941380473
 30
0.0
 10
-340.3975586037402
 20
-88.36751719144466
 30
0.0
 10
-339.5691305693196
 20
-88.36751719148188
 30
0.0
 10
-338.7407025348993
 20
-88.3675171915191
 30
0.0
 10
-338.0691547742236
 20
-87.6959694139395
 30
0.0
 10
-338.0691547741861
 20
-86.86754135859117
 30
0.0
 10
-338.0691547741492
 20
-86.03911330324284
 30
0.0
 10
-338.7407025347646
 20
-85.36753024782476
 30
0.0
 10
-339.5691305691845
 20
-85.36753024778754
 30
0.0
 10
-340.3975586036054
 20
-85.36753024775032
 30
0.0
 10
-341.0691416420576
 20
-86.03911330310808
 30
0.0
 10
-341.0691416420948
 20
-86.8675413584564
 30
0.0
  0
SPLINE
  5
64
330
1F
100
AcDbEntity
  8
_U+68F0_U+7481_U+60E7
 62
     7
420
 16777215
370
    35
100
AcDbSpline
210
0.0
220
0.0
230
1.0
 70
    11
 71
     3
 72
    17
 73
    13
 74
     0
 42
0.0000000001
 43
0.0000000001
 12
1.0
 22
0.0
 32
0.0
 13
1.0
 23
0.0
 33
0.0
 40
0.0
 40
0.0
 40
0.0
 40
0.0
 40
1.0
 40
1.0
 40
1.0
 40
2.0
 40
2.0
 40
2.0
 40
3.0
 40
3.0
 40
3.0
 40
4.0
 40
4.0
 40
4.0
 40
4.0
 10
-341.0691416435765
 20
-119.8675388502062
 30
0.0
 10
-341.0691416436138
 20
-120.6959669055552
 30
0.0
 10
-340.3975586052219
 20
-121.3675146831951
 30
0.0
 10
-339.5691305708016
 20
-121.3675146832323
 30
0.0
 10
-338.740702536381
 20
-121.3675146832695
 30
0.0
 10
-338.0691547757054
 20
-120.6959669056899
 30
0.0
 10
-338.0691547756684
 20
-119.8675388503409
 30
0.0
 10
-338.0691547756309
 20
-119.0391107949926
 30
0.0
 10
-338.7407025362463
 20
-118.3675277395752
 30
0.0
 10
-339.5691305706669
 20
-118.3675277395379
 30
0.0
 10
-340.3975586050868
 20
-118.3675277395007
 30
0.0
 10
-341.0691416435394
 20
-119.0391107948579
 30
0.0
 10
-341.0691416435765
 20
-119.8675388502062
 30
0.0
  0
SPLINE
  5
65
330
1F
100
AcDbEntity
  8
_U+68F0_U+7481_U+60E7
 62
     7
420
 16777215
370
    35
100
AcDbSpline
210
0.0
220
0.0
230
1.0
 70
    11
 71
     3
 72
    17
 73
    13
 74
     0
 42
0.0000000001
 43
0.0000000001
 12
1.0
 22
0.0
 32
0.0
 13
1.0
 23
0.0
 33
0.0
 40
0.0
 40
0.0
 40
0.0
 40
0.0
 40
1.0
 40
1.0
 40
1.0
 40
2.0
 40
2.0
 40
2.0
 40
3.0
 40
3.0
 40
3.0
 40
4.0
 40
4.0
 40
4.0
 40
4.0
 10
-291.5691294856281
 20
-136.3675199594145
 30
0.0
 10
-291.5691294856657
 20
-137.1959480147635
 30
0.0
 10
-290.8975817080857
 20
-137.8675310701809
 30
0.0
 10
-290.0691536527368
 20
-137.8675310702181
 30
0.0
 10
-289.2407255973885
 20
-137.8675310702554
 30
0.0
 10
-288.5691425419707
 20
-137.1959480148982
 30
0.0
 10
-288.5691425419334
 20
-136.3675199595493
 30
0.0
 10
-288.5691425418962
 20
-135.5390919042009
 30
0.0
 10
-289.2407255972537
 20
-134.867544126561
 30
0.0
 10
-290.069153652602
 20
-134.8675441265238
 30
0.0
 10
-290.897581707951
 20
-134.8675441264866
 30
0.0
 10
-291.5691294855912
 20
-135.5390919040662
 30
0.0
 10
-291.5691294856281
 20
-136.3675199594145
 30
0.0
  0
SPLINE
  5
66
330
1F
100
AcDbEntity
  8
_U+68F0_U+7481_U+60E7
 62
     7
420
 16777215
370
    35
100
AcDbSpline
210
0.0
220
0.0
230
1.0
 70
    11
 71
     3
 72
    17
 73
    13
 74
     0
 42
0.0000000001
 43
0.0000000001
 12
1.0
 22
0.0
 32
0.0
 13
1.0
 23
0.0
 33
0.0
 40
0.0
 40
0.0
 40
0.0
 40
0.0
 40
1.0
 40
1.0
 40
1.0
 40
2.0
 40
2.0
 40
2.0
 40
3.0
 40
3.0
 40
3.0
 40
4.0
 40
4.0
 40
4.0
 40
4.0
 10
-357.5691576122564
 20
-136.3675199564518
 30
0.0
 10
-357.5691576122917
 20
-137.1959480118008
 30
0.0
 10
-356.8975745739008
 20
-137.8675310672182
 30
0.0
 10
-356.0691465394793
 20
-137.8675310672554
 30
0.0
 10
-355.2407185050609
 20
-137.8675310672926
 30
0.0
 10
-354.5691354666068
 20
-137.1959480119355
 30
0.0
 10
-354.5691354665715
 20
-136.3675199565866
 30
0.0
 10
-354.5691354665327
 20
-135.5390919012382
 30
0.0
 10
-355.2407185049233
 20
-134.8675441235983
 30
0.0
 10
-356.0691465393451
 20
-134.8675441235611
 30
0.0
 10
-356.8975745737667
 20
-134.8675441235239
 30
0.0
 10
-357.5691576122176
 20
-135.5390919011035
 30
0.0
 10
-357.5691576122564
 20
-136.3675199564518
 30
0.0
  0
SPLINE
  5
67
330
1F
100
AcDbEntity
  8
_U+68F0_U+7481_U+60E7
 62
     7
420
 16777215
370
    35
100
AcDbSpline
210
0.0
220
0.0
230
1.0
 70
    11
 71
     3
 72
    17
 73
    13
 74
     0
 42
0.0000000001
 43
0.0000000001
 12
1.0
 22
0.0
 32
0.0
 13
1.0
 23
0.0
 33
0.0
 40
0.0
 40
0.0
 40
0.0
 40
0.0
 40
1.0
 40
1.0
 40
1.0
 40
2.0
 40
2.0
 40
2.0
 40
3.0
 40
3.0
 40
3.0
 40
4.0
 40
4.0
 40
4.0
 40
4.0
 10
-357.5691576092931
 20
-70.36752497295224
 30
0.0
 10
-357.5691576093284
 20
-71.19595302830056
 30
0.0
 10
-356.8975745709374
 20
-71.86753608371801
 30
0.0
 10
-356.0691465365159
 20
-71.86753608375523
 30
0.0
 10
-355.2407185020975
 20
-71.86753608379244
 30
0.0
 10
-354.5691354636434
 20
-71.19595302843533
 30
0.0
 10
-354.5691354636081
 20
-70.367524973087
 30
0.0
 10
-354.5691354635693
 20
-69.53909691773868
 30
0.0
 10
-355.2407185019602
 20
-68.86751386232058
 30
0.0
 10
-356.0691465363818
 20
-68.86751386228336
 30
0.0
 10
-356.8975745708033
 20
-68.86751386224614
 30
0.0
 10
-357.5691576092543
 20
-69.53909691760391
 30
0.0
 10
-357.5691576092931
 20
-70.36752497295224
 30
0.0
  0
SPLINE
  5
68
330
1F
100
AcDbEntity
  8
_U+68F0_U+7481_U+60E7
 62
     7
420
 16777215
370
    35
100
AcDbSpline
210
0.0
220
0.0
230
1.0
 70
    11
 71
     3
 72
    17
 73
    13
 74
     0
 42
0.0000000001
 43
0.0000000001
 12
1.0
 22
0.0
 32
0.0
 13
1.0
 23
0.0
 33
0.0
 40
0.0
 40
0.0
 40
0.0
 40
0.0
 40
1.0
 40
1.0
 40
1.0
 40
2.0
 40
2.0
 40
2.0
 40
3.0
 40
3.0
 40
3.0
 40
4.0
 40
4.0
 40
4.0
 40
4.0
 10
-291.5691294826648
 20
-70.36752497591496
 30
0.0
 10
-291.5691294827023
 20
-71.19595303126329
 30
0.0
 10
-290.897581705122
 20
-71.86753608668073
 30
0.0
 10
-290.0691536497734
 20
-71.86753608671795
 30
0.0
 10
-289.240725594425
 20
-71.86753608675517
 30
0.0
 10
-288.5691425390073
 20
-71.19595303139805
 30
0.0
 10
-288.5691425389701
 20
-70.36752497604972
 30
0.0
 10
-288.5691425389329
 20
-69.5390969207014
 30
0.0
 10
-289.2407255942903
 20
-68.86751386528331
 30
0.0
 10
-290.0691536496386
 20
-68.8675138652461
 30
0.0
 10
-290.8975817049873
 20
-68.86751386520888
 30
0.0
 10
-291.5691294826272
 20
-69.53909692056664
 30
0.0
 10
-291.5691294826648
 20
-70.36752497591496
 30
0.0
  0
SPLINE
  5
69
330
1F
100
AcDbEntity
  8
_U+68F0_U+7481_U+60E7
 62
     7
420
 16777215
370
    35
100
AcDbSpline
210
0.0
220
0.0
230
1.0
 70
    11
 71
     3
 72
    17
 73
    13
 74
     0
 42
0.0000000001
 43
0.0000000001
 12
1.0
 22
0.0
 32
0.0
 13
1.0
 23
0.0
 33
0.0
 40
0.0
 40
0.0
 40
0.0
 40
0.0
 40
1.0
 40
1.0
 40
1.0
 40
2.0
 40
2.0
 40
2.0
 40
3.0
 40
3.0
 40
3.0
 40
4.0
 40
4.0
 40
4.0
 40
4.0
 10
-230.0691325558138
 20
-119.7833307996552
 30
0.0
 10
-230.069132555851
 20
-120.6117588550041
 30
0.0
 10
-229.3975847782711
 20
-121.2833419104216
 30
0.0
 10
-228.5691567229231
 20
-121.2833419104588
 30
0.0
 10
-227.7407286675745
 20
-121.283341910496
 30
0.0
 10
-227.069145612157
 20
-120.6117588551389
 30
0.0
 10
-227.0691456121195
 20
-119.7833307997899
 30
0.0
 10
-227.0691456120826
 20
-118.9549027444416
 30
0.0
 10
-227.7407286674397
 20
-118.2833196890241
 30
0.0
 10
-228.5691567227884
 20
-118.2833196889869
 30
0.0
 10
-229.3975847781363
 20
-118.2833196889497
 30
0.0
 10
-230.0691325557766
 20
-118.9549027443068
 30
0.0
 10
-230.0691325558138
 20
-119.7833307996552
 30
0.0
  0
SPLINE
  5
6A
330
1F
100
AcDbEntity
  8
_U+68F0_U+7481_U+60E7
 62
     7
420
 16777215
370
    35
100
AcDbSpline
210
0.0
220
0.0
230
1.0
 70
    11
 71
     3
 72
    17
 73
    13
 74
     0
 42
0.0000000001
 43
0.0000000001
 12
1.0
 22
0.0
 32
0.0
 13
1.0
 23
0.0
 33
0.0
 40
0.0
 40
0.0
 40
0.0
 40
0.0
 40
1.0
 40
1.0
 40
1.0
 40
2.0
 40
2.0
 40
2.0
 40
3.0
 40
3.0
 40
3.0
 40
4.0
 40
4.0
 40
4.0
 40
4.0
 10
-230.0691325543321
 20
-86.78333330790538
 30
0.0
 10
-230.0691325543694
 20
-87.6117613632537
 30
0.0
 10
-229.3975847767894
 20
-88.28334441867179
 30
0.0
 10
-228.5691567214408
 20
-88.283344418709
 30
0.0
 10
-227.7407286660928
 20
-88.28334441874622
 30
0.0
 10
-227.069145610675
 20
-87.61176136338847
 30
0.0
 10
-227.0691456106378
 20
-86.78333330804014
 30
0.0
 10
-227.0691456106006
 20
-85.95490525269182
 30
0.0
 10
-227.740728665958
 20
-85.28332219727373
 30
0.0
 10
-228.569156721306
 20
-85.28332219723652
 30
0.0
 10
-229.3975847766547
 20
-85.2833221971993
 30
0.0
 10
-230.0691325542949
 20
-85.95490525255705
 30
0.0
 10
-230.0691325543321
 20
-86.78333330790538
 30
0.0
  0
SPLINE
  5
6B
330
1F
100
AcDbEntity
  8
_U+68F0_U+7481_U+60E7
 62
     7
420
 16777215
370
    35
100
AcDbSpline
210
0.0
220
0.0
230
1.0
 70
    11
 71
     3
 72
    17
 73
    13
 74
     0
 42
0.0000000001
 43
0.0000000001
 12
1.0
 22
0.0
 32
0.0
 13
1.0
 23
0.0
 33
0.0
 40
0.0
 40
0.0
 40
0.0
 40
0.0
 40
1.0
 40
1.0
 40
1.0
 40
2.0
 40
2.0
 40
2.0
 40
3.0
 40
3.0
 40
3.0
 40
4.0
 40
4.0
 40
4.0
 40
4.0
 10
-263.0691300460823
 20
-86.7833333064237
 30
0.0
 10
-263.0691300461195
 20
-87.61176136177203
 30
0.0
 10
-262.3975822685395
 20
-88.28334441719011
 30
0.0
 10
-261.5691542131912
 20
-88.28334441722733
 30
0.0
 10
-260.7407261578426
 20
-88.28334441726454
 30
0.0
 10
-260.0691431024251
 20
-87.61176136190679
 30
0.0
 10
-260.0691431023879
 20
-86.78333330655846
 30
0.0
 10
-260.0691431023507
 20
-85.95490525121014
 30
0.0
 10
-260.7407261577078
 20
-85.28332219579204
 30
0.0
 10
-261.5691542130564
 20
-85.28332219575482
 30
0.0
 10
-262.3975822684048
 20
-85.2833221957176
 30
0.0
 10
-263.069130046045
 20
-85.95490525107537
 30
0.0
 10
-263.0691300460823
 20
-86.7833333064237
 30
0.0
  0
SPLINE
  5
6C
330
1F
100
AcDbEntity
  8
_U+68F0_U+7481_U+60E7
 62
     7
420
 16777215
370
    35
100
AcDbSpline
210
0.0
220
0.0
230
1.0
 70
    11
 71
     3
 72
    17
 73
    13
 74
     0
 42
0.0000000001
 43
0.0000000001
 12
1.0
 22
0.0
 32
0.0
 13
1.0
 23
0.0
 33
0.0
 40
0.0
 40
0.0
 40
0.0
 40
0.0
 40
1.0
 40
1.0
 40
1.0
 40
2.0
 40
2.0
 40
2.0
 40
3.0
 40
3.0
 40
3.0
 40
4.0
 40
4.0
 40
4.0
 40
4.0
 10
-263.0691300475639
 20
-119.7833307981735
 30
0.0
 10
-263.0691300476008
 20
-120.6117588535224
 30
0.0
 10
-262.3975822700212
 20
-121.2833419089399
 30
0.0
 10
-261.5691542146729
 20
-121.2833419089771
 30
0.0
 10
-260.7407261593243
 20
-121.2833419090143
 30
0.0
 10
-260.0691431039068
 20
-120.6117588536572
 30
0.0
 10
-260.0691431038696
 20
-119.7833307983082
 30
0.0
 10
-260.0691431038323
 20
-118.9549027429599
 30
0.0
 10
-260.7407261591895
 20
-118.2833196875425
 30
0.0
 10
-261.5691542145381
 20
-118.2833196875052
 30
0.0
 10
-262.3975822698865
 20
-118.283319687468
 30
0.0
 10
-263.0691300475264
 20
-118.9549027428252
 30
0.0
 10
-263.0691300475639
 20
-119.7833307981735
 30
0.0
  0
SPLINE
  5
6D
330
1F
100
AcDbEntity
  8
_U+68F0_U+7481_U+60E7
 62
     7
420
 16777215
370
    35
100
AcDbSpline
210
0.0
220
0.0
230
1.0
 70
    11
 71
     3
 72
    17
 73
    13
 74
     0
 42
0.0000000001
 43
0.0000000001
 12
1.0
 22
0.0
 32
0.0
 13
1.0
 23
0.0
 33
0.0
 40
0.0
 40
0.0
 40
0.0
 40
0.0
 40
1.0
 40
1.0
 40
1.0
 40
2.0
 40
2.0
 40
2.0
 40
3.0
 40
3.0
 40
3.0
 40
4.0
 40
4.0
 40
4.0
 40
4.0
 10
-213.5691514495686
 20
-136.2833471851606
 30
0.0
 10
-213.5691514496058
 20
-137.1117752405089
 30
0.0
 10
-212.8975683942483
 20
-137.7833230181488
 30
0.0
 10
-212.0691403388997
 20
-137.7833230181861
 30
0.0
 10
-211.2407122835517
 20
-137.7833230182233
 30
0.0
 10
-210.5691292281336
 20
-137.1117752406437
 30
0.0
 10
-210.5691292280964
 20
-136.2833471852954
 30
0.0
 10
-210.5691292280591
 20
-135.454919129947
 30
0.0
 10
-211.2407122834169
 20
-134.783336074529
 30
0.0
 10
-212.0691403387649
 20
-134.7833360744917
 30
0.0
 10
-212.8975683941136
 20
-134.7833360744545
 30
0.0
 10
-213.5691514495313
 20
-135.4549191298123
 30
0.0
 10
-213.5691514495686
 20
-136.2833471851606
 30
0.0
  0
SPLINE
  5
6E
330
1F
100
AcDbEntity
  8
_U+68F0_U+7481_U+60E7
 62
     7
420
 16777215
370
    35
100
AcDbSpline
210
0.0
220
0.0
230
1.0
 70
    11
 71
     3
 72
    17
 73
    13
 74
     0
 42
0.0000000001
 43
0.0000000001
 12
1.0
 22
0.0
 32
0.0
 13
1.0
 23
0.0
 33
0.0
 40
0.0
 40
0.0
 40
0.0
 40
0.0
 40
1.0
 40
1.0
 40
1.0
 40
2.0
 40
2.0
 40
2.0
 40
3.0
 40
3.0
 40
3.0
 40
4.0
 40
4.0
 40
4.0
 40
4.0
 10
-279.5691464330684
 20
-136.2833471821972
 30
0.0
 10
-279.5691464331056
 20
-137.1117752375456
 30
0.0
 10
-278.8975633777479
 20
-137.7833230151855
 30
0.0
 10
-278.0691353223999
 20
-137.7833230152227
 30
0.0
 10
-277.2407072670515
 20
-137.7833230152599
 30
0.0
 10
-276.5691594894113
 20
-137.1117752376803
 30
0.0
 10
-276.569159489374
 20
-136.283347182332
 30
0.0
 10
-276.5691594893369
 20
-135.4549191269837
 30
0.0
 10
-277.2407072669168
 20
-134.7833360715656
 30
0.0
 10
-278.0691353222651
 20
-134.7833360715284
 30
0.0
 10
-278.8975633776138
 20
-134.7833360714912
 30
0.0
 10
-279.5691464330312
 20
-135.4549191268489
 30
0.0
 10
-279.5691464330684
 20
-136.2833471821972
 30
0.0
  0
SPLINE
  5
6F
330
1F
100
AcDbEntity
  8
_U+68F0_U+7481_U+60E7
 62
     7
420
 16777215
370
    35
100
AcDbSpline
210
0.0
220
0.0
230
1.0
 70
    11
 71
     3
 72
    17
 73
    13
 74
     0
 42
0.0000000001
 43
0.0000000001
 12
1.0
 22
0.0
 32
0.0
 13
1.0
 23
0.0
 33
0.0
 40
0.0
 40
0.0
 40
0.0
 40
0.0
 40
1.0
 40
1.0
 40
1.0
 40
2.0
 40
2.0
 40
2.0
 40
3.0
 40
3.0
 40
3.0
 40
4.0
 40
4.0
 40
4.0
 40
4.0
 10
-279.5691464301054
 20
-70.28331692091953
 30
0.0
 10
-279.5691464301423
 20
-71.11174497626786
 30
0.0
 10
-278.8975633747848
 20
-71.7833280316853
 30
0.0
 10
-278.0691353194365
 20
-71.78332803172252
 30
0.0
 10
-277.2407072640881
 20
-71.78332803175974
 30
0.0
 10
-276.5691594864479
 20
-71.11174497640262
 30
0.0
 10
-276.569159486411
 20
-70.2833169210543
 30
0.0
 10
-276.5691594863738
 20
-69.45488886570531
 30
0.0
 10
-277.2407072639537
 20
-68.7833410880654
 30
0.0
 10
-278.0691353193021
 20
-68.78334108802818
 30
0.0
 10
-278.8975633746504
 20
-68.78334108799096
 30
0.0
 10
-279.5691464300685
 20
-69.45488886557057
 30
0.0
 10
-279.5691464301054
 20
-70.28331692091953
 30
0.0
  0
SPLINE
  5
70
330
1F
100
AcDbEntity
  8
_U+68F0_U+7481_U+60E7
 62
     7
420
 16777215
370
    35
100
AcDbSpline
210
0.0
220
0.0
230
1.0
 70
    11
 71
     3
 72
    17
 73
    13
 74
     0
 42
0.0000000001
 43
0.0000000001
 12
1.0
 22
0.0
 32
0.0
 13
1.0
 23
0.0
 33
0.0
 40
0.0
 40
0.0
 40
0.0
 40
0.0
 40
1.0
 40
1.0
 40
1.0
 40
2.0
 40
2.0
 40
2.0
 40
3.0
 40
3.0
 40
3.0
 40
4.0
 40
4.0
 40
4.0
 40
4.0
 10
-213.5691514466058
 20
-70.2833169238829
 30
0.0
 10
-213.5691514466424
 20
-71.11174497923122
 30
0.0
 10
-212.8975683912849
 20
-71.78332803464866
 30
0.0
 10
-212.0691403359363
 20
-71.78332803468588
 30
0.0
 10
-211.2407122805883
 20
-71.7833280347231
 30
0.0
 10
-210.5691292251702
 20
-71.11174497936598
 30
0.0
 10
-210.5691292251336
 20
-70.28331692401765
 30
0.0
 10
-210.5691292250961
 20
-69.45488886866869
 30
0.0
 10
-211.2407122804535
 20
-68.78334109102876
 30
0.0
 10
-212.0691403358018
 20
-68.78334109099154
 30
0.0
 10
-212.8975683911505
 20
-68.78334109095432
 30
0.0
 10
-213.5691514465683
 20
-69.45488886853393
 30
0.0
 10
-213.5691514466058
 20
-70.2833169238829
 30
0.0
  0
SPLINE
  5
71
330
1F
100
AcDbEntity
  8
_U+68F0_U+7481_U+60E7
 62
   179
420
  1842203
370
    35
100
AcDbSpline
210
0.0
220
0.0
230
1.0
 70
    11
 71
     3
 72
    17
 73
    13
 74
     0
 42
0.0000000001
 43
0.0000000001
 12
1.0
 22
0.0
 32
0.0
 13
1.0
 23
0.0
 33
0.0
 40
0.0
 40
0.0
 40
0.0
 40
0.0
 40
1.0
 40
1.0
 40
1.0
 40
2.0
 40
2.0
 40
2.0
 40
3.0
 40
3.0
 40
3.0
 40
4.0
 40
4.0
 40
4.0
 40
4.0
 10
-273.1322875197656
 20
20.89166672979013
 30
0.0
 10
-273.13228751984
 20
19.23481248080421
 30
0.0
 10
-271.7891417696356
 20
17.89166673047922
 30
0.0
 10
-270.1322875206507
 20
17.89166673040478
 30
0.0
 10
-268.4754332716641
 20
17.89166673033034
 30
0.0
 10
-267.1322875213394
 20
19.2348124805347
 30
0.0
 10
-267.132287521265
 20
20.89166672952062
 30
0.0
 10
-267.1322875211908
 20
22.54852097850655
 30
0.0
 10
-268.4754332713952
 20
23.89166672883026
 30
0.0
 10
-270.1322875203812
 20
23.8916667289047
 30
0.0
 10
-271.7891417693664
 20
23.89166672897913
 30
0.0
 10
-273.1322875196914
 20
22.54852097877606
 30
0.0
 10
-273.1322875197656
 20
20.89166672979013
 30
0.0
  0
SPLINE
  5
72
330
1F
100
AcDbEntity
  8
_U+68F0_U+7481_U+60E7
 62
   179
420
  1842203
370
    35
100
AcDbSpline
210
0.0
220
0.0
230
1.0
 70
    11
 71
     3
 72
    17
 73
    13
 74
     0
 42
0.0000000001
 43
0.0000000001
 12
1.0
 22
0.0
 32
0.0
 13
1.0
 23
0.0
 33
0.0
 40
0.0
 40
0.0
 40
0.0
 40
0.0
 40
1.0
 40
1.0
 40
1.0
 40
2.0
 40
2.0
 40
2.0
 40
3.0
 40
3.0
 40
3.0
 40
4.0
 40
4.0
 40
4.0
 40
4.0
 10
-288.0413517016717
 20
20.89166673045943
 30
0.0
 10
-288.0413517017461
 20
19.2348124814735
 30
0.0
 10
-286.6982059515418
 20
17.89166673114851
 30
0.0
 10
-285.0413517025565
 20
17.89166673107407
 30
0.0
 10
-283.3844974535705
 20
17.89166673099963
 30
0.0
 10
-282.0413517032455
 20
19.23481248120399
 30
0.0
 10
-282.0413517031711
 20
20.89166673018991
 30
0.0
 10
-282.041351703097
 20
22.54852097917584
 30
0.0
 10
-283.3844974533013
 20
23.89166672949955
 30
0.0
 10
-285.0413517022873
 20
23.89166672957399
 30
0.0
 10
-286.6982059512725
 20
23.89166672964842
 30
0.0
 10
-288.0413517015975
 20
22.54852097944535
 30
0.0
 10
-288.0413517016717
 20
20.89166673045943
 30
0.0
  0
SPLINE
  5
73
330
1F
100
AcDbEntity
  8
_U+68F0_U+7481_U+60E7
 62
   179
420
  1842203
370
    35
100
AcDbSpline
210
0.0
220
0.0
230
1.0
 70
    11
 71
     3
 72
    17
 73
    13
 74
     0
 42
0.0000000001
 43
0.0000000001
 12
1.0
 22
0.0
 32
0.0
 13
1.0
 23
0.0
 33
0.0
 40
0.0
 40
0.0
 40
0.0
 40
0.0
 40
1.0
 40
1.0
 40
1.0
 40
2.0
 40
2.0
 40
2.0
 40
3.0
 40
3.0
 40
3.0
 40
4.0
 40
4.0
 40
4.0
 40
4.0
 10
-299.4524742682627
 20
20.89166673097086
 30
0.0
 10
-299.4524742683249
 20
19.51095485681603
 30
0.0
 10
-298.333186143155
 20
18.39166673154541
 30
0.0
 10
-296.9524742690008
 20
18.39166673148317
 30
0.0
 10
-295.5717623948454
 20
18.39166673142157
 30
0.0
 10
-294.4524742695754
 20
19.51095485659144
 30
0.0
 10
-294.4524742695132
 20
20.89166673074627
 30
0.0
 10
-294.4524742694512
 20
22.27237860490238
 30
0.0
 10
-295.5717623946214
 20
23.39166673017107
 30
0.0
 10
-296.9524742687766
 20
23.39166673023268
 30
0.0
 10
-298.3331861429308
 20
23.39166673029492
 30
0.0
 10
-299.4524742682008
 20
22.27237860512697
 30
0.0
 10
-299.4524742682627
 20
20.89166673097086
 30
0.0
  0
POLYLINE
  5
74
330
1F
100
AcDbEntity
  8
_U+68F0_U+7481_U+60E7
 62
    13
420
 15426137
370
    35
100
AcDb2dPolyline
 66
     1
 10
0.0
 20
0.0
 30
0.0
  0
VERTEX
  5
75
330
74
100
AcDbEntity
  8
_U+68F0_U+7481_U+60E7
 62
    13
420
 15426137
370
    35
100
AcDbVertex
100
AcDb2dVertex
 10
-261.1076676714205
 20
14.71665320815233
 30
0.0
  0
VERTEX
  5
12E
330
74
100
AcDbEntity
  8
0
100
AcDbVertex
100
AcDb2dVertex
 10
-261.1076676714205
 20
14.71665320815233
 30
0.0
  0
SEQEND
  5
76
330
74
100
AcDbEntity
  8
_U+68F0_U+7481_U+60E7
 62
    13
420
 15426137
370
    35
  0
SPLINE
  5
77
330
1F
100
AcDbEntity
  8
_U+68F0_U+7481_U+60E7
 62
   140
420
  3522284
370
    35
100
AcDbSpline
210
0.0
220
0.0
230
1.0
 70
    11
 71
     3
 72
    17
 73
    13
 74
     0
 42
0.0000000001
 43
0.0000000001
 12
1.0
 22
0.0
 32
0.0
 13
1.0
 23
0.0
 33
0.0
 40
0.0
 40
0.0
 40
0.0
 40
0.0
 40
1.0
 40
1.0
 40
1.0
 40
2.0
 40
2.0
 40
2.0
 40
3.0
 40
3.0
 40
3.0
 40
4.0
 40
4.0
 40
4.0
 40
4.0
 10
-64.69868550872759
 20
-6.30084879283709
 30
0.0
 10
-64.69868550876481
 20
-7.12927591732973
 30
0.0
 10
-64.02711263366295
 20
-7.800848792492229
 30
0.0
 10
-63.19868550917064
 20
-7.800848792529448
 30
0.0
 10
-62.37025838467704
 20
-7.800848792566666
 30
0.0
 10
-61.69868550951518
 20
-7.129275917464487
 30
0.0
 10
-61.69868550947796
 20
-6.300848792971847
 30
0.0
 10
-61.69868550944106
 20
-5.472421668479205
 30
0.0
 10
-62.37025838454259
 20
-4.800848793316707
 30
0.0
 10
-63.1986855090362
 20
-4.800848793279488
 30
0.0
 10
-64.02711263352852
 20
-4.800848793242269
 30
0.0
 10
-64.6986855086907
 20
-5.472421668344448
 30
0.0
 10
-64.69868550872759
 20
-6.30084879283709
 30
0.0
  0
SPLINE
  5
78
330
1F
100
AcDbEntity
  8
_U+68F0_U+7481_U+60E7
 62
   140
420
  3522284
370
    35
100
AcDbSpline
210
0.0
220
0.0
230
1.0
 70
    11
 71
     3
 72
    17
 73
    13
 74
     0
 42
0.0000000001
 43
0.0000000001
 12
1.0
 22
0.0
 32
0.0
 13
1.0
 23
0.0
 33
0.0
 40
0.0
 40
0.0
 40
0.0
 40
0.0
 40
1.0
 40
1.0
 40
1.0
 40
2.0
 40
2.0
 40
2.0
 40
3.0
 40
3.0
 40
3.0
 40
4.0
 40
4.0
 40
4.0
 40
4.0
 10
-67.19868550810331
 20
-6.300848792725434
 30
0.0
 10
-67.19868550820277
 20
-8.509987791373547
 30
0.0
 10
-65.40782450793105
 20
-10.30084879180538
 30
0.0
 10
-63.19868550928293
 20
-10.3008487919042
 30
0.0
 10
-60.98954651063482
 20
-10.30084879200366
 30
0.0
 10
-59.19868551020267
 20
-8.509987791732256
 30
0.0
 10
-59.1986855101032
 20
-6.300848793084143
 30
0.0
 10
-59.19868551000406
 20
-4.091709794436031
 30
0.0
 10
-60.98954651027579
 20
-2.300848794004199
 30
0.0
 10
-63.1986855089239
 20
-2.300848793904736
 30
0.0
 10
-65.40782450757202
 20
-2.300848793805914
 30
0.0
 10
-67.19868550800417
 20
-4.091709794077321
 30
0.0
 10
-67.19868550810331
 20
-6.300848792725434
 30
0.0
  0
SPLINE
  5
79
330
1F
100
AcDbEntity
  8
_U+68F0_U+7481_U+60E7
 62
   140
420
  3522284
370
    35
100
AcDbSpline
210
0.0
220
0.0
230
1.0
 70
    11
 71
     3
 72
    17
 73
    13
 74
     0
 42
0.0000000001
 43
0.0000000001
 12
1.0
 22
0.0
 32
0.0
 13
1.0
 23
0.0
 33
0.0
 40
0.0
 40
0.0
 40
0.0
 40
0.0
 40
1.0
 40
1.0
 40
1.0
 40
2.0
 40
2.0
 40
2.0
 40
3.0
 40
3.0
 40
3.0
 40
4.0
 40
4.0
 40
4.0
 40
4.0
 10
-64.69868550953582
 20
-24.30084878833621
 30
0.0
 10
-64.69868550957304
 20
-25.12927591282885
 30
0.0
 10
-64.02711263447085
 20
-25.80084878799135
 30
0.0
 10
-63.19868550997789
 20
-25.80084878802856
 30
0.0
 10
-62.37025838548493
 20
-25.80084878806578
 30
0.0
 10
-61.69868551032307
 20
-25.1292759129636
 30
0.0
 10
-61.69868551028586
 20
-24.30084878847096
 30
0.0
 10
-61.69868551024864
 20
-23.47242166397832
 30
0.0
 10
-62.37025838535018
 20
-22.80084878881582
 30
0.0
 10
-63.19868550984378
 20
-22.80084878877861
 30
0.0
 10
-64.0271126343361
 20
-22.80084878874139
 30
0.0
 10
-64.6986855094986
 20
-23.47242166384357
 30
0.0
 10
-64.69868550953582
 20
-24.30084878833621
 30
0.0
  0
SPLINE
  5
7A
330
1F
100
AcDbEntity
  8
_U+68F0_U+7481_U+60E7
 62
   140
420
  3522284
370
    35
100
AcDbSpline
210
0.0
220
0.0
230
1.0
 70
    11
 71
     3
 72
    17
 73
    13
 74
     0
 42
0.0000000001
 43
0.0000000001
 12
1.0
 22
0.0
 32
0.0
 13
1.0
 23
0.0
 33
0.0
 40
0.0
 40
0.0
 40
0.0
 40
0.0
 40
1.0
 40
1.0
 40
1.0
 40
2.0
 40
2.0
 40
2.0
 40
3.0
 40
3.0
 40
3.0
 40
4.0
 40
4.0
 40
4.0
 40
4.0
 10
-67.19868550891121
 20
-24.30084878822455
 30
0.0
 10
-67.19868550901036
 20
-26.50998778687266
 30
0.0
 10
-65.40782450873863
 20
-28.3008487873045
 30
0.0
 10
-63.19868551009051
 20
-28.30084878740332
 30
0.0
 10
-60.9895465114424
 20
-28.30084878750278
 30
0.0
 10
-59.19868551101025
 20
-26.50998778723137
 30
0.0
 10
-59.1986855109111
 20
-24.30084878858326
 30
0.0
 10
-59.19868551081196
 20
-22.09170978993515
 30
0.0
 10
-60.98954651108305
 20
-20.30084878950332
 30
0.0
 10
-63.19868550973116
 20
-20.30084878940385
 30
0.0
 10
-65.40782450837928
 20
-20.30084878930503
 30
0.0
 10
-67.19868550881208
 20
-22.09170978957644
 30
0.0
 10
-67.19868550891121
 20
-24.30084878822455
 30
0.0
  0
SPLINE
  5
7B
330
1F
100
AcDbEntity
  8
_U+68F0_U+7481_U+60E7
 62
   140
420
  3522284
370
    35
100
AcDbSpline
210
0.0
220
0.0
230
1.0
 70
    11
 71
     3
 72
    17
 73
    13
 74
     0
 42
0.0000000001
 43
0.0000000001
 12
1.0
 22
0.0
 32
0.0
 13
1.0
 23
0.0
 33
0.0
 40
0.0
 40
0.0
 40
0.0
 40
0.0
 40
1.0
 40
1.0
 40
1.0
 40
2.0
 40
2.0
 40
2.0
 40
3.0
 40
3.0
 40
3.0
 40
4.0
 40
4.0
 40
4.0
 40
4.0
 10
-64.69868551033666
 20
-42.13625999315941
 30
0.0
 10
-64.69868551037388
 20
-42.96468711765205
 30
0.0
 10
-64.02711263527202
 20
-43.63625999281454
 30
0.0
 10
-63.1986855107797
 20
-43.63625999285177
 30
0.0
 10
-62.3702583862861
 20
-43.63625999288899
 30
0.0
 10
-61.69868551112424
 20
-42.96468711778681
 30
0.0
 10
-61.69868551108734
 20
-42.13625999329417
 30
0.0
 10
-61.6986855110498
 20
-41.30783286880153
 30
0.0
 10
-62.37025838615133
 20
-40.63625999363902
 30
0.0
 10
-63.19868551064494
 20
-40.6362599936018
 30
0.0
 10
-64.02711263513726
 20
-40.63625999356459
 30
0.0
 10
-64.69868551029944
 20
-41.30783286866676
 30
0.0
 10
-64.69868551033666
 20
-42.13625999315941
 30
0.0
  0
SPLINE
  5
7C
330
1F
100
AcDbEntity
  8
_U+68F0_U+7481_U+60E7
 62
   140
420
  3522284
370
    35
100
AcDbSpline
210
0.0
220
0.0
230
1.0
 70
    11
 71
     3
 72
    17
 73
    13
 74
     0
 42
0.0000000001
 43
0.0000000001
 12
1.0
 22
0.0
 32
0.0
 13
1.0
 23
0.0
 33
0.0
 40
0.0
 40
0.0
 40
0.0
 40
0.0
 40
1.0
 40
1.0
 40
1.0
 40
2.0
 40
2.0
 40
2.0
 40
3.0
 40
3.0
 40
3.0
 40
4.0
 40
4.0
 40
4.0
 40
4.0
 10
-67.19868550971238
 20
-42.13625999304775
 30
0.0
 10
-67.19868550981151
 20
-44.34539899169587
 30
0.0
 10
-65.4078245095401
 20
-46.1362599921277
 30
0.0
 10
-63.198685510892
 20
-46.13625999222652
 30
0.0
 10
-60.98954651224388
 20
-46.13625999232598
 30
0.0
 10
-59.19868551181141
 20
-44.34539899205458
 30
0.0
 10
-59.19868551171226
 20
-42.13625999340646
 30
0.0
 10
-59.19868551161312
 20
-39.92712099475835
 30
0.0
 10
-60.98954651188453
 20
-38.13625999432652
 30
0.0
 10
-63.19868551053264
 20
-38.13625999422705
 30
0.0
 10
-65.40782450918076
 20
-38.13625999412823
 30
0.0
 10
-67.19868550961323
 20
-39.92712099439964
 30
0.0
 10
-67.19868550971238
 20
-42.13625999304775
 30
0.0
  0
SPLINE
  5
7D
330
1F
100
AcDbEntity
  8
_U+68F0_U+7481_U+60E7
 62
   140
420
  3522284
370
    35
100
AcDbSpline
210
0.0
220
0.0
230
1.0
 70
    11
 71
     3
 72
    17
 73
    13
 74
     0
 42
0.0000000001
 43
0.0000000001
 12
1.0
 22
0.0
 32
0.0
 13
1.0
 23
0.0
 33
0.0
 40
0.0
 40
0.0
 40
0.0
 40
0.0
 40
1.0
 40
1.0
 40
1.0
 40
2.0
 40
2.0
 40
2.0
 40
3.0
 40
3.0
 40
3.0
 40
4.0
 40
4.0
 40
4.0
 40
4.0
 10
-64.6986855111452
 20
-60.13625998865852
 30
0.0
 10
-64.69868551118209
 20
-60.96468711315116
 30
0.0
 10
-64.02711263607992
 20
-61.63625998831366
 30
0.0
 10
-63.19868551158728
 20
-61.63625998835089
 30
0.0
 10
-62.37025838709399
 20
-61.6362599883881
 30
0.0
 10
-61.69868551193213
 20
-60.96468711328593
 30
0.0
 10
-61.69868551189492
 20
-60.13625998879328
 30
0.0
 10
-61.6986855118577
 20
-59.30783286430064
 30
0.0
 10
-62.37025838695924
 20
-58.63625998913814
 30
0.0
 10
-63.19868551145252
 20
-58.63625998910092
 30
0.0
 10
-64.02711263594516
 20
-58.6362599890637
 30
0.0
 10
-64.69868551110766
 20
-59.30783286416588
 30
0.0
 10
-64.6986855111452
 20
-60.13625998865852
 30
0.0
  0
SPLINE
  5
7E
330
1F
100
AcDbEntity
  8
_U+68F0_U+7481_U+60E7
 62
   140
420
  3522284
370
    35
100
AcDbSpline
210
0.0
220
0.0
230
1.0
 70
    11
 71
     3
 72
    17
 73
    13
 74
     0
 42
0.0000000001
 43
0.0000000001
 12
1.0
 22
0.0
 32
0.0
 13
1.0
 23
0.0
 33
0.0
 40
0.0
 40
0.0
 40
0.0
 40
0.0
 40
1.0
 40
1.0
 40
1.0
 40
2.0
 40
2.0
 40
2.0
 40
3.0
 40
3.0
 40
3.0
 40
4.0
 40
4.0
 40
4.0
 40
4.0
 10
-67.19868551052028
 20
-60.13625998854687
 30
0.0
 10
-67.19868551061941
 20
-62.34539898719498
 30
0.0
 10
-65.40782451034737
 20
-64.13625998762681
 30
0.0
 10
-63.19868551169925
 20
-64.13625998772564
 30
0.0
 10
-60.98954651305114
 20
-64.1362599878251
 30
0.0
 10
-59.19868551261931
 20
-62.34539898755369
 30
0.0
 10
-59.19868551252016
 20
-60.13625998890558
 30
0.0
 10
-59.19868551242102
 20
-57.92712099025746
 30
0.0
 10
-60.98954651269211
 20
-56.13625998982563
 30
0.0
 10
-63.19868551134022
 20
-56.13625998972617
 30
0.0
 10
-65.40782450998833
 20
-56.13625998962735
 30
0.0
 10
-67.19868551042113
 20
-57.92712098989875
 30
0.0
 10
-67.19868551052028
 20
-60.13625998854687
 30
0.0
  0
SPLINE
  5
7F
330
1F
100
AcDbEntity
  8
_U+68F0_U+7481_U+60E7
 62
   140
420
  3522284
370
    35
100
AcDbSpline
210
0.0
220
0.0
230
1.0
 70
    11
 71
     3
 72
    17
 73
    13
 74
     0
 42
0.0000000001
 43
0.0000000001
 12
1.0
 22
0.0
 32
0.0
 13
1.0
 23
0.0
 33
0.0
 40
0.0
 40
0.0
 40
0.0
 40
0.0
 40
1.0
 40
1.0
 40
1.0
 40
2.0
 40
2.0
 40
2.0
 40
3.0
 40
3.0
 40
3.0
 40
4.0
 40
4.0
 40
4.0
 40
4.0
 10
-64.69868551195277
 20
-78.13625998415765
 30
0.0
 10
-64.69868551198999
 20
-78.96468710865028
 30
0.0
 10
-64.02711263688782
 20
-79.63625998381278
 30
0.0
 10
-63.19868551239517
 20
-79.63625998385
 30
0.0
 10
-62.37025838790189
 20
-79.63625998388721
 30
0.0
 10
-61.69868551274003
 20
-78.96468710878504
 30
0.0
 10
-61.69868551270282
 20
-78.1362599842924
 30
0.0
 10
-61.6986855126656
 20
-77.30783285979976
 30
0.0
 10
-62.37025838776746
 20
-76.63625998463726
 30
0.0
 10
-63.19868551226074
 20
-76.63625998460004
 30
0.0
 10
-64.02711263675339
 20
-76.63625998456283
 30
0.0
 10
-64.69868551191556
 20
-77.307832859665
 30
0.0
 10
-64.69868551195277
 20
-78.13625998415765
 30
0.0
  0
SPLINE
  5
80
330
1F
100
AcDbEntity
  8
_U+68F0_U+7481_U+60E7
 62
   140
420
  3522284
370
    35
100
AcDbSpline
210
0.0
220
0.0
230
1.0
 70
    11
 71
     3
 72
    17
 73
    13
 74
     0
 42
0.0000000001
 43
0.0000000001
 12
1.0
 22
0.0
 32
0.0
 13
1.0
 23
0.0
 33
0.0
 40
0.0
 40
0.0
 40
0.0
 40
0.0
 40
1.0
 40
1.0
 40
1.0
 40
2.0
 40
2.0
 40
2.0
 40
3.0
 40
3.0
 40
3.0
 40
4.0
 40
4.0
 40
4.0
 40
4.0
 10
-67.19868551132816
 20
-78.13625998404599
 30
0.0
 10
-67.19868551142764
 20
-80.34539898269409
 30
0.0
 10
-65.40782451115558
 20
-82.13625998312592
 30
0.0
 10
-63.19868551250747
 20
-82.13625998322475
 30
0.0
 10
-60.98954651385936
 20
-82.13625998332421
 30
0.0
 10
-59.19868551342753
 20
-80.3453989830528
 30
0.0
 10
-59.19868551332807
 20
-78.13625998440469
 30
0.0
 10
-59.19868551322892
 20
-75.92712098575659
 30
0.0
 10
-60.98954651350033
 20
-74.13625998532476
 30
0.0
 10
-63.19868551214844
 20
-74.1362599852253
 30
0.0
 10
-65.40782451079656
 20
-74.13625998512647
 30
0.0
 10
-67.19868551122903
 20
-75.92712098539788
 30
0.0
 10
-67.19868551132816
 20
-78.13625998404599
 30
0.0
  0
SPLINE
  5
81
330
1F
100
AcDbEntity
  8
_U+68F0_U+7481_U+60E7
 62
   140
420
  3522284
370
    35
100
AcDbSpline
210
0.0
220
0.0
230
1.0
 70
    11
 71
     3
 72
    17
 73
    13
 74
     0
 42
0.0000000001
 43
0.0000000001
 12
1.0
 22
0.0
 32
0.0
 13
1.0
 23
0.0
 33
0.0
 40
0.0
 40
0.0
 40
0.0
 40
0.0
 40
1.0
 40
1.0
 40
1.0
 40
2.0
 40
2.0
 40
2.0
 40
3.0
 40
3.0
 40
3.0
 40
4.0
 40
4.0
 40
4.0
 40
4.0
 10
-64.69868551276068
 20
-96.13625997965676
 30
0.0
 10
-64.6986855127979
 20
-96.9646871041494
 30
0.0
 10
-64.02711263769572
 20
-97.6362599793119
 30
0.0
 10
-63.19868551320307
 20
-97.63625997934912
 30
0.0
 10
-62.37025838870979
 20
-97.63625997938634
 30
0.0
 10
-61.69868551354794
 20
-96.96468710428415
 30
0.0
 10
-61.69868551351072
 20
-96.13625997979152
 30
0.0
 10
-61.6986855134735
 20
-95.30783285529887
 30
0.0
 10
-62.37025838857503
 20
-94.63625998013637
 30
0.0
 10
-63.19868551306832
 20
-94.63625998009915
 30
0.0
 10
-64.02711263756063
 20
-94.63625998006194
 30
0.0
 10
-64.69868551272346
 20
-95.30783285516412
 30
0.0
 10
-64.69868551276068
 20
-96.13625997965676
 30
0.0
  0
SPLINE
  5
82
330
1F
100
AcDbEntity
  8
_U+68F0_U+7481_U+60E7
 62
   140
420
  3522284
370
    35
100
AcDbSpline
210
0.0
220
0.0
230
1.0
 70
    11
 71
     3
 72
    17
 73
    13
 74
     0
 42
0.0000000001
 43
0.0000000001
 12
1.0
 22
0.0
 32
0.0
 13
1.0
 23
0.0
 33
0.0
 40
0.0
 40
0.0
 40
0.0
 40
0.0
 40
1.0
 40
1.0
 40
1.0
 40
2.0
 40
2.0
 40
2.0
 40
3.0
 40
3.0
 40
3.0
 40
4.0
 40
4.0
 40
4.0
 40
4.0
 10
-67.19868551213607
 20
-96.1362599795451
 30
0.0
 10
-67.19868551223522
 20
-98.34539897819322
 30
0.0
 10
-65.40782451196348
 20
-100.136259978625
 30
0.0
 10
-63.19868551331538
 20
-100.1362599787239
 30
0.0
 10
-60.98954651466726
 20
-100.1362599788233
 30
0.0
 10
-59.19868551423511
 20
-98.34539897855193
 30
0.0
 10
-59.19868551413597
 20
-96.13625997990381
 30
0.0
 10
-59.19868551403682
 20
-93.9271209812557
 30
0.0
 10
-60.98954651430823
 20
-92.13625998082387
 30
0.0
 10
-63.19868551295634
 20
-92.1362599807244
 30
0.0
 10
-65.40782451160446
 20
-92.13625998062558
 30
0.0
 10
-67.19868551203693
 20
-93.92712098089699
 30
0.0
 10
-67.19868551213607
 20
-96.1362599795451
 30
0.0
  0
SPLINE
  5
83
330
1F
100
AcDbEntity
  8
_U+68F0_U+7481_U+60E7
 62
   140
420
  3522284
370
    35
100
AcDbSpline
210
0.0
220
0.0
230
1.0
 70
    11
 71
     3
 72
    17
 73
    13
 74
     0
 42
0.0000000001
 43
0.0000000001
 12
1.0
 22
0.0
 32
0.0
 13
1.0
 23
0.0
 33
0.0
 40
0.0
 40
0.0
 40
0.0
 40
0.0
 40
1.0
 40
1.0
 40
1.0
 40
2.0
 40
2.0
 40
2.0
 40
3.0
 40
3.0
 40
3.0
 40
4.0
 40
4.0
 40
4.0
 40
4.0
 10
-64.69868551356184
 20
-113.97167118448
 30
0.0
 10
-64.69868551359906
 20
-114.8000983089726
 30
0.0
 10
-64.02711263849687
 20
-115.4716711841351
 30
0.0
 10
-63.19868551400423
 20
-115.4716711841723
 30
0.0
 10
-62.37025838951095
 20
-115.4716711842095
 30
0.0
 10
-61.69868551434909
 20
-114.8000983091074
 30
0.0
 10
-61.69868551431188
 20
-113.9716711846147
 30
0.0
 10
-61.69868551427466
 20
-113.1432440601221
 30
0.0
 10
-62.3702583893762
 20
-112.4716711849596
 30
0.0
 10
-63.19868551386948
 20
-112.4716711849224
 30
0.0
 10
-64.02711263836213
 20
-112.4716711848851
 30
0.0
 10
-64.69868551352462
 20
-113.1432440599873
 30
0.0
 10
-64.69868551356184
 20
-113.97167118448
 30
0.0
  0
SPLINE
  5
84
330
1F
100
AcDbEntity
  8
_U+68F0_U+7481_U+60E7
 62
   140
420
  3522284
370
    35
100
AcDbSpline
210
0.0
220
0.0
230
1.0
 70
    11
 71
     3
 72
    17
 73
    13
 74
     0
 42
0.0000000001
 43
0.0000000001
 12
1.0
 22
0.0
 32
0.0
 13
1.0
 23
0.0
 33
0.0
 40
0.0
 40
0.0
 40
0.0
 40
0.0
 40
1.0
 40
1.0
 40
1.0
 40
2.0
 40
2.0
 40
2.0
 40
3.0
 40
3.0
 40
3.0
 40
4.0
 40
4.0
 40
4.0
 40
4.0
 10
-67.19868551293723
 20
-113.9716711843683
 30
0.0
 10
-67.19868551303638
 20
-116.1808101830164
 30
0.0
 10
-65.40782451276465
 20
-117.9716711834483
 30
0.0
 10
-63.19868551411653
 20
-117.9716711835471
 30
0.0
 10
-60.98954651546842
 20
-117.9716711836465
 30
0.0
 10
-59.19868551503627
 20
-116.1808101833751
 30
0.0
 10
-59.19868551493713
 20
-113.971671184727
 30
0.0
 10
-59.19868551483798
 20
-111.7625321860789
 30
0.0
 10
-60.98954651510939
 20
-109.9716711856471
 30
0.0
 10
-63.1986855137575
 20
-109.9716711855476
 30
0.0
 10
-65.40782451240561
 20
-109.9716711854488
 30
0.0
 10
-67.19868551283808
 20
-111.7625321857202
 30
0.0
 10
-67.19868551293723
 20
-113.9716711843683
 30
0.0
  0
SPLINE
  5
85
330
1F
100
AcDbEntity
  8
_U+68F0_U+7481_U+60E7
 62
   140
420
  3522284
370
    35
100
AcDbSpline
210
0.0
220
0.0
230
1.0
 70
    11
 71
     3
 72
    17
 73
    13
 74
     0
 42
0.0000000001
 43
0.0000000001
 12
1.0
 22
0.0
 32
0.0
 13
1.0
 23
0.0
 33
0.0
 40
0.0
 40
0.0
 40
0.0
 40
0.0
 40
1.0
 40
1.0
 40
1.0
 40
2.0
 40
2.0
 40
2.0
 40
3.0
 40
3.0
 40
3.0
 40
4.0
 40
4.0
 40
4.0
 40
4.0
 10
-64.69868551436974
 20
-131.9716711799791
 30
0.0
 10
-64.69868551440696
 20
-132.8000983044717
 30
0.0
 10
-64.02711263930478
 20
-133.4716711796342
 30
0.0
 10
-63.19868551481213
 20
-133.4716711796714
 30
0.0
 10
-62.37025839031917
 20
-133.4716711797087
 30
0.0
 10
-61.69868551515732
 20
-132.8000983046065
 30
0.0
 10
-61.69868551511978
 20
-131.9716711801138
 30
0.0
 10
-61.69868551508288
 20
-131.1432440556212
 30
0.0
 10
-62.37025839018442
 20
-130.4716711804587
 30
0.0
 10
-63.19868551467738
 20
-130.4716711804215
 30
0.0
 10
-64.02711263917001
 20
-130.4716711803842
 30
0.0
 10
-64.69868551433252
 20
-131.1432440554864
 30
0.0
 10
-64.69868551436974
 20
-131.9716711799791
 30
0.0
  0
SPLINE
  5
86
330
1F
100
AcDbEntity
  8
_U+68F0_U+7481_U+60E7
 62
   140
420
  3522284
370
    35
100
AcDbSpline
210
0.0
220
0.0
230
1.0
 70
    11
 71
     3
 72
    17
 73
    13
 74
     0
 42
0.0000000001
 43
0.0000000001
 12
1.0
 22
0.0
 32
0.0
 13
1.0
 23
0.0
 33
0.0
 40
0.0
 40
0.0
 40
0.0
 40
0.0
 40
1.0
 40
1.0
 40
1.0
 40
2.0
 40
2.0
 40
2.0
 40
3.0
 40
3.0
 40
3.0
 40
4.0
 40
4.0
 40
4.0
 40
4.0
 10
-67.19868551374513
 20
-131.9716711798674
 30
0.0
 10
-67.19868551384427
 20
-134.1808101785155
 30
0.0
 10
-65.40782451357222
 20
-135.9716711789474
 30
0.0
 10
-63.19868551492411
 20
-135.9716711790462
 30
0.0
 10
-60.989546516276
 20
-135.9716711791457
 30
0.0
 10
-59.19868551584417
 20
-134.1808101788743
 30
0.0
 10
-59.19868551574503
 20
-131.9716711802261
 30
0.0
 10
-59.19868551564556
 20
-129.762532181578
 30
0.0
 10
-60.98954651591697
 20
-127.9716711811462
 30
0.0
 10
-63.19868551456508
 20
-127.9716711810467
 30
0.0
 10
-65.4078245132132
 20
-127.9716711809479
 30
0.0
 10
-67.19868551364567
 20
-129.7625321812193
 30
0.0
 10
-67.19868551374513
 20
-131.9716711798674
 30
0.0
  0
SPLINE
  5
87
330
1F
100
AcDbEntity
  8
_U+68F0_U+7481_U+60E7
 62
   140
420
  3522284
370
    35
100
AcDbSpline
210
0.0
220
0.0
230
1.0
 70
    11
 71
     3
 72
    17
 73
    13
 74
     0
 42
0.0000000001
 43
0.0000000001
 12
1.0
 22
0.0
 32
0.0
 13
1.0
 23
0.0
 33
0.0
 40
0.0
 40
0.0
 40
0.0
 40
0.0
 40
1.0
 40
1.0
 40
1.0
 40
2.0
 40
2.0
 40
2.0
 40
3.0
 40
3.0
 40
3.0
 40
4.0
 40
4.0
 40
4.0
 40
4.0
 10
-83.23336693445655
 20
-6.640186888197593
 30
0.0
 10
-83.23336693449345
 20
-7.468614012690234
 30
0.0
 10
-82.56179405939127
 20
-8.140186887852732
 30
0.0
 10
-81.73336693489863
 20
-8.140186887889952
 30
0.0
 10
-80.90493981040535
 20
-8.14018688792717
 30
0.0
 10
-80.2333669352435
 20
-7.46861401282499
 30
0.0
 10
-80.23336693520628
 20
-6.64018688833235
 30
0.0
 10
-80.23336693516906
 20
-5.811759763839708
 30
0.0
 10
-80.90493981027059
 20
-5.14018688867721
 30
0.0
 10
-81.73336693476388
 20
-5.140186888639992
 30
0.0
 10
-82.56179405925651
 20
-5.140186888602773
 30
0.0
 10
-83.23336693441901
 20
-5.811759763704952
 30
0.0
 10
-83.23336693445655
 20
-6.640186888197593
 30
0.0
  0
SPLINE
  5
88
330
1F
100
AcDbEntity
  8
_U+68F0_U+7481_U+60E7
 62
   140
420
  3522284
370
    35
100
AcDbSpline
210
0.0
220
0.0
230
1.0
 70
    11
 71
     3
 72
    17
 73
    13
 74
     0
 42
0.0000000001
 43
0.0000000001
 12
1.0
 22
0.0
 32
0.0
 13
1.0
 23
0.0
 33
0.0
 40
0.0
 40
0.0
 40
0.0
 40
0.0
 40
1.0
 40
1.0
 40
1.0
 40
2.0
 40
2.0
 40
2.0
 40
3.0
 40
3.0
 40
3.0
 40
4.0
 40
4.0
 40
4.0
 40
4.0
 10
-85.7333669338313
 20
-6.640186888085296
 30
0.0
 10
-85.73336693393044
 20
-8.849325886733409
 30
0.0
 10
-83.94250593365904
 20
-10.64018688716524
 30
0.0
 10
-81.73336693501092
 20
-10.6401868872647
 30
0.0
 10
-79.52422793636282
 20
-10.64018688736352
 30
0.0
 10
-77.73336693593066
 20
-8.849325887092117
 30
0.0
 10
-77.73336693583151
 20
-6.640186888444005
 30
0.0
 10
-77.73336693573238
 20
-4.431047889795892
 30
0.0
 10
-79.52422793600346
 20
-2.640186889364061
 30
0.0
 10
-81.73336693465157
 20
-2.640186889265239
 30
0.0
 10
-83.94250593329969
 20
-2.640186889165776
 30
0.0
 10
-85.73336693373216
 20
-4.431047889437183
 30
0.0
 10
-85.7333669338313
 20
-6.640186888085296
 30
0.0
  0
SPLINE
  5
89
330
1F
100
AcDbEntity
  8
_U+68F0_U+7481_U+60E7
 62
   140
420
  3522284
370
    35
100
AcDbSpline
210
0.0
220
0.0
230
1.0
 70
    11
 71
     3
 72
    17
 73
    13
 74
     0
 42
0.0000000001
 43
0.0000000001
 12
1.0
 22
0.0
 32
0.0
 13
1.0
 23
0.0
 33
0.0
 40
0.0
 40
0.0
 40
0.0
 40
0.0
 40
1.0
 40
1.0
 40
1.0
 40
2.0
 40
2.0
 40
2.0
 40
3.0
 40
3.0
 40
3.0
 40
4.0
 40
4.0
 40
4.0
 40
4.0
 10
-83.23336693526446
 20
-24.64018688369671
 30
0.0
 10
-83.23336693530167
 20
-25.46861400818935
 30
0.0
 10
-82.56179406019949
 20
-26.14018688335185
 30
0.0
 10
-81.73336693570685
 20
-26.14018688338907
 30
0.0
 10
-80.90493981121357
 20
-26.14018688342628
 30
0.0
 10
-80.23336693605171
 20
-25.46861400832411
 30
0.0
 10
-80.23336693601449
 20
-24.64018688383146
 30
0.0
 10
-80.23336693597727
 20
-23.81175975933883
 30
0.0
 10
-80.9049398110788
 20
-23.14018688417633
 30
0.0
 10
-81.73336693557209
 20
-23.14018688413911
 30
0.0
 10
-82.56179406006473
 20
-23.14018688410189
 30
0.0
 10
-83.23336693522724
 20
-23.81175975920407
 30
0.0
 10
-83.23336693526446
 20
-24.64018688369671
 30
0.0
  0
SPLINE
  5
8A
330
1F
100
AcDbEntity
  8
_U+68F0_U+7481_U+60E7
 62
   140
420
  3522284
370
    35
100
AcDbSpline
210
0.0
220
0.0
230
1.0
 70
    11
 71
     3
 72
    17
 73
    13
 74
     0
 42
0.0000000001
 43
0.0000000001
 12
1.0
 22
0.0
 32
0.0
 13
1.0
 23
0.0
 33
0.0
 40
0.0
 40
0.0
 40
0.0
 40
0.0
 40
1.0
 40
1.0
 40
1.0
 40
2.0
 40
2.0
 40
2.0
 40
3.0
 40
3.0
 40
3.0
 40
4.0
 40
4.0
 40
4.0
 40
4.0
 10
-85.73336693463952
 20
-24.64018688358441
 30
0.0
 10
-85.73336693473867
 20
-26.84932588223252
 30
0.0
 10
-83.94250593446694
 20
-28.64018688266436
 30
0.0
 10
-81.73336693581882
 20
-28.64018688276382
 30
0.0
 10
-79.5242279371707
 20
-28.64018688286264
 30
0.0
 10
-77.73336693673888
 20
-26.84932588259123
 30
0.0
 10
-77.73336693663974
 20
-24.64018688394312
 30
0.0
 10
-77.73336693654059
 20
-22.43104788529501
 30
0.0
 10
-79.52422793681168
 20
-20.64018688486318
 30
0.0
 10
-81.7333669354598
 20
-20.64018688476435
 30
0.0
 10
-83.94250593410791
 20
-20.64018688466489
 30
0.0
 10
-85.73336693454038
 20
-22.4310478849363
 30
0.0
 10
-85.73336693463952
 20
-24.64018688358441
 30
0.0
  0
SPLINE
  5
8B
330
1F
100
AcDbEntity
  8
_U+68F0_U+7481_U+60E7
 62
   140
420
  3522284
370
    35
100
AcDbSpline
210
0.0
220
0.0
230
1.0
 70
    11
 71
     3
 72
    17
 73
    13
 74
     0
 42
0.0000000001
 43
0.0000000001
 12
1.0
 22
0.0
 32
0.0
 13
1.0
 23
0.0
 33
0.0
 40
0.0
 40
0.0
 40
0.0
 40
0.0
 40
1.0
 40
1.0
 40
1.0
 40
2.0
 40
2.0
 40
2.0
 40
3.0
 40
3.0
 40
3.0
 40
4.0
 40
4.0
 40
4.0
 40
4.0
 10
-101.233366929956
 20
-6.640186887389052
 30
0.0
 10
-101.2333669299932
 20
-7.468614011881693
 30
0.0
 10
-100.561794054891
 20
-8.140186887044191
 30
0.0
 10
-99.73336693039839
 20
-8.140186887081411
 30
0.0
 10
-98.90493980590543
 20
-8.14018688711863
 30
0.0
 10
-98.23336693074357
 20
-7.46861401201645
 30
0.0
 10
-98.23336693070603
 20
-6.640186887523809
 30
0.0
 10
-98.23336693066913
 20
-5.811759763031167
 30
0.0
 10
-98.90493980577067
 20
-5.140186887868669
 30
0.0
 10
-99.73336693026363
 20
-5.140186887831451
 30
0.0
 10
-100.5617940547563
 20
-5.140186887794232
 30
0.0
 10
-101.2333669299188
 20
-5.811759762896411
 30
0.0
 10
-101.233366929956
 20
-6.640186887389052
 30
0.0
  0
SPLINE
  5
8C
330
1F
100
AcDbEntity
  8
_U+68F0_U+7481_U+60E7
 62
   140
420
  3522284
370
    35
100
AcDbSpline
210
0.0
220
0.0
230
1.0
 70
    11
 71
     3
 72
    17
 73
    13
 74
     0
 42
0.0000000001
 43
0.0000000001
 12
1.0
 22
0.0
 32
0.0
 13
1.0
 23
0.0
 33
0.0
 40
0.0
 40
0.0
 40
0.0
 40
0.0
 40
1.0
 40
1.0
 40
1.0
 40
2.0
 40
2.0
 40
2.0
 40
3.0
 40
3.0
 40
3.0
 40
4.0
 40
4.0
 40
4.0
 40
4.0
 10
-103.7333669293314
 20
-6.640186887276755
 30
0.0
 10
-103.7333669294305
 20
-8.849325885924868
 30
0.0
 10
-101.9425059291585
 20
-10.64018688635734
 30
0.0
 10
-99.73336693051068
 20
-10.64018688645616
 30
0.0
 10
-97.52422793186257
 20
-10.64018688655563
 30
0.0
 10
-95.73336693143042
 20
-8.849325886284218
 30
0.0
 10
-95.73336693133128
 20
-6.640186887636106
 30
0.0
 10
-95.73336693123214
 20
-4.431047888987994
 30
0.0
 10
-97.52422793150322
 20
-2.640186888556161
 30
0.0
 10
-99.73336693015133
 20
-2.640186888456698
 30
0.0
 10
-101.9425059287991
 20
-2.640186888357877
 30
0.0
 10
-103.7333669292322
 20
-4.431047888628642
 30
0.0
 10
-103.7333669293314
 20
-6.640186887276755
 30
0.0
  0
SPLINE
  5
8D
330
1F
100
AcDbEntity
  8
_U+68F0_U+7481_U+60E7
 62
   140
420
  3522284
370
    35
100
AcDbSpline
210
0.0
220
0.0
230
1.0
 70
    11
 71
     3
 72
    17
 73
    13
 74
     0
 42
0.0000000001
 43
0.0000000001
 12
1.0
 22
0.0
 32
0.0
 13
1.0
 23
0.0
 33
0.0
 40
0.0
 40
0.0
 40
0.0
 40
0.0
 40
1.0
 40
1.0
 40
1.0
 40
2.0
 40
2.0
 40
2.0
 40
3.0
 40
3.0
 40
3.0
 40
4.0
 40
4.0
 40
4.0
 40
4.0
 10
-101.2333669307642
 20
-24.64018688288817
 30
0.0
 10
-101.2333669308014
 20
-25.46861400738081
 30
0.0
 10
-100.5617940556989
 20
-26.14018688254331
 30
0.0
 10
-99.7333669312066
 20
-26.14018688258053
 30
0.0
 10
-98.904939806713
 20
-26.14018688261774
 30
0.0
 10
-98.23336693155115
 20
-25.46861400751557
 30
0.0
 10
-98.23336693151393
 20
-24.64018688302292
 30
0.0
 10
-98.23336693147671
 20
-23.81175975853029
 30
0.0
 10
-98.90493980657824
 20
-23.14018688336779
 30
0.0
 10
-99.73336693107186
 20
-23.14018688333057
 30
0.0
 10
-100.5617940555642
 20
-23.14018688329335
 30
0.0
 10
-101.233366930727
 20
-23.81175975839553
 30
0.0
 10
-101.2333669307642
 20
-24.64018688288817
 30
0.0
  0
SPLINE
  5
8E
330
1F
100
AcDbEntity
  8
_U+68F0_U+7481_U+60E7
 62
   140
420
  3522284
370
    35
100
AcDbSpline
210
0.0
220
0.0
230
1.0
 70
    11
 71
     3
 72
    17
 73
    13
 74
     0
 42
0.0000000001
 43
0.0000000001
 12
1.0
 22
0.0
 32
0.0
 13
1.0
 23
0.0
 33
0.0
 40
0.0
 40
0.0
 40
0.0
 40
0.0
 40
1.0
 40
1.0
 40
1.0
 40
2.0
 40
2.0
 40
2.0
 40
3.0
 40
3.0
 40
3.0
 40
4.0
 40
4.0
 40
4.0
 40
4.0
 10
-103.7333669301396
 20
-24.64018688277587
 30
0.0
 10
-103.7333669302384
 20
-26.84932588142398
 30
0.0
 10
-101.9425059299667
 20
-28.64018688185646
 30
0.0
 10
-99.73336693131859
 20
-28.64018688195528
 30
0.0
 10
-97.52422793267047
 20
-28.64018688205474
 30
0.0
 10
-95.73336693223831
 20
-26.84932588178334
 30
0.0
 10
-95.7333669321395
 20
-24.64018688313522
 30
0.0
 10
-95.73336693204003
 20
-22.43104788448711
 30
0.0
 10
-97.52422793231145
 20
-20.64018688405528
 30
0.0
 10
-99.73336693095955
 20
-20.64018688395581
 30
0.0
 10
-101.9425059296073
 20
-20.64018688385699
 30
0.0
 10
-103.7333669300401
 20
-22.43104788412776
 30
0.0
 10
-103.7333669301396
 20
-24.64018688277587
 30
0.0
  0
SPLINE
  5
8F
330
1F
100
AcDbEntity
  8
_U+68F0_U+7481_U+60E7
 62
   140
420
  3522284
370
    35
100
AcDbSpline
210
0.0
220
0.0
230
1.0
 70
    11
 71
     3
 72
    17
 73
    13
 74
     0
 42
0.0000000001
 43
0.0000000001
 12
1.0
 22
0.0
 32
0.0
 13
1.0
 23
0.0
 33
0.0
 40
0.0
 40
0.0
 40
0.0
 40
0.0
 40
1.0
 40
1.0
 40
1.0
 40
2.0
 40
2.0
 40
2.0
 40
3.0
 40
3.0
 40
3.0
 40
4.0
 40
4.0
 40
4.0
 40
4.0
 10
-83.23336693606497
 20
-42.47559808851991
 30
0.0
 10
-83.23336693610219
 20
-43.30402521301255
 30
0.0
 10
-82.56179406100001
 20
-43.97559808817505
 30
0.0
 10
-81.73336693650737
 20
-43.97559808821227
 30
0.0
 10
-80.90493981201409
 20
-43.97559808824949
 30
0.0
 10
-80.23336693685224
 20
-43.30402521314731
 30
0.0
 10
-80.23336693681502
 20
-42.47559808865467
 30
0.0
 10
-80.2333669367778
 20
-41.64717096416203
 30
0.0
 10
-80.90493981187964
 20
-40.97559808899953
 30
0.0
 10
-81.73336693637293
 20
-40.97559808896231
 30
0.0
 10
-82.56179406086558
 20
-40.97559808892509
 30
0.0
 10
-83.23336693602775
 20
-41.64717096402727
 30
0.0
 10
-83.23336693606497
 20
-42.47559808851991
 30
0.0
  0
SPLINE
  5
90
330
1F
100
AcDbEntity
  8
_U+68F0_U+7481_U+60E7
 62
   140
420
  3522284
370
    35
100
AcDbSpline
210
0.0
220
0.0
230
1.0
 70
    11
 71
     3
 72
    17
 73
    13
 74
     0
 42
0.0000000001
 43
0.0000000001
 12
1.0
 22
0.0
 32
0.0
 13
1.0
 23
0.0
 33
0.0
 40
0.0
 40
0.0
 40
0.0
 40
0.0
 40
1.0
 40
1.0
 40
1.0
 40
2.0
 40
2.0
 40
2.0
 40
3.0
 40
3.0
 40
3.0
 40
4.0
 40
4.0
 40
4.0
 40
4.0
 10
-85.73336693544005
 20
-42.47559808840762
 30
0.0
 10
-85.73336693553951
 20
-44.68473708705573
 30
0.0
 10
-83.94250593526777
 20
-46.47559808748756
 30
0.0
 10
-81.73336693661966
 20
-46.47559808758702
 30
0.0
 10
-79.52422793797156
 20
-46.47559808768585
 30
0.0
 10
-77.73336693753973
 20
-44.68473708741443
 30
0.0
 10
-77.73336693744025
 20
-42.47559808876633
 30
0.0
 10
-77.73336693734112
 20
-40.26645909011821
 30
0.0
 10
-79.52422793761252
 20
-38.47559808968638
 30
0.0
 10
-81.73336693626064
 20
-38.47559808958756
 30
0.0
 10
-83.94250593490875
 20
-38.47559808948809
 30
0.0
 10
-85.7333669353409
 20
-40.2664590897595
 30
0.0
 10
-85.73336693544005
 20
-42.47559808840762
 30
0.0
  0
SPLINE
  5
91
330
1F
100
AcDbEntity
  8
_U+68F0_U+7481_U+60E7
 62
   140
420
  3522284
370
    35
100
AcDbSpline
210
0.0
220
0.0
230
1.0
 70
    11
 71
     3
 72
    17
 73
    13
 74
     0
 42
0.0000000001
 43
0.0000000001
 12
1.0
 22
0.0
 32
0.0
 13
1.0
 23
0.0
 33
0.0
 40
0.0
 40
0.0
 40
0.0
 40
0.0
 40
1.0
 40
1.0
 40
1.0
 40
2.0
 40
2.0
 40
2.0
 40
3.0
 40
3.0
 40
3.0
 40
4.0
 40
4.0
 40
4.0
 40
4.0
 10
-83.2333669368732
 20
-60.47559808401903
 30
0.0
 10
-83.23336693691041
 20
-61.30402520851167
 30
0.0
 10
-82.56179406180823
 20
-61.97559808367416
 30
0.0
 10
-81.7333669373156
 20
-61.97559808371139
 30
0.0
 10
-80.9049398128223
 20
-61.97559808374861
 30
0.0
 10
-80.23336693766045
 20
-61.30402520864643
 30
0.0
 10
-80.23336693762323
 20
-60.47559808415379
 30
0.0
 10
-80.23336693758601
 20
-59.64717095966115
 30
0.0
 10
-80.90493981268754
 20
-58.97559808449864
 30
0.0
 10
-81.73336693718083
 20
-58.97559808446142
 30
0.0
 10
-82.56179406167347
 20
-58.97559808442421
 30
0.0
 10
-83.23336693683598
 20
-59.64717095952638
 30
0.0
 10
-83.2333669368732
 20
-60.47559808401903
 30
0.0
  0
SPLINE
  5
92
330
1F
100
AcDbEntity
  8
_U+68F0_U+7481_U+60E7
 62
   140
420
  3522284
370
    35
100
AcDbSpline
210
0.0
220
0.0
230
1.0
 70
    11
 71
     3
 72
    17
 73
    13
 74
     0
 42
0.0000000001
 43
0.0000000001
 12
1.0
 22
0.0
 32
0.0
 13
1.0
 23
0.0
 33
0.0
 40
0.0
 40
0.0
 40
0.0
 40
0.0
 40
1.0
 40
1.0
 40
1.0
 40
2.0
 40
2.0
 40
2.0
 40
3.0
 40
3.0
 40
3.0
 40
4.0
 40
4.0
 40
4.0
 40
4.0
 10
-85.73336693624826
 20
-60.47559808390673
 30
0.0
 10
-85.73336693634741
 20
-62.68473708255485
 30
0.0
 10
-83.942505936076
 20
-64.47559808298668
 30
0.0
 10
-81.73336693742789
 20
-64.47559808308614
 30
0.0
 10
-79.52422793877977
 20
-64.47559808318496
 30
0.0
 10
-77.73336693834761
 20
-62.68473708291355
 30
0.0
 10
-77.73336693824848
 20
-60.47559808426544
 30
0.0
 10
-77.73336693814933
 20
-58.26645908561733
 30
0.0
 10
-79.52422793842042
 20
-56.4755980851855
 30
0.0
 10
-81.73336693706821
 20
-56.47559808508667
 30
0.0
 10
-83.94250593571633
 20
-56.47559808498721
 30
0.0
 10
-85.73336693614912
 20
-58.26645908525862
 30
0.0
 10
-85.73336693624826
 20
-60.47559808390673
 30
0.0
  0
SPLINE
  5
93
330
1F
100
AcDbEntity
  8
_U+68F0_U+7481_U+60E7
 62
   140
420
  3522284
370
    35
100
AcDbSpline
210
0.0
220
0.0
230
1.0
 70
    11
 71
     3
 72
    17
 73
    13
 74
     0
 42
0.0000000001
 43
0.0000000001
 12
1.0
 22
0.0
 32
0.0
 13
1.0
 23
0.0
 33
0.0
 40
0.0
 40
0.0
 40
0.0
 40
0.0
 40
1.0
 40
1.0
 40
1.0
 40
2.0
 40
2.0
 40
2.0
 40
3.0
 40
3.0
 40
3.0
 40
4.0
 40
4.0
 40
4.0
 40
4.0
 10
-101.2333669315647
 20
-42.47559808771137
 30
0.0
 10
-101.2333669316019
 20
-43.30402521220401
 30
0.0
 10
-100.5617940564998
 20
-43.97559808736651
 30
0.0
 10
-99.73336693200713
 20
-43.97559808740373
 30
0.0
 10
-98.90493980751384
 20
-43.97559808744095
 30
0.0
 10
-98.23336693235198
 20
-43.30402521233877
 30
0.0
 10
-98.23336693231477
 20
-42.47559808784613
 30
0.0
 10
-98.23336693227755
 20
-41.64717096335349
 30
0.0
 10
-98.9049398073794
 20
-40.97559808819098
 30
0.0
 10
-99.7333669318727
 20
-40.97559808815377
 30
0.0
 10
-100.5617940563653
 20
-40.97559808811655
 30
0.0
 10
-101.2333669315275
 20
-41.64717096321873
 30
0.0
 10
-101.2333669315647
 20
-42.47559808771137
 30
0.0
  0
SPLINE
  5
94
330
1F
100
AcDbEntity
  8
_U+68F0_U+7481_U+60E7
 62
   140
420
  3522284
370
    35
100
AcDbSpline
210
0.0
220
0.0
230
1.0
 70
    11
 71
     3
 72
    17
 73
    13
 74
     0
 42
0.0000000001
 43
0.0000000001
 12
1.0
 22
0.0
 32
0.0
 13
1.0
 23
0.0
 33
0.0
 40
0.0
 40
0.0
 40
0.0
 40
0.0
 40
1.0
 40
1.0
 40
1.0
 40
2.0
 40
2.0
 40
2.0
 40
3.0
 40
3.0
 40
3.0
 40
4.0
 40
4.0
 40
4.0
 40
4.0
 10
-103.7333669309401
 20
-42.47559808759907
 30
0.0
 10
-103.7333669310399
 20
-44.68473708624719
 30
0.0
 10
-101.9425059307672
 20
-46.47559808667966
 30
0.0
 10
-99.73336693211975
 20
-46.47559808677848
 30
0.0
 10
-97.52422793347164
 20
-46.47559808687794
 30
0.0
 10
-95.7333669330398
 20
-44.68473708660654
 30
0.0
 10
-95.73336693294002
 20
-42.47559808795842
 30
0.0
 10
-95.73336693284088
 20
-40.26645908931031
 30
0.0
 10
-97.52422793311229
 20
-38.47559808887848
 30
0.0
 10
-99.7333669317604
 20
-38.47559808877902
 30
0.0
 10
-101.9425059304082
 20
-38.47559808868019
 30
0.0
 10
-103.733366930841
 20
-40.26645908895096
 30
0.0
 10
-103.7333669309401
 20
-42.47559808759907
 30
0.0
  0
SPLINE
  5
95
330
1F
100
AcDbEntity
  8
_U+68F0_U+7481_U+60E7
 62
   140
420
  3522284
370
    35
100
AcDbSpline
210
0.0
220
0.0
230
1.0
 70
    11
 71
     3
 72
    17
 73
    13
 74
     0
 42
0.0000000001
 43
0.0000000001
 12
1.0
 22
0.0
 32
0.0
 13
1.0
 23
0.0
 33
0.0
 40
0.0
 40
0.0
 40
0.0
 40
0.0
 40
1.0
 40
1.0
 40
1.0
 40
2.0
 40
2.0
 40
2.0
 40
3.0
 40
3.0
 40
3.0
 40
4.0
 40
4.0
 40
4.0
 40
4.0
 10
-101.2333669323729
 20
-60.47559808321049
 30
0.0
 10
-101.2333669324102
 20
-61.30402520770313
 30
0.0
 10
-100.5617940573077
 20
-61.97559808286562
 30
0.0
 10
-99.73336693281534
 20
-61.97559808290285
 30
0.0
 10
-98.90493980832174
 20
-61.97559808294007
 30
0.0
 10
-98.23336693315989
 20
-61.30402520783789
 30
0.0
 10
-98.23336693312267
 20
-60.47559808334525
 30
0.0
 10
-98.23336693308545
 20
-59.64717095885261
 30
0.0
 10
-98.90493980818698
 20
-58.9755980836901
 30
0.0
 10
-99.7333669326806
 20
-58.97559808365288
 30
0.0
 10
-100.5617940571729
 20
-58.97559808361567
 30
0.0
 10
-101.2333669323357
 20
-59.64717095871784
 30
0.0
 10
-101.2333669323729
 20
-60.47559808321049
 30
0.0
  0
SPLINE
  5
96
330
1F
100
AcDbEntity
  8
_U+68F0_U+7481_U+60E7
 62
   140
420
  3522284
370
    35
100
AcDbSpline
210
0.0
220
0.0
230
1.0
 70
    11
 71
     3
 72
    17
 73
    13
 74
     0
 42
0.0000000001
 43
0.0000000001
 12
1.0
 22
0.0
 32
0.0
 13
1.0
 23
0.0
 33
0.0
 40
0.0
 40
0.0
 40
0.0
 40
0.0
 40
1.0
 40
1.0
 40
1.0
 40
2.0
 40
2.0
 40
2.0
 40
3.0
 40
3.0
 40
3.0
 40
4.0
 40
4.0
 40
4.0
 40
4.0
 10
-103.733366931748
 20
-60.47559808309819
 30
0.0
 10
-103.7333669318472
 20
-62.68473708174631
 30
0.0
 10
-101.9425059315754
 20
-64.47559808217878
 30
0.0
 10
-99.73336693292796
 20
-64.4755980822776
 30
0.0
 10
-97.52422793427985
 20
-64.47559808237706
 30
0.0
 10
-95.73336693384705
 20
-62.68473708210566
 30
0.0
 10
-95.73336693374792
 20
-60.47559808345754
 30
0.0
 10
-95.73336693364877
 20
-58.26645908480943
 30
0.0
 10
-97.52422793392019
 20
-56.47559808437759
 30
0.0
 10
-99.73336693256829
 20
-56.47559808427813
 30
0.0
 10
-101.9425059312161
 20
-56.47559808417931
 30
0.0
 10
-103.7333669316489
 20
-58.26645908445008
 30
0.0
 10
-103.733366931748
 20
-60.47559808309819
 30
0.0
  0
SPLINE
  5
97
330
1F
100
AcDbEntity
  8
_U+68F0_U+7481_U+60E7
 62
   140
420
  3522284
370
    35
100
AcDbSpline
210
0.0
220
0.0
230
1.0
 70
    11
 71
     3
 72
    17
 73
    13
 74
     0
 42
0.0000000001
 43
0.0000000001
 12
1.0
 22
0.0
 32
0.0
 13
1.0
 23
0.0
 33
0.0
 40
0.0
 40
0.0
 40
0.0
 40
0.0
 40
1.0
 40
1.0
 40
1.0
 40
2.0
 40
2.0
 40
2.0
 40
3.0
 40
3.0
 40
3.0
 40
4.0
 40
4.0
 40
4.0
 40
4.0
 10
-83.23336693768108
 20
-78.47559807951815
 30
0.0
 10
-83.2333669377183
 20
-79.30402520401078
 30
0.0
 10
-82.56179406261646
 20
-79.97559807917328
 30
0.0
 10
-81.73336693812348
 20
-79.9755980792105
 30
0.0
 10
-80.90493981363021
 20
-79.97559807924772
 30
0.0
 10
-80.23336693846835
 20
-79.30402520414555
 30
0.0
 10
-80.23336693843113
 20
-78.4755980796529
 30
0.0
 10
-80.23336693839391
 20
-77.64717095516026
 30
0.0
 10
-80.90493981349513
 20
-76.97559807999777
 30
0.0
 10
-81.73336693798873
 20
-76.97559807996055
 30
0.0
 10
-82.5617940624817
 20
-76.97559807992333
 30
0.0
 10
-83.23336693764386
 20
-77.6471709550255
 30
0.0
 10
-83.23336693768108
 20
-78.47559807951815
 30
0.0
  0
SPLINE
  5
98
330
1F
100
AcDbEntity
  8
_U+68F0_U+7481_U+60E7
 62
   140
420
  3522284
370
    35
100
AcDbSpline
210
0.0
220
0.0
230
1.0
 70
    11
 71
     3
 72
    17
 73
    13
 74
     0
 42
0.0000000001
 43
0.0000000001
 12
1.0
 22
0.0
 32
0.0
 13
1.0
 23
0.0
 33
0.0
 40
0.0
 40
0.0
 40
0.0
 40
0.0
 40
1.0
 40
1.0
 40
1.0
 40
2.0
 40
2.0
 40
2.0
 40
3.0
 40
3.0
 40
3.0
 40
4.0
 40
4.0
 40
4.0
 40
4.0
 10
-85.73336693705649
 20
-78.47559807940584
 30
0.0
 10
-85.73336693715562
 20
-80.68473707805396
 30
0.0
 10
-83.9425059368839
 20
-82.47559807848579
 30
0.0
 10
-81.73336693823579
 20
-82.47559807858525
 30
0.0
 10
-79.52422793958767
 20
-82.47559807868407
 30
0.0
 10
-77.73336693915584
 20
-80.68473707841267
 30
0.0
 10
-77.7333669390567
 20
-78.47559807976455
 30
0.0
 10
-77.73336693895756
 20
-76.26645908111645
 30
0.0
 10
-79.52422793922833
 20
-74.4755980806846
 30
0.0
 10
-81.73336693787644
 20
-74.4755980805858
 30
0.0
 10
-83.94250593652454
 20
-74.47559808048632
 30
0.0
 10
-85.73336693695734
 20
-76.26645908075774
 30
0.0
 10
-85.73336693705649
 20
-78.47559807940584
 30
0.0
  0
SPLINE
  5
99
330
1F
100
AcDbEntity
  8
_U+68F0_U+7481_U+60E7
 62
   140
420
  3522284
370
    35
100
AcDbSpline
210
0.0
220
0.0
230
1.0
 70
    11
 71
     3
 72
    17
 73
    13
 74
     0
 42
0.0000000001
 43
0.0000000001
 12
1.0
 22
0.0
 32
0.0
 13
1.0
 23
0.0
 33
0.0
 40
0.0
 40
0.0
 40
0.0
 40
0.0
 40
1.0
 40
1.0
 40
1.0
 40
2.0
 40
2.0
 40
2.0
 40
3.0
 40
3.0
 40
3.0
 40
4.0
 40
4.0
 40
4.0
 40
4.0
 10
-83.23336693848931
 20
-96.47559807501726
 30
0.0
 10
-83.23336693852653
 20
-97.30402519950991
 30
0.0
 10
-82.56179406342467
 20
-97.9755980746724
 30
0.0
 10
-81.73336693893171
 20
-97.97559807470962
 30
0.0
 10
-80.90493981443811
 20
-97.97559807474684
 30
0.0
 10
-80.23336693927625
 20
-97.30402519964466
 30
0.0
 10
-80.23336693923935
 20
-96.47559807515202
 30
0.0
 10
-80.23336693920182
 20
-95.64717095065937
 30
0.0
 10
-80.90493981430399
 20
-94.97559807549688
 30
0.0
 10
-81.73336693879695
 20
-94.97559807545966
 30
0.0
 10
-82.56179406328991
 20
-94.97559807542244
 30
0.0
 10
-83.2333669384521
 20
-95.64717095052463
 30
0.0
 10
-83.23336693848931
 20
-96.47559807501726
 30
0.0
  0
SPLINE
  5
9A
330
1F
100
AcDbEntity
  8
_U+68F0_U+7481_U+60E7
 62
   140
420
  3522284
370
    35
100
AcDbSpline
210
0.0
220
0.0
230
1.0
 70
    11
 71
     3
 72
    17
 73
    13
 74
     0
 42
0.0000000001
 43
0.0000000001
 12
1.0
 22
0.0
 32
0.0
 13
1.0
 23
0.0
 33
0.0
 40
0.0
 40
0.0
 40
0.0
 40
0.0
 40
1.0
 40
1.0
 40
1.0
 40
2.0
 40
2.0
 40
2.0
 40
3.0
 40
3.0
 40
3.0
 40
4.0
 40
4.0
 40
4.0
 40
4.0
 10
-85.7333669378647
 20
-96.47559807490497
 30
0.0
 10
-85.73336693796385
 20
-98.68473707355308
 30
0.0
 10
-83.94250593769179
 20
-100.4755980739849
 30
0.0
 10
-81.73336693904369
 20
-100.4755980740844
 30
0.0
 10
-79.52422794039558
 20
-100.4755980741832
 30
0.0
 10
-77.73336693996406
 20
-98.68473707391179
 30
0.0
 10
-77.73336693986492
 20
-96.47559807526368
 30
0.0
 10
-77.73336693976577
 20
-94.26645907661556
 30
0.0
 10
-79.52422794003654
 20
-92.47559807618373
 30
0.0
 10
-81.73336693868465
 20
-92.4755980760849
 30
0.0
 10
-83.94250593733277
 20
-92.47559807598545
 30
0.0
 10
-85.73336693776557
 20
-94.26645907625685
 30
0.0
 10
-85.7333669378647
 20
-96.47559807490497
 30
0.0
  0
SPLINE
  5
9B
330
1F
100
AcDbEntity
  8
_U+68F0_U+7481_U+60E7
 62
   140
420
  3522284
370
    35
100
AcDbSpline
210
0.0
220
0.0
230
1.0
 70
    11
 71
     3
 72
    17
 73
    13
 74
     0
 42
0.0000000001
 43
0.0000000001
 12
1.0
 22
0.0
 32
0.0
 13
1.0
 23
0.0
 33
0.0
 40
0.0
 40
0.0
 40
0.0
 40
0.0
 40
1.0
 40
1.0
 40
1.0
 40
2.0
 40
2.0
 40
2.0
 40
3.0
 40
3.0
 40
3.0
 40
4.0
 40
4.0
 40
4.0
 40
4.0
 10
-101.2333669331812
 20
-78.47559807870961
 30
0.0
 10
-101.2333669332184
 20
-79.30402520320224
 30
0.0
 10
-100.5617940581159
 20
-79.97559807836474
 30
0.0
 10
-99.73336693362357
 20
-79.97559807840196
 30
0.0
 10
-98.90493980912996
 20
-79.97559807843918
 30
0.0
 10
-98.2333669339681
 20
-79.304025203337
 30
0.0
 10
-98.23336693393088
 20
-78.47559807884436
 30
0.0
 10
-98.23336693389366
 20
-77.64717095435172
 30
0.0
 10
-98.90493980899521
 20
-76.97559807918923
 30
0.0
 10
-99.73336693348881
 20
-76.97559807915201
 30
0.0
 10
-100.5617940579811
 20
-76.97559807911479
 30
0.0
 10
-101.233366933144
 20
-77.64717095421696
 30
0.0
 10
-101.2333669331812
 20
-78.47559807870961
 30
0.0
  0
SPLINE
  5
9C
330
1F
100
AcDbEntity
  8
_U+68F0_U+7481_U+60E7
 62
   140
420
  3522284
370
    35
100
AcDbSpline
210
0.0
220
0.0
230
1.0
 70
    11
 71
     3
 72
    17
 73
    13
 74
     0
 42
0.0000000001
 43
0.0000000001
 12
1.0
 22
0.0
 32
0.0
 13
1.0
 23
0.0
 33
0.0
 40
0.0
 40
0.0
 40
0.0
 40
0.0
 40
1.0
 40
1.0
 40
1.0
 40
2.0
 40
2.0
 40
2.0
 40
3.0
 40
3.0
 40
3.0
 40
4.0
 40
4.0
 40
4.0
 40
4.0
 10
-103.7333669325562
 20
-78.4755980785973
 30
0.0
 10
-103.7333669326554
 20
-80.68473707724542
 30
0.0
 10
-101.9425059323837
 20
-82.47559807767789
 30
0.0
 10
-99.73336693373618
 20
-82.47559807777671
 30
0.0
 10
-97.52422793508808
 20
-82.47559807787617
 30
0.0
 10
-95.73336693465528
 20
-80.68473707760477
 30
0.0
 10
-95.73336693455613
 20
-78.47559807895666
 30
0.0
 10
-95.733366934457
 20
-76.26645908030855
 30
0.0
 10
-97.5242279347284
 20
-74.47559807987672
 30
0.0
 10
-99.73336693337652
 20
-74.47559807977726
 30
0.0
 10
-101.9425059320243
 20
-74.47559807967843
 30
0.0
 10
-103.7333669324571
 20
-76.2664590799492
 30
0.0
 10
-103.7333669325562
 20
-78.4755980785973
 30
0.0
  0
SPLINE
  5
9D
330
1F
100
AcDbEntity
  8
_U+68F0_U+7481_U+60E7
 62
   140
420
  3522284
370
    35
100
AcDbSpline
210
0.0
220
0.0
230
1.0
 70
    11
 71
     3
 72
    17
 73
    13
 74
     0
 42
0.0000000001
 43
0.0000000001
 12
1.0
 22
0.0
 32
0.0
 13
1.0
 23
0.0
 33
0.0
 40
0.0
 40
0.0
 40
0.0
 40
0.0
 40
1.0
 40
1.0
 40
1.0
 40
2.0
 40
2.0
 40
2.0
 40
3.0
 40
3.0
 40
3.0
 40
4.0
 40
4.0
 40
4.0
 40
4.0
 10
-101.2333669339887
 20
-96.47559807420872
 30
0.0
 10
-101.233366934026
 20
-97.30402519870137
 30
0.0
 10
-100.5617940589238
 20
-97.97559807386386
 30
0.0
 10
-99.73336693443115
 20
-97.97559807390108
 30
0.0
 10
-98.90493980993786
 20
-97.9755980739383
 30
0.0
 10
-98.233366934776
 20
-97.30402519883611
 30
0.0
 10
-98.23336693473878
 20
-96.47559807434348
 30
0.0
 10
-98.23336693470156
 20
-95.64717094985083
 30
0.0
 10
-98.90493980980311
 20
-94.97559807468834
 30
0.0
 10
-99.73336693429638
 20
-94.97559807465112
 30
0.0
 10
-100.561794058789
 20
-94.9755980746139
 30
0.0
 10
-101.2333669339515
 20
-95.64717094971608
 30
0.0
 10
-101.2333669339887
 20
-96.47559807420872
 30
0.0
  0
SPLINE
  5
9E
330
1F
100
AcDbEntity
  8
_U+68F0_U+7481_U+60E7
 62
   140
420
  3522284
370
    35
100
AcDbSpline
210
0.0
220
0.0
230
1.0
 70
    11
 71
     3
 72
    17
 73
    13
 74
     0
 42
0.0000000001
 43
0.0000000001
 12
1.0
 22
0.0
 32
0.0
 13
1.0
 23
0.0
 33
0.0
 40
0.0
 40
0.0
 40
0.0
 40
0.0
 40
1.0
 40
1.0
 40
1.0
 40
2.0
 40
2.0
 40
2.0
 40
3.0
 40
3.0
 40
3.0
 40
4.0
 40
4.0
 40
4.0
 40
4.0
 10
-103.7333669333641
 20
-96.47559807409642
 30
0.0
 10
-103.7333669334633
 20
-98.68473707274454
 30
0.0
 10
-101.9425059331912
 20
-100.475598073177
 30
0.0
 10
-99.73336693454313
 20
-100.4755980732758
 30
0.0
 10
-97.52422793589501
 20
-100.4755980733753
 30
0.0
 10
-95.73336693546318
 20
-98.68473707310389
 30
0.0
 10
-95.73336693536403
 20
-96.47559807445577
 30
0.0
 10
-95.7333669352649
 20
-94.26645907580766
 30
0.0
 10
-97.52422793553598
 20
-92.47559807537583
 30
0.0
 10
-99.73336693418409
 20
-92.47559807527637
 30
0.0
 10
-101.9425059328322
 20
-92.47559807517754
 30
0.0
 10
-103.733366933265
 20
-94.26645907544831
 30
0.0
 10
-103.7333669333641
 20
-96.47559807409642
 30
0.0
  0
SPLINE
  5
9F
330
1F
100
AcDbEntity
  8
_U+68F0_U+7481_U+60E7
 62
   140
420
  3522284
370
    35
100
AcDbSpline
210
0.0
220
0.0
230
1.0
 70
    11
 71
     3
 72
    17
 73
    13
 74
     0
 42
0.0000000001
 43
0.0000000001
 12
1.0
 22
0.0
 32
0.0
 13
1.0
 23
0.0
 33
0.0
 40
0.0
 40
0.0
 40
0.0
 40
0.0
 40
1.0
 40
1.0
 40
1.0
 40
2.0
 40
2.0
 40
2.0
 40
3.0
 40
3.0
 40
3.0
 40
4.0
 40
4.0
 40
4.0
 40
4.0
 10
-83.23336693928982
 20
-114.3110092798405
 30
0.0
 10
-83.23336693932704
 20
-115.1394364043331
 30
0.0
 10
-82.56179406422487
 20
-115.8110092794956
 30
0.0
 10
-81.73336693973222
 20
-115.8110092795328
 30
0.0
 10
-80.90493981523895
 20
-115.81100927957
 30
0.0
 10
-80.23336694007709
 20
-115.1394364044679
 30
0.0
 10
-80.23336694003987
 20
-114.3110092799752
 30
0.0
 10
-80.23336694000265
 20
-113.4825821554826
 30
0.0
 10
-80.90493981510419
 20
-112.8110092803201
 30
0.0
 10
-81.73336693959747
 20
-112.8110092802829
 30
0.0
 10
-82.56179406409011
 20
-112.8110092802456
 30
0.0
 10
-83.2333669392526
 20
-113.4825821553478
 30
0.0
 10
-83.23336693928982
 20
-114.3110092798405
 30
0.0
  0
SPLINE
  5
A0
330
1F
100
AcDbEntity
  8
_U+68F0_U+7481_U+60E7
 62
   140
420
  3522284
370
    35
100
AcDbSpline
210
0.0
220
0.0
230
1.0
 70
    11
 71
     3
 72
    17
 73
    13
 74
     0
 42
0.0000000001
 43
0.0000000001
 12
1.0
 22
0.0
 32
0.0
 13
1.0
 23
0.0
 33
0.0
 40
0.0
 40
0.0
 40
0.0
 40
0.0
 40
1.0
 40
1.0
 40
1.0
 40
2.0
 40
2.0
 40
2.0
 40
3.0
 40
3.0
 40
3.0
 40
4.0
 40
4.0
 40
4.0
 40
4.0
 10
-85.73336693866554
 20
-114.3110092797282
 30
0.0
 10
-85.73336693876469
 20
-116.5201482783763
 30
0.0
 10
-83.94250593849264
 20
-118.3110092788081
 30
0.0
 10
-81.73336693984453
 20
-118.3110092789076
 30
0.0
 10
-79.52422794119641
 20
-118.3110092790064
 30
0.0
 10
-77.73336694076458
 20
-116.520148278735
 30
0.0
 10
-77.73336694066543
 20
-114.3110092800869
 30
0.0
 10
-77.7333669405663
 20
-112.1018702814388
 30
0.0
 10
-79.52422794083738
 20
-110.3110092810069
 30
0.0
 10
-81.73336693948549
 20
-110.3110092809081
 30
0.0
 10
-83.9425059381336
 20
-110.3110092808086
 30
0.0
 10
-85.7333669385664
 20
-112.1018702810801
 30
0.0
 10
-85.73336693866554
 20
-114.3110092797282
 30
0.0
  0
SPLINE
  5
A1
330
1F
100
AcDbEntity
  8
_U+68F0_U+7481_U+60E7
 62
   140
420
  3522284
370
    35
100
AcDbSpline
210
0.0
220
0.0
230
1.0
 70
    11
 71
     3
 72
    17
 73
    13
 74
     0
 42
0.0000000001
 43
0.0000000001
 12
1.0
 22
0.0
 32
0.0
 13
1.0
 23
0.0
 33
0.0
 40
0.0
 40
0.0
 40
0.0
 40
0.0
 40
1.0
 40
1.0
 40
1.0
 40
2.0
 40
2.0
 40
2.0
 40
3.0
 40
3.0
 40
3.0
 40
4.0
 40
4.0
 40
4.0
 40
4.0
 10
-83.23336694009805
 20
-132.3110092753396
 30
0.0
 10
-83.23336694013527
 20
-133.1394363998322
 30
0.0
 10
-82.56179406503308
 20
-133.8110092749947
 30
0.0
 10
-81.73336694054045
 20
-133.8110092750319
 30
0.0
 10
-80.90493981604716
 20
-133.8110092750692
 30
0.0
 10
-80.2333669408853
 20
-133.139436399967
 30
0.0
 10
-80.23336694084809
 20
-132.3110092754743
 30
0.0
 10
-80.23336694081087
 20
-131.4825821509817
 30
0.0
 10
-80.90493981591241
 20
-130.8110092758192
 30
0.0
 10
-81.73336694040569
 20
-130.811009275782
 30
0.0
 10
-82.56179406489834
 20
-130.8110092757448
 30
0.0
 10
-83.23336694006083
 20
-131.482582150847
 30
0.0
 10
-83.23336694009805
 20
-132.3110092753396
 30
0.0
  0
SPLINE
  5
A2
330
1F
100
AcDbEntity
  8
_U+68F0_U+7481_U+60E7
 62
   140
420
  3522284
370
    35
100
AcDbSpline
210
0.0
220
0.0
230
1.0
 70
    11
 71
     3
 72
    17
 73
    13
 74
     0
 42
0.0000000001
 43
0.0000000001
 12
1.0
 22
0.0
 32
0.0
 13
1.0
 23
0.0
 33
0.0
 40
0.0
 40
0.0
 40
0.0
 40
0.0
 40
1.0
 40
1.0
 40
1.0
 40
2.0
 40
2.0
 40
2.0
 40
3.0
 40
3.0
 40
3.0
 40
4.0
 40
4.0
 40
4.0
 40
4.0
 10
-85.73336693947377
 20
-132.3110092752273
 30
0.0
 10
-85.73336693957259
 20
-134.5201482738754
 30
0.0
 10
-83.94250593930053
 20
-136.3110092743072
 30
0.0
 10
-81.73336694065274
 20
-136.3110092744067
 30
0.0
 10
-79.52422794200463
 20
-136.3110092745055
 30
0.0
 10
-77.73336694157248
 20
-134.5201482742341
 30
0.0
 10
-77.73336694147366
 20
-132.311009275586
 30
0.0
 10
-77.73336694137451
 20
-130.1018702769379
 30
0.0
 10
-79.52422794164528
 20
-128.311009276506
 30
0.0
 10
-81.7333669402934
 20
-128.3110092764072
 30
0.0
 10
-83.94250593894151
 20
-128.3110092763078
 30
0.0
 10
-85.73336693937462
 20
-130.1018702765792
 30
0.0
 10
-85.73336693947377
 20
-132.3110092752273
 30
0.0
  0
SPLINE
  5
A3
330
1F
100
AcDbEntity
  8
_U+68F0_U+7481_U+60E7
 62
   140
420
  3522284
370
    35
100
AcDbSpline
210
0.0
220
0.0
230
1.0
 70
    11
 71
     3
 72
    17
 73
    13
 74
     0
 42
0.0000000001
 43
0.0000000001
 12
1.0
 22
0.0
 32
0.0
 13
1.0
 23
0.0
 33
0.0
 40
0.0
 40
0.0
 40
0.0
 40
0.0
 40
1.0
 40
1.0
 40
1.0
 40
2.0
 40
2.0
 40
2.0
 40
3.0
 40
3.0
 40
3.0
 40
4.0
 40
4.0
 40
4.0
 40
4.0
 10
-101.2333669347899
 20
-114.3110092790319
 30
0.0
 10
-101.2333669348271
 20
-115.1394364035246
 30
0.0
 10
-100.5617940597246
 20
-115.8110092786871
 30
0.0
 10
-99.73336693523231
 20
-115.8110092787243
 30
0.0
 10
-98.9049398107387
 20
-115.8110092787615
 30
0.0
 10
-98.23336693557684
 20
-115.1394364036593
 30
0.0
 10
-98.23336693553962
 20
-114.3110092791667
 30
0.0
 10
-98.2333669355024
 20
-113.482582154674
 30
0.0
 10
-98.90493981060395
 20
-112.8110092795115
 30
0.0
 10
-99.73336693509722
 20
-112.8110092794743
 30
0.0
 10
-100.5617940595899
 20
-112.8110092794371
 30
0.0
 10
-101.2333669347527
 20
-113.4825821545393
 30
0.0
 10
-101.2333669347899
 20
-114.3110092790319
 30
0.0
  0
SPLINE
  5
A4
330
1F
100
AcDbEntity
  8
_U+68F0_U+7481_U+60E7
 62
   140
420
  3522284
370
    35
100
AcDbSpline
210
0.0
220
0.0
230
1.0
 70
    11
 71
     3
 72
    17
 73
    13
 74
     0
 42
0.0000000001
 43
0.0000000001
 12
1.0
 22
0.0
 32
0.0
 13
1.0
 23
0.0
 33
0.0
 40
0.0
 40
0.0
 40
0.0
 40
0.0
 40
1.0
 40
1.0
 40
1.0
 40
2.0
 40
2.0
 40
2.0
 40
3.0
 40
3.0
 40
3.0
 40
4.0
 40
4.0
 40
4.0
 40
4.0
 10
-103.733366934165
 20
-114.3110092789196
 30
0.0
 10
-103.7333669342641
 20
-116.5201482775677
 30
0.0
 10
-101.9425059339924
 20
-118.3110092780002
 30
0.0
 10
-99.7333669353446
 20
-118.311009278099
 30
0.0
 10
-97.52422793669649
 20
-118.3110092781985
 30
0.0
 10
-95.73336693626402
 20
-116.5201482779271
 30
0.0
 10
-95.73336693616487
 20
-114.311009279279
 30
0.0
 10
-95.73336693606574
 20
-112.1018702806309
 30
0.0
 10
-97.52422793633747
 20
-110.311009280199
 30
0.0
 10
-99.73336693498557
 20
-110.3110092800996
 30
0.0
 10
-101.9425059336334
 20
-110.3110092800007
 30
0.0
 10
-103.7333669340658
 20
-112.1018702802715
 30
0.0
 10
-103.733366934165
 20
-114.3110092789196
 30
0.0
  0
SPLINE
  5
A5
330
1F
100
AcDbEntity
  8
_U+68F0_U+7481_U+60E7
 62
   140
420
  3522284
370
    35
100
AcDbSpline
210
0.0
220
0.0
230
1.0
 70
    11
 71
     3
 72
    17
 73
    13
 74
     0
 42
0.0000000001
 43
0.0000000001
 12
1.0
 22
0.0
 32
0.0
 13
1.0
 23
0.0
 33
0.0
 40
0.0
 40
0.0
 40
0.0
 40
0.0
 40
1.0
 40
1.0
 40
1.0
 40
2.0
 40
2.0
 40
2.0
 40
3.0
 40
3.0
 40
3.0
 40
4.0
 40
4.0
 40
4.0
 40
4.0
 10
-101.2333669355975
 20
-132.311009274531
 30
0.0
 10
-101.2333669356347
 20
-133.1394363990237
 30
0.0
 10
-100.5617940605325
 20
-133.8110092741862
 30
0.0
 10
-99.73336693603989
 20
-133.8110092742234
 30
0.0
 10
-98.9049398115466
 20
-133.8110092742606
 30
0.0
 10
-98.23336693638474
 20
-133.1394363991584
 30
0.0
 10
-98.23336693634752
 20
-132.3110092746658
 30
0.0
 10
-98.2333669363103
 20
-131.4825821501732
 30
0.0
 10
-98.90493981141185
 20
-130.8110092750107
 30
0.0
 10
-99.73336693590512
 20
-130.8110092749734
 30
0.0
 10
-100.5617940603978
 20
-130.8110092749362
 30
0.0
 10
-101.2333669355603
 20
-131.4825821500384
 30
0.0
 10
-101.2333669355975
 20
-132.311009274531
 30
0.0
  0
SPLINE
  5
A6
330
1F
100
AcDbEntity
  8
_U+68F0_U+7481_U+60E7
 62
   140
420
  3522284
370
    35
100
AcDbSpline
210
0.0
220
0.0
230
1.0
 70
    11
 71
     3
 72
    17
 73
    13
 74
     0
 42
0.0000000001
 43
0.0000000001
 12
1.0
 22
0.0
 32
0.0
 13
1.0
 23
0.0
 33
0.0
 40
0.0
 40
0.0
 40
0.0
 40
0.0
 40
1.0
 40
1.0
 40
1.0
 40
2.0
 40
2.0
 40
2.0
 40
3.0
 40
3.0
 40
3.0
 40
4.0
 40
4.0
 40
4.0
 40
4.0
 10
-103.7333669349729
 20
-132.3110092744188
 30
0.0
 10
-103.733366935072
 20
-134.5201482730669
 30
0.0
 10
-101.9425059348003
 20
-136.3110092734993
 30
0.0
 10
-99.73336693615218
 20
-136.3110092735982
 30
0.0
 10
-97.52422793750407
 20
-136.3110092736976
 30
0.0
 10
-95.73336693707192
 20
-134.5201482734262
 30
0.0
 10
-95.73336693697277
 20
-132.3110092747781
 30
0.0
 10
-95.73336693687364
 20
-130.10187027613
 30
0.0
 10
-97.52422793714472
 20
-128.3110092756982
 30
0.0
 10
-99.73336693579283
 20
-128.3110092755987
 30
0.0
 10
-101.9425059344409
 20
-128.3110092754999
 30
0.0
 10
-103.7333669348737
 20
-130.1018702757706
 30
0.0
 10
-103.7333669349729
 20
-132.3110092744188
 30
0.0
  0
SPLINE
  5
A7
330
1F
100
AcDbEntity
  8
_U+68F0_U+7481_U+60E7
 62
   179
420
  1842203
370
    35
100
AcDbSpline
210
0.0
220
0.0
230
1.0
 70
    11
 71
     3
 72
    17
 73
    13
 74
     0
 42
0.0000000001
 43
0.0000000001
 12
1.0
 22
0.0
 32
0.0
 13
1.0
 23
0.0
 33
0.0
 40
0.0
 40
0.0
 40
0.0
 40
0.0
 40
1.0
 40
1.0
 40
1.0
 40
2.0
 40
2.0
 40
2.0
 40
3.0
 40
3.0
 40
3.0
 40
4.0
 40
4.0
 40
4.0
 40
4.0
 10
-309.1052635019611
 20
20.89166673140401
 30
0.0
 10
-309.1052635020146
 20
19.7042545196305
 30
0.0
 10
-308.1426757143683
 20
18.7416667318982
 30
0.0
 10
-306.9552635025955
 20
18.74166673184494
 30
0.0
 10
-305.767851290822
 20
18.74166673179168
 30
0.0
 10
-304.8052635030896
 20
19.70425451943798
 30
0.0
 10
-304.8052635030361
 20
20.8916667312115
 30
0.0
 10
-304.8052635029828
 20
22.07907894298437
 30
0.0
 10
-305.7678512906291
 20
23.04166673071666
 30
0.0
 10
-306.9552635024029
 20
23.04166673076993
 30
0.0
 10
-308.1426757141755
 20
23.04166673082319
 30
0.0
 10
-309.1052635019078
 20
22.07907894317688
 30
0.0
 10
-309.1052635019611
 20
20.89166673140401
 30
0.0
  0
SPLINE
  5
A8
330
1F
100
AcDbEntity
  8
_U+68F0_U+7481_U+60E7
 62
    22
420
 15020826
370
    35
100
AcDbSpline
210
0.0
220
0.0
230
1.0
 70
    11
 71
     3
 72
    17
 73
    13
 74
     0
 42
0.0000000001
 43
0.0000000001
 12
1.0
 22
0.0
 32
0.0
 13
1.0
 23
0.0
 33
0.0
 40
0.0
 40
0.0
 40
0.0
 40
0.0
 40
1.0
 40
1.0
 40
1.0
 40
2.0
 40
2.0
 40
2.0
 40
3.0
 40
3.0
 40
3.0
 40
4.0
 40
4.0
 40
4.0
 40
4.0
 10
-132.2857764555083
 20
-169.8271231289298
 30
0.0
 10
-132.2857764554685
 20
-168.943467529471
 30
0.0
 10
-133.0021208555767
 20
-168.2271231292968
 30
0.0
 10
-133.8857764550361
 20
-168.2271231292576
 30
0.0
 10
-134.7694320544955
 20
-168.2271231292178
 30
0.0
 10
-135.4857764546684
 20
-168.9434675293273
 30
0.0
 10
-135.4857764547082
 20
-169.827123128786
 30
0.0
 10
-135.485776454748
 20
-170.7107787282448
 30
0.0
 10
-134.7694320546392
 20
-171.4271231284177
 30
0.0
 10
-133.8857764551798
 20
-171.4271231284575
 30
0.0
 10
-133.0021208557204
 20
-171.4271231284967
 30
0.0
 10
-132.2857764555481
 20
-170.7107787283885
 30
0.0
 10
-132.2857764555083
 20
-169.8271231289298
 30
0.0
  0
HATCH
  5
A9
330
1F
100
AcDbEntity
  8
_U+68F0_U+7481_U+60E7
 62
     7
420
 16776959
100
AcDbHatch
 10
0.0
 20
0.0
 30
0.0
210
0.0
220
0.0
230
1.0
  2
SOLID
 70
     1
 71
     0
 91
        1
 92
        1
 93
        1
 72
     4
 94
        3
 73
     0
 74
     1
 95
       17
 96
       13
 40
0.0
 40
0.0
 40
0.0
 40
0.0
 40
1.0
 40
1.0
 40
1.0
 40
2.0
 40
2.0
 40
2.0
 40
3.0
 40
3.0
 40
3.0
 40
4.0
 40
4.0
 40
4.0
 40
4.0
 10
-132.2857764555083
 20
-169.8271231289298
 10
-132.2857764554685
 20
-168.943467529471
 10
-133.0021208555767
 20
-168.2271231292968
 10
-133.8857764550361
 20
-168.2271231292576
 10
-134.7694320544955
 20
-168.2271231292178
 10
-135.4857764546684
 20
-168.9434675293273
 10
-135.4857764547082
 20
-169.827123128786
 10
-135.485776454748
 20
-170.7107787282448
 10
-134.7694320546392
 20
-171.4271231284177
 10
-133.8857764551798
 20
-171.4271231284575
 10
-133.0021208557204
 20
-171.4271231284967
 10
-132.2857764555481
 20
-170.7107787283885
 10
-132.2857764555083
 20
-169.8271231289298
 97
        0
 97
        0
 75
     2
 76
     1
 98
        0
  0
INSERT
  5
AB
330
1F
100
AcDbEntity
  8
_U+68F0_U+7481_U+60E7
100
AcDbBlockReference
  2
block 2
 10
0.0
 20
0.0
 30
0.0
  0
POLYLINE
  5
BB
330
1F
100
AcDbEntity
  8
_U+68F0_U+7481_U+60E7
 62
     7
420
 16777215
370
    35
100
AcDb2dPolyline
 66
     1
 10
0.0
 20
0.0
 30
0.0
  0
VERTEX
  5
BC
330
BB
100
AcDbEntity
  8
_U+68F0_U+7481_U+60E7
 62
     7
420
 16777215
370
    35
100
AcDbVertex
100
AcDb2dVertex
 10
-11.20150463827928
 20
-110.3387870618436
 30
0.0
  0
VERTEX
  5
BD
330
BB
100
AcDbEntity
  8
_U+68F0_U+7481_U+60E7
 62
     7
420
 16777215
370
    35
100
AcDbVertex
100
AcDb2dVertex
 10
-8.20150463902932
 20
-110.3387870619784
 30
0.0
  0
VERTEX
  5
BE
330
BB
100
AcDbEntity
  8
_U+68F0_U+7481_U+60E7
 62
     7
420
 16777215
370
    35
100
AcDbVertex
100
AcDb2dVertex
 10
-8.201504640375926
 20
-140.3387870544786
 30
0.0
  0
VERTEX
  5
BF
330
BB
100
AcDbEntity
  8
_U+68F0_U+7481_U+60E7
 62
     7
420
 16777215
370
    35
100
AcDbVertex
100
AcDb2dVertex
 10
-11.20150463962589
 20
-140.3387870543439
 30
0.0
  0
VERTEX
  5
C0
330
BB
100
AcDbEntity
  8
_U+68F0_U+7481_U+60E7
 62
     7
420
 16777215
370
    35
100
AcDbVertex
100
AcDb2dVertex
 10
-11.20150463827928
 20
-110.3387870618436
 30
0.0
  0
SEQEND
  5
C1
330
BB
100
AcDbEntity
  8
_U+68F0_U+7481_U+60E7
 62
     7
420
 16777215
370
    35
  0
SPLINE
  5
C2
330
1F
100
AcDbEntity
  8
_U+68F0_U+7481_U+60E7
 62
    22
420
 15020826
370
    35
100
AcDbSpline
210
0.0
220
0.0
230
1.0
 70
    11
 71
     3
 72
    17
 73
    13
 74
     0
 42
0.0000000001
 43
0.0000000001
 12
1.0
 22
0.0
 32
0.0
 13
1.0
 23
0.0
 33
0.0
 40
0.0
 40
0.0
 40
0.0
 40
0.0
 40
1.0
 40
1.0
 40
1.0
 40
2.0
 40
2.0
 40
2.0
 40
3.0
 40
3.0
 40
3.0
 40
4.0
 40
4.0
 40
4.0
 40
4.0
 10
-0.6015046416022655
 20
-125.3387870585696
 30
0.0
 10
-0.6015046415628009
 20
-124.4551314591108
 30
0.0
 10
-1.317849041672262
 20
-123.7387870589372
 30
0.0
 10
-2.201504641130352
 20
-123.7387870588974
 30
0.0
 10
-3.085160240590047
 20
-123.7387870588576
 30
0.0
 10
-3.801504640763678
 20
-124.4551314589671
 30
0.0
 10
-3.801504640803142
 20
-125.3387870584258
 30
0.0
 10
-3.801504640842928
 20
-126.2224426578839
 30
0.0
 10
-3.085160240733466
 20
-126.9387870580576
 30
0.0
 10
-2.201504641273772
 20
-126.9387870580973
 30
0.0
 10
-1.317849041815682
 20
-126.9387870581371
 30
0.0
 10
-0.6015046416420508
 20
-126.2224426580277
 30
0.0
 10
-0.6015046416022655
 20
-125.3387870585696
 30
0.0
  0
HATCH
  5
C3
330
1F
100
AcDbEntity
  8
_U+68F0_U+7481_U+60E7
 62
     7
420
 16776959
100
AcDbHatch
 10
0.0
 20
0.0
 30
0.0
210
0.0
220
0.0
230
1.0
  2
SOLID
 70
     1
 71
     0
 91
        1
 92
        1
 93
        1
 72
     4
 94
        3
 73
     0
 74
     1
 95
       17
 96
       13
 40
0.0
 40
0.0
 40
0.0
 40
0.0
 40
1.0
 40
1.0
 40
1.0
 40
2.0
 40
2.0
 40
2.0
 40
3.0
 40
3.0
 40
3.0
 40
4.0
 40
4.0
 40
4.0
 40
4.0
 10
-0.6015046416022655
 20
-125.3387870585696
 10
-0.6015046415628009
 20
-124.4551314591108
 10
-1.317849041672262
 20
-123.7387870589372
 10
-2.201504641130352
 20
-123.7387870588974
 10
-3.085160240590047
 20
-123.7387870588576
 10
-3.801504640763678
 20
-124.4551314589671
 10
-3.801504640803142
 20
-125.3387870584258
 10
-3.801504640842928
 20
-126.2224426578839
 10
-3.085160240733466
 20
-126.9387870580576
 10
-2.201504641273772
 20
-126.9387870580973
 10
-1.317849041815682
 20
-126.9387870581371
 10
-0.6015046416420508
 20
-126.2224426580277
 10
-0.6015046416022655
 20
-125.3387870585696
 97
        0
 97
        0
 75
     2
 76
     1
 98
        0
  0
SPLINE
  5
C4
330
1F
100
AcDbEntity
  8
_U+68F0_U+7481_U+60E7
 62
    22
420
 15020826
370
    35
100
AcDbSpline
210
0.0
220
0.0
230
1.0
 70
    11
 71
     3
 72
    17
 73
    13
 74
     0
 42
0.0000000001
 43
0.0000000001
 12
1.0
 22
0.0
 32
0.0
 13
1.0
 23
0.0
 33
0.0
 40
0.0
 40
0.0
 40
0.0
 40
0.0
 40
1.0
 40
1.0
 40
1.0
 40
2.0
 40
2.0
 40
2.0
 40
3.0
 40
3.0
 40
3.0
 40
4.0
 40
4.0
 40
4.0
 40
4.0
 10
-354.9759736197753
 20
-169.8271231289298
 30
0.0
 10
-354.9759736197365
 20
-168.943467529471
 30
0.0
 10
-355.6923180198463
 20
-168.2271231292974
 30
0.0
 10
-356.575973619306
 20
-168.2271231292576
 30
0.0
 10
-357.4596292187624
 20
-168.2271231292178
 30
0.0
 10
-358.1759736189357
 20
-168.9434675293273
 30
0.0
 10
-358.175973618978
 20
-169.827123128786
 30
0.0
 10
-358.1759736190166
 20
-170.7107787282448
 30
0.0
 10
-357.4596292189071
 20
-171.4271231284177
 30
0.0
 10
-356.5759736194471
 20
-171.4271231284575
 30
0.0
 10
-355.6923180199874
 20
-171.4271231284973
 30
0.0
 10
-354.9759736198176
 20
-170.7107787283885
 30
0.0
 10
-354.9759736197753
 20
-169.8271231289298
 30
0.0
  0
HATCH
  5
C5
330
1F
100
AcDbEntity
  8
_U+68F0_U+7481_U+60E7
 62
     7
420
 16776959
100
AcDbHatch
 10
0.0
 20
0.0
 30
0.0
210
0.0
220
0.0
230
1.0
  2
SOLID
 70
     1
 71
     0
 91
        1
 92
        1
 93
        1
 72
     4
 94
        3
 73
     0
 74
     1
 95
       17
 96
       13
 40
0.0
 40
0.0
 40
0.0
 40
0.0
 40
1.0
 40
1.0
 40
1.0
 40
2.0
 40
2.0
 40
2.0
 40
3.0
 40
3.0
 40
3.0
 40
4.0
 40
4.0
 40
4.0
 40
4.0
 10
-354.9759736197753
 20
-169.8271231289298
 10
-354.9759736197365
 20
-168.943467529471
 10
-355.6923180198463
 20
-168.2271231292974
 10
-356.575973619306
 20
-168.2271231292576
 10
-357.4596292187624
 20
-168.2271231292178
 10
-358.1759736189357
 20
-168.9434675293273
 10
-358.175973618978
 20
-169.827123128786
 10
-358.1759736190166
 20
-170.7107787282448
 10
-357.4596292189071
 20
-171.4271231284177
 10
-356.5759736194471
 20
-171.4271231284575
 10
-355.6923180199874
 20
-171.4271231284973
 10
-354.9759736198176
 20
-170.7107787283885
 10
-354.9759736197753
 20
-169.8271231289298
 97
        0
 97
        0
 75
     2
 76
     1
 98
        0
  0
INSERT
  5
C7
330
1F
100
AcDbEntity
  8
_U+68F0_U+7481_U+60E7
100
AcDbBlockReference
  2
block 3
 10
0.0
 20
0.0
 30
0.0
  0
POLYLINE
  5
D8
330
1F
100
AcDbEntity
  8
_U+68F0_U+7481_U+60E7
 62
     7
420
 16777215
370
    35
100
AcDb2dPolyline
 66
     1
 10
0.0
 20
0.0
 30
0.0
  0
VERTEX
  5
D9
330
D8
100
AcDbEntity
  8
_U+68F0_U+7481_U+60E7
 62
     7
420
 16777215
370
    35
100
AcDbVertex
100
AcDb2dVertex
 10
-366.0691534391846
 20
-154.8271127851142
 30
0.0
  0
VERTEX
  5
DA
330
D8
100
AcDbEntity
  8
_U+68F0_U+7481_U+60E7
 62
     7
420
 16777215
370
    35
100
AcDbVertex
100
AcDb2dVertex
 10
-363.0691427587845
 20
-154.8271127852489
 30
0.0
  0
VERTEX
  5
DB
330
D8
100
AcDbEntity
  8
_U+68F0_U+7481_U+60E7
 62
     7
420
 16777215
370
    35
100
AcDbVertex
100
AcDb2dVertex
 10
-363.0691427585586
 20
-149.8271165164252
 30
0.0
  0
VERTEX
  5
DC
330
D8
100
AcDbEntity
  8
_U+68F0_U+7481_U+60E7
 62
     7
420
 16777215
370
    35
100
AcDbVertex
100
AcDb2dVertex
 10
-127.3857896477206
 20
-149.8271165270068
 30
0.0
  0
VERTEX
  5
DD
330
D8
100
AcDbEntity
  8
_U+68F0_U+7481_U+60E7
 62
     7
420
 16777215
370
    35
100
AcDbVertex
100
AcDb2dVertex
 10
-127.3857896479452
 20
-154.8271127958306
 30
0.0
  0
VERTEX
  5
DE
330
D8
100
AcDbEntity
  8
_U+68F0_U+7481_U+60E7
 62
     7
420
 16777215
370
    35
100
AcDbVertex
100
AcDb2dVertex
 10
-124.3858004993897
 20
-154.8271127959647
 30
0.0
  0
VERTEX
  5
DF
330
D8
100
AcDbEntity
  8
_U+68F0_U+7481_U+60E7
 62
     7
420
 16777215
370
    35
100
AcDbVertex
100
AcDb2dVertex
 10
-124.3858005007366
 20
-184.8271119407542
 30
0.0
  0
VERTEX
  5
E0
330
D8
100
AcDbEntity
  8
_U+68F0_U+7481_U+60E7
 62
     7
420
 16777215
370
    35
100
AcDbVertex
100
AcDb2dVertex
 10
-127.3857896492921
 20
-184.8271119406201
 30
0.0
  0
VERTEX
  5
E1
330
D8
100
AcDbEntity
  8
_U+68F0_U+7481_U+60E7
 62
     7
420
 16777215
370
    35
100
AcDbVertex
100
AcDb2dVertex
 10
-127.3857896495164
 20
-189.8271297412906
 30
0.0
  0
VERTEX
  5
E2
330
D8
100
AcDbEntity
  8
_U+68F0_U+7481_U+60E7
 62
     7
420
 16777215
370
    35
100
AcDbVertex
100
AcDb2dVertex
 10
-363.0691427603541
 20
-189.827129730709
 30
0.0
  0
VERTEX
  5
E3
330
D8
100
AcDbEntity
  8
_U+68F0_U+7481_U+60E7
 62
     7
420
 16777215
370
    35
100
AcDbVertex
100
AcDb2dVertex
 10
-363.069142760132
 20
-184.8271119300385
 30
0.0
  0
VERTEX
  5
E4
330
D8
100
AcDbEntity
  8
_U+68F0_U+7481_U+60E7
 62
     7
420
 16777215
370
    35
100
AcDbVertex
100
AcDb2dVertex
 10
-366.0691534405321
 20
-184.8271119299037
 30
0.0
  0
VERTEX
  5
E5
330
D8
100
AcDbEntity
  8
_U+68F0_U+7481_U+60E7
 62
     7
420
 16777215
370
    35
100
AcDbVertex
100
AcDb2dVertex
 10
-366.0691534391846
 20
-154.8271127851142
 30
0.0
  0
SEQEND
  5
E6
330
D8
100
AcDbEntity
  8
_U+68F0_U+7481_U+60E7
 62
     7
420
 16777215
370
    35
  0
POLYLINE
  5
E7
330
1F
100
AcDbEntity
  8
_U+68F0_U+7481_U+60E7
 62
     7
420
 16777215
370
    35
100
AcDb2dPolyline
 66
     1
 10
0.0
 20
0.0
 30
0.0
  0
VERTEX
  5
E8
330
E7
100
AcDbEntity
  8
_U+68F0_U+7481_U+60E7
 62
     7
420
 16777215
370
    35
100
AcDbVertex
100
AcDb2dVertex
 10
-366.0689596465226
 20
-20.28334416911905
 30
0.0
  0
VERTEX
  5
E9
330
E7
100
AcDbEntity
  8
_U+68F0_U+7481_U+60E7
 62
     7
420
 16777215
370
    35
100
AcDbVertex
100
AcDb2dVertex
 10
-366.0689596451786
 20
9.716654975670444
 30
0.0
  0
VERTEX
  5
EA
330
E7
100
AcDbEntity
  8
_U+68F0_U+7481_U+60E7
 62
     7
420
 16777215
370
    35
100
AcDbVertex
100
AcDb2dVertex
 10
-363.0691427513972
 20
9.716654975535686
 30
0.0
  0
VERTEX
  5
EB
330
E7
100
AcDbEntity
  8
_U+68F0_U+7481_U+60E7
 62
     7
420
 16777215
370
    35
100
AcDbVertex
100
AcDb2dVertex
 10
-363.0691427511713
 20
14.71665124435947
 30
0.0
  0
VERTEX
  5
EC
330
E7
100
AcDbEntity
  8
_U+68F0_U+7481_U+60E7
 62
     7
420
 16777215
370
    35
100
AcDbVertex
100
AcDb2dVertex
 10
-316.1076681535367
 20
14.71665124225085
 30
0.0
  0
VERTEX
  5
ED
330
E7
100
AcDbEntity
  8
_U+68F0_U+7481_U+60E7
 62
     7
420
 16777215
370
    35
100
AcDbVertex
100
AcDb2dVertex
 10
-313.6076700185233
 20
28.12220679434336
 30
0.0
  0
VERTEX
  5
EE
330
E7
100
AcDbEntity
  8
_U+68F0_U+7481_U+60E7
 62
     7
420
 16777215
370
    35
100
AcDbVertex
100
AcDb2dVertex
 10
-263.5318721659163
 20
28.12220679209485
 30
0.0
  0
VERTEX
  5
EF
330
E7
100
AcDbEntity
  8
_U+68F0_U+7481_U+60E7
 62
     7
420
 16777215
370
    35
100
AcDbVertex
100
AcDb2dVertex
 10
-261.1076661327815
 20
14.71665123978159
 30
0.0
  0
VERTEX
  5
F0
330
E7
100
AcDbEntity
  8
_U+68F0_U+7481_U+60E7
 62
     7
420
 16777215
370
    35
100
AcDbVertex
100
AcDb2dVertex
 10
-127.3857896403331
 20
14.71665123377785
 30
0.0
  0
VERTEX
  5
F1
330
E7
100
AcDbEntity
  8
_U+68F0_U+7481_U+60E7
 62
     7
420
 16777215
370
    35
100
AcDbVertex
100
AcDb2dVertex
 10
-127.3857896405577
 20
9.716654964954069
 30
0.0
  0
VERTEX
  5
F2
330
E7
100
AcDbEntity
  8
_U+68F0_U+7481_U+60E7
 62
     7
420
 16777215
370
    35
100
AcDbVertex
100
AcDb2dVertex
 10
-124.3856067053811
 20
9.716654964819954
 30
0.0
  0
VERTEX
  5
F3
330
E7
100
AcDbEntity
  8
_U+68F0_U+7481_U+60E7
 62
     7
420
 16777215
370
    35
100
AcDbVertex
100
AcDb2dVertex
 10
-124.385606706728
 20
-20.28334417996954
 30
0.0
  0
VERTEX
  5
F4
330
E7
100
AcDbEntity
  8
_U+68F0_U+7481_U+60E7
 62
     7
420
 16777215
370
    35
100
AcDbVertex
100
AcDb2dVertex
 10
-127.3857896419046
 20
-20.28334417983543
 30
0.0
  0
VERTEX
  5
F5
330
E7
100
AcDbEntity
  8
_U+68F0_U+7481_U+60E7
 62
     7
420
 16777215
370
    35
100
AcDbVertex
100
AcDb2dVertex
 10
-127.3857896458555
 20
-108.2833560257825
 30
0.0
  0
VERTEX
  5
F6
330
E7
100
AcDbEntity
  8
_U+68F0_U+7481_U+60E7
 62
     7
420
 16777215
370
    35
100
AcDbVertex
100
AcDb2dVertex
 10
-124.3852406692833
 20
-108.2833560259166
 30
0.0
  0
VERTEX
  5
F7
330
E7
100
AcDbEntity
  8
_U+68F0_U+7481_U+60E7
 62
     7
420
 16777215
370
    35
100
AcDbVertex
100
AcDb2dVertex
 10
-124.3852406706302
 20
-138.2833551707061
 30
0.0
  0
VERTEX
  5
F8
330
E7
100
AcDbEntity
  8
_U+68F0_U+7481_U+60E7
 62
     7
420
 16777215
370
    35
100
AcDbVertex
100
AcDb2dVertex
 10
-127.3857896472025
 20
-138.283355170572
 30
0.0
  0
VERTEX
  5
F9
330
E7
100
AcDbEntity
  8
_U+68F0_U+7481_U+60E7
 62
     7
420
 16777215
370
    35
100
AcDbVertex
100
AcDb2dVertex
 10
-127.3857896474267
 20
-143.283329907549
 30
0.0
  0
VERTEX
  5
FA
330
E7
100
AcDbEntity
  8
_U+68F0_U+7481_U+60E7
 62
     7
420
 16777215
370
    35
100
AcDbVertex
100
AcDb2dVertex
 10
-363.069142758266
 20
-143.2833298969674
 30
0.0
  0
VERTEX
  5
FB
330
E7
100
AcDbEntity
  8
_U+68F0_U+7481_U+60E7
 62
     7
420
 16777215
370
    35
100
AcDbVertex
100
AcDb2dVertex
 10
-363.0691427580401
 20
-138.2833551599904
 30
0.0
  0
VERTEX
  5
FC
330
E7
100
AcDbEntity
  8
_U+68F0_U+7481_U+60E7
 62
     7
420
 16777215
370
    35
100
AcDbVertex
100
AcDb2dVertex
 10
-366.0685936104284
 20
-138.2833551598556
 30
0.0
  0
VERTEX
  5
FD
330
E7
100
AcDbEntity
  8
_U+68F0_U+7481_U+60E7
 62
     7
420
 16777215
370
    35
100
AcDbVertex
100
AcDb2dVertex
 10
-366.0685936090804
 20
-108.2833560150661
 30
0.0
  0
VERTEX
  5
FE
330
E7
100
AcDbEntity
  8
_U+68F0_U+7481_U+60E7
 62
     7
420
 16777215
370
    35
100
AcDbVertex
100
AcDb2dVertex
 10
-363.0691427566925
 20
-108.2833560152009
 30
0.0
  0
VERTEX
  5
FF
330
E7
100
AcDbEntity
  8
_U+68F0_U+7481_U+60E7
 62
     7
420
 16777215
370
    35
100
AcDbVertex
100
AcDb2dVertex
 10
-363.0691427527413
 20
-20.28334416925381
 30
0.0
  0
VERTEX
  5
100
330
E7
100
AcDbEntity
  8
_U+68F0_U+7481_U+60E7
 62
     7
420
 16777215
370
    35
100
AcDbVertex
100
AcDb2dVertex
 10
-366.0689596465226
 20
-20.28334416911905
 30
0.0
  0
SEQEND
  5
101
330
E7
100
AcDbEntity
  8
_U+68F0_U+7481_U+60E7
 62
     7
420
 16777215
370
    35
  0
INSERT
  5
103
330
1F
100
AcDbEntity
  8
_U+68F0_U+7481_U+60E7
100
AcDbBlockReference
  2
block 4
 10
0.0
 20
0.0
 30
0.0
  0
POLYLINE
  5
113
330
1F
100
AcDbEntity
  8
_U+68F0_U+7481_U+60E7
 62
     7
420
 16777215
370
    35
100
AcDb2dPolyline
 66
     1
 10
0.0
 20
0.0
 30
0.0
  0
VERTEX
  5
114
330
113
100
AcDbEntity
  8
_U+68F0_U+7481_U+60E7
 62
     7
420
 16777215
370
    35
100
AcDbVertex
100
AcDb2dVertex
 10
55.83118868139076
 20
-41.40180069319665
 30
0.0
  0
VERTEX
  5
115
330
113
100
AcDbEntity
  8
_U+68F0_U+7481_U+60E7
 62
     7
420
 16777215
370
    35
100
AcDbVertex
100
AcDb2dVertex
 10
52.83118868214079
 20
-41.40180069306189
 30
0.0
  0
VERTEX
  5
116
330
113
100
AcDbEntity
  8
_U+68F0_U+7481_U+60E7
 62
     7
420
 16777215
370
    35
100
AcDbVertex
100
AcDb2dVertex
 10
52.8311886834874
 20
-11.40180070056165
 30
0.0
  0
VERTEX
  5
117
330
113
100
AcDbEntity
  8
_U+68F0_U+7481_U+60E7
 62
     7
420
 16777215
370
    35
100
AcDbVertex
100
AcDb2dVertex
 10
55.83118868273768
 20
-11.40180070069641
 30
0.0
  0
VERTEX
  5
118
330
113
100
AcDbEntity
  8
_U+68F0_U+7481_U+60E7
 62
     7
420
 16777215
370
    35
100
AcDbVertex
100
AcDb2dVertex
 10
55.83118868139076
 20
-41.40180069319665
 30
0.0
  0
SEQEND
  5
119
330
113
100
AcDbEntity
  8
_U+68F0_U+7481_U+60E7
 62
     7
420
 16777215
370
    35
  0
SPLINE
  5
11A
330
1F
100
AcDbEntity
  8
_U+68F0_U+7481_U+60E7
 62
    22
420
 15020826
370
    35
100
AcDbSpline
210
0.0
220
0.0
230
1.0
 70
    11
 71
     3
 72
    17
 73
    13
 74
     0
 42
0.0000000001
 43
0.0000000001
 12
1.0
 22
0.0
 32
0.0
 13
1.0
 23
0.0
 33
0.0
 40
0.0
 40
0.0
 40
0.0
 40
0.0
 40
1.0
 40
1.0
 40
1.0
 40
2.0
 40
2.0
 40
2.0
 40
3.0
 40
3.0
 40
3.0
 40
4.0
 40
4.0
 40
4.0
 40
4.0
 10
45.23118868471438
 20
-26.40180069647135
 30
0.0
 10
45.23118868467459
 20
-27.28545629593008
 30
0.0
 10
45.94753308478342
 20
-28.00180069610371
 30
0.0
 10
46.83118868424214
 20
-28.0018006961435
 30
0.0
 10
47.71484428370152
 20
-28.00180069618265
 30
0.0
 10
48.43118868387515
 20
-27.28545629607382
 30
0.0
 10
48.43118868391461
 20
-26.40180069661509
 30
0.0
 10
48.4311886839544
 20
-25.518145097157
 30
0.0
 10
47.71484428384526
 20
-24.80180069698273
 30
0.0
 10
46.83118868438557
 20
-24.80180069694359
 30
0.0
 10
45.94753308492748
 20
-24.8018006969038
 30
0.0
 10
45.23118868475353
 20
-25.51814509701326
 30
0.0
 10
45.23118868471438
 20
-26.40180069647135
 30
0.0
  0
HATCH
  5
11B
330
1F
100
AcDbEntity
  8
_U+68F0_U+7481_U+60E7
 62
     7
420
 16776959
100
AcDbHatch
 10
0.0
 20
0.0
 30
0.0
210
0.0
220
0.0
230
1.0
  2
SOLID
 70
     1
 71
     0
 91
        1
 92
        1
 93
        1
 72
     4
 94
        3
 73
     0
 74
     1
 95
       17
 96
       13
 40
0.0
 40
0.0
 40
0.0
 40
0.0
 40
1.0
 40
1.0
 40
1.0
 40
2.0
 40
2.0
 40
2.0
 40
3.0
 40
3.0
 40
3.0
 40
4.0
 40
4.0
 40
4.0
 40
4.0
 10
45.23118868471438
 20
-26.40180069647135
 10
45.23118868467459
 20
-27.28545629593008
 10
45.94753308478342
 20
-28.00180069610371
 10
46.83118868424214
 20
-28.0018006961435
 10
47.71484428370152
 20
-28.00180069618265
 10
48.43118868387515
 20
-27.28545629607382
 10
48.43118868391461
 20
-26.40180069661509
 10
48.4311886839544
 20
-25.518145097157
 10
47.71484428384526
 20
-24.80180069698273
 10
46.83118868438557
 20
-24.80180069694359
 10
45.94753308492748
 20
-24.8018006969038
 10
45.23118868475353
 20
-25.51814509701326
 10
45.23118868471438
 20
-26.40180069647135
 97
        0
 97
        0
 75
     2
 76
     1
 98
        0
  0
INSERT
  5
11D
330
1F
100
AcDbEntity
  8
_U+68F0_U+7481_U+60E7
100
AcDbBlockReference
  2
block 5
 10
0.0
 20
0.0
 30
0.0
  0
ENDSEC
  0
SECTION
  2
OBJECTS
  0
DICTIONARY
  5
C
330
0
100
AcDbDictionary
281
     1
  3
ACAD_GROUP
350
D
  3
ACAD_LAYOUT
350
1A
  3
ACAD_MATERIAL
350
3B
  3
ACAD_MLEADERSTYLE
350
130
  3
ACAD_MLINESTYLE
350
17
  3
ACAD_PLOTSETTINGS
350
19
  3
ACAD_PLOTSTYLENAME
350
E
  3
ACAD_TABLESTYLE
350
12F
  3
ACAD_VISUALSTYLE
350
2A
  0
SUN
  5
3F
330
29
100
AcDbSun
 90
        1
290
     0
 63
     7
421
 16777215
 40
1.0
291
     1
 91
  2455826
 92
 54000000
292
     0
 70
     2
 71
   256
280
     1
  0
DICTIONARY
  5
D
102
{ACAD_REACTORS
330
C
102
}
330
C
100
AcDbDictionary
281
     1
  0
DICTIONARY
  5
1A
102
{ACAD_REACTORS
330
C
102
}
330
C
100
AcDbDictionary
281
     1
  3
Layout1
350
1E
  3
Layout2
350
26
  3
Model
350
22
  0
DICTIONARY
  5
3B
102
{ACAD_REACTORS
330
C
102
}
330
C
100
AcDbDictionary
281
     1
  3
ByBlock
350
3D
  3
ByLayer
350
3C
  3
Global
350
3E
  0
DICTIONARY
  5
130
102
{ACAD_REACTORS
330
C
102
}
330
C
100
AcDbDictionary
281
     1
  0
DICTIONARY
  5
17
102
{ACAD_REACTORS
330
C
102
}
330
C
100
AcDbDictionary
281
     1
  3
Standard
350
18
  0
DICTIONARY
  5
19
102
{ACAD_REACTORS
330
C
102
}
330
C
100
AcDbDictionary
281
     1
  0
ACDBDICTIONARYWDFLT
  5
E
102
{ACAD_REACTORS
330
C
102
}
330
C
100
AcDbDictionary
281
     1
  3
Normal
350
F
100
AcDbDictionaryWithDefault
340
F
  0
DICTIONARY
  5
12F
102
{ACAD_REACTORS
330
C
102
}
330
C
100
AcDbDictionary
281
     1
  0
DICTIONARY
  5
2A
102
{ACAD_REACTORS
330
C
102
}
330
C
100
AcDbDictionary
281
     1
  3
2dWireframe
350
2F
  3
3D Hidden
350
31
  3
3dWireframe
350
30
  3
Basic
350
32
  3
Brighten
350
36
  3
ColorChange
350
3A
  3
Conceptual
350
34
  3
Dim
350
35
  3
Facepattern
350
39
  3
Flat
350
2B
  3
FlatWithEdges
350
2C
  3
Gouraud
350
2D
  3
GouraudWithEdges
350
2E
  3
Linepattern
350
38
  3
Realistic
350
33
  3
Thicken
350
37
  0
LAYOUT
  5
1E
102
{ACAD_REACTORS
330
1A
102
}
330
1A
100
AcDbPlotSettings
  1

  2
none_device
  4

  6

 40
0.0
 41
0.0
 42
0.0
 43
0.0
 44
0.0
 45
0.0
 46
0.0
 47
0.0
 48
0.0
 49
0.0
140
0.0
141
0.0
142
1.0
143
1.0
 70
   688
 72
     0
 73
     0
 74
     5
  7

 75
    16
 76
     0
 77
     2
 78
   300
147
1.0
148
0.0
149
0.0
100
AcDbLayout
  1
Layout1
 70
     1
 71
     1
 10
0.0
 20
0.0
 11
12.0
 21
9.0
 12
0.0
 22
0.0
 32
0.0
 14
1.000000000000000E+20
 24
1.000000000000000E+20
 34
1.000000000000000E+20
 15
-1.000000000000000E+20
 25
-1.000000000000000E+20
 35
-1.000000000000000E+20
146
0.0
 13
0.0
 23
0.0
 33
0.0
 16
1.0
 26
0.0
 36
0.0
 17
0.0
 27
1.0
 37
0.0
 76
     0
330
1B
  0
LAYOUT
  5
26
102
{ACAD_REACTORS
330
1A
102
}
330
1A
100
AcDbPlotSettings
  1

  2
none_device
  4

  6

 40
0.0
 41
0.0
 42
0.0
 43
0.0
 44
0.0
 45
0.0
 46
0.0
 47
0.0
 48
0.0
 49
0.0
140
0.0
141
0.0
142
1.0
143
1.0
 70
   688
 72
     0
 73
     0
 74
     5
  7

 75
    16
 76
     0
 77
     2
 78
   300
147
1.0
148
0.0
149
0.0
100
AcDbLayout
  1
Layout2
 70
     1
 71
     2
 10
0.0
 20
0.0
 11
0.0
 21
0.0
 12
0.0
 22
0.0
 32
0.0
 14
0.0
 24
0.0
 34
0.0
 15
0.0
 25
0.0
 35
0.0
146
0.0
 13
0.0
 23
0.0
 33
0.0
 16
1.0
 26
0.0
 36
0.0
 17
0.0
 27
1.0
 37
0.0
 76
     0
330
23
  0
LAYOUT
  5
22
102
{ACAD_REACTORS
330
1A
102
}
330
1A
100
AcDbPlotSettings
  1

  2
none_device
  4

  6

 40
0.0
 41
0.0
 42
0.0
 43
0.0
 44
0.0
 45
0.0
 46
0.0
 47
0.0
 48
0.0
 49
0.0
140
0.0
141
0.0
142
1.0
143
1.0
 70
  1712
 72
     0
 73
     0
 74
     0
  7

 75
     0
 76
     0
 77
     2
 78
   300
147
1.0
148
0.0
149
0.0
100
AcDbLayout
  1
Model
 70
     1
 71
     0
 10
0.0
 20
0.0
 11
12.0
 21
9.0
 12
0.0
 22
0.0
 32
0.0
 14
1.000000000000000E+20
 24
1.000000000000000E+20
 34
1.000000000000000E+20
 15
-1.000000000000000E+20
 25
-1.000000000000000E+20
 35
-1.000000000000000E+20
146
0.0
 13
0.0
 23
0.0
 33
0.0
 16
1.0
 26
0.0
 36
0.0
 17
0.0
 27
1.0
 37
0.0
 76
     0
330
1F
331
29
  0
MATERIAL
  5
3D
102
{ACAD_REACTORS
330
3B
102
}
330
3B
100
AcDbMaterial
  1
ByBlock
 72
     1
 94
      127
  0
MATERIAL
  5
3C
102
{ACAD_REACTORS
330
3B
102
}
330
3B
100
AcDbMaterial
  1
ByLayer
 72
     1
 94
      127
  0
MATERIAL
  5
3E
102
{ACAD_REACTORS
330
3B
102
}
330
3B
100
AcDbMaterial
  1
Global
 72
     1
 94
      127
  0
MLINESTYLE
  5
18
102
{ACAD_REACTORS
330
17
102
}
330
17
100
AcDbMlineStyle
  2
Standard
 70
     0
  3

 62
   256
 51
90.0
 52
90.0
 71
     2
 49
0.5
 62
   256
  6
BYLAYER
 49
-0.5
 62
   256
  6
BYLAYER
  0
ACDBPLACEHOLDER
  5
F
102
{ACAD_REACTORS
330
E
102
}
330
E
  0
VISUALSTYLE
  5
2F
102
{ACAD_REACTORS
330
2A
102
}
330
2A
100
AcDbVisualStyle
  2
2dWireframe
 70
     4
177
     2
291
     0
 71
     0
176
     1
 72
     2
176
     1
 73
     0
176
     1
 90
        0
176
     1
 40
-0.6
176
     1
 41
-30.0
176
     1
 62
     5
 63
     7
421
 16777215
176
     1
 74
     1
176
     1
 91
        4
176
     1
 64
     7
176
     1
 65
   257
176
     1
 75
     1
176
     1
175
     1
176
     1
 42
1.0
176
     1
 92
        0
176
     1
 66
   257
176
     1
 43
1.0
176
     1
 76
     1
176
     1
 77
     6
176
     1
 78
     2
176
     1
 67
     7
176
     1
 79
     5
176
     1
170
     0
176
     1
171
     0
176
     1
290
     0
176
     1
 93
        1
176
     1
 44
0.0
176
     1
173
     0
176
     1
  0
VISUALSTYLE
  5
31
102
{ACAD_REACTORS
330
2A
102
}
330
2A
100
AcDbVisualStyle
  2
3D Hidden
 70
     6
177
     2
291
     0
 71
     1
176
     1
 72
     2
176
     1
 73
     2
176
     1
 90
        0
176
     1
 40
-0.6
176
     1
 41
-30.0
176
     1
 62
     5
 63
     7
421
 16777215
176
     1
 74
     2
176
     1
 91
        2
176
     1
 64
     7
176
     1
 65
   257
176
     1
 75
     2
176
     1
175
     1
176
     1
 42
40.0
176
     1
 92
        0
176
     1
 66
   257
176
     1
 43
1.0
176
     1
 76
     1
176
     1
 77
     6
176
     1
 78
     2
176
     1
 67
     7
176
     1
 79
     3
176
     1
170
     0
176
     1
171
     0
176
     1
290
     0
176
     1
 93
        1
176
     1
 44
0.0
176
     1
173
     0
176
     1
  0
VISUALSTYLE
  5
30
102
{ACAD_REACTORS
330
2A
102
}
330
2A
100
AcDbVisualStyle
  2
3dWireframe
 70
     5
177
     2
291
     0
 71
     0
176
     1
 72
     2
176
     1
 73
     0
176
     1
 90
        0
176
     1
 40
-0.6
176
     1
 41
-30.0
176
     1
 62
     5
 63
     7
421
 16777215
176
     1
 74
     1
176
     1
 91
        4
176
     1
 64
     7
176
     1
 65
   257
176
     1
 75
     1
176
     1
175
     1
176
     1
 42
1.0
176
     1
 92
        0
176
     1
 66
   257
176
     1
 43
1.0
176
     1
 76
     1
176
     1
 77
     6
176
     1
 78
     2
176
     1
 67
     7
176
     1
 79
     5
176
     1
170
     0
176
     1
171
     0
176
     1
290
     0
176
     1
 93
        1
176
     1
 44
0.0
176
     1
173
     0
176
     1
  0
VISUALSTYLE
  5
32
102
{ACAD_REACTORS
330
2A
102
}
330
2A
100
AcDbVisualStyle
  2
Basic
 70
     7
177
     2
291
     1
 71
     1
176
     1
 72
     0
176
     1
 73
     1
176
     1
 90
        0
176
     1
 40
-0.6
176
     1
 41
-30.0
176
     1
 62
     5
 63
     7
421
 16777215
176
     1
 74
     0
176
     1
 91
        4
176
     1
 64
     7
176
     1
 65
   257
176
     1
 75
     1
176
     1
175
     1
176
     1
 42
1.0
176
     1
 92
        8
176
     1
 66
     7
176
     1
 43
1.0
176
     1
 76
     1
176
     1
 77
     6
176
     1
 78
     2
176
     1
 67
     7
176
     1
 79
     5
176
     1
170
     0
176
     1
171
     0
176
     1
290
     0
176
     1
 93
        1
176
     1
 44
0.0
176
     1
173
     0
176
     1
  0
VISUALSTYLE
  5
36
102
{ACAD_REACTORS
330
2A
102
}
330
2A
100
AcDbVisualStyle
  2
Brighten
 70
    12
177
     2
291
     1
 71
     2
176
     1
 72
     2
176
     1
 73
     0
176
     1
 90
        0
176
     1
 40
-0.6
176
     1
 41
-30.0
176
     1
 62
     5
 63
     7
421
 16777215
176
     1
 74
     1
176
     1
 91
        4
176
     1
 64
     7
176
     1
 65
   257
176
     1
 75
     1
176
     1
175
     1
176
     1
 42
1.0
176
     1
 92
        8
176
     1
 66
     7
176
     1
 43
1.0
176
     1
 76
     1
176
     1
 77
     6
176
     1
 78
     2
176
     1
 67
     7
176
     1
 79
     5
176
     1
170
     0
176
     1
171
     0
176
     1
290
     0
176
     1
 93
        1
176
     1
 44
50.0
176
     1
173
     0
176
     1
  0
VISUALSTYLE
  5
3A
102
{ACAD_REACTORS
330
2A
102
}
330
2A
100
AcDbVisualStyle
  2
ColorChange
 70
    16
177
     2
291
     1
 71
     2
176
     1
 72
     2
176
     1
 73
     3
176
     1
 90
        0
176
     1
 40
-0.6
176
     1
 41
-30.0
176
     1
 62
     5
 63
     8
421
  8421504
176
     1
 74
     1
176
     1
 91
        4
176
     1
 64
     7
176
     1
 65
   257
176
     1
 75
     1
176
     1
175
     1
176
     1
 42
1.0
176
     1
 92
        8
176
     1
 66
     8
424
  8421504
176
     1
 43
1.0
176
     1
 76
     1
176
     1
 77
     6
176
     1
 78
     2
176
     1
 67
     7
176
     1
 79
     5
176
     1
170
     0
176
     1
171
     0
176
     1
290
     0
176
     1
 93
        1
176
     1
 44
0.0
176
     1
173
     0
176
     1
  0
VISUALSTYLE
  5
34
102
{ACAD_REACTORS
330
2A
102
}
330
2A
100
AcDbVisualStyle
  2
Conceptual
 70
     9
177
     2
291
     0
 71
     3
176
     1
 72
     2
176
     1
 73
     0
176
     1
 90
        0
176
     1
 40
-0.6
176
     1
 41
-30.0
176
     1
 62
     5
 63
     7
421
 16777215
176
     1
 74
     2
176
     1
 91
        2
176
     1
 64
     7
176
     1
 65
   257
176
     1
 75
     1
176
     1
175
     1
176
     1
 42
40.0
176
     1
 92
        8
176
     1
 66
     7
176
     1
 43
1.0
176
     1
 76
     1
176
     1
 77
     6
176
     1
 78
     2
176
     1
 67
     7
176
     1
 79
     3
176
     1
170
     0
176
     1
171
     0
176
     1
290
     0
176
     1
 93
        1
176
     1
 44
0.0
176
     1
173
     0
176
     1
  0
VISUALSTYLE
  5
35
102
{ACAD_REACTORS
330
2A
102
}
330
2A
100
AcDbVisualStyle
  2
Dim
 70
    11
177
     2
291
     1
 71
     2
176
     1
 72
     2
176
     1
 73
     0
176
     1
 90
        0
176
     1
 40
-0.6
176
     1
 41
-30.0
176
     1
 62
     5
 63
     7
421
 16777215
176
     1
 74
     1
176
     1
 91
        4
176
     1
 64
     7
176
     1
 65
   257
176
     1
 75
     1
176
     1
175
     1
176
     1
 42
1.0
176
     1
 92
        8
176
     1
 66
     7
176
     1
 43
1.0
176
     1
 76
     1
176
     1
 77
     6
176
     1
 78
     2
176
     1
 67
     7
176
     1
 79
     5
176
     1
170
     0
176
     1
171
     0
176
     1
290
     0
176
     1
 93
        1
176
     1
 44
-50.0
176
     1
173
     0
176
     1
  0
VISUALSTYLE
  5
39
102
{ACAD_REACTORS
330
2A
102
}
330
2A
100
AcDbVisualStyle
  2
Facepattern
 70
    15
177
     2
291
     1
 71
     2
176
     1
 72
     2
176
     1
 73
     0
176
     1
 90
        0
176
     1
 40
-0.6
176
     1
 41
-30.0
176
     1
 62
     5
 63
     7
421
 16777215
176
     1
 74
     1
176
     1
 91
        4
176
     1
 64
     7
176
     1
 65
   257
176
     1
 75
     1
176
     1
175
     1
176
     1
 42
1.0
176
     1
 92
        8
176
     1
 66
     7
176
     1
 43
1.0
176
     1
 76
     1
176
     1
 77
     6
176
     1
 78
     2
176
     1
 67
     7
176
     1
 79
     5
176
     1
170
     0
176
     1
171
     0
176
     1
290
     0
176
     1
 93
        1
176
     1
 44
0.0
176
     1
173
     0
176
     1
  0
VISUALSTYLE
  5
2B
102
{ACAD_REACTORS
330
2A
102
}
330
2A
100
AcDbVisualStyle
  2
Flat
 70
     0
177
     2
291
     1
 71
     2
176
     1
 72
     1
176
     1
 73
     1
176
     1
 90
        2
176
     1
 40
-0.6
176
     1
 41
30.0
176
     1
 62
     5
 63
     7
421
 16777215
176
     1
 74
     0
176
     1
 91
        4
176
     1
 64
     7
176
     1
 65
   257
176
     1
 75
     1
176
     1
175
     1
176
     1
 42
1.0
176
     1
 92
        8
176
     1
 66
     7
176
     1
 43
1.0
176
     1
 76
     1
176
     1
 77
     6
176
     1
 78
     2
176
     1
 67
     7
176
     1
 79
     5
176
     1
170
     0
176
     1
171
     0
176
     1
290
     0
176
     1
 93
       13
176
     1
 44
0.0
176
     1
173
     0
176
     1
  0
VISUALSTYLE
  5
2C
102
{ACAD_REACTORS
330
2A
102
}
330
2A
100
AcDbVisualStyle
  2
FlatWithEdges
 70
     1
177
     2
291
     1
 71
     2
176
     1
 72
     1
176
     1
 73
     1
176
     1
 90
        2
176
     1
 40
-0.6
176
     1
 41
30.0
176
     1
 62
     5
 63
     7
421
 16777215
176
     1
 74
     1
176
     1
 91
        4
176
     1
 64
     7
176
     1
 65
   257
176
     1
 75
     1
176
     1
175
     1
176
     1
 42
1.0
176
     1
 92
        0
176
     1
 66
   257
176
     1
 43
1.0
176
     1
 76
     1
176
     1
 77
     6
176
     1
 78
     2
176
     1
 67
     7
176
     1
 79
     5
176
     1
170
     0
176
     1
171
     0
176
     1
290
     0
176
     1
 93
       13
176
     1
 44
0.0
176
     1
173
     0
176
     1
  0
VISUALSTYLE
  5
2D
102
{ACAD_REACTORS
330
2A
102
}
330
2A
100
AcDbVisualStyle
  2
Gouraud
 70
     2
177
     2
291
     1
 71
     2
176
     1
 72
     2
176
     1
 73
     1
176
     1
 90
        2
176
     1
 40
-0.6
176
     1
 41
30.0
176
     1
 62
     5
 63
     7
421
 16777215
176
     1
 74
     0
176
     1
 91
        4
176
     1
 64
     7
176
     1
 65
   257
176
     1
 75
     1
176
     1
175
     1
176
     1
 42
1.0
176
     1
 92
        0
176
     1
 66
     7
176
     1
 43
1.0
176
     1
 76
     1
176
     1
 77
     6
176
     1
 78
     2
176
     1
 67
     7
176
     1
 79
     5
176
     1
170
     0
176
     1
171
     0
176
     1
290
     0
176
     1
 93
       13
176
     1
 44
0.0
176
     1
173
     0
176
     1
  0
VISUALSTYLE
  5
2E
102
{ACAD_REACTORS
330
2A
102
}
330
2A
100
AcDbVisualStyle
  2
GouraudWithEdges
 70
     3
177
     2
291
     1
 71
     2
176
     1
 72
     2
176
     1
 73
     1
176
     1
 90
        2
176
     1
 40
-0.6
176
     1
 41
30.0
176
     1
 62
     5
 63
     7
421
 16777215
176
     1
 74
     1
176
     1
 91
        4
176
     1
 64
     7
176
     1
 65
   257
176
     1
 75
     1
176
     1
175
     1
176
     1
 42
1.0
176
     1
 92
        0
176
     1
 66
   257
176
     1
 43
1.0
176
     1
 76
     1
176
     1
 77
     6
176
     1
 78
     2
176
     1
 67
     7
176
     1
 79
     5
176
     1
170
     0
176
     1
171
     0
176
     1
290
     0
176
     1
 93
       13
176
     1
 44
0.0
176
     1
173
     0
176
     1
  0
VISUALSTYLE
  5
38
102
{ACAD_REACTORS
330
2A
102
}
330
2A
100
AcDbVisualStyle
  2
Linepattern
 70
    14
177
     2
291
     1
 71
     2
176
     1
 72
     2
176
     1
 73
     0
176
     1
 90
        0
176
     1
 40
-0.6
176
     1
 41
-30.0
176
     1
 62
     5
 63
     7
421
 16777215
176
     1
 74
     1
176
     1
 91
        4
176
     1
 64
     7
176
     1
 65
   257
176
     1
 75
     7
176
     1
175
     7
176
     1
 42
1.0
176
     1
 92
        8
176
     1
 66
     7
176
     1
 43
1.0
176
     1
 76
     1
176
     1
 77
     6
176
     1
 78
     2
176
     1
 67
     7
176
     1
 79
     5
176
     1
170
     0
176
     1
171
     0
176
     1
290
     0
176
     1
 93
        1
176
     1
 44
0.0
176
     1
173
     0
176
     1
  0
VISUALSTYLE
  5
33
102
{ACAD_REACTORS
330
2A
102
}
330
2A
100
AcDbVisualStyle
  2
Realistic
 70
     8
177
     2
291
     0
 71
     2
176
     1
 72
     2
176
     1
 73
     0
176
     1
 90
        0
176
     1
 40
-0.6
176
     1
 41
-30.0
176
     1
 62
     5
 63
     7
421
 16777215
176
     1
 74
     1
176
     1
 91
        0
176
     1
 64
     7
176
     1
 65
   257
176
     1
 75
     1
176
     1
175
     1
176
     1
 42
1.0
176
     1
 92
        8
176
     1
 66
     8
424
  7895160
176
     1
 43
1.0
176
     1
 76
     1
176
     1
 77
     6
176
     1
 78
     2
176
     1
 67
     7
176
     1
 79
     5
176
     1
170
     0
176
     1
171
     0
176
     1
290
     0
176
     1
 93
       13
176
     1
 44
0.0
176
     1
173
     0
176
     1
  0
VISUALSTYLE
  5
37
102
{ACAD_REACTORS
330
2A
102
}
330
2A
100
AcDbVisualStyle
  2
Thicken
 70
    13
177
     2
291
     1
 71
     2
176
     1
 72
     2
176
     1
 73
     0
176
     1
 90
        0
176
     1
 40
-0.6
176
     1
 41
-30.0
176
     1
 62
     5
 63
     7
421
 16777215
176
     1
 74
     1
176
     1
 91
        4
176
     1
 64
     7
176
     1
 65
   257
176
     1
 75
     1
176
     1
175
     1
176
     1
 42
1.0
176
     1
 92
       12
176
     1
 66
     7
176
     1
 43
1.0
176
     1
 76
     1
176
     1
 77
     6
176
     1
 78
     2
176
     1
 67
     7
176
     1
 79
     5
176
     1
170
     0
176
     1
171
     0
176
     1
290
     0
176
     1
 93
        1
176
     1
 44
0.0
176
     1
173
     0
176
     1
  0
ENDSEC
  0
EOF
