M48
;GenerationSoftware,Autodesk,EAGLE,9.5.2*%
;CreationDate,2021-03-21T13:28:02Z*%
FMAT,2
ICI,OFF
METRIC,TZ,000.000
T4C0.350
T3C0.813
T2C1.016
T1C3.175
%
G90
M71
T1
X4030Y5190
X4030Y50190
X44030Y50190
X44030Y5190
T2
X43180Y19685
X43180Y22225
X13970Y5080
X43180Y25400
X43180Y27940
X43180Y30480
X43180Y33020
X43180Y35560
X43180Y38100
X43180Y40640
X40640Y30480
X40640Y40640
X40640Y38100
X40640Y35560
X40640Y33020
X40640Y27940
X11430Y5080
X40640Y25400
T3
X7620Y39370
X10160Y44450
X5080Y44450
X7620Y44450
X17780Y11430
X12700Y11430
X15240Y11430
X10160Y19050
X5080Y19050
X7620Y19050
X25400Y11430
X20320Y11430
X22860Y11430
X25400Y36830
X20320Y36830
X22860Y36830
X17780Y39370
X12700Y39370
X15240Y39370
X35560Y36830
X30480Y36830
X33020Y36830
X25400Y41910
X20320Y41910
X22860Y41910
X25400Y31750
X20320Y31750
X22860Y31750
X25400Y26670
X20320Y26670
X22860Y26670
X35560Y26670
X30480Y26670
X33020Y26670
X25400Y17780
X20320Y17780
X22860Y17780
X17780Y19050
X12700Y19050
X15240Y19050
X2540Y35560
X2540Y45720
X13970Y15240
X3810Y15240
X2540Y22860
X2540Y33020
X30480Y20320
X30480Y10160
X7620Y25400
X17780Y25400
X27940Y10160
X27940Y20320
X5080Y22860
X5080Y33020
X33020Y20320
X33020Y10160
X24130Y45720
X34290Y45720
X26670Y6350
X36830Y6350
X27940Y31750
X27940Y41910
X24130Y48260
X34290Y48260
X30480Y22860
X20320Y22860
X17780Y33020
X7620Y33020
X7620Y35560
X17780Y35560
X17780Y27940
X7620Y27940
X5080Y39370
X10160Y39370
X15240Y44450
X12700Y44450
X17780Y44450
X39370Y11430
X44450Y11430
X39370Y13970
X44450Y13970
X39370Y16510
X44450Y16510
X36830Y46990
X36830Y41910
T4
X29210Y24130
X16510Y22225
X24130Y38100
X19050Y49530
X33020Y43180
X31750Y40640
X31750Y30480
X45720Y15240
X35560Y18415
M30