G04 EAGLE Gerber RS-274X export*
G75*
%MOMM*%
%FSLAX34Y34*%
%LPD*%
%INMechanical*%
%IPPOS*%
%AMOC8*
5,1,8,0,0,1.08239X$1,22.5*%
G01*
%ADD10C,0.304800*%
%ADD11C,0.254000*%


D10*
X40300Y551900D02*
X39092Y551885D01*
X37884Y551842D01*
X36678Y551769D01*
X35474Y551667D01*
X34273Y551535D01*
X33076Y551375D01*
X31882Y551186D01*
X30694Y550969D01*
X29511Y550722D01*
X28334Y550447D01*
X27165Y550144D01*
X26003Y549812D01*
X24849Y549453D01*
X23705Y549066D01*
X22570Y548651D01*
X21445Y548209D01*
X20332Y547740D01*
X19230Y547244D01*
X18140Y546721D01*
X17064Y546173D01*
X16001Y545598D01*
X14952Y544998D01*
X13918Y544373D01*
X12899Y543724D01*
X11897Y543049D01*
X10911Y542351D01*
X9942Y541629D01*
X8991Y540884D01*
X8058Y540116D01*
X7144Y539326D01*
X6249Y538513D01*
X5374Y537680D01*
X4520Y536826D01*
X3687Y535951D01*
X2874Y535056D01*
X2084Y534142D01*
X1316Y533209D01*
X571Y532258D01*
X-151Y531289D01*
X-849Y530303D01*
X-1524Y529301D01*
X-2173Y528282D01*
X-2798Y527248D01*
X-3398Y526199D01*
X-3973Y525136D01*
X-4521Y524060D01*
X-5044Y522970D01*
X-5540Y521868D01*
X-6009Y520755D01*
X-6451Y519630D01*
X-6866Y518495D01*
X-7253Y517351D01*
X-7612Y516197D01*
X-7944Y515035D01*
X-8247Y513866D01*
X-8522Y512689D01*
X-8769Y511506D01*
X-8986Y510318D01*
X-9175Y509124D01*
X-9335Y507927D01*
X-9467Y506726D01*
X-9569Y505522D01*
X-9642Y504316D01*
X-9685Y503108D01*
X-9700Y501900D01*
X-9700Y51900D01*
X-9685Y50692D01*
X-9642Y49484D01*
X-9569Y48278D01*
X-9467Y47074D01*
X-9335Y45873D01*
X-9175Y44676D01*
X-8986Y43482D01*
X-8769Y42294D01*
X-8522Y41111D01*
X-8247Y39934D01*
X-7944Y38765D01*
X-7612Y37603D01*
X-7253Y36449D01*
X-6866Y35305D01*
X-6451Y34170D01*
X-6009Y33045D01*
X-5540Y31932D01*
X-5044Y30830D01*
X-4521Y29740D01*
X-3973Y28664D01*
X-3398Y27601D01*
X-2798Y26552D01*
X-2173Y25518D01*
X-1524Y24499D01*
X-849Y23497D01*
X-151Y22511D01*
X571Y21542D01*
X1316Y20591D01*
X2084Y19658D01*
X2874Y18744D01*
X3687Y17849D01*
X4520Y16974D01*
X5374Y16120D01*
X6249Y15287D01*
X7144Y14474D01*
X8058Y13684D01*
X8991Y12916D01*
X9942Y12171D01*
X10911Y11449D01*
X11897Y10751D01*
X12899Y10076D01*
X13918Y9427D01*
X14952Y8802D01*
X16001Y8202D01*
X17064Y7627D01*
X18140Y7079D01*
X19230Y6556D01*
X20332Y6060D01*
X21445Y5591D01*
X22570Y5149D01*
X23705Y4734D01*
X24849Y4347D01*
X26003Y3988D01*
X27165Y3656D01*
X28334Y3353D01*
X29511Y3078D01*
X30694Y2831D01*
X31882Y2614D01*
X33076Y2425D01*
X34273Y2265D01*
X35474Y2133D01*
X36678Y2031D01*
X37884Y1958D01*
X39092Y1915D01*
X40300Y1900D01*
X440300Y1900D01*
X441508Y1915D01*
X442716Y1958D01*
X443922Y2031D01*
X445126Y2133D01*
X446327Y2265D01*
X447524Y2425D01*
X448718Y2614D01*
X449906Y2831D01*
X451089Y3078D01*
X452266Y3353D01*
X453435Y3656D01*
X454597Y3988D01*
X455751Y4347D01*
X456895Y4734D01*
X458030Y5149D01*
X459155Y5591D01*
X460268Y6060D01*
X461370Y6556D01*
X462460Y7079D01*
X463536Y7627D01*
X464599Y8202D01*
X465648Y8802D01*
X466682Y9427D01*
X467701Y10076D01*
X468703Y10751D01*
X469689Y11449D01*
X470658Y12171D01*
X471609Y12916D01*
X472542Y13684D01*
X473456Y14474D01*
X474351Y15287D01*
X475226Y16120D01*
X476080Y16974D01*
X476913Y17849D01*
X477726Y18744D01*
X478516Y19658D01*
X479284Y20591D01*
X480029Y21542D01*
X480751Y22511D01*
X481449Y23497D01*
X482124Y24499D01*
X482773Y25518D01*
X483398Y26552D01*
X483998Y27601D01*
X484573Y28664D01*
X485121Y29740D01*
X485644Y30830D01*
X486140Y31932D01*
X486609Y33045D01*
X487051Y34170D01*
X487466Y35305D01*
X487853Y36449D01*
X488212Y37603D01*
X488544Y38765D01*
X488847Y39934D01*
X489122Y41111D01*
X489369Y42294D01*
X489586Y43482D01*
X489775Y44676D01*
X489935Y45873D01*
X490067Y47074D01*
X490169Y48278D01*
X490242Y49484D01*
X490285Y50692D01*
X490300Y51900D01*
X490300Y501900D01*
X490285Y503108D01*
X490242Y504316D01*
X490169Y505522D01*
X490067Y506726D01*
X489935Y507927D01*
X489775Y509124D01*
X489586Y510318D01*
X489369Y511506D01*
X489122Y512689D01*
X488847Y513866D01*
X488544Y515035D01*
X488212Y516197D01*
X487853Y517351D01*
X487466Y518495D01*
X487051Y519630D01*
X486609Y520755D01*
X486140Y521868D01*
X485644Y522970D01*
X485121Y524060D01*
X484573Y525136D01*
X483998Y526199D01*
X483398Y527248D01*
X482773Y528282D01*
X482124Y529301D01*
X481449Y530303D01*
X480751Y531289D01*
X480029Y532258D01*
X479284Y533209D01*
X478516Y534142D01*
X477726Y535056D01*
X476913Y535951D01*
X476080Y536826D01*
X475226Y537680D01*
X474351Y538513D01*
X473456Y539326D01*
X472542Y540116D01*
X471609Y540884D01*
X470658Y541629D01*
X469689Y542351D01*
X468703Y543049D01*
X467701Y543724D01*
X466682Y544373D01*
X465648Y544998D01*
X464599Y545598D01*
X463536Y546173D01*
X462460Y546721D01*
X461370Y547244D01*
X460268Y547740D01*
X459155Y548209D01*
X458030Y548651D01*
X456895Y549066D01*
X455751Y549453D01*
X454597Y549812D01*
X453435Y550144D01*
X452266Y550447D01*
X451089Y550722D01*
X449906Y550969D01*
X448718Y551186D01*
X447524Y551375D01*
X446327Y551535D01*
X445126Y551667D01*
X443922Y551769D01*
X442716Y551842D01*
X441508Y551885D01*
X440300Y551900D01*
X40300Y551900D01*
D11*
X-9700Y51900D02*
X-9510Y47542D01*
X-8940Y43218D01*
X-7996Y38959D01*
X-6685Y34799D01*
X-5015Y30769D01*
X-3001Y26900D01*
X-658Y23221D01*
X1998Y19761D01*
X4945Y16545D01*
X8161Y13598D01*
X11621Y10942D01*
X15300Y8599D01*
X19169Y6585D01*
X23199Y4915D01*
X27359Y3604D01*
X31618Y2660D01*
X35942Y2090D01*
X40300Y1900D01*
X440300Y1900D01*
X444658Y2090D01*
X448982Y2660D01*
X453241Y3604D01*
X457401Y4915D01*
X461431Y6585D01*
X465300Y8599D01*
X468979Y10942D01*
X472439Y13598D01*
X475655Y16545D01*
X478602Y19761D01*
X481258Y23221D01*
X483601Y26900D01*
X485615Y30769D01*
X487285Y34799D01*
X488596Y38959D01*
X489540Y43218D01*
X490110Y47542D01*
X490300Y51900D01*
X490300Y501900D01*
X490110Y506258D01*
X489540Y510582D01*
X488596Y514841D01*
X487285Y519001D01*
X485615Y523031D01*
X483601Y526900D01*
X481258Y530579D01*
X478602Y534039D01*
X475655Y537255D01*
X472439Y540202D01*
X468979Y542858D01*
X465300Y545201D01*
X461431Y547215D01*
X457401Y548885D01*
X453241Y550196D01*
X448982Y551140D01*
X444658Y551710D01*
X440300Y551900D01*
X40300Y551900D01*
X35942Y551710D01*
X31618Y551140D01*
X27359Y550196D01*
X23199Y548885D01*
X19169Y547215D01*
X15300Y545201D01*
X11621Y542858D01*
X8161Y540202D01*
X4945Y537255D01*
X1998Y534039D01*
X-658Y530579D01*
X-3001Y526900D01*
X-5015Y523031D01*
X-6685Y519001D01*
X-7996Y514841D01*
X-8940Y510582D01*
X-9510Y506258D01*
X-9700Y501900D01*
X-9700Y51900D01*
M02*
