G04 EAGLE Gerber RS-274X export*
G75*
%MOMM*%
%FSLAX34Y34*%
%LPD*%
%INBottom Copper*%
%IPPOS*%
%AMOC8*
5,1,8,0,0,1.08239X$1,22.5*%
G01*
%ADD10P,1.429621X8X112.500000*%
%ADD11P,1.429621X8X202.500000*%
%ADD12C,1.320800*%
%ADD13P,1.429621X8X292.500000*%
%ADD14P,1.429621X8X22.500000*%
%ADD15C,6.451600*%
%ADD16P,1.649562X8X202.500000*%
%ADD17P,1.649562X8X112.500000*%
%ADD18C,1.524000*%
%ADD19C,0.756400*%

G36*
X440316Y13587D02*
X440316Y13587D01*
X440343Y13586D01*
X444547Y13822D01*
X444579Y13829D01*
X444674Y13840D01*
X452873Y15711D01*
X452874Y15712D01*
X452875Y15712D01*
X453034Y15768D01*
X460610Y19416D01*
X460611Y19417D01*
X460613Y19417D01*
X460755Y19507D01*
X467329Y24750D01*
X467330Y24751D01*
X467331Y24752D01*
X467450Y24871D01*
X472693Y31445D01*
X472694Y31447D01*
X472695Y31448D01*
X472784Y31590D01*
X476432Y39166D01*
X476433Y39168D01*
X476434Y39169D01*
X476489Y39327D01*
X478360Y47526D01*
X478362Y47558D01*
X478378Y47653D01*
X478614Y51857D01*
X478612Y51874D01*
X478615Y51900D01*
X478615Y501900D01*
X478613Y501916D01*
X478614Y501943D01*
X478378Y506147D01*
X478371Y506179D01*
X478360Y506274D01*
X476489Y514473D01*
X476488Y514474D01*
X476488Y514475D01*
X476432Y514634D01*
X472784Y522210D01*
X472783Y522211D01*
X472783Y522213D01*
X472693Y522355D01*
X467450Y528929D01*
X467449Y528930D01*
X467448Y528931D01*
X467329Y529050D01*
X460755Y534293D01*
X460753Y534294D01*
X460752Y534295D01*
X460610Y534384D01*
X453034Y538032D01*
X453032Y538033D01*
X453031Y538034D01*
X452873Y538089D01*
X449631Y538829D01*
X446295Y539590D01*
X444674Y539960D01*
X444642Y539962D01*
X444547Y539978D01*
X440343Y540214D01*
X440326Y540212D01*
X440300Y540215D01*
X40300Y540215D01*
X40284Y540213D01*
X40257Y540214D01*
X36053Y539978D01*
X36021Y539971D01*
X35926Y539960D01*
X27727Y538089D01*
X27726Y538088D01*
X27725Y538088D01*
X27566Y538032D01*
X19990Y534384D01*
X19989Y534383D01*
X19987Y534383D01*
X19845Y534293D01*
X13271Y529050D01*
X13270Y529049D01*
X13269Y529048D01*
X13150Y528929D01*
X7907Y522355D01*
X7906Y522353D01*
X7905Y522352D01*
X7816Y522210D01*
X4168Y514634D01*
X4167Y514632D01*
X4166Y514631D01*
X4111Y514473D01*
X2240Y506274D01*
X2238Y506242D01*
X2222Y506147D01*
X1986Y501943D01*
X1988Y501926D01*
X1985Y501900D01*
X1985Y51900D01*
X1987Y51884D01*
X1986Y51857D01*
X2222Y47653D01*
X2229Y47621D01*
X2240Y47526D01*
X4111Y39327D01*
X4112Y39326D01*
X4112Y39325D01*
X4159Y39191D01*
X4160Y39187D01*
X4161Y39185D01*
X4168Y39166D01*
X7816Y31590D01*
X7817Y31589D01*
X7817Y31587D01*
X7907Y31445D01*
X13150Y24871D01*
X13151Y24870D01*
X13152Y24869D01*
X13271Y24750D01*
X19845Y19507D01*
X19847Y19506D01*
X19848Y19505D01*
X19990Y19416D01*
X27566Y15768D01*
X27568Y15767D01*
X27569Y15766D01*
X27727Y15711D01*
X30293Y15126D01*
X33628Y14364D01*
X35926Y13840D01*
X35958Y13838D01*
X36053Y13822D01*
X40257Y13586D01*
X40274Y13588D01*
X40300Y13585D01*
X440300Y13585D01*
X440316Y13587D01*
G37*
%LPC*%
G36*
X435852Y468117D02*
X435852Y468117D01*
X427260Y470420D01*
X419557Y474867D01*
X413267Y481157D01*
X408820Y488860D01*
X406517Y497452D01*
X406517Y506348D01*
X408820Y514940D01*
X413267Y522643D01*
X419557Y528933D01*
X427260Y533380D01*
X435852Y535683D01*
X444748Y535683D01*
X453340Y533380D01*
X461043Y528933D01*
X467333Y522643D01*
X471780Y514940D01*
X474083Y506348D01*
X474083Y497452D01*
X471780Y488860D01*
X467333Y481157D01*
X461043Y474867D01*
X453340Y470420D01*
X444748Y468117D01*
X435852Y468117D01*
G37*
%LPD*%
%LPC*%
G36*
X35852Y468117D02*
X35852Y468117D01*
X27260Y470420D01*
X19557Y474867D01*
X13267Y481157D01*
X8820Y488860D01*
X6517Y497452D01*
X6517Y506348D01*
X8820Y514940D01*
X13267Y522643D01*
X19557Y528933D01*
X27260Y533380D01*
X35852Y535683D01*
X44748Y535683D01*
X53340Y533380D01*
X61043Y528933D01*
X67333Y522643D01*
X71780Y514940D01*
X74083Y506348D01*
X74083Y497452D01*
X71780Y488860D01*
X67333Y481157D01*
X61043Y474867D01*
X53340Y470420D01*
X44748Y468117D01*
X35852Y468117D01*
G37*
%LPD*%
%LPC*%
G36*
X435852Y18117D02*
X435852Y18117D01*
X427260Y20420D01*
X419557Y24867D01*
X413267Y31157D01*
X408820Y38860D01*
X406517Y47452D01*
X406517Y56348D01*
X408820Y64940D01*
X413267Y72643D01*
X419557Y78933D01*
X427260Y83380D01*
X435852Y85683D01*
X444748Y85683D01*
X453340Y83380D01*
X461043Y78933D01*
X467333Y72643D01*
X471780Y64940D01*
X474083Y56348D01*
X474083Y47452D01*
X471780Y38860D01*
X467333Y31157D01*
X461043Y24867D01*
X453340Y20420D01*
X444748Y18117D01*
X435852Y18117D01*
G37*
%LPD*%
%LPC*%
G36*
X35852Y18117D02*
X35852Y18117D01*
X27260Y20420D01*
X19557Y24867D01*
X13267Y31157D01*
X8820Y38860D01*
X6517Y47452D01*
X6517Y56348D01*
X8820Y64940D01*
X13267Y72643D01*
X19557Y78933D01*
X27260Y83380D01*
X35852Y85683D01*
X44748Y85683D01*
X53340Y83380D01*
X61043Y78933D01*
X67333Y72643D01*
X71780Y64940D01*
X74083Y56348D01*
X74083Y47452D01*
X71780Y38860D01*
X67333Y31157D01*
X61043Y24867D01*
X53340Y20420D01*
X44748Y18117D01*
X35852Y18117D01*
G37*
%LPD*%
%LPC*%
G36*
X201583Y251967D02*
X201583Y251967D01*
X198595Y253205D01*
X196309Y255491D01*
X195071Y258479D01*
X195071Y274921D01*
X196309Y277909D01*
X198595Y280195D01*
X201583Y281433D01*
X204817Y281433D01*
X207805Y280195D01*
X210091Y277909D01*
X211329Y274921D01*
X211329Y258479D01*
X210091Y255491D01*
X207805Y253205D01*
X204817Y251967D01*
X201583Y251967D01*
G37*
%LPD*%
%LPC*%
G36*
X226983Y251967D02*
X226983Y251967D01*
X223995Y253205D01*
X221709Y255491D01*
X220471Y258479D01*
X220471Y274921D01*
X221709Y277909D01*
X223995Y280195D01*
X226983Y281433D01*
X230217Y281433D01*
X233205Y280195D01*
X235491Y277909D01*
X236729Y274921D01*
X236729Y258479D01*
X235491Y255491D01*
X233205Y253205D01*
X230217Y251967D01*
X226983Y251967D01*
G37*
%LPD*%
%LPC*%
G36*
X252383Y251967D02*
X252383Y251967D01*
X249395Y253205D01*
X247109Y255491D01*
X245871Y258479D01*
X245871Y274921D01*
X247109Y277909D01*
X249395Y280195D01*
X252383Y281433D01*
X255617Y281433D01*
X258605Y280195D01*
X260891Y277909D01*
X262129Y274921D01*
X262129Y258479D01*
X260891Y255491D01*
X258605Y253205D01*
X255617Y251967D01*
X252383Y251967D01*
G37*
%LPD*%
%LPC*%
G36*
X303183Y251967D02*
X303183Y251967D01*
X300195Y253205D01*
X297909Y255491D01*
X296671Y258479D01*
X296671Y274921D01*
X297909Y277909D01*
X300195Y280195D01*
X303183Y281433D01*
X306417Y281433D01*
X309405Y280195D01*
X311691Y277909D01*
X312929Y274921D01*
X312929Y258479D01*
X311691Y255491D01*
X309405Y253205D01*
X306417Y251967D01*
X303183Y251967D01*
G37*
%LPD*%
%LPC*%
G36*
X99983Y429767D02*
X99983Y429767D01*
X96995Y431005D01*
X94709Y433291D01*
X93471Y436279D01*
X93471Y452721D01*
X94709Y455709D01*
X96995Y457995D01*
X99983Y459233D01*
X103217Y459233D01*
X106205Y457995D01*
X108491Y455709D01*
X109729Y452721D01*
X109729Y436279D01*
X108491Y433291D01*
X106205Y431005D01*
X103217Y429767D01*
X99983Y429767D01*
G37*
%LPD*%
%LPC*%
G36*
X125383Y429767D02*
X125383Y429767D01*
X122395Y431005D01*
X120109Y433291D01*
X118871Y436279D01*
X118871Y452721D01*
X120109Y455709D01*
X122395Y457995D01*
X125383Y459233D01*
X128617Y459233D01*
X131605Y457995D01*
X133891Y455709D01*
X135129Y452721D01*
X135129Y436279D01*
X133891Y433291D01*
X131605Y431005D01*
X128617Y429767D01*
X125383Y429767D01*
G37*
%LPD*%
%LPC*%
G36*
X49183Y429767D02*
X49183Y429767D01*
X46195Y431005D01*
X43909Y433291D01*
X42671Y436279D01*
X42671Y452721D01*
X43909Y455709D01*
X46195Y457995D01*
X49183Y459233D01*
X52417Y459233D01*
X55405Y457995D01*
X57691Y455709D01*
X58929Y452721D01*
X58929Y436279D01*
X57691Y433291D01*
X55405Y431005D01*
X52417Y429767D01*
X49183Y429767D01*
G37*
%LPD*%
%LPC*%
G36*
X74583Y429767D02*
X74583Y429767D01*
X71595Y431005D01*
X69309Y433291D01*
X68071Y436279D01*
X68071Y452721D01*
X69309Y455709D01*
X71595Y457995D01*
X74583Y459233D01*
X77817Y459233D01*
X80805Y457995D01*
X83091Y455709D01*
X84329Y452721D01*
X84329Y436279D01*
X83091Y433291D01*
X80805Y431005D01*
X77817Y429767D01*
X74583Y429767D01*
G37*
%LPD*%
%LPC*%
G36*
X176183Y429767D02*
X176183Y429767D01*
X173195Y431005D01*
X170909Y433291D01*
X169671Y436279D01*
X169671Y452721D01*
X170909Y455709D01*
X173195Y457995D01*
X176183Y459233D01*
X179417Y459233D01*
X182405Y457995D01*
X184691Y455709D01*
X185929Y452721D01*
X185929Y436279D01*
X184691Y433291D01*
X182405Y431005D01*
X179417Y429767D01*
X176183Y429767D01*
G37*
%LPD*%
%LPC*%
G36*
X150783Y429767D02*
X150783Y429767D01*
X147795Y431005D01*
X145509Y433291D01*
X144271Y436279D01*
X144271Y452721D01*
X145509Y455709D01*
X147795Y457995D01*
X150783Y459233D01*
X154017Y459233D01*
X157005Y457995D01*
X159291Y455709D01*
X160529Y452721D01*
X160529Y436279D01*
X159291Y433291D01*
X157005Y431005D01*
X154017Y429767D01*
X150783Y429767D01*
G37*
%LPD*%
%LPC*%
G36*
X252383Y404367D02*
X252383Y404367D01*
X249395Y405605D01*
X247109Y407891D01*
X245871Y410879D01*
X245871Y427321D01*
X247109Y430309D01*
X249395Y432595D01*
X252383Y433833D01*
X255617Y433833D01*
X258605Y432595D01*
X260891Y430309D01*
X262129Y427321D01*
X262129Y410879D01*
X260891Y407891D01*
X258605Y405605D01*
X255617Y404367D01*
X252383Y404367D01*
G37*
%LPD*%
%LPC*%
G36*
X226983Y404367D02*
X226983Y404367D01*
X223995Y405605D01*
X221709Y407891D01*
X220471Y410879D01*
X220471Y427321D01*
X221709Y430309D01*
X223995Y432595D01*
X226983Y433833D01*
X230217Y433833D01*
X233205Y432595D01*
X235491Y430309D01*
X236729Y427321D01*
X236729Y410879D01*
X235491Y407891D01*
X233205Y405605D01*
X230217Y404367D01*
X226983Y404367D01*
G37*
%LPD*%
%LPC*%
G36*
X201583Y404367D02*
X201583Y404367D01*
X198595Y405605D01*
X196309Y407891D01*
X195071Y410879D01*
X195071Y427321D01*
X196309Y430309D01*
X198595Y432595D01*
X201583Y433833D01*
X204817Y433833D01*
X207805Y432595D01*
X210091Y430309D01*
X211329Y427321D01*
X211329Y410879D01*
X210091Y407891D01*
X207805Y405605D01*
X204817Y404367D01*
X201583Y404367D01*
G37*
%LPD*%
%LPC*%
G36*
X328583Y251967D02*
X328583Y251967D01*
X325595Y253205D01*
X323309Y255491D01*
X322071Y258479D01*
X322071Y274921D01*
X323309Y277909D01*
X325595Y280195D01*
X328583Y281433D01*
X331817Y281433D01*
X334805Y280195D01*
X337091Y277909D01*
X338329Y274921D01*
X338329Y258479D01*
X337091Y255491D01*
X334805Y253205D01*
X331817Y251967D01*
X328583Y251967D01*
G37*
%LPD*%
%LPC*%
G36*
X353983Y251967D02*
X353983Y251967D01*
X350995Y253205D01*
X348709Y255491D01*
X347471Y258479D01*
X347471Y274921D01*
X348709Y277909D01*
X350995Y280195D01*
X353983Y281433D01*
X357217Y281433D01*
X360205Y280195D01*
X362491Y277909D01*
X363729Y274921D01*
X363729Y258479D01*
X362491Y255491D01*
X360205Y253205D01*
X357217Y251967D01*
X353983Y251967D01*
G37*
%LPD*%
%LPC*%
G36*
X201583Y99567D02*
X201583Y99567D01*
X198595Y100805D01*
X196309Y103091D01*
X195071Y106079D01*
X195071Y122521D01*
X196309Y125509D01*
X198595Y127795D01*
X201583Y129033D01*
X204817Y129033D01*
X207805Y127795D01*
X210091Y125509D01*
X211329Y122521D01*
X211329Y106079D01*
X210091Y103091D01*
X207805Y100805D01*
X204817Y99567D01*
X201583Y99567D01*
G37*
%LPD*%
%LPC*%
G36*
X176183Y99567D02*
X176183Y99567D01*
X173195Y100805D01*
X170909Y103091D01*
X169671Y106079D01*
X169671Y122521D01*
X170909Y125509D01*
X173195Y127795D01*
X176183Y129033D01*
X179417Y129033D01*
X182405Y127795D01*
X184691Y125509D01*
X185929Y122521D01*
X185929Y106079D01*
X184691Y103091D01*
X182405Y100805D01*
X179417Y99567D01*
X176183Y99567D01*
G37*
%LPD*%
%LPC*%
G36*
X226983Y99567D02*
X226983Y99567D01*
X223995Y100805D01*
X221709Y103091D01*
X220471Y106079D01*
X220471Y122521D01*
X221709Y125509D01*
X223995Y127795D01*
X226983Y129033D01*
X230217Y129033D01*
X233205Y127795D01*
X235491Y125509D01*
X236729Y122521D01*
X236729Y106079D01*
X235491Y103091D01*
X233205Y100805D01*
X230217Y99567D01*
X226983Y99567D01*
G37*
%LPD*%
%LPC*%
G36*
X252383Y99567D02*
X252383Y99567D01*
X249395Y100805D01*
X247109Y103091D01*
X245871Y106079D01*
X245871Y122521D01*
X247109Y125509D01*
X249395Y127795D01*
X252383Y129033D01*
X255617Y129033D01*
X258605Y127795D01*
X260891Y125509D01*
X262129Y122521D01*
X262129Y106079D01*
X260891Y103091D01*
X258605Y100805D01*
X255617Y99567D01*
X252383Y99567D01*
G37*
%LPD*%
%LPC*%
G36*
X74583Y175767D02*
X74583Y175767D01*
X71595Y177005D01*
X69309Y179291D01*
X68071Y182279D01*
X68071Y198721D01*
X69309Y201709D01*
X71595Y203995D01*
X74583Y205233D01*
X77817Y205233D01*
X80805Y203995D01*
X83091Y201709D01*
X84329Y198721D01*
X84329Y182279D01*
X83091Y179291D01*
X80805Y177005D01*
X77817Y175767D01*
X74583Y175767D01*
G37*
%LPD*%
%LPC*%
G36*
X176183Y378967D02*
X176183Y378967D01*
X173195Y380205D01*
X170909Y382491D01*
X169671Y385479D01*
X169671Y401921D01*
X170909Y404909D01*
X173195Y407195D01*
X176183Y408433D01*
X179417Y408433D01*
X182405Y407195D01*
X184691Y404909D01*
X185929Y401921D01*
X185929Y385479D01*
X184691Y382491D01*
X182405Y380205D01*
X179417Y378967D01*
X176183Y378967D01*
G37*
%LPD*%
%LPC*%
G36*
X150783Y378967D02*
X150783Y378967D01*
X147795Y380205D01*
X145509Y382491D01*
X144271Y385479D01*
X144271Y401921D01*
X145509Y404909D01*
X147795Y407195D01*
X150783Y408433D01*
X154017Y408433D01*
X157005Y407195D01*
X159291Y404909D01*
X160529Y401921D01*
X160529Y385479D01*
X159291Y382491D01*
X157005Y380205D01*
X154017Y378967D01*
X150783Y378967D01*
G37*
%LPD*%
%LPC*%
G36*
X125383Y378967D02*
X125383Y378967D01*
X122395Y380205D01*
X120109Y382491D01*
X118871Y385479D01*
X118871Y401921D01*
X120109Y404909D01*
X122395Y407195D01*
X125383Y408433D01*
X128617Y408433D01*
X131605Y407195D01*
X133891Y404909D01*
X135129Y401921D01*
X135129Y385479D01*
X133891Y382491D01*
X131605Y380205D01*
X128617Y378967D01*
X125383Y378967D01*
G37*
%LPD*%
%LPC*%
G36*
X99983Y378967D02*
X99983Y378967D01*
X96995Y380205D01*
X94709Y382491D01*
X93471Y385479D01*
X93471Y401921D01*
X94709Y404909D01*
X96995Y407195D01*
X99983Y408433D01*
X103217Y408433D01*
X106205Y407195D01*
X108491Y404909D01*
X109729Y401921D01*
X109729Y385479D01*
X108491Y382491D01*
X106205Y380205D01*
X103217Y378967D01*
X99983Y378967D01*
G37*
%LPD*%
%LPC*%
G36*
X74583Y378967D02*
X74583Y378967D01*
X71595Y380205D01*
X69309Y382491D01*
X68071Y385479D01*
X68071Y401921D01*
X69309Y404909D01*
X71595Y407195D01*
X74583Y408433D01*
X77817Y408433D01*
X80805Y407195D01*
X83091Y404909D01*
X84329Y401921D01*
X84329Y385479D01*
X83091Y382491D01*
X80805Y380205D01*
X77817Y378967D01*
X74583Y378967D01*
G37*
%LPD*%
%LPC*%
G36*
X125383Y175767D02*
X125383Y175767D01*
X122395Y177005D01*
X120109Y179291D01*
X118871Y182279D01*
X118871Y198721D01*
X120109Y201709D01*
X122395Y203995D01*
X125383Y205233D01*
X128617Y205233D01*
X131605Y203995D01*
X133891Y201709D01*
X135129Y198721D01*
X135129Y182279D01*
X133891Y179291D01*
X131605Y177005D01*
X128617Y175767D01*
X125383Y175767D01*
G37*
%LPD*%
%LPC*%
G36*
X150783Y175767D02*
X150783Y175767D01*
X147795Y177005D01*
X145509Y179291D01*
X144271Y182279D01*
X144271Y198721D01*
X145509Y201709D01*
X147795Y203995D01*
X150783Y205233D01*
X154017Y205233D01*
X157005Y203995D01*
X159291Y201709D01*
X160529Y198721D01*
X160529Y182279D01*
X159291Y179291D01*
X157005Y177005D01*
X154017Y175767D01*
X150783Y175767D01*
G37*
%LPD*%
%LPC*%
G36*
X176183Y175767D02*
X176183Y175767D01*
X173195Y177005D01*
X170909Y179291D01*
X169671Y182279D01*
X169671Y198721D01*
X170909Y201709D01*
X173195Y203995D01*
X176183Y205233D01*
X179417Y205233D01*
X182405Y203995D01*
X184691Y201709D01*
X185929Y198721D01*
X185929Y182279D01*
X184691Y179291D01*
X182405Y177005D01*
X179417Y175767D01*
X176183Y175767D01*
G37*
%LPD*%
%LPC*%
G36*
X49183Y175767D02*
X49183Y175767D01*
X46195Y177005D01*
X43909Y179291D01*
X42671Y182279D01*
X42671Y198721D01*
X43909Y201709D01*
X46195Y203995D01*
X49183Y205233D01*
X52417Y205233D01*
X55405Y203995D01*
X57691Y201709D01*
X58929Y198721D01*
X58929Y182279D01*
X57691Y179291D01*
X55405Y177005D01*
X52417Y175767D01*
X49183Y175767D01*
G37*
%LPD*%
%LPC*%
G36*
X252383Y163067D02*
X252383Y163067D01*
X249395Y164305D01*
X247109Y166591D01*
X245871Y169579D01*
X245871Y186021D01*
X247109Y189009D01*
X249395Y191295D01*
X252383Y192533D01*
X255617Y192533D01*
X258605Y191295D01*
X260891Y189009D01*
X262129Y186021D01*
X262129Y169579D01*
X260891Y166591D01*
X258605Y164305D01*
X255617Y163067D01*
X252383Y163067D01*
G37*
%LPD*%
%LPC*%
G36*
X226983Y163067D02*
X226983Y163067D01*
X223995Y164305D01*
X221709Y166591D01*
X220471Y169579D01*
X220471Y186021D01*
X221709Y189009D01*
X223995Y191295D01*
X226983Y192533D01*
X230217Y192533D01*
X233205Y191295D01*
X235491Y189009D01*
X236729Y186021D01*
X236729Y169579D01*
X235491Y166591D01*
X233205Y164305D01*
X230217Y163067D01*
X226983Y163067D01*
G37*
%LPD*%
%LPC*%
G36*
X150783Y99567D02*
X150783Y99567D01*
X147795Y100805D01*
X145509Y103091D01*
X144271Y106079D01*
X144271Y122521D01*
X145509Y125509D01*
X147795Y127795D01*
X150783Y129033D01*
X154017Y129033D01*
X157005Y127795D01*
X159291Y125509D01*
X160529Y122521D01*
X160529Y106079D01*
X159291Y103091D01*
X157005Y100805D01*
X154017Y99567D01*
X150783Y99567D01*
G37*
%LPD*%
%LPC*%
G36*
X125383Y99567D02*
X125383Y99567D01*
X122395Y100805D01*
X120109Y103091D01*
X118871Y106079D01*
X118871Y122521D01*
X120109Y125509D01*
X122395Y127795D01*
X125383Y129033D01*
X128617Y129033D01*
X131605Y127795D01*
X133891Y125509D01*
X135129Y122521D01*
X135129Y106079D01*
X133891Y103091D01*
X131605Y100805D01*
X128617Y99567D01*
X125383Y99567D01*
G37*
%LPD*%
%LPC*%
G36*
X252383Y302767D02*
X252383Y302767D01*
X249395Y304005D01*
X247109Y306291D01*
X245871Y309279D01*
X245871Y325721D01*
X247109Y328709D01*
X249395Y330995D01*
X252383Y332233D01*
X255617Y332233D01*
X258605Y330995D01*
X260891Y328709D01*
X262129Y325721D01*
X262129Y309279D01*
X260891Y306291D01*
X258605Y304005D01*
X255617Y302767D01*
X252383Y302767D01*
G37*
%LPD*%
%LPC*%
G36*
X353983Y353567D02*
X353983Y353567D01*
X350995Y354805D01*
X348709Y357091D01*
X347471Y360079D01*
X347471Y376521D01*
X348709Y379509D01*
X350995Y381795D01*
X353983Y383033D01*
X357217Y383033D01*
X360205Y381795D01*
X362491Y379509D01*
X363729Y376521D01*
X363729Y360079D01*
X362491Y357091D01*
X360205Y354805D01*
X357217Y353567D01*
X353983Y353567D01*
G37*
%LPD*%
%LPC*%
G36*
X328583Y353567D02*
X328583Y353567D01*
X325595Y354805D01*
X323309Y357091D01*
X322071Y360079D01*
X322071Y376521D01*
X323309Y379509D01*
X325595Y381795D01*
X328583Y383033D01*
X331817Y383033D01*
X334805Y381795D01*
X337091Y379509D01*
X338329Y376521D01*
X338329Y360079D01*
X337091Y357091D01*
X334805Y354805D01*
X331817Y353567D01*
X328583Y353567D01*
G37*
%LPD*%
%LPC*%
G36*
X303183Y353567D02*
X303183Y353567D01*
X300195Y354805D01*
X297909Y357091D01*
X296671Y360079D01*
X296671Y376521D01*
X297909Y379509D01*
X300195Y381795D01*
X303183Y383033D01*
X306417Y383033D01*
X309405Y381795D01*
X311691Y379509D01*
X312929Y376521D01*
X312929Y360079D01*
X311691Y357091D01*
X309405Y354805D01*
X306417Y353567D01*
X303183Y353567D01*
G37*
%LPD*%
%LPC*%
G36*
X252383Y353567D02*
X252383Y353567D01*
X249395Y354805D01*
X247109Y357091D01*
X245871Y360079D01*
X245871Y376521D01*
X247109Y379509D01*
X249395Y381795D01*
X252383Y383033D01*
X255617Y383033D01*
X258605Y381795D01*
X260891Y379509D01*
X262129Y376521D01*
X262129Y360079D01*
X260891Y357091D01*
X258605Y354805D01*
X255617Y353567D01*
X252383Y353567D01*
G37*
%LPD*%
%LPC*%
G36*
X226983Y353567D02*
X226983Y353567D01*
X223995Y354805D01*
X221709Y357091D01*
X220471Y360079D01*
X220471Y376521D01*
X221709Y379509D01*
X223995Y381795D01*
X226983Y383033D01*
X230217Y383033D01*
X233205Y381795D01*
X235491Y379509D01*
X236729Y376521D01*
X236729Y360079D01*
X235491Y357091D01*
X233205Y354805D01*
X230217Y353567D01*
X226983Y353567D01*
G37*
%LPD*%
%LPC*%
G36*
X201583Y353567D02*
X201583Y353567D01*
X198595Y354805D01*
X196309Y357091D01*
X195071Y360079D01*
X195071Y376521D01*
X196309Y379509D01*
X198595Y381795D01*
X201583Y383033D01*
X204817Y383033D01*
X207805Y381795D01*
X210091Y379509D01*
X211329Y376521D01*
X211329Y360079D01*
X210091Y357091D01*
X207805Y354805D01*
X204817Y353567D01*
X201583Y353567D01*
G37*
%LPD*%
%LPC*%
G36*
X201583Y163067D02*
X201583Y163067D01*
X198595Y164305D01*
X196309Y166591D01*
X195071Y169579D01*
X195071Y186021D01*
X196309Y189009D01*
X198595Y191295D01*
X201583Y192533D01*
X204817Y192533D01*
X207805Y191295D01*
X210091Y189009D01*
X211329Y186021D01*
X211329Y169579D01*
X210091Y166591D01*
X207805Y164305D01*
X204817Y163067D01*
X201583Y163067D01*
G37*
%LPD*%
%LPC*%
G36*
X201583Y302767D02*
X201583Y302767D01*
X198595Y304005D01*
X196309Y306291D01*
X195071Y309279D01*
X195071Y325721D01*
X196309Y328709D01*
X198595Y330995D01*
X201583Y332233D01*
X204817Y332233D01*
X207805Y330995D01*
X210091Y328709D01*
X211329Y325721D01*
X211329Y309279D01*
X210091Y306291D01*
X207805Y304005D01*
X204817Y302767D01*
X201583Y302767D01*
G37*
%LPD*%
%LPC*%
G36*
X226983Y302767D02*
X226983Y302767D01*
X223995Y304005D01*
X221709Y306291D01*
X220471Y309279D01*
X220471Y325721D01*
X221709Y328709D01*
X223995Y330995D01*
X226983Y332233D01*
X230217Y332233D01*
X233205Y330995D01*
X235491Y328709D01*
X236729Y325721D01*
X236729Y309279D01*
X235491Y306291D01*
X233205Y304005D01*
X230217Y302767D01*
X226983Y302767D01*
G37*
%LPD*%
%LPC*%
G36*
X429981Y371855D02*
X429981Y371855D01*
X426620Y373247D01*
X424047Y375820D01*
X422655Y379181D01*
X422655Y382819D01*
X424047Y386180D01*
X426620Y388753D01*
X429981Y390145D01*
X433619Y390145D01*
X436980Y388753D01*
X439553Y386180D01*
X440945Y382819D01*
X440945Y379181D01*
X439553Y375820D01*
X436980Y373247D01*
X433619Y371855D01*
X429981Y371855D01*
G37*
%LPD*%
%LPC*%
G36*
X429981Y321055D02*
X429981Y321055D01*
X426620Y322447D01*
X424047Y325020D01*
X422655Y328381D01*
X422655Y332019D01*
X424047Y335380D01*
X426620Y337953D01*
X429981Y339345D01*
X433619Y339345D01*
X436980Y337953D01*
X439553Y335380D01*
X440945Y332019D01*
X440945Y328381D01*
X439553Y325020D01*
X436980Y322447D01*
X433619Y321055D01*
X429981Y321055D01*
G37*
%LPD*%
%LPC*%
G36*
X429981Y346455D02*
X429981Y346455D01*
X426620Y347847D01*
X424047Y350420D01*
X422655Y353781D01*
X422655Y357419D01*
X424047Y360780D01*
X426620Y363353D01*
X429981Y364745D01*
X433619Y364745D01*
X436980Y363353D01*
X439553Y360780D01*
X440945Y357419D01*
X440945Y353781D01*
X439553Y350420D01*
X436980Y347847D01*
X433619Y346455D01*
X429981Y346455D01*
G37*
%LPD*%
%LPC*%
G36*
X429981Y244855D02*
X429981Y244855D01*
X426620Y246247D01*
X424047Y248820D01*
X422655Y252181D01*
X422655Y255819D01*
X424047Y259180D01*
X426620Y261753D01*
X429981Y263145D01*
X433619Y263145D01*
X436980Y261753D01*
X439553Y259180D01*
X440945Y255819D01*
X440945Y252181D01*
X439553Y248820D01*
X436980Y246247D01*
X433619Y244855D01*
X429981Y244855D01*
G37*
%LPD*%
%LPC*%
G36*
X429981Y213105D02*
X429981Y213105D01*
X426620Y214497D01*
X424047Y217070D01*
X422655Y220431D01*
X422655Y224069D01*
X424047Y227430D01*
X426620Y230003D01*
X429981Y231395D01*
X433619Y231395D01*
X436980Y230003D01*
X439553Y227430D01*
X440945Y224069D01*
X440945Y220431D01*
X439553Y217070D01*
X436980Y214497D01*
X433619Y213105D01*
X429981Y213105D01*
G37*
%LPD*%
%LPC*%
G36*
X429981Y295655D02*
X429981Y295655D01*
X426620Y297047D01*
X424047Y299620D01*
X422655Y302981D01*
X422655Y306619D01*
X424047Y309980D01*
X426620Y312553D01*
X429981Y313945D01*
X433619Y313945D01*
X436980Y312553D01*
X439553Y309980D01*
X440945Y306619D01*
X440945Y302981D01*
X439553Y299620D01*
X436980Y297047D01*
X433619Y295655D01*
X429981Y295655D01*
G37*
%LPD*%
%LPC*%
G36*
X429981Y397255D02*
X429981Y397255D01*
X426620Y398647D01*
X424047Y401220D01*
X422655Y404581D01*
X422655Y408219D01*
X424047Y411580D01*
X426620Y414153D01*
X429981Y415545D01*
X433619Y415545D01*
X436980Y414153D01*
X439553Y411580D01*
X440945Y408219D01*
X440945Y404581D01*
X439553Y401220D01*
X436980Y398647D01*
X433619Y397255D01*
X429981Y397255D01*
G37*
%LPD*%
%LPC*%
G36*
X137881Y41655D02*
X137881Y41655D01*
X134520Y43047D01*
X131947Y45620D01*
X130555Y48981D01*
X130555Y52619D01*
X131947Y55980D01*
X134520Y58553D01*
X137881Y59945D01*
X141519Y59945D01*
X144880Y58553D01*
X147453Y55980D01*
X148845Y52619D01*
X148845Y48981D01*
X147453Y45620D01*
X144880Y43047D01*
X141519Y41655D01*
X137881Y41655D01*
G37*
%LPD*%
%LPC*%
G36*
X429981Y270255D02*
X429981Y270255D01*
X426620Y271647D01*
X424047Y274220D01*
X422655Y277581D01*
X422655Y281219D01*
X424047Y284580D01*
X426620Y287153D01*
X429981Y288545D01*
X433619Y288545D01*
X436980Y287153D01*
X439553Y284580D01*
X440945Y281219D01*
X440945Y277581D01*
X439553Y274220D01*
X436980Y271647D01*
X433619Y270255D01*
X429981Y270255D01*
G37*
%LPD*%
%LPC*%
G36*
X72833Y347471D02*
X72833Y347471D01*
X68071Y352233D01*
X68071Y358967D01*
X72833Y363729D01*
X79567Y363729D01*
X84329Y358967D01*
X84329Y352233D01*
X79567Y347471D01*
X72833Y347471D01*
G37*
%LPD*%
%LPC*%
G36*
X174433Y347471D02*
X174433Y347471D01*
X169671Y352233D01*
X169671Y358967D01*
X174433Y363729D01*
X181167Y363729D01*
X185929Y358967D01*
X185929Y352233D01*
X181167Y347471D01*
X174433Y347471D01*
G37*
%LPD*%
%LPC*%
G36*
X441133Y131571D02*
X441133Y131571D01*
X436371Y136333D01*
X436371Y143067D01*
X441133Y147829D01*
X447867Y147829D01*
X452629Y143067D01*
X452629Y136333D01*
X447867Y131571D01*
X441133Y131571D01*
G37*
%LPD*%
%LPC*%
G36*
X34733Y144271D02*
X34733Y144271D01*
X29971Y149033D01*
X29971Y155767D01*
X34733Y160529D01*
X41467Y160529D01*
X46229Y155767D01*
X46229Y149033D01*
X41467Y144271D01*
X34733Y144271D01*
G37*
%LPD*%
%LPC*%
G36*
X136333Y144271D02*
X136333Y144271D01*
X131571Y149033D01*
X131571Y155767D01*
X136333Y160529D01*
X143067Y160529D01*
X147829Y155767D01*
X147829Y149033D01*
X143067Y144271D01*
X136333Y144271D01*
G37*
%LPD*%
%LPC*%
G36*
X441133Y156971D02*
X441133Y156971D01*
X436371Y161733D01*
X436371Y168467D01*
X441133Y173229D01*
X447867Y173229D01*
X452629Y168467D01*
X452629Y161733D01*
X447867Y156971D01*
X441133Y156971D01*
G37*
%LPD*%
%LPC*%
G36*
X441133Y106171D02*
X441133Y106171D01*
X436371Y110933D01*
X436371Y117667D01*
X441133Y122429D01*
X447867Y122429D01*
X452629Y117667D01*
X452629Y110933D01*
X447867Y106171D01*
X441133Y106171D01*
G37*
%LPD*%
%LPC*%
G36*
X199833Y220471D02*
X199833Y220471D01*
X195071Y225233D01*
X195071Y231967D01*
X199833Y236729D01*
X206567Y236729D01*
X211329Y231967D01*
X211329Y225233D01*
X206567Y220471D01*
X199833Y220471D01*
G37*
%LPD*%
%LPC*%
G36*
X72833Y245871D02*
X72833Y245871D01*
X68071Y250633D01*
X68071Y257367D01*
X72833Y262129D01*
X79567Y262129D01*
X84329Y257367D01*
X84329Y250633D01*
X79567Y245871D01*
X72833Y245871D01*
G37*
%LPD*%
%LPC*%
G36*
X174433Y322071D02*
X174433Y322071D01*
X169671Y326833D01*
X169671Y333567D01*
X174433Y338329D01*
X181167Y338329D01*
X185929Y333567D01*
X185929Y326833D01*
X181167Y322071D01*
X174433Y322071D01*
G37*
%LPD*%
%LPC*%
G36*
X72833Y322071D02*
X72833Y322071D01*
X68071Y326833D01*
X68071Y333567D01*
X72833Y338329D01*
X79567Y338329D01*
X84329Y333567D01*
X84329Y326833D01*
X79567Y322071D01*
X72833Y322071D01*
G37*
%LPD*%
%LPC*%
G36*
X47433Y322071D02*
X47433Y322071D01*
X42671Y326833D01*
X42671Y333567D01*
X47433Y338329D01*
X54167Y338329D01*
X58929Y333567D01*
X58929Y326833D01*
X54167Y322071D01*
X47433Y322071D01*
G37*
%LPD*%
%LPC*%
G36*
X390333Y106171D02*
X390333Y106171D01*
X385571Y110933D01*
X385571Y117667D01*
X390333Y122429D01*
X397067Y122429D01*
X401829Y117667D01*
X401829Y110933D01*
X397067Y106171D01*
X390333Y106171D01*
G37*
%LPD*%
%LPC*%
G36*
X326833Y93471D02*
X326833Y93471D01*
X322071Y98233D01*
X322071Y104967D01*
X326833Y109729D01*
X333567Y109729D01*
X338329Y104967D01*
X338329Y98233D01*
X333567Y93471D01*
X326833Y93471D01*
G37*
%LPD*%
%LPC*%
G36*
X301433Y93471D02*
X301433Y93471D01*
X296671Y98233D01*
X296671Y104967D01*
X301433Y109729D01*
X308167Y109729D01*
X312929Y104967D01*
X312929Y98233D01*
X308167Y93471D01*
X301433Y93471D01*
G37*
%LPD*%
%LPC*%
G36*
X276033Y93471D02*
X276033Y93471D01*
X271271Y98233D01*
X271271Y104967D01*
X276033Y109729D01*
X282767Y109729D01*
X287529Y104967D01*
X287529Y98233D01*
X282767Y93471D01*
X276033Y93471D01*
G37*
%LPD*%
%LPC*%
G36*
X174433Y245871D02*
X174433Y245871D01*
X169671Y250633D01*
X169671Y257367D01*
X174433Y262129D01*
X181167Y262129D01*
X185929Y257367D01*
X185929Y250633D01*
X181167Y245871D01*
X174433Y245871D01*
G37*
%LPD*%
%LPC*%
G36*
X339533Y474471D02*
X339533Y474471D01*
X334771Y479233D01*
X334771Y485967D01*
X339533Y490729D01*
X346267Y490729D01*
X351029Y485967D01*
X351029Y479233D01*
X346267Y474471D01*
X339533Y474471D01*
G37*
%LPD*%
%LPC*%
G36*
X364933Y55371D02*
X364933Y55371D01*
X360171Y60133D01*
X360171Y66867D01*
X364933Y71629D01*
X371667Y71629D01*
X376429Y66867D01*
X376429Y60133D01*
X371667Y55371D01*
X364933Y55371D01*
G37*
%LPD*%
%LPC*%
G36*
X263333Y55371D02*
X263333Y55371D01*
X258571Y60133D01*
X258571Y66867D01*
X263333Y71629D01*
X270067Y71629D01*
X274829Y66867D01*
X274829Y60133D01*
X270067Y55371D01*
X263333Y55371D01*
G37*
%LPD*%
%LPC*%
G36*
X47433Y220471D02*
X47433Y220471D01*
X42671Y225233D01*
X42671Y231967D01*
X47433Y236729D01*
X54167Y236729D01*
X58929Y231967D01*
X58929Y225233D01*
X54167Y220471D01*
X47433Y220471D01*
G37*
%LPD*%
%LPC*%
G36*
X276033Y309371D02*
X276033Y309371D01*
X271271Y314133D01*
X271271Y320867D01*
X276033Y325629D01*
X282767Y325629D01*
X287529Y320867D01*
X287529Y314133D01*
X282767Y309371D01*
X276033Y309371D01*
G37*
%LPD*%
%LPC*%
G36*
X22033Y220471D02*
X22033Y220471D01*
X17271Y225233D01*
X17271Y231967D01*
X22033Y236729D01*
X28767Y236729D01*
X33529Y231967D01*
X33529Y225233D01*
X28767Y220471D01*
X22033Y220471D01*
G37*
%LPD*%
%LPC*%
G36*
X237933Y474471D02*
X237933Y474471D01*
X233171Y479233D01*
X233171Y485967D01*
X237933Y490729D01*
X244667Y490729D01*
X249429Y485967D01*
X249429Y479233D01*
X244667Y474471D01*
X237933Y474471D01*
G37*
%LPD*%
%LPC*%
G36*
X364933Y461771D02*
X364933Y461771D01*
X360171Y466533D01*
X360171Y473267D01*
X364933Y478029D01*
X371667Y478029D01*
X376429Y473267D01*
X376429Y466533D01*
X371667Y461771D01*
X364933Y461771D01*
G37*
%LPD*%
%LPC*%
G36*
X301433Y220471D02*
X301433Y220471D01*
X296671Y225233D01*
X296671Y231967D01*
X301433Y236729D01*
X308167Y236729D01*
X312929Y231967D01*
X312929Y225233D01*
X308167Y220471D01*
X301433Y220471D01*
G37*
%LPD*%
%LPC*%
G36*
X339533Y449071D02*
X339533Y449071D01*
X334771Y453833D01*
X334771Y460567D01*
X339533Y465329D01*
X346267Y465329D01*
X351029Y460567D01*
X351029Y453833D01*
X346267Y449071D01*
X339533Y449071D01*
G37*
%LPD*%
%LPC*%
G36*
X276033Y195071D02*
X276033Y195071D01*
X271271Y199833D01*
X271271Y206567D01*
X276033Y211329D01*
X282767Y211329D01*
X287529Y206567D01*
X287529Y199833D01*
X282767Y195071D01*
X276033Y195071D01*
G37*
%LPD*%
%LPC*%
G36*
X301433Y195071D02*
X301433Y195071D01*
X296671Y199833D01*
X296671Y206567D01*
X301433Y211329D01*
X308167Y211329D01*
X312929Y206567D01*
X312929Y199833D01*
X308167Y195071D01*
X301433Y195071D01*
G37*
%LPD*%
%LPC*%
G36*
X326833Y195071D02*
X326833Y195071D01*
X322071Y199833D01*
X322071Y206567D01*
X326833Y211329D01*
X333567Y211329D01*
X338329Y206567D01*
X338329Y199833D01*
X333567Y195071D01*
X326833Y195071D01*
G37*
%LPD*%
%LPC*%
G36*
X237933Y449071D02*
X237933Y449071D01*
X233171Y453833D01*
X233171Y460567D01*
X237933Y465329D01*
X244667Y465329D01*
X249429Y460567D01*
X249429Y453833D01*
X244667Y449071D01*
X237933Y449071D01*
G37*
%LPD*%
%LPC*%
G36*
X174433Y271271D02*
X174433Y271271D01*
X169671Y276033D01*
X169671Y282767D01*
X174433Y287529D01*
X181167Y287529D01*
X185929Y282767D01*
X185929Y276033D01*
X181167Y271271D01*
X174433Y271271D01*
G37*
%LPD*%
%LPC*%
G36*
X72833Y271271D02*
X72833Y271271D01*
X68071Y276033D01*
X68071Y282767D01*
X72833Y287529D01*
X79567Y287529D01*
X84329Y282767D01*
X84329Y276033D01*
X79567Y271271D01*
X72833Y271271D01*
G37*
%LPD*%
%LPC*%
G36*
X276033Y410971D02*
X276033Y410971D01*
X271271Y415733D01*
X271271Y422467D01*
X276033Y427229D01*
X282767Y427229D01*
X287529Y422467D01*
X287529Y415733D01*
X282767Y410971D01*
X276033Y410971D01*
G37*
%LPD*%
%LPC*%
G36*
X364933Y410971D02*
X364933Y410971D01*
X360171Y415733D01*
X360171Y422467D01*
X364933Y427229D01*
X371667Y427229D01*
X376429Y422467D01*
X376429Y415733D01*
X371667Y410971D01*
X364933Y410971D01*
G37*
%LPD*%
%LPC*%
G36*
X22033Y449071D02*
X22033Y449071D01*
X17271Y453833D01*
X17271Y460567D01*
X22033Y465329D01*
X28767Y465329D01*
X33529Y460567D01*
X33529Y453833D01*
X28767Y449071D01*
X22033Y449071D01*
G37*
%LPD*%
%LPC*%
G36*
X103123Y192023D02*
X103123Y192023D01*
X103123Y206125D01*
X104267Y205897D01*
X105932Y205208D01*
X107430Y204207D01*
X108703Y202934D01*
X109704Y201436D01*
X110393Y199771D01*
X110745Y198005D01*
X110745Y192023D01*
X103123Y192023D01*
G37*
%LPD*%
%LPC*%
G36*
X52323Y395223D02*
X52323Y395223D01*
X52323Y409325D01*
X53467Y409097D01*
X55132Y408408D01*
X56630Y407407D01*
X57903Y406134D01*
X58904Y404636D01*
X59593Y402971D01*
X59945Y401205D01*
X59945Y395223D01*
X52323Y395223D01*
G37*
%LPD*%
%LPC*%
G36*
X52323Y392177D02*
X52323Y392177D01*
X59945Y392177D01*
X59945Y386195D01*
X59593Y384429D01*
X58904Y382764D01*
X57903Y381266D01*
X56630Y379993D01*
X55132Y378992D01*
X53467Y378303D01*
X52323Y378075D01*
X52323Y392177D01*
G37*
%LPD*%
%LPC*%
G36*
X103123Y188977D02*
X103123Y188977D01*
X110745Y188977D01*
X110745Y182995D01*
X110393Y181229D01*
X109704Y179564D01*
X108703Y178066D01*
X107430Y176793D01*
X105932Y175792D01*
X104267Y175103D01*
X103123Y174875D01*
X103123Y188977D01*
G37*
%LPD*%
%LPC*%
G36*
X92455Y192023D02*
X92455Y192023D01*
X92455Y198005D01*
X92807Y199771D01*
X93496Y201436D01*
X94497Y202934D01*
X95770Y204207D01*
X97268Y205208D01*
X98933Y205897D01*
X100077Y206125D01*
X100077Y192023D01*
X92455Y192023D01*
G37*
%LPD*%
%LPC*%
G36*
X41655Y395223D02*
X41655Y395223D01*
X41655Y401205D01*
X42007Y402971D01*
X42696Y404636D01*
X43697Y406134D01*
X44970Y407407D01*
X46468Y408408D01*
X48133Y409097D01*
X49277Y409325D01*
X49277Y395223D01*
X41655Y395223D01*
G37*
%LPD*%
%LPC*%
G36*
X48133Y378303D02*
X48133Y378303D01*
X46468Y378992D01*
X44970Y379993D01*
X43697Y381266D01*
X42696Y382764D01*
X42007Y384429D01*
X41655Y386195D01*
X41655Y392177D01*
X49277Y392177D01*
X49277Y378075D01*
X48133Y378303D01*
G37*
%LPD*%
%LPC*%
G36*
X98933Y175103D02*
X98933Y175103D01*
X97268Y175792D01*
X95770Y176793D01*
X94497Y178066D01*
X93496Y179564D01*
X92807Y181229D01*
X92455Y182995D01*
X92455Y188977D01*
X100077Y188977D01*
X100077Y174875D01*
X98933Y175103D01*
G37*
%LPD*%
%LPC*%
G36*
X115823Y52323D02*
X115823Y52323D01*
X115823Y60961D01*
X118509Y60961D01*
X124461Y55009D01*
X124461Y52323D01*
X115823Y52323D01*
G37*
%LPD*%
%LPC*%
G36*
X407923Y255523D02*
X407923Y255523D01*
X407923Y264161D01*
X410609Y264161D01*
X416561Y258209D01*
X416561Y255523D01*
X407923Y255523D01*
G37*
%LPD*%
%LPC*%
G36*
X396239Y255523D02*
X396239Y255523D01*
X396239Y258209D01*
X402191Y264161D01*
X404877Y264161D01*
X404877Y255523D01*
X396239Y255523D01*
G37*
%LPD*%
%LPC*%
G36*
X115823Y49277D02*
X115823Y49277D01*
X124461Y49277D01*
X124461Y46591D01*
X118509Y40639D01*
X115823Y40639D01*
X115823Y49277D01*
G37*
%LPD*%
%LPC*%
G36*
X104139Y52323D02*
X104139Y52323D01*
X104139Y55009D01*
X110091Y60961D01*
X112777Y60961D01*
X112777Y52323D01*
X104139Y52323D01*
G37*
%LPD*%
%LPC*%
G36*
X407923Y243839D02*
X407923Y243839D01*
X407923Y252477D01*
X416561Y252477D01*
X416561Y249791D01*
X410609Y243839D01*
X407923Y243839D01*
G37*
%LPD*%
%LPC*%
G36*
X402191Y243839D02*
X402191Y243839D01*
X396239Y249791D01*
X396239Y252477D01*
X404877Y252477D01*
X404877Y243839D01*
X402191Y243839D01*
G37*
%LPD*%
%LPC*%
G36*
X110091Y40639D02*
X110091Y40639D01*
X104139Y46591D01*
X104139Y49277D01*
X112777Y49277D01*
X112777Y40639D01*
X110091Y40639D01*
G37*
%LPD*%
%LPC*%
G36*
X407923Y331723D02*
X407923Y331723D01*
X407923Y340246D01*
X408779Y340111D01*
X410300Y339616D01*
X411725Y338890D01*
X413019Y337950D01*
X414150Y336819D01*
X415090Y335525D01*
X415816Y334100D01*
X416311Y332579D01*
X416446Y331723D01*
X407923Y331723D01*
G37*
%LPD*%
%LPC*%
G36*
X407923Y357123D02*
X407923Y357123D01*
X407923Y365646D01*
X408779Y365511D01*
X410300Y365016D01*
X411725Y364290D01*
X413019Y363350D01*
X414150Y362219D01*
X415090Y360925D01*
X415816Y359500D01*
X416311Y357979D01*
X416446Y357123D01*
X407923Y357123D01*
G37*
%LPD*%
%LPC*%
G36*
X407923Y407923D02*
X407923Y407923D01*
X407923Y416446D01*
X408779Y416311D01*
X410300Y415816D01*
X411725Y415090D01*
X413019Y414150D01*
X414150Y413019D01*
X415090Y411725D01*
X415816Y410300D01*
X416311Y408779D01*
X416446Y407923D01*
X407923Y407923D01*
G37*
%LPD*%
%LPC*%
G36*
X407923Y306323D02*
X407923Y306323D01*
X407923Y314846D01*
X408779Y314711D01*
X410300Y314216D01*
X411725Y313490D01*
X413019Y312550D01*
X414150Y311419D01*
X415090Y310125D01*
X415816Y308700D01*
X416311Y307179D01*
X416446Y306323D01*
X407923Y306323D01*
G37*
%LPD*%
%LPC*%
G36*
X407923Y280923D02*
X407923Y280923D01*
X407923Y289446D01*
X408779Y289311D01*
X410300Y288816D01*
X411725Y288090D01*
X413019Y287150D01*
X414150Y286019D01*
X415090Y284725D01*
X415816Y283300D01*
X416311Y281779D01*
X416446Y280923D01*
X407923Y280923D01*
G37*
%LPD*%
%LPC*%
G36*
X407923Y382523D02*
X407923Y382523D01*
X407923Y391046D01*
X408779Y390911D01*
X410300Y390416D01*
X411725Y389690D01*
X413019Y388750D01*
X414150Y387619D01*
X415090Y386325D01*
X415816Y384900D01*
X416311Y383379D01*
X416446Y382523D01*
X407923Y382523D01*
G37*
%LPD*%
%LPC*%
G36*
X433323Y198373D02*
X433323Y198373D01*
X433323Y206896D01*
X434179Y206761D01*
X435700Y206266D01*
X437125Y205540D01*
X438419Y204600D01*
X439550Y203469D01*
X440490Y202175D01*
X441216Y200750D01*
X441711Y199229D01*
X441846Y198373D01*
X433323Y198373D01*
G37*
%LPD*%
%LPC*%
G36*
X421754Y198373D02*
X421754Y198373D01*
X421889Y199229D01*
X422384Y200750D01*
X423110Y202175D01*
X424050Y203469D01*
X425181Y204600D01*
X426475Y205540D01*
X427900Y206266D01*
X429421Y206761D01*
X430277Y206896D01*
X430277Y198373D01*
X421754Y198373D01*
G37*
%LPD*%
%LPC*%
G36*
X407923Y303277D02*
X407923Y303277D01*
X416446Y303277D01*
X416311Y302421D01*
X415816Y300900D01*
X415090Y299475D01*
X414150Y298181D01*
X413019Y297050D01*
X411725Y296110D01*
X410300Y295384D01*
X408779Y294889D01*
X407923Y294754D01*
X407923Y303277D01*
G37*
%LPD*%
%LPC*%
G36*
X396354Y407923D02*
X396354Y407923D01*
X396489Y408779D01*
X396984Y410300D01*
X397710Y411725D01*
X398650Y413019D01*
X399781Y414150D01*
X401075Y415090D01*
X402500Y415816D01*
X404021Y416311D01*
X404877Y416446D01*
X404877Y407923D01*
X396354Y407923D01*
G37*
%LPD*%
%LPC*%
G36*
X396354Y306323D02*
X396354Y306323D01*
X396489Y307179D01*
X396984Y308700D01*
X397710Y310125D01*
X398650Y311419D01*
X399781Y312550D01*
X401075Y313490D01*
X402500Y314216D01*
X404021Y314711D01*
X404877Y314846D01*
X404877Y306323D01*
X396354Y306323D01*
G37*
%LPD*%
%LPC*%
G36*
X396354Y280923D02*
X396354Y280923D01*
X396489Y281779D01*
X396984Y283300D01*
X397710Y284725D01*
X398650Y286019D01*
X399781Y287150D01*
X401075Y288090D01*
X402500Y288816D01*
X404021Y289311D01*
X404877Y289446D01*
X404877Y280923D01*
X396354Y280923D01*
G37*
%LPD*%
%LPC*%
G36*
X407923Y277877D02*
X407923Y277877D01*
X416446Y277877D01*
X416311Y277021D01*
X415816Y275500D01*
X415090Y274075D01*
X414150Y272781D01*
X413019Y271650D01*
X411725Y270710D01*
X410300Y269984D01*
X408779Y269489D01*
X407923Y269354D01*
X407923Y277877D01*
G37*
%LPD*%
%LPC*%
G36*
X396354Y357123D02*
X396354Y357123D01*
X396489Y357979D01*
X396984Y359500D01*
X397710Y360925D01*
X398650Y362219D01*
X399781Y363350D01*
X401075Y364290D01*
X402500Y365016D01*
X404021Y365511D01*
X404877Y365646D01*
X404877Y357123D01*
X396354Y357123D01*
G37*
%LPD*%
%LPC*%
G36*
X396354Y331723D02*
X396354Y331723D01*
X396489Y332579D01*
X396984Y334100D01*
X397710Y335525D01*
X398650Y336819D01*
X399781Y337950D01*
X401075Y338890D01*
X402500Y339616D01*
X404021Y340111D01*
X404877Y340246D01*
X404877Y331723D01*
X396354Y331723D01*
G37*
%LPD*%
%LPC*%
G36*
X407923Y404877D02*
X407923Y404877D01*
X416446Y404877D01*
X416311Y404021D01*
X415816Y402500D01*
X415090Y401075D01*
X414150Y399781D01*
X413019Y398650D01*
X411725Y397710D01*
X410300Y396984D01*
X408779Y396489D01*
X407923Y396354D01*
X407923Y404877D01*
G37*
%LPD*%
%LPC*%
G36*
X433323Y195327D02*
X433323Y195327D01*
X441846Y195327D01*
X441711Y194471D01*
X441216Y192950D01*
X440490Y191525D01*
X439550Y190231D01*
X438419Y189100D01*
X437125Y188160D01*
X435700Y187434D01*
X434179Y186939D01*
X433323Y186804D01*
X433323Y195327D01*
G37*
%LPD*%
%LPC*%
G36*
X407923Y379477D02*
X407923Y379477D01*
X416446Y379477D01*
X416311Y378621D01*
X415816Y377100D01*
X415090Y375675D01*
X414150Y374381D01*
X413019Y373250D01*
X411725Y372310D01*
X410300Y371584D01*
X408779Y371089D01*
X407923Y370954D01*
X407923Y379477D01*
G37*
%LPD*%
%LPC*%
G36*
X407923Y328677D02*
X407923Y328677D01*
X416446Y328677D01*
X416311Y327821D01*
X415816Y326300D01*
X415090Y324875D01*
X414150Y323581D01*
X413019Y322450D01*
X411725Y321510D01*
X410300Y320784D01*
X408779Y320289D01*
X407923Y320154D01*
X407923Y328677D01*
G37*
%LPD*%
%LPC*%
G36*
X407923Y354077D02*
X407923Y354077D01*
X416446Y354077D01*
X416311Y353221D01*
X415816Y351700D01*
X415090Y350275D01*
X414150Y348981D01*
X413019Y347850D01*
X411725Y346910D01*
X410300Y346184D01*
X408779Y345689D01*
X407923Y345554D01*
X407923Y354077D01*
G37*
%LPD*%
%LPC*%
G36*
X396354Y382523D02*
X396354Y382523D01*
X396489Y383379D01*
X396984Y384900D01*
X397710Y386325D01*
X398650Y387619D01*
X399781Y388750D01*
X401075Y389690D01*
X402500Y390416D01*
X404021Y390911D01*
X404877Y391046D01*
X404877Y382523D01*
X396354Y382523D01*
G37*
%LPD*%
%LPC*%
G36*
X404021Y294889D02*
X404021Y294889D01*
X402500Y295384D01*
X401075Y296110D01*
X399781Y297050D01*
X398650Y298181D01*
X397710Y299475D01*
X396984Y300900D01*
X396489Y302421D01*
X396354Y303277D01*
X404877Y303277D01*
X404877Y294754D01*
X404021Y294889D01*
G37*
%LPD*%
%LPC*%
G36*
X404021Y345689D02*
X404021Y345689D01*
X402500Y346184D01*
X401075Y346910D01*
X399781Y347850D01*
X398650Y348981D01*
X397710Y350275D01*
X396984Y351700D01*
X396489Y353221D01*
X396354Y354077D01*
X404877Y354077D01*
X404877Y345554D01*
X404021Y345689D01*
G37*
%LPD*%
%LPC*%
G36*
X404021Y269489D02*
X404021Y269489D01*
X402500Y269984D01*
X401075Y270710D01*
X399781Y271650D01*
X398650Y272781D01*
X397710Y274075D01*
X396984Y275500D01*
X396489Y277021D01*
X396354Y277877D01*
X404877Y277877D01*
X404877Y269354D01*
X404021Y269489D01*
G37*
%LPD*%
%LPC*%
G36*
X404021Y320289D02*
X404021Y320289D01*
X402500Y320784D01*
X401075Y321510D01*
X399781Y322450D01*
X398650Y323581D01*
X397710Y324875D01*
X396984Y326300D01*
X396489Y327821D01*
X396354Y328677D01*
X404877Y328677D01*
X404877Y320154D01*
X404021Y320289D01*
G37*
%LPD*%
%LPC*%
G36*
X404021Y371089D02*
X404021Y371089D01*
X402500Y371584D01*
X401075Y372310D01*
X399781Y373250D01*
X398650Y374381D01*
X397710Y375675D01*
X396984Y377100D01*
X396489Y378621D01*
X396354Y379477D01*
X404877Y379477D01*
X404877Y370954D01*
X404021Y371089D01*
G37*
%LPD*%
%LPC*%
G36*
X404021Y396489D02*
X404021Y396489D01*
X402500Y396984D01*
X401075Y397710D01*
X399781Y398650D01*
X398650Y399781D01*
X397710Y401075D01*
X396984Y402500D01*
X396489Y404021D01*
X396354Y404877D01*
X404877Y404877D01*
X404877Y396354D01*
X404021Y396489D01*
G37*
%LPD*%
%LPC*%
G36*
X429421Y186939D02*
X429421Y186939D01*
X427900Y187434D01*
X426475Y188160D01*
X425181Y189100D01*
X424050Y190231D01*
X423110Y191525D01*
X422384Y192950D01*
X421889Y194471D01*
X421754Y195327D01*
X430277Y195327D01*
X430277Y186804D01*
X429421Y186939D01*
G37*
%LPD*%
%LPC*%
G36*
X26923Y357123D02*
X26923Y357123D01*
X26923Y364745D01*
X29188Y364745D01*
X34545Y359388D01*
X34545Y357123D01*
X26923Y357123D01*
G37*
%LPD*%
%LPC*%
G36*
X395223Y166623D02*
X395223Y166623D01*
X395223Y174245D01*
X397488Y174245D01*
X402845Y168888D01*
X402845Y166623D01*
X395223Y166623D01*
G37*
%LPD*%
%LPC*%
G36*
X26923Y331723D02*
X26923Y331723D01*
X26923Y339345D01*
X29188Y339345D01*
X34545Y333988D01*
X34545Y331723D01*
X26923Y331723D01*
G37*
%LPD*%
%LPC*%
G36*
X395223Y141223D02*
X395223Y141223D01*
X395223Y148845D01*
X397488Y148845D01*
X402845Y143488D01*
X402845Y141223D01*
X395223Y141223D01*
G37*
%LPD*%
%LPC*%
G36*
X384555Y166623D02*
X384555Y166623D01*
X384555Y168888D01*
X389912Y174245D01*
X392177Y174245D01*
X392177Y166623D01*
X384555Y166623D01*
G37*
%LPD*%
%LPC*%
G36*
X384555Y141223D02*
X384555Y141223D01*
X384555Y143488D01*
X389912Y148845D01*
X392177Y148845D01*
X392177Y141223D01*
X384555Y141223D01*
G37*
%LPD*%
%LPC*%
G36*
X26923Y346455D02*
X26923Y346455D01*
X26923Y354077D01*
X34545Y354077D01*
X34545Y351812D01*
X29188Y346455D01*
X26923Y346455D01*
G37*
%LPD*%
%LPC*%
G36*
X26923Y321055D02*
X26923Y321055D01*
X26923Y328677D01*
X34545Y328677D01*
X34545Y326412D01*
X29188Y321055D01*
X26923Y321055D01*
G37*
%LPD*%
%LPC*%
G36*
X395223Y130555D02*
X395223Y130555D01*
X395223Y138177D01*
X402845Y138177D01*
X402845Y135912D01*
X397488Y130555D01*
X395223Y130555D01*
G37*
%LPD*%
%LPC*%
G36*
X16255Y357123D02*
X16255Y357123D01*
X16255Y359388D01*
X21612Y364745D01*
X23877Y364745D01*
X23877Y357123D01*
X16255Y357123D01*
G37*
%LPD*%
%LPC*%
G36*
X16255Y331723D02*
X16255Y331723D01*
X16255Y333988D01*
X21612Y339345D01*
X23877Y339345D01*
X23877Y331723D01*
X16255Y331723D01*
G37*
%LPD*%
%LPC*%
G36*
X395223Y155955D02*
X395223Y155955D01*
X395223Y163577D01*
X402845Y163577D01*
X402845Y161312D01*
X397488Y155955D01*
X395223Y155955D01*
G37*
%LPD*%
%LPC*%
G36*
X21612Y346455D02*
X21612Y346455D01*
X16255Y351812D01*
X16255Y354077D01*
X23877Y354077D01*
X23877Y346455D01*
X21612Y346455D01*
G37*
%LPD*%
%LPC*%
G36*
X21612Y321055D02*
X21612Y321055D01*
X16255Y326412D01*
X16255Y328677D01*
X23877Y328677D01*
X23877Y321055D01*
X21612Y321055D01*
G37*
%LPD*%
%LPC*%
G36*
X389912Y155955D02*
X389912Y155955D01*
X384555Y161312D01*
X384555Y163577D01*
X392177Y163577D01*
X392177Y155955D01*
X389912Y155955D01*
G37*
%LPD*%
%LPC*%
G36*
X389912Y130555D02*
X389912Y130555D01*
X384555Y135912D01*
X384555Y138177D01*
X392177Y138177D01*
X392177Y130555D01*
X389912Y130555D01*
G37*
%LPD*%
%LPC*%
G36*
X25399Y355599D02*
X25399Y355599D01*
X25399Y355601D01*
X25401Y355601D01*
X25401Y355599D01*
X25399Y355599D01*
G37*
%LPD*%
%LPC*%
G36*
X393699Y139699D02*
X393699Y139699D01*
X393699Y139701D01*
X393701Y139701D01*
X393701Y139699D01*
X393699Y139699D01*
G37*
%LPD*%
%LPC*%
G36*
X406399Y355599D02*
X406399Y355599D01*
X406399Y355601D01*
X406401Y355601D01*
X406401Y355599D01*
X406399Y355599D01*
G37*
%LPD*%
%LPC*%
G36*
X393699Y165099D02*
X393699Y165099D01*
X393699Y165101D01*
X393701Y165101D01*
X393701Y165099D01*
X393699Y165099D01*
G37*
%LPD*%
%LPC*%
G36*
X406399Y380999D02*
X406399Y380999D01*
X406399Y381001D01*
X406401Y381001D01*
X406401Y380999D01*
X406399Y380999D01*
G37*
%LPD*%
%LPC*%
G36*
X101599Y190499D02*
X101599Y190499D01*
X101599Y190501D01*
X101601Y190501D01*
X101601Y190499D01*
X101599Y190499D01*
G37*
%LPD*%
%LPC*%
G36*
X406399Y330199D02*
X406399Y330199D01*
X406399Y330201D01*
X406401Y330201D01*
X406401Y330199D01*
X406399Y330199D01*
G37*
%LPD*%
%LPC*%
G36*
X50799Y393699D02*
X50799Y393699D01*
X50799Y393701D01*
X50801Y393701D01*
X50801Y393699D01*
X50799Y393699D01*
G37*
%LPD*%
%LPC*%
G36*
X25399Y330199D02*
X25399Y330199D01*
X25399Y330201D01*
X25401Y330201D01*
X25401Y330199D01*
X25399Y330199D01*
G37*
%LPD*%
%LPC*%
G36*
X431799Y196849D02*
X431799Y196849D01*
X431799Y196851D01*
X431801Y196851D01*
X431801Y196849D01*
X431799Y196849D01*
G37*
%LPD*%
%LPC*%
G36*
X406399Y406399D02*
X406399Y406399D01*
X406399Y406401D01*
X406401Y406401D01*
X406401Y406399D01*
X406399Y406399D01*
G37*
%LPD*%
%LPC*%
G36*
X406399Y304799D02*
X406399Y304799D01*
X406399Y304801D01*
X406401Y304801D01*
X406401Y304799D01*
X406399Y304799D01*
G37*
%LPD*%
%LPC*%
G36*
X114299Y50799D02*
X114299Y50799D01*
X114299Y50801D01*
X114301Y50801D01*
X114301Y50799D01*
X114299Y50799D01*
G37*
%LPD*%
%LPC*%
G36*
X406399Y279399D02*
X406399Y279399D01*
X406399Y279401D01*
X406401Y279401D01*
X406401Y279399D01*
X406399Y279399D01*
G37*
%LPD*%
%LPC*%
G36*
X406399Y253999D02*
X406399Y253999D01*
X406399Y254001D01*
X406401Y254001D01*
X406401Y253999D01*
X406399Y253999D01*
G37*
%LPD*%
D10*
X368300Y419100D03*
X368300Y469900D03*
D11*
X444500Y165100D03*
X393700Y165100D03*
X444500Y139700D03*
X393700Y139700D03*
X444500Y114300D03*
X393700Y114300D03*
D12*
X177800Y437896D02*
X177800Y451104D01*
X127000Y451104D02*
X127000Y437896D01*
X152400Y437896D02*
X152400Y451104D01*
X101600Y400304D02*
X101600Y387096D01*
X50800Y387096D02*
X50800Y400304D01*
X76200Y400304D02*
X76200Y387096D01*
X101600Y437896D02*
X101600Y451104D01*
X50800Y451104D02*
X50800Y437896D01*
X76200Y437896D02*
X76200Y451104D01*
X177800Y120904D02*
X177800Y107696D01*
X127000Y107696D02*
X127000Y120904D01*
X152400Y120904D02*
X152400Y107696D01*
X101600Y183896D02*
X101600Y197104D01*
X50800Y197104D02*
X50800Y183896D01*
X76200Y183896D02*
X76200Y197104D01*
X254000Y120904D02*
X254000Y107696D01*
X203200Y107696D02*
X203200Y120904D01*
X228600Y120904D02*
X228600Y107696D01*
X254000Y361696D02*
X254000Y374904D01*
X203200Y374904D02*
X203200Y361696D01*
X228600Y361696D02*
X228600Y374904D01*
X177800Y387096D02*
X177800Y400304D01*
X127000Y400304D02*
X127000Y387096D01*
X152400Y387096D02*
X152400Y400304D01*
X355600Y374904D02*
X355600Y361696D01*
X304800Y361696D02*
X304800Y374904D01*
X330200Y374904D02*
X330200Y361696D01*
X254000Y412496D02*
X254000Y425704D01*
X203200Y425704D02*
X203200Y412496D01*
X228600Y412496D02*
X228600Y425704D01*
X254000Y324104D02*
X254000Y310896D01*
X203200Y310896D02*
X203200Y324104D01*
X228600Y324104D02*
X228600Y310896D01*
X254000Y273304D02*
X254000Y260096D01*
X203200Y260096D02*
X203200Y273304D01*
X228600Y273304D02*
X228600Y260096D01*
X355600Y260096D02*
X355600Y273304D01*
X304800Y273304D02*
X304800Y260096D01*
X330200Y260096D02*
X330200Y273304D01*
X254000Y184404D02*
X254000Y171196D01*
X203200Y171196D02*
X203200Y184404D01*
X228600Y184404D02*
X228600Y171196D01*
X177800Y183896D02*
X177800Y197104D01*
X127000Y197104D02*
X127000Y183896D01*
X152400Y183896D02*
X152400Y197104D01*
D10*
X25400Y355600D03*
X25400Y457200D03*
D11*
X139700Y152400D03*
X38100Y152400D03*
D10*
X25400Y228600D03*
X25400Y330200D03*
D13*
X304800Y203200D03*
X304800Y101600D03*
D14*
X76200Y254000D03*
X177800Y254000D03*
D10*
X279400Y101600D03*
X279400Y203200D03*
X50800Y228600D03*
X50800Y330200D03*
D13*
X330200Y203200D03*
X330200Y101600D03*
D14*
X241300Y457200D03*
X342900Y457200D03*
X266700Y63500D03*
X368300Y63500D03*
D10*
X279400Y317500D03*
X279400Y419100D03*
D14*
X241300Y482600D03*
X342900Y482600D03*
D11*
X304800Y228600D03*
X203200Y228600D03*
X177800Y330200D03*
X76200Y330200D03*
D14*
X76200Y355600D03*
X177800Y355600D03*
D11*
X177800Y279400D03*
X76200Y279400D03*
D15*
X440300Y51900D03*
X440300Y501900D03*
X40300Y501900D03*
X40300Y51900D03*
D16*
X406400Y254000D03*
D17*
X114300Y50800D03*
D18*
X406400Y279400D03*
X406400Y330200D03*
X406400Y355600D03*
X406400Y381000D03*
X406400Y406400D03*
X406400Y304800D03*
X431800Y406400D03*
X431800Y381000D03*
X431800Y355600D03*
X431800Y330200D03*
X431800Y304800D03*
X431800Y279400D03*
X431800Y254000D03*
X139700Y50800D03*
X431800Y222250D03*
X431800Y196850D03*
D19*
X355600Y184150D03*
X457200Y152400D03*
X317500Y304800D03*
X317500Y406400D03*
X330200Y431800D03*
X190500Y495300D03*
X241300Y381000D03*
X165100Y222250D03*
X292100Y241300D03*
M02*
