<?xml version="1.0" encoding="UTF-8"?><svg xmlns="http://www.w3.org/2000/svg" viewBox="0 0 1080 600.48"><defs><style>.cls-1{stroke-width:3px;}.cls-1,.cls-2,.cls-3,.cls-4,.cls-5,.cls-6,.cls-7,.cls-8,.cls-9{stroke:#1d1e1b;stroke-miterlimit:10;}.cls-1,.cls-3,.cls-4,.cls-5,.cls-6,.cls-7,.cls-8,.cls-9{fill:none;}.cls-10,.cls-2{fill:#1d1e1b;}.cls-2,.cls-4{stroke-width:2px;}.cls-3{stroke-dasharray:0 0 3.91 3.91;}.cls-3,.cls-7,.cls-8{stroke-width:.97px;}.cls-6{stroke-width:1.33px;}.cls-7{stroke-dasharray:0 0 3.86 3.86;}.cls-9{stroke-width:1px;}</style></defs><g id="TEXT_Vector"><path class="cls-10" d="M113.67,205.02h-1.63v-10.84l-3.28,1.2v-1.48l4.66-1.75h.25v12.86Z"/><path class="cls-10" d="M116.71,262.62h-8.38v-1.17l4.43-4.92c.66-.74,1.11-1.35,1.36-1.81s.37-.95,.37-1.45c0-.67-.2-1.22-.61-1.64s-.94-.64-1.62-.64c-.81,0-1.44,.23-1.89,.69s-.67,1.1-.67,1.92h-1.63c0-1.18,.38-2.13,1.14-2.86s1.77-1.09,3.05-1.09c1.19,0,2.13,.31,2.82,.94s1.04,1.45,1.04,2.49c0,1.26-.8,2.76-2.41,4.5l-3.43,3.72h6.42v1.33Z"/><path class="cls-10" d="M110.69,313.03h1.22c.77-.01,1.37-.21,1.81-.61s.66-.92,.66-1.59c0-1.5-.75-2.25-2.24-2.25-.7,0-1.26,.2-1.68,.6s-.63,.93-.63,1.59h-1.63c0-1.01,.37-1.86,1.11-2.53s1.68-1.01,2.83-1.01c1.21,0,2.15,.32,2.84,.96s1.03,1.53,1.03,2.66c0,.56-.18,1.1-.54,1.62s-.85,.91-1.47,1.17c.7,.22,1.25,.59,1.63,1.11s.58,1.14,.58,1.89c0,1.15-.38,2.06-1.12,2.73s-1.73,1.01-2.93,1.01-2.18-.32-2.93-.97-1.13-1.51-1.13-2.58h1.63c0,.67,.22,1.21,.66,1.62s1.03,.61,1.77,.61c.79,0,1.39-.21,1.8-.62s.62-1,.62-1.77-.23-1.31-.69-1.71-1.12-.6-1.98-.62h-1.22v-1.33Z"/><path class="cls-10" d="M115.19,373.52h1.78v1.33h-1.78v2.97h-1.63v-2.97h-5.83v-.96l5.73-8.87h1.73v8.5Zm-5.62,0h3.98v-6.28l-.19,.35-3.79,5.92Z"/><path class="cls-10" d="M315.59,307.41v1.38h-.3c-1.27,.02-2.27,.4-3.02,1.12s-1.18,1.75-1.3,3.07c.67-.77,1.59-1.16,2.76-1.16s2,.39,2.67,1.18,1,1.8,1,3.04c0,1.32-.36,2.37-1.08,3.16s-1.68,1.19-2.89,1.19-2.22-.47-2.98-1.41-1.14-2.15-1.14-3.63v-.62c0-2.36,.5-4.16,1.51-5.4s2.5-1.88,4.49-1.91h.29Zm-2.14,5.77c-.56,0-1.07,.17-1.54,.5s-.79,.75-.98,1.26v.6c0,1.05,.24,1.9,.71,2.55s1.07,.97,1.78,.97,1.31-.27,1.73-.81,.63-1.25,.63-2.12-.21-1.59-.64-2.13-.99-.81-1.69-.81Z"/><path class="cls-10" d="M311.4,371.4l.65-6.38h6.56v1.5h-5.18l-.39,3.49c.63-.37,1.34-.55,2.14-.55,1.17,0,2.09,.38,2.78,1.16s1.03,1.81,1.03,3.12-.36,2.36-1.07,3.12-1.71,1.14-2.98,1.14c-1.13,0-2.05-.31-2.77-.94s-1.12-1.49-1.22-2.6h1.54c.1,.73,.36,1.28,.78,1.66s.98,.56,1.67,.56c.76,0,1.35-.26,1.78-.77s.65-1.23,.65-2.14c0-.86-.23-1.54-.7-2.06s-1.09-.78-1.86-.78c-.71,0-1.27,.16-1.67,.47l-.43,.35-1.3-.33Z"/><g><path class="cls-10" d="M261.01,204.22l3.66-10.56h1.85l-4.75,12.8h-1.49l-4.74-12.8h1.84l3.64,10.56Z"/><path class="cls-10" d="M273.09,210.09c-.09,.79-.38,1.4-.87,1.83s-1.14,.64-1.95,.64c-.88,0-1.59-.32-2.12-.95-.53-.63-.8-1.48-.8-2.54v-.72c0-.69,.12-1.3,.37-1.83,.25-.53,.6-.93,1.05-1.21,.45-.28,.98-.42,1.58-.42,.79,0,1.43,.22,1.91,.66,.48,.44,.76,1.05,.84,1.84h-.99c-.09-.6-.27-1.03-.56-1.29-.29-.27-.68-.4-1.2-.4-.63,0-1.12,.23-1.48,.7-.36,.47-.54,1.13-.54,1.99v.72c0,.81,.17,1.46,.51,1.93s.81,.72,1.42,.72c.55,0,.97-.12,1.26-.37,.29-.25,.49-.68,.58-1.29h.99Z"/><path class="cls-10" d="M279.92,210.09c-.09,.79-.38,1.4-.87,1.83s-1.14,.64-1.95,.64c-.88,0-1.59-.32-2.12-.95-.53-.63-.8-1.48-.8-2.54v-.72c0-.69,.12-1.3,.37-1.83,.25-.53,.6-.93,1.05-1.21,.45-.28,.98-.42,1.58-.42,.79,0,1.43,.22,1.91,.66,.48,.44,.76,1.05,.84,1.84h-.99c-.09-.6-.27-1.03-.56-1.29-.29-.27-.68-.4-1.2-.4-.63,0-1.12,.23-1.48,.7-.36,.47-.54,1.13-.54,1.99v.72c0,.81,.17,1.46,.51,1.93s.81,.72,1.42,.72c.55,0,.97-.12,1.26-.37,.29-.25,.49-.68,.58-1.29h.99Z"/></g><g><path class="cls-10" d="M174.46,441.42l.65-6.38h6.56v1.5h-5.18l-.39,3.49c.63-.37,1.34-.55,2.14-.55,1.17,0,2.09,.38,2.78,1.16s1.03,1.81,1.03,3.12-.36,2.36-1.07,3.12-1.71,1.14-2.98,1.14c-1.13,0-2.05-.31-2.77-.94s-1.12-1.49-1.22-2.6h1.54c.1,.73,.36,1.28,.78,1.66s.98,.56,1.67,.56c.76,0,1.35-.26,1.78-.77s.65-1.23,.65-2.14c0-.86-.23-1.54-.7-2.06s-1.09-.78-1.86-.78c-.71,0-1.27,.16-1.67,.47l-.43,.35-1.3-.33Z"/><path class="cls-10" d="M184.57,441.42l.65-6.38h6.56v1.5h-5.18l-.39,3.49c.63-.37,1.34-.55,2.14-.55,1.17,0,2.09,.38,2.78,1.16s1.03,1.81,1.03,3.12-.36,2.36-1.07,3.12-1.71,1.14-2.98,1.14c-1.13,0-2.05-.31-2.77-.94s-1.12-1.49-1.22-2.6h1.54c.1,.73,.36,1.28,.78,1.66s.98,.56,1.67,.56c.76,0,1.35-.26,1.78-.77s.65-1.23,.65-2.14c0-.86-.23-1.54-.7-2.06s-1.09-.78-1.86-.78c-.71,0-1.27,.16-1.67,.47l-.43,.35-1.3-.33Z"/><path class="cls-10" d="M194.68,441.42l.65-6.38h6.56v1.5h-5.18l-.39,3.49c.63-.37,1.34-.55,2.14-.55,1.17,0,2.09,.38,2.78,1.16s1.03,1.81,1.03,3.12-.36,2.36-1.07,3.12-1.71,1.14-2.98,1.14c-1.13,0-2.05-.31-2.77-.94s-1.12-1.49-1.22-2.6h1.54c.1,.73,.36,1.28,.78,1.66s.98,.56,1.67,.56c.76,0,1.35-.26,1.78-.77s.65-1.23,.65-2.14c0-.86-.23-1.54-.7-2.06s-1.09-.78-1.86-.78c-.71,0-1.27,.16-1.67,.47l-.43,.35-1.3-.33Z"/><path class="cls-10" d="M217.4,436.42h-4.11v11.42h-1.68v-11.42h-4.1v-1.38h9.9v1.38Z"/><path class="cls-10" d="M219.06,435.81c0-.26,.08-.49,.24-.67s.4-.27,.72-.27,.56,.09,.72,.27,.25,.4,.25,.67-.08,.48-.25,.66-.4,.26-.72,.26-.56-.09-.72-.26-.24-.4-.24-.66Zm1.76,12.03h-1.63v-9.51h1.63v9.51Z"/><path class="cls-10" d="M224.95,438.33l.04,1.05c.7-.82,1.64-1.23,2.82-1.23,1.33,0,2.24,.51,2.72,1.53,.32-.46,.73-.83,1.23-1.11s1.11-.42,1.8-.42c2.09,0,3.15,1.1,3.18,3.31v6.37h-1.63v-6.28c0-.68-.16-1.19-.47-1.53s-.83-.5-1.56-.5c-.6,0-1.1,.18-1.5,.54s-.63,.85-.69,1.46v6.31h-1.63v-6.23c0-1.38-.68-2.07-2.03-2.07-1.07,0-1.8,.45-2.19,1.36v6.94h-1.63v-9.51h1.54Z"/><path class="cls-10" d="M243.14,448.02c-1.29,0-2.34-.42-3.15-1.27s-1.21-1.98-1.21-3.4v-.3c0-.94,.18-1.79,.54-2.53s.86-1.32,1.51-1.74,1.35-.63,2.1-.63c1.24,0,2.2,.41,2.88,1.22s1.03,1.98,1.03,3.5v.68h-6.44c.02,.94,.3,1.69,.82,2.27s1.19,.87,2,.87c.57,0,1.06-.12,1.46-.35s.75-.54,1.05-.93l.99,.77c-.8,1.22-1.99,1.84-3.59,1.84Zm-.2-8.53c-.66,0-1.21,.24-1.65,.72s-.72,1.15-.83,2.01h4.76v-.12c-.05-.83-.27-1.47-.67-1.92s-.94-.68-1.62-.68Z"/><path class="cls-10" d="M253.33,439.79c-.25-.04-.51-.06-.8-.06-1.07,0-1.79,.45-2.17,1.36v6.75h-1.63v-9.51h1.58l.03,1.1c.53-.85,1.29-1.27,2.27-1.27,.32,0,.56,.04,.72,.12v1.51Z"/></g><path class="cls-10" d="M316.97,197c0,.64-.17,1.21-.51,1.71s-.79,.89-1.37,1.17c.67,.29,1.2,.71,1.59,1.26s.58,1.17,.58,1.87c0,1.11-.37,1.99-1.12,2.65s-1.73,.98-2.95,.98-2.22-.33-2.96-.99-1.11-1.54-1.11-2.64c0-.69,.19-1.32,.57-1.87s.9-.98,1.57-1.27c-.57-.28-1.02-.67-1.34-1.17s-.49-1.06-.49-1.7c0-1.08,.35-1.93,1.04-2.57s1.6-.95,2.73-.95,2.03,.32,2.73,.95,1.04,1.49,1.04,2.57Zm-1.33,5.97c0-.71-.23-1.3-.68-1.75s-1.05-.68-1.78-.68-1.32,.22-1.76,.67-.66,1.03-.66,1.76,.22,1.3,.65,1.71,1.03,.62,1.8,.62,1.36-.21,1.79-.63,.65-.99,.65-1.71Zm-2.44-8.15c-.64,0-1.16,.2-1.55,.59s-.59,.93-.59,1.61,.19,1.18,.58,1.58,.91,.6,1.56,.6,1.17-.2,1.56-.6,.58-.93,.58-1.58-.2-1.18-.61-1.59-.92-.62-1.54-.62Z"/><path class="cls-10" d="M317.47,250.74l-5.3,11.88h-1.71l5.28-11.46h-6.93v-1.34h8.65v.91Z"/><g><path class="cls-10" d="M152.05,204.78c-.43,.62-1.04,1.08-1.81,1.39-.78,.31-1.68,.46-2.71,.46s-1.97-.24-2.78-.73c-.81-.49-1.43-1.18-1.88-2.09s-.67-1.95-.68-3.14v-1.12c0-1.93,.45-3.42,1.35-4.48s2.16-1.59,3.79-1.59c1.34,0,2.41,.34,3.23,1.02,.81,.68,1.31,1.65,1.49,2.91h-1.69c-.32-1.7-1.32-2.55-3.02-2.55-1.13,0-1.99,.4-2.57,1.19-.58,.79-.88,1.95-.88,3.45v1.05c0,1.44,.33,2.58,.98,3.43,.66,.85,1.54,1.27,2.66,1.27,.63,0,1.19-.07,1.66-.21,.47-.14,.87-.38,1.18-.71v-2.87h-2.96v-1.38h4.64v4.69Z"/><path class="cls-10" d="M164.7,206.46h-1.7l-6.44-9.86v9.86h-1.7v-12.8h1.7l6.46,9.91v-9.91h1.68v12.8Z"/><path class="cls-10" d="M167.7,206.46v-12.8h3.61c1.11,0,2.1,.25,2.95,.74s1.52,1.19,1.98,2.1,.7,1.95,.71,3.13v.82c0,1.21-.23,2.26-.7,3.17s-1.13,1.61-2,2.09-1.87,.74-3.02,.75h-3.54Zm1.69-11.42v10.04h1.78c1.3,0,2.31-.4,3.04-1.21s1.09-1.96,1.09-3.46v-.75c0-1.45-.34-2.58-1.02-3.39-.68-.81-1.65-1.22-2.9-1.23h-1.97Z"/></g><g><path class="cls-10" d="M151.45,252.64h-4.11v11.42h-1.68v-11.42h-4.1v-1.38h9.9v1.38Z"/><path class="cls-10" d="M158.04,258.88h-3.01v5.18h-1.7v-12.8h4.24c1.44,0,2.55,.33,3.33,.98s1.16,1.61,1.16,2.87c0,.8-.22,1.49-.65,2.08s-1.03,1.03-1.8,1.33l3.01,5.43v.11h-1.81l-2.78-5.18Zm-3.01-1.38h2.59c.84,0,1.5-.22,2-.65s.74-1.02,.74-1.74c0-.79-.24-1.4-.71-1.82s-1.15-.64-2.04-.64h-2.58v4.86Z"/><path class="cls-10" d="M166.24,264.06h-1.69v-12.8h1.69v12.8Z"/><path class="cls-10" d="M178.77,262.38c-.43,.62-1.04,1.08-1.81,1.39-.78,.31-1.68,.46-2.71,.46s-1.97-.24-2.78-.73c-.81-.49-1.43-1.18-1.88-2.09s-.67-1.95-.68-3.14v-1.12c0-1.93,.45-3.42,1.35-4.48s2.16-1.59,3.79-1.59c1.34,0,2.41,.34,3.23,1.02,.81,.68,1.31,1.65,1.49,2.91h-1.69c-.32-1.7-1.32-2.55-3.02-2.55-1.13,0-1.99,.4-2.57,1.19-.58,.79-.88,1.95-.88,3.45v1.05c0,1.44,.33,2.58,.98,3.43,.66,.85,1.54,1.27,2.66,1.27,.63,0,1.19-.07,1.66-.21,.47-.14,.87-.38,1.18-.71v-2.87h-2.96v-1.38h4.64v4.69Z"/></g><g><path class="cls-10" d="M152.45,315.67c0,1.25-.21,2.35-.63,3.28-.42,.94-1.02,1.65-1.79,2.14s-1.68,.74-2.71,.74-1.9-.25-2.68-.74-1.38-1.2-1.81-2.12c-.43-.92-.65-1.98-.66-3.19v-.92c0-1.23,.21-2.32,.64-3.26s1.03-1.67,1.81-2.17c.78-.5,1.68-.75,2.69-.75s1.93,.25,2.71,.74c.78,.5,1.38,1.21,1.81,2.15,.42,.94,.63,2.03,.63,3.28v.81Zm-1.68-.83c0-1.52-.3-2.68-.91-3.49s-1.46-1.22-2.56-1.22-1.91,.41-2.52,1.22-.93,1.94-.94,3.38v.94c0,1.47,.31,2.63,.93,3.47s1.47,1.26,2.55,1.26,1.93-.4,2.53-1.19,.91-1.93,.92-3.42v-.95Z"/><path class="cls-10" d="M163.99,308.86v8.7c0,1.21-.39,2.19-1.14,2.96s-1.77,1.2-3.06,1.29l-.45,.02c-1.4,0-2.52-.38-3.35-1.13s-1.25-1.8-1.27-3.12v-8.72h1.67v8.67c0,.93,.25,1.65,.76,2.16s1.24,.77,2.18,.77,1.69-.25,2.19-.76,.76-1.23,.76-2.15v-8.67h1.7Z"/><path class="cls-10" d="M175.49,310.24h-4.11v11.42h-1.68v-11.42h-4.1v-1.38h9.9v1.38Z"/></g><g><path class="cls-10" d="M147.3,374.08h-3.01v5.18h-1.7v-12.8h4.24c1.44,0,2.55,.33,3.33,.98s1.16,1.61,1.16,2.87c0,.8-.22,1.49-.65,2.08s-1.03,1.03-1.8,1.33l3.01,5.43v.11h-1.81l-2.78-5.18Zm-3.01-1.38h2.59c.84,0,1.5-.22,2-.65s.74-1.02,.74-1.74c0-.79-.24-1.4-.71-1.82s-1.15-.64-2.04-.64h-2.58v4.86Z"/><path class="cls-10" d="M160.92,373.35h-5.55v4.54h6.44v1.38h-8.13v-12.8h8.04v1.38h-6.35v4.12h5.55v1.38Z"/><path class="cls-10" d="M167.69,373.56c-1.45-.42-2.5-.93-3.16-1.53-.66-.61-.99-1.35-.99-2.25,0-1.01,.4-1.84,1.21-2.5,.81-.66,1.85-.99,3.14-.99,.88,0,1.66,.17,2.35,.51s1.22,.81,1.6,1.41,.57,1.25,.57,1.96h-1.7c0-.78-.25-1.39-.74-1.83s-1.19-.67-2.08-.67c-.83,0-1.48,.18-1.95,.55-.47,.37-.7,.88-.7,1.53,0,.52,.22,.96,.66,1.33s1.2,.69,2.26,.99c1.06,.3,1.9,.63,2.5,.99,.6,.36,1.05,.78,1.34,1.26s.44,1.05,.44,1.7c0,1.04-.4,1.87-1.21,2.49-.81,.62-1.89,.94-3.24,.94-.88,0-1.7-.17-2.46-.51-.76-.34-1.35-.8-1.76-1.38s-.62-1.25-.62-2h1.7c0,.77,.29,1.38,.86,1.83,.57,.45,1.33,.67,2.29,.67,.89,0,1.57-.18,2.05-.54s.71-.86,.71-1.49-.22-1.11-.66-1.46c-.44-.34-1.24-.68-2.39-1.01Z"/><path class="cls-10" d="M181.83,373.35h-5.55v4.54h6.44v1.38h-8.13v-12.8h8.04v1.38h-6.35v4.12h5.55v1.38Z"/><path class="cls-10" d="M193.85,367.84h-4.11v11.42h-1.68v-11.42h-4.1v-1.38h9.9v1.38Z"/></g><g><path class="cls-10" d="M248.96,375.2c-.16,1.35-.66,2.4-1.5,3.13-.84,.74-1.96,1.1-3.35,1.1-1.51,0-2.72-.54-3.63-1.63s-1.37-2.53-1.37-4.35v-1.23c0-1.19,.21-2.24,.64-3.14s1.03-1.59,1.81-2.08c.78-.48,1.68-.72,2.71-.72,1.36,0,2.45,.38,3.27,1.14s1.3,1.81,1.43,3.15h-1.7c-.15-1.02-.46-1.76-.95-2.22-.49-.46-1.17-.69-2.05-.69-1.08,0-1.92,.4-2.54,1.2s-.92,1.93-.92,3.4v1.24c0,1.39,.29,2.5,.87,3.32s1.39,1.23,2.43,1.23c.94,0,1.66-.21,2.16-.64,.5-.42,.83-1.16,1-2.22h1.7Z"/><path class="cls-10" d="M261.11,373.27c0,1.25-.21,2.35-.63,3.28-.42,.94-1.02,1.65-1.79,2.14s-1.68,.74-2.71,.74-1.9-.25-2.68-.74-1.38-1.2-1.81-2.12c-.43-.92-.65-1.98-.66-3.19v-.92c0-1.23,.21-2.32,.64-3.26s1.03-1.67,1.81-2.17c.78-.5,1.68-.75,2.69-.75s1.93,.25,2.71,.74c.78,.5,1.38,1.21,1.81,2.15,.42,.94,.63,2.03,.63,3.28v.81Zm-1.68-.83c0-1.52-.3-2.68-.91-3.49s-1.46-1.22-2.56-1.22-1.91,.41-2.52,1.22-.93,1.94-.94,3.38v.94c0,1.47,.31,2.63,.93,3.47s1.47,1.26,2.55,1.26,1.93-.4,2.53-1.19,.91-1.93,.92-3.42v-.95Z"/><path class="cls-10" d="M273.47,379.26h-1.7l-6.44-9.86v9.86h-1.7v-12.8h1.7l6.46,9.91v-9.91h1.68v12.8Z"/><path class="cls-10" d="M285.06,367.84h-4.11v11.42h-1.68v-11.42h-4.1v-1.38h9.9v1.38Z"/></g><g><path class="cls-10" d="M239.88,310.24h-4.11v11.42h-1.68v-11.42h-4.1v-1.38h9.9v1.38Z"/><path class="cls-10" d="M251.62,321.66h-1.7v-5.92h-6.45v5.92h-1.69v-12.8h1.69v5.5h6.45v-5.5h1.7v12.8Z"/><path class="cls-10" d="M259.31,316.48h-3.01v5.18h-1.7v-12.8h4.24c1.44,0,2.55,.33,3.33,.98s1.16,1.61,1.16,2.87c0,.8-.22,1.49-.65,2.08s-1.03,1.03-1.8,1.33l3.01,5.43v.11h-1.81l-2.78-5.18Zm-3.01-1.38h2.59c.84,0,1.5-.22,2-.65s.74-1.02,.74-1.74c0-.79-.24-1.4-.71-1.82s-1.15-.64-2.04-.64h-2.58v4.86Z"/><path class="cls-10" d="M272.93,315.74h-5.55v4.54h6.44v1.38h-8.13v-12.8h8.04v1.38h-6.35v4.12h5.55v1.38Z"/><path class="cls-10" d="M279.7,315.96c-1.45-.42-2.5-.93-3.16-1.53-.66-.61-.99-1.35-.99-2.25,0-1.01,.4-1.84,1.21-2.5,.81-.66,1.85-.99,3.14-.99,.88,0,1.66,.17,2.35,.51s1.22,.81,1.6,1.41,.57,1.25,.57,1.96h-1.7c0-.78-.25-1.39-.74-1.83s-1.19-.67-2.08-.67c-.83,0-1.48,.18-1.95,.55-.47,.37-.7,.88-.7,1.53,0,.52,.22,.96,.66,1.33s1.2,.69,2.26,.99c1.06,.3,1.9,.63,2.5,.99,.6,.36,1.05,.78,1.34,1.26s.44,1.05,.44,1.7c0,1.04-.4,1.87-1.21,2.49-.81,.62-1.89,.94-3.24,.94-.88,0-1.7-.17-2.46-.51-.76-.34-1.35-.8-1.76-1.38s-.62-1.25-.62-2h1.7c0,.77,.29,1.38,.86,1.83,.57,.45,1.33,.67,2.29,.67,.89,0,1.57-.18,2.05-.54s.71-.86,.71-1.49-.22-1.11-.66-1.46c-.44-.34-1.24-.68-2.39-1.01Z"/></g><g><path class="cls-10" d="M234.68,264.06v-12.8h3.61c1.11,0,2.1,.25,2.95,.74s1.52,1.19,1.98,2.1,.7,1.95,.71,3.13v.82c0,1.21-.23,2.26-.7,3.17s-1.13,1.61-2,2.09c-.86,.49-1.87,.73-3.02,.75h-3.54Zm1.69-11.42v10.04h1.78c1.3,0,2.31-.4,3.04-1.21s1.09-1.96,1.09-3.46v-.75c0-1.45-.34-2.58-1.02-3.39-.68-.81-1.65-1.22-2.9-1.23h-1.97Z"/><path class="cls-10" d="M248.29,264.06h-1.69v-12.8h1.69v12.8Z"/><path class="cls-10" d="M255.15,258.36c-1.45-.42-2.5-.93-3.16-1.53-.66-.61-.99-1.35-.99-2.25,0-1.01,.4-1.84,1.21-2.5,.81-.66,1.85-.99,3.14-.99,.88,0,1.66,.17,2.35,.51s1.22,.81,1.6,1.41,.57,1.25,.57,1.96h-1.7c0-.78-.25-1.39-.74-1.83s-1.19-.67-2.08-.67c-.83,0-1.48,.18-1.95,.55-.47,.37-.7,.88-.7,1.53,0,.52,.22,.96,.66,1.33s1.2,.69,2.26,.99c1.06,.3,1.9,.63,2.5,.99,.6,.36,1.05,.78,1.34,1.26s.44,1.05,.44,1.7c0,1.04-.4,1.87-1.21,2.49-.81,.62-1.89,.94-3.24,.94-.88,0-1.7-.17-2.46-.51-.76-.34-1.35-.8-1.76-1.38s-.62-1.25-.62-2h1.7c0,.77,.29,1.38,.86,1.83,.57,.45,1.33,.67,2.29,.67,.89,0,1.57-.18,2.05-.54s.71-.86,.71-1.49-.22-1.11-.66-1.46c-.44-.34-1.24-.68-2.39-1.01Z"/><path class="cls-10" d="M271.47,260c-.16,1.35-.66,2.4-1.5,3.13-.84,.74-1.96,1.1-3.35,1.1-1.51,0-2.72-.54-3.63-1.63-.91-1.08-1.37-2.53-1.37-4.35v-1.23c0-1.19,.21-2.24,.64-3.14s1.03-1.59,1.81-2.08c.78-.48,1.68-.72,2.71-.72,1.36,0,2.45,.38,3.27,1.14s1.3,1.81,1.43,3.15h-1.7c-.15-1.02-.46-1.76-.95-2.22-.49-.46-1.17-.69-2.05-.69-1.08,0-1.92,.4-2.54,1.2s-.92,1.93-.92,3.4v1.24c0,1.39,.29,2.5,.87,3.32s1.39,1.23,2.43,1.23c.94,0,1.66-.21,2.16-.64,.5-.42,.83-1.16,1-2.22h1.7Z"/><path class="cls-10" d="M283.61,264.06h-1.7v-5.91h-6.45v5.91h-1.69v-12.8h1.69v5.5h6.45v-5.5h1.7v12.8Z"/></g><g><path class="cls-10" d="M500.1,158.98h-3.01v5.18h-1.7v-12.8h4.24c1.44,0,2.55,.33,3.33,.98s1.17,1.61,1.17,2.87c0,.8-.22,1.49-.65,2.08s-1.03,1.03-1.8,1.33l3.01,5.43v.11h-1.81l-2.78-5.18Zm-3.01-1.38h2.59c.84,0,1.5-.22,2-.65,.5-.43,.74-1.02,.74-1.74,0-.79-.24-1.4-.71-1.82-.47-.42-1.15-.64-2.04-.64h-2.58v4.86Z"/><path class="cls-10" d="M511.41,164.16h-1.63v-10.84l-3.28,1.2v-1.48l4.66-1.75h.25v12.86Z"/><path class="cls-10" d="M495.73,179.34l.65-6.38h6.56v1.5h-5.18l-.39,3.49c.63-.37,1.34-.55,2.14-.55,1.17,0,2.09,.39,2.78,1.16s1.03,1.81,1.03,3.12-.36,2.36-1.07,3.12-1.71,1.14-2.98,1.14c-1.13,0-2.05-.31-2.77-.94s-1.12-1.49-1.22-2.6h1.54c.1,.73,.36,1.28,.78,1.66s.98,.56,1.67,.56c.76,0,1.35-.26,1.78-.77s.65-1.23,.65-2.14c0-.86-.23-1.54-.7-2.06s-1.08-.78-1.86-.78c-.71,0-1.27,.16-1.67,.47l-.43,.35-1.3-.33Z"/><path class="cls-10" d="M507.91,181.36l-1.02,1.06v3.34h-1.63v-13.5h1.63v8.17l.87-1.05,2.96-3.13h1.98l-3.7,3.97,4.13,5.54h-1.91l-3.31-4.4Z"/><path class="cls-10" d="M519.63,184.34c.81-.16,1.44-.65,1.89-1.49,.45-.83,.69-1.94,.7-3.31v-1.18c0-1.35-.28-2.39-.85-3.11s-1.35-1.08-2.34-1.08-1.77,.37-2.33,1.1-.84,1.77-.84,3.11v.99c0,1.41,.23,2.55,.69,3.41,.46,.87,1.12,1.38,1.96,1.55v1.42h-4.32v-1.38h1.94c-.62-.6-1.11-1.35-1.46-2.25s-.53-1.82-.53-2.77v-.98c0-1.09,.21-2.06,.62-2.92s.99-1.52,1.74-1.98,1.59-.7,2.53-.7,1.78,.23,2.52,.69,1.32,1.1,1.74,1.93,.63,1.78,.65,2.83v1.14c0,.94-.18,1.86-.53,2.76s-.84,1.65-1.46,2.25h1.93v1.38h-4.25v-1.42Z"/></g><g><path class="cls-10" d="M1022.27,356.89c0,1.25-.21,2.35-.63,3.28s-1.02,1.65-1.79,2.14-1.68,.74-2.71,.74-1.9-.25-2.68-.74-1.38-1.2-1.82-2.12-.65-1.98-.66-3.19v-.92c0-1.23,.21-2.32,.64-3.26s1.03-1.67,1.81-2.17,1.68-.75,2.69-.75,1.93,.25,2.71,.74,1.38,1.21,1.81,2.15,.63,2.03,.63,3.28v.81Zm-1.68-.83c0-1.52-.3-2.68-.91-3.49s-1.46-1.22-2.56-1.22-1.91,.41-2.52,1.22-.93,1.94-.94,3.38v.94c0,1.47,.31,2.63,.93,3.47s1.47,1.26,2.55,1.26,1.93-.4,2.53-1.19,.91-1.93,.92-3.42v-.95Z"/><path class="cls-10" d="M1033.81,350.08v8.7c0,1.21-.39,2.19-1.14,2.96s-1.77,1.2-3.06,1.29l-.45,.02c-1.4,0-2.52-.38-3.35-1.13s-1.25-1.8-1.27-3.12v-8.72h1.67v8.67c0,.93,.25,1.65,.76,2.16s1.24,.77,2.18,.77,1.69-.25,2.19-.76,.76-1.23,.76-2.15v-8.67h1.7Z"/><path class="cls-10" d="M1045.32,351.46h-4.11v11.42h-1.68v-11.42h-4.1v-1.38h9.9v1.38Z"/></g><g><path class="cls-10" d="M607.32,211.94c-.16,1.35-.66,2.4-1.5,3.13s-1.96,1.1-3.35,1.1c-1.51,0-2.72-.54-3.63-1.63s-1.37-2.53-1.37-4.35v-1.23c0-1.19,.21-2.24,.64-3.14s1.03-1.6,1.81-2.08,1.68-.73,2.71-.73c1.36,0,2.45,.38,3.27,1.14s1.3,1.81,1.43,3.15h-1.7c-.15-1.02-.46-1.76-.95-2.22s-1.17-.69-2.05-.69c-1.08,0-1.92,.4-2.54,1.2-.61,.8-.92,1.93-.92,3.4v1.24c0,1.39,.29,2.5,.87,3.32s1.39,1.23,2.43,1.23c.94,0,1.66-.21,2.16-.64s.83-1.16,1-2.22h1.7Z"/><path class="cls-10" d="M608.94,211.16c0-.93,.18-1.77,.55-2.51s.88-1.32,1.53-1.72,1.4-.61,2.24-.61c1.29,0,2.34,.45,3.14,1.34s1.2,2.09,1.2,3.58v.11c0,.93-.18,1.76-.53,2.49s-.86,1.31-1.52,1.72-1.42,.62-2.27,.62c-1.29,0-2.33-.45-3.13-1.34s-1.2-2.08-1.2-3.56v-.11Zm1.63,.19c0,1.05,.24,1.9,.73,2.54s1.14,.96,1.96,.96,1.48-.32,1.97-.97,.73-1.55,.73-2.72c0-1.04-.25-1.89-.74-2.54s-1.15-.97-1.97-.97-1.45,.32-1.94,.96-.74,1.55-.74,2.74Z"/><path class="cls-10" d="M621.16,206.49l.04,1.05c.7-.82,1.64-1.23,2.82-1.23,1.33,0,2.24,.51,2.72,1.53,.32-.46,.73-.83,1.23-1.11s1.11-.42,1.8-.42c2.09,0,3.15,1.1,3.18,3.31v6.37h-1.63v-6.28c0-.68-.16-1.19-.47-1.52s-.83-.51-1.56-.51c-.6,0-1.1,.18-1.5,.54s-.63,.85-.69,1.45v6.31h-1.63v-6.23c0-1.38-.68-2.07-2.03-2.07-1.07,0-1.8,.45-2.19,1.36v6.94h-1.63v-9.51h1.54Z"/><path class="cls-10" d="M643.44,211.35c0,1.45-.33,2.61-.99,3.5s-1.56,1.33-2.69,1.33-2.06-.37-2.72-1.1v4.58h-1.63v-13.17h1.49l.08,1.05c.66-.82,1.58-1.23,2.76-1.23s2.05,.43,2.71,1.29,1,2.06,1,3.59v.15Zm-1.63-.18c0-1.07-.23-1.92-.69-2.54s-1.08-.93-1.88-.93c-.98,0-1.72,.44-2.21,1.31v4.54c.49,.87,1.23,1.3,2.23,1.3,.78,0,1.4-.31,1.86-.93s.69-1.54,.69-2.76Z"/><path class="cls-10" d="M651.38,216c-.09-.19-.17-.52-.23-1-.76,.79-1.66,1.18-2.71,1.18-.94,0-1.71-.27-2.31-.8s-.9-1.2-.9-2.02c0-.99,.38-1.76,1.13-2.31s1.81-.82,3.18-.82h1.58v-.75c0-.57-.17-1.02-.51-1.36s-.84-.51-1.5-.51c-.58,0-1.07,.15-1.46,.44s-.59,.65-.59,1.06h-1.63c0-.47,.17-.93,.5-1.38s.79-.79,1.37-1.05,1.21-.39,1.9-.39c1.1,0,1.95,.27,2.58,.82s.94,1.3,.97,2.26v4.38c0,.87,.11,1.57,.33,2.08v.14h-1.71Zm-2.7-1.24c.51,0,.99-.13,1.45-.4s.79-.61,.99-1.03v-1.95h-1.27c-1.99,0-2.99,.58-2.99,1.75,0,.51,.17,.91,.51,1.2s.78,.43,1.31,.43Z"/><path class="cls-10" d="M659.9,207.95c-.25-.04-.51-.06-.8-.06-1.07,0-1.79,.45-2.17,1.36v6.75h-1.63v-9.51h1.58l.03,1.1c.53-.85,1.29-1.27,2.27-1.27,.32,0,.56,.04,.72,.12v1.51Z"/><path class="cls-10" d="M666.91,216c-.09-.19-.17-.52-.23-1-.76,.79-1.66,1.18-2.71,1.18-.94,0-1.71-.27-2.31-.8s-.9-1.2-.9-2.02c0-.99,.38-1.76,1.13-2.31s1.81-.82,3.18-.82h1.58v-.75c0-.57-.17-1.02-.51-1.36s-.84-.51-1.5-.51c-.58,0-1.07,.15-1.46,.44s-.59,.65-.59,1.06h-1.63c0-.47,.17-.93,.5-1.38s.79-.79,1.37-1.05,1.21-.39,1.9-.39c1.1,0,1.95,.27,2.58,.82s.94,1.3,.97,2.26v4.38c0,.87,.11,1.57,.33,2.08v.14h-1.71Zm-2.7-1.24c.51,0,.99-.13,1.45-.4s.79-.61,.99-1.03v-1.95h-1.27c-1.99,0-2.99,.58-2.99,1.75,0,.51,.17,.91,.51,1.2s.78,.43,1.31,.43Z"/><path class="cls-10" d="M673.04,204.19v2.3h1.78v1.26h-1.78v5.9c0,.38,.08,.67,.24,.86,.16,.19,.43,.29,.81,.29,.19,0,.45-.04,.77-.11v1.31c-.43,.12-.84,.17-1.25,.17-.73,0-1.27-.22-1.64-.66s-.55-1.06-.55-1.87v-5.9h-1.73v-1.26h1.73v-2.3h1.63Z"/><path class="cls-10" d="M676.1,211.16c0-.93,.18-1.77,.55-2.51s.88-1.32,1.53-1.72,1.4-.61,2.24-.61c1.29,0,2.34,.45,3.14,1.34s1.2,2.09,1.2,3.58v.11c0,.93-.18,1.76-.53,2.49s-.86,1.31-1.52,1.72-1.42,.62-2.27,.62c-1.29,0-2.33-.45-3.13-1.34s-1.2-2.08-1.2-3.56v-.11Zm1.63,.19c0,1.05,.24,1.9,.73,2.54s1.14,.96,1.96,.96,1.48-.32,1.97-.97,.73-1.55,.73-2.72c0-1.04-.25-1.89-.74-2.54s-1.15-.97-1.97-.97-1.45,.32-1.94,.96-.74,1.55-.74,2.74Z"/><path class="cls-10" d="M691.4,207.95c-.25-.04-.51-.06-.8-.06-1.07,0-1.79,.45-2.17,1.36v6.75h-1.63v-9.51h1.58l.03,1.1c.53-.85,1.29-1.27,2.27-1.27,.32,0,.56,.04,.72,.12v1.51Z"/></g><path class="cls-10" d="M605.95,176.56h3.57v1.54h-3.57v4.04h-1.63v-4.04h-3.57v-1.54h3.57v-3.74h1.63v3.74Z"/><path class="cls-10" d="M578.75,114.45v1.38h-.3c-1.27,.02-2.27,.4-3.02,1.12s-1.18,1.75-1.3,3.07c.67-.77,1.59-1.16,2.76-1.16s2,.39,2.67,1.18,1,1.8,1,3.04c0,1.32-.36,2.37-1.08,3.16s-1.68,1.19-2.89,1.19-2.22-.47-2.98-1.41-1.14-2.15-1.14-3.63v-.62c0-2.36,.5-4.16,1.51-5.4s2.5-1.88,4.49-1.91h.29Zm-2.14,5.77c-.56,0-1.07,.17-1.54,.5s-.79,.75-.98,1.26v.6c0,1.05,.24,1.9,.71,2.55s1.07,.97,1.78,.97,1.31-.27,1.73-.81,.63-1.25,.63-2.12-.21-1.59-.64-2.13-.99-.81-1.69-.81Z"/><path class="cls-10" d="M987.79,433.62l-5.3,11.88h-1.71l5.28-11.46h-6.93v-1.34h8.65v.91Z"/><path class="cls-10" d="M605.85,243.45h-4.29v-1.33h4.29v1.33Z"/><g><path class="cls-10" d="M772.09,390.35h-5.37v5.65h-1.69v-12.8h7.93v1.38h-6.24v4.39h5.37v1.38Z"/><path class="cls-10" d="M776.49,396h-1.63v-13.5h1.63v13.5Z"/><path class="cls-10" d="M779.1,383.97c0-.26,.08-.49,.24-.67s.4-.27,.72-.27,.56,.09,.72,.27,.25,.4,.25,.67-.08,.48-.25,.66-.4,.26-.72,.26-.56-.09-.72-.26-.24-.4-.24-.66Zm1.76,12.03h-1.63v-9.51h1.63v9.51Z"/><path class="cls-10" d="M791.49,391.35c0,1.45-.33,2.61-.99,3.5s-1.56,1.33-2.69,1.33-2.06-.37-2.72-1.1v4.58h-1.63v-13.17h1.49l.08,1.05c.66-.82,1.58-1.23,2.76-1.23s2.05,.43,2.71,1.29,1,2.06,1,3.59v.15Zm-1.63-.18c0-1.07-.23-1.92-.69-2.54s-1.08-.93-1.88-.93c-.98,0-1.72,.44-2.21,1.31v4.54c.49,.87,1.23,1.3,2.23,1.3,.78,0,1.4-.31,1.86-.93s.69-1.54,.69-2.76Z"/><path class="cls-10" d="M796.94,391.23h-4.29v-1.33h4.29v1.33Z"/><path class="cls-10" d="M805.84,390.35h-5.37v5.65h-1.69v-12.8h7.93v1.38h-6.24v4.39h5.37v1.38Z"/><path class="cls-10" d="M810.24,396h-1.63v-13.5h1.63v13.5Z"/><path class="cls-10" d="M812.41,391.16c0-.93,.18-1.77,.55-2.51s.88-1.32,1.53-1.72,1.4-.61,2.24-.61c1.29,0,2.34,.45,3.14,1.34s1.2,2.09,1.2,3.58v.11c0,.93-.18,1.76-.53,2.49s-.86,1.31-1.52,1.72-1.42,.62-2.27,.62c-1.29,0-2.33-.45-3.13-1.34s-1.2-2.08-1.2-3.56v-.11Zm1.63,.19c0,1.05,.24,1.9,.73,2.54s1.14,.96,1.96,.96,1.48-.32,1.97-.97,.73-1.55,.73-2.72c0-1.04-.25-1.89-.74-2.54s-1.15-.97-1.97-.97-1.45,.32-1.94,.96-.74,1.55-.74,2.74Z"/><path class="cls-10" d="M831.14,391.35c0,1.45-.33,2.61-.99,3.5s-1.56,1.33-2.69,1.33-2.06-.37-2.72-1.1v4.58h-1.63v-13.17h1.49l.08,1.05c.66-.82,1.58-1.23,2.76-1.23s2.05,.43,2.71,1.29,1,2.06,1,3.59v.15Zm-1.63-.18c0-1.07-.23-1.92-.69-2.54s-1.08-.93-1.88-.93c-.98,0-1.72,.44-2.21,1.31v4.54c.49,.87,1.23,1.3,2.23,1.3,.78,0,1.4-.31,1.86-.93s.69-1.54,.69-2.76Z"/></g><path class="cls-10" d="M768.16,307.3h-3.01v5.18h-1.7v-12.8h4.24c1.44,0,2.55,.33,3.33,.98s1.17,1.61,1.17,2.87c0,.8-.22,1.49-.65,2.08s-1.03,1.03-1.8,1.33l3.01,5.43v.11h-1.81l-2.78-5.18Zm-3.01-1.38h2.59c.84,0,1.5-.22,2-.65s.74-1.02,.74-1.74c0-.79-.24-1.4-.71-1.82-.47-.42-1.15-.64-2.04-.64h-2.58v4.86Z"/><path class="cls-10" d="M767.44,355.74c-1.45-.42-2.5-.93-3.16-1.53s-.99-1.35-.99-2.25c0-1.01,.4-1.84,1.21-2.5s1.85-.99,3.14-.99c.88,0,1.66,.17,2.35,.51s1.22,.81,1.6,1.41,.57,1.25,.57,1.96h-1.7c0-.78-.25-1.39-.74-1.83-.49-.44-1.19-.67-2.08-.67-.83,0-1.48,.18-1.95,.55-.47,.37-.7,.88-.7,1.53,0,.52,.22,.96,.66,1.33,.44,.36,1.2,.69,2.26,.99,1.06,.3,1.9,.63,2.5,.99s1.05,.78,1.34,1.26,.44,1.05,.44,1.7c0,1.04-.4,1.87-1.21,2.49s-1.89,.94-3.24,.94c-.88,0-1.7-.17-2.46-.51s-1.35-.8-1.76-1.38-.62-1.25-.62-2h1.7c0,.77,.29,1.38,.86,1.83s1.33,.67,2.29,.67c.89,0,1.57-.18,2.05-.54s.71-.86,.71-1.49-.22-1.11-.66-1.46-1.24-.68-2.39-1.01Z"/><path class="cls-10" d="M827.31,355.45c0,1.24-.2,2.3-.59,3.2s-.94,1.59-1.65,2.1l2.29,1.79-1.15,1.06-2.7-2.14c-.42,.11-.87,.16-1.34,.16-1.01,0-1.9-.25-2.68-.74s-1.38-1.2-1.82-2.12-.65-1.98-.66-3.19v-.92c0-1.23,.21-2.32,.64-3.26s1.03-1.67,1.81-2.17,1.68-.75,2.69-.75,1.94,.25,2.72,.75,1.38,1.21,1.81,2.15,.63,2.03,.63,3.27v.82Zm-1.69-.83c0-1.51-.3-2.67-.9-3.48s-1.46-1.23-2.57-1.23-1.9,.41-2.51,1.22-.93,1.94-.94,3.38v.94c0,1.46,.31,2.62,.92,3.46s1.46,1.27,2.55,1.27,1.93-.4,2.53-1.19,.91-1.93,.92-3.42v-.95Z"/><g><path class="cls-10" d="M469.13,542.64c-.43,.62-1.04,1.09-1.81,1.39s-1.68,.46-2.71,.46-1.97-.24-2.78-.73-1.43-1.19-1.88-2.09-.67-1.95-.68-3.14v-1.12c0-1.93,.45-3.42,1.35-4.48s2.16-1.59,3.79-1.59c1.34,0,2.41,.34,3.23,1.02s1.31,1.65,1.49,2.9h-1.69c-.32-1.7-1.32-2.55-3.02-2.55-1.13,0-1.99,.4-2.57,1.19s-.88,1.95-.88,3.45v1.05c0,1.44,.33,2.58,.98,3.43,.66,.85,1.54,1.27,2.66,1.27,.63,0,1.19-.07,1.66-.21s.87-.38,1.18-.71v-2.87h-2.96v-1.38h4.64v4.69Z"/><path class="cls-10" d="M481.77,544.32h-1.7l-6.44-9.86v9.86h-1.7v-12.8h1.7l6.46,9.91v-9.91h1.68v12.8Z"/><path class="cls-10" d="M484.77,544.32v-12.8h3.61c1.11,0,2.1,.25,2.95,.74s1.52,1.19,1.98,2.1,.7,1.95,.71,3.13v.82c0,1.21-.23,2.26-.7,3.17s-1.13,1.61-2,2.09-1.87,.74-3.02,.75h-3.54Zm1.69-11.42v10.04h1.78c1.3,0,2.31-.4,3.04-1.21,.72-.81,1.08-1.96,1.08-3.46v-.75c0-1.45-.34-2.58-1.02-3.39s-1.65-1.22-2.91-1.23h-1.97Z"/></g><g><path class="cls-10" d="M487.55,76.96l3.66-10.56h1.85l-4.75,12.8h-1.49l-4.74-12.8h1.84l3.64,10.56Z"/><path class="cls-10" d="M500.54,76.49c-.11,.9-.44,1.6-1,2.09s-1.31,.74-2.24,.74c-1.01,0-1.82-.36-2.42-1.08s-.91-1.69-.91-2.9v-.82c0-.79,.14-1.49,.42-2.09s.68-1.06,1.2-1.39,1.12-.48,1.8-.48c.91,0,1.63,.25,2.18,.76s.87,1.21,.96,2.1h-1.13c-.1-.68-.31-1.18-.64-1.48s-.78-.46-1.37-.46c-.72,0-1.28,.27-1.69,.8-.41,.53-.61,1.29-.61,2.27v.83c0,.93,.19,1.66,.58,2.21s.93,.82,1.62,.82c.62,0,1.1-.14,1.44-.42s.56-.78,.67-1.48h1.13Z"/><path class="cls-10" d="M508.35,76.49c-.11,.9-.44,1.6-1,2.09s-1.31,.74-2.24,.74c-1.01,0-1.82-.36-2.42-1.08s-.91-1.69-.91-2.9v-.82c0-.79,.14-1.49,.42-2.09s.68-1.06,1.2-1.39,1.12-.48,1.8-.48c.91,0,1.63,.25,2.18,.76s.87,1.21,.96,2.1h-1.13c-.1-.68-.31-1.18-.64-1.48s-.78-.46-1.37-.46c-.72,0-1.28,.27-1.69,.8-.41,.53-.61,1.29-.61,2.27v.83c0,.93,.19,1.66,.58,2.21s.93,.82,1.62,.82c.62,0,1.1-.14,1.44-.42s.56-.78,.67-1.48h1.13Z"/></g><g><path class="cls-10" d="M607.32,355.94c-.16,1.35-.66,2.4-1.5,3.13s-1.96,1.1-3.35,1.1c-1.51,0-2.72-.54-3.63-1.63s-1.37-2.53-1.37-4.35v-1.23c0-1.19,.21-2.24,.64-3.14s1.03-1.6,1.81-2.08,1.68-.72,2.71-.72c1.36,0,2.45,.38,3.27,1.14s1.3,1.81,1.43,3.15h-1.7c-.15-1.02-.46-1.76-.95-2.22-.49-.46-1.17-.69-2.05-.69-1.08,0-1.92,.4-2.54,1.2s-.92,1.93-.92,3.4v1.24c0,1.39,.29,2.5,.87,3.32,.58,.82,1.39,1.23,2.43,1.23,.94,0,1.66-.21,2.16-.64s.83-1.16,1-2.22h1.7Z"/><path class="cls-10" d="M608.94,355.16c0-.93,.18-1.77,.55-2.51s.88-1.32,1.53-1.72,1.4-.61,2.24-.61c1.29,0,2.34,.45,3.14,1.34s1.2,2.09,1.2,3.58v.11c0,.93-.18,1.76-.53,2.49s-.86,1.31-1.52,1.72-1.42,.62-2.27,.62c-1.29,0-2.33-.45-3.13-1.34s-1.2-2.08-1.2-3.56v-.11Zm1.63,.19c0,1.05,.24,1.9,.73,2.54s1.14,.96,1.96,.96,1.48-.32,1.97-.97,.73-1.55,.73-2.72c0-1.04-.25-1.89-.74-2.54s-1.15-.97-1.97-.97-1.45,.32-1.94,.96-.74,1.55-.74,2.74Z"/><path class="cls-10" d="M621.16,350.49l.04,1.05c.7-.82,1.64-1.23,2.82-1.23,1.33,0,2.24,.51,2.72,1.53,.32-.46,.73-.83,1.23-1.11s1.11-.42,1.8-.42c2.09,0,3.15,1.1,3.18,3.31v6.37h-1.63v-6.28c0-.68-.16-1.19-.47-1.53s-.83-.5-1.56-.5c-.6,0-1.1,.18-1.5,.54s-.63,.85-.69,1.46v6.31h-1.63v-6.23c0-1.38-.68-2.07-2.03-2.07-1.07,0-1.8,.45-2.19,1.36v6.94h-1.63v-9.51h1.54Z"/><path class="cls-10" d="M643.44,355.35c0,1.45-.33,2.61-.99,3.5s-1.56,1.33-2.69,1.33-2.06-.37-2.72-1.1v4.58h-1.63v-13.17h1.49l.08,1.05c.66-.82,1.58-1.23,2.76-1.23s2.05,.43,2.71,1.29,1,2.06,1,3.59v.15Zm-1.63-.18c0-1.07-.23-1.92-.69-2.54s-1.08-.93-1.88-.93c-.98,0-1.72,.44-2.21,1.31v4.54c.49,.87,1.23,1.3,2.23,1.3,.78,0,1.4-.31,1.86-.93s.69-1.54,.69-2.75Z"/><path class="cls-10" d="M651.38,360c-.09-.19-.17-.52-.23-1-.76,.79-1.66,1.18-2.71,1.18-.94,0-1.71-.27-2.31-.8s-.9-1.2-.9-2.02c0-.99,.38-1.76,1.13-2.31s1.81-.82,3.18-.82h1.58v-.75c0-.57-.17-1.02-.51-1.36s-.84-.5-1.5-.5c-.58,0-1.07,.15-1.46,.44s-.59,.65-.59,1.06h-1.63c0-.47,.17-.93,.5-1.38s.79-.79,1.37-1.05,1.21-.39,1.9-.39c1.1,0,1.95,.27,2.58,.82s.94,1.3,.97,2.26v4.38c0,.87,.11,1.57,.33,2.08v.14h-1.71Zm-2.7-1.24c.51,0,.99-.13,1.45-.4s.79-.61,.99-1.03v-1.95h-1.27c-1.99,0-2.99,.58-2.99,1.75,0,.51,.17,.91,.51,1.2s.78,.43,1.31,.43Z"/><path class="cls-10" d="M659.9,351.95c-.25-.04-.51-.06-.8-.06-1.07,0-1.79,.45-2.17,1.36v6.75h-1.63v-9.51h1.58l.03,1.1c.53-.85,1.29-1.27,2.27-1.27,.32,0,.56,.04,.72,.12v1.51Z"/><path class="cls-10" d="M666.91,360c-.09-.19-.17-.52-.23-1-.76,.79-1.66,1.18-2.71,1.18-.94,0-1.71-.27-2.31-.8s-.9-1.2-.9-2.02c0-.99,.38-1.76,1.13-2.31s1.81-.82,3.18-.82h1.58v-.75c0-.57-.17-1.02-.51-1.36s-.84-.5-1.5-.5c-.58,0-1.07,.15-1.46,.44s-.59,.65-.59,1.06h-1.63c0-.47,.17-.93,.5-1.38s.79-.79,1.37-1.05,1.21-.39,1.9-.39c1.1,0,1.95,.27,2.58,.82s.94,1.3,.97,2.26v4.38c0,.87,.11,1.57,.33,2.08v.14h-1.71Zm-2.7-1.24c.51,0,.99-.13,1.45-.4s.79-.61,.99-1.03v-1.95h-1.27c-1.99,0-2.99,.58-2.99,1.75,0,.51,.17,.91,.51,1.2s.78,.43,1.31,.43Z"/><path class="cls-10" d="M673.04,348.19v2.3h1.78v1.26h-1.78v5.9c0,.38,.08,.67,.24,.86s.43,.29,.81,.29c.19,0,.45-.04,.77-.11v1.31c-.43,.12-.84,.17-1.25,.17-.73,0-1.27-.22-1.64-.66s-.55-1.06-.55-1.87v-5.9h-1.73v-1.26h1.73v-2.3h1.63Z"/><path class="cls-10" d="M676.1,355.16c0-.93,.18-1.77,.55-2.51s.88-1.32,1.53-1.72,1.4-.61,2.24-.61c1.29,0,2.34,.45,3.14,1.34s1.2,2.09,1.2,3.58v.11c0,.93-.18,1.76-.53,2.49s-.86,1.31-1.52,1.72-1.42,.62-2.27,.62c-1.29,0-2.33-.45-3.13-1.34s-1.2-2.08-1.2-3.56v-.11Zm1.63,.19c0,1.05,.24,1.9,.73,2.54s1.14,.96,1.96,.96,1.48-.32,1.97-.97,.73-1.55,.73-2.72c0-1.04-.25-1.89-.74-2.54s-1.15-.97-1.97-.97-1.45,.32-1.94,.96-.74,1.55-.74,2.74Z"/><path class="cls-10" d="M691.4,351.95c-.25-.04-.51-.06-.8-.06-1.07,0-1.79,.45-2.17,1.36v6.75h-1.63v-9.51h1.58l.03,1.1c.53-.85,1.29-1.27,2.27-1.27,.32,0,.56,.04,.72,.12v1.51Z"/></g><g><path class="cls-10" d="M373.29,242.18c-.16,1.35-.66,2.4-1.5,3.13s-1.96,1.1-3.35,1.1c-1.51,0-2.72-.54-3.63-1.63s-1.37-2.53-1.37-4.35v-1.23c0-1.19,.21-2.24,.64-3.14s1.03-1.6,1.81-2.08,1.68-.73,2.71-.73c1.36,0,2.45,.38,3.27,1.14s1.3,1.81,1.43,3.15h-1.7c-.15-1.02-.46-1.76-.95-2.22s-1.17-.69-2.05-.69c-1.08,0-1.92,.4-2.54,1.2-.61,.8-.92,1.93-.92,3.4v1.24c0,1.39,.29,2.5,.87,3.32s1.39,1.23,2.43,1.23c.94,0,1.66-.21,2.16-.64s.83-1.16,1-2.22h1.7Z"/><path class="cls-10" d="M385.44,240.25c0,1.25-.21,2.35-.63,3.28s-1.02,1.65-1.79,2.14-1.68,.74-2.71,.74-1.9-.25-2.68-.74-1.38-1.2-1.81-2.12-.65-1.98-.66-3.19v-.92c0-1.23,.21-2.32,.64-3.26s1.03-1.67,1.81-2.17,1.68-.75,2.69-.75,1.93,.25,2.71,.74,1.38,1.21,1.81,2.15,.63,2.03,.63,3.28v.81Zm-1.68-.83c0-1.52-.3-2.68-.91-3.49s-1.46-1.22-2.56-1.22-1.91,.41-2.52,1.22-.93,1.94-.94,3.38v.94c0,1.47,.31,2.63,.93,3.47s1.47,1.26,2.55,1.26,1.93-.4,2.53-1.19,.91-1.93,.92-3.41v-.95Z"/><path class="cls-10" d="M397.8,246.24h-1.7l-6.44-9.86v9.86h-1.7v-12.8h1.7l6.46,9.91v-9.91h1.68v12.8Z"/><path class="cls-10" d="M409.39,234.82h-4.11v11.42h-1.68v-11.42h-4.1v-1.38h9.9v1.38Z"/></g><path class="cls-10" d="M418.68,227.4l.65-6.38h6.56v1.5h-5.18l-.39,3.49c.63-.37,1.34-.55,2.14-.55,1.17,0,2.09,.39,2.78,1.16s1.03,1.81,1.03,3.12-.36,2.36-1.07,3.12-1.71,1.14-2.98,1.14c-1.13,0-2.05-.31-2.77-.94s-1.12-1.49-1.22-2.6h1.54c.1,.73,.36,1.28,.78,1.66s.98,.56,1.67,.56c.76,0,1.35-.26,1.78-.77s.65-1.23,.65-2.14c0-.86-.23-1.54-.7-2.06s-1.09-.78-1.86-.78c-.71,0-1.27,.16-1.67,.47l-.43,.35-1.3-.33Z"/><path class="cls-10" d="M474.65,116.36c0,.64-.17,1.21-.51,1.71s-.79,.89-1.37,1.17c.67,.29,1.2,.71,1.59,1.26s.58,1.17,.58,1.87c0,1.11-.37,1.99-1.12,2.65s-1.73,.98-2.95,.98-2.22-.33-2.96-.99-1.11-1.54-1.11-2.64c0-.69,.19-1.32,.57-1.87s.9-.98,1.57-1.27c-.57-.28-1.02-.67-1.34-1.17s-.49-1.06-.49-1.7c0-1.08,.35-1.93,1.04-2.57s1.6-.95,2.73-.95,2.03,.32,2.73,.95,1.04,1.49,1.04,2.57Zm-1.33,5.97c0-.71-.23-1.3-.68-1.75s-1.05-.68-1.78-.68-1.32,.22-1.76,.67-.66,1.03-.66,1.76,.22,1.3,.65,1.71,1.03,.62,1.8,.62,1.36-.21,1.79-.63,.65-.99,.65-1.71Zm-2.44-8.15c-.64,0-1.16,.2-1.55,.59s-.59,.93-.59,1.61,.19,1.18,.58,1.58,.91,.6,1.56,.6,1.17-.2,1.56-.6,.58-.93,.58-1.58-.2-1.18-.61-1.59-.92-.62-1.54-.62Z"/><g><path class="cls-10" d="M550.27,56.26h-4.11v11.42h-1.68v-11.42h-4.1v-1.38h9.9v1.38Z"/><path class="cls-10" d="M562,67.68h-1.7v-5.92h-6.45v5.92h-1.69v-12.8h1.69v5.5h6.45v-5.5h1.7v12.8Z"/><path class="cls-10" d="M569.69,62.5h-3.01v5.18h-1.7v-12.8h4.24c1.44,0,2.55,.33,3.33,.98s1.17,1.61,1.17,2.87c0,.8-.22,1.49-.65,2.08s-1.03,1.03-1.8,1.33l3.01,5.43v.11h-1.81l-2.78-5.18Zm-3.01-1.38h2.59c.84,0,1.5-.22,2-.65,.5-.43,.74-1.02,.74-1.74,0-.79-.24-1.4-.71-1.82-.47-.42-1.15-.64-2.04-.64h-2.58v4.86Z"/><path class="cls-10" d="M583.31,61.77h-5.55v4.54h6.44v1.38h-8.13v-12.8h8.04v1.38h-6.35v4.12h5.55v1.38Z"/><path class="cls-10" d="M590.08,61.98c-1.45-.42-2.5-.93-3.16-1.53s-.99-1.35-.99-2.25c0-1.01,.4-1.84,1.21-2.5s1.85-.99,3.14-.99c.88,0,1.66,.17,2.35,.51s1.22,.81,1.6,1.41,.57,1.25,.57,1.96h-1.7c0-.78-.25-1.39-.74-1.83s-1.19-.67-2.08-.67c-.83,0-1.48,.18-1.95,.55-.47,.37-.7,.88-.7,1.53,0,.52,.22,.96,.66,1.33s1.2,.69,2.26,.99,1.9,.63,2.5,.99,1.05,.78,1.34,1.26,.44,1.05,.44,1.7c0,1.04-.4,1.87-1.21,2.49s-1.89,.94-3.24,.94c-.88,0-1.7-.17-2.46-.51s-1.35-.8-1.76-1.38-.62-1.25-.62-2h1.7c0,.77,.29,1.38,.86,1.83s1.33,.67,2.29,.67c.89,0,1.57-.18,2.05-.54s.71-.86,.71-1.49-.22-1.11-.66-1.45-1.24-.68-2.39-1.02Z"/></g><path class="cls-10" d="M492.39,495.9h-1.63v-10.84l-3.28,1.2v-1.48l4.66-1.75h.26v12.86Z"/><path class="cls-10" d="M980.45,341.83h1.22c.77-.01,1.37-.21,1.81-.61s.66-.92,.66-1.59c0-1.5-.75-2.25-2.24-2.25-.7,0-1.26,.2-1.68,.6s-.63,.93-.63,1.6h-1.63c0-1.01,.37-1.86,1.11-2.53s1.68-1.01,2.83-1.01c1.21,0,2.15,.32,2.84,.96s1.03,1.53,1.03,2.66c0,.56-.18,1.1-.54,1.62s-.85,.91-1.47,1.17c.7,.22,1.25,.59,1.63,1.11s.58,1.15,.58,1.89c0,1.15-.38,2.06-1.12,2.73s-1.73,1.01-2.93,1.01-2.18-.33-2.93-.98-1.13-1.51-1.13-2.58h1.63c0,.67,.22,1.21,.66,1.62s1.03,.61,1.77,.61c.79,0,1.39-.21,1.8-.62s.62-1,.62-1.77-.23-1.32-.69-1.71-1.12-.6-1.98-.62h-1.22v-1.33Z"/><g><path class="cls-10" d="M542.72,532.9h-4.11v11.42h-1.68v-11.42h-4.1v-1.38h9.9v1.38Z"/><path class="cls-10" d="M549.31,539.14h-3.01v5.18h-1.7v-12.8h4.24c1.44,0,2.55,.33,3.33,.98s1.17,1.61,1.17,2.87c0,.8-.22,1.49-.65,2.08s-1.03,1.03-1.8,1.33l3.01,5.43v.11h-1.81l-2.78-5.18Zm-3.01-1.38h2.59c.84,0,1.5-.22,2-.65,.5-.43,.74-1.02,.74-1.74,0-.79-.24-1.4-.71-1.82-.47-.42-1.15-.64-2.04-.64h-2.58v4.86Z"/><path class="cls-10" d="M557.51,544.32h-1.69v-12.8h1.69v12.8Z"/><path class="cls-10" d="M570.04,542.64c-.43,.62-1.04,1.09-1.82,1.39-.78,.31-1.68,.46-2.71,.46s-1.97-.25-2.78-.73c-.81-.49-1.43-1.19-1.88-2.09s-.67-1.95-.68-3.14v-1.12c0-1.93,.45-3.42,1.35-4.48s2.16-1.59,3.79-1.59c1.34,0,2.41,.34,3.23,1.02,.81,.68,1.31,1.65,1.49,2.9h-1.69c-.32-1.7-1.32-2.55-3.02-2.55-1.13,0-1.99,.4-2.57,1.19-.58,.79-.88,1.95-.88,3.45v1.05c0,1.44,.33,2.58,.98,3.43s1.54,1.27,2.66,1.27c.63,0,1.19-.07,1.66-.21,.47-.14,.87-.38,1.18-.71v-2.87h-2.96v-1.38h4.64v4.69Z"/></g><path class="cls-10" d="M567.79,497.34h-8.38v-1.17l4.43-4.92c.66-.74,1.11-1.35,1.36-1.81s.37-.95,.37-1.45c0-.67-.2-1.22-.61-1.64s-.94-.64-1.62-.64c-.81,0-1.44,.23-1.88,.69s-.67,1.1-.67,1.92h-1.63c0-1.18,.38-2.13,1.14-2.86s1.77-1.09,3.04-1.09c1.19,0,2.13,.31,2.82,.94s1.04,1.46,1.04,2.49c0,1.26-.8,2.76-2.41,4.5l-3.43,3.72h6.42v1.33Z"/><g><path class="cls-10" d="M1008,456.48v-12.8h3.61c1.11,0,2.1,.25,2.95,.74s1.52,1.19,1.98,2.1,.7,1.95,.71,3.13v.82c0,1.21-.23,2.26-.7,3.17s-1.13,1.61-2,2.09-1.87,.74-3.02,.75h-3.54Zm1.69-11.42v10.04h1.78c1.3,0,2.31-.4,3.04-1.21s1.08-1.96,1.08-3.46v-.75c0-1.45-.34-2.58-1.02-3.39-.68-.81-1.65-1.21-2.91-1.23h-1.97Z"/><path class="cls-10" d="M1021.62,456.48h-1.69v-12.8h1.69v12.8Z"/><path class="cls-10" d="M1028.47,450.78c-1.45-.42-2.5-.93-3.16-1.53-.66-.61-.99-1.36-.99-2.25,0-1.01,.4-1.84,1.21-2.5,.81-.66,1.85-.99,3.14-.99,.88,0,1.66,.17,2.35,.51s1.22,.81,1.6,1.41,.57,1.25,.57,1.96h-1.7c0-.78-.25-1.39-.74-1.83s-1.19-.67-2.08-.67c-.83,0-1.48,.18-1.95,.55s-.7,.88-.7,1.53c0,.52,.22,.96,.66,1.33s1.2,.69,2.26,.99,1.9,.63,2.5,.99c.6,.36,1.05,.78,1.34,1.26s.43,1.05,.43,1.7c0,1.04-.4,1.87-1.21,2.49-.81,.62-1.89,.94-3.24,.94-.88,0-1.7-.17-2.46-.5-.76-.34-1.35-.8-1.76-1.38s-.62-1.25-.62-2h1.7c0,.77,.29,1.38,.86,1.83,.57,.45,1.33,.67,2.29,.67,.89,0,1.57-.18,2.05-.54s.71-.86,.71-1.49-.22-1.11-.66-1.45c-.44-.34-1.24-.68-2.39-1.02Z"/><path class="cls-10" d="M1044.79,452.42c-.16,1.35-.66,2.4-1.5,3.13-.84,.73-1.96,1.1-3.35,1.1-1.51,0-2.72-.54-3.63-1.63s-1.37-2.53-1.37-4.35v-1.23c0-1.19,.21-2.24,.64-3.14s1.03-1.6,1.81-2.08c.78-.48,1.68-.73,2.71-.73,1.36,0,2.45,.38,3.27,1.14,.82,.76,1.3,1.81,1.43,3.15h-1.7c-.15-1.02-.46-1.76-.95-2.22s-1.17-.69-2.05-.69c-1.08,0-1.92,.4-2.54,1.2s-.92,1.93-.92,3.4v1.24c0,1.39,.29,2.5,.87,3.32s1.39,1.23,2.43,1.23c.94,0,1.66-.21,2.16-.64,.5-.43,.83-1.17,1-2.22h1.7Z"/><path class="cls-10" d="M1056.93,456.48h-1.7v-5.92h-6.45v5.92h-1.69v-12.8h1.69v5.5h6.45v-5.5h1.7v12.8Z"/></g><g><path class="cls-10" d="M800.59,88.42h-3.01v5.18h-1.7v-12.8h4.24c1.44,0,2.55,.33,3.33,.98s1.17,1.61,1.17,2.87c0,.8-.22,1.49-.65,2.08s-1.03,1.03-1.8,1.33l3.01,5.43v.11h-1.81l-2.78-5.18Zm-3.01-1.38h2.59c.84,0,1.5-.22,2-.65,.5-.43,.74-1.02,.74-1.74,0-.79-.24-1.4-.71-1.82-.47-.42-1.15-.64-2.04-.64h-2.58v4.86Z"/><path class="cls-10" d="M814.21,87.68h-5.55v4.54h6.44v1.38h-8.13v-12.8h8.04v1.38h-6.35v4.12h5.55v1.38Z"/><path class="cls-10" d="M820.98,87.9c-1.45-.42-2.5-.93-3.16-1.53s-.99-1.35-.99-2.25c0-1.01,.4-1.84,1.21-2.5s1.85-.99,3.14-.99c.88,0,1.66,.17,2.35,.51s1.22,.81,1.6,1.41,.57,1.25,.57,1.96h-1.7c0-.78-.25-1.39-.74-1.83s-1.19-.67-2.08-.67c-.83,0-1.48,.18-1.95,.55-.47,.37-.7,.88-.7,1.53,0,.52,.22,.96,.66,1.33s1.2,.69,2.26,.99,1.9,.63,2.5,.99,1.05,.78,1.34,1.26,.44,1.05,.44,1.7c0,1.04-.4,1.87-1.21,2.49s-1.89,.94-3.24,.94c-.88,0-1.7-.17-2.46-.51s-1.35-.8-1.76-1.38-.62-1.25-.62-2h1.7c0,.77,.29,1.38,.86,1.83s1.33,.67,2.29,.67c.89,0,1.57-.18,2.05-.54s.71-.86,.71-1.49-.22-1.11-.66-1.45-1.24-.68-2.39-1.02Z"/><path class="cls-10" d="M835.12,87.68h-5.55v4.54h6.44v1.38h-8.13v-12.8h8.04v1.38h-6.35v4.12h5.55v1.38Z"/><path class="cls-10" d="M847.13,82.18h-4.11v11.42h-1.68v-11.42h-4.1v-1.38h9.9v1.38Z"/></g><path class="cls-10" d="M832.31,122.96h1.78v1.33h-1.78v2.97h-1.63v-2.97h-5.83v-.96l5.73-8.87h1.73v8.5Zm-5.62,0h3.98v-6.28l-.19,.35-3.79,5.92Z"/><g><path class="cls-10" d="M680.86,498.35h-5.37v5.65h-1.69v-12.8h7.93v1.38h-6.24v4.39h5.37v1.38Z"/><path class="cls-10" d="M689.17,503.06c-.63,.74-1.56,1.12-2.79,1.12-1.01,0-1.79-.29-2.32-.88s-.8-1.46-.8-2.61v-6.19h1.63v6.14c0,1.44,.59,2.16,1.76,2.16,1.24,0,2.07-.46,2.48-1.39v-6.92h1.63v9.51h-1.55l-.04-.94Z"/><path class="cls-10" d="M694.76,494.49l.05,1.2c.73-.91,1.68-1.37,2.85-1.37,2.01,0,3.02,1.13,3.04,3.4v6.28h-1.63v-6.29c0-.69-.16-1.19-.47-1.52s-.79-.49-1.44-.49c-.53,0-.99,.14-1.39,.42s-.71,.65-.93,1.11v6.78h-1.63v-9.51h1.54Z"/><path class="cls-10" d="M706.97,502.85c.58,0,1.09-.18,1.52-.53s.67-.79,.72-1.32h1.54c-.03,.54-.22,1.06-.56,1.56s-.81,.88-1.38,1.18-1.19,.44-1.83,.44c-1.29,0-2.33-.43-3.09-1.3s-1.15-2.05-1.15-3.55v-.27c0-.93,.17-1.75,.51-2.47s.83-1.28,1.46-1.68,1.39-.6,2.25-.6c1.07,0,1.95,.32,2.66,.96s1.08,1.47,1.13,2.49h-1.54c-.05-.62-.28-1.12-.7-1.52s-.94-.59-1.55-.59c-.83,0-1.47,.3-1.92,.89s-.68,1.46-.68,2.58v.31c0,1.1,.23,1.94,.68,2.53s1.1,.89,1.93,.89Z"/><path class="cls-10" d="M714.78,492.19v2.3h1.78v1.26h-1.78v5.9c0,.38,.08,.67,.24,.86s.43,.29,.81,.29c.19,0,.45-.04,.77-.11v1.31c-.43,.12-.84,.17-1.25,.17-.73,0-1.27-.22-1.64-.66s-.55-1.06-.55-1.87v-5.9h-1.73v-1.26h1.73v-2.3h1.63Z"/><path class="cls-10" d="M718.47,491.97c0-.26,.08-.49,.24-.67s.4-.27,.72-.27,.56,.09,.72,.27,.25,.4,.25,.67-.08,.48-.25,.66-.4,.26-.72,.26-.56-.09-.72-.26-.24-.4-.24-.66Zm1.76,12.03h-1.63v-9.51h1.63v9.51Z"/><path class="cls-10" d="M722.39,499.16c0-.93,.18-1.77,.55-2.51s.88-1.32,1.53-1.72,1.4-.61,2.24-.61c1.29,0,2.34,.45,3.14,1.34s1.2,2.09,1.2,3.58v.11c0,.93-.18,1.76-.53,2.49s-.86,1.31-1.52,1.72-1.42,.62-2.27,.62c-1.29,0-2.33-.45-3.13-1.34s-1.2-2.08-1.2-3.56v-.11Zm1.63,.19c0,1.05,.24,1.9,.73,2.54s1.14,.96,1.96,.96,1.48-.32,1.97-.97,.73-1.55,.73-2.72c0-1.04-.25-1.89-.74-2.54s-1.15-.97-1.97-.97-1.45,.32-1.94,.96-.74,1.55-.74,2.74Z"/><path class="cls-10" d="M734.63,494.49l.05,1.2c.73-.91,1.68-1.37,2.85-1.37,2.01,0,3.02,1.13,3.04,3.4v6.28h-1.63v-6.29c0-.69-.16-1.19-.47-1.52s-.79-.49-1.44-.49c-.53,0-.99,.14-1.39,.42s-.71,.65-.93,1.11v6.78h-1.63v-9.51h1.54Z"/><path class="cls-10" d="M748.89,504c-.09-.19-.17-.52-.23-1-.76,.79-1.66,1.18-2.71,1.18-.94,0-1.71-.27-2.31-.8s-.9-1.2-.9-2.02c0-.99,.38-1.76,1.13-2.31s1.81-.82,3.18-.82h1.58v-.75c0-.57-.17-1.02-.51-1.36s-.84-.5-1.5-.5c-.58,0-1.07,.15-1.46,.44s-.59,.65-.59,1.06h-1.63c0-.47,.17-.93,.5-1.38s.79-.79,1.37-1.05,1.21-.39,1.9-.39c1.1,0,1.95,.27,2.58,.82s.94,1.3,.97,2.26v4.38c0,.87,.11,1.57,.33,2.08v.14h-1.71Zm-2.7-1.24c.51,0,.99-.13,1.45-.4s.79-.61,.99-1.03v-1.95h-1.27c-1.99,0-2.99,.58-2.99,1.75,0,.51,.17,.91,.51,1.2s.78,.43,1.31,.43Z"/><path class="cls-10" d="M754.58,504h-1.63v-13.5h1.63v13.5Z"/><path class="cls-10" d="M761.89,504v-12.8h3.61c1.11,0,2.1,.25,2.95,.74s1.52,1.19,1.98,2.1,.7,1.95,.71,3.13v.82c0,1.21-.23,2.26-.7,3.17s-1.13,1.61-2,2.09-1.87,.74-3.02,.75h-3.54Zm1.69-11.42v10.04h1.78c1.3,0,2.31-.41,3.04-1.21,.72-.81,1.09-1.96,1.09-3.46v-.75c0-1.45-.34-2.58-1.02-3.39-.68-.81-1.65-1.21-2.9-1.23h-1.97Z"/><path class="cls-10" d="M773.45,491.97c0-.26,.08-.49,.24-.67s.4-.27,.72-.27,.56,.09,.72,.27,.25,.4,.25,.67-.08,.48-.25,.66-.4,.26-.72,.26-.56-.09-.72-.26-.24-.4-.24-.66Zm1.76,12.03h-1.63v-9.51h1.63v9.51Z"/><path class="cls-10" d="M783.68,504c-.09-.19-.17-.52-.23-1-.76,.79-1.66,1.18-2.71,1.18-.94,0-1.71-.27-2.31-.8s-.9-1.2-.9-2.02c0-.99,.38-1.76,1.13-2.31s1.81-.82,3.18-.82h1.58v-.75c0-.57-.17-1.02-.51-1.36s-.84-.5-1.5-.5c-.58,0-1.07,.15-1.46,.44s-.59,.65-.59,1.06h-1.63c0-.47,.17-.93,.5-1.38s.79-.79,1.37-1.05,1.21-.39,1.9-.39c1.1,0,1.95,.27,2.58,.82s.94,1.3,.97,2.26v4.38c0,.87,.11,1.57,.33,2.08v.14h-1.71Zm-2.7-1.24c.51,0,.99-.13,1.45-.4s.79-.61,.99-1.03v-1.95h-1.27c-1.99,0-2.99,.58-2.99,1.75,0,.51,.17,.91,.51,1.2s.78,.43,1.31,.43Z"/><path class="cls-10" d="M787.21,499.17c0-1.48,.34-2.66,1.03-3.54s1.59-1.31,2.72-1.31,2.07,.41,2.72,1.23l.08-1.05h1.49v9.28c0,1.23-.37,2.2-1.09,2.91s-1.71,1.06-2.94,1.06c-.69,0-1.36-.15-2.01-.44s-1.16-.69-1.5-1.2l.84-.98c.7,.86,1.55,1.29,2.56,1.29,.79,0,1.41-.22,1.85-.67s.66-1.07,.66-1.88v-.82c-.65,.75-1.54,1.12-2.66,1.12s-2.01-.45-2.7-1.34-1.03-2.12-1.03-3.67Zm1.63,.18c0,1.07,.22,1.91,.66,2.53s1.05,.92,1.85,.92c1.03,0,1.78-.47,2.26-1.4v-4.34c-.5-.91-1.25-1.36-2.24-1.36-.79,0-1.41,.31-1.85,.92s-.67,1.53-.67,2.73Z"/><path class="cls-10" d="M802.3,495.95c-.25-.04-.51-.06-.8-.06-1.07,0-1.79,.45-2.17,1.36v6.75h-1.63v-9.51h1.58l.03,1.1c.53-.85,1.29-1.27,2.27-1.27,.32,0,.56,.04,.72,.12v1.51Z"/><path class="cls-10" d="M809.31,504c-.09-.19-.17-.52-.23-1-.76,.79-1.66,1.18-2.71,1.18-.94,0-1.71-.27-2.31-.8s-.9-1.2-.9-2.02c0-.99,.38-1.76,1.13-2.31s1.81-.82,3.18-.82h1.58v-.75c0-.57-.17-1.02-.51-1.36s-.84-.5-1.5-.5c-.58,0-1.07,.15-1.46,.44s-.59,.65-.59,1.06h-1.63c0-.47,.17-.93,.5-1.38s.79-.79,1.37-1.05,1.21-.39,1.9-.39c1.1,0,1.95,.27,2.58,.82s.94,1.3,.97,2.26v4.38c0,.87,.11,1.57,.33,2.08v.14h-1.71Zm-2.7-1.24c.51,0,.99-.13,1.45-.4s.79-.61,.99-1.03v-1.95h-1.27c-1.99,0-2.99,.58-2.99,1.75,0,.51,.17,.91,.51,1.2s.78,.43,1.31,.43Z"/><path class="cls-10" d="M814.76,494.49l.04,1.05c.7-.82,1.64-1.23,2.82-1.23,1.33,0,2.24,.51,2.72,1.53,.32-.46,.73-.83,1.23-1.11s1.11-.42,1.8-.42c2.09,0,3.15,1.1,3.18,3.31v6.37h-1.63v-6.28c0-.68-.16-1.19-.47-1.53s-.83-.5-1.56-.5c-.6,0-1.1,.18-1.5,.54s-.63,.85-.69,1.46v6.31h-1.63v-6.23c0-1.38-.68-2.07-2.03-2.07-1.07,0-1.8,.45-2.19,1.36v6.94h-1.63v-9.51h1.54Z"/><path class="cls-10" d="M833.4,498.81c0-1.32,.18-2.6,.53-3.81s.88-2.33,1.59-3.32,1.43-1.7,2.19-2.11l.33,1.07c-.86,.66-1.56,1.66-2.11,3.01s-.85,2.86-.9,4.53v.75c0,2.26,.4,4.22,1.23,5.89,.5,1,1.09,1.78,1.78,2.34l-.33,.99c-.78-.43-1.52-1.16-2.23-2.18-1.38-1.99-2.07-4.37-2.07-7.15Z"/><path class="cls-10" d="M845.15,501.48c0-.44-.17-.78-.5-1.02s-.91-.45-1.73-.63-1.48-.39-1.96-.63-.84-.54-1.07-.88-.35-.74-.35-1.21c0-.78,.33-1.44,.99-1.98s1.5-.81,2.53-.81c1.08,0,1.95,.28,2.62,.83s1.01,1.27,1.01,2.14h-1.63c0-.45-.19-.83-.57-1.15s-.85-.48-1.43-.48-1.05,.13-1.39,.39-.5,.59-.5,1.01c0,.39,.16,.69,.47,.89s.87,.39,1.68,.57,1.47,.4,1.97,.65,.88,.55,1.12,.91,.37,.79,.37,1.3c0,.85-.34,1.53-1.02,2.04s-1.56,.77-2.65,.77c-.76,0-1.44-.13-2.02-.4s-1.04-.65-1.38-1.13-.5-1.01-.5-1.57h1.63c.03,.54,.25,.98,.65,1.3s.95,.48,1.61,.48c.62,0,1.11-.12,1.48-.37s.56-.58,.56-1Z"/><path class="cls-10" d="M848.9,491.97c0-.26,.08-.49,.24-.67s.4-.27,.72-.27,.56,.09,.72,.27,.25,.4,.25,.67-.08,.48-.25,.66-.4,.26-.72,.26-.56-.09-.72-.26-.24-.4-.24-.66Zm1.76,12.03h-1.63v-9.51h1.63v9.51Z"/><path class="cls-10" d="M854.79,494.49l.04,1.05c.7-.82,1.64-1.23,2.82-1.23,1.33,0,2.24,.51,2.72,1.53,.32-.46,.73-.83,1.23-1.11s1.11-.42,1.8-.42c2.09,0,3.15,1.1,3.18,3.31v6.37h-1.63v-6.28c0-.68-.16-1.19-.47-1.53s-.83-.5-1.56-.5c-.6,0-1.1,.18-1.5,.54s-.63,.85-.69,1.46v6.31h-1.63v-6.23c0-1.38-.68-2.07-2.03-2.07-1.07,0-1.8,.45-2.19,1.36v6.94h-1.63v-9.51h1.54Z"/><path class="cls-10" d="M877.07,499.35c0,1.45-.33,2.61-.99,3.5s-1.56,1.33-2.69,1.33-2.06-.37-2.72-1.1v4.58h-1.63v-13.17h1.49l.08,1.05c.66-.82,1.58-1.23,2.76-1.23s2.05,.43,2.71,1.29,1,2.06,1,3.59v.15Zm-1.63-.18c0-1.07-.23-1.92-.69-2.54s-1.08-.93-1.88-.93c-.98,0-1.72,.44-2.21,1.31v4.54c.49,.87,1.23,1.3,2.23,1.3,.78,0,1.4-.31,1.86-.93s.69-1.54,.69-2.75Z"/><path class="cls-10" d="M880.9,504h-1.63v-13.5h1.63v13.5Z"/><path class="cls-10" d="M883.52,491.97c0-.26,.08-.49,.24-.67s.4-.27,.72-.27,.56,.09,.72,.27,.25,.4,.25,.67-.08,.48-.25,.66-.4,.26-.72,.26-.56-.09-.72-.26-.24-.4-.24-.66Zm1.76,12.03h-1.63v-9.51h1.63v9.51Z"/><path class="cls-10" d="M888.67,504v-8.25h-1.5v-1.26h1.5v-.98c0-1.02,.27-1.81,.82-2.36s1.32-.83,2.31-.83c.38,0,.75,.05,1.12,.15l-.09,1.31c-.28-.05-.57-.08-.88-.08-.53,0-.93,.15-1.22,.46s-.43,.75-.43,1.33v1h2.03v1.26h-2.03v8.25h-1.63Z"/><path class="cls-10" d="M894.13,491.97c0-.26,.08-.49,.24-.67s.4-.27,.72-.27,.56,.09,.72,.27,.25,.4,.25,.67-.08,.48-.25,.66-.4,.26-.72,.26-.56-.09-.72-.26-.24-.4-.24-.66Zm1.76,12.03h-1.63v-9.51h1.63v9.51Z"/><path class="cls-10" d="M902.44,504.18c-1.29,0-2.34-.42-3.15-1.27s-1.21-1.98-1.21-3.4v-.3c0-.94,.18-1.79,.54-2.53,.36-.74,.86-1.32,1.51-1.74s1.35-.63,2.11-.63c1.24,0,2.2,.41,2.88,1.22s1.03,1.98,1.03,3.5v.68h-6.44c.02,.94,.3,1.69,.82,2.27,.52,.58,1.19,.87,2,.87,.57,0,1.06-.12,1.46-.35s.75-.54,1.05-.93l.99,.77c-.8,1.22-1.99,1.84-3.59,1.84Zm-.2-8.53c-.66,0-1.21,.24-1.65,.72s-.72,1.15-.83,2.01h4.76v-.12c-.05-.83-.27-1.47-.67-1.92s-.94-.68-1.62-.68Z"/><path class="cls-10" d="M907.63,499.17c0-1.46,.35-2.63,1.04-3.52s1.6-1.33,2.72-1.33,2,.38,2.65,1.14v-4.96h1.63v13.5h-1.49l-.08-1.02c-.65,.8-1.56,1.2-2.72,1.2s-2-.45-2.69-1.35c-.7-.9-1.04-2.08-1.04-3.53v-.12Zm1.63,.18c0,1.08,.22,1.92,.67,2.53s1.06,.91,1.85,.91c1.03,0,1.78-.46,2.26-1.39v-4.37c-.49-.9-1.23-1.34-2.24-1.34-.8,0-1.42,.31-1.86,.92s-.67,1.53-.67,2.73Z"/><path class="cls-10" d="M921.93,498.89c0,1.31-.17,2.56-.51,3.76-.34,1.2-.87,2.3-1.57,3.32-.71,1.01-1.45,1.73-2.22,2.16l-.34-.99c.9-.69,1.63-1.77,2.18-3.22,.55-1.46,.83-3.07,.84-4.85v-.28c0-1.23-.13-2.38-.39-3.43s-.62-2-1.08-2.84-.98-1.49-1.55-1.96l.34-.99c.77,.43,1.51,1.14,2.21,2.14s1.22,2.11,1.57,3.31c.35,1.21,.52,2.5,.52,3.88Z"/></g><path class="cls-10" d="M604.51,322h3.57v1.54h-3.57v4.04h-1.63v-4.04h-3.57v-1.54h3.57v-3.74h1.63v3.74Z"/><path class="cls-10" d="M604.41,388.89h-4.29v-1.33h4.29v1.33Z"/><g><path class="cls-10" d="M816.38,307.3h-3.01v5.18h-1.7v-12.8h4.24c1.44,0,2.55,.33,3.33,.98s1.17,1.61,1.17,2.87c0,.8-.22,1.49-.65,2.08s-1.03,1.03-1.8,1.33l3.01,5.43v.11h-1.81l-2.78-5.18Zm-3.01-1.38h2.59c.84,0,1.5-.22,2-.65,.5-.43,.74-1.02,.74-1.74,0-.79-.24-1.4-.71-1.82s-1.15-.64-2.04-.64h-2.58v4.86Z"/><path class="cls-10" d="M827.7,312.48h-1.63v-10.84l-3.28,1.2v-1.48l4.66-1.75h.25v12.86Z"/></g><g><path class="cls-10" d="M869.85,312.25c0,1.25-.21,2.35-.63,3.28s-1.02,1.65-1.79,2.14-1.68,.74-2.71,.74-1.9-.25-2.68-.74-1.38-1.2-1.82-2.12-.65-1.98-.66-3.19v-.92c0-1.23,.21-2.32,.64-3.26s1.03-1.67,1.81-2.17,1.68-.75,2.69-.75,1.93,.25,2.71,.74,1.38,1.21,1.81,2.15,.63,2.04,.63,3.28v.81Zm-1.68-.83c0-1.52-.3-2.68-.91-3.49s-1.46-1.22-2.56-1.22-1.91,.41-2.52,1.22-.93,1.94-.94,3.38v.94c0,1.47,.31,2.63,.93,3.47s1.47,1.26,2.55,1.26,1.93-.4,2.53-1.19,.91-1.93,.92-3.41v-.95Z"/><path class="cls-10" d="M878,317.3c-.63,.74-1.56,1.12-2.79,1.12-1.01,0-1.79-.29-2.32-.88s-.8-1.46-.8-2.61v-6.19h1.63v6.14c0,1.44,.59,2.16,1.76,2.16,1.24,0,2.07-.46,2.48-1.39v-6.92h1.63v9.51h-1.55l-.04-.94Z"/><path class="cls-10" d="M884.25,306.43v2.3h1.78v1.26h-1.78v5.9c0,.38,.08,.67,.24,.86s.43,.29,.81,.29c.19,0,.45-.04,.77-.11v1.31c-.43,.12-.84,.17-1.25,.17-.73,0-1.27-.22-1.64-.66s-.55-1.06-.55-1.87v-5.9h-1.73v-1.26h1.73v-2.3h1.63Z"/><path class="cls-10" d="M895.96,313.59c0,1.45-.33,2.61-.99,3.5s-1.56,1.33-2.69,1.33-2.06-.37-2.72-1.1v4.58h-1.63v-13.17h1.49l.08,1.05c.66-.82,1.58-1.23,2.76-1.23s2.05,.43,2.71,1.29,1,2.06,1,3.59v.15Zm-1.63-.18c0-1.07-.23-1.92-.69-2.54s-1.08-.93-1.88-.93c-.98,0-1.72,.44-2.21,1.31v4.54c.49,.87,1.23,1.3,2.23,1.3,.78,0,1.4-.31,1.86-.93s.69-1.54,.69-2.75Z"/><path class="cls-10" d="M903.9,317.3c-.63,.74-1.56,1.12-2.79,1.12-1.01,0-1.79-.29-2.32-.88s-.8-1.46-.8-2.61v-6.19h1.63v6.14c0,1.44,.59,2.16,1.76,2.16,1.24,0,2.07-.46,2.48-1.39v-6.92h1.63v9.51h-1.55l-.04-.94Z"/><path class="cls-10" d="M910.15,306.43v2.3h1.78v1.26h-1.78v5.9c0,.38,.08,.67,.24,.86s.43,.29,.81,.29c.19,0,.45-.04,.77-.11v1.31c-.43,.12-.84,.17-1.25,.17-.73,0-1.27-.22-1.64-.66s-.55-1.06-.55-1.87v-5.9h-1.73v-1.26h1.73v-2.3h1.63Z"/><path class="cls-10" d="M923.82,315.72c0-.44-.17-.78-.5-1.02s-.91-.45-1.73-.63-1.48-.39-1.96-.63-.84-.54-1.07-.88-.35-.74-.35-1.21c0-.78,.33-1.44,.99-1.98s1.5-.81,2.53-.81c1.08,0,1.95,.28,2.62,.83s1.01,1.27,1.01,2.14h-1.63c0-.45-.19-.83-.57-1.15s-.85-.48-1.43-.48-1.05,.13-1.39,.39-.5,.59-.5,1.01c0,.39,.16,.69,.47,.89s.87,.39,1.68,.57,1.47,.4,1.97,.65,.88,.55,1.12,.91,.37,.79,.37,1.3c0,.85-.34,1.53-1.02,2.04s-1.56,.77-2.65,.77c-.76,0-1.44-.13-2.02-.4s-1.04-.65-1.38-1.13-.5-1.01-.5-1.57h1.63c.03,.54,.25,.98,.65,1.3s.95,.48,1.61,.48c.62,0,1.11-.12,1.48-.37s.56-.58,.56-1Z"/><path class="cls-10" d="M929.77,306.43v2.3h1.78v1.26h-1.78v5.9c0,.38,.08,.67,.24,.86s.43,.29,.81,.29c.19,0,.45-.04,.77-.11v1.31c-.43,.12-.84,.17-1.25,.17-.73,0-1.27-.22-1.64-.66s-.55-1.06-.55-1.87v-5.9h-1.73v-1.26h1.73v-2.3h1.63Z"/><path class="cls-10" d="M939.32,318.24c-.09-.19-.17-.52-.23-1-.76,.79-1.66,1.18-2.71,1.18-.94,0-1.71-.27-2.31-.8s-.9-1.2-.9-2.02c0-.99,.38-1.76,1.13-2.31s1.81-.82,3.18-.82h1.58v-.75c0-.57-.17-1.02-.51-1.36s-.84-.5-1.5-.5c-.58,0-1.07,.15-1.46,.44s-.59,.65-.59,1.06h-1.63c0-.47,.17-.93,.5-1.38s.79-.79,1.37-1.05,1.21-.39,1.9-.39c1.1,0,1.95,.27,2.58,.82s.94,1.3,.97,2.26v4.38c0,.87,.11,1.57,.33,2.08v.14h-1.71Zm-2.7-1.24c.51,0,.99-.13,1.45-.4s.79-.61,.99-1.03v-1.95h-1.27c-1.99,0-2.99,.58-2.99,1.75,0,.51,.17,.91,.51,1.2s.78,.43,1.31,.43Z"/><path class="cls-10" d="M942.85,313.41c0-1.48,.34-2.66,1.03-3.54s1.59-1.31,2.72-1.31,2.07,.41,2.72,1.23l.08-1.05h1.49v9.28c0,1.23-.37,2.2-1.09,2.91s-1.71,1.06-2.94,1.06c-.69,0-1.36-.15-2.01-.44s-1.16-.69-1.5-1.2l.84-.98c.7,.86,1.55,1.29,2.56,1.29,.79,0,1.41-.22,1.85-.67s.66-1.07,.66-1.88v-.82c-.65,.75-1.54,1.12-2.66,1.12s-2.01-.45-2.7-1.34-1.03-2.12-1.03-3.67Zm1.63,.18c0,1.07,.22,1.91,.66,2.53s1.05,.92,1.85,.92c1.03,0,1.78-.47,2.26-1.4v-4.34c-.5-.91-1.25-1.36-2.24-1.36-.79,0-1.41,.31-1.85,.92s-.67,1.53-.67,2.73Z"/><path class="cls-10" d="M957.28,318.42c-1.29,0-2.34-.42-3.15-1.27s-1.21-1.98-1.21-3.4v-.3c0-.94,.18-1.79,.54-2.53s.86-1.32,1.51-1.74,1.35-.63,2.11-.63c1.24,0,2.2,.41,2.88,1.22s1.03,1.98,1.03,3.5v.68h-6.44c.02,.94,.3,1.69,.82,2.27s1.19,.87,2,.87c.57,0,1.06-.12,1.46-.35s.75-.54,1.05-.93l.99,.77c-.8,1.22-1.99,1.84-3.59,1.84Zm-.2-8.53c-.66,0-1.21,.24-1.65,.72s-.72,1.15-.83,2.01h4.76v-.12c-.05-.83-.27-1.47-.67-1.92s-.94-.68-1.62-.68Z"/></g><g><path class="cls-10" d="M500.1,272.74h-3.01v5.18h-1.7v-12.8h4.24c1.44,0,2.55,.33,3.33,.98s1.17,1.61,1.17,2.87c0,.8-.22,1.49-.65,2.08s-1.03,1.03-1.8,1.33l3.01,5.43v.11h-1.81l-2.78-5.18Zm-3.01-1.38h2.59c.84,0,1.5-.22,2-.65,.5-.43,.74-1.02,.74-1.74,0-.79-.24-1.4-.71-1.82s-1.15-.64-2.04-.64h-2.58v4.86Z"/><path class="cls-10" d="M514.45,277.92h-8.38v-1.17l4.43-4.92c.66-.74,1.11-1.35,1.36-1.82s.37-.95,.37-1.45c0-.67-.2-1.22-.61-1.64s-.94-.64-1.62-.64c-.81,0-1.44,.23-1.89,.69s-.67,1.1-.67,1.92h-1.63c0-1.18,.38-2.13,1.14-2.86s1.77-1.09,3.05-1.09c1.19,0,2.13,.31,2.82,.94s1.04,1.46,1.04,2.49c0,1.26-.8,2.76-2.41,4.5l-3.43,3.72h6.42v1.33Z"/><path class="cls-10" d="M495.73,293.1l.65-6.38h6.56v1.5h-5.18l-.39,3.49c.63-.37,1.34-.55,2.14-.55,1.17,0,2.09,.39,2.78,1.16s1.03,1.81,1.03,3.12-.36,2.36-1.07,3.12-1.71,1.14-2.98,1.14c-1.13,0-2.05-.31-2.77-.94s-1.12-1.49-1.22-2.6h1.54c.1,.73,.36,1.29,.78,1.66s.98,.56,1.67,.56c.76,0,1.35-.26,1.78-.77s.65-1.23,.65-2.14c0-.86-.23-1.54-.7-2.06s-1.08-.78-1.86-.78c-.71,0-1.27,.16-1.67,.47l-.43,.35-1.3-.33Z"/><path class="cls-10" d="M507.91,295.12l-1.02,1.06v3.34h-1.63v-13.5h1.63v8.17l.87-1.05,2.96-3.13h1.98l-3.7,3.97,4.13,5.54h-1.91l-3.31-4.4Z"/><path class="cls-10" d="M519.63,298.1c.81-.16,1.44-.65,1.89-1.49s.69-1.94,.7-3.31v-1.18c0-1.35-.28-2.39-.85-3.11-.57-.72-1.35-1.08-2.34-1.08s-1.77,.37-2.33,1.1c-.56,.73-.84,1.77-.84,3.11v.99c0,1.41,.23,2.54,.69,3.41s1.12,1.38,1.96,1.55v1.42h-4.32v-1.38h1.94c-.62-.6-1.11-1.35-1.46-2.25s-.53-1.82-.53-2.77v-.98c0-1.09,.21-2.06,.62-2.92s.99-1.52,1.74-1.98,1.59-.7,2.53-.7,1.78,.23,2.52,.69,1.32,1.1,1.74,1.93,.63,1.78,.65,2.83v1.14c0,.94-.18,1.86-.53,2.76s-.84,1.65-1.46,2.25h1.93v1.38h-4.25v-1.42Z"/></g><g><path class="cls-10" d="M500.1,398.02h-3.01v5.18h-1.7v-12.8h4.24c1.44,0,2.55,.33,3.33,.98s1.17,1.61,1.17,2.87c0,.8-.22,1.49-.65,2.08s-1.03,1.03-1.8,1.33l3.01,5.43v.11h-1.81l-2.78-5.18Zm-3.01-1.38h2.59c.84,0,1.5-.22,2-.65,.5-.43,.74-1.02,.74-1.74,0-.79-.24-1.4-.71-1.82s-1.15-.64-2.04-.64h-2.58v4.86Z"/><path class="cls-10" d="M508.43,396.01h1.22c.77-.01,1.37-.21,1.81-.61s.66-.92,.66-1.59c0-1.5-.75-2.25-2.24-2.25-.7,0-1.26,.2-1.68,.6s-.63,.93-.63,1.6h-1.63c0-1.01,.37-1.86,1.11-2.53s1.68-1.01,2.83-1.01c1.21,0,2.15,.32,2.84,.96s1.03,1.53,1.03,2.66c0,.56-.18,1.1-.54,1.62s-.85,.91-1.47,1.17c.7,.22,1.25,.59,1.63,1.11s.58,1.15,.58,1.89c0,1.15-.38,2.06-1.12,2.73s-1.73,1.01-2.93,1.01-2.18-.33-2.93-.98-1.13-1.51-1.13-2.58h1.63c0,.67,.22,1.21,.66,1.62s1.03,.61,1.77,.61c.79,0,1.39-.21,1.8-.62s.62-1,.62-1.77-.23-1.32-.69-1.71-1.12-.6-1.98-.62h-1.22v-1.33Z"/><path class="cls-10" d="M495.73,418.38l.65-6.38h6.56v1.5h-5.18l-.39,3.49c.63-.37,1.34-.55,2.14-.55,1.17,0,2.09,.39,2.78,1.16s1.03,1.81,1.03,3.12-.36,2.36-1.07,3.12-1.71,1.14-2.98,1.14c-1.13,0-2.05-.31-2.77-.94s-1.12-1.49-1.22-2.6h1.54c.1,.73,.36,1.29,.78,1.66s.98,.56,1.67,.56c.76,0,1.35-.26,1.78-.77s.65-1.23,.65-2.14c0-.86-.23-1.54-.7-2.06s-1.08-.78-1.86-.78c-.71,0-1.27,.16-1.67,.47l-.43,.35-1.3-.33Z"/><path class="cls-10" d="M507.91,420.4l-1.02,1.06v3.34h-1.63v-13.5h1.63v8.17l.87-1.05,2.96-3.13h1.98l-3.7,3.97,4.13,5.54h-1.91l-3.31-4.4Z"/><path class="cls-10" d="M519.63,423.38c.81-.16,1.44-.65,1.89-1.49s.69-1.94,.7-3.31v-1.18c0-1.35-.28-2.39-.85-3.11-.57-.72-1.35-1.08-2.34-1.08s-1.77,.37-2.33,1.1c-.56,.73-.84,1.77-.84,3.11v.99c0,1.41,.23,2.54,.69,3.41s1.12,1.38,1.96,1.55v1.42h-4.32v-1.38h1.94c-.62-.6-1.11-1.35-1.46-2.25s-.53-1.82-.53-2.77v-.98c0-1.09,.21-2.06,.62-2.92s.99-1.52,1.74-1.98,1.59-.7,2.53-.7,1.78,.23,2.52,.69,1.32,1.1,1.74,1.93,.63,1.78,.65,2.83v1.14c0,.94-.18,1.86-.53,2.76s-.84,1.65-1.46,2.25h1.93v1.38h-4.25v-1.42Z"/></g><g><path class="cls-10" d="M534.63,237.6h-8.38v-1.17l4.43-4.92c.66-.74,1.11-1.35,1.36-1.81s.37-.95,.37-1.45c0-.67-.2-1.22-.61-1.64s-.94-.64-1.62-.64c-.81,0-1.44,.23-1.88,.69s-.67,1.1-.67,1.92h-1.63c0-1.18,.38-2.13,1.14-2.86s1.77-1.09,3.04-1.09c1.19,0,2.13,.31,2.82,.94s1.04,1.45,1.04,2.49c0,1.26-.8,2.76-2.41,4.5l-3.43,3.72h6.42v1.33Z"/><path class="cls-10" d="M536.84,238.7h-1.4l5.34-13.9h1.39l-5.33,13.9Z"/><path class="cls-10" d="M546.13,230.41h1.22c.77-.01,1.37-.21,1.81-.61s.66-.92,.66-1.59c0-1.5-.75-2.25-2.24-2.25-.7,0-1.26,.2-1.68,.6s-.63,.93-.63,1.6h-1.63c0-1.01,.37-1.86,1.11-2.53s1.68-1.01,2.83-1.01c1.21,0,2.15,.32,2.84,.96s1.03,1.53,1.03,2.66c0,.56-.18,1.1-.54,1.62s-.85,.91-1.47,1.17c.7,.22,1.25,.59,1.63,1.11s.58,1.15,.58,1.89c0,1.15-.38,2.06-1.12,2.73s-1.73,1.01-2.93,1.01-2.18-.33-2.93-.98-1.13-1.51-1.13-2.58h1.63c0,.67,.22,1.21,.66,1.62s1.03,.61,1.77,.61c.79,0,1.39-.21,1.8-.62s.62-1,.62-1.77-.23-1.32-.69-1.71-1.12-.6-1.98-.62h-1.22v-1.33Z"/><path class="cls-10" d="M562.99,235.36l3.66-10.56h1.85l-4.75,12.8h-1.49l-4.74-12.8h1.84l3.64,10.56Z"/><path class="cls-10" d="M575.99,234.89c-.11,.9-.44,1.6-1,2.09s-1.31,.74-2.24,.74c-1.01,0-1.82-.36-2.42-1.08s-.91-1.69-.91-2.9v-.82c0-.79,.14-1.49,.42-2.09s.68-1.06,1.2-1.39,1.12-.48,1.8-.48c.91,0,1.63,.25,2.18,.76s.87,1.21,.96,2.1h-1.13c-.1-.68-.31-1.18-.64-1.48s-.78-.46-1.37-.46c-.72,0-1.28,.27-1.69,.8-.41,.53-.61,1.29-.61,2.27v.83c0,.93,.19,1.66,.58,2.21s.93,.82,1.62,.82c.62,0,1.1-.14,1.44-.42s.56-.78,.67-1.48h1.13Z"/><path class="cls-10" d="M583.8,234.89c-.11,.9-.44,1.6-1,2.09s-1.31,.74-2.24,.74c-1.01,0-1.82-.36-2.42-1.08s-.91-1.69-.91-2.9v-.82c0-.79,.14-1.49,.42-2.09s.68-1.06,1.2-1.39,1.12-.48,1.8-.48c.91,0,1.63,.25,2.18,.76s.87,1.21,.96,2.1h-1.13c-.1-.68-.31-1.18-.64-1.48s-.78-.46-1.37-.46c-.72,0-1.28,.27-1.69,.8-.41,.53-.61,1.29-.61,2.27v.83c0,.93,.19,1.66,.58,2.21s.93,.82,1.62,.82c.62,0,1.1-.14,1.44-.42s.56-.78,.67-1.48h1.13Z"/></g><g><path class="cls-10" d="M531.59,324h-1.63v-10.84l-3.28,1.2v-1.48l4.66-1.75h.25v12.86Z"/><path class="cls-10" d="M536.84,325.1h-1.4l5.34-13.9h1.39l-5.33,13.9Z"/><path class="cls-10" d="M546.13,316.81h1.22c.77-.01,1.37-.21,1.81-.61s.66-.92,.66-1.59c0-1.5-.75-2.25-2.24-2.25-.7,0-1.26,.2-1.68,.6s-.63,.93-.63,1.6h-1.63c0-1.01,.37-1.86,1.11-2.53s1.68-1.01,2.83-1.01c1.21,0,2.15,.32,2.84,.96s1.03,1.53,1.03,2.66c0,.56-.18,1.1-.54,1.62s-.85,.91-1.47,1.17c.7,.22,1.25,.59,1.63,1.11s.58,1.15,.58,1.89c0,1.15-.38,2.06-1.12,2.73s-1.73,1.01-2.93,1.01-2.18-.33-2.93-.98-1.13-1.51-1.13-2.58h1.63c0,.67,.22,1.21,.66,1.62s1.03,.61,1.77,.61c.79,0,1.39-.21,1.8-.62s.62-1,.62-1.77-.23-1.32-.69-1.71-1.12-.6-1.98-.62h-1.22v-1.33Z"/><path class="cls-10" d="M562.99,321.76l3.66-10.56h1.85l-4.75,12.8h-1.49l-4.74-12.8h1.84l3.64,10.56Z"/><path class="cls-10" d="M575.99,321.29c-.11,.9-.44,1.6-1,2.09s-1.31,.74-2.24,.74c-1.01,0-1.82-.36-2.42-1.08s-.91-1.69-.91-2.9v-.82c0-.79,.14-1.49,.42-2.09s.68-1.06,1.2-1.39,1.12-.48,1.8-.48c.91,0,1.63,.25,2.18,.76s.87,1.21,.96,2.1h-1.13c-.1-.68-.31-1.18-.64-1.48s-.78-.46-1.37-.46c-.72,0-1.28,.27-1.69,.8-.41,.53-.61,1.29-.61,2.27v.83c0,.93,.19,1.66,.58,2.21,.39,.55,.93,.82,1.62,.82,.62,0,1.1-.14,1.44-.42s.56-.78,.67-1.48h1.13Z"/><path class="cls-10" d="M583.8,321.29c-.11,.9-.44,1.6-1,2.09s-1.31,.74-2.24,.74c-1.01,0-1.82-.36-2.42-1.08s-.91-1.69-.91-2.9v-.82c0-.79,.14-1.49,.42-2.09s.68-1.06,1.2-1.39,1.12-.48,1.8-.48c.91,0,1.63,.25,2.18,.76s.87,1.21,.96,2.1h-1.13c-.1-.68-.31-1.18-.64-1.48s-.78-.46-1.37-.46c-.72,0-1.28,.27-1.69,.8-.41,.53-.61,1.29-.61,2.27v.83c0,.93,.19,1.66,.58,2.21,.39,.55,.93,.82,1.62,.82,.62,0,1.1-.14,1.44-.42s.56-.78,.67-1.48h1.13Z"/></g></g><g id="Line"><line class="cls-1" x1="126.72" y1="154.08" x2="198.72" y2="154.08"/><line class="cls-1" x1="227.52" y1="154.08" x2="299.52" y2="154.08"/><path class="cls-1" d="M227.52,154.08c0,7.95-6.45,14.4-14.4,14.4s-14.4-6.45-14.4-14.4"/><rect class="cls-5" x="97.92" y="182.88" width="28.8" height="28.8"/><rect class="cls-5" x="97.92" y="240.48" width="28.8" height="28.8"/><rect class="cls-5" x="97.92" y="298.08" width="28.8" height="28.8"/><line class="cls-1" x1="126.72" y1="154.08" x2="126.72" y2="413.28"/><line class="cls-1" x1="126.72" y1="413.28" x2="299.52" y2="413.28"/><line class="cls-1" x1="299.52" y1="154.08" x2="299.52" y2="412.52"/><rect class="cls-5" x="97.92" y="355.68" width="28.8" height="28.8"/><rect class="cls-5" x="299.52" y="298.08" width="28.8" height="28.8"/><rect class="cls-5" x="299.52" y="355.68" width="28.8" height="28.8"/><rect class="cls-5" x="299.52" y="182.88" width="28.8" height="28.8"/><rect class="cls-5" x="299.52" y="240.48" width="28.8" height="28.8"/><line class="cls-5" x1="595.08" y1="182.88" x2="566.28" y2="182.88"/><line class="cls-5" x1="709.92" y1="211.68" x2="732.96" y2="211.68"/><g><line class="cls-5" x1="953.28" y1="355.68" x2="1006.37" y2="355.68"/><polygon class="cls-10" points="1001.4 361.81 1000.38 360.72 1005.8 355.68 1000.38 350.65 1001.4 349.55 1008 355.68 1001.4 361.81"/></g><line class="cls-5" x1="566.28" y1="74.88" x2="566.28" y2="182.88"/><g><line class="cls-5" x1="480.96" y1="112.32" x2="480.96" y2="84.88"/><polygon class="cls-10" points="485.73 93.75 484.32 94.26 480.96 85.03 477.6 94.26 476.19 93.75 480.96 80.64 485.73 93.75"/></g><line class="cls-5" x1="585" y1="240.48" x2="410.4" y2="240.48"/><line class="cls-5" x1="595.08" y1="326.88" x2="480.96" y2="326.88"/><line class="cls-5" x1="585" y1="384.48" x2="551.88" y2="384.48"/><rect class="cls-5" x="456.48" y="162.72" width="48.96" height="17.28" transform="translate(309.6 652.32) rotate(-90)"/><line class="cls-5" x1="480.96" y1="195.84" x2="480.96" y2="259.2"/><line class="cls-5" x1="480.96" y1="308.16" x2="480.96" y2="380.16"/><rect class="cls-4" x="753.12" y="286.56" width="86.4" height="90.72"/><polygon class="cls-4" points="940.32 355.68 882.72 326.88 882.72 384.48 940.32 355.68"/><line class="cls-5" x1="480.96" y1="506.88" x2="480.96" y2="429.12"/><line class="cls-5" x1="480.96" y1="146.88" x2="480.96" y2="102.24"/><line class="cls-5" x1="753.12" y1="305.28" x2="732.96" y2="305.28"/><line class="cls-5" x1="732.96" y1="211.68" x2="732.96" y2="305.28"/><line class="cls-5" x1="753.12" y1="355.68" x2="709.92" y2="355.68"/><polygon class="cls-4" points="710.28 211.68 595.08 154.08 595.08 269.28 710.28 211.68"/><polygon class="cls-4" points="710.28 355.68 595.08 298.08 595.08 413.28 710.28 355.68"/><line class="cls-5" x1="839.52" y1="355.68" x2="882.72" y2="355.68"/><circle class="cls-6" cx="947.52" cy="355.68" r="5.76"/><line class="cls-5" x1="816.48" y1="347.04" x2="828" y2="347.04"/><polygon class="cls-5" points="480.96 522.72 493.92 506.88 468 506.88 480.96 522.72"/><line class="cls-5" x1="480.96" y1="126.72" x2="480.96" y2="103.68"/><line class="cls-4" x1="846.72" y1="436.32" x2="875.52" y2="436.32"/><line class="cls-5" x1="861.12" y1="436.32" x2="861.12" y2="421.92"/><line class="cls-5" x1="856.8" y1="436.32" x2="845.28" y2="450.72"/><line class="cls-5" x1="865.44" y1="436.32" x2="876.96" y2="450.72"/><g><line class="cls-9" x1="856.8" y1="436.32" x2="853.28" y2="440.72"/><polygon class="cls-10" points="851.79 438.59 851.04 443.52 855.69 441.71 851.79 438.59"/></g><line class="cls-5" x1="861.12" y1="436.32" x2="861.12" y2="355.68"/><line class="cls-5" x1="876.96" y1="450.72" x2="1005.12" y2="450.72"/><line class="cls-5" x1="480.96" y1="450.72" x2="845.28" y2="450.72"/><line class="cls-5" x1="820.8" y1="276.48" x2="820.8" y2="100.8"/><g><polyline class="cls-8" points="972 474.7 972 476.64 970.06 476.64"/><line class="cls-7" x1="966.21" y1="476.64" x2="435.87" y2="476.64"/><polyline class="cls-8" points="433.94 476.64 432 476.64 432 474.7"/><line class="cls-3" x1="432" y1="470.79" x2="432" y2="136.37"/><polyline class="cls-8" points="432 134.42 432 132.48 433.94 132.48"/><line class="cls-7" x1="437.79" y1="132.48" x2="968.14" y2="132.48"/><polyline class="cls-8" points="970.06 132.48 972 132.48 972 134.42"/><line class="cls-3" x1="972" y1="138.33" x2="972" y2="472.75"/></g><rect class="cls-5" x="456.48" y="275.04" width="48.96" height="17.28" transform="translate(197.28 764.64) rotate(-90)"/><rect class="cls-5" x="456.48" y="396" width="48.96" height="17.28" transform="translate(76.32 885.6) rotate(-90)"/><line class="cls-5" x1="551.88" y1="384.48" x2="551.88" y2="522.72"/><circle class="cls-5" cx="820.8" cy="280.8" r="4.32"/><circle class="cls-5" cx="589.32" cy="240.48" r="4.32"/><circle class="cls-5" cx="589.32" cy="384.48" r="4.32"/></g><g id="Field"><circle class="cls-2" cx="480.96" cy="240.48" r="1.44"/><circle class="cls-2" cx="480.96" cy="326.88" r="1.44"/><circle class="cls-2" cx="480.96" cy="450.72" r="1.44"/><circle class="cls-2" cx="861.12" cy="355.68" r="1.44"/></g></svg>