<?xml version="1.0" encoding="UTF-8"?><svg xmlns="http://www.w3.org/2000/svg" viewBox="0 0 1080 600.48"><defs><style>.cls-1{fill:#1d1e1b;}.cls-2,.cls-3{fill:none;stroke:#1d1e1b;stroke-miterlimit:10;}.cls-3{stroke-width:.25px;}</style></defs><g id="TEXT_Vector"><g><path class="cls-1" d="M68.42,241.91l-.92-.63c.54-.76,.83-1.56,.84-2.41v-1.27h1.61v1.14c0,.59-.15,1.17-.44,1.75s-.65,1.05-1.09,1.41Zm2.7,0l-.92-.63c.54-.76,.83-1.56,.84-2.41v-1.27h1.61v1.14c0,.59-.15,1.17-.44,1.75s-.65,1.05-1.09,1.41Z"/><path class="cls-1" d="M84.65,245.11c0,1.24-.2,2.3-.59,3.19s-.94,1.59-1.65,2.1l2.29,1.79-1.15,1.06-2.7-2.14c-.42,.11-.87,.16-1.34,.16-1.01,0-1.9-.25-2.68-.74s-1.38-1.2-1.81-2.12-.65-1.98-.66-3.19v-.92c0-1.23,.21-2.32,.64-3.26s1.03-1.67,1.81-2.17,1.68-.75,2.69-.75,1.94,.25,2.72,.75,1.38,1.21,1.81,2.15,.63,2.03,.63,3.27v.82Zm-1.69-.83c0-1.51-.3-2.67-.9-3.48s-1.46-1.23-2.57-1.23-1.9,.41-2.51,1.22-.93,1.94-.94,3.38v.94c0,1.46,.31,2.62,.92,3.46s1.46,1.27,2.55,1.27,1.93-.4,2.53-1.19,.91-1.93,.92-3.41v-.95Z"/><path class="cls-1" d="M95.22,251.1h-8.38v-1.17l4.43-4.92c.66-.74,1.11-1.35,1.36-1.81s.37-.95,.37-1.45c0-.67-.2-1.22-.61-1.64s-.94-.64-1.62-.64c-.81,0-1.44,.23-1.89,.69s-.67,1.1-.67,1.92h-1.63c0-1.18,.38-2.13,1.14-2.86s1.77-1.09,3.05-1.09c1.19,0,2.13,.31,2.82,.94s1.04,1.45,1.04,2.49c0,1.26-.8,2.76-2.41,4.5l-3.43,3.72h6.42v1.33Z"/><path class="cls-1" d="M98.32,237.43l.93,.63c-.54,.74-.83,1.55-.84,2.41v1.2h-1.62v-1.02c0-.6,.14-1.19,.43-1.78s.65-1.07,1.1-1.44Zm2.77,0l.93,.63c-.54,.74-.83,1.55-.84,2.41v1.2h-1.62v-1.02c0-.6,.14-1.19,.43-1.78s.65-1.07,1.1-1.44Z"/></g><g><path class="cls-1" d="M69.47,280.63l.93,.63c-.54,.74-.83,1.55-.84,2.41v1.2h-1.62v-1.02c0-.6,.14-1.19,.43-1.78s.65-1.07,1.1-1.44Zm2.77,0l.93,.63c-.54,.74-.83,1.55-.84,2.41v1.2h-1.62v-1.02c0-.6,.14-1.19,.43-1.78s.65-1.07,1.1-1.44Z"/><path class="cls-1" d="M84.65,288.31c0,1.24-.2,2.3-.59,3.19s-.94,1.59-1.65,2.1l2.29,1.79-1.15,1.06-2.7-2.14c-.42,.11-.87,.16-1.34,.16-1.01,0-1.9-.25-2.68-.74s-1.38-1.2-1.81-2.12-.65-1.98-.66-3.19v-.92c0-1.23,.21-2.32,.64-3.26s1.03-1.67,1.81-2.17,1.68-.75,2.69-.75,1.94,.25,2.72,.75,1.38,1.21,1.81,2.15,.63,2.03,.63,3.27v.82Zm-1.69-.83c0-1.51-.3-2.67-.9-3.49s-1.46-1.23-2.57-1.23-1.9,.41-2.51,1.22-.93,1.94-.94,3.38v.94c0,1.46,.31,2.62,.92,3.46s1.46,1.27,2.55,1.27,1.93-.4,2.53-1.19,.91-1.93,.92-3.41v-.95Z"/><path class="cls-1" d="M89.2,287.11h1.22c.77-.01,1.37-.21,1.81-.61s.66-.92,.66-1.59c0-1.5-.75-2.25-2.24-2.25-.7,0-1.26,.2-1.68,.6s-.63,.93-.63,1.6h-1.63c0-1.01,.37-1.86,1.11-2.53s1.68-1.01,2.83-1.01c1.21,0,2.15,.32,2.84,.96s1.03,1.53,1.03,2.66c0,.56-.18,1.1-.54,1.62s-.85,.91-1.47,1.17c.7,.22,1.25,.59,1.63,1.11s.58,1.15,.58,1.89c0,1.15-.38,2.06-1.12,2.73s-1.73,1.01-2.93,1.01-2.18-.33-2.93-.98-1.13-1.51-1.13-2.58h1.63c0,.67,.22,1.21,.66,1.62s1.03,.61,1.77,.61c.79,0,1.39-.21,1.8-.62s.62-1,.62-1.77-.23-1.32-.69-1.71-1.12-.6-1.98-.62h-1.22v-1.33Z"/><path class="cls-1" d="M98.32,280.63l.93,.63c-.54,.74-.83,1.55-.84,2.41v1.2h-1.62v-1.02c0-.6,.14-1.19,.43-1.78s.65-1.07,1.1-1.44Zm2.77,0l.93,.63c-.54,.74-.83,1.55-.84,2.41v1.2h-1.62v-1.02c0-.6,.14-1.19,.43-1.78s.65-1.07,1.1-1.44Z"/></g><g><path class="cls-1" d="M69.47,323.83l.93,.63c-.54,.74-.83,1.55-.84,2.41v1.2h-1.62v-1.02c0-.6,.14-1.19,.43-1.78s.65-1.07,1.1-1.44Zm2.77,0l.93,.63c-.54,.74-.83,1.55-.84,2.41v1.2h-1.62v-1.02c0-.6,.14-1.19,.43-1.78s.65-1.07,1.1-1.44Z"/><path class="cls-1" d="M84.65,331.52c0,1.24-.2,2.3-.59,3.2s-.94,1.59-1.65,2.1l2.29,1.79-1.15,1.06-2.7-2.14c-.42,.11-.87,.16-1.34,.16-1.01,0-1.9-.25-2.68-.74s-1.38-1.2-1.81-2.12-.65-1.98-.66-3.19v-.92c0-1.23,.21-2.32,.64-3.26s1.03-1.67,1.81-2.17,1.68-.75,2.69-.75,1.94,.25,2.72,.75,1.38,1.21,1.81,2.15,.63,2.03,.63,3.27v.82Zm-1.69-.83c0-1.51-.3-2.67-.9-3.48s-1.46-1.23-2.57-1.23-1.9,.41-2.51,1.22-.93,1.94-.94,3.38v.94c0,1.46,.31,2.62,.92,3.46s1.46,1.27,2.55,1.27,1.93-.4,2.53-1.19,.91-1.93,.92-3.42v-.95Z"/><path class="cls-1" d="M93.7,333.2h1.78v1.33h-1.78v2.97h-1.63v-2.97h-5.83v-.96l5.73-8.87h1.73v8.5Zm-5.62,0h3.98v-6.28l-.19,.35-3.79,5.92Z"/><path class="cls-1" d="M98.32,323.83l.93,.63c-.54,.74-.83,1.55-.84,2.41v1.2h-1.62v-1.02c0-.6,.14-1.19,.43-1.78s.65-1.07,1.1-1.44Zm2.77,0l.93,.63c-.54,.74-.83,1.55-.84,2.41v1.2h-1.62v-1.02c0-.6,.14-1.19,.43-1.78s.65-1.07,1.1-1.44Z"/></g><g><path class="cls-1" d="M69.47,367.03l.93,.63c-.54,.74-.83,1.55-.84,2.41v1.2h-1.62v-1.02c0-.6,.14-1.19,.43-1.78s.65-1.07,1.1-1.44Zm2.77,0l.93,.63c-.54,.74-.83,1.55-.84,2.41v1.2h-1.62v-1.02c0-.6,.14-1.19,.43-1.78s.65-1.07,1.1-1.44Z"/><path class="cls-1" d="M84.65,374.71c0,1.24-.2,2.3-.59,3.19s-.94,1.59-1.65,2.1l2.29,1.79-1.15,1.06-2.7-2.14c-.42,.11-.87,.16-1.34,.16-1.01,0-1.9-.25-2.68-.74s-1.38-1.2-1.81-2.12-.65-1.98-.66-3.19v-.92c0-1.23,.21-2.32,.64-3.26s1.03-1.67,1.81-2.17,1.68-.75,2.69-.75,1.94,.25,2.72,.75,1.38,1.21,1.81,2.15,.63,2.03,.63,3.27v.82Zm-1.69-.83c0-1.51-.3-2.67-.9-3.49s-1.46-1.23-2.57-1.23-1.9,.41-2.51,1.22-.93,1.94-.94,3.38v.94c0,1.46,.31,2.62,.92,3.46s1.46,1.27,2.55,1.27,1.93-.4,2.53-1.19,.91-1.93,.92-3.41v-.95Z"/><path class="cls-1" d="M87.58,374.28l.65-6.38h6.56v1.5h-5.18l-.39,3.49c.63-.37,1.34-.55,2.14-.55,1.17,0,2.09,.38,2.78,1.16s1.03,1.81,1.03,3.12-.36,2.36-1.07,3.12-1.71,1.14-2.98,1.14c-1.13,0-2.05-.31-2.77-.94s-1.12-1.49-1.22-2.6h1.54c.1,.73,.36,1.28,.78,1.66s.98,.56,1.67,.56c.76,0,1.35-.26,1.78-.77s.65-1.23,.65-2.14c0-.86-.23-1.54-.7-2.06s-1.09-.78-1.86-.78c-.71,0-1.27,.16-1.67,.47l-.43,.35-1.3-.33Z"/><path class="cls-1" d="M98.32,367.03l.93,.63c-.54,.74-.83,1.55-.84,2.41v1.2h-1.62v-1.02c0-.6,.14-1.19,.43-1.78s.65-1.07,1.1-1.44Zm2.77,0l.93,.63c-.54,.74-.83,1.55-.84,2.41v1.2h-1.62v-1.02c0-.6,.14-1.19,.43-1.78s.65-1.07,1.1-1.44Z"/></g><g><path class="cls-1" d="M69.47,410.23l.93,.63c-.54,.74-.83,1.55-.84,2.41v1.2h-1.62v-1.02c0-.6,.14-1.19,.43-1.78s.65-1.07,1.1-1.44Zm2.77,0l.93,.63c-.54,.74-.83,1.55-.84,2.41v1.2h-1.62v-1.02c0-.6,.14-1.19,.43-1.78s.65-1.07,1.1-1.44Z"/><path class="cls-1" d="M84.65,417.91c0,1.24-.2,2.3-.59,3.19s-.94,1.59-1.65,2.1l2.29,1.79-1.15,1.06-2.7-2.14c-.42,.11-.87,.16-1.34,.16-1.01,0-1.9-.25-2.68-.74s-1.38-1.2-1.81-2.12-.65-1.98-.66-3.19v-.92c0-1.23,.21-2.32,.64-3.26s1.03-1.67,1.81-2.17,1.68-.75,2.69-.75,1.94,.25,2.72,.75,1.38,1.21,1.81,2.15,.63,2.03,.63,3.27v.82Zm-1.69-.83c0-1.51-.3-2.67-.9-3.49s-1.46-1.23-2.57-1.23-1.9,.41-2.51,1.22-.93,1.94-.94,3.38v.94c0,1.46,.31,2.62,.92,3.46s1.46,1.27,2.55,1.27,1.93-.4,2.53-1.19,.91-1.93,.92-3.41v-.95Z"/><path class="cls-1" d="M93.21,411.09v1.38h-.3c-1.27,.02-2.27,.4-3.02,1.12s-1.18,1.75-1.3,3.07c.67-.77,1.59-1.16,2.76-1.16s2,.39,2.67,1.18,1,1.8,1,3.04c0,1.32-.36,2.37-1.08,3.16s-1.68,1.19-2.89,1.19-2.22-.47-2.98-1.41-1.14-2.15-1.14-3.63v-.62c0-2.36,.5-4.16,1.51-5.4s2.5-1.88,4.49-1.91h.29Zm-2.14,5.77c-.56,0-1.07,.17-1.54,.5s-.79,.75-.98,1.26v.6c0,1.05,.24,1.9,.71,2.55s1.07,.97,1.78,.97,1.31-.27,1.73-.81,.63-1.25,.63-2.12-.21-1.59-.64-2.13-.99-.81-1.69-.81Z"/><path class="cls-1" d="M98.32,410.23l.93,.63c-.54,.74-.83,1.55-.84,2.41v1.2h-1.62v-1.02c0-.6,.14-1.19,.43-1.78s.65-1.07,1.1-1.44Zm2.77,0l.93,.63c-.54,.74-.83,1.55-.84,2.41v1.2h-1.62v-1.02c0-.6,.14-1.19,.43-1.78s.65-1.07,1.1-1.44Z"/></g><g><path class="cls-1" d="M69.47,453.43l.93,.63c-.54,.74-.83,1.55-.84,2.41v1.2h-1.62v-1.02c0-.6,.14-1.19,.43-1.78s.65-1.07,1.1-1.44Zm2.77,0l.93,.63c-.54,.74-.83,1.55-.84,2.41v1.2h-1.62v-1.02c0-.6,.14-1.19,.43-1.78s.65-1.07,1.1-1.44Z"/><path class="cls-1" d="M84.65,461.11c0,1.24-.2,2.3-.59,3.19-.39,.89-.94,1.59-1.65,2.1l2.29,1.79-1.15,1.06-2.7-2.14c-.42,.11-.87,.16-1.34,.16-1.01,0-1.9-.25-2.68-.74-.78-.5-1.38-1.2-1.81-2.12-.43-.92-.65-1.98-.66-3.19v-.92c0-1.23,.21-2.32,.64-3.26s1.03-1.67,1.81-2.17c.78-.5,1.68-.75,2.69-.75s1.94,.25,2.72,.75,1.38,1.21,1.81,2.15c.42,.93,.63,2.03,.63,3.27v.82Zm-1.69-.83c0-1.51-.3-2.67-.9-3.49-.6-.82-1.46-1.23-2.57-1.23s-1.9,.41-2.51,1.22c-.61,.81-.93,1.94-.94,3.38v.94c0,1.46,.31,2.62,.92,3.46s1.46,1.27,2.55,1.27,1.93-.4,2.53-1.19c.6-.79,.91-1.93,.92-3.42v-.95Z"/><path class="cls-1" d="M95.09,455.22l-5.3,11.88h-1.71l5.28-11.46h-6.93v-1.34h8.65v.91Z"/><path class="cls-1" d="M98.32,453.43l.93,.63c-.54,.74-.83,1.55-.84,2.41v1.2h-1.62v-1.02c0-.6,.14-1.19,.43-1.78s.65-1.07,1.1-1.44Zm2.77,0l.93,.63c-.54,.74-.83,1.55-.84,2.41v1.2h-1.62v-1.02c0-.6,.14-1.19,.43-1.78s.65-1.07,1.1-1.44Z"/></g><g><path class="cls-1" d="M52.66,137.34h-1.69v-12.8h1.69v12.8Z"/><path class="cls-1" d="M57.03,127.83l.05,1.2c.73-.91,1.68-1.37,2.85-1.37,2.01,0,3.02,1.13,3.04,3.4v6.28h-1.63v-6.29c0-.69-.16-1.19-.47-1.52s-.79-.49-1.44-.49c-.53,0-.99,.14-1.39,.42s-.71,.65-.93,1.11v6.78h-1.63v-9.51h1.54Z"/><path class="cls-1" d="M73.46,132.69c0,1.45-.33,2.61-.99,3.5s-1.56,1.33-2.69,1.33-2.06-.37-2.72-1.1v4.58h-1.63v-13.17h1.49l.08,1.05c.66-.82,1.58-1.23,2.76-1.23s2.05,.43,2.71,1.29,1,2.06,1,3.59v.15Zm-1.63-.18c0-1.07-.23-1.92-.69-2.54s-1.08-.93-1.88-.93c-.98,0-1.72,.44-2.21,1.31v4.54c.49,.87,1.23,1.3,2.23,1.3,.78,0,1.4-.31,1.86-.93s.69-1.54,.69-2.76Z"/><path class="cls-1" d="M81.39,136.4c-.63,.74-1.56,1.12-2.79,1.12-1.01,0-1.79-.29-2.32-.88s-.8-1.46-.8-2.61v-6.19h1.63v6.14c0,1.44,.59,2.16,1.76,2.16,1.24,0,2.07-.46,2.48-1.39v-6.92h1.63v9.51h-1.55l-.04-.94Z"/><path class="cls-1" d="M87.65,125.53v2.3h1.78v1.26h-1.78v5.9c0,.38,.08,.67,.24,.86,.16,.19,.43,.29,.81,.29,.19,0,.45-.04,.77-.11v1.31c-.43,.12-.84,.17-1.25,.17-.73,0-1.27-.22-1.64-.66s-.55-1.06-.55-1.87v-5.9h-1.73v-1.26h1.73v-2.3h1.63Z"/><path class="cls-1" d="M96.58,137.34v-8.25h-1.5v-1.26h1.5v-.98c0-1.02,.27-1.81,.82-2.36s1.32-.83,2.31-.83c.38,0,.75,.05,1.12,.15l-.09,1.31c-.28-.05-.57-.08-.88-.08-.53,0-.93,.15-1.22,.46s-.43,.75-.43,1.33v1h2.03v1.26h-2.03v8.25h-1.63Z"/></g><path class="cls-1" d="M113.91,217.74h3.03v.69h-3.88v-6.4h.85v5.71Z"/><path class="cls-1" d="M117.98,191.07h-.85v-2.96h-3.23v2.96h-.84v-6.4h.84v2.75h3.23v-2.75h.85v6.4Z"/><path class="cls-1" d="M113.91,259.5h3.03v.69h-3.88v-6.4h.85v5.71Z"/><path class="cls-1" d="M117.98,232.83h-.85v-2.96h-3.23v2.96h-.84v-6.4h.84v2.75h3.23v-2.75h.85v6.4Z"/><path class="cls-1" d="M113.91,304.14h3.03v.69h-3.88v-6.4h.85v5.71Z"/><path class="cls-1" d="M117.98,277.47h-.85v-2.96h-3.23v2.96h-.84v-6.4h.84v2.75h3.23v-2.75h.85v6.4Z"/><path class="cls-1" d="M113.91,345.9h3.03v.69h-3.88v-6.4h.85v5.71Z"/><path class="cls-1" d="M117.98,319.23h-.85v-2.96h-3.23v2.96h-.84v-6.4h.84v2.75h3.23v-2.75h.85v6.4Z"/><path class="cls-1" d="M113.91,389.1h3.03v.69h-3.88v-6.4h.85v5.71Z"/><path class="cls-1" d="M117.98,362.43h-.85v-2.96h-3.23v2.96h-.84v-6.4h.84v2.75h3.23v-2.75h.85v6.4Z"/><path class="cls-1" d="M113.91,430.86h3.03v.69h-3.88v-6.4h.85v5.71Z"/><path class="cls-1" d="M117.98,404.19h-.85v-2.96h-3.23v2.96h-.84v-6.4h.84v2.75h3.23v-2.75h.85v6.4Z"/><path class="cls-1" d="M113.91,147.18h3.03v.69h-3.88v-6.4h.85v5.71Z"/><path class="cls-1" d="M117.98,120.51h-.85v-2.96h-3.23v2.96h-.84v-6.4h.84v2.75h3.23v-2.75h.85v6.4Z"/><g><path class="cls-1" d="M68.42,198.71l-.92-.63c.54-.76,.83-1.56,.84-2.41v-1.27h1.61v1.14c0,.59-.15,1.17-.44,1.75s-.65,1.05-1.09,1.41Zm2.7,0l-.92-.63c.54-.76,.83-1.56,.84-2.41v-1.27h1.61v1.14c0,.59-.15,1.17-.44,1.75s-.65,1.05-1.09,1.41Z"/><path class="cls-1" d="M84.65,201.91c0,1.24-.2,2.3-.59,3.19s-.94,1.59-1.65,2.1l2.29,1.79-1.15,1.06-2.7-2.14c-.42,.11-.87,.16-1.34,.16-1.01,0-1.9-.25-2.68-.74s-1.38-1.2-1.81-2.12-.65-1.98-.66-3.19v-.92c0-1.23,.21-2.32,.64-3.26s1.03-1.67,1.81-2.17,1.68-.75,2.69-.75,1.94,.25,2.72,.75,1.38,1.21,1.81,2.15,.63,2.03,.63,3.27v.82Zm-1.69-.83c0-1.51-.3-2.67-.9-3.48s-1.46-1.23-2.57-1.23-1.9,.41-2.51,1.22-.93,1.94-.94,3.38v.94c0,1.46,.31,2.62,.92,3.46s1.46,1.27,2.55,1.27,1.93-.4,2.53-1.19,.91-1.93,.92-3.41v-.95Z"/><path class="cls-1" d="M92.18,207.9h-1.63v-10.84l-3.28,1.2v-1.48l4.66-1.75h.25v12.86Z"/><path class="cls-1" d="M98.32,194.23l.93,.63c-.54,.74-.83,1.55-.84,2.41v1.2h-1.62v-1.02c0-.6,.14-1.19,.43-1.78s.65-1.07,1.1-1.44Zm2.77,0l.93,.63c-.54,.74-.83,1.55-.84,2.41v1.2h-1.62v-1.02c0-.6,.14-1.19,.43-1.78s.65-1.07,1.1-1.44Z"/></g><path class="cls-1" d="M113.91,474.06h3.03v.69h-3.88v-6.4h.85v5.71Z"/><path class="cls-1" d="M117.98,447.39h-.85v-2.96h-3.23v2.96h-.84v-6.4h.84v2.75h3.23v-2.75h.85v6.4Z"/><g><path class="cls-1" d="M28.04,251.1h-1.63v-10.84l-3.28,1.2v-1.48l4.66-1.75h.25v12.86Z"/><path class="cls-1" d="M33.29,252.2h-1.4l5.34-13.9h1.39l-5.33,13.9Z"/><path class="cls-1" d="M47.08,246.8h1.78v1.33h-1.78v2.97h-1.63v-2.97h-5.83v-.96l5.73-8.87h1.73v8.5Zm-5.62,0h3.98v-6.28l-.19,.35-3.79,5.92Z"/><path class="cls-1" d="M55.75,251.1v-8.25h-1.5v-1.26h1.5v-.98c0-1.02,.27-1.81,.82-2.36s1.32-.83,2.31-.83c.38,0,.75,.05,1.12,.15l-.09,1.31c-.28-.05-.57-.08-.88-.08-.53,0-.93,.15-1.22,.46s-.43,.75-.43,1.33v1h2.03v1.26h-2.03v8.25h-1.63Z"/></g><g><path class="cls-1" d="M28.04,294.3h-1.63v-10.84l-3.28,1.2v-1.48l4.66-1.75h.25v12.86Z"/><path class="cls-1" d="M33.29,295.4h-1.4l5.34-13.9h1.39l-5.33,13.9Z"/><path class="cls-1" d="M47.98,284.84c0,.64-.17,1.21-.51,1.71s-.79,.89-1.37,1.17c.67,.29,1.2,.71,1.59,1.26s.58,1.17,.58,1.87c0,1.11-.37,1.99-1.12,2.65s-1.73,.98-2.95,.98-2.22-.33-2.96-.99-1.11-1.54-1.11-2.64c0-.69,.19-1.32,.57-1.87s.9-.98,1.57-1.27c-.57-.28-1.02-.67-1.34-1.17s-.49-1.06-.49-1.7c0-1.08,.35-1.93,1.04-2.57s1.6-.95,2.73-.95,2.03,.32,2.73,.95,1.04,1.49,1.04,2.57Zm-1.33,5.97c0-.71-.23-1.3-.68-1.75s-1.05-.68-1.78-.68-1.32,.22-1.76,.67-.66,1.03-.66,1.76,.22,1.3,.65,1.71,1.03,.62,1.8,.62,1.36-.21,1.79-.63,.65-.99,.65-1.71Zm-2.44-8.15c-.64,0-1.16,.2-1.55,.59s-.59,.93-.59,1.61,.19,1.18,.58,1.58,.91,.6,1.56,.6,1.17-.2,1.56-.6,.58-.93,.58-1.58-.2-1.18-.61-1.59-.92-.62-1.54-.62Z"/><path class="cls-1" d="M55.75,294.3v-8.25h-1.5v-1.26h1.5v-.98c0-1.02,.27-1.81,.82-2.36s1.32-.83,2.31-.83c.38,0,.75,.05,1.12,.15l-.09,1.31c-.28-.05-.57-.08-.88-.08-.53,0-.93,.15-1.22,.46s-.43,.75-.43,1.33v1h2.03v1.26h-2.03v8.25h-1.63Z"/></g><g><path class="cls-1" d="M17.93,337.5h-1.63v-10.84l-3.28,1.2v-1.48l4.66-1.75h.25v12.86Z"/><path class="cls-1" d="M23.19,338.6h-1.4l5.34-13.9h1.39l-5.33,13.9Z"/><path class="cls-1" d="M35.45,337.5h-1.63v-10.84l-3.28,1.2v-1.48l4.66-1.75h.25v12.86Z"/><path class="cls-1" d="M46.6,324.69v1.38h-.3c-1.27,.02-2.27,.4-3.02,1.12s-1.18,1.75-1.3,3.07c.67-.77,1.59-1.16,2.76-1.16s2,.39,2.67,1.18,1,1.8,1,3.04c0,1.32-.36,2.37-1.08,3.16s-1.68,1.19-2.89,1.19-2.22-.47-2.98-1.41-1.14-2.15-1.14-3.63v-.62c0-2.36,.5-4.16,1.51-5.4s2.5-1.88,4.49-1.91h.29Zm-2.14,5.77c-.56,0-1.07,.17-1.54,.5s-.79,.75-.98,1.26v.6c0,1.05,.24,1.9,.71,2.55s1.07,.97,1.78,.97,1.31-.27,1.73-.81,.63-1.25,.63-2.12-.21-1.59-.64-2.13-.99-.81-1.69-.81Z"/><path class="cls-1" d="M55.75,337.5v-8.25h-1.5v-1.26h1.5v-.98c0-1.02,.27-1.81,.82-2.36s1.32-.83,2.31-.83c.38,0,.75,.05,1.12,.15l-.09,1.31c-.28-.05-.57-.08-.88-.08-.53,0-.93,.15-1.22,.46s-.43,.75-.43,1.33v1h2.03v1.26h-2.03v8.25h-1.63Z"/></g><g><path class="cls-1" d="M17.93,380.7h-1.63v-10.84l-3.28,1.2v-1.48l4.66-1.75h.25v12.86Z"/><path class="cls-1" d="M23.19,381.8h-1.4l5.34-13.9h1.39l-5.33,13.9Z"/><path class="cls-1" d="M32.48,373.51h1.22c.77-.01,1.37-.21,1.81-.61s.66-.92,.66-1.59c0-1.5-.75-2.25-2.24-2.25-.7,0-1.26,.2-1.68,.6s-.63,.93-.63,1.6h-1.63c0-1.01,.37-1.86,1.11-2.53s1.68-1.01,2.83-1.01c1.21,0,2.15,.32,2.84,.96s1.03,1.53,1.03,2.66c0,.56-.18,1.1-.54,1.62s-.85,.91-1.47,1.17c.7,.22,1.25,.59,1.63,1.11s.58,1.15,.58,1.89c0,1.15-.38,2.06-1.12,2.73s-1.73,1.01-2.93,1.01-2.18-.33-2.93-.98-1.13-1.51-1.13-2.58h1.63c0,.67,.22,1.21,.66,1.62s1.03,.61,1.77,.61c.79,0,1.39-.21,1.8-.62s.62-1,.62-1.77-.23-1.32-.69-1.71-1.12-.6-1.98-.62h-1.22v-1.33Z"/><path class="cls-1" d="M48.6,380.7h-8.38v-1.17l4.43-4.92c.66-.74,1.11-1.35,1.36-1.82s.37-.95,.37-1.45c0-.67-.2-1.22-.61-1.64s-.94-.64-1.62-.64c-.81,0-1.44,.23-1.89,.69s-.67,1.1-.67,1.92h-1.63c0-1.18,.38-2.13,1.14-2.86s1.77-1.09,3.05-1.09c1.19,0,2.13,.31,2.82,.94s1.04,1.46,1.04,2.49c0,1.26-.8,2.76-2.41,4.5l-3.43,3.72h6.42v1.33Z"/><path class="cls-1" d="M55.75,380.7v-8.25h-1.5v-1.26h1.5v-.98c0-1.02,.27-1.81,.82-2.36s1.32-.83,2.31-.83c.38,0,.75,.05,1.12,.15l-.09,1.31c-.28-.05-.57-.08-.88-.08-.53,0-.93,.15-1.22,.46s-.43,.75-.43,1.33v1h2.03v1.26h-2.03v8.25h-1.63Z"/></g><g><path class="cls-1" d="M17.93,423.9h-1.63v-10.84l-3.28,1.2v-1.48l4.66-1.75h.25v12.86Z"/><path class="cls-1" d="M23.19,425h-1.4l5.34-13.9h1.39l-5.33,13.9Z"/><path class="cls-1" d="M36.49,411.09v1.38h-.3c-1.27,.02-2.27,.4-3.02,1.12s-1.18,1.75-1.3,3.07c.67-.77,1.59-1.16,2.76-1.16s2,.39,2.67,1.18,1,1.8,1,3.04c0,1.32-.36,2.37-1.08,3.16s-1.68,1.19-2.89,1.19-2.22-.47-2.98-1.41-1.14-2.15-1.14-3.63v-.62c0-2.36,.5-4.16,1.51-5.4s2.5-1.88,4.49-1.91h.29Zm-2.14,5.77c-.56,0-1.07,.17-1.54,.5s-.79,.75-.98,1.26v.6c0,1.05,.24,1.9,.71,2.55s1.07,.97,1.78,.97,1.31-.27,1.73-.81,.63-1.25,.63-2.12-.21-1.59-.64-2.13-.99-.81-1.69-.81Z"/><path class="cls-1" d="M47.08,419.6h1.78v1.33h-1.78v2.97h-1.63v-2.97h-5.83v-.96l5.73-8.87h1.73v8.5Zm-5.62,0h3.98v-6.28l-.19,.35-3.79,5.92Z"/><path class="cls-1" d="M55.75,423.9v-8.25h-1.5v-1.26h1.5v-.98c0-1.02,.27-1.81,.82-2.36s1.32-.83,2.31-.83c.38,0,.75,.05,1.12,.15l-.09,1.31c-.28-.05-.57-.08-.88-.08-.53,0-.93,.15-1.22,.46s-.43,.75-.43,1.33v1h2.03v1.26h-2.03v8.25h-1.63Z"/></g><g><path class="cls-1" d="M7.82,467.1h-1.63v-10.84l-3.28,1.2v-1.48l4.66-1.75h.25v12.86Z"/><path class="cls-1" d="M13.08,468.2h-1.4l5.34-13.9h1.39l-5.33,13.9Z"/><path class="cls-1" d="M25.35,467.1h-1.63v-10.84l-3.28,1.2v-1.48l4.66-1.75h.25v12.86Z"/><path class="cls-1" d="M38.5,467.1h-8.38v-1.17l4.43-4.92c.66-.74,1.11-1.35,1.36-1.82s.37-.95,.37-1.45c0-.67-.2-1.22-.61-1.64s-.94-.64-1.62-.64c-.81,0-1.44,.23-1.89,.69s-.67,1.1-.67,1.92h-1.63c0-1.18,.38-2.13,1.14-2.86s1.77-1.09,3.05-1.09c1.19,0,2.13,.31,2.82,.94s1.04,1.46,1.04,2.49c0,1.26-.8,2.76-2.41,4.5l-3.43,3.72h6.42v1.33Z"/><path class="cls-1" d="M47.98,457.64c0,.64-.17,1.21-.51,1.71s-.79,.89-1.37,1.17c.67,.29,1.2,.71,1.59,1.26s.58,1.17,.58,1.87c0,1.11-.37,1.99-1.12,2.65s-1.73,.98-2.95,.98-2.22-.33-2.96-.99-1.11-1.54-1.11-2.64c0-.69,.19-1.32,.57-1.87s.9-.98,1.57-1.27c-.57-.28-1.02-.67-1.34-1.17s-.49-1.06-.49-1.7c0-1.08,.35-1.93,1.04-2.57s1.6-.95,2.73-.95,2.03,.32,2.73,.95,1.04,1.49,1.04,2.57Zm-1.33,5.97c0-.71-.23-1.3-.68-1.75s-1.05-.68-1.78-.68-1.32,.22-1.76,.67-.66,1.03-.66,1.76,.22,1.3,.65,1.71,1.03,.62,1.8,.62,1.36-.21,1.79-.63,.65-.99,.65-1.71Zm-2.44-8.15c-.64,0-1.16,.2-1.55,.59s-.59,.93-.59,1.61,.19,1.18,.58,1.58,.91,.6,1.56,.6,1.17-.2,1.56-.6,.58-.93,.58-1.58-.2-1.18-.61-1.59-.92-.62-1.54-.62Z"/><path class="cls-1" d="M55.75,467.1v-8.25h-1.5v-1.26h1.5v-.98c0-1.02,.27-1.81,.82-2.36s1.32-.83,2.31-.83c.38,0,.75,.05,1.12,.15l-.09,1.31c-.28-.05-.57-.08-.88-.08-.53,0-.93,.15-1.22,.46s-.43,.75-.43,1.33v1h2.03v1.26h-2.03v8.25h-1.63Z"/></g><g><path class="cls-1" d="M28.04,207.9h-1.63v-10.84l-3.28,1.2v-1.48l4.66-1.75h.25v12.86Z"/><path class="cls-1" d="M33.29,209h-1.4l5.34-13.9h1.39l-5.33,13.9Z"/><path class="cls-1" d="M48.6,207.9h-8.38v-1.17l4.43-4.92c.66-.74,1.11-1.35,1.36-1.81s.37-.95,.37-1.45c0-.67-.2-1.22-.61-1.64s-.94-.64-1.62-.64c-.81,0-1.44,.23-1.88,.69s-.67,1.1-.67,1.92h-1.63c0-1.18,.38-2.13,1.14-2.86s1.77-1.09,3.04-1.09c1.19,0,2.13,.31,2.82,.94s1.04,1.45,1.04,2.49c0,1.26-.8,2.76-2.41,4.5l-3.43,3.72h6.42v1.33Z"/><path class="cls-1" d="M55.75,207.9v-8.25h-1.5v-1.26h1.5v-.98c0-1.02,.27-1.81,.82-2.36s1.32-.83,2.31-.83c.38,0,.75,.05,1.12,.15l-.09,1.31c-.28-.05-.57-.08-.88-.08-.53,0-.93,.15-1.22,.46s-.43,.75-.43,1.33v1h2.03v1.26h-2.03v8.25h-1.63Z"/></g></g><g id="Line"><line class="cls-2" x1="986.4" y1="187.2" x2="979.2" y2="187.2"/><line class="cls-2" x1="986.4" y1="216" x2="986.4" y2="187.2"/><line class="cls-2" x1="979.2" y1="216" x2="979.2" y2="187.2"/><line class="cls-2" x1="979.2" y1="216" x2="972" y2="216"/><line class="cls-2" x1="972" y1="187.2" x2="964.8" y2="187.2"/><line class="cls-2" x1="972" y1="216" x2="972" y2="187.2"/><line class="cls-2" x1="964.8" y1="216" x2="964.8" y2="187.2"/><line class="cls-2" x1="964.8" y1="216" x2="957.6" y2="216"/><line class="cls-2" x1="957.6" y1="187.2" x2="950.4" y2="187.2"/><line class="cls-2" x1="957.6" y1="216" x2="957.6" y2="187.2"/><line class="cls-2" x1="950.4" y1="216" x2="950.4" y2="187.2"/><line class="cls-2" x1="950.4" y1="216" x2="943.2" y2="216"/><line class="cls-2" x1="943.2" y1="187.2" x2="936" y2="187.2"/><line class="cls-2" x1="943.2" y1="216" x2="943.2" y2="187.2"/><line class="cls-2" x1="936" y1="216" x2="936" y2="187.2"/><line class="cls-2" x1="936" y1="216" x2="928.8" y2="216"/><line class="cls-2" x1="928.8" y1="187.2" x2="921.6" y2="187.2"/><line class="cls-2" x1="928.8" y1="216" x2="928.8" y2="187.2"/><line class="cls-2" x1="921.6" y1="216" x2="921.6" y2="187.2"/><line class="cls-2" x1="921.6" y1="216" x2="914.4" y2="216"/><line class="cls-2" x1="914.4" y1="187.2" x2="907.2" y2="187.2"/><line class="cls-2" x1="914.4" y1="216" x2="914.4" y2="187.2"/><line class="cls-2" x1="907.2" y1="216" x2="907.2" y2="187.2"/><line class="cls-2" x1="907.2" y1="216" x2="900" y2="216"/><line class="cls-2" x1="900" y1="187.2" x2="892.8" y2="187.2"/><line class="cls-2" x1="900" y1="216" x2="900" y2="187.2"/><line class="cls-2" x1="892.8" y1="216" x2="892.8" y2="187.2"/><line class="cls-2" x1="892.8" y1="216" x2="885.6" y2="216"/><line class="cls-2" x1="885.6" y1="187.2" x2="878.4" y2="187.2"/><line class="cls-2" x1="885.6" y1="216" x2="885.6" y2="187.2"/><line class="cls-2" x1="878.4" y1="216" x2="878.4" y2="187.2"/><line class="cls-2" x1="878.4" y1="216" x2="871.2" y2="216"/><line class="cls-2" x1="871.2" y1="187.2" x2="864" y2="187.2"/><line class="cls-2" x1="871.2" y1="216" x2="871.2" y2="187.2"/><line class="cls-2" x1="864" y1="216" x2="864" y2="187.2"/><line class="cls-2" x1="864" y1="216" x2="856.8" y2="216"/><line class="cls-2" x1="856.8" y1="187.2" x2="849.6" y2="187.2"/><line class="cls-2" x1="856.8" y1="216" x2="856.8" y2="187.2"/><line class="cls-2" x1="849.6" y1="216" x2="849.6" y2="187.2"/><line class="cls-2" x1="849.6" y1="216" x2="842.4" y2="216"/><line class="cls-2" x1="842.4" y1="187.2" x2="835.2" y2="187.2"/><line class="cls-2" x1="842.4" y1="216" x2="842.4" y2="187.2"/><line class="cls-2" x1="835.2" y1="216" x2="835.2" y2="187.2"/><line class="cls-2" x1="835.2" y1="216" x2="828" y2="216"/><line class="cls-2" x1="828" y1="187.2" x2="820.8" y2="187.2"/><line class="cls-2" x1="828" y1="216" x2="828" y2="187.2"/><line class="cls-2" x1="820.8" y1="216" x2="820.8" y2="187.2"/><line class="cls-2" x1="820.8" y1="216" x2="813.6" y2="216"/><line class="cls-2" x1="986.4" y1="230.4" x2="972" y2="230.4"/><line class="cls-2" x1="986.4" y1="259.2" x2="986.4" y2="230.4"/><line class="cls-2" x1="972" y1="259.2" x2="972" y2="230.4"/><line class="cls-2" x1="972" y1="259.2" x2="957.6" y2="259.2"/><line class="cls-2" x1="957.6" y1="230.4" x2="943.2" y2="230.4"/><line class="cls-2" x1="957.6" y1="259.2" x2="957.6" y2="230.4"/><line class="cls-2" x1="943.2" y1="259.2" x2="943.2" y2="230.4"/><line class="cls-2" x1="943.2" y1="259.2" x2="928.8" y2="259.2"/><line class="cls-2" x1="928.8" y1="230.4" x2="914.4" y2="230.4"/><line class="cls-2" x1="928.8" y1="259.2" x2="928.8" y2="230.4"/><line class="cls-2" x1="914.4" y1="259.2" x2="914.4" y2="230.4"/><line class="cls-2" x1="914.4" y1="259.2" x2="900" y2="259.2"/><line class="cls-2" x1="900" y1="230.4" x2="885.6" y2="230.4"/><line class="cls-2" x1="900" y1="259.2" x2="900" y2="230.4"/><line class="cls-2" x1="885.6" y1="259.2" x2="885.6" y2="230.4"/><line class="cls-2" x1="885.6" y1="259.2" x2="871.2" y2="259.2"/><line class="cls-2" x1="871.2" y1="230.4" x2="856.8" y2="230.4"/><line class="cls-2" x1="871.2" y1="259.2" x2="871.2" y2="230.4"/><line class="cls-2" x1="856.8" y1="259.2" x2="856.8" y2="230.4"/><line class="cls-2" x1="856.8" y1="259.2" x2="842.4" y2="259.2"/><line class="cls-2" x1="842.4" y1="230.4" x2="828" y2="230.4"/><line class="cls-2" x1="842.4" y1="259.2" x2="842.4" y2="230.4"/><line class="cls-2" x1="828" y1="259.2" x2="828" y2="230.4"/><line class="cls-2" x1="828" y1="259.2" x2="813.6" y2="259.2"/><line class="cls-2" x1="986.4" y1="302.4" x2="986.4" y2="273.6"/><line class="cls-2" x1="986.4" y1="273.6" x2="957.6" y2="273.6"/><line class="cls-2" x1="957.6" y1="302.4" x2="928.8" y2="302.4"/><line class="cls-2" x1="957.6" y1="302.4" x2="957.6" y2="273.6"/><line class="cls-2" x1="928.8" y1="302.4" x2="928.8" y2="273.6"/><line class="cls-2" x1="928.8" y1="273.6" x2="900" y2="273.6"/><line class="cls-2" x1="900" y1="302.4" x2="871.2" y2="302.4"/><line class="cls-2" x1="900" y1="302.4" x2="900" y2="273.6"/><line class="cls-2" x1="871.2" y1="302.4" x2="871.2" y2="273.6"/><line class="cls-2" x1="871.2" y1="273.6" x2="842.4" y2="273.6"/><line class="cls-2" x1="842.4" y1="302.4" x2="813.6" y2="302.4"/><line class="cls-2" x1="842.4" y1="302.4" x2="842.4" y2="273.6"/><line class="cls-2" x1="986.4" y1="345.6" x2="928.8" y2="345.6"/><line class="cls-2" x1="928.8" y1="345.6" x2="928.8" y2="316.8"/><line class="cls-2" x1="871.2" y1="345.6" x2="871.2" y2="316.8"/><line class="cls-2" x1="928.8" y1="316.8" x2="871.2" y2="316.8"/><line class="cls-2" x1="1044" y1="388.8" x2="1044" y2="360"/><line class="cls-2" x1="1044" y1="360" x2="928.8" y2="360"/><line class="cls-2" x1="813.6" y1="187.2" x2="806.4" y2="187.2"/><line class="cls-2" x1="806.4" y1="216" x2="806.4" y2="187.2"/><line class="cls-2" x1="806.4" y1="216" x2="799.2" y2="216"/><line class="cls-2" x1="799.2" y1="187.2" x2="792" y2="187.2"/><line class="cls-2" x1="799.2" y1="216" x2="799.2" y2="187.2"/><line class="cls-2" x1="792" y1="216" x2="792" y2="187.2"/><line class="cls-2" x1="792" y1="216" x2="784.8" y2="216"/><line class="cls-2" x1="784.8" y1="187.2" x2="777.6" y2="187.2"/><line class="cls-2" x1="784.8" y1="216" x2="784.8" y2="187.2"/><line class="cls-2" x1="777.6" y1="216" x2="777.6" y2="187.2"/><line class="cls-2" x1="777.6" y1="216" x2="770.4" y2="216"/><line class="cls-2" x1="770.4" y1="187.2" x2="763.2" y2="187.2"/><line class="cls-2" x1="770.4" y1="216" x2="770.4" y2="187.2"/><line class="cls-2" x1="763.2" y1="216" x2="763.2" y2="187.2"/><line class="cls-2" x1="763.2" y1="216" x2="756" y2="216"/><line class="cls-2" x1="813.6" y1="230.4" x2="799.2" y2="230.4"/><line class="cls-2" x1="799.2" y1="259.2" x2="799.2" y2="230.4"/><line class="cls-2" x1="799.2" y1="259.2" x2="784.8" y2="259.2"/><line class="cls-2" x1="784.8" y1="230.4" x2="770.4" y2="230.4"/><line class="cls-2" x1="784.8" y1="259.2" x2="784.8" y2="230.4"/><line class="cls-2" x1="770.4" y1="259.2" x2="770.4" y2="230.4"/><line class="cls-2" x1="770.4" y1="259.2" x2="756" y2="259.2"/><line class="cls-2" x1="813.6" y1="273.6" x2="784.8" y2="273.6"/><line class="cls-2" x1="784.8" y1="302.4" x2="756" y2="302.4"/><line class="cls-2" x1="784.8" y1="302.4" x2="784.8" y2="273.6"/><line class="cls-2" x1="871.2" y1="345.6" x2="813.6" y2="345.6"/><line class="cls-2" x1="813.6" y1="216" x2="813.6" y2="187.2"/><line class="cls-2" x1="813.6" y1="259.2" x2="813.6" y2="230.4"/><line class="cls-2" x1="813.6" y1="302.4" x2="813.6" y2="273.6"/><line class="cls-2" x1="928.8" y1="388.8" x2="813.6" y2="388.8"/><line class="cls-2" x1="928.8" y1="388.8" x2="928.8" y2="360"/><line class="cls-2" x1="1044" y1="432" x2="1044" y2="403.2"/><line class="cls-2" x1="1044" y1="403.2" x2="813.6" y2="403.2"/><line class="cls-2" x1="756" y1="187.2" x2="748.8" y2="187.2"/><line class="cls-2" x1="756" y1="216" x2="756" y2="187.2"/><line class="cls-2" x1="748.8" y1="216" x2="748.8" y2="187.2"/><line class="cls-2" x1="748.8" y1="216" x2="741.6" y2="216"/><line class="cls-2" x1="741.6" y1="187.2" x2="734.4" y2="187.2"/><line class="cls-2" x1="741.6" y1="216" x2="741.6" y2="187.2"/><line class="cls-2" x1="734.4" y1="216" x2="734.4" y2="187.2"/><line class="cls-2" x1="734.4" y1="216" x2="727.2" y2="216"/><line class="cls-2" x1="727.2" y1="187.2" x2="720" y2="187.2"/><line class="cls-2" x1="727.2" y1="216" x2="727.2" y2="187.2"/><line class="cls-2" x1="720" y1="216" x2="720" y2="187.2"/><line class="cls-2" x1="720" y1="216" x2="712.8" y2="216"/><line class="cls-2" x1="712.8" y1="187.2" x2="705.6" y2="187.2"/><line class="cls-2" x1="712.8" y1="216" x2="712.8" y2="187.2"/><line class="cls-2" x1="705.6" y1="216" x2="705.6" y2="187.2"/><line class="cls-2" x1="705.6" y1="216" x2="698.4" y2="216"/><line class="cls-2" x1="698.4" y1="187.2" x2="691.2" y2="187.2"/><line class="cls-2" x1="698.4" y1="216" x2="698.4" y2="187.2"/><line class="cls-2" x1="691.2" y1="216" x2="691.2" y2="187.2"/><line class="cls-2" x1="691.2" y1="216" x2="684" y2="216"/><line class="cls-2" x1="684" y1="187.2" x2="676.8" y2="187.2"/><line class="cls-2" x1="684" y1="216" x2="684" y2="187.2"/><line class="cls-2" x1="676.8" y1="216" x2="676.8" y2="187.2"/><line class="cls-2" x1="676.8" y1="216" x2="669.6" y2="216"/><line class="cls-2" x1="669.6" y1="187.2" x2="662.4" y2="187.2"/><line class="cls-2" x1="669.6" y1="216" x2="669.6" y2="187.2"/><line class="cls-2" x1="662.4" y1="216" x2="662.4" y2="187.2"/><line class="cls-2" x1="662.4" y1="216" x2="655.2" y2="216"/><line class="cls-2" x1="655.2" y1="187.2" x2="648" y2="187.2"/><line class="cls-2" x1="655.2" y1="216" x2="655.2" y2="187.2"/><line class="cls-2" x1="648" y1="216" x2="648" y2="187.2"/><line class="cls-2" x1="648" y1="216" x2="640.8" y2="216"/><line class="cls-2" x1="640.8" y1="187.2" x2="633.6" y2="187.2"/><line class="cls-2" x1="640.8" y1="216" x2="640.8" y2="187.2"/><line class="cls-2" x1="633.6" y1="216" x2="633.6" y2="187.2"/><line class="cls-2" x1="633.6" y1="216" x2="626.4" y2="216"/><line class="cls-2" x1="626.4" y1="187.2" x2="619.2" y2="187.2"/><line class="cls-2" x1="626.4" y1="216" x2="626.4" y2="187.2"/><line class="cls-2" x1="619.2" y1="216" x2="619.2" y2="187.2"/><line class="cls-2" x1="619.2" y1="216" x2="612" y2="216"/><line class="cls-2" x1="612" y1="187.2" x2="604.8" y2="187.2"/><line class="cls-2" x1="612" y1="216" x2="612" y2="187.2"/><line class="cls-2" x1="604.8" y1="216" x2="604.8" y2="187.2"/><line class="cls-2" x1="604.8" y1="216" x2="597.6" y2="216"/><line class="cls-2" x1="597.6" y1="187.2" x2="590.4" y2="187.2"/><line class="cls-2" x1="597.6" y1="216" x2="597.6" y2="187.2"/><line class="cls-2" x1="590.4" y1="216" x2="590.4" y2="187.2"/><line class="cls-2" x1="590.4" y1="216" x2="583.2" y2="216"/><line class="cls-2" x1="756" y1="230.4" x2="741.6" y2="230.4"/><line class="cls-2" x1="756" y1="259.2" x2="756" y2="230.4"/><line class="cls-2" x1="741.6" y1="259.2" x2="741.6" y2="230.4"/><line class="cls-2" x1="741.6" y1="259.2" x2="727.2" y2="259.2"/><line class="cls-2" x1="727.2" y1="230.4" x2="712.8" y2="230.4"/><line class="cls-2" x1="727.2" y1="259.2" x2="727.2" y2="230.4"/><line class="cls-2" x1="712.8" y1="259.2" x2="712.8" y2="230.4"/><line class="cls-2" x1="712.8" y1="259.2" x2="698.4" y2="259.2"/><line class="cls-2" x1="698.4" y1="230.4" x2="684" y2="230.4"/><line class="cls-2" x1="698.4" y1="259.2" x2="698.4" y2="230.4"/><line class="cls-2" x1="684" y1="259.2" x2="684" y2="230.4"/><line class="cls-2" x1="684" y1="259.2" x2="669.6" y2="259.2"/><line class="cls-2" x1="669.6" y1="230.4" x2="655.2" y2="230.4"/><line class="cls-2" x1="669.6" y1="259.2" x2="669.6" y2="230.4"/><line class="cls-2" x1="655.2" y1="259.2" x2="655.2" y2="230.4"/><line class="cls-2" x1="655.2" y1="259.2" x2="640.8" y2="259.2"/><line class="cls-2" x1="640.8" y1="230.4" x2="626.4" y2="230.4"/><line class="cls-2" x1="640.8" y1="259.2" x2="640.8" y2="230.4"/><line class="cls-2" x1="626.4" y1="259.2" x2="626.4" y2="230.4"/><line class="cls-2" x1="626.4" y1="259.2" x2="612" y2="259.2"/><line class="cls-2" x1="612" y1="230.4" x2="597.6" y2="230.4"/><line class="cls-2" x1="612" y1="259.2" x2="612" y2="230.4"/><line class="cls-2" x1="597.6" y1="259.2" x2="597.6" y2="230.4"/><line class="cls-2" x1="597.6" y1="259.2" x2="583.2" y2="259.2"/><line class="cls-2" x1="756" y1="302.4" x2="756" y2="273.6"/><line class="cls-2" x1="756" y1="273.6" x2="727.2" y2="273.6"/><line class="cls-2" x1="727.2" y1="302.4" x2="698.4" y2="302.4"/><line class="cls-2" x1="727.2" y1="302.4" x2="727.2" y2="273.6"/><line class="cls-2" x1="698.4" y1="302.4" x2="698.4" y2="273.6"/><line class="cls-2" x1="698.4" y1="273.6" x2="669.6" y2="273.6"/><line class="cls-2" x1="669.6" y1="302.4" x2="640.8" y2="302.4"/><line class="cls-2" x1="669.6" y1="302.4" x2="669.6" y2="273.6"/><line class="cls-2" x1="640.8" y1="302.4" x2="640.8" y2="273.6"/><line class="cls-2" x1="640.8" y1="273.6" x2="612" y2="273.6"/><line class="cls-2" x1="612" y1="302.4" x2="583.2" y2="302.4"/><line class="cls-2" x1="612" y1="302.4" x2="612" y2="273.6"/><line class="cls-2" x1="813.6" y1="345.6" x2="813.6" y2="316.8"/><line class="cls-2" x1="813.6" y1="316.8" x2="756" y2="316.8"/><line class="cls-2" x1="756" y1="345.6" x2="756" y2="316.8"/><line class="cls-2" x1="756" y1="345.6" x2="698.4" y2="345.6"/><line class="cls-2" x1="698.4" y1="345.6" x2="698.4" y2="316.8"/><line class="cls-2" x1="640.8" y1="345.6" x2="640.8" y2="316.8"/><line class="cls-2" x1="698.4" y1="316.8" x2="640.8" y2="316.8"/><line class="cls-2" x1="813.6" y1="388.8" x2="813.6" y2="360"/><line class="cls-2" x1="813.6" y1="360" x2="698.4" y2="360"/><line class="cls-2" x1="583.2" y1="187.2" x2="576" y2="187.2"/><line class="cls-2" x1="576" y1="216" x2="576" y2="187.2"/><line class="cls-2" x1="576" y1="216" x2="568.8" y2="216"/><line class="cls-2" x1="568.8" y1="187.2" x2="561.6" y2="187.2"/><line class="cls-2" x1="568.8" y1="216" x2="568.8" y2="187.2"/><line class="cls-2" x1="561.6" y1="216" x2="561.6" y2="187.2"/><line class="cls-2" x1="561.6" y1="216" x2="554.4" y2="216"/><line class="cls-2" x1="554.4" y1="187.2" x2="547.2" y2="187.2"/><line class="cls-2" x1="554.4" y1="216" x2="554.4" y2="187.2"/><line class="cls-2" x1="547.2" y1="216" x2="547.2" y2="187.2"/><line class="cls-2" x1="547.2" y1="216" x2="540" y2="216"/><line class="cls-2" x1="540" y1="187.2" x2="532.8" y2="187.2"/><line class="cls-2" x1="540" y1="216" x2="540" y2="187.2"/><line class="cls-2" x1="532.8" y1="216" x2="532.8" y2="187.2"/><line class="cls-2" x1="532.8" y1="216" x2="525.6" y2="216"/><line class="cls-2" x1="583.2" y1="230.4" x2="568.8" y2="230.4"/><line class="cls-2" x1="568.8" y1="259.2" x2="568.8" y2="230.4"/><line class="cls-2" x1="568.8" y1="259.2" x2="554.4" y2="259.2"/><line class="cls-2" x1="554.4" y1="230.4" x2="540" y2="230.4"/><line class="cls-2" x1="554.4" y1="259.2" x2="554.4" y2="230.4"/><line class="cls-2" x1="540" y1="259.2" x2="540" y2="230.4"/><line class="cls-2" x1="540" y1="259.2" x2="525.6" y2="259.2"/><line class="cls-2" x1="583.2" y1="273.6" x2="554.4" y2="273.6"/><line class="cls-2" x1="554.4" y1="302.4" x2="525.6" y2="302.4"/><line class="cls-2" x1="554.4" y1="302.4" x2="554.4" y2="273.6"/><line class="cls-2" x1="640.8" y1="345.6" x2="583.2" y2="345.6"/><line class="cls-2" x1="583.2" y1="216" x2="583.2" y2="187.2"/><line class="cls-2" x1="583.2" y1="259.2" x2="583.2" y2="230.4"/><line class="cls-2" x1="583.2" y1="302.4" x2="583.2" y2="273.6"/><line class="cls-2" x1="698.4" y1="388.8" x2="583.2" y2="388.8"/><line class="cls-2" x1="698.4" y1="388.8" x2="698.4" y2="360"/><line class="cls-2" x1="813.6" y1="432" x2="813.6" y2="403.2"/><line class="cls-2" x1="813.6" y1="432" x2="583.2" y2="432"/><line class="cls-2" x1="525.6" y1="187.2" x2="518.4" y2="187.2"/><line class="cls-2" x1="525.6" y1="216" x2="525.6" y2="187.2"/><line class="cls-2" x1="518.4" y1="216" x2="518.4" y2="187.2"/><line class="cls-2" x1="518.4" y1="216" x2="511.2" y2="216"/><line class="cls-2" x1="511.2" y1="187.2" x2="504" y2="187.2"/><line class="cls-2" x1="511.2" y1="216" x2="511.2" y2="187.2"/><line class="cls-2" x1="504" y1="216" x2="504" y2="187.2"/><line class="cls-2" x1="504" y1="216" x2="496.8" y2="216"/><line class="cls-2" x1="496.8" y1="187.2" x2="489.6" y2="187.2"/><line class="cls-2" x1="496.8" y1="216" x2="496.8" y2="187.2"/><line class="cls-2" x1="489.6" y1="216" x2="489.6" y2="187.2"/><line class="cls-2" x1="489.6" y1="216" x2="482.4" y2="216"/><line class="cls-2" x1="482.4" y1="187.2" x2="475.2" y2="187.2"/><line class="cls-2" x1="482.4" y1="216" x2="482.4" y2="187.2"/><line class="cls-2" x1="475.2" y1="216" x2="475.2" y2="187.2"/><line class="cls-2" x1="475.2" y1="216" x2="468" y2="216"/><line class="cls-2" x1="468" y1="187.2" x2="460.8" y2="187.2"/><line class="cls-2" x1="468" y1="216" x2="468" y2="187.2"/><line class="cls-2" x1="460.8" y1="216" x2="460.8" y2="187.2"/><line class="cls-2" x1="460.8" y1="216" x2="453.6" y2="216"/><line class="cls-2" x1="453.6" y1="187.2" x2="446.4" y2="187.2"/><line class="cls-2" x1="453.6" y1="216" x2="453.6" y2="187.2"/><line class="cls-2" x1="446.4" y1="216" x2="446.4" y2="187.2"/><line class="cls-2" x1="446.4" y1="216" x2="439.2" y2="216"/><line class="cls-2" x1="439.2" y1="187.2" x2="432" y2="187.2"/><line class="cls-2" x1="439.2" y1="216" x2="439.2" y2="187.2"/><line class="cls-2" x1="432" y1="216" x2="432" y2="187.2"/><line class="cls-2" x1="432" y1="216" x2="424.8" y2="216"/><line class="cls-2" x1="424.8" y1="187.2" x2="417.6" y2="187.2"/><line class="cls-2" x1="424.8" y1="216" x2="424.8" y2="187.2"/><line class="cls-2" x1="417.6" y1="216" x2="417.6" y2="187.2"/><line class="cls-2" x1="417.6" y1="216" x2="410.4" y2="216"/><line class="cls-2" x1="410.4" y1="187.2" x2="403.2" y2="187.2"/><line class="cls-2" x1="410.4" y1="216" x2="410.4" y2="187.2"/><line class="cls-2" x1="403.2" y1="216" x2="403.2" y2="187.2"/><line class="cls-2" x1="403.2" y1="216" x2="396" y2="216"/><line class="cls-2" x1="396" y1="187.2" x2="388.8" y2="187.2"/><line class="cls-2" x1="396" y1="216" x2="396" y2="187.2"/><line class="cls-2" x1="388.8" y1="216" x2="388.8" y2="187.2"/><line class="cls-2" x1="388.8" y1="216" x2="381.6" y2="216"/><line class="cls-2" x1="381.6" y1="187.2" x2="374.4" y2="187.2"/><line class="cls-2" x1="381.6" y1="216" x2="381.6" y2="187.2"/><line class="cls-2" x1="374.4" y1="216" x2="374.4" y2="187.2"/><line class="cls-2" x1="374.4" y1="216" x2="367.2" y2="216"/><line class="cls-2" x1="367.2" y1="187.2" x2="360" y2="187.2"/><line class="cls-2" x1="367.2" y1="216" x2="367.2" y2="187.2"/><line class="cls-2" x1="360" y1="216" x2="360" y2="187.2"/><line class="cls-2" x1="360" y1="216" x2="352.8" y2="216"/><line class="cls-2" x1="525.6" y1="230.4" x2="511.2" y2="230.4"/><line class="cls-2" x1="525.6" y1="259.2" x2="525.6" y2="230.4"/><line class="cls-2" x1="511.2" y1="259.2" x2="511.2" y2="230.4"/><line class="cls-2" x1="511.2" y1="259.2" x2="496.8" y2="259.2"/><line class="cls-2" x1="496.8" y1="230.4" x2="482.4" y2="230.4"/><line class="cls-2" x1="496.8" y1="259.2" x2="496.8" y2="230.4"/><line class="cls-2" x1="482.4" y1="259.2" x2="482.4" y2="230.4"/><line class="cls-2" x1="482.4" y1="259.2" x2="468" y2="259.2"/><line class="cls-2" x1="468" y1="230.4" x2="453.6" y2="230.4"/><line class="cls-2" x1="468" y1="259.2" x2="468" y2="230.4"/><line class="cls-2" x1="453.6" y1="259.2" x2="453.6" y2="230.4"/><line class="cls-2" x1="453.6" y1="259.2" x2="439.2" y2="259.2"/><line class="cls-2" x1="439.2" y1="230.4" x2="424.8" y2="230.4"/><line class="cls-2" x1="439.2" y1="259.2" x2="439.2" y2="230.4"/><line class="cls-2" x1="424.8" y1="259.2" x2="424.8" y2="230.4"/><line class="cls-2" x1="424.8" y1="259.2" x2="410.4" y2="259.2"/><line class="cls-2" x1="410.4" y1="230.4" x2="396" y2="230.4"/><line class="cls-2" x1="410.4" y1="259.2" x2="410.4" y2="230.4"/><line class="cls-2" x1="396" y1="259.2" x2="396" y2="230.4"/><line class="cls-2" x1="396" y1="259.2" x2="381.6" y2="259.2"/><line class="cls-2" x1="381.6" y1="230.4" x2="367.2" y2="230.4"/><line class="cls-2" x1="381.6" y1="259.2" x2="381.6" y2="230.4"/><line class="cls-2" x1="367.2" y1="259.2" x2="367.2" y2="230.4"/><line class="cls-2" x1="367.2" y1="259.2" x2="352.8" y2="259.2"/><line class="cls-2" x1="525.6" y1="302.4" x2="525.6" y2="273.6"/><line class="cls-2" x1="525.6" y1="273.6" x2="496.8" y2="273.6"/><line class="cls-2" x1="496.8" y1="302.4" x2="468" y2="302.4"/><line class="cls-2" x1="496.8" y1="302.4" x2="496.8" y2="273.6"/><line class="cls-2" x1="468" y1="302.4" x2="468" y2="273.6"/><line class="cls-2" x1="468" y1="273.6" x2="439.2" y2="273.6"/><line class="cls-2" x1="439.2" y1="302.4" x2="410.4" y2="302.4"/><line class="cls-2" x1="439.2" y1="302.4" x2="439.2" y2="273.6"/><line class="cls-2" x1="410.4" y1="302.4" x2="410.4" y2="273.6"/><line class="cls-2" x1="410.4" y1="273.6" x2="381.6" y2="273.6"/><line class="cls-2" x1="381.6" y1="302.4" x2="352.8" y2="302.4"/><line class="cls-2" x1="381.6" y1="302.4" x2="381.6" y2="273.6"/><line class="cls-2" x1="583.2" y1="345.6" x2="583.2" y2="316.8"/><line class="cls-2" x1="583.2" y1="316.8" x2="525.6" y2="316.8"/><line class="cls-2" x1="525.6" y1="345.6" x2="525.6" y2="316.8"/><line class="cls-2" x1="525.6" y1="345.6" x2="468" y2="345.6"/><line class="cls-2" x1="468" y1="345.6" x2="468" y2="316.8"/><line class="cls-2" x1="410.4" y1="345.6" x2="410.4" y2="316.8"/><line class="cls-2" x1="468" y1="316.8" x2="410.4" y2="316.8"/><line class="cls-2" x1="583.2" y1="388.8" x2="583.2" y2="360"/><line class="cls-2" x1="583.2" y1="360" x2="468" y2="360"/><line class="cls-2" x1="352.8" y1="187.2" x2="345.6" y2="187.2"/><line class="cls-2" x1="345.6" y1="216" x2="345.6" y2="187.2"/><line class="cls-2" x1="345.6" y1="216" x2="338.4" y2="216"/><line class="cls-2" x1="338.4" y1="187.2" x2="331.2" y2="187.2"/><line class="cls-2" x1="338.4" y1="216" x2="338.4" y2="187.2"/><line class="cls-2" x1="331.2" y1="216" x2="331.2" y2="187.2"/><line class="cls-2" x1="331.2" y1="216" x2="324" y2="216"/><line class="cls-2" x1="324" y1="187.2" x2="316.8" y2="187.2"/><line class="cls-2" x1="324" y1="216" x2="324" y2="187.2"/><line class="cls-2" x1="316.8" y1="216" x2="316.8" y2="187.2"/><line class="cls-2" x1="316.8" y1="216" x2="309.6" y2="216"/><line class="cls-2" x1="309.6" y1="187.2" x2="302.4" y2="187.2"/><line class="cls-2" x1="309.6" y1="216" x2="309.6" y2="187.2"/><line class="cls-2" x1="302.4" y1="216" x2="302.4" y2="187.2"/><line class="cls-2" x1="302.4" y1="216" x2="295.2" y2="216"/><line class="cls-2" x1="352.8" y1="230.4" x2="338.4" y2="230.4"/><line class="cls-2" x1="338.4" y1="259.2" x2="338.4" y2="230.4"/><line class="cls-2" x1="338.4" y1="259.2" x2="324" y2="259.2"/><line class="cls-2" x1="324" y1="230.4" x2="309.6" y2="230.4"/><line class="cls-2" x1="324" y1="259.2" x2="324" y2="230.4"/><line class="cls-2" x1="309.6" y1="259.2" x2="309.6" y2="230.4"/><line class="cls-2" x1="309.6" y1="259.2" x2="295.2" y2="259.2"/><line class="cls-2" x1="352.8" y1="273.6" x2="324" y2="273.6"/><line class="cls-2" x1="324" y1="302.4" x2="295.2" y2="302.4"/><line class="cls-2" x1="324" y1="302.4" x2="324" y2="273.6"/><line class="cls-2" x1="410.4" y1="345.6" x2="352.8" y2="345.6"/><line class="cls-2" x1="352.8" y1="216" x2="352.8" y2="187.2"/><line class="cls-2" x1="352.8" y1="259.2" x2="352.8" y2="230.4"/><line class="cls-2" x1="352.8" y1="302.4" x2="352.8" y2="273.6"/><line class="cls-2" x1="468" y1="388.8" x2="352.8" y2="388.8"/><line class="cls-2" x1="468" y1="388.8" x2="468" y2="360"/><line class="cls-2" x1="583.2" y1="432" x2="583.2" y2="403.2"/><line class="cls-2" x1="583.2" y1="403.2" x2="352.8" y2="403.2"/><line class="cls-2" x1="295.2" y1="187.2" x2="288" y2="187.2"/><line class="cls-2" x1="295.2" y1="216" x2="295.2" y2="187.2"/><line class="cls-2" x1="288" y1="216" x2="288" y2="187.2"/><line class="cls-2" x1="288" y1="216" x2="280.8" y2="216"/><line class="cls-2" x1="280.8" y1="187.2" x2="273.6" y2="187.2"/><line class="cls-2" x1="280.8" y1="216" x2="280.8" y2="187.2"/><line class="cls-2" x1="273.6" y1="216" x2="273.6" y2="187.2"/><line class="cls-2" x1="273.6" y1="216" x2="266.4" y2="216"/><line class="cls-2" x1="266.4" y1="187.2" x2="259.2" y2="187.2"/><line class="cls-2" x1="266.4" y1="216" x2="266.4" y2="187.2"/><line class="cls-2" x1="259.2" y1="216" x2="259.2" y2="187.2"/><line class="cls-2" x1="259.2" y1="216" x2="252" y2="216"/><line class="cls-2" x1="252" y1="187.2" x2="244.8" y2="187.2"/><line class="cls-2" x1="252" y1="216" x2="252" y2="187.2"/><line class="cls-2" x1="244.8" y1="216" x2="244.8" y2="187.2"/><line class="cls-2" x1="244.8" y1="216" x2="237.6" y2="216"/><line class="cls-2" x1="237.6" y1="187.2" x2="230.4" y2="187.2"/><line class="cls-2" x1="237.6" y1="216" x2="237.6" y2="187.2"/><line class="cls-2" x1="230.4" y1="216" x2="230.4" y2="187.2"/><line class="cls-2" x1="230.4" y1="216" x2="223.2" y2="216"/><line class="cls-2" x1="223.2" y1="187.2" x2="216" y2="187.2"/><line class="cls-2" x1="223.2" y1="216" x2="223.2" y2="187.2"/><line class="cls-2" x1="216" y1="216" x2="216" y2="187.2"/><line class="cls-2" x1="216" y1="216" x2="208.8" y2="216"/><line class="cls-2" x1="208.8" y1="187.2" x2="201.6" y2="187.2"/><line class="cls-2" x1="208.8" y1="216" x2="208.8" y2="187.2"/><line class="cls-2" x1="201.6" y1="216" x2="201.6" y2="187.2"/><line class="cls-2" x1="201.6" y1="216" x2="194.4" y2="216"/><line class="cls-2" x1="194.4" y1="187.2" x2="187.2" y2="187.2"/><line class="cls-2" x1="194.4" y1="216" x2="194.4" y2="187.2"/><line class="cls-2" x1="187.2" y1="216" x2="187.2" y2="187.2"/><line class="cls-2" x1="187.2" y1="216" x2="180" y2="216"/><line class="cls-2" x1="180" y1="187.2" x2="172.8" y2="187.2"/><line class="cls-2" x1="180" y1="216" x2="180" y2="187.2"/><line class="cls-2" x1="172.8" y1="216" x2="172.8" y2="187.2"/><line class="cls-2" x1="172.8" y1="216" x2="165.6" y2="216"/><line class="cls-2" x1="165.6" y1="187.2" x2="158.4" y2="187.2"/><line class="cls-2" x1="165.6" y1="216" x2="165.6" y2="187.2"/><line class="cls-2" x1="158.4" y1="216" x2="158.4" y2="187.2"/><line class="cls-2" x1="158.4" y1="216" x2="151.2" y2="216"/><line class="cls-2" x1="151.2" y1="187.2" x2="144" y2="187.2"/><line class="cls-2" x1="151.2" y1="216" x2="151.2" y2="187.2"/><line class="cls-2" x1="144" y1="216" x2="144" y2="187.2"/><line class="cls-2" x1="144" y1="216" x2="136.8" y2="216"/><line class="cls-2" x1="136.8" y1="187.2" x2="129.6" y2="187.2"/><line class="cls-2" x1="136.8" y1="216" x2="136.8" y2="187.2"/><line class="cls-2" x1="129.6" y1="216" x2="129.6" y2="187.2"/><line class="cls-2" x1="129.6" y1="216" x2="122.4" y2="216"/><line class="cls-2" x1="295.2" y1="230.4" x2="280.8" y2="230.4"/><line class="cls-2" x1="295.2" y1="259.2" x2="295.2" y2="230.4"/><line class="cls-2" x1="280.8" y1="259.2" x2="280.8" y2="230.4"/><line class="cls-2" x1="280.8" y1="259.2" x2="266.4" y2="259.2"/><line class="cls-2" x1="266.4" y1="230.4" x2="252" y2="230.4"/><line class="cls-2" x1="266.4" y1="259.2" x2="266.4" y2="230.4"/><line class="cls-2" x1="252" y1="259.2" x2="252" y2="230.4"/><line class="cls-2" x1="252" y1="259.2" x2="237.6" y2="259.2"/><line class="cls-2" x1="237.6" y1="230.4" x2="223.2" y2="230.4"/><line class="cls-2" x1="237.6" y1="259.2" x2="237.6" y2="230.4"/><line class="cls-2" x1="223.2" y1="259.2" x2="223.2" y2="230.4"/><line class="cls-2" x1="223.2" y1="259.2" x2="208.8" y2="259.2"/><line class="cls-2" x1="208.8" y1="230.4" x2="194.4" y2="230.4"/><line class="cls-2" x1="208.8" y1="259.2" x2="208.8" y2="230.4"/><line class="cls-2" x1="194.4" y1="259.2" x2="194.4" y2="230.4"/><line class="cls-2" x1="194.4" y1="259.2" x2="180" y2="259.2"/><line class="cls-2" x1="180" y1="230.4" x2="165.6" y2="230.4"/><line class="cls-2" x1="180" y1="259.2" x2="180" y2="230.4"/><line class="cls-2" x1="165.6" y1="259.2" x2="165.6" y2="230.4"/><line class="cls-2" x1="165.6" y1="259.2" x2="151.2" y2="259.2"/><line class="cls-2" x1="151.2" y1="230.4" x2="136.8" y2="230.4"/><line class="cls-2" x1="151.2" y1="259.2" x2="151.2" y2="230.4"/><line class="cls-2" x1="136.8" y1="259.2" x2="136.8" y2="230.4"/><line class="cls-2" x1="136.8" y1="259.2" x2="122.4" y2="259.2"/><line class="cls-2" x1="295.2" y1="302.4" x2="295.2" y2="273.6"/><line class="cls-2" x1="295.2" y1="273.6" x2="266.4" y2="273.6"/><line class="cls-2" x1="266.4" y1="302.4" x2="237.6" y2="302.4"/><line class="cls-2" x1="266.4" y1="302.4" x2="266.4" y2="273.6"/><line class="cls-2" x1="237.6" y1="302.4" x2="237.6" y2="273.6"/><line class="cls-2" x1="237.6" y1="273.6" x2="208.8" y2="273.6"/><line class="cls-2" x1="208.8" y1="302.4" x2="180" y2="302.4"/><line class="cls-2" x1="208.8" y1="302.4" x2="208.8" y2="273.6"/><line class="cls-2" x1="180" y1="302.4" x2="180" y2="273.6"/><line class="cls-2" x1="180" y1="273.6" x2="151.2" y2="273.6"/><line class="cls-2" x1="151.2" y1="302.4" x2="122.4" y2="302.4"/><line class="cls-2" x1="151.2" y1="302.4" x2="151.2" y2="273.6"/><line class="cls-2" x1="352.8" y1="345.6" x2="352.8" y2="316.8"/><line class="cls-2" x1="352.8" y1="316.8" x2="295.2" y2="316.8"/><line class="cls-2" x1="295.2" y1="345.6" x2="295.2" y2="316.8"/><line class="cls-2" x1="295.2" y1="345.6" x2="237.6" y2="345.6"/><line class="cls-2" x1="237.6" y1="345.6" x2="237.6" y2="316.8"/><line class="cls-2" x1="237.6" y1="316.8" x2="180" y2="316.8"/><line class="cls-2" x1="352.8" y1="388.8" x2="352.8" y2="360"/><line class="cls-2" x1="352.8" y1="360" x2="237.6" y2="360"/><line class="cls-2" x1="237.6" y1="388.8" x2="237.6" y2="360"/><line class="cls-2" x1="352.8" y1="432" x2="352.8" y2="403.2"/><line class="cls-2" x1="352.8" y1="432" x2="122.4" y2="432"/><line class="cls-3" x1="986.4" y1="115.2" x2="986.4" y2="475.2"/><line class="cls-3" x1="151.2" y1="115.2" x2="151.2" y2="475.2"/><line class="cls-3" x1="180" y1="115.2" x2="180" y2="475.2"/><line class="cls-3" x1="208.8" y1="115.2" x2="208.8" y2="475.2"/><line class="cls-3" x1="237.6" y1="115.2" x2="237.6" y2="475.2"/><line class="cls-3" x1="266.4" y1="115.2" x2="266.4" y2="475.2"/><line class="cls-3" x1="295.2" y1="115.2" x2="295.2" y2="475.2"/><line class="cls-3" x1="324" y1="115.2" x2="324" y2="475.2"/><line class="cls-3" x1="352.8" y1="115.2" x2="352.8" y2="475.2"/><line class="cls-3" x1="381.6" y1="115.2" x2="381.6" y2="475.2"/><line class="cls-3" x1="410.4" y1="115.2" x2="410.4" y2="475.2"/><line class="cls-3" x1="439.2" y1="115.2" x2="439.2" y2="475.2"/><line class="cls-3" x1="468" y1="115.2" x2="468" y2="475.2"/><line class="cls-3" x1="496.8" y1="115.2" x2="496.8" y2="475.2"/><line class="cls-3" x1="525.6" y1="115.2" x2="525.6" y2="475.2"/><line class="cls-3" x1="554.4" y1="115.2" x2="554.4" y2="475.2"/><line class="cls-3" x1="583.2" y1="115.2" x2="583.2" y2="475.2"/><line class="cls-3" x1="612" y1="115.2" x2="612" y2="475.2"/><line class="cls-3" x1="640.8" y1="115.2" x2="640.8" y2="475.2"/><line class="cls-3" x1="640.8" y1="115.2" x2="640.8" y2="475.2"/><line class="cls-3" x1="669.6" y1="115.2" x2="669.6" y2="475.2"/><line class="cls-3" x1="698.4" y1="115.2" x2="698.4" y2="475.2"/><line class="cls-3" x1="727.2" y1="115.2" x2="727.2" y2="475.2"/><line class="cls-3" x1="756" y1="115.2" x2="756" y2="475.2"/><line class="cls-3" x1="784.8" y1="115.2" x2="784.8" y2="475.2"/><line class="cls-3" x1="813.6" y1="115.2" x2="813.6" y2="475.2"/><line class="cls-3" x1="842.4" y1="115.2" x2="842.4" y2="475.2"/><line class="cls-3" x1="871.2" y1="115.2" x2="871.2" y2="475.2"/><line class="cls-3" x1="900" y1="115.2" x2="900" y2="475.2"/><line class="cls-3" x1="928.8" y1="115.2" x2="928.8" y2="475.2"/><line class="cls-3" x1="957.6" y1="115.2" x2="957.6" y2="475.2"/><line class="cls-3" x1="957.6" y1="115.2" x2="957.6" y2="475.2"/><line class="cls-2" x1="237.6" y1="388.8" x2="122.4" y2="388.8"/><line class="cls-3" x1="122.4" y1="187.2" x2="1044" y2="187.2"/><line class="cls-3" x1="122.4" y1="230.4" x2="986.4" y2="230.4"/><line class="cls-3" x1="122.4" y1="273.6" x2="986.4" y2="273.6"/><line class="cls-3" x1="122.4" y1="316.8" x2="986.4" y2="316.8"/><line class="cls-3" x1="122.4" y1="360" x2="1044" y2="360"/><line class="cls-3" x1="122.4" y1="403.2" x2="1044" y2="403.2"/><line class="cls-3" x1="122.4" y1="388.8" x2="1044" y2="388.8"/><line class="cls-3" x1="122.4" y1="432" x2="1044" y2="432"/><line class="cls-3" x1="122.4" y1="115.2" x2="122.4" y2="475.2"/><line class="cls-3" x1="122.4" y1="115.2" x2="122.4" y2="475.2"/><line class="cls-2" x1="1044" y1="475.2" x2="1044" y2="446.4"/><line class="cls-2" x1="1044" y1="446.4" x2="813.6" y2="446.4"/><line class="cls-2" x1="813.6" y1="446.4" x2="583.2" y2="446.4"/><line class="cls-2" x1="583.2" y1="475.2" x2="583.2" y2="446.4"/><line class="cls-2" x1="583.2" y1="475.2" x2="295.2" y2="475.2"/><line class="cls-2" x1="295.2" y1="475.2" x2="122.4" y2="475.2"/><line class="cls-3" x1="122.4" y1="446.4" x2="1044" y2="446.4"/><line class="cls-3" x1="122.4" y1="475.2" x2="1044" y2="475.2"/><line class="cls-3" x1="122.4" y1="216" x2="1044" y2="216"/><line class="cls-3" x1="122.4" y1="259.2" x2="1044" y2="259.2"/><line class="cls-3" x1="122.4" y1="302.4" x2="1044" y2="302.4"/><line class="cls-3" x1="122.4" y1="345.6" x2="1044" y2="345.6"/><line class="cls-2" x1="180" y1="345.6" x2="122.4" y2="345.6"/><line class="cls-2" x1="180" y1="345.6" x2="180" y2="316.8"/><line class="cls-2" x1="554.4" y1="115.2" x2="550.8" y2="115.2"/><line class="cls-2" x1="554.4" y1="144" x2="554.4" y2="115.2"/><line class="cls-2" x1="550.8" y1="144" x2="550.8" y2="115.2"/><line class="cls-2" x1="550.8" y1="144" x2="547.2" y2="144"/><line class="cls-2" x1="547.2" y1="115.2" x2="543.6" y2="115.2"/><line class="cls-2" x1="547.2" y1="144" x2="547.2" y2="115.2"/><line class="cls-2" x1="543.6" y1="144" x2="543.6" y2="115.2"/><line class="cls-2" x1="543.6" y1="144" x2="540" y2="144"/><line class="cls-2" x1="540" y1="115.2" x2="536.4" y2="115.2"/><line class="cls-2" x1="540" y1="144" x2="540" y2="115.2"/><line class="cls-2" x1="536.4" y1="144" x2="536.4" y2="115.2"/><line class="cls-2" x1="536.4" y1="144" x2="532.8" y2="144"/><line class="cls-2" x1="532.8" y1="115.2" x2="529.2" y2="115.2"/><line class="cls-2" x1="532.8" y1="144" x2="532.8" y2="115.2"/><line class="cls-2" x1="529.2" y1="144" x2="529.2" y2="115.2"/><line class="cls-2" x1="529.2" y1="144" x2="525.6" y2="144"/><line class="cls-2" x1="525.6" y1="115.2" x2="522" y2="115.2"/><line class="cls-2" x1="525.6" y1="144" x2="525.6" y2="115.2"/><line class="cls-2" x1="522" y1="144" x2="522" y2="115.2"/><line class="cls-2" x1="522" y1="144" x2="518.4" y2="144"/><line class="cls-2" x1="518.4" y1="115.2" x2="514.8" y2="115.2"/><line class="cls-2" x1="518.4" y1="144" x2="518.4" y2="115.2"/><line class="cls-2" x1="514.8" y1="144" x2="514.8" y2="115.2"/><line class="cls-2" x1="514.8" y1="144" x2="511.2" y2="144"/><line class="cls-2" x1="511.2" y1="115.2" x2="507.6" y2="115.2"/><line class="cls-2" x1="511.2" y1="144" x2="511.2" y2="115.2"/><line class="cls-2" x1="507.6" y1="144" x2="507.6" y2="115.2"/><line class="cls-2" x1="507.6" y1="144" x2="504" y2="144"/><line class="cls-2" x1="504" y1="115.2" x2="500.4" y2="115.2"/><line class="cls-2" x1="504" y1="144" x2="504" y2="115.2"/><line class="cls-2" x1="500.4" y1="144" x2="500.4" y2="115.2"/><line class="cls-2" x1="500.4" y1="144" x2="496.8" y2="144"/><line class="cls-2" x1="496.8" y1="115.2" x2="493.2" y2="115.2"/><line class="cls-2" x1="496.8" y1="144" x2="496.8" y2="115.2"/><line class="cls-2" x1="493.2" y1="144" x2="493.2" y2="115.2"/><line class="cls-2" x1="493.2" y1="144" x2="489.6" y2="144"/><line class="cls-2" x1="489.6" y1="115.2" x2="486" y2="115.2"/><line class="cls-2" x1="489.6" y1="144" x2="489.6" y2="115.2"/><line class="cls-2" x1="486" y1="144" x2="486" y2="115.2"/><line class="cls-2" x1="486" y1="144" x2="482.4" y2="144"/><line class="cls-2" x1="482.4" y1="115.2" x2="478.8" y2="115.2"/><line class="cls-2" x1="482.4" y1="144" x2="482.4" y2="115.2"/><line class="cls-2" x1="478.8" y1="144" x2="478.8" y2="115.2"/><line class="cls-2" x1="478.8" y1="144" x2="475.2" y2="144"/><line class="cls-2" x1="475.2" y1="115.2" x2="471.6" y2="115.2"/><line class="cls-2" x1="475.2" y1="144" x2="475.2" y2="115.2"/><line class="cls-2" x1="471.6" y1="144" x2="471.6" y2="115.2"/><line class="cls-2" x1="471.6" y1="144" x2="468" y2="144"/><line class="cls-2" x1="468" y1="115.2" x2="464.4" y2="115.2"/><line class="cls-2" x1="464.4" y1="144" x2="464.4" y2="115.2"/><line class="cls-2" x1="464.4" y1="144" x2="460.8" y2="144"/><line class="cls-2" x1="460.8" y1="115.2" x2="457.2" y2="115.2"/><line class="cls-2" x1="460.8" y1="144" x2="460.8" y2="115.2"/><line class="cls-2" x1="457.2" y1="144" x2="457.2" y2="115.2"/><line class="cls-2" x1="457.2" y1="144" x2="453.6" y2="144"/><line class="cls-2" x1="453.6" y1="115.2" x2="450" y2="115.2"/><line class="cls-2" x1="453.6" y1="144" x2="453.6" y2="115.2"/><line class="cls-2" x1="450" y1="144" x2="450" y2="115.2"/><line class="cls-2" x1="450" y1="144" x2="446.4" y2="144"/><line class="cls-2" x1="446.4" y1="115.2" x2="442.8" y2="115.2"/><line class="cls-2" x1="446.4" y1="144" x2="446.4" y2="115.2"/><line class="cls-2" x1="442.8" y1="144" x2="442.8" y2="115.2"/><line class="cls-2" x1="442.8" y1="144" x2="439.2" y2="144"/><line class="cls-2" x1="468" y1="144" x2="468" y2="115.2"/><line class="cls-2" x1="439.2" y1="115.2" x2="435.6" y2="115.2"/><line class="cls-2" x1="439.2" y1="144" x2="439.2" y2="115.2"/><line class="cls-2" x1="435.6" y1="144" x2="435.6" y2="115.2"/><line class="cls-2" x1="435.6" y1="144" x2="432" y2="144"/><line class="cls-2" x1="432" y1="115.2" x2="428.4" y2="115.2"/><line class="cls-2" x1="432" y1="144" x2="432" y2="115.2"/><line class="cls-2" x1="428.4" y1="144" x2="428.4" y2="115.2"/><line class="cls-2" x1="428.4" y1="144" x2="424.8" y2="144"/><line class="cls-2" x1="424.8" y1="115.2" x2="421.2" y2="115.2"/><line class="cls-2" x1="424.8" y1="144" x2="424.8" y2="115.2"/><line class="cls-2" x1="421.2" y1="144" x2="421.2" y2="115.2"/><line class="cls-2" x1="421.2" y1="144" x2="417.6" y2="144"/><line class="cls-2" x1="417.6" y1="115.2" x2="414" y2="115.2"/><line class="cls-2" x1="417.6" y1="144" x2="417.6" y2="115.2"/><line class="cls-2" x1="414" y1="144" x2="414" y2="115.2"/><line class="cls-2" x1="414" y1="144" x2="410.4" y2="144"/><line class="cls-2" x1="410.4" y1="115.2" x2="406.8" y2="115.2"/><line class="cls-2" x1="410.4" y1="144" x2="410.4" y2="115.2"/><line class="cls-2" x1="406.8" y1="144" x2="406.8" y2="115.2"/><line class="cls-2" x1="406.8" y1="144" x2="403.2" y2="144"/><line class="cls-2" x1="403.2" y1="115.2" x2="399.6" y2="115.2"/><line class="cls-2" x1="403.2" y1="144" x2="403.2" y2="115.2"/><line class="cls-2" x1="399.6" y1="144" x2="399.6" y2="115.2"/><line class="cls-2" x1="399.6" y1="144" x2="396" y2="144"/><line class="cls-2" x1="396" y1="115.2" x2="392.4" y2="115.2"/><line class="cls-2" x1="396" y1="144" x2="396" y2="115.2"/><line class="cls-2" x1="392.4" y1="144" x2="392.4" y2="115.2"/><line class="cls-2" x1="392.4" y1="144" x2="388.8" y2="144"/><line class="cls-2" x1="388.8" y1="115.2" x2="385.2" y2="115.2"/><line class="cls-2" x1="388.8" y1="144" x2="388.8" y2="115.2"/><line class="cls-2" x1="385.2" y1="144" x2="385.2" y2="115.2"/><line class="cls-2" x1="385.2" y1="144" x2="381.6" y2="144"/><line class="cls-2" x1="381.6" y1="115.2" x2="378" y2="115.2"/><line class="cls-2" x1="381.6" y1="144" x2="381.6" y2="115.2"/><line class="cls-2" x1="378" y1="144" x2="378" y2="115.2"/><line class="cls-2" x1="378" y1="144" x2="374.4" y2="144"/><line class="cls-2" x1="374.4" y1="115.2" x2="370.8" y2="115.2"/><line class="cls-2" x1="374.4" y1="144" x2="374.4" y2="115.2"/><line class="cls-2" x1="370.8" y1="144" x2="370.8" y2="115.2"/><line class="cls-2" x1="370.8" y1="144" x2="367.2" y2="144"/><line class="cls-2" x1="367.2" y1="115.2" x2="363.6" y2="115.2"/><line class="cls-2" x1="367.2" y1="144" x2="367.2" y2="115.2"/><line class="cls-2" x1="363.6" y1="144" x2="363.6" y2="115.2"/><line class="cls-2" x1="363.6" y1="144" x2="360" y2="144"/><line class="cls-2" x1="360" y1="115.2" x2="356.4" y2="115.2"/><line class="cls-2" x1="360" y1="144" x2="360" y2="115.2"/><line class="cls-2" x1="356.4" y1="144" x2="356.4" y2="115.2"/><line class="cls-2" x1="356.4" y1="144" x2="352.8" y2="144"/><line class="cls-2" x1="352.8" y1="115.2" x2="349.2" y2="115.2"/><line class="cls-2" x1="349.2" y1="144" x2="349.2" y2="115.2"/><line class="cls-2" x1="349.2" y1="144" x2="345.6" y2="144"/><line class="cls-2" x1="345.6" y1="115.2" x2="342" y2="115.2"/><line class="cls-2" x1="345.6" y1="144" x2="345.6" y2="115.2"/><line class="cls-2" x1="342" y1="144" x2="342" y2="115.2"/><line class="cls-2" x1="342" y1="144" x2="338.4" y2="144"/><line class="cls-2" x1="338.4" y1="115.2" x2="334.8" y2="115.2"/><line class="cls-2" x1="338.4" y1="144" x2="338.4" y2="115.2"/><line class="cls-2" x1="334.8" y1="144" x2="334.8" y2="115.2"/><line class="cls-2" x1="334.8" y1="144" x2="331.2" y2="144"/><line class="cls-2" x1="331.2" y1="115.2" x2="327.6" y2="115.2"/><line class="cls-2" x1="331.2" y1="144" x2="331.2" y2="115.2"/><line class="cls-2" x1="327.6" y1="144" x2="327.6" y2="115.2"/><line class="cls-2" x1="327.6" y1="144" x2="324" y2="144"/><line class="cls-2" x1="352.8" y1="144" x2="352.8" y2="115.2"/><line class="cls-2" x1="324" y1="115.2" x2="320.4" y2="115.2"/><line class="cls-2" x1="324" y1="144" x2="324" y2="115.2"/><line class="cls-2" x1="320.4" y1="144" x2="320.4" y2="115.2"/><line class="cls-2" x1="320.4" y1="144" x2="316.8" y2="144"/><line class="cls-2" x1="316.8" y1="115.2" x2="313.2" y2="115.2"/><line class="cls-2" x1="316.8" y1="144" x2="316.8" y2="115.2"/><line class="cls-2" x1="313.2" y1="144" x2="313.2" y2="115.2"/><line class="cls-2" x1="313.2" y1="144" x2="309.6" y2="144"/><line class="cls-2" x1="309.6" y1="115.2" x2="306" y2="115.2"/><line class="cls-2" x1="309.6" y1="144" x2="309.6" y2="115.2"/><line class="cls-2" x1="306" y1="144" x2="306" y2="115.2"/><line class="cls-2" x1="306" y1="144" x2="302.4" y2="144"/><line class="cls-2" x1="302.4" y1="115.2" x2="298.8" y2="115.2"/><line class="cls-2" x1="302.4" y1="144" x2="302.4" y2="115.2"/><line class="cls-2" x1="298.8" y1="144" x2="298.8" y2="115.2"/><line class="cls-2" x1="298.8" y1="144" x2="295.2" y2="144"/><line class="cls-2" x1="295.2" y1="115.2" x2="291.6" y2="115.2"/><line class="cls-2" x1="295.2" y1="144" x2="295.2" y2="115.2"/><line class="cls-2" x1="291.6" y1="144" x2="291.6" y2="115.2"/><line class="cls-2" x1="291.6" y1="144" x2="288" y2="144"/><line class="cls-2" x1="288" y1="115.2" x2="284.4" y2="115.2"/><line class="cls-2" x1="288" y1="144" x2="288" y2="115.2"/><line class="cls-2" x1="284.4" y1="144" x2="284.4" y2="115.2"/><line class="cls-2" x1="284.4" y1="144" x2="280.8" y2="144"/><line class="cls-2" x1="280.8" y1="115.2" x2="277.2" y2="115.2"/><line class="cls-2" x1="280.8" y1="144" x2="280.8" y2="115.2"/><line class="cls-2" x1="277.2" y1="144" x2="277.2" y2="115.2"/><line class="cls-2" x1="277.2" y1="144" x2="273.6" y2="144"/><line class="cls-2" x1="273.6" y1="115.2" x2="270" y2="115.2"/><line class="cls-2" x1="273.6" y1="144" x2="273.6" y2="115.2"/><line class="cls-2" x1="270" y1="144" x2="270" y2="115.2"/><line class="cls-2" x1="270" y1="144" x2="266.4" y2="144"/><line class="cls-2" x1="266.4" y1="115.2" x2="262.8" y2="115.2"/><line class="cls-2" x1="266.4" y1="144" x2="266.4" y2="115.2"/><line class="cls-2" x1="262.8" y1="144" x2="262.8" y2="115.2"/><line class="cls-2" x1="262.8" y1="144" x2="259.2" y2="144"/><line class="cls-2" x1="259.2" y1="115.2" x2="255.6" y2="115.2"/><line class="cls-2" x1="259.2" y1="144" x2="259.2" y2="115.2"/><line class="cls-2" x1="255.6" y1="144" x2="255.6" y2="115.2"/><line class="cls-2" x1="255.6" y1="144" x2="252" y2="144"/><line class="cls-2" x1="252" y1="115.2" x2="248.4" y2="115.2"/><line class="cls-2" x1="252" y1="144" x2="252" y2="115.2"/><line class="cls-2" x1="248.4" y1="144" x2="248.4" y2="115.2"/><line class="cls-2" x1="248.4" y1="144" x2="244.8" y2="144"/><line class="cls-2" x1="244.8" y1="115.2" x2="241.2" y2="115.2"/><line class="cls-2" x1="244.8" y1="144" x2="244.8" y2="115.2"/><line class="cls-2" x1="241.2" y1="144" x2="241.2" y2="115.2"/><line class="cls-2" x1="241.2" y1="144" x2="237.6" y2="144"/><line class="cls-2" x1="237.6" y1="115.2" x2="234" y2="115.2"/><line class="cls-2" x1="234" y1="144" x2="234" y2="115.2"/><line class="cls-2" x1="234" y1="144" x2="230.4" y2="144"/><line class="cls-2" x1="230.4" y1="115.2" x2="226.8" y2="115.2"/><line class="cls-2" x1="230.4" y1="144" x2="230.4" y2="115.2"/><line class="cls-2" x1="226.8" y1="144" x2="226.8" y2="115.2"/><line class="cls-2" x1="226.8" y1="144" x2="223.2" y2="144"/><line class="cls-2" x1="223.2" y1="115.2" x2="219.6" y2="115.2"/><line class="cls-2" x1="223.2" y1="144" x2="223.2" y2="115.2"/><line class="cls-2" x1="219.6" y1="144" x2="219.6" y2="115.2"/><line class="cls-2" x1="219.6" y1="144" x2="216" y2="144"/><line class="cls-2" x1="216" y1="115.2" x2="212.4" y2="115.2"/><line class="cls-2" x1="216" y1="144" x2="216" y2="115.2"/><line class="cls-2" x1="212.4" y1="144" x2="212.4" y2="115.2"/><line class="cls-2" x1="212.4" y1="144" x2="208.8" y2="144"/><line class="cls-2" x1="237.6" y1="144" x2="237.6" y2="115.2"/><line class="cls-2" x1="208.8" y1="115.2" x2="205.2" y2="115.2"/><line class="cls-2" x1="208.8" y1="144" x2="208.8" y2="115.2"/><line class="cls-2" x1="205.2" y1="144" x2="205.2" y2="115.2"/><line class="cls-2" x1="205.2" y1="144" x2="201.6" y2="144"/><line class="cls-2" x1="201.6" y1="115.2" x2="198" y2="115.2"/><line class="cls-2" x1="201.6" y1="144" x2="201.6" y2="115.2"/><line class="cls-2" x1="198" y1="144" x2="198" y2="115.2"/><line class="cls-2" x1="198" y1="144" x2="194.4" y2="144"/><line class="cls-2" x1="194.4" y1="115.2" x2="190.8" y2="115.2"/><line class="cls-2" x1="194.4" y1="144" x2="194.4" y2="115.2"/><line class="cls-2" x1="190.8" y1="144" x2="190.8" y2="115.2"/><line class="cls-2" x1="190.8" y1="144" x2="187.2" y2="144"/><line class="cls-2" x1="187.2" y1="115.2" x2="183.6" y2="115.2"/><line class="cls-2" x1="187.2" y1="144" x2="187.2" y2="115.2"/><line class="cls-2" x1="183.6" y1="144" x2="183.6" y2="115.2"/><line class="cls-2" x1="183.6" y1="144" x2="180" y2="144"/><line class="cls-2" x1="180" y1="115.2" x2="176.4" y2="115.2"/><line class="cls-2" x1="180" y1="144" x2="180" y2="115.2"/><line class="cls-2" x1="176.4" y1="144" x2="176.4" y2="115.2"/><line class="cls-2" x1="176.4" y1="144" x2="172.8" y2="144"/><line class="cls-2" x1="172.8" y1="115.2" x2="169.2" y2="115.2"/><line class="cls-2" x1="172.8" y1="144" x2="172.8" y2="115.2"/><line class="cls-2" x1="169.2" y1="144" x2="169.2" y2="115.2"/><line class="cls-2" x1="169.2" y1="144" x2="165.6" y2="144"/><line class="cls-2" x1="165.6" y1="115.2" x2="162" y2="115.2"/><line class="cls-2" x1="165.6" y1="144" x2="165.6" y2="115.2"/><line class="cls-2" x1="162" y1="144" x2="162" y2="115.2"/><line class="cls-2" x1="162" y1="144" x2="158.4" y2="144"/><line class="cls-2" x1="158.4" y1="115.2" x2="154.8" y2="115.2"/><line class="cls-2" x1="158.4" y1="144" x2="158.4" y2="115.2"/><line class="cls-2" x1="154.8" y1="144" x2="154.8" y2="115.2"/><line class="cls-2" x1="154.8" y1="144" x2="151.2" y2="144"/><line class="cls-2" x1="151.2" y1="115.2" x2="147.6" y2="115.2"/><line class="cls-2" x1="151.2" y1="144" x2="151.2" y2="115.2"/><line class="cls-2" x1="147.6" y1="144" x2="147.6" y2="115.2"/><line class="cls-2" x1="147.6" y1="144" x2="144" y2="144"/><line class="cls-2" x1="144" y1="115.2" x2="140.4" y2="115.2"/><line class="cls-2" x1="144" y1="144" x2="144" y2="115.2"/><line class="cls-2" x1="140.4" y1="144" x2="140.4" y2="115.2"/><line class="cls-2" x1="140.4" y1="144" x2="136.8" y2="144"/><line class="cls-2" x1="136.8" y1="115.2" x2="133.2" y2="115.2"/><line class="cls-2" x1="136.8" y1="144" x2="136.8" y2="115.2"/><line class="cls-2" x1="133.2" y1="144" x2="133.2" y2="115.2"/><line class="cls-2" x1="133.2" y1="144" x2="129.6" y2="144"/><line class="cls-2" x1="129.6" y1="115.2" x2="126" y2="115.2"/><line class="cls-2" x1="129.6" y1="144" x2="129.6" y2="115.2"/><line class="cls-2" x1="126" y1="144" x2="126" y2="115.2"/><line class="cls-2" x1="126" y1="144" x2="122.4" y2="144"/><line class="cls-3" x1="122.4" y1="115.2" x2="1044" y2="115.2"/><line class="cls-3" x1="122.4" y1="144" x2="1044" y2="144"/><line class="cls-2" x1="986.4" y1="115.2" x2="982.8" y2="115.2"/><line class="cls-2" x1="986.4" y1="144" x2="986.4" y2="115.2"/><line class="cls-2" x1="982.8" y1="144" x2="982.8" y2="115.2"/><line class="cls-2" x1="982.8" y1="144" x2="979.2" y2="144"/><line class="cls-2" x1="979.2" y1="115.2" x2="975.6" y2="115.2"/><line class="cls-2" x1="979.2" y1="144" x2="979.2" y2="115.2"/><line class="cls-2" x1="975.6" y1="144" x2="975.6" y2="115.2"/><line class="cls-2" x1="975.6" y1="144" x2="972" y2="144"/><line class="cls-2" x1="972" y1="115.2" x2="968.4" y2="115.2"/><line class="cls-2" x1="972" y1="144" x2="972" y2="115.2"/><line class="cls-2" x1="968.4" y1="144" x2="968.4" y2="115.2"/><line class="cls-2" x1="968.4" y1="144" x2="964.8" y2="144"/><line class="cls-2" x1="964.8" y1="115.2" x2="961.2" y2="115.2"/><line class="cls-2" x1="964.8" y1="144" x2="964.8" y2="115.2"/><line class="cls-2" x1="961.2" y1="144" x2="961.2" y2="115.2"/><line class="cls-2" x1="961.2" y1="144" x2="957.6" y2="144"/><line class="cls-2" x1="957.6" y1="115.2" x2="954" y2="115.2"/><line class="cls-2" x1="957.6" y1="144" x2="957.6" y2="115.2"/><line class="cls-2" x1="954" y1="144" x2="954" y2="115.2"/><line class="cls-2" x1="954" y1="144" x2="950.4" y2="144"/><line class="cls-2" x1="950.4" y1="115.2" x2="946.8" y2="115.2"/><line class="cls-2" x1="950.4" y1="144" x2="950.4" y2="115.2"/><line class="cls-2" x1="946.8" y1="144" x2="946.8" y2="115.2"/><line class="cls-2" x1="946.8" y1="144" x2="943.2" y2="144"/><line class="cls-2" x1="943.2" y1="115.2" x2="939.6" y2="115.2"/><line class="cls-2" x1="943.2" y1="144" x2="943.2" y2="115.2"/><line class="cls-2" x1="939.6" y1="144" x2="939.6" y2="115.2"/><line class="cls-2" x1="939.6" y1="144" x2="936" y2="144"/><line class="cls-2" x1="936" y1="115.2" x2="932.4" y2="115.2"/><line class="cls-2" x1="936" y1="144" x2="936" y2="115.2"/><line class="cls-2" x1="932.4" y1="144" x2="932.4" y2="115.2"/><line class="cls-2" x1="932.4" y1="144" x2="928.8" y2="144"/><line class="cls-2" x1="928.8" y1="115.2" x2="925.2" y2="115.2"/><line class="cls-2" x1="928.8" y1="144" x2="928.8" y2="115.2"/><line class="cls-2" x1="925.2" y1="144" x2="925.2" y2="115.2"/><line class="cls-2" x1="925.2" y1="144" x2="921.6" y2="144"/><line class="cls-2" x1="921.6" y1="115.2" x2="918" y2="115.2"/><line class="cls-2" x1="921.6" y1="144" x2="921.6" y2="115.2"/><line class="cls-2" x1="918" y1="144" x2="918" y2="115.2"/><line class="cls-2" x1="918" y1="144" x2="914.4" y2="144"/><line class="cls-2" x1="914.4" y1="115.2" x2="910.8" y2="115.2"/><line class="cls-2" x1="914.4" y1="144" x2="914.4" y2="115.2"/><line class="cls-2" x1="910.8" y1="144" x2="910.8" y2="115.2"/><line class="cls-2" x1="910.8" y1="144" x2="907.2" y2="144"/><line class="cls-2" x1="907.2" y1="115.2" x2="903.6" y2="115.2"/><line class="cls-2" x1="907.2" y1="144" x2="907.2" y2="115.2"/><line class="cls-2" x1="903.6" y1="144" x2="903.6" y2="115.2"/><line class="cls-2" x1="903.6" y1="144" x2="900" y2="144"/><line class="cls-2" x1="900" y1="115.2" x2="896.4" y2="115.2"/><line class="cls-2" x1="896.4" y1="144" x2="896.4" y2="115.2"/><line class="cls-2" x1="896.4" y1="144" x2="892.8" y2="144"/><line class="cls-2" x1="892.8" y1="115.2" x2="889.2" y2="115.2"/><line class="cls-2" x1="892.8" y1="144" x2="892.8" y2="115.2"/><line class="cls-2" x1="889.2" y1="144" x2="889.2" y2="115.2"/><line class="cls-2" x1="889.2" y1="144" x2="885.6" y2="144"/><line class="cls-2" x1="885.6" y1="115.2" x2="882" y2="115.2"/><line class="cls-2" x1="885.6" y1="144" x2="885.6" y2="115.2"/><line class="cls-2" x1="882" y1="144" x2="882" y2="115.2"/><line class="cls-2" x1="882" y1="144" x2="878.4" y2="144"/><line class="cls-2" x1="878.4" y1="115.2" x2="874.8" y2="115.2"/><line class="cls-2" x1="878.4" y1="144" x2="878.4" y2="115.2"/><line class="cls-2" x1="874.8" y1="144" x2="874.8" y2="115.2"/><line class="cls-2" x1="874.8" y1="144" x2="871.2" y2="144"/><line class="cls-2" x1="900" y1="144" x2="900" y2="115.2"/><line class="cls-2" x1="871.2" y1="115.2" x2="867.6" y2="115.2"/><line class="cls-2" x1="871.2" y1="144" x2="871.2" y2="115.2"/><line class="cls-2" x1="867.6" y1="144" x2="867.6" y2="115.2"/><line class="cls-2" x1="867.6" y1="144" x2="864" y2="144"/><line class="cls-2" x1="864" y1="115.2" x2="860.4" y2="115.2"/><line class="cls-2" x1="864" y1="144" x2="864" y2="115.2"/><line class="cls-2" x1="860.4" y1="144" x2="860.4" y2="115.2"/><line class="cls-2" x1="860.4" y1="144" x2="856.8" y2="144"/><line class="cls-2" x1="856.8" y1="115.2" x2="853.2" y2="115.2"/><line class="cls-2" x1="856.8" y1="144" x2="856.8" y2="115.2"/><line class="cls-2" x1="853.2" y1="144" x2="853.2" y2="115.2"/><line class="cls-2" x1="853.2" y1="144" x2="849.6" y2="144"/><line class="cls-2" x1="849.6" y1="115.2" x2="846" y2="115.2"/><line class="cls-2" x1="849.6" y1="144" x2="849.6" y2="115.2"/><line class="cls-2" x1="846" y1="144" x2="846" y2="115.2"/><line class="cls-2" x1="846" y1="144" x2="842.4" y2="144"/><line class="cls-2" x1="842.4" y1="115.2" x2="838.8" y2="115.2"/><line class="cls-2" x1="842.4" y1="144" x2="842.4" y2="115.2"/><line class="cls-2" x1="838.8" y1="144" x2="838.8" y2="115.2"/><line class="cls-2" x1="838.8" y1="144" x2="835.2" y2="144"/><line class="cls-2" x1="835.2" y1="115.2" x2="831.6" y2="115.2"/><line class="cls-2" x1="835.2" y1="144" x2="835.2" y2="115.2"/><line class="cls-2" x1="831.6" y1="144" x2="831.6" y2="115.2"/><line class="cls-2" x1="831.6" y1="144" x2="828" y2="144"/><line class="cls-2" x1="828" y1="115.2" x2="824.4" y2="115.2"/><line class="cls-2" x1="828" y1="144" x2="828" y2="115.2"/><line class="cls-2" x1="824.4" y1="144" x2="824.4" y2="115.2"/><line class="cls-2" x1="824.4" y1="144" x2="820.8" y2="144"/><line class="cls-2" x1="820.8" y1="115.2" x2="817.2" y2="115.2"/><line class="cls-2" x1="820.8" y1="144" x2="820.8" y2="115.2"/><line class="cls-2" x1="817.2" y1="144" x2="817.2" y2="115.2"/><line class="cls-2" x1="817.2" y1="144" x2="813.6" y2="144"/><line class="cls-2" x1="813.6" y1="115.2" x2="810" y2="115.2"/><line class="cls-2" x1="813.6" y1="144" x2="813.6" y2="115.2"/><line class="cls-2" x1="810" y1="144" x2="810" y2="115.2"/><line class="cls-2" x1="810" y1="144" x2="806.4" y2="144"/><line class="cls-2" x1="806.4" y1="115.2" x2="802.8" y2="115.2"/><line class="cls-2" x1="806.4" y1="144" x2="806.4" y2="115.2"/><line class="cls-2" x1="802.8" y1="144" x2="802.8" y2="115.2"/><line class="cls-2" x1="802.8" y1="144" x2="799.2" y2="144"/><line class="cls-2" x1="799.2" y1="115.2" x2="795.6" y2="115.2"/><line class="cls-2" x1="799.2" y1="144" x2="799.2" y2="115.2"/><line class="cls-2" x1="795.6" y1="144" x2="795.6" y2="115.2"/><line class="cls-2" x1="795.6" y1="144" x2="792" y2="144"/><line class="cls-2" x1="792" y1="115.2" x2="788.4" y2="115.2"/><line class="cls-2" x1="792" y1="144" x2="792" y2="115.2"/><line class="cls-2" x1="788.4" y1="144" x2="788.4" y2="115.2"/><line class="cls-2" x1="788.4" y1="144" x2="784.8" y2="144"/><line class="cls-2" x1="784.8" y1="115.2" x2="781.2" y2="115.2"/><line class="cls-2" x1="781.2" y1="144" x2="781.2" y2="115.2"/><line class="cls-2" x1="781.2" y1="144" x2="777.6" y2="144"/><line class="cls-2" x1="777.6" y1="115.2" x2="774" y2="115.2"/><line class="cls-2" x1="777.6" y1="144" x2="777.6" y2="115.2"/><line class="cls-2" x1="774" y1="144" x2="774" y2="115.2"/><line class="cls-2" x1="774" y1="144" x2="770.4" y2="144"/><line class="cls-2" x1="770.4" y1="115.2" x2="766.8" y2="115.2"/><line class="cls-2" x1="770.4" y1="144" x2="770.4" y2="115.2"/><line class="cls-2" x1="766.8" y1="144" x2="766.8" y2="115.2"/><line class="cls-2" x1="766.8" y1="144" x2="763.2" y2="144"/><line class="cls-2" x1="763.2" y1="115.2" x2="759.6" y2="115.2"/><line class="cls-2" x1="763.2" y1="144" x2="763.2" y2="115.2"/><line class="cls-2" x1="759.6" y1="144" x2="759.6" y2="115.2"/><line class="cls-2" x1="759.6" y1="144" x2="756" y2="144"/><line class="cls-2" x1="784.8" y1="144" x2="784.8" y2="115.2"/><line class="cls-2" x1="756" y1="115.2" x2="752.4" y2="115.2"/><line class="cls-2" x1="756" y1="144" x2="756" y2="115.2"/><line class="cls-2" x1="752.4" y1="144" x2="752.4" y2="115.2"/><line class="cls-2" x1="752.4" y1="144" x2="748.8" y2="144"/><line class="cls-2" x1="748.8" y1="115.2" x2="745.2" y2="115.2"/><line class="cls-2" x1="748.8" y1="144" x2="748.8" y2="115.2"/><line class="cls-2" x1="745.2" y1="144" x2="745.2" y2="115.2"/><line class="cls-2" x1="745.2" y1="144" x2="741.6" y2="144"/><line class="cls-2" x1="741.6" y1="115.2" x2="738" y2="115.2"/><line class="cls-2" x1="741.6" y1="144" x2="741.6" y2="115.2"/><line class="cls-2" x1="738" y1="144" x2="738" y2="115.2"/><line class="cls-2" x1="738" y1="144" x2="734.4" y2="144"/><line class="cls-2" x1="734.4" y1="115.2" x2="730.8" y2="115.2"/><line class="cls-2" x1="734.4" y1="144" x2="734.4" y2="115.2"/><line class="cls-2" x1="730.8" y1="144" x2="730.8" y2="115.2"/><line class="cls-2" x1="730.8" y1="144" x2="727.2" y2="144"/><line class="cls-2" x1="727.2" y1="115.2" x2="723.6" y2="115.2"/><line class="cls-2" x1="727.2" y1="144" x2="727.2" y2="115.2"/><line class="cls-2" x1="723.6" y1="144" x2="723.6" y2="115.2"/><line class="cls-2" x1="723.6" y1="144" x2="720" y2="144"/><line class="cls-2" x1="720" y1="115.2" x2="716.4" y2="115.2"/><line class="cls-2" x1="720" y1="144" x2="720" y2="115.2"/><line class="cls-2" x1="716.4" y1="144" x2="716.4" y2="115.2"/><line class="cls-2" x1="716.4" y1="144" x2="712.8" y2="144"/><line class="cls-2" x1="712.8" y1="115.2" x2="709.2" y2="115.2"/><line class="cls-2" x1="712.8" y1="144" x2="712.8" y2="115.2"/><line class="cls-2" x1="709.2" y1="144" x2="709.2" y2="115.2"/><line class="cls-2" x1="709.2" y1="144" x2="705.6" y2="144"/><line class="cls-2" x1="705.6" y1="115.2" x2="702" y2="115.2"/><line class="cls-2" x1="705.6" y1="144" x2="705.6" y2="115.2"/><line class="cls-2" x1="702" y1="144" x2="702" y2="115.2"/><line class="cls-2" x1="702" y1="144" x2="698.4" y2="144"/><line class="cls-2" x1="698.4" y1="115.2" x2="694.8" y2="115.2"/><line class="cls-2" x1="698.4" y1="144" x2="698.4" y2="115.2"/><line class="cls-2" x1="694.8" y1="144" x2="694.8" y2="115.2"/><line class="cls-2" x1="694.8" y1="144" x2="691.2" y2="144"/><line class="cls-2" x1="691.2" y1="115.2" x2="687.6" y2="115.2"/><line class="cls-2" x1="691.2" y1="144" x2="691.2" y2="115.2"/><line class="cls-2" x1="687.6" y1="144" x2="687.6" y2="115.2"/><line class="cls-2" x1="687.6" y1="144" x2="684" y2="144"/><line class="cls-2" x1="684" y1="115.2" x2="680.4" y2="115.2"/><line class="cls-2" x1="684" y1="144" x2="684" y2="115.2"/><line class="cls-2" x1="680.4" y1="144" x2="680.4" y2="115.2"/><line class="cls-2" x1="680.4" y1="144" x2="676.8" y2="144"/><line class="cls-2" x1="676.8" y1="115.2" x2="673.2" y2="115.2"/><line class="cls-2" x1="676.8" y1="144" x2="676.8" y2="115.2"/><line class="cls-2" x1="673.2" y1="144" x2="673.2" y2="115.2"/><line class="cls-2" x1="673.2" y1="144" x2="669.6" y2="144"/><line class="cls-2" x1="669.6" y1="115.2" x2="666" y2="115.2"/><line class="cls-2" x1="666" y1="144" x2="666" y2="115.2"/><line class="cls-2" x1="666" y1="144" x2="662.4" y2="144"/><line class="cls-2" x1="662.4" y1="115.2" x2="658.8" y2="115.2"/><line class="cls-2" x1="662.4" y1="144" x2="662.4" y2="115.2"/><line class="cls-2" x1="658.8" y1="144" x2="658.8" y2="115.2"/><line class="cls-2" x1="658.8" y1="144" x2="655.2" y2="144"/><line class="cls-2" x1="655.2" y1="115.2" x2="651.6" y2="115.2"/><line class="cls-2" x1="655.2" y1="144" x2="655.2" y2="115.2"/><line class="cls-2" x1="651.6" y1="144" x2="651.6" y2="115.2"/><line class="cls-2" x1="651.6" y1="144" x2="648" y2="144"/><line class="cls-2" x1="648" y1="115.2" x2="644.4" y2="115.2"/><line class="cls-2" x1="648" y1="144" x2="648" y2="115.2"/><line class="cls-2" x1="644.4" y1="144" x2="644.4" y2="115.2"/><line class="cls-2" x1="644.4" y1="144" x2="640.8" y2="144"/><line class="cls-2" x1="669.6" y1="144" x2="669.6" y2="115.2"/><line class="cls-2" x1="640.8" y1="115.2" x2="637.2" y2="115.2"/><line class="cls-2" x1="640.8" y1="144" x2="640.8" y2="115.2"/><line class="cls-2" x1="637.2" y1="144" x2="637.2" y2="115.2"/><line class="cls-2" x1="637.2" y1="144" x2="633.6" y2="144"/><line class="cls-2" x1="633.6" y1="115.2" x2="630" y2="115.2"/><line class="cls-2" x1="633.6" y1="144" x2="633.6" y2="115.2"/><line class="cls-2" x1="630" y1="144" x2="630" y2="115.2"/><line class="cls-2" x1="630" y1="144" x2="626.4" y2="144"/><line class="cls-2" x1="626.4" y1="115.2" x2="622.8" y2="115.2"/><line class="cls-2" x1="626.4" y1="144" x2="626.4" y2="115.2"/><line class="cls-2" x1="622.8" y1="144" x2="622.8" y2="115.2"/><line class="cls-2" x1="622.8" y1="144" x2="619.2" y2="144"/><line class="cls-2" x1="619.2" y1="115.2" x2="615.6" y2="115.2"/><line class="cls-2" x1="619.2" y1="144" x2="619.2" y2="115.2"/><line class="cls-2" x1="615.6" y1="144" x2="615.6" y2="115.2"/><line class="cls-2" x1="615.6" y1="144" x2="612" y2="144"/><line class="cls-2" x1="612" y1="115.2" x2="608.4" y2="115.2"/><line class="cls-2" x1="612" y1="144" x2="612" y2="115.2"/><line class="cls-2" x1="608.4" y1="144" x2="608.4" y2="115.2"/><line class="cls-2" x1="608.4" y1="144" x2="604.8" y2="144"/><line class="cls-2" x1="604.8" y1="115.2" x2="601.2" y2="115.2"/><line class="cls-2" x1="604.8" y1="144" x2="604.8" y2="115.2"/><line class="cls-2" x1="601.2" y1="144" x2="601.2" y2="115.2"/><line class="cls-2" x1="601.2" y1="144" x2="597.6" y2="144"/><line class="cls-2" x1="597.6" y1="115.2" x2="594" y2="115.2"/><line class="cls-2" x1="597.6" y1="144" x2="597.6" y2="115.2"/><line class="cls-2" x1="594" y1="144" x2="594" y2="115.2"/><line class="cls-2" x1="594" y1="144" x2="590.4" y2="144"/><line class="cls-2" x1="590.4" y1="115.2" x2="586.8" y2="115.2"/><line class="cls-2" x1="590.4" y1="144" x2="590.4" y2="115.2"/><line class="cls-2" x1="586.8" y1="144" x2="586.8" y2="115.2"/><line class="cls-2" x1="586.8" y1="144" x2="583.2" y2="144"/><line class="cls-2" x1="583.2" y1="115.2" x2="579.6" y2="115.2"/><line class="cls-2" x1="583.2" y1="144" x2="583.2" y2="115.2"/><line class="cls-2" x1="579.6" y1="144" x2="579.6" y2="115.2"/><line class="cls-2" x1="579.6" y1="144" x2="576" y2="144"/><line class="cls-2" x1="576" y1="115.2" x2="572.4" y2="115.2"/><line class="cls-2" x1="576" y1="144" x2="576" y2="115.2"/><line class="cls-2" x1="572.4" y1="144" x2="572.4" y2="115.2"/><line class="cls-2" x1="572.4" y1="144" x2="568.8" y2="144"/><line class="cls-2" x1="568.8" y1="115.2" x2="565.2" y2="115.2"/><line class="cls-2" x1="568.8" y1="144" x2="568.8" y2="115.2"/><line class="cls-2" x1="565.2" y1="144" x2="565.2" y2="115.2"/><line class="cls-2" x1="565.2" y1="144" x2="561.6" y2="144"/><line class="cls-2" x1="561.6" y1="115.2" x2="558" y2="115.2"/><line class="cls-2" x1="561.6" y1="144" x2="561.6" y2="115.2"/><line class="cls-2" x1="558" y1="144" x2="558" y2="115.2"/><line class="cls-2" x1="558" y1="144" x2="554.4" y2="144"/><line class="cls-3" x1="986.4" y1="115.2" x2="986.4" y2="475.2"/><line class="cls-3" x1="1015.2" y1="115.2" x2="1015.2" y2="475.2"/><line class="cls-3" x1="1044" y1="115.2" x2="1044" y2="475.2"/><line class="cls-2" x1="1044" y1="187.2" x2="1036.8" y2="187.2"/><line class="cls-2" x1="1044" y1="216" x2="1044" y2="187.2"/><line class="cls-2" x1="1036.8" y1="216" x2="1036.8" y2="187.2"/><line class="cls-2" x1="1036.8" y1="216" x2="1029.6" y2="216"/><line class="cls-2" x1="1029.6" y1="187.2" x2="1022.4" y2="187.2"/><line class="cls-2" x1="1029.6" y1="216" x2="1029.6" y2="187.2"/><line class="cls-2" x1="1022.4" y1="216" x2="1022.4" y2="187.2"/><line class="cls-2" x1="1022.4" y1="216" x2="1015.2" y2="216"/><line class="cls-2" x1="1015.2" y1="187.2" x2="1008" y2="187.2"/><line class="cls-2" x1="1015.2" y1="216" x2="1015.2" y2="187.2"/><line class="cls-2" x1="1008" y1="216" x2="1008" y2="187.2"/><line class="cls-2" x1="1008" y1="216" x2="1000.8" y2="216"/><line class="cls-2" x1="1000.8" y1="187.2" x2="993.6" y2="187.2"/><line class="cls-2" x1="1000.8" y1="216" x2="1000.8" y2="187.2"/><line class="cls-2" x1="993.6" y1="216" x2="993.6" y2="187.2"/><line class="cls-2" x1="993.6" y1="216" x2="986.4" y2="216"/><line class="cls-2" x1="986.4" y1="216" x2="986.4" y2="187.2"/><line class="cls-2" x1="979.2" y1="216" x2="979.2" y2="187.2"/><line class="cls-2" x1="979.2" y1="216" x2="972" y2="216"/><line class="cls-2" x1="1044" y1="230.4" x2="1029.6" y2="230.4"/><line class="cls-2" x1="1044" y1="259.2" x2="1044" y2="230.4"/><line class="cls-2" x1="1029.6" y1="259.2" x2="1029.6" y2="230.4"/><line class="cls-2" x1="1029.6" y1="259.2" x2="1015.2" y2="259.2"/><line class="cls-2" x1="1015.2" y1="230.4" x2="1000.8" y2="230.4"/><line class="cls-2" x1="1015.2" y1="259.2" x2="1015.2" y2="230.4"/><line class="cls-2" x1="1000.8" y1="259.2" x2="1000.8" y2="230.4"/><line class="cls-2" x1="1000.8" y1="259.2" x2="986.4" y2="259.2"/><line class="cls-2" x1="986.4" y1="259.2" x2="986.4" y2="230.4"/><line class="cls-2" x1="1044" y1="302.4" x2="1044" y2="273.6"/><line class="cls-2" x1="1044" y1="273.6" x2="1015.2" y2="273.6"/><line class="cls-2" x1="1015.2" y1="302.4" x2="986.4" y2="302.4"/><line class="cls-2" x1="1015.2" y1="302.4" x2="1015.2" y2="273.6"/><line class="cls-2" x1="986.4" y1="302.4" x2="986.4" y2="273.6"/><line class="cls-2" x1="1044" y1="345.6" x2="1044" y2="316.8"/><line class="cls-2" x1="986.4" y1="345.6" x2="986.4" y2="316.8"/><line class="cls-2" x1="1044" y1="316.8" x2="986.4" y2="316.8"/><line class="cls-2" x1="1044" y1="115.2" x2="1040.4" y2="115.2"/><line class="cls-2" x1="1044" y1="144" x2="1044" y2="115.2"/><line class="cls-2" x1="1040.4" y1="144" x2="1040.4" y2="115.2"/><line class="cls-2" x1="1040.4" y1="144" x2="1036.8" y2="144"/><line class="cls-2" x1="1036.8" y1="115.2" x2="1033.2" y2="115.2"/><line class="cls-2" x1="1036.8" y1="144" x2="1036.8" y2="115.2"/><line class="cls-2" x1="1033.2" y1="144" x2="1033.2" y2="115.2"/><line class="cls-2" x1="1033.2" y1="144" x2="1029.6" y2="144"/><line class="cls-2" x1="1029.6" y1="115.2" x2="1026" y2="115.2"/><line class="cls-2" x1="1029.6" y1="144" x2="1029.6" y2="115.2"/><line class="cls-2" x1="1026" y1="144" x2="1026" y2="115.2"/><line class="cls-2" x1="1026" y1="144" x2="1022.4" y2="144"/><line class="cls-2" x1="1022.4" y1="115.2" x2="1018.8" y2="115.2"/><line class="cls-2" x1="1022.4" y1="144" x2="1022.4" y2="115.2"/><line class="cls-2" x1="1018.8" y1="144" x2="1018.8" y2="115.2"/><line class="cls-2" x1="1018.8" y1="144" x2="1015.2" y2="144"/><line class="cls-2" x1="1015.2" y1="115.2" x2="1011.6" y2="115.2"/><line class="cls-2" x1="1011.6" y1="144" x2="1011.6" y2="115.2"/><line class="cls-2" x1="1011.6" y1="144" x2="1008" y2="144"/><line class="cls-2" x1="1008" y1="115.2" x2="1004.4" y2="115.2"/><line class="cls-2" x1="1008" y1="144" x2="1008" y2="115.2"/><line class="cls-2" x1="1004.4" y1="144" x2="1004.4" y2="115.2"/><line class="cls-2" x1="1004.4" y1="144" x2="1000.8" y2="144"/><line class="cls-2" x1="1000.8" y1="115.2" x2="997.2" y2="115.2"/><line class="cls-2" x1="1000.8" y1="144" x2="1000.8" y2="115.2"/><line class="cls-2" x1="997.2" y1="144" x2="997.2" y2="115.2"/><line class="cls-2" x1="997.2" y1="144" x2="993.6" y2="144"/><line class="cls-2" x1="993.6" y1="115.2" x2="990" y2="115.2"/><line class="cls-2" x1="993.6" y1="144" x2="993.6" y2="115.2"/><line class="cls-2" x1="990" y1="144" x2="990" y2="115.2"/><line class="cls-2" x1="990" y1="144" x2="986.4" y2="144"/><line class="cls-2" x1="1015.2" y1="144" x2="1015.2" y2="115.2"/><line class="cls-2" x1="986.4" y1="144" x2="986.4" y2="115.2"/><line class="cls-2" x1="982.8" y1="144" x2="982.8" y2="115.2"/><line class="cls-2" x1="982.8" y1="144" x2="979.2" y2="144"/><line class="cls-2" x1="979.2" y1="115.2" x2="975.6" y2="115.2"/><line class="cls-2" x1="979.2" y1="144" x2="979.2" y2="115.2"/></g></svg>