<?xml version="1.0" encoding="UTF-8"?><svg xmlns="http://www.w3.org/2000/svg" viewBox="0 0 1080 600.48"><defs><style>.cls-1{stroke-width:3px;}.cls-1,.cls-2,.cls-3,.cls-4,.cls-5,.cls-6,.cls-7,.cls-8,.cls-9{fill:none;stroke:#1d1e1b;stroke-miterlimit:10;}.cls-10{fill:#1d1e1b;}.cls-2{stroke-width:.75px;}.cls-3{stroke-width:2px;}.cls-4{stroke-width:2px;}.cls-6{stroke-width:1.98px;}.cls-7{stroke-width:.93px;}.cls-8{stroke-width:.93px;}.cls-9{stroke-width:1px;}</style></defs><g id="TEXT_Vector"><path class="cls-10" d="M84.87,138.78h-1.63v-10.84l-3.28,1.2v-1.48l4.66-1.75h.25v12.86Z"/><path class="cls-10" d="M87.91,196.38h-8.38v-1.17l4.43-4.92c.66-.74,1.11-1.35,1.36-1.81s.37-.95,.37-1.45c0-.67-.2-1.22-.61-1.64s-.94-.64-1.62-.64c-.81,0-1.44,.23-1.89,.69s-.67,1.1-.67,1.92h-1.63c0-1.18,.38-2.13,1.14-2.86s1.77-1.09,3.05-1.09c1.19,0,2.13,.31,2.82,.94s1.04,1.45,1.04,2.49c0,1.26-.8,2.76-2.41,4.5l-3.43,3.72h6.42v1.33Z"/><path class="cls-10" d="M81.89,246.79h1.22c.77-.01,1.37-.21,1.81-.61s.66-.92,.66-1.59c0-1.5-.75-2.25-2.24-2.25-.7,0-1.26,.2-1.68,.6s-.63,.93-.63,1.6h-1.63c0-1.01,.37-1.86,1.11-2.53s1.68-1.01,2.83-1.01c1.21,0,2.15,.32,2.84,.96s1.03,1.53,1.03,2.66c0,.56-.18,1.1-.54,1.62s-.85,.91-1.47,1.17c.7,.22,1.25,.59,1.63,1.11s.58,1.15,.58,1.89c0,1.15-.38,2.06-1.12,2.73s-1.73,1.01-2.93,1.01-2.18-.33-2.93-.98-1.13-1.51-1.13-2.58h1.63c0,.67,.22,1.21,.66,1.62s1.03,.61,1.77,.61c.79,0,1.39-.21,1.8-.62s.62-1,.62-1.77-.23-1.32-.69-1.71-1.12-.6-1.98-.62h-1.22v-1.33Z"/><path class="cls-10" d="M86.39,307.28h1.78v1.33h-1.78v2.97h-1.63v-2.97h-5.83v-.96l5.73-8.87h1.73v8.5Zm-5.62,0h3.98v-6.28l-.19,.35-3.79,5.92Z"/><path class="cls-10" d="M80.28,362.76l.65-6.38h6.56v1.5h-5.18l-.39,3.49c.63-.37,1.34-.55,2.14-.55,1.17,0,2.09,.38,2.78,1.16s1.03,1.81,1.03,3.12-.36,2.36-1.07,3.12-1.71,1.14-2.98,1.14c-1.13,0-2.05-.31-2.77-.94s-1.12-1.49-1.22-2.6h1.54c.1,.73,.36,1.28,.78,1.66s.98,.56,1.67,.56c.76,0,1.35-.26,1.78-.77s.65-1.23,.65-2.14c0-.86-.23-1.54-.7-2.06s-1.09-.78-1.86-.78c-.71,0-1.27,.16-1.67,.47l-.43,.35-1.3-.33Z"/><path class="cls-10" d="M85.91,413.97v1.38h-.3c-1.27,.02-2.27,.4-3.02,1.12s-1.18,1.75-1.3,3.07c.67-.77,1.59-1.16,2.76-1.16s2,.39,2.67,1.18,1,1.8,1,3.04c0,1.32-.36,2.37-1.08,3.16s-1.68,1.19-2.89,1.19-2.22-.47-2.98-1.41-1.14-2.15-1.14-3.63v-.62c0-2.36,.5-4.16,1.51-5.4s2.5-1.88,4.49-1.91h.29Zm-2.14,5.77c-.56,0-1.07,.17-1.54,.5s-.79,.75-.98,1.26v.6c0,1.05,.24,1.9,.71,2.55s1.07,.97,1.78,.97,1.31-.27,1.73-.81,.63-1.25,.63-2.12-.21-1.59-.64-2.13-.99-.81-1.69-.81Z"/><path class="cls-10" d="M87.79,472.5l-5.3,11.88h-1.71l5.28-11.46h-6.93v-1.34h8.65v.91Z"/><g><path class="cls-10" d="M338.3,138.78h-1.63v-10.84l-3.28,1.2v-1.48l4.66-1.75h.25v12.86Z"/><path class="cls-10" d="M349.93,134.48h1.78v1.33h-1.78v2.97h-1.63v-2.97h-5.83v-.96l5.73-8.87h1.73v8.5Zm-5.62,0h3.98v-6.28l-.19,.35-3.79,5.92Z"/></g><g><path class="cls-10" d="M338.3,196.38h-1.63v-10.84l-3.28,1.2v-1.48l4.66-1.75h.25v12.86Z"/><path class="cls-10" d="M345.43,189.19h1.22c.77-.01,1.37-.21,1.81-.61s.66-.92,.66-1.59c0-1.5-.75-2.25-2.24-2.25-.7,0-1.26,.2-1.68,.6s-.63,.93-.63,1.6h-1.63c0-1.01,.37-1.86,1.11-2.53s1.68-1.01,2.83-1.01c1.21,0,2.15,.32,2.84,.96s1.03,1.53,1.03,2.66c0,.56-.18,1.1-.54,1.62s-.85,.91-1.47,1.17c.7,.22,1.25,.59,1.63,1.11s.58,1.15,.58,1.89c0,1.15-.38,2.06-1.12,2.73s-1.73,1.01-2.93,1.01-2.18-.33-2.93-.98-1.13-1.51-1.13-2.58h1.63c0,.67,.22,1.21,.66,1.62s1.03,.61,1.77,.61c.79,0,1.39-.21,1.8-.62s.62-1,.62-1.77-.23-1.32-.69-1.71-1.12-.6-1.98-.62h-1.22v-1.33Z"/></g><g><path class="cls-10" d="M338.3,253.98h-1.63v-10.84l-3.28,1.2v-1.48l4.66-1.75h.25v12.86Z"/><path class="cls-10" d="M351.45,253.98h-8.38v-1.17l4.43-4.92c.66-.74,1.11-1.35,1.36-1.81s.37-.95,.37-1.45c0-.67-.2-1.22-.61-1.64s-.94-.64-1.62-.64c-.81,0-1.44,.23-1.89,.69s-.67,1.1-.67,1.92h-1.63c0-1.18,.38-2.13,1.14-2.86s1.77-1.09,3.05-1.09c1.19,0,2.13,.31,2.82,.94s1.04,1.45,1.04,2.49c0,1.26-.8,2.76-2.41,4.5l-3.43,3.72h6.42v1.33Z"/></g><g><path class="cls-10" d="M338.3,311.58h-1.63v-10.84l-3.28,1.2v-1.48l4.66-1.75h.25v12.86Z"/><path class="cls-10" d="M348.41,311.58h-1.63v-10.84l-3.28,1.2v-1.48l4.66-1.75h.25v12.86Z"/></g><g><path class="cls-10" d="M338.3,369.18h-1.63v-10.84l-3.28,1.2v-1.48l4.66-1.75h.25v12.86Z"/><path class="cls-10" d="M351.09,363.72c0,1.9-.33,3.32-.98,4.25s-1.67,1.39-3.05,1.39-2.38-.45-3.03-1.36-1-2.26-1.02-4.06v-2.17c0-1.88,.33-3.28,.98-4.19s1.67-1.37,3.06-1.37,2.39,.44,3.04,1.32,.98,2.24,1,4.08v2.11Zm-1.63-2.22c0-1.38-.19-2.38-.58-3.01s-1-.94-1.84-.94-1.44,.31-1.82,.94-.58,1.59-.59,2.89v2.6c0,1.38,.2,2.4,.6,3.06s1.01,.99,1.82,.99,1.4-.31,1.79-.93,.59-1.6,.61-2.94v-2.66Z"/></g><path class="cls-10" d="M344.96,421.15c-.34,.4-.75,.73-1.22,.98s-.99,.37-1.55,.37c-.74,0-1.38-.18-1.93-.54s-.97-.87-1.27-1.53-.45-1.39-.45-2.18c0-.86,.16-1.63,.49-2.31s.79-1.21,1.38-1.57,1.29-.54,2.09-.54c1.27,0,2.26,.47,2.99,1.42s1.09,2.24,1.09,3.87v.47c0,2.49-.49,4.31-1.48,5.45s-2.47,1.73-4.46,1.76h-.32v-1.38h.34c1.34-.02,2.37-.37,3.09-1.05s1.11-1.74,1.18-3.21Zm-2.5,0c.54,0,1.05-.17,1.51-.5s.8-.75,1.01-1.24v-.65c0-1.07-.23-1.93-.69-2.6s-1.05-1-1.76-1-1.29,.27-1.72,.82-.65,1.27-.65,2.17,.21,1.59,.63,2.16,.98,.85,1.68,.85Z"/><path class="cls-10" d="M346.49,474.92c0,.64-.17,1.21-.51,1.71s-.79,.89-1.37,1.17c.67,.29,1.2,.71,1.59,1.26s.58,1.17,.58,1.87c0,1.11-.37,1.99-1.12,2.65s-1.73,.98-2.95,.98-2.22-.33-2.96-.99-1.11-1.54-1.11-2.64c0-.69,.19-1.32,.57-1.87s.9-.98,1.57-1.27c-.57-.28-1.02-.67-1.34-1.17s-.49-1.06-.49-1.7c0-1.08,.35-1.93,1.04-2.57s1.6-.95,2.73-.95,2.03,.32,2.73,.95,1.04,1.49,1.04,2.57Zm-1.33,5.97c0-.71-.23-1.3-.68-1.75s-1.05-.68-1.78-.68-1.32,.22-1.76,.67-.66,1.03-.66,1.76,.22,1.3,.65,1.71,1.03,.62,1.8,.62,1.36-.21,1.79-.63,.65-.99,.65-1.71Zm-2.44-8.15c-.64,0-1.16,.2-1.55,.59s-.59,.93-.59,1.61,.19,1.18,.58,1.58,.91,.6,1.56,.6,1.17-.2,1.56-.6,.58-.93,.58-1.58-.2-1.18-.61-1.59-.92-.62-1.54-.62Z"/><g><path class="cls-10" d="M110.96,482.14l3.66-10.56h1.85l-4.75,12.8h-1.49l-4.74-12.8h1.84l3.64,10.56Z"/><path class="cls-10" d="M120.19,480.58c-.96-.28-1.67-.62-2.11-1.02s-.66-.9-.66-1.5c0-.67,.27-1.23,.81-1.67s1.24-.66,2.09-.66c.59,0,1.11,.11,1.57,.34s.81,.54,1.07,.94,.38,.83,.38,1.31h-1.13c0-.52-.16-.92-.49-1.22s-.79-.44-1.39-.44c-.55,0-.99,.12-1.3,.37-.31,.24-.47,.58-.47,1.02,0,.35,.15,.64,.44,.88,.29,.24,.8,.46,1.51,.66,.71,.2,1.26,.42,1.66,.66s.7,.52,.89,.84,.29,.7,.29,1.13c0,.69-.27,1.25-.81,1.66s-1.26,.62-2.16,.62c-.59,0-1.13-.11-1.64-.34s-.9-.53-1.17-.92-.41-.83-.41-1.33h1.13c0,.52,.19,.92,.57,1.22s.89,.45,1.53,.45c.59,0,1.05-.12,1.37-.36s.47-.57,.47-.99-.15-.74-.44-.97-.82-.45-1.59-.68Z"/><path class="cls-10" d="M127.31,480.58c-.96-.28-1.67-.62-2.11-1.02s-.66-.9-.66-1.5c0-.67,.27-1.23,.81-1.67s1.24-.66,2.09-.66c.59,0,1.11,.11,1.57,.34s.81,.54,1.07,.94,.38,.83,.38,1.31h-1.13c0-.52-.16-.92-.49-1.22s-.79-.44-1.39-.44c-.55,0-.99,.12-1.3,.37-.31,.24-.47,.58-.47,1.02,0,.35,.15,.64,.44,.88,.29,.24,.8,.46,1.51,.66,.71,.2,1.26,.42,1.66,.66s.7,.52,.89,.84,.29,.7,.29,1.13c0,.69-.27,1.25-.81,1.66s-1.26,.62-2.16,.62c-.59,0-1.13-.11-1.64-.34s-.9-.53-1.17-.92-.41-.83-.41-1.33h1.13c0,.52,.19,.92,.57,1.22s.89,.45,1.53,.45c.59,0,1.05-.12,1.37-.36s.47-.57,.47-.99-.15-.74-.44-.97-.82-.45-1.59-.68Z"/></g><g><path class="cls-10" d="M295.97,136.54l3.66-10.56h1.85l-4.75,12.8h-1.49l-4.74-12.8h1.84l3.64,10.56Z"/><path class="cls-10" d="M302.69,138.78v-8.53h2.41c.74,0,1.4,.16,1.97,.49s1.01,.79,1.32,1.4,.47,1.3,.47,2.09v.54c0,.8-.16,1.51-.47,2.12s-.75,1.07-1.33,1.39-1.25,.49-2.01,.5h-2.36Zm1.12-7.61v6.69h1.18c.87,0,1.54-.27,2.02-.81,.48-.54,.72-1.31,.72-2.3v-.5c0-.97-.23-1.72-.68-2.26-.46-.54-1.1-.81-1.94-.82h-1.31Z"/><path class="cls-10" d="M310.56,138.78v-8.53h2.41c.74,0,1.4,.16,1.97,.49s1.01,.79,1.32,1.4,.47,1.3,.47,2.09v.54c0,.8-.16,1.51-.47,2.12s-.75,1.07-1.33,1.39-1.25,.49-2.01,.5h-2.36Zm1.12-7.61v6.69h1.18c.87,0,1.54-.27,2.02-.81,.48-.54,.72-1.31,.72-2.3v-.5c0-.97-.23-1.72-.68-2.26-.46-.54-1.1-.81-1.94-.82h-1.31Z"/></g><g><path class="cls-10" d="M192.04,543.14c-.16,1.35-.66,2.4-1.5,3.13s-1.96,1.1-3.35,1.1c-1.51,0-2.72-.54-3.63-1.63s-1.37-2.53-1.37-4.35v-1.23c0-1.19,.21-2.24,.64-3.14s1.03-1.6,1.81-2.08,1.68-.72,2.71-.72c1.36,0,2.45,.38,3.27,1.14s1.3,1.81,1.43,3.15h-1.7c-.15-1.02-.46-1.76-.95-2.22-.49-.46-1.17-.69-2.05-.69-1.08,0-1.92,.4-2.54,1.2s-.92,1.93-.92,3.4v1.24c0,1.39,.29,2.5,.87,3.32,.58,.82,1.39,1.23,2.43,1.23,.94,0,1.66-.21,2.16-.64s.83-1.16,1-2.22h1.7Z"/><path class="cls-10" d="M194.35,547.2v-12.8h3.61c1.11,0,2.1,.25,2.95,.74s1.52,1.19,1.98,2.1,.7,1.95,.71,3.13v.82c0,1.21-.23,2.26-.7,3.17s-1.13,1.61-2,2.09-1.87,.74-3.02,.75h-3.54Zm1.69-11.42v10.04h1.78c1.3,0,2.31-.41,3.04-1.21,.72-.81,1.09-1.96,1.09-3.46v-.75c0-1.45-.34-2.58-1.02-3.39-.68-.81-1.65-1.21-2.9-1.23h-1.97Z"/><path class="cls-10" d="M212.59,542.9h1.78v1.33h-1.78v2.97h-1.63v-2.97h-5.83v-.96l5.73-8.87h1.73v8.5Zm-5.62,0h3.98v-6.28l-.19,.35-3.79,5.92Z"/><path class="cls-10" d="M223.86,541.74c0,1.9-.33,3.32-.98,4.25s-1.67,1.39-3.05,1.39-2.38-.45-3.03-1.36-1-2.26-1.02-4.06v-2.17c0-1.88,.33-3.28,.98-4.19s1.67-1.37,3.06-1.37,2.39,.44,3.04,1.32,.98,2.24,1,4.08v2.11Zm-1.63-2.22c0-1.38-.19-2.38-.58-3.01s-1-.94-1.84-.94-1.44,.31-1.82,.94-.58,1.59-.59,2.89v2.6c0,1.38,.2,2.4,.6,3.06s1.01,.99,1.82,.99,1.4-.31,1.79-.93,.59-1.6,.61-2.94v-2.66Z"/><path class="cls-10" d="M234.2,535.32l-5.3,11.88h-1.71l5.28-11.46h-6.93v-1.34h8.65v.91Z"/><path class="cls-10" d="M244.07,541.74c0,1.9-.33,3.32-.98,4.25s-1.67,1.39-3.05,1.39-2.38-.45-3.03-1.36-1-2.26-1.02-4.06v-2.17c0-1.88,.33-3.28,.98-4.19s1.67-1.37,3.06-1.37,2.39,.44,3.04,1.32,.98,2.24,1,4.08v2.11Zm-1.63-2.22c0-1.38-.19-2.38-.58-3.01s-1-.94-1.84-.94-1.44,.31-1.82,.94-.58,1.59-.59,2.89v2.6c0,1.38,.2,2.4,.6,3.06s1.01,.99,1.82,.99,1.4-.31,1.79-.93,.59-1.6,.61-2.94v-2.66Z"/></g><g><path class="cls-10" d="M111.53,39.3h-1.27v-8.43l-2.55,.94v-1.15l3.62-1.36h.2v10Z"/><path class="cls-10" d="M115.32,41.28l-.72-.49c.43-.6,.65-1.21,.67-1.85v-1.14h1.24v.99c0,.46-.11,.92-.34,1.38s-.51,.83-.85,1.11Z"/><path class="cls-10" d="M118.56,34.31l.51-4.96h5.1v1.17h-4.03l-.3,2.71c.49-.29,1.04-.43,1.66-.43,.91,0,1.63,.3,2.16,.9s.8,1.41,.8,2.43-.28,1.83-.83,2.42-1.33,.89-2.32,.89c-.88,0-1.6-.24-2.15-.73s-.87-1.16-.95-2.02h1.2c.08,.57,.28,1,.61,1.29s.76,.43,1.3,.43c.59,0,1.05-.2,1.38-.6s.5-.95,.5-1.66c0-.67-.18-1.2-.54-1.6s-.84-.6-1.45-.6c-.55,0-.98,.12-1.3,.36l-.33,.27-1.01-.26Z"/><path class="cls-10" d="M125.93,41.28l-.72-.49c.43-.6,.65-1.21,.67-1.85v-1.14h1.24v.99c0,.46-.11,.92-.34,1.38s-.51,.83-.85,1.11Z"/><path class="cls-10" d="M134.63,31.94c0,.5-.13,.94-.39,1.33s-.62,.69-1.06,.91c.52,.22,.93,.55,1.23,.98s.45,.91,.45,1.46c0,.86-.29,1.55-.87,2.06s-1.35,.77-2.29,.77-1.72-.26-2.3-.77-.86-1.2-.86-2.05c0-.54,.15-1.02,.44-1.46s.7-.76,1.22-.98c-.44-.22-.79-.52-1.05-.91s-.38-.83-.38-1.32c0-.84,.27-1.5,.81-2s1.25-.74,2.13-.74,1.58,.25,2.12,.74,.81,1.16,.81,2Zm-1.03,4.64c0-.56-.18-1.01-.53-1.36s-.81-.53-1.38-.53-1.03,.17-1.37,.52-.52,.8-.52,1.37,.17,1.01,.5,1.33,.8,.49,1.4,.49,1.06-.16,1.39-.49,.51-.77,.51-1.33Zm-1.9-6.34c-.5,0-.9,.15-1.21,.46s-.46,.73-.46,1.25,.15,.92,.45,1.23,.71,.47,1.21,.47,.91-.16,1.21-.47,.45-.72,.45-1.23-.16-.92-.47-1.24-.71-.48-1.2-.48Z"/><path class="cls-10" d="M136.54,41.28l-.72-.49c.43-.6,.65-1.21,.67-1.85v-1.14h1.24v.99c0,.46-.11,.92-.34,1.38s-.51,.83-.85,1.11Z"/><path class="cls-10" d="M143.36,39.3h-1.27v-8.43l-2.55,.94v-1.15l3.62-1.36h.2v10Z"/><path class="cls-10" d="M153.58,39.3h-6.52v-.91l3.45-3.83c.51-.58,.86-1.05,1.06-1.41s.29-.74,.29-1.12c0-.52-.16-.95-.47-1.28s-.73-.5-1.26-.5c-.63,0-1.12,.18-1.47,.54s-.52,.86-.52,1.49h-1.26c0-.92,.29-1.66,.89-2.22s1.38-.85,2.37-.85c.93,0,1.66,.24,2.19,.73s.81,1.13,.81,1.94c0,.98-.62,2.15-1.87,3.5l-2.67,2.89h5v1.03Z"/></g><g><path class="cls-10" d="M113.17,59.46h-6.52v-.91l3.45-3.83c.51-.58,.86-1.05,1.06-1.41s.29-.74,.29-1.12c0-.52-.16-.95-.47-1.28s-.73-.5-1.26-.5c-.63,0-1.12,.18-1.47,.54s-.52,.86-.52,1.49h-1.26c0-.92,.29-1.66,.89-2.22s1.38-.85,2.37-.85c.93,0,1.66,.24,2.19,.73s.81,1.13,.81,1.94c0,.98-.62,2.15-1.87,3.5l-2.67,2.89h5v1.03Z"/><path class="cls-10" d="M114.6,61.44l-.72-.49c.43-.6,.65-1.21,.67-1.85v-1.14h1.24v.99c0,.46-.11,.92-.34,1.38s-.51,.83-.85,1.11Z"/><path class="cls-10" d="M122.22,49.5v1.07h-.23c-.98,.02-1.77,.31-2.35,.88s-.92,1.36-1.01,2.39c.52-.6,1.24-.9,2.15-.9s1.56,.31,2.07,.92,.78,1.4,.78,2.37c0,1.03-.28,1.85-.84,2.46s-1.31,.92-2.25,.92-1.73-.37-2.32-1.1-.89-1.67-.89-2.83v-.49c0-1.83,.39-3.23,1.17-4.2s1.94-1.46,3.49-1.49h.23Zm-1.66,4.48c-.43,0-.83,.13-1.2,.39s-.62,.59-.76,.98v.46c0,.82,.18,1.48,.55,1.98s.83,.75,1.38,.75,1.02-.21,1.34-.63,.49-.97,.49-1.65-.17-1.24-.5-1.66-.77-.63-1.32-.63Z"/><path class="cls-10" d="M125.21,61.44l-.72-.49c.43-.6,.65-1.21,.67-1.85v-1.14h1.24v.99c0,.46-.11,.92-.34,1.38s-.51,.83-.85,1.11Z"/><path class="cls-10" d="M132.72,55.08c-.26,.31-.58,.57-.95,.76s-.77,.29-1.21,.29c-.57,0-1.07-.14-1.5-.42s-.76-.68-.99-1.19-.35-1.08-.35-1.7c0-.67,.13-1.26,.38-1.8s.61-.94,1.08-1.22,1.01-.42,1.63-.42c.98,0,1.76,.37,2.33,1.1s.85,1.74,.85,3.01v.37c0,1.94-.38,3.35-1.15,4.24s-1.92,1.35-3.47,1.37h-.25v-1.07h.27c1.04-.02,1.85-.29,2.41-.82,.56-.52,.87-1.36,.92-2.49Zm-1.95,0c.42,0,.81-.13,1.17-.39s.62-.58,.78-.96v-.51c0-.83-.18-1.5-.54-2.02s-.82-.78-1.37-.78-1,.21-1.34,.64-.51,.99-.51,1.69,.16,1.24,.49,1.68,.76,.66,1.31,.66Z"/><path class="cls-10" d="M135.82,61.44l-.72-.49c.43-.6,.65-1.21,.67-1.85v-1.14h1.24v.99c0,.46-.11,.92-.34,1.38s-.51,.83-.85,1.11Z"/><path class="cls-10" d="M142.64,59.46h-1.27v-8.43l-2.55,.94v-1.15l3.62-1.36h.2v10Z"/><path class="cls-10" d="M148.18,53.87h.95c.6,0,1.07-.17,1.41-.47s.51-.72,.51-1.24c0-1.17-.58-1.75-1.74-1.75-.55,0-.98,.16-1.31,.47s-.49,.73-.49,1.24h-1.26c0-.79,.29-1.44,.86-1.97s1.31-.78,2.2-.78c.94,0,1.67,.25,2.21,.75s.8,1.19,.8,2.07c0,.43-.14,.85-.42,1.26s-.66,.71-1.15,.91c.55,.17,.97,.46,1.27,.86s.45,.89,.45,1.47c0,.89-.29,1.6-.88,2.13s-1.34,.79-2.28,.79-1.69-.25-2.28-.76-.88-1.17-.88-2h1.27c0,.52,.17,.94,.51,1.26s.8,.47,1.37,.47c.61,0,1.08-.16,1.4-.48s.49-.78,.49-1.37-.18-1.02-.53-1.33-.87-.47-1.54-.48h-.95v-1.03Z"/></g><g><path class="cls-10" d="M272.32,44.87h.95c.6,0,1.07-.17,1.41-.47s.51-.72,.51-1.24c0-1.17-.58-1.75-1.74-1.75-.55,0-.98,.16-1.31,.47s-.49,.73-.49,1.24h-1.26c0-.79,.29-1.44,.86-1.97s1.31-.78,2.2-.78c.94,0,1.67,.25,2.21,.75s.8,1.19,.8,2.07c0,.43-.14,.85-.42,1.26s-.66,.71-1.15,.91c.55,.17,.97,.46,1.27,.86s.45,.89,.45,1.47c0,.89-.29,1.6-.88,2.13s-1.34,.79-2.28,.79-1.69-.25-2.28-.76-.88-1.17-.88-2h1.27c0,.52,.17,.94,.51,1.26s.8,.47,1.37,.47c.61,0,1.08-.16,1.4-.48s.49-.78,.49-1.37-.18-1.02-.53-1.33-.87-.47-1.54-.48h-.95v-1.03Z"/><path class="cls-10" d="M278.43,52.44l-.72-.49c.43-.6,.65-1.21,.67-1.85v-1.14h1.24v.99c0,.46-.11,.92-.34,1.38s-.51,.83-.85,1.11Z"/><path class="cls-10" d="M286.43,47.12h1.38v1.03h-1.38v2.31h-1.27v-2.31h-4.53v-.75l4.46-6.9h1.35v6.61Zm-4.37,0h3.1v-4.88l-.15,.27-2.95,4.61Z"/><path class="cls-10" d="M289.04,52.44l-.72-.49c.43-.6,.65-1.21,.67-1.85v-1.14h1.24v.99c0,.46-.11,.92-.34,1.38s-.51,.83-.85,1.11Z"/><path class="cls-10" d="M295.86,50.46h-1.27v-8.43l-2.55,.94v-1.15l3.62-1.36h.2v10Z"/><path class="cls-10" d="M305.8,46.21c0,1.48-.25,2.58-.76,3.3s-1.3,1.08-2.37,1.08-1.85-.35-2.36-1.06-.77-1.76-.79-3.15v-1.69c0-1.46,.25-2.55,.76-3.26s1.3-1.07,2.38-1.07,1.86,.34,2.37,1.03,.77,1.74,.78,3.18v1.64Zm-1.26-1.73c0-1.07-.15-1.85-.45-2.34s-.78-.73-1.43-.73-1.12,.24-1.42,.73-.45,1.24-.46,2.25v2.02c0,1.08,.16,1.87,.47,2.38s.79,.77,1.42,.77,1.09-.24,1.39-.72,.46-1.24,.48-2.28v-2.07Z"/><path class="cls-10" d="M307.51,52.44l-.72-.49c.43-.6,.65-1.21,.67-1.85v-1.14h1.24v.99c0,.46-.11,.92-.34,1.38s-.51,.83-.85,1.11Z"/><path class="cls-10" d="M314.33,50.46h-1.27v-8.43l-2.55,.94v-1.15l3.62-1.36h.2v10Z"/><path class="cls-10" d="M322.19,50.46h-1.27v-8.43l-2.55,.94v-1.15l3.62-1.36h.2v10Z"/></g><g><path class="cls-10" d="M790.6,278.56l3.66-10.56h1.85l-4.75,12.8h-1.49l-4.74-12.8h1.84l3.64,10.56Z"/><path class="cls-10" d="M803.88,276.81c0,.84-.14,1.57-.42,2.19s-.68,1.1-1.2,1.43-1.12,.49-1.8,.49-1.27-.17-1.79-.5-.92-.8-1.21-1.41-.43-1.32-.44-2.12v-.62c0-.82,.14-1.54,.43-2.17s.69-1.11,1.21-1.44,1.12-.5,1.79-.5,1.29,.17,1.81,.5,.92,.81,1.2,1.44,.42,1.36,.42,2.19v.54Zm-1.12-.55c0-1.01-.2-1.79-.61-2.33s-.97-.81-1.71-.81-1.27,.27-1.68,.81-.62,1.29-.63,2.25v.63c0,.98,.21,1.75,.62,2.31s.98,.84,1.7,.84,1.29-.26,1.69-.79,.6-1.29,.62-2.28v-.63Z"/><path class="cls-10" d="M811.57,272.27v5.8c0,.8-.26,1.46-.76,1.97s-1.18,.8-2.04,.86h-.3c-.93,.01-1.68-.24-2.23-.74s-.84-1.2-.84-2.08v-5.81h1.11v5.78c0,.62,.17,1.1,.51,1.44s.82,.51,1.45,.51,1.12-.17,1.46-.51,.51-.82,.51-1.44v-5.78h1.13Z"/><path class="cls-10" d="M819.24,273.19h-2.74v7.61h-1.12v-7.61h-2.74v-.92h6.6v.92Z"/></g><g><path class="cls-10" d="M727.35,231.84h-1.63v-10.84l-3.28,1.2v-1.48l4.66-1.75h.25v12.86Z"/><path class="cls-10" d="M732.6,232.94h-1.4l5.34-13.9h1.39l-5.33,13.9Z"/><path class="cls-10" d="M746.39,227.54h1.78v1.33h-1.78v2.97h-1.63v-2.97h-5.83v-.96l5.73-8.87h1.73v8.5Zm-5.62,0h3.98v-6.28l-.19,.35-3.79,5.92Z"/><path class="cls-10" d="M763.93,227.78c-.16,1.35-.66,2.4-1.5,3.13s-1.96,1.1-3.35,1.1c-1.51,0-2.72-.54-3.63-1.63s-1.37-2.53-1.37-4.35v-1.23c0-1.19,.21-2.24,.64-3.14s1.03-1.6,1.81-2.08,1.68-.73,2.71-.73c1.36,0,2.45,.38,3.27,1.14s1.3,1.81,1.43,3.15h-1.7c-.15-1.02-.46-1.76-.95-2.22s-1.17-.69-2.05-.69c-1.08,0-1.92,.4-2.54,1.2-.61,.8-.92,1.93-.92,3.4v1.24c0,1.39,.29,2.5,.87,3.32s1.39,1.23,2.43,1.23c.94,0,1.66-.21,2.16-.64s.83-1.16,1-2.22h1.7Z"/><path class="cls-10" d="M766.23,231.84v-12.8h3.61c1.11,0,2.1,.25,2.95,.74s1.52,1.19,1.98,2.1,.7,1.95,.71,3.13v.82c0,1.21-.23,2.26-.7,3.17s-1.13,1.61-2,2.09-1.87,.74-3.02,.75h-3.54Zm1.69-11.42v10.04h1.78c1.3,0,2.31-.4,3.04-1.21s1.09-1.96,1.09-3.46v-.75c0-1.45-.34-2.58-1.02-3.39-.68-.81-1.65-1.22-2.9-1.23h-1.97Z"/><path class="cls-10" d="M784.48,227.54h1.78v1.33h-1.78v2.97h-1.63v-2.97h-5.83v-.96l5.73-8.87h1.73v8.5Zm-5.62,0h3.98v-6.28l-.19,.35-3.79,5.92Z"/><path class="cls-10" d="M795.74,226.38c0,1.9-.33,3.32-.98,4.25s-1.67,1.39-3.05,1.39-2.38-.45-3.03-1.36-1-2.26-1.02-4.06v-2.17c0-1.88,.33-3.28,.98-4.19s1.67-1.37,3.06-1.37,2.39,.44,3.04,1.32,.98,2.24,1,4.08v2.11Zm-1.63-2.22c0-1.38-.19-2.38-.58-3.01s-1-.94-1.84-.94-1.44,.31-1.82,.94-.58,1.59-.59,2.89v2.6c0,1.38,.2,2.4,.6,3.06s1.01,.99,1.82,.99,1.4-.31,1.79-.93,.59-1.6,.61-2.94v-2.66Z"/><path class="cls-10" d="M806.09,219.96l-5.3,11.88h-1.71l5.28-11.46h-6.93v-1.34h8.65v.91Z"/><path class="cls-10" d="M815.96,226.38c0,1.9-.33,3.32-.98,4.25s-1.67,1.39-3.05,1.39-2.38-.45-3.03-1.36-1-2.26-1.02-4.06v-2.17c0-1.88,.33-3.28,.98-4.19s1.67-1.37,3.06-1.37,2.39,.44,3.04,1.32,.98,2.24,1,4.08v2.11Zm-1.63-2.22c0-1.38-.19-2.38-.58-3.01s-1-.94-1.84-.94-1.44,.31-1.82,.94-.58,1.59-.59,2.89v2.6c0,1.38,.2,2.4,.6,3.06s1.01,.99,1.82,.99,1.4-.31,1.79-.93,.59-1.6,.61-2.94v-2.66Z"/></g><path class="cls-10" d="M622.15,329.76h-8.38v-1.17l4.43-4.92c.66-.74,1.11-1.35,1.36-1.82s.37-.95,.37-1.45c0-.67-.2-1.22-.61-1.64s-.94-.64-1.62-.64c-.81,0-1.44,.23-1.88,.69s-.67,1.1-.67,1.92h-1.63c0-1.18,.38-2.13,1.14-2.86s1.77-1.09,3.04-1.09c1.19,0,2.13,.31,2.82,.94s1.04,1.46,1.04,2.49c0,1.26-.8,2.76-2.41,4.5l-3.43,3.72h6.42v1.33Z"/><path class="cls-10" d="M761.57,273.61h1.22c.77-.01,1.37-.21,1.81-.61s.66-.92,.66-1.59c0-1.5-.75-2.25-2.24-2.25-.7,0-1.26,.2-1.68,.6s-.63,.93-.63,1.59h-1.63c0-1.01,.37-1.86,1.11-2.53s1.68-1.01,2.83-1.01c1.21,0,2.15,.32,2.84,.96s1.03,1.53,1.03,2.66c0,.56-.18,1.1-.54,1.62s-.85,.91-1.47,1.17c.7,.22,1.25,.59,1.63,1.11s.58,1.15,.58,1.89c0,1.15-.38,2.06-1.12,2.73s-1.73,1.01-2.93,1.01-2.18-.33-2.93-.98-1.13-1.51-1.13-2.58h1.63c0,.67,.22,1.21,.66,1.62s1.03,.61,1.77,.61c.79,0,1.39-.21,1.8-.62s.62-1,.62-1.77-.23-1.32-.69-1.71-1.12-.6-1.98-.62h-1.22v-1.33Z"/><path class="cls-10" d="M619.11,259.2h-1.63v-10.84l-3.28,1.2v-1.48l4.66-1.75h.25v12.86Z"/><g><path class="cls-10" d="M694.16,392.32l3.66-10.56h1.85l-4.75,12.8h-1.49l-4.74-12.8h1.84l3.64,10.56Z"/><path class="cls-10" d="M703.39,390.76c-.96-.28-1.67-.62-2.11-1.02s-.66-.9-.66-1.5c0-.67,.27-1.23,.81-1.67s1.24-.66,2.09-.66c.59,0,1.11,.11,1.57,.34s.81,.54,1.07,.94,.38,.83,.38,1.31h-1.13c0-.52-.16-.92-.49-1.22s-.79-.44-1.39-.44c-.55,0-.99,.12-1.3,.37-.31,.24-.47,.58-.47,1.02,0,.35,.15,.64,.44,.88s.8,.46,1.51,.66c.71,.2,1.26,.42,1.66,.66s.7,.52,.89,.84,.29,.7,.29,1.13c0,.69-.27,1.25-.81,1.66s-1.26,.62-2.16,.62c-.59,0-1.13-.11-1.64-.34s-.9-.53-1.17-.92-.41-.83-.41-1.33h1.13c0,.52,.19,.92,.57,1.22s.89,.45,1.53,.45c.59,0,1.05-.12,1.37-.36s.47-.57,.47-.99-.15-.74-.44-.97-.82-.45-1.59-.68Z"/><path class="cls-10" d="M710.51,390.76c-.96-.28-1.67-.62-2.11-1.02s-.66-.9-.66-1.5c0-.67,.27-1.23,.81-1.67s1.24-.66,2.09-.66c.59,0,1.11,.11,1.57,.34s.81,.54,1.07,.94,.38,.83,.38,1.31h-1.13c0-.52-.16-.92-.49-1.22s-.79-.44-1.39-.44c-.55,0-.99,.12-1.3,.37-.31,.24-.47,.58-.47,1.02,0,.35,.15,.64,.44,.88s.8,.46,1.51,.66c.71,.2,1.26,.42,1.66,.66s.7,.52,.89,.84,.29,.7,.29,1.13c0,.69-.27,1.25-.81,1.66s-1.26,.62-2.16,.62c-.59,0-1.13-.11-1.64-.34s-.9-.53-1.17-.92-.41-.83-.41-1.33h1.13c0,.52,.19,.92,.57,1.22s.89,.45,1.53,.45c.59,0,1.05-.12,1.37-.36s.47-.57,.47-.99-.15-.74-.44-.97-.82-.45-1.59-.68Z"/></g><g><path class="cls-10" d="M690.53,193.6l3.66-10.56h1.85l-4.75,12.8h-1.49l-4.74-12.8h1.84l3.64,10.56Z"/><path class="cls-10" d="M697.25,195.84v-8.53h2.41c.74,0,1.4,.16,1.97,.49s1.01,.79,1.32,1.4,.47,1.3,.47,2.09v.54c0,.8-.16,1.51-.47,2.12s-.75,1.07-1.33,1.39-1.25,.49-2.01,.5h-2.36Zm1.12-7.61v6.69h1.18c.87,0,1.54-.27,2.02-.81s.72-1.31,.72-2.31v-.5c0-.97-.23-1.72-.68-2.26-.46-.54-1.1-.81-1.94-.82h-1.31Z"/><path class="cls-10" d="M705.12,195.84v-8.53h2.41c.74,0,1.4,.16,1.97,.49s1.01,.79,1.32,1.4,.47,1.3,.47,2.09v.54c0,.8-.16,1.51-.47,2.12s-.75,1.07-1.33,1.39-1.25,.49-2.01,.5h-2.36Zm1.12-7.61v6.69h1.18c.87,0,1.54-.27,2.02-.81s.72-1.31,.72-2.31v-.5c0-.97-.23-1.72-.68-2.26-.46-.54-1.1-.81-1.94-.82h-1.31Z"/></g><g><path class="cls-10" d="M654.38,233.28h-1.63v-10.84l-3.28,1.2v-1.48l4.66-1.75h.25v12.86Z"/><path class="cls-10" d="M666.01,228.98h1.78v1.33h-1.78v2.97h-1.63v-2.97h-5.83v-.96l5.73-8.87h1.73v8.5Zm-5.62,0h3.98v-6.28l-.19,.35-3.79,5.92Z"/></g><path class="cls-10" d="M666.67,340.92l-5.3,11.88h-1.71l5.28-11.46h-6.93v-1.34h8.65v.91Z"/><g><path class="cls-10" d="M834.39,319.84l4.18,10.44,4.18-10.44h2.19v12.8h-1.69v-4.98l.16-5.38-4.2,10.36h-1.29l-4.19-10.34,.17,5.35v4.98h-1.69v-12.8h2.18Z"/><path class="cls-10" d="M847.24,327.8c0-.93,.18-1.77,.55-2.51s.88-1.32,1.53-1.72,1.4-.61,2.24-.61c1.29,0,2.34,.45,3.14,1.34s1.2,2.09,1.2,3.58v.11c0,.93-.18,1.76-.53,2.49s-.86,1.31-1.52,1.72-1.42,.62-2.27,.62c-1.29,0-2.33-.45-3.13-1.34s-1.2-2.08-1.2-3.56v-.11Zm1.63,.19c0,1.05,.24,1.9,.73,2.54s1.14,.96,1.96,.96,1.48-.32,1.97-.97,.73-1.55,.73-2.72c0-1.04-.25-1.89-.74-2.54s-1.15-.97-1.97-.97-1.45,.32-1.94,.96-.74,1.55-.74,2.74Z"/><path class="cls-10" d="M857.54,327.81c0-1.46,.35-2.63,1.04-3.52s1.6-1.33,2.72-1.33,2,.38,2.65,1.14v-4.96h1.63v13.5h-1.49l-.08-1.02c-.65,.8-1.56,1.2-2.72,1.2s-2-.45-2.69-1.35-1.04-2.08-1.04-3.53v-.12Zm1.63,.18c0,1.08,.22,1.92,.67,2.53s1.06,.91,1.85,.91c1.03,0,1.78-.46,2.26-1.39v-4.37c-.49-.9-1.23-1.34-2.24-1.34-.8,0-1.42,.31-1.86,.92s-.67,1.53-.67,2.73Z"/><path class="cls-10" d="M873.96,331.7c-.63,.74-1.56,1.12-2.79,1.12-1.01,0-1.79-.29-2.32-.88s-.8-1.46-.8-2.62v-6.19h1.63v6.14c0,1.44,.59,2.16,1.76,2.16,1.24,0,2.07-.46,2.48-1.39v-6.92h1.63v9.51h-1.55l-.04-.94Z"/><path class="cls-10" d="M879.77,332.64h-1.63v-13.5h1.63v13.5Z"/><path class="cls-10" d="M888.25,332.64c-.09-.19-.17-.52-.23-1-.76,.79-1.66,1.18-2.71,1.18-.94,0-1.71-.26-2.31-.79s-.9-1.2-.9-2.02c0-.99,.38-1.76,1.13-2.31s1.81-.82,3.18-.82h1.58v-.75c0-.57-.17-1.02-.51-1.36s-.84-.51-1.5-.51c-.58,0-1.07,.15-1.46,.44s-.59,.65-.59,1.06h-1.63c0-.47,.17-.93,.5-1.38s.79-.79,1.37-1.05,1.21-.39,1.9-.39c1.1,0,1.95,.27,2.58,.82s.94,1.3,.97,2.26v4.38c0,.87,.11,1.57,.33,2.08v.14h-1.71Zm-2.7-1.24c.51,0,.99-.13,1.45-.4s.79-.61,.99-1.03v-1.95h-1.27c-1.99,0-2.99,.58-2.99,1.75,0,.51,.17,.91,.51,1.2s.78,.43,1.31,.43Z"/><path class="cls-10" d="M894.37,320.83v2.3h1.78v1.26h-1.78v5.91c0,.38,.08,.67,.24,.86,.16,.19,.43,.29,.81,.29,.19,0,.45-.04,.77-.11v1.31c-.43,.12-.84,.17-1.25,.17-.73,0-1.27-.22-1.64-.66s-.55-1.06-.55-1.87v-5.9h-1.73v-1.26h1.73v-2.3h1.63Z"/><path class="cls-10" d="M901.99,332.81c-1.29,0-2.34-.42-3.15-1.27s-1.21-1.98-1.21-3.4v-.3c0-.94,.18-1.79,.54-2.53s.86-1.32,1.51-1.74,1.35-.63,2.11-.63c1.24,0,2.2,.41,2.88,1.22s1.03,1.98,1.03,3.5v.68h-6.44c.02,.94,.3,1.7,.82,2.27s1.19,.87,2,.87c.57,0,1.06-.12,1.46-.35s.75-.54,1.05-.93l.99,.77c-.8,1.22-1.99,1.84-3.59,1.84Zm-.2-8.53c-.66,0-1.21,.24-1.65,.72s-.72,1.15-.83,2.01h4.76v-.12c-.05-.83-.27-1.47-.67-1.92s-.94-.68-1.62-.68Z"/><path class="cls-10" d="M907.19,327.81c0-1.46,.35-2.63,1.04-3.52s1.6-1.33,2.72-1.33,2,.38,2.65,1.14v-4.96h1.63v13.5h-1.49l-.08-1.02c-.65,.8-1.56,1.2-2.72,1.2s-2-.45-2.69-1.35-1.04-2.08-1.04-3.53v-.12Zm1.63,.18c0,1.08,.22,1.92,.67,2.53s1.06,.91,1.85,.91c1.03,0,1.78-.46,2.26-1.39v-4.37c-.49-.9-1.23-1.34-2.24-1.34-.8,0-1.42,.31-1.86,.92s-.67,1.53-.67,2.73Z"/><path class="cls-10" d="M932.29,326.65c0,1.25-.21,2.35-.63,3.28s-1.02,1.65-1.79,2.14-1.68,.74-2.71,.74-1.9-.25-2.68-.74-1.38-1.2-1.82-2.12-.65-1.98-.66-3.19v-.92c0-1.23,.21-2.32,.64-3.26s1.03-1.67,1.81-2.17,1.68-.75,2.69-.75,1.93,.25,2.71,.74,1.38,1.21,1.81,2.15,.63,2.03,.63,3.28v.81Zm-1.68-.83c0-1.52-.3-2.68-.91-3.49s-1.46-1.22-2.56-1.22-1.91,.41-2.52,1.22-.93,1.94-.94,3.38v.94c0,1.47,.31,2.63,.93,3.47s1.47,1.26,2.55,1.26,1.93-.4,2.53-1.19,.91-1.93,.92-3.42v-.95Z"/><path class="cls-10" d="M940.44,331.7c-.63,.74-1.56,1.12-2.79,1.12-1.01,0-1.79-.29-2.32-.88s-.8-1.46-.8-2.62v-6.19h1.63v6.14c0,1.44,.59,2.16,1.76,2.16,1.24,0,2.07-.46,2.48-1.39v-6.92h1.63v9.51h-1.55l-.04-.94Z"/><path class="cls-10" d="M946.69,320.83v2.3h1.78v1.26h-1.78v5.91c0,.38,.08,.67,.24,.86,.16,.19,.43,.29,.81,.29,.19,0,.45-.04,.77-.11v1.31c-.43,.12-.84,.17-1.25,.17-.73,0-1.27-.22-1.64-.66s-.55-1.06-.55-1.87v-5.9h-1.73v-1.26h1.73v-2.3h1.63Z"/><path class="cls-10" d="M958.4,327.99c0,1.45-.33,2.61-.99,3.5s-1.56,1.33-2.69,1.33-2.06-.37-2.72-1.1v4.58h-1.63v-13.17h1.49l.08,1.05c.66-.82,1.58-1.23,2.76-1.23s2.05,.43,2.71,1.29,1,2.06,1,3.59v.15Zm-1.63-.18c0-1.07-.23-1.92-.69-2.54s-1.08-.93-1.88-.93c-.98,0-1.72,.44-2.21,1.31v4.54c.49,.87,1.23,1.3,2.23,1.3,.78,0,1.4-.31,1.86-.93s.69-1.54,.69-2.76Z"/><path class="cls-10" d="M966.34,331.7c-.63,.74-1.56,1.12-2.79,1.12-1.01,0-1.79-.29-2.32-.88s-.8-1.46-.8-2.62v-6.19h1.63v6.14c0,1.44,.59,2.16,1.76,2.16,1.24,0,2.07-.46,2.48-1.39v-6.92h1.63v9.51h-1.55l-.04-.94Z"/><path class="cls-10" d="M972.6,320.83v2.3h1.78v1.26h-1.78v5.91c0,.38,.08,.67,.24,.86,.16,.19,.43,.29,.81,.29,.19,0,.45-.04,.77-.11v1.31c-.43,.12-.84,.17-1.25,.17-.73,0-1.27-.22-1.64-.66s-.55-1.06-.55-1.87v-5.9h-1.73v-1.26h1.73v-2.3h1.63Z"/></g><g><path class="cls-10" d="M201.68,14.02l2.39-3.81h1.54l-3.14,4.94,3.22,5.02h-1.56l-2.45-3.88-2.46,3.88h-1.55l3.23-5.02-3.15-4.94h1.54l2.4,3.81Z"/><path class="cls-10" d="M214.7,15.5c0,.98-.16,1.83-.49,2.55s-.79,1.28-1.39,1.66-1.3,.57-2.11,.57-1.48-.19-2.08-.58-1.08-.93-1.41-1.65-.51-1.54-.52-2.48v-.72c0-.96,.17-1.8,.5-2.54s.8-1.3,1.41-1.69,1.3-.58,2.09-.58,1.5,.19,2.11,.58,1.08,.94,1.4,1.67,.49,1.58,.49,2.55v.63Zm-1.31-.64c0-1.18-.24-2.09-.71-2.72s-1.14-.95-1.99-.95-1.48,.32-1.96,.95-.72,1.51-.73,2.63v.73c0,1.14,.24,2.04,.72,2.7s1.14,.98,1.99,.98,1.5-.31,1.97-.93,.7-1.5,.72-2.66v-.74Z"/><path class="cls-10" d="M220.32,16.13h-2.34v4.03h-1.32V10.21h3.29c1.12,0,1.98,.26,2.59,.77s.91,1.25,.91,2.23c0,.62-.17,1.16-.5,1.62s-.8,.8-1.4,1.03l2.34,4.22v.08h-1.41l-2.16-4.03Zm-2.34-1.07h2.02c.65,0,1.17-.17,1.56-.51s.58-.79,.58-1.36c0-.62-.18-1.09-.55-1.42s-.9-.5-1.59-.5h-2.01v3.78Z"/></g></g><g id="Line"><line class="cls-8" x1="267.49" y1="46.08" x2="240.5" y2="46.08"/><path class="cls-7" d="M187.19,25.92c3.73,0,6.75,11.42,6.75,20.15s-3.02,20.15-6.75,20.15"/><line class="cls-8" x1="206.76" y1="25.92" x2="187.19" y2="25.92"/><line class="cls-8" x1="206.76" y1="66.24" x2="187.19" y2="66.24"/><path class="cls-7" d="M206.76,25.92c18.63,0,33.74,20.15,33.74,20.15,0,0-15.11,20.15-33.74,20.15"/><path class="cls-7" d="M182.47,25.92c3.73,0,6.75,11.42,6.75,20.15s-3.02,20.15-6.75,20.15"/><line class="cls-8" x1="192.59" y1="56.16" x2="165.6" y2="56.16"/><line class="cls-8" x1="192.59" y1="36" x2="165.6" y2="36"/><line class="cls-9" x1="155.52" y1="244.8" x2="155.51" y2="232.32"/><path class="cls-9" d="M175.67,179.01c0,3.73-11.42,6.75-20.15,6.75s-20.15-3.02-20.15-6.75"/><line class="cls-9" x1="175.67" y1="198.58" x2="175.67" y2="179.01"/><line class="cls-9" x1="135.35" y1="198.58" x2="135.35" y2="179.01"/><path class="cls-9" d="M175.67,198.58c0,18.63-20.15,33.74-20.15,33.74,0,0-20.15-15.11-20.15-33.74"/><path class="cls-9" d="M175.67,174.29c0,3.73-11.42,6.75-20.15,6.75s-20.15-3.02-20.15-6.75"/><line class="cls-9" x1="145.43" y1="184.41" x2="145.44" y2="158.4"/><line class="cls-9" x1="165.59" y1="184.41" x2="165.6" y2="129.6"/><line class="cls-9" x1="155.52" y1="302.4" x2="155.53" y2="314.88"/><path class="cls-9" d="M135.37,368.19c0-3.73,11.42-6.75,20.15-6.75s20.15,3.02,20.15,6.75"/><line class="cls-9" x1="135.37" y1="348.62" x2="135.37" y2="368.19"/><line class="cls-9" x1="175.69" y1="348.62" x2="175.69" y2="368.19"/><path class="cls-9" d="M135.37,348.62c0-18.63,20.15-33.74,20.15-33.74,0,0,20.15,15.11,20.15,33.74"/><path class="cls-9" d="M135.37,372.91c0-3.73,11.42-6.75,20.15-6.75s20.15,3.02,20.15,6.75"/><line class="cls-9" x1="165.61" y1="362.79" x2="165.6" y2="417.6"/><line class="cls-9" x1="145.45" y1="362.79" x2="145.44" y2="388.8"/><line class="cls-9" x1="270.71" y1="360" x2="270.72" y2="372.48"/><path class="cls-9" d="M250.56,425.79c0-3.73,11.42-6.75,20.15-6.75s20.15,3.02,20.15,6.75"/><line class="cls-9" x1="250.56" y1="406.22" x2="250.56" y2="425.79"/><line class="cls-9" x1="290.88" y1="406.22" x2="290.88" y2="425.79"/><path class="cls-9" d="M250.56,406.22c0-18.63,20.15-33.74,20.15-33.74,0,0,20.15,15.11,20.15,33.74"/><path class="cls-9" d="M250.56,430.51c0-3.73,11.42-6.75,20.15-6.75s20.15,3.02,20.15,6.75"/><line class="cls-9" x1="280.8" y1="420.39" x2="280.8" y2="446.4"/><line class="cls-9" x1="260.64" y1="420.39" x2="260.64" y2="475.2"/><line class="cls-9" x1="270.73" y1="302.4" x2="270.72" y2="289.92"/><path class="cls-9" d="M290.88,236.61c0,3.73-11.42,6.75-20.15,6.75s-20.15-3.02-20.15-6.75"/><line class="cls-9" x1="290.88" y1="256.18" x2="290.88" y2="236.61"/><line class="cls-9" x1="250.56" y1="256.18" x2="250.56" y2="236.61"/><path class="cls-9" d="M290.88,256.18c0,18.63-20.15,33.74-20.15,33.74,0,0-20.15-15.11-20.15-33.74"/><path class="cls-9" d="M290.88,231.89c0,3.73-11.42,6.75-20.15,6.75s-20.15-3.02-20.15-6.75"/><line class="cls-9" x1="260.64" y1="242.01" x2="260.64" y2="187.2"/><line class="cls-9" x1="280.8" y1="242.01" x2="280.8" y2="216"/><line class="cls-1" x1="97.92" y1="86.4" x2="198.72" y2="86.4"/><line class="cls-1" x1="227.52" y1="86.4" x2="328.32" y2="86.4"/><path class="cls-1" d="M227.52,86.4c0,7.95-6.45,14.4-14.4,14.4s-14.4-6.45-14.4-14.4"/><rect class="cls-5" x="69.12" y="115.2" width="28.8" height="28.8"/><rect class="cls-5" x="69.12" y="172.8" width="28.8" height="28.8"/><rect class="cls-5" x="69.12" y="230.4" width="28.8" height="28.8"/><line class="cls-1" x1="97.92" y1="86.4" x2="97.92" y2="518.4"/><line class="cls-1" x1="97.92" y1="518.4" x2="328.32" y2="518.4"/><line class="cls-1" x1="328.32" y1="86.4" x2="328.32" y2="518.4"/><rect class="cls-5" x="69.12" y="288" width="28.8" height="28.8"/><rect class="cls-5" x="69.12" y="345.6" width="28.8" height="28.8"/><rect class="cls-5" x="69.12" y="403.2" width="28.8" height="28.8"/><rect class="cls-5" x="69.12" y="460.8" width="28.8" height="28.8"/><rect class="cls-5" x="328.32" y="115.2" width="28.8" height="28.8"/><rect class="cls-5" x="328.32" y="172.8" width="28.8" height="28.8"/><rect class="cls-5" x="328.32" y="230.4" width="28.8" height="28.8"/><rect class="cls-5" x="328.32" y="288" width="28.8" height="28.8"/><rect class="cls-5" x="328.32" y="345.6" width="28.8" height="28.8"/><rect class="cls-5" x="328.32" y="403.2" width="28.8" height="28.8"/><rect class="cls-5" x="328.32" y="460.8" width="28.8" height="28.8"/><line class="cls-9" x1="99.36" y1="244.8" x2="155.52" y2="244.8"/><line class="cls-9" x1="99.36" y1="129.6" x2="165.6" y2="129.6"/><line class="cls-9" x1="97.92" y1="187.2" x2="118.08" y2="187.2"/><line class="cls-9" x1="118.08" y1="158.4" x2="118.08" y2="187.2"/><line class="cls-9" x1="145.44" y1="158.4" x2="118.08" y2="158.4"/><line class="cls-9" x1="99.36" y1="302.4" x2="155.52" y2="302.4"/><line class="cls-9" x1="99.36" y1="417.6" x2="165.6" y2="417.6"/><line class="cls-9" x1="97.92" y1="360" x2="118.08" y2="360"/><line class="cls-9" x1="118.08" y1="388.8" x2="118.08" y2="360"/><line class="cls-9" x1="145.44" y1="388.8" x2="118.08" y2="388.8"/><line class="cls-9" x1="326.88" y1="302.4" x2="270.72" y2="302.4"/><line class="cls-9" x1="326.88" y1="187.2" x2="260.64" y2="187.2"/><line class="cls-5" x1="328.32" y1="244.8" x2="308.16" y2="244.8"/><line class="cls-5" x1="308.16" y1="216" x2="308.16" y2="244.8"/><line class="cls-9" x1="280.8" y1="216" x2="308.16" y2="216"/><line class="cls-9" x1="326.88" y1="360" x2="270.72" y2="360"/><line class="cls-9" x1="326.88" y1="475.2" x2="260.64" y2="475.2"/><line class="cls-5" x1="328.32" y1="417.6" x2="308.16" y2="417.6"/><line class="cls-5" x1="308.16" y1="446.4" x2="308.16" y2="417.6"/><line class="cls-9" x1="280.8" y1="446.4" x2="308.16" y2="446.4"/><g><line class="cls-4" x1="673.92" y1="246.24" x2="673.92" y2="184.16"/><polygon class="cls-10" points="683.46 201.89 680.64 202.92 673.92 184.45 667.2 202.92 664.38 201.89 673.92 175.68 683.46 201.89"/></g><line class="cls-4" x1="673.92" y1="332.64" x2="673.92" y2="374.4"/><line class="cls-2" x1="475.2" y1="277.8" x2="475.2" y2="256.2"/><line class="cls-2" x1="480.96" y1="277.8" x2="480.96" y2="256.2"/><line class="cls-2" x1="475.2" y1="256.2" x2="480.96" y2="256.2"/><line class="cls-2" x1="480.96" y1="277.8" x2="486.72" y2="277.8"/><line class="cls-2" x1="486.72" y1="277.8" x2="486.72" y2="256.2"/><line class="cls-2" x1="492.48" y1="277.92" x2="492.48" y2="256.32"/><line class="cls-2" x1="486.72" y1="256.32" x2="492.48" y2="256.32"/><line class="cls-2" x1="492.48" y1="277.92" x2="498.24" y2="277.92"/><line class="cls-2" x1="498.24" y1="277.8" x2="498.24" y2="256.2"/><line class="cls-2" x1="504" y1="277.8" x2="504" y2="256.2"/><line class="cls-2" x1="498.24" y1="256.2" x2="504" y2="256.2"/><line class="cls-2" x1="504" y1="277.8" x2="509.76" y2="277.8"/><line class="cls-2" x1="509.76" y1="277.8" x2="509.76" y2="256.2"/><line class="cls-2" x1="515.52" y1="277.92" x2="515.52" y2="256.32"/><line class="cls-2" x1="509.76" y1="256.32" x2="515.52" y2="256.32"/><line class="cls-2" x1="515.52" y1="277.92" x2="521.28" y2="277.92"/><line class="cls-2" x1="521.28" y1="277.8" x2="521.28" y2="256.2"/><line class="cls-2" x1="527.04" y1="277.8" x2="527.04" y2="256.2"/><line class="cls-2" x1="521.28" y1="256.2" x2="527.04" y2="256.2"/><line class="cls-2" x1="527.04" y1="277.8" x2="532.8" y2="277.8"/><line class="cls-2" x1="532.8" y1="277.8" x2="532.8" y2="256.2"/><line class="cls-2" x1="538.56" y1="277.92" x2="538.56" y2="256.32"/><line class="cls-2" x1="532.8" y1="256.32" x2="538.56" y2="256.32"/><line class="cls-2" x1="538.56" y1="277.92" x2="544.32" y2="277.92"/><line class="cls-2" x1="544.32" y1="277.8" x2="544.32" y2="256.2"/><line class="cls-2" x1="550.08" y1="277.8" x2="550.08" y2="256.2"/><line class="cls-2" x1="544.32" y1="256.2" x2="550.08" y2="256.2"/><line class="cls-2" x1="550.08" y1="277.8" x2="555.84" y2="277.8"/><line class="cls-2" x1="555.84" y1="277.8" x2="555.84" y2="256.2"/><line class="cls-2" x1="561.6" y1="277.92" x2="561.6" y2="256.32"/><line class="cls-2" x1="555.84" y1="256.32" x2="561.6" y2="256.32"/><line class="cls-2" x1="561.6" y1="277.92" x2="567.36" y2="277.92"/><line class="cls-2" x1="475.2" y1="318.24" x2="475.2" y2="296.64"/><line class="cls-2" x1="475.2" y1="296.64" x2="489.6" y2="296.64"/><line class="cls-2" x1="489.6" y1="318.24" x2="489.6" y2="296.64"/><line class="cls-2" x1="567.36" y1="277.92" x2="567.36" y2="256.32"/><line class="cls-2" x1="573.12" y1="277.92" x2="573.12" y2="256.32"/><line class="cls-2" x1="567.36" y1="256.32" x2="573.12" y2="256.32"/><line class="cls-2" x1="573.12" y1="277.92" x2="578.88" y2="277.92"/><line class="cls-2" x1="504" y1="318.24" x2="504" y2="296.64"/><line class="cls-2" x1="504" y1="296.64" x2="518.4" y2="296.64"/><line class="cls-2" x1="518.4" y1="318.24" x2="518.4" y2="296.64"/><line class="cls-2" x1="489.6" y1="318.24" x2="504" y2="318.24"/><line class="cls-2" x1="532.8" y1="318.24" x2="532.8" y2="296.64"/><line class="cls-2" x1="532.8" y1="296.64" x2="547.2" y2="296.64"/><line class="cls-2" x1="547.2" y1="318.24" x2="547.2" y2="296.64"/><line class="cls-2" x1="518.4" y1="318.24" x2="532.8" y2="318.24"/><line class="cls-2" x1="561.6" y1="318.24" x2="561.6" y2="296.64"/><line class="cls-2" x1="561.6" y1="296.64" x2="576" y2="296.64"/><line class="cls-2" x1="576" y1="318.24" x2="576" y2="296.64"/><line class="cls-2" x1="547.2" y1="318.24" x2="561.6" y2="318.24"/><line class="cls-2" x1="858.24" y1="299.52" x2="858.24" y2="277.92"/><line class="cls-2" x1="851.04" y1="299.52" x2="858.24" y2="299.52"/><line class="cls-2" x1="858.24" y1="277.92" x2="864" y2="277.92"/><line class="cls-2" x1="864" y1="299.52" x2="864" y2="277.92"/><line class="cls-2" x1="864" y1="299.52" x2="866.88" y2="299.52"/><line class="cls-2" x1="866.88" y1="299.52" x2="866.88" y2="277.92"/><line class="cls-2" x1="869.76" y1="299.52" x2="869.76" y2="277.92"/><line class="cls-2" x1="866.88" y1="277.92" x2="869.76" y2="277.92"/><line class="cls-2" x1="869.76" y1="299.52" x2="875.52" y2="299.52"/><line class="cls-2" x1="875.52" y1="299.52" x2="875.52" y2="277.92"/><line class="cls-2" x1="875.52" y1="277.92" x2="887.04" y2="277.92"/><line class="cls-2" x1="887.04" y1="299.52" x2="892.8" y2="299.52"/><line class="cls-2" x1="887.04" y1="299.52" x2="887.04" y2="277.92"/><line class="cls-2" x1="892.8" y1="299.52" x2="892.8" y2="277.92"/><line class="cls-2" x1="895.68" y1="299.52" x2="895.68" y2="277.92"/><line class="cls-2" x1="898.56" y1="299.52" x2="898.56" y2="277.92"/><line class="cls-2" x1="892.8" y1="277.92" x2="895.68" y2="277.92"/><line class="cls-2" x1="895.68" y1="299.52" x2="898.56" y2="299.52"/><line class="cls-2" x1="898.56" y1="277.92" x2="904.32" y2="277.92"/><line class="cls-2" x1="904.32" y1="299.52" x2="904.32" y2="277.92"/><line class="cls-2" x1="915.84" y1="299.52" x2="915.84" y2="277.92"/><line class="cls-2" x1="921.6" y1="299.52" x2="921.6" y2="277.92"/><line class="cls-2" x1="924.48" y1="299.52" x2="924.48" y2="277.92"/><line class="cls-2" x1="927.36" y1="299.52" x2="927.36" y2="277.92"/><line class="cls-2" x1="933.12" y1="299.52" x2="933.12" y2="277.92"/><line class="cls-2" x1="944.64" y1="299.52" x2="944.64" y2="277.92"/><line class="cls-2" x1="950.4" y1="299.52" x2="950.4" y2="277.92"/><line class="cls-2" x1="953.28" y1="299.52" x2="953.28" y2="277.92"/><line class="cls-2" x1="904.32" y1="299.52" x2="915.84" y2="299.52"/><line class="cls-2" x1="915.84" y1="277.92" x2="921.6" y2="277.92"/><line class="cls-2" x1="921.6" y1="299.52" x2="924.48" y2="299.52"/><line class="cls-2" x1="924.48" y1="277.92" x2="927.36" y2="277.92"/><line class="cls-2" x1="927.36" y1="299.52" x2="933.12" y2="299.52"/><line class="cls-2" x1="933.12" y1="277.92" x2="944.64" y2="277.92"/><line class="cls-2" x1="950.4" y1="277.92" x2="953.28" y2="277.92"/><line class="cls-2" x1="944.64" y1="299.52" x2="950.4" y2="299.52"/><line class="cls-6" x1="813.6" y1="289.44" x2="756" y2="289.44"/><path class="cls-6" d="M642.24,246.24c7.95,0,14.4,24.48,14.4,43.2s-6.45,43.2-14.4,43.2"/><line class="cls-6" x1="684" y1="246.24" x2="642.24" y2="246.24"/><line class="cls-6" x1="684" y1="332.64" x2="642.24" y2="332.64"/><path class="cls-6" d="M684,246.24c39.76,0,72,43.2,72,43.2,0,0-32.24,43.2-72,43.2"/><path class="cls-6" d="M632.16,246.24c7.95,0,14.4,24.48,14.4,43.2s-6.45,43.2-14.4,43.2"/><line class="cls-6" x1="653.76" y1="311.04" x2="596.16" y2="311.04"/><line class="cls-6" x1="653.76" y1="267.84" x2="596.16" y2="267.84"/><polygon class="cls-3" points="673.92 374.4 688.32 374.4 681.12 383.76 673.92 393.12 666.72 383.76 659.52 374.4 673.92 374.4"/></g></svg>