<?xml version="1.0" encoding="UTF-8"?><svg xmlns="http://www.w3.org/2000/svg" viewBox="0 0 1080 600.48"><defs><style>.cls-1{stroke-width:3px;}.cls-1,.cls-2,.cls-3{fill:none;stroke:#cad2d9;stroke-miterlimit:10;}.cls-4{fill:#cad2d9;}.cls-2{stroke-width:2px;}</style></defs><g id="TEXT_Vector"><path class="cls-4" d="M84.87,94.32h-1.63v-10.84l-3.28,1.2v-1.48l4.66-1.75h.25v12.86Z"/><path class="cls-4" d="M87.91,151.92h-8.38v-1.17l4.43-4.92c.66-.74,1.11-1.35,1.36-1.81s.37-.95,.37-1.45c0-.67-.2-1.22-.61-1.64s-.94-.64-1.62-.64c-.81,0-1.44,.23-1.89,.69s-.67,1.1-.67,1.92h-1.63c0-1.18,.38-2.13,1.14-2.86s1.77-1.09,3.05-1.09c1.19,0,2.13,.31,2.82,.94s1.04,1.45,1.04,2.49c0,1.26-.8,2.76-2.41,4.5l-3.43,3.72h6.42v1.33Z"/><path class="cls-4" d="M81.89,202.33h1.22c.77-.01,1.37-.21,1.81-.61s.66-.92,.66-1.59c0-1.5-.75-2.25-2.24-2.25-.7,0-1.26,.2-1.68,.6s-.63,.93-.63,1.6h-1.63c0-1.01,.37-1.86,1.11-2.53s1.68-1.01,2.83-1.01c1.21,0,2.15,.32,2.84,.96s1.03,1.53,1.03,2.66c0,.56-.18,1.1-.54,1.62s-.85,.91-1.47,1.17c.7,.22,1.25,.59,1.63,1.11s.58,1.15,.58,1.89c0,1.15-.38,2.06-1.12,2.73s-1.73,1.01-2.93,1.01-2.18-.33-2.93-.98-1.13-1.51-1.13-2.58h1.63c0,.67,.22,1.21,.66,1.62s1.03,.61,1.77,.61c.79,0,1.39-.21,1.8-.62s.62-1,.62-1.77-.23-1.32-.69-1.71-1.12-.6-1.98-.62h-1.22v-1.33Z"/><path class="cls-4" d="M86.39,262.82h1.78v1.33h-1.78v2.97h-1.63v-2.97h-5.83v-.96l5.73-8.87h1.73v8.5Zm-5.62,0h3.98v-6.28l-.19,.35-3.79,5.92Z"/><path class="cls-4" d="M80.28,318.3l.65-6.38h6.56v1.5h-5.18l-.39,3.49c.63-.37,1.34-.55,2.14-.55,1.17,0,2.09,.38,2.78,1.16s1.03,1.81,1.03,3.12-.36,2.36-1.07,3.12-1.71,1.14-2.98,1.14c-1.13,0-2.05-.31-2.77-.94s-1.12-1.49-1.22-2.6h1.54c.1,.73,.36,1.28,.78,1.66s.98,.56,1.67,.56c.76,0,1.35-.26,1.78-.77s.65-1.23,.65-2.14c0-.86-.23-1.54-.7-2.06s-1.09-.78-1.86-.78c-.71,0-1.27,.16-1.67,.47l-.43,.35-1.3-.33Z"/><path class="cls-4" d="M85.91,369.51v1.38h-.3c-1.27,.02-2.27,.4-3.02,1.12s-1.18,1.75-1.3,3.07c.67-.77,1.59-1.16,2.76-1.16s2,.39,2.67,1.18,1,1.8,1,3.04c0,1.32-.36,2.37-1.08,3.16s-1.68,1.19-2.89,1.19-2.22-.47-2.98-1.41-1.14-2.15-1.14-3.63v-.62c0-2.36,.5-4.16,1.51-5.4s2.5-1.88,4.49-1.91h.29Zm-2.14,5.77c-.56,0-1.07,.17-1.54,.5s-.79,.75-.98,1.26v.6c0,1.05,.24,1.9,.71,2.55s1.07,.97,1.78,.97,1.31-.27,1.73-.81,.63-1.25,.63-2.12-.21-1.59-.64-2.13-.99-.81-1.69-.81Z"/><path class="cls-4" d="M87.79,428.04l-5.3,11.88h-1.71l5.28-11.46h-6.93v-1.34h8.65v.91Z"/><g><path class="cls-4" d="M338.3,209.52h-1.63v-10.84l-3.28,1.2v-1.48l4.66-1.75h.25v12.86Z"/><path class="cls-4" d="M349.93,205.22h1.78v1.33h-1.78v2.97h-1.63v-2.97h-5.83v-.96l5.73-8.87h1.73v8.5Zm-5.62,0h3.98v-6.28l-.19,.35-3.79,5.92Z"/></g><g><path class="cls-4" d="M338.3,267.12h-1.63v-10.84l-3.28,1.2v-1.48l4.66-1.75h.25v12.86Z"/><path class="cls-4" d="M345.43,259.93h1.22c.77-.01,1.37-.21,1.81-.61s.66-.92,.66-1.59c0-1.5-.75-2.25-2.24-2.25-.7,0-1.26,.2-1.68,.6s-.63,.93-.63,1.6h-1.63c0-1.01,.37-1.86,1.11-2.53s1.68-1.01,2.83-1.01c1.21,0,2.15,.32,2.84,.96s1.03,1.53,1.03,2.66c0,.56-.18,1.1-.54,1.62s-.85,.91-1.47,1.17c.7,.22,1.25,.59,1.63,1.11s.58,1.15,.58,1.89c0,1.15-.38,2.06-1.12,2.73s-1.73,1.01-2.93,1.01-2.18-.33-2.93-.98-1.13-1.51-1.13-2.58h1.63c0,.67,.22,1.21,.66,1.62s1.03,.61,1.77,.61c.79,0,1.39-.21,1.8-.62s.62-1,.62-1.77-.23-1.32-.69-1.71-1.12-.6-1.98-.62h-1.22v-1.33Z"/></g><g><path class="cls-4" d="M338.3,324.72h-1.63v-10.84l-3.28,1.2v-1.48l4.66-1.75h.25v12.86Z"/><path class="cls-4" d="M351.45,324.72h-8.38v-1.17l4.43-4.92c.66-.74,1.11-1.35,1.36-1.81s.37-.95,.37-1.45c0-.67-.2-1.22-.61-1.64s-.94-.64-1.62-.64c-.81,0-1.44,.23-1.89,.69s-.67,1.1-.67,1.92h-1.63c0-1.18,.38-2.13,1.14-2.86s1.77-1.09,3.05-1.09c1.19,0,2.13,.31,2.82,.94s1.04,1.45,1.04,2.49c0,1.26-.8,2.76-2.41,4.5l-3.43,3.72h6.42v1.33Z"/></g><g><path class="cls-4" d="M338.3,382.32h-1.63v-10.84l-3.28,1.2v-1.48l4.66-1.75h.25v12.86Z"/><path class="cls-4" d="M348.41,382.32h-1.63v-10.84l-3.28,1.2v-1.48l4.66-1.75h.25v12.86Z"/></g><g><path class="cls-4" d="M338.3,439.92h-1.63v-10.84l-3.28,1.2v-1.48l4.66-1.75h.25v12.86Z"/><path class="cls-4" d="M351.09,434.46c0,1.9-.33,3.32-.98,4.25s-1.67,1.39-3.05,1.39-2.38-.45-3.03-1.36-1-2.26-1.02-4.06v-2.17c0-1.88,.33-3.28,.98-4.19s1.67-1.37,3.06-1.37,2.39,.44,3.04,1.32,.98,2.24,1,4.08v2.11Zm-1.63-2.22c0-1.38-.19-2.38-.58-3.01s-1-.94-1.84-.94-1.44,.31-1.82,.94-.58,1.59-.59,2.89v2.6c0,1.38,.2,2.4,.6,3.06s1.01,.99,1.82,.99,1.4-.31,1.79-.93,.59-1.6,.61-2.94v-2.66Z"/></g><path class="cls-4" d="M344.96,491.89c-.34,.4-.75,.73-1.22,.98s-.99,.37-1.55,.37c-.74,0-1.38-.18-1.93-.54s-.97-.87-1.27-1.53c-.3-.66-.45-1.39-.45-2.18,0-.86,.16-1.63,.49-2.31s.79-1.21,1.38-1.57,1.29-.54,2.09-.54c1.27,0,2.26,.47,2.99,1.42,.73,.95,1.09,2.24,1.09,3.87v.47c0,2.49-.49,4.31-1.48,5.45-.98,1.15-2.47,1.73-4.46,1.76h-.32v-1.38h.34c1.34-.02,2.37-.37,3.09-1.05,.72-.68,1.11-1.74,1.18-3.21Zm-2.5,0c.54,0,1.05-.17,1.51-.5s.8-.75,1.01-1.24v-.65c0-1.07-.23-1.93-.69-2.6s-1.05-1-1.76-1-1.29,.27-1.72,.82c-.43,.55-.65,1.27-.65,2.17s.21,1.59,.63,2.16c.42,.56,.98,.85,1.68,.85Z"/><g><path class="cls-4" d="M118.04,495.28l3.66-10.56h1.85l-4.75,12.8h-1.49l-4.74-12.8h1.84l3.64,10.56Z"/><path class="cls-4" d="M127.28,493.72c-.96-.28-1.67-.62-2.11-1.02s-.66-.9-.66-1.5c0-.67,.27-1.23,.81-1.67s1.24-.66,2.09-.66c.59,0,1.11,.11,1.57,.34s.81,.54,1.07,.94,.38,.83,.38,1.31h-1.13c0-.52-.16-.92-.49-1.22s-.79-.44-1.39-.44c-.55,0-.99,.12-1.3,.37-.31,.24-.47,.58-.47,1.02,0,.35,.15,.64,.44,.88,.29,.24,.8,.46,1.51,.66,.71,.2,1.26,.42,1.66,.66s.7,.52,.89,.84,.29,.7,.29,1.13c0,.69-.27,1.25-.81,1.66s-1.26,.62-2.16,.62c-.59,0-1.13-.11-1.64-.34s-.9-.53-1.17-.92-.41-.83-.41-1.33h1.13c0,.52,.19,.92,.57,1.22s.89,.45,1.53,.45c.59,0,1.05-.12,1.37-.36s.47-.57,.47-.99-.15-.74-.44-.97-.82-.45-1.59-.68Z"/><path class="cls-4" d="M134.39,493.72c-.96-.28-1.67-.62-2.11-1.02s-.66-.9-.66-1.5c0-.67,.27-1.23,.81-1.67s1.24-.66,2.09-.66c.59,0,1.11,.11,1.57,.34s.81,.54,1.07,.94,.38,.83,.38,1.31h-1.13c0-.52-.16-.92-.49-1.22s-.79-.44-1.39-.44c-.55,0-.99,.12-1.3,.37-.31,.24-.47,.58-.47,1.02,0,.35,.15,.64,.44,.88,.29,.24,.8,.46,1.51,.66,.71,.2,1.26,.42,1.66,.66s.7,.52,.89,.84,.29,.7,.29,1.13c0,.69-.27,1.25-.81,1.66s-1.26,.62-2.16,.62c-.59,0-1.13-.11-1.64-.34s-.9-.53-1.17-.92-.41-.83-.41-1.33h1.13c0,.52,.19,.92,.57,1.22s.89,.45,1.53,.45c.59,0,1.05-.12,1.37-.36s.47-.57,.47-.99-.15-.74-.44-.97-.82-.45-1.59-.68Z"/></g><g><path class="cls-4" d="M292.45,92.08l3.66-10.56h1.85l-4.75,12.8h-1.49l-4.74-12.8h1.84l3.64,10.56Z"/><path class="cls-4" d="M299.17,94.32v-8.53h2.41c.74,0,1.4,.16,1.97,.49s1.01,.79,1.32,1.4,.47,1.3,.47,2.09v.54c0,.8-.16,1.51-.47,2.12s-.75,1.07-1.33,1.39-1.25,.49-2.01,.5h-2.36Zm1.12-7.61v6.69h1.18c.87,0,1.54-.27,2.02-.81,.48-.54,.72-1.31,.72-2.3v-.5c0-.97-.23-1.72-.68-2.26-.46-.54-1.1-.81-1.94-.82h-1.31Z"/><path class="cls-4" d="M307.04,94.32v-8.53h2.41c.74,0,1.4,.16,1.97,.49s1.01,.79,1.32,1.4,.47,1.3,.47,2.09v.54c0,.8-.16,1.51-.47,2.12s-.75,1.07-1.33,1.39-1.25,.49-2.01,.5h-2.36Zm1.12-7.61v6.69h1.18c.87,0,1.54-.27,2.02-.81,.48-.54,.72-1.31,.72-2.3v-.5c0-.97-.23-1.72-.68-2.26-.46-.54-1.1-.81-1.94-.82h-1.31Z"/></g><g><path class="cls-4" d="M192.04,554.66c-.16,1.35-.66,2.4-1.5,3.13s-1.96,1.1-3.35,1.1c-1.51,0-2.72-.54-3.63-1.63s-1.37-2.53-1.37-4.35v-1.23c0-1.19,.21-2.24,.64-3.14s1.03-1.59,1.81-2.08,1.68-.73,2.71-.73c1.36,0,2.45,.38,3.27,1.14s1.3,1.81,1.43,3.15h-1.7c-.15-1.02-.46-1.76-.95-2.22-.49-.46-1.17-.69-2.05-.69-1.08,0-1.92,.4-2.54,1.2-.61,.8-.92,1.93-.92,3.4v1.24c0,1.39,.29,2.5,.87,3.32,.58,.82,1.39,1.23,2.43,1.23,.94,0,1.66-.21,2.16-.64s.83-1.17,1-2.22h1.7Z"/><path class="cls-4" d="M194.35,558.72v-12.8h3.61c1.11,0,2.1,.25,2.95,.74s1.52,1.19,1.98,2.1,.7,1.95,.71,3.13v.82c0,1.21-.23,2.26-.7,3.17s-1.13,1.61-2,2.09-1.87,.74-3.02,.75h-3.54Zm1.69-11.42v10.04h1.78c1.3,0,2.31-.4,3.04-1.21,.72-.81,1.09-1.96,1.09-3.46v-.75c0-1.45-.34-2.58-1.02-3.39s-1.65-1.22-2.9-1.23h-1.97Z"/><path class="cls-4" d="M212.59,554.42h1.78v1.33h-1.78v2.97h-1.63v-2.97h-5.83v-.96l5.73-8.87h1.73v8.5Zm-5.62,0h3.98v-6.28l-.19,.35-3.79,5.92Z"/><path class="cls-4" d="M223.86,553.26c0,1.9-.33,3.32-.98,4.25s-1.67,1.39-3.05,1.39-2.38-.45-3.03-1.36-1-2.26-1.02-4.06v-2.17c0-1.88,.33-3.28,.98-4.19s1.67-1.37,3.06-1.37,2.39,.44,3.04,1.32,.98,2.24,1,4.08v2.11Zm-1.63-2.22c0-1.38-.19-2.38-.58-3.01s-1-.95-1.84-.95-1.44,.31-1.82,.94-.58,1.59-.59,2.89v2.6c0,1.38,.2,2.4,.6,3.06s1.01,.99,1.82,.99,1.4-.31,1.79-.93,.59-1.6,.61-2.94v-2.66Z"/><path class="cls-4" d="M232.81,554.42h1.78v1.33h-1.78v2.97h-1.63v-2.97h-5.83v-.96l5.73-8.87h1.73v8.5Zm-5.62,0h3.98v-6.28l-.19,.35-3.79,5.92Z"/><path class="cls-4" d="M244.07,553.26c0,1.9-.33,3.32-.98,4.25s-1.67,1.39-3.05,1.39-2.38-.45-3.03-1.36-1-2.26-1.02-4.06v-2.17c0-1.88,.33-3.28,.98-4.19s1.67-1.37,3.06-1.37,2.39,.44,3.04,1.32,.98,2.24,1,4.08v2.11Zm-1.63-2.22c0-1.38-.19-2.38-.58-3.01s-1-.95-1.84-.95-1.44,.31-1.82,.94-.58,1.59-.59,2.89v2.6c0,1.38,.2,2.4,.6,3.06s1.01,.99,1.82,.99,1.4-.31,1.79-.93,.59-1.6,.61-2.94v-2.66Z"/></g><path class="cls-4" d="M87.29,488.06c0,.64-.17,1.21-.51,1.71s-.79,.89-1.37,1.17c.67,.29,1.2,.71,1.59,1.26s.58,1.17,.58,1.87c0,1.11-.37,1.99-1.12,2.65s-1.73,.98-2.95,.98-2.22-.33-2.96-.99-1.11-1.54-1.11-2.64c0-.69,.19-1.32,.57-1.87s.9-.98,1.57-1.27c-.57-.28-1.02-.67-1.34-1.17s-.49-1.06-.49-1.7c0-1.08,.35-1.93,1.04-2.57s1.6-.95,2.73-.95,2.03,.32,2.73,.95,1.04,1.49,1.04,2.57Zm-1.33,5.97c0-.71-.23-1.3-.68-1.75s-1.05-.68-1.78-.68-1.32,.22-1.76,.67-.66,1.03-.66,1.76,.22,1.3,.65,1.71,1.03,.62,1.8,.62,1.36-.21,1.79-.63,.65-.99,.65-1.71Zm-2.44-8.15c-.64,0-1.16,.2-1.55,.59s-.59,.93-.59,1.61,.19,1.18,.58,1.58,.91,.6,1.56,.6,1.17-.2,1.56-.6,.58-.93,.58-1.58-.2-1.18-.61-1.59-.92-.62-1.54-.62Z"/><g><path class="cls-4" d="M338.3,94.32h-1.63v-10.84l-3.28,1.2v-1.48l4.66-1.75h.25v12.86Z"/><path class="cls-4" d="M349.44,81.51v1.38h-.3c-1.27,.02-2.27,.4-3.02,1.12s-1.18,1.75-1.3,3.07c.67-.77,1.59-1.16,2.76-1.16s2,.39,2.67,1.18,1,1.8,1,3.04c0,1.32-.36,2.37-1.08,3.16s-1.68,1.19-2.89,1.19-2.22-.47-2.98-1.41-1.14-2.15-1.14-3.63v-.62c0-2.36,.5-4.16,1.51-5.4s2.5-1.88,4.49-1.91h.29Zm-2.14,5.77c-.56,0-1.07,.17-1.54,.5s-.79,.75-.98,1.26v.6c0,1.05,.24,1.9,.71,2.55s1.07,.97,1.78,.97,1.31-.27,1.73-.81,.63-1.25,.63-2.12-.21-1.59-.64-2.13-.99-.81-1.69-.81Z"/></g><g><path class="cls-4" d="M338.3,151.92h-1.63v-10.84l-3.28,1.2v-1.48l4.66-1.75h.25v12.86Z"/><path class="cls-4" d="M343.81,145.5l.65-6.38h6.56v1.5h-5.18l-.39,3.49c.63-.37,1.34-.55,2.14-.55,1.17,0,2.09,.38,2.78,1.16s1.03,1.81,1.03,3.12-.36,2.36-1.07,3.12-1.71,1.14-2.98,1.14c-1.13,0-2.05-.31-2.77-.94s-1.12-1.49-1.22-2.6h1.54c.1,.73,.36,1.28,.78,1.66s.98,.56,1.67,.56c.76,0,1.35-.26,1.78-.77s.65-1.23,.65-2.14c0-.86-.23-1.54-.7-2.06s-1.09-.78-1.86-.78c-.71,0-1.27,.16-1.67,.47l-.43,.35-1.3-.33Z"/></g><g><path class="cls-4" d="M113.77,85.12l-.92-.63c.54-.76,.83-1.56,.84-2.41v-1.27h1.61v1.14c0,.59-.15,1.17-.44,1.75s-.65,1.05-1.09,1.41Zm2.7,0l-.92-.63c.54-.76,.83-1.56,.84-2.41v-1.27h1.61v1.14c0,.59-.15,1.17-.44,1.75s-.65,1.05-1.09,1.41Z"/><path class="cls-4" d="M130,88.33c0,1.24-.2,2.3-.59,3.19s-.94,1.59-1.65,2.1l2.29,1.79-1.15,1.06-2.7-2.14c-.42,.11-.87,.16-1.34,.16-1.01,0-1.9-.25-2.68-.74s-1.38-1.2-1.81-2.12-.65-1.98-.66-3.19v-.92c0-1.23,.21-2.32,.64-3.26s1.03-1.67,1.81-2.17,1.68-.75,2.69-.75,1.94,.25,2.72,.75,1.38,1.21,1.81,2.15,.63,2.03,.63,3.27v.82Zm-1.69-.83c0-1.51-.3-2.67-.9-3.48s-1.46-1.23-2.57-1.23-1.9,.41-2.51,1.22-.93,1.94-.94,3.38v.94c0,1.46,.31,2.62,.92,3.46s1.46,1.27,2.55,1.27,1.93-.4,2.53-1.19,.91-1.93,.92-3.41v-.95Z"/><path class="cls-4" d="M137.53,94.32h-1.63v-10.84l-3.28,1.2v-1.48l4.66-1.75h.25v12.86Z"/><path class="cls-4" d="M150.68,94.32h-8.38v-1.17l4.43-4.92c.66-.74,1.11-1.35,1.36-1.81s.37-.95,.37-1.45c0-.67-.2-1.22-.61-1.64s-.94-.64-1.62-.64c-.81,0-1.44,.23-1.89,.69s-.67,1.1-.67,1.92h-1.63c0-1.18,.38-2.13,1.14-2.86s1.77-1.09,3.05-1.09c1.19,0,2.13,.31,2.82,.94s1.04,1.45,1.04,2.49c0,1.26-.8,2.76-2.41,4.5l-3.43,3.72h6.42v1.33Z"/><path class="cls-4" d="M153.78,80.65l.93,.63c-.54,.74-.83,1.55-.84,2.41v1.2h-1.62v-1.02c0-.6,.14-1.19,.43-1.78s.65-1.07,1.1-1.44Zm2.77,0l.93,.63c-.54,.74-.83,1.55-.84,2.41v1.2h-1.62v-1.02c0-.6,.14-1.19,.43-1.78s.65-1.07,1.1-1.44Z"/></g><g><path class="cls-4" d="M113.77,142.72l-.92-.63c.54-.76,.83-1.56,.84-2.41v-1.27h1.61v1.14c0,.59-.15,1.17-.44,1.75s-.65,1.05-1.09,1.41Zm2.7,0l-.92-.63c.54-.76,.83-1.56,.84-2.41v-1.27h1.61v1.14c0,.59-.15,1.17-.44,1.75s-.65,1.05-1.09,1.41Z"/><path class="cls-4" d="M130,145.93c0,1.24-.2,2.3-.59,3.19s-.94,1.59-1.65,2.1l2.29,1.79-1.15,1.06-2.7-2.14c-.42,.11-.87,.16-1.34,.16-1.01,0-1.9-.25-2.68-.74s-1.38-1.2-1.81-2.12-.65-1.98-.66-3.19v-.92c0-1.23,.21-2.32,.64-3.26s1.03-1.67,1.81-2.17,1.68-.75,2.69-.75,1.94,.25,2.72,.75,1.38,1.21,1.81,2.15,.63,2.03,.63,3.27v.82Zm-1.69-.83c0-1.51-.3-2.67-.9-3.48s-1.46-1.23-2.57-1.23-1.9,.41-2.51,1.22-.93,1.94-.94,3.38v.94c0,1.46,.31,2.62,.92,3.46s1.46,1.27,2.55,1.27,1.93-.4,2.53-1.19,.91-1.93,.92-3.41v-.95Z"/><path class="cls-4" d="M138.56,139.11v1.38h-.3c-1.27,.02-2.27,.4-3.02,1.12s-1.18,1.75-1.3,3.07c.67-.77,1.59-1.16,2.76-1.16s2,.39,2.67,1.18,1,1.8,1,3.04c0,1.32-.36,2.37-1.08,3.16s-1.68,1.19-2.89,1.19-2.22-.47-2.98-1.41-1.14-2.15-1.14-3.63v-.62c0-2.36,.5-4.16,1.51-5.4s2.5-1.88,4.49-1.91h.29Zm-2.14,5.77c-.56,0-1.07,.17-1.54,.5s-.79,.75-.98,1.26v.6c0,1.05,.24,1.9,.71,2.55s1.07,.97,1.78,.97,1.31-.27,1.73-.81,.63-1.25,.63-2.12-.21-1.59-.64-2.13-.99-.81-1.69-.81Z"/><path class="cls-4" d="M143.67,138.25l.93,.63c-.54,.74-.83,1.55-.84,2.41v1.2h-1.62v-1.02c0-.6,.14-1.19,.43-1.78s.65-1.07,1.1-1.44Zm2.77,0l.93,.63c-.54,.74-.83,1.55-.84,2.41v1.2h-1.62v-1.02c0-.6,.14-1.19,.43-1.78s.65-1.07,1.1-1.44Z"/></g><g><path class="cls-4" d="M114.76,195.85l.93,.63c-.54,.74-.83,1.55-.84,2.41v1.2h-1.62v-1.02c0-.6,.14-1.19,.43-1.78s.65-1.07,1.1-1.44Zm2.77,0l.93,.63c-.54,.74-.83,1.55-.84,2.41v1.2h-1.62v-1.02c0-.6,.14-1.19,.43-1.78s.65-1.07,1.1-1.44Z"/><path class="cls-4" d="M129.94,203.53c0,1.24-.2,2.3-.59,3.19s-.94,1.59-1.65,2.1l2.29,1.79-1.15,1.06-2.7-2.14c-.42,.11-.87,.16-1.34,.16-1.01,0-1.9-.25-2.68-.74s-1.38-1.2-1.81-2.12-.65-1.98-.66-3.19v-.92c0-1.23,.21-2.32,.64-3.26s1.03-1.67,1.81-2.17,1.68-.75,2.69-.75,1.94,.25,2.72,.75,1.38,1.21,1.81,2.15,.63,2.03,.63,3.27v.82Zm-1.69-.83c0-1.51-.3-2.67-.9-3.48s-1.46-1.23-2.57-1.23-1.9,.41-2.51,1.22-.93,1.94-.94,3.38v.94c0,1.46,.31,2.62,.92,3.46s1.46,1.27,2.55,1.27,1.93-.4,2.53-1.19,.91-1.93,.92-3.41v-.95Z"/><path class="cls-4" d="M132.87,203.1l.65-6.38h6.56v1.5h-5.18l-.39,3.49c.63-.37,1.34-.55,2.14-.55,1.17,0,2.09,.39,2.78,1.16s1.03,1.81,1.03,3.12-.36,2.36-1.07,3.12-1.71,1.14-2.98,1.14c-1.13,0-2.05-.31-2.77-.94s-1.12-1.49-1.22-2.6h1.54c.1,.73,.36,1.28,.78,1.66s.98,.56,1.67,.56c.76,0,1.35-.26,1.78-.77s.65-1.23,.65-2.14c0-.86-.23-1.54-.7-2.06s-1.09-.78-1.86-.78c-.71,0-1.27,.16-1.67,.47l-.43,.35-1.3-.33Z"/><path class="cls-4" d="M143.61,195.85l.93,.63c-.54,.74-.83,1.55-.84,2.41v1.2h-1.62v-1.02c0-.6,.14-1.19,.43-1.78s.65-1.07,1.1-1.44Zm2.77,0l.93,.63c-.54,.74-.83,1.55-.84,2.41v1.2h-1.62v-1.02c0-.6,.14-1.19,.43-1.78s.65-1.07,1.1-1.44Z"/></g><g><path class="cls-4" d="M114.76,253.45l.93,.63c-.54,.74-.83,1.55-.84,2.41v1.2h-1.62v-1.02c0-.6,.14-1.19,.43-1.78s.65-1.07,1.1-1.44Zm2.77,0l.93,.63c-.54,.74-.83,1.55-.84,2.41v1.2h-1.62v-1.02c0-.6,.14-1.19,.43-1.78s.65-1.07,1.1-1.44Z"/><path class="cls-4" d="M129.94,261.13c0,1.24-.2,2.3-.59,3.19s-.94,1.59-1.65,2.1l2.29,1.79-1.15,1.06-2.7-2.14c-.42,.11-.87,.16-1.34,.16-1.01,0-1.9-.25-2.68-.74s-1.38-1.2-1.81-2.12-.65-1.98-.66-3.19v-.92c0-1.23,.21-2.32,.64-3.26s1.03-1.67,1.81-2.17,1.68-.75,2.69-.75,1.94,.25,2.72,.75,1.38,1.21,1.81,2.15,.63,2.03,.63,3.27v.82Zm-1.69-.83c0-1.51-.3-2.67-.9-3.48s-1.46-1.23-2.57-1.23-1.9,.41-2.51,1.22-.93,1.94-.94,3.38v.94c0,1.47,.31,2.62,.92,3.46s1.46,1.27,2.55,1.27,1.93-.4,2.53-1.19,.91-1.93,.92-3.41v-.95Z"/><path class="cls-4" d="M140.38,255.24l-5.3,11.88h-1.71l5.28-11.46h-6.93v-1.34h8.65v.91Z"/><path class="cls-4" d="M143.61,253.45l.93,.63c-.54,.74-.83,1.55-.84,2.41v1.2h-1.62v-1.02c0-.6,.14-1.19,.43-1.78s.65-1.07,1.1-1.44Zm2.77,0l.93,.63c-.54,.74-.83,1.55-.84,2.41v1.2h-1.62v-1.02c0-.6,.14-1.19,.43-1.78s.65-1.07,1.1-1.44Z"/></g><g><path class="cls-4" d="M114.76,311.05l.93,.63c-.54,.74-.83,1.55-.84,2.41v1.2h-1.62v-1.02c0-.6,.14-1.19,.43-1.78s.65-1.07,1.1-1.44Zm2.77,0l.93,.63c-.54,.74-.83,1.55-.84,2.41v1.2h-1.62v-1.02c0-.6,.14-1.19,.43-1.78s.65-1.07,1.1-1.44Z"/><path class="cls-4" d="M129.94,318.73c0,1.24-.2,2.3-.59,3.19s-.94,1.59-1.65,2.1l2.29,1.79-1.15,1.06-2.7-2.14c-.42,.11-.87,.16-1.34,.16-1.01,0-1.9-.25-2.68-.74s-1.38-1.2-1.81-2.12-.65-1.98-.66-3.19v-.92c0-1.23,.21-2.32,.64-3.26s1.03-1.67,1.81-2.17,1.68-.75,2.69-.75,1.94,.25,2.72,.75,1.38,1.21,1.81,2.15,.63,2.03,.63,3.27v.82Zm-1.69-.83c0-1.51-.3-2.67-.9-3.49s-1.46-1.23-2.57-1.23-1.9,.41-2.51,1.22-.93,1.94-.94,3.38v.94c0,1.46,.31,2.62,.92,3.46s1.46,1.27,2.55,1.27,1.93-.4,2.53-1.19,.91-1.93,.92-3.41v-.95Z"/><path class="cls-4" d="M138.99,320.42h1.78v1.33h-1.78v2.97h-1.63v-2.97h-5.83v-.96l5.73-8.87h1.73v8.5Zm-5.62,0h3.98v-6.28l-.19,.35-3.79,5.92Z"/><path class="cls-4" d="M143.61,311.05l.93,.63c-.54,.74-.83,1.55-.84,2.41v1.2h-1.62v-1.02c0-.6,.14-1.19,.43-1.78s.65-1.07,1.1-1.44Zm2.77,0l.93,.63c-.54,.74-.83,1.55-.84,2.41v1.2h-1.62v-1.02c0-.6,.14-1.19,.43-1.78s.65-1.07,1.1-1.44Z"/></g><g><path class="cls-4" d="M114.76,368.65l.93,.63c-.54,.74-.83,1.55-.84,2.41v1.2h-1.62v-1.02c0-.6,.14-1.19,.43-1.78s.65-1.07,1.1-1.44Zm2.77,0l.93,.63c-.54,.74-.83,1.55-.84,2.41v1.2h-1.62v-1.02c0-.6,.14-1.19,.43-1.78s.65-1.07,1.1-1.44Z"/><path class="cls-4" d="M129.94,376.33c0,1.24-.2,2.3-.59,3.19s-.94,1.59-1.65,2.1l2.29,1.79-1.15,1.06-2.7-2.14c-.42,.11-.87,.16-1.34,.16-1.01,0-1.9-.25-2.68-.74s-1.38-1.2-1.81-2.12-.65-1.98-.66-3.19v-.92c0-1.23,.21-2.32,.64-3.26s1.03-1.67,1.81-2.17,1.68-.75,2.69-.75,1.94,.25,2.72,.75,1.38,1.21,1.81,2.15,.63,2.03,.63,3.27v.82Zm-1.69-.83c0-1.51-.3-2.67-.9-3.49s-1.46-1.23-2.57-1.23-1.9,.41-2.51,1.22-.93,1.94-.94,3.38v.94c0,1.46,.31,2.62,.92,3.46s1.46,1.27,2.55,1.27,1.93-.4,2.53-1.19,.91-1.93,.92-3.41v-.95Z"/><path class="cls-4" d="M134.49,375.13h1.22c.77-.01,1.37-.21,1.81-.61s.66-.92,.66-1.59c0-1.5-.75-2.25-2.24-2.25-.7,0-1.26,.2-1.68,.6s-.63,.93-.63,1.6h-1.63c0-1.01,.37-1.86,1.11-2.53s1.68-1.01,2.83-1.01c1.21,0,2.15,.32,2.84,.96s1.03,1.53,1.03,2.66c0,.56-.18,1.1-.54,1.62s-.85,.91-1.47,1.17c.7,.22,1.25,.59,1.63,1.11s.58,1.15,.58,1.89c0,1.15-.38,2.06-1.12,2.73s-1.73,1.01-2.93,1.01-2.18-.33-2.93-.98-1.13-1.51-1.13-2.58h1.63c0,.67,.22,1.21,.66,1.62s1.03,.61,1.77,.61c.79,0,1.39-.21,1.8-.62s.62-1,.62-1.77-.23-1.32-.69-1.71-1.12-.6-1.98-.62h-1.22v-1.33Z"/><path class="cls-4" d="M143.61,368.65l.93,.63c-.54,.74-.83,1.55-.84,2.41v1.2h-1.62v-1.02c0-.6,.14-1.19,.43-1.78s.65-1.07,1.1-1.44Zm2.77,0l.93,.63c-.54,.74-.83,1.55-.84,2.41v1.2h-1.62v-1.02c0-.6,.14-1.19,.43-1.78s.65-1.07,1.1-1.44Z"/></g><g><path class="cls-4" d="M114.76,426.25l.93,.63c-.54,.74-.83,1.55-.84,2.41v1.2h-1.62v-1.02c0-.6,.14-1.19,.43-1.78s.65-1.07,1.1-1.44Zm2.77,0l.93,.63c-.54,.74-.83,1.55-.84,2.41v1.2h-1.62v-1.02c0-.6,.14-1.19,.43-1.78s.65-1.07,1.1-1.44Z"/><path class="cls-4" d="M129.94,433.93c0,1.24-.2,2.3-.59,3.19s-.94,1.59-1.65,2.1l2.29,1.79-1.15,1.06-2.7-2.14c-.42,.11-.87,.16-1.34,.16-1.01,0-1.9-.25-2.68-.74s-1.38-1.2-1.81-2.12-.65-1.98-.66-3.19v-.92c0-1.23,.21-2.32,.64-3.26s1.03-1.67,1.82-2.17,1.68-.75,2.68-.75,1.94,.25,2.72,.75,1.38,1.21,1.81,2.15,.63,2.03,.63,3.27v.82Zm-1.69-.83c0-1.51-.3-2.67-.9-3.49s-1.46-1.23-2.57-1.23-1.9,.41-2.51,1.22-.93,1.94-.95,3.38v.94c0,1.46,.31,2.62,.92,3.46s1.46,1.27,2.55,1.27,1.93-.4,2.53-1.19,.91-1.93,.92-3.41v-.95Z"/><path class="cls-4" d="M140.51,439.92h-8.38v-1.17l4.43-4.92c.66-.74,1.11-1.35,1.36-1.82s.37-.95,.37-1.45c0-.67-.2-1.22-.61-1.64s-.94-.64-1.62-.64c-.81,0-1.44,.23-1.88,.69s-.67,1.1-.67,1.92h-1.63c0-1.18,.38-2.13,1.14-2.86s1.77-1.09,3.04-1.09c1.19,0,2.13,.31,2.82,.94s1.04,1.46,1.04,2.49c0,1.26-.8,2.76-2.41,4.5l-3.43,3.72h6.42v1.33Z"/><path class="cls-4" d="M143.61,426.25l.93,.63c-.54,.74-.83,1.55-.84,2.41v1.2h-1.62v-1.02c0-.6,.14-1.19,.43-1.78s.65-1.07,1.1-1.44Zm2.77,0l.93,.63c-.54,.74-.83,1.55-.84,2.41v1.2h-1.62v-1.02c0-.6,.14-1.19,.43-1.78s.65-1.07,1.1-1.44Z"/></g><g><path class="cls-4" d="M271.05,195.85l.93,.63c-.54,.74-.83,1.55-.84,2.41v1.2h-1.62v-1.02c0-.6,.14-1.19,.43-1.78s.65-1.07,1.1-1.44Zm2.77,0l.93,.63c-.54,.74-.83,1.55-.84,2.41v1.2h-1.62v-1.02c0-.6,.14-1.19,.43-1.78s.65-1.07,1.1-1.44Z"/><path class="cls-4" d="M286.23,203.53c0,1.24-.2,2.3-.59,3.19s-.94,1.59-1.65,2.1l2.29,1.79-1.15,1.06-2.7-2.14c-.42,.11-.87,.16-1.34,.16-1.01,0-1.9-.25-2.68-.74s-1.38-1.2-1.81-2.12-.65-1.98-.66-3.19v-.92c0-1.23,.21-2.32,.64-3.26s1.03-1.67,1.81-2.17,1.68-.75,2.69-.75,1.94,.25,2.72,.75,1.38,1.21,1.81,2.15,.63,2.03,.63,3.27v.82Zm-1.69-.83c0-1.51-.3-2.67-.9-3.48s-1.46-1.23-2.57-1.23-1.9,.41-2.51,1.22-.93,1.94-.94,3.38v.94c0,1.46,.31,2.62,.92,3.46s1.46,1.27,2.55,1.27,1.93-.4,2.53-1.19,.91-1.93,.92-3.41v-.95Z"/><path class="cls-4" d="M293.75,209.52h-1.63v-10.84l-3.28,1.2v-1.48l4.66-1.75h.25v12.86Z"/><path class="cls-4" d="M306.54,204.06c0,1.9-.33,3.32-.98,4.25s-1.67,1.39-3.05,1.39-2.38-.45-3.03-1.36-1-2.26-1.02-4.06v-2.17c0-1.88,.33-3.28,.98-4.19s1.67-1.37,3.06-1.37,2.39,.44,3.04,1.32,.98,2.24,1,4.08v2.11Zm-1.63-2.22c0-1.38-.19-2.38-.58-3.01s-1-.94-1.84-.94-1.44,.31-1.82,.94-.58,1.59-.59,2.89v2.6c0,1.38,.2,2.4,.6,3.06s1.01,.99,1.82,.99,1.4-.31,1.79-.93,.59-1.6,.61-2.94v-2.66Z"/><path class="cls-4" d="M310,195.85l.93,.63c-.54,.74-.83,1.55-.84,2.41v1.2h-1.62v-1.02c0-.6,.14-1.19,.43-1.78s.65-1.07,1.1-1.44Zm2.77,0l.93,.63c-.54,.74-.83,1.55-.84,2.41v1.2h-1.62v-1.02c0-.6,.14-1.19,.43-1.78s.65-1.07,1.1-1.44Z"/></g><g><path class="cls-4" d="M281.15,253.45l.93,.63c-.54,.74-.83,1.55-.84,2.41v1.2h-1.62v-1.02c0-.6,.14-1.19,.43-1.78s.65-1.07,1.1-1.44Zm2.77,0l.93,.63c-.54,.74-.83,1.55-.84,2.41v1.2h-1.62v-1.02c0-.6,.14-1.19,.43-1.78s.65-1.07,1.1-1.44Z"/><path class="cls-4" d="M296.33,261.13c0,1.24-.2,2.3-.59,3.19s-.94,1.59-1.65,2.1l2.29,1.79-1.15,1.06-2.7-2.14c-.42,.11-.87,.16-1.34,.16-1.01,0-1.9-.25-2.68-.74s-1.38-1.2-1.81-2.12-.65-1.98-.66-3.19v-.92c0-1.23,.21-2.32,.64-3.26s1.03-1.67,1.81-2.17,1.68-.75,2.69-.75,1.94,.25,2.72,.75,1.38,1.21,1.81,2.15,.63,2.03,.63,3.27v.82Zm-1.69-.83c0-1.51-.3-2.67-.9-3.48s-1.46-1.23-2.57-1.23-1.9,.41-2.51,1.22-.93,1.94-.94,3.38v.94c0,1.47,.31,2.62,.92,3.46s1.46,1.27,2.55,1.27,1.93-.4,2.53-1.19,.91-1.93,.92-3.41v-.95Z"/><path class="cls-4" d="M306.27,257.66c0,.64-.17,1.21-.51,1.71s-.79,.89-1.37,1.17c.67,.29,1.2,.71,1.59,1.26,.39,.55,.58,1.18,.58,1.87,0,1.11-.37,1.99-1.12,2.65s-1.73,.98-2.95,.98-2.22-.33-2.96-.99-1.11-1.54-1.11-2.64c0-.69,.19-1.32,.57-1.87,.38-.56,.9-.98,1.57-1.27-.57-.28-1.02-.67-1.34-1.17s-.49-1.06-.49-1.7c0-1.08,.35-1.93,1.04-2.57s1.6-.95,2.73-.95,2.03,.32,2.73,.95,1.04,1.49,1.04,2.57Zm-1.33,5.97c0-.71-.23-1.3-.68-1.75s-1.05-.68-1.78-.68-1.32,.22-1.76,.67-.66,1.03-.66,1.76,.22,1.3,.65,1.71,1.03,.62,1.8,.62,1.36-.21,1.79-.63,.65-.99,.65-1.71Zm-2.44-8.15c-.64,0-1.16,.2-1.55,.59s-.59,.93-.59,1.61,.19,1.18,.58,1.58,.91,.6,1.56,.6,1.17-.2,1.56-.6,.58-.93,.58-1.58-.2-1.18-.61-1.59-.92-.62-1.54-.62Z"/><path class="cls-4" d="M310,253.45l.93,.63c-.54,.74-.83,1.55-.84,2.41v1.2h-1.62v-1.02c0-.6,.14-1.19,.43-1.78s.65-1.07,1.1-1.44Zm2.77,0l.93,.63c-.54,.74-.83,1.55-.84,2.41v1.2h-1.62v-1.02c0-.6,.14-1.19,.43-1.78s.65-1.07,1.1-1.44Z"/></g><g><path class="cls-4" d="M281.15,311.05l.93,.63c-.54,.74-.83,1.55-.84,2.41v1.2h-1.62v-1.02c0-.6,.14-1.19,.43-1.78s.65-1.07,1.1-1.44Zm2.77,0l.93,.63c-.54,.74-.83,1.55-.84,2.41v1.2h-1.62v-1.02c0-.6,.14-1.19,.43-1.78s.65-1.07,1.1-1.44Z"/><path class="cls-4" d="M296.33,318.73c0,1.24-.2,2.3-.59,3.19s-.94,1.59-1.65,2.1l2.29,1.79-1.15,1.06-2.7-2.14c-.42,.11-.87,.16-1.34,.16-1.01,0-1.9-.25-2.68-.74s-1.38-1.2-1.81-2.12-.65-1.98-.66-3.19v-.92c0-1.23,.21-2.32,.64-3.26s1.03-1.67,1.81-2.17,1.68-.75,2.69-.75,1.94,.25,2.72,.75,1.38,1.21,1.81,2.15,.63,2.03,.63,3.27v.82Zm-1.69-.83c0-1.51-.3-2.67-.9-3.49s-1.46-1.23-2.57-1.23-1.9,.41-2.51,1.22-.93,1.94-.94,3.38v.94c0,1.46,.31,2.62,.92,3.46s1.46,1.27,2.55,1.27,1.93-.4,2.53-1.19,.91-1.93,.92-3.41v-.95Z"/><path class="cls-4" d="M304.74,319.09c-.34,.4-.75,.73-1.22,.98s-.99,.37-1.55,.37c-.74,0-1.38-.18-1.93-.54s-.97-.88-1.27-1.53-.45-1.39-.45-2.18c0-.86,.16-1.63,.49-2.31s.79-1.21,1.38-1.57,1.29-.54,2.09-.54c1.27,0,2.26,.47,2.99,1.42s1.09,2.24,1.09,3.87v.47c0,2.49-.49,4.31-1.48,5.45s-2.47,1.73-4.46,1.76h-.32v-1.38h.34c1.34-.02,2.37-.37,3.09-1.05,.72-.68,1.11-1.74,1.18-3.21Zm-2.5,0c.54,0,1.05-.17,1.51-.5s.8-.75,1.01-1.24v-.65c0-1.07-.23-1.93-.69-2.6s-1.05-1-1.76-1-1.29,.27-1.72,.82-.65,1.27-.65,2.17,.21,1.59,.63,2.16,.98,.85,1.68,.85Z"/><path class="cls-4" d="M310,311.05l.93,.63c-.54,.74-.83,1.55-.84,2.41v1.2h-1.62v-1.02c0-.6,.14-1.19,.43-1.78s.65-1.07,1.1-1.44Zm2.77,0l.93,.63c-.54,.74-.83,1.55-.84,2.41v1.2h-1.62v-1.02c0-.6,.14-1.19,.43-1.78s.65-1.07,1.1-1.44Z"/></g><g><path class="cls-4" d="M274.78,377.14h-3.01v5.18h-1.7v-12.8h4.24c1.44,0,2.55,.33,3.33,.98s1.16,1.61,1.16,2.87c0,.8-.22,1.49-.65,2.08s-1.03,1.03-1.8,1.33l3.01,5.43v.11h-1.81l-2.78-5.18Zm-3.01-1.38h2.59c.84,0,1.5-.22,2-.65,.5-.43,.74-1.02,.74-1.74,0-.79-.24-1.4-.71-1.82s-1.15-.64-2.04-.64h-2.58v4.86Z"/><path class="cls-4" d="M284.86,382.49c-1.29,0-2.34-.42-3.15-1.27s-1.21-1.98-1.21-3.4v-.3c0-.94,.18-1.79,.54-2.53s.86-1.32,1.51-1.74,1.35-.63,2.1-.63c1.24,0,2.2,.41,2.88,1.22s1.03,1.98,1.03,3.5v.68h-6.44c.02,.94,.3,1.69,.82,2.27s1.19,.87,2,.87c.57,0,1.06-.12,1.46-.35s.75-.54,1.05-.93l.99,.77c-.8,1.22-1.99,1.84-3.59,1.84Zm-.2-8.53c-.66,0-1.21,.24-1.65,.72s-.72,1.15-.83,2.01h4.76v-.12c-.05-.83-.27-1.47-.67-1.92s-.94-.68-1.62-.68Z"/><path class="cls-4" d="M295.99,379.8c0-.44-.17-.78-.5-1.02s-.91-.45-1.73-.63-1.48-.39-1.96-.63-.84-.54-1.07-.88-.35-.74-.35-1.21c0-.78,.33-1.44,.99-1.98s1.5-.81,2.53-.81c1.08,0,1.95,.28,2.62,.83s1.01,1.27,1.01,2.14h-1.63c0-.45-.19-.83-.57-1.15s-.85-.48-1.43-.48-1.05,.13-1.39,.39-.5,.59-.5,1.01c0,.39,.16,.69,.47,.89s.87,.39,1.68,.57,1.47,.4,1.97,.65,.88,.55,1.12,.91,.36,.79,.36,1.3c0,.85-.34,1.53-1.02,2.04s-1.56,.77-2.65,.77c-.76,0-1.44-.13-2.02-.4s-1.04-.65-1.38-1.13-.5-1.01-.5-1.57h1.63c.03,.54,.25,.98,.65,1.3s.94,.48,1.61,.48c.62,0,1.11-.12,1.48-.37s.56-.58,.56-1Z"/><path class="cls-4" d="M303.68,382.49c-1.29,0-2.34-.42-3.15-1.27s-1.21-1.98-1.21-3.4v-.3c0-.94,.18-1.79,.54-2.53s.86-1.32,1.51-1.74,1.35-.63,2.1-.63c1.24,0,2.2,.41,2.88,1.22s1.03,1.98,1.03,3.5v.68h-6.44c.02,.94,.3,1.69,.82,2.27s1.19,.87,2,.87c.57,0,1.06-.12,1.46-.35s.75-.54,1.05-.93l.99,.77c-.8,1.22-1.99,1.84-3.59,1.84Zm-.2-8.53c-.66,0-1.21,.24-1.65,.72s-.72,1.15-.83,2.01h4.76v-.12c-.05-.83-.27-1.47-.67-1.92s-.94-.68-1.62-.68Z"/><path class="cls-4" d="M311.48,370.51v2.3h1.78v1.26h-1.78v5.9c0,.38,.08,.67,.24,.86s.43,.29,.81,.29c.19,0,.45-.04,.77-.11v1.31c-.43,.12-.84,.17-1.25,.17-.73,0-1.27-.22-1.64-.66s-.55-1.06-.55-1.87v-5.9h-1.73v-1.26h1.73v-2.3h1.63Z"/></g><g><path class="cls-4" d="M276.49,439.92h-1.69v-12.8h1.69v12.8Z"/><path class="cls-4" d="M280.86,430.41l.05,1.2c.73-.91,1.68-1.37,2.85-1.37,2.01,0,3.02,1.13,3.04,3.4v6.28h-1.63v-6.29c0-.69-.16-1.19-.47-1.52s-.79-.49-1.44-.49c-.53,0-.99,.14-1.39,.42s-.71,.65-.93,1.11v6.78h-1.63v-9.51h1.54Z"/><path class="cls-4" d="M297.28,435.27c0,1.45-.33,2.61-.99,3.5s-1.56,1.33-2.69,1.33-2.06-.37-2.72-1.1v4.58h-1.63v-13.17h1.49l.08,1.05c.66-.82,1.58-1.23,2.76-1.23s2.05,.43,2.71,1.29,1,2.06,1,3.59v.15Zm-1.63-.18c0-1.07-.23-1.92-.69-2.54s-1.08-.93-1.88-.93c-.98,0-1.72,.44-2.21,1.31v4.54c.49,.87,1.23,1.3,2.23,1.3,.78,0,1.4-.31,1.86-.93s.69-1.54,.69-2.76Z"/><path class="cls-4" d="M305.22,438.98c-.63,.74-1.56,1.12-2.79,1.12-1.01,0-1.79-.29-2.32-.88s-.8-1.46-.8-2.62v-6.19h1.63v6.14c0,1.44,.59,2.16,1.76,2.16,1.24,0,2.07-.46,2.48-1.39v-6.92h1.63v9.51h-1.55l-.04-.94Z"/><path class="cls-4" d="M311.48,428.11v2.3h1.78v1.26h-1.78v5.91c0,.38,.08,.67,.24,.86,.16,.19,.43,.29,.81,.29,.19,0,.45-.04,.77-.11v1.31c-.43,.12-.84,.17-1.25,.17-.73,0-1.27-.22-1.64-.66s-.55-1.06-.55-1.87v-5.9h-1.73v-1.26h1.73v-2.3h1.63Z"/></g><g><path class="cls-4" d="M281.15,483.85l.93,.63c-.54,.74-.83,1.55-.84,2.41v1.2h-1.62v-1.02c0-.6,.14-1.19,.43-1.78s.65-1.07,1.1-1.44Zm2.77,0l.93,.63c-.54,.74-.83,1.55-.84,2.41v1.2h-1.62v-1.02c0-.6,.14-1.19,.43-1.78s.65-1.07,1.1-1.44Z"/><path class="cls-4" d="M296.33,491.53c0,1.24-.2,2.3-.59,3.19-.39,.89-.94,1.59-1.65,2.1l2.29,1.79-1.15,1.06-2.7-2.14c-.42,.11-.87,.16-1.34,.16-1.01,0-1.9-.25-2.68-.74-.78-.5-1.38-1.2-1.81-2.12-.43-.92-.65-1.98-.66-3.19v-.92c0-1.23,.21-2.32,.64-3.26s1.03-1.67,1.81-2.17c.78-.5,1.68-.75,2.69-.75s1.94,.25,2.72,.75,1.38,1.21,1.81,2.15c.42,.93,.63,2.03,.63,3.27v.82Zm-1.69-.83c0-1.51-.3-2.67-.9-3.49-.6-.82-1.46-1.23-2.57-1.23s-1.9,.41-2.51,1.22c-.61,.81-.93,1.94-.94,3.38v.94c0,1.46,.31,2.62,.92,3.46s1.46,1.27,2.55,1.27,1.93-.4,2.53-1.19c.6-.79,.91-1.93,.92-3.42v-.95Z"/><path class="cls-4" d="M303.86,497.52h-1.63v-10.84l-3.28,1.2v-1.48l4.66-1.75h.25v12.86Z"/><path class="cls-4" d="M310,483.85l.93,.63c-.54,.74-.83,1.55-.84,2.41v1.2h-1.62v-1.02c0-.6,.14-1.19,.43-1.78s.65-1.07,1.1-1.44Zm2.77,0l.93,.63c-.54,.74-.83,1.55-.84,2.41v1.2h-1.62v-1.02c0-.6,.14-1.19,.43-1.78s.65-1.07,1.1-1.44Z"/></g><g><path class="cls-4" d="M271.21,138.25l.93,.63c-.54,.74-.83,1.55-.84,2.41v1.2h-1.62v-1.02c0-.6,.14-1.19,.43-1.78s.65-1.07,1.1-1.44Zm2.77,0l.93,.63c-.54,.74-.83,1.55-.84,2.41v1.2h-1.62v-1.02c0-.6,.14-1.19,.43-1.78s.65-1.07,1.1-1.44Z"/><path class="cls-4" d="M286.39,145.93c0,1.24-.2,2.3-.59,3.19s-.94,1.59-1.65,2.1l2.29,1.79-1.15,1.06-2.7-2.14c-.42,.11-.87,.16-1.34,.16-1.01,0-1.9-.25-2.68-.74s-1.38-1.2-1.81-2.12-.65-1.98-.66-3.19v-.92c0-1.23,.21-2.32,.64-3.26s1.03-1.67,1.81-2.17,1.68-.75,2.69-.75,1.94,.25,2.72,.75,1.38,1.21,1.81,2.15,.63,2.03,.63,3.27v.82Zm-1.69-.83c0-1.51-.3-2.67-.9-3.49s-1.46-1.23-2.57-1.23-1.9,.41-2.51,1.22-.93,1.94-.94,3.38v.94c0,1.46,.31,2.62,.92,3.46s1.46,1.27,2.55,1.27,1.93-.4,2.53-1.19,.91-1.93,.92-3.41v-.95Z"/><path class="cls-4" d="M293.91,151.92h-1.63v-10.84l-3.28,1.2v-1.48l4.66-1.75h.25v12.86Z"/><path class="cls-4" d="M304.02,151.92h-1.63v-10.84l-3.28,1.2v-1.48l4.66-1.75h.25v12.86Z"/><path class="cls-4" d="M310.16,138.25l.93,.63c-.54,.74-.83,1.55-.84,2.41v1.2h-1.62v-1.02c0-.6,.14-1.19,.43-1.78s.65-1.07,1.1-1.44Zm2.77,0l.93,.63c-.54,.74-.83,1.55-.84,2.41v1.2h-1.62v-1.02c0-.6,.14-1.19,.43-1.78s.65-1.07,1.1-1.44Z"/></g><g><path class="cls-4" d="M588.14,115.2h-1.63v-10.84l-3.28,1.2v-1.48l4.66-1.75h.25v12.86Z"/><path class="cls-4" d="M600.93,109.74c0,1.9-.33,3.32-.98,4.25s-1.67,1.39-3.05,1.39-2.38-.45-3.03-1.36-1-2.26-1.02-4.06v-2.17c0-1.88,.33-3.28,.98-4.19s1.67-1.37,3.06-1.37,2.39,.44,3.04,1.32,.98,2.24,1,4.08v2.11Zm-1.63-2.22c0-1.38-.19-2.38-.58-3.01s-1-.94-1.84-.94-1.44,.31-1.82,.94-.58,1.59-.59,2.89v2.6c0,1.38,.2,2.4,.6,3.06s1.01,.99,1.82,.99,1.4-.31,1.79-.93,.59-1.6,.61-2.94v-2.66Z"/></g><g><path class="cls-4" d="M588.14,437.76h-1.63v-10.84l-3.28,1.2v-1.48l4.66-1.75h.25v12.86Z"/><path class="cls-4" d="M598.25,437.76h-1.63v-10.84l-3.28,1.2v-1.48l4.66-1.75h.25v12.86Z"/></g><path class="cls-4" d="M800,118.22c-.34,.4-.75,.73-1.22,.98s-.99,.37-1.55,.37c-.74,0-1.38-.18-1.93-.54s-.97-.87-1.27-1.53-.45-1.39-.45-2.18c0-.86,.16-1.63,.49-2.31s.79-1.21,1.38-1.57,1.29-.54,2.09-.54c1.27,0,2.26,.47,2.99,1.42s1.09,2.24,1.09,3.87v.47c0,2.49-.49,4.31-1.48,5.45s-2.47,1.73-4.46,1.76h-.32v-1.38h.34c1.34-.02,2.37-.37,3.09-1.05,.72-.68,1.11-1.74,1.18-3.21Zm-2.5,0c.54,0,1.05-.17,1.51-.5s.8-.75,1.01-1.24v-.65c0-1.07-.23-1.93-.69-2.6s-1.05-1-1.76-1-1.29,.27-1.72,.82-.65,1.27-.65,2.17,.21,1.59,.63,2.16,.98,.85,1.68,.85Z"/><path class="cls-4" d="M802.03,140.76l-5.3,11.88h-1.71l5.28-11.46h-6.93v-1.34h8.65v.91Z"/><path class="cls-4" d="M800.15,168.63v1.38h-.3c-1.27,.02-2.27,.4-3.02,1.12s-1.18,1.75-1.3,3.07c.67-.77,1.59-1.16,2.76-1.16s2,.39,2.67,1.18,1,1.8,1,3.04c0,1.32-.36,2.37-1.08,3.16s-1.68,1.19-2.89,1.19-2.22-.47-2.98-1.41-1.14-2.15-1.14-3.63v-.62c0-2.36,.5-4.16,1.51-5.4s2.5-1.88,4.49-1.91h.29Zm-2.14,5.77c-.56,0-1.07,.17-1.54,.5s-.79,.75-.98,1.26v.6c0,1.05,.24,1.9,.71,2.55s1.07,.97,1.78,.97,1.31-.27,1.73-.81,.63-1.25,.63-2.12-.21-1.59-.64-2.13-.99-.81-1.69-.81Z"/><path class="cls-4" d="M794.52,203.82l.65-6.38h6.56v1.5h-5.18l-.39,3.49c.63-.37,1.34-.55,2.14-.55,1.17,0,2.09,.39,2.78,1.16s1.03,1.81,1.03,3.12-.36,2.36-1.07,3.12c-.71,.76-1.71,1.14-2.98,1.14-1.13,0-2.05-.31-2.77-.94s-1.12-1.49-1.22-2.6h1.54c.1,.73,.36,1.28,.78,1.66s.98,.56,1.67,.56c.76,0,1.35-.26,1.78-.77,.43-.52,.65-1.23,.65-2.14,0-.86-.23-1.54-.7-2.06-.46-.52-1.08-.78-1.86-.78-.71,0-1.27,.16-1.67,.47l-.43,.35-1.3-.33Z"/><path class="cls-4" d="M796.13,231.85h1.22c.77-.01,1.37-.21,1.81-.61s.66-.92,.66-1.59c0-1.5-.75-2.25-2.24-2.25-.7,0-1.26,.2-1.68,.6s-.63,.93-.63,1.6h-1.63c0-1.01,.37-1.86,1.11-2.53s1.68-1.01,2.83-1.01c1.21,0,2.15,.32,2.84,.96s1.03,1.53,1.03,2.66c0,.56-.18,1.1-.54,1.62s-.85,.91-1.47,1.17c.7,.22,1.25,.59,1.63,1.11s.58,1.15,.58,1.89c0,1.15-.38,2.06-1.12,2.73s-1.73,1.01-2.93,1.01-2.18-.33-2.93-.98-1.13-1.51-1.13-2.58h1.63c0,.67,.22,1.21,.66,1.62s1.03,.61,1.77,.61c.79,0,1.39-.21,1.8-.62s.62-1,.62-1.77-.23-1.32-.69-1.71-1.12-.6-1.98-.62h-1.22v-1.33Z"/><path class="cls-4" d="M802.15,267.84h-8.38v-1.17l4.43-4.92c.66-.74,1.11-1.35,1.36-1.81s.37-.95,.37-1.45c0-.67-.2-1.22-.61-1.64s-.94-.64-1.62-.64c-.81,0-1.44,.23-1.89,.69s-.67,1.1-.67,1.92h-1.63c0-1.18,.38-2.13,1.14-2.86s1.77-1.09,3.05-1.09c1.19,0,2.13,.31,2.82,.94s1.04,1.45,1.04,2.49c0,1.26-.8,2.76-2.41,4.5l-3.43,3.72h6.42v1.33Z"/><path class="cls-4" d="M800.63,292.34h1.78v1.33h-1.78v2.97h-1.63v-2.97h-5.83v-.96l5.73-8.87h1.73v8.5Zm-5.62,0h3.98v-6.28l-.19,.35-3.79,5.92Z"/><g><path class="cls-4" d="M794.06,325.44h-1.63v-10.84l-3.28,1.2v-1.48l4.66-1.75h.25v12.86Z"/><path class="cls-4" d="M801.19,318.25h1.22c.77-.01,1.37-.21,1.81-.61s.66-.92,.66-1.59c0-1.5-.75-2.25-2.24-2.25-.7,0-1.26,.2-1.68,.6s-.63,.93-.63,1.59h-1.63c0-1.01,.37-1.86,1.11-2.53s1.68-1.01,2.83-1.01c1.21,0,2.15,.32,2.84,.96s1.03,1.53,1.03,2.66c0,.56-.18,1.1-.54,1.62s-.85,.91-1.47,1.17c.7,.22,1.25,.59,1.63,1.11s.58,1.15,.58,1.89c0,1.15-.38,2.06-1.12,2.73s-1.73,1.01-2.93,1.01-2.18-.33-2.93-.98-1.13-1.51-1.13-2.58h1.63c0,.67,.22,1.21,.66,1.62s1.03,.61,1.77,.61c.79,0,1.39-.21,1.8-.62s.62-1,.62-1.77-.23-1.32-.69-1.71-1.12-.6-1.98-.62h-1.22v-1.33Z"/></g><g><path class="cls-4" d="M720.08,560.8l3.66-10.56h1.85l-4.75,12.8h-1.49l-4.74-12.8h1.84l3.64,10.56Z"/><path class="cls-4" d="M729.31,559.24c-.96-.28-1.67-.62-2.11-1.02s-.66-.9-.66-1.5c0-.67,.27-1.23,.81-1.67s1.24-.66,2.09-.66c.59,0,1.11,.11,1.57,.34s.81,.54,1.07,.94,.38,.83,.38,1.31h-1.13c0-.52-.16-.92-.49-1.22s-.79-.44-1.39-.44c-.55,0-.99,.12-1.3,.37-.31,.24-.47,.58-.47,1.02,0,.35,.15,.64,.44,.88s.8,.46,1.51,.66c.71,.2,1.26,.42,1.66,.66s.7,.52,.89,.84,.29,.7,.29,1.13c0,.69-.27,1.25-.81,1.66s-1.26,.62-2.16,.62c-.59,0-1.13-.11-1.64-.34s-.9-.53-1.17-.92-.41-.83-.41-1.33h1.13c0,.52,.19,.92,.57,1.22s.89,.45,1.53,.45c.59,0,1.05-.12,1.37-.36s.47-.57,.47-.99-.15-.74-.44-.97-.82-.45-1.59-.68Z"/><path class="cls-4" d="M736.43,559.24c-.96-.28-1.67-.62-2.11-1.02s-.66-.9-.66-1.5c0-.67,.27-1.23,.81-1.67s1.24-.66,2.09-.66c.59,0,1.11,.11,1.57,.34s.81,.54,1.07,.94,.38,.83,.38,1.31h-1.13c0-.52-.16-.92-.49-1.22s-.79-.44-1.39-.44c-.55,0-.99,.12-1.3,.37-.31,.24-.47,.58-.47,1.02,0,.35,.15,.64,.44,.88s.8,.46,1.51,.66c.71,.2,1.26,.42,1.66,.66s.7,.52,.89,.84,.29,.7,.29,1.13c0,.69-.27,1.25-.81,1.66s-1.26,.62-2.16,.62c-.59,0-1.13-.11-1.64-.34s-.9-.53-1.17-.92-.41-.83-.41-1.33h1.13c0,.52,.19,.92,.57,1.22s.89,.45,1.53,.45c.59,0,1.05-.12,1.37-.36s.47-.57,.47-.99-.15-.74-.44-.97-.82-.45-1.59-.68Z"/></g><g><path class="cls-4" d="M467.36,434.56h-3.01v5.18h-1.7v-12.8h4.24c1.44,0,2.55,.33,3.33,.98s1.16,1.61,1.16,2.87c0,.8-.22,1.49-.65,2.08s-1.03,1.03-1.8,1.33l3.01,5.43v.11h-1.81l-2.78-5.18Zm-3.01-1.38h2.59c.84,0,1.5-.22,2-.65,.5-.43,.74-1.02,.74-1.74,0-.79-.24-1.4-.71-1.82s-1.15-.64-2.04-.64h-2.58v4.86Z"/><path class="cls-4" d="M477.44,439.92c-1.29,0-2.34-.42-3.15-1.27s-1.21-1.98-1.21-3.4v-.3c0-.94,.18-1.79,.54-2.53s.86-1.32,1.51-1.74,1.35-.63,2.1-.63c1.24,0,2.2,.41,2.88,1.22s1.03,1.98,1.03,3.5v.68h-6.44c.02,.94,.3,1.69,.82,2.27s1.19,.87,2,.87c.57,0,1.06-.12,1.46-.35s.75-.54,1.05-.93l.99,.77c-.8,1.22-1.99,1.84-3.59,1.84Zm-.2-8.53c-.66,0-1.21,.24-1.65,.72s-.72,1.15-.83,2.01h4.76v-.12c-.05-.83-.27-1.47-.67-1.92s-.94-.68-1.62-.68Z"/><path class="cls-4" d="M488.57,437.22c0-.44-.17-.78-.5-1.02s-.91-.45-1.73-.63-1.48-.39-1.96-.63-.84-.54-1.07-.88-.35-.74-.35-1.21c0-.78,.33-1.44,.99-1.98s1.5-.81,2.53-.81c1.08,0,1.95,.28,2.62,.83s1.01,1.27,1.01,2.14h-1.63c0-.45-.19-.83-.57-1.15s-.85-.48-1.43-.48-1.05,.13-1.39,.39-.5,.59-.5,1.01c0,.39,.16,.69,.47,.89s.87,.39,1.68,.57,1.47,.4,1.97,.65,.88,.55,1.12,.91,.37,.79,.37,1.3c0,.85-.34,1.53-1.02,2.04s-1.56,.77-2.65,.77c-.76,0-1.44-.13-2.02-.4s-1.04-.65-1.38-1.13-.5-1.01-.5-1.57h1.63c.03,.54,.25,.98,.65,1.3s.95,.48,1.61,.48c.62,0,1.11-.12,1.48-.37s.56-.58,.56-1Z"/><path class="cls-4" d="M496.26,439.92c-1.29,0-2.34-.42-3.15-1.27s-1.21-1.98-1.21-3.4v-.3c0-.94,.18-1.79,.54-2.53s.86-1.32,1.51-1.74,1.35-.63,2.11-.63c1.24,0,2.2,.41,2.88,1.22s1.03,1.98,1.03,3.5v.68h-6.44c.02,.94,.3,1.69,.82,2.27s1.19,.87,2,.87c.57,0,1.06-.12,1.46-.35s.75-.54,1.05-.93l.99,.77c-.8,1.22-1.99,1.84-3.59,1.84Zm-.2-8.53c-.66,0-1.21,.24-1.65,.72s-.72,1.15-.83,2.01h4.76v-.12c-.05-.83-.27-1.47-.67-1.92s-.94-.68-1.62-.68Z"/><path class="cls-4" d="M504.06,427.93v2.3h1.78v1.26h-1.78v5.9c0,.38,.08,.67,.24,.86s.43,.29,.81,.29c.19,0,.45-.04,.77-.11v1.31c-.43,.12-.84,.17-1.25,.17-.73,0-1.27-.22-1.64-.66s-.55-1.06-.55-1.87v-5.9h-1.73v-1.26h1.73v-2.3h1.63Z"/></g><g><path class="cls-4" d="M468.21,120.06h-1.69v-12.8h1.69v12.8Z"/><path class="cls-4" d="M472.58,110.55l.05,1.2c.73-.91,1.68-1.37,2.85-1.37,2.01,0,3.02,1.13,3.04,3.4v6.28h-1.63v-6.29c0-.69-.16-1.19-.47-1.52s-.79-.49-1.44-.49c-.53,0-.99,.14-1.39,.42s-.71,.65-.93,1.11v6.78h-1.63v-9.51h1.54Z"/><path class="cls-4" d="M489.01,115.41c0,1.45-.33,2.61-.99,3.5s-1.56,1.33-2.69,1.33-2.06-.37-2.73-1.1v4.58h-1.63v-13.17h1.49l.08,1.05c.66-.82,1.58-1.23,2.76-1.23s2.05,.43,2.71,1.29,1,2.06,1,3.59v.15Zm-1.63-.18c0-1.07-.23-1.92-.69-2.54s-1.08-.93-1.88-.93c-.98,0-1.72,.44-2.22,1.31v4.54c.49,.87,1.23,1.3,2.23,1.3,.78,0,1.4-.31,1.86-.93s.69-1.54,.69-2.76Z"/><path class="cls-4" d="M496.94,119.12c-.63,.74-1.56,1.12-2.79,1.12-1.01,0-1.79-.29-2.32-.88s-.8-1.46-.8-2.61v-6.19h1.63v6.14c0,1.44,.59,2.16,1.76,2.16,1.24,0,2.07-.46,2.48-1.39v-6.92h1.63v9.51h-1.55l-.04-.94Z"/><path class="cls-4" d="M503.2,108.25v2.3h1.78v1.26h-1.78v5.9c0,.38,.08,.67,.24,.86,.16,.19,.43,.29,.81,.29,.19,0,.45-.04,.77-.11v1.31c-.43,.12-.84,.17-1.25,.17-.73,0-1.27-.22-1.64-.66s-.55-1.06-.55-1.87v-5.9h-1.73v-1.26h1.73v-2.3h1.63Z"/></g><g><path class="cls-4" d="M713.57,59.68l3.66-10.56h1.85l-4.75,12.8h-1.49l-4.74-12.8h1.84l3.64,10.56Z"/><path class="cls-4" d="M720.29,61.92v-8.53h2.41c.74,0,1.4,.16,1.97,.49s1.01,.79,1.32,1.4,.47,1.3,.47,2.09v.54c0,.8-.16,1.51-.47,2.12s-.75,1.07-1.33,1.39-1.25,.49-2.01,.5h-2.36Zm1.12-7.61v6.69h1.18c.87,0,1.54-.27,2.02-.81s.72-1.31,.72-2.31v-.5c0-.97-.23-1.72-.68-2.26-.46-.54-1.1-.81-1.94-.82h-1.31Z"/><path class="cls-4" d="M728.16,61.92v-8.53h2.41c.74,0,1.4,.16,1.97,.49s1.01,.79,1.32,1.4,.47,1.3,.47,2.09v.54c0,.8-.16,1.51-.47,2.12s-.75,1.07-1.33,1.39-1.25,.49-2.01,.5h-2.36Zm1.12-7.61v6.69h1.18c.87,0,1.54-.27,2.02-.81s.72-1.31,.72-2.31v-.5c0-.97-.23-1.72-.68-2.26-.46-.54-1.1-.81-1.94-.82h-1.31Z"/></g><g><path class="cls-4" d="M1004.36,121.69l.93,.63c-.54,.74-.83,1.55-.84,2.41v1.2h-1.62v-1.02c0-.6,.14-1.19,.43-1.78s.65-1.07,1.1-1.44Zm2.77,0l.93,.63c-.54,.74-.83,1.55-.84,2.41v1.2h-1.62v-1.02c0-.6,.14-1.19,.43-1.78s.65-1.07,1.1-1.44Z"/><path class="cls-4" d="M1019.54,129.37c0,1.24-.2,2.3-.59,3.19s-.94,1.59-1.65,2.1l2.29,1.79-1.15,1.06-2.7-2.14c-.42,.11-.87,.16-1.34,.16-1.01,0-1.9-.25-2.68-.74s-1.38-1.2-1.81-2.12-.65-1.98-.66-3.19v-.92c0-1.23,.21-2.32,.64-3.26s1.03-1.67,1.82-2.17,1.68-.75,2.68-.75,1.94,.25,2.72,.75,1.38,1.21,1.81,2.15,.63,2.03,.63,3.27v.82Zm-1.69-.83c0-1.51-.3-2.67-.9-3.48s-1.46-1.23-2.57-1.23-1.9,.41-2.51,1.22-.93,1.94-.95,3.38v.94c0,1.46,.31,2.62,.92,3.46s1.46,1.27,2.55,1.27,1.93-.4,2.53-1.19,.91-1.93,.92-3.41v-.95Z"/><path class="cls-4" d="M1027.06,135.36h-1.63v-10.84l-3.28,1.2v-1.48l4.66-1.75h.25v12.86Z"/><path class="cls-4" d="M1033.2,121.69l.93,.63c-.54,.74-.83,1.55-.84,2.41v1.2h-1.62v-1.02c0-.6,.14-1.19,.43-1.78s.65-1.07,1.1-1.44Zm2.77,0l.93,.63c-.54,.74-.83,1.55-.84,2.41v1.2h-1.62v-1.02c0-.6,.14-1.19,.43-1.78s.65-1.07,1.1-1.44Z"/></g><g><path class="cls-4" d="M1004.36,150.49l.93,.63c-.54,.74-.83,1.55-.84,2.41v1.2h-1.62v-1.02c0-.6,.14-1.19,.43-1.78s.65-1.07,1.1-1.44Zm2.77,0l.93,.63c-.54,.74-.83,1.55-.84,2.41v1.2h-1.62v-1.02c0-.6,.14-1.19,.43-1.78s.65-1.07,1.1-1.44Z"/><path class="cls-4" d="M1019.54,158.17c0,1.24-.2,2.3-.59,3.19s-.94,1.59-1.65,2.1l2.29,1.79-1.15,1.06-2.7-2.14c-.42,.11-.87,.16-1.34,.16-1.01,0-1.9-.25-2.68-.74s-1.38-1.2-1.82-2.12-.65-1.98-.66-3.19v-.92c0-1.23,.21-2.32,.64-3.26s1.03-1.67,1.81-2.17,1.68-.75,2.69-.75,1.94,.25,2.72,.75,1.38,1.21,1.81,2.15,.63,2.03,.63,3.27v.82Zm-1.69-.83c0-1.51-.3-2.67-.9-3.48s-1.46-1.23-2.57-1.23-1.9,.41-2.51,1.22-.93,1.94-.94,3.38v.94c0,1.46,.31,2.62,.92,3.46s1.46,1.27,2.55,1.27,1.93-.4,2.53-1.19,.91-1.93,.92-3.41v-.95Z"/><path class="cls-4" d="M1030.1,164.16h-8.38v-1.17l4.43-4.92c.66-.74,1.11-1.35,1.36-1.81s.37-.95,.37-1.45c0-.67-.2-1.22-.61-1.64s-.94-.64-1.62-.64c-.81,0-1.44,.23-1.89,.69s-.67,1.1-.67,1.92h-1.63c0-1.18,.38-2.13,1.14-2.86s1.77-1.09,3.05-1.09c1.19,0,2.13,.31,2.82,.94s1.04,1.45,1.04,2.49c0,1.26-.8,2.76-2.41,4.5l-3.43,3.72h6.42v1.33Z"/><path class="cls-4" d="M1033.2,150.49l.93,.63c-.54,.74-.83,1.55-.84,2.41v1.2h-1.62v-1.02c0-.6,.14-1.19,.43-1.78s.65-1.07,1.1-1.44Zm2.77,0l.93,.63c-.54,.74-.83,1.55-.84,2.41v1.2h-1.62v-1.02c0-.6,.14-1.19,.43-1.78s.65-1.07,1.1-1.44Z"/></g><g><path class="cls-4" d="M1004.36,179.29l.93,.63c-.54,.74-.83,1.55-.84,2.41v1.2h-1.62v-1.02c0-.6,.14-1.19,.43-1.78s.65-1.07,1.1-1.44Zm2.77,0l.93,.63c-.54,.74-.83,1.55-.84,2.41v1.2h-1.62v-1.02c0-.6,.14-1.19,.43-1.78s.65-1.07,1.1-1.44Z"/><path class="cls-4" d="M1019.54,186.97c0,1.24-.2,2.3-.59,3.19s-.94,1.59-1.65,2.1l2.29,1.79-1.15,1.06-2.7-2.14c-.42,.11-.87,.16-1.34,.16-1.01,0-1.9-.25-2.68-.74s-1.38-1.2-1.82-2.12-.65-1.98-.66-3.19v-.92c0-1.23,.21-2.32,.64-3.26s1.03-1.67,1.81-2.17,1.68-.75,2.69-.75,1.94,.25,2.72,.75,1.38,1.21,1.81,2.15,.63,2.03,.63,3.27v.82Zm-1.69-.83c0-1.51-.3-2.67-.9-3.48s-1.46-1.23-2.57-1.23-1.9,.41-2.51,1.22-.93,1.94-.94,3.38v.94c0,1.46,.31,2.62,.92,3.46s1.46,1.27,2.55,1.27,1.93-.4,2.53-1.19,.91-1.93,.92-3.41v-.95Z"/><path class="cls-4" d="M1024.08,185.77h1.22c.77-.01,1.37-.21,1.81-.61s.66-.92,.66-1.59c0-1.5-.75-2.25-2.24-2.25-.7,0-1.26,.2-1.68,.6s-.63,.93-.63,1.6h-1.63c0-1.01,.37-1.86,1.11-2.53s1.68-1.01,2.83-1.01c1.21,0,2.15,.32,2.84,.96s1.03,1.53,1.03,2.66c0,.56-.18,1.1-.54,1.62s-.85,.91-1.47,1.17c.7,.22,1.25,.59,1.63,1.11s.58,1.15,.58,1.89c0,1.15-.38,2.06-1.12,2.73s-1.73,1.01-2.93,1.01-2.18-.33-2.93-.98-1.13-1.51-1.13-2.58h1.63c0,.67,.22,1.21,.66,1.62s1.03,.61,1.77,.61c.79,0,1.39-.21,1.8-.62s.62-1,.62-1.77-.23-1.32-.69-1.71-1.12-.6-1.98-.62h-1.22v-1.33Z"/><path class="cls-4" d="M1033.2,179.29l.93,.63c-.54,.74-.83,1.55-.84,2.41v1.2h-1.62v-1.02c0-.6,.14-1.19,.43-1.78s.65-1.07,1.1-1.44Zm2.77,0l.93,.63c-.54,.74-.83,1.55-.84,2.41v1.2h-1.62v-1.02c0-.6,.14-1.19,.43-1.78s.65-1.07,1.1-1.44Z"/></g><g><path class="cls-4" d="M1004.36,208.09l.93,.63c-.54,.74-.83,1.55-.84,2.41v1.2h-1.62v-1.02c0-.6,.14-1.19,.43-1.78s.65-1.07,1.1-1.44Zm2.77,0l.93,.63c-.54,.74-.83,1.55-.84,2.41v1.2h-1.62v-1.02c0-.6,.14-1.19,.43-1.78s.65-1.07,1.1-1.44Z"/><path class="cls-4" d="M1019.54,215.77c0,1.24-.2,2.3-.59,3.19s-.94,1.59-1.65,2.1l2.29,1.79-1.15,1.06-2.7-2.14c-.42,.11-.87,.16-1.34,.16-1.01,0-1.9-.25-2.68-.74s-1.38-1.2-1.82-2.12-.65-1.98-.66-3.19v-.92c0-1.23,.21-2.32,.64-3.26s1.03-1.67,1.81-2.17,1.68-.75,2.69-.75,1.94,.25,2.72,.75,1.38,1.21,1.81,2.15,.63,2.03,.63,3.27v.82Zm-1.69-.83c0-1.51-.3-2.67-.9-3.48s-1.46-1.23-2.57-1.23-1.9,.41-2.51,1.22-.93,1.94-.94,3.38v.94c0,1.46,.31,2.62,.92,3.46s1.46,1.27,2.55,1.27,1.93-.4,2.53-1.19,.91-1.93,.92-3.41v-.95Z"/><path class="cls-4" d="M1028.58,217.46h1.78v1.33h-1.78v2.97h-1.63v-2.97h-5.83v-.96l5.73-8.87h1.73v8.5Zm-5.62,0h3.98v-6.28l-.19,.35-3.79,5.92Z"/><path class="cls-4" d="M1033.2,208.09l.93,.63c-.54,.74-.83,1.55-.84,2.41v1.2h-1.62v-1.02c0-.6,.14-1.19,.43-1.78s.65-1.07,1.1-1.44Zm2.77,0l.93,.63c-.54,.74-.83,1.55-.84,2.41v1.2h-1.62v-1.02c0-.6,.14-1.19,.43-1.78s.65-1.07,1.1-1.44Z"/></g><g><path class="cls-4" d="M1004.36,236.89l.93,.63c-.54,.74-.83,1.55-.84,2.41v1.2h-1.62v-1.02c0-.6,.14-1.19,.43-1.78s.65-1.07,1.1-1.44Zm2.77,0l.93,.63c-.54,.74-.83,1.55-.84,2.41v1.2h-1.62v-1.02c0-.6,.14-1.19,.43-1.78s.65-1.07,1.1-1.44Z"/><path class="cls-4" d="M1019.54,244.57c0,1.24-.2,2.3-.59,3.19s-.94,1.59-1.65,2.1l2.29,1.79-1.15,1.06-2.7-2.14c-.42,.11-.87,.16-1.34,.16-1.01,0-1.9-.25-2.68-.74s-1.38-1.2-1.81-2.12-.65-1.98-.66-3.19v-.92c0-1.23,.21-2.32,.64-3.26s1.03-1.67,1.82-2.17,1.68-.75,2.68-.75,1.94,.25,2.72,.75,1.38,1.21,1.81,2.15,.63,2.03,.63,3.27v.82Zm-1.69-.83c0-1.51-.3-2.67-.9-3.48s-1.46-1.23-2.57-1.23-1.9,.41-2.51,1.22-.93,1.94-.95,3.38v.94c0,1.46,.31,2.62,.92,3.46s1.46,1.27,2.55,1.27,1.93-.4,2.53-1.19,.91-1.93,.92-3.41v-.95Z"/><path class="cls-4" d="M1022.46,244.14l.65-6.38h6.56v1.5h-5.18l-.39,3.49c.63-.37,1.34-.55,2.14-.55,1.17,0,2.09,.39,2.78,1.16s1.03,1.81,1.03,3.12-.36,2.36-1.07,3.12-1.71,1.14-2.98,1.14c-1.13,0-2.05-.31-2.77-.94s-1.12-1.49-1.22-2.6h1.54c.1,.73,.36,1.28,.78,1.66s.98,.56,1.67,.56c.76,0,1.35-.26,1.78-.77s.65-1.23,.65-2.14c0-.86-.23-1.54-.7-2.06s-1.09-.78-1.86-.78c-.71,0-1.27,.16-1.67,.47l-.43,.35-1.3-.33Z"/><path class="cls-4" d="M1033.2,236.89l.93,.63c-.54,.74-.83,1.55-.84,2.41v1.2h-1.62v-1.02c0-.6,.14-1.19,.43-1.78s.65-1.07,1.1-1.44Zm2.77,0l.93,.63c-.54,.74-.83,1.55-.84,2.41v1.2h-1.62v-1.02c0-.6,.14-1.19,.43-1.78s.65-1.07,1.1-1.44Z"/></g><g><path class="cls-4" d="M1004.36,265.69l.93,.63c-.54,.74-.83,1.55-.84,2.41v1.2h-1.62v-1.02c0-.6,.14-1.19,.43-1.78s.65-1.07,1.1-1.44Zm2.77,0l.93,.63c-.54,.74-.83,1.55-.84,2.41v1.2h-1.62v-1.02c0-.6,.14-1.19,.43-1.78s.65-1.07,1.1-1.44Z"/><path class="cls-4" d="M1019.54,273.37c0,1.24-.2,2.3-.59,3.2s-.94,1.59-1.65,2.1l2.29,1.79-1.15,1.06-2.7-2.14c-.42,.11-.87,.16-1.34,.16-1.01,0-1.9-.25-2.68-.74s-1.38-1.2-1.81-2.12-.65-1.98-.66-3.19v-.92c0-1.23,.21-2.32,.64-3.26s1.03-1.67,1.82-2.17,1.68-.75,2.68-.75,1.94,.25,2.72,.75,1.38,1.21,1.81,2.15,.63,2.03,.63,3.27v.82Zm-1.69-.83c0-1.51-.3-2.67-.9-3.48s-1.46-1.23-2.57-1.23-1.9,.41-2.51,1.22-.93,1.94-.95,3.38v.94c0,1.46,.31,2.62,.92,3.46s1.46,1.27,2.55,1.27,1.93-.4,2.53-1.19,.91-1.93,.92-3.42v-.95Z"/><path class="cls-4" d="M1028.1,266.55v1.38h-.3c-1.27,.02-2.27,.4-3.02,1.12s-1.18,1.75-1.3,3.07c.67-.77,1.59-1.16,2.76-1.16s2,.39,2.67,1.18,1,1.8,1,3.04c0,1.32-.36,2.37-1.08,3.16s-1.68,1.19-2.89,1.19-2.22-.47-2.98-1.41-1.14-2.15-1.14-3.63v-.62c0-2.36,.5-4.16,1.51-5.4s2.5-1.88,4.49-1.91h.29Zm-2.14,5.77c-.56,0-1.07,.17-1.54,.5s-.79,.75-.98,1.26v.6c0,1.05,.24,1.9,.71,2.55s1.07,.97,1.78,.97,1.31-.27,1.73-.81,.63-1.25,.63-2.12-.21-1.59-.64-2.13-.99-.81-1.69-.81Z"/><path class="cls-4" d="M1033.2,265.69l.93,.63c-.54,.74-.83,1.55-.84,2.41v1.2h-1.62v-1.02c0-.6,.14-1.19,.43-1.78s.65-1.07,1.1-1.44Zm2.77,0l.93,.63c-.54,.74-.83,1.55-.84,2.41v1.2h-1.62v-1.02c0-.6,.14-1.19,.43-1.78s.65-1.07,1.1-1.44Z"/></g><g><path class="cls-4" d="M1004.36,294.49l.93,.63c-.54,.74-.83,1.55-.84,2.41v1.2h-1.62v-1.02c0-.6,.14-1.19,.43-1.78s.65-1.07,1.1-1.44Zm2.77,0l.93,.63c-.54,.74-.83,1.55-.84,2.41v1.2h-1.62v-1.02c0-.6,.14-1.19,.43-1.78s.65-1.07,1.1-1.44Z"/><path class="cls-4" d="M1019.54,302.17c0,1.24-.2,2.3-.59,3.19s-.94,1.59-1.65,2.1l2.29,1.79-1.15,1.06-2.7-2.14c-.42,.11-.87,.16-1.34,.16-1.01,0-1.9-.25-2.68-.74s-1.38-1.2-1.82-2.12-.65-1.98-.66-3.19v-.92c0-1.23,.21-2.32,.64-3.26s1.03-1.67,1.81-2.17,1.68-.75,2.69-.75,1.94,.25,2.72,.75,1.38,1.21,1.81,2.15,.63,2.03,.63,3.27v.82Zm-1.69-.83c0-1.51-.3-2.67-.9-3.49s-1.46-1.23-2.57-1.23-1.9,.41-2.51,1.22-.93,1.94-.94,3.38v.94c0,1.46,.31,2.62,.92,3.46s1.46,1.27,2.55,1.27,1.93-.4,2.53-1.19,.91-1.93,.92-3.41v-.95Z"/><path class="cls-4" d="M1029.98,296.28l-5.3,11.88h-1.71l5.28-11.46h-6.93v-1.34h8.65v.91Z"/><path class="cls-4" d="M1033.2,294.49l.93,.63c-.54,.74-.83,1.55-.84,2.41v1.2h-1.62v-1.02c0-.6,.14-1.19,.43-1.78s.65-1.07,1.1-1.44Zm2.77,0l.93,.63c-.54,.74-.83,1.55-.84,2.41v1.2h-1.62v-1.02c0-.6,.14-1.19,.43-1.78s.65-1.07,1.1-1.44Z"/></g><g><path class="cls-4" d="M1004.36,323.29l.93,.63c-.54,.74-.83,1.55-.84,2.41v1.2h-1.62v-1.02c0-.6,.14-1.19,.43-1.78,.28-.59,.65-1.07,1.1-1.44Zm2.77,0l.93,.63c-.54,.74-.83,1.55-.84,2.41v1.2h-1.62v-1.02c0-.6,.14-1.19,.43-1.78,.29-.59,.65-1.07,1.1-1.44Z"/><path class="cls-4" d="M1019.54,330.97c0,1.24-.2,2.3-.59,3.2s-.94,1.59-1.65,2.1l2.29,1.79-1.15,1.06-2.7-2.14c-.42,.11-.87,.16-1.34,.16-1.01,0-1.9-.25-2.68-.74s-1.38-1.2-1.81-2.12c-.43-.92-.65-1.98-.66-3.19v-.92c0-1.23,.21-2.32,.64-3.26s1.03-1.67,1.82-2.17c.78-.5,1.68-.75,2.68-.75s1.94,.25,2.72,.75c.78,.5,1.38,1.21,1.81,2.15s.63,2.03,.63,3.27v.82Zm-1.69-.83c0-1.51-.3-2.67-.9-3.48-.6-.82-1.46-1.23-2.57-1.23s-1.9,.41-2.51,1.22c-.61,.81-.93,1.94-.95,3.38v.94c0,1.46,.31,2.62,.92,3.46,.61,.84,1.46,1.27,2.55,1.27s1.93-.4,2.53-1.19,.91-1.93,.92-3.42v-.95Z"/><path class="cls-4" d="M1029.48,327.5c0,.64-.17,1.21-.5,1.71-.34,.5-.79,.89-1.37,1.17,.67,.29,1.2,.71,1.59,1.26,.39,.55,.58,1.17,.58,1.87,0,1.11-.37,1.99-1.12,2.65-.75,.66-1.73,.98-2.95,.98s-2.22-.33-2.96-.99c-.74-.66-1.11-1.54-1.11-2.64,0-.69,.19-1.32,.57-1.87,.38-.56,.9-.98,1.57-1.27-.57-.28-1.02-.67-1.34-1.17s-.49-1.06-.49-1.7c0-1.08,.35-1.93,1.04-2.57s1.6-.95,2.73-.95,2.04,.32,2.73,.95c.7,.63,1.04,1.49,1.04,2.57Zm-1.33,5.97c0-.71-.23-1.3-.68-1.75-.45-.45-1.05-.68-1.78-.68s-1.32,.22-1.76,.67c-.44,.45-.66,1.03-.66,1.76s.21,1.3,.65,1.71c.43,.42,1.03,.62,1.8,.62s1.36-.21,1.79-.63,.65-.99,.65-1.71Zm-2.44-8.15c-.64,0-1.16,.2-1.55,.59-.4,.4-.59,.93-.59,1.61s.2,1.18,.58,1.58c.39,.4,.91,.6,1.56,.6s1.17-.2,1.56-.6c.39-.4,.58-.93,.58-1.58s-.2-1.18-.61-1.59-.92-.62-1.54-.62Z"/><path class="cls-4" d="M1033.2,323.29l.93,.63c-.54,.74-.83,1.55-.84,2.41v1.2h-1.62v-1.02c0-.6,.14-1.19,.43-1.78,.28-.59,.65-1.07,1.1-1.44Zm2.77,0l.93,.63c-.54,.74-.83,1.55-.84,2.41v1.2h-1.62v-1.02c0-.6,.14-1.19,.43-1.78,.29-.59,.65-1.07,1.1-1.44Z"/></g><g><path class="cls-4" d="M680.3,91.26h-1.63v-10.84l-3.28,1.2v-1.48l4.66-1.75h.25v12.86Z"/><path class="cls-4" d="M691.44,78.45v1.38h-.3c-1.27,.02-2.27,.4-3.02,1.12s-1.18,1.75-1.3,3.07c.67-.77,1.59-1.16,2.76-1.16s2,.39,2.67,1.18,1,1.8,1,3.04c0,1.32-.36,2.37-1.08,3.16s-1.68,1.19-2.89,1.19-2.22-.47-2.98-1.41-1.14-2.15-1.14-3.63v-.62c0-2.36,.5-4.16,1.51-5.4s2.5-1.88,4.49-1.91h.29Zm-2.14,5.77c-.56,0-1.07,.17-1.54,.5s-.79,.75-.98,1.26v.6c0,1.05,.24,1.9,.71,2.55s1.07,.97,1.78,.97,1.31-.27,1.73-.81,.63-1.25,.63-2.12-.21-1.59-.64-2.13-.99-.81-1.69-.81Z"/></g><path class="cls-4" d="M691.37,508.04c0,.64-.17,1.21-.51,1.71s-.79,.89-1.37,1.17c.67,.29,1.2,.71,1.59,1.26s.58,1.17,.58,1.87c0,1.11-.37,1.99-1.12,2.65s-1.73,.98-2.95,.98-2.22-.33-2.96-.99-1.11-1.54-1.11-2.64c0-.69,.19-1.32,.57-1.87s.9-.98,1.57-1.27c-.57-.28-1.02-.67-1.34-1.17s-.49-1.06-.49-1.7c0-1.08,.35-1.93,1.04-2.57s1.6-.95,2.73-.95,2.03,.32,2.73,.95,1.04,1.49,1.04,2.57Zm-1.33,5.97c0-.71-.23-1.3-.68-1.75s-1.05-.68-1.78-.68-1.32,.22-1.76,.67-.66,1.03-.66,1.76,.21,1.3,.65,1.71,1.03,.62,1.8,.62,1.36-.21,1.79-.63,.65-.99,.65-1.71Zm-2.44-8.15c-.64,0-1.16,.2-1.55,.59s-.59,.93-.59,1.61,.19,1.18,.58,1.58,.91,.6,1.56,.6,1.17-.2,1.56-.6,.58-.93,.58-1.58-.2-1.18-.61-1.59-.92-.62-1.54-.62Z"/><g><path class="cls-4" d="M794.06,354.24h-1.63v-10.84l-3.28,1.2v-1.48l4.66-1.75h.25v12.86Z"/><path class="cls-4" d="M807.21,354.24h-8.38v-1.17l4.43-4.92c.66-.74,1.11-1.35,1.36-1.82s.37-.95,.37-1.45c0-.67-.2-1.22-.61-1.64s-.94-.64-1.62-.64c-.81,0-1.44,.23-1.88,.69s-.67,1.1-.67,1.92h-1.63c0-1.18,.38-2.13,1.14-2.86s1.77-1.09,3.04-1.09c1.19,0,2.13,.31,2.82,.94s1.04,1.46,1.04,2.49c0,1.26-.8,2.76-2.41,4.5l-3.43,3.72h6.42v1.33Z"/></g><g><path class="cls-4" d="M794.06,383.04h-1.63v-10.84l-3.28,1.2v-1.48l4.66-1.75h.25v12.86Z"/><path class="cls-4" d="M805.69,378.74h1.78v1.33h-1.78v2.97h-1.63v-2.97h-5.83v-.96l5.73-8.87h1.73v8.5Zm-5.62,0h3.98v-6.28l-.19,.35-3.79,5.92Z"/></g><g><path class="cls-4" d="M794.06,411.84h-1.63v-10.84l-3.28,1.2v-1.48l4.66-1.75h.25v12.86Z"/><path class="cls-4" d="M799.57,405.42l.65-6.38h6.56v1.5h-5.18l-.39,3.49c.63-.37,1.34-.55,2.14-.55,1.17,0,2.09,.38,2.78,1.16s1.03,1.81,1.03,3.12-.36,2.36-1.07,3.12-1.71,1.14-2.98,1.14c-1.13,0-2.05-.31-2.77-.94s-1.12-1.49-1.22-2.6h1.54c.1,.73,.36,1.28,.78,1.66s.98,.56,1.67,.56c.76,0,1.35-.26,1.78-.77s.65-1.23,.65-2.14c0-.86-.23-1.54-.7-2.06s-1.08-.78-1.86-.78c-.71,0-1.27,.16-1.67,.47l-.43,.35-1.3-.33Z"/></g><g><path class="cls-4" d="M1004.36,352.09l.93,.63c-.54,.74-.83,1.55-.84,2.41v1.2h-1.62v-1.02c0-.6,.14-1.19,.43-1.78s.65-1.07,1.1-1.44Zm2.77,0l.93,.63c-.54,.74-.83,1.55-.84,2.41v1.2h-1.62v-1.02c0-.6,.14-1.19,.43-1.78s.65-1.07,1.1-1.44Z"/><path class="cls-4" d="M1019.54,359.77c0,1.24-.2,2.3-.59,3.19s-.94,1.59-1.65,2.1l2.29,1.79-1.15,1.06-2.7-2.14c-.42,.11-.87,.16-1.34,.16-1.01,0-1.9-.25-2.68-.74s-1.38-1.2-1.81-2.12-.65-1.98-.66-3.19v-.92c0-1.23,.21-2.32,.64-3.26s1.03-1.67,1.82-2.17,1.68-.75,2.68-.75,1.94,.25,2.72,.75,1.38,1.21,1.81,2.15,.63,2.03,.63,3.27v.82Zm-1.69-.83c0-1.51-.3-2.67-.9-3.49s-1.46-1.23-2.57-1.23-1.9,.41-2.51,1.22-.93,1.94-.95,3.38v.94c0,1.46,.31,2.62,.92,3.46s1.46,1.27,2.55,1.27,1.93-.4,2.53-1.19,.91-1.93,.92-3.41v-.95Z"/><path class="cls-4" d="M1027.95,360.14c-.34,.4-.75,.73-1.22,.98s-.99,.37-1.55,.37c-.74,0-1.38-.18-1.93-.54s-.97-.88-1.27-1.53-.45-1.39-.45-2.18c0-.86,.16-1.63,.49-2.31s.79-1.21,1.38-1.57,1.29-.54,2.09-.54c1.27,0,2.26,.47,2.99,1.42s1.09,2.24,1.09,3.87v.47c0,2.49-.49,4.31-1.48,5.45s-2.47,1.73-4.46,1.76h-.32v-1.38h.34c1.34-.02,2.37-.37,3.09-1.05,.72-.68,1.11-1.74,1.18-3.21Zm-2.5,0c.54,0,1.05-.17,1.51-.5s.79-.75,1.01-1.24v-.65c0-1.07-.23-1.93-.69-2.6s-1.05-1-1.76-1-1.29,.27-1.72,.82-.65,1.27-.65,2.17,.21,1.59,.63,2.16,.98,.85,1.68,.85Z"/><path class="cls-4" d="M1033.2,352.09l.93,.63c-.54,.74-.83,1.55-.84,2.41v1.2h-1.62v-1.02c0-.6,.14-1.19,.43-1.78s.65-1.07,1.1-1.44Zm2.77,0l.93,.63c-.54,.74-.83,1.55-.84,2.41v1.2h-1.62v-1.02c0-.6,.14-1.19,.43-1.78s.65-1.07,1.1-1.44Z"/></g><g><path class="cls-4" d="M999.3,380.89l.93,.63c-.54,.74-.83,1.55-.84,2.41v1.2h-1.62v-1.02c0-.6,.14-1.19,.43-1.78s.65-1.07,1.1-1.44Zm2.77,0l.93,.63c-.54,.74-.83,1.55-.84,2.41v1.2h-1.62v-1.02c0-.6,.14-1.19,.43-1.78s.65-1.07,1.1-1.44Z"/><path class="cls-4" d="M1014.48,388.57c0,1.24-.2,2.3-.59,3.2s-.94,1.59-1.65,2.1l2.29,1.79-1.15,1.06-2.7-2.14c-.42,.11-.87,.16-1.34,.16-1.01,0-1.9-.25-2.68-.74s-1.38-1.2-1.81-2.12-.65-1.98-.66-3.19v-.92c0-1.23,.21-2.32,.64-3.26s1.03-1.67,1.82-2.17,1.68-.75,2.68-.75,1.94,.25,2.72,.75,1.38,1.21,1.81,2.15,.63,2.03,.63,3.27v.82Zm-1.69-.83c0-1.51-.3-2.67-.9-3.48s-1.46-1.23-2.57-1.23-1.9,.41-2.51,1.22-.93,1.94-.95,3.38v.94c0,1.46,.31,2.62,.92,3.46s1.46,1.27,2.55,1.27,1.93-.4,2.53-1.19,.91-1.93,.92-3.42v-.95Z"/><path class="cls-4" d="M1022.01,394.56h-1.63v-10.84l-3.28,1.2v-1.48l4.66-1.75h.25v12.86Z"/><path class="cls-4" d="M1034.79,389.1c0,1.9-.33,3.32-.98,4.25s-1.67,1.39-3.05,1.39-2.38-.45-3.03-1.36-1-2.26-1.02-4.06v-2.17c0-1.88,.33-3.28,.98-4.19s1.67-1.37,3.06-1.37,2.39,.44,3.04,1.32,.98,2.24,1,4.08v2.11Zm-1.63-2.22c0-1.38-.19-2.38-.58-3.01s-1-.95-1.84-.95-1.44,.31-1.82,.94-.58,1.59-.59,2.89v2.6c0,1.38,.2,2.4,.6,3.06s1.01,.99,1.82,.99,1.4-.31,1.79-.93,.59-1.6,.61-2.94v-2.66Z"/><path class="cls-4" d="M1038.26,380.89l.93,.63c-.54,.74-.83,1.55-.84,2.41v1.2h-1.62v-1.02c0-.6,.14-1.19,.43-1.78s.65-1.07,1.1-1.44Zm2.77,0l.93,.63c-.54,.74-.83,1.55-.84,2.41v1.2h-1.62v-1.02c0-.6,.14-1.19,.43-1.78s.65-1.07,1.1-1.44Z"/></g><g><path class="cls-4" d="M999.31,409.69l.93,.63c-.54,.74-.83,1.55-.84,2.41v1.2h-1.62v-1.02c0-.6,.14-1.19,.43-1.78s.65-1.07,1.1-1.44Zm2.77,0l.93,.63c-.54,.74-.83,1.55-.84,2.41v1.2h-1.62v-1.02c0-.6,.14-1.19,.43-1.78s.65-1.07,1.1-1.44Z"/><path class="cls-4" d="M1014.48,417.37c0,1.24-.2,2.3-.59,3.19s-.94,1.59-1.65,2.1l2.29,1.79-1.15,1.06-2.7-2.14c-.42,.11-.87,.16-1.34,.16-1.01,0-1.9-.25-2.68-.74s-1.38-1.2-1.82-2.12-.65-1.98-.66-3.19v-.92c0-1.23,.21-2.32,.64-3.26s1.03-1.67,1.81-2.17,1.68-.75,2.69-.75,1.94,.25,2.72,.75,1.38,1.21,1.81,2.15,.63,2.03,.63,3.27v.82Zm-1.69-.83c0-1.51-.3-2.67-.9-3.49s-1.46-1.23-2.57-1.23-1.9,.41-2.51,1.22-.93,1.94-.94,3.38v.94c0,1.46,.31,2.62,.92,3.46s1.46,1.27,2.55,1.27,1.93-.4,2.53-1.19,.91-1.93,.92-3.41v-.95Z"/><path class="cls-4" d="M1022.01,423.36h-1.63v-10.84l-3.28,1.2v-1.48l4.66-1.75h.25v12.86Z"/><path class="cls-4" d="M1032.11,423.36h-1.63v-10.84l-3.28,1.2v-1.48l4.66-1.75h.25v12.86Z"/><path class="cls-4" d="M1038.26,409.69l.93,.63c-.54,.74-.83,1.55-.84,2.41v1.2h-1.62v-1.02c0-.6,.14-1.19,.43-1.78s.65-1.07,1.1-1.44Zm2.77,0l.93,.63c-.54,.74-.83,1.55-.84,2.41v1.2h-1.62v-1.02c0-.6,.14-1.19,.43-1.78s.65-1.07,1.1-1.44Z"/></g><path class="cls-4" d="M799.11,440.64h-1.63v-10.84l-3.28,1.2v-1.48l4.66-1.75h.25v12.86Z"/><g><path class="cls-4" d="M999.31,438.49l.93,.63c-.54,.74-.83,1.55-.84,2.41v1.2h-1.62v-1.02c0-.6,.14-1.19,.43-1.78s.65-1.07,1.1-1.44Zm2.77,0l.93,.63c-.54,.74-.83,1.55-.84,2.41v1.2h-1.62v-1.02c0-.6,.14-1.19,.43-1.78s.65-1.07,1.1-1.44Z"/><path class="cls-4" d="M1014.48,446.17c0,1.24-.2,2.3-.59,3.2s-.94,1.59-1.65,2.1l2.29,1.79-1.15,1.06-2.7-2.14c-.42,.11-.87,.16-1.34,.16-1.01,0-1.9-.25-2.68-.74s-1.38-1.2-1.82-2.12-.65-1.98-.66-3.19v-.92c0-1.23,.21-2.32,.64-3.26s1.03-1.67,1.81-2.17,1.68-.75,2.69-.75,1.94,.25,2.72,.75,1.38,1.21,1.81,2.15,.63,2.03,.63,3.27v.82Zm-1.69-.83c0-1.51-.3-2.67-.9-3.48s-1.46-1.23-2.57-1.23-1.9,.41-2.51,1.22-.93,1.94-.94,3.38v.94c0,1.46,.31,2.62,.92,3.46s1.46,1.27,2.55,1.27,1.93-.4,2.53-1.19,.91-1.93,.92-3.42v-.95Z"/><path class="cls-4" d="M1022.01,452.16h-1.63v-10.84l-3.28,1.2v-1.48l4.66-1.75h.25v12.86Z"/><path class="cls-4" d="M1035.16,452.16h-8.38v-1.17l4.43-4.92c.66-.74,1.11-1.35,1.36-1.81s.37-.95,.37-1.45c0-.67-.2-1.22-.61-1.64s-.94-.64-1.62-.64c-.81,0-1.44,.23-1.89,.69s-.67,1.1-.67,1.92h-1.63c0-1.18,.38-2.13,1.14-2.86s1.77-1.09,3.05-1.09c1.19,0,2.13,.31,2.82,.94s1.04,1.45,1.04,2.49c0,1.26-.8,2.76-2.41,4.5l-3.43,3.72h6.42v1.33Z"/><path class="cls-4" d="M1038.26,438.49l.93,.63c-.54,.74-.83,1.55-.84,2.41v1.2h-1.62v-1.02c0-.6,.14-1.19,.43-1.78s.65-1.07,1.1-1.44Zm2.77,0l.93,.63c-.54,.74-.83,1.55-.84,2.41v1.2h-1.62v-1.02c0-.6,.14-1.19,.43-1.78s.65-1.07,1.1-1.44Z"/></g></g><g id="Linie"><line class="cls-1" x1="97.92" y1="43.2" x2="198.72" y2="43.2"/><line class="cls-1" x1="227.52" y1="43.2" x2="328.32" y2="43.2"/><path class="cls-1" d="M227.52,43.2c0,7.95-6.45,14.4-14.4,14.4s-14.4-6.45-14.4-14.4"/><rect class="cls-3" x="69.12" y="72" width="28.8" height="28.8"/><rect class="cls-3" x="69.12" y="129.6" width="28.8" height="28.8"/><rect class="cls-3" x="69.12" y="187.2" width="28.8" height="28.8"/><line class="cls-1" x1="97.92" y1="43.2" x2="97.92" y2="534.24"/><line class="cls-1" x1="97.92" y1="532.8" x2="328.32" y2="532.8"/><line class="cls-1" x1="328.32" y1="43.2" x2="328.32" y2="532.8"/><rect class="cls-3" x="69.12" y="244.8" width="28.8" height="28.8"/><rect class="cls-3" x="69.12" y="302.4" width="28.8" height="28.8"/><rect class="cls-3" x="69.12" y="360" width="28.8" height="28.8"/><rect class="cls-3" x="69.12" y="417.6" width="28.8" height="28.8"/><rect class="cls-3" x="328.32" y="187.2" width="28.8" height="28.8"/><rect class="cls-3" x="328.32" y="244.8" width="28.8" height="28.8"/><rect class="cls-3" x="328.32" y="302.4" width="28.8" height="28.8"/><rect class="cls-3" x="328.32" y="360" width="28.8" height="28.8"/><rect class="cls-3" x="328.32" y="417.6" width="28.8" height="28.8"/><rect class="cls-3" x="328.32" y="475.2" width="28.8" height="28.8"/><rect class="cls-3" x="69.12" y="475.2" width="28.8" height="28.8"/><rect class="cls-3" x="328.32" y="72" width="28.8" height="28.8"/><rect class="cls-3" x="328.32" y="129.6" width="28.8" height="28.8"/><rect class="cls-2" x="610.56" y="95.04" width="172.8" height="403.2"/><g><line class="cls-2" x1="783.36" y1="129.6" x2="988.55" y2="129.6"/><polygon class="cls-4" points="981.92 137.78 980.56 136.31 987.78 129.6 980.56 122.89 981.92 121.42 990.72 129.6 981.92 137.78"/></g><g><line class="cls-2" x1="783.36" y1="158.4" x2="988.55" y2="158.4"/><polygon class="cls-4" points="981.92 166.58 980.56 165.11 987.78 158.4 980.56 151.69 981.92 150.22 990.72 158.4 981.92 166.58"/></g><g><line class="cls-2" x1="783.36" y1="187.2" x2="988.55" y2="187.2"/><polygon class="cls-4" points="981.92 195.38 980.56 193.91 987.78 187.2 980.56 180.49 981.92 179.02 990.72 187.2 981.92 195.38"/></g><g><line class="cls-2" x1="783.36" y1="216" x2="988.55" y2="216"/><polygon class="cls-4" points="981.92 224.18 980.56 222.71 987.78 216 980.56 209.29 981.92 207.82 990.72 216 981.92 224.18"/></g><g><line class="cls-2" x1="783.36" y1="244.8" x2="988.55" y2="244.8"/><polygon class="cls-4" points="981.92 252.98 980.56 251.52 987.78 244.8 980.56 238.09 981.92 236.62 990.72 244.8 981.92 252.98"/></g><g><line class="cls-2" x1="783.36" y1="273.6" x2="988.55" y2="273.6"/><polygon class="cls-4" points="981.92 281.78 980.56 280.31 987.78 273.6 980.56 266.89 981.92 265.42 990.72 273.6 981.92 281.78"/></g><g><line class="cls-2" x1="783.36" y1="302.4" x2="988.55" y2="302.4"/><polygon class="cls-4" points="981.92 310.58 980.56 309.11 987.78 302.4 980.56 295.69 981.92 294.22 990.72 302.4 981.92 310.58"/></g><g><line class="cls-2" x1="783.36" y1="331.2" x2="988.55" y2="331.2"/><polygon class="cls-4" points="981.92 339.38 980.56 337.91 987.78 331.2 980.56 324.49 981.92 323.02 990.72 331.2 981.92 339.38"/></g><g><line class="cls-2" x1="462.24" y1="123.84" x2="608.39" y2="123.84"/><polygon class="cls-4" points="601.76 132.02 600.4 130.55 607.62 123.84 600.4 117.13 601.76 115.66 610.56 123.84 601.76 132.02"/></g><g><line class="cls-2" x1="462.24" y1="446.4" x2="608.39" y2="446.4"/><polygon class="cls-4" points="601.76 454.58 600.4 453.11 607.62 446.4 600.4 439.69 601.76 438.22 610.56 446.4 601.76 454.58"/></g><g><line class="cls-2" x1="696.96" y1="95.04" x2="696.96" y2="54.56"/><polygon class="cls-4" points="706.5 72.29 703.68 73.32 696.96 54.85 690.24 73.32 687.42 72.29 696.96 46.08 706.5 72.29"/></g><line class="cls-2" x1="696.96" y1="498.24" x2="696.96" y2="541.44"/><polygon class="cls-2" points="682.56 541.44 711.36 541.44 696.96 558.72 682.56 541.44"/><g><line class="cls-2" x1="783.36" y1="360" x2="988.55" y2="360"/><polygon class="cls-4" points="981.92 368.18 980.56 366.72 987.78 360 980.56 353.29 981.92 351.82 990.72 360 981.92 368.18"/></g><g><line class="cls-2" x1="783.36" y1="388.8" x2="988.55" y2="388.8"/><polygon class="cls-4" points="981.92 396.98 980.56 395.51 987.78 388.8 980.56 382.09 981.92 380.62 990.72 388.8 981.92 396.98"/></g><g><line class="cls-2" x1="783.36" y1="417.6" x2="988.55" y2="417.6"/><polygon class="cls-4" points="981.92 425.78 980.56 424.31 987.78 417.6 980.56 410.89 981.92 409.42 990.72 417.6 981.92 425.78"/></g><g><line class="cls-2" x1="783.36" y1="446.4" x2="988.55" y2="446.4"/><polygon class="cls-4" points="981.92 454.58 980.56 453.11 987.78 446.4 980.56 439.69 981.92 438.22 990.72 446.4 981.92 454.58"/></g></g></svg>