<?xml version="1.0" encoding="utf-8"?>
<!-- Generator: Adobe Illustrator 27.4.1, SVG Export Plug-In . SVG Version: 6.00 Build 0)  -->
<svg version="1.1" id="Signal_Flow" xmlns="http://www.w3.org/2000/svg" xmlns:xlink="http://www.w3.org/1999/xlink" x="0px"
	 y="0px" viewBox="0 0 1079 599.3" style="enable-background:new 0 0 1079 599.3;" xml:space="preserve">
<style type="text/css">
	.st0{fill:none;stroke:#0D1117;stroke-width:2.83;stroke-miterlimit:10;}
	.st1{enable-background:new    ;}
	.st2{fill:#0D1117;}
	.st3{fill:none;stroke:#0D1117;stroke-width:0.85;stroke-miterlimit:10;}
	.st4{fill:none;stroke:#0D1117;stroke-width:0.85;stroke-miterlimit:10;stroke-dasharray:0,0,11.62,11.62;}
	.st5{fill:none;stroke:#0D1117;stroke-width:1.42;stroke-miterlimit:10;}
</style>
<rect x="100.9" y="271" class="st0" width="216" height="216"/>
<g class="st1">
	<path class="st2" d="M255.4,158.9c-0.2,1.4-0.7,2.4-1.5,3.1c-0.8,0.7-2,1.1-3.4,1.1c-1.5,0-2.7-0.5-3.6-1.6s-1.4-2.5-1.4-4.4v-1.2
		c0-1.2,0.2-2.2,0.6-3.1s1-1.6,1.8-2.1c0.8-0.5,1.7-0.7,2.7-0.7c1.4,0,2.4,0.4,3.3,1.1s1.3,1.8,1.4,3.2h-1.7c-0.1-1-0.5-1.8-1-2.2
		c-0.5-0.5-1.2-0.7-2.1-0.7c-1.1,0-1.9,0.4-2.5,1.2s-0.9,1.9-0.9,3.4v1.2c0,1.4,0.3,2.5,0.9,3.3s1.4,1.2,2.4,1.2
		c0.9,0,1.7-0.2,2.2-0.6c0.5-0.4,0.8-1.2,1-2.2H255.4z"/>
	<path class="st2" d="M257.1,158.1c0-0.9,0.2-1.8,0.5-2.5s0.9-1.3,1.5-1.7s1.4-0.6,2.2-0.6c1.3,0,2.3,0.4,3.1,1.3s1.2,2.1,1.2,3.6
		v0.1c0,0.9-0.2,1.8-0.5,2.5c-0.4,0.7-0.9,1.3-1.5,1.7s-1.4,0.6-2.3,0.6c-1.3,0-2.3-0.4-3.1-1.3s-1.2-2.1-1.2-3.6V158.1z
		 M258.7,158.3c0,1.1,0.2,1.9,0.7,2.5s1.1,1,2,1c0.8,0,1.5-0.3,2-1c0.5-0.6,0.7-1.6,0.7-2.7c0-1-0.2-1.9-0.7-2.5c-0.5-0.6-1.2-1-2-1
		c-0.8,0-1.5,0.3-1.9,1S258.7,157.1,258.7,158.3z"/>
	<path class="st2" d="M269.3,153.5l0.1,1.2c0.7-0.9,1.7-1.4,2.8-1.4c2,0,3,1.1,3,3.4v6.3h-1.6v-6.3c0-0.7-0.2-1.2-0.5-1.5
		s-0.8-0.5-1.4-0.5c-0.5,0-1,0.1-1.4,0.4s-0.7,0.7-0.9,1.1v6.8h-1.6v-9.5H269.3z"/>
	<path class="st2" d="M279.9,151.2v2.3h1.8v1.3h-1.8v5.9c0,0.4,0.1,0.7,0.2,0.9s0.4,0.3,0.8,0.3c0.2,0,0.4,0,0.8-0.1v1.3
		c-0.4,0.1-0.8,0.2-1.2,0.2c-0.7,0-1.3-0.2-1.6-0.7s-0.6-1.1-0.6-1.9v-5.9h-1.7v-1.3h1.7v-2.3H279.9z"/>
</g>
<g class="st1">
	<path class="st2" d="M288.2,154.9c-0.2,0-0.5-0.1-0.8-0.1c-1.1,0-1.8,0.5-2.2,1.4v6.8h-1.6v-9.5h1.6l0,1.1c0.5-0.8,1.3-1.3,2.3-1.3
		c0.3,0,0.6,0,0.7,0.1V154.9z"/>
</g>
<g class="st1">
	<path class="st2" d="M289,158.1c0-0.9,0.2-1.8,0.5-2.5s0.9-1.3,1.5-1.7s1.4-0.6,2.2-0.6c1.3,0,2.3,0.4,3.1,1.3s1.2,2.1,1.2,3.6v0.1
		c0,0.9-0.2,1.8-0.5,2.5c-0.4,0.7-0.9,1.3-1.5,1.7s-1.4,0.6-2.3,0.6c-1.3,0-2.3-0.4-3.1-1.3s-1.2-2.1-1.2-3.6V158.1z M290.7,158.3
		c0,1.1,0.2,1.9,0.7,2.5s1.1,1,2,1c0.8,0,1.5-0.3,2-1c0.5-0.6,0.7-1.6,0.7-2.7c0-1-0.2-1.9-0.7-2.5c-0.5-0.6-1.2-1-2-1
		c-0.8,0-1.5,0.3-1.9,1S290.7,157.1,290.7,158.3z"/>
	<path class="st2" d="M301.5,163h-1.6v-13.5h1.6V163z"/>
	<path class="st2" d="M310.6,163h-1.7v-12.8h1.7V163z"/>
	<path class="st2" d="M315,153.5l0.1,1.2c0.7-0.9,1.7-1.4,2.8-1.4c2,0,3,1.1,3,3.4v6.3h-1.6v-6.3c0-0.7-0.2-1.2-0.5-1.5
		s-0.8-0.5-1.4-0.5c-0.5,0-1,0.1-1.4,0.4s-0.7,0.7-0.9,1.1v6.8h-1.6v-9.5H315z"/>
	<path class="st2" d="M331.4,158.3c0,1.4-0.3,2.6-1,3.5s-1.6,1.3-2.7,1.3c-1.2,0-2.1-0.4-2.7-1.1v4.6h-1.6v-13.2h1.5l0.1,1.1
		c0.7-0.8,1.6-1.2,2.8-1.2c1.1,0,2,0.4,2.7,1.3s1,2.1,1,3.6V158.3z M329.8,158.1c0-1.1-0.2-1.9-0.7-2.5s-1.1-0.9-1.9-0.9
		c-1,0-1.7,0.4-2.2,1.3v4.5c0.5,0.9,1.2,1.3,2.2,1.3c0.8,0,1.4-0.3,1.9-0.9S329.8,159.4,329.8,158.1z"/>
	<path class="st2" d="M339.4,162c-0.6,0.7-1.6,1.1-2.8,1.1c-1,0-1.8-0.3-2.3-0.9c-0.5-0.6-0.8-1.5-0.8-2.6v-6.2h1.6v6.1
		c0,1.4,0.6,2.2,1.8,2.2c1.2,0,2.1-0.5,2.5-1.4v-6.9h1.6v9.5h-1.5L339.4,162z"/>
	<path class="st2" d="M345.6,151.2v2.3h1.8v1.3h-1.8v5.9c0,0.4,0.1,0.7,0.2,0.9s0.4,0.3,0.8,0.3c0.2,0,0.4,0,0.8-0.1v1.3
		c-0.4,0.1-0.8,0.2-1.2,0.2c-0.7,0-1.3-0.2-1.6-0.7s-0.6-1.1-0.6-1.9v-5.9h-1.7v-1.3h1.7v-2.3H345.6z"/>
	<path class="st2" d="M349.6,164.1h-1.4l5.3-13.9h1.4L349.6,164.1z"/>
	<path class="st2" d="M366.4,161.3c-0.4,0.6-1,1.1-1.8,1.4c-0.8,0.3-1.7,0.5-2.7,0.5c-1,0-2-0.2-2.8-0.7c-0.8-0.5-1.4-1.2-1.9-2.1
		s-0.7-1.9-0.7-3.1v-1.1c0-1.9,0.4-3.4,1.3-4.5s2.2-1.6,3.8-1.6c1.3,0,2.4,0.3,3.2,1c0.8,0.7,1.3,1.7,1.5,2.9h-1.7
		c-0.3-1.7-1.3-2.5-3-2.5c-1.1,0-2,0.4-2.6,1.2c-0.6,0.8-0.9,1.9-0.9,3.5v1c0,1.4,0.3,2.6,1,3.4c0.7,0.8,1.5,1.3,2.7,1.3
		c0.6,0,1.2-0.1,1.7-0.2c0.5-0.1,0.9-0.4,1.2-0.7V158h-3v-1.4h4.6V161.3z"/>
	<path class="st2" d="M374.8,163c-0.1-0.2-0.2-0.5-0.2-1c-0.8,0.8-1.7,1.2-2.7,1.2c-0.9,0-1.7-0.3-2.3-0.8s-0.9-1.2-0.9-2
		c0-1,0.4-1.8,1.1-2.3s1.8-0.8,3.2-0.8h1.6v-0.7c0-0.6-0.2-1-0.5-1.4c-0.3-0.3-0.8-0.5-1.5-0.5c-0.6,0-1.1,0.1-1.5,0.4
		s-0.6,0.6-0.6,1.1h-1.6c0-0.5,0.2-0.9,0.5-1.4s0.8-0.8,1.4-1.1s1.2-0.4,1.9-0.4c1.1,0,2,0.3,2.6,0.8s0.9,1.3,1,2.3v4.4
		c0,0.9,0.1,1.6,0.3,2.1v0.1H374.8z M372.2,161.7c0.5,0,1-0.1,1.5-0.4s0.8-0.6,1-1v-2h-1.3c-2,0-3,0.6-3,1.7c0,0.5,0.2,0.9,0.5,1.2
		S371.6,161.7,372.2,161.7z"/>
	<path class="st2" d="M381,151.2v2.3h1.8v1.3H381v5.9c0,0.4,0.1,0.7,0.2,0.9s0.4,0.3,0.8,0.3c0.2,0,0.4,0,0.8-0.1v1.3
		c-0.4,0.1-0.8,0.2-1.2,0.2c-0.7,0-1.3-0.2-1.6-0.7s-0.6-1.1-0.6-1.9v-5.9h-1.7v-1.3h1.7v-2.3H381z"/>
	<path class="st2" d="M388.6,163.1c-1.3,0-2.3-0.4-3.1-1.3s-1.2-2-1.2-3.4v-0.3c0-0.9,0.2-1.8,0.5-2.5s0.9-1.3,1.5-1.7
		s1.3-0.6,2.1-0.6c1.2,0,2.2,0.4,2.9,1.2s1,2,1,3.5v0.7h-6.4c0,0.9,0.3,1.7,0.8,2.3c0.5,0.6,1.2,0.9,2,0.9c0.6,0,1.1-0.1,1.5-0.4
		s0.7-0.5,1-0.9l1,0.8C391.4,162.5,390.2,163.1,388.6,163.1z M388.4,154.6c-0.7,0-1.2,0.2-1.7,0.7s-0.7,1.1-0.8,2h4.8v-0.1
		c0-0.8-0.3-1.5-0.7-1.9S389.1,154.6,388.4,154.6z"/>
</g>
<g>
	<g>
		<path class="st2" d="M154.4,369.4c-0.2,1.4-0.7,2.4-1.5,3.1s-2,1.1-3.4,1.1c-1.5,0-2.7-0.5-3.6-1.6s-1.4-2.5-1.4-4.4v-1.2
			c0-1.2,0.2-2.2,0.6-3.1s1-1.6,1.8-2.1s1.7-0.7,2.7-0.7c1.4,0,2.4,0.4,3.3,1.1s1.3,1.8,1.4,3.1h-1.7c-0.1-1-0.5-1.8-0.9-2.2
			s-1.2-0.7-2.1-0.7c-1.1,0-1.9,0.4-2.5,1.2c-0.6,0.8-0.9,1.9-0.9,3.4v1.2c0,1.4,0.3,2.5,0.9,3.3s1.4,1.2,2.4,1.2
			c0.9,0,1.7-0.2,2.2-0.6s0.8-1.2,1-2.2L154.4,369.4L154.4,369.4z"/>
	</g>
	<g>
		<path class="st2" d="M158.8,360.6l4.2,10.4l4.2-10.4h2.2v12.8h-1.7v-5l0.2-5.4l-4.2,10.4h-1.3l-4.2-10.3l0.2,5.4v5h-1.7v-12.8
			L158.8,360.6L158.8,360.6z"/>
	</g>
	<g>
		<path class="st2" d="M182.2,367.4c0,1.2-0.2,2.4-0.6,3.3s-1,1.6-1.8,2.1s-1.7,0.7-2.7,0.7s-1.9-0.2-2.7-0.7s-1.4-1.2-1.8-2.1
			s-0.6-2-0.7-3.2v-0.9c0-1.2,0.2-2.3,0.6-3.3s1-1.7,1.8-2.2s1.7-0.8,2.7-0.8s1.9,0.2,2.7,0.7s1.4,1.2,1.8,2.1s0.6,2,0.6,3.3
			L182.2,367.4L182.2,367.4z M180.5,366.6c0-1.5-0.3-2.7-0.9-3.5s-1.5-1.2-2.6-1.2s-1.9,0.4-2.5,1.2s-0.9,1.9-0.9,3.4v0.9
			c0,1.5,0.3,2.6,0.9,3.5s1.5,1.3,2.6,1.3s1.9-0.4,2.5-1.2s0.9-1.9,0.9-3.4L180.5,366.6L180.5,366.6z"/>
	</g>
	<g>
		<path class="st2" d="M188.5,367.7c-1.4-0.4-2.5-0.9-3.2-1.5s-1-1.4-1-2.2c0-1,0.4-1.8,1.2-2.5s1.9-1,3.1-1c0.9,0,1.7,0.2,2.4,0.5
			s1.2,0.8,1.6,1.4s0.6,1.2,0.6,2h-1.7c0-0.8-0.2-1.4-0.7-1.8s-1.2-0.7-2.1-0.7c-0.8,0-1.5,0.2-1.9,0.5s-0.7,0.9-0.7,1.5
			c0,0.5,0.2,1,0.7,1.3s1.2,0.7,2.3,1s1.9,0.6,2.5,1s1.1,0.8,1.3,1.3s0.4,1,0.4,1.7c0,1-0.4,1.9-1.2,2.5s-1.9,0.9-3.2,0.9
			c-0.9,0-1.7-0.2-2.5-0.5s-1.4-0.8-1.8-1.4s-0.6-1.2-0.6-2h1.7c0,0.8,0.3,1.4,0.9,1.8s1.3,0.7,2.3,0.7c0.9,0,1.6-0.2,2.1-0.5
			s0.7-0.9,0.7-1.5s-0.2-1.1-0.7-1.5S189.7,368.1,188.5,367.7L188.5,367.7z"/>
	</g>
	<g>
		<path class="st2" d="M209.7,367.4c0,1.2-0.2,2.4-0.6,3.3s-1,1.6-1.8,2.1s-1.7,0.7-2.7,0.7s-1.9-0.2-2.7-0.7s-1.4-1.2-1.8-2.1
			s-0.6-2-0.7-3.2v-0.9c0-1.2,0.2-2.3,0.6-3.3s1-1.7,1.8-2.2s1.7-0.8,2.7-0.8s1.9,0.2,2.7,0.7s1.4,1.2,1.8,2.1s0.6,2,0.6,3.3
			L209.7,367.4L209.7,367.4z M208.1,366.6c0-1.5-0.3-2.7-0.9-3.5s-1.5-1.2-2.6-1.2s-1.9,0.4-2.5,1.2s-0.9,1.9-0.9,3.4v0.9
			c0,1.5,0.3,2.6,0.9,3.5s1.5,1.3,2.6,1.3s1.9-0.4,2.5-1.2s0.9-1.9,0.9-3.4L208.1,366.6L208.1,366.6z"/>
	</g>
	<g>
		<path class="st2" d="M217.5,370.9c0-0.4-0.2-0.8-0.5-1s-0.9-0.5-1.7-0.6s-1.5-0.4-2-0.6s-0.8-0.5-1.1-0.9s-0.4-0.7-0.4-1.2
			c0-0.8,0.3-1.4,1-2s1.5-0.8,2.5-0.8c1.1,0,1.9,0.3,2.6,0.8s1,1.3,1,2.1h-1.6c0-0.5-0.2-0.8-0.6-1.1s-0.9-0.5-1.4-0.5
			s-1.1,0.1-1.4,0.4s-0.5,0.6-0.5,1c0,0.4,0.2,0.7,0.5,0.9s0.9,0.4,1.7,0.6s1.5,0.4,2,0.6s0.9,0.6,1.1,0.9s0.4,0.8,0.4,1.3
			c0,0.9-0.3,1.5-1,2s-1.6,0.8-2.6,0.8c-0.8,0-1.4-0.1-2-0.4s-1-0.6-1.4-1.1s-0.5-1-0.5-1.6h1.6c0,0.5,0.2,1,0.6,1.3
			s0.9,0.5,1.6,0.5c0.6,0,1.1-0.1,1.5-0.4S217.5,371.4,217.5,370.9L217.5,370.9z"/>
	</g>
	<g>
		<path class="st2" d="M225.1,372.3c0.6,0,1.1-0.2,1.5-0.5s0.7-0.8,0.7-1.3h1.5c0,0.5-0.2,1.1-0.6,1.6s-0.8,0.9-1.4,1.2
			s-1.2,0.4-1.8,0.4c-1.3,0-2.3-0.4-3.1-1.3s-1.1-2-1.1-3.5v-0.3c0-0.9,0.2-1.8,0.5-2.5s0.8-1.3,1.5-1.7s1.4-0.6,2.2-0.6
			c1.1,0,1.9,0.3,2.7,1s1.1,1.5,1.1,2.5h-1.5c-0.1-0.6-0.3-1.1-0.7-1.5s-0.9-0.6-1.6-0.6c-0.8,0-1.5,0.3-1.9,0.9s-0.7,1.5-0.7,2.6
			v0.3c0,1.1,0.2,1.9,0.7,2.5S224.3,372.3,225.1,372.3L225.1,372.3z"/>
	</g>
	<g>
		<path class="st2" d="M230.7,361.4c0-0.3,0.1-0.5,0.2-0.7s0.4-0.3,0.7-0.3s0.6,0.1,0.7,0.3s0.2,0.4,0.2,0.7s-0.1,0.5-0.2,0.7
			s-0.4,0.3-0.7,0.3s-0.6-0.1-0.7-0.3S230.7,361.7,230.7,361.4z M232.5,373.4h-1.6v-9.5h1.6V373.4z"/>
	</g>
	<g>
		<path class="st2" d="M236.8,373.4h-1.6v-13.5h1.6V373.4z"/>
	</g>
	<g>
		<path class="st2" d="M241.2,373.4h-1.6v-13.5h1.6V373.4z"/>
	</g>
	<g>
		<path class="st2" d="M249.7,373.4c-0.1-0.2-0.2-0.5-0.2-1c-0.8,0.8-1.7,1.2-2.7,1.2c-0.9,0-1.7-0.3-2.3-0.8s-0.9-1.2-0.9-2
			c0-1,0.4-1.8,1.1-2.3s1.8-0.8,3.2-0.8h1.6v-0.8c0-0.6-0.2-1-0.5-1.4s-0.8-0.5-1.5-0.5c-0.6,0-1.1,0.1-1.5,0.4s-0.6,0.6-0.6,1.1
			h-1.6c0-0.5,0.2-0.9,0.5-1.4s0.8-0.8,1.4-1s1.2-0.4,1.9-0.4c1.1,0,1.9,0.3,2.6,0.8s0.9,1.3,1,2.3v4.4c0,0.9,0.1,1.6,0.3,2.1v0.1
			L249.7,373.4L249.7,373.4z M247,372.2c0.5,0,1-0.1,1.4-0.4s0.8-0.6,1-1v-2h-1.3c-2,0-3,0.6-3,1.8c0,0.5,0.2,0.9,0.5,1.2
			S246.4,372.2,247,372.2L247,372.2z"/>
	</g>
	<g>
		<path class="st2" d="M255.8,361.6v2.3h1.8v1.3h-1.8v5.9c0,0.4,0.1,0.7,0.2,0.9c0.2,0.2,0.4,0.3,0.8,0.3c0.2,0,0.5,0,0.8-0.1v1.3
			c-0.4,0.1-0.8,0.2-1.2,0.2c-0.7,0-1.3-0.2-1.6-0.7s-0.6-1.1-0.6-1.9v-5.9h-1.7v-1.3h1.7v-2.3L255.8,361.6L255.8,361.6z"/>
	</g>
	<g>
		<path class="st2" d="M258.9,368.6c0-0.9,0.2-1.8,0.5-2.5s0.9-1.3,1.5-1.7s1.4-0.6,2.2-0.6c1.3,0,2.3,0.5,3.1,1.3s1.2,2.1,1.2,3.6
			v0.1c0,0.9-0.2,1.8-0.5,2.5s-0.9,1.3-1.5,1.7s-1.4,0.6-2.3,0.6c-1.3,0-2.3-0.5-3.1-1.3s-1.2-2.1-1.2-3.6L258.9,368.6L258.9,368.6z
			 M260.5,368.8c0,1,0.2,1.9,0.7,2.5s1.1,1,2,1s1.5-0.3,2-1s0.7-1.5,0.7-2.7c0-1-0.2-1.9-0.7-2.5s-1.1-1-2-1s-1.5,0.3-1.9,1
			S260.5,367.6,260.5,368.8L260.5,368.8z"/>
	</g>
	<g>
		<path class="st2" d="M274.2,365.4c-0.2,0-0.5-0.1-0.8-0.1c-1.1,0-1.8,0.5-2.2,1.4v6.8h-1.6v-9.5h1.6l0,1.1
			c0.5-0.9,1.3-1.3,2.3-1.3c0.3,0,0.6,0,0.7,0.1L274.2,365.4L274.2,365.4z"/>
	</g>
	<g>
		<path class="st2" d="M187.9,391c-0.2,1.4-0.7,2.4-1.5,3.1s-2,1.1-3.4,1.1c-1.5,0-2.7-0.5-3.6-1.6s-1.4-2.5-1.4-4.4V388
			c0-1.2,0.2-2.2,0.6-3.1s1-1.6,1.8-2.1s1.7-0.7,2.7-0.7c1.4,0,2.4,0.4,3.3,1.1s1.3,1.8,1.4,3.1h-1.7c-0.1-1-0.5-1.8-0.9-2.2
			s-1.2-0.7-2.1-0.7c-1.1,0-1.9,0.4-2.5,1.2c-0.6,0.8-0.9,1.9-0.9,3.4v1.2c0,1.4,0.3,2.5,0.9,3.3s1.4,1.2,2.4,1.2
			c0.9,0,1.7-0.2,2.2-0.6s0.8-1.2,1-2.2L187.9,391L187.9,391z"/>
	</g>
	<g>
		<path class="st2" d="M190.2,395v-12.8h3.6c1.1,0,2.1,0.2,2.9,0.7s1.5,1.2,2,2.1s0.7,2,0.7,3.1v0.8c0,1.2-0.2,2.3-0.7,3.2
			s-1.1,1.6-2,2.1s-1.9,0.7-3,0.8L190.2,395L190.2,395z M191.9,383.6v10h1.8c1.3,0,2.3-0.4,3-1.2s1.1-2,1.1-3.5v-0.8
			c0-1.5-0.3-2.6-1-3.4c-0.7-0.8-1.6-1.2-2.9-1.2H191.9L191.9,383.6z"/>
	</g>
	<g>
		<path class="st2" d="M208.4,390.7h1.8v1.3h-1.8v3h-1.6v-3H201v-1l5.7-8.9h1.7L208.4,390.7L208.4,390.7z M202.8,390.7h4v-6.3
			l-0.2,0.4L202.8,390.7L202.8,390.7z"/>
	</g>
	<g>
		<path class="st2" d="M219.7,389.6c0,1.9-0.3,3.3-1,4.2s-1.7,1.4-3.1,1.4s-2.4-0.5-3-1.4s-1-2.3-1-4.1v-2.2c0-1.9,0.3-3.3,1-4.2
			s1.7-1.4,3.1-1.4s2.4,0.4,3,1.3s1,2.2,1,4.1L219.7,389.6L219.7,389.6z M218,387.4c0-1.4-0.2-2.4-0.6-3s-1-0.9-1.8-0.9
			s-1.4,0.3-1.8,0.9s-0.6,1.6-0.6,2.9v2.6c0,1.4,0.2,2.4,0.6,3.1s1,1,1.8,1s1.4-0.3,1.8-0.9s0.6-1.6,0.6-2.9L218,387.4L218,387.4z"
			/>
	</g>
	<g>
		<path class="st2" d="M228,389.4c-0.3,0.4-0.8,0.7-1.2,1s-1,0.4-1.6,0.4c-0.7,0-1.4-0.2-1.9-0.5s-1-0.9-1.3-1.5s-0.4-1.4-0.4-2.2
			c0-0.9,0.2-1.6,0.5-2.3s0.8-1.2,1.4-1.6s1.3-0.5,2.1-0.5c1.3,0,2.3,0.5,3,1.4s1.1,2.2,1.1,3.9v0.5c0,2.5-0.5,4.3-1.5,5.5
			s-2.5,1.7-4.5,1.8h-0.3v-1.4h0.3c1.3,0,2.4-0.4,3.1-1S227.9,390.9,228,389.4L228,389.4z M225.5,389.4c0.5,0,1.1-0.2,1.5-0.5
			s0.8-0.8,1-1.2V387c0-1.1-0.2-1.9-0.7-2.6s-1.1-1-1.8-1s-1.3,0.3-1.7,0.8s-0.6,1.3-0.6,2.2s0.2,1.6,0.6,2.2
			S224.8,389.4,225.5,389.4L225.5,389.4z"/>
	</g>
	<g>
		<path class="st2" d="M234.2,387.8h1.2c0.8,0,1.4-0.2,1.8-0.6s0.7-0.9,0.7-1.6c0-1.5-0.8-2.2-2.2-2.2c-0.7,0-1.3,0.2-1.7,0.6
			s-0.6,0.9-0.6,1.6h-1.6c0-1,0.4-1.9,1.1-2.5s1.7-1,2.8-1c1.2,0,2.1,0.3,2.8,1s1,1.5,1,2.7c0,0.6-0.2,1.1-0.5,1.6s-0.9,0.9-1.5,1.2
			c0.7,0.2,1.2,0.6,1.6,1.1s0.6,1.1,0.6,1.9c0,1.1-0.4,2.1-1.1,2.7s-1.7,1-2.9,1s-2.2-0.3-2.9-1s-1.1-1.5-1.1-2.6h1.6
			c0,0.7,0.2,1.2,0.7,1.6s1,0.6,1.8,0.6c0.8,0,1.4-0.2,1.8-0.6s0.6-1,0.6-1.8s-0.2-1.3-0.7-1.7s-1.1-0.6-2-0.6h-1.2L234.2,387.8
			L234.2,387.8z"/>
	</g>
</g>
<g class="st1">
	<path class="st2" d="M353.5,365.8c0,1.3-0.2,2.3-0.6,3.3c-0.4,0.9-1,1.6-1.8,2.1s-1.7,0.7-2.7,0.7c-1,0-1.9-0.2-2.7-0.7
		c-0.8-0.5-1.4-1.2-1.8-2.1c-0.4-0.9-0.7-2-0.7-3.2V365c0-1.2,0.2-2.3,0.6-3.3s1-1.7,1.8-2.2c0.8-0.5,1.7-0.8,2.7-0.8
		c1,0,1.9,0.2,2.7,0.7c0.8,0.5,1.4,1.2,1.8,2.2c0.4,0.9,0.6,2,0.6,3.3V365.8z M351.8,365c0-1.5-0.3-2.7-0.9-3.5
		c-0.6-0.8-1.5-1.2-2.6-1.2c-1.1,0-1.9,0.4-2.5,1.2c-0.6,0.8-0.9,1.9-0.9,3.4v0.9c0,1.5,0.3,2.6,0.9,3.5c0.6,0.8,1.5,1.3,2.6,1.3
		c1.1,0,1.9-0.4,2.5-1.2c0.6-0.8,0.9-1.9,0.9-3.4V365z"/>
	<path class="st2" d="M361.6,370.8c-0.6,0.7-1.6,1.1-2.8,1.1c-1,0-1.8-0.3-2.3-0.9c-0.5-0.6-0.8-1.5-0.8-2.6v-6.2h1.6v6.1
		c0,1.4,0.6,2.2,1.8,2.2c1.2,0,2.1-0.5,2.5-1.4v-6.9h1.6v9.5h-1.5L361.6,370.8z"/>
	<path class="st2" d="M367.9,360v2.3h1.8v1.3h-1.8v5.9c0,0.4,0.1,0.7,0.2,0.9c0.2,0.2,0.4,0.3,0.8,0.3c0.2,0,0.4,0,0.8-0.1v1.3
		c-0.4,0.1-0.8,0.2-1.2,0.2c-0.7,0-1.3-0.2-1.6-0.7s-0.6-1.1-0.6-1.9v-5.9h-1.7v-1.3h1.7V360H367.9z"/>
</g>
<g>
	<line class="st0" x1="316.9" y1="379" x2="407.1" y2="379"/>
	<path class="st2" d="M387.8,392.6c-0.4-0.7-0.2-1.5,0.4-2l18.3-11.6l-18.3-11.6c-0.7-0.4-0.9-1.3-0.4-2s1.3-0.9,2-0.4l20.2,12.8
		c0.4,0.3,0.7,0.7,0.7,1.2s-0.2,0.9-0.7,1.2L389.7,393c-0.2,0.1-0.5,0.2-0.8,0.2C388.5,393.2,388,393,387.8,392.6L387.8,392.6z"/>
</g>
<g>
	<line class="st0" x1="208.9" y1="177.4" x2="208.9" y2="267.6"/>
	<path class="st2" d="M195.3,248.2c0.7-0.4,1.5-0.2,2,0.4l11.6,18.3l11.6-18.3c0.4-0.7,1.3-0.9,2-0.4s0.9,1.3,0.4,2l-12.8,20.2
		c-0.3,0.4-0.7,0.7-1.2,0.7s-0.9-0.2-1.2-0.7l-12.8-20.2c-0.1-0.2-0.2-0.5-0.2-0.8C194.7,248.9,194.9,248.5,195.3,248.2L195.3,248.2
		z"/>
</g>
<line class="st0" x1="208.9" y1="177.4" x2="428.5" y2="177.4"/>
<g>
	<line class="st3" x1="442.9" y1="119.8" x2="442.9" y2="125.8"/>
	<line class="st4" x1="442.9" y1="137.4" x2="442.9" y2="410.4"/>
	<line class="st3" x1="442.9" y1="416.2" x2="442.9" y2="422.2"/>
</g>
<g>
	<line class="st3" x1="547.3" y1="119.8" x2="547.3" y2="125.8"/>
	<line class="st4" x1="547.3" y1="137.4" x2="547.3" y2="410.4"/>
	<line class="st3" x1="547.3" y1="416.2" x2="547.3" y2="422.2"/>
</g>
<g>
	<line class="st3" x1="633.7" y1="119.8" x2="633.7" y2="125.8"/>
	<line class="st4" x1="633.7" y1="137.4" x2="633.7" y2="410.4"/>
	<line class="st3" x1="633.7" y1="416.2" x2="633.7" y2="422.2"/>
</g>
<g>
	<line class="st3" x1="738.1" y1="119.8" x2="738.1" y2="125.8"/>
	<line class="st4" x1="738.1" y1="137.4" x2="738.1" y2="410.4"/>
	<line class="st3" x1="738.1" y1="416.2" x2="738.1" y2="422.2"/>
</g>
<g>
	<line class="st3" x1="824.5" y1="119.8" x2="824.5" y2="125.8"/>
	<line class="st4" x1="824.5" y1="137.4" x2="824.5" y2="410.4"/>
	<line class="st3" x1="824.5" y1="416.2" x2="824.5" y2="422.2"/>
</g>
<g>
	<line class="st3" x1="928.9" y1="119.8" x2="928.9" y2="125.8"/>
	<line class="st4" x1="928.9" y1="137.4" x2="928.9" y2="410.4"/>
	<line class="st3" x1="928.9" y1="416.2" x2="928.9" y2="422.2"/>
</g>
<polyline class="st5" points="964.9,199 928.9,199 928.9,127 824.5,127 824.5,199 738.1,199 738.1,127 633.7,127 633.7,199 
	547.3,199 547.3,127 442.9,127 442.9,199 "/>
<polyline class="st5" points="964.9,415 921.7,415 921.7,343 910.9,343 910.9,415 900.1,415 900.1,343 889.3,343 889.3,415 
	878.5,415 878.5,343 867.7,343 867.7,415 856.9,415 856.9,343 846.1,343 846.1,415 835.3,415 835.3,343 824.5,343 824.5,415 
	730.9,415 730.9,343 720.1,343 720.1,415 709.3,415 709.3,343 698.5,343 698.5,415 687.7,415 687.7,343 676.9,343 676.9,415 
	666.1,415 666.1,343 655.3,343 655.3,415 644.5,415 644.5,343 633.7,343 633.7,415 540.1,415 540.1,343 529.3,343 529.3,415 
	518.5,415 518.5,343 507.7,343 507.7,415 496.9,415 496.9,343 486.1,343 486.1,415 475.3,415 475.3,343 464.5,343 464.5,415 
	453.7,415 453.7,343 442.9,343 442.9,415 "/>
</svg>
