<?xml version="1.0" encoding="utf-8"?>
<!-- Generator: Adobe Illustrator 27.4.1, SVG Export Plug-In . SVG Version: 6.00 Build 0)  -->
<svg version="1.1" xmlns="http://www.w3.org/2000/svg" xmlns:xlink="http://www.w3.org/1999/xlink" x="0px" y="0px"
	 viewBox="0 0 1080 600.5" style="enable-background:new 0 0 1080 600.5;" xml:space="preserve">
<style type="text/css">
	.st0{fill:#0D1117;}
	.st1{fill:none;stroke:#0D1117;stroke-width:2;stroke-miterlimit:10;}
	.st2{fill:none;stroke:#0D1117;stroke-miterlimit:10;}
	.st3{fill:none;stroke:#0D1117;stroke-width:2.83;stroke-miterlimit:10;}
	.st4{fill:#0D1117;stroke:#0D1117;stroke-miterlimit:10;}
	.st5{enable-background:new    ;}
</style>
<g id="Ebene_1">
	<path class="st0" d="M158.4,333.3c0.4,0,0.8,0.3,0.8,0.8s-0.3,0.8-0.8,0.8s-0.8-0.3-0.8-0.8S158,333.3,158.4,333.3 M158.4,330.5
		c-2,0-3.6,1.6-3.6,3.6s1.6,3.6,3.6,3.6s3.6-1.6,3.6-3.6S160.4,330.5,158.4,330.5L158.4,330.5z"/>
	<line class="st1" x1="158.4" y1="355.7" x2="158.4" y2="312.5"/>
	<line class="st1" x1="144" y1="226.1" x2="144" y2="312.5"/>
	<rect x="144" y="226.1" class="st1" width="28.8" height="86.4"/>
	<rect x="144" y="355.7" class="st1" width="28.8" height="86.4"/>
	<line class="st1" x1="158.4" y1="517.7" x2="158.4" y2="442.1"/>
	<g>
		<line class="st1" x1="158.4" y1="334.1" x2="309.9" y2="334.1"/>
		<polygon class="st0" points="301.9,343.9 300.3,342.1 309,334.1 300.3,326 301.9,324.3 312.5,334.1 		"/>
	</g>
	<line class="st1" x1="158.4" y1="226.1" x2="158.4" y2="128.9"/>
	<line class="st2" x1="324" y1="524.9" x2="381.6" y2="524.9"/>
	<line class="st2" x1="357.1" y1="535.3" x2="348.5" y2="535.3"/>
	<line class="st2" x1="352.8" y1="531" x2="352.8" y2="539.6"/>
	<line class="st2" x1="318.2" y1="546.5" x2="318.2" y2="503.3"/>
	<line class="st2" x1="324" y1="503.3" x2="318.2" y2="503.3"/>
	<line class="st2" x1="324" y1="546.5" x2="318.2" y2="546.5"/>
	<line class="st2" x1="388.8" y1="503.3" x2="388.8" y2="546.5"/>
	<line class="st2" x1="383" y1="546.5" x2="388.8" y2="546.5"/>
	<line class="st2" x1="383" y1="503.3" x2="388.8" y2="503.3"/>
	<polygon class="st1" points="158.4,517.7 172.9,517.7 165.7,526.7 158.4,535.7 151.2,526.7 144,517.7 	"/>
	<g>
		<line class="st3" x1="219.6" y1="395.3" x2="192.7" y2="412.4"/>
		<polygon class="st0" points="192.9,406.4 180,420.5 198.2,414.8 		"/>
	</g>
	<g>
		<line class="st3" x1="219.6" y1="366.5" x2="192.7" y2="383.6"/>
		<polygon class="st0" points="192.9,377.6 180,391.7 198.2,386 		"/>
	</g>
	<rect x="702" y="164.9" class="st1" width="86.4" height="28.8"/>
	<g>
		<line class="st3" x1="741.6" y1="118.1" x2="758.7" y2="145"/>
		<polygon class="st0" points="752.7,144.8 766.8,157.7 761.1,139.5 		"/>
	</g>
	<g>
		<line class="st3" x1="712.8" y1="118.1" x2="729.9" y2="145"/>
		<polygon class="st0" points="723.9,144.8 738,157.7 732.3,139.5 		"/>
	</g>
	<line class="st1" x1="666" y1="254.9" x2="666" y2="384.5"/>
	<line class="st1" x1="806.4" y1="319.7" x2="666" y2="384.5"/>
	<line class="st1" x1="666" y1="254.9" x2="806.4" y2="319.7"/>
	<line class="st1" x1="706.9" y1="344.2" x2="711.2" y2="301"/>
	<line class="st1" x1="698.2" y1="344.2" x2="718.4" y2="344.2"/>
	<line class="st1" x1="711.2" y1="301" x2="731.3" y2="301"/>
	<line class="st1" x1="718.4" y1="344.2" x2="722.7" y2="301"/>
	<circle class="st1" cx="813.6" cy="319.7" r="7.2"/>
	<line class="st1" x1="666" y1="319.7" x2="604.8" y2="319.7"/>
	<line class="st1" x1="604.8" y1="179.3" x2="702" y2="179.3"/>
	<line class="st1" x1="788.4" y1="179.3" x2="860.4" y2="179.3"/>
	<line class="st1" x1="860.4" y1="179.3" x2="860.4" y2="319.7"/>
	<line class="st1" x1="821.5" y1="319.7" x2="860.4" y2="319.7"/>
	<g>
		<line class="st1" x1="860.4" y1="319.7" x2="980.6" y2="319.7"/>
		<polygon class="st0" points="974,327.9 972.6,326.4 979.9,319.7 972.6,313 974,311.5 982.8,319.7 		"/>
	</g>
	<line class="st1" x1="604.8" y1="179.3" x2="604.8" y2="434.9"/>
	<line class="st1" x1="604.8" y1="449.3" x2="604.8" y2="517"/>
	<polygon class="st1" points="590.4,517 619.2,517 604.8,534.2 	"/>
	<g>
		<line class="st1" x1="734.4" y1="287.3" x2="734.4" y2="241.5"/>
		<polygon class="st0" points="742,255.7 739.8,256.5 734.4,241.7 729,256.5 726.8,255.7 734.4,234.7 		"/>
	</g>
	<line class="st1" x1="734.4" y1="352.1" x2="734.4" y2="398.9"/>
	<rect x="576" y="446.4" class="st4" width="57.6" height="7.2"/>
	<rect x="576" y="434.9" class="st4" width="57.6" height="7.2"/>
	<path class="st0" d="M604.8,316.1c-2,0-3.6,1.6-3.6,3.6s1.6,3.6,3.6,3.6s3.6-1.6,3.6-3.6S606.8,316.1,604.8,316.1L604.8,316.1z"/>
	<polygon class="st1" points="720,398.9 748.8,398.9 734.4,416.2 	"/>
	<path class="st0" d="M860.4,316.1c-2,0-3.6,1.6-3.6,3.6s1.6,3.6,3.6,3.6s3.6-1.6,3.6-3.6S862.4,316.1,860.4,316.1L860.4,316.1z"/>
</g>
<g id="Ebene_2">
	<g class="st5">
		<path class="st0" d="M110,269.4h-3v5.2h-1.7v-12.8h4.2c1.4,0,2.6,0.3,3.3,1s1.2,1.6,1.2,2.9c0,0.8-0.2,1.5-0.6,2.1s-1,1-1.8,1.3
			l3,5.4v0.1h-1.8L110,269.4z M107,268h2.6c0.8,0,1.5-0.2,2-0.7s0.7-1,0.7-1.7c0-0.8-0.2-1.4-0.7-1.8s-1.2-0.6-2-0.6H107V268z"/>
	</g>
	<g class="st5">
		<path class="st0" d="M116.9,277.2v-5.9h0l-1.3,0.6l-0.2-0.9l1.7-0.8h1.1v7H116.9z"/>
	</g>
	<g class="st5">
		<path class="st0" d="M113,399h-3v5.2h-1.7v-12.8h4.2c1.4,0,2.6,0.3,3.3,1s1.2,1.6,1.2,2.9c0,0.8-0.2,1.5-0.6,2.1s-1,1-1.8,1.3
			l3,5.4v0.1h-1.8L113,399z M110,397.6h2.6c0.8,0,1.5-0.2,2-0.7s0.7-1,0.7-1.7c0-0.8-0.2-1.4-0.7-1.8s-1.2-0.6-2-0.6H110V397.6z"/>
	</g>
	<g class="st5">
		<path class="st0" d="M118.2,406.1l1.1-1.1c1.5-1.3,2.3-2.2,2.3-3.1c0-0.7-0.4-1.3-1.4-1.3c-0.6,0-1.2,0.3-1.5,0.6l-0.4-0.8
			c0.5-0.4,1.3-0.8,2.2-0.8c1.7,0,2.4,1.1,2.4,2c0,1.4-1,2.3-2.4,3.5l-0.6,0.5v0h3.1v1h-4.9V406.1z"/>
	</g>
	<g>
		<path class="st0" d="M59.7,58.2l3.7-10.6h1.9l-4.8,12.8H59l-4.7-12.8h1.8L59.7,58.2L59.7,58.2z"/>
		<path class="st0" d="M65.8,55.6c0-0.9,0.2-1.8,0.6-2.5s0.9-1.3,1.5-1.7s1.4-0.6,2.2-0.6c1.3,0,2.3,0.5,3.1,1.3s1.2,2.1,1.2,3.6
			v0.1c0,0.9-0.2,1.8-0.5,2.5s-0.9,1.3-1.5,1.7s-1.4,0.6-2.3,0.6c-1.3,0-2.3-0.5-3.1-1.3s-1.2-2.1-1.2-3.6L65.8,55.6L65.8,55.6z
			 M67.5,55.8c0,1,0.2,1.9,0.7,2.5s1.1,1,2,1s1.5-0.3,2-1s0.7-1.5,0.7-2.7c0-1-0.2-1.9-0.7-2.5s-1.2-1-2-1s-1.4,0.3-1.9,1
			S67.5,54.6,67.5,55.8z"/>
		<path class="st0" d="M78.3,60.5h-1.6V47h1.6V60.5z"/>
		<path class="st0" d="M83.1,48.7V51h1.8v1.3h-1.8v5.9c0,0.4,0.1,0.7,0.2,0.9c0.2,0.2,0.4,0.3,0.8,0.3c0.2,0,0.4,0,0.8-0.1v1.3
			c-0.4,0.1-0.8,0.2-1.2,0.2c-0.7,0-1.3-0.2-1.6-0.7s-0.6-1.1-0.6-1.9v-5.9h-1.7V51h1.7v-2.3L83.1,48.7L83.1,48.7z"/>
		<path class="st0" d="M92.7,60.5c-0.1-0.2-0.2-0.5-0.2-1c-0.8,0.8-1.7,1.2-2.7,1.2c-0.9,0-1.7-0.3-2.3-0.8s-0.9-1.2-0.9-2
			c0-1,0.4-1.8,1.1-2.3s1.8-0.8,3.2-0.8h1.6V54c0-0.6-0.2-1-0.5-1.4s-0.8-0.5-1.5-0.5c-0.6,0-1.1,0.2-1.5,0.4s-0.6,0.7-0.6,1.1h-1.6
			c0-0.5,0.2-0.9,0.5-1.4s0.8-0.8,1.4-1s1.2-0.4,1.9-0.4c1.1,0,1.9,0.3,2.6,0.8s0.9,1.3,1,2.3v4.4c0,0.9,0.1,1.6,0.3,2.1v0.1
			L92.7,60.5L92.7,60.5z M90,59.2c0.5,0,1-0.1,1.4-0.4s0.8-0.6,1-1v-2h-1.3c-2,0-3,0.6-3,1.8c0,0.5,0.2,0.9,0.5,1.2
			S89.4,59.2,90,59.2z"/>
		<path class="st0" d="M96.2,55.7c0-1.5,0.3-2.7,1-3.5s1.6-1.3,2.7-1.3s2.1,0.4,2.7,1.2l0.1-1h1.5v9.3c0,1.2-0.4,2.2-1.1,2.9
			s-1.7,1.1-2.9,1.1c-0.7,0-1.4-0.2-2-0.4s-1.2-0.7-1.5-1.2l0.8-1c0.7,0.9,1.6,1.3,2.6,1.3c0.8,0,1.4-0.2,1.8-0.7s0.7-1.1,0.7-1.9
			v-0.8c-0.7,0.8-1.5,1.1-2.7,1.1s-2-0.5-2.7-1.3S96.2,57.2,96.2,55.7L96.2,55.7z M97.8,55.8c0,1.1,0.2,1.9,0.7,2.5s1.1,0.9,1.8,0.9
			c1,0,1.8-0.5,2.3-1.4v-4.3c-0.5-0.9-1.2-1.4-2.2-1.4c-0.8,0-1.4,0.3-1.8,0.9S97.8,54.6,97.8,55.8L97.8,55.8z"/>
		<path class="st0" d="M110.6,60.7c-1.3,0-2.3-0.4-3.2-1.3s-1.2-2-1.2-3.4v-0.3c0-0.9,0.2-1.8,0.5-2.5s0.9-1.3,1.5-1.7
			s1.3-0.6,2.1-0.6c1.2,0,2.2,0.4,2.9,1.2s1,2,1,3.5v0.7h-6.4c0,0.9,0.3,1.7,0.8,2.3s1.2,0.9,2,0.9c0.6,0,1.1-0.1,1.5-0.3
			s0.8-0.5,1.1-0.9l1,0.8C113.4,60,112.2,60.7,110.6,60.7L110.6,60.7z M110.4,52.1c-0.7,0-1.2,0.2-1.7,0.7s-0.7,1.2-0.8,2h4.8v-0.1
			c-0.1-0.8-0.3-1.5-0.7-1.9S111.1,52.1,110.4,52.1L110.4,52.1z"/>
		<path class="st0" d="M120.3,55.7c0-1.5,0.3-2.6,1-3.5s1.6-1.3,2.7-1.3s2,0.4,2.7,1.1v-5h1.6v13.5h-1.5l-0.1-1
			c-0.7,0.8-1.6,1.2-2.7,1.2s-2-0.5-2.7-1.3s-1-2.1-1-3.5L120.3,55.7L120.3,55.7z M121.9,55.8c0,1.1,0.2,1.9,0.7,2.5
			s1.1,0.9,1.8,0.9c1,0,1.8-0.5,2.3-1.4v-4.4c-0.5-0.9-1.2-1.3-2.2-1.3c-0.8,0-1.4,0.3-1.9,0.9S121.9,54.6,121.9,55.8L121.9,55.8z"
			/>
		<path class="st0" d="M130.8,48.5c0-0.3,0.1-0.5,0.2-0.7s0.4-0.3,0.7-0.3s0.6,0.1,0.7,0.3s0.2,0.4,0.2,0.7s-0.1,0.5-0.2,0.7
			s-0.4,0.3-0.7,0.3s-0.6-0.1-0.7-0.3S130.8,48.7,130.8,48.5z M132.6,60.5H131V51h1.6C132.6,51,132.6,60.5,132.6,60.5z"/>
		<path class="st0" d="M138.3,58.3l2.4-7.3h1.7l-3.4,9.5h-1.2l-3.4-9.5h1.7L138.3,58.3z"/>
		<path class="st0" d="M143.9,48.5c0-0.3,0.1-0.5,0.2-0.7s0.4-0.3,0.7-0.3s0.6,0.1,0.7,0.3s0.2,0.4,0.2,0.7s-0.1,0.5-0.2,0.7
			s-0.4,0.3-0.7,0.3s-0.6-0.1-0.7-0.3S143.9,48.7,143.9,48.5z M145.7,60.5H144V51h1.6C145.7,51,145.7,60.5,145.7,60.5z"/>
		<path class="st0" d="M147.9,55.7c0-1.5,0.4-2.6,1-3.5s1.6-1.3,2.7-1.3s2,0.4,2.6,1.1v-5h1.6v13.5h-1.5l-0.1-1
			c-0.6,0.8-1.6,1.2-2.7,1.2s-2-0.5-2.7-1.3s-1-2.1-1-3.5L147.9,55.7L147.9,55.7z M149.5,55.8c0,1.1,0.2,1.9,0.7,2.5
			s1.1,0.9,1.9,0.9c1,0,1.8-0.5,2.3-1.4v-4.4c-0.5-0.9-1.2-1.3-2.2-1.3c-0.8,0-1.4,0.3-1.9,0.9S149.5,54.6,149.5,55.8L149.5,55.8z"
			/>
		<path class="st0" d="M162.4,60.7c-1.3,0-2.3-0.4-3.1-1.3s-1.2-2-1.2-3.4v-0.3c0-0.9,0.2-1.8,0.5-2.5s0.9-1.3,1.5-1.7
			s1.4-0.6,2.1-0.6c1.2,0,2.2,0.4,2.9,1.2s1,2,1,3.5v0.7h-6.4c0,0.9,0.3,1.7,0.8,2.3s1.2,0.9,2,0.9c0.6,0,1.1-0.1,1.5-0.3
			s0.8-0.5,1.1-0.9l1,0.8C165.2,60,164,60.7,162.4,60.7L162.4,60.7z M162.2,52.1c-0.7,0-1.2,0.2-1.6,0.7s-0.7,1.2-0.8,2h4.8v-0.1
			c-0.1-0.8-0.3-1.5-0.7-1.9S162.9,52.1,162.2,52.1L162.2,52.1z"/>
		<path class="st0" d="M172.6,52.4c-0.2,0-0.5-0.1-0.8-0.1c-1.1,0-1.8,0.5-2.2,1.4v6.8H168V51h1.6l0,1.1c0.5-0.8,1.3-1.3,2.3-1.3
			c0.3,0,0.6,0,0.7,0.1C172.6,50.9,172.6,52.4,172.6,52.4z"/>
		<path class="st0" d="M63.7,79.8l1.8-7.3h1.6l-2.8,9.5H63l-2.3-7.2l-2.2,7.2h-1.3l-2.8-9.5H56l1.9,7.1l2.2-7.1h1.3L63.7,79.8z"/>
		<path class="st0" d="M68.8,70.1c0-0.3,0.1-0.5,0.2-0.7s0.4-0.3,0.7-0.3s0.6,0.1,0.7,0.3s0.2,0.4,0.2,0.7s-0.1,0.5-0.2,0.7
			S70,71,69.7,71s-0.6-0.1-0.7-0.3S68.8,70.3,68.8,70.1z M70.5,82.1h-1.6v-9.5h1.6V82.1z"/>
		<path class="st0" d="M75.3,70.3v2.3h1.8v1.3h-1.8v5.9c0,0.4,0.1,0.7,0.2,0.9c0.2,0.2,0.4,0.3,0.8,0.3c0.2,0,0.4,0,0.8-0.1v1.3
			c-0.4,0.1-0.8,0.2-1.2,0.2c-0.7,0-1.3-0.2-1.6-0.7s-0.6-1.1-0.6-1.9v-5.9H72v-1.3h1.7v-2.3L75.3,70.3L75.3,70.3z"/>
		<path class="st0" d="M80.6,73.7c0.7-0.9,1.7-1.3,2.8-1.3c2,0,3,1.1,3,3.4v6.3h-1.6v-6.3c0-0.7-0.2-1.2-0.5-1.5s-0.8-0.5-1.4-0.5
			c-0.5,0-1,0.1-1.4,0.4s-0.7,0.7-0.9,1.1v6.8H79V68.6h1.6L80.6,73.7L80.6,73.7z"/>
		<path class="st0" d="M95.1,82.1h-1.6V68.6h1.6V82.1z"/>
		<path class="st0" d="M97.8,70.1c0-0.3,0.1-0.5,0.2-0.7s0.4-0.3,0.7-0.3s0.6,0.1,0.7,0.3s0.2,0.4,0.2,0.7s-0.1,0.5-0.2,0.7
			S99,71,98.7,71s-0.6-0.1-0.7-0.3S97.8,70.3,97.8,70.1z M99.5,82.1h-1.6v-9.5h1.6V82.1z"/>
		<path class="st0" d="M101.7,77.2c0-1.5,0.3-2.7,1-3.5s1.6-1.3,2.7-1.3s2.1,0.4,2.7,1.2l0.1-1.1h1.5v9.3c0,1.2-0.4,2.2-1.1,2.9
			s-1.7,1.1-2.9,1.1c-0.7,0-1.4-0.2-2-0.4s-1.2-0.7-1.5-1.2l0.8-1c0.7,0.9,1.6,1.3,2.6,1.3c0.8,0,1.4-0.2,1.8-0.7s0.7-1.1,0.7-1.9
			v-0.8c-0.7,0.8-1.5,1.1-2.7,1.1s-2-0.4-2.7-1.3S101.7,78.8,101.7,77.2L101.7,77.2z M103.3,77.4c0,1.1,0.2,1.9,0.7,2.5
			s1.1,0.9,1.8,0.9c1,0,1.8-0.5,2.3-1.4v-4.3c-0.5-0.9-1.2-1.4-2.2-1.4c-0.8,0-1.4,0.3-1.8,0.9S103.4,76.2,103.3,77.4L103.3,77.4z"
			/>
		<path class="st0" d="M113.8,73.7c0.7-0.9,1.7-1.3,2.8-1.3c2,0,3,1.1,3,3.4v6.3h-1.6v-6.3c0-0.7-0.2-1.2-0.5-1.5s-0.8-0.5-1.4-0.5
			c-0.5,0-1,0.1-1.4,0.4s-0.7,0.7-0.9,1.1v6.8h-1.6V68.6h1.6L113.8,73.7L113.8,73.7z"/>
		<path class="st0" d="M124.3,70.3v2.3h1.8v1.3h-1.8v5.9c0,0.4,0.1,0.7,0.2,0.9c0.2,0.2,0.4,0.3,0.8,0.3c0.2,0,0.4,0,0.8-0.1v1.3
			c-0.4,0.1-0.8,0.2-1.2,0.2c-0.7,0-1.3-0.2-1.6-0.7s-0.6-1.1-0.6-1.9v-5.9H121v-1.3h1.7v-2.3L124.3,70.3L124.3,70.3z"/>
		<path class="st0" d="M131.4,77.3h-4.3V76h4.3V77.3z"/>
		<path class="st0" d="M132.6,77.2c0-1.5,0.4-2.6,1-3.5s1.6-1.3,2.7-1.3s2,0.4,2.6,1.1v-5h1.6v13.5h-1.5l-0.1-1
			c-0.6,0.8-1.6,1.2-2.7,1.2s-2-0.4-2.7-1.3s-1-2.1-1-3.5L132.6,77.2L132.6,77.2z M134.2,77.4c0,1.1,0.2,1.9,0.7,2.5
			s1.1,0.9,1.9,0.9c1,0,1.8-0.5,2.3-1.4v-4.4c-0.5-0.9-1.2-1.3-2.2-1.3c-0.8,0-1.4,0.3-1.9,0.9S134.2,76.2,134.2,77.4L134.2,77.4z"
			/>
		<path class="st0" d="M147.1,82.3c-1.3,0-2.3-0.4-3.1-1.3s-1.2-2-1.2-3.4v-0.3c0-0.9,0.2-1.8,0.5-2.5s0.9-1.3,1.5-1.7
			s1.4-0.6,2.1-0.6c1.2,0,2.2,0.4,2.9,1.2s1,2,1,3.5v0.7h-6.4c0,0.9,0.3,1.7,0.8,2.3s1.2,0.9,2,0.9c0.6,0,1.1-0.1,1.5-0.3
			s0.8-0.5,1.1-0.9l1,0.8C149.9,81.6,148.7,82.3,147.1,82.3L147.1,82.3z M146.9,73.7c-0.7,0-1.2,0.2-1.6,0.7s-0.7,1.2-0.8,2h4.8
			v-0.1c-0.1-0.8-0.3-1.5-0.7-1.9S147.5,73.7,146.9,73.7L146.9,73.7z"/>
		<path class="st0" d="M160.7,77.4c0,1.4-0.3,2.6-1,3.5s-1.6,1.3-2.7,1.3s-2.1-0.4-2.7-1.1v4.6h-1.6V72.6h1.5l0.1,1.1
			c0.7-0.8,1.6-1.2,2.8-1.2s2.1,0.4,2.7,1.3s1,2.1,1,3.6L160.7,77.4L160.7,77.4z M159.1,77.2c0-1.1-0.2-1.9-0.7-2.5
			s-1.1-0.9-1.9-0.9c-1,0-1.7,0.4-2.2,1.3v4.5c0.5,0.9,1.2,1.3,2.2,1.3c0.8,0,1.4-0.3,1.9-0.9S159.1,78.5,159.1,77.2L159.1,77.2z"/>
		<path class="st0" d="M166.7,82.3c-1.3,0-2.3-0.4-3.1-1.3s-1.2-2-1.2-3.4v-0.3c0-0.9,0.2-1.8,0.5-2.5s0.9-1.3,1.5-1.7
			s1.4-0.6,2.1-0.6c1.2,0,2.2,0.4,2.9,1.2s1,2,1,3.5v0.7H164c0,0.9,0.3,1.7,0.8,2.3s1.2,0.9,2,0.9c0.6,0,1.1-0.1,1.5-0.3
			s0.8-0.5,1.1-0.9l1,0.8C169.5,81.6,168.3,82.3,166.7,82.3L166.7,82.3z M166.5,73.7c-0.7,0-1.2,0.2-1.6,0.7s-0.7,1.2-0.8,2h4.8
			v-0.1c-0.1-0.8-0.3-1.5-0.7-1.9S167.2,73.7,166.5,73.7L166.5,73.7z"/>
		<path class="st0" d="M173.8,72.6l0.1,1.2c0.7-0.9,1.7-1.4,2.9-1.4c2,0,3,1.1,3,3.4v6.3h-1.6v-6.3c0-0.7-0.2-1.2-0.5-1.5
			s-0.8-0.5-1.4-0.5c-0.5,0-1,0.1-1.4,0.4s-0.7,0.7-0.9,1.1v6.8h-1.6v-9.5L173.8,72.6L173.8,72.6z"/>
		<path class="st0" d="M181.8,77.2c0-1.5,0.4-2.6,1-3.5s1.6-1.3,2.7-1.3s2,0.4,2.6,1.1v-5h1.6v13.5h-1.5l-0.1-1
			c-0.6,0.8-1.6,1.2-2.7,1.2s-2-0.4-2.7-1.3s-1-2.1-1-3.5L181.8,77.2L181.8,77.2z M183.5,77.4c0,1.1,0.2,1.9,0.7,2.5
			s1.1,0.9,1.9,0.9c1,0,1.8-0.5,2.3-1.4v-4.4c-0.5-0.9-1.2-1.3-2.2-1.3c-0.8,0-1.4,0.3-1.9,0.9S183.5,76.2,183.5,77.4L183.5,77.4z"
			/>
		<path class="st0" d="M196.3,82.3c-1.3,0-2.3-0.4-3.1-1.3s-1.2-2-1.2-3.4v-0.3c0-0.9,0.2-1.8,0.5-2.5s0.9-1.3,1.5-1.7
			s1.4-0.6,2.1-0.6c1.2,0,2.2,0.4,2.9,1.2s1,2,1,3.5v0.7h-6.4c0,0.9,0.3,1.7,0.8,2.3s1.2,0.9,2,0.9c0.6,0,1.1-0.1,1.5-0.3
			s0.8-0.5,1.1-0.9l1,0.8C199.1,81.6,197.9,82.3,196.3,82.3L196.3,82.3z M196.1,73.7c-0.7,0-1.2,0.2-1.6,0.7s-0.7,1.2-0.8,2h4.8
			v-0.1c-0.1-0.8-0.3-1.5-0.7-1.9S196.8,73.7,196.1,73.7L196.1,73.7z"/>
		<path class="st0" d="M203.4,72.6l0.1,1.2c0.7-0.9,1.7-1.4,2.9-1.4c2,0,3,1.1,3,3.4v6.3h-1.6v-6.3c0-0.7-0.2-1.2-0.5-1.5
			s-0.8-0.5-1.4-0.5c-0.5,0-1,0.1-1.4,0.4s-0.7,0.7-0.9,1.1v6.8h-1.6v-9.5L203.4,72.6L203.4,72.6z"/>
		<path class="st0" d="M214.1,70.3v2.3h1.8v1.3h-1.8v5.9c0,0.4,0.1,0.7,0.2,0.9s0.4,0.3,0.8,0.3c0.2,0,0.4,0,0.8-0.1v1.3
			c-0.4,0.1-0.8,0.2-1.2,0.2c-0.7,0-1.3-0.2-1.6-0.7s-0.6-1.1-0.6-1.9v-5.9h-1.7v-1.3h1.7v-2.3L214.1,70.3L214.1,70.3z"/>
		<path class="st0" d="M226.8,74c-0.2,0-0.5-0.1-0.8-0.1c-1.1,0-1.8,0.4-2.2,1.4v6.8h-1.6v-9.5h1.6l0,1.1c0.5-0.8,1.3-1.3,2.3-1.3
			c0.3,0,0.6,0,0.7,0.1C226.8,72.5,226.8,74,226.8,74z"/>
		<path class="st0" d="M232.1,82.3c-1.3,0-2.3-0.4-3.1-1.3s-1.2-2-1.2-3.4v-0.3c0-0.9,0.2-1.8,0.5-2.5s0.9-1.3,1.5-1.7
			s1.4-0.6,2.1-0.6c1.2,0,2.2,0.4,2.9,1.2s1,2,1,3.5v0.7h-6.4c0,0.9,0.3,1.7,0.8,2.3s1.2,0.9,2,0.9c0.6,0,1.1-0.1,1.5-0.3
			s0.8-0.5,1.1-0.9l1,0.8C234.8,81.6,233.6,82.3,232.1,82.3L232.1,82.3z M231.9,73.7c-0.7,0-1.2,0.2-1.6,0.7s-0.7,1.2-0.8,2h4.8
			v-0.1c-0.1-0.8-0.3-1.5-0.7-1.9S232.5,73.7,231.9,73.7L231.9,73.7z"/>
		<path class="st0" d="M243.2,79.6c0-0.4-0.2-0.8-0.5-1s-0.9-0.4-1.7-0.6s-1.5-0.4-2-0.6s-0.8-0.5-1.1-0.9s-0.4-0.7-0.4-1.2
			c0-0.8,0.3-1.4,1-2s1.5-0.8,2.5-0.8c1.1,0,1.9,0.3,2.6,0.8s1,1.3,1,2.1h-1.6c0-0.4-0.2-0.8-0.6-1.2s-0.9-0.5-1.4-0.5
			s-1.1,0.1-1.4,0.4s-0.5,0.6-0.5,1c0,0.4,0.2,0.7,0.5,0.9s0.9,0.4,1.7,0.6s1.5,0.4,2,0.7s0.9,0.6,1.1,0.9c0.2,0.3,0.4,0.8,0.4,1.3
			c0,0.8-0.3,1.5-1,2c-0.7,0.5-1.6,0.8-2.6,0.8c-0.8,0-1.4-0.1-2-0.4s-1-0.7-1.4-1.1s-0.5-1-0.5-1.6h1.6c0,0.5,0.2,1,0.6,1.3
			s0.9,0.5,1.6,0.5c0.6,0,1.1-0.1,1.5-0.4S243.2,80,243.2,79.6L243.2,79.6z"/>
		<path class="st0" d="M246.9,70.1c0-0.3,0.1-0.5,0.2-0.7s0.4-0.3,0.7-0.3s0.6,0.1,0.7,0.3s0.2,0.4,0.2,0.7s-0.1,0.5-0.2,0.7
			s-0.4,0.3-0.7,0.3s-0.6-0.1-0.7-0.3S246.9,70.3,246.9,70.1z M248.7,82.1h-1.6v-9.5h1.6V82.1z"/>
		<path class="st0" d="M256.8,79.6c0-0.4-0.2-0.8-0.5-1c-0.3-0.2-0.9-0.4-1.7-0.6s-1.5-0.4-2-0.6c-0.5-0.2-0.8-0.5-1.1-0.9
			c-0.2-0.3-0.4-0.7-0.4-1.2c0-0.8,0.3-1.4,1-2s1.5-0.8,2.5-0.8c1.1,0,1.9,0.3,2.6,0.8s1,1.3,1,2.1h-1.6c0-0.4-0.2-0.8-0.6-1.2
			s-0.9-0.5-1.4-0.5s-1.1,0.1-1.4,0.4s-0.5,0.6-0.5,1c0,0.4,0.2,0.7,0.5,0.9s0.9,0.4,1.7,0.6s1.5,0.4,2,0.7s0.9,0.6,1.1,0.9
			c0.2,0.3,0.4,0.8,0.4,1.3c0,0.8-0.3,1.5-1,2s-1.6,0.8-2.6,0.8c-0.8,0-1.4-0.1-2-0.4s-1-0.7-1.4-1.1c-0.3-0.5-0.5-1-0.5-1.6h1.6
			c0,0.5,0.2,1,0.6,1.3s0.9,0.5,1.6,0.5c0.6,0,1.1-0.1,1.5-0.4C256.6,80.3,256.8,80,256.8,79.6L256.8,79.6z"/>
		<path class="st0" d="M262.8,70.3v2.3h1.8v1.3h-1.8v5.9c0,0.4,0.1,0.7,0.2,0.9s0.4,0.3,0.8,0.3c0.2,0,0.5,0,0.8-0.1v1.3
			c-0.4,0.1-0.8,0.2-1.2,0.2c-0.7,0-1.3-0.2-1.6-0.7s-0.5-1.1-0.5-1.9v-5.9h-1.7v-1.3h1.7v-2.3L262.8,70.3L262.8,70.3z"/>
		<path class="st0" d="M265.8,77.2c0-0.9,0.2-1.8,0.5-2.5c0.4-0.7,0.9-1.3,1.5-1.7s1.4-0.6,2.2-0.6c1.3,0,2.3,0.4,3.1,1.3
			c0.8,0.9,1.2,2.1,1.2,3.6v0.1c0,0.9-0.2,1.8-0.5,2.5c-0.4,0.7-0.9,1.3-1.5,1.7s-1.4,0.6-2.3,0.6c-1.3,0-2.3-0.4-3.1-1.3
			c-0.8-0.9-1.2-2.1-1.2-3.6L265.8,77.2L265.8,77.2z M267.5,77.4c0,1.1,0.2,1.9,0.7,2.5s1.1,1,2,1s1.5-0.3,2-1s0.7-1.6,0.7-2.7
			c0-1-0.2-1.9-0.7-2.5s-1.1-1-2-1s-1.5,0.3-1.9,1S267.5,76.2,267.5,77.4L267.5,77.4z"/>
		<path class="st0" d="M281.1,74c-0.2,0-0.5-0.1-0.8-0.1c-1.1,0-1.8,0.4-2.2,1.4v6.8h-1.6v-9.5h1.6l0,1.1c0.5-0.8,1.3-1.3,2.3-1.3
			c0.3,0,0.6,0,0.7,0.1L281.1,74L281.1,74z"/>
		<path class="st0" d="M287,76.9c0-1.3,0.2-2.6,0.5-3.8c0.4-1.2,0.9-2.3,1.6-3.3s1.4-1.7,2.2-2.1l0.3,1.1c-0.9,0.7-1.6,1.7-2.1,3
			c-0.5,1.3-0.9,2.9-0.9,4.5V77c0,2.3,0.4,4.2,1.2,5.9c0.5,1,1.1,1.8,1.8,2.3l-0.3,1c-0.8-0.4-1.5-1.2-2.2-2.2
			C287.7,82.1,287,79.7,287,76.9L287,76.9z"/>
		<path class="st0" d="M298.2,76.9h-3v5.2h-1.7V69.3h4.2c1.4,0,2.5,0.3,3.3,1s1.2,1.6,1.2,2.9c0,0.8-0.2,1.5-0.6,2.1
			c-0.4,0.6-1,1-1.8,1.3l3,5.4v0.1H301C301,82.1,298.2,76.9,298.2,76.9z M295.2,75.5h2.6c0.8,0,1.5-0.2,2-0.7c0.5-0.4,0.7-1,0.7-1.7
			c0-0.8-0.2-1.4-0.7-1.8s-1.1-0.6-2-0.6h-2.6V75.5L295.2,75.5z"/>
		<path class="st0" d="M308.6,88.1h-4.9v-0.7l2.6-2.9c0.4-0.4,0.6-0.8,0.8-1.1c0.1-0.3,0.2-0.6,0.2-0.8c0-0.4-0.1-0.7-0.4-1
			s-0.5-0.4-0.9-0.4c-0.5,0-0.8,0.1-1.1,0.4s-0.4,0.6-0.4,1.1h-1c0-0.7,0.2-1.2,0.7-1.7c0.4-0.4,1-0.6,1.8-0.6
			c0.7,0,1.2,0.2,1.6,0.6c0.4,0.4,0.6,0.8,0.6,1.4c0,0.7-0.5,1.6-1.4,2.6l-2,2.2h3.8L308.6,88.1L308.6,88.1z"/>
		<path class="st0" d="M314,77c0,1.3-0.2,2.6-0.5,3.8c-0.3,1.2-0.9,2.3-1.6,3.3c-0.7,1-1.5,1.7-2.2,2.2l-0.3-1
			c0.9-0.7,1.6-1.8,2.2-3.2c0.5-1.5,0.8-3.1,0.8-4.8v-0.3c0-1.2-0.1-2.4-0.4-3.4s-0.6-2-1.1-2.8s-1-1.5-1.5-2l0.3-1
			c0.8,0.4,1.5,1.1,2.2,2.1s1.2,2.1,1.6,3.3C313.8,74.3,314,75.6,314,77L314,77z"/>
	</g>
	<g class="st5">
		<path class="st0" d="M321.2,331.8l3.7-10.6h1.8l-4.7,12.8h-1.5l-4.7-12.8h1.8L321.2,331.8z"/>
	</g>
	<g class="st5">
		<path class="st0" d="M333.5,336.6c0,0.7-0.1,1.4-0.4,1.9c-0.2,0.5-0.6,1-1,1.2c-0.4,0.3-1,0.4-1.6,0.4c-0.6,0-1.1-0.1-1.6-0.4
			s-0.8-0.7-1.1-1.2c-0.2-0.5-0.4-1.1-0.4-1.8v-0.5c0-0.7,0.1-1.3,0.4-1.9s0.6-1,1.1-1.3c0.5-0.3,1-0.4,1.6-0.4
			c0.6,0,1.1,0.1,1.6,0.4s0.8,0.7,1,1.2c0.2,0.5,0.4,1.2,0.4,1.9V336.6z M332.5,336.1c0-0.9-0.2-1.6-0.5-2s-0.8-0.7-1.5-0.7
			c-0.6,0-1.1,0.2-1.5,0.7s-0.5,1.1-0.5,2v0.5c0,0.9,0.2,1.5,0.5,2c0.4,0.5,0.9,0.7,1.5,0.7c0.6,0,1.1-0.2,1.5-0.7s0.5-1.1,0.5-2
			V336.1z"/>
		<path class="st0" d="M340.2,332.6v5c0,0.7-0.2,1.3-0.7,1.7c-0.4,0.4-1,0.7-1.8,0.8l-0.3,0c-0.8,0-1.5-0.2-1.9-0.7s-0.7-1-0.7-1.8
			v-5.1h1v5c0,0.5,0.1,1,0.4,1.3c0.3,0.3,0.7,0.4,1.3,0.4c0.6,0,1-0.1,1.3-0.4c0.3-0.3,0.4-0.7,0.4-1.2v-5H340.2z"/>
	</g>
	<g class="st5">
		<path class="st0" d="M346.8,333.4h-2.4v6.6h-1v-6.6h-2.4v-0.8h5.7V333.4z"/>
	</g>
	<g class="st5">
		<path class="st0" d="M150.9,559.2c-0.4,0.6-1,1.1-1.8,1.4c-0.8,0.3-1.7,0.5-2.7,0.5c-1,0-2-0.2-2.8-0.7c-0.8-0.5-1.4-1.2-1.9-2.1
			s-0.7-1.9-0.7-3.1V554c0-1.9,0.4-3.4,1.3-4.5s2.2-1.6,3.8-1.6c1.3,0,2.4,0.3,3.2,1c0.8,0.7,1.3,1.7,1.5,2.9h-1.7
			c-0.3-1.7-1.3-2.5-3-2.5c-1.1,0-2,0.4-2.6,1.2c-0.6,0.8-0.9,1.9-0.9,3.5v1c0,1.4,0.3,2.6,1,3.4c0.7,0.8,1.5,1.3,2.7,1.3
			c0.6,0,1.2-0.1,1.7-0.2c0.5-0.1,0.9-0.4,1.2-0.7v-2.9h-3v-1.4h4.6V559.2z"/>
		<path class="st0" d="M163.6,560.9h-1.7l-6.4-9.9v9.9h-1.7v-12.8h1.7l6.5,9.9v-9.9h1.7V560.9z"/>
		<path class="st0" d="M166.6,560.9v-12.8h3.6c1.1,0,2.1,0.2,3,0.7s1.5,1.2,2,2.1s0.7,2,0.7,3.1v0.8c0,1.2-0.2,2.3-0.7,3.2
			s-1.1,1.6-2,2.1s-1.9,0.7-3,0.7H166.6z M168.3,549.5v10h1.8c1.3,0,2.3-0.4,3-1.2s1.1-2,1.1-3.5v-0.7c0-1.5-0.3-2.6-1-3.4
			c-0.7-0.8-1.7-1.2-2.9-1.2H168.3z"/>
	</g>
	<g class="st5">
		<path class="st0" d="M153.2,115.1l3.7-10.6h1.8l-4.7,12.8h-1.5l-4.7-12.8h1.8L153.2,115.1z"/>
	</g>
	<g class="st5">
		<path class="st0" d="M160.9,123.4h-1v-7.4h1V123.4z"/>
		<path class="st0" d="M168.4,123.4h-1l-3.7-5.7v5.7h-1v-7.4h1l3.7,5.7v-5.7h1V123.4z"/>
	</g>
	<g class="st5">
		<path class="st0" d="M286.4,524.9l3.7-10.6h1.8l-4.7,12.8h-1.5l-4.7-12.8h1.8L286.4,524.9z"/>
	</g>
	<g class="st5">
		<path class="st0" d="M294.1,533.1h-1v-7.4h1V533.1z"/>
		<path class="st0" d="M301.6,533.1h-1l-3.7-5.7v5.7h-1v-7.4h1l3.7,5.7v-5.7h1V533.1z"/>
	</g>
	<g class="st5">
		<path class="st0" d="M350.5,508.9h-3v5.2h-1.7v-12.8h4.2c1.4,0,2.6,0.3,3.3,1s1.2,1.6,1.2,2.9c0,0.8-0.2,1.5-0.6,2.1s-1,1-1.8,1.3
			l3,5.4v0.1h-1.8L350.5,508.9z M347.5,507.5h2.6c0.8,0,1.5-0.2,2-0.7s0.7-1,0.7-1.7c0-0.8-0.2-1.4-0.7-1.8s-1.2-0.6-2-0.6h-2.6
			V507.5z"/>
	</g>
	<g class="st5">
		<path class="st0" d="M360.9,520.1H356v-0.7l2.6-2.9c0.4-0.4,0.6-0.8,0.8-1.1c0.1-0.3,0.2-0.5,0.2-0.8c0-0.4-0.1-0.7-0.4-1
			c-0.2-0.2-0.5-0.4-0.9-0.4c-0.5,0-0.8,0.1-1.1,0.4c-0.3,0.3-0.4,0.6-0.4,1.1h-0.9c0-0.7,0.2-1.2,0.7-1.7c0.4-0.4,1-0.6,1.8-0.6
			c0.7,0,1.2,0.2,1.6,0.5c0.4,0.4,0.6,0.8,0.6,1.4c0,0.7-0.5,1.6-1.4,2.6l-2,2.2h3.7V520.1z"/>
	</g>
	<g class="st5">
		<path class="st0" d="M220.4,524.9l3.7-10.6h1.8l-4.7,12.8h-1.5l-4.7-12.8h1.8L220.4,524.9z"/>
	</g>
	<g class="st5">
		<path class="st0" d="M232.7,529.7c0,0.7-0.1,1.4-0.4,1.9c-0.2,0.5-0.6,1-1,1.2c-0.4,0.3-1,0.4-1.6,0.4c-0.6,0-1.1-0.1-1.6-0.4
			s-0.8-0.7-1.1-1.2c-0.2-0.5-0.4-1.1-0.4-1.8v-0.5c0-0.7,0.1-1.3,0.4-1.9s0.6-1,1.1-1.3s1-0.4,1.6-0.4c0.6,0,1.1,0.1,1.6,0.4
			s0.8,0.7,1,1.2c0.2,0.5,0.4,1.2,0.4,1.9V529.7z M231.7,529.2c0-0.9-0.2-1.6-0.5-2s-0.8-0.7-1.5-0.7c-0.6,0-1.1,0.2-1.5,0.7
			s-0.5,1.1-0.5,2v0.5c0,0.9,0.2,1.5,0.5,2c0.4,0.5,0.9,0.7,1.5,0.7c0.6,0,1.1-0.2,1.5-0.7s0.5-1.1,0.5-2V529.2z"/>
		<path class="st0" d="M239.4,525.7v5c0,0.7-0.2,1.3-0.7,1.7c-0.4,0.4-1,0.7-1.8,0.8l-0.3,0c-0.8,0-1.5-0.2-1.9-0.7
			c-0.5-0.4-0.7-1-0.7-1.8v-5.1h1v5c0,0.5,0.1,1,0.4,1.3c0.3,0.3,0.7,0.4,1.3,0.4c0.6,0,1-0.1,1.3-0.4c0.3-0.3,0.4-0.7,0.4-1.2v-5
			H239.4z"/>
	</g>
	<g class="st5">
		<path class="st0" d="M246,526.5h-2.4v6.6h-1v-6.6h-2.4v-0.8h5.7V526.5z"/>
	</g>
	<g class="st5">
		<path class="st0" d="M368.5,537.7h-3v5.2h-1.7v-12.8h4.2c1.4,0,2.6,0.3,3.3,1s1.2,1.6,1.2,2.9c0,0.8-0.2,1.5-0.6,2.1s-1,1-1.8,1.3
			l3,5.4v0.1h-1.8L368.5,537.7z M365.5,536.3h2.6c0.8,0,1.5-0.2,2-0.7s0.7-1,0.7-1.7c0-0.8-0.2-1.4-0.7-1.8s-1.2-0.6-2-0.6h-2.6
			V536.3z"/>
	</g>
	<g class="st5">
		<path class="st0" d="M378.9,548.9H374v-0.7l2.6-2.9c0.4-0.4,0.6-0.8,0.8-1.1c0.1-0.3,0.2-0.5,0.2-0.8c0-0.4-0.1-0.7-0.4-1
			c-0.2-0.2-0.5-0.4-0.9-0.4c-0.5,0-0.8,0.1-1.1,0.4c-0.3,0.3-0.4,0.6-0.4,1.1h-0.9c0-0.7,0.2-1.2,0.7-1.7c0.4-0.4,1-0.6,1.8-0.6
			c0.7,0,1.2,0.2,1.6,0.5c0.4,0.4,0.6,0.8,0.6,1.4c0,0.7-0.5,1.6-1.4,2.6l-2,2.2h3.7V548.9z"/>
	</g>
	<g class="st5">
		<path class="st0" d="M336.1,537.7h-3v5.2h-1.7v-12.8h4.2c1.4,0,2.6,0.3,3.3,1s1.2,1.6,1.2,2.9c0,0.8-0.2,1.5-0.6,2.1s-1,1-1.8,1.3
			l3,5.4v0.1h-1.8L336.1,537.7z M333.1,536.3h2.6c0.8,0,1.5-0.2,2-0.7s0.7-1,0.7-1.7c0-0.8-0.2-1.4-0.7-1.8s-1.2-0.6-2-0.6h-2.6
			V536.3z"/>
	</g>
	<g class="st5">
		<path class="st0" d="M344.7,548.9h-0.9v-6.3l-1.9,0.7v-0.9l2.7-1h0.1V548.9z"/>
	</g>
	<g class="st5">
		<path class="st0" d="M579.2,67.5h6.1v1.4h-7.8V56.1h1.7V67.5z"/>
		<path class="st0" d="M586.9,56.9c0-0.3,0.1-0.5,0.2-0.7c0.2-0.2,0.4-0.3,0.7-0.3s0.6,0.1,0.7,0.3s0.2,0.4,0.2,0.7
			s-0.1,0.5-0.2,0.7s-0.4,0.3-0.7,0.3s-0.6-0.1-0.7-0.3C587,57.4,586.9,57.1,586.9,56.9z M588.7,68.9h-1.6v-9.5h1.6V68.9z"/>
		<path class="st0" d="M590.9,64.1c0-1.5,0.3-2.7,1-3.5s1.6-1.3,2.7-1.3c1.2,0,2.1,0.4,2.7,1.2l0.1-1.1h1.5v9.3
			c0,1.2-0.4,2.2-1.1,2.9c-0.7,0.7-1.7,1.1-2.9,1.1c-0.7,0-1.4-0.1-2-0.4s-1.2-0.7-1.5-1.2l0.8-1c0.7,0.9,1.5,1.3,2.6,1.3
			c0.8,0,1.4-0.2,1.9-0.7c0.4-0.4,0.7-1.1,0.7-1.9V68c-0.7,0.8-1.5,1.1-2.7,1.1c-1.1,0-2-0.4-2.7-1.3
			C591.2,66.8,590.9,65.6,590.9,64.1z M592.5,64.3c0,1.1,0.2,1.9,0.7,2.5c0.4,0.6,1.1,0.9,1.8,0.9c1,0,1.8-0.5,2.3-1.4V62
			c-0.5-0.9-1.2-1.4-2.2-1.4c-0.8,0-1.4,0.3-1.9,0.9S592.5,63.1,592.5,64.3z"/>
		<path class="st0" d="M603,60.6c0.7-0.9,1.7-1.3,2.8-1.3c2,0,3,1.1,3,3.4v6.3h-1.6v-6.3c0-0.7-0.2-1.2-0.5-1.5
			c-0.3-0.3-0.8-0.5-1.4-0.5c-0.5,0-1,0.1-1.4,0.4s-0.7,0.7-0.9,1.1v6.8h-1.6V55.4h1.6V60.6z"/>
		<path class="st0" d="M613.5,57.1v2.3h1.8v1.3h-1.8v5.9c0,0.4,0.1,0.7,0.2,0.9s0.4,0.3,0.8,0.3c0.2,0,0.4,0,0.8-0.1v1.3
			c-0.4,0.1-0.8,0.2-1.2,0.2c-0.7,0-1.3-0.2-1.6-0.7s-0.6-1.1-0.6-1.9v-5.9h-1.7v-1.3h1.7v-2.3H613.5z"/>
		<path class="st0" d="M625.4,67.8c0.6,0,1.1-0.2,1.5-0.5s0.7-0.8,0.7-1.3h1.5c0,0.5-0.2,1.1-0.6,1.6s-0.8,0.9-1.4,1.2
			c-0.6,0.3-1.2,0.4-1.8,0.4c-1.3,0-2.3-0.4-3.1-1.3c-0.8-0.9-1.1-2-1.1-3.5V64c0-0.9,0.2-1.7,0.5-2.5s0.8-1.3,1.5-1.7
			c0.6-0.4,1.4-0.6,2.3-0.6c1.1,0,2,0.3,2.7,1c0.7,0.6,1.1,1.5,1.1,2.5h-1.5c0-0.6-0.3-1.1-0.7-1.5c-0.4-0.4-0.9-0.6-1.6-0.6
			c-0.8,0-1.5,0.3-1.9,0.9c-0.5,0.6-0.7,1.5-0.7,2.6v0.3c0,1.1,0.2,1.9,0.7,2.5S624.6,67.8,625.4,67.8z"/>
		<path class="st0" d="M630.6,64.1c0-0.9,0.2-1.8,0.5-2.5c0.4-0.7,0.9-1.3,1.5-1.7c0.7-0.4,1.4-0.6,2.2-0.6c1.3,0,2.3,0.4,3.1,1.3
			c0.8,0.9,1.2,2.1,1.2,3.6v0.1c0,0.9-0.2,1.8-0.5,2.5c-0.4,0.7-0.9,1.3-1.5,1.7c-0.7,0.4-1.4,0.6-2.3,0.6c-1.3,0-2.3-0.4-3.1-1.3
			c-0.8-0.9-1.2-2.1-1.2-3.6V64.1z M632.3,64.3c0,1.1,0.2,1.9,0.7,2.5c0.5,0.6,1.1,1,2,1c0.8,0,1.5-0.3,2-1c0.5-0.6,0.7-1.6,0.7-2.7
			c0-1-0.2-1.9-0.7-2.5c-0.5-0.6-1.2-1-2-1c-0.8,0-1.5,0.3-1.9,1S632.3,63.1,632.3,64.3z"/>
		<path class="st0" d="M642.9,59.4l0.1,1.2c0.7-0.9,1.7-1.4,2.8-1.4c2,0,3,1.1,3,3.4v6.3h-1.6v-6.3c0-0.7-0.2-1.2-0.5-1.5
			c-0.3-0.3-0.8-0.5-1.4-0.5c-0.5,0-1,0.1-1.4,0.4s-0.7,0.7-0.9,1.1v6.8h-1.6v-9.5H642.9z"/>
		<path class="st0" d="M653.5,57.1v2.3h1.8v1.3h-1.8v5.9c0,0.4,0.1,0.7,0.2,0.9s0.4,0.3,0.8,0.3c0.2,0,0.4,0,0.8-0.1v1.3
			c-0.4,0.1-0.8,0.2-1.2,0.2c-0.7,0-1.3-0.2-1.6-0.7s-0.6-1.1-0.6-1.9v-5.9h-1.7v-1.3h1.7v-2.3H653.5z"/>
	</g>
	<g class="st5">
		<path class="st0" d="M661.7,60.9c-0.2,0-0.5-0.1-0.8-0.1c-1.1,0-1.8,0.5-2.2,1.4v6.8h-1.6v-9.5h1.6l0,1.1c0.5-0.8,1.3-1.3,2.3-1.3
			c0.3,0,0.6,0,0.7,0.1V60.9z"/>
	</g>
	<g class="st5">
		<path class="st0" d="M662.6,64.1c0-0.9,0.2-1.8,0.5-2.5s0.9-1.3,1.5-1.7s1.4-0.6,2.2-0.6c1.3,0,2.3,0.4,3.1,1.3s1.2,2.1,1.2,3.6
			v0.1c0,0.9-0.2,1.8-0.5,2.5c-0.4,0.7-0.9,1.3-1.5,1.7s-1.4,0.6-2.3,0.6c-1.3,0-2.3-0.4-3.1-1.3s-1.2-2.1-1.2-3.6V64.1z
			 M664.3,64.3c0,1.1,0.2,1.9,0.7,2.5s1.1,1,2,1c0.8,0,1.5-0.3,2-1c0.5-0.6,0.7-1.6,0.7-2.7c0-1-0.2-1.9-0.7-2.5c-0.5-0.6-1.2-1-2-1
			c-0.8,0-1.5,0.3-1.9,1S664.3,63.1,664.3,64.3z"/>
		<path class="st0" d="M675.1,68.9h-1.6V55.4h1.6V68.9z"/>
		<path class="st0" d="M679.5,68.9h-1.6V55.4h1.6V68.9z"/>
		<path class="st0" d="M686,69.1c-1.3,0-2.3-0.4-3.1-1.3s-1.2-2-1.2-3.4v-0.3c0-0.9,0.2-1.8,0.5-2.5s0.9-1.3,1.5-1.7
			s1.3-0.6,2.1-0.6c1.2,0,2.2,0.4,2.9,1.2s1,2,1,3.5v0.7h-6.4c0,0.9,0.3,1.7,0.8,2.3c0.5,0.6,1.2,0.9,2,0.9c0.6,0,1.1-0.1,1.5-0.4
			s0.7-0.5,1-0.9l1,0.8C688.8,68.5,687.6,69.1,686,69.1z M685.8,60.6c-0.7,0-1.2,0.2-1.7,0.7s-0.7,1.1-0.8,2h4.8v-0.1
			c0-0.8-0.3-1.5-0.7-1.9S686.5,60.6,685.8,60.6z"/>
		<path class="st0" d="M691.2,64.1c0-1.5,0.3-2.6,1-3.5c0.7-0.9,1.6-1.3,2.7-1.3c1.1,0,2,0.4,2.6,1.1v-5h1.6v13.5h-1.5l-0.1-1
			c-0.7,0.8-1.6,1.2-2.7,1.2c-1.1,0-2-0.5-2.7-1.4s-1-2.1-1-3.5V64.1z M692.8,64.3c0,1.1,0.2,1.9,0.7,2.5s1.1,0.9,1.8,0.9
			c1,0,1.8-0.5,2.3-1.4v-4.4c-0.5-0.9-1.2-1.3-2.2-1.3c-0.8,0-1.4,0.3-1.9,0.9S692.8,63.1,692.8,64.3z"/>
		<path class="st0" d="M705.8,64.1c0-0.9,0.2-1.8,0.5-2.5s0.9-1.3,1.5-1.7s1.4-0.6,2.2-0.6c1.3,0,2.3,0.4,3.1,1.3s1.2,2.1,1.2,3.6
			v0.1c0,0.9-0.2,1.8-0.5,2.5c-0.4,0.7-0.9,1.3-1.5,1.7s-1.4,0.6-2.3,0.6c-1.3,0-2.3-0.4-3.1-1.3s-1.2-2.1-1.2-3.6V64.1z
			 M707.4,64.3c0,1.1,0.2,1.9,0.7,2.5s1.1,1,2,1c0.8,0,1.5-0.3,2-1c0.5-0.6,0.7-1.6,0.7-2.7c0-1-0.2-1.9-0.7-2.5c-0.5-0.6-1.2-1-2-1
			c-0.8,0-1.5,0.3-1.9,1S707.4,63.1,707.4,64.3z"/>
		<path class="st0" d="M722,66.4c0-0.4-0.2-0.8-0.5-1c-0.3-0.2-0.9-0.5-1.7-0.6s-1.5-0.4-2-0.6s-0.8-0.5-1.1-0.9s-0.3-0.7-0.3-1.2
			c0-0.8,0.3-1.4,1-2s1.5-0.8,2.5-0.8c1.1,0,2,0.3,2.6,0.8s1,1.3,1,2.1h-1.6c0-0.4-0.2-0.8-0.6-1.2s-0.9-0.5-1.4-0.5
			c-0.6,0-1.1,0.1-1.4,0.4s-0.5,0.6-0.5,1c0,0.4,0.2,0.7,0.5,0.9s0.9,0.4,1.7,0.6s1.5,0.4,2,0.7s0.9,0.6,1.1,0.9
			c0.2,0.4,0.4,0.8,0.4,1.3c0,0.8-0.3,1.5-1,2c-0.7,0.5-1.6,0.8-2.6,0.8c-0.8,0-1.4-0.1-2-0.4s-1-0.6-1.4-1.1
			c-0.3-0.5-0.5-1-0.5-1.6h1.6c0,0.5,0.2,1,0.7,1.3c0.4,0.3,0.9,0.5,1.6,0.5c0.6,0,1.1-0.1,1.5-0.4C721.8,67.1,722,66.8,722,66.4z"
			/>
		<path class="st0" d="M729.6,67.8c0.6,0,1.1-0.2,1.5-0.5s0.7-0.8,0.7-1.3h1.5c0,0.5-0.2,1.1-0.6,1.6s-0.8,0.9-1.4,1.2
			s-1.2,0.4-1.8,0.4c-1.3,0-2.3-0.4-3.1-1.3c-0.8-0.9-1.1-2-1.1-3.5V64c0-0.9,0.2-1.7,0.5-2.5s0.8-1.3,1.5-1.7s1.4-0.6,2.3-0.6
			c1.1,0,2,0.3,2.7,1s1.1,1.5,1.1,2.5h-1.5c0-0.6-0.3-1.1-0.7-1.5c-0.4-0.4-0.9-0.6-1.6-0.6c-0.8,0-1.5,0.3-1.9,0.9
			s-0.7,1.5-0.7,2.6v0.3c0,1.1,0.2,1.9,0.7,2.5S728.7,67.8,729.6,67.8z"/>
		<path class="st0" d="M735.2,56.9c0-0.3,0.1-0.5,0.2-0.7s0.4-0.3,0.7-0.3s0.6,0.1,0.7,0.3s0.2,0.4,0.2,0.7s-0.1,0.5-0.2,0.7
			s-0.4,0.3-0.7,0.3s-0.6-0.1-0.7-0.3S735.2,57.1,735.2,56.9z M736.9,68.9h-1.6v-9.5h1.6V68.9z"/>
		<path class="st0" d="M741.3,68.9h-1.6V55.4h1.6V68.9z"/>
		<path class="st0" d="M745.7,68.9H744V55.4h1.6V68.9z"/>
		<path class="st0" d="M754.1,68.9c-0.1-0.2-0.2-0.5-0.2-1c-0.8,0.8-1.7,1.2-2.7,1.2c-0.9,0-1.7-0.3-2.3-0.8s-0.9-1.2-0.9-2
			c0-1,0.4-1.8,1.1-2.3s1.8-0.8,3.2-0.8h1.6v-0.7c0-0.6-0.2-1-0.5-1.4c-0.3-0.3-0.8-0.5-1.5-0.5c-0.6,0-1.1,0.1-1.5,0.4
			s-0.6,0.6-0.6,1.1h-1.6c0-0.5,0.2-0.9,0.5-1.4s0.8-0.8,1.4-1.1s1.2-0.4,1.9-0.4c1.1,0,2,0.3,2.6,0.8s0.9,1.3,1,2.3v4.4
			c0,0.9,0.1,1.6,0.3,2.1v0.1H754.1z M751.4,67.7c0.5,0,1-0.1,1.5-0.4s0.8-0.6,1-1v-2h-1.3c-2,0-3,0.6-3,1.7c0,0.5,0.2,0.9,0.5,1.2
			S750.9,67.7,751.4,67.7z"/>
	</g>
	<g class="st5">
		<path class="st0" d="M760.3,57.1v2.3h1.8v1.3h-1.8v5.9c0,0.4,0.1,0.7,0.2,0.9s0.4,0.3,0.8,0.3c0.2,0,0.4,0,0.8-0.1v1.3
			c-0.4,0.1-0.8,0.2-1.2,0.2c-0.7,0-1.3-0.2-1.6-0.7s-0.6-1.1-0.6-1.9v-5.9h-1.7v-1.3h1.7v-2.3H760.3z"/>
	</g>
	<g class="st5">
		<path class="st0" d="M763.3,64.1c0-0.9,0.2-1.8,0.5-2.5s0.9-1.3,1.5-1.7s1.4-0.6,2.2-0.6c1.3,0,2.3,0.4,3.1,1.3s1.2,2.1,1.2,3.6
			v0.1c0,0.9-0.2,1.8-0.5,2.5c-0.4,0.7-0.9,1.3-1.5,1.7s-1.4,0.6-2.3,0.6c-1.3,0-2.3-0.4-3.1-1.3s-1.2-2.1-1.2-3.6V64.1z M765,64.3
			c0,1.1,0.2,1.9,0.7,2.5s1.1,1,2,1c0.8,0,1.5-0.3,2-1c0.5-0.6,0.7-1.6,0.7-2.7c0-1-0.2-1.9-0.7-2.5c-0.5-0.6-1.2-1-2-1
			c-0.8,0-1.5,0.3-1.9,1S765,63.1,765,64.3z"/>
		<path class="st0" d="M778.6,60.9c-0.2,0-0.5-0.1-0.8-0.1c-1.1,0-1.8,0.5-2.2,1.4v6.8H774v-9.5h1.6l0,1.1c0.5-0.8,1.3-1.3,2.3-1.3
			c0.3,0,0.6,0,0.7,0.1V60.9z"/>
		<path class="st0" d="M793,66.7l1.8-7.3h1.6l-2.8,9.5h-1.3l-2.3-7.2l-2.2,7.2h-1.3l-2.8-9.5h1.6l1.9,7.1l2.2-7.1h1.3L793,66.7z"/>
		<path class="st0" d="M798.1,56.9c0-0.3,0.1-0.5,0.2-0.7s0.4-0.3,0.7-0.3s0.6,0.1,0.7,0.3s0.2,0.4,0.2,0.7s-0.1,0.5-0.2,0.7
			s-0.4,0.3-0.7,0.3s-0.6-0.1-0.7-0.3S798.1,57.1,798.1,56.9z M799.9,68.9h-1.6v-9.5h1.6V68.9z"/>
		<path class="st0" d="M804.7,57.1v2.3h1.8v1.3h-1.8v5.9c0,0.4,0.1,0.7,0.2,0.9s0.4,0.3,0.8,0.3c0.2,0,0.4,0,0.8-0.1v1.3
			c-0.4,0.1-0.8,0.2-1.2,0.2c-0.7,0-1.3-0.2-1.6-0.7s-0.6-1.1-0.6-1.9v-5.9h-1.7v-1.3h1.7v-2.3H804.7z"/>
		<path class="st0" d="M810,60.6c0.7-0.9,1.7-1.3,2.8-1.3c2,0,3,1.1,3,3.4v6.3h-1.6v-6.3c0-0.7-0.2-1.2-0.5-1.5s-0.8-0.5-1.4-0.5
			c-0.5,0-1,0.1-1.4,0.4s-0.7,0.7-0.9,1.1v6.8h-1.6V55.4h1.6V60.6z"/>
		<path class="st0" d="M832.4,64.8c-0.2,1.4-0.7,2.4-1.5,3.1c-0.8,0.7-2,1.1-3.4,1.1c-1.5,0-2.7-0.5-3.6-1.6s-1.4-2.5-1.4-4.4v-1.2
			c0-1.2,0.2-2.2,0.6-3.1s1-1.6,1.8-2.1c0.8-0.5,1.7-0.7,2.7-0.7c1.4,0,2.4,0.4,3.3,1.1s1.3,1.8,1.4,3.2h-1.7c-0.1-1-0.5-1.8-1-2.2
			c-0.5-0.5-1.2-0.7-2.1-0.7c-1.1,0-1.9,0.4-2.5,1.2s-0.9,1.9-0.9,3.4v1.2c0,1.4,0.3,2.5,0.9,3.3s1.4,1.2,2.4,1.2
			c0.9,0,1.7-0.2,2.2-0.6c0.5-0.4,0.8-1.2,1-2.2H832.4z"/>
		<path class="st0" d="M834.7,68.9V56.1h3.6c1.1,0,2.1,0.2,3,0.7s1.5,1.2,2,2.1s0.7,2,0.7,3.1v0.8c0,1.2-0.2,2.3-0.7,3.2
			s-1.1,1.6-2,2.1s-1.9,0.7-3,0.7H834.7z M836.4,57.5v10h1.8c1.3,0,2.3-0.4,3-1.2s1.1-2,1.1-3.5v-0.7c0-1.5-0.3-2.6-1-3.4
			c-0.7-0.8-1.7-1.2-2.9-1.2H836.4z"/>
		<path class="st0" d="M852.9,64.6h1.8v1.3h-1.8v3h-1.6v-3h-5.8v-1l5.7-8.9h1.7V64.6z M847.3,64.6h4v-6.3l-0.2,0.4L847.3,64.6z"/>
		<path class="st0" d="M864.2,63.5c0,1.9-0.3,3.3-1,4.2s-1.7,1.4-3,1.4c-1.4,0-2.4-0.5-3-1.4c-0.7-0.9-1-2.3-1-4.1v-2.2
			c0-1.9,0.3-3.3,1-4.2s1.7-1.4,3.1-1.4c1.4,0,2.4,0.4,3,1.3c0.7,0.9,1,2.2,1,4.1V63.5z M862.6,61.2c0-1.4-0.2-2.4-0.6-3
			s-1-0.9-1.8-0.9c-0.8,0-1.4,0.3-1.8,0.9s-0.6,1.6-0.6,2.9v2.6c0,1.4,0.2,2.4,0.6,3.1c0.4,0.7,1,1,1.8,1c0.8,0,1.4-0.3,1.8-0.9
			s0.6-1.6,0.6-2.9V61.2z"/>
		<path class="st0" d="M871.6,68.9H870V58.1l-3.3,1.2v-1.5l4.7-1.7h0.3V68.9z"/>
		<path class="st0" d="M884.4,63.5c0,1.9-0.3,3.3-1,4.2s-1.7,1.4-3,1.4c-1.4,0-2.4-0.5-3-1.4c-0.7-0.9-1-2.3-1-4.1v-2.2
			c0-1.9,0.3-3.3,1-4.2s1.7-1.4,3.1-1.4c1.4,0,2.4,0.4,3,1.3c0.7,0.9,1,2.2,1,4.1V63.5z M882.8,61.2c0-1.4-0.2-2.4-0.6-3
			s-1-0.9-1.8-0.9c-0.8,0-1.4,0.3-1.8,0.9s-0.6,1.6-0.6,2.9v2.6c0,1.4,0.2,2.4,0.6,3.1c0.4,0.7,1,1,1.8,1c0.8,0,1.4-0.3,1.8-0.9
			s0.6-1.6,0.6-2.9V61.2z"/>
		<path class="st0" d="M892.9,56.1v1.4h-0.3c-1.3,0-2.3,0.4-3,1.1s-1.2,1.7-1.3,3.1c0.7-0.8,1.6-1.2,2.8-1.2c1.1,0,2,0.4,2.7,1.2
			s1,1.8,1,3c0,1.3-0.4,2.4-1.1,3.2s-1.7,1.2-2.9,1.2c-1.2,0-2.2-0.5-3-1.4c-0.8-0.9-1.1-2.2-1.1-3.6v-0.6c0-2.4,0.5-4.2,1.5-5.4
			c1-1.2,2.5-1.9,4.5-1.9H892.9z M890.7,61.9c-0.6,0-1.1,0.2-1.5,0.5s-0.8,0.8-1,1.3v0.6c0,1.1,0.2,1.9,0.7,2.5s1.1,1,1.8,1
			c0.7,0,1.3-0.3,1.7-0.8s0.6-1.2,0.6-2.1c0-0.9-0.2-1.6-0.6-2.1S891.4,61.9,890.7,61.9z"/>
	</g>
	<g class="st5">
		<path class="st0" d="M735.7,210.3h6.1v1.4H734v-12.8h1.7V210.3z"/>
		<path class="st0" d="M743.7,211.7v-12.8h3.6c1.1,0,2.1,0.2,3,0.7s1.5,1.2,2,2.1s0.7,2,0.7,3.1v0.8c0,1.2-0.2,2.3-0.7,3.2
			s-1.1,1.6-2,2.1s-1.9,0.7-3,0.7H743.7z M745.4,200.3v10h1.8c1.3,0,2.3-0.4,3-1.2s1.1-2,1.1-3.5v-0.7c0-1.5-0.3-2.6-1-3.4
			c-0.7-0.8-1.7-1.2-2.9-1.2H745.4z"/>
		<path class="st0" d="M760.2,206.5h-3v5.2h-1.7v-12.8h4.2c1.4,0,2.6,0.3,3.3,1s1.2,1.6,1.2,2.9c0,0.8-0.2,1.5-0.6,2.1s-1,1-1.8,1.3
			l3,5.4v0.1H763L760.2,206.5z M757.2,205.1h2.6c0.8,0,1.5-0.2,2-0.7s0.7-1,0.7-1.7c0-0.8-0.2-1.4-0.7-1.8s-1.2-0.6-2-0.6h-2.6
			V205.1z"/>
	</g>
	<g class="st5">
		<path class="st0" d="M655.7,432.3c-0.2,1.4-0.7,2.4-1.5,3.1c-0.8,0.7-2,1.1-3.4,1.1c-1.5,0-2.7-0.5-3.6-1.6s-1.4-2.5-1.4-4.4v-1.2
			c0-1.2,0.2-2.2,0.6-3.1s1-1.6,1.8-2.1c0.8-0.5,1.7-0.7,2.7-0.7c1.4,0,2.4,0.4,3.3,1.1s1.3,1.8,1.4,3.2H654c-0.1-1-0.5-1.8-1-2.2
			c-0.5-0.5-1.2-0.7-2.1-0.7c-1.1,0-1.9,0.4-2.5,1.2s-0.9,1.9-0.9,3.4v1.2c0,1.4,0.3,2.5,0.9,3.3s1.4,1.2,2.4,1.2
			c0.9,0,1.7-0.2,2.2-0.6c0.5-0.4,0.8-1.2,1-2.2H655.7z"/>
	</g>
	<g class="st5">
		<path class="st0" d="M977.6,301.6l3.7-10.6h1.8l-4.7,12.8h-1.5l-4.7-12.8h1.8L977.6,301.6z"/>
	</g>
	<g class="st5">
		<path class="st0" d="M990.9,299.8c0,0.8-0.1,1.6-0.4,2.2s-0.7,1.1-1.2,1.4s-1.1,0.5-1.8,0.5c-0.7,0-1.3-0.2-1.8-0.5
			s-0.9-0.8-1.2-1.4s-0.4-1.3-0.4-2.1v-0.6c0-0.8,0.1-1.5,0.4-2.2s0.7-1.1,1.2-1.4s1.1-0.5,1.8-0.5c0.7,0,1.3,0.2,1.8,0.5
			s0.9,0.8,1.2,1.4s0.4,1.4,0.4,2.2V299.8z M989.8,299.3c0-1-0.2-1.8-0.6-2.3s-1-0.8-1.7-0.8c-0.7,0-1.3,0.3-1.7,0.8
			s-0.6,1.3-0.6,2.3v0.6c0,1,0.2,1.8,0.6,2.3s1,0.8,1.7,0.8c0.7,0,1.3-0.3,1.7-0.8s0.6-1.3,0.6-2.3V299.3z"/>
		<path class="st0" d="M998.6,295.3v5.8c0,0.8-0.3,1.5-0.8,2s-1.2,0.8-2,0.9l-0.3,0c-0.9,0-1.7-0.3-2.2-0.8s-0.8-1.2-0.8-2.1v-5.8
			h1.1v5.8c0,0.6,0.2,1.1,0.5,1.4s0.8,0.5,1.5,0.5c0.6,0,1.1-0.2,1.5-0.5s0.5-0.8,0.5-1.4v-5.8H998.6z"/>
	</g>
	<g class="st5">
		<path class="st0" d="M1006.3,296.2h-2.7v7.6h-1.1v-7.6h-2.7v-0.9h6.6V296.2z"/>
	</g>
	<g class="st5">
		<path class="st0" d="M781.8,364.3h-1.6v-10.8l-3.3,1.2v-1.5l4.7-1.7h0.3V364.3z"/>
		<path class="st0" d="M787.1,365.4h-1.4l5.3-13.9h1.4L787.1,365.4z"/>
		<path class="st0" d="M800.4,351.5v1.4h-0.3c-1.3,0-2.3,0.4-3,1.1s-1.2,1.7-1.3,3.1c0.7-0.8,1.6-1.2,2.8-1.2c1.1,0,2,0.4,2.7,1.2
			s1,1.8,1,3c0,1.3-0.4,2.4-1.1,3.2s-1.7,1.2-2.9,1.2c-1.2,0-2.2-0.5-3-1.4c-0.8-0.9-1.1-2.2-1.1-3.6v-0.6c0-2.4,0.5-4.2,1.5-5.4
			c1-1.2,2.5-1.9,4.5-1.9H800.4z M798.2,357.3c-0.6,0-1.1,0.2-1.5,0.5s-0.8,0.8-1,1.3v0.6c0,1.1,0.2,1.9,0.7,2.5s1.1,1,1.8,1
			c0.7,0,1.3-0.3,1.7-0.8s0.6-1.2,0.6-2.1c0-0.9-0.2-1.6-0.6-2.1S798.9,357.3,798.2,357.3z"/>
		<path class="st0" d="M818.4,360.3c-0.2,1.4-0.7,2.4-1.5,3.1c-0.8,0.7-2,1.1-3.4,1.1c-1.5,0-2.7-0.5-3.6-1.6s-1.4-2.5-1.4-4.4v-1.2
			c0-1.2,0.2-2.2,0.6-3.1s1-1.6,1.8-2.1c0.8-0.5,1.7-0.7,2.7-0.7c1.4,0,2.4,0.4,3.3,1.1s1.3,1.8,1.4,3.2h-1.7c-0.1-1-0.5-1.8-1-2.2
			c-0.5-0.5-1.2-0.7-2.1-0.7c-1.1,0-1.9,0.4-2.5,1.2s-0.9,1.9-0.9,3.4v1.2c0,1.4,0.3,2.5,0.9,3.3s1.4,1.2,2.4,1.2
			c0.9,0,1.7-0.2,2.2-0.6c0.5-0.4,0.8-1.2,1-2.2H818.4z"/>
		<path class="st0" d="M820.7,364.3v-12.8h3.6c1.1,0,2.1,0.2,3,0.7s1.5,1.2,2,2.1s0.7,2,0.7,3.1v0.8c0,1.2-0.2,2.3-0.7,3.2
			s-1.1,1.6-2,2.1s-1.9,0.7-3,0.7H820.7z M822.4,352.9v10h1.8c1.3,0,2.3-0.4,3-1.2s1.1-2,1.1-3.5v-0.7c0-1.5-0.3-2.6-1-3.4
			c-0.7-0.8-1.7-1.2-2.9-1.2H822.4z"/>
		<path class="st0" d="M838.9,360h1.8v1.3h-1.8v3h-1.6v-3h-5.8v-1l5.7-8.9h1.7V360z M833.3,360h4v-6.3l-0.2,0.4L833.3,360z"/>
		<path class="st0" d="M850.2,358.9c0,1.9-0.3,3.3-1,4.2s-1.7,1.4-3,1.4c-1.4,0-2.4-0.5-3-1.4c-0.7-0.9-1-2.3-1-4.1v-2.2
			c0-1.9,0.3-3.3,1-4.2s1.7-1.4,3.1-1.4c1.4,0,2.4,0.4,3,1.3c0.7,0.9,1,2.2,1,4.1V358.9z M848.6,356.6c0-1.4-0.2-2.4-0.6-3
			s-1-0.9-1.8-0.9c-0.8,0-1.4,0.3-1.8,0.9s-0.6,1.6-0.6,2.9v2.6c0,1.4,0.2,2.4,0.6,3.1c0.4,0.7,1,1,1.8,1c0.8,0,1.4-0.3,1.8-0.9
			s0.6-1.6,0.6-2.9V356.6z"/>
		<path class="st0" d="M857.6,364.3H856v-10.8l-3.3,1.2v-1.5l4.7-1.7h0.3V364.3z"/>
		<path class="st0" d="M870.4,358.9c0,1.9-0.3,3.3-1,4.2s-1.7,1.4-3,1.4c-1.4,0-2.4-0.5-3-1.4c-0.7-0.9-1-2.3-1-4.1v-2.2
			c0-1.9,0.3-3.3,1-4.2s1.7-1.4,3.1-1.4c1.4,0,2.4,0.4,3,1.3c0.7,0.9,1,2.2,1,4.1V358.9z M868.8,356.6c0-1.4-0.2-2.4-0.6-3
			s-1-0.9-1.8-0.9c-0.8,0-1.4,0.3-1.8,0.9s-0.6,1.6-0.6,2.9v2.6c0,1.4,0.2,2.4,0.6,3.1c0.4,0.7,1,1,1.8,1c0.8,0,1.4-0.3,1.8-0.9
			s0.6-1.6,0.6-2.9V356.6z"/>
		<path class="st0" d="M878.9,351.5v1.4h-0.3c-1.3,0-2.3,0.4-3,1.1s-1.2,1.7-1.3,3.1c0.7-0.8,1.6-1.2,2.8-1.2c1.1,0,2,0.4,2.7,1.2
			s1,1.8,1,3c0,1.3-0.4,2.4-1.1,3.2s-1.7,1.2-2.9,1.2c-1.2,0-2.2-0.5-3-1.4c-0.8-0.9-1.1-2.2-1.1-3.6v-0.6c0-2.4,0.5-4.2,1.5-5.4
			c1-1.2,2.5-1.9,4.5-1.9H878.9z M876.7,357.3c-0.6,0-1.1,0.2-1.5,0.5s-0.8,0.8-1,1.3v0.6c0,1.1,0.2,1.9,0.7,2.5s1.1,1,1.8,1
			c0.7,0,1.3-0.3,1.7-0.8s0.6-1.2,0.6-2.1c0-0.9-0.2-1.6-0.6-2.1S877.5,357.3,876.7,357.3z"/>
	</g>
	<g class="st5">
		<path class="st0" d="M750.4,241.8l3.7-10.6h1.8l-4.7,12.8h-1.5l-4.7-12.8h1.8L750.4,241.8z"/>
	</g>
	<g class="st5">
		<path class="st0" d="M757,250.1v-7.4h2.1c0.6,0,1.2,0.1,1.7,0.4c0.5,0.3,0.9,0.7,1.2,1.2c0.3,0.5,0.4,1.1,0.4,1.8v0.5
			c0,0.7-0.1,1.3-0.4,1.8s-0.7,0.9-1.2,1.2c-0.5,0.3-1.1,0.4-1.8,0.4H757z M758,243.4v5.8h1c0.8,0,1.3-0.2,1.8-0.7
			c0.4-0.5,0.6-1.1,0.6-2v-0.4c0-0.8-0.2-1.5-0.6-2s-1-0.7-1.7-0.7H758z"/>
		<path class="st0" d="M763.8,250.1v-7.4h2.1c0.6,0,1.2,0.1,1.7,0.4c0.5,0.3,0.9,0.7,1.1,1.2c0.3,0.5,0.4,1.1,0.4,1.8v0.5
			c0,0.7-0.1,1.3-0.4,1.8c-0.3,0.5-0.7,0.9-1.2,1.2c-0.5,0.3-1.1,0.4-1.8,0.4H763.8z M764.8,243.4v5.8h1c0.8,0,1.3-0.2,1.8-0.7
			s0.6-1.1,0.6-2v-0.4c0-0.8-0.2-1.5-0.6-2c-0.4-0.5-1-0.7-1.7-0.7H764.8z"/>
	</g>
	<g class="st5">
		<path class="st0" d="M657.8,317.3h-1.6v-10.8l-3.3,1.2v-1.5l4.7-1.7h0.3V317.3z"/>
	</g>
	<g class="st5">
		<path class="st0" d="M810.6,308.7h-8.4v-1.2l4.4-4.9c0.7-0.7,1.1-1.3,1.4-1.8c0.2-0.5,0.4-0.9,0.4-1.4c0-0.7-0.2-1.2-0.6-1.6
			s-0.9-0.6-1.6-0.6c-0.8,0-1.4,0.2-1.9,0.7c-0.4,0.5-0.7,1.1-0.7,1.9H802c0-1.2,0.4-2.1,1.1-2.9c0.8-0.7,1.8-1.1,3-1.1
			c1.2,0,2.1,0.3,2.8,0.9c0.7,0.6,1,1.5,1,2.5c0,1.3-0.8,2.8-2.4,4.5l-3.4,3.7h6.4V308.7z"/>
	</g>
	<g class="st5">
		<path class="st0" d="M750,284.2h-1.6v-10.8l-3.3,1.2v-1.5l4.7-1.7h0.3V284.2z"/>
		<path class="st0" d="M761.6,279.9h1.8v1.3h-1.8v3H760v-3h-5.8v-1l5.7-8.9h1.7V279.9z M756,279.9h4v-6.3l-0.2,0.4L756,279.9z"/>
	</g>
	<g class="st5">
		<path class="st0" d="M751.5,361.6l-5.3,11.9h-1.7l5.3-11.5h-6.9v-1.3h8.6V361.6z"/>
	</g>
	<g class="st5">
		<path class="st0" d="M622.5,552c-0.4,0.6-1,1.1-1.8,1.4c-0.8,0.3-1.7,0.5-2.7,0.5c-1,0-2-0.2-2.8-0.7c-0.8-0.5-1.4-1.2-1.9-2.1
			s-0.7-1.9-0.7-3.1v-1.1c0-1.9,0.5-3.4,1.3-4.5s2.2-1.6,3.8-1.6c1.3,0,2.4,0.3,3.2,1c0.8,0.7,1.3,1.7,1.5,2.9h-1.7
			c-0.3-1.7-1.3-2.5-3-2.5c-1.1,0-2,0.4-2.6,1.2c-0.6,0.8-0.9,1.9-0.9,3.5v1c0,1.4,0.3,2.6,1,3.4c0.7,0.8,1.5,1.3,2.7,1.3
			c0.6,0,1.2-0.1,1.7-0.2c0.5-0.1,0.9-0.4,1.2-0.7v-2.9h-3v-1.4h4.6V552z"/>
		<path class="st0" d="M635.1,553.7h-1.7l-6.4-9.9v9.9h-1.7v-12.8h1.7l6.5,9.9v-9.9h1.7V553.7z"/>
		<path class="st0" d="M638.1,553.7v-12.8h3.6c1.1,0,2.1,0.2,3,0.7s1.5,1.2,2,2.1s0.7,2,0.7,3.1v0.8c0,1.2-0.2,2.3-0.7,3.2
			s-1.1,1.6-2,2.1s-1.9,0.7-3,0.7H638.1z M639.8,542.3v10h1.8c1.3,0,2.3-0.4,3-1.2s1.1-2,1.1-3.5v-0.7c0-1.5-0.3-2.6-1-3.4
			c-0.7-0.8-1.7-1.2-2.9-1.2H639.8z"/>
	</g>
	<g class="st5">
		<path class="st0" d="M759.3,429.6c-0.4,0.6-1,1.1-1.8,1.4c-0.8,0.3-1.7,0.5-2.7,0.5c-1,0-2-0.2-2.8-0.7c-0.8-0.5-1.4-1.2-1.9-2.1
			s-0.7-1.9-0.7-3.1v-1.1c0-1.9,0.5-3.4,1.3-4.5s2.2-1.6,3.8-1.6c1.3,0,2.4,0.3,3.2,1c0.8,0.7,1.3,1.7,1.5,2.9h-1.7
			c-0.3-1.7-1.3-2.5-3-2.5c-1.1,0-2,0.4-2.6,1.2c-0.6,0.8-0.9,1.9-0.9,3.5v1c0,1.4,0.3,2.6,1,3.4c0.7,0.8,1.5,1.3,2.7,1.3
			c0.6,0,1.2-0.1,1.7-0.2c0.5-0.1,0.9-0.4,1.2-0.7v-2.9h-3v-1.4h4.6V429.6z"/>
		<path class="st0" d="M771.9,431.3h-1.7l-6.4-9.9v9.9h-1.7v-12.8h1.7l6.5,9.9v-9.9h1.7V431.3z"/>
		<path class="st0" d="M774.9,431.3v-12.8h3.6c1.1,0,2.1,0.2,3,0.7s1.5,1.2,2,2.1s0.7,2,0.7,3.1v0.8c0,1.2-0.2,2.3-0.7,3.2
			s-1.1,1.6-2,2.1s-1.9,0.7-3,0.7H774.9z M776.6,419.9v10h1.8c1.3,0,2.3-0.4,3-1.2s1.1-2,1.1-3.5v-0.7c0-1.5-0.3-2.6-1-3.4
			c-0.7-0.8-1.7-1.2-2.9-1.2H776.6z"/>
	</g>
	<g class="st5">
		<path class="st0" d="M266.5,523h-7.3v-1.4h7.3V523z M266.5,526.6h-7.3v-1.4h7.3V526.6z"/>
	</g>
</g>
</svg>
