<?xml version="1.0" encoding="utf-8"?>
<!-- Generator: Adobe Illustrator 27.4.1, SVG Export Plug-In . SVG Version: 6.00 Build 0)  -->
<svg version="1.1" xmlns="http://www.w3.org/2000/svg" xmlns:xlink="http://www.w3.org/1999/xlink" x="0px" y="0px"
	 viewBox="0 0 1080 600.5" style="enable-background:new 0 0 1080 600.5;" xml:space="preserve">
<style type="text/css">
	.st0{fill:none;stroke:#0D1117;stroke-width:1.98;stroke-miterlimit:10;}
	.st1{fill:none;stroke:#0D1117;stroke-width:2;stroke-miterlimit:10;}
	.st2{fill:#0D1117;}
	.st3{fill:none;stroke:#0D1117;stroke-miterlimit:10;}
	.st4{fill:none;stroke:#0D1117;stroke-miterlimit:10;stroke-dasharray:0,0,3.96,3.96;}
	.st5{fill:#FFFFFF;}
	.st6{fill:none;stroke:#0D1117;stroke-miterlimit:10;stroke-dasharray:0,0,5.97,5.97;}
	.st7{enable-background:new    ;}
</style>
<g id="Ebene_1">
	<g id="Ebene_1_00000010288980842110715070000012314258623840592314_">
		<polygon class="st0" points="288,550.1 302.4,550.1 295.2,559.1 288,568.1 280.8,559.1 273.6,550.1 		"/>
		<rect x="802.8" y="456.5" class="st0" width="21.6" height="72"/>
	</g>
	<g id="Text">
		<rect x="205.2" y="53.3" class="st1" width="172.8" height="453.6"/>
		<g>
			<line class="st1" x1="57.6" y1="276.5" x2="202.7" y2="276.5"/>
			<polygon class="st2" points="192.7,288.8 190.7,286.5 201.5,276.5 190.7,266.4 192.7,264.2 205.9,276.5 			"/>
		</g>
		<g>
			<line class="st1" x1="56.9" y1="218.9" x2="201.9" y2="218.9"/>
			<polygon class="st2" points="192,231.1 190,228.9 200.8,218.9 190,208.8 192,206.6 205.2,218.9 			"/>
		</g>
		<g>
			<line class="st1" x1="291.6" y1="53.3" x2="291.6" y2="12.8"/>
			<polygon class="st2" points="301.1,30.5 298.3,31.6 291.6,13.1 284.9,31.6 282.1,30.5 291.6,4.3 			"/>
		</g>
		<line class="st1" x1="288" y1="506.9" x2="288" y2="550.1"/>
		<g>
			<path class="st1" d="M572.8,560.9H421.2v-61.2H378"/>
			<polygon class="st2" points="562.8,548.6 560.8,550.8 571.6,560.9 560.8,571 562.8,573.2 576,560.9 			"/>
		</g>
		<rect x="576" y="125.3" class="st1" width="172.8" height="403.2"/>
		<g>
			<line class="st1" x1="864" y1="154.1" x2="751" y2="154.1"/>
			<polygon class="st2" points="757.6,145.9 759,147.4 751.7,154.1 759,160.8 757.6,162.3 748.8,154.1 			"/>
		</g>
		<g>
			<line class="st1" x1="864" y1="197.3" x2="751" y2="197.3"/>
			<polygon class="st2" points="757.6,189.1 759,190.6 751.7,197.3 759,204 757.6,205.5 748.8,197.3 			"/>
		</g>
		<g>
			<line class="st1" x1="864" y1="240.5" x2="751" y2="240.5"/>
			<polygon class="st2" points="757.6,232.3 759,233.8 751.7,240.5 759,247.2 757.6,248.7 748.8,240.5 			"/>
		</g>
		<g>
			<line class="st1" x1="662.4" y1="125.3" x2="662.4" y2="84.8"/>
			<polygon class="st2" points="671.9,102.5 669.1,103.6 662.4,85.1 655.7,103.6 652.9,102.5 662.4,76.3 			"/>
		</g>
		<line class="st1" x1="698.4" y1="528.5" x2="698.4" y2="571.7"/>
		<g>
			<line class="st1" x1="896.4" y1="438.5" x2="751" y2="438.5"/>
			<polygon class="st2" points="757.6,430.3 759,431.8 751.7,438.5 759,445.2 757.6,446.7 748.8,438.5 			"/>
		</g>
		<g>
			<path class="st3" d="M678.6,268.2c-0.5,0.5-0.9,1-1.4,1.4"/>
			<path class="st4" d="M674.6,272.6c-14.8,18.8-14.4,45.6,1.2,63.9"/>
			<path class="st3" d="M677.2,338c0.5,0.5,0.9,1,1.4,1.4"/>
		</g>
		<line class="st3" x1="650.9" y1="374.4" x2="576" y2="456.5"/>
		<line class="st3" x1="576" y1="413.3" x2="639.4" y2="362.9"/>
		<line class="st3" x1="576" y1="370.1" x2="629.3" y2="345.6"/>
		<line class="st3" x1="576" y1="326.9" x2="620.6" y2="319.7"/>
		<line class="st3" x1="576" y1="283.7" x2="620.6" y2="290.9"/>
		<line class="st3" x1="576" y1="240.5" x2="627.8" y2="265"/>
		<line class="st3" x1="576" y1="197.3" x2="639.4" y2="246.2"/>
		<line class="st3" x1="576" y1="154.1" x2="649.4" y2="234.7"/>
		<g>
			<line class="st3" x1="662.8" y1="374.4" x2="650.9" y2="374.4"/>
			<g>
				<circle class="st5" cx="662.7" cy="374.4" r="2.3"/>
				<path class="st2" d="M662.7,371.8c-1.4,0-2.6,1.1-2.6,2.6s1.2,2.6,2.6,2.6s2.6-1.1,2.6-2.6S664.1,371.8,662.7,371.8
					S664.1,371.8,662.7,371.8z M662.7,376.4c-1.1,0-2-0.9-2-2s0.9-2,2-2s2,0.9,2,2S663.8,376.4,662.7,376.4S663.8,376.4,662.7,376.4
					z"/>
			</g>
		</g>
		<g>
			<line class="st3" x1="651.3" y1="362.9" x2="639.4" y2="362.9"/>
			<g>
				<circle class="st5" cx="651.2" cy="362.9" r="2.3"/>
				<path class="st2" d="M651.2,360.3c-1.4,0-2.6,1.1-2.6,2.6s1.2,2.6,2.6,2.6s2.6-1.1,2.6-2.6S652.6,360.3,651.2,360.3
					S652.6,360.3,651.2,360.3z M651.2,364.8c-1.1,0-2-0.9-2-2s0.9-2,2-2s2,0.9,2,2S652.3,364.8,651.2,364.8S652.3,364.8,651.2,364.8
					z"/>
			</g>
		</g>
		<g>
			<line class="st3" x1="639.8" y1="345.6" x2="627.8" y2="345.6"/>
			<g>
				<path class="st5" d="M639.7,343.3c1.2,0,2.3,1,2.3,2.3s-1,2.3-2.3,2.3s-2.3-1-2.3-2.3S638.4,343.3,639.7,343.3z"/>
				<path class="st2" d="M639.7,343c-1.4,0-2.6,1.1-2.6,2.6s1.2,2.6,2.6,2.6s2.6-1.1,2.6-2.6S641.1,343,639.7,343
					S641.1,343,639.7,343z M639.7,347.6c-1.1,0-2-0.9-2-2s0.9-2,2-2s2,0.9,2,2S640.8,347.6,639.7,347.6S640.8,347.6,639.7,347.6z"/>
			</g>
		</g>
		<g>
			<line class="st3" x1="632.6" y1="319.7" x2="620.6" y2="319.7"/>
			<g>
				<path class="st5" d="M632.5,317.4c1.2,0,2.3,1,2.3,2.3s-1,2.3-2.3,2.3s-2.3-1-2.3-2.3S631.2,317.4,632.5,317.4z"/>
				<path class="st2" d="M632.5,317.1c-1.4,0-2.6,1.1-2.6,2.6s1.2,2.6,2.6,2.6s2.6-1.1,2.6-2.6S633.9,317.1,632.5,317.1
					S633.9,317.1,632.5,317.1z M632.5,321.6c-1.1,0-2-0.9-2-2s0.9-2,2-2s2,0.9,2,2S633.6,321.6,632.5,321.6S633.6,321.6,632.5,321.6
					z"/>
			</g>
		</g>
		<g>
			<line class="st3" x1="632.6" y1="290.9" x2="620.6" y2="290.9"/>
			<g>
				<path class="st5" d="M632.5,288.6c1.2,0,2.3,1,2.3,2.3s-1,2.3-2.3,2.3s-2.3-1-2.3-2.3S631.2,288.6,632.5,288.6z"/>
				<path class="st2" d="M632.5,288.3c-1.4,0-2.6,1.1-2.6,2.6s1.2,2.6,2.6,2.6s2.6-1.1,2.6-2.6S633.9,288.3,632.5,288.3
					S633.9,288.3,632.5,288.3z M632.5,292.8c-1.1,0-2-0.9-2-2s0.9-2,2-2s2,0.9,2,2S633.6,292.8,632.5,292.8S633.6,292.8,632.5,292.8
					z"/>
			</g>
		</g>
		<g>
			<line class="st3" x1="639.8" y1="265" x2="627.8" y2="265"/>
			<g>
				<path class="st5" d="M639.7,262.7c1.2,0,2.3,1,2.3,2.3s-1,2.3-2.3,2.3s-2.3-1-2.3-2.3S638.4,262.7,639.7,262.7z"/>
				<path class="st2" d="M639.7,262.4c-1.4,0-2.6,1.1-2.6,2.6s1.2,2.6,2.6,2.6s2.6-1.1,2.6-2.6S641.1,262.4,639.7,262.4
					S641.1,262.4,639.7,262.4z M639.7,266.9c-1.1,0-2-0.9-2-2s0.9-2,2-2s2,0.9,2,2S640.8,266.9,639.7,266.9S640.8,266.9,639.7,266.9
					z"/>
			</g>
		</g>
		<g>
			<line class="st3" x1="651.3" y1="246.2" x2="639.4" y2="246.2"/>
			<g>
				<circle class="st5" cx="651.2" cy="246.2" r="2.3"/>
				<path class="st2" d="M651.2,243.7c-1.4,0-2.6,1.1-2.6,2.6s1.2,2.6,2.6,2.6s2.6-1.1,2.6-2.6S652.6,243.7,651.2,243.7
					S652.6,243.7,651.2,243.7z M651.2,248.2c-1.1,0-2-0.9-2-2s0.9-2,2-2s2,0.9,2,2S652.3,248.2,651.2,248.2S652.3,248.2,651.2,248.2
					z"/>
			</g>
		</g>
		<g>
			<line class="st3" x1="661.4" y1="234.7" x2="649.4" y2="234.7"/>
			<g>
				<circle class="st5" cx="661.3" cy="234.7" r="2.3"/>
				<path class="st2" d="M661.3,232.2c-1.4,0-2.6,1.1-2.6,2.6s1.2,2.6,2.6,2.6s2.6-1.1,2.6-2.6S662.7,232.2,661.3,232.2
					S662.7,232.2,661.3,232.2z M661.3,236.7c-1.1,0-2-0.9-2-2s0.9-2,2-2s2,0.9,2,2S662.4,236.7,661.3,236.7S662.4,236.7,661.3,236.7
					z"/>
			</g>
		</g>
		<line class="st3" x1="748.8" y1="305.3" x2="741.6" y2="305.3"/>
		<line class="st3" x1="663.8" y1="234.7" x2="712.8" y2="305.3"/>
		<line class="st3" x1="718.2" y1="308.9" x2="741.6" y2="305.3"/>
		<g>
			<line class="st3" x1="732.6" y1="307.1" x2="732.6" y2="310.1"/>
			<line class="st6" x1="732.6" y1="316" x2="732.6" y2="432.5"/>
			<line class="st3" x1="732.6" y1="435.5" x2="732.6" y2="438.5"/>
		</g>
		<line class="st1" x1="748.8" y1="438.5" x2="733" y2="438.5"/>
		<line class="st1" x1="637.2" y1="528.5" x2="637.2" y2="571.7"/>
		<polygon class="st0" points="698.4,571.7 712.8,571.7 705.6,580.7 698.4,589.7 691.2,580.7 684,571.7 		"/>
		<line class="st1" x1="378" y1="154.1" x2="576" y2="154.1"/>
		<line class="st1" x1="378" y1="197.3" x2="576" y2="197.3"/>
		<line class="st1" x1="378" y1="240.5" x2="576" y2="240.5"/>
		<line class="st1" x1="378" y1="283.7" x2="576" y2="283.7"/>
		<line class="st1" x1="378" y1="326.9" x2="576" y2="326.9"/>
		<line class="st1" x1="378" y1="370.1" x2="576" y2="370.1"/>
		<line class="st1" x1="378" y1="413.3" x2="576" y2="413.3"/>
		<line class="st1" x1="378" y1="456.5" x2="576" y2="456.5"/>
		<g>
			<line class="st1" x1="378" y1="67.7" x2="573.8" y2="67.7"/>
			<polygon class="st2" points="567.2,75.9 565.8,74.4 573.1,67.7 565.8,61 567.2,59.5 576,67.7 			"/>
		</g>
		<line class="st1" x1="378" y1="110.9" x2="399.6" y2="110.9"/>
		<polygon class="st0" points="637.2,571.7 651.6,571.7 644.4,580.7 637.2,589.7 630,580.7 622.8,571.7 		"/>
		<line class="st1" x1="813.6" y1="528.5" x2="813.6" y2="571.7"/>
		<polygon class="st0" points="813.6,571.7 828,571.7 820.8,580.7 813.6,589.7 806.4,580.7 799.2,571.7 		"/>
		<line class="st1" x1="813.6" y1="438.5" x2="813.6" y2="456.5"/>
		<circle class="st1" cx="903.6" cy="438.5" r="7.2"/>
		<circle class="st1" cx="871.2" cy="154.1" r="7.2"/>
		<circle class="st1" cx="871.2" cy="197.3" r="7.2"/>
		<circle class="st1" cx="871.2" cy="240.5" r="7.2"/>
		<rect x="129.6" y="294.5" class="st0" width="21.6" height="72"/>
		<line class="st1" x1="140.4" y1="366.5" x2="140.4" y2="409.7"/>
		<polygon class="st0" points="140.4,409.7 126,409.7 133.2,418.7 140.4,427.7 147.6,418.7 154.8,409.7 		"/>
		<line class="st1" x1="140.4" y1="276.5" x2="140.4" y2="294.5"/>
		<circle class="st1" cx="50.4" cy="276.5" r="7.2"/>
		<circle class="st1" cx="50.4" cy="218.9" r="7.2"/>
		<circle class="st3" cx="718.2" cy="305.3" r="1.8"/>
		<line class="st3" x1="712.8" y1="305.3" x2="716.4" y2="305.3"/>
		<path class="st2" d="M741.6,303.5c-1,0-1.8,0.8-1.8,1.8s0.8,1.8,1.8,1.8s1.8-0.8,1.8-1.8S742.6,303.5,741.6,303.5L741.6,303.5z"/>
	</g>
	<polyline class="st1" points="748.8,305.3 936,305.3 936,596.9 72,596.9 72,456.5 205.2,456.5 	"/>
</g>
<g id="Ebene_2">
	<g class="st7">
		<path class="st2" d="M171.3,446.4h-1.6v-10.8l-3.3,1.2v-1.5l4.7-1.7h0.3V446.4z"/>
		<path class="st2" d="M176.8,440l0.7-6.4h6.6v1.5h-5.2l-0.4,3.5c0.6-0.4,1.3-0.6,2.1-0.6c1.2,0,2.1,0.4,2.8,1.2
			c0.7,0.8,1,1.8,1,3.1c0,1.3-0.4,2.4-1.1,3.1c-0.7,0.8-1.7,1.1-3,1.1c-1.1,0-2.1-0.3-2.8-0.9s-1.1-1.5-1.2-2.6h1.5
			c0.1,0.7,0.4,1.3,0.8,1.7s1,0.6,1.7,0.6c0.8,0,1.3-0.3,1.8-0.8s0.6-1.2,0.6-2.1c0-0.9-0.2-1.5-0.7-2.1c-0.5-0.5-1.1-0.8-1.9-0.8
			c-0.7,0-1.3,0.2-1.7,0.5l-0.4,0.4L176.8,440z"/>
	</g>
	<g class="st7">
		<path class="st2" d="M187.1,260.3h-1.6v-10.8l-3.3,1.2v-1.5l4.7-1.7h0.3V260.3z"/>
		<path class="st2" d="M194.2,253.1h1.2c0.8,0,1.4-0.2,1.8-0.6s0.7-0.9,0.7-1.6c0-1.5-0.7-2.2-2.2-2.2c-0.7,0-1.3,0.2-1.7,0.6
			c-0.4,0.4-0.6,0.9-0.6,1.6h-1.6c0-1,0.4-1.9,1.1-2.5c0.7-0.7,1.7-1,2.8-1c1.2,0,2.2,0.3,2.8,1s1,1.5,1,2.7c0,0.6-0.2,1.1-0.5,1.6
			s-0.9,0.9-1.5,1.2c0.7,0.2,1.2,0.6,1.6,1.1s0.6,1.1,0.6,1.9c0,1.1-0.4,2.1-1.1,2.7s-1.7,1-2.9,1s-2.2-0.3-2.9-1s-1.1-1.5-1.1-2.6
			h1.6c0,0.7,0.2,1.2,0.7,1.6s1,0.6,1.8,0.6c0.8,0,1.4-0.2,1.8-0.6s0.6-1,0.6-1.8c0-0.7-0.2-1.3-0.7-1.7s-1.1-0.6-2-0.6h-1.2V253.1z
			"/>
	</g>
	<g class="st7">
		<path class="st2" d="M187.1,204.5h-1.6v-10.8l-3.3,1.2v-1.5l4.7-1.7h0.3V204.5z"/>
		<path class="st2" d="M198.7,200.2h1.8v1.3h-1.8v3h-1.6v-3h-5.8v-1l5.7-8.9h1.7V200.2z M193.1,200.2h4v-6.3l-0.2,0.4L193.1,200.2z"
			/>
	</g>
	<g class="st7">
		<path class="st2" d="M391.3,166h1.8v1.3h-1.8v3h-1.6v-3h-5.8v-1l5.7-8.9h1.7V166z M385.7,166h4v-6.3l-0.2,0.4L385.7,166z"/>
	</g>
	<g class="st7">
		<path class="st2" d="M392.7,201.6l-5.3,11.9h-1.7L391,202h-6.9v-1.3h8.6V201.6z"/>
	</g>
	<g class="st7">
		<path class="st2" d="M389.8,256.7h-1.6v-10.8l-3.3,1.2v-1.5l4.7-1.7h0.3V256.7z"/>
		<path class="st2" d="M402.6,251.2c0,1.9-0.3,3.3-1,4.2s-1.7,1.4-3,1.4c-1.4,0-2.4-0.5-3-1.4c-0.7-0.9-1-2.3-1-4.1v-2.2
			c0-1.9,0.3-3.3,1-4.2s1.7-1.4,3.1-1.4c1.4,0,2.4,0.4,3,1.3c0.7,0.9,1,2.2,1,4.1V251.2z M401,249c0-1.4-0.2-2.4-0.6-3
			s-1-0.9-1.8-0.9c-0.8,0-1.4,0.3-1.8,0.9s-0.6,1.6-0.6,2.9v2.6c0,1.4,0.2,2.4,0.6,3.1c0.4,0.7,1,1,1.8,1c0.8,0,1.4-0.3,1.8-0.9
			s0.6-1.6,0.6-2.9V249z"/>
	</g>
	<g class="st7">
		<path class="st2" d="M389.8,299.9h-1.6V289l-3.3,1.2v-1.5l4.7-1.7h0.3V299.9z"/>
	</g>
	<g class="st7">
		<path class="st2" d="M385.2,336.7l0.7-6.4h6.6v1.5h-5.2l-0.4,3.5c0.6-0.4,1.3-0.6,2.1-0.6c1.2,0,2.1,0.4,2.8,1.2
			c0.7,0.8,1,1.8,1,3.1c0,1.3-0.4,2.4-1.1,3.1c-0.7,0.8-1.7,1.1-3,1.1c-1.1,0-2.1-0.3-2.8-0.9s-1.1-1.5-1.2-2.6h1.5
			c0.1,0.7,0.4,1.3,0.8,1.7s1,0.6,1.7,0.6c0.8,0,1.3-0.3,1.8-0.8s0.6-1.2,0.6-2.1c0-0.9-0.2-1.5-0.7-2.1c-0.5-0.5-1.1-0.8-1.9-0.8
			c-0.7,0-1.3,0.2-1.7,0.5l-0.4,0.4L385.2,336.7z"/>
	</g>
	<g class="st7">
		<path class="st2" d="M390.8,373.5v1.4h-0.3c-1.3,0-2.3,0.4-3,1.1s-1.2,1.7-1.3,3.1c0.7-0.8,1.6-1.2,2.8-1.2c1.1,0,2,0.4,2.7,1.2
			s1,1.8,1,3c0,1.3-0.4,2.4-1.1,3.2s-1.7,1.2-2.9,1.2c-1.2,0-2.2-0.5-3-1.4c-0.8-0.9-1.1-2.2-1.1-3.6v-0.6c0-2.4,0.5-4.2,1.5-5.4
			c1-1.2,2.5-1.9,4.5-1.9H390.8z M388.7,379.2c-0.6,0-1.1,0.2-1.5,0.5s-0.8,0.8-1,1.3v0.6c0,1.1,0.2,1.9,0.7,2.5s1.1,1,1.8,1
			c0.7,0,1.3-0.3,1.7-0.8s0.6-1.2,0.6-2.1c0-0.9-0.2-1.6-0.6-2.1S389.4,379.2,388.7,379.2z"/>
	</g>
	<g class="st7">
		<path class="st2" d="M390.7,423.9c-0.3,0.4-0.7,0.7-1.2,1s-1,0.4-1.6,0.4c-0.7,0-1.4-0.2-1.9-0.5s-1-0.9-1.3-1.5
			c-0.3-0.7-0.4-1.4-0.4-2.2c0-0.9,0.2-1.6,0.5-2.3s0.8-1.2,1.4-1.6s1.3-0.5,2.1-0.5c1.3,0,2.3,0.5,3,1.4c0.7,0.9,1.1,2.2,1.1,3.9
			v0.5c0,2.5-0.5,4.3-1.5,5.5c-1,1.1-2.5,1.7-4.5,1.8h-0.3v-1.4h0.3c1.3,0,2.4-0.4,3.1-1S390.6,425.3,390.7,423.9z M388.2,423.9
			c0.5,0,1-0.2,1.5-0.5s0.8-0.7,1-1.2v-0.7c0-1.1-0.2-1.9-0.7-2.6s-1-1-1.8-1c-0.7,0-1.3,0.3-1.7,0.8c-0.4,0.5-0.7,1.3-0.7,2.2
			c0,0.9,0.2,1.6,0.6,2.2C386.9,423.6,387.5,423.9,388.2,423.9z"/>
	</g>
	<g class="st7">
		<path class="st2" d="M389.8,472.7h-1.6v-10.8l-3.3,1.2v-1.5l4.7-1.7h0.3V472.7z"/>
		<path class="st2" d="M399.9,472.7h-1.6v-10.8L395,463v-1.5l4.7-1.7h0.3V472.7z"/>
	</g>
	<g class="st7">
		<path class="st2" d="M389.8,515.9h-1.6V505l-3.3,1.2v-1.5l4.7-1.7h0.3V515.9z"/>
		<path class="st2" d="M403,515.9h-8.4v-1.2l4.4-4.9c0.7-0.7,1.1-1.3,1.4-1.8c0.2-0.5,0.4-0.9,0.4-1.4c0-0.7-0.2-1.2-0.6-1.6
			s-0.9-0.6-1.6-0.6c-0.8,0-1.4,0.2-1.9,0.7c-0.4,0.5-0.7,1.1-0.7,1.9h-1.6c0-1.2,0.4-2.1,1.1-2.9s1.8-1.1,3-1.1
			c1.2,0,2.1,0.3,2.8,0.9c0.7,0.6,1,1.5,1,2.5c0,1.3-0.8,2.8-2.4,4.5l-3.4,3.7h6.4V515.9z"/>
	</g>
	<g class="st7">
		<path class="st2" d="M312.6,568l3.7-10.6h1.8l-4.7,12.8h-1.5l-4.7-12.8h1.8L312.6,568z"/>
	</g>
	<g class="st7">
		<path class="st2" d="M321.8,566.4c-1-0.3-1.7-0.6-2.1-1s-0.7-0.9-0.7-1.5c0-0.7,0.3-1.2,0.8-1.7s1.2-0.7,2.1-0.7
			c0.6,0,1.1,0.1,1.6,0.3s0.8,0.5,1.1,0.9s0.4,0.8,0.4,1.3h-1.1c0-0.5-0.2-0.9-0.5-1.2s-0.8-0.4-1.4-0.4c-0.6,0-1,0.1-1.3,0.4
			c-0.3,0.2-0.5,0.6-0.5,1c0,0.3,0.1,0.6,0.4,0.9c0.3,0.2,0.8,0.5,1.5,0.7c0.7,0.2,1.3,0.4,1.7,0.7s0.7,0.5,0.9,0.8s0.3,0.7,0.3,1.1
			c0,0.7-0.3,1.2-0.8,1.7s-1.3,0.6-2.2,0.6c-0.6,0-1.1-0.1-1.6-0.3s-0.9-0.5-1.2-0.9s-0.4-0.8-0.4-1.3h1.1c0,0.5,0.2,0.9,0.6,1.2
			s0.9,0.4,1.5,0.4c0.6,0,1-0.1,1.4-0.4s0.5-0.6,0.5-1s-0.1-0.7-0.4-1S322.6,566.7,321.8,566.4z"/>
		<path class="st2" d="M328.9,566.4c-1-0.3-1.7-0.6-2.1-1s-0.7-0.9-0.7-1.5c0-0.7,0.3-1.2,0.8-1.7s1.2-0.7,2.1-0.7
			c0.6,0,1.1,0.1,1.6,0.3s0.8,0.5,1.1,0.9s0.4,0.8,0.4,1.3h-1.1c0-0.5-0.2-0.9-0.5-1.2s-0.8-0.4-1.4-0.4c-0.6,0-1,0.1-1.3,0.4
			c-0.3,0.2-0.5,0.6-0.5,1c0,0.3,0.1,0.6,0.4,0.9c0.3,0.2,0.8,0.5,1.5,0.7c0.7,0.2,1.3,0.4,1.7,0.7s0.7,0.5,0.9,0.8s0.3,0.7,0.3,1.1
			c0,0.7-0.3,1.2-0.8,1.7s-1.3,0.6-2.2,0.6c-0.6,0-1.1-0.1-1.6-0.3s-0.9-0.5-1.2-0.9s-0.4-0.8-0.4-1.3h1.1c0,0.5,0.2,0.9,0.6,1.2
			s0.9,0.4,1.5,0.4c0.6,0,1-0.1,1.4-0.4s0.5-0.6,0.5-1s-0.1-0.7-0.4-1S329.7,566.7,328.9,566.4z"/>
	</g>
	<g class="st7">
		<path class="st2" d="M220.3,221.1c-0.2,1.4-0.7,2.4-1.5,3.1c-0.8,0.7-2,1.1-3.4,1.1c-1.5,0-2.7-0.5-3.6-1.6s-1.4-2.5-1.4-4.4v-1.2
			c0-1.2,0.2-2.2,0.6-3.1s1-1.6,1.8-2.1c0.8-0.5,1.7-0.7,2.7-0.7c1.4,0,2.4,0.4,3.3,1.1s1.3,1.8,1.4,3.2h-1.7c-0.1-1-0.5-1.8-1-2.2
			c-0.5-0.5-1.2-0.7-2.1-0.7c-1.1,0-1.9,0.4-2.5,1.2s-0.9,1.9-0.9,3.4v1.2c0,1.4,0.3,2.5,0.9,3.3s1.4,1.2,2.4,1.2
			c0.9,0,1.7-0.2,2.2-0.6c0.5-0.4,0.8-1.2,1-2.2H220.3z"/>
		<path class="st2" d="M224.1,225.2h-1.6v-13.5h1.6V225.2z"/>
		<path class="st2" d="M226.3,220.3c0-0.9,0.2-1.8,0.5-2.5s0.9-1.3,1.5-1.7s1.4-0.6,2.2-0.6c1.3,0,2.3,0.4,3.1,1.3s1.2,2.1,1.2,3.6
			v0.1c0,0.9-0.2,1.8-0.5,2.5c-0.4,0.7-0.9,1.3-1.5,1.7s-1.4,0.6-2.3,0.6c-1.3,0-2.3-0.4-3.1-1.3s-1.2-2.1-1.2-3.6V220.3z
			 M227.9,220.5c0,1.1,0.2,1.9,0.7,2.5s1.1,1,2,1c0.8,0,1.5-0.3,2-1c0.5-0.6,0.7-1.6,0.7-2.7c0-1-0.2-1.9-0.7-2.5
			c-0.5-0.6-1.2-1-2-1c-0.8,0-1.5,0.3-1.9,1S227.9,219.3,227.9,220.5z"/>
		<path class="st2" d="M240.8,224c0.6,0,1.1-0.2,1.5-0.5s0.7-0.8,0.7-1.3h1.5c0,0.5-0.2,1.1-0.6,1.6s-0.8,0.9-1.4,1.2
			s-1.2,0.4-1.8,0.4c-1.3,0-2.3-0.4-3.1-1.3c-0.8-0.9-1.1-2-1.1-3.5v-0.3c0-0.9,0.2-1.7,0.5-2.5s0.8-1.3,1.5-1.7s1.4-0.6,2.3-0.6
			c1.1,0,2,0.3,2.7,1s1.1,1.5,1.1,2.5H243c0-0.6-0.3-1.1-0.7-1.5c-0.4-0.4-0.9-0.6-1.6-0.6c-0.8,0-1.5,0.3-1.9,0.9s-0.7,1.5-0.7,2.6
			v0.3c0,1.1,0.2,1.9,0.7,2.5S239.9,224,240.8,224z"/>
		<path class="st2" d="M249,220.8l-1,1.1v3.3h-1.6v-13.5h1.6v8.2l0.9-1l3-3.1h2l-3.7,4l4.1,5.5h-1.9L249,220.8z"/>
	</g>
	<g class="st7">
		<path class="st2" d="M219.6,278.7c-0.2,1.4-0.7,2.4-1.5,3.1c-0.8,0.7-2,1.1-3.4,1.1c-1.5,0-2.7-0.5-3.6-1.6s-1.4-2.5-1.4-4.4v-1.2
			c0-1.2,0.2-2.2,0.6-3.1s1-1.6,1.8-2.1c0.8-0.5,1.7-0.7,2.7-0.7c1.4,0,2.4,0.4,3.3,1.1s1.3,1.8,1.4,3.2h-1.7c-0.1-1-0.5-1.8-1-2.2
			c-0.5-0.5-1.2-0.7-2.1-0.7c-1.1,0-1.9,0.4-2.5,1.2s-0.9,1.9-0.9,3.4v1.2c0,1.4,0.3,2.5,0.9,3.3s1.4,1.2,2.4,1.2
			c0.9,0,1.7-0.2,2.2-0.6c0.5-0.4,0.8-1.2,1-2.2H219.6z"/>
		<path class="st2" d="M223.4,282.8h-1.6v-13.5h1.6V282.8z"/>
		<path class="st2" d="M225.6,277.9c0-0.9,0.2-1.8,0.5-2.5s0.9-1.3,1.5-1.7s1.4-0.6,2.2-0.6c1.3,0,2.3,0.4,3.1,1.3s1.2,2.1,1.2,3.6
			v0.1c0,0.9-0.2,1.8-0.5,2.5c-0.4,0.7-0.9,1.3-1.5,1.7s-1.4,0.6-2.3,0.6c-1.3,0-2.3-0.4-3.1-1.3s-1.2-2.1-1.2-3.6V277.9z
			 M227.2,278.1c0,1.1,0.2,1.9,0.7,2.5s1.1,1,2,1c0.8,0,1.5-0.3,2-1c0.5-0.6,0.7-1.6,0.7-2.7c0-1-0.2-1.9-0.7-2.5
			c-0.5-0.6-1.2-1-2-1c-0.8,0-1.5,0.3-1.9,1S227.2,276.9,227.2,278.1z"/>
		<path class="st2" d="M240.1,281.6c0.6,0,1.1-0.2,1.5-0.5s0.7-0.8,0.7-1.3h1.5c0,0.5-0.2,1.1-0.6,1.6s-0.8,0.9-1.4,1.2
			s-1.2,0.4-1.8,0.4c-1.3,0-2.3-0.4-3.1-1.3c-0.8-0.9-1.1-2-1.1-3.5v-0.3c0-0.9,0.2-1.7,0.5-2.5s0.8-1.3,1.5-1.7s1.4-0.6,2.3-0.6
			c1.1,0,2,0.3,2.7,1s1.1,1.5,1.1,2.5h-1.5c0-0.6-0.3-1.1-0.7-1.5c-0.4-0.4-0.9-0.6-1.6-0.6c-0.8,0-1.5,0.3-1.9,0.9
			s-0.7,1.5-0.7,2.6v0.3c0,1.1,0.2,1.9,0.7,2.5S239.3,281.6,240.1,281.6z"/>
		<path class="st2" d="M248.4,278.4l-1,1.1v3.3h-1.6v-13.5h1.6v8.2l0.9-1l3-3.1h2l-3.7,4l4.1,5.5h-1.9L248.4,278.4z"/>
		<path class="st2" d="M261.4,282.8h-1.7V270h1.7V282.8z"/>
		<path class="st2" d="M265.7,273.3l0.1,1.2c0.7-0.9,1.7-1.4,2.8-1.4c2,0,3,1.1,3,3.4v6.3H270v-6.3c0-0.7-0.2-1.2-0.5-1.5
			s-0.8-0.5-1.4-0.5c-0.5,0-1,0.1-1.4,0.4s-0.7,0.7-0.9,1.1v6.8h-1.6v-9.5H265.7z"/>
		<path class="st2" d="M275.8,274.4c0.7-0.9,1.7-1.3,2.8-1.3c2,0,3,1.1,3,3.4v6.3H280v-6.3c0-0.7-0.2-1.2-0.5-1.5s-0.8-0.5-1.4-0.5
			c-0.5,0-1,0.1-1.4,0.4s-0.7,0.7-0.9,1.1v6.8h-1.6v-13.5h1.6V274.4z"/>
		<path class="st2" d="M284.1,270.7c0-0.3,0.1-0.5,0.2-0.7s0.4-0.3,0.7-0.3s0.6,0.1,0.7,0.3s0.2,0.4,0.2,0.7s-0.1,0.5-0.2,0.7
			s-0.4,0.3-0.7,0.3s-0.6-0.1-0.7-0.3S284.1,271,284.1,270.7z M285.8,282.8h-1.6v-9.5h1.6V282.8z"/>
		<path class="st2" d="M296.5,278.1c0,1.5-0.3,2.6-1,3.5s-1.6,1.3-2.7,1.3c-1.2,0-2.1-0.4-2.8-1.3l-0.1,1.1h-1.5v-13.5h1.6v5
			c0.7-0.8,1.6-1.2,2.7-1.2s2.1,0.4,2.7,1.3s1,2.1,1,3.6V278.1z M294.8,277.9c0-1.1-0.2-2-0.6-2.6s-1-0.9-1.8-0.9
			c-1.1,0-1.8,0.5-2.3,1.5v4.1c0.5,1,1.3,1.5,2.3,1.5c0.8,0,1.4-0.3,1.8-0.9S294.8,279.2,294.8,277.9z"/>
		<path class="st2" d="M298.5,270.7c0-0.3,0.1-0.5,0.2-0.7s0.4-0.3,0.7-0.3s0.6,0.1,0.7,0.3s0.2,0.4,0.2,0.7s-0.1,0.5-0.2,0.7
			s-0.4,0.3-0.7,0.3s-0.6-0.1-0.7-0.3S298.5,271,298.5,270.7z M300.3,282.8h-1.6v-9.5h1.6V282.8z"/>
		<path class="st2" d="M305.1,271v2.3h1.8v1.3h-1.8v5.9c0,0.4,0.1,0.7,0.2,0.9s0.4,0.3,0.8,0.3c0.2,0,0.4,0,0.8-0.1v1.3
			c-0.4,0.1-0.8,0.2-1.2,0.2c-0.7,0-1.3-0.2-1.6-0.7s-0.6-1.1-0.6-1.9v-5.9h-1.7v-1.3h1.7V271H305.1z"/>
	</g>
	<g class="st7">
		<path class="st2" d="M216.1,455.8h-3v5.2h-1.7v-12.8h4.2c1.4,0,2.6,0.3,3.3,1s1.2,1.6,1.2,2.9c0,0.8-0.2,1.5-0.6,2.1s-1,1-1.8,1.3
			l3,5.4v0.1h-1.8L216.1,455.8z M213.1,454.4h2.6c0.8,0,1.5-0.2,2-0.7c0.5-0.4,0.7-1,0.7-1.7c0-0.8-0.2-1.4-0.7-1.8
			c-0.5-0.4-1.2-0.6-2-0.6h-2.6V454.4z"/>
		<path class="st2" d="M226.2,461.2c-1.3,0-2.3-0.4-3.1-1.3c-0.8-0.8-1.2-2-1.2-3.4v-0.3c0-0.9,0.2-1.8,0.5-2.5
			c0.4-0.7,0.9-1.3,1.5-1.7c0.6-0.4,1.3-0.6,2.1-0.6c1.2,0,2.2,0.4,2.9,1.2s1,2,1,3.5v0.7h-6.4c0,0.9,0.3,1.7,0.8,2.3
			c0.5,0.6,1.2,0.9,2,0.9c0.6,0,1.1-0.1,1.5-0.4s0.7-0.5,1-0.9l1,0.8C228.9,460.5,227.8,461.2,226.2,461.2z M226,452.6
			c-0.7,0-1.2,0.2-1.7,0.7c-0.4,0.5-0.7,1.1-0.8,2h4.8v-0.1c0-0.8-0.3-1.5-0.7-1.9C227.2,452.9,226.6,452.6,226,452.6z"/>
		<path class="st2" d="M237.3,458.5c0-0.4-0.2-0.8-0.5-1c-0.3-0.2-0.9-0.5-1.7-0.6s-1.5-0.4-2-0.6s-0.8-0.5-1.1-0.9
			s-0.3-0.7-0.3-1.2c0-0.8,0.3-1.4,1-2s1.5-0.8,2.5-0.8c1.1,0,2,0.3,2.6,0.8s1,1.3,1,2.1h-1.6c0-0.4-0.2-0.8-0.6-1.2
			s-0.9-0.5-1.4-0.5c-0.6,0-1.1,0.1-1.4,0.4s-0.5,0.6-0.5,1c0,0.4,0.2,0.7,0.5,0.9s0.9,0.4,1.7,0.6s1.5,0.4,2,0.7s0.9,0.6,1.1,0.9
			c0.2,0.4,0.4,0.8,0.4,1.3c0,0.8-0.3,1.5-1,2c-0.7,0.5-1.6,0.8-2.6,0.8c-0.8,0-1.4-0.1-2-0.4s-1-0.6-1.4-1.1
			c-0.3-0.5-0.5-1-0.5-1.6h1.6c0,0.5,0.2,1,0.7,1.3c0.4,0.3,0.9,0.5,1.6,0.5c0.6,0,1.1-0.1,1.5-0.4
			C237.1,459.2,237.3,458.9,237.3,458.5z"/>
		<path class="st2" d="M245,461.2c-1.3,0-2.3-0.4-3.1-1.3c-0.8-0.8-1.2-2-1.2-3.4v-0.3c0-0.9,0.2-1.8,0.5-2.5
			c0.4-0.7,0.9-1.3,1.5-1.7c0.6-0.4,1.3-0.6,2.1-0.6c1.2,0,2.2,0.4,2.9,1.2s1,2,1,3.5v0.7h-6.4c0,0.9,0.3,1.7,0.8,2.3
			c0.5,0.6,1.2,0.9,2,0.9c0.6,0,1.1-0.1,1.5-0.4s0.7-0.5,1-0.9l1,0.8C247.8,460.5,246.6,461.2,245,461.2z M244.8,452.6
			c-0.7,0-1.2,0.2-1.7,0.7c-0.4,0.5-0.7,1.1-0.8,2h4.8v-0.1c0-0.8-0.3-1.5-0.7-1.9C246,452.9,245.5,452.6,244.8,452.6z"/>
		<path class="st2" d="M252.8,449.2v2.3h1.8v1.3h-1.8v5.9c0,0.4,0.1,0.7,0.2,0.9c0.2,0.2,0.4,0.3,0.8,0.3c0.2,0,0.4,0,0.8-0.1v1.3
			c-0.4,0.1-0.8,0.2-1.2,0.2c-0.7,0-1.3-0.2-1.6-0.7s-0.6-1.1-0.6-1.9v-5.9h-1.7v-1.3h1.7v-2.3H252.8z"/>
	</g>
	<g class="st7">
		<path class="st2" d="M438.5,545.1c-0.2,1.4-0.7,2.4-1.5,3.1c-0.8,0.7-2,1.1-3.4,1.1c-1.5,0-2.7-0.5-3.6-1.6s-1.4-2.5-1.4-4.4v-1.2
			c0-1.2,0.2-2.2,0.6-3.1s1-1.6,1.8-2.1c0.8-0.5,1.7-0.7,2.7-0.7c1.4,0,2.4,0.4,3.3,1.1s1.3,1.8,1.4,3.2h-1.7c-0.1-1-0.5-1.8-1-2.2
			c-0.5-0.5-1.2-0.7-2.1-0.7c-1.1,0-1.9,0.4-2.5,1.2s-0.9,1.9-0.9,3.4v1.2c0,1.4,0.3,2.5,0.9,3.3s1.4,1.2,2.4,1.2
			c0.9,0,1.7-0.2,2.2-0.6c0.5-0.4,0.8-1.2,1-2.2H438.5z"/>
		<path class="st2" d="M446.4,549.2c-0.1-0.2-0.2-0.5-0.2-1c-0.8,0.8-1.7,1.2-2.7,1.2c-0.9,0-1.7-0.3-2.3-0.8s-0.9-1.2-0.9-2
			c0-1,0.4-1.8,1.1-2.3s1.8-0.8,3.2-0.8h1.6v-0.7c0-0.6-0.2-1-0.5-1.4c-0.3-0.3-0.8-0.5-1.5-0.5c-0.6,0-1.1,0.1-1.5,0.4
			s-0.6,0.6-0.6,1.1h-1.6c0-0.5,0.2-0.9,0.5-1.4s0.8-0.8,1.4-1.1s1.2-0.4,1.9-0.4c1.1,0,2,0.3,2.6,0.8s0.9,1.3,1,2.3v4.4
			c0,0.9,0.1,1.6,0.3,2.1v0.1H446.4z M443.7,547.9c0.5,0,1-0.1,1.5-0.4s0.8-0.6,1-1v-2h-1.3c-2,0-3,0.6-3,1.7c0,0.5,0.2,0.9,0.5,1.2
			S443.2,547.9,443.7,547.9z"/>
		<path class="st2" d="M455,541.1c-0.2,0-0.5-0.1-0.8-0.1c-1.1,0-1.8,0.5-2.2,1.4v6.8h-1.6v-9.5h1.6l0,1.1c0.5-0.8,1.3-1.3,2.3-1.3
			c0.3,0,0.6,0,0.7,0.1V541.1z"/>
	</g>
	<g class="st7">
		<path class="st2" d="M461,541.1c-0.2,0-0.5-0.1-0.8-0.1c-1.1,0-1.8,0.5-2.2,1.4v6.8h-1.6v-9.5h1.6l0,1.1c0.5-0.8,1.3-1.3,2.3-1.3
			c0.3,0,0.6,0,0.7,0.1V541.1z"/>
	</g>
	<g class="st7">
		<path class="st2" d="M465.8,546.8l2.2-7.1h1.7l-3.8,11c-0.6,1.6-1.5,2.4-2.8,2.4l-0.3,0l-0.6-0.1v-1.3l0.4,0c0.6,0,1-0.1,1.3-0.3
			s0.6-0.6,0.8-1.2l0.4-1l-3.4-9.4h1.8L465.8,546.8z"/>
		<path class="st2" d="M485.8,543.2c0,1.3-0.2,2.3-0.6,3.3c-0.4,0.9-1,1.6-1.8,2.1s-1.7,0.7-2.7,0.7c-1,0-1.9-0.2-2.7-0.7
			s-1.4-1.2-1.8-2.1c-0.4-0.9-0.7-2-0.7-3.2v-0.9c0-1.2,0.2-2.3,0.6-3.3s1-1.7,1.8-2.2c0.8-0.5,1.7-0.8,2.7-0.8c1,0,1.9,0.2,2.7,0.7
			c0.8,0.5,1.4,1.2,1.8,2.2c0.4,0.9,0.6,2,0.6,3.3V543.2z M484.1,542.4c0-1.5-0.3-2.7-0.9-3.5s-1.5-1.2-2.6-1.2
			c-1.1,0-1.9,0.4-2.5,1.2s-0.9,1.9-0.9,3.4v0.9c0,1.5,0.3,2.6,0.9,3.5s1.5,1.3,2.6,1.3c1.1,0,1.9-0.4,2.5-1.2s0.9-1.9,0.9-3.4
			V542.4z"/>
		<path class="st2" d="M493.9,548.2c-0.6,0.7-1.6,1.1-2.8,1.1c-1,0-1.8-0.3-2.3-0.9c-0.5-0.6-0.8-1.5-0.8-2.6v-6.2h1.6v6.1
			c0,1.4,0.6,2.2,1.8,2.2c1.2,0,2.1-0.5,2.5-1.4v-6.9h1.6v9.5H494L493.9,548.2z"/>
		<path class="st2" d="M500.2,537.4v2.3h1.8v1.3h-1.8v5.9c0,0.4,0.1,0.7,0.2,0.9s0.4,0.3,0.8,0.3c0.2,0,0.4,0,0.8-0.1v1.3
			c-0.4,0.1-0.8,0.2-1.2,0.2c-0.7,0-1.3-0.2-1.6-0.7s-0.6-1.1-0.6-1.9v-5.9h-1.7v-1.3h1.7v-2.3H500.2z"/>
	</g>
	<g class="st7">
		<path class="st2" d="M306.1,12.2l3.7-10.6h1.8l-4.7,12.8h-1.5l-4.7-12.8h1.8L306.1,12.2z"/>
	</g>
	<g class="st7">
		<path class="st2" d="M312.8,14.4V5.9h2.4c0.7,0,1.4,0.2,2,0.5s1,0.8,1.3,1.4s0.5,1.3,0.5,2.1v0.5c0,0.8-0.2,1.5-0.5,2.1
			s-0.8,1.1-1.3,1.4s-1.2,0.5-2,0.5H312.8z M313.9,6.8v6.7h1.2c0.9,0,1.5-0.3,2-0.8c0.5-0.5,0.7-1.3,0.7-2.3V9.9
			c0-1-0.2-1.7-0.7-2.3c-0.5-0.5-1.1-0.8-1.9-0.8H313.9z"/>
		<path class="st2" d="M320.6,14.4V5.9h2.4c0.7,0,1.4,0.2,2,0.5s1,0.8,1.3,1.4s0.5,1.3,0.5,2.1v0.5c0,0.8-0.2,1.5-0.5,2.1
			s-0.8,1.1-1.3,1.4s-1.2,0.5-2,0.5H320.6z M321.8,6.8v6.7h1.2c0.9,0,1.5-0.3,2-0.8c0.5-0.5,0.7-1.3,0.7-2.3V9.9
			c0-1-0.2-1.7-0.7-2.3c-0.5-0.5-1.1-0.8-1.9-0.8H321.8z"/>
	</g>
	<g class="st7">
		<path class="st2" d="M590.5,151.8c-0.2,1.4-0.7,2.4-1.5,3.1c-0.8,0.7-2,1.1-3.4,1.1c-1.5,0-2.7-0.5-3.6-1.6s-1.4-2.5-1.4-4.4v-1.2
			c0-1.2,0.2-2.2,0.6-3.1s1-1.6,1.8-2.1c0.8-0.5,1.7-0.7,2.7-0.7c1.4,0,2.4,0.4,3.3,1.1s1.3,1.8,1.4,3.2h-1.7c-0.1-1-0.5-1.8-1-2.2
			c-0.5-0.5-1.2-0.7-2.1-0.7c-1.1,0-1.9,0.4-2.5,1.2s-0.9,1.9-0.9,3.4v1.2c0,1.4,0.3,2.5,0.9,3.3s1.4,1.2,2.4,1.2
			c0.9,0,1.7-0.2,2.2-0.6c0.5-0.4,0.8-1.2,1-2.2H590.5z"/>
		<path class="st2" d="M594.2,147.5c0.7-0.9,1.7-1.3,2.8-1.3c2,0,3,1.1,3,3.4v6.3h-1.6v-6.3c0-0.7-0.2-1.2-0.5-1.5s-0.8-0.5-1.4-0.5
			c-0.5,0-1,0.1-1.4,0.4s-0.7,0.7-0.9,1.1v6.8h-1.6v-13.5h1.6V147.5z"/>
		<path class="st2" d="M614.8,150.4c0,1.9-0.3,3.3-1,4.2s-1.7,1.4-3,1.4c-1.4,0-2.4-0.5-3-1.4c-0.7-0.9-1-2.3-1-4.1v-2.2
			c0-1.9,0.3-3.3,1-4.2s1.7-1.4,3.1-1.4c1.4,0,2.4,0.4,3,1.3c0.7,0.9,1,2.2,1,4.1V150.4z M613.1,148.2c0-1.4-0.2-2.4-0.6-3
			s-1-0.9-1.8-0.9c-0.8,0-1.4,0.3-1.8,0.9s-0.6,1.6-0.6,2.9v2.6c0,1.4,0.2,2.4,0.6,3.1c0.4,0.7,1,1,1.8,1c0.8,0,1.4-0.3,1.8-0.9
			s0.6-1.6,0.6-2.9V148.2z"/>
	</g>
	<g class="st7">
		<path class="st2" d="M590.5,196.8c-0.2,1.4-0.7,2.4-1.5,3.1c-0.8,0.7-2,1.1-3.4,1.1c-1.5,0-2.7-0.5-3.6-1.6s-1.4-2.5-1.4-4.4v-1.2
			c0-1.2,0.2-2.2,0.6-3.1s1-1.6,1.8-2.1c0.8-0.5,1.7-0.7,2.7-0.7c1.4,0,2.4,0.4,3.3,1.1s1.3,1.8,1.4,3.2h-1.7c-0.1-1-0.5-1.8-1-2.2
			c-0.5-0.5-1.2-0.7-2.1-0.7c-1.1,0-1.9,0.4-2.5,1.2s-0.9,1.9-0.9,3.4v1.2c0,1.4,0.3,2.5,0.9,3.3s1.4,1.2,2.4,1.2
			c0.9,0,1.7-0.2,2.2-0.6c0.5-0.4,0.8-1.2,1-2.2H590.5z"/>
		<path class="st2" d="M594.2,192.5c0.7-0.9,1.7-1.3,2.8-1.3c2,0,3,1.1,3,3.4v6.3h-1.6v-6.3c0-0.7-0.2-1.2-0.5-1.5s-0.8-0.5-1.4-0.5
			c-0.5,0-1,0.1-1.4,0.4s-0.7,0.7-0.9,1.1v6.8h-1.6v-13.5h1.6V192.5z"/>
		<path class="st2" d="M612.1,200.9h-1.6V190l-3.3,1.2v-1.5l4.7-1.7h0.3V200.9z"/>
	</g>
	<g class="st7">
		<path class="st2" d="M590.5,236.4c-0.2,1.4-0.7,2.4-1.5,3.1c-0.8,0.7-2,1.1-3.4,1.1c-1.5,0-2.7-0.5-3.6-1.6s-1.4-2.5-1.4-4.4v-1.2
			c0-1.2,0.2-2.2,0.6-3.1s1-1.6,1.8-2.1c0.8-0.5,1.7-0.7,2.7-0.7c1.4,0,2.4,0.4,3.3,1.1s1.3,1.8,1.4,3.2h-1.7c-0.1-1-0.5-1.8-1-2.2
			c-0.5-0.5-1.2-0.7-2.1-0.7c-1.1,0-1.9,0.4-2.5,1.2s-0.9,1.9-0.9,3.4v1.2c0,1.4,0.3,2.5,0.9,3.3s1.4,1.2,2.4,1.2
			c0.9,0,1.7-0.2,2.2-0.6c0.5-0.4,0.8-1.2,1-2.2H590.5z"/>
		<path class="st2" d="M594.2,232.1c0.7-0.9,1.7-1.3,2.8-1.3c2,0,3,1.1,3,3.4v6.3h-1.6v-6.3c0-0.7-0.2-1.2-0.5-1.5s-0.8-0.5-1.4-0.5
			c-0.5,0-1,0.1-1.4,0.4s-0.7,0.7-0.9,1.1v6.8h-1.6V227h1.6V232.1z"/>
		<path class="st2" d="M615.1,240.5h-8.4v-1.2l4.4-4.9c0.7-0.7,1.1-1.3,1.4-1.8c0.2-0.5,0.4-0.9,0.4-1.4c0-0.7-0.2-1.2-0.6-1.6
			s-0.9-0.6-1.6-0.6c-0.8,0-1.4,0.2-1.9,0.7c-0.4,0.5-0.7,1.1-0.7,1.9h-1.6c0-1.2,0.4-2.1,1.1-2.9s1.8-1.1,3-1.1
			c1.2,0,2.1,0.3,2.8,0.9c0.7,0.6,1,1.5,1,2.5c0,1.3-0.8,2.8-2.4,4.5l-3.4,3.7h6.4V240.5z"/>
	</g>
	<g class="st7">
		<path class="st2" d="M357.1,353h-12.8v-3.6c0-1.1,0.2-2.1,0.7-3s1.2-1.5,2.1-2c0.9-0.5,2-0.7,3.1-0.7h0.8c1.2,0,2.3,0.2,3.2,0.7
			c0.9,0.5,1.6,1.1,2.1,2c0.5,0.9,0.7,1.9,0.7,3V353z M345.7,351.3h10v-1.8c0-1.3-0.4-2.3-1.2-3c-0.8-0.7-2-1.1-3.5-1.1h-0.7
			c-1.5,0-2.6,0.3-3.4,1c-0.8,0.7-1.2,1.7-1.2,2.9V351.3z"/>
		<path class="st2" d="M357.3,337.5c0,1.3-0.4,2.3-1.3,3.1s-2,1.2-3.4,1.2h-0.3c-0.9,0-1.8-0.2-2.5-0.5c-0.7-0.4-1.3-0.9-1.7-1.5
			c-0.4-0.6-0.6-1.3-0.6-2.1c0-1.2,0.4-2.2,1.2-2.9s2-1,3.5-1h0.7v6.4c0.9,0,1.7-0.3,2.3-0.8c0.6-0.5,0.9-1.2,0.9-2
			c0-0.6-0.1-1.1-0.4-1.5s-0.5-0.7-0.9-1l0.8-1C356.7,334.7,357.3,335.9,357.3,337.5z M348.8,337.7c0,0.7,0.2,1.2,0.7,1.7
			s1.1,0.7,2,0.8v-4.8h-0.1c-0.8,0-1.5,0.3-1.9,0.7S348.8,337,348.8,337.7z"/>
		<path class="st2" d="M356,328.1c0-0.6-0.2-1.1-0.5-1.5s-0.8-0.7-1.3-0.7v-1.5c0.5,0,1.1,0.2,1.6,0.6s0.9,0.8,1.2,1.4
			c0.3,0.6,0.4,1.2,0.4,1.8c0,1.3-0.4,2.3-1.3,3.1c-0.9,0.8-2,1.1-3.5,1.1h-0.3c-0.9,0-1.7-0.2-2.5-0.5s-1.3-0.8-1.7-1.5
			c-0.4-0.6-0.6-1.4-0.6-2.3c0-1.1,0.3-2,1-2.7c0.6-0.7,1.5-1.1,2.5-1.1v1.5c-0.6,0-1.1,0.3-1.5,0.7c-0.4,0.4-0.6,0.9-0.6,1.6
			c0,0.8,0.3,1.5,0.9,1.9c0.6,0.5,1.5,0.7,2.6,0.7h0.3c1.1,0,1.9-0.2,2.5-0.7S356,328.9,356,328.1z"/>
		<path class="st2" d="M352.3,322.9c-0.9,0-1.8-0.2-2.5-0.5c-0.7-0.4-1.3-0.9-1.7-1.5c-0.4-0.7-0.6-1.4-0.6-2.2
			c0-1.3,0.4-2.3,1.3-3.1c0.9-0.8,2.1-1.2,3.6-1.2h0.1c0.9,0,1.8,0.2,2.5,0.5c0.7,0.4,1.3,0.9,1.7,1.5c0.4,0.7,0.6,1.4,0.6,2.3
			c0,1.3-0.4,2.3-1.3,3.1c-0.9,0.8-2.1,1.2-3.6,1.2H352.3z M352.5,321.3c1.1,0,1.9-0.2,2.5-0.7c0.6-0.5,1-1.1,1-2c0-0.8-0.3-1.5-1-2
			c-0.6-0.5-1.6-0.7-2.7-0.7c-1,0-1.9,0.2-2.5,0.7c-0.6,0.5-1,1.2-1,2c0,0.8,0.3,1.5,1,1.9S351.3,321.3,352.5,321.3z"/>
		<path class="st2" d="M352.3,312.6c-1.5,0-2.6-0.3-3.5-1c-0.9-0.7-1.3-1.6-1.3-2.7c0-1.1,0.4-2,1.1-2.6h-5v-1.6h13.5v1.5l-1,0.1
			c0.8,0.7,1.2,1.6,1.2,2.7c0,1.1-0.5,2-1.4,2.7c-0.9,0.7-2.1,1-3.5,1H352.3z M352.5,311c1.1,0,1.9-0.2,2.5-0.7s0.9-1.1,0.9-1.8
			c0-1-0.5-1.8-1.4-2.3h-4.4c-0.9,0.5-1.3,1.2-1.3,2.2c0,0.8,0.3,1.4,0.9,1.9S351.3,311,352.5,311z"/>
		<path class="st2" d="M357.3,298.1c0,1.3-0.4,2.3-1.3,3.1s-2,1.2-3.4,1.2h-0.3c-0.9,0-1.8-0.2-2.5-0.5c-0.7-0.4-1.3-0.9-1.7-1.5
			c-0.4-0.6-0.6-1.3-0.6-2.1c0-1.2,0.4-2.2,1.2-2.9s2-1,3.5-1h0.7v6.4c0.9,0,1.7-0.3,2.3-0.8c0.6-0.5,0.9-1.2,0.9-2
			c0-0.6-0.1-1.1-0.4-1.5s-0.5-0.7-0.9-1l0.8-1C356.7,295.3,357.3,296.5,357.3,298.1z M348.8,298.3c0,0.7,0.2,1.2,0.7,1.7
			s1.1,0.7,2,0.8V296h-0.1c-0.8,0-1.5,0.3-1.9,0.7S348.8,297.6,348.8,298.3z"/>
		<path class="st2" d="M352.3,292.9c-1.5,0-2.6-0.3-3.5-1c-0.9-0.7-1.3-1.6-1.3-2.7c0-1.1,0.4-2,1.1-2.6h-5v-1.6h13.5v1.5l-1,0.1
			c0.8,0.7,1.2,1.6,1.2,2.7c0,1.1-0.5,2-1.4,2.7s-2.1,1-3.5,1H352.3z M352.5,291.3c1.1,0,1.9-0.2,2.5-0.7s0.9-1.1,0.9-1.8
			c0-1-0.5-1.8-1.4-2.3h-4.4c-0.9,0.5-1.3,1.2-1.3,2.2c0,0.8,0.3,1.4,0.9,1.9S351.3,291.3,352.5,291.3z"/>
		<path class="st2" d="M351.1,267.8c1.3,0,2.3,0.2,3.3,0.6c0.9,0.4,1.6,1,2.1,1.8s0.7,1.7,0.7,2.7c0,1-0.2,1.9-0.7,2.7
			s-1.2,1.4-2.1,1.8c-0.9,0.4-2,0.7-3.2,0.7h-0.9c-1.2,0-2.3-0.2-3.3-0.6s-1.7-1-2.2-1.8c-0.5-0.8-0.8-1.7-0.8-2.7
			c0-1,0.2-1.9,0.7-2.7c0.5-0.8,1.2-1.4,2.2-1.8c0.9-0.4,2-0.6,3.3-0.6H351.1z M350.3,269.5c-1.5,0-2.7,0.3-3.5,0.9
			s-1.2,1.5-1.2,2.6c0,1.1,0.4,1.9,1.2,2.5s1.9,0.9,3.4,0.9h0.9c1.5,0,2.6-0.3,3.5-0.9s1.3-1.5,1.3-2.6c0-1.1-0.4-1.9-1.2-2.5
			s-1.9-0.9-3.4-0.9H350.3z"/>
		<path class="st2" d="M356.2,259.7c0.7,0.6,1.1,1.6,1.1,2.8c0,1-0.3,1.8-0.9,2.3c-0.6,0.5-1.5,0.8-2.6,0.8h-6.2v-1.6h6.1
			c1.4,0,2.2-0.6,2.2-1.8c0-1.2-0.5-2.1-1.4-2.5h-6.9v-1.6h9.5v1.5L356.2,259.7z"/>
		<path class="st2" d="M345.3,253.4h2.3v-1.8h1.3v1.8h5.9c0.4,0,0.7-0.1,0.9-0.2s0.3-0.4,0.3-0.8c0-0.2,0-0.4-0.1-0.8h1.3
			c0.1,0.4,0.2,0.8,0.2,1.2c0,0.7-0.2,1.3-0.7,1.6s-1.1,0.6-1.9,0.6h-5.9v1.7h-1.3V255h-2.3V253.4z"/>
		<path class="st2" d="M352.5,241.7c1.4,0,2.6,0.3,3.5,1s1.3,1.6,1.3,2.7c0,1.2-0.4,2.1-1.1,2.7h4.6v1.6h-13.2v-1.5l1.1-0.1
			c-0.8-0.7-1.2-1.6-1.2-2.8c0-1.1,0.4-2,1.3-2.7s2.1-1,3.6-1H352.5z M352.3,243.3c-1.1,0-1.9,0.2-2.5,0.7s-0.9,1.1-0.9,1.9
			c0,1,0.4,1.7,1.3,2.2h4.5c0.9-0.5,1.3-1.2,1.3-2.2c0-0.8-0.3-1.4-0.9-1.9S353.5,243.3,352.3,243.3z"/>
		<path class="st2" d="M356.2,233.8c0.7,0.6,1.1,1.6,1.1,2.8c0,1-0.3,1.8-0.9,2.3c-0.6,0.5-1.5,0.8-2.6,0.8h-6.2V238h6.1
			c1.4,0,2.2-0.6,2.2-1.8c0-1.2-0.5-2.1-1.4-2.5h-6.9v-1.6h9.5v1.5L356.2,233.8z"/>
		<path class="st2" d="M345.3,227.5h2.3v-1.8h1.3v1.8h5.9c0.4,0,0.7-0.1,0.9-0.2s0.3-0.4,0.3-0.8c0-0.2,0-0.4-0.1-0.8h1.3
			c0.1,0.4,0.2,0.8,0.2,1.2c0,0.7-0.2,1.3-0.7,1.6s-1.1,0.6-1.9,0.6h-5.9v1.7h-1.3v-1.7h-2.3V227.5z"/>
		<path class="st2" d="M354.6,218.3c-0.4,0-0.8,0.2-1,0.5c-0.2,0.3-0.5,0.9-0.6,1.7s-0.4,1.5-0.6,2s-0.5,0.8-0.9,1.1
			s-0.7,0.3-1.2,0.3c-0.8,0-1.4-0.3-2-1s-0.8-1.5-0.8-2.5c0-1.1,0.3-2,0.8-2.6s1.3-1,2.1-1v1.6c-0.4,0-0.8,0.2-1.2,0.6
			s-0.5,0.9-0.5,1.4c0,0.6,0.1,1.1,0.4,1.4s0.6,0.5,1,0.5c0.4,0,0.7-0.2,0.9-0.5s0.4-0.9,0.6-1.7s0.4-1.5,0.7-2s0.6-0.9,0.9-1.1
			c0.4-0.2,0.8-0.4,1.3-0.4c0.8,0,1.5,0.3,2,1c0.5,0.7,0.8,1.6,0.8,2.6c0,0.8-0.1,1.4-0.4,2s-0.6,1-1.1,1.4c-0.5,0.3-1,0.5-1.6,0.5
			v-1.6c0.5,0,1-0.2,1.3-0.7c0.3-0.4,0.5-0.9,0.5-1.6c0-0.6-0.1-1.1-0.4-1.5C355.3,218.5,355,218.3,354.6,218.3z"/>
	</g>
	<g class="st7">
		<path class="st2" d="M273.5,48.8h-1.6V37.9l-3.3,1.2v-1.5l4.7-1.7h0.3V48.8z"/>
		<path class="st2" d="M284.6,36v1.4h-0.3c-1.3,0-2.3,0.4-3,1.1s-1.2,1.7-1.3,3.1c0.7-0.8,1.6-1.2,2.8-1.2c1.1,0,2,0.4,2.7,1.2
			s1,1.8,1,3c0,1.3-0.4,2.4-1.1,3.2s-1.7,1.2-2.9,1.2c-1.2,0-2.2-0.5-3-1.4c-0.8-0.9-1.1-2.2-1.1-3.6v-0.6c0-2.4,0.5-4.2,1.5-5.4
			c1-1.2,2.5-1.9,4.5-1.9H284.6z M282.5,41.7c-0.6,0-1.1,0.2-1.5,0.5s-0.8,0.8-1,1.3v0.6c0,1.1,0.2,1.9,0.7,2.5s1.1,1,1.8,1
			c0.7,0,1.3-0.3,1.7-0.8s0.6-1.2,0.6-2.1c0-0.9-0.2-1.6-0.6-2.1S283.2,41.7,282.5,41.7z"/>
	</g>
	<g class="st7">
		<path class="st2" d="M283.9,515.2c0,0.6-0.2,1.2-0.5,1.7s-0.8,0.9-1.4,1.2c0.7,0.3,1.2,0.7,1.6,1.3s0.6,1.2,0.6,1.9
			c0,1.1-0.4,2-1.1,2.6s-1.7,1-2.9,1c-1.2,0-2.2-0.3-3-1c-0.7-0.7-1.1-1.5-1.1-2.6c0-0.7,0.2-1.3,0.6-1.9s0.9-1,1.6-1.3
			c-0.6-0.3-1-0.7-1.3-1.2s-0.5-1.1-0.5-1.7c0-1.1,0.3-1.9,1-2.6s1.6-0.9,2.7-0.9c1.1,0,2,0.3,2.7,0.9S283.9,514.2,283.9,515.2z
			 M282.5,521.2c0-0.7-0.2-1.3-0.7-1.7s-1-0.7-1.8-0.7s-1.3,0.2-1.8,0.7s-0.7,1-0.7,1.8s0.2,1.3,0.6,1.7s1,0.6,1.8,0.6
			c0.8,0,1.4-0.2,1.8-0.6S282.5,521.9,282.5,521.2z M280.1,513.1c-0.6,0-1.2,0.2-1.6,0.6c-0.4,0.4-0.6,0.9-0.6,1.6
			c0,0.7,0.2,1.2,0.6,1.6c0.4,0.4,0.9,0.6,1.6,0.6s1.2-0.2,1.6-0.6c0.4-0.4,0.6-0.9,0.6-1.6s-0.2-1.2-0.6-1.6
			S280.7,513.1,280.1,513.1z"/>
	</g>
	<g class="st7">
		<path class="st2" d="M756.6,175.7H755v-10.8l-3.3,1.2v-1.5l4.7-1.7h0.3V175.7z"/>
		<path class="st2" d="M766.7,175.7h-1.6v-10.8l-3.3,1.2v-1.5l4.7-1.7h0.3V175.7z"/>
	</g>
	<g class="st7">
		<path class="st2" d="M756.6,218.9H755V208l-3.3,1.2v-1.5l4.7-1.7h0.3V218.9z"/>
		<path class="st2" d="M769.4,213.4c0,1.9-0.3,3.3-1,4.2s-1.7,1.4-3,1.4c-1.4,0-2.4-0.5-3-1.4c-0.7-0.9-1-2.3-1-4.1v-2.2
			c0-1.9,0.3-3.3,1-4.2s1.7-1.4,3.1-1.4c1.4,0,2.4,0.4,3,1.3c0.7,0.9,1,2.2,1,4.1V213.4z M767.7,211.2c0-1.4-0.2-2.4-0.6-3
			s-1-0.9-1.8-0.9c-0.8,0-1.4,0.3-1.8,0.9s-0.6,1.6-0.6,2.9v2.6c0,1.4,0.2,2.4,0.6,3.1c0.4,0.7,1,1,1.8,1c0.8,0,1.4-0.3,1.8-0.9
			s0.6-1.6,0.6-2.9V211.2z"/>
	</g>
	<g class="st7">
		<path class="st2" d="M758.6,256.5c-0.3,0.4-0.7,0.7-1.2,1c-0.5,0.2-1,0.4-1.6,0.4c-0.7,0-1.4-0.2-1.9-0.5c-0.5-0.4-1-0.9-1.3-1.5
			c-0.3-0.7-0.4-1.4-0.4-2.2c0-0.9,0.2-1.6,0.5-2.3c0.3-0.7,0.8-1.2,1.4-1.6s1.3-0.5,2.1-0.5c1.3,0,2.3,0.5,3,1.4
			c0.7,0.9,1.1,2.2,1.1,3.9v0.5c0,2.5-0.5,4.3-1.5,5.5c-1,1.1-2.5,1.7-4.5,1.8H754v-1.4h0.3c1.3,0,2.4-0.4,3.1-1
			C758.1,259,758.5,257.9,758.6,256.5z M756.1,256.5c0.5,0,1-0.2,1.5-0.5c0.5-0.3,0.8-0.7,1-1.2v-0.7c0-1.1-0.2-1.9-0.7-2.6
			s-1-1-1.8-1c-0.7,0-1.3,0.3-1.7,0.8s-0.7,1.3-0.7,2.2c0,0.9,0.2,1.6,0.6,2.2C754.8,256.2,755.4,256.5,756.1,256.5z"/>
	</g>
	<g class="st7">
		<path class="st2" d="M556.8,170.3h-1.6v-10.8l-3.3,1.2v-1.5l4.7-1.7h0.3V170.3z"/>
		<path class="st2" d="M563.9,163.1h1.2c0.8,0,1.4-0.2,1.8-0.6s0.7-0.9,0.7-1.6c0-1.5-0.7-2.2-2.2-2.2c-0.7,0-1.3,0.2-1.7,0.6
			c-0.4,0.4-0.6,0.9-0.6,1.6h-1.6c0-1,0.4-1.9,1.1-2.5c0.7-0.7,1.7-1,2.8-1c1.2,0,2.2,0.3,2.8,1s1,1.5,1,2.7c0,0.6-0.2,1.1-0.5,1.6
			s-0.9,0.9-1.5,1.2c0.7,0.2,1.2,0.6,1.6,1.1s0.6,1.1,0.6,1.9c0,1.1-0.4,2.1-1.1,2.7s-1.7,1-2.9,1s-2.2-0.3-2.9-1s-1.1-1.5-1.1-2.6
			h1.6c0,0.7,0.2,1.2,0.7,1.6s1,0.6,1.8,0.6c0.8,0,1.4-0.2,1.8-0.6s0.6-1,0.6-1.8c0-0.7-0.2-1.3-0.7-1.7s-1.1-0.6-2-0.6h-1.2V163.1z
			"/>
	</g>
	<g class="st7">
		<path class="st2" d="M556.8,213.5h-1.6v-10.8l-3.3,1.2v-1.5l4.7-1.7h0.3V213.5z"/>
		<path class="st2" d="M568.4,209.2h1.8v1.3h-1.8v3h-1.6v-3H561v-1l5.7-8.9h1.7V209.2z M562.8,209.2h4v-6.3l-0.2,0.4L562.8,209.2z"
			/>
	</g>
	<g class="st7">
		<path class="st2" d="M556.8,256.7h-1.6v-10.8l-3.3,1.2v-1.5l4.7-1.7h0.3V256.7z"/>
		<path class="st2" d="M562.3,250.3l0.7-6.4h6.6v1.5h-5.2l-0.4,3.5c0.6-0.4,1.3-0.6,2.1-0.6c1.2,0,2.1,0.4,2.8,1.2
			c0.7,0.8,1,1.8,1,3.1c0,1.3-0.4,2.4-1.1,3.1c-0.7,0.8-1.7,1.1-3,1.1c-1.1,0-2.1-0.3-2.8-0.9s-1.1-1.5-1.2-2.6h1.5
			c0.1,0.7,0.4,1.3,0.8,1.7s1,0.6,1.7,0.6c0.8,0,1.3-0.3,1.8-0.8s0.6-1.2,0.6-2.1c0-0.9-0.2-1.5-0.7-2.1c-0.5-0.5-1.1-0.8-1.9-0.8
			c-0.7,0-1.3,0.2-1.7,0.5l-0.4,0.4L562.3,250.3z"/>
	</g>
	<g class="st7">
		<path class="st2" d="M556.8,299.9h-1.6V289l-3.3,1.2v-1.5l4.7-1.7h0.3V299.9z"/>
		<path class="st2" d="M569.9,299.9h-8.4v-1.2l4.4-4.9c0.7-0.7,1.1-1.3,1.4-1.8c0.2-0.5,0.4-0.9,0.4-1.4c0-0.7-0.2-1.2-0.6-1.6
			s-0.9-0.6-1.6-0.6c-0.8,0-1.4,0.2-1.9,0.7c-0.4,0.5-0.7,1.1-0.7,1.9h-1.6c0-1.2,0.4-2.1,1.1-2.9s1.8-1.1,3-1.1
			c1.2,0,2.1,0.3,2.8,0.9c0.7,0.6,1,1.5,1,2.5c0,1.3-0.8,2.8-2.4,4.5l-3.4,3.7h6.4V299.9z"/>
	</g>
	<g class="st7">
		<path class="st2" d="M562.3,379.9l0.7-6.4h6.6v1.5h-5.2l-0.4,3.5c0.6-0.4,1.3-0.6,2.1-0.6c1.2,0,2.1,0.4,2.8,1.2
			c0.7,0.8,1,1.8,1,3.1c0,1.3-0.4,2.4-1.1,3.1c-0.7,0.8-1.7,1.1-3,1.1c-1.1,0-2.1-0.3-2.8-0.9s-1.1-1.5-1.2-2.6h1.5
			c0.1,0.7,0.4,1.3,0.8,1.7s1,0.6,1.7,0.6c0.8,0,1.3-0.3,1.8-0.8s0.6-1.2,0.6-2.1c0-0.9-0.2-1.5-0.7-2.1c-0.5-0.5-1.1-0.8-1.9-0.8
			c-0.7,0-1.3,0.2-1.7,0.5l-0.4,0.4L562.3,379.9z"/>
	</g>
	<g class="st7">
		<path class="st2" d="M569.9,429.5h-8.4v-1.2l4.4-4.9c0.7-0.7,1.1-1.3,1.4-1.8c0.2-0.5,0.4-0.9,0.4-1.4c0-0.7-0.2-1.2-0.6-1.6
			s-0.9-0.6-1.6-0.6c-0.8,0-1.4,0.2-1.9,0.7c-0.4,0.5-0.7,1.1-0.7,1.9h-1.6c0-1.2,0.4-2.1,1.1-2.9s1.8-1.1,3-1.1
			c1.2,0,2.1,0.3,2.8,0.9c0.7,0.6,1,1.5,1,2.5c0,1.3-0.8,2.8-2.4,4.5l-3.4,3.7h6.4V429.5z"/>
	</g>
	<g class="st7">
		<path class="st2" d="M568.4,468.4h1.8v1.3h-1.8v3h-1.6v-3H561v-1l5.7-8.9h1.7V468.4z M562.8,468.4h4v-6.3l-0.2,0.4L562.8,468.4z"
			/>
	</g>
	<g class="st7">
		<path class="st2" d="M648.1,562.2l3.7-10.6h1.8l-4.7,12.8h-1.5l-4.7-12.8h1.8L648.1,562.2z"/>
	</g>
	<g class="st7">
		<path class="st2" d="M657.3,560.7c-1-0.3-1.7-0.6-2.1-1s-0.7-0.9-0.7-1.5c0-0.7,0.3-1.2,0.8-1.7s1.2-0.7,2.1-0.7
			c0.6,0,1.1,0.1,1.6,0.3s0.8,0.5,1.1,0.9s0.4,0.8,0.4,1.3h-1.1c0-0.5-0.2-0.9-0.5-1.2c-0.3-0.3-0.8-0.4-1.4-0.4
			c-0.6,0-1,0.1-1.3,0.4c-0.3,0.2-0.5,0.6-0.5,1c0,0.3,0.1,0.6,0.4,0.9c0.3,0.2,0.8,0.5,1.5,0.7c0.7,0.2,1.3,0.4,1.7,0.7
			s0.7,0.5,0.9,0.8s0.3,0.7,0.3,1.1c0,0.7-0.3,1.2-0.8,1.7s-1.3,0.6-2.2,0.6c-0.6,0-1.1-0.1-1.6-0.3s-0.9-0.5-1.2-0.9
			s-0.4-0.8-0.4-1.3h1.1c0,0.5,0.2,0.9,0.6,1.2s0.9,0.4,1.5,0.4c0.6,0,1-0.1,1.4-0.4s0.5-0.6,0.5-1s-0.1-0.7-0.4-1
			S658.1,560.9,657.3,560.7z"/>
		<path class="st2" d="M664.4,560.7c-1-0.3-1.7-0.6-2.1-1s-0.7-0.9-0.7-1.5c0-0.7,0.3-1.2,0.8-1.7s1.2-0.7,2.1-0.7
			c0.6,0,1.1,0.1,1.6,0.3s0.8,0.5,1.1,0.9s0.4,0.8,0.4,1.3h-1.1c0-0.5-0.2-0.9-0.5-1.2c-0.3-0.3-0.8-0.4-1.4-0.4
			c-0.6,0-1,0.1-1.3,0.4c-0.3,0.2-0.5,0.6-0.5,1c0,0.3,0.1,0.6,0.4,0.9c0.3,0.2,0.8,0.5,1.5,0.7c0.7,0.2,1.3,0.4,1.7,0.7
			s0.7,0.5,0.9,0.8s0.3,0.7,0.3,1.1c0,0.7-0.3,1.2-0.8,1.7s-1.3,0.6-2.2,0.6c-0.6,0-1.1-0.1-1.6-0.3s-0.9-0.5-1.2-0.9
			s-0.4-0.8-0.4-1.3h1.1c0,0.5,0.2,0.9,0.6,1.2s0.9,0.4,1.5,0.4c0.6,0,1-0.1,1.4-0.4s0.5-0.6,0.5-1s-0.1-0.7-0.4-1
			S665.2,560.9,664.4,560.7z"/>
	</g>
	<g class="st7">
		<path class="st2" d="M732.6,200.7v-12.8h4.2c1.4,0,2.4,0.3,3.1,0.9s1.1,1.4,1.1,2.5c0,0.6-0.2,1.1-0.5,1.6
			c-0.3,0.5-0.8,0.8-1.4,1.1c0.7,0.2,1.2,0.6,1.6,1.1s0.6,1.2,0.6,1.9c0,1.1-0.4,2.1-1.1,2.7s-1.8,1-3.2,1H732.6z M734.3,193.4h2.5
			c0.7,0,1.3-0.2,1.8-0.6s0.7-0.9,0.7-1.5c0-0.7-0.2-1.2-0.6-1.5c-0.4-0.3-1-0.5-1.9-0.5h-2.5V193.4z M734.3,194.7v4.6h2.8
			c0.8,0,1.4-0.2,1.9-0.6s0.7-1,0.7-1.7c0-1.5-0.8-2.3-2.5-2.3H734.3z"/>
	</g>
	<g class="st7">
		<path class="st2" d="M740.6,242.7c-0.2,1.4-0.7,2.4-1.5,3.1c-0.8,0.7-2,1.1-3.4,1.1c-1.5,0-2.7-0.5-3.6-1.6s-1.4-2.5-1.4-4.4v-1.2
			c0-1.2,0.2-2.2,0.6-3.1s1-1.6,1.8-2.1c0.8-0.5,1.7-0.7,2.7-0.7c1.4,0,2.4,0.4,3.3,1.1s1.3,1.8,1.4,3.2h-1.7c-0.1-1-0.5-1.8-1-2.2
			c-0.5-0.5-1.2-0.7-2.1-0.7c-1.1,0-1.9,0.4-2.5,1.2s-0.9,1.9-0.9,3.4v1.2c0,1.4,0.3,2.5,0.9,3.3s1.4,1.2,2.4,1.2
			c0.9,0,1.7-0.2,2.2-0.6c0.5-0.4,0.8-1.2,1-2.2H740.6z"/>
	</g>
	<g class="st7">
		<path class="st2" d="M739.7,157h-5.4l-1.2,3.3h-1.7l4.9-12.8h1.5l4.9,12.8h-1.7L739.7,157z M734.9,155.7h4.4l-2.2-6L734.9,155.7z"
			/>
	</g>
	<g class="st7">
		<path class="st2" d="M754.7,314.3h1.2c0.8,0,1.4-0.2,1.8-0.6s0.7-0.9,0.7-1.6c0-1.5-0.7-2.2-2.2-2.2c-0.7,0-1.3,0.2-1.7,0.6
			c-0.4,0.4-0.6,0.9-0.6,1.6h-1.6c0-1,0.4-1.9,1.1-2.5c0.7-0.7,1.7-1,2.8-1c1.2,0,2.2,0.3,2.8,1s1,1.5,1,2.7c0,0.6-0.2,1.1-0.5,1.6
			c-0.4,0.5-0.9,0.9-1.5,1.2c0.7,0.2,1.2,0.6,1.6,1.1c0.4,0.5,0.6,1.1,0.6,1.9c0,1.1-0.4,2.1-1.1,2.7s-1.7,1-2.9,1s-2.2-0.3-2.9-1
			c-0.8-0.7-1.1-1.5-1.1-2.6h1.6c0,0.7,0.2,1.2,0.7,1.6s1,0.6,1.8,0.6c0.8,0,1.4-0.2,1.8-0.6s0.6-1,0.6-1.8c0-0.7-0.2-1.3-0.7-1.7
			s-1.1-0.6-2-0.6h-1.2V314.3z"/>
	</g>
	<g class="st7">
		<path class="st2" d="M761.5,298.5c-0.2,1.4-0.7,2.4-1.5,3.1c-0.8,0.7-2,1.1-3.4,1.1c-1.5,0-2.7-0.5-3.6-1.6s-1.4-2.5-1.4-4.4v-1.2
			c0-1.2,0.2-2.2,0.6-3.1s1-1.6,1.8-2.1c0.8-0.5,1.7-0.7,2.7-0.7c1.4,0,2.4,0.4,3.3,1.1s1.3,1.8,1.4,3.2h-1.7c-0.1-1-0.5-1.8-1-2.2
			c-0.5-0.5-1.2-0.7-2.1-0.7c-1.1,0-1.9,0.4-2.5,1.2s-0.9,1.9-0.9,3.4v1.2c0,1.4,0.3,2.5,0.9,3.3s1.4,1.2,2.4,1.2
			c0.9,0,1.7-0.2,2.2-0.6c0.5-0.4,0.8-1.2,1-2.2H761.5z"/>
		<path class="st2" d="M773.6,296.6c0,1.3-0.2,2.3-0.6,3.3c-0.4,0.9-1,1.6-1.8,2.1s-1.7,0.7-2.7,0.7c-1,0-1.9-0.2-2.7-0.7
			s-1.4-1.2-1.8-2.1c-0.4-0.9-0.7-2-0.7-3.2v-0.9c0-1.2,0.2-2.3,0.6-3.3s1-1.7,1.8-2.2c0.8-0.5,1.7-0.8,2.7-0.8c1,0,1.9,0.2,2.7,0.7
			c0.8,0.5,1.4,1.2,1.8,2.2c0.4,0.9,0.6,2,0.6,3.3V296.6z M772,295.8c0-1.5-0.3-2.7-0.9-3.5s-1.5-1.2-2.6-1.2
			c-1.1,0-1.9,0.4-2.5,1.2s-0.9,1.9-0.9,3.4v0.9c0,1.5,0.3,2.6,0.9,3.5s1.5,1.3,2.6,1.3c1.1,0,1.9-0.4,2.5-1.2s0.9-1.9,0.9-3.4
			V295.8z"/>
		<path class="st2" d="M778.4,289.8l4.2,10.4l4.2-10.4h2.2v12.8h-1.7v-5l0.2-5.4l-4.2,10.4h-1.3l-4.2-10.3l0.2,5.4v5h-1.7v-12.8
			H778.4z"/>
	</g>
	<g class="st7">
		<path class="st2" d="M758.7,449.1v1.4h-0.3c-1.3,0-2.3,0.4-3,1.1s-1.2,1.7-1.3,3.1c0.7-0.8,1.6-1.2,2.8-1.2c1.1,0,2,0.4,2.7,1.2
			c0.7,0.8,1,1.8,1,3c0,1.3-0.4,2.4-1.1,3.2c-0.7,0.8-1.7,1.2-2.9,1.2c-1.2,0-2.2-0.5-3-1.4c-0.8-0.9-1.1-2.2-1.1-3.6v-0.6
			c0-2.4,0.5-4.2,1.5-5.4c1-1.2,2.5-1.9,4.5-1.9H758.7z M756.6,454.8c-0.6,0-1.1,0.2-1.5,0.5s-0.8,0.8-1,1.3v0.6
			c0,1.1,0.2,1.9,0.7,2.5s1.1,1,1.8,1c0.7,0,1.3-0.3,1.7-0.8c0.4-0.5,0.6-1.2,0.6-2.1c0-0.9-0.2-1.6-0.6-2.1
			C757.9,455.1,757.3,454.8,756.6,454.8z"/>
	</g>
	<g class="st7">
		<path class="st2" d="M705.3,444.8h-1.7V432h1.7V444.8z"/>
		<path class="st2" d="M718.2,444.8h-1.7l-6.4-9.9v9.9h-1.7V432h1.7l6.5,9.9V432h1.7V444.8z"/>
		<path class="st2" d="M731,444.8h-1.7v-5.9h-6.5v5.9h-1.7V432h1.7v5.5h6.5V432h1.7V444.8z"/>
	</g>
	<g class="st7">
		<path class="st2" d="M646.1,122.6h-1.6v-10.8l-3.3,1.2v-1.5l4.7-1.7h0.3V122.6z"/>
		<path class="st2" d="M657.2,109.8v1.4h-0.3c-1.3,0-2.3,0.4-3,1.1s-1.2,1.7-1.3,3.1c0.7-0.8,1.6-1.2,2.8-1.2c1.1,0,2,0.4,2.7,1.2
			s1,1.8,1,3c0,1.3-0.4,2.4-1.1,3.2s-1.7,1.2-2.9,1.2c-1.2,0-2.2-0.5-3-1.4c-0.8-0.9-1.1-2.2-1.1-3.6v-0.6c0-2.4,0.5-4.2,1.5-5.4
			c1-1.2,2.5-1.9,4.5-1.9H657.2z M655.1,115.5c-0.6,0-1.1,0.2-1.5,0.5s-0.8,0.8-1,1.3v0.6c0,1.1,0.2,1.9,0.7,2.5s1.1,1,1.8,1
			c0.7,0,1.3-0.3,1.7-0.8s0.6-1.2,0.6-2.1c0-0.9-0.2-1.6-0.6-2.1S655.8,115.5,655.1,115.5z"/>
	</g>
	<g class="st7">
		<path class="st2" d="M632,534.3c0,0.6-0.2,1.2-0.5,1.7s-0.8,0.9-1.4,1.2c0.7,0.3,1.2,0.7,1.6,1.3s0.6,1.2,0.6,1.9
			c0,1.1-0.4,2-1.1,2.6s-1.7,1-2.9,1c-1.2,0-2.2-0.3-3-1c-0.7-0.7-1.1-1.5-1.1-2.6c0-0.7,0.2-1.3,0.6-1.9s0.9-1,1.6-1.3
			c-0.6-0.3-1-0.7-1.3-1.2s-0.5-1.1-0.5-1.7c0-1.1,0.3-1.9,1-2.6s1.6-0.9,2.7-0.9c1.1,0,2,0.3,2.7,0.9S632,533.2,632,534.3z
			 M630.6,540.3c0-0.7-0.2-1.3-0.7-1.7s-1-0.7-1.8-0.7s-1.3,0.2-1.8,0.7s-0.7,1-0.7,1.8s0.2,1.3,0.6,1.7s1,0.6,1.8,0.6
			c0.8,0,1.4-0.2,1.8-0.6S630.6,541,630.6,540.3z M628.2,532.1c-0.6,0-1.2,0.2-1.6,0.6c-0.4,0.4-0.6,0.9-0.6,1.6
			c0,0.7,0.2,1.2,0.6,1.6c0.4,0.4,0.9,0.6,1.6,0.6s1.2-0.2,1.6-0.6c0.4-0.4,0.6-0.9,0.6-1.6s-0.2-1.2-0.6-1.6
			S628.8,532.1,628.2,532.1z"/>
	</g>
	<g class="st7">
		<path class="st2" d="M566.9,343.1h-1.6v-10.8l-3.3,1.2V332l4.7-1.7h0.3V343.1z"/>
	</g>
	<g class="st7">
		<path class="st2" d="M709.6,562.2l3.7-10.6h1.8l-4.7,12.8h-1.5l-4.7-12.8h1.8L709.6,562.2z"/>
	</g>
	<g class="st7">
		<path class="st2" d="M721.1,560.5h-3.7v3h4.3v0.9h-5.4v-8.5h5.4v0.9h-4.2v2.7h3.7V560.5z"/>
		<path class="st2" d="M727.9,560.5h-3.7v3h4.3v0.9h-5.4v-8.5h5.4v0.9h-4.2v2.7h3.7V560.5z"/>
	</g>
	<g class="st7">
		<path class="st2" d="M693.7,531.9l-5.3,11.9h-1.7l5.3-11.5H685V531h8.6V531.9z"/>
	</g>
	<g class="st7">
		<path class="st2" d="M672.5,74.4l3.7-10.6h1.8l-4.7,12.8h-1.5L667,63.9h1.8L672.5,74.4z"/>
	</g>
	<g class="st7">
		<path class="st2" d="M679.2,76.7v-8.5h2.4c0.7,0,1.4,0.2,2,0.5s1,0.8,1.3,1.4s0.5,1.3,0.5,2.1v0.5c0,0.8-0.2,1.5-0.5,2.1
			s-0.8,1.1-1.3,1.4s-1.2,0.5-2,0.5H679.2z M680.4,69.1v6.7h1.2c0.9,0,1.5-0.3,2-0.8c0.5-0.5,0.7-1.3,0.7-2.3v-0.5
			c0-1-0.2-1.7-0.7-2.3c-0.5-0.5-1.1-0.8-1.9-0.8H680.4z"/>
		<path class="st2" d="M687.1,76.7v-8.5h2.4c0.7,0,1.4,0.2,2,0.5s1,0.8,1.3,1.4s0.5,1.3,0.5,2.1v0.5c0,0.8-0.2,1.5-0.5,2.1
			s-0.8,1.1-1.3,1.4s-1.2,0.5-2,0.5H687.1z M688.2,69.1v6.7h1.2c0.9,0,1.5-0.3,2-0.8c0.5-0.5,0.7-1.3,0.7-2.3v-0.5
			c0-1-0.2-1.7-0.7-2.3c-0.5-0.5-1.1-0.8-1.9-0.8H688.2z"/>
	</g>
	<g class="st7">
		<path class="st2" d="M392.8,127.1h-8.4v-1.2l4.4-4.9c0.7-0.7,1.1-1.3,1.4-1.8c0.2-0.5,0.4-0.9,0.4-1.4c0-0.7-0.2-1.2-0.6-1.6
			s-0.9-0.6-1.6-0.6c-0.8,0-1.4,0.2-1.9,0.7c-0.4,0.5-0.7,1.1-0.7,1.9h-1.6c0-1.2,0.4-2.1,1.1-2.9s1.8-1.1,3-1.1
			c1.2,0,2.1,0.3,2.8,0.9c0.7,0.6,1,1.5,1,2.5c0,1.3-0.8,2.8-2.4,4.5l-3.4,3.7h6.4V127.1z"/>
	</g>
	<g class="st7">
		<path class="st2" d="M386.8,76.7h1.2c0.8,0,1.4-0.2,1.8-0.6s0.7-0.9,0.7-1.6c0-1.5-0.7-2.2-2.2-2.2c-0.7,0-1.3,0.2-1.7,0.6
			c-0.4,0.4-0.6,0.9-0.6,1.6h-1.6c0-1,0.4-1.9,1.1-2.5c0.7-0.7,1.7-1,2.8-1c1.2,0,2.2,0.3,2.8,1s1,1.5,1,2.7c0,0.6-0.2,1.1-0.5,1.6
			s-0.9,0.9-1.5,1.2c0.7,0.2,1.2,0.6,1.6,1.1s0.6,1.1,0.6,1.9c0,1.1-0.4,2.1-1.1,2.7s-1.7,1-2.9,1s-2.2-0.3-2.9-1s-1.1-1.5-1.1-2.6
			h1.6c0,0.7,0.2,1.2,0.7,1.6s1,0.6,1.8,0.6c0.8,0,1.4-0.2,1.8-0.6s0.6-1,0.6-1.8c0-0.7-0.2-1.3-0.7-1.7s-1.1-0.6-2-0.6h-1.2V76.7z"
			/>
	</g>
	<g class="st7">
		<path class="st2" d="M520.9,50.9c0,1.3-0.2,2.3-0.6,3.3c-0.4,0.9-1,1.6-1.8,2.1s-1.7,0.7-2.7,0.7c-1,0-1.9-0.2-2.7-0.7
			s-1.4-1.2-1.8-2.1c-0.4-0.9-0.7-2-0.7-3.2v-0.9c0-1.2,0.2-2.3,0.6-3.3s1-1.7,1.8-2.2c0.8-0.5,1.7-0.8,2.7-0.8c1,0,1.9,0.2,2.7,0.7
			c0.8,0.5,1.4,1.2,1.8,2.2c0.4,0.9,0.6,2,0.6,3.3V50.9z M519.3,50.1c0-1.5-0.3-2.7-0.9-3.5s-1.5-1.2-2.6-1.2
			c-1.1,0-1.9,0.4-2.5,1.2s-0.9,1.9-0.9,3.4v0.9c0,1.5,0.3,2.6,0.9,3.5s1.5,1.3,2.6,1.3c1.1,0,1.9-0.4,2.5-1.2s0.9-1.9,0.9-3.4V50.1
			z"/>
		<path class="st2" d="M532.5,44.1v8.7c0,1.2-0.4,2.2-1.1,3s-1.8,1.2-3.1,1.3l-0.4,0c-1.4,0-2.5-0.4-3.3-1.1s-1.3-1.8-1.3-3.1v-8.7
			h1.7v8.7c0,0.9,0.3,1.6,0.8,2.2s1.2,0.8,2.2,0.8c1,0,1.7-0.3,2.2-0.8s0.8-1.2,0.8-2.2v-8.7H532.5z"/>
		<path class="st2" d="M544,45.5h-4.1v11.4h-1.7V45.5h-4.1v-1.4h9.9V45.5z"/>
		<path class="st2" d="M547.6,51.9v5h-1.7V44.1h4.7c1.4,0,2.5,0.4,3.3,1.1s1.2,1.7,1.2,2.8c0,1.2-0.4,2.2-1.2,2.9s-1.9,1-3.3,1
			H547.6z M547.6,50.5h3c0.9,0,1.6-0.2,2.1-0.6c0.5-0.4,0.7-1,0.7-1.8c0-0.8-0.2-1.4-0.7-1.8s-1.1-0.7-2-0.7h-3.1V50.5z"/>
		<path class="st2" d="M566.2,44.1v8.7c0,1.2-0.4,2.2-1.1,3s-1.8,1.2-3.1,1.3l-0.4,0c-1.4,0-2.5-0.4-3.3-1.1s-1.3-1.8-1.3-3.1v-8.7
			h1.7v8.7c0,0.9,0.3,1.6,0.8,2.2s1.2,0.8,2.2,0.8c1,0,1.7-0.3,2.2-0.8s0.8-1.2,0.8-2.2v-8.7H566.2z"/>
	</g>
	<g class="st7">
		<path class="st2" d="M577.7,45.5h-4.1v11.4h-1.7V45.5h-4.1v-1.4h9.9V45.5z"/>
	</g>
	<g class="st7">
		<path class="st2" d="M886.6,25.3l3.3,8.1l3.3-8.1h1.7v10h-1.3v-3.9l0.1-4.2l-3.3,8.1h-1l-3.3-8l0.1,4.2v3.9h-1.3v-10H886.6z"/>
		<path class="st2" d="M900,35.4c-1,0-1.8-0.3-2.4-1c-0.6-0.7-0.9-1.5-0.9-2.6v-0.2c0-0.7,0.1-1.4,0.4-2c0.3-0.6,0.7-1,1.2-1.4
			c0.5-0.3,1-0.5,1.6-0.5c1,0,1.7,0.3,2.2,1s0.8,1.5,0.8,2.7v0.5h-5c0,0.7,0.2,1.3,0.6,1.8c0.4,0.4,0.9,0.7,1.6,0.7
			c0.4,0,0.8-0.1,1.1-0.3c0.3-0.2,0.6-0.4,0.8-0.7l0.8,0.6C902.2,34.9,901.3,35.4,900,35.4z M899.9,28.8c-0.5,0-0.9,0.2-1.3,0.6
			c-0.3,0.4-0.6,0.9-0.6,1.6h3.7v-0.1c0-0.6-0.2-1.1-0.5-1.5C900.8,29,900.4,28.8,899.9,28.8z"/>
		<path class="st2" d="M905.8,35.3h-1.3V24.8h1.3V35.3z"/>
		<path class="st2" d="M907.4,31.5c0-0.7,0.1-1.4,0.4-2c0.3-0.6,0.7-1,1.2-1.3c0.5-0.3,1.1-0.5,1.7-0.5c1,0,1.8,0.3,2.4,1
			s0.9,1.6,0.9,2.8v0.1c0,0.7-0.1,1.4-0.4,1.9c-0.3,0.6-0.7,1-1.2,1.3s-1.1,0.5-1.8,0.5c-1,0-1.8-0.3-2.4-1S907.4,32.8,907.4,31.5
			L907.4,31.5z M908.7,31.7c0,0.8,0.2,1.5,0.6,2c0.4,0.5,0.9,0.7,1.5,0.7c0.6,0,1.2-0.3,1.5-0.8c0.4-0.5,0.6-1.2,0.6-2.1
			c0-0.8-0.2-1.5-0.6-2c-0.4-0.5-0.9-0.8-1.5-0.8c-0.6,0-1.1,0.2-1.5,0.7S908.7,30.7,908.7,31.7z"/>
		<path class="st2" d="M915.5,31.5c0-1.1,0.3-2,0.8-2.7c0.5-0.7,1.2-1,2.1-1c0.9,0,1.6,0.3,2.1,0.9v-3.9h1.3v10.5h-1.2l-0.1-0.8
			c-0.5,0.6-1.2,0.9-2.1,0.9c-0.9,0-1.6-0.4-2.1-1.1S915.5,32.7,915.5,31.5L915.5,31.5z M916.7,31.7c0,0.8,0.2,1.5,0.5,2
			c0.3,0.5,0.8,0.7,1.4,0.7c0.8,0,1.4-0.4,1.8-1.1v-3.4c-0.4-0.7-1-1-1.7-1c-0.6,0-1.1,0.2-1.4,0.7C916.9,30,916.7,30.7,916.7,31.7z
			"/>
		<path class="st2" d="M926.1,33.4l1.7-5.5h1.4l-3,8.5c-0.5,1.2-1.2,1.8-2.2,1.8l-0.2,0l-0.5-0.1v-1l0.3,0c0.4,0,0.8-0.1,1-0.3
			s0.4-0.5,0.6-1l0.3-0.8l-2.6-7.3h1.4L926.1,33.4z"/>
		<path class="st2" d="M941.3,34c-0.3,0.5-0.8,0.8-1.4,1.1c-0.6,0.2-1.3,0.4-2.1,0.4c-0.8,0-1.5-0.2-2.2-0.6
			c-0.6-0.4-1.1-0.9-1.5-1.6c-0.3-0.7-0.5-1.5-0.5-2.4v-0.9c0-1.5,0.3-2.7,1-3.5c0.7-0.8,1.7-1.2,3-1.2c1,0,1.9,0.3,2.5,0.8
			c0.6,0.5,1,1.3,1.2,2.3H940c-0.2-1.3-1-2-2.4-2c-0.9,0-1.5,0.3-2,0.9c-0.5,0.6-0.7,1.5-0.7,2.7v0.8c0,1.1,0.3,2,0.8,2.7
			c0.5,0.7,1.2,1,2.1,1c0.5,0,0.9-0.1,1.3-0.2c0.4-0.1,0.7-0.3,0.9-0.6v-2.2h-2.3v-1.1h3.6V34z"/>
		<path class="st2" d="M946.3,35.4c-1,0-1.8-0.3-2.4-1c-0.6-0.7-0.9-1.5-0.9-2.6v-0.2c0-0.7,0.1-1.4,0.4-2c0.3-0.6,0.7-1,1.2-1.4
			c0.5-0.3,1-0.5,1.6-0.5c1,0,1.7,0.3,2.2,1s0.8,1.5,0.8,2.7v0.5h-5c0,0.7,0.2,1.3,0.6,1.8c0.4,0.4,0.9,0.7,1.6,0.7
			c0.4,0,0.8-0.1,1.1-0.3c0.3-0.2,0.6-0.4,0.8-0.7l0.8,0.6C948.5,34.9,947.6,35.4,946.3,35.4z M946.2,28.8c-0.5,0-0.9,0.2-1.3,0.6
			c-0.3,0.4-0.6,0.9-0.6,1.6h3.7v-0.1c0-0.6-0.2-1.1-0.5-1.5C947.1,29,946.7,28.8,946.2,28.8z"/>
		<path class="st2" d="M951.9,27.9l0,0.9c0.6-0.7,1.3-1.1,2.2-1.1c1.6,0,2.4,0.9,2.4,2.6v4.9h-1.3v-4.9c0-0.5-0.1-0.9-0.4-1.2
			s-0.6-0.4-1.1-0.4c-0.4,0-0.8,0.1-1.1,0.3c-0.3,0.2-0.6,0.5-0.7,0.9v5.3h-1.3v-7.4H951.9z"/>
		<path class="st2" d="M961.5,35.4c-1,0-1.8-0.3-2.4-1c-0.6-0.7-0.9-1.5-0.9-2.6v-0.2c0-0.7,0.1-1.4,0.4-2c0.3-0.6,0.7-1,1.2-1.4
			c0.5-0.3,1-0.5,1.6-0.5c1,0,1.7,0.3,2.2,1s0.8,1.5,0.8,2.7v0.5h-5c0,0.7,0.2,1.3,0.6,1.8c0.4,0.4,0.9,0.7,1.6,0.7
			c0.4,0,0.8-0.1,1.1-0.3c0.3-0.2,0.6-0.4,0.8-0.7l0.8,0.6C963.7,34.9,962.7,35.4,961.5,35.4z M961.3,28.8c-0.5,0-0.9,0.2-1.3,0.6
			c-0.3,0.4-0.6,0.9-0.6,1.6h3.7v-0.1c0-0.6-0.2-1.1-0.5-1.5C962.3,29,961.9,28.8,961.3,28.8z"/>
	</g>
	<g class="st7">
		<path class="st2" d="M969.4,29c-0.2,0-0.4,0-0.6,0c-0.8,0-1.4,0.4-1.7,1.1v5.2h-1.3v-7.4h1.2l0,0.9c0.4-0.7,1-1,1.8-1
			c0.2,0,0.4,0,0.6,0.1V29z"/>
	</g>
	<g class="st7">
		<path class="st2" d="M974.9,35.3c-0.1-0.1-0.1-0.4-0.2-0.8c-0.6,0.6-1.3,0.9-2.1,0.9c-0.7,0-1.3-0.2-1.8-0.6
			c-0.5-0.4-0.7-0.9-0.7-1.6c0-0.8,0.3-1.4,0.9-1.8c0.6-0.4,1.4-0.6,2.5-0.6h1.2v-0.6c0-0.4-0.1-0.8-0.4-1.1
			c-0.3-0.3-0.7-0.4-1.2-0.4c-0.5,0-0.8,0.1-1.1,0.3c-0.3,0.2-0.5,0.5-0.5,0.8h-1.3c0-0.4,0.1-0.7,0.4-1.1c0.3-0.3,0.6-0.6,1.1-0.8
			s0.9-0.3,1.5-0.3c0.9,0,1.5,0.2,2,0.6c0.5,0.4,0.7,1,0.8,1.8v3.4c0,0.7,0.1,1.2,0.3,1.6v0.1H974.9z M972.8,34.3
			c0.4,0,0.8-0.1,1.1-0.3s0.6-0.5,0.8-0.8v-1.5h-1c-1.5,0-2.3,0.5-2.3,1.4c0,0.4,0.1,0.7,0.4,0.9C972,34.2,972.4,34.3,972.8,34.3z"
			/>
	</g>
	<g class="st7">
		<path class="st2" d="M979.6,26.1v1.8h1.4v1h-1.4v4.6c0,0.3,0.1,0.5,0.2,0.7s0.3,0.2,0.6,0.2c0.1,0,0.3,0,0.6-0.1v1
			c-0.3,0.1-0.7,0.1-1,0.1c-0.6,0-1-0.2-1.3-0.5s-0.4-0.8-0.4-1.5v-4.6H977v-1h1.3v-1.8H979.6z"/>
	</g>
	<g class="st7">
		<path class="st2" d="M982,31.5c0-0.7,0.1-1.4,0.4-2c0.3-0.6,0.7-1,1.2-1.3c0.5-0.3,1.1-0.5,1.7-0.5c1,0,1.8,0.3,2.4,1
			s0.9,1.6,0.9,2.8v0.1c0,0.7-0.1,1.4-0.4,1.9c-0.3,0.6-0.7,1-1.2,1.3s-1.1,0.5-1.8,0.5c-1,0-1.8-0.3-2.4-1S982,32.8,982,31.5
			L982,31.5z M983.3,31.7c0,0.8,0.2,1.5,0.6,2c0.4,0.5,0.9,0.7,1.5,0.7c0.6,0,1.2-0.3,1.5-0.8c0.4-0.5,0.6-1.2,0.6-2.1
			c0-0.8-0.2-1.5-0.6-2c-0.4-0.5-0.9-0.8-1.5-0.8c-0.6,0-1.1,0.2-1.5,0.7S983.3,30.7,983.3,31.7z"/>
		<path class="st2" d="M993.9,29c-0.2,0-0.4,0-0.6,0c-0.8,0-1.4,0.4-1.7,1.1v5.2h-1.3v-7.4h1.2l0,0.9c0.4-0.7,1-1,1.8-1
			c0.2,0,0.4,0,0.6,0.1V29z"/>
		<path class="st2" d="M998.5,31.2c0-1,0.1-2,0.4-3c0.3-0.9,0.7-1.8,1.2-2.6s1.1-1.3,1.7-1.6l0.3,0.8c-0.7,0.5-1.2,1.3-1.6,2.3
			c-0.4,1-0.7,2.2-0.7,3.5l0,0.6c0,1.8,0.3,3.3,1,4.6c0.4,0.8,0.8,1.4,1.4,1.8l-0.3,0.8c-0.6-0.3-1.2-0.9-1.7-1.7
			C999,35.2,998.5,33.4,998.5,31.2z"/>
		<path class="st2" d="M1006.5,30.8c-1.1-0.3-1.9-0.7-2.5-1.2c-0.5-0.5-0.8-1.1-0.8-1.7c0-0.8,0.3-1.4,0.9-1.9
			c0.6-0.5,1.4-0.8,2.4-0.8c0.7,0,1.3,0.1,1.8,0.4c0.5,0.3,1,0.6,1.2,1.1s0.4,1,0.4,1.5h-1.3c0-0.6-0.2-1.1-0.6-1.4
			c-0.4-0.3-0.9-0.5-1.6-0.5c-0.6,0-1.2,0.1-1.5,0.4c-0.4,0.3-0.5,0.7-0.5,1.2c0,0.4,0.2,0.8,0.5,1c0.3,0.3,0.9,0.5,1.8,0.8
			c0.8,0.2,1.5,0.5,1.9,0.8c0.5,0.3,0.8,0.6,1,1s0.3,0.8,0.3,1.3c0,0.8-0.3,1.5-0.9,1.9c-0.6,0.5-1.5,0.7-2.5,0.7
			c-0.7,0-1.3-0.1-1.9-0.4c-0.6-0.3-1-0.6-1.4-1.1s-0.5-1-0.5-1.6h1.3c0,0.6,0.2,1.1,0.7,1.4c0.4,0.3,1,0.5,1.8,0.5
			c0.7,0,1.2-0.1,1.6-0.4s0.6-0.7,0.6-1.2s-0.2-0.9-0.5-1.1C1008,31.4,1007.4,31.1,1006.5,30.8z"/>
		<path class="st2" d="M1013,35.3h-1.3V24.8h1.3V35.3z"/>
		<path class="st2" d="M1019.6,35.3c-0.1-0.1-0.1-0.4-0.2-0.8c-0.6,0.6-1.3,0.9-2.1,0.9c-0.7,0-1.3-0.2-1.8-0.6
			c-0.5-0.4-0.7-0.9-0.7-1.6c0-0.8,0.3-1.4,0.9-1.8c0.6-0.4,1.4-0.6,2.5-0.6h1.2v-0.6c0-0.4-0.1-0.8-0.4-1.1
			c-0.3-0.3-0.7-0.4-1.2-0.4c-0.5,0-0.8,0.1-1.1,0.3c-0.3,0.2-0.5,0.5-0.5,0.8h-1.3c0-0.4,0.1-0.7,0.4-1.1c0.3-0.3,0.6-0.6,1.1-0.8
			c0.4-0.2,0.9-0.3,1.5-0.3c0.9,0,1.5,0.2,2,0.6c0.5,0.4,0.7,1,0.8,1.8v3.4c0,0.7,0.1,1.2,0.3,1.6v0.1H1019.6z M1017.5,34.3
			c0.4,0,0.8-0.1,1.1-0.3s0.6-0.5,0.8-0.8v-1.5h-1c-1.5,0-2.3,0.5-2.3,1.4c0,0.4,0.1,0.7,0.4,0.9
			C1016.7,34.2,1017.1,34.3,1017.5,34.3z"/>
		<path class="st2" d="M1025.6,34.4c0.5,0,0.8-0.1,1.2-0.4c0.3-0.3,0.5-0.6,0.6-1h1.2c0,0.4-0.2,0.8-0.4,1.2
			c-0.3,0.4-0.6,0.7-1.1,0.9c-0.4,0.2-0.9,0.3-1.4,0.3c-1,0-1.8-0.3-2.4-1c-0.6-0.7-0.9-1.6-0.9-2.8v-0.2c0-0.7,0.1-1.4,0.4-1.9
			c0.3-0.6,0.6-1,1.1-1.3c0.5-0.3,1.1-0.5,1.8-0.5c0.8,0,1.5,0.2,2.1,0.7c0.5,0.5,0.8,1.1,0.9,1.9h-1.2c0-0.5-0.2-0.9-0.5-1.2
			c-0.3-0.3-0.7-0.5-1.2-0.5c-0.6,0-1.1,0.2-1.5,0.7c-0.4,0.5-0.5,1.1-0.5,2v0.2c0,0.9,0.2,1.5,0.5,2
			C1024.5,34.2,1025,34.4,1025.6,34.4z"/>
	</g>
	<g class="st7">
		<path class="st2" d="M1032,31.9l-0.8,0.8v2.6h-1.3V24.8h1.3v6.4l0.7-0.8l2.3-2.4h1.5l-2.9,3.1l3.2,4.3h-1.5L1032,31.9z"/>
	</g>
	<g class="st7">
		<path class="st2" d="M1040,35.4c-1,0-1.8-0.3-2.4-1c-0.6-0.7-0.9-1.5-0.9-2.6v-0.2c0-0.7,0.1-1.4,0.4-2c0.3-0.6,0.7-1,1.2-1.4
			c0.5-0.3,1-0.5,1.6-0.5c1,0,1.7,0.3,2.2,1s0.8,1.5,0.8,2.7v0.5h-5c0,0.7,0.2,1.3,0.6,1.8c0.4,0.4,0.9,0.7,1.6,0.7
			c0.4,0,0.8-0.1,1.1-0.3c0.3-0.2,0.6-0.4,0.8-0.7l0.8,0.6C1042.2,34.9,1041.2,35.4,1040,35.4z M1039.8,28.8c-0.5,0-0.9,0.2-1.3,0.6
			c-0.3,0.4-0.6,0.9-0.6,1.6h3.7v-0.1c0-0.6-0.2-1.1-0.5-1.5C1040.8,29,1040.4,28.8,1039.8,28.8z"/>
		<path class="st2" d="M1047.9,29c-0.2,0-0.4,0-0.6,0c-0.8,0-1.4,0.4-1.7,1.1v5.2h-1.3v-7.4h1.2l0,0.9c0.4-0.7,1-1,1.8-1
			c0.2,0,0.4,0,0.6,0.1V29z"/>
		<path class="st2" d="M1052,31.3c0,1-0.1,2-0.4,2.9c-0.3,0.9-0.7,1.8-1.2,2.6s-1.1,1.3-1.7,1.7l-0.3-0.8c0.7-0.5,1.3-1.4,1.7-2.5
			c0.4-1.1,0.6-2.4,0.7-3.8v-0.2c0-1-0.1-1.8-0.3-2.7c-0.2-0.8-0.5-1.6-0.8-2.2s-0.8-1.2-1.2-1.5l0.3-0.8c0.6,0.3,1.2,0.9,1.7,1.7
			s1,1.6,1.2,2.6S1052,30.2,1052,31.3z"/>
	</g>
	<g class="st7">
		<path class="st2" d="M590.5,277.8c-0.2,1.4-0.7,2.4-1.5,3.1c-0.8,0.7-2,1.1-3.4,1.1c-1.5,0-2.7-0.5-3.6-1.6s-1.4-2.5-1.4-4.4v-1.2
			c0-1.2,0.2-2.2,0.6-3.1s1-1.6,1.8-2.1c0.8-0.5,1.7-0.7,2.7-0.7c1.4,0,2.4,0.4,3.3,1.1s1.3,1.8,1.4,3.2h-1.7c-0.1-1-0.5-1.8-1-2.2
			c-0.5-0.5-1.2-0.7-2.1-0.7c-1.1,0-1.9,0.4-2.5,1.2s-0.9,1.9-0.9,3.4v1.2c0,1.4,0.3,2.5,0.9,3.3s1.4,1.2,2.4,1.2
			c0.9,0,1.7-0.2,2.2-0.6c0.5-0.4,0.8-1.2,1-2.2H590.5z"/>
		<path class="st2" d="M594.2,273.5c0.7-0.9,1.7-1.3,2.8-1.3c2,0,3,1.1,3,3.4v6.3h-1.6v-6.3c0-0.7-0.2-1.2-0.5-1.5s-0.8-0.5-1.4-0.5
			c-0.5,0-1,0.1-1.4,0.4s-0.7,0.7-0.9,1.1v6.8h-1.6v-13.5h1.6V273.5z"/>
		<path class="st2" d="M609.1,274.7h1.2c0.8,0,1.4-0.2,1.8-0.6s0.7-0.9,0.7-1.6c0-1.5-0.7-2.2-2.2-2.2c-0.7,0-1.3,0.2-1.7,0.6
			c-0.4,0.4-0.6,0.9-0.6,1.6h-1.6c0-1,0.4-1.9,1.1-2.5c0.7-0.7,1.7-1,2.8-1c1.2,0,2.2,0.3,2.8,1s1,1.5,1,2.7c0,0.6-0.2,1.1-0.5,1.6
			s-0.9,0.9-1.5,1.2c0.7,0.2,1.2,0.6,1.6,1.1s0.6,1.1,0.6,1.9c0,1.1-0.4,2.1-1.1,2.7s-1.7,1-2.9,1s-2.2-0.3-2.9-1s-1.1-1.5-1.1-2.6
			h1.6c0,0.7,0.2,1.2,0.7,1.6s1,0.6,1.8,0.6c0.8,0,1.4-0.2,1.8-0.6s0.6-1,0.6-1.8c0-0.7-0.2-1.3-0.7-1.7s-1.1-0.6-2-0.6h-1.2V274.7z
			"/>
	</g>
	<g class="st7">
		<path class="st2" d="M590.5,315.6c-0.2,1.4-0.7,2.4-1.5,3.1c-0.8,0.7-2,1.1-3.4,1.1c-1.5,0-2.7-0.5-3.6-1.6s-1.4-2.5-1.4-4.4v-1.2
			c0-1.2,0.2-2.2,0.6-3.1s1-1.6,1.8-2.1c0.8-0.5,1.7-0.7,2.7-0.7c1.4,0,2.4,0.4,3.3,1.1s1.3,1.8,1.4,3.2h-1.7c-0.1-1-0.5-1.8-1-2.2
			c-0.5-0.5-1.2-0.7-2.1-0.7c-1.1,0-1.9,0.4-2.5,1.2s-0.9,1.9-0.9,3.4v1.2c0,1.4,0.3,2.5,0.9,3.3s1.4,1.2,2.4,1.2
			c0.9,0,1.7-0.2,2.2-0.6c0.5-0.4,0.8-1.2,1-2.2H590.5z"/>
		<path class="st2" d="M594.2,311.3c0.7-0.9,1.7-1.3,2.8-1.3c2,0,3,1.1,3,3.4v6.3h-1.6v-6.3c0-0.7-0.2-1.2-0.5-1.5s-0.8-0.5-1.4-0.5
			c-0.5,0-1,0.1-1.4,0.4s-0.7,0.7-0.9,1.1v6.8h-1.6v-13.5h1.6V311.3z"/>
		<path class="st2" d="M613.6,315.4h1.8v1.3h-1.8v3H612v-3h-5.8v-1l5.7-8.9h1.7V315.4z M608,315.4h4v-6.3l-0.2,0.4L608,315.4z"/>
	</g>
	<g class="st7">
		<path class="st2" d="M590.5,376.8c-0.2,1.4-0.7,2.4-1.5,3.1c-0.8,0.7-2,1.1-3.4,1.1c-1.5,0-2.7-0.5-3.6-1.6s-1.4-2.5-1.4-4.4v-1.2
			c0-1.2,0.2-2.2,0.6-3.1s1-1.6,1.8-2.1c0.8-0.5,1.7-0.7,2.7-0.7c1.4,0,2.4,0.4,3.3,1.1s1.3,1.8,1.4,3.2h-1.7c-0.1-1-0.5-1.8-1-2.2
			c-0.5-0.5-1.2-0.7-2.1-0.7c-1.1,0-1.9,0.4-2.5,1.2s-0.9,1.9-0.9,3.4v1.2c0,1.4,0.3,2.5,0.9,3.3s1.4,1.2,2.4,1.2
			c0.9,0,1.7-0.2,2.2-0.6c0.5-0.4,0.8-1.2,1-2.2H590.5z"/>
		<path class="st2" d="M594.2,372.5c0.7-0.9,1.7-1.3,2.8-1.3c2,0,3,1.1,3,3.4v6.3h-1.6v-6.3c0-0.7-0.2-1.2-0.5-1.5s-0.8-0.5-1.4-0.5
			c-0.5,0-1,0.1-1.4,0.4s-0.7,0.7-0.9,1.1v6.8h-1.6v-13.5h1.6V372.5z"/>
		<path class="st2" d="M607.5,374.5l0.7-6.4h6.6v1.5h-5.2l-0.4,3.5c0.6-0.4,1.3-0.6,2.1-0.6c1.2,0,2.1,0.4,2.8,1.2
			c0.7,0.8,1,1.8,1,3.1c0,1.3-0.4,2.4-1.1,3.1c-0.7,0.8-1.7,1.1-3,1.1c-1.1,0-2.1-0.3-2.8-0.9s-1.1-1.5-1.2-2.6h1.5
			c0.1,0.7,0.4,1.3,0.8,1.7s1,0.6,1.7,0.6c0.8,0,1.3-0.3,1.8-0.8s0.6-1.2,0.6-2.1c0-0.9-0.2-1.5-0.7-2.1c-0.5-0.5-1.1-0.8-1.9-0.8
			c-0.7,0-1.3,0.2-1.7,0.5l-0.4,0.4L607.5,374.5z"/>
	</g>
	<g class="st7">
		<path class="st2" d="M590.5,418.2c-0.2,1.4-0.7,2.4-1.5,3.1c-0.8,0.7-2,1.1-3.4,1.1c-1.5,0-2.7-0.5-3.6-1.6s-1.4-2.5-1.4-4.4v-1.2
			c0-1.2,0.2-2.2,0.6-3.1s1-1.6,1.8-2.1c0.8-0.5,1.7-0.7,2.7-0.7c1.4,0,2.4,0.4,3.3,1.1s1.3,1.8,1.4,3.2h-1.7c-0.1-1-0.5-1.8-1-2.2
			c-0.5-0.5-1.2-0.7-2.1-0.7c-1.1,0-1.9,0.4-2.5,1.2s-0.9,1.9-0.9,3.4v1.2c0,1.4,0.3,2.5,0.9,3.3s1.4,1.2,2.4,1.2
			c0.9,0,1.7-0.2,2.2-0.6c0.5-0.4,0.8-1.2,1-2.2H590.5z"/>
		<path class="st2" d="M594.2,413.9c0.7-0.9,1.7-1.3,2.8-1.3c2,0,3,1.1,3,3.4v6.3h-1.6V416c0-0.7-0.2-1.2-0.5-1.5s-0.8-0.5-1.4-0.5
			c-0.5,0-1,0.1-1.4,0.4s-0.7,0.7-0.9,1.1v6.8h-1.6v-13.5h1.6V413.9z"/>
		<path class="st2" d="M613.1,409.5v1.4h-0.3c-1.3,0-2.3,0.4-3,1.1s-1.2,1.7-1.3,3.1c0.7-0.8,1.6-1.2,2.8-1.2c1.1,0,2,0.4,2.7,1.2
			s1,1.8,1,3c0,1.3-0.4,2.4-1.1,3.2s-1.7,1.2-2.9,1.2c-1.2,0-2.2-0.5-3-1.4c-0.8-0.9-1.1-2.2-1.1-3.6v-0.6c0-2.4,0.5-4.2,1.5-5.4
			c1-1.2,2.5-1.9,4.5-1.9H613.1z M611,415.2c-0.6,0-1.1,0.2-1.5,0.5s-0.8,0.8-1,1.3v0.6c0,1.1,0.2,1.9,0.7,2.5s1.1,1,1.8,1
			c0.7,0,1.3-0.3,1.7-0.8s0.6-1.2,0.6-2.1c0-0.9-0.2-1.6-0.6-2.1S611.7,415.2,611,415.2z"/>
	</g>
	<g class="st7">
		<path class="st2" d="M590.5,459.6c-0.2,1.4-0.7,2.4-1.5,3.1c-0.8,0.7-2,1.1-3.4,1.1c-1.5,0-2.7-0.5-3.6-1.6s-1.4-2.5-1.4-4.4v-1.2
			c0-1.2,0.2-2.2,0.6-3.1s1-1.6,1.8-2.1c0.8-0.5,1.7-0.7,2.7-0.7c1.4,0,2.4,0.4,3.3,1.1s1.3,1.8,1.4,3.2h-1.7c-0.1-1-0.5-1.8-1-2.2
			c-0.5-0.5-1.2-0.7-2.1-0.7c-1.1,0-1.9,0.4-2.5,1.2s-0.9,1.9-0.9,3.4v1.2c0,1.4,0.3,2.5,0.9,3.3s1.4,1.2,2.4,1.2
			c0.9,0,1.7-0.2,2.2-0.6c0.5-0.4,0.8-1.2,1-2.2H590.5z"/>
		<path class="st2" d="M594.2,455.3c0.7-0.9,1.7-1.3,2.8-1.3c2,0,3,1.1,3,3.4v6.3h-1.6v-6.3c0-0.7-0.2-1.2-0.5-1.5s-0.8-0.5-1.4-0.5
			c-0.5,0-1,0.1-1.4,0.4s-0.7,0.7-0.9,1.1v6.8h-1.6v-13.5h1.6V455.3z"/>
		<path class="st2" d="M615,451.8l-5.3,11.9H608l5.3-11.5h-6.9v-1.3h8.6V451.8z"/>
	</g>
</g>
</svg>
