<?xml version="1.0" encoding="UTF-8"?><svg xmlns="http://www.w3.org/2000/svg" viewBox="0 0 1080 600.48"><defs><style>.cls-1,.cls-2{fill:#cad2d9;}.cls-2,.cls-3,.cls-4,.cls-5{stroke:#cad2d9;stroke-miterlimit:10;}.cls-2,.cls-4{stroke-width:2px;}.cls-3{stroke-width:2px;}.cls-3,.cls-4,.cls-5{fill:none;}</style></defs><g id="Field"><circle class="cls-2" cx="492.48" cy="279.36" r="2.88"/></g><g id="Line"><line class="cls-5" x1="830.88" y1="342.72" x2="822.24" y2="342.72"/><line class="cls-5" x1="826.56" y1="338.4" x2="826.56" y2="347.04"/><line class="cls-5" x1="889.92" y1="342.72" x2="881.28" y2="342.72"/><line class="cls-5" x1="885.6" y1="338.4" x2="885.6" y2="347.04"/><line class="cls-4" x1="93.6" y1="178.56" x2="341.28" y2="178.56"/><line class="cls-4" x1="413.28" y1="178.56" x2="492.48" y2="178.56"/><rect class="cls-4" x="341.28" y="167.04" width="72" height="23.04"/><line class="cls-4" x1="174.24" y1="279.36" x2="341.28" y2="279.36"/><line class="cls-4" x1="413.28" y1="279.36" x2="492.48" y2="279.36"/><rect class="cls-4" x="341.28" y="267.84" width="72" height="23.04"/><line class="cls-4" x1="254.88" y1="365.76" x2="341.28" y2="365.76"/><line class="cls-4" x1="413.28" y1="365.76" x2="492.48" y2="365.76"/><rect class="cls-4" x="341.28" y="354.24" width="72" height="23.04"/><line class="cls-4" x1="492.48" y1="365.76" x2="492.48" y2="178.56"/><g><circle class="cls-4" cx="93.6" cy="446.4" r="21.6"/><path class="cls-4" d="M82.08,445.81c1.51-3.94,3.02-7.9,6.04-7.9,6.02,0,6.02,15.69,12.04,15.69,3,0,4.5-3.88,6-7.79"/></g><g><circle class="cls-4" cx="174.24" cy="446.4" r="21.6"/><path class="cls-4" d="M162.72,445.81c1.51-3.94,3.02-7.9,6.04-7.9,6.02,0,6.02,15.69,12.04,15.69,3,0,4.5-3.88,6-7.79"/></g><g><circle class="cls-4" cx="254.88" cy="446.4" r="21.6"/><path class="cls-4" d="M243.36,445.81c1.51-3.94,3.02-7.9,6.04-7.9,6.02,0,6.02,15.69,12.04,15.69,3,0,4.5-3.88,6-7.79"/></g><g><line class="cls-4" x1="495.36" y1="279.36" x2="588.59" y2="279.36"/><polygon class="cls-1" points="578.65 291.63 576.6 289.43 587.44 279.36 576.6 269.29 578.65 267.09 591.84 279.36 578.65 291.63"/></g><line class="cls-4" x1="174.24" y1="279.36" x2="174.24" y2="424.8"/><line class="cls-4" x1="254.88" y1="365.76" x2="254.88" y2="424.8"/><line class="cls-4" x1="93.6" y1="178.56" x2="93.6" y2="424.8"/><line class="cls-4" x1="93.6" y1="468" x2="93.6" y2="489.6"/><line class="cls-4" x1="174.24" y1="468" x2="174.24" y2="489.6"/><line class="cls-4" x1="254.88" y1="468" x2="254.88" y2="489.6"/><line class="cls-5" x1="779.04" y1="188.64" x2="815.04" y2="188.64"/><line class="cls-5" x1="838.08" y1="188.64" x2="874.08" y2="188.64"/><line class="cls-5" x1="830.88" y1="188.64" x2="822.24" y2="188.64"/><line class="cls-5" x1="826.56" y1="184.32" x2="826.56" y2="192.96"/><line class="cls-5" x1="897.12" y1="188.64" x2="933.12" y2="188.64"/><line class="cls-5" x1="889.92" y1="188.64" x2="881.28" y2="188.64"/><line class="cls-5" x1="885.6" y1="184.32" x2="885.6" y2="192.96"/><line class="cls-5" x1="771.84" y1="218.88" x2="940.32" y2="218.88"/><line class="cls-5" x1="779.04" y1="246.24" x2="815.04" y2="246.24"/><line class="cls-5" x1="838.08" y1="246.24" x2="874.08" y2="246.24"/><line class="cls-5" x1="830.88" y1="246.24" x2="822.24" y2="246.24"/><line class="cls-5" x1="826.56" y1="241.92" x2="826.56" y2="250.56"/><line class="cls-5" x1="897.12" y1="246.24" x2="933.12" y2="246.24"/><line class="cls-5" x1="889.92" y1="246.24" x2="881.28" y2="246.24"/><line class="cls-5" x1="885.6" y1="241.92" x2="885.6" y2="250.56"/><line class="cls-5" x1="771.84" y1="360" x2="940.32" y2="360"/><polygon class="cls-3" points="93.6 489.6 108 489.6 100.8 498.24 93.6 506.88 86.4 498.24 79.2 489.6 93.6 489.6"/><polygon class="cls-3" points="174.24 489.6 188.64 489.6 181.44 498.24 174.24 506.88 167.04 498.24 159.84 489.6 174.24 489.6"/><polygon class="cls-3" points="254.88 489.6 269.28 489.6 262.08 498.24 254.88 506.88 247.68 498.24 240.48 489.6 254.88 489.6"/></g><g id="TEXT_Vector"><g><path class="cls-1" d="M373.53,150.34h-3.01v5.18h-1.7v-12.8h4.24c1.44,0,2.55,.33,3.33,.98s1.16,1.61,1.16,2.87c0,.8-.22,1.49-.65,2.08s-1.03,1.03-1.8,1.33l3.01,5.43v.11h-1.81l-2.78-5.18Zm-3.01-1.38h2.59c.84,0,1.5-.22,2-.65,.5-.43,.74-1.02,.74-1.74,0-.79-.24-1.4-.71-1.82-.47-.42-1.15-.64-2.04-.64h-2.58v4.86Z"/><path class="cls-1" d="M382.17,161.51h-.95v-6.32l-1.91,.7v-.86l2.72-1.02h.15v7.5Z"/></g><g><path class="cls-1" d="M373.53,251.14h-3.01v5.18h-1.7v-12.8h4.24c1.44,0,2.55,.33,3.33,.98s1.16,1.61,1.16,2.87c0,.8-.22,1.49-.65,2.08s-1.03,1.03-1.8,1.33l3.01,5.43v.11h-1.81l-2.78-5.18Zm-3.01-1.38h2.59c.84,0,1.5-.22,2-.65,.5-.43,.74-1.02,.74-1.74,0-.79-.24-1.4-.71-1.82-.47-.42-1.15-.64-2.04-.64h-2.58v4.86Z"/><path class="cls-1" d="M383.94,262.31h-4.89v-.68l2.58-2.87c.38-.43,.65-.79,.79-1.06,.15-.27,.22-.55,.22-.84,0-.39-.12-.71-.35-.96s-.55-.37-.94-.37c-.47,0-.84,.13-1.1,.4s-.39,.64-.39,1.12h-.95c0-.69,.22-1.24,.66-1.67,.44-.42,1.03-.64,1.78-.64,.69,0,1.24,.18,1.65,.55,.4,.36,.6,.85,.6,1.45,0,.73-.47,1.61-1.4,2.62l-2,2.17h3.75v.77Z"/></g><g><path class="cls-1" d="M373.53,337.54h-3.01v5.18h-1.7v-12.8h4.24c1.44,0,2.55,.33,3.33,.98s1.16,1.61,1.16,2.87c0,.8-.22,1.49-.65,2.08s-1.03,1.03-1.8,1.33l3.01,5.43v.11h-1.81l-2.78-5.18Zm-3.01-1.38h2.59c.84,0,1.5-.22,2-.65s.74-1.02,.74-1.74c0-.79-.24-1.4-.71-1.82-.47-.42-1.15-.64-2.04-.64h-2.58v4.86Z"/><path class="cls-1" d="M380.43,344.52h.71c.45,0,.8-.12,1.06-.35,.26-.23,.38-.54,.38-.93,0-.87-.44-1.31-1.31-1.31-.41,0-.74,.12-.98,.35-.24,.23-.37,.54-.37,.93h-.95c0-.59,.22-1.08,.65-1.47,.43-.39,.98-.59,1.65-.59,.7,0,1.26,.19,1.66,.56,.4,.37,.6,.89,.6,1.55,0,.33-.11,.64-.32,.94s-.5,.53-.86,.68c.41,.13,.73,.34,.95,.65s.34,.67,.34,1.1c0,.67-.22,1.2-.66,1.59-.44,.39-1.01,.59-1.71,.59s-1.27-.19-1.71-.57c-.44-.38-.66-.88-.66-1.5h.95c0,.39,.13,.71,.38,.94,.26,.24,.6,.35,1.03,.35,.46,0,.81-.12,1.05-.36,.24-.24,.36-.58,.36-1.03s-.13-.77-.4-1c-.27-.23-.65-.35-1.15-.36h-.71v-.77Z"/></g><g><path class="cls-1" d="M601.96,256.96l3.66-10.56h1.85l-4.75,12.8h-1.49l-4.74-12.8h1.84l3.64,10.56Z"/><path class="cls-1" d="M614.29,261.7c0,.73-.12,1.37-.37,1.91-.25,.54-.59,.96-1.04,1.25-.45,.29-.98,.43-1.58,.43s-1.11-.14-1.56-.43c-.46-.29-.81-.7-1.06-1.24-.25-.53-.38-1.15-.39-1.86v-.54c0-.72,.12-1.35,.37-1.9s.6-.97,1.06-1.26,.98-.44,1.57-.44,1.12,.14,1.58,.43c.46,.29,.81,.71,1.05,1.26,.25,.55,.37,1.19,.37,1.91v.47Zm-.98-.48c0-.88-.18-1.56-.53-2.04s-.85-.71-1.49-.71-1.11,.24-1.47,.71c-.36,.47-.54,1.13-.55,1.97v.55c0,.86,.18,1.53,.54,2.02s.86,.74,1.49,.74,1.13-.23,1.48-.69,.53-1.13,.54-1.99v-.55Z"/><path class="cls-1" d="M621.02,257.73v5.07c0,.7-.22,1.28-.66,1.73-.44,.45-1.03,.7-1.79,.75h-.26c-.82,0-1.47-.21-1.95-.65-.49-.44-.73-1.05-.74-1.82v-5.08h.97v5.05c0,.54,.15,.96,.45,1.26,.3,.3,.72,.45,1.27,.45s.98-.15,1.28-.45c.3-.3,.44-.72,.44-1.26v-5.06h.99Z"/><path class="cls-1" d="M627.73,258.54h-2.4v6.66h-.98v-6.66h-2.39v-.8h5.77v.8Z"/></g><g><path class="cls-1" d="M327.82,94.35v5.01h-1.69v-12.8h4.72c1.4,0,2.5,.36,3.29,1.07s1.19,1.66,1.19,2.84c0,1.24-.39,2.2-1.16,2.87s-1.89,1.01-3.34,1.01h-3.01Zm0-1.38h3.03c.9,0,1.59-.21,2.07-.64,.48-.43,.72-1.04,.72-1.84s-.24-1.37-.72-1.83c-.48-.46-1.14-.7-1.98-.71h-3.13v5.03Z"/><path class="cls-1" d="M343,99.36c-.09-.19-.17-.52-.23-1-.76,.79-1.66,1.18-2.71,1.18-.94,0-1.71-.27-2.31-.8s-.9-1.2-.9-2.02c0-.99,.38-1.76,1.13-2.31s1.81-.82,3.18-.82h1.58v-.75c0-.57-.17-1.02-.51-1.36s-.84-.51-1.5-.51c-.58,0-1.07,.15-1.46,.44s-.59,.65-.59,1.06h-1.63c0-.47,.17-.93,.51-1.38s.79-.79,1.37-1.05,1.21-.39,1.9-.39c1.1,0,1.95,.27,2.58,.82s.94,1.3,.97,2.26v4.38c0,.87,.11,1.57,.33,2.08v.14h-1.71Zm-2.7-1.24c.51,0,.99-.13,1.45-.4s.79-.61,.99-1.03v-1.95h-1.27c-1.99,0-2.99,.58-2.99,1.75,0,.51,.17,.91,.51,1.2s.78,.43,1.31,.43Z"/><path class="cls-1" d="M352.46,96.84c0-.44-.17-.78-.5-1.02s-.91-.45-1.73-.63-1.48-.39-1.96-.63-.84-.54-1.07-.88-.35-.74-.35-1.21c0-.78,.33-1.44,.99-1.98s1.5-.81,2.53-.81c1.08,0,1.95,.28,2.62,.83s1.01,1.27,1.01,2.14h-1.63c0-.45-.19-.83-.57-1.15s-.85-.48-1.43-.48-1.05,.13-1.39,.39-.5,.59-.5,1.01c0,.39,.16,.69,.47,.89s.87,.39,1.68,.57,1.47,.4,1.97,.65,.88,.56,1.12,.91,.36,.79,.36,1.3c0,.85-.34,1.53-1.02,2.04s-1.56,.77-2.65,.77c-.76,0-1.44-.13-2.02-.4s-1.04-.65-1.38-1.13-.5-1.01-.5-1.57h1.63c.03,.54,.25,.98,.65,1.3s.94,.48,1.61,.48c.62,0,1.11-.12,1.48-.37s.56-.58,.56-1Z"/><path class="cls-1" d="M361.74,96.84c0-.44-.17-.78-.5-1.02s-.91-.45-1.73-.63-1.48-.39-1.96-.63-.84-.54-1.07-.88-.35-.74-.35-1.21c0-.78,.33-1.44,.99-1.98s1.5-.81,2.53-.81c1.08,0,1.95,.28,2.62,.83s1.01,1.27,1.01,2.14h-1.63c0-.45-.19-.83-.57-1.15s-.85-.48-1.43-.48-1.05,.13-1.39,.39-.5,.59-.5,1.01c0,.39,.16,.69,.47,.89s.87,.39,1.68,.57,1.47,.4,1.97,.65,.88,.56,1.12,.91,.36,.79,.36,1.3c0,.85-.34,1.53-1.02,2.04s-1.56,.77-2.65,.77c-.76,0-1.44-.13-2.02-.4s-1.04-.65-1.38-1.13-.5-1.01-.5-1.57h1.63c.03,.54,.25,.98,.65,1.3s.94,.48,1.61,.48c.62,0,1.11-.12,1.48-.37s.56-.58,.56-1Z"/><path class="cls-1" d="M365.5,87.33c0-.26,.08-.49,.24-.67s.4-.27,.72-.27,.56,.09,.72,.27,.25,.4,.25,.67-.08,.48-.25,.66-.4,.26-.72,.26-.56-.09-.72-.26-.24-.4-.24-.66Zm1.76,12.03h-1.63v-9.51h1.63v9.51Z"/><path class="cls-1" d="M372.99,97.15l2.36-7.3h1.66l-3.41,9.51h-1.24l-3.45-9.51h1.66l2.42,7.3Z"/><path class="cls-1" d="M382.41,99.54c-1.29,0-2.34-.42-3.15-1.27s-1.21-1.98-1.21-3.4v-.3c0-.94,.18-1.79,.54-2.53s.86-1.32,1.51-1.74,1.35-.63,2.1-.63c1.24,0,2.2,.41,2.88,1.22s1.03,1.98,1.03,3.5v.68h-6.44c.02,.94,.3,1.69,.82,2.27s1.19,.87,2,.87c.57,0,1.06-.12,1.46-.35s.75-.54,1.05-.93l.99,.77c-.8,1.22-1.99,1.84-3.59,1.84Zm-.2-8.53c-.66,0-1.21,.24-1.65,.72s-.72,1.15-.83,2.01h4.76v-.12c-.05-.83-.27-1.47-.67-1.92s-.94-.68-1.62-.68Z"/><path class="cls-1" d="M394.89,86.56l4.18,10.44,4.18-10.44h2.19v12.8h-1.69v-4.98l.16-5.38-4.2,10.36h-1.29l-4.19-10.34,.17,5.35v4.98h-1.69v-12.8h2.18Z"/><path class="cls-1" d="M408.18,87.33c0-.26,.08-.49,.24-.67s.4-.27,.72-.27,.56,.09,.72,.27,.25,.4,.25,.67-.08,.48-.25,.66-.4,.26-.72,.26-.56-.09-.72-.26-.24-.4-.24-.66Zm1.76,12.03h-1.63v-9.51h1.63v9.51Z"/><path class="cls-1" d="M415.73,93.32l2.11-3.47h1.9l-3.11,4.7,3.21,4.81h-1.88l-2.2-3.56-2.2,3.56h-1.89l3.21-4.81-3.11-4.7h1.88l2.08,3.47Z"/><path class="cls-1" d="M425.23,99.54c-1.29,0-2.34-.42-3.15-1.27s-1.21-1.98-1.21-3.4v-.3c0-.94,.18-1.79,.54-2.53s.86-1.32,1.51-1.74,1.35-.63,2.1-.63c1.24,0,2.2,.41,2.88,1.22s1.03,1.98,1.03,3.5v.68h-6.44c.02,.94,.3,1.69,.82,2.27s1.19,.87,2,.87c.57,0,1.06-.12,1.46-.35s.75-.54,1.05-.93l.99,.77c-.8,1.22-1.99,1.84-3.59,1.84Zm-.2-8.53c-.66,0-1.21,.24-1.65,.72s-.72,1.15-.83,2.01h4.76v-.12c-.05-.83-.27-1.47-.67-1.92s-.94-.68-1.62-.68Z"/><path class="cls-1" d="M435.41,91.31c-.25-.04-.51-.06-.8-.06-1.07,0-1.79,.45-2.17,1.36v6.75h-1.63v-9.51h1.58l.03,1.1c.53-.85,1.29-1.27,2.27-1.27,.32,0,.56,.04,.72,.12v1.51Z"/></g><g><path class="cls-1" d="M331.81,446.46c-1.45-.42-2.5-.93-3.16-1.53s-.99-1.35-.99-2.25c0-1.01,.4-1.84,1.21-2.5s1.85-.99,3.14-.99c.88,0,1.66,.17,2.35,.51s1.22,.81,1.6,1.41,.57,1.25,.57,1.96h-1.7c0-.78-.25-1.39-.74-1.83-.49-.44-1.19-.67-2.08-.67-.83,0-1.48,.18-1.95,.55-.47,.37-.7,.88-.7,1.53,0,.52,.22,.96,.66,1.33,.44,.36,1.2,.69,2.26,.99,1.06,.3,1.9,.63,2.5,.99s1.05,.78,1.34,1.26,.44,1.05,.44,1.7c0,1.04-.4,1.87-1.21,2.49s-1.89,.94-3.24,.94c-.88,0-1.7-.17-2.46-.51s-1.35-.8-1.76-1.38-.62-1.25-.62-2h1.7c0,.77,.29,1.38,.86,1.83s1.33,.67,2.29,.67c.89,0,1.57-.18,2.05-.54s.71-.86,.71-1.49-.22-1.11-.66-1.46-1.24-.68-2.39-1.01Z"/><path class="cls-1" d="M338.48,440.13c0-.26,.08-.49,.24-.67s.4-.27,.72-.27,.56,.09,.72,.27,.25,.4,.25,.67-.08,.48-.25,.66-.4,.26-.72,.26-.56-.09-.72-.26-.24-.4-.24-.66Zm1.76,12.03h-1.63v-9.51h1.63v9.51Z"/><path class="cls-1" d="M342.45,447.33c0-1.48,.34-2.66,1.03-3.54s1.59-1.31,2.72-1.31,2.07,.41,2.72,1.23l.08-1.05h1.49v9.28c0,1.23-.36,2.2-1.09,2.91s-1.71,1.06-2.94,1.06c-.69,0-1.36-.15-2.01-.44s-1.16-.69-1.5-1.2l.84-.98c.7,.86,1.55,1.29,2.56,1.29,.79,0,1.41-.22,1.85-.67s.66-1.07,.66-1.88v-.82c-.65,.75-1.54,1.12-2.66,1.12s-2.01-.45-2.7-1.34-1.03-2.12-1.03-3.67Zm1.63,.18c0,1.07,.22,1.91,.66,2.53s1.05,.92,1.85,.92c1.03,0,1.78-.47,2.26-1.4v-4.34c-.5-.91-1.25-1.36-2.24-1.36-.79,0-1.41,.31-1.85,.92s-.67,1.53-.67,2.73Z"/><path class="cls-1" d="M354.47,442.65l.05,1.2c.73-.91,1.68-1.37,2.85-1.37,2.01,0,3.02,1.13,3.04,3.4v6.28h-1.63v-6.29c0-.69-.16-1.19-.47-1.52s-.79-.49-1.44-.49c-.53,0-.99,.14-1.39,.42s-.71,.65-.93,1.11v6.78h-1.63v-9.51h1.54Z"/><path class="cls-1" d="M368.74,452.16c-.09-.19-.17-.52-.23-1-.76,.79-1.66,1.18-2.71,1.18-.94,0-1.71-.27-2.31-.8s-.9-1.2-.9-2.02c0-.99,.38-1.76,1.13-2.31s1.81-.82,3.18-.82h1.58v-.75c0-.57-.17-1.02-.51-1.36s-.84-.5-1.5-.5c-.58,0-1.07,.15-1.46,.44s-.59,.65-.59,1.06h-1.63c0-.47,.17-.93,.51-1.38s.79-.79,1.37-1.05,1.21-.39,1.9-.39c1.1,0,1.95,.27,2.58,.82s.94,1.3,.97,2.26v4.38c0,.87,.11,1.57,.33,2.08v.14h-1.71Zm-2.7-1.24c.51,0,.99-.13,1.45-.4s.79-.61,.99-1.03v-1.95h-1.27c-1.99,0-2.99,.58-2.99,1.75,0,.51,.17,.91,.51,1.2s.78,.43,1.31,.43Z"/><path class="cls-1" d="M374.42,452.16h-1.63v-13.5h1.63v13.5Z"/><path class="cls-1" d="M385.51,446.46c-1.45-.42-2.5-.93-3.16-1.53s-.99-1.35-.99-2.25c0-1.01,.4-1.84,1.21-2.5s1.85-.99,3.14-.99c.88,0,1.66,.17,2.35,.51s1.22,.81,1.6,1.41,.57,1.25,.57,1.96h-1.7c0-.78-.25-1.39-.74-1.83-.49-.44-1.19-.67-2.08-.67-.83,0-1.48,.18-1.95,.55-.47,.37-.7,.88-.7,1.53,0,.52,.22,.96,.66,1.33,.44,.36,1.2,.69,2.26,.99,1.06,.3,1.9,.63,2.5,.99s1.05,.78,1.34,1.26,.44,1.05,.44,1.7c0,1.04-.4,1.87-1.21,2.49s-1.89,.94-3.24,.94c-.88,0-1.7-.17-2.46-.51s-1.35-.8-1.76-1.38-.62-1.25-.62-2h1.7c0,.77,.29,1.38,.86,1.83s1.33,.67,2.29,.67c.89,0,1.57-.18,2.05-.54s.71-.86,.71-1.49-.22-1.11-.66-1.46-1.24-.68-2.39-1.01Z"/><path class="cls-1" d="M391.73,447.32c0-.93,.18-1.77,.55-2.51s.88-1.32,1.53-1.72,1.4-.61,2.24-.61c1.29,0,2.34,.45,3.14,1.34s1.2,2.09,1.2,3.58v.11c0,.93-.18,1.76-.53,2.49s-.86,1.31-1.52,1.72-1.42,.62-2.27,.62c-1.29,0-2.33-.45-3.13-1.34s-1.2-2.08-1.2-3.56v-.11Zm1.63,.19c0,1.05,.24,1.9,.73,2.54s1.14,.96,1.96,.96,1.48-.32,1.97-.97,.73-1.55,.73-2.72c0-1.04-.25-1.89-.74-2.54s-1.15-.97-1.97-.97-1.45,.32-1.94,.96-.74,1.55-.74,2.74Z"/><path class="cls-1" d="M408.3,451.22c-.63,.74-1.56,1.12-2.79,1.12-1.01,0-1.79-.29-2.32-.88s-.8-1.46-.8-2.61v-6.19h1.63v6.14c0,1.44,.59,2.16,1.76,2.16,1.24,0,2.07-.46,2.48-1.39v-6.92h1.63v9.51h-1.55l-.04-.94Z"/><path class="cls-1" d="M416.95,444.11c-.25-.04-.51-.06-.8-.06-1.07,0-1.79,.45-2.17,1.36v6.75h-1.63v-9.51h1.58l.03,1.1c.53-.85,1.29-1.27,2.27-1.27,.32,0,.56,.04,.72,.12v1.51Z"/><path class="cls-1" d="M422.09,451.01c.58,0,1.09-.18,1.52-.53s.67-.79,.72-1.32h1.54c-.03,.54-.22,1.06-.56,1.56s-.81,.88-1.38,1.18-1.19,.44-1.83,.44c-1.29,0-2.32-.43-3.09-1.3s-1.15-2.05-1.15-3.55v-.27c0-.93,.17-1.75,.51-2.47s.83-1.28,1.46-1.68,1.39-.6,2.25-.6c1.07,0,1.95,.32,2.66,.96s1.08,1.47,1.13,2.49h-1.54c-.05-.62-.28-1.12-.7-1.52s-.94-.59-1.55-.59c-.83,0-1.47,.3-1.92,.89s-.68,1.46-.68,2.58v.31c0,1.1,.23,1.94,.68,2.53s1.1,.89,1.93,.89Z"/><path class="cls-1" d="M431.64,452.34c-1.29,0-2.34-.42-3.15-1.27s-1.21-1.98-1.21-3.4v-.3c0-.94,.18-1.79,.54-2.53s.86-1.32,1.51-1.74,1.35-.63,2.1-.63c1.24,0,2.2,.41,2.88,1.22s1.03,1.98,1.03,3.5v.68h-6.44c.02,.94,.3,1.69,.82,2.27s1.19,.87,2,.87c.57,0,1.06-.12,1.46-.35s.75-.54,1.05-.93l.99,.77c-.8,1.22-1.99,1.84-3.59,1.84Zm-.2-8.53c-.66,0-1.21,.24-1.65,.72s-.72,1.15-.83,2.01h4.76v-.12c-.05-.83-.27-1.47-.67-1.92s-.94-.68-1.62-.68Z"/><path class="cls-1" d="M442.77,449.64c0-.44-.17-.78-.5-1.02s-.91-.45-1.73-.63-1.48-.39-1.96-.63-.84-.54-1.07-.88-.35-.74-.35-1.21c0-.78,.33-1.44,.99-1.98s1.5-.81,2.53-.81c1.08,0,1.95,.28,2.62,.83s1.01,1.27,1.01,2.14h-1.63c0-.45-.19-.83-.57-1.15s-.85-.48-1.43-.48-1.05,.13-1.39,.39-.5,.59-.5,1.01c0,.39,.16,.69,.47,.89s.87,.39,1.68,.57,1.47,.4,1.97,.65,.88,.55,1.12,.91,.36,.79,.36,1.3c0,.85-.34,1.53-1.02,2.04s-1.56,.77-2.65,.77c-.76,0-1.44-.13-2.02-.4s-1.04-.65-1.38-1.13-.5-1.01-.5-1.57h1.63c.03,.54,.25,.98,.65,1.3s.94,.48,1.61,.48c.62,0,1.11-.12,1.48-.37s.56-.58,.56-1Z"/></g><g><path class="cls-1" d="M794.81,179.2l3.66-10.56h1.85l-4.75,12.8h-1.49l-4.74-12.8h1.84l3.64,10.56Z"/><path class="cls-1" d="M804.28,187.43h-.95v-6.32l-1.91,.7v-.86l2.72-1.02h.15v7.5Z"/></g><path class="cls-1" d="M699.84,223.84l3.66-10.56h1.85l-4.75,12.8h-1.49l-4.74-12.8h1.84l3.64,10.56Z"/><g><path class="cls-1" d="M853.85,177.76l3.66-10.56h1.85l-4.75,12.8h-1.49l-4.74-12.8h1.84l3.64,10.56Z"/><path class="cls-1" d="M865.09,185.99h-4.89v-.68l2.58-2.87c.38-.43,.65-.79,.79-1.06,.14-.27,.22-.55,.22-.84,0-.39-.12-.71-.35-.96-.24-.25-.55-.37-.94-.37-.47,0-.84,.13-1.1,.4-.26,.27-.39,.64-.39,1.12h-.95c0-.69,.22-1.24,.66-1.67,.44-.42,1.03-.64,1.78-.64,.69,0,1.24,.18,1.65,.55,.4,.36,.6,.85,.6,1.45,0,.73-.47,1.61-1.4,2.62l-2,2.17h3.75v.77Z"/></g><g><path class="cls-1" d="M912.89,177.76l3.66-10.56h1.85l-4.75,12.8h-1.49l-4.74-12.8h1.84l3.64,10.56Z"/><path class="cls-1" d="M920.62,181.8h.71c.45,0,.8-.12,1.06-.35,.26-.23,.38-.54,.38-.93,0-.87-.44-1.31-1.31-1.31-.41,0-.74,.12-.98,.35s-.37,.54-.37,.93h-.95c0-.59,.22-1.08,.65-1.47,.43-.39,.98-.59,1.65-.59,.7,0,1.25,.19,1.66,.56,.4,.37,.6,.89,.6,1.55,0,.32-.11,.64-.32,.94-.21,.3-.5,.53-.86,.68,.41,.13,.73,.35,.95,.65,.22,.3,.34,.67,.34,1.1,0,.67-.22,1.2-.66,1.59-.44,.39-1.01,.59-1.71,.59s-1.27-.19-1.71-.57c-.44-.38-.66-.88-.66-1.5h.95c0,.39,.13,.71,.38,.94,.26,.24,.6,.35,1.03,.35,.46,0,.81-.12,1.05-.36,.24-.24,.36-.58,.36-1.03s-.13-.77-.4-1-.65-.35-1.15-.36h-.71v-.77Z"/></g><g><path class="cls-1" d="M795.45,258.34h-3.01v5.18h-1.7v-12.8h4.24c1.44,0,2.55,.33,3.33,.98s1.16,1.61,1.16,2.87c0,.8-.21,1.49-.65,2.08s-1.03,1.03-1.8,1.33l3.01,5.43v.11h-1.81l-2.78-5.18Zm-3.01-1.38h2.59c.84,0,1.5-.22,2-.65,.5-.43,.74-1.02,.74-1.74,0-.79-.24-1.4-.71-1.82-.47-.42-1.15-.64-2.04-.64h-2.58v4.86Z"/><path class="cls-1" d="M804.09,269.51h-.95v-6.32l-1.91,.7v-.86l2.72-1.02h.15v7.5Z"/></g><path class="cls-1" d="M794.8,243.36h-1.63v-10.84l-3.28,1.2v-1.48l4.66-1.75h.25v12.86Z"/><g><path class="cls-1" d="M854.49,258.35h-3.01v5.18h-1.7v-12.8h4.24c1.44,0,2.55,.33,3.33,.98s1.16,1.61,1.16,2.87c0,.8-.21,1.49-.65,2.08s-1.03,1.03-1.8,1.33l3.01,5.43v.11h-1.81l-2.78-5.18Zm-3.01-1.38h2.59c.84,0,1.5-.22,2-.65,.5-.43,.74-1.02,.74-1.74,0-.79-.24-1.4-.71-1.82-.47-.42-1.15-.64-2.04-.64h-2.58v4.86Z"/><path class="cls-1" d="M864.9,269.52h-4.89v-.68l2.58-2.87c.38-.43,.65-.79,.79-1.06,.15-.27,.22-.55,.22-.84,0-.39-.12-.71-.35-.96-.24-.25-.55-.37-.94-.37-.47,0-.84,.13-1.1,.4-.26,.27-.39,.64-.39,1.12h-.95c0-.69,.22-1.24,.66-1.67,.44-.42,1.03-.64,1.78-.64,.69,0,1.24,.18,1.64,.55,.4,.36,.6,.85,.6,1.45,0,.73-.47,1.61-1.4,2.62l-2,2.17h3.75v.77Z"/></g><path class="cls-1" d="M853.83,241.92h-1.63v-10.84l-3.28,1.2v-1.48l4.66-1.75h.25v12.86Z"/><g><path class="cls-1" d="M913.53,258.35h-3.01v5.18h-1.7v-12.8h4.24c1.44,0,2.55,.33,3.33,.98s1.16,1.61,1.16,2.87c0,.8-.21,1.49-.65,2.08s-1.03,1.03-1.8,1.33l3.01,5.43v.11h-1.81l-2.78-5.18Zm-3.01-1.38h2.59c.84,0,1.5-.22,2-.65,.5-.43,.74-1.02,.74-1.74,0-.79-.24-1.4-.71-1.82-.47-.42-1.15-.64-2.04-.64h-2.58v4.86Z"/><path class="cls-1" d="M920.43,265.32h.71c.45,0,.8-.12,1.06-.35,.26-.23,.38-.54,.38-.93,0-.87-.44-1.31-1.31-1.31-.41,0-.74,.12-.98,.35-.25,.23-.37,.54-.37,.93h-.95c0-.59,.22-1.08,.65-1.47,.43-.39,.98-.59,1.65-.59,.7,0,1.26,.19,1.66,.56,.4,.37,.6,.89,.6,1.55,0,.32-.11,.64-.32,.94-.21,.3-.5,.53-.86,.68,.41,.13,.73,.35,.95,.65,.22,.3,.33,.67,.33,1.1,0,.67-.22,1.2-.66,1.59-.44,.39-1.01,.59-1.71,.59s-1.27-.19-1.71-.57c-.44-.38-.66-.88-.66-1.5h.95c0,.39,.13,.71,.38,.94,.26,.24,.6,.35,1.03,.35,.46,0,.81-.12,1.05-.36,.24-.24,.36-.58,.36-1.03s-.13-.77-.4-1c-.27-.23-.65-.35-1.15-.36h-.71v-.77Z"/></g><path class="cls-1" d="M912.87,241.92h-1.63v-10.84l-3.28,1.2v-1.48l4.66-1.75h.25v12.86Z"/><g><path class="cls-1" d="M709.9,96.01h-5.36l-1.2,3.35h-1.74l4.89-12.8h1.48l4.9,12.8h-1.73l-1.22-3.35Zm-4.85-1.38h4.35l-2.18-5.99-2.17,5.99Z"/><path class="cls-1" d="M718.14,98.21c.58,0,1.09-.18,1.52-.53s.67-.79,.72-1.32h1.54c-.03,.54-.22,1.06-.56,1.56s-.81,.88-1.38,1.18-1.19,.44-1.83,.44c-1.29,0-2.32-.43-3.09-1.3s-1.15-2.05-1.15-3.55v-.27c0-.93,.17-1.75,.51-2.47s.83-1.28,1.46-1.68,1.39-.6,2.25-.6c1.07,0,1.95,.32,2.66,.96s1.08,1.47,1.13,2.49h-1.54c-.05-.62-.28-1.12-.7-1.52s-.94-.59-1.55-.59c-.83,0-1.47,.3-1.92,.89s-.68,1.45-.68,2.58v.31c0,1.1,.23,1.94,.68,2.53s1.1,.89,1.93,.89Z"/><path class="cls-1" d="M727.56,98.21c.58,0,1.09-.18,1.52-.53s.67-.79,.72-1.32h1.54c-.03,.54-.22,1.06-.56,1.56s-.81,.88-1.38,1.18-1.19,.44-1.83,.44c-1.29,0-2.32-.43-3.09-1.3s-1.15-2.05-1.15-3.55v-.27c0-.93,.17-1.75,.51-2.47s.83-1.28,1.46-1.68,1.39-.6,2.25-.6c1.07,0,1.95,.32,2.66,.96s1.08,1.47,1.13,2.49h-1.54c-.05-.62-.28-1.12-.7-1.52s-.94-.59-1.55-.59c-.83,0-1.47,.3-1.92,.89s-.68,1.45-.68,2.58v.31c0,1.1,.23,1.94,.68,2.53s1.1,.89,1.93,.89Z"/><path class="cls-1" d="M732.74,94.52c0-.93,.18-1.77,.55-2.51s.88-1.32,1.53-1.72,1.4-.61,2.24-.61c1.29,0,2.34,.45,3.14,1.34s1.2,2.09,1.2,3.58v.11c0,.93-.18,1.76-.53,2.49s-.86,1.31-1.52,1.72-1.42,.62-2.27,.62c-1.29,0-2.33-.45-3.13-1.34s-1.2-2.08-1.2-3.56v-.11Zm1.63,.19c0,1.05,.25,1.9,.73,2.54s1.14,.96,1.96,.96,1.48-.32,1.97-.97,.73-1.55,.73-2.72c0-1.04-.25-1.89-.74-2.54s-1.15-.97-1.97-.97-1.45,.32-1.94,.96-.74,1.55-.74,2.74Z"/><path class="cls-1" d="M748.03,91.31c-.25-.04-.51-.06-.8-.06-1.07,0-1.79,.45-2.17,1.36v6.75h-1.63v-9.51h1.58l.03,1.1c.53-.85,1.29-1.27,2.27-1.27,.32,0,.56,.04,.72,.12v1.51Z"/><path class="cls-1" d="M748.96,94.53c0-1.46,.35-2.63,1.04-3.52s1.6-1.33,2.72-1.33,2,.38,2.65,1.14v-4.96h1.63v13.5h-1.49l-.08-1.02c-.65,.8-1.56,1.2-2.72,1.2s-2-.45-2.69-1.35-1.04-2.08-1.04-3.53v-.12Zm1.63,.18c0,1.08,.22,1.92,.67,2.53s1.06,.91,1.85,.91c1.03,0,1.78-.46,2.26-1.39v-4.37c-.49-.9-1.23-1.34-2.24-1.34-.8,0-1.42,.31-1.86,.92s-.67,1.53-.67,2.73Z"/><path class="cls-1" d="M759.52,87.33c0-.26,.08-.49,.24-.67s.4-.27,.72-.27,.56,.09,.72,.27,.25,.4,.25,.67-.08,.48-.25,.66-.4,.26-.72,.26-.55-.09-.72-.26-.24-.4-.24-.66Zm1.76,12.03h-1.63v-9.51h1.63v9.51Z"/><path class="cls-1" d="M765.41,89.85l.05,1.2c.73-.91,1.68-1.37,2.85-1.37,2.01,0,3.02,1.13,3.04,3.4v6.28h-1.63v-6.29c0-.69-.16-1.19-.47-1.52s-.79-.49-1.44-.49c-.53,0-.99,.14-1.39,.42s-.71,.65-.93,1.11v6.78h-1.63v-9.51h1.54Z"/><path class="cls-1" d="M773.42,94.53c0-1.48,.34-2.66,1.03-3.54s1.59-1.31,2.72-1.31,2.07,.41,2.72,1.23l.08-1.05h1.49v9.28c0,1.23-.36,2.2-1.09,2.91s-1.71,1.06-2.94,1.06c-.69,0-1.36-.15-2.01-.44s-1.16-.69-1.5-1.2l.84-.98c.7,.86,1.55,1.29,2.56,1.29,.79,0,1.41-.22,1.85-.67s.66-1.07,.66-1.88v-.82c-.65,.75-1.54,1.12-2.66,1.12s-2.01-.45-2.7-1.34-1.03-2.12-1.03-3.67Zm1.63,.18c0,1.07,.22,1.91,.66,2.53s1.05,.92,1.85,.92c1.03,0,1.78-.47,2.26-1.4v-4.34c-.5-.91-1.25-1.36-2.24-1.36-.79,0-1.41,.31-1.85,.92s-.67,1.53-.67,2.73Z"/><path class="cls-1" d="M790.57,87.55v2.3h1.78v1.26h-1.78v5.9c0,.38,.08,.67,.24,.86,.16,.19,.43,.29,.81,.29,.19,0,.45-.04,.77-.11v1.31c-.43,.12-.84,.17-1.25,.17-.73,0-1.27-.22-1.64-.66s-.55-1.06-.55-1.87v-5.9h-1.73v-1.26h1.73v-2.3h1.63Z"/><path class="cls-1" d="M793.63,94.52c0-.93,.18-1.77,.55-2.51s.88-1.32,1.53-1.72,1.4-.61,2.24-.61c1.29,0,2.34,.45,3.14,1.34s1.2,2.09,1.2,3.58v.11c0,.93-.18,1.76-.53,2.49s-.86,1.31-1.52,1.72-1.42,.62-2.27,.62c-1.29,0-2.33-.45-3.13-1.34s-1.2-2.08-1.2-3.56v-.11Zm1.63,.19c0,1.05,.25,1.9,.73,2.54s1.14,.96,1.96,.96,1.48-.32,1.97-.97,.73-1.55,.73-2.72c0-1.04-.25-1.89-.74-2.54s-1.15-.97-1.97-.97-1.45,.32-1.94,.96-.74,1.55-.74,2.74Z"/><path class="cls-1" d="M811.22,86.56l4.18,10.44,4.18-10.44h2.19v12.8h-1.69v-4.98l.16-5.38-4.2,10.36h-1.29l-4.19-10.34,.17,5.35v4.98h-1.69v-12.8h2.18Z"/><path class="cls-1" d="M824.51,87.33c0-.26,.08-.49,.24-.67s.4-.27,.72-.27,.56,.09,.72,.27,.25,.4,.25,.67-.08,.48-.25,.66-.4,.26-.72,.26-.55-.09-.72-.26-.24-.4-.24-.66Zm1.76,12.03h-1.63v-9.51h1.63v9.51Z"/><path class="cls-1" d="M830.64,99.36h-1.63v-13.5h1.63v13.5Z"/><path class="cls-1" d="M835,99.36h-1.63v-13.5h1.63v13.5Z"/><path class="cls-1" d="M839.14,89.85l.04,1.05c.7-.82,1.64-1.23,2.82-1.23,1.33,0,2.24,.51,2.72,1.53,.32-.46,.73-.83,1.24-1.11s1.11-.42,1.8-.42c2.09,0,3.15,1.1,3.18,3.31v6.37h-1.63v-6.28c0-.68-.16-1.19-.47-1.52s-.83-.51-1.56-.51c-.6,0-1.1,.18-1.5,.54s-.63,.85-.69,1.45v6.31h-1.63v-6.23c0-1.38-.68-2.07-2.03-2.07-1.07,0-1.8,.45-2.19,1.36v6.94h-1.63v-9.51h1.54Z"/><path class="cls-1" d="M859.25,99.36c-.09-.19-.17-.52-.23-1-.76,.79-1.66,1.18-2.71,1.18-.94,0-1.71-.27-2.31-.8s-.9-1.2-.9-2.02c0-.99,.38-1.76,1.13-2.31s1.81-.82,3.18-.82h1.58v-.75c0-.57-.17-1.02-.51-1.36s-.84-.51-1.5-.51c-.58,0-1.07,.15-1.46,.44s-.59,.65-.59,1.06h-1.63c0-.47,.17-.93,.51-1.38s.79-.79,1.37-1.05,1.21-.39,1.9-.39c1.1,0,1.95,.27,2.58,.82s.94,1.3,.97,2.26v4.38c0,.87,.11,1.57,.33,2.08v.14h-1.71Zm-2.7-1.24c.51,0,.99-.13,1.45-.4s.79-.61,.99-1.03v-1.95h-1.27c-1.99,0-2.99,.58-2.99,1.75,0,.51,.17,.91,.51,1.2s.78,.43,1.31,.43Z"/><path class="cls-1" d="M864.71,89.85l.05,1.2c.73-.91,1.68-1.37,2.85-1.37,2.01,0,3.02,1.13,3.04,3.4v6.28h-1.63v-6.29c0-.69-.16-1.19-.47-1.52s-.79-.49-1.44-.49c-.53,0-.99,.14-1.39,.42s-.71,.65-.93,1.11v6.78h-1.63v-9.51h1.54Z"/><path class="cls-1" d="M873.33,85.69l.93,.63c-.54,.74-.83,1.55-.84,2.41v1.2h-1.62v-1.02c0-.6,.14-1.19,.43-1.78s.65-1.07,1.1-1.44Z"/><path class="cls-1" d="M880.62,96.84c0-.44-.17-.78-.5-1.02s-.91-.45-1.73-.63-1.48-.39-1.96-.63-.84-.54-1.07-.88-.35-.74-.35-1.21c0-.78,.33-1.44,.99-1.98s1.5-.81,2.53-.81c1.08,0,1.95,.28,2.62,.83s1.01,1.27,1.01,2.14h-1.63c0-.45-.19-.83-.57-1.15s-.85-.48-1.43-.48-1.05,.13-1.39,.39-.5,.59-.5,1.01c0,.39,.16,.69,.47,.89s.87,.39,1.68,.57,1.47,.4,1.97,.65,.88,.56,1.12,.91,.36,.79,.36,1.3c0,.85-.34,1.53-1.02,2.04s-1.56,.77-2.65,.77c-.76,0-1.44-.13-2.02-.4s-1.04-.65-1.38-1.13-.5-1.01-.5-1.57h1.63c.03,.54,.25,.98,.66,1.3s.94,.48,1.61,.48c.62,0,1.11-.12,1.48-.37s.56-.58,.56-1Z"/><path class="cls-1" d="M897.57,87.94h-4.11v11.42h-1.68v-11.42h-4.1v-1.38h9.9v1.38Z"/><path class="cls-1" d="M900.83,91c.72-.88,1.66-1.33,2.81-1.33,2.01,0,3.02,1.13,3.04,3.4v6.28h-1.63v-6.29c0-.69-.16-1.19-.47-1.52s-.79-.49-1.44-.49c-.53,0-.99,.14-1.39,.42s-.71,.65-.93,1.11v6.78h-1.63v-13.5h1.63v5.14Z"/><path class="cls-1" d="M913.07,99.54c-1.29,0-2.34-.42-3.15-1.27s-1.21-1.98-1.21-3.4v-.3c0-.94,.18-1.79,.54-2.53s.86-1.32,1.51-1.74,1.35-.63,2.1-.63c1.24,0,2.2,.41,2.88,1.22s1.03,1.98,1.03,3.5v.68h-6.44c.02,.94,.3,1.69,.82,2.27s1.19,.87,2,.87c.57,0,1.06-.12,1.46-.35s.75-.54,1.05-.93l.99,.77c-.8,1.22-1.99,1.84-3.59,1.84Zm-.2-8.53c-.66,0-1.21,.24-1.65,.72s-.72,1.15-.83,2.01h4.76v-.12c-.05-.83-.27-1.47-.67-1.92s-.94-.68-1.62-.68Z"/><path class="cls-1" d="M918.23,94.52c0-.93,.18-1.77,.55-2.51s.88-1.32,1.53-1.72,1.4-.61,2.24-.61c1.29,0,2.34,.45,3.14,1.34s1.2,2.09,1.2,3.58v.11c0,.93-.18,1.76-.53,2.49s-.86,1.31-1.52,1.72-1.42,.62-2.27,.62c-1.29,0-2.33-.45-3.13-1.34s-1.2-2.08-1.2-3.56v-.11Zm1.63,.19c0,1.05,.25,1.9,.73,2.54s1.14,.96,1.96,.96,1.48-.32,1.97-.97,.73-1.55,.73-2.72c0-1.04-.25-1.89-.74-2.54s-1.15-.97-1.97-.97-1.45,.32-1.94,.96-.74,1.55-.74,2.74Z"/><path class="cls-1" d="M933.52,91.31c-.25-.04-.51-.06-.8-.06-1.07,0-1.79,.45-2.17,1.36v6.75h-1.63v-9.51h1.58l.03,1.1c.53-.85,1.29-1.27,2.27-1.27,.32,0,.56,.04,.72,.12v1.51Z"/><path class="cls-1" d="M938.79,99.54c-1.29,0-2.34-.42-3.15-1.27s-1.21-1.98-1.21-3.4v-.3c0-.94,.18-1.79,.54-2.53s.86-1.32,1.51-1.74,1.35-.63,2.1-.63c1.24,0,2.2,.41,2.88,1.22s1.03,1.98,1.03,3.5v.68h-6.44c.02,.94,.3,1.69,.82,2.27s1.19,.87,2,.87c.57,0,1.06-.12,1.46-.35s.75-.54,1.05-.93l.99,.77c-.8,1.22-1.99,1.84-3.59,1.84Zm-.2-8.53c-.66,0-1.21,.24-1.65,.72s-.72,1.15-.83,2.01h4.76v-.12c-.05-.83-.27-1.47-.67-1.92s-.94-.68-1.62-.68Z"/><path class="cls-1" d="M945.91,89.85l.04,1.05c.7-.82,1.64-1.23,2.82-1.23,1.33,0,2.24,.51,2.72,1.53,.32-.46,.73-.83,1.24-1.11s1.11-.42,1.8-.42c2.09,0,3.15,1.1,3.18,3.31v6.37h-1.63v-6.28c0-.68-.16-1.19-.47-1.52s-.83-.51-1.56-.51c-.6,0-1.1,.18-1.5,.54s-.63,.85-.69,1.45v6.31h-1.63v-6.23c0-1.38-.68-2.07-2.03-2.07-1.07,0-1.8,.45-2.19,1.36v6.94h-1.63v-9.51h1.54Z"/><path class="cls-1" d="M960.11,98.51c0-.28,.08-.52,.25-.7s.42-.28,.75-.28,.59,.09,.76,.28,.26,.42,.26,.7-.09,.5-.26,.68-.43,.27-.76,.27-.58-.09-.75-.27-.25-.41-.25-.68Zm0-7.76c0-.28,.08-.52,.25-.7s.42-.28,.75-.28,.59,.09,.76,.28,.26,.42,.26,.7-.09,.5-.26,.68-.43,.27-.76,.27-.58-.09-.75-.27-.25-.41-.25-.68Z"/></g><g><path class="cls-1" d="M804.02,451.65c0-.26,.08-.49,.24-.67s.4-.27,.72-.27,.56,.09,.72,.27,.25,.4,.25,.67-.08,.48-.25,.66-.4,.26-.72,.26-.56-.09-.72-.26-.24-.4-.24-.66Zm1.76,12.03h-1.63v-9.51h1.63v9.51Z"/><path class="cls-1" d="M809.18,463.68v-8.25h-1.5v-1.26h1.5v-.98c0-1.02,.27-1.81,.82-2.36s1.32-.83,2.31-.83c.38,0,.75,.05,1.12,.15l-.09,1.31c-.28-.05-.57-.08-.88-.08-.53,0-.93,.15-1.22,.46s-.43,.75-.43,1.33v1h2.03v1.26h-2.03v8.25h-1.63Z"/><path class="cls-1" d="M828.49,458.5h-3.01v5.18h-1.7v-12.8h4.24c1.44,0,2.55,.33,3.33,.98s1.17,1.61,1.17,2.87c0,.8-.22,1.49-.65,2.08s-1.03,1.03-1.8,1.33l3.01,5.43v.11h-1.81l-2.78-5.18Zm-3.01-1.38h2.59c.84,0,1.5-.22,2-.65,.5-.43,.74-1.02,.74-1.74,0-.79-.24-1.4-.71-1.82s-1.15-.64-2.04-.64h-2.58v4.86Z"/><path class="cls-1" d="M837.13,469.67h-.95v-6.32l-1.91,.7v-.86l2.72-1.02h.15v7.5Z"/><path class="cls-1" d="M852.41,456.53h-7.33v-1.42h7.33v1.42Zm0,3.65h-7.33v-1.41h7.33v1.41Z"/><path class="cls-1" d="M864.26,458.5h-3.01v5.18h-1.7v-12.8h4.24c1.44,0,2.55,.33,3.33,.98s1.17,1.61,1.17,2.87c0,.8-.22,1.49-.65,2.08s-1.03,1.03-1.8,1.33l3.01,5.43v.11h-1.81l-2.78-5.18Zm-3.01-1.38h2.59c.84,0,1.5-.22,2-.65,.5-.43,.74-1.02,.74-1.74,0-.79-.24-1.4-.71-1.82s-1.15-.64-2.04-.64h-2.58v4.86Z"/><path class="cls-1" d="M874.67,469.67h-4.89v-.68l2.58-2.87c.38-.43,.65-.79,.79-1.06,.14-.27,.22-.55,.22-.84,0-.39-.12-.71-.35-.96-.24-.25-.55-.37-.94-.37-.47,0-.84,.13-1.1,.4-.26,.27-.39,.64-.39,1.12h-.95c0-.69,.22-1.24,.66-1.67s1.03-.64,1.78-.64c.69,0,1.24,.18,1.65,.55,.4,.36,.6,.85,.6,1.45,0,.73-.47,1.61-1.4,2.62l-2,2.17h3.75v.77Z"/><path class="cls-1" d="M888.17,456.53h-7.33v-1.42h7.33v1.42Zm0,3.65h-7.33v-1.41h7.33v1.41Z"/><path class="cls-1" d="M900.02,458.5h-3.01v5.18h-1.7v-12.8h4.24c1.44,0,2.55,.33,3.33,.98s1.17,1.61,1.17,2.87c0,.8-.22,1.49-.65,2.08s-1.03,1.03-1.8,1.33l3.01,5.43v.11h-1.81l-2.78-5.18Zm-3.01-1.38h2.59c.84,0,1.5-.22,2-.65,.5-.43,.74-1.02,.74-1.74,0-.79-.24-1.4-.71-1.82s-1.15-.64-2.04-.64h-2.58v4.86Z"/><path class="cls-1" d="M906.92,465.48h.71c.45,0,.8-.12,1.06-.35,.26-.23,.38-.54,.38-.93,0-.87-.44-1.31-1.31-1.31-.41,0-.74,.12-.98,.35-.24,.23-.37,.54-.37,.93h-.95c0-.59,.22-1.08,.65-1.47,.43-.39,.98-.59,1.65-.59,.7,0,1.25,.19,1.66,.56,.4,.37,.6,.89,.6,1.55,0,.32-.11,.64-.32,.94-.21,.3-.5,.53-.86,.68,.41,.13,.73,.35,.95,.65,.22,.3,.34,.67,.34,1.1,0,.67-.22,1.2-.66,1.59-.44,.39-1.01,.59-1.71,.59s-1.27-.19-1.71-.57c-.44-.38-.66-.88-.66-1.5h.95c0,.39,.13,.71,.38,.94,.26,.24,.6,.35,1.03,.35,.46,0,.81-.12,1.05-.36,.24-.24,.36-.58,.36-1.03s-.13-.77-.4-1-.65-.35-1.15-.36h-.71v-.77Z"/></g><g><path class="cls-1" d="M109.37,421.12l3.66-10.56h1.85l-4.75,12.8h-1.49l-4.74-12.8h1.84l3.64,10.56Z"/><path class="cls-1" d="M118.84,429.35h-.95v-6.32l-1.91,.7v-.86l2.72-1.02h.15v7.5Z"/></g><g><path class="cls-1" d="M190.01,421.12l3.66-10.56h1.85l-4.75,12.8h-1.49l-4.74-12.8h1.84l3.64,10.56Z"/><path class="cls-1" d="M201.25,429.35h-4.89v-.68l2.58-2.87c.38-.43,.65-.79,.79-1.06s.22-.55,.22-.84c0-.39-.12-.71-.35-.96s-.55-.37-.94-.37c-.47,0-.84,.13-1.1,.4s-.39,.64-.39,1.12h-.95c0-.69,.22-1.24,.66-1.67s1.03-.63,1.78-.63c.69,0,1.24,.18,1.65,.54,.4,.36,.6,.85,.6,1.45,0,.73-.47,1.61-1.4,2.62l-2,2.17h3.75v.77Z"/></g><g><path class="cls-1" d="M270.65,421.12l3.66-10.56h1.85l-4.75,12.8h-1.49l-4.74-12.8h1.84l3.64,10.56Z"/><path class="cls-1" d="M278.38,425.16h.71c.45,0,.8-.12,1.06-.35,.26-.23,.38-.54,.38-.93,0-.87-.44-1.31-1.31-1.31-.41,0-.74,.12-.98,.35-.24,.23-.37,.54-.37,.93h-.95c0-.59,.22-1.08,.65-1.47,.43-.39,.98-.59,1.65-.59,.7,0,1.25,.19,1.66,.56,.4,.37,.6,.89,.6,1.55,0,.32-.11,.64-.32,.94-.21,.3-.5,.53-.86,.68,.41,.13,.73,.35,.95,.65,.22,.3,.34,.67,.34,1.1,0,.67-.22,1.2-.66,1.59-.44,.39-1.01,.59-1.71,.59s-1.27-.19-1.71-.57c-.44-.38-.66-.88-.66-1.5h.95c0,.39,.13,.71,.38,.94,.26,.24,.6,.35,1.03,.35,.46,0,.81-.12,1.05-.36,.24-.24,.36-.58,.36-1.03s-.13-.77-.4-1-.65-.35-1.15-.36h-.71v-.77Z"/></g><path class="cls-1" d="M749.84,357.75h-7.33v-1.42h7.33v1.42Zm0,3.65h-7.33v-1.41h7.33v1.41Z"/><path class="cls-1" d="M855.17,375.85h1.22c.77-.01,1.37-.21,1.81-.61s.66-.92,.66-1.59c0-1.5-.75-2.25-2.24-2.25-.7,0-1.26,.2-1.68,.6s-.63,.93-.63,1.59h-1.63c0-1.01,.37-1.86,1.11-2.53s1.68-1.01,2.83-1.01c1.21,0,2.15,.32,2.84,.96s1.03,1.53,1.03,2.66c0,.56-.18,1.1-.54,1.62s-.85,.91-1.47,1.17c.7,.22,1.25,.59,1.63,1.11s.58,1.15,.58,1.89c0,1.15-.38,2.06-1.12,2.73s-1.73,1.01-2.93,1.01-2.18-.33-2.93-.98-1.13-1.51-1.13-2.58h1.63c0,.67,.22,1.21,.66,1.62s1.03,.61,1.77,.61c.79,0,1.39-.21,1.8-.62s.62-1,.62-1.77-.23-1.32-.69-1.71-1.12-.6-1.98-.62h-1.22v-1.33Z"/><path class="cls-1" d="M749.84,216.63h-7.33v-1.42h7.33v1.42Zm0,3.65h-7.33v-1.41h7.33v1.41Z"/><g><path class="cls-1" d="M711.43,224.64c0,.91-.15,1.7-.46,2.37-.3,.68-.74,1.19-1.29,1.55s-1.21,.53-1.96,.53-1.37-.18-1.94-.54c-.56-.36-1-.87-1.31-1.53-.31-.66-.47-1.43-.48-2.3v-.67c0-.89,.15-1.67,.46-2.35,.31-.68,.75-1.2,1.31-1.56,.56-.36,1.21-.54,1.94-.54s1.39,.18,1.96,.54c.56,.36,1,.88,1.3,1.56,.3,.68,.46,1.47,.46,2.37v.58Zm-1.21-.6c0-1.1-.22-1.94-.66-2.52-.44-.59-1.06-.88-1.85-.88s-1.38,.29-1.82,.88c-.44,.59-.67,1.4-.68,2.44v.68c0,1.06,.22,1.9,.67,2.5,.45,.61,1.06,.91,1.84,.91s1.4-.29,1.83-.86c.43-.57,.65-1.4,.67-2.47v-.69Z"/><path class="cls-1" d="M719.76,219.72v6.28c0,.87-.28,1.58-.82,2.14-.54,.55-1.28,.87-2.21,.93h-.32c-1.01,.01-1.82-.26-2.42-.81-.6-.55-.91-1.3-.91-2.25v-6.3h1.21v6.26c0,.67,.18,1.19,.55,1.56,.37,.37,.89,.56,1.57,.56s1.22-.18,1.58-.55c.37-.37,.55-.89,.55-1.56v-6.27h1.22Z"/><path class="cls-1" d="M728.07,220.72h-2.97v8.25h-1.21v-8.25h-2.96v-1h7.15v1Z"/></g><path class="cls-1" d="M962.77,216.63h-7.33v-1.42h7.33v1.42Zm0,3.65h-7.33v-1.41h7.33v1.41Z"/><g><path class="cls-1" d="M798.33,200.74h-3.01v5.18h-1.7v-12.8h4.24c1.44,0,2.55,.33,3.33,.98s1.16,1.61,1.16,2.87c0,.8-.21,1.49-.65,2.08s-1.03,1.03-1.8,1.33l3.01,5.43v.11h-1.81l-2.78-5.18Zm-3.01-1.38h2.59c.84,0,1.5-.22,2-.65,.5-.43,.74-1.02,.74-1.74,0-.79-.24-1.4-.71-1.82-.47-.42-1.15-.64-2.04-.64h-2.58v4.86Z"/><path class="cls-1" d="M806.97,211.91h-.95v-6.32l-1.91,.7v-.86l2.72-1.02h.15v7.5Z"/></g><g><path class="cls-1" d="M857.37,200.74h-3.01v5.18h-1.7v-12.8h4.24c1.44,0,2.55,.33,3.33,.98s1.16,1.61,1.16,2.87c0,.8-.21,1.49-.65,2.08s-1.03,1.03-1.8,1.33l3.01,5.43v.11h-1.81l-2.78-5.18Zm-3.01-1.38h2.59c.84,0,1.5-.22,2-.65,.5-.43,.74-1.02,.74-1.74,0-.79-.24-1.4-.71-1.82-.47-.42-1.15-.64-2.04-.64h-2.58v4.86Z"/><path class="cls-1" d="M867.78,211.92h-4.89v-.68l2.58-2.87c.38-.43,.65-.79,.79-1.06,.15-.27,.22-.55,.22-.84,0-.39-.12-.71-.35-.96-.24-.25-.55-.37-.94-.37-.47,0-.84,.13-1.1,.4-.26,.27-.39,.64-.39,1.12h-.95c0-.69,.22-1.24,.66-1.67,.44-.42,1.03-.64,1.78-.64,.69,0,1.24,.18,1.64,.55,.4,.36,.6,.85,.6,1.45,0,.73-.47,1.61-1.4,2.62l-2,2.17h3.75v.77Z"/></g><g><path class="cls-1" d="M916.41,200.74h-3.01v5.18h-1.7v-12.8h4.24c1.44,0,2.55,.33,3.33,.98s1.16,1.61,1.16,2.87c0,.8-.21,1.49-.65,2.08s-1.03,1.03-1.8,1.33l3.01,5.43v.11h-1.81l-2.78-5.18Zm-3.01-1.38h2.59c.84,0,1.5-.22,2-.65,.5-.43,.74-1.02,.74-1.74,0-.79-.24-1.4-.71-1.82-.47-.42-1.15-.64-2.04-.64h-2.58v4.86Z"/><path class="cls-1" d="M923.31,207.72h.71c.45,0,.8-.12,1.06-.35,.26-.23,.38-.54,.38-.93,0-.87-.44-1.31-1.31-1.31-.41,0-.74,.12-.98,.35-.25,.23-.37,.54-.37,.93h-.95c0-.59,.22-1.08,.65-1.47,.43-.39,.98-.59,1.65-.59,.7,0,1.26,.19,1.66,.56,.4,.37,.6,.89,.6,1.55,0,.32-.11,.64-.32,.94-.21,.3-.5,.53-.86,.68,.41,.13,.73,.35,.95,.65,.22,.3,.33,.67,.33,1.1,0,.67-.22,1.2-.66,1.59-.44,.39-1.01,.59-1.71,.59s-1.27-.19-1.71-.57c-.44-.38-.66-.88-.66-1.5h.95c0,.39,.13,.71,.38,.94s.6,.35,1.03,.35c.46,0,.81-.12,1.05-.36,.24-.24,.36-.58,.36-1.03s-.13-.77-.4-1c-.27-.23-.65-.35-1.15-.36h-.71v-.77Z"/></g><g><path class="cls-1" d="M797.69,346.24l3.66-10.56h1.85l-4.75,12.8h-1.49l-4.74-12.8h1.84l3.64,10.56Z"/><path class="cls-1" d="M807.16,354.47h-.95v-6.32l-1.91,.7v-.86l2.72-1.02h.15v7.5Z"/></g><g><path class="cls-1" d="M856.73,344.8l3.66-10.56h1.85l-4.75,12.8h-1.49l-4.74-12.8h1.84l3.64,10.56Z"/><path class="cls-1" d="M867.97,353.03h-4.89v-.68l2.58-2.87c.38-.43,.65-.79,.79-1.06,.15-.27,.22-.55,.22-.84,0-.39-.12-.71-.35-.96-.24-.25-.55-.37-.94-.37-.47,0-.84,.13-1.1,.4-.26,.27-.39,.64-.39,1.12h-.95c0-.69,.22-1.24,.66-1.67,.44-.42,1.03-.63,1.78-.63,.69,0,1.24,.18,1.64,.54,.4,.36,.6,.85,.6,1.45,0,.73-.47,1.61-1.4,2.62l-2,2.17h3.75v.77Z"/></g><g><path class="cls-1" d="M915.77,344.8l3.66-10.56h1.85l-4.75,12.8h-1.49l-4.74-12.8h1.84l3.64,10.56Z"/><path class="cls-1" d="M923.5,348.84h.71c.45,0,.8-.12,1.06-.35,.26-.23,.38-.54,.38-.93,0-.87-.44-1.31-1.31-1.31-.41,0-.74,.12-.98,.35-.25,.23-.37,.54-.37,.93h-.95c0-.59,.22-1.08,.65-1.47,.43-.39,.98-.59,1.65-.59,.7,0,1.26,.19,1.66,.56s.6,.89,.6,1.55c0,.32-.11,.64-.32,.94-.21,.3-.5,.53-.86,.68,.41,.13,.73,.35,.95,.65,.22,.3,.33,.67,.33,1.1,0,.67-.22,1.2-.66,1.59-.44,.39-1.01,.59-1.71,.59s-1.27-.19-1.71-.57c-.44-.38-.66-.88-.66-1.5h.95c0,.39,.13,.71,.38,.94,.26,.24,.6,.35,1.03,.35,.46,0,.81-.12,1.05-.36,.24-.24,.36-.58,.36-1.03s-.13-.77-.4-1c-.27-.23-.65-.35-1.15-.36h-.71v-.77Z"/></g></g></svg>