<?xml version="1.0" encoding="utf-8"?>
<!-- Generator: Adobe Illustrator 27.4.1, SVG Export Plug-In . SVG Version: 6.00 Build 0)  -->
<svg version="1.1" id="Ebene_1" xmlns="http://www.w3.org/2000/svg" xmlns:xlink="http://www.w3.org/1999/xlink" x="0px" y="0px"
	 viewBox="0 0 1080 600.5" style="enable-background:new 0 0 1080 600.5;" xml:space="preserve">
<style type="text/css">
	.st0{fill:none;stroke:#C9D1D9;stroke-width:1.21;stroke-miterlimit:10;}
	.st1{fill:none;stroke:#C9D1D9;stroke-width:1.87;stroke-miterlimit:10;}
	.st2{fill:none;stroke:#C9D1D9;stroke-width:1.48;stroke-miterlimit:10;}
	.st3{fill:none;stroke:#C9D1D9;stroke-width:0.24;stroke-miterlimit:10;}
	.st4{fill:none;stroke:#C9D1D9;stroke-width:0.25;stroke-miterlimit:10;}
	.st5{fill:none;stroke:#C9D1D9;stroke-width:1.05;stroke-miterlimit:10;}
	.st6{fill:none;stroke:#C9D1D9;stroke-width:2;stroke-miterlimit:10;}
	.st7{fill:none;stroke:#C9D1D9;stroke-width:2.33;stroke-miterlimit:10;}
	.st8{fill:none;stroke:#C9D1D9;stroke-width:0.82;stroke-miterlimit:10;}
	.st9{fill:none;stroke:#C9D1D9;stroke-width:1.37;stroke-miterlimit:10;}
	.st10{fill:none;stroke:#C9D1D9;stroke-width:0.17;stroke-miterlimit:10;}
	.st11{fill:none;stroke:#C9D1D9;stroke-width:0.52;stroke-miterlimit:10;}
	.st12{opacity:0.2;}
	.st13{fill:#C9D1D9;stroke:#C9D1D9;stroke-width:0.85;stroke-miterlimit:10;}
	.st14{fill:none;stroke:#C9D1D9;stroke-width:0.35;stroke-miterlimit:10;}
	.st15{opacity:0.2;fill:#C9D1D9;stroke:#C9D1D9;stroke-width:0.37;stroke-miterlimit:10;enable-background:new    ;}
	.st16{fill:none;stroke:#C9D1D9;stroke-width:0.75;stroke-miterlimit:10;}
	.st17{fill:none;stroke:#C9D1D9;stroke-width:0.48;stroke-miterlimit:10;}
	.st18{opacity:0.4;}
	.st19{fill:url(#SVGID_1_);}
	.st20{fill:none;stroke:#C9D1D9;stroke-width:0.37;stroke-miterlimit:10;}
	.st21{fill:none;stroke:#C9D1D9;stroke-width:0.43;stroke-miterlimit:10;}
	.st22{fill:none;stroke:#C9D1D9;stroke-width:1.42;stroke-miterlimit:10;}
	.st23{fill:none;stroke:#C9D1D9;stroke-width:0.72;stroke-miterlimit:10;}
	.st24{enable-background:new    ;}
	.st25{fill:#C9D1D9;}
	.st26{fill:none;stroke:#C9D1D9;stroke-miterlimit:10;}
	.st27{fill:none;stroke:#C9D1D9;stroke-width:1.65;stroke-miterlimit:10;}
	.st28{fill:none;stroke:#C9D1D9;stroke-width:1.19;stroke-miterlimit:10;}
	.st29{fill:none;stroke:#C9D1D9;stroke-width:1.27;stroke-miterlimit:10;}
</style>
<g id="Ebene_1_00000090972762453596811870000008947294021290746001_">
	<path class="st0" d="M72.9,489.6h423c2.1,0,3.8,1.7,3.8,3.8V529c0,2.1-1.7,3.8-3.8,3.8h-423c-2.1,0-3.8-1.7-3.8-3.8v-35.6
		C69.1,491.3,70.8,489.6,72.9,489.6z"/>
	<circle class="st1" cx="462.2" cy="132.5" r="31.7"/>
	<circle class="st2" cx="462.2" cy="132.5" r="25.1"/>
	<rect x="459.4" y="108" transform="matrix(0.7071 -0.7071 0.7071 0.7071 41.7078 365.6525)" class="st3" width="5.8" height="49"/>
	<line class="st4" x1="529.9" y1="106.6" x2="394.6" y2="106.6"/>
	<line class="st4" x1="394.6" y1="158.4" x2="529.9" y2="158.4"/>
	<path class="st5" d="M82,74.9h42.5c1.2,0,2.2,1,2.2,2.2v131.8c0,1.2-1,2.2-2.2,2.2H82c-1.2,0-2.2-1-2.2-2.2V77.1
		C79.7,75.9,80.7,74.9,82,74.9z"/>
	<rect x="123.8" y="172.8" class="st0" width="2.9" height="110.9"/>
	<rect x="135.6" y="121" class="st6" width="5.5" height="51.8"/>
	<rect x="126.7" y="74.9" class="st7" width="7.2" height="165.6"/>
	<g>
		<polygon class="st8" points="151.2,172.8 146.9,121 149.8,121 154.1,172.8 		"/>
		<polygon class="st8" points="148.3,172.8 144,121 146.9,121 151.2,172.8 		"/>
		<polygon class="st8" points="157,172.8 152.6,121 155.5,121 159.8,172.8 		"/>
		<polygon class="st8" points="169.9,121 172.8,121 172.8,155.5 		"/>
		<polygon class="st8" points="145.4,172.8 141.1,121 144,121 148.3,172.8 		"/>
		<polygon class="st8" points="135.4,172.8 135.4,121 141.1,121 145.4,172.8 		"/>
		<polygon class="st8" points="154.1,172.8 149.8,121 152.6,121 157,172.8 		"/>
		<polygon class="st8" points="168.5,172.8 164.2,121 167,121 171.4,172.8 		"/>
		<polygon class="st8" points="159.8,172.8 155.5,121 158.4,121 162.7,172.8 		"/>
		<polygon class="st8" points="172.8,172.8 171.4,172.8 167,121 169.9,121 172.8,155.5 		"/>
		<polygon class="st8" points="165.6,172.8 161.3,121 164.2,121 168.5,172.8 		"/>
		<polygon class="st8" points="162.7,172.8 158.4,121 161.3,121 165.6,172.8 		"/>
	</g>
	<polygon class="st9" points="292.3,142.6 292.3,123.8 174.2,123.8 174.2,169.9 292.3,169.9 292.3,151.2 227.5,151.2 227.5,142.6 	
		"/>
	<line class="st4" x1="292.3" y1="126.7" x2="174.2" y2="126.7"/>
	<line class="st4" x1="292.3" y1="129.6" x2="174.2" y2="129.6"/>
	<line class="st4" x1="292.3" y1="132.5" x2="174.2" y2="132.5"/>
	<line class="st4" x1="292.3" y1="135.4" x2="174.2" y2="135.4"/>
	<line class="st4" x1="292.3" y1="135.4" x2="174.2" y2="135.4"/>
	<line class="st4" x1="292.3" y1="138.2" x2="174.2" y2="138.2"/>
	<line class="st4" x1="292.3" y1="141.1" x2="174.2" y2="141.1"/>
	<line class="st4" x1="292.3" y1="142.6" x2="174.2" y2="142.6"/>
	<line class="st4" x1="292.3" y1="142.6" x2="174.2" y2="142.6"/>
	<line class="st10" x1="227.5" y1="144" x2="174.2" y2="144"/>
	<line class="st10" x1="227.5" y1="145.4" x2="174.2" y2="145.4"/>
	<line class="st10" x1="227.5" y1="146.9" x2="174.2" y2="146.9"/>
	<line class="st10" x1="227.5" y1="148.3" x2="174.2" y2="148.3"/>
	<line class="st10" x1="227.5" y1="149.8" x2="174.2" y2="149.8"/>
	<line class="st10" x1="227.5" y1="149.8" x2="174.2" y2="149.8"/>
	<line class="st4" x1="292.3" y1="151.2" x2="174.2" y2="151.2"/>
	<line class="st4" x1="292.3" y1="152.6" x2="174.2" y2="152.6"/>
	<line class="st4" x1="292.3" y1="155.5" x2="174.2" y2="155.5"/>
	<line class="st4" x1="292.3" y1="158.4" x2="174.2" y2="158.4"/>
	<line class="st4" x1="292.3" y1="161.3" x2="174.2" y2="161.3"/>
	<line class="st4" x1="292.3" y1="164.2" x2="174.2" y2="164.2"/>
	<line class="st4" x1="292.3" y1="164.2" x2="174.2" y2="164.2"/>
	<line class="st4" x1="292.3" y1="167" x2="174.2" y2="167"/>
	<line class="st4" x1="292.3" y1="169.9" x2="174.2" y2="169.9"/>
	<rect x="75" y="428.8" class="st11" width="2" height="30.6"/>
	<g class="st12">
		<polygon class="st13" points="92.6,411.5 92.6,411.6 92.6,428.8 123.9,428.8 123.9,411.6 123.9,411.5 		"/>
		<polygon class="st13" points="84.8,411.6 84.8,411.5 70.6,411.5 70.6,428.8 84.8,428.8 		"/>
		<polygon class="st13" points="386.2,411.5 386.2,411.6 386.2,428.8 437,428.8 437,411.6 437,411.5 		"/>
		<polygon class="st13" points="131.8,411.5 131.8,411.6 131.8,428.8 163.1,428.8 163.1,411.5 		"/>
		<polygon class="st13" points="444.9,411.6 444.9,428.8 498.2,428.8 498.2,411.5 444.9,411.5 		"/>
		<rect x="170.9" y="411.5" class="st13" width="148.7" height="17.2"/>
		<polygon class="st13" points="378.3,411.6 378.3,411.5 327.5,411.5 327.5,428.8 378.3,428.8 		"/>
	</g>
	<polygon class="st14" points="484,428.8 482.1,428.8 482.1,459.4 484,459.4 484,430.7 498.2,430.7 498.2,428.8 	"/>
	<polygon class="st15" points="456.6,372.4 456.6,339.8 425.3,339.8 425.3,372.4 421.4,372.4 421.4,389.6 460.5,389.6 460.5,372.4 	
		"/>
	<path class="st0" d="M72.9,489.6h423c2.1,0,3.8,1.7,3.8,3.8V529c0,2.1-1.7,3.8-3.8,3.8h-423c-2.1,0-3.8-1.7-3.8-3.8v-35.6
		C69.1,491.3,70.8,489.6,72.9,489.6z"/>
	<circle class="st16" cx="76.3" cy="511.2" r="4.3"/>
	<circle class="st16" cx="492.5" cy="511.2" r="4.3"/>
	<path class="st16" d="M86.3,506.9h396.1c1.6,0,2.8,1.3,2.8,2.8v3c0,1.6-1.3,2.8-2.8,2.8H86.3c-1.6,0-2.8-1.3-2.8-2.8v-3
		C83.5,508.1,84.8,506.9,86.3,506.9z"/>
	<rect x="416.2" y="508.3" class="st11" width="38.9" height="5.8"/>
	<rect x="478.1" y="429.1" class="st17" width="2" height="26.3"/>
	<g class="st18">
		
			<linearGradient id="SVGID_1_" gradientUnits="userSpaceOnUse" x1="103.23" y1="390.89" x2="103.23" y2="527.12" gradientTransform="matrix(1 0 0 -1 0 602)">
			<stop  offset="0" style="stop-color:#C9D1D9;stop-opacity:0"/>
			<stop  offset="0.29" style="stop-color:#C9D1D9;stop-opacity:0.54"/>
			<stop  offset="0.53" style="stop-color:#C9D1D9"/>
			<stop  offset="1" style="stop-color:#C9D1D9;stop-opacity:0"/>
		</linearGradient>
		<path class="st19" d="M82,74.9h42.5c1.2,0,2.2,1,2.2,2.2v131.8c0,1.2-1,2.2-2.2,2.2H82c-1.2,0-2.2-1-2.2-2.2V77.1
			C79.7,75.9,80.7,74.9,82,74.9z"/>
		<path class="st5" d="M82,74.9h42.5c1.2,0,2.2,1,2.2,2.2v131.8c0,1.2-1,2.2-2.2,2.2H82c-1.2,0-2.2-1-2.2-2.2V77.1
			C79.7,75.9,80.7,74.9,82,74.9z"/>
	</g>
	<polygon class="st20" points="456.6,372.4 456.6,339.8 425.3,339.8 425.3,372.4 421.4,372.4 421.4,389.6 460.5,389.6 460.5,372.4 	
		"/>
	<rect x="75" y="428.8" class="st11" width="2" height="30.6"/>
	<polygon class="st21" points="499.7,390.2 69.1,390.2 69.1,411.5 84.8,411.5 84.8,411.6 84.8,429.1 92.6,429.1 92.6,411.6 
		92.6,411.5 123.9,411.5 123.9,411.6 123.9,429.1 131.8,429.1 131.8,411.6 131.8,411.5 163.1,411.5 163.1,428.8 170.9,428.8 
		170.9,411.5 319.6,411.5 319.6,428.8 327.5,428.8 327.5,411.5 378.3,411.5 378.3,411.6 378.3,429.1 386.2,429.1 386.2,411.6 
		386.2,411.5 437,411.5 437,411.6 437,429.1 444.9,429.1 444.9,411.6 444.9,411.5 499.7,411.5 	"/>
	<polygon class="st14" points="484,428.8 482.1,428.8 482.1,459.4 484,459.4 484,430.7 498.2,430.7 498.2,428.8 	"/>
	<rect x="478.1" y="429.1" class="st17" width="2" height="26.3"/>
	<line class="st22" x1="74.9" y1="429.5" x2="70.6" y2="429.5"/>
	<line class="st23" x1="70.6" y1="411.8" x2="70.6" y2="429.5"/>
	<line class="st22" x1="84.6" y1="429.5" x2="77" y2="429.5"/>
	<line class="st22" x1="123.8" y1="429.5" x2="92.9" y2="429.5"/>
	<line class="st22" x1="163.1" y1="429.5" x2="131.8" y2="429.5"/>
	<line class="st22" x1="319.7" y1="429.5" x2="171" y2="429.1"/>
	<line class="st22" x1="378.4" y1="429.1" x2="327.2" y2="429.1"/>
	<line class="st22" x1="437" y1="429.1" x2="386.3" y2="429.1"/>
	<line class="st22" x1="499.3" y1="429.1" x2="445" y2="429.1"/>
	<line class="st22" x1="498.6" y1="428.8" x2="498.6" y2="411.5"/>
</g>
<g id="TEXT">
	<g class="st24">
		<path class="st25" d="M824.6,286.6h-8.4v-1.2l4.4-4.9c0.7-0.7,1.1-1.3,1.4-1.8c0.2-0.5,0.4-0.9,0.4-1.4c0-0.7-0.2-1.2-0.6-1.6
			s-0.9-0.6-1.6-0.6c-0.8,0-1.4,0.2-1.9,0.7c-0.4,0.5-0.7,1.1-0.7,1.9H816c0-1.2,0.4-2.1,1.1-2.9s1.8-1.1,3-1.1
			c1.2,0,2.1,0.3,2.8,0.9c0.7,0.6,1,1.5,1,2.5c0,1.3-0.8,2.8-2.4,4.5l-3.4,3.7h6.4V286.6z"/>
	</g>
	<g class="st24">
		<path class="st25" d="M771.1,286.6h-1.6v-10.8l-3.3,1.2v-1.5l4.7-1.7h0.3V286.6z"/>
	</g>
	<g class="st24">
		<path class="st25" d="M869,279.4h1.2c0.8,0,1.4-0.2,1.8-0.6s0.7-0.9,0.7-1.6c0-1.5-0.7-2.2-2.2-2.2c-0.7,0-1.3,0.2-1.7,0.6
			c-0.4,0.4-0.6,0.9-0.6,1.6h-1.6c0-1,0.4-1.9,1.1-2.5c0.7-0.7,1.7-1,2.8-1c1.2,0,2.2,0.3,2.8,1s1,1.5,1,2.7c0,0.6-0.2,1.1-0.5,1.6
			s-0.9,0.9-1.5,1.2c0.7,0.2,1.2,0.6,1.6,1.1s0.6,1.1,0.6,1.9c0,1.1-0.4,2.1-1.1,2.7s-1.7,1-2.9,1s-2.2-0.3-2.9-1s-1.1-1.5-1.1-2.6
			h1.6c0,0.7,0.2,1.2,0.7,1.6s1,0.6,1.8,0.6c0.8,0,1.4-0.2,1.8-0.6s0.6-1,0.6-1.8c0-0.7-0.2-1.3-0.7-1.7s-1.1-0.6-2-0.6H869V279.4z"
			/>
	</g>
	<g class="st24">
		<path class="st25" d="M466.6,296.6h-8.4v-1.2l4.4-4.9c0.7-0.7,1.1-1.3,1.4-1.8c0.2-0.5,0.4-0.9,0.4-1.4c0-0.7-0.2-1.2-0.6-1.6
			s-0.9-0.6-1.6-0.6c-0.8,0-1.4,0.2-1.9,0.7c-0.4,0.5-0.7,1.1-0.7,1.9H458c0-1.2,0.4-2.1,1.1-2.9s1.8-1.1,3-1.1
			c1.2,0,2.1,0.3,2.8,0.9c0.7,0.6,1,1.5,1,2.5c0,1.3-0.8,2.8-2.4,4.5l-3.4,3.7h6.4V296.6z"/>
	</g>
	<g class="st24">
		<path class="st25" d="M413.2,296.6h-1.6v-10.8l-3.3,1.2v-1.5l4.7-1.7h0.3V296.6z"/>
	</g>
	<g class="st24">
		<path class="st25" d="M511,289.5h1.2c0.8,0,1.4-0.2,1.8-0.6s0.7-0.9,0.7-1.6c0-1.5-0.7-2.2-2.2-2.2c-0.7,0-1.3,0.2-1.7,0.6
			c-0.4,0.4-0.6,0.9-0.6,1.6h-1.6c0-1,0.4-1.9,1.1-2.5c0.7-0.7,1.7-1,2.8-1c1.2,0,2.2,0.3,2.8,1s1,1.5,1,2.7c0,0.6-0.2,1.1-0.5,1.6
			s-0.9,0.9-1.5,1.2c0.7,0.2,1.2,0.6,1.6,1.1s0.6,1.1,0.6,1.9c0,1.1-0.4,2.1-1.1,2.7s-1.7,1-2.9,1s-2.2-0.3-2.9-1s-1.1-1.5-1.1-2.6
			h1.6c0,0.7,0.2,1.2,0.7,1.6s1,0.6,1.8,0.6c0.8,0,1.4-0.2,1.8-0.6s0.6-1,0.6-1.8c0-0.7-0.2-1.3-0.7-1.7s-1.1-0.6-2-0.6H511V289.5z"
			/>
	</g>
	<g class="st24">
		<path class="st25" d="M83,48.1h-3v5.2h-1.7V40.5h4.2c1.4,0,2.6,0.3,3.3,1s1.2,1.6,1.2,2.9c0,0.8-0.2,1.5-0.6,2.1s-1,1-1.8,1.3
			l3,5.4v0.1h-1.8L83,48.1z M80,46.7h2.6c0.8,0,1.5-0.2,2-0.7s0.7-1,0.7-1.7c0-0.8-0.2-1.4-0.7-1.8s-1.2-0.6-2-0.6H80V46.7z"/>
		<path class="st25" d="M88.7,48.4c0-0.9,0.2-1.8,0.5-2.5s0.9-1.3,1.5-1.7s1.4-0.6,2.2-0.6c1.3,0,2.3,0.4,3.1,1.3s1.2,2.1,1.2,3.6
			v0.1c0,0.9-0.2,1.8-0.5,2.5c-0.4,0.7-0.9,1.3-1.5,1.7s-1.4,0.6-2.3,0.6c-1.3,0-2.3-0.4-3.1-1.3s-1.2-2.1-1.2-3.6V48.4z M90.3,48.6
			c0,1.1,0.2,1.9,0.7,2.5s1.1,1,2,1c0.8,0,1.5-0.3,2-1c0.5-0.6,0.7-1.6,0.7-2.7c0-1-0.2-1.9-0.7-2.5c-0.5-0.6-1.2-1-2-1
			c-0.8,0-1.5,0.3-1.9,1S90.3,47.4,90.3,48.6z"/>
		<path class="st25" d="M101.6,41.5v2.3h1.8V45h-1.8v5.9c0,0.4,0.1,0.7,0.2,0.9s0.4,0.3,0.8,0.3c0.2,0,0.4,0,0.8-0.1v1.3
			c-0.4,0.1-0.8,0.2-1.2,0.2c-0.7,0-1.3-0.2-1.6-0.7s-0.6-1.1-0.6-1.9V45h-1.7v-1.3h1.7v-2.3H101.6z"/>
		<path class="st25" d="M111.1,53.3c-0.1-0.2-0.2-0.5-0.2-1c-0.8,0.8-1.7,1.2-2.7,1.2c-0.9,0-1.7-0.3-2.3-0.8s-0.9-1.2-0.9-2
			c0-1,0.4-1.8,1.1-2.3s1.8-0.8,3.2-0.8h1.6v-0.7c0-0.6-0.2-1-0.5-1.4c-0.3-0.3-0.8-0.5-1.5-0.5c-0.6,0-1.1,0.1-1.5,0.4
			s-0.6,0.6-0.6,1.1h-1.6c0-0.5,0.2-0.9,0.5-1.4s0.8-0.8,1.4-1.1s1.2-0.4,1.9-0.4c1.1,0,2,0.3,2.6,0.8s0.9,1.3,1,2.3v4.4
			c0,0.9,0.1,1.6,0.3,2.1v0.1H111.1z M108.4,52c0.5,0,1-0.1,1.5-0.4s0.8-0.6,1-1v-2h-1.3c-2,0-3,0.6-3,1.7c0,0.5,0.2,0.9,0.5,1.2
			S107.9,52,108.4,52z"/>
	</g>
	<g class="st24">
		<path class="st25" d="M119.6,45.2c-0.2,0-0.5-0.1-0.8-0.1c-1.1,0-1.8,0.5-2.2,1.4v6.8H115v-9.5h1.6l0,1.1c0.5-0.8,1.3-1.3,2.3-1.3
			c0.3,0,0.6,0,0.7,0.1V45.2z"/>
	</g>
	<g class="st24">
		<path class="st25" d="M124.4,50.9l2.2-7.1h1.7l-3.8,11c-0.6,1.6-1.5,2.4-2.8,2.4l-0.3,0l-0.6-0.1v-1.3l0.4,0c0.6,0,1-0.1,1.3-0.3
			s0.6-0.6,0.8-1.2l0.4-1l-3.4-9.4h1.8L124.4,50.9z"/>
	</g>
	<g class="st24">
		<path class="st25" d="M136.2,48.3v5h-1.7V40.5h4.7c1.4,0,2.5,0.4,3.3,1.1s1.2,1.7,1.2,2.8c0,1.2-0.4,2.2-1.2,2.9s-1.9,1-3.3,1
			H136.2z M136.2,46.9h3c0.9,0,1.6-0.2,2.1-0.6c0.5-0.4,0.7-1,0.7-1.8c0-0.8-0.2-1.4-0.7-1.8s-1.1-0.7-2-0.7h-3.1V46.9z"/>
	</g>
	<g class="st24">
		<path class="st25" d="M145.1,48.4c0-0.9,0.2-1.8,0.5-2.5s0.9-1.3,1.5-1.7s1.4-0.6,2.2-0.6c1.3,0,2.3,0.4,3.1,1.3s1.2,2.1,1.2,3.6
			v0.1c0,0.9-0.2,1.8-0.5,2.5c-0.4,0.7-0.9,1.3-1.5,1.7s-1.4,0.6-2.3,0.6c-1.3,0-2.3-0.4-3.1-1.3s-1.2-2.1-1.2-3.6V48.4z
			 M146.7,48.6c0,1.1,0.2,1.9,0.7,2.5s1.1,1,2,1c0.8,0,1.5-0.3,2-1c0.5-0.6,0.7-1.6,0.7-2.7c0-1-0.2-1.9-0.7-2.5c-0.5-0.6-1.2-1-2-1
			c-0.8,0-1.5,0.3-1.9,1S146.7,47.4,146.7,48.6z"/>
		<path class="st25" d="M158,41.5v2.3h1.8V45H158v5.9c0,0.4,0.1,0.7,0.2,0.9s0.4,0.3,0.8,0.3c0.2,0,0.4,0,0.8-0.1v1.3
			c-0.4,0.1-0.8,0.2-1.2,0.2c-0.7,0-1.3-0.2-1.6-0.7s-0.6-1.1-0.6-1.9V45h-1.7v-1.3h1.7v-2.3H158z"/>
		<path class="st25" d="M165.6,53.5c-1.3,0-2.3-0.4-3.1-1.3s-1.2-2-1.2-3.4v-0.3c0-0.9,0.2-1.8,0.5-2.5s0.9-1.3,1.5-1.7
			s1.3-0.6,2.1-0.6c1.2,0,2.2,0.4,2.9,1.2s1,2,1,3.5V49h-6.4c0,0.9,0.3,1.7,0.8,2.3c0.5,0.6,1.2,0.9,2,0.9c0.6,0,1.1-0.1,1.5-0.4
			s0.7-0.5,1-0.9l1,0.8C168.4,52.8,167.2,53.5,165.6,53.5z M165.4,44.9c-0.7,0-1.2,0.2-1.7,0.7s-0.7,1.1-0.8,2h4.8v-0.1
			c0-0.8-0.3-1.5-0.7-1.9S166.1,44.9,165.4,44.9z"/>
		<path class="st25" d="M172.7,43.8l0.1,1.2c0.7-0.9,1.7-1.4,2.8-1.4c2,0,3,1.1,3,3.4v6.3H177V47c0-0.7-0.2-1.2-0.5-1.5
			s-0.8-0.5-1.4-0.5c-0.5,0-1,0.1-1.4,0.4s-0.7,0.7-0.9,1.1v6.8h-1.6v-9.5H172.7z"/>
		<path class="st25" d="M183.3,41.5v2.3h1.8V45h-1.8v5.9c0,0.4,0.1,0.7,0.2,0.9s0.4,0.3,0.8,0.3c0.2,0,0.4,0,0.8-0.1v1.3
			c-0.4,0.1-0.8,0.2-1.2,0.2c-0.7,0-1.3-0.2-1.6-0.7s-0.6-1.1-0.6-1.9V45H180v-1.3h1.7v-2.3H183.3z"/>
		<path class="st25" d="M187,41.2c0-0.3,0.1-0.5,0.2-0.7s0.4-0.3,0.7-0.3s0.6,0.1,0.7,0.3s0.2,0.4,0.2,0.7s-0.1,0.5-0.2,0.7
			s-0.4,0.3-0.7,0.3s-0.6-0.1-0.7-0.3S187,41.5,187,41.2z M188.8,53.3h-1.6v-9.5h1.6V53.3z"/>
		<path class="st25" d="M190.9,48.4c0-0.9,0.2-1.8,0.5-2.5s0.9-1.3,1.5-1.7s1.4-0.6,2.2-0.6c1.3,0,2.3,0.4,3.1,1.3s1.2,2.1,1.2,3.6
			v0.1c0,0.9-0.2,1.8-0.5,2.5c-0.4,0.7-0.9,1.3-1.5,1.7s-1.4,0.6-2.3,0.6c-1.3,0-2.3-0.4-3.1-1.3s-1.2-2.1-1.2-3.6V48.4z
			 M192.6,48.6c0,1.1,0.2,1.9,0.7,2.5s1.1,1,2,1c0.8,0,1.5-0.3,2-1c0.5-0.6,0.7-1.6,0.7-2.7c0-1-0.2-1.9-0.7-2.5c-0.5-0.6-1.2-1-2-1
			c-0.8,0-1.5,0.3-1.9,1S192.6,47.4,192.6,48.6z"/>
		<path class="st25" d="M203.2,43.8l0,1.1c0.7-0.8,1.6-1.2,2.8-1.2c1.3,0,2.2,0.5,2.7,1.5c0.3-0.5,0.7-0.8,1.2-1.1s1.1-0.4,1.8-0.4
			c2.1,0,3.1,1.1,3.2,3.3v6.4h-1.6V47c0-0.7-0.2-1.2-0.5-1.5c-0.3-0.3-0.8-0.5-1.6-0.5c-0.6,0-1.1,0.2-1.5,0.5
			c-0.4,0.4-0.6,0.8-0.7,1.5v6.3h-1.6V47c0-1.4-0.7-2.1-2-2.1c-1.1,0-1.8,0.5-2.2,1.4v6.9h-1.6v-9.5H203.2z"/>
		<path class="st25" d="M221.4,53.5c-1.3,0-2.3-0.4-3.1-1.3s-1.2-2-1.2-3.4v-0.3c0-0.9,0.2-1.8,0.5-2.5s0.9-1.3,1.5-1.7
			s1.3-0.6,2.1-0.6c1.2,0,2.2,0.4,2.9,1.2s1,2,1,3.5V49h-6.4c0,0.9,0.3,1.7,0.8,2.3c0.5,0.6,1.2,0.9,2,0.9c0.6,0,1.1-0.1,1.5-0.4
			s0.7-0.5,1-0.9l1,0.8C224.1,52.8,222.9,53.5,221.4,53.5z M221.1,44.9c-0.7,0-1.2,0.2-1.7,0.7s-0.7,1.1-0.8,2h4.8v-0.1
			c0-0.8-0.3-1.5-0.7-1.9S221.8,44.9,221.1,44.9z"/>
		<path class="st25" d="M229.1,41.5v2.3h1.8V45h-1.8v5.9c0,0.4,0.1,0.7,0.2,0.9s0.4,0.3,0.8,0.3c0.2,0,0.4,0,0.8-0.1v1.3
			c-0.4,0.1-0.8,0.2-1.2,0.2c-0.7,0-1.3-0.2-1.6-0.7s-0.6-1.1-0.6-1.9V45h-1.7v-1.3h1.7v-2.3H229.1z"/>
		<path class="st25" d="M236.8,53.5c-1.3,0-2.3-0.4-3.1-1.3s-1.2-2-1.2-3.4v-0.3c0-0.9,0.2-1.8,0.5-2.5s0.9-1.3,1.5-1.7
			s1.3-0.6,2.1-0.6c1.2,0,2.2,0.4,2.9,1.2s1,2,1,3.5V49H234c0,0.9,0.3,1.7,0.8,2.3c0.5,0.6,1.2,0.9,2,0.9c0.6,0,1.1-0.1,1.5-0.4
			s0.7-0.5,1-0.9l1,0.8C239.6,52.8,238.4,53.5,236.8,53.5z M236.6,44.9c-0.7,0-1.2,0.2-1.7,0.7s-0.7,1.1-0.8,2h4.8v-0.1
			c0-0.8-0.3-1.5-0.7-1.9S237.2,44.9,236.6,44.9z"/>
		<path class="st25" d="M247,45.2c-0.2,0-0.5-0.1-0.8-0.1c-1.1,0-1.8,0.5-2.2,1.4v6.8h-1.6v-9.5h1.6l0,1.1c0.5-0.8,1.3-1.3,2.3-1.3
			c0.3,0,0.6,0,0.7,0.1V45.2z"/>
	</g>
	<g class="st24">
		<path class="st25" d="M479.6,475.2h-8.4V474l4.4-4.9c0.7-0.7,1.1-1.3,1.4-1.8c0.2-0.5,0.4-0.9,0.4-1.4c0-0.7-0.2-1.2-0.6-1.6
			s-0.9-0.6-1.6-0.6c-0.8,0-1.4,0.2-1.9,0.7c-0.4,0.5-0.7,1.1-0.7,1.9H471c0-1.2,0.4-2.1,1.1-2.9s1.8-1.1,3-1.1
			c1.2,0,2.1,0.3,2.8,0.9c0.7,0.6,1,1.5,1,2.5c0,1.3-0.8,2.8-2.4,4.5l-3.4,3.7h6.4V475.2z"/>
	</g>
	<g class="st24">
		<path class="st25" d="M83.4,475.2h-1.6v-10.8l-3.3,1.2v-1.5l4.7-1.7h0.3V475.2z"/>
	</g>
	<g class="st24">
		<path class="st25" d="M486.5,468h1.2c0.8,0,1.4-0.2,1.8-0.6s0.7-0.9,0.7-1.6c0-1.5-0.7-2.2-2.2-2.2c-0.7,0-1.3,0.2-1.7,0.6
			c-0.4,0.4-0.6,0.9-0.6,1.6h-1.6c0-1,0.4-1.9,1.1-2.5c0.7-0.7,1.7-1,2.8-1c1.2,0,2.2,0.3,2.8,1s1,1.5,1,2.7c0,0.6-0.2,1.1-0.5,1.6
			s-0.9,0.9-1.5,1.2c0.7,0.2,1.2,0.6,1.6,1.1s0.6,1.1,0.6,1.9c0,1.1-0.4,2.1-1.1,2.7s-1.7,1-2.9,1s-2.2-0.3-2.9-1s-1.1-1.5-1.1-2.6
			h1.6c0,0.7,0.2,1.2,0.7,1.6s1,0.6,1.8,0.6c0.8,0,1.4-0.2,1.8-0.6s0.6-1,0.6-1.8c0-0.7-0.2-1.3-0.7-1.7s-1.1-0.6-2-0.6h-1.2V468z"
			/>
	</g>
	<g class="st24">
		<path class="st25" d="M110.7,365.8c-1.4-0.4-2.5-0.9-3.2-1.5c-0.7-0.6-1-1.4-1-2.2c0-1,0.4-1.8,1.2-2.5c0.8-0.7,1.9-1,3.1-1
			c0.9,0,1.7,0.2,2.4,0.5s1.2,0.8,1.6,1.4s0.6,1.3,0.6,2h-1.7c0-0.8-0.2-1.4-0.7-1.8c-0.5-0.4-1.2-0.7-2.1-0.7
			c-0.8,0-1.5,0.2-1.9,0.6c-0.5,0.4-0.7,0.9-0.7,1.5c0,0.5,0.2,1,0.7,1.3s1.2,0.7,2.3,1c1.1,0.3,1.9,0.6,2.5,1
			c0.6,0.4,1,0.8,1.3,1.3s0.4,1,0.4,1.7c0,1-0.4,1.9-1.2,2.5c-0.8,0.6-1.9,0.9-3.2,0.9c-0.9,0-1.7-0.2-2.5-0.5
			c-0.8-0.3-1.3-0.8-1.8-1.4s-0.6-1.3-0.6-2h1.7c0,0.8,0.3,1.4,0.9,1.8c0.6,0.4,1.3,0.7,2.3,0.7c0.9,0,1.6-0.2,2-0.5
			s0.7-0.9,0.7-1.5s-0.2-1.1-0.7-1.5C112.7,366.5,111.9,366.2,110.7,365.8z"/>
		<path class="st25" d="M119.2,371.5h-1.6V358h1.6V371.5z"/>
		<path class="st25" d="M121.8,359.5c0-0.3,0.1-0.5,0.2-0.7s0.4-0.3,0.7-0.3s0.6,0.1,0.7,0.3s0.2,0.4,0.2,0.7s-0.1,0.5-0.2,0.7
			s-0.4,0.3-0.7,0.3s-0.6-0.1-0.7-0.3S121.8,359.8,121.8,359.5z M123.5,371.5h-1.6V362h1.6V371.5z"/>
		<path class="st25" d="M125.7,366.7c0-1.5,0.3-2.6,1-3.5c0.7-0.9,1.6-1.3,2.7-1.3c1.1,0,2,0.4,2.6,1.1v-5h1.6v13.5h-1.5l-0.1-1
			c-0.7,0.8-1.6,1.2-2.7,1.2c-1.1,0-2-0.5-2.7-1.4s-1-2.1-1-3.5V366.7z M127.4,366.9c0,1.1,0.2,1.9,0.7,2.5s1.1,0.9,1.8,0.9
			c1,0,1.8-0.5,2.3-1.4v-4.4c-0.5-0.9-1.2-1.3-2.2-1.3c-0.8,0-1.4,0.3-1.9,0.9S127.4,365.7,127.4,366.9z"/>
		<path class="st25" d="M140.2,371.7c-1.3,0-2.3-0.4-3.1-1.3c-0.8-0.8-1.2-2-1.2-3.4v-0.3c0-0.9,0.2-1.8,0.5-2.5
			c0.4-0.7,0.9-1.3,1.5-1.7c0.6-0.4,1.3-0.6,2.1-0.6c1.2,0,2.2,0.4,2.9,1.2s1,2,1,3.5v0.7h-6.4c0,0.9,0.3,1.7,0.8,2.3
			c0.5,0.6,1.2,0.9,2,0.9c0.6,0,1.1-0.1,1.5-0.4s0.7-0.5,1-0.9l1,0.8C143,371.1,141.8,371.7,140.2,371.7z M140,363.2
			c-0.7,0-1.2,0.2-1.7,0.7c-0.4,0.5-0.7,1.1-0.8,2h4.8v-0.1c0-0.8-0.3-1.5-0.7-1.9C141.2,363.4,140.7,363.2,140,363.2z"/>
	</g>
	<g class="st24">
		<path class="st25" d="M152.2,366.5v5h-1.7v-12.8h4.7c1.4,0,2.5,0.4,3.3,1.1s1.2,1.7,1.2,2.8c0,1.2-0.4,2.2-1.2,2.9
			c-0.8,0.7-1.9,1-3.3,1H152.2z M152.2,365.1h3c0.9,0,1.6-0.2,2.1-0.6s0.7-1,0.7-1.8c0-0.8-0.2-1.4-0.7-1.8c-0.5-0.5-1.1-0.7-2-0.7
			h-3.1V365.1z"/>
	</g>
	<g class="st24">
		<path class="st25" d="M161.1,366.7c0-0.9,0.2-1.8,0.5-2.5s0.9-1.3,1.5-1.7s1.4-0.6,2.2-0.6c1.3,0,2.3,0.4,3.1,1.3s1.2,2.1,1.2,3.6
			v0.1c0,0.9-0.2,1.8-0.5,2.5c-0.4,0.7-0.9,1.3-1.5,1.7s-1.4,0.6-2.3,0.6c-1.3,0-2.3-0.4-3.1-1.3s-1.2-2.1-1.2-3.6V366.7z
			 M162.7,366.9c0,1.1,0.2,1.9,0.7,2.5s1.1,1,2,1c0.8,0,1.5-0.3,2-1c0.5-0.6,0.7-1.6,0.7-2.7c0-1-0.2-1.9-0.7-2.5
			c-0.5-0.6-1.2-1-2-1c-0.8,0-1.5,0.3-1.9,1S162.7,365.7,162.7,366.9z"/>
		<path class="st25" d="M174,359.7v2.3h1.8v1.3H174v5.9c0,0.4,0.1,0.7,0.2,0.9c0.2,0.2,0.4,0.3,0.8,0.3c0.2,0,0.4,0,0.8-0.1v1.3
			c-0.4,0.1-0.8,0.2-1.2,0.2c-0.7,0-1.3-0.2-1.6-0.7s-0.6-1.1-0.6-1.9v-5.9h-1.7V362h1.7v-2.3H174z"/>
		<path class="st25" d="M181.6,371.7c-1.3,0-2.3-0.4-3.1-1.3c-0.8-0.8-1.2-2-1.2-3.4v-0.3c0-0.9,0.2-1.8,0.5-2.5
			c0.4-0.7,0.9-1.3,1.5-1.7c0.6-0.4,1.3-0.6,2.1-0.6c1.2,0,2.2,0.4,2.9,1.2s1,2,1,3.5v0.7h-6.4c0,0.9,0.3,1.7,0.8,2.3
			c0.5,0.6,1.2,0.9,2,0.9c0.6,0,1.1-0.1,1.5-0.4s0.7-0.5,1-0.9l1,0.8C184.4,371.1,183.2,371.7,181.6,371.7z M181.4,363.2
			c-0.7,0-1.2,0.2-1.7,0.7c-0.4,0.5-0.7,1.1-0.8,2h4.8v-0.1c0-0.8-0.3-1.5-0.7-1.9C182.6,363.4,182.1,363.2,181.4,363.2z"/>
		<path class="st25" d="M188.7,362l0.1,1.2c0.7-0.9,1.7-1.4,2.8-1.4c2,0,3,1.1,3,3.4v6.3h-1.6v-6.3c0-0.7-0.2-1.2-0.5-1.5
			s-0.8-0.5-1.4-0.5c-0.5,0-1,0.1-1.4,0.4s-0.7,0.7-0.9,1.1v6.8h-1.6V362H188.7z"/>
		<path class="st25" d="M199.3,359.7v2.3h1.8v1.3h-1.8v5.9c0,0.4,0.1,0.7,0.2,0.9c0.2,0.2,0.4,0.3,0.8,0.3c0.2,0,0.4,0,0.8-0.1v1.3
			c-0.4,0.1-0.8,0.2-1.2,0.2c-0.7,0-1.3-0.2-1.6-0.7s-0.6-1.1-0.6-1.9v-5.9H196V362h1.7v-2.3H199.3z"/>
		<path class="st25" d="M203,359.5c0-0.3,0.1-0.5,0.2-0.7s0.4-0.3,0.7-0.3s0.6,0.1,0.7,0.3s0.2,0.4,0.2,0.7s-0.1,0.5-0.2,0.7
			s-0.4,0.3-0.7,0.3s-0.6-0.1-0.7-0.3S203,359.8,203,359.5z M204.8,371.5h-1.6V362h1.6V371.5z"/>
		<path class="st25" d="M207,366.7c0-0.9,0.2-1.8,0.5-2.5s0.9-1.3,1.5-1.7s1.4-0.6,2.2-0.6c1.3,0,2.3,0.4,3.1,1.3s1.2,2.1,1.2,3.6
			v0.1c0,0.9-0.2,1.8-0.5,2.5c-0.4,0.7-0.9,1.3-1.5,1.7s-1.4,0.6-2.3,0.6c-1.3,0-2.3-0.4-3.1-1.3s-1.2-2.1-1.2-3.6V366.7z
			 M208.6,366.9c0,1.1,0.2,1.9,0.7,2.5s1.1,1,2,1c0.8,0,1.5-0.3,2-1c0.5-0.6,0.7-1.6,0.7-2.7c0-1-0.2-1.9-0.7-2.5
			c-0.5-0.6-1.2-1-2-1c-0.8,0-1.5,0.3-1.9,1S208.6,365.7,208.6,366.9z"/>
		<path class="st25" d="M219.2,362l0,1.1c0.7-0.8,1.6-1.2,2.8-1.2c1.3,0,2.2,0.5,2.7,1.5c0.3-0.5,0.7-0.8,1.2-1.1s1.1-0.4,1.8-0.4
			c2.1,0,3.1,1.1,3.2,3.3v6.4h-1.6v-6.3c0-0.7-0.2-1.2-0.5-1.5c-0.3-0.3-0.8-0.5-1.6-0.5c-0.6,0-1.1,0.2-1.5,0.5
			c-0.4,0.4-0.6,0.8-0.7,1.5v6.3h-1.6v-6.2c0-1.4-0.7-2.1-2-2.1c-1.1,0-1.8,0.5-2.2,1.4v6.9h-1.6V362H219.2z"/>
		<path class="st25" d="M237.4,371.7c-1.3,0-2.3-0.4-3.1-1.3c-0.8-0.8-1.2-2-1.2-3.4v-0.3c0-0.9,0.2-1.8,0.5-2.5
			c0.4-0.7,0.9-1.3,1.5-1.7c0.6-0.4,1.3-0.6,2.1-0.6c1.2,0,2.2,0.4,2.9,1.2s1,2,1,3.5v0.7h-6.4c0,0.9,0.3,1.7,0.8,2.3
			c0.5,0.6,1.2,0.9,2,0.9c0.6,0,1.1-0.1,1.5-0.4s0.7-0.5,1-0.9l1,0.8C240.2,371.1,239,371.7,237.4,371.7z M237.2,363.2
			c-0.7,0-1.2,0.2-1.7,0.7c-0.4,0.5-0.7,1.1-0.8,2h4.8v-0.1c0-0.8-0.3-1.5-0.7-1.9C238.4,363.4,237.8,363.2,237.2,363.2z"/>
		<path class="st25" d="M245.2,359.7v2.3h1.8v1.3h-1.8v5.9c0,0.4,0.1,0.7,0.2,0.9c0.2,0.2,0.4,0.3,0.8,0.3c0.2,0,0.4,0,0.8-0.1v1.3
			c-0.4,0.1-0.8,0.2-1.2,0.2c-0.7,0-1.3-0.2-1.6-0.7s-0.6-1.1-0.6-1.9v-5.9h-1.7V362h1.7v-2.3H245.2z"/>
		<path class="st25" d="M252.8,371.7c-1.3,0-2.3-0.4-3.1-1.3c-0.8-0.8-1.2-2-1.2-3.4v-0.3c0-0.9,0.2-1.8,0.5-2.5
			c0.4-0.7,0.9-1.3,1.5-1.7c0.6-0.4,1.3-0.6,2.1-0.6c1.2,0,2.2,0.4,2.9,1.2s1,2,1,3.5v0.7h-6.4c0,0.9,0.3,1.7,0.8,2.3
			c0.5,0.6,1.2,0.9,2,0.9c0.6,0,1.1-0.1,1.5-0.4s0.7-0.5,1-0.9l1,0.8C255.6,371.1,254.4,371.7,252.8,371.7z M252.6,363.2
			c-0.7,0-1.2,0.2-1.7,0.7c-0.4,0.5-0.7,1.1-0.8,2h4.8v-0.1c0-0.8-0.3-1.5-0.7-1.9C253.8,363.4,253.3,363.2,252.6,363.2z"/>
		<path class="st25" d="M263,363.5c-0.2,0-0.5-0.1-0.8-0.1c-1.1,0-1.8,0.5-2.2,1.4v6.8h-1.6V362h1.6l0,1.1c0.5-0.8,1.3-1.3,2.3-1.3
			c0.3,0,0.6,0,0.7,0.1V363.5z"/>
	</g>
	<g class="st24">
		<path class="st25" d="M635,499h-1.6v-10.8l-3.3,1.2v-1.5l4.7-1.7h0.3V499z"/>
	</g>
	<g class="st24">
		<path class="st25" d="M774.2,406.6h-8.4v-1.2l4.4-4.9c0.7-0.7,1.1-1.3,1.4-1.8c0.2-0.5,0.4-0.9,0.4-1.4c0-0.7-0.2-1.2-0.6-1.6
			s-0.9-0.6-1.6-0.6c-0.8,0-1.4,0.2-1.9,0.7c-0.4,0.5-0.7,1.1-0.7,1.9h-1.6c0-1.2,0.4-2.1,1.1-2.9s1.8-1.1,3-1.1
			c1.2,0,2.1,0.3,2.8,0.9c0.7,0.6,1,1.5,1,2.5c0,1.3-0.8,2.8-2.4,4.5l-3.4,3.7h6.4V406.6z"/>
	</g>
	<g class="st24">
		<path class="st25" d="M1002.1,497.6h1.2c0.8,0,1.4-0.2,1.8-0.6s0.7-0.9,0.7-1.6c0-1.5-0.7-2.2-2.2-2.2c-0.7,0-1.3,0.2-1.7,0.6
			c-0.4,0.4-0.6,0.9-0.6,1.6h-1.6c0-1,0.4-1.9,1.1-2.5c0.7-0.7,1.7-1,2.8-1c1.2,0,2.2,0.3,2.8,1s1,1.5,1,2.7c0,0.6-0.2,1.1-0.5,1.6
			s-0.9,0.9-1.5,1.2c0.7,0.2,1.2,0.6,1.6,1.1s0.6,1.1,0.6,1.9c0,1.1-0.4,2.1-1.1,2.7s-1.7,1-2.9,1s-2.2-0.3-2.9-1s-1.1-1.5-1.1-2.6
			h1.6c0,0.7,0.2,1.2,0.7,1.6s1,0.6,1.8,0.6c0.8,0,1.4-0.2,1.8-0.6s0.6-1,0.6-1.8c0-0.7-0.2-1.3-0.7-1.7s-1.1-0.6-2-0.6h-1.2V497.6z
			"/>
	</g>
	<g class="st24">
		<path class="st25" d="M36.5,231c-0.1-0.2-0.2-0.5-0.2-1c-0.8,0.8-1.7,1.2-2.7,1.2c-0.9,0-1.7-0.3-2.3-0.8s-0.9-1.2-0.9-2
			c0-1,0.4-1.8,1.1-2.3s1.8-0.8,3.2-0.8h1.6v-0.7c0-0.6-0.2-1-0.5-1.4c-0.3-0.3-0.8-0.5-1.5-0.5c-0.6,0-1.1,0.1-1.5,0.4
			s-0.6,0.6-0.6,1.1h-1.6c0-0.5,0.2-0.9,0.5-1.4s0.8-0.8,1.4-1.1s1.2-0.4,1.9-0.4c1.1,0,2,0.3,2.6,0.8s0.9,1.3,1,2.3v4.4
			c0,0.9,0.1,1.6,0.3,2.1v0.1H36.5z M33.8,229.8c0.5,0,1-0.1,1.5-0.4s0.8-0.6,1-1v-2H35c-2,0-3,0.6-3,1.7c0,0.5,0.2,0.9,0.5,1.2
			S33.3,229.8,33.8,229.8z"/>
		<path class="st25" d="M44.2,225.9c0,1.3-0.2,2.6-0.5,3.8c-0.3,1.2-0.9,2.3-1.6,3.3s-1.4,1.7-2.2,2.2l-0.3-1
			c0.9-0.7,1.6-1.8,2.2-3.2c0.5-1.5,0.8-3.1,0.8-4.8v-0.3c0-1.2-0.1-2.4-0.4-3.4c-0.3-1.1-0.6-2-1.1-2.8s-1-1.5-1.6-2l0.3-1
			c0.8,0.4,1.5,1.1,2.2,2.1s1.2,2.1,1.6,3.3S44.2,224.6,44.2,225.9z"/>
	</g>
	<g class="st24">
		<path class="st25" d="M68.2,377.3c-0.1-0.2-0.2-0.5-0.2-1c-0.8,0.8-1.7,1.2-2.7,1.2c-0.9,0-1.7-0.3-2.3-0.8s-0.9-1.2-0.9-2
			c0-1,0.4-1.8,1.1-2.3s1.8-0.8,3.2-0.8h1.6v-0.7c0-0.6-0.2-1-0.5-1.4c-0.3-0.3-0.8-0.5-1.5-0.5c-0.6,0-1.1,0.1-1.5,0.4
			s-0.6,0.6-0.6,1.1h-1.6c0-0.5,0.2-0.9,0.5-1.4s0.8-0.8,1.4-1.1s1.2-0.4,1.9-0.4c1.1,0,2,0.3,2.6,0.8s0.9,1.3,1,2.3v4.4
			c0,0.9,0.1,1.6,0.3,2.1v0.1H68.2z M65.5,376c0.5,0,1-0.1,1.5-0.4s0.8-0.6,1-1v-2h-1.3c-2,0-3,0.6-3,1.7c0,0.5,0.2,0.9,0.5,1.2
			S65,376,65.5,376z"/>
		<path class="st25" d="M75.9,372.2c0,1.3-0.2,2.6-0.5,3.8c-0.3,1.2-0.9,2.3-1.6,3.3s-1.4,1.7-2.2,2.2l-0.3-1
			c0.9-0.7,1.6-1.8,2.2-3.2c0.5-1.5,0.8-3.1,0.8-4.8v-0.3c0-1.2-0.1-2.4-0.4-3.4c-0.3-1.1-0.6-2-1.1-2.8s-1-1.5-1.6-2l0.3-1
			c0.8,0.4,1.5,1.1,2.2,2.1s1.2,2.1,1.6,3.3S75.9,370.8,75.9,372.2z"/>
	</g>
	<g class="st24">
		<path class="st25" d="M391.3,277.7c0,1.5-0.3,2.6-1,3.5s-1.6,1.3-2.7,1.3c-1.2,0-2.1-0.4-2.8-1.3l-0.1,1.1h-1.5v-13.5h1.6v5
			c0.7-0.8,1.6-1.2,2.7-1.2s2.1,0.4,2.7,1.3s1,2.1,1,3.6V277.7z M389.7,277.5c0-1.1-0.2-2-0.6-2.6s-1-0.9-1.8-0.9
			c-1.1,0-1.8,0.5-2.3,1.5v4.1c0.5,1,1.3,1.5,2.3,1.5c0.8,0,1.4-0.3,1.8-0.9S389.7,278.7,389.7,277.5z"/>
		<path class="st25" d="M397.1,277.2c0,1.3-0.2,2.6-0.5,3.8c-0.3,1.2-0.9,2.3-1.6,3.3s-1.4,1.7-2.2,2.2l-0.3-1
			c0.9-0.7,1.6-1.8,2.2-3.2c0.5-1.5,0.8-3.1,0.8-4.8v-0.3c0-1.2-0.1-2.4-0.4-3.4c-0.3-1.1-0.6-2-1.1-2.8s-1-1.5-1.6-2l0.3-1
			c0.8,0.4,1.5,1.1,2.2,2.1s1.2,2.1,1.6,3.3S397.1,275.8,397.1,277.2z"/>
	</g>
	<g class="st24">
		<path class="st25" d="M539,434.5c0,1.5-0.3,2.6-1,3.5s-1.6,1.3-2.7,1.3c-1.2,0-2.1-0.4-2.8-1.3l-0.1,1.1h-1.5v-13.5h1.6v5
			c0.7-0.8,1.6-1.2,2.7-1.2s2.1,0.4,2.7,1.3s1,2.1,1,3.6V434.5z M537.3,434.3c0-1.1-0.2-2-0.6-2.6s-1-0.9-1.8-0.9
			c-1.1,0-1.8,0.5-2.3,1.5v4.1c0.5,1,1.3,1.5,2.3,1.5c0.8,0,1.4-0.3,1.8-0.9S537.3,435.5,537.3,434.3z"/>
		<path class="st25" d="M544.8,434.1c0,1.3-0.2,2.6-0.5,3.8c-0.3,1.2-0.9,2.3-1.6,3.3s-1.4,1.7-2.2,2.2l-0.3-1
			c0.9-0.7,1.6-1.8,2.2-3.2c0.5-1.5,0.8-3.1,0.8-4.8V434c0-1.2-0.1-2.4-0.4-3.4c-0.3-1.1-0.6-2-1.1-2.8s-1-1.5-1.6-2l0.3-1
			c0.8,0.4,1.5,1.1,2.2,2.1s1.2,2.1,1.6,3.3S544.8,432.7,544.8,434.1z"/>
	</g>
	<g class="st24">
		<path class="st25" d="M302.5,220.6c0.6,0,1.1-0.2,1.5-0.5s0.7-0.8,0.7-1.3h1.5c0,0.5-0.2,1.1-0.6,1.6s-0.8,0.9-1.4,1.2
			s-1.2,0.4-1.8,0.4c-1.3,0-2.3-0.4-3.1-1.3c-0.8-0.9-1.1-2-1.1-3.5v-0.3c0-0.9,0.2-1.7,0.5-2.5s0.8-1.3,1.5-1.7s1.4-0.6,2.3-0.6
			c1.1,0,2,0.3,2.7,1s1.1,1.5,1.1,2.5h-1.5c0-0.6-0.3-1.1-0.7-1.5c-0.4-0.4-0.9-0.6-1.6-0.6c-0.8,0-1.5,0.3-1.9,0.9
			s-0.7,1.5-0.7,2.6v0.3c0,1.1,0.2,1.9,0.7,2.5S301.7,220.6,302.5,220.6z"/>
		<path class="st25" d="M311.9,216.7c0,1.3-0.2,2.6-0.5,3.8c-0.3,1.2-0.9,2.3-1.6,3.3s-1.4,1.7-2.2,2.2l-0.3-1
			c0.9-0.7,1.6-1.8,2.2-3.2c0.5-1.5,0.8-3.1,0.8-4.8v-0.3c0-1.2-0.1-2.4-0.4-3.4c-0.3-1.1-0.6-2-1.1-2.8s-1-1.5-1.6-2l0.3-1
			c0.8,0.4,1.5,1.1,2.2,2.1s1.2,2.1,1.6,3.3S311.9,215.3,311.9,216.7z"/>
	</g>
	<g class="st24">
		<path class="st25" d="M383.4,352c0.6,0,1.1-0.2,1.5-0.5s0.7-0.8,0.7-1.3h1.5c0,0.5-0.2,1.1-0.6,1.6s-0.8,0.9-1.4,1.2
			s-1.2,0.4-1.8,0.4c-1.3,0-2.3-0.4-3.1-1.3c-0.8-0.9-1.1-2-1.1-3.5v-0.3c0-0.9,0.2-1.7,0.5-2.5s0.8-1.3,1.5-1.7s1.4-0.6,2.3-0.6
			c1.1,0,2,0.3,2.7,1s1.1,1.5,1.1,2.5h-1.5c0-0.6-0.3-1.1-0.7-1.5c-0.4-0.4-0.9-0.6-1.6-0.6c-0.8,0-1.5,0.3-1.9,0.9
			s-0.7,1.5-0.7,2.6v0.3c0,1.1,0.2,1.9,0.7,2.5S382.5,352,383.4,352z"/>
		<path class="st25" d="M392.7,348.1c0,1.3-0.2,2.6-0.5,3.8c-0.3,1.2-0.9,2.3-1.6,3.3s-1.4,1.7-2.2,2.2l-0.3-1
			c0.9-0.7,1.6-1.8,2.2-3.2c0.5-1.5,0.8-3.1,0.8-4.8V348c0-1.2-0.1-2.4-0.4-3.4c-0.3-1.1-0.6-2-1.1-2.8s-1-1.5-1.6-2l0.3-1
			c0.8,0.4,1.5,1.1,2.2,2.1s1.2,2.1,1.6,3.3S392.7,346.7,392.7,348.1z"/>
	</g>
	<g class="st24">
		<path class="st25" d="M915,454.5c0-1.5,0.3-2.6,1-3.5c0.7-0.9,1.6-1.3,2.7-1.3c1.1,0,2,0.4,2.6,1.1v-5h1.6v13.5h-1.5l-0.1-1
			c-0.7,0.8-1.6,1.2-2.7,1.2c-1.1,0-2-0.5-2.7-1.4s-1-2.1-1-3.5V454.5z M916.7,454.7c0,1.1,0.2,1.9,0.7,2.5s1.1,0.9,1.8,0.9
			c1,0,1.8-0.5,2.3-1.4v-4.4c-0.5-0.9-1.2-1.3-2.2-1.3c-0.8,0-1.4,0.3-1.9,0.9S916.7,453.5,916.7,454.7z"/>
		<path class="st25" d="M929.3,454.3c0,1.3-0.2,2.6-0.5,3.8c-0.3,1.2-0.9,2.3-1.6,3.3s-1.4,1.7-2.2,2.2l-0.3-1
			c0.9-0.7,1.6-1.8,2.2-3.2c0.5-1.5,0.8-3.1,0.8-4.8v-0.3c0-1.2-0.1-2.4-0.4-3.4c-0.3-1.1-0.6-2-1.1-2.8s-1-1.5-1.6-2l0.3-1
			c0.8,0.4,1.5,1.1,2.2,2.1s1.2,2.1,1.6,3.3S929.3,452.9,929.3,454.3z"/>
	</g>
	<g class="st24">
		<path class="st25" d="M920.1,234.2c0-1.5,0.3-2.6,1-3.5c0.7-0.9,1.6-1.3,2.7-1.3c1.1,0,2,0.4,2.6,1.1v-5h1.6V239h-1.5l-0.1-1
			c-0.7,0.8-1.6,1.2-2.7,1.2c-1.1,0-2-0.5-2.7-1.4s-1-2.1-1-3.5V234.2z M921.7,234.4c0,1.1,0.2,1.9,0.7,2.5s1.1,0.9,1.8,0.9
			c1,0,1.8-0.5,2.3-1.4v-4.4c-0.5-0.9-1.2-1.3-2.2-1.3c-0.8,0-1.4,0.3-1.9,0.9S921.7,233.2,921.7,234.4z"/>
		<path class="st25" d="M934.4,233.9c0,1.3-0.2,2.6-0.5,3.8c-0.3,1.2-0.9,2.3-1.6,3.3s-1.4,1.7-2.2,2.2l-0.3-1
			c0.9-0.7,1.6-1.8,2.2-3.2c0.5-1.5,0.8-3.1,0.8-4.8v-0.3c0-1.2-0.1-2.4-0.4-3.4c-0.3-1.1-0.6-2-1.1-2.8s-1-1.5-1.6-2l0.3-1
			c0.8,0.4,1.5,1.1,2.2,2.1s1.2,2.1,1.6,3.3S934.4,232.6,934.4,233.9z"/>
	</g>
	<g class="st24">
		<path class="st25" d="M793.6,436.5c-1.3,0-2.3-0.4-3.1-1.3s-1.2-2-1.2-3.4v-0.3c0-0.9,0.2-1.8,0.5-2.5c0.4-0.7,0.9-1.3,1.5-1.7
			c0.6-0.4,1.3-0.6,2.1-0.6c1.2,0,2.2,0.4,2.9,1.2s1,2,1,3.5v0.7h-6.4c0,0.9,0.3,1.7,0.8,2.3c0.5,0.6,1.2,0.9,2,0.9
			c0.6,0,1.1-0.1,1.5-0.4s0.7-0.5,1-0.9l1,0.8C796.4,435.9,795.2,436.5,793.6,436.5z M793.4,428c-0.7,0-1.2,0.2-1.7,0.7
			s-0.7,1.1-0.8,2h4.8v-0.1c0-0.8-0.3-1.5-0.7-1.9S794.1,428,793.4,428z"/>
		<path class="st25" d="M802.9,431.2c0,1.3-0.2,2.6-0.5,3.8c-0.3,1.2-0.9,2.3-1.6,3.3c-0.7,1-1.4,1.7-2.2,2.2l-0.3-1
			c0.9-0.7,1.6-1.8,2.2-3.2c0.5-1.5,0.8-3.1,0.8-4.8v-0.3c0-1.2-0.1-2.4-0.4-3.4c-0.3-1.1-0.6-2-1.1-2.8c-0.5-0.8-1-1.5-1.6-2l0.3-1
			c0.8,0.4,1.5,1.1,2.2,2.1c0.7,1,1.2,2.1,1.6,3.3C802.8,428.5,802.9,429.8,802.9,431.2z"/>
	</g>
	<g class="st24">
		<path class="st25" d="M791.2,226.3c-1.3,0-2.3-0.4-3.1-1.3s-1.2-2-1.2-3.4v-0.3c0-0.9,0.2-1.8,0.5-2.5s0.9-1.3,1.5-1.7
			s1.3-0.6,2.1-0.6c1.2,0,2.2,0.4,2.9,1.2s1,2,1,3.5v0.7h-6.4c0,0.9,0.3,1.7,0.8,2.3c0.5,0.6,1.2,0.9,2,0.9c0.6,0,1.1-0.1,1.5-0.4
			s0.7-0.5,1-0.9l1,0.8C794,225.6,792.8,226.3,791.2,226.3z M791,217.7c-0.7,0-1.2,0.2-1.7,0.7s-0.7,1.1-0.8,2h4.8v-0.1
			c0-0.8-0.3-1.5-0.7-1.9S791.7,217.7,791,217.7z"/>
		<path class="st25" d="M800.5,221c0,1.3-0.2,2.6-0.5,3.8c-0.3,1.2-0.9,2.3-1.6,3.3s-1.4,1.7-2.2,2.2l-0.3-1
			c0.9-0.7,1.6-1.8,2.2-3.2c0.5-1.5,0.8-3.1,0.8-4.8v-0.3c0-1.2-0.1-2.4-0.4-3.4c-0.3-1.1-0.6-2-1.1-2.8s-1-1.5-1.6-2l0.3-1
			c0.8,0.4,1.5,1.1,2.2,2.1s1.2,2.1,1.6,3.3S800.5,219.6,800.5,221z"/>
	</g>
	<g class="st24">
		<path class="st25" d="M119,462.9c0,1.5-0.3,2.6-1,3.5s-1.6,1.3-2.7,1.3c-1.2,0-2.1-0.4-2.8-1.3l-0.1,1.1h-1.5v-13.5h1.6v5
			c0.7-0.8,1.6-1.2,2.7-1.2s2.1,0.4,2.7,1.3s1,2.1,1,3.6V462.9z M117.3,462.7c0-1.1-0.2-2-0.6-2.6s-1-0.9-1.8-0.9
			c-1.1,0-1.8,0.5-2.3,1.5v4.1c0.5,1,1.3,1.5,2.3,1.5c0.8,0,1.4-0.3,1.8-0.9S117.3,463.9,117.3,462.7z"/>
		<path class="st25" d="M124.8,462.5c0,1.3-0.2,2.6-0.5,3.8c-0.3,1.2-0.9,2.3-1.6,3.3s-1.4,1.7-2.2,2.2l-0.3-1
			c0.9-0.7,1.6-1.8,2.2-3.2c0.5-1.5,0.8-3.1,0.8-4.8v-0.3c0-1.2-0.1-2.4-0.4-3.4c-0.3-1.1-0.6-2-1.1-2.8s-1-1.5-1.6-2l0.3-1
			c0.8,0.4,1.5,1.1,2.2,2.1s1.2,2.1,1.6,3.3S124.8,461.1,124.8,462.5z"/>
	</g>
	<g class="st24">
		<path class="st25" d="M165.3,258.5c0,1.5-0.3,2.6-1,3.5s-1.6,1.3-2.7,1.3c-1.2,0-2.1-0.4-2.8-1.3l-0.1,1.1h-1.5v-13.5h1.6v5
			c0.7-0.8,1.6-1.2,2.7-1.2s2.1,0.4,2.7,1.3s1,2.1,1,3.6V258.5z M163.6,258.3c0-1.1-0.2-2-0.6-2.6s-1-0.9-1.8-0.9
			c-1.1,0-1.8,0.5-2.3,1.5v4.1c0.5,1,1.3,1.5,2.3,1.5c0.8,0,1.4-0.3,1.8-0.9S163.6,259.5,163.6,258.3z"/>
		<path class="st25" d="M171.1,258.1c0,1.3-0.2,2.6-0.5,3.8c-0.3,1.2-0.9,2.3-1.6,3.3s-1.4,1.7-2.2,2.2l-0.3-1
			c0.9-0.7,1.6-1.8,2.2-3.2c0.5-1.5,0.8-3.1,0.8-4.8v-0.3c0-1.2-0.1-2.4-0.4-3.4c-0.3-1.1-0.6-2-1.1-2.8s-1-1.5-1.6-2l0.3-1
			c0.8,0.4,1.5,1.1,2.2,2.1s1.2,2.1,1.6,3.3S171.1,256.7,171.1,258.1z"/>
	</g>
</g>
<g id="line">
	<g>
		<line class="st26" x1="773.4" y1="182.2" x2="816.5" y2="149.8"/>
		<polygon class="st25" points="777.5,185.3 767.6,186.5 771.5,177.3 		"/>
	</g>
	<polyline class="st26" points="763.2,203.7 767.6,191.7 755,194.1 761.2,182.9 748.4,183.4 756.2,173.3 743.6,171.7 752.9,163 
		740.6,159.4 751.2,152.2 739.7,146.8 751.2,141.4 740.6,134.2 752.9,130.6 743.6,121.9 756.2,120.3 748.4,110.2 761.2,110.6 
		755,99.4 767.6,101.8 763.2,89.8 775.2,94.2 772.8,81.6 784,87.8 783.6,75 793.7,82.8 795.3,70.2 804,79.5 807.6,67.2 814.8,77.8 
		820.2,66.2 825.6,77.8 832.8,67.2 836.4,79.5 845.1,70.2 846.7,82.8 856.8,75 856.4,87.8 867.5,81.6 865.2,94.2 877.2,89.8 
		872.8,101.8 885.4,99.4 879.2,110.6 892,110.2 884.2,120.3 896.8,121.9 887.5,130.6 899.8,134.2 889.2,141.4 900.8,146.8 
		889.2,152.2 899.8,159.4 887.5,163 896.8,171.7 884.2,173.3 892,183.4 879.2,182.9 885.4,194.1 872.8,191.7 877.2,203.8 	"/>
	<line class="st26" x1="771.2" y1="202.9" x2="771.2" y2="262"/>
	<line class="st26" x1="820.2" y1="151.1" x2="820.2" y2="262"/>
	<line class="st26" x1="870.6" y1="202.9" x2="870.6" y2="262"/>
	<line class="st26" x1="771.2" y1="202.9" x2="764" y2="202.9"/>
	<line class="st26" x1="870.6" y1="202.9" x2="877.8" y2="202.9"/>
	<path class="st26" d="M793.7,173.7c-14.6-14.6-14.6-38.3,0-52.9s38.3-14.6,53,0s14.6,38.3,0,52.9"/>
	<polyline class="st26" points="697.3,494.7 703.5,506.1 714.3,486.1 725.1,506.1 736,486.1 746.8,506.1 757.6,486.1 768.4,506.1 
		779.3,486.1 790.1,506.1 800.9,486.1 811.8,506.1 822.6,486.1 833.4,506.1 844.2,486.1 855.1,506.1 865.9,486.1 876.8,506.1 
		887.6,486.1 898.4,506.1 909.2,486.1 920.1,506.1 930.9,486.1 935.6,494.7 	"/>
	<line class="st26" x1="697.3" y1="494.7" x2="645.1" y2="494.7"/>
	<line class="st26" x1="935.6" y1="494.7" x2="990.7" y2="494.7"/>
	<g>
		<line class="st26" x1="758.8" y1="472.3" x2="758.8" y2="411.8"/>
		<polygon class="st25" points="763.8,470.9 758.8,479.5 753.8,470.9 		"/>
	</g>
	<line class="st26" x1="258.4" y1="158.4" x2="299.1" y2="204.5"/>
	<line class="st26" x1="88.7" y1="191.5" x2="47.4" y2="221"/>
	<line class="st26" x1="79.7" y1="377.3" x2="146.8" y2="400.9"/>
	<line class="st26" x1="398.4" y1="348.3" x2="441" y2="364.7"/>
	<line class="st26" x1="880.1" y1="196.5" x2="917.3" y2="229.1"/>
	<line class="st26" x1="874.5" y1="493.4" x2="914.8" y2="457.8"/>
	<line class="st26" x1="790.2" y1="212.8" x2="782.8" y2="180.9"/>
	<line class="st26" x1="789.8" y1="436.3" x2="763.2" y2="450.2"/>
	<line class="st26" x1="79.4" y1="449" x2="108.2" y2="462"/>
	<line class="st26" x1="488.2" y1="445.5" x2="522.9" y2="436.3"/>
	<circle class="st27" cx="820.2" cy="146.8" r="4.3"/>
	<path class="st28" d="M534.2,132.5c0-39.8-32.2-72-72-72s-72,32.2-72,72c0,16.2,5.4,31.2,14.4,43.2v50.4h115.2v-50.4
		C528.9,163.6,534.2,148.7,534.2,132.5z"/>
	<rect x="413.3" y="226.1" class="st29" width="11.5" height="43.2"/>
	<rect x="456.5" y="226.1" class="st29" width="11.5" height="43.2"/>
	<rect x="499.7" y="226.1" class="st29" width="11.5" height="43.2"/>
	<circle class="st4" cx="462.2" cy="132.5" r="72"/>
	<line class="st26" x1="401.6" y1="272.3" x2="421.4" y2="261.2"/>
	<line class="st26" x1="125.6" y1="269.3" x2="155.2" y2="258.1"/>
</g>
</svg>
