<?xml version="1.0" encoding="utf-8"?>
<!-- Generator: Adobe Illustrator 27.4.1, SVG Export Plug-In . SVG Version: 6.00 Build 0)  -->
<svg version="1.1" id="Signal_Flow" xmlns="http://www.w3.org/2000/svg" xmlns:xlink="http://www.w3.org/1999/xlink" x="0px"
	 y="0px" viewBox="0 0 1079 111.6" style="enable-background:new 0 0 1079 111.6;" xml:space="preserve">
<style type="text/css">
	.st0{fill:none;stroke:#0D1117;stroke-width:1.42;stroke-miterlimit:10;}
	.st1{enable-background:new    ;}
	.st2{fill:#0D1117;}
</style>
<polyline class="st0" points="54.1,74.8 89.9,74.8 89.9,2.8 125.7,2.8 125.7,74.8 161.5,74.8 161.5,2.8 197.2,2.8 197.2,74.8 
	233,74.8 233,2.8 268.8,2.8 268.8,74.8 304.6,74.8 304.6,2.8 340.3,2.8 340.3,74.8 376.1,74.8 376.1,2.8 411.9,2.8 411.9,74.8 
	447.7,74.8 447.7,2.8 483.4,2.8 483.4,74.8 519.2,74.8 519.2,2.8 555,2.8 555,74.8 590.8,74.8 590.8,2.8 626.5,2.8 626.5,74.8 
	662.3,74.8 662.3,2.8 698.1,2.8 698.1,74.8 733.9,74.8 733.9,2.8 769.6,2.8 769.6,74.8 805.4,74.8 805.4,2.8 841.2,2.8 841.2,74.8 
	877,74.8 877,2.8 912.7,2.8 912.7,74.8 948.5,74.8 948.5,2.8 984.3,2.8 984.3,74.8 1020.1,74.8 "/>
<g>
	<g class="st1">
		<path class="st2" d="M74,101.8c0,1.9-0.3,3.3-1,4.2s-1.7,1.4-3,1.4c-1.4,0-2.4-0.5-3-1.4c-0.7-0.9-1-2.3-1-4.1v-2.2
			c0-1.9,0.3-3.3,1-4.2s1.7-1.4,3.1-1.4c1.4,0,2.4,0.4,3,1.3c0.7,0.9,1,2.2,1,4.1V101.8z M72.4,99.5c0-1.4-0.2-2.4-0.6-3
			c-0.4-0.6-1-0.9-1.8-0.9c-0.8,0-1.4,0.3-1.8,0.9s-0.6,1.6-0.6,2.9v2.6c0,1.4,0.2,2.4,0.6,3.1c0.4,0.7,1,1,1.8,1
			c0.8,0,1.4-0.3,1.8-0.9s0.6-1.6,0.6-2.9V99.5z"/>
	</g>
</g>
<g>
	<g class="st1">
		<path class="st2" d="M107.3,107.2h-1.6V96.4l-3.3,1.2v-1.5l4.7-1.8h0.3V107.2z"/>
	</g>
</g>
<g>
	<g class="st1">
		<path class="st2" d="M146,101.8c0,1.9-0.3,3.3-1,4.2s-1.7,1.4-3,1.4c-1.4,0-2.4-0.5-3-1.4c-0.7-0.9-1-2.3-1-4.1v-2.2
			c0-1.9,0.3-3.3,1-4.2s1.7-1.4,3.1-1.4c1.4,0,2.4,0.4,3,1.3c0.7,0.9,1,2.2,1,4.1V101.8z M144.4,99.5c0-1.4-0.2-2.4-0.6-3
			c-0.4-0.6-1-0.9-1.8-0.9c-0.8,0-1.4,0.3-1.8,0.9s-0.6,1.6-0.6,2.9v2.6c0,1.4,0.2,2.4,0.6,3.1c0.4,0.7,1,1,1.8,1
			c0.8,0,1.4-0.3,1.8-0.9s0.6-1.6,0.6-2.9V99.5z"/>
	</g>
</g>
<g>
	<g class="st1">
		<path class="st2" d="M179.3,107.2h-1.6V96.4l-3.3,1.2v-1.5l4.7-1.8h0.3V107.2z"/>
	</g>
</g>
<g>
	<g class="st1">
		<path class="st2" d="M218,101.8c0,1.9-0.3,3.3-1,4.2s-1.7,1.4-3,1.4c-1.4,0-2.4-0.5-3-1.4c-0.7-0.9-1-2.3-1-4.1v-2.2
			c0-1.9,0.3-3.3,1-4.2s1.7-1.4,3.1-1.4c1.4,0,2.4,0.4,3,1.3c0.7,0.9,1,2.2,1,4.1V101.8z M216.4,99.5c0-1.4-0.2-2.4-0.6-3
			c-0.4-0.6-1-0.9-1.8-0.9c-0.8,0-1.4,0.3-1.8,0.9s-0.6,1.6-0.6,2.9v2.6c0,1.4,0.2,2.4,0.6,3.1c0.4,0.7,1,1,1.8,1
			c0.8,0,1.4-0.3,1.8-0.9s0.6-1.6,0.6-2.9V99.5z"/>
	</g>
</g>
<g>
	<g class="st1">
		<path class="st2" d="M251.3,107.2h-1.6V96.4l-3.3,1.2v-1.5l4.7-1.8h0.3V107.2z"/>
	</g>
</g>
<g>
	<g class="st1">
		<path class="st2" d="M290,101.8c0,1.9-0.3,3.3-1,4.2s-1.7,1.4-3,1.4c-1.4,0-2.4-0.5-3-1.4c-0.7-0.9-1-2.3-1-4.1v-2.2
			c0-1.9,0.3-3.3,1-4.2s1.7-1.4,3.1-1.4c1.4,0,2.4,0.4,3,1.3c0.7,0.9,1,2.2,1,4.1V101.8z M288.4,99.5c0-1.4-0.2-2.4-0.6-3
			c-0.4-0.6-1-0.9-1.8-0.9c-0.8,0-1.4,0.3-1.8,0.9s-0.6,1.6-0.6,2.9v2.6c0,1.4,0.2,2.4,0.6,3.1c0.4,0.7,1,1,1.8,1
			c0.8,0,1.4-0.3,1.8-0.9s0.6-1.6,0.6-2.9V99.5z"/>
	</g>
</g>
<g>
	<g class="st1">
		<path class="st2" d="M323.3,107.2h-1.6V96.4l-3.3,1.2v-1.5l4.7-1.8h0.3V107.2z"/>
	</g>
</g>
<g>
	<g class="st1">
		<path class="st2" d="M362,101.8c0,1.9-0.3,3.3-1,4.2s-1.7,1.4-3,1.4c-1.4,0-2.4-0.5-3-1.4c-0.7-0.9-1-2.3-1-4.1v-2.2
			c0-1.9,0.3-3.3,1-4.2s1.7-1.4,3.1-1.4c1.4,0,2.4,0.4,3,1.3c0.7,0.9,1,2.2,1,4.1V101.8z M360.4,99.5c0-1.4-0.2-2.4-0.6-3
			c-0.4-0.6-1-0.9-1.8-0.9c-0.8,0-1.4,0.3-1.8,0.9s-0.6,1.6-0.6,2.9v2.6c0,1.4,0.2,2.4,0.6,3.1c0.4,0.7,1,1,1.8,1
			c0.8,0,1.4-0.3,1.8-0.9s0.6-1.6,0.6-2.9V99.5z"/>
	</g>
</g>
<g>
	<g class="st1">
		<path class="st2" d="M395.3,107.2h-1.6V96.4l-3.3,1.2v-1.5l4.7-1.8h0.3V107.2z"/>
	</g>
</g>
<g>
	<g class="st1">
		<path class="st2" d="M434,101.8c0,1.9-0.3,3.3-1,4.2s-1.7,1.4-3,1.4c-1.4,0-2.4-0.5-3-1.4c-0.7-0.9-1-2.3-1-4.1v-2.2
			c0-1.9,0.3-3.3,1-4.2s1.7-1.4,3.1-1.4c1.4,0,2.4,0.4,3,1.3c0.7,0.9,1,2.2,1,4.1V101.8z M432.4,99.5c0-1.4-0.2-2.4-0.6-3
			c-0.4-0.6-1-0.9-1.8-0.9c-0.8,0-1.4,0.3-1.8,0.9s-0.6,1.6-0.6,2.9v2.6c0,1.4,0.2,2.4,0.6,3.1c0.4,0.7,1,1,1.8,1
			c0.8,0,1.4-0.3,1.8-0.9s0.6-1.6,0.6-2.9V99.5z"/>
	</g>
</g>
<g>
	<g class="st1">
		<path class="st2" d="M467.3,107.2h-1.6V96.4l-3.3,1.2v-1.5l4.7-1.8h0.3V107.2z"/>
	</g>
</g>
<g>
	<g class="st1">
		<path class="st2" d="M506,101.8c0,1.9-0.3,3.3-1,4.2s-1.7,1.4-3,1.4c-1.4,0-2.4-0.5-3-1.4c-0.7-0.9-1-2.3-1-4.1v-2.2
			c0-1.9,0.3-3.3,1-4.2s1.7-1.4,3.1-1.4c1.4,0,2.4,0.4,3,1.3c0.7,0.9,1,2.2,1,4.1V101.8z M504.4,99.5c0-1.4-0.2-2.4-0.6-3
			c-0.4-0.6-1-0.9-1.8-0.9c-0.8,0-1.4,0.3-1.8,0.9s-0.6,1.6-0.6,2.9v2.6c0,1.4,0.2,2.4,0.6,3.1c0.4,0.7,1,1,1.8,1
			c0.8,0,1.4-0.3,1.8-0.9s0.6-1.6,0.6-2.9V99.5z"/>
	</g>
</g>
<g>
	<g class="st1">
		<path class="st2" d="M539.3,107.2h-1.6V96.4l-3.3,1.2v-1.5l4.7-1.8h0.3V107.2z"/>
	</g>
</g>
<g>
	<g class="st1">
		<path class="st2" d="M578,101.8c0,1.9-0.3,3.3-1,4.2s-1.7,1.4-3,1.4c-1.4,0-2.4-0.5-3-1.4c-0.7-0.9-1-2.3-1-4.1v-2.2
			c0-1.9,0.3-3.3,1-4.2s1.7-1.4,3.1-1.4c1.4,0,2.4,0.4,3,1.3c0.7,0.9,1,2.2,1,4.1V101.8z M576.4,99.5c0-1.4-0.2-2.4-0.6-3
			c-0.4-0.6-1-0.9-1.8-0.9c-0.8,0-1.4,0.3-1.8,0.9s-0.6,1.6-0.6,2.9v2.6c0,1.4,0.2,2.4,0.6,3.1c0.4,0.7,1,1,1.8,1
			c0.8,0,1.4-0.3,1.8-0.9s0.6-1.6,0.6-2.9V99.5z"/>
	</g>
</g>
<g>
	<g class="st1">
		<path class="st2" d="M611.3,107.2h-1.6V96.4l-3.3,1.2v-1.5l4.7-1.8h0.3V107.2z"/>
	</g>
</g>
<g>
	<g class="st1">
		<path class="st2" d="M650,101.8c0,1.9-0.3,3.3-1,4.2s-1.7,1.4-3.1,1.4c-1.4,0-2.4-0.5-3-1.4c-0.7-0.9-1-2.3-1-4.1v-2.2
			c0-1.9,0.3-3.3,1-4.2s1.7-1.4,3.1-1.4c1.4,0,2.4,0.4,3,1.3c0.7,0.9,1,2.2,1,4.1V101.8z M648.4,99.5c0-1.4-0.2-2.4-0.6-3
			c-0.4-0.6-1-0.9-1.8-0.9c-0.8,0-1.4,0.3-1.8,0.9s-0.6,1.6-0.6,2.9v2.6c0,1.4,0.2,2.4,0.6,3.1c0.4,0.7,1,1,1.8,1
			c0.8,0,1.4-0.3,1.8-0.9s0.6-1.6,0.6-2.9V99.5z"/>
	</g>
</g>
<g>
	<g class="st1">
		<path class="st2" d="M683.3,107.2h-1.6V96.4l-3.3,1.2v-1.5l4.7-1.8h0.3V107.2z"/>
	</g>
</g>
<g>
	<g class="st1">
		<path class="st2" d="M722,101.8c0,1.9-0.3,3.3-1,4.2s-1.7,1.4-3.1,1.4c-1.4,0-2.4-0.5-3-1.4c-0.7-0.9-1-2.3-1-4.1v-2.2
			c0-1.9,0.3-3.3,1-4.2s1.7-1.4,3.1-1.4c1.4,0,2.4,0.4,3,1.3c0.7,0.9,1,2.2,1,4.1V101.8z M720.4,99.5c0-1.4-0.2-2.4-0.6-3
			c-0.4-0.6-1-0.9-1.8-0.9c-0.8,0-1.4,0.3-1.8,0.9s-0.6,1.6-0.6,2.9v2.6c0,1.4,0.2,2.4,0.6,3.1c0.4,0.7,1,1,1.8,1
			c0.8,0,1.4-0.3,1.8-0.9s0.6-1.6,0.6-2.9V99.5z"/>
	</g>
</g>
<g>
	<g class="st1">
		<path class="st2" d="M755.3,107.2h-1.6V96.4l-3.3,1.2v-1.5l4.7-1.8h0.3V107.2z"/>
	</g>
</g>
<g>
	<g class="st1">
		<path class="st2" d="M794,101.8c0,1.9-0.3,3.3-1,4.2s-1.7,1.4-3.1,1.4c-1.4,0-2.4-0.5-3-1.4c-0.7-0.9-1-2.3-1-4.1v-2.2
			c0-1.9,0.3-3.3,1-4.2s1.7-1.4,3.1-1.4c1.4,0,2.4,0.4,3,1.3c0.7,0.9,1,2.2,1,4.1V101.8z M792.4,99.5c0-1.4-0.2-2.4-0.6-3
			c-0.4-0.6-1-0.9-1.8-0.9c-0.8,0-1.4,0.3-1.8,0.9s-0.6,1.6-0.6,2.9v2.6c0,1.4,0.2,2.4,0.6,3.1c0.4,0.7,1,1,1.8,1
			c0.8,0,1.4-0.3,1.8-0.9s0.6-1.6,0.6-2.9V99.5z"/>
	</g>
</g>
<g>
	<g class="st1">
		<path class="st2" d="M827.3,107.2h-1.6V96.4l-3.3,1.2v-1.5l4.7-1.8h0.3V107.2z"/>
	</g>
</g>
<g>
	<g class="st1">
		<path class="st2" d="M866,101.8c0,1.9-0.3,3.3-1,4.2s-1.7,1.4-3.1,1.4c-1.4,0-2.4-0.5-3-1.4c-0.7-0.9-1-2.3-1-4.1v-2.2
			c0-1.9,0.3-3.3,1-4.2s1.7-1.4,3.1-1.4c1.4,0,2.4,0.4,3,1.3c0.7,0.9,1,2.2,1,4.1V101.8z M864.4,99.5c0-1.4-0.2-2.4-0.6-3
			c-0.4-0.6-1-0.9-1.8-0.9c-0.8,0-1.4,0.3-1.8,0.9s-0.6,1.6-0.6,2.9v2.6c0,1.4,0.2,2.4,0.6,3.1c0.4,0.7,1,1,1.8,1
			c0.8,0,1.4-0.3,1.8-0.9s0.6-1.6,0.6-2.9V99.5z"/>
	</g>
</g>
<g>
	<g class="st1">
		<path class="st2" d="M899.3,107.2h-1.6V96.4l-3.3,1.2v-1.5l4.7-1.8h0.3V107.2z"/>
	</g>
</g>
<g>
	<g class="st1">
		<path class="st2" d="M938,101.8c0,1.9-0.3,3.3-1,4.2s-1.7,1.4-3.1,1.4c-1.4,0-2.4-0.5-3-1.4c-0.7-0.9-1-2.3-1-4.1v-2.2
			c0-1.9,0.3-3.3,1-4.2s1.7-1.4,3.1-1.4c1.4,0,2.4,0.4,3,1.3c0.7,0.9,1,2.2,1,4.1V101.8z M936.4,99.5c0-1.4-0.2-2.4-0.6-3
			c-0.4-0.6-1-0.9-1.8-0.9c-0.8,0-1.4,0.3-1.8,0.9s-0.6,1.6-0.6,2.9v2.6c0,1.4,0.2,2.4,0.6,3.1c0.4,0.7,1,1,1.8,1
			c0.8,0,1.4-0.3,1.8-0.9s0.6-1.6,0.6-2.9V99.5z"/>
	</g>
</g>
<g>
	<g class="st1">
		<path class="st2" d="M971.3,107.2h-1.6V96.4l-3.3,1.2v-1.5l4.7-1.8h0.3V107.2z"/>
	</g>
</g>
<g>
	<g class="st1">
		<path class="st2" d="M1010,101.8c0,1.9-0.3,3.3-1,4.2s-1.7,1.4-3.1,1.4c-1.4,0-2.4-0.5-3-1.4c-0.7-0.9-1-2.3-1-4.1v-2.2
			c0-1.9,0.3-3.3,1-4.2s1.7-1.4,3.1-1.4c1.4,0,2.4,0.4,3,1.3c0.7,0.9,1,2.2,1,4.1V101.8z M1008.4,99.5c0-1.4-0.2-2.4-0.6-3
			c-0.4-0.6-1-0.9-1.8-0.9c-0.8,0-1.4,0.3-1.8,0.9s-0.6,1.6-0.6,2.9v2.6c0,1.4,0.2,2.4,0.6,3.1c0.4,0.7,1,1,1.8,1
			c0.8,0,1.4-0.3,1.8-0.9s0.6-1.6,0.6-2.9V99.5z"/>
	</g>
</g>
</svg>
