<?xml version="1.0" encoding="UTF-8"?><svg xmlns="http://www.w3.org/2000/svg" viewBox="0 0 1080 600.48"><defs><style>.cls-1{stroke-width:1.07px;}.cls-1,.cls-2,.cls-3,.cls-4,.cls-5,.cls-6,.cls-7{fill:none;stroke:#1d1e1b;stroke-miterlimit:10;}.cls-8{fill:#fff;}.cls-9{fill:#1d1e1b;}.cls-2{stroke-dasharray:0 0 6.45 3.23;}.cls-2,.cls-5,.cls-6{stroke-width:.6px;}.cls-3{stroke-width:1.08px;}.cls-4{stroke-width:1.04px;}.cls-5{stroke-dasharray:0 0 6.08 3.04;}.cls-7{stroke-width:1.13px;}</style></defs><g id="TEXT_Vector"><g><path class="cls-9" d="m724.78,237.67l2.23-6.45h1.13l-2.9,7.82h-.91l-2.89-7.82h1.12l2.22,6.45Z"/><path class="cls-9" d="m734.88,236.56c-.1.83-.4,1.47-.92,1.92s-1.2.67-2.05.67c-.92,0-1.66-.33-2.22-.99-.56-.66-.84-1.55-.84-2.66v-.75c0-.73.13-1.37.39-1.92.26-.55.63-.97,1.1-1.27.48-.3,1.03-.44,1.65-.44.83,0,1.5.23,2,.7.5.46.79,1.11.88,1.93h-1.04c-.09-.62-.28-1.08-.58-1.36-.3-.28-.72-.42-1.25-.42-.66,0-1.18.24-1.55.73s-.56,1.18-.56,2.08v.76c0,.85.18,1.52.53,2.03.36.5.85.75,1.49.75.57,0,1.01-.13,1.32-.39.31-.26.51-.71.61-1.36h1.04Z"/><path class="cls-9" d="m742.3,235.38c0,.77-.13,1.44-.39,2.01s-.62,1.01-1.1,1.31-1.02.45-1.65.45-1.16-.15-1.64-.45-.85-.73-1.11-1.29c-.26-.56-.4-1.21-.41-1.95v-.56c0-.75.13-1.42.39-1.99.26-.58.63-1.02,1.11-1.32.48-.31,1.03-.46,1.64-.46s1.18.15,1.66.45c.48.3.85.74,1.1,1.32.26.58.39,1.24.39,2.01v.49Zm-1.03-.5c0-.93-.19-1.64-.56-2.14s-.89-.74-1.56-.74-1.16.25-1.54.74-.57,1.18-.58,2.07v.57c0,.9.19,1.61.57,2.12s.9.77,1.56.77,1.18-.24,1.55-.73.55-1.18.56-2.09v-.58Z"/><path class="cls-9" d="m747.68,239.04h-1.03v-7.82h1.03v7.82Z"/><path class="cls-9" d="m750.34,233.23l.03.73c.44-.56,1.02-.84,1.74-.84,1.23,0,1.85.69,1.86,2.08v3.84h-.99v-3.85c0-.42-.1-.73-.29-.93-.19-.2-.48-.3-.88-.3-.32,0-.61.09-.85.26-.24.17-.43.4-.57.68v4.14h-.99v-5.81h.94Z"/><path class="cls-9" d="m760.38,236.2c0,.88-.2,1.6-.61,2.14-.41.54-.95.81-1.64.81s-1.26-.22-1.66-.67v2.8h-.99v-8.05h.91l.05.64c.4-.5.97-.75,1.69-.75s1.25.26,1.66.79c.41.53.61,1.26.61,2.2v.09Zm-.99-.11c0-.66-.14-1.17-.42-1.55-.28-.38-.66-.57-1.15-.57-.6,0-1.05.27-1.35.8v2.78c.3.53.75.79,1.36.79.48,0,.86-.19,1.14-.57s.42-.94.42-1.68Z"/><path class="cls-9" d="m765.23,238.47c-.39.45-.95.68-1.7.68-.62,0-1.09-.18-1.42-.54-.32-.36-.49-.89-.49-1.6v-3.78h.99v3.75c0,.88.36,1.32,1.07,1.32.76,0,1.26-.28,1.51-.85v-4.23h.99v5.81h-.95l-.02-.57Z"/><path class="cls-9" d="m769.06,231.82v1.41h1.09v.77h-1.09v3.61c0,.23.05.41.15.52.1.12.26.17.49.17.11,0,.27-.02.47-.06v.8c-.26.07-.52.11-.76.11-.44,0-.78-.13-1-.4-.23-.27-.34-.65-.34-1.14v-3.6h-1.06v-.77h1.06v-1.41h.99Z"/></g><g><path class="cls-9" d="m839.5,154.15l2.23-6.45h1.13l-2.9,7.82h-.91l-2.89-7.82h1.12l2.22,6.45Z"/><path class="cls-9" d="m843.91,155.52v-7.82h2.21c.68,0,1.28.15,1.8.45s.93.73,1.21,1.28c.29.56.43,1.19.43,1.91v.5c0,.74-.14,1.38-.43,1.94-.29.55-.69.98-1.22,1.28-.53.3-1.14.45-1.84.46h-2.16Zm1.03-6.98v6.13h1.08c.79,0,1.41-.25,1.86-.74.44-.5.66-1.2.66-2.11v-.46c0-.89-.21-1.58-.63-2.07-.42-.49-1.01-.74-1.77-.75h-1.2Z"/><path class="cls-9" d="m851.13,155.52v-7.82h2.21c.68,0,1.28.15,1.8.45s.93.73,1.21,1.28c.29.56.43,1.19.43,1.91v.5c0,.74-.14,1.38-.43,1.94-.29.55-.69.98-1.22,1.28-.53.3-1.14.45-1.84.46h-2.16Zm1.03-6.98v6.13h1.08c.79,0,1.41-.25,1.86-.74.44-.5.66-1.2.66-2.11v-.46c0-.89-.21-1.58-.63-2.07-.42-.49-1.01-.74-1.77-.75h-1.2Z"/></g><g><path class="cls-9" d="m881.48,328.32h-1v-6.62l-2,.74v-.9l2.85-1.07h.16v7.86Z"/><path class="cls-9" d="m887.66,328.32h-1v-6.62l-2,.74v-.9l2.85-1.07h.16v7.86Z"/></g><g><path class="cls-9" d="m946.26,319.4h-1.84v3.16h-1.04v-7.82h2.59c.88,0,1.56.2,2.03.6s.71.98.71,1.75c0,.49-.13.91-.4,1.27-.26.36-.63.63-1.1.81l1.84,3.32v.06h-1.11l-1.7-3.16Zm-1.84-.84h1.58c.51,0,.92-.13,1.22-.4s.45-.62.45-1.07c0-.48-.14-.86-.43-1.11-.29-.26-.7-.39-1.25-.39h-1.58v2.97Z"/><path class="cls-9" d="m954.1,319.93h1.08v.81h-1.08v1.82h-1v-1.82h-3.56v-.58l3.5-5.42h1.06v5.19Zm-3.43,0h2.43v-3.83l-.12.21-2.32,3.62Z"/></g><path class="cls-9" d="m783.23,305.7v.84h-.18c-.77.01-1.39.24-1.85.69-.46.44-.72,1.07-.79,1.88.41-.47.97-.71,1.69-.71s1.22.24,1.63.72c.41.48.61,1.1.61,1.86,0,.8-.22,1.45-.66,1.93-.44.48-1.03.72-1.76.72s-1.36-.29-1.82-.86c-.47-.57-.7-1.31-.7-2.22v-.38c0-1.44.31-2.54.92-3.3s1.53-1.15,2.74-1.17h.18Zm-1.3,3.52c-.34,0-.65.1-.94.31-.29.2-.49.46-.6.77v.37c0,.64.15,1.16.43,1.56.29.39.65.59,1.09.59s.8-.16,1.05-.49c.26-.33.38-.76.38-1.29s-.13-.97-.39-1.3-.6-.5-1.03-.5Z"/><path class="cls-9" d="m784.32,364.26l-3.24,7.26h-1.04l3.23-7h-4.23v-.82h5.29v.56Z"/><path class="cls-9" d="m783.14,238.09c-.21.25-.46.45-.74.6s-.6.23-.95.23c-.45,0-.84-.11-1.18-.33-.33-.22-.59-.53-.78-.94-.18-.4-.27-.85-.27-1.33,0-.52.1-.99.3-1.41.2-.42.48-.74.85-.96s.79-.33,1.28-.33c.77,0,1.38.29,1.83.87.45.58.67,1.37.67,2.37v.29c0,1.52-.3,2.63-.9,3.33s-1.51,1.06-2.72,1.08h-.19v-.84h.21c.82-.01,1.45-.23,1.89-.64s.68-1.07.72-1.96Zm-1.53,0c.33,0,.64-.1.92-.31.28-.2.49-.46.61-.76v-.4c0-.65-.14-1.18-.42-1.59s-.64-.61-1.07-.61-.79.17-1.05.5-.4.78-.4,1.32.13.97.38,1.32.6.52,1.03.52Z"/><g><path class="cls-9" d="m881.48,297.69h-1v-6.62l-2,.74v-.9l2.85-1.07h.16v7.86Z"/><path class="cls-9" d="m889.52,297.69h-5.12v-.71l2.71-3.01c.4-.45.68-.82.83-1.11.15-.29.23-.58.23-.88,0-.41-.12-.74-.37-1-.25-.26-.58-.39-.99-.39-.49,0-.88.14-1.15.42-.27.28-.41.67-.41,1.17h-.99c0-.72.23-1.3.7-1.75s1.08-.67,1.86-.67c.73,0,1.3.19,1.72.57.42.38.63.89.63,1.52,0,.77-.49,1.69-1.47,2.75l-2.09,2.27h3.93v.81Z"/></g><g><path class="cls-9" d="m838.7,184.32h-1v-6.62l-2,.74v-.9l2.85-1.07h.16v7.86Z"/><path class="cls-9" d="m845.51,176.49v.84h-.18c-.77.01-1.39.24-1.85.69-.46.44-.72,1.07-.79,1.88.41-.47.97-.71,1.69-.71s1.22.24,1.63.72c.41.48.61,1.1.61,1.86,0,.8-.22,1.45-.66,1.93-.44.48-1.03.72-1.76.72s-1.36-.29-1.82-.86c-.47-.57-.7-1.31-.7-2.22v-.38c0-1.44.31-2.54.92-3.3s1.53-1.15,2.74-1.17h.18Zm-1.3,3.52c-.34,0-.65.1-.94.31-.29.2-.49.46-.6.77v.37c0,.64.15,1.16.43,1.56.29.39.65.59,1.09.59s.8-.16,1.05-.49c.26-.33.38-.76.38-1.29s-.13-.97-.39-1.3-.6-.5-1.03-.5Z"/></g><g><path class="cls-9" d="m959.52,220.98c0,.77-.13,1.44-.39,2.01-.26.57-.62,1.01-1.1,1.31s-1.02.45-1.65.45-1.16-.15-1.64-.45-.85-.73-1.11-1.29c-.26-.56-.4-1.21-.41-1.95v-.56c0-.75.13-1.42.39-1.99.26-.58.63-1.02,1.11-1.32.48-.31,1.03-.46,1.64-.46s1.18.15,1.66.45c.48.3.85.74,1.1,1.32.26.58.39,1.24.39,2.01v.49Zm-1.03-.5c0-.93-.19-1.64-.56-2.14s-.89-.74-1.56-.74-1.16.25-1.54.74-.57,1.18-.58,2.07v.57c0,.9.19,1.61.57,2.12s.9.77,1.56.77,1.18-.24,1.55-.73.55-1.18.56-2.09v-.58Z"/><path class="cls-9" d="m964.5,224.07c-.39.45-.95.68-1.7.68-.62,0-1.09-.18-1.42-.54-.32-.36-.49-.89-.49-1.6v-3.78h.99v3.75c0,.88.36,1.32,1.07,1.32.76,0,1.26-.28,1.51-.85v-4.23h.99v5.81h-.95l-.02-.57Z"/><path class="cls-9" d="m968.32,217.42v1.41h1.09v.77h-1.09v3.61c0,.23.05.41.15.52.1.12.26.17.49.17.11,0,.27-.02.47-.06v.8c-.26.07-.52.11-.76.11-.44,0-.78-.13-1-.4-.23-.27-.34-.65-.34-1.14v-3.6h-1.06v-.77h1.06v-1.41h.99Z"/><path class="cls-9" d="m975.48,221.8c0,.88-.2,1.6-.61,2.14-.41.54-.95.81-1.64.81s-1.26-.22-1.66-.67v2.8h-.99v-8.05h.91l.05.64c.4-.5.97-.75,1.69-.75s1.25.26,1.66.79c.41.53.61,1.26.61,2.2v.09Zm-.99-.11c0-.66-.14-1.17-.42-1.55-.28-.38-.66-.57-1.15-.57-.6,0-1.05.27-1.35.8v2.78c.3.53.75.79,1.36.79.48,0,.86-.19,1.14-.57s.42-.94.42-1.68Z"/><path class="cls-9" d="m980.33,224.07c-.39.45-.95.68-1.7.68-.62,0-1.09-.18-1.42-.54-.32-.36-.49-.89-.49-1.6v-3.78h.99v3.75c0,.88.36,1.32,1.07,1.32.76,0,1.26-.28,1.51-.85v-4.23h.99v5.81h-.95l-.02-.57Z"/><path class="cls-9" d="m984.15,217.42v1.41h1.09v.77h-1.09v3.61c0,.23.05.41.15.52.1.12.26.17.49.17.11,0,.27-.02.47-.06v.8c-.26.07-.52.11-.76.11-.44,0-.78-.13-1-.4-.23-.27-.34-.65-.34-1.14v-3.6h-1.06v-.77h1.06v-1.41h.99Z"/></g><path class="cls-9" d="m888.59,224.89h1.08v.81h-1.08v1.82h-1v-1.82h-3.56v-.58l3.5-5.42h1.06v5.19Zm-3.43,0h2.43v-3.83l-.12.21-2.32,3.62Z"/><g><path class="cls-9" d="m801.68,352.8h-1v-6.62l-2,.74v-.9l2.85-1.07h.16v7.86Z"/><path class="cls-9" d="m804.66,354.36l-.56-.39c.34-.47.51-.95.53-1.45v-.9h.97v.78c0,.36-.09.72-.27,1.08-.18.36-.4.65-.67.87Z"/><path class="cls-9" d="m814.59,352.8h-5.12v-.71l2.71-3.01c.4-.45.68-.82.83-1.11.15-.29.23-.58.23-.88,0-.41-.12-.74-.37-1-.25-.26-.58-.39-.99-.39-.49,0-.88.14-1.15.42-.27.28-.41.67-.41,1.17h-.99c0-.72.23-1.3.7-1.75s1.08-.67,1.86-.67c.73,0,1.3.19,1.72.57.42.38.63.89.63,1.52,0,.77-.49,1.69-1.47,2.75l-2.09,2.27h3.93v.81Z"/><path class="cls-9" d="m815.72,354.36l-.56-.39c.34-.47.51-.95.53-1.45v-.9h.97v.78c0,.36-.09.72-.27,1.08-.18.36-.4.65-.67.87Z"/><path class="cls-9" d="m821.97,348.41h.75c.47,0,.84-.13,1.11-.37.27-.24.4-.56.4-.97,0-.92-.46-1.38-1.37-1.38-.43,0-.77.12-1.03.37s-.38.57-.38.97h-.99c0-.62.23-1.13.68-1.54.45-.41,1.03-.62,1.73-.62.74,0,1.32.2,1.74.59.42.39.63.93.63,1.63,0,.34-.11.67-.33.99-.22.32-.52.56-.9.71.43.14.76.36,1,.68.23.32.35.7.35,1.16,0,.7-.23,1.26-.69,1.67-.46.41-1.05.62-1.79.62s-1.33-.2-1.79-.6c-.46-.4-.69-.92-.69-1.57h1c0,.41.13.74.4.99.27.25.63.37,1.08.37.48,0,.85-.13,1.1-.38.25-.25.38-.61.38-1.08s-.14-.8-.42-1.05c-.28-.24-.68-.37-1.21-.38h-.75v-.81Z"/><path class="cls-9" d="m826.78,354.36l-.56-.39c.34-.47.51-.95.53-1.45v-.9h.97v.78c0,.36-.09.72-.27,1.08-.18.36-.4.65-.67.87Z"/><path class="cls-9" d="m834.85,352.8h-1v-6.62l-2,.74v-.9l2.85-1.07h.16v7.86Z"/><path class="cls-9" d="m842.67,349.46c0,1.16-.2,2.03-.6,2.59-.4.57-1.02.85-1.86.85s-1.45-.28-1.85-.83c-.4-.55-.61-1.38-.62-2.48v-1.33c0-1.15.2-2,.6-2.56s1.02-.84,1.87-.84,1.46.27,1.86.81.6,1.37.61,2.49v1.29Zm-.99-1.36c0-.84-.12-1.46-.36-1.84s-.61-.58-1.12-.58-.88.19-1.11.57c-.23.38-.35.97-.36,1.77v1.59c0,.84.12,1.47.37,1.87.25.4.62.6,1.11.6s.85-.19,1.09-.57c.24-.38.36-.98.37-1.79v-1.63Z"/><path class="cls-9" d="m844.01,354.36l-.56-.39c.34-.47.51-.95.53-1.45v-.9h.97v.78c0,.36-.09.72-.27,1.08-.18.36-.4.65-.67.87Z"/><path class="cls-9" d="m801.68,366h-1v-6.62l-2,.74v-.9l2.85-1.07h.16v7.86Z"/><path class="cls-9" d="m806.03,361.61h.75c.47,0,.84-.13,1.11-.37.27-.24.4-.56.4-.97,0-.92-.46-1.38-1.37-1.38-.43,0-.77.12-1.03.37s-.38.57-.38.97h-.99c0-.62.23-1.13.68-1.54s1.03-.62,1.73-.62c.74,0,1.32.2,1.74.59.42.39.63.93.63,1.63,0,.34-.11.67-.33.99-.22.32-.52.56-.9.71.43.14.76.36,1,.68.23.32.35.7.35,1.16,0,.7-.23,1.26-.69,1.67-.46.41-1.05.62-1.79.62s-1.33-.2-1.79-.6c-.46-.4-.69-.92-.69-1.57h1c0,.41.13.74.4.99.27.25.63.37,1.08.37.48,0,.85-.13,1.1-.38.25-.25.38-.61.38-1.08s-.14-.8-.42-1.05c-.28-.24-.68-.37-1.21-.38h-.75v-.81Z"/><path class="cls-9" d="m810.83,367.56l-.56-.39c.34-.47.51-.95.53-1.45v-.9h.97v.78c0,.36-.09.72-.27,1.08-.18.36-.4.65-.67.87Z"/><path class="cls-9" d="m818.91,366h-1v-6.62l-2,.74v-.9l2.85-1.07h.16v7.86Z"/><path class="cls-9" d="m826.02,363.37h1.08v.81h-1.08v1.82h-1v-1.82h-3.56v-.58l3.5-5.42h1.06v5.19Zm-3.43,0h2.43v-3.83l-.12.21-2.32,3.62Z"/><path class="cls-9" d="m828.07,367.56l-.56-.39c.34-.47.51-.95.53-1.45v-.9h.97v.78c0,.36-.09.72-.27,1.08-.18.36-.4.65-.67.87Z"/><path class="cls-9" d="m836.15,366h-1v-6.62l-2,.74v-.9l2.85-1.07h.16v7.86Z"/><path class="cls-9" d="m839.52,362.08l.4-3.9h4.01v.92h-3.16l-.24,2.13c.38-.23.82-.34,1.3-.34.71,0,1.28.24,1.7.71s.63,1.11.63,1.91-.22,1.44-.65,1.9c-.43.46-1.04.7-1.82.7-.69,0-1.25-.19-1.69-.57-.44-.38-.69-.91-.75-1.59h.94c.06.45.22.78.48,1.01s.6.34,1.02.34c.46,0,.82-.16,1.09-.47.26-.32.39-.75.39-1.31,0-.52-.14-.94-.43-1.26-.29-.32-.66-.48-1.14-.48-.43,0-.77.1-1.02.29l-.26.21-.79-.2Z"/><path class="cls-9" d="m799.45,373.39l.03.73c.44-.56,1.02-.84,1.74-.84,1.23,0,1.85.69,1.86,2.08v3.84h-.99v-3.85c0-.42-.1-.73-.29-.93-.19-.2-.48-.3-.88-.3-.32,0-.61.09-.85.26-.24.17-.43.4-.57.68v4.14h-.99v-5.81h.94Z"/><path class="cls-9" d="m804.32,376.24c0-.57.11-1.08.34-1.54.22-.45.54-.8.93-1.05.4-.25.86-.37,1.37-.37.79,0,1.43.27,1.92.82.49.55.73,1.28.73,2.19v.07c0,.57-.11,1.07-.33,1.52s-.53.8-.93,1.05c-.4.25-.87.38-1.39.38-.79,0-1.43-.27-1.92-.82-.49-.55-.73-1.27-.73-2.17v-.07Zm1,.12c0,.64.15,1.16.45,1.55s.7.59,1.2.59.91-.2,1.2-.59.45-.95.45-1.66c0-.64-.15-1.15-.45-1.55s-.71-.59-1.21-.59-.89.2-1.19.58c-.3.39-.45.95-.45,1.68Z"/><path class="cls-9" d="m812.2,371.98v1.41h1.09v.77h-1.09v3.61c0,.23.05.41.15.52.1.12.26.17.49.17.11,0,.27-.02.47-.06v.8c-.26.07-.52.11-.76.11-.44,0-.78-.13-1-.4-.23-.27-.34-.65-.34-1.14v-3.6h-1.06v-.77h1.06v-1.41h.99Z"/><path class="cls-9" d="m820.76,378.63c-.39.45-.95.68-1.7.68-.62,0-1.09-.18-1.42-.54-.32-.36-.49-.89-.49-1.6v-3.78h.99v3.75c0,.88.36,1.32,1.07,1.32.76,0,1.26-.28,1.51-.85v-4.23h.99v5.81h-.95l-.02-.57Z"/><path class="cls-9" d="m826.62,377.66c0-.27-.1-.48-.3-.63s-.55-.28-1.06-.38-.9-.24-1.2-.39c-.29-.15-.51-.33-.66-.54-.14-.21-.21-.46-.21-.74,0-.48.2-.88.6-1.21.4-.33.92-.49,1.54-.49.66,0,1.19.17,1.6.51.41.34.62.77.62,1.3h-1c0-.27-.12-.51-.35-.7-.23-.2-.52-.3-.87-.3s-.64.08-.85.24-.31.36-.31.62c0,.24.09.42.28.54s.53.24,1.03.35c.5.11.9.24,1.21.4.31.15.54.34.68.56s.22.48.22.79c0,.52-.21.94-.62,1.25-.42.31-.95.47-1.62.47-.47,0-.88-.08-1.24-.25s-.64-.39-.84-.69c-.2-.29-.3-.62-.3-.96h.99c.02.33.15.6.4.79s.58.29.99.29c.38,0,.68-.08.91-.23s.34-.36.34-.61Z"/><path class="cls-9" d="m831.32,379.31c-.79,0-1.43-.26-1.92-.78s-.74-1.21-.74-2.08v-.18c0-.58.11-1.09.33-1.54.22-.45.53-.81.92-1.06s.82-.38,1.29-.38c.76,0,1.34.25,1.76.75.42.5.63,1.21.63,2.14v.41h-3.94c.01.57.18,1.04.5,1.39s.73.53,1.22.53c.35,0,.65-.07.89-.21.24-.14.46-.33.64-.57l.61.47c-.49.75-1.22,1.12-2.19,1.12Zm-.12-5.21c-.4,0-.74.15-1.01.44s-.44.7-.5,1.23h2.91v-.08c-.03-.5-.17-.9-.41-1.17s-.57-.42-.99-.42Z"/><path class="cls-9" d="m834.49,376.25c0-.89.21-1.61.63-2.15.42-.54.98-.81,1.66-.81s1.22.23,1.62.7v-3.03h.99v8.25h-.91l-.05-.62c-.4.49-.95.73-1.66.73s-1.22-.28-1.65-.83c-.42-.55-.64-1.27-.64-2.16v-.08Zm.99.11c0,.66.14,1.17.41,1.55.27.37.65.56,1.13.56.63,0,1.09-.28,1.38-.85v-2.67c-.3-.55-.75-.82-1.37-.82-.49,0-.87.19-1.14.56s-.41.93-.41,1.67Z"/></g><g><path class="cls-9" d="m207.56,256.32h-1v-6.62l-2,.74v-.9l2.85-1.07h.16v7.86Z"/><path class="cls-9" d="m210.93,252.4l.4-3.9h4.01v.92h-3.16l-.24,2.13c.38-.23.82-.34,1.31-.34.71,0,1.28.24,1.7.71s.63,1.11.63,1.91-.22,1.44-.65,1.9c-.43.46-1.04.7-1.82.7-.69,0-1.25-.19-1.69-.57-.44-.38-.69-.91-.75-1.59h.94c.06.45.22.78.48,1.01s.6.34,1.02.34c.46,0,.82-.16,1.09-.47.26-.32.39-.75.39-1.31,0-.52-.14-.94-.43-1.26-.29-.32-.66-.48-1.14-.48-.43,0-.77.1-1.02.29l-.26.21-.79-.2Z"/></g><g><path class="cls-9" d="m207.56,211.68h-1v-6.62l-2,.74v-.9l2.85-1.07h.16v7.86Z"/><path class="cls-9" d="m214.67,209.05h1.08v.81h-1.08v1.82h-1v-1.82h-3.56v-.58l3.5-5.42h1.06v5.19Zm-3.43,0h2.43v-3.83l-.12.21-2.31,3.62Z"/></g><g><path class="cls-9" d="m207.56,342.72h-1v-6.62l-2,.74v-.9l2.85-1.07h.16v7.86Z"/><path class="cls-9" d="m211.92,338.33h.75c.47,0,.84-.13,1.11-.37.27-.24.4-.56.4-.97,0-.92-.46-1.38-1.37-1.38-.43,0-.77.12-1.03.37-.26.25-.38.57-.38.97h-.99c0-.62.23-1.13.68-1.54.45-.41,1.03-.62,1.73-.62.74,0,1.32.2,1.73.59.42.39.63.93.63,1.63,0,.34-.11.67-.33.99-.22.32-.52.56-.9.71.43.14.76.36,1,.68.23.32.35.7.35,1.16,0,.7-.23,1.26-.69,1.67-.46.41-1.05.62-1.79.62s-1.33-.2-1.79-.6c-.46-.4-.69-.92-.69-1.57h1c0,.41.13.74.4.99s.63.37,1.08.37c.48,0,.85-.13,1.1-.38.25-.25.38-.61.38-1.08s-.14-.8-.42-1.05c-.28-.24-.68-.37-1.21-.38h-.75v-.81Z"/></g><path class="cls-9" d="m327.92,198.72h-5.12v-.71l2.71-3.01c.4-.45.68-.82.83-1.11.15-.29.23-.58.23-.88,0-.41-.12-.74-.37-1-.25-.26-.58-.39-.99-.39-.49,0-.88.14-1.15.42-.27.28-.41.67-.41,1.17h-.99c0-.72.23-1.3.7-1.75.46-.44,1.08-.67,1.86-.67.73,0,1.3.19,1.72.57.42.38.63.89.63,1.52,0,.77-.49,1.69-1.47,2.75l-2.09,2.27h3.93v.81Z"/><path class="cls-9" d="m327.5,213.12h-1v-6.62l-2,.74v-.9l2.85-1.07h.16v7.86Z"/><path class="cls-9" d="m324.74,223.67h.65c.41,0,.73-.11.97-.33.24-.21.35-.49.35-.85,0-.8-.4-1.21-1.2-1.21-.38,0-.68.11-.9.32s-.34.5-.34.85h-.87c0-.54.2-.99.6-1.35.4-.36.9-.54,1.51-.54.65,0,1.15.17,1.52.51.37.34.55.82.55,1.43,0,.3-.1.59-.29.87-.19.28-.46.49-.79.63.38.12.67.32.87.59.21.28.31.61.31,1.01,0,.62-.2,1.1-.6,1.46s-.92.54-1.57.54-1.17-.17-1.57-.52-.6-.81-.6-1.38h.88c0,.36.12.65.35.87.24.22.55.33.95.33.42,0,.74-.11.97-.33.22-.22.33-.54.33-.95s-.12-.71-.37-.92c-.25-.21-.6-.32-1.06-.33h-.65v-.71Z"/><path class="cls-9" d="m327.9,235.55l-2.84,6.37h-.91l2.83-6.14h-3.71v-.72h4.63v.49Z"/><g><path class="cls-9" d="m321.32,256.32h-1v-6.62l-2,.74v-.9l2.85-1.07h.16v7.86Z"/><path class="cls-9" d="m327.5,256.32h-1v-6.62l-2,.74v-.9l2.85-1.07h.16v7.86Z"/></g><path class="cls-9" d="m326.99,268.09h1.08v.81h-1.08v1.82h-1v-1.82h-3.56v-.58l3.5-5.42h1.06v5.19Zm-3.43,0h2.43v-3.83l-.12.21-2.31,3.62Z"/><path class="cls-9" d="m323.25,281.2l.4-3.9h4.01v.92h-3.16l-.24,2.13c.38-.23.82-.34,1.31-.34.71,0,1.28.24,1.7.71s.63,1.11.63,1.91-.22,1.44-.65,1.9c-.43.46-1.04.7-1.82.7-.69,0-1.25-.19-1.69-.57-.44-.38-.69-.91-.75-1.59h.94c.06.45.22.78.48,1.01s.6.34,1.02.34c.46,0,.82-.16,1.09-.47.26-.32.39-.75.39-1.31,0-.52-.14-.94-.43-1.26-.29-.32-.66-.48-1.14-.48-.43,0-.77.1-1.02.29l-.26.21-.79-.2Z"/><g><path class="cls-9" d="m319.88,299.52h-1v-6.62l-2,.74v-.9l2.85-1.07h.16v7.86Z"/><path class="cls-9" d="m327.7,296.18c0,1.16-.2,2.03-.6,2.59s-1.02.85-1.86.85-1.45-.28-1.85-.83c-.4-.55-.61-1.38-.62-2.48v-1.33c0-1.15.2-2,.6-2.56s1.02-.84,1.87-.84,1.46.27,1.86.81.6,1.37.61,2.49v1.29Zm-.99-1.36c0-.84-.12-1.46-.35-1.84s-.61-.58-1.12-.58-.88.19-1.11.57c-.23.38-.35.97-.36,1.77v1.59c0,.84.12,1.47.37,1.87.25.4.62.6,1.11.6s.85-.19,1.09-.57c.24-.38.36-.98.37-1.79v-1.63Z"/></g><g><path class="cls-9" d="m320.3,371.52h-1v-6.62l-2,.74v-.9l2.85-1.07h.16v7.86Z"/><path class="cls-9" d="m328.33,371.52h-5.12v-.71l2.71-3.01c.4-.45.68-.82.83-1.11.15-.29.23-.58.23-.88,0-.41-.12-.74-.37-1-.25-.26-.58-.39-.99-.39-.49,0-.88.14-1.15.42-.27.28-.41.67-.41,1.17h-.99c0-.72.23-1.3.7-1.75.46-.44,1.08-.67,1.86-.67.73,0,1.3.19,1.72.57.42.38.63.89.63,1.52,0,.77-.49,1.69-1.47,2.75l-2.09,2.27h3.93v.81Z"/></g><g><path class="cls-9" d="m125.65,308.17c-.1.83-.4,1.47-.92,1.92-.51.45-1.2.67-2.05.67-.92,0-1.66-.33-2.22-.99-.56-.66-.84-1.55-.84-2.66v-.75c0-.73.13-1.37.39-1.92.26-.55.63-.97,1.1-1.27.48-.3,1.03-.44,1.65-.44.83,0,1.5.23,2,.7s.79,1.11.88,1.93h-1.04c-.09-.62-.28-1.08-.58-1.36-.3-.28-.72-.42-1.25-.42-.66,0-1.18.24-1.55.73-.37.49-.56,1.18-.56,2.08v.76c0,.85.18,1.52.53,2.03s.85.75,1.49.75c.57,0,1.01-.13,1.32-.39.31-.26.51-.71.61-1.36h1.04Z"/><path class="cls-9" d="m127.98,310.65h-.99v-8.25h.99v8.25Z"/><path class="cls-9" d="m129.31,307.69c0-.57.11-1.08.34-1.54.22-.45.54-.8.93-1.05.4-.25.85-.37,1.37-.37.79,0,1.43.27,1.92.82.49.55.73,1.28.73,2.19v.07c0,.57-.11,1.07-.33,1.52-.22.45-.53.8-.93,1.05-.4.25-.87.38-1.39.38-.79,0-1.43-.27-1.92-.82-.49-.55-.73-1.27-.73-2.17v-.07Zm1,.12c0,.64.15,1.16.45,1.55.3.39.7.59,1.2.59s.91-.2,1.2-.59.45-.95.45-1.66c0-.64-.15-1.15-.45-1.55-.3-.4-.7-.59-1.21-.59s-.89.2-1.19.58c-.3.39-.45.95-.45,1.68Z"/><path class="cls-9" d="m138.18,309.95c.35,0,.66-.11.93-.32s.41-.48.44-.81h.94c-.02.33-.13.65-.34.95s-.49.54-.85.72c-.35.18-.73.27-1.12.27-.79,0-1.42-.26-1.89-.79-.47-.53-.7-1.25-.7-2.17v-.17c0-.57.1-1.07.31-1.51.21-.44.51-.78.89-1.03.39-.24.85-.37,1.38-.37.65,0,1.19.2,1.62.58.43.39.66.9.69,1.52h-.94c-.03-.38-.17-.68-.43-.93-.26-.24-.57-.36-.95-.36-.5,0-.9.18-1.17.54-.28.36-.42.89-.42,1.58v.19c0,.67.14,1.19.41,1.55s.67.54,1.18.54Z"/><path class="cls-9" d="m143.23,307.96l-.62.65v2.04h-.99v-8.25h.99v4.99l.53-.64,1.81-1.91h1.21l-2.26,2.43,2.52,3.38h-1.17l-2.02-2.69Z"/><path class="cls-9" d="m121.01,323.85h-1.03v-7.82h1.03v7.82Z"/><path class="cls-9" d="m123.68,318.04l.03.73c.44-.56,1.02-.84,1.74-.84,1.23,0,1.85.69,1.86,2.08v3.84h-.99v-3.85c0-.42-.1-.73-.29-.93-.19-.2-.48-.3-.88-.3-.32,0-.6.09-.85.26s-.43.4-.57.68v4.14h-.99v-5.81h.94Z"/><path class="cls-9" d="m129.8,318.74c.44-.54,1.01-.81,1.72-.81,1.23,0,1.85.69,1.86,2.08v3.84h-.99v-3.85c0-.42-.1-.73-.29-.93-.19-.2-.48-.3-.88-.3-.32,0-.6.09-.85.26s-.43.4-.57.68v4.14h-.99v-8.25h.99v3.14Z"/><path class="cls-9" d="m134.87,316.5c0-.16.05-.3.15-.41.1-.11.24-.17.44-.17s.34.06.44.17c.1.11.15.25.15.41s-.05.3-.15.4-.25.16-.44.16-.34-.05-.44-.16c-.1-.11-.15-.24-.15-.4Zm1.07,7.35h-.99v-5.81h.99v5.81Z"/><path class="cls-9" d="m142.45,321.01c0,.89-.2,1.6-.61,2.14s-.96.81-1.64.81c-.73,0-1.3-.26-1.7-.78l-.05.67h-.91v-8.25h.99v3.08c.4-.5.95-.75,1.66-.75s1.26.27,1.66.8c.4.53.6,1.26.6,2.19v.09Zm-.99-.11c0-.68-.13-1.2-.39-1.57s-.64-.55-1.13-.55c-.66,0-1.13.3-1.41.91v2.51c.3.61.78.91,1.42.91.48,0,.85-.18,1.11-.55s.4-.92.4-1.67Z"/><path class="cls-9" d="m143.71,316.5c0-.16.05-.3.15-.41.1-.11.24-.17.44-.17s.34.06.44.17c.1.11.15.25.15.41s-.05.3-.15.4-.25.16-.44.16-.34-.05-.44-.16c-.1-.11-.15-.24-.15-.4Zm1.07,7.35h-.99v-5.81h.99v5.81Z"/><path class="cls-9" d="m147.72,316.63v1.41h1.08v.77h-1.08v3.61c0,.23.05.41.15.52.1.12.26.17.49.17.11,0,.27-.02.47-.06v.8c-.26.07-.52.11-.76.11-.44,0-.78-.13-1-.4-.23-.27-.34-.65-.34-1.14v-3.6h-1.06v-.77h1.06v-1.41h.99Z"/></g><g><path class="cls-9" d="m115.18,234.51h-1.84v3.16h-1.04v-7.82h2.59c.88,0,1.56.2,2.03.6.47.4.71.98.71,1.75,0,.49-.13.91-.4,1.27-.26.36-.63.63-1.1.81l1.84,3.32v.06h-1.11l-1.7-3.16Zm-1.84-.84h1.58c.51,0,.92-.13,1.22-.4.3-.27.45-.62.45-1.07,0-.48-.14-.86-.43-1.11-.29-.26-.7-.39-1.25-.39h-1.58v2.97Z"/><path class="cls-9" d="m121.34,237.78c-.79,0-1.43-.26-1.92-.78s-.74-1.21-.74-2.08v-.18c0-.58.11-1.09.33-1.54.22-.45.53-.81.92-1.06.4-.26.82-.38,1.29-.38.76,0,1.34.25,1.76.75.42.5.63,1.21.63,2.14v.41h-3.94c.01.57.18,1.04.5,1.39.32.35.73.53,1.22.53.35,0,.65-.07.89-.21.24-.14.46-.33.64-.57l.61.47c-.49.75-1.22,1.12-2.19,1.12Zm-.12-5.21c-.4,0-.74.15-1.01.44s-.44.7-.5,1.23h2.91v-.08c-.03-.5-.16-.9-.41-1.17s-.57-.42-.99-.42Z"/><path class="cls-9" d="m128.14,236.13c0-.27-.1-.48-.3-.63-.2-.15-.55-.28-1.06-.38-.5-.11-.9-.24-1.2-.39-.29-.15-.51-.33-.66-.54-.14-.21-.21-.46-.21-.74,0-.48.2-.88.6-1.21.4-.33.92-.49,1.54-.49.66,0,1.19.17,1.6.51.41.34.61.77.61,1.3h-1c0-.27-.12-.51-.35-.7-.23-.2-.52-.3-.87-.3s-.64.08-.85.24-.31.36-.31.62c0,.24.09.42.28.54s.53.24,1.03.35c.5.11.9.24,1.21.4.31.15.54.34.68.56.15.22.22.48.22.79,0,.52-.21.94-.62,1.25s-.95.47-1.62.47c-.47,0-.88-.08-1.24-.25s-.64-.39-.84-.69c-.2-.29-.3-.62-.3-.96h.99c.02.33.15.6.4.79.25.2.58.29.99.29.38,0,.68-.08.91-.23.23-.15.34-.36.34-.61Z"/><path class="cls-9" d="m132.84,237.78c-.79,0-1.43-.26-1.92-.78s-.74-1.21-.74-2.08v-.18c0-.58.11-1.09.33-1.54.22-.45.53-.81.92-1.06.4-.26.82-.38,1.29-.38.76,0,1.34.25,1.76.75.42.5.63,1.21.63,2.14v.41h-3.94c.01.57.18,1.04.5,1.39.32.35.73.53,1.22.53.35,0,.65-.07.89-.21.24-.14.46-.33.64-.57l.61.47c-.49.75-1.22,1.12-2.19,1.12Zm-.12-5.21c-.4,0-.74.15-1.01.44s-.44.7-.5,1.23h2.91v-.08c-.03-.5-.16-.9-.41-1.17s-.57-.42-.99-.42Z"/><path class="cls-9" d="m137.61,230.45v1.41h1.08v.77h-1.08v3.61c0,.23.05.41.15.52.1.12.26.17.49.17.11,0,.27-.02.47-.06v.8c-.26.07-.52.11-.76.11-.44,0-.78-.13-1-.4-.23-.27-.34-.65-.34-1.14v-3.6h-1.06v-.77h1.06v-1.41h.99Z"/></g><g><path class="cls-9" d="m382.05,392.61c-.1.83-.4,1.47-.92,1.92-.51.45-1.2.67-2.05.67-.92,0-1.66-.33-2.22-.99-.56-.66-.84-1.55-.84-2.66v-.75c0-.73.13-1.37.39-1.92.26-.55.63-.97,1.1-1.27.48-.3,1.03-.44,1.65-.44.83,0,1.5.23,2,.7s.79,1.11.88,1.93h-1.04c-.09-.62-.28-1.08-.58-1.36-.3-.28-.72-.42-1.25-.42-.66,0-1.18.24-1.55.73-.37.49-.56,1.18-.56,2.08v.76c0,.85.18,1.52.53,2.03s.85.75,1.49.75c.57,0,1.01-.13,1.32-.39.31-.26.51-.71.61-1.36h1.04Z"/><path class="cls-9" d="m386.89,395.09c-.06-.11-.1-.32-.14-.61-.46.48-1.01.72-1.65.72-.57,0-1.04-.16-1.41-.49-.37-.32-.55-.73-.55-1.23,0-.61.23-1.08.69-1.41.46-.33,1.11-.5,1.94-.5h.97v-.46c0-.35-.1-.62-.31-.83s-.51-.31-.92-.31c-.35,0-.65.09-.89.27-.24.18-.36.4-.36.65h-1c0-.29.1-.57.31-.84.21-.27.48-.48.84-.64.35-.16.74-.24,1.16-.24.67,0,1.19.17,1.57.5s.58.8.59,1.38v2.67c0,.53.07.96.2,1.27v.09h-1.04Zm-1.65-.76c.31,0,.61-.08.89-.24s.48-.37.61-.63v-1.19h-.78c-1.22,0-1.83.36-1.83,1.07,0,.31.1.55.31.73s.47.26.8.26Z"/><path class="cls-9" d="m392.1,390.17c-.15-.03-.31-.04-.49-.04-.65,0-1.09.28-1.33.83v4.12h-.99v-5.81h.97l.02.67c.33-.52.79-.78,1.39-.78.19,0,.34.03.44.08v.92Z"/><path class="cls-9" d="m395.82,390.17c-.15-.03-.31-.04-.49-.04-.65,0-1.09.28-1.33.83v4.12h-.99v-5.81h.97l.02.67c.33-.52.79-.78,1.39-.78.19,0,.34.03.44.08v.92Z"/><path class="cls-9" d="m398.73,393.64l1.35-4.36h1.06l-2.34,6.71c-.36.97-.94,1.45-1.72,1.45l-.19-.02-.37-.07v-.81l.27.02c.34,0,.6-.07.79-.2.19-.14.34-.39.46-.75l.22-.59-2.07-5.75h1.08l1.45,4.36Z"/><path class="cls-9" d="m410.93,391.43c0,.77-.13,1.44-.39,2.01s-.62,1.01-1.1,1.31-1.02.45-1.65.45-1.16-.15-1.64-.45-.85-.73-1.11-1.29c-.26-.56-.4-1.21-.41-1.95v-.56c0-.75.13-1.42.39-1.99s.63-1.02,1.11-1.32c.48-.31,1.03-.46,1.64-.46s1.18.15,1.66.45c.48.3.85.74,1.1,1.32.26.58.39,1.24.39,2.01v.49Zm-1.03-.5c0-.93-.19-1.64-.56-2.14s-.89-.74-1.56-.74-1.16.25-1.54.74c-.37.5-.57,1.18-.58,2.07v.57c0,.9.19,1.61.57,2.12.38.51.9.77,1.56.77s1.18-.24,1.55-.73.55-1.18.56-2.09v-.58Z"/><path class="cls-9" d="m415.91,394.52c-.39.45-.95.68-1.7.68-.62,0-1.09-.18-1.42-.54-.32-.36-.49-.89-.49-1.6v-3.78h.99v3.75c0,.88.36,1.32,1.07,1.32.76,0,1.26-.28,1.51-.85v-4.23h.99v5.81h-.95l-.02-.57Z"/><path class="cls-9" d="m419.73,387.87v1.41h1.08v.77h-1.08v3.61c0,.23.05.41.15.52.1.12.26.17.49.17.11,0,.27-.02.47-.06v.8c-.26.07-.52.11-.76.11-.44,0-.78-.13-1-.4-.23-.27-.34-.65-.34-1.14v-3.6h-1.06v-.77h1.06v-1.41h.99Z"/></g><g><path class="cls-9" d="m277.9,154.15l2.23-6.45h1.13l-2.9,7.82h-.91l-2.9-7.82h1.12l2.22,6.45Z"/><path class="cls-9" d="m282.31,155.52v-7.82h2.21c.68,0,1.28.15,1.8.45s.93.73,1.21,1.28c.29.56.43,1.19.43,1.91v.5c0,.74-.14,1.38-.43,1.94-.29.55-.69.98-1.22,1.28-.53.3-1.14.45-1.84.46h-2.16Zm1.03-6.98v6.13h1.08c.79,0,1.41-.25,1.86-.74.44-.5.66-1.2.66-2.11v-.46c0-.89-.21-1.58-.63-2.07-.42-.49-1.01-.74-1.77-.75h-1.2Z"/><path class="cls-9" d="m289.53,155.52v-7.82h2.21c.68,0,1.28.15,1.8.45s.93.73,1.21,1.28c.29.56.43,1.19.43,1.91v.5c0,.74-.14,1.38-.43,1.94-.29.55-.69.98-1.22,1.28-.53.3-1.14.45-1.84.46h-2.16Zm1.03-6.98v6.13h1.08c.79,0,1.41-.25,1.86-.74.44-.5.66-1.2.66-2.11v-.46c0-.89-.21-1.58-.63-2.07-.42-.49-1.01-.74-1.77-.75h-1.2Z"/></g><g><path class="cls-9" d="m296.92,193.25l.57.39c-.33.45-.5.95-.52,1.47v.73h-.99v-.62c0-.37.09-.73.26-1.08.17-.36.4-.65.67-.88Zm1.69,0l.57.39c-.33.45-.5.95-.52,1.47v.73h-.99v-.62c0-.37.09-.73.26-1.08.17-.36.4-.65.67-.88Z"/><path class="cls-9" d="m304.87,198.26c0,1.16-.2,2.03-.6,2.59s-1.02.85-1.86.85-1.45-.28-1.85-.83c-.4-.55-.61-1.38-.62-2.48v-1.33c0-1.15.2-2,.6-2.56s1.02-.84,1.87-.84,1.46.27,1.86.81.6,1.37.61,2.49v1.29Zm-.99-1.36c0-.84-.12-1.46-.35-1.84s-.61-.58-1.12-.58-.88.19-1.11.57c-.23.38-.35.97-.36,1.77v1.59c0,.84.12,1.47.37,1.87.25.4.62.6,1.11.6s.85-.19,1.09-.57c.24-.38.36-.98.37-1.79v-1.63Z"/><path class="cls-9" d="m306.98,193.25l.57.39c-.33.45-.5.95-.52,1.47v.73h-.99v-.62c0-.37.09-.73.26-1.08.17-.36.4-.65.67-.88Zm1.69,0l.57.39c-.33.45-.5.95-.52,1.47v.73h-.99v-.62c0-.37.09-.73.26-1.08.17-.36.4-.65.67-.88Z"/></g><g><path class="cls-9" d="m296.92,207.65l.57.39c-.33.45-.5.95-.52,1.47v.73h-.99v-.62c0-.37.09-.73.26-1.08.17-.36.4-.65.67-.88Zm1.69,0l.57.39c-.33.45-.5.95-.52,1.47v.73h-.99v-.62c0-.37.09-.73.26-1.08.17-.36.4-.65.67-.88Z"/><path class="cls-9" d="m303.23,216h-1v-6.62l-2,.74v-.9l2.85-1.07h.16v7.86Z"/><path class="cls-9" d="m306.98,207.65l.57.39c-.33.45-.5.95-.52,1.47v.73h-.99v-.62c0-.37.09-.73.26-1.08.17-.36.4-.65.67-.88Zm1.69,0l.57.39c-.33.45-.5.95-.52,1.47v.73h-.99v-.62c0-.37.09-.73.26-1.08.17-.36.4-.65.67-.88Z"/></g><g><path class="cls-9" d="m296.92,222.05l.57.39c-.33.45-.5.95-.52,1.47v.73h-.99v-.62c0-.37.09-.73.26-1.08.17-.36.4-.65.67-.88Zm1.69,0l.57.39c-.33.45-.5.95-.52,1.47v.73h-.99v-.62c0-.37.09-.73.26-1.08.17-.36.4-.65.67-.88Z"/><path class="cls-9" d="m305.09,230.4h-5.12v-.71l2.71-3.01c.4-.45.68-.82.83-1.11.15-.29.23-.58.23-.88,0-.41-.12-.74-.37-1-.25-.26-.58-.39-.99-.39-.49,0-.88.14-1.15.42-.27.28-.41.67-.41,1.17h-.99c0-.72.23-1.3.7-1.75.46-.44,1.08-.67,1.86-.67.73,0,1.3.19,1.72.57.42.38.63.89.63,1.52,0,.77-.49,1.69-1.47,2.75l-2.09,2.27h3.93v.81Z"/><path class="cls-9" d="m306.98,222.05l.57.39c-.33.45-.5.95-.52,1.47v.73h-.99v-.62c0-.37.09-.73.26-1.08.17-.36.4-.65.67-.88Zm1.69,0l.57.39c-.33.45-.5.95-.52,1.47v.73h-.99v-.62c0-.37.09-.73.26-1.08.17-.36.4-.65.67-.88Z"/></g><g><path class="cls-9" d="m296.92,236.45l.57.39c-.33.45-.5.95-.52,1.47v.73h-.99v-.62c0-.37.09-.73.26-1.08.17-.36.4-.65.67-.88Zm1.69,0l.57.39c-.33.45-.5.95-.52,1.47v.73h-.99v-.62c0-.37.09-.73.26-1.08.17-.36.4-.65.67-.88Z"/><path class="cls-9" d="m301.41,240.41h.75c.47,0,.84-.13,1.11-.37.27-.24.4-.56.4-.97,0-.92-.46-1.38-1.37-1.38-.43,0-.77.12-1.03.37-.26.25-.38.57-.38.97h-.99c0-.62.23-1.13.68-1.54.45-.41,1.03-.62,1.73-.62.74,0,1.32.2,1.73.59.42.39.63.93.63,1.63,0,.34-.11.67-.33.99-.22.32-.52.56-.9.71.43.14.76.36,1,.68.23.32.35.7.35,1.16,0,.7-.23,1.26-.69,1.67-.46.41-1.05.62-1.79.62s-1.33-.2-1.79-.6c-.46-.4-.69-.92-.69-1.57h1c0,.41.13.74.4.99s.63.37,1.08.37c.48,0,.85-.13,1.1-.38.25-.25.38-.61.38-1.08s-.14-.8-.42-1.05c-.28-.24-.68-.37-1.21-.38h-.75v-.81Z"/><path class="cls-9" d="m306.98,236.45l.57.39c-.33.45-.5.95-.52,1.47v.73h-.99v-.62c0-.37.09-.73.26-1.08.17-.36.4-.65.67-.88Zm1.69,0l.57.39c-.33.45-.5.95-.52,1.47v.73h-.99v-.62c0-.37.09-.73.26-1.08.17-.36.4-.65.67-.88Z"/></g><g><path class="cls-9" d="m296.92,250.85l.57.39c-.33.45-.5.95-.52,1.47v.73h-.99v-.62c0-.37.09-.73.26-1.08.17-.36.4-.65.67-.88Zm1.69,0l.57.39c-.33.45-.5.95-.52,1.47v.73h-.99v-.62c0-.37.09-.73.26-1.08.17-.36.4-.65.67-.88Z"/><path class="cls-9" d="m304.16,256.57h1.08v.81h-1.08v1.82h-1v-1.82h-3.56v-.58l3.5-5.42h1.06v5.19Zm-3.43,0h2.43v-3.83l-.12.21-2.31,3.62Z"/><path class="cls-9" d="m306.98,250.85l.57.39c-.33.45-.5.95-.52,1.47v.73h-.99v-.62c0-.37.09-.73.26-1.08.17-.36.4-.65.67-.88Zm1.69,0l.57.39c-.33.45-.5.95-.52,1.47v.73h-.99v-.62c0-.37.09-.73.26-1.08.17-.36.4-.65.67-.88Z"/></g><g><path class="cls-9" d="m296.92,265.25l.57.39c-.33.45-.5.95-.52,1.47v.73h-.99v-.62c0-.37.09-.73.26-1.08.17-.36.4-.65.67-.88Zm1.69,0l.57.39c-.33.45-.5.95-.52,1.47v.73h-.99v-.62c0-.37.09-.73.26-1.08.17-.36.4-.65.67-.88Z"/><path class="cls-9" d="m300.42,269.68l.4-3.9h4.01v.92h-3.16l-.24,2.13c.38-.23.82-.34,1.31-.34.71,0,1.28.24,1.7.71s.63,1.11.63,1.91-.22,1.44-.65,1.9c-.43.46-1.04.7-1.82.7-.69,0-1.25-.19-1.69-.57-.44-.38-.69-.91-.75-1.59h.94c.06.45.22.78.48,1.01s.6.34,1.02.34c.46,0,.82-.16,1.09-.47.26-.32.39-.75.39-1.31,0-.52-.14-.94-.43-1.26-.29-.32-.66-.48-1.14-.48-.43,0-.77.1-1.02.29l-.26.21-.79-.2Z"/><path class="cls-9" d="m306.98,265.25l.57.39c-.33.45-.5.95-.52,1.47v.73h-.99v-.62c0-.37.09-.73.26-1.08.17-.36.4-.65.67-.88Zm1.69,0l.57.39c-.33.45-.5.95-.52,1.47v.73h-.99v-.62c0-.37.09-.73.26-1.08.17-.36.4-.65.67-.88Z"/></g><g><path class="cls-9" d="m296.92,279.65l.57.39c-.33.45-.5.95-.52,1.47v.73h-.99v-.62c0-.37.09-.73.26-1.08.17-.36.4-.65.67-.88Zm1.69,0l.57.39c-.33.45-.5.95-.52,1.47v.73h-.99v-.62c0-.37.09-.73.26-1.08.17-.36.4-.65.67-.88Z"/><path class="cls-9" d="m303.86,280.17v.84h-.18c-.77.01-1.39.24-1.85.69s-.72,1.07-.79,1.88c.41-.47.97-.71,1.69-.71s1.22.24,1.63.72c.41.48.61,1.1.61,1.86,0,.8-.22,1.45-.66,1.93-.44.48-1.03.72-1.76.72s-1.36-.29-1.82-.86c-.47-.57-.7-1.31-.7-2.22v-.38c0-1.44.31-2.54.92-3.3.61-.76,1.53-1.15,2.74-1.17h.18Zm-1.31,3.52c-.34,0-.65.1-.94.31s-.49.46-.6.77v.37c0,.64.15,1.16.44,1.56.29.39.65.59,1.08.59s.8-.16,1.06-.49c.26-.33.38-.76.38-1.29s-.13-.97-.39-1.3c-.26-.33-.6-.5-1.03-.5Z"/><path class="cls-9" d="m306.98,279.65l.57.39c-.33.45-.5.95-.52,1.47v.73h-.99v-.62c0-.37.09-.73.26-1.08.17-.36.4-.65.67-.88Zm1.69,0l.57.39c-.33.45-.5.95-.52,1.47v.73h-.99v-.62c0-.37.09-.73.26-1.08.17-.36.4-.65.67-.88Z"/></g><g><path class="cls-9" d="m296.92,294.05l.57.39c-.33.45-.5.95-.52,1.47v.73h-.99v-.62c0-.37.09-.73.26-1.08.17-.36.4-.65.67-.88Zm1.69,0l.57.39c-.33.45-.5.95-.52,1.47v.73h-.99v-.62c0-.37.09-.73.26-1.08.17-.36.4-.65.67-.88Z"/><path class="cls-9" d="m305.01,295.14l-3.24,7.26h-1.04l3.23-7h-4.23v-.82h5.29v.56Z"/><path class="cls-9" d="m306.98,294.05l.57.39c-.33.45-.5.95-.52,1.47v.73h-.99v-.62c0-.37.09-.73.26-1.08.17-.36.4-.65.67-.88Zm1.69,0l.57.39c-.33.45-.5.95-.52,1.47v.73h-.99v-.62c0-.37.09-.73.26-1.08.17-.36.4-.65.67-.88Z"/></g><g><path class="cls-9" d="m284.51,286.67c-.25.88-.57,1.53-.94,1.93-.37.4-.83.6-1.37.6-.62,0-1.13-.25-1.53-.74-.4-.49-.6-1.13-.6-1.92,0-.54.1-1.02.31-1.44s.49-.75.86-.98c.37-.23.76-.35,1.2-.35v1.04c-.47,0-.85.15-1.12.45-.27.3-.41.73-.41,1.27,0,.51.11.91.34,1.19.22.28.54.43.93.43.32,0,.59-.13.81-.41.22-.27.42-.73.61-1.38.18-.65.38-1.16.6-1.53.22-.37.48-.64.77-.82.29-.18.64-.27,1.04-.27.63,0,1.14.25,1.52.74.38.49.57,1.15.57,1.98,0,.54-.1,1.04-.31,1.5-.21.46-.49.82-.85,1.08-.36.25-.76.38-1.22.38v-1.04c.47,0,.85-.17,1.12-.52.27-.35.41-.82.41-1.4,0-.54-.11-.96-.33-1.25s-.52-.44-.91-.44-.68.13-.89.4c-.21.27-.42.76-.62,1.46Z"/><path class="cls-9" d="m288.11,280.2c0,.79-.26,1.43-.78,1.92-.52.49-1.21.74-2.08.74h-.18c-.58,0-1.09-.11-1.54-.33-.45-.22-.81-.53-1.06-.92-.26-.4-.38-.82-.38-1.29,0-.76.25-1.34.75-1.76s1.21-.63,2.14-.63h.41v3.94c.57-.01,1.04-.18,1.39-.5.35-.32.53-.73.53-1.22,0-.35-.07-.65-.21-.89-.14-.24-.33-.46-.57-.64l.47-.61c.75.49,1.12,1.22,1.12,2.19Zm-5.21.12c0,.4.15.74.44,1.01.29.27.7.44,1.23.5v-2.91h-.08c-.5.03-.9.17-1.17.41-.28.24-.42.57-.42.99Z"/><path class="cls-9" d="m285.05,277.02c-.91,0-1.64-.21-2.17-.63-.53-.42-.8-.98-.8-1.69s.23-1.23.69-1.63l-.59-.04v-.91h8.05v.99h-2.77c.43.4.64.93.64,1.6,0,.7-.27,1.26-.82,1.68-.55.42-1.27.63-2.17.63h-.07Zm.11-.99c.67,0,1.19-.14,1.57-.42s.57-.66.57-1.14c0-.59-.26-1.04-.78-1.35h-2.85c-.51.32-.77.76-.77,1.34,0,.48.19.86.57,1.14.38.28.94.42,1.69.42Z"/><path class="cls-9" d="m287.43,266.94c.45.39.68.95.68,1.7,0,.62-.18,1.09-.54,1.42-.36.32-.89.49-1.6.49h-3.78v-.99h3.75c.88,0,1.32-.36,1.32-1.07,0-.76-.28-1.26-.85-1.51h-4.23v-.99h5.81v.95l-.57.02Z"/><path class="cls-9" d="m288.11,262.05c0,.79-.26,1.43-.78,1.92-.52.49-1.21.74-2.08.74h-.18c-.58,0-1.09-.11-1.54-.33-.45-.22-.81-.53-1.06-.92-.26-.4-.38-.82-.38-1.29,0-.76.25-1.34.75-1.76s1.21-.63,2.14-.63h.41v3.94c.57-.01,1.04-.18,1.39-.5.35-.32.53-.73.53-1.22,0-.35-.07-.65-.21-.89-.14-.24-.33-.46-.57-.64l.47-.61c.75.49,1.12,1.22,1.12,2.19Zm-5.21.12c0,.4.15.74.44,1.01.29.27.7.44,1.23.5v-2.91h-.08c-.5.03-.9.17-1.17.41-.28.24-.42.57-.42.99Z"/><path class="cls-9" d="m282.19,257.7l.73-.03c-.56-.44-.84-1.02-.84-1.74,0-1.23.69-1.85,2.08-1.86h3.84v.99h-3.85c-.42,0-.73.1-.93.29-.2.19-.3.48-.3.88,0,.32.09.61.26.85.17.24.4.43.68.57h4.14v.99h-5.81v-.94Z"/><path class="cls-9" d="m287.3,250.24c0-.35-.11-.66-.32-.93-.21-.27-.48-.41-.81-.44v-.94c.33.02.65.13.95.34s.54.49.72.85.27.73.27,1.12c0,.79-.26,1.42-.79,1.89-.53.47-1.25.7-2.17.7h-.17c-.57,0-1.07-.1-1.51-.31s-.78-.51-1.03-.89-.37-.85-.37-1.38c0-.65.2-1.19.59-1.62s.9-.66,1.52-.69v.94c-.38.03-.68.17-.93.43-.24.26-.36.57-.36.95,0,.51.18.9.54,1.17.36.28.89.42,1.58.42h.19c.67,0,1.19-.14,1.55-.41s.54-.67.54-1.18Z"/><path class="cls-9" d="m288.11,244.4c0,.79-.26,1.43-.78,1.92-.52.49-1.21.74-2.08.74h-.18c-.58,0-1.09-.11-1.54-.33-.45-.22-.81-.53-1.06-.92-.26-.4-.38-.82-.38-1.29,0-.76.25-1.34.75-1.76s1.21-.63,2.14-.63h.41v3.94c.57-.01,1.04-.18,1.39-.5.35-.32.53-.73.53-1.22,0-.35-.07-.65-.21-.89-.14-.24-.33-.46-.57-.64l.47-.61c.75.49,1.12,1.22,1.12,2.19Zm-5.21.12c0,.4.15.74.44,1.01.29.27.7.44,1.23.5v-2.91h-.08c-.5.03-.9.17-1.17.41-.28.24-.42.57-.42.99Z"/><path class="cls-9" d="m283.08,238.17c-.02.15-.04.31-.04.49,0,.65.28,1.09.83,1.33h4.12v.99h-5.81v-.97l.67-.02c-.52-.33-.78-.79-.78-1.39,0-.19.02-.34.08-.44h.92Z"/><path class="cls-9" d="m286.46,231.15c-.27,0-.48.1-.63.3-.15.2-.28.55-.38,1.06s-.24.9-.39,1.2c-.15.29-.33.51-.54.66s-.45.21-.74.21c-.48,0-.88-.2-1.21-.6-.33-.4-.49-.92-.49-1.54,0-.66.17-1.19.51-1.6s.78-.62,1.31-.62v1c-.27,0-.51.12-.7.35-.2.23-.3.52-.3.87s.08.64.24.85.36.31.62.31c.24,0,.42-.09.54-.28s.24-.53.35-1.03.24-.9.4-1.21.34-.54.56-.68c.22-.15.48-.22.79-.22.52,0,.94.21,1.25.62.31.42.47.95.47,1.62,0,.47-.08.88-.25,1.24s-.39.64-.69.84c-.29.2-.61.3-.96.3v-.99c.33-.02.6-.15.79-.4.19-.25.29-.58.29-.99,0-.38-.08-.68-.23-.91-.15-.23-.36-.34-.61-.34Z"/><path class="cls-9" d="m280.78,227.52h1.41v-1.09h.77v1.09h3.61c.23,0,.41-.05.52-.15.12-.1.17-.26.17-.49,0-.11-.02-.27-.06-.47h.8c.07.26.11.52.11.76,0,.44-.13.78-.4,1-.27.23-.65.34-1.14.34h-3.6v1.06h-.77v-1.06h-1.41v-.99Z"/><path class="cls-9" d="m288.11,222.86c0,.79-.26,1.43-.78,1.92-.52.49-1.21.74-2.08.74h-.18c-.58,0-1.09-.11-1.54-.33-.45-.22-.81-.53-1.06-.92-.26-.4-.38-.82-.38-1.29,0-.76.25-1.34.75-1.76s1.21-.63,2.14-.63h.41v3.94c.57-.01,1.04-.18,1.39-.5.35-.32.53-.73.53-1.22,0-.35-.07-.65-.21-.89-.14-.24-.33-.46-.57-.64l.47-.61c.75.49,1.12,1.22,1.12,2.19Zm-5.21.12c0,.4.15.74.44,1.01.29.27.7.44,1.23.5v-2.91h-.08c-.5.03-.9.17-1.17.41-.28.24-.42.57-.42.99Z"/><path class="cls-9" d="m285.16,214.54c.88,0,1.6.2,2.14.61.54.41.81.95.81,1.64s-.22,1.26-.67,1.66h2.8v.99h-8.05v-.91l.64-.05c-.5-.4-.75-.97-.75-1.69s.26-1.25.79-1.66,1.26-.61,2.2-.61h.09Zm-.11.99c-.66,0-1.17.14-1.55.42s-.57.66-.57,1.15c0,.6.27,1.05.8,1.35h2.78c.53-.3.79-.75.79-1.36,0-.48-.19-.86-.57-1.14-.38-.28-.94-.42-1.68-.42Z"/><path class="cls-9" d="m286.46,209.89c-.27,0-.48.1-.63.3-.15.2-.28.55-.38,1.06s-.24.9-.39,1.2c-.15.29-.33.51-.54.66s-.45.21-.74.21c-.48,0-.88-.2-1.21-.6-.33-.4-.49-.92-.49-1.54,0-.66.17-1.19.51-1.6s.78-.62,1.31-.62v1c-.27,0-.51.12-.7.35-.2.23-.3.52-.3.87s.08.64.24.85.36.31.62.31c.24,0,.42-.09.54-.28s.24-.53.35-1.03.24-.9.4-1.21.34-.54.56-.68c.22-.15.48-.22.79-.22.52,0,.94.21,1.25.62.31.42.47.95.47,1.62,0,.47-.08.88-.25,1.24s-.39.64-.69.84c-.29.2-.61.3-.96.3v-.99c.33-.02.6-.15.79-.4.19-.25.29-.58.29-.99,0-.38-.08-.68-.23-.91-.15-.23-.36-.34-.61-.34Z"/></g><g><path class="cls-9" d="m260.07,184.35h-.88v-5.81l-1.76.64v-.79l2.5-.94h.14v6.89Z"/><path class="cls-9" d="m266.04,177.49v.74h-.16c-.68.01-1.22.21-1.62.6-.4.39-.63.94-.7,1.64.36-.42.85-.62,1.48-.62s1.07.21,1.43.63c.36.42.53.96.53,1.63,0,.71-.19,1.27-.58,1.7-.38.42-.9.64-1.55.64s-1.19-.25-1.6-.76-.61-1.15-.61-1.95v-.33c0-1.26.27-2.23.81-2.89.54-.67,1.34-1.01,2.4-1.02h.16Zm-1.14,3.09c-.3,0-.57.09-.82.27-.25.18-.43.4-.52.67v.32c0,.57.13,1.02.38,1.37.25.35.57.52.95.52s.7-.14.93-.43.34-.67.34-1.13-.11-.85-.34-1.14c-.23-.29-.53-.44-.91-.44Z"/></g><path class="cls-9" d="m267.44,393.33c0,.34-.09.65-.27.91-.18.27-.42.48-.73.63.36.15.64.38.85.67.21.3.31.63.31,1,0,.59-.2,1.07-.6,1.42s-.93.53-1.58.53-1.19-.18-1.58-.53c-.4-.35-.6-.83-.6-1.42,0-.37.1-.71.3-1,.2-.3.48-.52.84-.68-.3-.15-.54-.36-.72-.63-.18-.27-.26-.57-.26-.91,0-.58.19-1.04.56-1.38.37-.34.86-.51,1.46-.51s1.09.17,1.46.51c.37.34.56.8.56,1.38Zm-.71,3.2c0-.38-.12-.7-.37-.94-.24-.24-.56-.36-.95-.36s-.71.12-.94.36c-.24.24-.36.55-.36.94s.12.7.35.92c.23.22.55.33.96.33s.73-.11.96-.34c.23-.22.35-.53.35-.92Zm-1.31-4.37c-.34,0-.62.11-.83.32s-.32.5-.32.86.1.63.31.85.49.32.84.32.63-.11.84-.32c.21-.21.31-.5.31-.85s-.11-.63-.33-.85-.49-.33-.82-.33Z"/><g><path class="cls-9" d="m714.23,340.24c-.1.83-.4,1.47-.92,1.92s-1.2.67-2.05.67c-.92,0-1.66-.33-2.22-.99-.56-.66-.84-1.55-.84-2.66v-.75c0-.73.13-1.37.39-1.92.26-.55.63-.97,1.1-1.27.48-.3,1.03-.44,1.65-.44.83,0,1.5.23,2,.7.5.46.79,1.11.88,1.93h-1.04c-.09-.62-.28-1.08-.58-1.36s-.72-.42-1.25-.42c-.66,0-1.18.24-1.55.73s-.56,1.18-.56,2.08v.76c0,.85.18,1.52.53,2.03.36.5.85.75,1.49.75.57,0,1.01-.13,1.32-.39.31-.26.51-.71.61-1.36h1.04Z"/><path class="cls-9" d="m718.65,342.72h-1v-6.62l-2,.74v-.9l2.85-1.07h.16v7.86Z"/></g><g><path class="cls-9" d="m1026.9,353.96h-1.84v3.16h-1.04v-7.82h2.59c.88,0,1.56.2,2.03.6s.71.98.71,1.75c0,.49-.13.91-.4,1.27-.26.36-.63.63-1.1.81l1.84,3.32v.06h-1.11l-1.7-3.16Zm-1.84-.84h1.58c.51,0,.92-.13,1.22-.4s.45-.62.45-1.07c0-.48-.14-.86-.43-1.11-.29-.26-.7-.39-1.25-.39h-1.58v2.97Z"/><path class="cls-9" d="m1031.01,353.2l.4-3.9h4.01v.92h-3.16l-.24,2.13c.38-.23.82-.34,1.3-.34.71,0,1.28.24,1.7.71s.63,1.11.63,1.91-.22,1.44-.65,1.9c-.43.46-1.04.7-1.82.7-.69,0-1.25-.19-1.69-.57-.44-.38-.69-.91-.75-1.59h.94c.06.45.22.78.48,1.01s.6.34,1.02.34c.46,0,.82-.16,1.09-.47.26-.32.39-.75.39-1.31,0-.52-.14-.94-.43-1.26-.29-.32-.66-.48-1.14-.48-.43,0-.77.1-1.02.29l-.26.21-.79-.2Z"/></g><path class="cls-9" d="m884.85,367.6l.4-3.9h4.01v.92h-3.16l-.24,2.13c.38-.23.82-.34,1.3-.34.71,0,1.28.24,1.7.71s.63,1.11.63,1.91-.22,1.44-.65,1.9c-.43.46-1.04.7-1.82.7-.69,0-1.25-.19-1.69-.57-.44-.38-.69-.91-.75-1.59h.94c.06.45.22.78.48,1.01s.6.34,1.02.34c.46,0,.82-.16,1.09-.47.26-.32.39-.75.39-1.31,0-.52-.14-.94-.43-1.26-.29-.32-.66-.48-1.14-.48-.43,0-.77.1-1.02.29l-.26.21-.79-.2Z"/><g><path class="cls-9" d="m92.49,486.81l-1.62-.48.25-.81,1.62.6-.05-1.85h.82l-.05,1.87,1.6-.59.25.82-1.65.49,1.06,1.46-.67.5-1-1.55-.97,1.51-.67-.49,1.08-1.48Z"/><path class="cls-9" d="m97.4,489.03v3.06h-1.03v-7.82h2.88c.86,0,1.53.22,2.01.66.48.44.73,1.01.73,1.74,0,.76-.24,1.34-.71,1.75-.47.41-1.15.62-2.04.62h-1.84Zm0-.84h1.85c.55,0,.97-.13,1.27-.39s.44-.64.44-1.13-.15-.84-.44-1.12c-.29-.28-.7-.43-1.21-.44h-1.91v3.07Z"/><path class="cls-9" d="m106.74,491.52c-.39.45-.95.68-1.7.68-.62,0-1.09-.18-1.42-.54-.32-.36-.49-.89-.49-1.6v-3.78h.99v3.75c0,.88.36,1.32,1.07,1.32.76,0,1.26-.28,1.51-.85v-4.23h.99v5.81h-.95l-.02-.57Z"/><path class="cls-9" d="m110.29,492.09h-.99v-8.25h.99v8.25Z"/><path class="cls-9" d="m112.96,492.09h-.99v-8.25h.99v8.25Z"/><path class="cls-9" d="m117.03,489.14c0-.89.21-1.61.63-2.15.42-.54.98-.81,1.66-.81s1.22.23,1.62.7v-3.03h.99v8.25h-.91l-.05-.62c-.4.49-.95.73-1.66.73s-1.22-.28-1.65-.83c-.42-.55-.64-1.27-.64-2.16v-.08Zm.99.11c0,.66.14,1.17.41,1.55.27.37.65.56,1.13.56.63,0,1.09-.28,1.38-.85v-2.67c-.3-.55-.75-.82-1.37-.82-.49,0-.87.19-1.14.56s-.41.93-.41,1.67Z"/><path class="cls-9" d="m123.22,489.13c0-.57.11-1.08.34-1.54.22-.45.54-.8.93-1.05.4-.25.85-.37,1.37-.37.79,0,1.43.27,1.92.82.49.55.73,1.28.73,2.19v.07c0,.57-.11,1.07-.33,1.52-.22.45-.53.8-.93,1.05-.4.25-.87.38-1.39.38-.79,0-1.43-.27-1.92-.82-.49-.55-.73-1.27-.73-2.17v-.07Zm1,.12c0,.64.15,1.16.45,1.55.3.39.7.59,1.2.59s.91-.2,1.2-.59.45-.95.45-1.66c0-.64-.15-1.15-.45-1.55-.3-.4-.7-.59-1.21-.59s-.89.2-1.19.58c-.3.39-.45.95-.45,1.68Z"/><path class="cls-9" d="m134.9,490.72l1.12-4.44h.99l-1.69,5.81h-.81l-1.41-4.4-1.38,4.4h-.81l-1.69-5.81h.99l1.14,4.35,1.35-4.35h.8l1.38,4.44Z"/><path class="cls-9" d="m138.96,486.28l.03.73c.44-.56,1.02-.84,1.74-.84,1.23,0,1.85.69,1.86,2.08v3.84h-.99v-3.85c0-.42-.1-.73-.29-.93-.19-.2-.48-.3-.88-.3-.32,0-.6.09-.85.26s-.43.4-.57.68v4.14h-.99v-5.81h.94Z"/><path class="cls-9" d="m149.62,487.17c-.15-.03-.31-.04-.49-.04-.65,0-1.09.28-1.33.83v4.12h-.99v-5.81h.97l.02.67c.33-.52.79-.78,1.39-.78.19,0,.34.03.44.08v.92Z"/><path class="cls-9" d="m152.84,492.2c-.79,0-1.43-.26-1.92-.78s-.74-1.21-.74-2.08v-.18c0-.58.11-1.09.33-1.54.22-.45.53-.81.92-1.06.4-.26.82-.38,1.29-.38.76,0,1.34.25,1.76.75.42.5.63,1.21.63,2.14v.41h-3.94c.01.57.18,1.04.5,1.39.32.35.73.53,1.22.53.35,0,.65-.07.89-.21.24-.14.46-.33.64-.57l.61.47c-.49.75-1.22,1.12-2.19,1.12Zm-.12-5.21c-.4,0-.74.15-1.01.44s-.44.7-.5,1.23h2.91v-.08c-.03-.5-.16-.9-.41-1.17s-.57-.42-.99-.42Z"/><path class="cls-9" d="m159.64,490.55c0-.27-.1-.48-.3-.63-.2-.15-.55-.28-1.06-.38-.5-.11-.9-.24-1.2-.39-.29-.15-.51-.33-.66-.54-.14-.21-.21-.46-.21-.74,0-.48.2-.88.6-1.21.4-.33.92-.49,1.54-.49.66,0,1.19.17,1.6.51.41.34.61.77.61,1.3h-1c0-.27-.12-.51-.35-.7-.23-.2-.52-.3-.87-.3s-.64.08-.85.24-.31.36-.31.62c0,.24.09.42.28.54s.53.24,1.03.35c.5.11.9.24,1.21.4.31.15.54.34.68.56.15.22.22.48.22.79,0,.52-.21.94-.62,1.25s-.95.47-1.62.47c-.47,0-.88-.08-1.24-.25s-.64-.39-.84-.69c-.2-.29-.3-.62-.3-.96h.99c.02.33.15.6.4.79.25.2.58.29.99.29.38,0,.68-.08.91-.23.23-.15.34-.36.34-.61Z"/><path class="cls-9" d="m161.94,484.74c0-.16.05-.3.15-.41.1-.11.24-.17.44-.17s.34.06.44.17c.1.11.15.25.15.41s-.05.3-.15.4-.25.16-.44.16-.34-.05-.44-.16c-.1-.11-.15-.24-.15-.4Zm1.07,7.35h-.99v-5.81h.99v5.81Z"/><path class="cls-9" d="m167.98,490.55c0-.27-.1-.48-.3-.63-.2-.15-.55-.28-1.06-.38-.5-.11-.9-.24-1.2-.39-.29-.15-.51-.33-.66-.54-.14-.21-.21-.46-.21-.74,0-.48.2-.88.6-1.21.4-.33.92-.49,1.54-.49.66,0,1.19.17,1.6.51.41.34.61.77.61,1.3h-1c0-.27-.12-.51-.35-.7-.23-.2-.52-.3-.87-.3s-.64.08-.85.24-.31.36-.31.62c0,.24.09.42.28.54s.53.24,1.03.35c.5.11.9.24,1.21.4.31.15.54.34.68.56.15.22.22.48.22.79,0,.52-.21.94-.62,1.25s-.95.47-1.62.47c-.47,0-.88-.08-1.24-.25s-.64-.39-.84-.69c-.2-.29-.3-.62-.3-.96h.99c.02.33.15.6.4.79.25.2.58.29.99.29.38,0,.68-.08.91-.23.23-.15.34-.36.34-.61Z"/><path class="cls-9" d="m171.62,484.87v1.41h1.08v.77h-1.08v3.61c0,.23.05.41.15.52.1.12.26.17.49.17.11,0,.27-.02.47-.06v.8c-.26.07-.52.11-.76.11-.44,0-.78-.13-1-.4-.23-.27-.34-.65-.34-1.14v-3.6h-1.06v-.77h1.06v-1.41h.99Z"/><path class="cls-9" d="m173.49,489.13c0-.57.11-1.08.34-1.54.22-.45.54-.8.93-1.05.4-.25.85-.37,1.37-.37.79,0,1.43.27,1.92.82.49.55.73,1.28.73,2.19v.07c0,.57-.11,1.07-.33,1.52-.22.45-.53.8-.93,1.05-.4.25-.87.38-1.39.38-.79,0-1.43-.27-1.92-.82-.49-.55-.73-1.27-.73-2.17v-.07Zm1,.12c0,.64.15,1.16.45,1.55.3.39.7.59,1.2.59s.91-.2,1.2-.59.45-.95.45-1.66c0-.64-.15-1.15-.45-1.55-.3-.4-.7-.59-1.21-.59s-.89.2-1.19.58c-.3.39-.45.95-.45,1.68Z"/><path class="cls-9" d="m182.84,487.17c-.15-.03-.31-.04-.49-.04-.65,0-1.09.28-1.33.83v4.12h-.99v-5.81h.97l.02.67c.33-.52.79-.78,1.39-.78.19,0,.34.03.44.08v.92Z"/><path class="cls-9" d="m187.14,490.55c0-.27-.1-.48-.3-.63-.2-.15-.55-.28-1.06-.38-.5-.11-.9-.24-1.2-.39-.29-.15-.51-.33-.66-.54-.14-.21-.21-.46-.21-.74,0-.48.2-.88.6-1.21.4-.33.92-.49,1.54-.49.66,0,1.19.17,1.6.51.41.34.61.77.61,1.3h-1c0-.27-.12-.51-.35-.7-.23-.2-.52-.3-.87-.3s-.64.08-.85.24-.31.36-.31.62c0,.24.09.42.28.54s.53.24,1.03.35c.5.11.9.24,1.21.4.31.15.54.34.68.56.15.22.22.48.22.79,0,.52-.21.94-.62,1.25s-.95.47-1.62.47c-.47,0-.88-.08-1.24-.25s-.64-.39-.84-.69c-.2-.29-.3-.62-.3-.96h.99c.02.33.15.6.4.79.25.2.58.29.99.29.38,0,.68-.08.91-.23.23-.15.34-.36.34-.61Z"/></g><path class="cls-9" d="m829.58,393.63c0,.39-.1.74-.31,1.04s-.48.54-.83.71c.41.18.73.43.97.77.24.34.36.72.36,1.14,0,.68-.23,1.22-.68,1.62-.46.4-1.06.6-1.8.6s-1.35-.2-1.81-.6c-.45-.4-.68-.94-.68-1.61,0-.42.12-.8.35-1.14.23-.34.55-.6.96-.77-.35-.17-.62-.41-.82-.71-.2-.3-.3-.65-.3-1.04,0-.66.21-1.18.63-1.57.42-.39.98-.58,1.67-.58s1.24.19,1.67.58c.42.39.64.91.64,1.57Zm-.81,3.65c0-.44-.14-.79-.42-1.07-.28-.28-.64-.41-1.09-.41s-.81.14-1.08.41c-.27.27-.41.63-.41,1.07s.13.79.39,1.05c.26.25.63.38,1.1.38s.83-.13,1.1-.38c.26-.26.4-.6.4-1.04Zm-1.49-4.98c-.39,0-.71.12-.95.36s-.36.57-.36.99.12.72.36.96c.24.25.56.37.95.37s.71-.12.95-.37.36-.57.36-.96-.12-.72-.37-.97-.56-.38-.94-.38Z"/><g><path class="cls-9" d="m550.85,205.64h-1.84v3.16h-1.04v-7.82h2.59c.88,0,1.56.2,2.03.6s.71.98.71,1.75c0,.49-.13.91-.4,1.27-.26.36-.63.63-1.1.81l1.84,3.32v.06h-1.11l-1.7-3.16Zm-1.84-.84h1.58c.51,0,.92-.13,1.22-.4.3-.27.45-.62.45-1.07,0-.48-.14-.85-.43-1.11s-.7-.39-1.25-.39h-1.58v2.97Z"/><path class="cls-9" d="m557.01,208.91c-.79,0-1.43-.26-1.92-.78-.49-.52-.74-1.21-.74-2.08v-.18c0-.58.11-1.09.33-1.54.22-.45.53-.81.92-1.06.4-.26.82-.38,1.29-.38.76,0,1.34.25,1.76.75s.63,1.21.63,2.14v.41h-3.94c.01.57.18,1.04.5,1.39.32.35.73.53,1.22.53.35,0,.65-.07.89-.21.24-.14.46-.33.64-.57l.61.47c-.49.75-1.22,1.12-2.19,1.12Zm-.12-5.21c-.4,0-.74.15-1.01.44-.27.29-.44.7-.5,1.23h2.91v-.08c-.03-.5-.17-.9-.41-1.17-.24-.28-.57-.42-.99-.42Z"/><path class="cls-9" d="m565.34,205.96c0,.88-.2,1.6-.61,2.14-.41.54-.95.81-1.64.81s-1.26-.22-1.66-.67v2.8h-.99v-8.05h.91l.05.64c.4-.5.97-.75,1.69-.75s1.25.26,1.66.79c.41.53.61,1.26.61,2.2v.09Zm-.99-.11c0-.66-.14-1.17-.42-1.55s-.66-.57-1.15-.57c-.6,0-1.05.27-1.35.8v2.78c.3.53.75.79,1.36.79.48,0,.86-.19,1.14-.57.28-.38.42-.94.42-1.68Z"/><path class="cls-9" d="m569.01,208.91c-.79,0-1.43-.26-1.92-.78-.49-.52-.74-1.21-.74-2.08v-.18c0-.58.11-1.09.33-1.54.22-.45.53-.81.92-1.06.4-.26.82-.38,1.29-.38.76,0,1.34.25,1.76.75s.63,1.21.63,2.14v.41h-3.94c.01.57.18,1.04.5,1.39.32.35.73.53,1.22.53.35,0,.65-.07.89-.21.24-.14.46-.33.64-.57l.61.47c-.49.75-1.22,1.12-2.19,1.12Zm-.12-5.21c-.4,0-.74.15-1.01.44-.27.29-.44.7-.5,1.23h2.91v-.08c-.03-.5-.17-.9-.41-1.17-.24-.28-.57-.42-.99-.42Z"/><path class="cls-9" d="m576.01,208.8c-.06-.11-.1-.32-.14-.61-.46.48-1.01.72-1.65.72-.57,0-1.04-.16-1.41-.49-.37-.32-.55-.73-.55-1.23,0-.6.23-1.08.69-1.41.46-.33,1.11-.5,1.94-.5h.97v-.46c0-.35-.1-.62-.31-.83-.21-.21-.51-.31-.92-.31-.35,0-.65.09-.89.27s-.36.4-.36.65h-1c0-.29.1-.57.31-.84.21-.27.49-.48.84-.64s.74-.24,1.16-.24c.67,0,1.19.17,1.57.5.38.33.58.8.59,1.38v2.67c0,.53.07.96.2,1.27v.09h-1.04Zm-1.65-.76c.31,0,.61-.08.89-.24s.48-.37.61-.63v-1.19h-.78c-1.22,0-1.83.36-1.83,1.07,0,.31.1.56.31.73s.47.26.8.26Z"/><path class="cls-9" d="m579.76,201.58v1.41h1.09v.77h-1.09v3.61c0,.23.05.41.15.52.1.12.26.17.49.17.11,0,.27-.02.47-.06v.8c-.26.07-.52.11-.76.11-.44,0-.78-.13-1-.4-.23-.27-.34-.65-.34-1.14v-3.6h-1.06v-.77h1.06v-1.41h.99Z"/><path class="cls-9" d="m585.21,208.8v-5.04h-.92v-.77h.92v-.6c0-.62.17-1.1.5-1.44s.8-.51,1.41-.51c.23,0,.46.03.68.09l-.05.8c-.17-.03-.35-.05-.54-.05-.32,0-.57.09-.75.28-.18.19-.26.46-.26.81v.61h1.24v.77h-1.24v5.04h-.99Z"/><path class="cls-9" d="m588.28,205.84c0-.57.11-1.08.34-1.54s.54-.81.93-1.05.86-.37,1.37-.37c.79,0,1.43.27,1.92.82.49.55.73,1.28.73,2.19v.07c0,.57-.11,1.07-.33,1.52-.22.45-.53.8-.93,1.05-.4.25-.87.38-1.39.38-.79,0-1.43-.27-1.92-.82-.49-.55-.73-1.27-.73-2.18v-.07Zm1,.12c0,.64.15,1.16.45,1.55s.7.59,1.2.59.91-.2,1.2-.59c.3-.4.45-.95.45-1.66,0-.64-.15-1.15-.45-1.55-.3-.4-.71-.59-1.21-.59s-.89.2-1.19.59-.45.95-.45,1.68Z"/><path class="cls-9" d="m597.63,203.88c-.15-.02-.31-.04-.49-.04-.65,0-1.09.28-1.33.83v4.12h-.99v-5.81h.97l.02.67c.33-.52.79-.78,1.39-.78.19,0,.34.02.44.08v.92Z"/><path class="cls-9" d="m603.68,208.91c-.79,0-1.43-.26-1.92-.78-.49-.52-.74-1.21-.74-2.08v-.18c0-.58.11-1.09.33-1.54.22-.45.53-.81.92-1.06.4-.26.82-.38,1.29-.38.76,0,1.34.25,1.76.75s.63,1.21.63,2.14v.41h-3.94c.01.57.18,1.04.5,1.39.32.35.73.53,1.22.53.35,0,.65-.07.89-.21.24-.14.46-.33.64-.57l.61.47c-.49.75-1.22,1.12-2.19,1.12Zm-.12-5.21c-.4,0-.74.15-1.01.44-.27.29-.44.7-.5,1.23h2.91v-.08c-.03-.5-.17-.9-.41-1.17-.24-.28-.57-.42-.99-.42Z"/><path class="cls-9" d="m610.68,208.8c-.06-.11-.1-.32-.14-.61-.46.48-1.01.72-1.65.72-.57,0-1.04-.16-1.41-.49-.37-.32-.55-.73-.55-1.23,0-.6.23-1.08.69-1.41.46-.33,1.11-.5,1.94-.5h.97v-.46c0-.35-.1-.62-.31-.83-.21-.21-.51-.31-.92-.31-.35,0-.65.09-.89.27s-.36.4-.36.65h-1c0-.29.1-.57.31-.84.21-.27.49-.48.84-.64s.74-.24,1.16-.24c.67,0,1.19.17,1.57.5.38.33.58.8.59,1.38v2.67c0,.53.07.96.2,1.27v.09h-1.04Zm-1.65-.76c.31,0,.61-.08.89-.24s.48-.37.61-.63v-1.19h-.78c-1.22,0-1.83.36-1.83,1.07,0,.31.1.56.31.73s.47.26.8.26Z"/><path class="cls-9" d="m615.4,208.1c.35,0,.66-.11.93-.32.27-.21.41-.48.44-.81h.94c-.02.33-.13.65-.34.95s-.49.54-.85.72-.73.27-1.12.27c-.79,0-1.42-.26-1.89-.79-.47-.53-.7-1.25-.7-2.17v-.17c0-.57.1-1.07.31-1.51s.51-.78.89-1.03.85-.37,1.38-.37c.65,0,1.19.2,1.62.59s.66.9.69,1.52h-.94c-.03-.38-.17-.68-.43-.93-.26-.24-.57-.36-.95-.36-.51,0-.9.18-1.17.54-.28.36-.42.89-.42,1.58v.19c0,.67.14,1.19.41,1.55s.67.54,1.18.54Z"/><path class="cls-9" d="m619.83,203.69c.44-.54,1.01-.81,1.72-.81,1.23,0,1.85.69,1.86,2.08v3.84h-.99v-3.85c0-.42-.1-.73-.29-.93-.19-.2-.48-.3-.88-.3-.32,0-.61.09-.85.26-.24.17-.43.4-.57.68v4.14h-.99v-8.25h.99v3.14Z"/><path class="cls-9" d="m631,207.26c0-.27-.1-.48-.3-.63-.2-.15-.55-.28-1.06-.38-.5-.11-.9-.24-1.2-.39-.29-.15-.51-.33-.66-.54s-.21-.45-.21-.74c0-.48.2-.88.6-1.21.4-.33.92-.49,1.54-.49.66,0,1.19.17,1.6.51s.62.78.62,1.31h-1c0-.27-.12-.51-.35-.7-.23-.2-.52-.3-.87-.3s-.64.08-.85.24-.31.36-.31.62c0,.24.09.42.28.54s.53.24,1.03.35.9.24,1.21.4.54.34.68.56c.15.22.22.48.22.79,0,.52-.21.94-.62,1.25-.42.31-.95.47-1.62.47-.47,0-.88-.08-1.24-.25s-.64-.39-.84-.69c-.2-.29-.3-.61-.3-.96h.99c.02.33.15.6.4.79.25.19.58.29.99.29.38,0,.68-.08.91-.23.23-.15.34-.36.34-.61Z"/><path class="cls-9" d="m634.63,201.58v1.41h1.09v.77h-1.09v3.61c0,.23.05.41.15.52.1.12.26.17.49.17.11,0,.27-.02.47-.06v.8c-.26.07-.52.11-.76.11-.44,0-.78-.13-1-.4-.23-.27-.34-.65-.34-1.14v-3.6h-1.06v-.77h1.06v-1.41h.99Z"/><path class="cls-9" d="m639.29,208.91c-.79,0-1.43-.26-1.92-.78-.49-.52-.74-1.21-.74-2.08v-.18c0-.58.11-1.09.33-1.54.22-.45.53-.81.92-1.06.4-.26.82-.38,1.29-.38.76,0,1.34.25,1.76.75s.63,1.21.63,2.14v.41h-3.94c.01.57.18,1.04.5,1.39.32.35.73.53,1.22.53.35,0,.65-.07.89-.21.24-.14.46-.33.64-.57l.61.47c-.49.75-1.22,1.12-2.19,1.12Zm-.12-5.21c-.4,0-.74.15-1.01.44-.27.29-.44.7-.5,1.23h2.91v-.08c-.03-.5-.17-.9-.41-1.17-.24-.28-.57-.42-.99-.42Z"/><path class="cls-9" d="m647.62,205.96c0,.88-.2,1.6-.61,2.14-.41.54-.95.81-1.64.81s-1.26-.22-1.66-.67v2.8h-.99v-8.05h.91l.05.64c.4-.5.97-.75,1.69-.75s1.25.26,1.66.79.61,1.26.61,2.2v.09Zm-.99-.11c0-.66-.14-1.17-.42-1.55s-.66-.57-1.15-.57c-.6,0-1.05.27-1.35.8v2.78c.3.53.75.79,1.36.79.48,0,.86-.19,1.14-.57.28-.38.42-.94.42-1.68Z"/></g><g><path class="cls-9" d="m110.13,365.48h-1.84v3.16h-1.04v-7.82h2.59c.88,0,1.56.2,2.03.6s.71.98.71,1.75c0,.49-.13.91-.4,1.27-.26.36-.63.63-1.1.81l1.84,3.32v.06h-1.11l-1.7-3.16Zm-1.84-.84h1.58c.51,0,.92-.13,1.22-.4s.45-.62.45-1.07c0-.48-.14-.86-.43-1.11-.29-.26-.7-.39-1.25-.39h-1.58v2.97Z"/><path class="cls-9" d="m117.05,368.64h-1v-6.62l-2,.74v-.9l2.85-1.07h.16v7.86Z"/><path class="cls-9" d="m121.08,363.36l-1.62-.48.25-.81,1.62.6-.05-1.85h.82l-.05,1.87,1.59-.59.25.82-1.65.49,1.06,1.46-.67.5-1-1.55-.97,1.51-.67-.49,1.08-1.48Z"/></g><g><path class="cls-9" d="m167.73,365.48h-1.84v3.16h-1.04v-7.82h2.59c.88,0,1.56.2,2.03.6s.71.98.71,1.75c0,.49-.13.91-.4,1.27-.26.36-.63.63-1.1.81l1.84,3.32v.06h-1.11l-1.7-3.16Zm-1.84-.84h1.58c.51,0,.92-.13,1.22-.4s.45-.62.45-1.07c0-.48-.14-.86-.43-1.11-.29-.26-.7-.39-1.25-.39h-1.58v2.97Z"/><path class="cls-9" d="m176.5,368.64h-5.12v-.71l2.71-3.01c.4-.45.68-.82.83-1.11.15-.29.23-.58.23-.88,0-.41-.12-.74-.37-1-.25-.26-.58-.39-.99-.39-.49,0-.88.14-1.15.42-.27.28-.41.67-.41,1.17h-.99c0-.72.23-1.3.7-1.75s1.08-.67,1.86-.67c.73,0,1.3.19,1.72.57.42.38.63.89.63,1.52,0,.77-.49,1.69-1.47,2.75l-2.09,2.27h3.93v.81Z"/><path class="cls-9" d="m178.68,363.36l-1.62-.48.25-.81,1.62.6-.05-1.85h.82l-.05,1.87,1.59-.59.25.82-1.65.49,1.06,1.46-.67.5-1-1.55-.97,1.51-.67-.49,1.08-1.48Z"/></g><g><path class="cls-9" d="m702.9,266.12h-1.84v3.16h-1.04v-7.82h2.59c.88,0,1.56.2,2.03.6s.71.98.71,1.75c0,.49-.13.91-.4,1.27-.26.36-.63.63-1.1.81l1.84,3.32v.06h-1.11l-1.7-3.16Zm-1.84-.84h1.58c.51,0,.92-.13,1.22-.4s.45-.62.45-1.07c0-.48-.14-.86-.43-1.11-.29-.26-.7-.39-1.25-.39h-1.58v2.97Z"/><path class="cls-9" d="m707.99,264.89h.75c.47,0,.84-.13,1.11-.37.27-.24.4-.56.4-.97,0-.92-.46-1.38-1.37-1.38-.43,0-.77.12-1.03.37s-.38.57-.38.97h-.99c0-.62.23-1.13.68-1.54s1.03-.62,1.73-.62c.74,0,1.32.2,1.74.59.42.39.63.93.63,1.63,0,.34-.11.67-.33.99-.22.32-.52.56-.9.71.43.14.76.36,1,.68.23.32.35.7.35,1.16,0,.7-.23,1.26-.69,1.67-.46.41-1.05.62-1.79.62s-1.33-.2-1.79-.6c-.46-.4-.69-.92-.69-1.57h1c0,.41.13.74.4.99.27.25.63.37,1.08.37.48,0,.85-.13,1.1-.38.25-.25.38-.61.38-1.08s-.14-.8-.42-1.05c-.28-.24-.68-.37-1.21-.38h-.75v-.81Z"/></g><g><path class="cls-9" d="m542.16,260.71l2.23-6.45h1.13l-2.9,7.82h-.91l-2.89-7.82h1.12l2.22,6.45Z"/><path class="cls-9" d="m549.44,258.92h-1.84v3.16h-1.04v-7.82h2.59c.88,0,1.56.2,2.03.6s.71.98.71,1.75c0,.49-.13.91-.4,1.27-.26.36-.63.63-1.1.81l1.84,3.32v.06h-1.11l-1.7-3.16Zm-1.84-.84h1.58c.51,0,.92-.13,1.22-.4s.45-.62.45-1.07c0-.48-.14-.86-.43-1.11-.29-.26-.7-.39-1.25-.39h-1.58v2.97Z"/><path class="cls-9" d="m556.35,262.08h-1v-6.62l-2,.74v-.9l2.85-1.07h.16v7.86Z"/></g><g><path class="cls-9" d="m500.4,311.11l2.23-6.45h1.13l-2.9,7.82h-.91l-2.89-7.82h1.12l2.22,6.45Z"/><path class="cls-9" d="m507.68,309.32h-1.84v3.16h-1.04v-7.82h2.59c.88,0,1.56.2,2.03.6s.71.98.71,1.75c0,.49-.13.91-.4,1.27-.26.36-.63.63-1.1.81l1.84,3.32v.06h-1.11l-1.7-3.16Zm-1.84-.84h1.58c.51,0,.92-.13,1.22-.4s.45-.62.45-1.07c0-.48-.14-.86-.43-1.11-.29-.26-.7-.39-1.25-.39h-1.58v2.97Z"/><path class="cls-9" d="m516.45,312.48h-5.12v-.71l2.71-3.01c.4-.45.68-.82.83-1.11.15-.29.23-.58.23-.88,0-.41-.12-.74-.37-1-.25-.26-.58-.39-.99-.39-.49,0-.88.14-1.15.42-.27.28-.41.67-.41,1.17h-.99c0-.72.23-1.3.7-1.75s1.08-.67,1.86-.67c.73,0,1.3.19,1.72.57.42.38.63.89.63,1.52,0,.77-.49,1.69-1.47,2.75l-2.09,2.27h3.93v.81Z"/></g><g><path class="cls-9" d="m620.61,236.16v-7.82h2.21c.68,0,1.28.15,1.8.45s.93.73,1.21,1.28c.29.56.43,1.19.43,1.91v.5c0,.74-.14,1.38-.43,1.94-.29.55-.69.98-1.22,1.28-.53.3-1.14.45-1.84.46h-2.16Zm1.03-6.98v6.13h1.08c.79,0,1.41-.25,1.86-.74.44-.5.66-1.2.66-2.11v-.46c0-.89-.21-1.58-.63-2.07-.42-.49-1.01-.74-1.77-.75h-1.2Z"/><path class="cls-9" d="m630.83,236.16h-1v-6.62l-2,.74v-.9l2.85-1.07h.16v7.86Z"/></g><g><path class="cls-9" d="m620.61,286.56v-7.82h2.21c.68,0,1.28.15,1.8.45s.93.73,1.21,1.28c.29.56.43,1.19.43,1.91v.5c0,.74-.14,1.38-.43,1.94-.29.55-.69.98-1.22,1.28-.53.3-1.14.45-1.84.46h-2.16Zm1.03-6.98v6.13h1.08c.79,0,1.41-.25,1.86-.74.44-.5.66-1.2.66-2.11v-.46c0-.89-.21-1.58-.63-2.07-.42-.49-1.01-.74-1.77-.75h-1.2Z"/><path class="cls-9" d="m632.69,286.56h-5.12v-.71l2.71-3.01c.4-.45.68-.82.83-1.11.15-.29.23-.58.23-.88,0-.41-.12-.74-.37-1-.25-.26-.58-.39-.99-.39-.49,0-.88.14-1.15.42-.27.28-.41.67-.41,1.17h-.99c0-.72.23-1.3.7-1.75s1.08-.67,1.86-.67c.73,0,1.3.19,1.72.57.42.38.63.89.63,1.52,0,.77-.49,1.69-1.47,2.75l-2.09,2.27h3.93v.81Z"/></g><g><path class="cls-9" d="m93.33,445.37c-.27.38-.63.66-1.11.85-.47.19-1.03.28-1.66.28s-1.2-.15-1.7-.45c-.49-.3-.88-.72-1.15-1.28-.27-.55-.41-1.19-.42-1.92v-.68c0-1.18.27-2.09.82-2.74.55-.65,1.32-.97,2.32-.97.82,0,1.47.21,1.97.63.5.42.8,1.01.91,1.77h-1.03c-.19-1.04-.81-1.56-1.85-1.56-.69,0-1.21.24-1.57.73-.36.49-.54,1.19-.54,2.11v.64c0,.88.2,1.58.6,2.09s.94.78,1.63.78c.39,0,.73-.04,1.02-.13.29-.09.53-.23.72-.43v-1.75h-1.81v-.84h2.84v2.87Z"/><path class="cls-9" d="m101.06,446.4h-1.04l-3.94-6.03v6.03h-1.04v-7.82h1.04l3.95,6.05v-6.05h1.03v7.82Z"/><path class="cls-9" d="m102.89,446.4v-7.82h2.21c.68,0,1.28.15,1.8.45s.93.73,1.21,1.28c.29.56.43,1.19.43,1.91v.5c0,.74-.14,1.38-.43,1.94-.29.56-.69.98-1.22,1.28-.53.3-1.14.45-1.84.46h-2.16Zm1.03-6.98v6.13h1.08c.79,0,1.41-.25,1.86-.74.44-.5.66-1.2.66-2.11v-.46c0-.89-.21-1.58-.63-2.07-.42-.49-1.01-.74-1.77-.75h-1.2Z"/></g><g><path class="cls-9" d="m150.93,445.37c-.27.38-.63.66-1.11.85-.47.19-1.03.28-1.66.28s-1.2-.15-1.7-.45-.88-.72-1.15-1.28c-.27-.55-.41-1.19-.42-1.92v-.68c0-1.18.27-2.09.82-2.74.55-.65,1.32-.97,2.32-.97.82,0,1.47.21,1.97.63s.8,1.01.91,1.78h-1.03c-.19-1.04-.81-1.56-1.85-1.56-.69,0-1.21.24-1.57.73-.36.49-.54,1.19-.54,2.11v.64c0,.88.2,1.58.6,2.09.4.52.94.78,1.63.78.39,0,.73-.04,1.02-.13s.53-.23.72-.43v-1.75h-1.81v-.84h2.84v2.87Z"/><path class="cls-9" d="m158.66,446.4h-1.04l-3.94-6.03v6.03h-1.04v-7.82h1.04l3.95,6.05v-6.05h1.03v7.82Z"/><path class="cls-9" d="m160.49,446.4v-7.82h2.21c.68,0,1.28.15,1.8.45s.93.73,1.21,1.28c.29.55.43,1.19.43,1.91v.5c0,.74-.14,1.38-.43,1.94-.29.55-.69.98-1.22,1.28-.53.3-1.14.45-1.84.46h-2.16Zm1.03-6.98v6.13h1.08c.79,0,1.41-.25,1.86-.74.44-.49.66-1.2.66-2.11v-.46c0-.89-.21-1.58-.63-2.07-.42-.49-1.01-.74-1.77-.75h-1.2Z"/></g><g><path class="cls-9" d="m503.73,445.37c-.27.38-.63.66-1.11.85-.47.19-1.03.28-1.66.28s-1.2-.15-1.7-.45c-.49-.3-.88-.72-1.15-1.28-.27-.55-.41-1.19-.42-1.92v-.68c0-1.18.27-2.09.82-2.74.55-.65,1.32-.97,2.32-.97.82,0,1.47.21,1.97.63.5.42.8,1.01.91,1.77h-1.03c-.19-1.04-.81-1.56-1.85-1.56-.69,0-1.21.24-1.57.73s-.54,1.19-.54,2.11v.64c0,.88.2,1.58.6,2.09.4.52.94.78,1.63.78.39,0,.72-.04,1.01-.13.29-.09.53-.23.72-.43v-1.75h-1.81v-.84h2.84v2.87Z"/><path class="cls-9" d="m511.46,446.4h-1.04l-3.94-6.03v6.03h-1.04v-7.82h1.04l3.95,6.05v-6.05h1.03v7.82Z"/><path class="cls-9" d="m513.29,446.4v-7.82h2.21c.68,0,1.28.15,1.8.45.52.3.93.73,1.21,1.28.29.56.43,1.19.43,1.91v.5c0,.74-.14,1.38-.43,1.94-.29.56-.69.98-1.22,1.28-.53.3-1.14.45-1.84.46h-2.16Zm1.03-6.98v6.13h1.08c.79,0,1.41-.25,1.86-.74.44-.5.66-1.2.66-2.11v-.46c0-.89-.21-1.58-.63-2.07-.42-.49-1.01-.74-1.77-.75h-1.2Z"/></g><g><path class="cls-9" d="m683.73,445.37c-.27.38-.63.66-1.11.85-.47.19-1.03.28-1.66.28s-1.2-.15-1.7-.45-.88-.72-1.15-1.28c-.27-.55-.41-1.19-.42-1.92v-.68c0-1.18.27-2.09.82-2.74.55-.65,1.32-.97,2.32-.97.82,0,1.47.21,1.97.63.5.42.8,1.01.91,1.78h-1.03c-.19-1.04-.81-1.56-1.85-1.56-.69,0-1.21.24-1.57.73-.36.49-.54,1.19-.54,2.11v.64c0,.88.2,1.58.6,2.09.4.52.94.78,1.63.78.39,0,.72-.04,1.01-.13s.53-.23.72-.43v-1.75h-1.81v-.84h2.84v2.87Z"/><path class="cls-9" d="m691.46,446.4h-1.04l-3.94-6.03v6.03h-1.04v-7.82h1.04l3.95,6.05v-6.05h1.03v7.82Z"/><path class="cls-9" d="m693.29,446.4v-7.82h2.21c.68,0,1.28.15,1.8.45.52.3.93.73,1.21,1.28.29.55.43,1.19.43,1.91v.5c0,.74-.14,1.38-.43,1.94-.29.55-.69.98-1.22,1.28-.53.3-1.14.45-1.84.46h-2.16Zm1.03-6.98v6.13h1.08c.79,0,1.41-.25,1.86-.74.44-.49.66-1.2.66-2.11v-.46c0-.89-.21-1.58-.63-2.07-.42-.49-1.01-.74-1.77-.75h-1.2Z"/></g><g><path class="cls-9" d="m928.53,445.37c-.26.38-.63.66-1.11.85-.47.19-1.03.28-1.66.28s-1.2-.15-1.7-.45c-.49-.3-.88-.72-1.15-1.28-.27-.55-.41-1.19-.42-1.92v-.68c0-1.18.28-2.09.82-2.74.55-.65,1.32-.97,2.32-.97.82,0,1.47.21,1.97.63.5.42.8,1.01.91,1.77h-1.03c-.19-1.04-.81-1.56-1.85-1.56-.69,0-1.21.24-1.57.73-.36.49-.54,1.19-.54,2.11v.64c0,.88.2,1.58.6,2.09.4.52.94.78,1.63.78.39,0,.73-.04,1.02-.13.29-.09.53-.23.72-.43v-1.75h-1.81v-.84h2.84v2.87Z"/><path class="cls-9" d="m936.26,446.4h-1.04l-3.94-6.03v6.03h-1.04v-7.82h1.04l3.95,6.05v-6.05h1.03v7.82Z"/><path class="cls-9" d="m938.09,446.4v-7.82h2.21c.68,0,1.28.15,1.8.45.52.3.93.73,1.21,1.28.29.56.43,1.19.43,1.91v.5c0,.74-.14,1.38-.43,1.94-.29.56-.69.98-1.22,1.28-.53.3-1.14.45-1.84.46h-2.17Zm1.03-6.98v6.13h1.08c.79,0,1.41-.25,1.86-.74.44-.5.66-1.2.66-2.11v-.46c0-.89-.21-1.58-.63-2.07-.42-.49-1.01-.74-1.78-.75h-1.2Z"/></g><g><path class="cls-9" d="m266.13,445.37c-.27.38-.63.66-1.11.85-.47.19-1.03.28-1.66.28s-1.2-.15-1.7-.45-.88-.72-1.15-1.28c-.27-.55-.41-1.19-.42-1.92v-.68c0-1.18.27-2.09.82-2.74.55-.65,1.32-.97,2.32-.97.82,0,1.47.21,1.97.63.5.42.8,1.01.91,1.78h-1.03c-.19-1.04-.81-1.56-1.85-1.56-.69,0-1.21.24-1.57.73-.36.49-.54,1.19-.54,2.11v.64c0,.88.2,1.58.6,2.09s.94.78,1.63.78c.39,0,.73-.04,1.02-.13s.53-.23.72-.43v-1.75h-1.81v-.84h2.84v2.87Z"/><path class="cls-9" d="m273.86,446.4h-1.04l-3.94-6.03v6.03h-1.04v-7.82h1.04l3.95,6.05v-6.05h1.03v7.82Z"/><path class="cls-9" d="m275.69,446.4v-7.82h2.21c.68,0,1.28.15,1.8.45s.93.73,1.21,1.28c.29.55.43,1.19.43,1.91v.5c0,.74-.14,1.38-.43,1.94-.29.56-.69.98-1.22,1.28-.53.3-1.14.45-1.84.46h-2.16Zm1.03-6.98v6.13h1.08c.79,0,1.41-.25,1.86-.74.44-.49.66-1.2.66-2.11v-.46c0-.89-.21-1.58-.63-2.07-.42-.49-1.01-.74-1.77-.75h-1.2Z"/></g><g><path class="cls-9" d="m827.73,445.37c-.26.38-.63.66-1.11.85-.47.19-1.03.28-1.66.28s-1.2-.15-1.7-.45c-.49-.3-.88-.72-1.15-1.28-.27-.55-.41-1.19-.42-1.92v-.68c0-1.18.28-2.09.82-2.74.55-.65,1.32-.97,2.32-.97.82,0,1.47.21,1.97.63.5.42.8,1.01.91,1.77h-1.03c-.19-1.04-.81-1.56-1.85-1.56-.69,0-1.21.24-1.57.73-.36.49-.54,1.19-.54,2.11v.64c0,.88.2,1.58.6,2.09.4.52.94.78,1.63.78.39,0,.72-.04,1.02-.13.29-.09.53-.23.72-.43v-1.75h-1.81v-.84h2.84v2.87Z"/><path class="cls-9" d="m835.46,446.4h-1.04l-3.94-6.03v6.03h-1.04v-7.82h1.04l3.95,6.05v-6.05h1.03v7.82Z"/><path class="cls-9" d="m837.29,446.4v-7.82h2.21c.68,0,1.28.15,1.8.45.52.3.93.73,1.21,1.28.29.56.43,1.19.43,1.91v.5c0,.74-.14,1.38-.43,1.94-.29.56-.69.98-1.22,1.28-.53.3-1.14.45-1.84.46h-2.17Zm1.03-6.98v6.13h1.08c.79,0,1.41-.25,1.86-.74.44-.5.66-1.2.66-2.11v-.46c0-.89-.21-1.58-.63-2.07-.42-.49-1.01-.74-1.77-.75h-1.2Z"/></g><g><path class="cls-9" d="m161.42,272.23l2.23-6.45h1.13l-2.9,7.82h-.91l-2.9-7.82h1.12l2.22,6.45Z"/><path class="cls-9" d="m168.81,275.82c-.06.48-.23.85-.53,1.12-.3.26-.7.39-1.19.39-.54,0-.97-.19-1.29-.58-.32-.39-.49-.9-.49-1.55v-.44c0-.42.08-.8.23-1.12s.37-.57.64-.74c.28-.17.6-.26.96-.26.48,0,.87.14,1.17.41.29.27.46.64.51,1.12h-.6c-.05-.36-.17-.63-.34-.79-.17-.16-.42-.24-.73-.24-.38,0-.69.14-.9.43s-.33.69-.33,1.21v.44c0,.5.1.89.31,1.18.21.29.5.44.87.44.33,0,.59-.08.77-.23.18-.15.3-.42.35-.79h.6Z"/><path class="cls-9" d="m172.98,275.82c-.06.48-.23.85-.53,1.12-.3.26-.7.39-1.19.39-.54,0-.97-.19-1.29-.58-.32-.39-.49-.9-.49-1.55v-.44c0-.42.08-.8.23-1.12s.37-.57.64-.74c.28-.17.6-.26.96-.26.48,0,.87.14,1.17.41.29.27.46.64.51,1.12h-.6c-.05-.36-.17-.63-.34-.79-.17-.16-.42-.24-.73-.24-.38,0-.69.14-.9.43s-.33.69-.33,1.21v.44c0,.5.1.89.31,1.18.21.29.5.44.87.44.33,0,.59-.08.77-.23.18-.15.3-.42.35-.79h.6Z"/></g><g><path class="cls-9" d="m121.7,103.69c-.1.83-.4,1.47-.92,1.92-.51.45-1.2.67-2.05.67-.92,0-1.66-.33-2.22-.99-.56-.66-.84-1.55-.84-2.66v-.75c0-.73.13-1.37.39-1.92.26-.55.63-.97,1.1-1.27.48-.3,1.03-.44,1.65-.44.83,0,1.5.23,2,.7s.79,1.11.88,1.93h-1.04c-.09-.62-.28-1.08-.58-1.36-.3-.28-.72-.42-1.25-.42-.66,0-1.18.24-1.55.73-.37.49-.56,1.18-.56,2.08v.76c0,.85.18,1.52.53,2.03s.85.75,1.49.75c.57,0,1.01-.13,1.32-.39.31-.26.51-.71.61-1.36h1.04Z"/><path class="cls-9" d="m124.03,106.17h-.99v-8.25h.99v8.25Z"/><path class="cls-9" d="m125.35,103.21c0-.57.11-1.08.34-1.54.22-.45.54-.8.93-1.05.4-.25.85-.37,1.37-.37.79,0,1.43.27,1.92.82.49.55.73,1.28.73,2.19v.07c0,.57-.11,1.07-.33,1.52-.22.45-.53.8-.93,1.05-.4.25-.87.38-1.39.38-.79,0-1.43-.27-1.92-.82-.49-.55-.73-1.27-.73-2.17v-.07Zm1,.12c0,.64.15,1.16.45,1.55.3.39.7.59,1.2.59s.91-.2,1.2-.59.45-.95.45-1.66c0-.64-.15-1.15-.45-1.55-.3-.4-.7-.59-1.21-.59s-.89.2-1.19.58c-.3.39-.45.95-.45,1.68Z"/><path class="cls-9" d="m134.22,105.47c.35,0,.66-.11.93-.32s.41-.48.44-.81h.94c-.02.33-.13.65-.34.95s-.49.54-.85.72c-.35.18-.73.27-1.12.27-.79,0-1.42-.26-1.89-.79-.47-.53-.7-1.25-.7-2.17v-.17c0-.57.1-1.07.31-1.51.21-.44.51-.78.89-1.03.39-.24.85-.37,1.38-.37.65,0,1.19.2,1.62.58.43.39.66.9.69,1.52h-.94c-.03-.38-.17-.68-.43-.93-.26-.24-.57-.36-.95-.36-.5,0-.9.18-1.17.54-.28.36-.42.89-.42,1.58v.19c0,.67.14,1.19.41,1.55s.67.54,1.18.54Z"/><path class="cls-9" d="m139.27,103.48l-.62.65v2.04h-.99v-8.25h.99v4.99l.53-.64,1.81-1.91h1.21l-2.26,2.43,2.52,3.38h-1.17l-2.02-2.69Z"/><path class="cls-9" d="m147.21,106.17h-1.03v-7.82h1.03v7.82Z"/><path class="cls-9" d="m149.88,100.36l.03.73c.44-.56,1.02-.84,1.74-.84,1.23,0,1.85.69,1.86,2.08v3.84h-.99v-3.85c0-.42-.1-.73-.29-.93-.19-.2-.48-.3-.88-.3-.32,0-.6.09-.85.26s-.43.4-.57.68v4.14h-.99v-5.81h.94Z"/><path class="cls-9" d="m159.92,103.33c0,.88-.2,1.6-.61,2.14-.4.54-.95.81-1.64.81s-1.26-.22-1.67-.67v2.8h-.99v-8.05h.91l.05.64c.4-.5.97-.75,1.69-.75s1.25.26,1.66.79c.41.53.61,1.26.61,2.2v.09Zm-.99-.11c0-.66-.14-1.17-.42-1.55-.28-.38-.66-.57-1.15-.57-.6,0-1.05.27-1.35.8v2.78c.3.53.75.79,1.36.79.48,0,.85-.19,1.14-.57.28-.38.42-.94.42-1.68Z"/><path class="cls-9" d="m164.77,105.6c-.39.45-.95.68-1.7.68-.62,0-1.09-.18-1.42-.54-.32-.36-.49-.89-.49-1.6v-3.78h.99v3.75c0,.88.36,1.32,1.07,1.32.76,0,1.26-.28,1.51-.85v-4.23h.99v5.81h-.95l-.02-.57Z"/><path class="cls-9" d="m168.59,98.95v1.41h1.08v.77h-1.08v3.61c0,.23.05.41.15.52.1.12.26.17.49.17.11,0,.27-.02.47-.06v.8c-.26.07-.52.11-.76.11-.44,0-.78-.13-1-.4-.23-.27-.34-.65-.34-1.14v-3.6h-1.06v-.77h1.06v-1.41h.99Z"/></g><g><path class="cls-9" d="m312.56,168.49c-.1.83-.4,1.47-.92,1.92-.51.45-1.2.67-2.05.67-.92,0-1.66-.33-2.22-.99-.56-.66-.84-1.55-.84-2.66v-.75c0-.73.13-1.37.39-1.92.26-.55.63-.97,1.1-1.27.48-.3,1.03-.44,1.65-.44.83,0,1.5.23,2,.7s.79,1.11.88,1.93h-1.04c-.09-.62-.28-1.08-.58-1.36-.3-.28-.72-.42-1.25-.42-.66,0-1.18.24-1.55.73-.37.49-.56,1.18-.56,2.08v.76c0,.85.18,1.52.53,2.03s.85.75,1.49.75c.57,0,1.01-.13,1.32-.39.31-.26.51-.71.61-1.36h1.04Z"/><path class="cls-9" d="m313.97,170.97v-7.82h2.21c.68,0,1.28.15,1.8.45s.93.73,1.21,1.28c.29.56.43,1.19.43,1.91v.5c0,.74-.14,1.38-.43,1.94-.29.55-.69.98-1.22,1.28-.53.3-1.14.45-1.84.46h-2.16Zm1.03-6.98v6.13h1.08c.79,0,1.41-.25,1.86-.74.44-.5.66-1.2.66-2.11v-.46c0-.89-.21-1.58-.63-2.07-.42-.49-1.01-.74-1.77-.75h-1.2Z"/><path class="cls-9" d="m325.12,168.34h1.08v.81h-1.08v1.82h-1v-1.82h-3.56v-.58l3.5-5.42h1.06v5.19Zm-3.43,0h2.43v-3.83l-.12.21-2.31,3.62Z"/><path class="cls-9" d="m332,167.63c0,1.16-.2,2.03-.6,2.59s-1.02.85-1.86.85-1.45-.28-1.85-.83c-.4-.55-.61-1.38-.62-2.48v-1.33c0-1.15.2-2,.6-2.56s1.02-.84,1.87-.84,1.46.27,1.86.81.6,1.37.61,2.49v1.29Zm-.99-1.36c0-.84-.12-1.46-.35-1.84s-.61-.58-1.12-.58-.88.19-1.11.57c-.23.38-.35.97-.36,1.77v1.59c0,.84.12,1.47.37,1.87.25.4.62.6,1.11.6s.85-.19,1.09-.57c.24-.38.36-.98.37-1.79v-1.63Z"/><path class="cls-9" d="m338.4,170.97h-5.12v-.71l2.71-3.01c.4-.45.68-.82.83-1.11.15-.29.23-.58.23-.88,0-.41-.12-.74-.37-1-.25-.26-.58-.39-.99-.39-.49,0-.88.14-1.15.42-.27.28-.41.67-.41,1.17h-.99c0-.72.23-1.3.7-1.75.46-.44,1.08-.67,1.86-.67.73,0,1.3.19,1.72.57.42.38.63.89.63,1.52,0,.77-.49,1.69-1.47,2.75l-2.09,2.27h3.93v.81Z"/><path class="cls-9" d="m344.58,170.97h-5.12v-.71l2.71-3.01c.4-.45.68-.82.83-1.11.15-.29.23-.58.23-.88,0-.41-.12-.74-.37-1-.25-.26-.58-.39-.99-.39-.49,0-.88.14-1.15.42-.27.28-.41.67-.41,1.17h-.99c0-.72.23-1.3.7-1.75.46-.44,1.08-.67,1.86-.67.73,0,1.3.19,1.72.57.42.38.63.89.63,1.52,0,.77-.49,1.69-1.47,2.75l-2.09,2.27h3.93v.81Z"/></g><g><path class="cls-9" d="m881.36,171.37c-.1.83-.4,1.47-.92,1.92-.51.45-1.2.67-2.05.67-.92,0-1.66-.33-2.22-.99-.56-.66-.83-1.55-.83-2.66v-.75c0-.73.13-1.37.39-1.92.26-.55.63-.97,1.1-1.27.48-.3,1.03-.44,1.65-.44.83,0,1.5.23,2,.7.5.46.79,1.11.88,1.93h-1.04c-.09-.62-.28-1.08-.58-1.36s-.72-.42-1.25-.42c-.66,0-1.18.24-1.55.73s-.56,1.18-.56,2.08v.76c0,.85.18,1.52.53,2.03s.85.75,1.49.75c.57,0,1.01-.13,1.32-.39.31-.26.51-.71.61-1.36h1.04Z"/><path class="cls-9" d="m882.77,173.85v-7.82h2.21c.68,0,1.28.15,1.8.45.52.3.93.73,1.21,1.28.29.56.43,1.19.43,1.91v.5c0,.74-.14,1.38-.43,1.94-.29.55-.69.98-1.22,1.28-.53.3-1.14.45-1.84.46h-2.17Zm1.03-6.98v6.13h1.08c.79,0,1.41-.25,1.86-.74.44-.5.66-1.2.66-2.11v-.46c0-.89-.21-1.58-.63-2.07-.42-.49-1.01-.74-1.78-.75h-1.2Z"/><path class="cls-9" d="m893.92,171.22h1.08v.81h-1.08v1.82h-1v-1.82h-3.56v-.58l3.5-5.42h1.06v5.19Zm-3.43,0h2.43v-3.83l-.12.21-2.31,3.62Z"/><path class="cls-9" d="m900.8,170.51c0,1.16-.2,2.03-.6,2.59s-1.02.85-1.86.85-1.45-.28-1.85-.83c-.4-.55-.61-1.38-.62-2.48v-1.33c0-1.15.2-2,.6-2.56s1.02-.84,1.87-.84,1.46.27,1.86.81.6,1.37.61,2.49v1.29Zm-.99-1.36c0-.84-.12-1.46-.35-1.84s-.61-.58-1.12-.58-.88.19-1.11.57c-.23.38-.35.97-.36,1.77v1.59c0,.84.12,1.47.37,1.87.25.4.62.6,1.11.6s.86-.19,1.09-.57c.24-.38.36-.98.37-1.79v-1.63Z"/><path class="cls-9" d="m906.27,171.22h1.08v.81h-1.08v1.82h-1v-1.82h-3.56v-.58l3.5-5.42h1.06v5.19Zm-3.43,0h2.43v-3.83l-.12.21-2.31,3.62Z"/><path class="cls-9" d="m912.15,166.02v.84h-.18c-.77.01-1.39.24-1.85.69-.46.44-.72,1.07-.79,1.88.41-.47.97-.71,1.69-.71s1.22.24,1.63.72c.41.48.61,1.1.61,1.86,0,.8-.22,1.45-.66,1.93-.44.48-1.03.72-1.76.72s-1.36-.29-1.82-.86c-.46-.57-.7-1.31-.7-2.22v-.38c0-1.44.31-2.54.92-3.3.61-.76,1.53-1.15,2.74-1.17h.18Zm-1.31,3.52c-.34,0-.65.1-.94.31-.29.2-.49.46-.6.77v.37c0,.64.15,1.16.44,1.56.29.39.65.59,1.08.59s.8-.16,1.05-.49c.26-.33.38-.76.38-1.29s-.13-.97-.39-1.3-.6-.5-1.03-.5Z"/></g><g><path class="cls-9" d="m748.9,336.96h-1v-6.62l-2,.74v-.9l2.85-1.07h.16v7.86Z"/><path class="cls-9" d="m756.71,333.62c0,1.16-.2,2.03-.6,2.59-.4.57-1.02.85-1.86.85s-1.45-.28-1.85-.83c-.4-.55-.61-1.38-.62-2.48v-1.33c0-1.15.2-2,.6-2.56s1.02-.84,1.87-.84,1.46.27,1.86.81.6,1.37.61,2.49v1.29Zm-.99-1.36c0-.84-.12-1.46-.36-1.84s-.61-.58-1.12-.58-.88.19-1.11.57c-.23.38-.35.97-.36,1.77v1.59c0,.84.12,1.47.37,1.87.25.4.62.6,1.11.6s.85-.19,1.09-.57c.24-.38.36-.98.37-1.79v-1.63Z"/><path class="cls-9" d="m762.89,333.62c0,1.16-.2,2.03-.6,2.59-.4.57-1.02.85-1.86.85s-1.45-.28-1.85-.83c-.4-.55-.61-1.38-.62-2.48v-1.33c0-1.15.2-2,.6-2.56s1.02-.84,1.87-.84,1.46.27,1.86.81.6,1.37.61,2.49v1.29Zm-.99-1.36c0-.84-.12-1.46-.36-1.84s-.61-.58-1.12-.58-.88.19-1.11.57c-.23.38-.35.97-.36,1.77v1.59c0,.84.12,1.47.37,1.87.25.4.62.6,1.11.6s.85-.19,1.09-.57c.24-.38.36-.98.37-1.79v-1.63Z"/><path class="cls-9" d="m765.2,331.15l.03.73c.44-.56,1.02-.84,1.74-.84,1.23,0,1.85.69,1.86,2.08v3.84h-.99v-3.85c0-.42-.1-.73-.29-.93-.19-.2-.48-.3-.88-.3-.32,0-.61.09-.85.26-.24.17-.43.4-.57.68v4.14h-.99v-5.81h.94Z"/><path class="cls-9" d="m774.8,333.51h-3.28v3.45h-1.03v-7.82h4.84v.84h-3.81v2.68h3.28v.84Z"/></g><g><path class="cls-9" d="m865.9,528.92c-.88-.25-1.53-.57-1.93-.94-.4-.37-.6-.83-.6-1.37,0-.62.25-1.13.74-1.53.49-.4,1.13-.6,1.92-.6.54,0,1.02.1,1.44.31s.75.49.98.86c.23.37.35.76.35,1.2h-1.04c0-.47-.15-.85-.45-1.12s-.73-.41-1.27-.41c-.51,0-.91.11-1.19.34-.28.22-.43.54-.43.93,0,.32.13.59.41.81s.73.42,1.38.61c.65.18,1.16.38,1.53.6.37.22.64.48.82.77.18.29.27.64.27,1.04,0,.63-.25,1.14-.74,1.52-.49.38-1.15.57-1.98.57-.54,0-1.04-.1-1.5-.31-.46-.21-.82-.49-1.08-.85-.25-.36-.38-.76-.38-1.22h1.04c0,.47.17.85.52,1.12.35.27.82.41,1.4.41.54,0,.96-.11,1.25-.33.29-.22.44-.53.44-.91s-.13-.68-.4-.89c-.27-.21-.75-.42-1.46-.62Z"/><path class="cls-9" d="m871.31,525.19v1.41h1.08v.77h-1.08v3.61c0,.23.05.41.15.52.1.12.26.17.49.17.11,0,.27-.02.47-.06v.8c-.26.07-.52.11-.76.11-.44,0-.78-.13-1-.4-.23-.27-.34-.65-.34-1.14v-3.6h-1.06v-.77h1.06v-1.41h.99Z"/><path class="cls-9" d="m875.97,532.52c-.79,0-1.43-.26-1.92-.78s-.74-1.21-.74-2.08v-.18c0-.58.11-1.09.33-1.54.22-.45.53-.81.92-1.06.4-.26.82-.38,1.29-.38.75,0,1.34.25,1.76.75.42.5.63,1.21.63,2.14v.41h-3.94c.01.57.18,1.04.5,1.39.32.35.73.53,1.22.53.35,0,.65-.07.89-.21.24-.14.46-.33.64-.57l.61.47c-.49.75-1.22,1.12-2.19,1.12Zm-.12-5.21c-.4,0-.74.15-1.01.44s-.44.7-.5,1.23h2.91v-.08c-.03-.5-.17-.9-.41-1.17s-.57-.42-.99-.42Z"/><path class="cls-9" d="m884.29,529.57c0,.88-.2,1.6-.61,2.14-.41.54-.95.81-1.64.81s-1.26-.22-1.67-.67v2.8h-.99v-8.05h.91l.05.64c.41-.5.97-.75,1.69-.75s1.25.26,1.66.79c.41.53.61,1.26.61,2.2v.09Zm-.99-.11c0-.66-.14-1.17-.42-1.55-.28-.38-.66-.57-1.15-.57-.6,0-1.05.27-1.35.8v2.78c.3.53.75.79,1.36.79.48,0,.86-.19,1.14-.57.28-.38.42-.94.42-1.68Z"/><path class="cls-9" d="m890.74,528.92c-.88-.25-1.53-.57-1.93-.94-.4-.37-.61-.83-.61-1.37,0-.62.25-1.13.74-1.53.49-.4,1.13-.6,1.92-.6.54,0,1.02.1,1.44.31.42.21.75.49.98.86.23.37.35.76.35,1.2h-1.04c0-.47-.15-.85-.45-1.12s-.72-.41-1.27-.41c-.51,0-.91.11-1.19.34-.28.22-.43.54-.43.93,0,.32.13.59.4.81.27.22.73.42,1.38.61.65.18,1.16.38,1.53.6.37.22.64.48.82.77.18.29.27.64.27,1.04,0,.63-.25,1.14-.74,1.52-.49.38-1.16.57-1.98.57-.54,0-1.04-.1-1.5-.31s-.82-.49-1.08-.85c-.25-.36-.38-.76-.38-1.22h1.04c0,.47.17.85.52,1.12.35.27.81.41,1.4.41.54,0,.96-.11,1.25-.33.29-.22.43-.53.43-.91s-.13-.68-.4-.89c-.27-.21-.75-.42-1.46-.62Z"/><path class="cls-9" d="m897.22,532.52c-.79,0-1.43-.26-1.92-.78s-.74-1.21-.74-2.08v-.18c0-.58.11-1.09.33-1.54.22-.45.53-.81.92-1.06.4-.26.82-.38,1.29-.38.75,0,1.34.25,1.76.75.42.5.63,1.21.63,2.14v.41h-3.94c.01.57.18,1.04.5,1.39.32.35.73.53,1.22.53.35,0,.65-.07.89-.21.24-.14.46-.33.64-.57l.61.47c-.49.75-1.22,1.12-2.19,1.12Zm-.12-5.21c-.4,0-.74.15-1.01.44s-.44.7-.5,1.23h2.91v-.08c-.03-.5-.17-.9-.41-1.17s-.57-.42-.99-.42Z"/><path class="cls-9" d="m900.39,529.46c0-.91.21-1.64.63-2.17.42-.53.98-.8,1.69-.8s1.23.23,1.63.69l.04-.58h.91v8.05h-.99v-2.77c-.4.43-.93.64-1.6.64-.7,0-1.26-.27-1.68-.82-.42-.55-.62-1.27-.62-2.17v-.07Zm.99.11c0,.67.14,1.19.42,1.57.28.38.66.57,1.13.57.59,0,1.04-.26,1.35-.79v-2.85c-.31-.51-.76-.77-1.34-.77-.48,0-.86.19-1.14.57-.28.38-.42.94-.42,1.69Z"/><path class="cls-9" d="m910.47,531.84c-.39.45-.96.68-1.7.68-.62,0-1.09-.18-1.42-.54-.32-.36-.49-.89-.49-1.6v-3.78h.99v3.75c0,.88.36,1.32,1.07,1.32.76,0,1.26-.28,1.51-.85v-4.23h.99v5.81h-.95l-.02-.57Z"/><path class="cls-9" d="m915.36,532.52c-.79,0-1.43-.26-1.92-.78s-.74-1.21-.74-2.08v-.18c0-.58.11-1.09.33-1.54.22-.45.53-.81.92-1.06s.82-.38,1.29-.38c.76,0,1.34.25,1.76.75.42.5.63,1.21.63,2.14v.41h-3.94c.01.57.18,1.04.5,1.39s.73.53,1.22.53c.35,0,.65-.07.89-.21.24-.14.46-.33.64-.57l.61.47c-.49.75-1.22,1.12-2.19,1.12Zm-.12-5.21c-.4,0-.74.15-1.01.44s-.44.7-.5,1.23h2.91v-.08c-.03-.5-.16-.9-.41-1.17s-.57-.42-.99-.42Z"/><path class="cls-9" d="m919.72,526.6l.03.73c.44-.56,1.02-.84,1.74-.84,1.23,0,1.85.69,1.86,2.08v3.84h-.99v-3.85c0-.42-.1-.73-.29-.93-.19-.2-.48-.3-.88-.3-.32,0-.61.09-.85.26s-.43.4-.57.68v4.14h-.99v-5.81h.94Z"/><path class="cls-9" d="m927.18,531.71c.36,0,.66-.11.93-.32s.41-.48.44-.81h.94c-.02.33-.13.65-.34.95-.21.3-.49.54-.85.72-.35.18-.73.27-1.12.27-.79,0-1.42-.26-1.89-.79-.47-.53-.7-1.25-.7-2.17v-.17c0-.57.1-1.07.31-1.51.21-.44.51-.78.89-1.03s.85-.37,1.38-.37c.65,0,1.19.2,1.62.58.43.39.66.9.69,1.52h-.94c-.03-.38-.17-.68-.43-.93-.26-.24-.57-.36-.95-.36-.5,0-.9.18-1.17.54-.28.36-.42.89-.42,1.58v.19c0,.67.14,1.19.41,1.55.28.36.67.54,1.18.54Z"/><path class="cls-9" d="m933.02,532.52c-.79,0-1.43-.26-1.92-.78s-.74-1.21-.74-2.08v-.18c0-.58.11-1.09.33-1.54.22-.45.53-.81.92-1.06.39-.26.82-.38,1.29-.38.76,0,1.34.25,1.76.75.42.5.63,1.21.63,2.14v.41h-3.94c.01.57.18,1.04.5,1.39.32.35.73.53,1.22.53.35,0,.65-.07.89-.21.24-.14.46-.33.64-.57l.61.47c-.49.75-1.22,1.12-2.19,1.12Zm-.12-5.21c-.4,0-.74.15-1.01.44-.27.29-.44.7-.5,1.23h2.91v-.08c-.03-.5-.16-.9-.41-1.17-.24-.28-.57-.42-.99-.42Z"/><path class="cls-9" d="m939.24,527.49c-.15-.03-.31-.04-.49-.04-.65,0-1.09.28-1.33.83v4.12h-.99v-5.81h.97l.02.67c.33-.52.79-.78,1.38-.78.19,0,.34.03.44.08v.92Z"/><path class="cls-9" d="m942.84,529.24c0-.81.11-1.59.33-2.33.22-.74.54-1.42.97-2.03.43-.61.88-1.04,1.34-1.29l.2.65c-.52.4-.95,1.01-1.29,1.84-.33.82-.52,1.75-.55,2.77v.46c0,1.38.25,2.58.75,3.6.3.61.67,1.09,1.08,1.43l-.2.61c-.48-.26-.93-.71-1.37-1.33-.84-1.22-1.27-2.67-1.27-4.37Z"/><path class="cls-9" d="m952.8,532.41h-1.04l-3.94-6.03v6.03h-1.04v-7.82h1.04l3.95,6.05v-6.05h1.03v7.82Z"/><path class="cls-9" d="m954.5,531.89c0-.17.05-.31.15-.43.1-.11.25-.17.46-.17s.36.06.46.17c.11.12.16.26.16.43s-.05.3-.16.41-.26.17-.46.17-.36-.05-.46-.17c-.1-.11-.15-.25-.15-.41Z"/><path class="cls-9" d="m966.01,529.93c-.1.83-.4,1.47-.92,1.92s-1.2.67-2.05.67c-.92,0-1.66-.33-2.22-.99-.56-.66-.84-1.55-.84-2.66v-.75c0-.73.13-1.37.39-1.92.26-.55.63-.97,1.1-1.27.48-.3,1.03-.44,1.65-.44.83,0,1.5.23,2,.7.5.46.79,1.11.88,1.93h-1.04c-.09-.62-.28-1.08-.58-1.36s-.72-.42-1.25-.42c-.66,0-1.18.24-1.55.73s-.56,1.18-.56,2.08v.76c0,.85.18,1.52.53,2.03.36.5.85.75,1.49.75.57,0,1.01-.13,1.32-.39.31-.26.51-.71.61-1.36h1.04Z"/><path class="cls-9" d="m966.99,529.45c0-.57.11-1.08.34-1.54.22-.45.54-.8.93-1.05.4-.25.86-.37,1.37-.37.79,0,1.43.27,1.92.82.49.55.73,1.28.73,2.19v.07c0,.57-.11,1.07-.33,1.52-.22.45-.53.8-.93,1.05-.4.25-.87.38-1.39.38-.79,0-1.43-.27-1.92-.82-.49-.55-.73-1.27-.73-2.17v-.07Zm1,.12c0,.64.15,1.16.45,1.55s.7.59,1.2.59.91-.2,1.2-.59c.3-.4.45-.95.45-1.66,0-.64-.15-1.15-.45-1.55-.3-.4-.71-.59-1.21-.59s-.89.2-1.19.58c-.3.39-.45.95-.45,1.68Z"/><path class="cls-9" d="m974.61,532.41h-.99v-8.25h.99v8.25Z"/><path class="cls-9" d="m977.28,532.41h-.99v-8.25h.99v8.25Z"/><path class="cls-9" d="m978.87,525.06c0-.16.05-.3.15-.41.1-.11.24-.17.44-.17s.34.06.44.17c.1.11.15.25.15.41s-.05.3-.15.4c-.1.11-.25.16-.44.16s-.34-.05-.44-.16c-.1-.11-.15-.24-.15-.4Zm1.07,7.35h-.99v-5.81h.99v5.81Z"/><path class="cls-9" d="m982.48,526.6l.03.73c.44-.56,1.02-.84,1.74-.84,1.23,0,1.85.69,1.86,2.08v3.84h-.99v-3.85c0-.42-.1-.73-.29-.93-.19-.2-.48-.3-.88-.3-.32,0-.61.09-.85.26-.24.17-.43.4-.57.68v4.14h-.99v-5.81h.94Z"/><path class="cls-9" d="m990.99,530.87c0-.27-.1-.48-.3-.63s-.55-.28-1.06-.38c-.5-.11-.9-.24-1.2-.39-.29-.15-.51-.33-.66-.54-.14-.21-.21-.46-.21-.74,0-.48.2-.88.6-1.21.4-.33.92-.49,1.54-.49.66,0,1.19.17,1.6.51.41.34.61.77.61,1.3h-1c0-.27-.12-.51-.35-.7-.23-.2-.52-.3-.87-.3s-.64.08-.85.24-.31.36-.31.62c0,.24.1.42.29.54s.53.24,1.03.35c.5.11.9.24,1.21.4.31.15.54.34.68.56.15.22.22.48.22.79,0,.52-.21.94-.62,1.25-.42.31-.96.47-1.62.47-.46,0-.88-.08-1.24-.25s-.64-.39-.84-.69c-.2-.29-.3-.62-.3-.96h.99c.02.33.15.6.4.79s.58.29.99.29c.38,0,.68-.08.91-.23s.34-.36.34-.61Z"/><path class="cls-9" d="m995.57,529.29c0,.8-.11,1.56-.31,2.3-.21.73-.53,1.41-.96,2.03-.43.62-.88,1.06-1.36,1.32l-.21-.61c.55-.42.99-1.08,1.33-1.97s.51-1.88.51-2.96v-.17c0-.75-.08-1.45-.24-2.1-.16-.65-.38-1.23-.66-1.74-.28-.51-.6-.91-.95-1.2l.21-.61c.47.26.92.7,1.35,1.31.43.61.75,1.29.96,2.02s.32,1.53.32,2.37Z"/></g><g><path class="cls-9" d="m918.77,349.92h-1v-6.62l-2,.74v-.9l2.85-1.07h.16v7.86Z"/><path class="cls-9" d="m926.59,346.58c0,1.16-.2,2.03-.6,2.59-.4.57-1.02.85-1.86.85s-1.45-.28-1.85-.83c-.4-.55-.61-1.38-.62-2.48v-1.33c0-1.15.2-2,.6-2.56s1.02-.84,1.87-.84,1.46.27,1.86.81.6,1.37.61,2.49v1.29Zm-.99-1.36c0-.84-.12-1.46-.36-1.84s-.61-.58-1.12-.58-.88.19-1.11.57c-.23.38-.35.97-.36,1.77v1.59c0,.84.12,1.47.37,1.87.25.4.62.6,1.11.6s.85-.19,1.09-.57c.24-.38.36-.98.37-1.79v-1.63Z"/><path class="cls-9" d="m930.1,346.28l-.96.99v2.64h-1.03v-7.82h1.03v3.87l3.47-3.87h1.25l-3.08,3.45,3.32,4.37h-1.24l-2.77-3.64Z"/></g><g><path class="cls-9" d="m947.36,394.56h-1v-6.62l-2,.74v-.9l2.85-1.07h.16v7.86Z"/><path class="cls-9" d="m955.18,391.22c0,1.16-.2,2.03-.6,2.59-.4.57-1.02.85-1.86.85s-1.45-.28-1.85-.83c-.4-.55-.61-1.38-.62-2.48v-1.33c0-1.15.2-2,.6-2.56s1.02-.84,1.87-.84,1.46.27,1.86.81.6,1.37.61,2.49v1.29Zm-.99-1.36c0-.84-.12-1.46-.36-1.84s-.61-.58-1.12-.58-.88.19-1.11.57c-.23.38-.35.97-.36,1.77v1.59c0,.84.12,1.47.37,1.87.25.4.62.6,1.11.6s.85-.19,1.09-.57c.24-.38.36-.98.37-1.79v-1.63Z"/><path class="cls-9" d="m961.35,391.22c0,1.16-.2,2.03-.6,2.59-.4.57-1.02.85-1.86.85s-1.45-.28-1.85-.83c-.4-.55-.61-1.38-.62-2.48v-1.33c0-1.15.2-2,.6-2.56s1.02-.84,1.87-.84,1.46.27,1.86.81.6,1.37.61,2.49v1.29Zm-.99-1.36c0-.84-.12-1.46-.36-1.84s-.61-.58-1.12-.58-.88.19-1.11.57c-.23.38-.35.97-.36,1.77v1.59c0,.84.12,1.47.37,1.87.25.4.62.6,1.11.6s.85-.19,1.09-.57c.24-.38.36-.98.37-1.79v-1.63Z"/><path class="cls-9" d="m964.87,390.92l-.96.99v2.64h-1.03v-7.82h1.03v3.87l3.47-3.87h1.25l-3.08,3.45,3.32,4.37h-1.24l-2.77-3.64Z"/></g><g><path class="cls-9" d="m701.12,282.24h-1v-6.62l-2,.74v-.9l2.85-1.07h.16v7.86Z"/><path class="cls-9" d="m708.94,278.9c0,1.16-.2,2.03-.6,2.59-.4.57-1.02.85-1.86.85s-1.45-.28-1.85-.83c-.4-.55-.61-1.38-.62-2.48v-1.33c0-1.15.2-2,.6-2.56s1.02-.84,1.87-.84,1.46.27,1.86.81.6,1.37.61,2.49v1.29Zm-.99-1.36c0-.84-.12-1.46-.36-1.84s-.61-.58-1.12-.58-.88.19-1.11.57c-.23.38-.35.97-.36,1.77v1.59c0,.84.12,1.47.37,1.87.25.4.62.6,1.11.6s.85-.19,1.09-.57c.24-.38.36-.98.37-1.79v-1.63Z"/><path class="cls-9" d="m715.11,278.9c0,1.16-.2,2.03-.6,2.59-.4.57-1.02.85-1.86.85s-1.45-.28-1.85-.83c-.4-.55-.61-1.38-.62-2.48v-1.33c0-1.15.2-2,.6-2.56s1.02-.84,1.87-.84,1.46.27,1.86.81.6,1.37.61,2.49v1.29Zm-.99-1.36c0-.84-.12-1.46-.36-1.84s-.61-.58-1.12-.58-.88.19-1.11.57c-.23.38-.35.97-.36,1.77v1.59c0,.84.12,1.47.37,1.87.25.4.62.6,1.11.6s.85-.19,1.09-.57c.24-.38.36-.98.37-1.79v-1.63Z"/><path class="cls-9" d="m718.63,278.6l-.96.99v2.64h-1.03v-7.82h1.03v3.87l3.47-3.87h1.25l-3.08,3.45,3.32,4.37h-1.24l-2.77-3.64Z"/></g><g><path class="cls-9" d="m948.45,383.11l2.23-6.45h1.13l-2.9,7.82h-.91l-2.89-7.82h1.12l2.22,6.45Z"/><path class="cls-9" d="m955.73,381.32h-1.84v3.16h-1.04v-7.82h2.59c.88,0,1.56.2,2.03.6s.71.98.71,1.75c0,.49-.13.91-.4,1.27-.26.36-.63.63-1.1.81l1.84,3.32v.06h-1.11l-1.7-3.16Zm-1.84-.84h1.58c.51,0,.92-.13,1.22-.4s.45-.62.45-1.07c0-.48-.14-.86-.43-1.11-.29-.26-.7-.39-1.25-.39h-1.58v2.97Z"/></g><g><path class="cls-9" d="m103.82,185.83l2.23-6.45h1.13l-2.9,7.82h-.91l-2.9-7.82h1.12l2.22,6.45Z"/><path class="cls-9" d="m111.21,189.42c-.06.48-.23.85-.53,1.12-.3.26-.7.39-1.19.39-.54,0-.97-.19-1.29-.58-.32-.39-.49-.9-.49-1.55v-.44c0-.42.08-.8.23-1.12s.37-.57.64-.74c.28-.17.6-.26.96-.26.48,0,.87.14,1.17.41.29.27.46.64.51,1.12h-.6c-.05-.36-.17-.63-.34-.79-.17-.16-.42-.24-.73-.24-.38,0-.69.14-.9.43s-.33.69-.33,1.21v.44c0,.5.1.89.31,1.18.21.29.5.44.87.44.33,0,.59-.08.77-.23.18-.15.3-.42.35-.79h.6Z"/><path class="cls-9" d="m115.38,189.42c-.06.48-.23.85-.53,1.12-.3.26-.7.39-1.19.39-.54,0-.97-.19-1.29-.58-.32-.39-.49-.9-.49-1.55v-.44c0-.42.08-.8.23-1.12s.37-.57.64-.74c.28-.17.6-.26.96-.26.48,0,.87.14,1.17.41.29.27.46.64.51,1.12h-.6c-.05-.36-.17-.63-.34-.79-.17-.16-.42-.24-.73-.24-.38,0-.69.14-.9.43s-.33.69-.33,1.21v.44c0,.5.1.89.31,1.18.21.29.5.44.87.44.33,0,.59-.08.77-.23.18-.15.3-.42.35-.79h.6Z"/></g><g><path class="cls-9" d="m63.98,228.19c-.88-.25-1.53-.57-1.93-.94-.4-.37-.6-.83-.6-1.37,0-.62.25-1.13.74-1.53.49-.4,1.13-.6,1.92-.6.54,0,1.02.1,1.44.31.42.21.75.49.98.86.23.37.35.76.35,1.2h-1.04c0-.47-.15-.85-.45-1.12s-.73-.41-1.27-.41c-.51,0-.9.11-1.19.34-.28.22-.43.54-.43.93,0,.32.14.59.41.81.27.22.73.42,1.38.61.65.18,1.16.38,1.53.6.37.22.64.48.82.77.18.29.27.64.27,1.04,0,.63-.25,1.14-.74,1.52-.49.38-1.15.57-1.98.57-.54,0-1.04-.1-1.5-.31s-.82-.49-1.08-.85c-.25-.36-.38-.76-.38-1.22h1.04c0,.47.17.85.52,1.12.35.27.82.41,1.4.41.54,0,.96-.11,1.25-.33.29-.22.44-.53.44-.91s-.13-.68-.4-.89c-.27-.21-.76-.42-1.46-.62Z"/><path class="cls-9" d="m69.89,229.22l.15,1.03.22-.93,1.55-5.46h.87l1.51,5.46.21.95.17-1.05,1.21-5.35h1.04l-1.9,7.82h-.94l-1.61-5.7-.12-.6-.12.6-1.67,5.7h-.94l-1.89-7.82h1.03l1.24,5.36Z"/><path class="cls-9" d="m80.97,231.68h-1v-6.62l-2,.74v-.9l2.85-1.07h.16v7.86Z"/></g><g><path class="cls-9" d="m173.39,320.12c-.88-.25-1.53-.57-1.93-.94-.4-.37-.6-.83-.6-1.37,0-.62.25-1.13.74-1.53.49-.4,1.13-.6,1.92-.6.54,0,1.02.1,1.44.31.42.21.75.49.98.86.23.37.35.76.35,1.2h-1.04c0-.47-.15-.85-.45-1.12s-.73-.41-1.27-.41c-.51,0-.9.11-1.19.34-.28.22-.43.54-.43.93,0,.32.14.59.41.81.27.22.73.42,1.38.61.65.18,1.16.38,1.53.6.37.22.64.48.82.77.18.29.27.64.27,1.04,0,.63-.25,1.14-.74,1.52-.49.38-1.15.57-1.98.57-.54,0-1.04-.1-1.5-.31s-.82-.49-1.08-.85c-.25-.36-.38-.76-.38-1.22h1.04c0,.47.17.85.52,1.12.35.27.82.41,1.4.41.54,0,.96-.11,1.25-.33.29-.22.44-.53.44-.91s-.13-.68-.4-.89c-.27-.21-.76-.42-1.46-.62Z"/><path class="cls-9" d="m179.3,321.14l.15,1.03.22-.93,1.55-5.46h.87l1.51,5.46.21.95.17-1.05,1.21-5.35h1.04l-1.9,7.82h-.94l-1.61-5.7-.12-.6-.12.6-1.67,5.7h-.94l-1.89-7.82h1.03l1.24,5.36Z"/><path class="cls-9" d="m192.24,323.61h-5.12v-.71l2.71-3.01c.4-.45.68-.82.83-1.11.15-.29.23-.58.23-.88,0-.41-.12-.74-.37-1-.25-.26-.58-.39-.99-.39-.49,0-.88.14-1.15.42-.27.28-.41.67-.41,1.17h-.99c0-.72.23-1.3.7-1.75.46-.44,1.08-.67,1.86-.67.73,0,1.3.19,1.72.57.42.38.63.89.63,1.52,0,.77-.49,1.69-1.47,2.75l-2.09,2.27h3.93v.81Z"/></g></g><g id="Field"><circle class="cls-9" cx="97.92" cy="259.2" r="1.44"/><circle class="cls-9" cx="155.52" cy="345.6" r="1.44"/><circle class="cls-9" cx="645.12" cy="244.8" r="1.44"/><circle class="cls-9" cx="688.32" cy="244.8" r="1.44"/><circle class="cls-9" cx="976.32" cy="345.6" r="1.44"/><polygon class="cls-9" points="615.66 244.86 600.48 236.28 600.48 253.44 615.66 244.86"/><polygon class="cls-9" points="615.66 295.26 600.48 286.68 600.48 303.84 615.66 295.26"/><rect class="cls-9" x="722.88" y="347.04" width="31.68" height="2.88"/><rect class="cls-9" x="722.88" y="341.28" width="31.68" height="2.88"/></g><g id="Line"><line class="cls-7" x1="155.52" y1="331.2" x2="165.6" y2="305.28"/><line class="cls-7" x1="97.92" y1="244.8" x2="108" y2="218.88"/><line class="cls-7" x1="738.72" y1="374.4" x2="789.12" y2="374.4"/><line class="cls-7" x1="738.72" y1="316.8" x2="789.12" y2="316.8"/><line class="cls-1" x1="738.72" y1="349.92" x2="738.72" y2="374.4"/><rect class="cls-4" x="789.12" y="187.2" width="86.4" height="201.6"/><line class="cls-7" x1="875.52" y1="331.2" x2="904.32" y2="331.2"/><g><line class="cls-7" x1="875.52" y1="230.4" x2="994.82" y2="230.4"/><polygon class="cls-9" points="989.19 237.36 988.03 236.11 994.17 230.4 988.03 224.69 989.19 223.45 996.67 230.4 989.19 237.36"/></g><line class="cls-7" x1="875.81" y1="302.4" x2="1019.52" y2="302.4"/><rect class="cls-7" x="227.52" y="187.2" width="86.4" height="201.6"/><line class="cls-7" x1="313.92" y1="201.6" x2="529.92" y2="201.6"/><line class="cls-7" x1="313.92" y1="216" x2="486.72" y2="216"/><g><line class="cls-7" x1="313.92" y1="230.4" x2="423.19" y2="230.4"/><polygon class="cls-9" points="417.56 237.36 416.4 236.11 422.54 230.4 416.4 224.69 417.56 223.45 425.04 230.4 417.56 237.36"/></g><g><line class="cls-7" x1="313.92" y1="244.8" x2="423.19" y2="244.8"/><polygon class="cls-9" points="417.56 251.76 416.4 250.51 422.54 244.8 416.4 239.09 417.56 237.85 425.04 244.8 417.56 251.76"/></g><g><line class="cls-7" x1="313.92" y1="259.2" x2="423.19" y2="259.2"/><polygon class="cls-9" points="417.56 266.16 416.4 264.91 422.54 259.2 416.4 253.49 417.56 252.25 425.04 259.2 417.56 266.16"/></g><g><line class="cls-7" x1="313.68" y1="273.6" x2="422.96" y2="273.6"/><polygon class="cls-9" points="417.32 280.56 416.16 279.31 422.3 273.6 416.16 267.89 417.32 266.65 424.8 273.6 417.32 280.56"/></g><g><line class="cls-7" x1="313.68" y1="288" x2="422.96" y2="288"/><polygon class="cls-9" points="417.32 294.96 416.16 293.71 422.3 288 416.16 282.29 417.32 281.05 424.8 288 417.32 294.96"/></g><g><line class="cls-7" x1="313.68" y1="302.4" x2="422.96" y2="302.4"/><polygon class="cls-9" points="417.32 309.36 416.16 308.11 422.3 302.4 416.16 296.69 417.32 295.45 424.8 302.4 417.32 309.36"/></g><line class="cls-1" x1="313.92" y1="374.4" x2="342.72" y2="374.4"/><g><line class="cls-7" x1="97.92" y1="259.2" x2="225.68" y2="259.2"/><polygon class="cls-9" points="220.04 266.16 218.88 264.91 225.02 259.2 218.88 253.49 220.04 252.25 227.52 259.2 220.04 266.16"/></g><g><line class="cls-7" x1="141.12" y1="216" x2="225.68" y2="216"/><polygon class="cls-9" points="220.04 222.96 218.88 221.71 225.02 216 218.88 210.29 220.04 209.05 227.52 216 220.04 222.96"/></g><g><line class="cls-7" x1="155.52" y1="345.6" x2="225.68" y2="345.6"/><polygon class="cls-9" points="220.04 352.56 218.88 351.31 225.02 345.6 218.88 339.89 220.04 338.65 227.52 345.6 220.04 352.56"/></g><g><line class="cls-1" x1="270.72" y1="187.2" x2="270.72" y2="154.3"/><polygon class="cls-9" points="275.83 163.81 274.32 164.35 270.72 154.46 267.12 164.35 265.61 163.81 270.72 149.76 275.83 163.81"/></g><line class="cls-7" x1="270.72" y1="388.69" x2="270.72" y2="417.6"/><line class="cls-7" x1="342.72" y1="403.2" x2="342.72" y2="374.4"/><g><line class="cls-7" x1="342.72" y1="403.2" x2="428.84" y2="403.2"/><polygon class="cls-9" points="423.21 410.16 422.05 408.91 428.19 403.2 422.05 397.49 423.21 396.25 430.69 403.2 423.21 410.16"/></g><rect class="cls-3" x="511.2" y="239.04" width="37.44" height="11.52" transform="translate(774.72 -285.12) rotate(90)"/><line class="cls-7" x1="529.92" y1="226.08" x2="529.92" y2="211.68"/><line class="cls-7" x1="529.92" y1="290.88" x2="529.92" y2="263.52"/><g><line class="cls-7" x1="540.75" y1="244.8" x2="552.96" y2="244.8"/><polygon class="cls-9" points="541.49 239.29 541.49 250.31 535.98 244.8 541.49 239.29"/></g><line class="cls-1" x1="738.72" y1="341.28" x2="738.72" y2="316.8"/><line class="cls-7" x1="875.81" y1="374.4" x2="904.32" y2="374.4"/><line class="cls-7" x1="904.32" y1="417.6" x2="904.32" y2="374.4"/><polygon class="cls-7" points="270.72 429.12 280.8 417.6 260.64 417.6 270.72 429.12"/><polygon class="cls-7" points="97.92 429.12 108 417.6 87.84 417.6 97.92 429.12"/><polygon class="cls-7" points="529.92 429.12 540 417.6 519.84 417.6 529.92 429.12"/><line class="cls-7" x1="616.32" y1="253.44" x2="616.32" y2="236.28"/><line class="cls-7" x1="587.52" y1="244.8" x2="600.48" y2="244.8"/><line class="cls-7" x1="616.32" y1="244.8" x2="630.72" y2="244.8"/><g><rect class="cls-3" x="904.32" y="325.44" width="37.44" height="11.52"/><line class="cls-7" x1="904.32" y1="331.2" x2="889.92" y2="331.2"/><line class="cls-7" x1="961.92" y1="331.2" x2="941.76" y2="331.2"/></g><line class="cls-7" x1="832.32" y1="388.69" x2="832.32" y2="417.6"/><polygon class="cls-7" points="832.32 429.12 842.4 417.6 822.24 417.6 832.32 429.12"/><g><rect class="cls-3" x="1000.8" y="372.96" width="37.44" height="11.52" transform="translate(1398.24 -640.8) rotate(90)"/><line class="cls-7" x1="1019.52" y1="360" x2="1019.52" y2="345.6"/><line class="cls-7" x1="1019.52" y1="417.6" x2="1019.52" y2="397.44"/></g><line class="cls-1" x1="1019.52" y1="345.6" x2="1019.52" y2="302.4"/><g><line class="cls-1" x1="832.32" y1="187.2" x2="832.32" y2="154.3"/><polygon class="cls-9" points="837.43 163.81 835.92 164.35 832.32 154.46 828.72 164.35 827.21 163.81 832.32 149.76 837.43 163.81"/></g><polygon class="cls-7" points="904.32 429.12 914.4 417.6 894.24 417.6 904.32 429.12"/><polygon class="cls-7" points="1019.52 429.12 1029.6 417.6 1009.44 417.6 1019.52 429.12"/><polygon class="cls-7" points="688.32 429.12 698.4 417.6 678.24 417.6 688.32 429.12"/><g><rect class="cls-3" x="669.6" y="272.16" width="37.44" height="11.52" transform="translate(966.24 -410.4) rotate(90)"/><line class="cls-7" x1="688.32" y1="259.2" x2="688.32" y2="244.8"/><line class="cls-7" x1="688.32" y1="316.8" x2="688.32" y2="296.64"/></g><line class="cls-7" x1="688.32" y1="244.8" x2="789.12" y2="244.8"/><line class="cls-7" x1="688.32" y1="316.8" x2="688.32" y2="417.6"/><line class="cls-7" x1="529.92" y1="283.68" x2="529.92" y2="417.6"/><line class="cls-7" x1="529.92" y1="211.68" x2="529.92" y2="201.6"/><line class="cls-7" x1="552.96" y1="244.8" x2="587.52" y2="244.8"/><rect class="cls-3" x="468" y="289.44" width="37.44" height="11.52" transform="translate(781.92 -191.52) rotate(90)"/><line class="cls-7" x1="486.72" y1="276.48" x2="486.72" y2="240.48"/><g><line class="cls-7" x1="497.55" y1="295.2" x2="509.76" y2="295.2"/><polygon class="cls-9" points="498.29 289.69 498.29 300.71 492.78 295.2 498.29 289.69"/></g><line class="cls-7" x1="486.72" y1="240.48" x2="486.72" y2="216"/><line class="cls-7" x1="509.76" y1="295.2" x2="587.52" y2="295.2"/><polygon class="cls-7" points="486.72 429.12 496.8 417.6 476.64 417.6 486.72 429.12"/><line class="cls-7" x1="486.72" y1="313.92" x2="486.72" y2="417.6"/><line class="cls-7" x1="616.32" y1="303.84" x2="616.32" y2="286.68"/><line class="cls-7" x1="587.52" y1="295.2" x2="600.48" y2="295.2"/><line class="cls-7" x1="616.32" y1="295.2" x2="630.72" y2="295.2"/><line class="cls-7" x1="630.72" y1="244.8" x2="688.32" y2="244.8"/><line class="cls-7" x1="630.72" y1="295.2" x2="645.12" y2="295.2"/><line class="cls-7" x1="645.12" y1="244.8" x2="645.12" y2="295.2"/><g><polyline class="cls-6" points="652.32 270.6 652.32 273.6 649.32 273.6"/><line class="cls-5" x1="646.28" y1="273.6" x2="520.04" y2="273.6"/><polyline class="cls-6" points="518.52 273.6 515.52 273.6 515.52 270.6"/><line class="cls-2" x1="515.52" y1="267.38" x2="515.52" y2="220.61"/><polyline class="cls-6" points="515.52 219 515.52 216 518.52 216"/><line class="cls-5" x1="521.56" y1="216" x2="647.8" y2="216"/><polyline class="cls-6" points="649.32 216 652.32 216 652.32 219"/><line class="cls-2" x1="652.32" y1="222.22" x2="652.32" y2="268.99"/></g><g><rect class="cls-3" x="79.2" y="372.96" width="37.44" height="11.52" transform="translate(476.64 280.8) rotate(90)"/><line class="cls-7" x1="97.92" y1="360" x2="97.92" y2="345.6"/><line class="cls-7" x1="97.92" y1="417.6" x2="97.92" y2="397.44"/></g><g><rect class="cls-3" x="136.8" y="372.96" width="37.44" height="11.52" transform="translate(534.24 223.2) rotate(90)"/><line class="cls-7" x1="155.52" y1="360" x2="155.52" y2="345.6"/><line class="cls-7" x1="155.52" y1="417.6" x2="155.52" y2="397.44"/></g><polygon class="cls-7" points="155.52 429.12 165.6 417.6 145.44 417.6 155.52 429.12"/><line class="cls-7" x1="97.92" y1="345.6" x2="97.92" y2="259.2"/><g><line class="cls-7" x1="155.52" y1="302.99" x2="155.52" y2="288"/><g><path class="cls-8" d="m157.65,302.86c0,1.18-.95,2.13-2.13,2.13s-2.13-.95-2.13-2.13.95-2.13,2.13-2.13,2.13.95,2.13,2.13Z"/><path class="cls-9" d="m157.93,302.86c0-1.33-1.08-2.41-2.41-2.41s-2.41,1.08-2.41,2.41,1.08,2.42,2.41,2.42,2.41-1.08,2.41-2.42,0,1.33,0,0Zm-4.26,0c0-1.02.83-1.85,1.85-1.85s1.85.83,1.85,1.85-.83,1.85-1.85,1.85-1.85-.83-1.85-1.85,0,1.02,0,0Z"/></g></g><g><line class="cls-7" x1="97.92" y1="244.21" x2="97.92" y2="259.2"/><g><path class="cls-8" d="m95.79,244.33c0-1.18.95-2.13,2.13-2.13s2.13.95,2.13,2.13-.95,2.13-2.13,2.13-2.13-.95-2.13-2.13Z"/><path class="cls-9" d="m95.51,244.33c0,1.33,1.08,2.41,2.41,2.41s2.41-1.08,2.41-2.41-1.08-2.42-2.41-2.42-2.41,1.08-2.41,2.42,0-1.33,0,0Zm4.26,0c0,1.02-.83,1.85-1.85,1.85s-1.85-.83-1.85-1.85.83-1.85,1.85-1.85,1.85.83,1.85,1.85,0-1.02,0,0Z"/></g></g><g><line class="cls-7" x1="97.92" y1="216.59" x2="97.92" y2="201.6"/><g><path class="cls-8" d="m100.05,216.46c0,1.18-.95,2.13-2.13,2.13s-2.13-.95-2.13-2.13.95-2.13,2.13-2.13,2.13.95,2.13,2.13Z"/><path class="cls-9" d="m100.33,216.46c0-1.33-1.08-2.41-2.41-2.41s-2.41,1.08-2.41,2.41,1.08,2.42,2.41,2.42,2.41-1.08,2.41-2.42,0,1.33,0,0Zm-4.26,0c0-1.02.83-1.85,1.85-1.85s1.85.83,1.85,1.85-.83,1.85-1.85,1.85-1.85-.83-1.85-1.85,0,1.02,0,0Z"/></g></g><g><line class="cls-1" x1="97.92" y1="201.6" x2="97.92" y2="191.74"/><polygon class="cls-9" points="103.03 201.25 101.52 201.79 97.92 191.9 94.32 201.79 92.81 201.25 97.92 187.2 103.03 201.25"/></g><g><line class="cls-1" x1="155.52" y1="288" x2="155.52" y2="278.14"/><polygon class="cls-9" points="160.63 287.65 159.12 288.19 155.52 278.3 151.92 288.19 150.41 287.65 155.52 273.6 160.63 287.65"/></g><g><line class="cls-7" x1="155.52" y1="330.61" x2="155.52" y2="345.6"/><g><path class="cls-8" d="m153.39,330.73c0-1.18.95-2.13,2.13-2.13s2.13.95,2.13,2.13-.95,2.13-2.13,2.13-2.13-.95-2.13-2.13Z"/><path class="cls-9" d="m153.11,330.73c0,1.33,1.08,2.41,2.41,2.41s2.41-1.08,2.41-2.41-1.08-2.41-2.41-2.41-2.41,1.08-2.41,2.41,0-1.33,0,0Zm4.26,0c0,1.02-.83,1.85-1.85,1.85s-1.85-.83-1.85-1.85.83-1.85,1.85-1.85,1.85.83,1.85,1.85,0-1.02,0,0Z"/></g></g><line class="cls-7" x1="141.12" y1="115.2" x2="141.12" y2="216"/><rect class="cls-3" x="957.6" y="372.96" width="37.44" height="11.52" transform="translate(1355.04 -597.6) rotate(90)"/><line class="cls-7" x1="976.32" y1="360" x2="976.32" y2="331.2"/><line class="cls-7" x1="976.32" y1="417.6" x2="976.32" y2="397.44"/><g><line class="cls-7" x1="987.15" y1="378.72" x2="999.36" y2="378.72"/><polygon class="cls-9" points="987.89 373.21 987.89 384.23 982.38 378.72 987.89 373.21"/></g><polygon class="cls-7" points="976.32 429.12 986.4 417.6 966.24 417.6 976.32 429.12"/><line class="cls-7" x1="946.08" y1="331.2" x2="976.32" y2="331.2"/><line class="cls-7" x1="976.32" y1="345.6" x2="999.36" y2="345.6"/><line class="cls-7" x1="999.36" y1="378.72" x2="999.36" y2="345.6"/></g></svg>