<?xml version="1.0" encoding="utf-8"?>
<!-- Generator: Adobe Illustrator 27.4.1, SVG Export Plug-In . SVG Version: 6.00 Build 0)  -->
<svg version="1.1" xmlns="http://www.w3.org/2000/svg" xmlns:xlink="http://www.w3.org/1999/xlink" x="0px" y="0px"
	 viewBox="0 0 1080 600.5" style="enable-background:new 0 0 1080 600.5;" xml:space="preserve">
<style type="text/css">
	.st0{fill:#0D1117;stroke:#0D1117;stroke-width:3;stroke-miterlimit:10;}
	.st1{fill:none;stroke:#0D1117;stroke-width:1.98;stroke-miterlimit:10;}
	.st2{fill:#0D1117;}
	.st3{enable-background:new    ;}
</style>
<g id="Ebene_1">
	<g id="Ebene_1_00000110444679887556446330000003362635059903880627_">
		<rect x="237.6" y="424.8" class="st0" width="57.6" height="4.3"/>
		<rect x="237.6" y="413.3" class="st0" width="57.6" height="4.3"/>
		<rect x="320.4" y="204.5" class="st1" width="158.4" height="201.6"/>
		<line class="st1" x1="360" y1="406.1" x2="360" y2="499.7"/>
		<line class="st1" x1="320.4" y1="298.1" x2="154.8" y2="298.1"/>
		<line class="st1" x1="310.3" y1="233.3" x2="280.8" y2="233.3"/>
		<circle class="st1" cx="314.6" cy="233.3" r="4.3"/>
		<line class="st1" x1="439.2" y1="406.1" x2="439.2" y2="434.9"/>
		<line class="st1" x1="439.2" y1="118.1" x2="439.2" y2="204.5"/>
		<line class="st1" x1="320.4" y1="334.1" x2="241.2" y2="334.1"/>
		<line class="st1" x1="266.4" y1="427.7" x2="266.4" y2="499.7"/>
		<line class="st1" x1="266.4" y1="334.1" x2="266.4" y2="413.3"/>
		<rect x="144" y="161.3" class="st1" width="21.6" height="72"/>
		<line class="st1" x1="280.8" y1="233.3" x2="280.8" y2="118.1"/>
		<g>
			<line class="st1" x1="280.8" y1="120.2" x2="280.8" y2="79.7"/>
			<polygon class="st2" points="290.3,97.3 287.5,98.3 280.8,80 274.1,98.3 271.3,97.3 280.8,71.3 			"/>
		</g>
		<rect x="169.2" y="323.3" class="st1" width="72" height="21.6"/>
		<line class="st1" x1="154.8" y1="334.1" x2="169.2" y2="334.1"/>
		<path class="st2" d="M154.8,296.5c0.9,0,1.6,0.7,1.6,1.6s-0.7,1.6-1.6,1.6s-1.6-0.7-1.6-1.6S153.9,296.5,154.8,296.5 M154.8,294.5
			c-2,0-3.6,1.6-3.6,3.6s1.6,3.6,3.6,3.6s3.6-1.6,3.6-3.6S156.8,294.5,154.8,294.5L154.8,294.5z"/>
		<line class="st1" x1="154.8" y1="334.1" x2="154.8" y2="233.3"/>
		<line class="st1" x1="154.8" y1="118.1" x2="154.8" y2="161.3"/>
		<line class="st1" x1="320.4" y1="370.1" x2="266.4" y2="370.1"/>
		<path class="st2" d="M266.4,368.5c0.9,0,1.6,0.7,1.6,1.6s-0.7,1.6-1.6,1.6s-1.6-0.7-1.6-1.6S265.5,368.5,266.4,368.5 M266.4,366.5
			c-2,0-3.6,1.6-3.6,3.6s1.6,3.6,3.6,3.6s3.6-1.6,3.6-3.6S268.4,366.5,266.4,366.5L266.4,366.5z"/>
		<path class="st2" d="M266.4,332.5c0.9,0,1.6,0.7,1.6,1.6s-0.7,1.6-1.6,1.6s-1.6-0.7-1.6-1.6S265.5,332.5,266.4,332.5 M266.4,330.5
			c-2,0-3.6,1.6-3.6,3.6s1.6,3.6,3.6,3.6s3.6-1.6,3.6-3.6S268.4,330.5,266.4,330.5L266.4,330.5z"/>
		<polygon class="st1" points="266.4,499.7 280.8,499.7 273.6,508.7 266.4,517.7 259.2,508.7 252,499.7 		"/>
		<polygon class="st1" points="360,499.7 374.4,499.7 367.2,508.7 360,517.7 352.8,508.7 345.6,499.7 		"/>
		<g>
			<line class="st1" x1="133.6" y1="197.3" x2="115.2" y2="197.3"/>
			<polygon class="st2" points="131.9,209.3 131.9,185.2 144,197.3 			"/>
		</g>
		<line class="st1" x1="154.8" y1="139.7" x2="115.2" y2="139.7"/>
		<line class="st1" x1="115.2" y1="197.3" x2="115.2" y2="139.7"/>
		<path class="st2" d="M154.8,138.1c0.9,0,1.6,0.7,1.6,1.6s-0.7,1.6-1.6,1.6s-1.6-0.7-1.6-1.6S153.9,138.1,154.8,138.1 M154.8,136.1
			c-2,0-3.6,1.6-3.6,3.6s1.6,3.6,3.6,3.6s3.6-1.6,3.6-3.6S156.8,136.1,154.8,136.1L154.8,136.1z"/>
		<rect x="669.6" y="204.5" class="st1" width="158.4" height="201.6"/>
		<line class="st1" x1="709.2" y1="406.1" x2="709.2" y2="499.7"/>
		<line class="st1" x1="669.6" y1="298.1" x2="590.4" y2="298.1"/>
		<line class="st1" x1="659.5" y1="233.3" x2="630" y2="233.3"/>
		<circle class="st1" cx="663.8" cy="233.3" r="4.3"/>
		<line class="st1" x1="788.4" y1="406.1" x2="788.4" y2="434.9"/>
		<line class="st1" x1="788.4" y1="83.5" x2="788.4" y2="204.5"/>
		<line class="st1" x1="669.6" y1="334.1" x2="590.4" y2="334.1"/>
		<rect x="579.6" y="161.3" class="st1" width="21.6" height="72"/>
		<line class="st1" x1="630" y1="233.3" x2="630" y2="118.1"/>
		<g>
			<line class="st1" x1="788.4" y1="119.5" x2="788.4" y2="79"/>
			<polygon class="st2" points="797.9,96.6 795.1,97.6 788.4,79.3 781.7,97.6 778.9,96.6 788.4,70.6 			"/>
		</g>
		<path class="st2" d="M590.4,297.3c0.4,0,0.8,0.3,0.8,0.8s-0.3,0.8-0.8,0.8s-0.8-0.3-0.8-0.8S590,297.3,590.4,297.3 M590.4,294.5
			c-2,0-3.6,1.6-3.6,3.6s1.6,3.6,3.6,3.6s3.6-1.6,3.6-3.6S592.4,294.5,590.4,294.5L590.4,294.5z"/>
		<line class="st1" x1="590.4" y1="334.1" x2="590.4" y2="233.3"/>
		<line class="st1" x1="590.4" y1="139.7" x2="590.4" y2="161.3"/>
		<line class="st1" x1="669.6" y1="370.1" x2="478.8" y2="370.1"/>
		<polygon class="st1" points="709.2,499.7 723.6,499.7 716.4,508.7 709.2,517.7 702,508.7 694.8,499.7 		"/>
		<g>
			<line class="st1" x1="569.2" y1="197.3" x2="550.8" y2="197.3"/>
			<polygon class="st2" points="567.5,209.3 567.5,185.2 579.6,197.3 			"/>
		</g>
		<line class="st1" x1="630" y1="139.7" x2="550.8" y2="139.7"/>
		<line class="st1" x1="550.8" y1="197.3" x2="550.8" y2="139.7"/>
		<path class="st2" d="M590.4,138.1c0.9,0,1.6,0.7,1.6,1.6s-0.7,1.6-1.6,1.6s-1.6-0.7-1.6-1.6S589.5,138.1,590.4,138.1 M590.4,136.1
			c-2,0-3.6,1.6-3.6,3.6s1.6,3.6,3.6,3.6s3.6-1.6,3.6-3.6S592.4,136.1,590.4,136.1L590.4,136.1z"/>
		<g>
			<line class="st1" x1="828" y1="370.1" x2="964.8" y2="370.1"/>
			<path class="st2" d="M944.5,384.4c-0.4-0.7-0.2-1.6,0.5-2l19.2-12.2l-19.2-12.2c-0.7-0.4-0.9-1.4-0.5-2s1.4-0.9,2.1-0.5
				l21.2,13.5c0.4,0.3,0.7,0.8,0.7,1.3s-0.3,1-0.7,1.3l-21.2,13.5c-0.2,0.2-0.5,0.2-0.8,0.2C945.2,385.1,944.8,384.8,944.5,384.4
				L944.5,384.4z"/>
		</g>
		<g>
			<line class="st1" x1="154.8" y1="118.1" x2="154.8" y2="77.5"/>
			<polygon class="st2" points="164.3,95.1 161.5,96.1 154.8,77.8 148.1,96.1 145.3,95.1 154.8,69.1 			"/>
		</g>
		<g>
			<line class="st1" x1="439.2" y1="118.1" x2="439.2" y2="77.5"/>
			<polygon class="st2" points="448.7,95.1 445.9,96.1 439.2,77.8 432.5,96.1 429.7,95.1 439.2,69.1 			"/>
		</g>
		<g>
			<line class="st1" x1="630" y1="118.1" x2="630" y2="77.5"/>
			<polygon class="st2" points="639.5,95.1 636.7,96.1 630,77.8 623.3,96.1 620.5,95.1 630,69.1 			"/>
		</g>
		<path class="st2" d="M630,138.1c0.9,0,1.6,0.7,1.6,1.6s-0.7,1.6-1.6,1.6s-1.6-0.7-1.6-1.6S629.1,138.1,630,138.1 M630,136.1
			c-2,0-3.6,1.6-3.6,3.6s1.6,3.6,3.6,3.6s3.6-1.6,3.6-3.6S632,136.1,630,136.1L630,136.1z"/>
		<path class="st2" d="M590.4,333.3c0.4,0,0.8,0.3,0.8,0.8s-0.3,0.8-0.8,0.8s-0.8-0.3-0.8-0.8S590,333.3,590.4,333.3 M590.4,330.5
			c-2,0-3.6,1.6-3.6,3.6s1.6,3.6,3.6,3.6s3.6-1.6,3.6-3.6S592.4,330.5,590.4,330.5L590.4,330.5z"/>
	</g>
	<path class="st1" d="M590.4,362.9c-4,0-7.2,3.2-7.2,7.2"/>
	<path class="st1" d="M590.4,377.3c-4,0-7.2-3.2-7.2-7.2"/>
	<line class="st1" x1="590.4" y1="334.1" x2="590.4" y2="362.9"/>
	<rect x="561.6" y="424.8" class="st0" width="57.6" height="4.3"/>
	<rect x="561.6" y="413.3" class="st0" width="57.6" height="4.3"/>
	<line class="st1" x1="590.4" y1="427.7" x2="590.4" y2="499.7"/>
	<line class="st1" x1="590.4" y1="377.3" x2="590.4" y2="413.3"/>
	<polygon class="st1" points="590.4,499.7 604.8,499.7 597.6,508.7 590.4,517.7 583.2,508.7 576,499.7 	"/>
</g>
<g id="Ebene_2">
	<g class="st3">
		<path class="st2" d="M432.4,367.5c0,1.3-0.2,2.3-0.6,3.3c-0.4,0.9-1,1.6-1.8,2.1s-1.7,0.7-2.7,0.7c-1,0-1.9-0.2-2.7-0.7
			s-1.4-1.2-1.8-2.1c-0.4-0.9-0.7-2-0.7-3.2v-0.9c0-1.2,0.2-2.3,0.6-3.3s1-1.7,1.8-2.2c0.8-0.5,1.7-0.8,2.7-0.8c1,0,1.9,0.2,2.7,0.7
			c0.8,0.5,1.4,1.2,1.8,2.2c0.4,0.9,0.6,2,0.6,3.3V367.5z M430.8,366.7c0-1.5-0.3-2.7-0.9-3.5s-1.5-1.2-2.6-1.2
			c-1.1,0-1.9,0.4-2.5,1.2s-0.9,1.9-0.9,3.4v0.9c0,1.5,0.3,2.6,0.9,3.5s1.5,1.3,2.6,1.3c1.1,0,1.9-0.4,2.5-1.2s0.9-1.9,0.9-3.4
			V366.7z"/>
		<path class="st2" d="M440.6,372.6c-0.6,0.7-1.6,1.1-2.8,1.1c-1,0-1.8-0.3-2.3-0.9c-0.5-0.6-0.8-1.5-0.8-2.6V364h1.6v6.1
			c0,1.4,0.6,2.2,1.8,2.2c1.2,0,2.1-0.5,2.5-1.4V364h1.6v9.5h-1.5L440.6,372.6z"/>
		<path class="st2" d="M446.9,361.7v2.3h1.8v1.3h-1.8v5.9c0,0.4,0.1,0.7,0.2,0.9s0.4,0.3,0.8,0.3c0.2,0,0.4,0,0.8-0.1v1.3
			c-0.4,0.1-0.8,0.2-1.2,0.2c-0.7,0-1.3-0.2-1.6-0.7s-0.6-1.1-0.6-1.9v-5.9h-1.7V364h1.7v-2.3H446.9z"/>
		<path class="st2" d="M458.6,368.9c0,1.4-0.3,2.6-1,3.5s-1.6,1.3-2.7,1.3c-1.2,0-2.1-0.4-2.7-1.1v4.6h-1.6V364h1.5l0.1,1.1
			c0.7-0.8,1.6-1.2,2.8-1.2c1.1,0,2,0.4,2.7,1.3s1,2.1,1,3.6V368.9z M456.9,368.7c0-1.1-0.2-1.9-0.7-2.5s-1.1-0.9-1.9-0.9
			c-1,0-1.7,0.4-2.2,1.3v4.5c0.5,0.9,1.2,1.3,2.2,1.3c0.8,0,1.4-0.3,1.9-0.9S456.9,369.9,456.9,368.7z"/>
		<path class="st2" d="M466.5,372.6c-0.6,0.7-1.6,1.1-2.8,1.1c-1,0-1.8-0.3-2.3-0.9c-0.5-0.6-0.8-1.5-0.8-2.6V364h1.6v6.1
			c0,1.4,0.6,2.2,1.8,2.2c1.2,0,2.1-0.5,2.5-1.4V364h1.6v9.5h-1.5L466.5,372.6z"/>
		<path class="st2" d="M472.8,361.7v2.3h1.8v1.3h-1.8v5.9c0,0.4,0.1,0.7,0.2,0.9s0.4,0.3,0.8,0.3c0.2,0,0.4,0,0.8-0.1v1.3
			c-0.4,0.1-0.8,0.2-1.2,0.2c-0.7,0-1.3-0.2-1.6-0.7s-0.6-1.1-0.6-1.9v-5.9h-1.7V364h1.7v-2.3H472.8z"/>
	</g>
	<g class="st3">
		<path class="st2" d="M314.6,250.6h1.8v1.3h-1.8v3H313v-3h-5.8v-1l5.7-8.9h1.7V250.6z M309,250.6h4v-6.3l-0.2,0.4L309,250.6z"/>
	</g>
	<g class="st3">
		<path class="st2" d="M316.1,388.1h-8.4v-1.2l4.4-4.9c0.7-0.7,1.1-1.3,1.4-1.8c0.2-0.5,0.4-0.9,0.4-1.4c0-0.7-0.2-1.2-0.6-1.6
			s-0.9-0.6-1.6-0.6c-0.8,0-1.4,0.2-1.9,0.7c-0.4,0.5-0.7,1.1-0.7,1.9h-1.6c0-1.2,0.4-2.1,1.1-2.9s1.8-1.1,3-1.1
			c1.2,0,2.1,0.3,2.8,0.9c0.7,0.6,1,1.5,1,2.5c0,1.3-0.8,2.8-2.4,4.5l-3.4,3.7h6.4V388.1z"/>
	</g>
	<g class="st3">
		<path class="st2" d="M314.1,339.3v1.4h-0.3c-1.3,0-2.3,0.4-3,1.1s-1.2,1.7-1.3,3.1c0.7-0.8,1.6-1.2,2.8-1.2c1.1,0,2,0.4,2.7,1.2
			s1,1.8,1,3c0,1.3-0.4,2.4-1.1,3.2s-1.7,1.2-2.9,1.2c-1.2,0-2.2-0.5-3-1.4c-0.8-0.9-1.1-2.2-1.1-3.6v-0.6c0-2.4,0.5-4.2,1.5-5.4
			c1-1.2,2.5-1.9,4.5-1.9H314.1z M312,345c-0.6,0-1.1,0.2-1.5,0.5s-0.8,0.8-1,1.3v0.6c0,1.1,0.2,1.9,0.7,2.5s1.1,1,1.8,1
			c0.7,0,1.3-0.3,1.7-0.8s0.6-1.2,0.6-2.1c0-0.9-0.2-1.6-0.6-2.1S312.7,345,312,345z"/>
	</g>
	<g class="st3">
		<path class="st2" d="M352.5,399.9c-0.4,0.6-1,1.1-1.8,1.4c-0.8,0.3-1.7,0.5-2.7,0.5c-1,0-2-0.2-2.8-0.7c-0.8-0.5-1.4-1.2-1.9-2.1
			s-0.7-1.9-0.7-3.1v-1.1c0-1.9,0.4-3.4,1.3-4.5s2.2-1.6,3.8-1.6c1.3,0,2.4,0.3,3.2,1c0.8,0.7,1.3,1.7,1.5,2.9h-1.7
			c-0.3-1.7-1.3-2.5-3-2.5c-1.1,0-2,0.4-2.6,1.2c-0.6,0.8-0.9,1.9-0.9,3.5v1c0,1.4,0.3,2.6,1,3.4c0.7,0.8,1.5,1.3,2.7,1.3
			c0.6,0,1.2-0.1,1.7-0.2c0.5-0.1,0.9-0.4,1.2-0.7v-2.9h-3v-1.4h4.6V399.9z"/>
		<path class="st2" d="M365.1,401.6h-1.7l-6.4-9.9v9.9h-1.7v-12.8h1.7l6.5,9.9v-9.9h1.7V401.6z"/>
		<path class="st2" d="M368.1,401.6v-12.8h3.6c1.1,0,2.1,0.2,3,0.7s1.5,1.2,2,2.1s0.7,2,0.7,3.1v0.8c0,1.2-0.2,2.3-0.7,3.2
			s-1.1,1.6-2,2.1s-1.9,0.7-3,0.7H368.1z M369.8,390.2v10h1.8c1.3,0,2.3-0.4,3-1.2s1.1-2,1.1-3.5v-0.7c0-1.5-0.3-2.6-1-3.4
			c-0.7-0.8-1.7-1.2-2.9-1.2H369.8z"/>
	</g>
	<g class="st3">
		<path class="st2" d="M334.3,326.1h-4.1v11.4h-1.7v-11.4h-4.1v-1.4h9.9V326.1z"/>
		<path class="st2" d="M346.1,337.5h-1.7v-5.9h-6.5v5.9h-1.7v-12.8h1.7v5.5h6.5v-5.5h1.7V337.5z"/>
		<path class="st2" d="M353.8,332.3h-3v5.2H349v-12.8h4.2c1.4,0,2.6,0.3,3.3,1s1.2,1.6,1.2,2.9c0,0.8-0.2,1.5-0.6,2.1s-1,1-1.8,1.3
			l3,5.4v0.1h-1.8L353.8,332.3z M350.7,330.9h2.6c0.8,0,1.5-0.2,2-0.7s0.7-1,0.7-1.7c0-0.8-0.2-1.4-0.7-1.8s-1.2-0.6-2-0.6h-2.6
			V330.9z"/>
		<path class="st2" d="M367.4,331.6h-5.5v4.5h6.4v1.4h-8.1v-12.8h8v1.4h-6.4v4.1h5.5V331.6z"/>
		<path class="st2" d="M374.1,331.8c-1.4-0.4-2.5-0.9-3.2-1.5c-0.7-0.6-1-1.4-1-2.2c0-1,0.4-1.8,1.2-2.5c0.8-0.7,1.9-1,3.1-1
			c0.9,0,1.7,0.2,2.4,0.5s1.2,0.8,1.6,1.4s0.6,1.3,0.6,2h-1.7c0-0.8-0.2-1.4-0.7-1.8s-1.2-0.7-2.1-0.7c-0.8,0-1.5,0.2-1.9,0.6
			c-0.5,0.4-0.7,0.9-0.7,1.5c0,0.5,0.2,1,0.7,1.3s1.2,0.7,2.3,1c1.1,0.3,1.9,0.6,2.5,1c0.6,0.4,1,0.8,1.3,1.3s0.4,1,0.4,1.7
			c0,1-0.4,1.9-1.2,2.5c-0.8,0.6-1.9,0.9-3.2,0.9c-0.9,0-1.7-0.2-2.5-0.5c-0.8-0.3-1.3-0.8-1.8-1.4s-0.6-1.3-0.6-2h1.7
			c0,0.8,0.3,1.4,0.9,1.8c0.6,0.4,1.3,0.7,2.3,0.7c0.9,0,1.6-0.2,2-0.5s0.7-0.9,0.7-1.5s-0.2-1.1-0.7-1.5
			C376.1,332.5,375.3,332.1,374.1,331.8z"/>
	</g>
	<g class="st3">
		<path class="st2" d="M330.2,231.5h-3v5.2h-1.7v-12.8h4.2c1.4,0,2.6,0.3,3.3,1s1.2,1.6,1.2,2.9c0,0.8-0.2,1.5-0.6,2.1s-1,1-1.8,1.3
			l3,5.4v0.1H333L330.2,231.5z M327.2,230.1h2.6c0.8,0,1.5-0.2,2-0.7s0.7-1,0.7-1.7c0-0.8-0.2-1.4-0.7-1.8s-1.2-0.6-2-0.6h-2.6
			V230.1z"/>
		<path class="st2" d="M343.8,230.8h-5.5v4.5h6.4v1.4h-8.1v-12.8h8v1.4h-6.4v4.1h5.5V230.8z"/>
		<path class="st2" d="M350.6,231c-1.4-0.4-2.5-0.9-3.2-1.5c-0.7-0.6-1-1.4-1-2.2c0-1,0.4-1.8,1.2-2.5c0.8-0.7,1.9-1,3.1-1
			c0.9,0,1.7,0.2,2.4,0.5s1.2,0.8,1.6,1.4s0.6,1.3,0.6,2h-1.7c0-0.8-0.2-1.4-0.7-1.8s-1.2-0.7-2.1-0.7c-0.8,0-1.5,0.2-1.9,0.6
			c-0.5,0.4-0.7,0.9-0.7,1.5c0,0.5,0.2,1,0.7,1.3s1.2,0.7,2.3,1c1.1,0.3,1.9,0.6,2.5,1c0.6,0.4,1,0.8,1.3,1.3s0.4,1,0.4,1.7
			c0,1-0.4,1.9-1.2,2.5c-0.8,0.6-1.9,0.9-3.2,0.9c-0.9,0-1.7-0.2-2.5-0.5c-0.8-0.3-1.3-0.8-1.8-1.4s-0.6-1.3-0.6-2h1.7
			c0,0.8,0.3,1.4,0.9,1.8c0.6,0.4,1.3,0.7,2.3,0.7c0.9,0,1.6-0.2,2-0.5s0.7-0.9,0.7-1.5s-0.2-1.1-0.7-1.5
			C352.5,231.7,351.7,231.3,350.6,231z"/>
	</g>
	<g class="st3">
		<path class="st2" d="M364.7,230.8h-5.5v4.5h6.4v1.4h-8.1v-12.8h8v1.4h-6.4v4.1h5.5V230.8z"/>
	</g>
	<g class="st3">
		<path class="st2" d="M376.7,225.3h-4.1v11.4h-1.7v-11.4h-4.1v-1.4h9.9V225.3z"/>
	</g>
	<g class="st3">
		<path class="st2" d="M333.6,362.1h-4.1v11.4h-1.7v-11.4h-4.1v-1.4h9.9V362.1z"/>
		<path class="st2" d="M340.2,368.3h-3v5.2h-1.7v-12.8h4.2c1.4,0,2.5,0.3,3.3,1s1.2,1.6,1.2,2.9c0,0.8-0.2,1.5-0.6,2.1s-1,1-1.8,1.3
			l3,5.4v0.1H343L340.2,368.3z M337.2,366.9h2.6c0.8,0,1.5-0.2,2-0.7s0.7-1,0.7-1.7c0-0.8-0.2-1.4-0.7-1.8s-1.2-0.6-2-0.6h-2.6
			V366.9z"/>
		<path class="st2" d="M348.4,373.5h-1.7v-12.8h1.7V373.5z"/>
		<path class="st2" d="M360.9,371.8c-0.4,0.6-1,1.1-1.8,1.4c-0.8,0.3-1.7,0.5-2.7,0.5c-1,0-2-0.2-2.8-0.7c-0.8-0.5-1.4-1.2-1.9-2.1
			s-0.7-1.9-0.7-3.1v-1.1c0-1.9,0.4-3.4,1.3-4.5s2.2-1.6,3.8-1.6c1.3,0,2.4,0.3,3.2,1c0.8,0.7,1.3,1.7,1.5,2.9h-1.7
			c-0.3-1.7-1.3-2.5-3-2.5c-1.1,0-2,0.4-2.6,1.2c-0.6,0.8-0.9,1.9-0.9,3.5v1c0,1.4,0.3,2.6,1,3.4c0.7,0.8,1.5,1.3,2.7,1.3
			c0.6,0,1.2-0.1,1.7-0.2c0.5-0.1,0.9-0.4,1.2-0.7v-2.9h-3v-1.4h4.6V371.8z"/>
	</g>
	<g class="st3">
		<path class="st2" d="M325.5,301.5v-12.8h3.6c1.1,0,2.1,0.2,3,0.7s1.5,1.2,2,2.1s0.7,2,0.7,3.1v0.8c0,1.2-0.2,2.3-0.7,3.2
			s-1.1,1.6-2,2.1s-1.9,0.7-3,0.7H325.5z M327.2,290.1v10h1.8c1.3,0,2.3-0.4,3-1.2s1.1-2,1.1-3.5v-0.7c0-1.5-0.3-2.6-1-3.4
			c-0.7-0.8-1.7-1.2-2.9-1.2H327.2z"/>
		<path class="st2" d="M339.1,301.5h-1.7v-12.8h1.7V301.5z"/>
		<path class="st2" d="M346,295.8c-1.4-0.4-2.5-0.9-3.2-1.5c-0.7-0.6-1-1.4-1-2.2c0-1,0.4-1.8,1.2-2.5c0.8-0.7,1.9-1,3.1-1
			c0.9,0,1.7,0.2,2.4,0.5s1.2,0.8,1.6,1.4s0.6,1.3,0.6,2H349c0-0.8-0.2-1.4-0.7-1.8s-1.2-0.7-2.1-0.7c-0.8,0-1.5,0.2-1.9,0.6
			c-0.5,0.4-0.7,0.9-0.7,1.5c0,0.5,0.2,1,0.7,1.3s1.2,0.7,2.3,1c1.1,0.3,1.9,0.6,2.5,1c0.6,0.4,1,0.8,1.3,1.3s0.4,1,0.4,1.7
			c0,1-0.4,1.9-1.2,2.5c-0.8,0.6-1.9,0.9-3.2,0.9c-0.9,0-1.7-0.2-2.5-0.5c-0.8-0.3-1.3-0.8-1.8-1.4s-0.6-1.3-0.6-2h1.7
			c0,0.8,0.3,1.4,0.9,1.8c0.6,0.4,1.3,0.7,2.3,0.7c0.9,0,1.6-0.2,2-0.5s0.7-0.9,0.7-1.5s-0.2-1.1-0.7-1.5
			C347.9,296.5,347.1,296.1,346,295.8z"/>
		<path class="st2" d="M362.3,297.4c-0.2,1.4-0.7,2.4-1.5,3.1c-0.8,0.7-2,1.1-3.4,1.1c-1.5,0-2.7-0.5-3.6-1.6s-1.4-2.5-1.4-4.4v-1.2
			c0-1.2,0.2-2.2,0.6-3.1s1-1.6,1.8-2.1c0.8-0.5,1.7-0.7,2.7-0.7c1.4,0,2.4,0.4,3.3,1.1s1.3,1.8,1.4,3.2h-1.7c-0.1-1-0.5-1.8-1-2.2
			c-0.5-0.5-1.2-0.7-2.1-0.7c-1.1,0-1.9,0.4-2.5,1.2s-0.9,1.9-0.9,3.4v1.2c0,1.4,0.3,2.5,0.9,3.3s1.4,1.2,2.4,1.2
			c0.9,0,1.7-0.2,2.2-0.6c0.5-0.4,0.8-1.2,1-2.2H362.3z"/>
		<path class="st2" d="M374.4,301.5h-1.7v-5.9h-6.5v5.9h-1.7v-12.8h1.7v5.5h6.5v-5.5h1.7V301.5z"/>
	</g>
	<g class="st3">
		<path class="st2" d="M259.3,534.5c-0.4,0.6-1,1.1-1.8,1.4c-0.8,0.3-1.7,0.5-2.7,0.5c-1,0-2-0.2-2.8-0.7c-0.8-0.5-1.4-1.2-1.9-2.1
			s-0.7-1.9-0.7-3.1v-1.1c0-1.9,0.4-3.4,1.3-4.5s2.2-1.6,3.8-1.6c1.3,0,2.4,0.3,3.2,1c0.8,0.7,1.3,1.7,1.5,2.9h-1.7
			c-0.3-1.7-1.3-2.5-3-2.5c-1.1,0-2,0.4-2.6,1.2c-0.6,0.8-0.9,1.9-0.9,3.5v1c0,1.4,0.3,2.6,1,3.4c0.7,0.8,1.5,1.3,2.7,1.3
			c0.6,0,1.2-0.1,1.7-0.2c0.5-0.1,0.9-0.4,1.2-0.7v-2.9h-3v-1.4h4.6V534.5z"/>
		<path class="st2" d="M272,536.2h-1.7l-6.4-9.9v9.9h-1.7v-12.8h1.7l6.5,9.9v-9.9h1.7V536.2z"/>
		<path class="st2" d="M275,536.2v-12.8h3.6c1.1,0,2.1,0.2,3,0.7s1.5,1.2,2,2.1s0.7,2,0.7,3.1v0.8c0,1.2-0.2,2.3-0.7,3.2
			s-1.1,1.6-2,2.1s-1.9,0.7-3,0.7H275z M276.7,524.8v10h1.8c1.3,0,2.3-0.4,3-1.2s1.1-2,1.1-3.5v-0.7c0-1.5-0.3-2.6-1-3.4
			c-0.7-0.8-1.7-1.2-2.9-1.2H276.7z"/>
	</g>
	<g class="st3">
		<path class="st2" d="M155.9,60.9l3.7-10.6h1.8l-4.7,12.8h-1.5l-4.7-12.8h1.8L155.9,60.9z"/>
	</g>
	<g class="st3">
		<path class="st2" d="M167.9,66.8c-0.1,0.8-0.4,1.4-0.9,1.8c-0.5,0.4-1.1,0.6-1.9,0.6c-0.9,0-1.6-0.3-2.1-0.9
			c-0.5-0.6-0.8-1.5-0.8-2.5v-0.7c0-0.7,0.1-1.3,0.4-1.8c0.2-0.5,0.6-0.9,1-1.2c0.5-0.3,1-0.4,1.6-0.4c0.8,0,1.4,0.2,1.9,0.7
			c0.5,0.4,0.8,1,0.8,1.8h-1c-0.1-0.6-0.3-1-0.6-1.3c-0.3-0.3-0.7-0.4-1.2-0.4c-0.6,0-1.1,0.2-1.5,0.7c-0.4,0.5-0.5,1.1-0.5,2v0.7
			c0,0.8,0.2,1.4,0.5,1.9s0.8,0.7,1.4,0.7c0.5,0,1-0.1,1.3-0.4s0.5-0.7,0.6-1.3H167.9z"/>
		<path class="st2" d="M174.7,66.8c-0.1,0.8-0.4,1.4-0.9,1.8c-0.5,0.4-1.1,0.6-1.9,0.6c-0.9,0-1.6-0.3-2.1-0.9
			c-0.5-0.6-0.8-1.5-0.8-2.5v-0.7c0-0.7,0.1-1.3,0.4-1.8c0.2-0.5,0.6-0.9,1-1.2c0.5-0.3,1-0.4,1.6-0.4c0.8,0,1.4,0.2,1.9,0.7
			c0.5,0.4,0.8,1,0.8,1.8h-1c-0.1-0.6-0.3-1-0.6-1.3c-0.3-0.3-0.7-0.4-1.2-0.4c-0.6,0-1.1,0.2-1.5,0.7c-0.4,0.5-0.5,1.1-0.5,2v0.7
			c0,0.8,0.2,1.4,0.5,1.9s0.8,0.7,1.4,0.7c0.5,0,1-0.1,1.3-0.4s0.5-0.7,0.6-1.3H174.7z"/>
	</g>
	<g class="st3">
		<path class="st2" d="M374.3,424.1h-1.6v-10.8l-3.3,1.2V413l4.7-1.7h0.3V424.1z"/>
	</g>
	<g class="st3">
		<path class="st2" d="M445.3,417.7l0.7-6.4h6.6v1.5h-5.2l-0.4,3.5c0.6-0.4,1.3-0.6,2.1-0.6c1.2,0,2.1,0.4,2.8,1.2
			c0.7,0.8,1,1.8,1,3.1c0,1.3-0.4,2.4-1.1,3.1c-0.7,0.8-1.7,1.1-3,1.1c-1.1,0-2.1-0.3-2.8-0.9s-1.1-1.5-1.2-2.6h1.5
			c0.1,0.7,0.4,1.3,0.8,1.7s1,0.6,1.7,0.6c0.8,0,1.3-0.3,1.8-0.8s0.6-1.2,0.6-2.1c0-0.9-0.2-1.5-0.7-2.1c-0.5-0.5-1.1-0.8-1.9-0.8
			c-0.7,0-1.3,0.2-1.7,0.5l-0.4,0.4L445.3,417.7z"/>
	</g>
	<g class="st3">
		<path class="st2" d="M452.3,187.8c0,0.6-0.2,1.2-0.5,1.7s-0.8,0.9-1.4,1.2c0.7,0.3,1.2,0.7,1.6,1.3s0.6,1.2,0.6,1.9
			c0,1.1-0.4,2-1.1,2.6s-1.7,1-2.9,1c-1.2,0-2.2-0.3-3-1c-0.7-0.7-1.1-1.5-1.1-2.6c0-0.7,0.2-1.3,0.6-1.9s0.9-1,1.6-1.3
			c-0.6-0.3-1-0.7-1.3-1.2s-0.5-1.1-0.5-1.7c0-1.1,0.3-1.9,1-2.6s1.6-0.9,2.7-0.9c1.1,0,2,0.3,2.7,0.9S452.3,186.7,452.3,187.8z
			 M451,193.8c0-0.7-0.2-1.3-0.7-1.7s-1-0.7-1.8-0.7s-1.3,0.2-1.8,0.7s-0.7,1-0.7,1.8s0.2,1.3,0.6,1.7s1,0.6,1.8,0.6
			c0.8,0,1.4-0.2,1.8-0.6S451,194.5,451,193.8z M448.5,185.6c-0.6,0-1.2,0.2-1.6,0.6c-0.4,0.4-0.6,0.9-0.6,1.6
			c0,0.7,0.2,1.2,0.6,1.6c0.4,0.4,0.9,0.6,1.6,0.6s1.2-0.2,1.6-0.6c0.4-0.4,0.6-0.9,0.6-1.6s-0.2-1.2-0.6-1.6
			S449.2,185.6,448.5,185.6z"/>
	</g>
	<g class="st3">
		<path class="st2" d="M438.5,399c-0.2,1.4-0.7,2.4-1.5,3.1c-0.8,0.7-2,1.1-3.4,1.1c-1.5,0-2.7-0.5-3.6-1.6s-1.4-2.5-1.4-4.4V396
			c0-1.2,0.2-2.2,0.6-3.1s1-1.6,1.8-2.1c0.8-0.5,1.7-0.7,2.7-0.7c1.4,0,2.4,0.4,3.3,1.1c0.8,0.8,1.3,1.8,1.4,3.2h-1.7
			c-0.1-1-0.5-1.8-1-2.2s-1.2-0.7-2.1-0.7c-1.1,0-1.9,0.4-2.5,1.2c-0.6,0.8-0.9,1.9-0.9,3.4v1.2c0,1.4,0.3,2.5,0.9,3.3
			c0.6,0.8,1.4,1.2,2.4,1.2c0.9,0,1.7-0.2,2.2-0.6c0.5-0.4,0.8-1.2,1-2.2H438.5z"/>
		<path class="st2" d="M445.1,400.8l3.7-10.6h1.8l-4.7,12.8h-1.5l-4.7-12.8h1.8L445.1,400.8z"/>
	</g>
	<g class="st3">
		<path class="st2" d="M316,304.2l-5.3,11.9H309l5.3-11.5h-6.9v-1.3h8.6V304.2z"/>
	</g>
	<g class="st3">
		<path class="st2" d="M778,367.5c0,1.3-0.2,2.3-0.6,3.3c-0.4,0.9-1,1.6-1.8,2.1s-1.7,0.7-2.7,0.7c-1,0-1.9-0.2-2.7-0.7
			s-1.4-1.2-1.8-2.1c-0.4-0.9-0.7-2-0.7-3.2v-0.9c0-1.2,0.2-2.3,0.6-3.3s1-1.7,1.8-2.2c0.8-0.5,1.7-0.8,2.7-0.8c1,0,1.9,0.2,2.7,0.7
			c0.8,0.5,1.4,1.2,1.8,2.2c0.4,0.9,0.6,2,0.6,3.3V367.5z M776.4,366.7c0-1.5-0.3-2.7-0.9-3.5s-1.5-1.2-2.6-1.2
			c-1.1,0-1.9,0.4-2.5,1.2s-0.9,1.9-0.9,3.4v0.9c0,1.5,0.3,2.6,0.9,3.5s1.5,1.3,2.6,1.3c1.1,0,1.9-0.4,2.5-1.2s0.9-1.9,0.9-3.4
			V366.7z"/>
		<path class="st2" d="M786.2,372.6c-0.6,0.7-1.6,1.1-2.8,1.1c-1,0-1.8-0.3-2.3-0.9c-0.5-0.6-0.8-1.5-0.8-2.6V364h1.6v6.1
			c0,1.4,0.6,2.2,1.8,2.2c1.2,0,2.1-0.5,2.5-1.4V364h1.6v9.5h-1.5L786.2,372.6z"/>
		<path class="st2" d="M792.5,361.7v2.3h1.8v1.3h-1.8v5.9c0,0.4,0.1,0.7,0.2,0.9s0.4,0.3,0.8,0.3c0.2,0,0.4,0,0.8-0.1v1.3
			c-0.4,0.1-0.8,0.2-1.2,0.2c-0.7,0-1.3-0.2-1.6-0.7s-0.6-1.1-0.6-1.9v-5.9h-1.7V364h1.7v-2.3H792.5z"/>
		<path class="st2" d="M804.2,368.9c0,1.4-0.3,2.6-1,3.5s-1.6,1.3-2.7,1.3c-1.2,0-2.1-0.4-2.7-1.1v4.6h-1.6V364h1.5l0.1,1.1
			c0.7-0.8,1.6-1.2,2.8-1.2c1.1,0,2,0.4,2.7,1.3s1,2.1,1,3.6V368.9z M802.5,368.7c0-1.1-0.2-1.9-0.7-2.5s-1.1-0.9-1.9-0.9
			c-1,0-1.7,0.4-2.2,1.3v4.5c0.5,0.9,1.2,1.3,2.2,1.3c0.8,0,1.4-0.3,1.9-0.9S802.5,369.9,802.5,368.7z"/>
		<path class="st2" d="M812.1,372.6c-0.6,0.7-1.6,1.1-2.8,1.1c-1,0-1.8-0.3-2.3-0.9c-0.5-0.6-0.8-1.5-0.8-2.6V364h1.6v6.1
			c0,1.4,0.6,2.2,1.8,2.2c1.2,0,2.1-0.5,2.5-1.4V364h1.6v9.5h-1.5L812.1,372.6z"/>
		<path class="st2" d="M818.4,361.7v2.3h1.8v1.3h-1.8v5.9c0,0.4,0.1,0.7,0.2,0.9s0.4,0.3,0.8,0.3c0.2,0,0.4,0,0.8-0.1v1.3
			c-0.4,0.1-0.8,0.2-1.2,0.2c-0.7,0-1.3-0.2-1.6-0.7s-0.6-1.1-0.6-1.9v-5.9H815V364h1.7v-2.3H818.4z"/>
	</g>
	<g class="st3">
		<path class="st2" d="M663.8,250.6h1.8v1.3h-1.8v3h-1.6v-3h-5.8v-1l5.7-8.9h1.7V250.6z M658.2,250.6h4v-6.3l-0.2,0.4L658.2,250.6z"
			/>
	</g>
	<g class="st3">
		<path class="st2" d="M665.3,388.1H657v-1.2l4.4-4.9c0.7-0.7,1.1-1.3,1.4-1.8c0.2-0.5,0.4-0.9,0.4-1.4c0-0.7-0.2-1.2-0.6-1.6
			s-0.9-0.6-1.6-0.6c-0.8,0-1.4,0.2-1.9,0.7c-0.4,0.5-0.7,1.1-0.7,1.9h-1.6c0-1.2,0.4-2.1,1.1-2.9s1.8-1.1,3-1.1
			c1.2,0,2.1,0.3,2.8,0.9c0.7,0.6,1,1.5,1,2.5c0,1.3-0.8,2.8-2.4,4.5l-3.4,3.7h6.4V388.1z"/>
	</g>
	<g class="st3">
		<path class="st2" d="M663.3,339.3v1.4H663c-1.3,0-2.3,0.4-3,1.1s-1.2,1.7-1.3,3.1c0.7-0.8,1.6-1.2,2.8-1.2c1.1,0,2,0.4,2.7,1.2
			s1,1.8,1,3c0,1.3-0.4,2.4-1.1,3.2s-1.7,1.2-2.9,1.2c-1.2,0-2.2-0.5-3-1.4c-0.8-0.9-1.1-2.2-1.1-3.6v-0.6c0-2.4,0.5-4.2,1.5-5.4
			c1-1.2,2.5-1.9,4.5-1.9H663.3z M661.2,345c-0.6,0-1.1,0.2-1.5,0.5s-0.8,0.8-1,1.3v0.6c0,1.1,0.2,1.9,0.7,2.5s1.1,1,1.8,1
			c0.7,0,1.3-0.3,1.7-0.8s0.6-1.2,0.6-2.1c0-0.9-0.2-1.6-0.6-2.1S661.9,345,661.2,345z"/>
	</g>
	<g class="st3">
		<path class="st2" d="M112.7,231.6l3.7-10.6h1.8l-4.7,12.8h-1.5l-4.7-12.8h1.8L112.7,231.6z"/>
		<path class="st2" d="M124.6,228.6h-3v5.2h-1.7V221h4.2c1.4,0,2.6,0.3,3.3,1s1.2,1.6,1.2,2.9c0,0.8-0.2,1.5-0.6,2.1s-1,1-1.8,1.3
			l3,5.4v0.1h-1.8L124.6,228.6z M121.6,227.3h2.6c0.8,0,1.5-0.2,2-0.7s0.7-1,0.7-1.7c0-0.8-0.2-1.4-0.7-1.8s-1.2-0.6-2-0.6h-2.6
			V227.3z"/>
	</g>
	<g class="st3">
		<path class="st2" d="M133.2,239.8h-0.9v-6.3l-1.9,0.7v-0.9l2.7-1h0.1V239.8z"/>
	</g>
	<g class="st3">
		<path class="st2" d="M701.7,399.9c-0.4,0.6-1,1.1-1.8,1.4c-0.8,0.3-1.7,0.5-2.7,0.5c-1,0-2-0.2-2.8-0.7c-0.8-0.5-1.4-1.2-1.9-2.1
			c-0.4-0.9-0.7-1.9-0.7-3.1v-1.1c0-1.9,0.4-3.4,1.3-4.5c0.9-1.1,2.2-1.6,3.8-1.6c1.3,0,2.4,0.3,3.2,1c0.8,0.7,1.3,1.7,1.5,2.9H700
			c-0.3-1.7-1.3-2.5-3-2.5c-1.1,0-2,0.4-2.6,1.2c-0.6,0.8-0.9,1.9-0.9,3.5v1c0,1.4,0.3,2.6,1,3.4c0.7,0.8,1.5,1.3,2.7,1.3
			c0.6,0,1.2-0.1,1.7-0.2c0.5-0.1,0.9-0.4,1.2-0.7v-2.9h-3v-1.4h4.6V399.9z"/>
		<path class="st2" d="M714.3,401.6h-1.7l-6.4-9.9v9.9h-1.7v-12.8h1.7l6.5,9.9v-9.9h1.7V401.6z"/>
		<path class="st2" d="M717.3,401.6v-12.8h3.6c1.1,0,2.1,0.2,3,0.7s1.5,1.2,2,2.1c0.5,0.9,0.7,2,0.7,3.1v0.8c0,1.2-0.2,2.3-0.7,3.2
			c-0.5,0.9-1.1,1.6-2,2.1c-0.9,0.5-1.9,0.7-3,0.7H717.3z M719,390.2v10h1.8c1.3,0,2.3-0.4,3-1.2c0.7-0.8,1.1-2,1.1-3.5v-0.7
			c0-1.5-0.3-2.6-1-3.4c-0.7-0.8-1.7-1.2-2.9-1.2H719z"/>
	</g>
	<g class="st3">
		<path class="st2" d="M683.5,326.1h-4.1v11.4h-1.7v-11.4h-4.1v-1.4h9.9V326.1z"/>
		<path class="st2" d="M695.3,337.5h-1.7v-5.9h-6.5v5.9h-1.7v-12.8h1.7v5.5h6.5v-5.5h1.7V337.5z"/>
		<path class="st2" d="M703,332.3h-3v5.2h-1.7v-12.8h4.2c1.4,0,2.5,0.3,3.3,1s1.2,1.6,1.2,2.9c0,0.8-0.2,1.5-0.6,2.1s-1,1-1.8,1.3
			l3,5.4v0.1h-1.8L703,332.3z M699.9,330.9h2.6c0.8,0,1.5-0.2,2-0.7s0.7-1,0.7-1.7c0-0.8-0.2-1.4-0.7-1.8s-1.2-0.6-2-0.6h-2.6V330.9
			z"/>
		<path class="st2" d="M716.6,331.6H711v4.5h6.4v1.4h-8.1v-12.8h8v1.4H711v4.1h5.5V331.6z"/>
		<path class="st2" d="M723.3,331.8c-1.4-0.4-2.5-0.9-3.2-1.5c-0.7-0.6-1-1.4-1-2.2c0-1,0.4-1.8,1.2-2.5c0.8-0.7,1.9-1,3.1-1
			c0.9,0,1.7,0.2,2.4,0.5s1.2,0.8,1.6,1.4s0.6,1.3,0.6,2h-1.7c0-0.8-0.2-1.4-0.7-1.8s-1.2-0.7-2.1-0.7c-0.8,0-1.5,0.2-1.9,0.6
			c-0.5,0.4-0.7,0.9-0.7,1.5c0,0.5,0.2,1,0.7,1.3s1.2,0.7,2.3,1c1.1,0.3,1.9,0.6,2.5,1c0.6,0.4,1,0.8,1.3,1.3s0.4,1,0.4,1.7
			c0,1-0.4,1.9-1.2,2.5c-0.8,0.6-1.9,0.9-3.2,0.9c-0.9,0-1.7-0.2-2.5-0.5c-0.8-0.3-1.3-0.8-1.8-1.4s-0.6-1.3-0.6-2h1.7
			c0,0.8,0.3,1.4,0.9,1.8c0.6,0.4,1.3,0.7,2.3,0.7c0.9,0,1.6-0.2,2-0.5s0.7-0.9,0.7-1.5s-0.2-1.1-0.7-1.5
			C725.3,332.5,724.5,332.1,723.3,331.8z"/>
	</g>
	<g class="st3">
		<path class="st2" d="M679.4,231.5h-3v5.2h-1.7v-12.8h4.2c1.4,0,2.5,0.3,3.3,1s1.2,1.6,1.2,2.9c0,0.8-0.2,1.5-0.6,2.1s-1,1-1.8,1.3
			l3,5.4v0.1h-1.8L679.4,231.5z M676.4,230.1h2.6c0.8,0,1.5-0.2,2-0.7s0.7-1,0.7-1.7c0-0.8-0.2-1.4-0.7-1.8s-1.2-0.6-2-0.6h-2.6
			V230.1z"/>
		<path class="st2" d="M693,230.8h-5.5v4.5h6.4v1.4h-8.1v-12.8h8v1.4h-6.4v4.1h5.5V230.8z"/>
		<path class="st2" d="M699.8,231c-1.4-0.4-2.5-0.9-3.2-1.5c-0.7-0.6-1-1.4-1-2.2c0-1,0.4-1.8,1.2-2.5c0.8-0.7,1.9-1,3.1-1
			c0.9,0,1.7,0.2,2.4,0.5s1.2,0.8,1.6,1.4s0.6,1.3,0.6,2h-1.7c0-0.8-0.2-1.4-0.7-1.8s-1.2-0.7-2.1-0.7c-0.8,0-1.5,0.2-1.9,0.6
			c-0.5,0.4-0.7,0.9-0.7,1.5c0,0.5,0.2,1,0.7,1.3s1.2,0.7,2.3,1c1.1,0.3,1.9,0.6,2.5,1c0.6,0.4,1,0.8,1.3,1.3s0.4,1,0.4,1.7
			c0,1-0.4,1.9-1.2,2.5c-0.8,0.6-1.9,0.9-3.2,0.9c-0.9,0-1.7-0.2-2.5-0.5c-0.8-0.3-1.3-0.8-1.8-1.4s-0.6-1.3-0.6-2h1.7
			c0,0.8,0.3,1.4,0.9,1.8c0.6,0.4,1.3,0.7,2.3,0.7c0.9,0,1.6-0.2,2-0.5s0.7-0.9,0.7-1.5s-0.2-1.1-0.7-1.5
			C701.7,231.7,700.9,231.3,699.8,231z"/>
	</g>
	<g class="st3">
		<path class="st2" d="M713.9,230.8h-5.5v4.5h6.4v1.4h-8.1v-12.8h8v1.4h-6.4v4.1h5.5V230.8z"/>
	</g>
	<g class="st3">
		<path class="st2" d="M725.9,225.3h-4.1v11.4h-1.7v-11.4H716v-1.4h9.9V225.3z"/>
	</g>
	<g class="st3">
		<path class="st2" d="M682.8,362.1h-4.1v11.4H677v-11.4h-4.1v-1.4h9.9V362.1z"/>
		<path class="st2" d="M689.4,368.3h-3v5.2h-1.7v-12.8h4.2c1.4,0,2.5,0.3,3.3,1s1.2,1.6,1.2,2.9c0,0.8-0.2,1.5-0.6,2.1s-1,1-1.8,1.3
			l3,5.4v0.1h-1.8L689.4,368.3z M686.4,366.9h2.6c0.8,0,1.5-0.2,2-0.7s0.7-1,0.7-1.7c0-0.8-0.2-1.4-0.7-1.8s-1.2-0.6-2-0.6h-2.6
			V366.9z"/>
		<path class="st2" d="M697.6,373.5h-1.7v-12.8h1.7V373.5z"/>
		<path class="st2" d="M710.1,371.8c-0.4,0.6-1,1.1-1.8,1.4c-0.8,0.3-1.7,0.5-2.7,0.5c-1,0-2-0.2-2.8-0.7c-0.8-0.5-1.4-1.2-1.9-2.1
			s-0.7-1.9-0.7-3.1v-1.1c0-1.9,0.4-3.4,1.3-4.5s2.2-1.6,3.8-1.6c1.3,0,2.4,0.3,3.2,1c0.8,0.7,1.3,1.7,1.5,2.9h-1.7
			c-0.3-1.7-1.3-2.5-3-2.5c-1.1,0-2,0.4-2.6,1.2c-0.6,0.8-0.9,1.9-0.9,3.5v1c0,1.4,0.3,2.6,1,3.4c0.7,0.8,1.5,1.3,2.7,1.3
			c0.6,0,1.2-0.1,1.7-0.2c0.5-0.1,0.9-0.4,1.2-0.7v-2.9h-3v-1.4h4.6V371.8z"/>
	</g>
	<g class="st3">
		<path class="st2" d="M674.7,301.5v-12.8h3.6c1.1,0,2.1,0.2,3,0.7s1.5,1.2,2,2.1s0.7,2,0.7,3.1v0.8c0,1.2-0.2,2.3-0.7,3.2
			s-1.1,1.6-2,2.1s-1.9,0.7-3,0.7H674.7z M676.4,290.1v10h1.8c1.3,0,2.3-0.4,3-1.2s1.1-2,1.1-3.5v-0.7c0-1.5-0.3-2.6-1-3.4
			c-0.7-0.8-1.7-1.2-2.9-1.2H676.4z"/>
		<path class="st2" d="M688.3,301.5h-1.7v-12.8h1.7V301.5z"/>
		<path class="st2" d="M695.2,295.8c-1.4-0.4-2.5-0.9-3.2-1.5c-0.7-0.6-1-1.4-1-2.2c0-1,0.4-1.8,1.2-2.5c0.8-0.7,1.9-1,3.1-1
			c0.9,0,1.7,0.2,2.4,0.5s1.2,0.8,1.6,1.4s0.6,1.3,0.6,2h-1.7c0-0.8-0.2-1.4-0.7-1.8s-1.2-0.7-2.1-0.7c-0.8,0-1.5,0.2-1.9,0.6
			c-0.5,0.4-0.7,0.9-0.7,1.5c0,0.5,0.2,1,0.7,1.3s1.2,0.7,2.3,1c1.1,0.3,1.9,0.6,2.5,1c0.6,0.4,1,0.8,1.3,1.3s0.4,1,0.4,1.7
			c0,1-0.4,1.9-1.2,2.5c-0.8,0.6-1.9,0.9-3.2,0.9c-0.9,0-1.7-0.2-2.5-0.5c-0.8-0.3-1.3-0.8-1.8-1.4s-0.6-1.3-0.6-2h1.7
			c0,0.8,0.3,1.4,0.9,1.8c0.6,0.4,1.3,0.7,2.3,0.7c0.9,0,1.6-0.2,2-0.5s0.7-0.9,0.7-1.5s-0.2-1.1-0.7-1.5
			C697.1,296.5,696.3,296.1,695.2,295.8z"/>
		<path class="st2" d="M711.5,297.4c-0.2,1.4-0.7,2.4-1.5,3.1c-0.8,0.7-2,1.1-3.4,1.1c-1.5,0-2.7-0.5-3.6-1.6s-1.4-2.5-1.4-4.4v-1.2
			c0-1.2,0.2-2.2,0.6-3.1s1-1.6,1.8-2.1c0.8-0.5,1.7-0.7,2.7-0.7c1.4,0,2.4,0.4,3.3,1.1s1.3,1.8,1.4,3.2h-1.7c-0.1-1-0.5-1.8-1-2.2
			c-0.5-0.5-1.2-0.7-2.1-0.7c-1.1,0-1.9,0.4-2.5,1.2s-0.9,1.9-0.9,3.4v1.2c0,1.4,0.3,2.5,0.9,3.3s1.4,1.2,2.4,1.2
			c0.9,0,1.7-0.2,2.2-0.6c0.5-0.4,0.8-1.2,1-2.2H711.5z"/>
		<path class="st2" d="M723.6,301.5h-1.7v-5.9h-6.5v5.9h-1.7v-12.8h1.7v5.5h6.5v-5.5h1.7V301.5z"/>
	</g>
	<g class="st3">
		<path class="st2" d="M723.5,424.1h-1.6v-10.8l-3.3,1.2V413l4.7-1.7h0.3V424.1z"/>
	</g>
	<g class="st3">
		<path class="st2" d="M794.5,417.7l0.7-6.4h6.6v1.5h-5.2l-0.4,3.5c0.6-0.4,1.3-0.6,2.1-0.6c1.2,0,2.1,0.4,2.8,1.2
			c0.7,0.8,1,1.8,1,3.1c0,1.3-0.4,2.4-1.1,3.1c-0.7,0.8-1.7,1.1-3,1.1c-1.1,0-2.1-0.3-2.8-0.9s-1.1-1.5-1.2-2.6h1.5
			c0.1,0.7,0.4,1.3,0.8,1.7s1,0.6,1.7,0.6c0.8,0,1.3-0.3,1.8-0.8s0.6-1.2,0.6-2.1c0-0.9-0.2-1.5-0.7-2.1c-0.5-0.5-1.1-0.8-1.9-0.8
			c-0.7,0-1.3,0.2-1.7,0.5l-0.4,0.4L794.5,417.7z"/>
	</g>
	<g class="st3">
		<path class="st2" d="M787.7,399c-0.2,1.4-0.7,2.4-1.5,3.1c-0.8,0.7-2,1.1-3.4,1.1c-1.5,0-2.7-0.5-3.6-1.6s-1.4-2.5-1.4-4.4V396
			c0-1.2,0.2-2.2,0.6-3.1s1-1.6,1.8-2.1c0.8-0.5,1.7-0.7,2.7-0.7c1.4,0,2.4,0.4,3.3,1.1c0.8,0.8,1.3,1.8,1.4,3.2H786
			c-0.1-1-0.5-1.8-1-2.2s-1.2-0.7-2.1-0.7c-1.1,0-1.9,0.4-2.5,1.2c-0.6,0.8-0.9,1.9-0.9,3.4v1.2c0,1.4,0.3,2.5,0.9,3.3
			c0.6,0.8,1.4,1.2,2.4,1.2c0.9,0,1.7-0.2,2.2-0.6c0.5-0.4,0.8-1.2,1-2.2H787.7z"/>
		<path class="st2" d="M794.3,400.8l3.7-10.6h1.8L795,403h-1.5l-4.7-12.8h1.8L794.3,400.8z"/>
	</g>
	<g class="st3">
		<path class="st2" d="M835.7,380.9h1.2c0.8,0,1.4-0.2,1.8-0.6s0.7-0.9,0.7-1.6c0-1.5-0.7-2.2-2.2-2.2c-0.7,0-1.3,0.2-1.7,0.6
			c-0.4,0.4-0.6,0.9-0.6,1.6h-1.6c0-1,0.4-1.9,1.1-2.5c0.7-0.7,1.7-1,2.8-1c1.2,0,2.2,0.3,2.8,1s1,1.5,1,2.7c0,0.6-0.2,1.1-0.5,1.6
			c-0.4,0.5-0.9,0.9-1.5,1.2c0.7,0.2,1.2,0.6,1.6,1.1c0.4,0.5,0.6,1.1,0.6,1.9c0,1.1-0.4,2.1-1.1,2.7s-1.7,1-2.9,1s-2.2-0.3-2.9-1
			c-0.8-0.7-1.1-1.5-1.1-2.6h1.6c0,0.7,0.2,1.2,0.7,1.6s1,0.6,1.8,0.6c0.8,0,1.4-0.2,1.8-0.6s0.6-1,0.6-1.8c0-0.7-0.2-1.3-0.7-1.7
			s-1.1-0.6-2-0.6h-1.2V380.9z"/>
	</g>
	<g class="st3">
		<path class="st2" d="M665.2,304.2l-5.3,11.9h-1.7l5.3-11.5h-6.9v-1.3h8.6V304.2z"/>
	</g>
	<g class="st3">
		<path class="st2" d="M549.7,233.7l3.7-10.6h1.8l-4.7,12.8H549l-4.7-12.8h1.8L549.7,233.7z"/>
		<path class="st2" d="M561.6,230.8h-3v5.2h-1.7v-12.8h4.2c1.4,0,2.6,0.3,3.3,1s1.2,1.6,1.2,2.9c0,0.8-0.2,1.5-0.6,2.1s-1,1-1.8,1.3
			l3,5.4v0.1h-1.8L561.6,230.8z M558.6,229.4h2.6c0.8,0,1.5-0.2,2-0.7s0.7-1,0.7-1.7c0-0.8-0.2-1.4-0.7-1.8s-1.2-0.6-2-0.6h-2.6
			V229.4z"/>
	</g>
	<g class="st3">
		<path class="st2" d="M572,242h-4.9v-0.7l2.6-2.9c0.4-0.4,0.6-0.8,0.8-1.1c0.1-0.3,0.2-0.5,0.2-0.8c0-0.4-0.1-0.7-0.4-1
			c-0.2-0.2-0.5-0.4-0.9-0.4c-0.5,0-0.8,0.1-1.1,0.4s-0.4,0.6-0.4,1.1H567c0-0.7,0.2-1.2,0.7-1.7c0.4-0.4,1-0.6,1.8-0.6
			c0.7,0,1.2,0.2,1.6,0.5c0.4,0.4,0.6,0.8,0.6,1.4c0,0.7-0.5,1.6-1.4,2.6l-2,2.2h3.7V242z"/>
	</g>
	<g class="st3">
		<path class="st2" d="M207.4,361.8h-3v5.2h-1.7v-12.8h4.2c1.4,0,2.6,0.3,3.3,1s1.2,1.6,1.2,2.9c0,0.8-0.2,1.5-0.6,2.1s-1,1-1.8,1.3
			l3,5.4v0.1h-1.8L207.4,361.8z M204.4,360.5h2.6c0.8,0,1.5-0.2,2-0.7c0.5-0.4,0.7-1,0.7-1.7c0-0.8-0.2-1.4-0.7-1.8
			c-0.5-0.4-1.2-0.6-2-0.6h-2.6V360.5z"/>
	</g>
	<g class="st3">
		<path class="st2" d="M216,373H215v-6.3l-1.9,0.7v-0.9l2.7-1h0.1V373z"/>
	</g>
	<g class="st3">
		<path class="st2" d="M240.2,447.9c-0.2,1.4-0.7,2.4-1.5,3.1c-0.8,0.7-2,1.1-3.4,1.1c-1.5,0-2.7-0.5-3.6-1.6s-1.4-2.5-1.4-4.3v-1.2
			c0-1.2,0.2-2.2,0.6-3.1s1-1.6,1.8-2.1c0.8-0.5,1.7-0.7,2.7-0.7c1.4,0,2.4,0.4,3.3,1.1c0.8,0.8,1.3,1.8,1.4,3.2h-1.7
			c-0.1-1-0.5-1.8-1-2.2c-0.5-0.5-1.2-0.7-2.1-0.7c-1.1,0-1.9,0.4-2.5,1.2c-0.6,0.8-0.9,1.9-0.9,3.4v1.2c0,1.4,0.3,2.5,0.9,3.3
			c0.6,0.8,1.4,1.2,2.4,1.2c0.9,0,1.7-0.2,2.2-0.6c0.5-0.4,0.8-1.2,1-2.2H240.2z"/>
	</g>
	<g class="st3">
		<path class="st2" d="M244.8,458h-0.9v-6.3l-1.9,0.7v-0.9l2.7-1h0.1V458z"/>
	</g>
	<g class="st3">
		<path class="st2" d="M352.9,534.5c-0.4,0.6-1,1.1-1.8,1.4c-0.8,0.3-1.7,0.5-2.7,0.5c-1,0-2-0.2-2.8-0.7c-0.8-0.5-1.4-1.2-1.9-2.1
			s-0.7-1.9-0.7-3.1v-1.1c0-1.9,0.4-3.4,1.3-4.5s2.2-1.6,3.8-1.6c1.3,0,2.4,0.3,3.2,1c0.8,0.7,1.3,1.7,1.5,2.9h-1.7
			c-0.3-1.7-1.3-2.5-3-2.5c-1.1,0-2,0.4-2.6,1.2c-0.6,0.8-0.9,1.9-0.9,3.5v1c0,1.4,0.3,2.6,1,3.4c0.7,0.8,1.5,1.3,2.7,1.3
			c0.6,0,1.2-0.1,1.7-0.2c0.5-0.1,0.9-0.4,1.2-0.7v-2.9h-3v-1.4h4.6V534.5z"/>
		<path class="st2" d="M365.6,536.2h-1.7l-6.4-9.9v9.9h-1.7v-12.8h1.7l6.5,9.9v-9.9h1.7V536.2z"/>
		<path class="st2" d="M368.6,536.2v-12.8h3.6c1.1,0,2.1,0.2,3,0.7s1.5,1.2,2,2.1s0.7,2,0.7,3.1v0.8c0,1.2-0.2,2.3-0.7,3.2
			s-1.1,1.6-2,2.1s-1.9,0.7-3,0.7H368.6z M370.3,524.8v10h1.8c1.3,0,2.3-0.4,3-1.2s1.1-2,1.1-3.5v-0.7c0-1.5-0.3-2.6-1-3.4
			c-0.7-0.8-1.7-1.2-2.9-1.2H370.3z"/>
	</g>
	<g class="st3">
		<path class="st2" d="M699.3,534.5c-0.4,0.6-1,1.1-1.8,1.4c-0.8,0.3-1.7,0.5-2.7,0.5c-1,0-2-0.2-2.8-0.7c-0.8-0.5-1.4-1.2-1.9-2.1
			s-0.7-1.9-0.7-3.1v-1.1c0-1.9,0.4-3.4,1.3-4.5s2.2-1.6,3.8-1.6c1.3,0,2.4,0.3,3.2,1c0.8,0.7,1.3,1.7,1.5,2.9h-1.7
			c-0.3-1.7-1.3-2.5-3-2.5c-1.1,0-2,0.4-2.6,1.2c-0.6,0.8-0.9,1.9-0.9,3.5v1c0,1.4,0.3,2.6,1,3.4c0.7,0.8,1.5,1.3,2.7,1.3
			c0.6,0,1.2-0.1,1.7-0.2c0.5-0.1,0.9-0.4,1.2-0.7v-2.9h-3v-1.4h4.6V534.5z"/>
		<path class="st2" d="M711.9,536.2h-1.7l-6.4-9.9v9.9h-1.7v-12.8h1.7l6.5,9.9v-9.9h1.7V536.2z"/>
		<path class="st2" d="M714.9,536.2v-12.8h3.6c1.1,0,2.1,0.2,3,0.7s1.5,1.2,2,2.1s0.7,2,0.7,3.1v0.8c0,1.2-0.2,2.3-0.7,3.2
			s-1.1,1.6-2,2.1s-1.9,0.7-3,0.7H714.9z M716.6,524.8v10h1.8c1.3,0,2.3-0.4,3-1.2s1.1-2,1.1-3.5v-0.7c0-1.5-0.3-2.6-1-3.4
			c-0.7-0.8-1.7-1.2-2.9-1.2H716.6z"/>
	</g>
	<g class="st3">
		<path class="st2" d="M486.5,380.9h1.2c0.8,0,1.4-0.2,1.8-0.6s0.7-0.9,0.7-1.6c0-1.5-0.7-2.2-2.2-2.2c-0.7,0-1.3,0.2-1.7,0.6
			c-0.4,0.4-0.6,0.9-0.6,1.6H484c0-1,0.4-1.9,1.1-2.5c0.7-0.7,1.7-1,2.8-1c1.2,0,2.2,0.3,2.8,1s1,1.5,1,2.7c0,0.6-0.2,1.1-0.5,1.6
			s-0.9,0.9-1.5,1.2c0.7,0.2,1.2,0.6,1.6,1.1s0.6,1.1,0.6,1.9c0,1.1-0.4,2.1-1.1,2.7s-1.7,1-2.9,1s-2.2-0.3-2.9-1s-1.1-1.5-1.1-2.6
			h1.6c0,0.7,0.2,1.2,0.7,1.6s1,0.6,1.8,0.6c0.8,0,1.4-0.2,1.8-0.6s0.6-1,0.6-1.8c0-0.7-0.2-1.3-0.7-1.7s-1.1-0.6-2-0.6h-1.2V380.9z
			"/>
	</g>
	<g class="st3">
		<path class="st2" d="M801.5,187.8c0,0.6-0.2,1.2-0.5,1.7s-0.8,0.9-1.4,1.2c0.7,0.3,1.2,0.7,1.6,1.3s0.6,1.2,0.6,1.9
			c0,1.1-0.4,2-1.1,2.6s-1.7,1-2.9,1c-1.2,0-2.2-0.3-3-1c-0.7-0.7-1.1-1.5-1.1-2.6c0-0.7,0.2-1.3,0.6-1.9s0.9-1,1.6-1.3
			c-0.6-0.3-1-0.7-1.3-1.2s-0.5-1.1-0.5-1.7c0-1.1,0.3-1.9,1-2.6s1.6-0.9,2.7-0.9c1.1,0,2,0.3,2.7,0.9S801.5,186.7,801.5,187.8z
			 M800.2,193.8c0-0.7-0.2-1.3-0.7-1.7s-1-0.7-1.8-0.7s-1.3,0.2-1.8,0.7s-0.7,1-0.7,1.8s0.2,1.3,0.6,1.7s1,0.6,1.8,0.6
			c0.8,0,1.4-0.2,1.8-0.6S800.2,194.5,800.2,193.8z M797.7,185.6c-0.6,0-1.2,0.2-1.6,0.6c-0.4,0.4-0.6,0.9-0.6,1.6
			c0,0.7,0.2,1.2,0.6,1.6c0.4,0.4,0.9,0.6,1.6,0.6s1.2-0.2,1.6-0.6c0.4-0.4,0.6-0.9,0.6-1.6s-0.2-1.2-0.6-1.6
			S798.4,185.6,797.7,185.6z"/>
	</g>
	<g class="st3">
		<path class="st2" d="M281.9,64.5l3.7-10.6h1.8l-4.7,12.8h-1.5L276.4,54h1.8L281.9,64.5z"/>
	</g>
	<g class="st3">
		<path class="st2" d="M293.9,70.4c-0.1,0.8-0.4,1.4-0.9,1.8c-0.5,0.4-1.1,0.6-1.9,0.6c-0.9,0-1.6-0.3-2.1-0.9
			c-0.5-0.6-0.8-1.5-0.8-2.5v-0.7c0-0.7,0.1-1.3,0.4-1.8c0.2-0.5,0.6-0.9,1-1.2c0.5-0.3,1-0.4,1.6-0.4c0.8,0,1.4,0.2,1.9,0.7
			c0.5,0.4,0.8,1,0.8,1.8h-1c-0.1-0.6-0.3-1-0.6-1.3c-0.3-0.3-0.7-0.4-1.2-0.4c-0.6,0-1.1,0.2-1.5,0.7c-0.4,0.5-0.5,1.1-0.5,2v0.7
			c0,0.8,0.2,1.4,0.5,1.9s0.8,0.7,1.4,0.7c0.5,0,1-0.1,1.3-0.4s0.5-0.7,0.6-1.3H293.9z"/>
		<path class="st2" d="M300.7,70.4c-0.1,0.8-0.4,1.4-0.9,1.8c-0.5,0.4-1.1,0.6-1.9,0.6c-0.9,0-1.6-0.3-2.1-0.9
			c-0.5-0.6-0.8-1.5-0.8-2.5v-0.7c0-0.7,0.1-1.3,0.4-1.8c0.2-0.5,0.6-0.9,1-1.2c0.5-0.3,1-0.4,1.6-0.4c0.8,0,1.4,0.2,1.9,0.7
			c0.5,0.4,0.8,1,0.8,1.8h-1c-0.1-0.6-0.3-1-0.6-1.3c-0.3-0.3-0.7-0.4-1.2-0.4c-0.6,0-1.1,0.2-1.5,0.7c-0.4,0.5-0.5,1.1-0.5,2v0.7
			c0,0.8,0.2,1.4,0.5,1.9s0.8,0.7,1.4,0.7c0.5,0,1-0.1,1.3-0.4s0.5-0.7,0.6-1.3H300.7z"/>
	</g>
	<g class="st3">
		<path class="st2" d="M440.3,64.5l3.7-10.6h1.8L441,66.8h-1.5L434.8,54h1.8L440.3,64.5z"/>
	</g>
	<g class="st3">
		<path class="st2" d="M452.3,70.4c-0.1,0.8-0.4,1.4-0.9,1.8c-0.5,0.4-1.1,0.6-1.9,0.6c-0.9,0-1.6-0.3-2.1-0.9
			c-0.5-0.6-0.8-1.5-0.8-2.5v-0.7c0-0.7,0.1-1.3,0.4-1.8c0.2-0.5,0.6-0.9,1-1.2c0.5-0.3,1-0.4,1.6-0.4c0.8,0,1.4,0.2,1.9,0.7
			c0.5,0.4,0.8,1,0.8,1.8h-1c-0.1-0.6-0.3-1-0.6-1.3c-0.3-0.3-0.7-0.4-1.2-0.4c-0.6,0-1.1,0.2-1.5,0.7c-0.4,0.5-0.5,1.1-0.5,2v0.7
			c0,0.8,0.2,1.4,0.5,1.9s0.8,0.7,1.4,0.7c0.5,0,1-0.1,1.3-0.4s0.5-0.7,0.6-1.3H452.3z"/>
		<path class="st2" d="M459.1,70.4c-0.1,0.8-0.4,1.4-0.9,1.8c-0.5,0.4-1.1,0.6-1.9,0.6c-0.9,0-1.6-0.3-2.1-0.9
			c-0.5-0.6-0.8-1.5-0.8-2.5v-0.7c0-0.7,0.1-1.3,0.4-1.8c0.2-0.5,0.6-0.9,1-1.2c0.5-0.3,1-0.4,1.6-0.4c0.8,0,1.4,0.2,1.9,0.7
			c0.5,0.4,0.8,1,0.8,1.8h-1c-0.1-0.6-0.3-1-0.6-1.3c-0.3-0.3-0.7-0.4-1.2-0.4c-0.6,0-1.1,0.2-1.5,0.7c-0.4,0.5-0.5,1.1-0.5,2v0.7
			c0,0.8,0.2,1.4,0.5,1.9s0.8,0.7,1.4,0.7c0.5,0,1-0.1,1.3-0.4s0.5-0.7,0.6-1.3H459.1z"/>
	</g>
	<g class="st3">
		<path class="st2" d="M630.4,65.3l3.7-10.6h1.8l-4.7,12.8h-1.5l-4.7-12.8h1.8L630.4,65.3z"/>
	</g>
	<g class="st3">
		<path class="st2" d="M642.4,71.1c-0.1,0.8-0.4,1.4-0.9,1.8c-0.5,0.4-1.1,0.6-1.9,0.6c-0.9,0-1.6-0.3-2.1-0.9
			c-0.5-0.6-0.8-1.5-0.8-2.5v-0.7c0-0.7,0.1-1.3,0.4-1.8s0.6-0.9,1-1.2s1-0.4,1.6-0.4c0.8,0,1.4,0.2,1.9,0.7c0.5,0.4,0.8,1,0.8,1.8
			h-1c-0.1-0.6-0.3-1-0.6-1.3c-0.3-0.3-0.7-0.4-1.2-0.4c-0.6,0-1.1,0.2-1.5,0.7c-0.4,0.5-0.5,1.1-0.5,2v0.7c0,0.8,0.2,1.4,0.5,1.9
			s0.8,0.7,1.4,0.7c0.5,0,1-0.1,1.3-0.4c0.3-0.2,0.5-0.7,0.6-1.3H642.4z"/>
		<path class="st2" d="M649.2,71.1c-0.1,0.8-0.4,1.4-0.9,1.8c-0.5,0.4-1.1,0.6-1.9,0.6c-0.9,0-1.6-0.3-2.1-0.9
			c-0.5-0.6-0.8-1.5-0.8-2.5v-0.7c0-0.7,0.1-1.3,0.4-1.8c0.2-0.5,0.6-0.9,1-1.2c0.5-0.3,1-0.4,1.6-0.4c0.8,0,1.4,0.2,1.9,0.7
			c0.5,0.4,0.8,1,0.8,1.8h-1c-0.1-0.6-0.3-1-0.6-1.3c-0.3-0.3-0.7-0.4-1.2-0.4c-0.6,0-1.1,0.2-1.5,0.7c-0.4,0.5-0.5,1.1-0.5,2v0.7
			c0,0.8,0.2,1.4,0.5,1.9c0.3,0.5,0.8,0.7,1.4,0.7c0.5,0,1-0.1,1.3-0.4s0.5-0.7,0.6-1.3H649.2z"/>
	</g>
	<g class="st3">
		<path class="st2" d="M789.5,64.5l3.7-10.6h1.8l-4.7,12.8h-1.5L784,54h1.8L789.5,64.5z"/>
	</g>
	<g class="st3">
		<path class="st2" d="M801.5,70.4c-0.1,0.8-0.4,1.4-0.9,1.8c-0.5,0.4-1.1,0.6-1.9,0.6c-0.9,0-1.6-0.3-2.1-0.9
			c-0.5-0.6-0.8-1.5-0.8-2.5v-0.7c0-0.7,0.1-1.3,0.4-1.8c0.2-0.5,0.6-0.9,1-1.2c0.5-0.3,1-0.4,1.6-0.4c0.8,0,1.4,0.2,1.9,0.7
			c0.5,0.4,0.8,1,0.8,1.8h-1c-0.1-0.6-0.3-1-0.6-1.3c-0.3-0.3-0.7-0.4-1.2-0.4c-0.6,0-1.1,0.2-1.5,0.7c-0.4,0.5-0.5,1.1-0.5,2v0.7
			c0,0.8,0.2,1.4,0.5,1.9s0.8,0.7,1.4,0.7c0.5,0,1-0.1,1.3-0.4c0.3-0.2,0.5-0.7,0.6-1.3H801.5z"/>
		<path class="st2" d="M808.3,70.4c-0.1,0.8-0.4,1.4-0.9,1.8c-0.5,0.4-1.1,0.6-1.9,0.6c-0.9,0-1.6-0.3-2.1-0.9
			c-0.5-0.6-0.8-1.5-0.8-2.5v-0.7c0-0.7,0.1-1.3,0.4-1.8s0.6-0.9,1-1.2c0.5-0.3,1-0.4,1.6-0.4c0.8,0,1.4,0.2,1.9,0.7
			c0.5,0.4,0.8,1,0.8,1.8h-1c-0.1-0.6-0.3-1-0.6-1.3c-0.3-0.3-0.7-0.4-1.2-0.4c-0.6,0-1.1,0.2-1.5,0.7c-0.4,0.5-0.5,1.1-0.5,2v0.7
			c0,0.8,0.2,1.4,0.5,1.9c0.3,0.5,0.8,0.7,1.4,0.7c0.5,0,1-0.1,1.3-0.4s0.5-0.7,0.6-1.3H808.3z"/>
	</g>
	<g class="st3">
		<path class="st2" d="M813.5,573.3c-1-0.3-1.7-0.6-2.1-1s-0.7-0.9-0.7-1.5c0-0.7,0.3-1.2,0.8-1.7s1.2-0.7,2.1-0.7
			c0.6,0,1.1,0.1,1.6,0.3s0.8,0.5,1.1,0.9s0.4,0.8,0.4,1.3h-1.1c0-0.5-0.2-0.9-0.5-1.2s-0.8-0.4-1.4-0.4c-0.6,0-1,0.1-1.3,0.4
			c-0.3,0.2-0.5,0.6-0.5,1c0,0.3,0.1,0.6,0.4,0.9c0.3,0.2,0.8,0.5,1.5,0.7c0.7,0.2,1.3,0.4,1.7,0.7s0.7,0.5,0.9,0.8s0.3,0.7,0.3,1.1
			c0,0.7-0.3,1.2-0.8,1.7s-1.3,0.6-2.2,0.6c-0.6,0-1.1-0.1-1.6-0.3s-0.9-0.5-1.2-0.9s-0.4-0.8-0.4-1.3h1.1c0,0.5,0.2,0.9,0.6,1.2
			s0.9,0.4,1.5,0.4c0.6,0,1-0.1,1.4-0.4s0.5-0.6,0.5-1s-0.1-0.7-0.4-1S814.3,573.5,813.5,573.3z"/>
		<path class="st2" d="M819.4,569.2v1.5h1.2v0.8h-1.2v3.9c0,0.3,0.1,0.4,0.2,0.6s0.3,0.2,0.5,0.2c0.1,0,0.3,0,0.5-0.1v0.9
			c-0.3,0.1-0.6,0.1-0.8,0.1c-0.5,0-0.8-0.1-1.1-0.4s-0.4-0.7-0.4-1.2v-3.9h-1.2v-0.8h1.2v-1.5H819.4z"/>
		<path class="st2" d="M824.5,577.2c-0.9,0-1.6-0.3-2.1-0.8s-0.8-1.3-0.8-2.3v-0.2c0-0.6,0.1-1.2,0.4-1.7s0.6-0.9,1-1.2
			s0.9-0.4,1.4-0.4c0.8,0,1.5,0.3,1.9,0.8s0.7,1.3,0.7,2.3v0.5h-4.3c0,0.6,0.2,1.1,0.5,1.5s0.8,0.6,1.3,0.6c0.4,0,0.7-0.1,1-0.2
			s0.5-0.4,0.7-0.6l0.7,0.5C826.3,576.8,825.6,577.2,824.5,577.2z M824.4,571.5c-0.4,0-0.8,0.2-1.1,0.5s-0.5,0.8-0.6,1.3h3.2v-0.1
			c0-0.6-0.2-1-0.4-1.3S824.8,571.5,824.4,571.5z"/>
		<path class="st2" d="M833.6,574c0,1-0.2,1.7-0.7,2.3s-1,0.9-1.8,0.9c-0.8,0-1.4-0.2-1.8-0.7v3.1h-1.1v-8.8h1l0.1,0.7
			c0.4-0.5,1.1-0.8,1.8-0.8c0.8,0,1.4,0.3,1.8,0.9S833.6,572.9,833.6,574L833.6,574z M832.5,573.9c0-0.7-0.2-1.3-0.5-1.7
			s-0.7-0.6-1.3-0.6c-0.7,0-1.1,0.3-1.5,0.9v3c0.3,0.6,0.8,0.9,1.5,0.9c0.5,0,0.9-0.2,1.2-0.6S832.5,574.7,832.5,573.9z"/>
		<path class="st2" d="M840.3,574c0,1-0.2,1.7-0.7,2.3s-1,0.9-1.8,0.9c-0.8,0-1.4-0.2-1.8-0.7v3.1h-1.1v-8.8h1l0.1,0.7
			c0.4-0.5,1.1-0.8,1.8-0.8c0.8,0,1.4,0.3,1.8,0.9S840.3,572.9,840.3,574L840.3,574z M839.2,573.9c0-0.7-0.2-1.3-0.5-1.7
			s-0.7-0.6-1.3-0.6c-0.7,0-1.1,0.3-1.5,0.9v3c0.3,0.6,0.8,0.9,1.5,0.9c0.5,0,0.9-0.2,1.2-0.6S839.2,574.7,839.2,573.9z"/>
		<path class="st2" d="M844.3,577.2c-0.9,0-1.6-0.3-2.1-0.8s-0.8-1.3-0.8-2.3v-0.2c0-0.6,0.1-1.2,0.4-1.7s0.6-0.9,1-1.2
			s0.9-0.4,1.4-0.4c0.8,0,1.5,0.3,1.9,0.8s0.7,1.3,0.7,2.3v0.5h-4.3c0,0.6,0.2,1.1,0.5,1.5s0.8,0.6,1.3,0.6c0.4,0,0.7-0.1,1-0.2
			s0.5-0.4,0.7-0.6l0.7,0.5C846.2,576.8,845.4,577.2,844.3,577.2z M844.2,571.5c-0.4,0-0.8,0.2-1.1,0.5s-0.5,0.8-0.6,1.3h3.2v-0.1
			c0-0.6-0.2-1-0.4-1.3S844.6,571.5,844.2,571.5z"/>
		<path class="st2" d="M847.8,573.9c0-1,0.2-1.8,0.7-2.3s1.1-0.9,1.8-0.9c0.7,0,1.3,0.3,1.8,0.8v-3.3h1.1v9h-1l-0.1-0.7
			c-0.4,0.5-1,0.8-1.8,0.8c-0.7,0-1.3-0.3-1.8-0.9S847.8,574.9,847.8,573.9L847.8,573.9z M848.9,574c0,0.7,0.1,1.3,0.4,1.7
			s0.7,0.6,1.2,0.6c0.7,0,1.2-0.3,1.5-0.9v-2.9c-0.3-0.6-0.8-0.9-1.5-0.9c-0.5,0-0.9,0.2-1.2,0.6S848.9,573.2,848.9,574z"/>
		<path class="st2" d="M857.1,573.9h-2.9V573h2.9V573.9z"/>
	</g>
	<g class="st3">
		<path class="st2" d="M864.2,569.5h-2.7v7.6h-1.1v-7.6h-2.7v-0.9h6.6V569.5z"/>
	</g>
	<g class="st3">
		<path class="st2" d="M864.4,573.9c0-0.6,0.1-1.2,0.4-1.7s0.6-0.9,1-1.1s0.9-0.4,1.5-0.4c0.9,0,1.6,0.3,2.1,0.9s0.8,1.4,0.8,2.4
			v0.1c0,0.6-0.1,1.2-0.4,1.7s-0.6,0.9-1,1.1s-0.9,0.4-1.5,0.4c-0.9,0-1.6-0.3-2.1-0.9S864.4,574.9,864.4,573.9L864.4,573.9z
			 M865.5,574c0,0.7,0.2,1.3,0.5,1.7s0.8,0.6,1.3,0.6c0.6,0,1-0.2,1.3-0.6s0.5-1,0.5-1.8c0-0.7-0.2-1.3-0.5-1.7s-0.8-0.6-1.3-0.6
			c-0.5,0-1,0.2-1.3,0.6S865.5,573.2,865.5,574z"/>
		<path class="st2" d="M872.6,570.7l0,0.8c0.5-0.6,1.1-0.9,1.9-0.9c1.3,0,2,0.8,2,2.3v4.2h-1.1v-4.2c0-0.5-0.1-0.8-0.3-1
			s-0.5-0.3-1-0.3c-0.4,0-0.7,0.1-0.9,0.3s-0.5,0.4-0.6,0.7v4.5h-1.1v-6.3H872.6z"/>
		<path class="st2" d="M880.8,577.2c-0.9,0-1.6-0.3-2.1-0.8s-0.8-1.3-0.8-2.3v-0.2c0-0.6,0.1-1.2,0.4-1.7s0.6-0.9,1-1.2
			s0.9-0.4,1.4-0.4c0.8,0,1.5,0.3,1.9,0.8s0.7,1.3,0.7,2.3v0.5H879c0,0.6,0.2,1.1,0.5,1.5s0.8,0.6,1.3,0.6c0.4,0,0.7-0.1,1-0.2
			s0.5-0.4,0.7-0.6l0.7,0.5C882.7,576.8,881.9,577.2,880.8,577.2z M880.7,571.5c-0.4,0-0.8,0.2-1.1,0.5s-0.5,0.8-0.6,1.3h3.2v-0.1
			c0-0.6-0.2-1-0.4-1.3S881.1,571.5,880.7,571.5z"/>
		<path class="st2" d="M894,576c-0.3,0.4-0.7,0.7-1.2,0.9s-1.1,0.3-1.8,0.3c-0.7,0-1.3-0.2-1.9-0.5s-1-0.8-1.3-1.4s-0.4-1.3-0.5-2.1
			v-0.7c0-1.3,0.3-2.3,0.9-3s1.4-1.1,2.5-1.1c0.9,0,1.6,0.2,2.2,0.7s0.9,1.1,1,1.9h-1.1c-0.2-1.1-0.9-1.7-2-1.7
			c-0.8,0-1.3,0.3-1.7,0.8c-0.4,0.5-0.6,1.3-0.6,2.3v0.7c0,1,0.2,1.7,0.7,2.3c0.4,0.6,1,0.8,1.8,0.8c0.4,0,0.8,0,1.1-0.1
			c0.3-0.1,0.6-0.3,0.8-0.5v-1.9h-2v-0.9h3.1V576z"/>
		<path class="st2" d="M898.3,577.2c-0.9,0-1.6-0.3-2.1-0.8s-0.8-1.3-0.8-2.3v-0.2c0-0.6,0.1-1.2,0.4-1.7s0.6-0.9,1-1.2
			s0.9-0.4,1.4-0.4c0.8,0,1.5,0.3,1.9,0.8s0.7,1.3,0.7,2.3v0.5h-4.3c0,0.6,0.2,1.1,0.5,1.5s0.8,0.6,1.3,0.6c0.4,0,0.7-0.1,1-0.2
			s0.5-0.4,0.7-0.6l0.7,0.5C900.2,576.8,899.4,577.2,898.3,577.2z M898.2,571.5c-0.4,0-0.8,0.2-1.1,0.5s-0.5,0.8-0.6,1.3h3.2v-0.1
			c0-0.6-0.2-1-0.4-1.3S898.6,571.5,898.2,571.5z"/>
		<path class="st2" d="M903,570.7l0,0.8c0.5-0.6,1.1-0.9,1.9-0.9c1.3,0,2,0.8,2,2.3v4.2h-1.1v-4.2c0-0.5-0.1-0.8-0.3-1
			s-0.5-0.3-1-0.3c-0.4,0-0.7,0.1-0.9,0.3s-0.5,0.4-0.6,0.7v4.5H902v-6.3H903z"/>
		<path class="st2" d="M911.3,577.2c-0.9,0-1.6-0.3-2.1-0.8s-0.8-1.3-0.8-2.3v-0.2c0-0.6,0.1-1.2,0.4-1.7s0.6-0.9,1-1.2
			s0.9-0.4,1.4-0.4c0.8,0,1.5,0.3,1.9,0.8s0.7,1.3,0.7,2.3v0.5h-4.3c0,0.6,0.2,1.1,0.5,1.5s0.8,0.6,1.3,0.6c0.4,0,0.7-0.1,1-0.2
			s0.5-0.4,0.7-0.6l0.7,0.5C913.1,576.8,912.3,577.2,911.3,577.2z M911.1,571.5c-0.4,0-0.8,0.2-1.1,0.5s-0.5,0.8-0.6,1.3h3.2v-0.1
			c0-0.6-0.2-1-0.4-1.3S911.6,571.5,911.1,571.5z"/>
	</g>
	<g class="st3">
		<path class="st2" d="M918.1,571.7c-0.2,0-0.3,0-0.5,0c-0.7,0-1.2,0.3-1.4,0.9v4.5H915v-6.3h1.1l0,0.7c0.4-0.6,0.9-0.8,1.5-0.8
			c0.2,0,0.4,0,0.5,0.1V571.7z"/>
	</g>
	<g class="st3">
		<path class="st2" d="M922.7,577.1c-0.1-0.1-0.1-0.3-0.2-0.7c-0.5,0.5-1.1,0.8-1.8,0.8c-0.6,0-1.1-0.2-1.5-0.5s-0.6-0.8-0.6-1.3
			c0-0.7,0.3-1.2,0.8-1.5s1.2-0.5,2.1-0.5h1.1v-0.5c0-0.4-0.1-0.7-0.3-0.9s-0.6-0.3-1-0.3c-0.4,0-0.7,0.1-1,0.3s-0.4,0.4-0.4,0.7
			h-1.1c0-0.3,0.1-0.6,0.3-0.9s0.5-0.5,0.9-0.7s0.8-0.3,1.3-0.3c0.7,0,1.3,0.2,1.7,0.5s0.6,0.9,0.6,1.5v2.9c0,0.6,0.1,1,0.2,1.4v0.1
			H922.7z M920.9,576.3c0.3,0,0.7-0.1,1-0.3s0.5-0.4,0.7-0.7V574h-0.8c-1.3,0-2,0.4-2,1.2c0,0.3,0.1,0.6,0.3,0.8
			S920.6,576.3,920.9,576.3z"/>
	</g>
	<g class="st3">
		<path class="st2" d="M926.8,569.2v1.5h1.2v0.8h-1.2v3.9c0,0.3,0.1,0.4,0.2,0.6s0.3,0.2,0.5,0.2c0.1,0,0.3,0,0.5-0.1v0.9
			c-0.3,0.1-0.6,0.1-0.8,0.1c-0.5,0-0.8-0.1-1.1-0.4s-0.4-0.7-0.4-1.2v-3.9h-1.2v-0.8h1.2v-1.5H926.8z"/>
	</g>
	<g class="st3">
		<path class="st2" d="M928.9,573.9c0-0.6,0.1-1.2,0.4-1.7s0.6-0.9,1-1.1s0.9-0.4,1.5-0.4c0.9,0,1.6,0.3,2.1,0.9s0.8,1.4,0.8,2.4
			v0.1c0,0.6-0.1,1.2-0.4,1.7s-0.6,0.9-1,1.1s-0.9,0.4-1.5,0.4c-0.9,0-1.6-0.3-2.1-0.9S928.9,574.9,928.9,573.9L928.9,573.9z
			 M930,574c0,0.7,0.2,1.3,0.5,1.7s0.8,0.6,1.3,0.6c0.6,0,1-0.2,1.3-0.6s0.5-1,0.5-1.8c0-0.7-0.2-1.3-0.5-1.7s-0.8-0.6-1.3-0.6
			c-0.5,0-1,0.2-1.3,0.6S930,573.2,930,574z"/>
		<path class="st2" d="M939.1,571.7c-0.2,0-0.3,0-0.5,0c-0.7,0-1.2,0.3-1.4,0.9v4.5H936v-6.3h1.1l0,0.7c0.4-0.6,0.9-0.8,1.5-0.8
			c0.2,0,0.4,0,0.5,0.1V571.7z"/>
		<path class="st2" d="M946.9,577.1c-0.1-0.1-0.1-0.3-0.2-0.7c-0.5,0.5-1.1,0.8-1.8,0.8c-0.6,0-1.1-0.2-1.5-0.5s-0.6-0.8-0.6-1.3
			c0-0.7,0.3-1.2,0.8-1.5s1.2-0.5,2.1-0.5h1.1v-0.5c0-0.4-0.1-0.7-0.3-0.9s-0.6-0.3-1-0.3c-0.4,0-0.7,0.1-1,0.3s-0.4,0.4-0.4,0.7
			H943c0-0.3,0.1-0.6,0.3-0.9s0.5-0.5,0.9-0.7s0.8-0.3,1.3-0.3c0.7,0,1.3,0.2,1.7,0.5s0.6,0.9,0.6,1.5v2.9c0,0.6,0.1,1,0.2,1.4v0.1
			H946.9z M945.2,576.3c0.3,0,0.7-0.1,1-0.3s0.5-0.4,0.7-0.7V574h-0.8c-1.3,0-2,0.4-2,1.2c0,0.3,0.1,0.6,0.3,0.8
			S944.8,576.3,945.2,576.3z"/>
		<path class="st2" d="M950.1,577.1v-5.5h-1v-0.8h1v-0.7c0-0.7,0.2-1.2,0.5-1.6s0.9-0.6,1.5-0.6c0.2,0,0.5,0,0.7,0.1l-0.1,0.9
			c-0.2,0-0.4-0.1-0.6-0.1c-0.4,0-0.6,0.1-0.8,0.3s-0.3,0.5-0.3,0.9v0.7h1.4v0.8h-1.4v5.5H950.1z"/>
		<path class="st2" d="M955.2,569.2v1.5h1.2v0.8h-1.2v3.9c0,0.3,0.1,0.4,0.2,0.6s0.3,0.2,0.5,0.2c0.1,0,0.3,0,0.5-0.1v0.9
			c-0.3,0.1-0.6,0.1-0.8,0.1c-0.5,0-0.8-0.1-1.1-0.4s-0.4-0.7-0.4-1.2v-3.9H953v-0.8h1.2v-1.5H955.2z"/>
		<path class="st2" d="M960.3,577.2c-0.9,0-1.6-0.3-2.1-0.8s-0.8-1.3-0.8-2.3v-0.2c0-0.6,0.1-1.2,0.4-1.7s0.6-0.9,1-1.2
			s0.9-0.4,1.4-0.4c0.8,0,1.5,0.3,1.9,0.8s0.7,1.3,0.7,2.3v0.5h-4.3c0,0.6,0.2,1.1,0.5,1.5s0.8,0.6,1.3,0.6c0.4,0,0.7-0.1,1-0.2
			s0.5-0.4,0.7-0.6l0.7,0.5C962.1,576.8,961.3,577.2,960.3,577.2z M960.1,571.5c-0.4,0-0.8,0.2-1.1,0.5s-0.5,0.8-0.6,1.3h3.2v-0.1
			c0-0.6-0.2-1-0.4-1.3S960.6,571.5,960.1,571.5z"/>
		<path class="st2" d="M967.1,571.7c-0.2,0-0.3,0-0.5,0c-0.7,0-1.2,0.3-1.4,0.9v4.5H964v-6.3h1.1l0,0.7c0.4-0.6,0.9-0.8,1.5-0.8
			c0.2,0,0.4,0,0.5,0.1V571.7z"/>
	</g>
	<g class="st3">
		<path class="st2" d="M975.9,573.3h-3.6v3.8h-1.1v-8.5h5.3v0.9h-4.2v2.9h3.6V573.3z"/>
	</g>
	<g class="st3">
		<path class="st2" d="M977.3,573.9c0-0.6,0.1-1.2,0.4-1.7s0.6-0.9,1-1.1s0.9-0.4,1.5-0.4c0.9,0,1.6,0.3,2.1,0.9s0.8,1.4,0.8,2.4
			v0.1c0,0.6-0.1,1.2-0.4,1.7s-0.6,0.9-1,1.1s-0.9,0.4-1.5,0.4c-0.9,0-1.6-0.3-2.1-0.9S977.3,574.9,977.3,573.9L977.3,573.9z
			 M978.3,574c0,0.7,0.2,1.3,0.5,1.7s0.8,0.6,1.3,0.6c0.6,0,1-0.2,1.3-0.6s0.5-1,0.5-1.8c0-0.7-0.2-1.3-0.5-1.7s-0.8-0.6-1.3-0.6
			c-0.5,0-1,0.2-1.3,0.6S978.3,573.2,978.3,574z"/>
		<path class="st2" d="M987.4,571.7c-0.2,0-0.3,0-0.5,0c-0.7,0-1.2,0.3-1.4,0.9v4.5h-1.1v-6.3h1.1l0,0.7c0.4-0.6,0.9-0.8,1.5-0.8
			c0.2,0,0.4,0,0.5,0.1V571.7z"/>
	</g>
	<g class="st3">
		<path class="st2" d="M991.5,571.7c-0.2,0-0.3,0-0.5,0c-0.7,0-1.2,0.3-1.4,0.9v4.5h-1.1v-6.3h1.1l0,0.7c0.4-0.6,0.9-0.8,1.5-0.8
			c0.2,0,0.4,0,0.5,0.1V571.7z"/>
	</g>
	<g class="st3">
		<path class="st2" d="M995,577.2c-0.9,0-1.6-0.3-2.1-0.8s-0.8-1.3-0.8-2.3v-0.2c0-0.6,0.1-1.2,0.4-1.7s0.6-0.9,1-1.2
			s0.9-0.4,1.4-0.4c0.8,0,1.5,0.3,1.9,0.8s0.7,1.3,0.7,2.3v0.5h-4.3c0,0.6,0.2,1.1,0.5,1.5s0.8,0.6,1.3,0.6c0.4,0,0.7-0.1,1-0.2
			s0.5-0.4,0.7-0.6l0.7,0.5C996.9,576.8,996.1,577.2,995,577.2z M994.9,571.5c-0.4,0-0.8,0.2-1.1,0.5s-0.5,0.8-0.6,1.3h3.2v-0.1
			c0-0.6-0.2-1-0.4-1.3S995.3,571.5,994.9,571.5z"/>
		<path class="st2" d="M1002.4,575.4c0-0.3-0.1-0.5-0.3-0.7s-0.6-0.3-1.2-0.4s-1-0.3-1.3-0.4s-0.6-0.4-0.7-0.6s-0.2-0.5-0.2-0.8
			c0-0.5,0.2-1,0.7-1.3s1-0.5,1.7-0.5c0.7,0,1.3,0.2,1.7,0.6s0.7,0.8,0.7,1.4h-1.1c0-0.3-0.1-0.6-0.4-0.8s-0.6-0.3-1-0.3
			c-0.4,0-0.7,0.1-0.9,0.3s-0.3,0.4-0.3,0.7c0,0.3,0.1,0.5,0.3,0.6s0.6,0.3,1.1,0.4s1,0.3,1.3,0.4s0.6,0.4,0.7,0.6s0.2,0.5,0.2,0.9
			c0,0.6-0.2,1-0.7,1.4s-1,0.5-1.8,0.5c-0.5,0-1-0.1-1.3-0.3s-0.7-0.4-0.9-0.8s-0.3-0.7-0.3-1h1.1c0,0.4,0.2,0.7,0.4,0.9
			s0.6,0.3,1.1,0.3c0.4,0,0.7-0.1,1-0.2S1002.4,575.7,1002.4,575.4z"/>
		<path class="st2" d="M1006.4,569.2v1.5h1.2v0.8h-1.2v3.9c0,0.3,0.1,0.4,0.2,0.6s0.3,0.2,0.5,0.2c0.1,0,0.3,0,0.5-0.1v0.9
			c-0.3,0.1-0.6,0.1-0.8,0.1c-0.5,0-0.8-0.1-1.1-0.4s-0.4-0.7-0.4-1.2v-3.9h-1.2v-0.8h1.2v-1.5H1006.4z"/>
		<path class="st2" d="M1013.5,568.5l2.8,7l2.8-7h1.5v8.5h-1.1v-3.3l0.1-3.6l-2.8,6.9h-0.9l-2.8-6.9l0.1,3.6v3.3h-1.1v-8.5H1013.5z"
			/>
		<path class="st2" d="M1022.3,576.5c0-0.2,0.1-0.3,0.2-0.5s0.3-0.2,0.5-0.2s0.4,0.1,0.5,0.2s0.2,0.3,0.2,0.5c0,0.2-0.1,0.3-0.2,0.5
			s-0.3,0.2-0.5,0.2s-0.4-0.1-0.5-0.2S1022.3,576.7,1022.3,576.5z"/>
		<path class="st2" d="M1030.1,568.5l2.8,7l2.8-7h1.5v8.5h-1.1v-3.3l0.1-3.6l-2.8,6.9h-0.9l-2.8-6.9l0.1,3.6v3.3h-1.1v-8.5H1030.1z"
			/>
		<path class="st2" d="M1038.9,569.1c0-0.2,0.1-0.3,0.2-0.4s0.3-0.2,0.5-0.2s0.4,0.1,0.5,0.2s0.2,0.3,0.2,0.4s-0.1,0.3-0.2,0.4
			s-0.3,0.2-0.5,0.2s-0.4-0.1-0.5-0.2S1038.9,569.2,1038.9,569.1z M1040.1,577.1h-1.1v-6.3h1.1V577.1z"/>
		<path class="st2" d="M1042.8,570.7l0,0.7c0.5-0.5,1.1-0.8,1.9-0.8c0.9,0,1.5,0.3,1.8,1c0.2-0.3,0.5-0.6,0.8-0.7s0.7-0.3,1.2-0.3
			c1.4,0,2.1,0.7,2.1,2.2v4.2h-1.1v-4.2c0-0.5-0.1-0.8-0.3-1s-0.6-0.3-1-0.3c-0.4,0-0.7,0.1-1,0.4s-0.4,0.6-0.5,1v4.2h-1.1v-4.2
			c0-0.9-0.5-1.4-1.4-1.4c-0.7,0-1.2,0.3-1.5,0.9v4.6h-1.1v-6.3H1042.8z"/>
		<path class="st2" d="M1056,575.4c0-0.3-0.1-0.5-0.3-0.7s-0.6-0.3-1.2-0.4s-1-0.3-1.3-0.4s-0.6-0.4-0.7-0.6s-0.2-0.5-0.2-0.8
			c0-0.5,0.2-1,0.7-1.3s1-0.5,1.7-0.5c0.7,0,1.3,0.2,1.7,0.6s0.7,0.8,0.7,1.4h-1.1c0-0.3-0.1-0.6-0.4-0.8s-0.6-0.3-1-0.3
			c-0.4,0-0.7,0.1-0.9,0.3s-0.3,0.4-0.3,0.7c0,0.3,0.1,0.5,0.3,0.6s0.6,0.3,1.1,0.4s1,0.3,1.3,0.4s0.6,0.4,0.7,0.6s0.2,0.5,0.2,0.9
			c0,0.6-0.2,1-0.7,1.4s-1,0.5-1.8,0.5c-0.5,0-1-0.1-1.3-0.3s-0.7-0.4-0.9-0.8s-0.3-0.7-0.3-1h1.1c0,0.4,0.2,0.7,0.4,0.9
			s0.6,0.3,1.1,0.3c0.4,0,0.7-0.1,1-0.2S1056,575.7,1056,575.4z"/>
		<path class="st2" d="M1062.9,577.1h-1.1v-8.5h1.1V577.1z"/>
		<path class="st2" d="M1066.1,577.1h-1.1v-8.5h1.1V577.1z"/>
		<path class="st2" d="M1069.4,577.1h-1.1v-8.5h1.1V577.1z"/>
	</g>
	<g class="st3">
		<path class="st2" d="M583.3,534.5c-0.4,0.6-1,1.1-1.8,1.4c-0.8,0.3-1.7,0.5-2.7,0.5c-1,0-2-0.2-2.8-0.7c-0.8-0.5-1.4-1.2-1.9-2.1
			s-0.7-1.9-0.7-3.1v-1.1c0-1.9,0.4-3.4,1.3-4.5s2.2-1.6,3.8-1.6c1.3,0,2.4,0.3,3.2,1c0.8,0.7,1.3,1.7,1.5,2.9h-1.7
			c-0.3-1.7-1.3-2.5-3-2.5c-1.1,0-2,0.4-2.6,1.2c-0.6,0.8-0.9,1.9-0.9,3.5v1c0,1.4,0.3,2.6,1,3.4c0.7,0.8,1.5,1.3,2.7,1.3
			c0.6,0,1.2-0.1,1.7-0.2c0.5-0.1,0.9-0.4,1.2-0.7v-2.9h-3v-1.4h4.6V534.5z"/>
		<path class="st2" d="M596,536.2h-1.7l-6.4-9.9v9.9h-1.7v-12.8h1.7l6.5,9.9v-9.9h1.7V536.2z"/>
		<path class="st2" d="M599,536.2v-12.8h3.6c1.1,0,2.1,0.2,3,0.7s1.5,1.2,2,2.1s0.7,2,0.7,3.1v0.8c0,1.2-0.2,2.3-0.7,3.2
			s-1.1,1.6-2,2.1s-1.9,0.7-3,0.7H599z M600.7,524.8v10h1.8c1.3,0,2.3-0.4,3-1.2s1.1-2,1.1-3.5v-0.7c0-1.5-0.3-2.6-1-3.4
			c-0.7-0.8-1.7-1.2-2.9-1.2H600.7z"/>
	</g>
	<g class="st3">
		<path class="st2" d="M564.2,447.9c-0.2,1.4-0.7,2.4-1.5,3.1c-0.8,0.7-2,1.1-3.4,1.1c-1.5,0-2.7-0.5-3.6-1.6s-1.4-2.5-1.4-4.3v-1.2
			c0-1.2,0.2-2.2,0.6-3.1s1-1.6,1.8-2.1c0.8-0.5,1.7-0.7,2.7-0.7c1.4,0,2.4,0.4,3.3,1.1c0.8,0.8,1.3,1.8,1.4,3.2h-1.7
			c-0.1-1-0.5-1.8-1-2.2c-0.5-0.5-1.2-0.7-2.1-0.7c-1.1,0-1.9,0.4-2.5,1.2c-0.6,0.8-0.9,1.9-0.9,3.4v1.2c0,1.4,0.3,2.5,0.9,3.3
			c0.6,0.8,1.4,1.2,2.4,1.2c0.9,0,1.7-0.2,2.2-0.6c0.5-0.4,0.8-1.2,1-2.2H564.2z"/>
	</g>
	<g class="st3">
		<path class="st2" d="M570.6,458h-4.9v-0.7l2.6-2.9c0.4-0.4,0.6-0.8,0.8-1.1c0.1-0.3,0.2-0.5,0.2-0.8c0-0.4-0.1-0.7-0.4-1
			c-0.2-0.2-0.5-0.4-0.9-0.4c-0.5,0-0.8,0.1-1.1,0.4s-0.4,0.6-0.4,1.1h-0.9c0-0.7,0.2-1.2,0.7-1.7c0.4-0.4,1-0.6,1.8-0.6
			c0.7,0,1.2,0.2,1.6,0.5c0.4,0.4,0.6,0.8,0.6,1.4c0,0.7-0.5,1.6-1.4,2.6l-2,2.2h3.7V458z"/>
	</g>
	<g class="st3">
		<path class="st2" d="M399.2,297.7v8.7c0,1.2-0.4,2.2-1.1,3s-1.8,1.2-3.1,1.3l-0.4,0c-1.4,0-2.5-0.4-3.3-1.1s-1.3-1.8-1.3-3.1v-8.7
			h1.7v8.7c0,0.9,0.3,1.6,0.8,2.2s1.2,0.8,2.2,0.8c1,0,1.7-0.3,2.2-0.8s0.8-1.2,0.8-2.2v-8.7H399.2z"/>
		<path class="st2" d="M406.8,310.5h-1.6v-10.8l-3.3,1.2v-1.5l4.7-1.7h0.3V310.5z"/>
	</g>
	<g class="st3">
		<path class="st2" d="M748.4,297.7v8.7c0,1.2-0.4,2.2-1.1,3s-1.8,1.2-3.1,1.3l-0.4,0c-1.4,0-2.5-0.4-3.3-1.1s-1.3-1.8-1.3-3.1v-8.7
			h1.7v8.7c0,0.9,0.3,1.6,0.8,2.2s1.2,0.8,2.2,0.8c1,0,1.7-0.3,2.2-0.8s0.8-1.2,0.8-2.2v-8.7H748.4z"/>
		<path class="st2" d="M759,310.5h-8.4v-1.2l4.4-4.9c0.7-0.7,1.1-1.3,1.4-1.8c0.2-0.5,0.4-0.9,0.4-1.4c0-0.7-0.2-1.2-0.6-1.6
			s-0.9-0.6-1.6-0.6c-0.8,0-1.4,0.2-1.9,0.7c-0.4,0.5-0.7,1.1-0.7,1.9h-1.6c0-1.2,0.4-2.1,1.1-2.9s1.8-1.1,3-1.1
			c1.2,0,2.1,0.3,2.8,0.9c0.7,0.6,1,1.5,1,2.5c0,1.3-0.8,2.8-2.4,4.5l-3.4,3.7h6.4V310.5z"/>
	</g>
	<g class="st3">
		<path class="st2" d="M322.2,187.3l0.7-6.4h6.6v1.5h-5.2l-0.4,3.5c0.6-0.4,1.3-0.6,2.1-0.6c1.2,0,2.1,0.4,2.8,1.2
			c0.7,0.8,1,1.8,1,3.1c0,1.3-0.4,2.4-1.1,3.1c-0.7,0.8-1.7,1.1-3,1.1c-1.1,0-2.1-0.3-2.8-0.9s-1.1-1.5-1.2-2.6h1.5
			c0.1,0.7,0.4,1.3,0.8,1.7s1,0.6,1.7,0.6c0.8,0,1.3-0.3,1.8-0.8s0.6-1.2,0.6-2.1c0-0.9-0.2-1.5-0.7-2.1c-0.5-0.5-1.1-0.8-1.9-0.8
			c-0.7,0-1.3,0.2-1.7,0.5l-0.4,0.4L322.2,187.3z"/>
		<path class="st2" d="M332.3,187.3l0.7-6.4h6.6v1.5h-5.2l-0.4,3.5c0.6-0.4,1.3-0.6,2.1-0.6c1.2,0,2.1,0.4,2.8,1.2
			c0.7,0.8,1,1.8,1,3.1c0,1.3-0.4,2.4-1.1,3.1c-0.7,0.8-1.7,1.1-3,1.1c-1.1,0-2.1-0.3-2.8-0.9s-1.1-1.5-1.2-2.6h1.5
			c0.1,0.7,0.4,1.3,0.8,1.7s1,0.6,1.7,0.6c0.8,0,1.3-0.3,1.8-0.8s0.6-1.2,0.6-2.1c0-0.9-0.2-1.5-0.7-2.1c-0.5-0.5-1.1-0.8-1.9-0.8
			c-0.7,0-1.3,0.2-1.7,0.5l-0.4,0.4L332.3,187.3z"/>
		<path class="st2" d="M342.4,187.3l0.7-6.4h6.6v1.5h-5.2l-0.4,3.5c0.6-0.4,1.3-0.6,2.1-0.6c1.2,0,2.1,0.4,2.8,1.2
			c0.7,0.8,1,1.8,1,3.1c0,1.3-0.4,2.4-1.1,3.1c-0.7,0.8-1.7,1.1-3,1.1c-1.1,0-2.1-0.3-2.8-0.9s-1.1-1.5-1.2-2.6h1.5
			c0.1,0.7,0.4,1.3,0.8,1.7s1,0.6,1.7,0.6c0.8,0,1.3-0.3,1.8-0.8s0.6-1.2,0.6-2.1c0-0.9-0.2-1.5-0.7-2.1c-0.5-0.5-1.1-0.8-1.9-0.8
			c-0.7,0-1.3,0.2-1.7,0.5l-0.4,0.4L342.4,187.3z"/>
	</g>
	<g class="st3">
	</g>
	<g class="st3">
		<path class="st2" d="M365.2,182.3H361v11.4h-1.7v-11.4h-4.1v-1.4h9.9V182.3z"/>
		<path class="st2" d="M366.8,181.6c0-0.3,0.1-0.5,0.2-0.7s0.4-0.3,0.7-0.3s0.6,0.1,0.7,0.3s0.2,0.4,0.2,0.7s-0.1,0.5-0.2,0.7
			s-0.4,0.3-0.7,0.3s-0.6-0.1-0.7-0.3S366.8,181.9,366.8,181.6z M368.6,193.7h-1.6v-9.5h1.6V193.7z"/>
		<path class="st2" d="M372.7,184.2l0,1.1c0.7-0.8,1.6-1.2,2.8-1.2c1.3,0,2.2,0.5,2.7,1.5c0.3-0.5,0.7-0.8,1.2-1.1s1.1-0.4,1.8-0.4
			c2.1,0,3.1,1.1,3.2,3.3v6.4h-1.6v-6.3c0-0.7-0.2-1.2-0.5-1.5c-0.3-0.3-0.8-0.5-1.6-0.5c-0.6,0-1.1,0.2-1.5,0.5
			c-0.4,0.4-0.6,0.8-0.7,1.5v6.3H377v-6.2c0-1.4-0.7-2.1-2-2.1c-1.1,0-1.8,0.5-2.2,1.4v6.9h-1.6v-9.5H372.7z"/>
		<path class="st2" d="M390.9,193.9c-1.3,0-2.3-0.4-3.1-1.3s-1.2-2-1.2-3.4v-0.3c0-0.9,0.2-1.8,0.5-2.5s0.9-1.3,1.5-1.7
			s1.3-0.6,2.1-0.6c1.2,0,2.2,0.4,2.9,1.2s1,2,1,3.5v0.7h-6.4c0,0.9,0.3,1.7,0.8,2.3c0.5,0.6,1.2,0.9,2,0.9c0.6,0,1.1-0.1,1.5-0.4
			s0.7-0.5,1-0.9l1,0.8C393.7,193.2,392.5,193.9,390.9,193.9z M390.7,185.3c-0.7,0-1.2,0.2-1.7,0.7s-0.7,1.1-0.8,2h4.8v-0.1
			c0-0.8-0.3-1.5-0.7-1.9S391.4,185.3,390.7,185.3z"/>
		<path class="st2" d="M401.1,185.6c-0.2,0-0.5-0.1-0.8-0.1c-1.1,0-1.8,0.5-2.2,1.4v6.8h-1.6v-9.5h1.6l0,1.1
			c0.5-0.8,1.3-1.3,2.3-1.3c0.3,0,0.6,0,0.7,0.1V185.6z"/>
	</g>
	<g class="st3">
		<path class="st2" d="M671.4,187.3l0.7-6.4h6.6v1.5h-5.2l-0.4,3.5c0.6-0.4,1.3-0.6,2.1-0.6c1.2,0,2.1,0.4,2.8,1.2
			c0.7,0.8,1,1.8,1,3.1c0,1.3-0.4,2.4-1.1,3.1c-0.7,0.8-1.7,1.1-3,1.1c-1.1,0-2.1-0.3-2.8-0.9s-1.1-1.5-1.2-2.6h1.5
			c0.1,0.7,0.4,1.3,0.8,1.7s1,0.6,1.7,0.6c0.8,0,1.3-0.3,1.8-0.8s0.6-1.2,0.6-2.1c0-0.9-0.2-1.5-0.7-2.1c-0.5-0.5-1.1-0.8-1.9-0.8
			c-0.7,0-1.3,0.2-1.7,0.5l-0.4,0.4L671.4,187.3z"/>
		<path class="st2" d="M681.5,187.3l0.7-6.4h6.6v1.5h-5.2l-0.4,3.5c0.6-0.4,1.3-0.6,2.1-0.6c1.2,0,2.1,0.4,2.8,1.2
			c0.7,0.8,1,1.8,1,3.1c0,1.3-0.4,2.4-1.1,3.1c-0.7,0.8-1.7,1.1-3,1.1c-1.1,0-2.1-0.3-2.8-0.9s-1.1-1.5-1.2-2.6h1.5
			c0.1,0.7,0.4,1.3,0.8,1.7s1,0.6,1.7,0.6c0.8,0,1.3-0.3,1.8-0.8s0.6-1.2,0.6-2.1c0-0.9-0.2-1.5-0.7-2.1c-0.5-0.5-1.1-0.8-1.9-0.8
			c-0.7,0-1.3,0.2-1.7,0.5l-0.4,0.4L681.5,187.3z"/>
		<path class="st2" d="M691.6,187.3l0.7-6.4h6.6v1.5h-5.2l-0.4,3.5c0.6-0.4,1.3-0.6,2.1-0.6c1.2,0,2.1,0.4,2.8,1.2
			c0.7,0.8,1,1.8,1,3.1c0,1.3-0.4,2.4-1.1,3.1c-0.7,0.8-1.7,1.1-3,1.1c-1.1,0-2.1-0.3-2.8-0.9s-1.1-1.5-1.2-2.6h1.5
			c0.1,0.7,0.4,1.3,0.8,1.7s1,0.6,1.7,0.6c0.8,0,1.3-0.3,1.8-0.8s0.6-1.2,0.6-2.1c0-0.9-0.2-1.5-0.7-2.1c-0.5-0.5-1.1-0.8-1.9-0.8
			c-0.7,0-1.3,0.2-1.7,0.5l-0.4,0.4L691.6,187.3z"/>
	</g>
	<g class="st3">
	</g>
	<g class="st3">
		<path class="st2" d="M714.4,182.3h-4.1v11.4h-1.7v-11.4h-4.1v-1.4h9.9V182.3z"/>
		<path class="st2" d="M716,181.6c0-0.3,0.1-0.5,0.2-0.7s0.4-0.3,0.7-0.3s0.6,0.1,0.7,0.3s0.2,0.4,0.2,0.7s-0.1,0.5-0.2,0.7
			s-0.4,0.3-0.7,0.3s-0.6-0.1-0.7-0.3S716,181.9,716,181.6z M717.8,193.7h-1.6v-9.5h1.6V193.7z"/>
		<path class="st2" d="M721.9,184.2l0,1.1c0.7-0.8,1.6-1.2,2.8-1.2c1.3,0,2.2,0.5,2.7,1.5c0.3-0.5,0.7-0.8,1.2-1.1s1.1-0.4,1.8-0.4
			c2.1,0,3.1,1.1,3.2,3.3v6.4h-1.6v-6.3c0-0.7-0.2-1.2-0.5-1.5c-0.3-0.3-0.8-0.5-1.6-0.5c-0.6,0-1.1,0.2-1.5,0.5
			c-0.4,0.4-0.6,0.8-0.7,1.5v6.3h-1.6v-6.2c0-1.4-0.7-2.1-2-2.1c-1.1,0-1.8,0.5-2.2,1.4v6.9h-1.6v-9.5H721.9z"/>
		<path class="st2" d="M740.1,193.9c-1.3,0-2.3-0.4-3.1-1.3s-1.2-2-1.2-3.4v-0.3c0-0.9,0.2-1.8,0.5-2.5s0.9-1.3,1.5-1.7
			s1.3-0.6,2.1-0.6c1.2,0,2.2,0.4,2.9,1.2s1,2,1,3.5v0.7h-6.4c0,0.9,0.3,1.7,0.8,2.3c0.5,0.6,1.2,0.9,2,0.9c0.6,0,1.1-0.1,1.5-0.4
			s0.7-0.5,1-0.9l1,0.8C742.9,193.2,741.7,193.9,740.1,193.9z M739.9,185.3c-0.7,0-1.2,0.2-1.7,0.7s-0.7,1.1-0.8,2h4.8v-0.1
			c0-0.8-0.3-1.5-0.7-1.9S740.6,185.3,739.9,185.3z"/>
		<path class="st2" d="M750.3,185.6c-0.2,0-0.5-0.1-0.8-0.1c-1.1,0-1.8,0.5-2.2,1.4v6.8h-1.6v-9.5h1.6l0,1.1
			c0.5-0.8,1.3-1.3,2.3-1.3c0.3,0,0.6,0,0.7,0.1V185.6z"/>
	</g>
</g>
</svg>
