<?xml version="1.0" encoding="UTF-8"?><svg xmlns="http://www.w3.org/2000/svg" viewBox="0 0 1080 600.48"><defs><style>.cls-1{fill:#1d1e1b;}.cls-2{stroke-width:1.42px;}.cls-2,.cls-3,.cls-4,.cls-5{fill:none;stroke:#1d1e1b;stroke-miterlimit:10;}.cls-3{stroke-width:2px;}.cls-4{stroke-width:2px;}.cls-5{stroke-width:1.98px;}</style></defs><g id="Ebene_3"><line class="cls-3" x1="436.32" y1="226.08" x2="465.12" y2="226.08"/><line class="cls-3" x1="444.96" y1="230.4" x2="456.48" y2="230.4"/><line class="cls-3" x1="450.72" y1="269.28" x2="450.72" y2="230.4"/><line class="cls-3" x1="450.72" y1="269.28" x2="623.52" y2="269.28"/><rect class="cls-5" x="443.52" y="168.48" width="14.4" height="43.2"/><line class="cls-5" x1="450.72" y1="154.08" x2="479.52" y2="154.08"/><line class="cls-5" x1="508.32" y1="154.08" x2="551.52" y2="154.08"/><line class="cls-5" x1="580.32" y1="154.08" x2="623.52" y2="154.08"/><line class="cls-3" x1="479.52" y1="154.08" x2="504" y2="142.56"/><line class="cls-3" x1="551.52" y1="154.08" x2="576" y2="142.56"/><line class="cls-3" x1="709.92" y1="236.16" x2="738.72" y2="236.16"/><line class="cls-3" x1="718.56" y1="240.48" x2="730.08" y2="240.48"/><line class="cls-3" x1="724.32" y1="279.36" x2="724.32" y2="240.48"/><line class="cls-3" x1="724.32" y1="279.36" x2="897.12" y2="279.36"/><rect class="cls-5" x="717.12" y="178.56" width="14.4" height="43.2"/><line class="cls-5" x1="724.32" y1="164.16" x2="753.12" y2="164.16"/><line class="cls-5" x1="853.92" y1="164.16" x2="897.12" y2="164.16"/><line class="cls-3" x1="789.12" y1="192.96" x2="813.6" y2="181.44"/><line class="cls-4" x1="753.12" y1="164.16" x2="753.12" y2="192.96"/><line class="cls-4" x1="753.12" y1="135.36" x2="753.12" y2="164.16"/><line class="cls-4" x1="753.12" y1="192.96" x2="789.12" y2="192.96"/><line class="cls-4" x1="817.92" y1="192.96" x2="853.92" y2="192.96"/><line class="cls-4" x1="853.92" y1="135.36" x2="853.92" y2="192.96"/><line class="cls-3" x1="789.12" y1="135.36" x2="813.6" y2="123.84"/><line class="cls-4" x1="753.12" y1="135.36" x2="789.12" y2="135.36"/><line class="cls-4" x1="817.92" y1="135.36" x2="853.92" y2="135.36"/><line class="cls-5" x1="203.04" y1="168.48" x2="203.04" y2="154.08"/><line class="cls-3" x1="188.64" y1="226.08" x2="217.44" y2="226.08"/><line class="cls-3" x1="197.28" y1="230.4" x2="208.8" y2="230.4"/><line class="cls-3" x1="203.04" y1="269.28" x2="203.04" y2="230.4"/><line class="cls-3" x1="203.04" y1="269.28" x2="303.84" y2="269.28"/><line class="cls-5" x1="303.84" y1="220.32" x2="303.84" y2="269.28"/><rect class="cls-5" x="195.84" y="168.48" width="14.4" height="43.2"/><g><g><polygon class="cls-5" points="303.84 218.88 312.24 204.48 295.44 204.48 303.84 218.88"/><line class="cls-5" x1="293.76" y1="220.32" x2="313.92" y2="220.32"/></g><g><line class="cls-2" x1="317.34" y1="216.93" x2="311.04" y2="211.68"/><polygon class="cls-1" points="318.22 214.9 319.68 218.88 315.5 218.16 318.22 214.9"/></g><g><line class="cls-2" x1="321.66" y1="211.17" x2="315.36" y2="205.92"/><polygon class="cls-1" points="322.54 209.14 324 213.12 319.82 212.4 322.54 209.14"/></g></g><line class="cls-5" x1="203.04" y1="154.08" x2="231.84" y2="154.08"/><line class="cls-5" x1="260.64" y1="154.08" x2="303.84" y2="154.08"/><line class="cls-3" x1="231.84" y1="154.08" x2="256.32" y2="142.56"/><line class="cls-3" x1="714.24" y1="521.28" x2="743.04" y2="521.28"/><line class="cls-3" x1="722.88" y1="525.6" x2="734.4" y2="525.6"/><line class="cls-3" x1="728.64" y1="564.48" x2="728.64" y2="525.6"/><line class="cls-3" x1="728.64" y1="564.48" x2="901.44" y2="564.48"/><rect class="cls-5" x="721.44" y="463.68" width="14.4" height="43.2"/><line class="cls-5" x1="728.64" y1="449.28" x2="858.24" y2="449.28"/><line class="cls-5" x1="858.24" y1="449.28" x2="901.44" y2="449.28"/><line class="cls-3" x1="840.96" y1="521.28" x2="829.44" y2="496.8"/><line class="cls-4" x1="840.96" y1="564.48" x2="840.96" y2="521.28"/><line class="cls-4" x1="840.96" y1="492.48" x2="840.96" y2="449.28"/><line class="cls-3" x1="783.36" y1="521.28" x2="771.84" y2="496.8"/><line class="cls-4" x1="783.36" y1="564.48" x2="783.36" y2="521.28"/><line class="cls-4" x1="783.36" y1="492.48" x2="783.36" y2="449.28"/><line class="cls-3" x1="162.72" y1="521.28" x2="191.52" y2="521.28"/><line class="cls-3" x1="171.36" y1="525.6" x2="182.88" y2="525.6"/><line class="cls-3" x1="177.12" y1="564.48" x2="177.12" y2="525.6"/><line class="cls-3" x1="177.12" y1="564.48" x2="326.88" y2="564.48"/><line class="cls-5" x1="177.12" y1="449.28" x2="289.44" y2="449.28"/><line class="cls-5" x1="283.68" y1="449.28" x2="326.88" y2="449.28"/><line class="cls-3" x1="253.44" y1="521.28" x2="241.92" y2="496.8"/><line class="cls-4" x1="253.44" y1="540" x2="253.44" y2="521.28"/><line class="cls-4" x1="253.44" y1="492.48" x2="253.44" y2="473.76"/><line class="cls-4" x1="253.44" y1="540" x2="253.44" y2="564.48"/><line class="cls-4" x1="253.44" y1="473.76" x2="253.44" y2="449.28"/><rect class="cls-5" x="169.92" y="463.68" width="14.4" height="43.2" transform="translate(354.24 970.56) rotate(180)"/><line class="cls-3" x1="439.2" y1="521.28" x2="468" y2="521.28"/><line class="cls-3" x1="447.84" y1="525.6" x2="459.36" y2="525.6"/><line class="cls-3" x1="453.6" y1="564.48" x2="453.6" y2="525.6"/><line class="cls-3" x1="453.6" y1="564.48" x2="626.4" y2="564.48"/><line class="cls-5" x1="453.6" y1="449.28" x2="583.2" y2="449.28"/><line class="cls-5" x1="583.2" y1="449.28" x2="626.4" y2="449.28"/><line class="cls-3" x1="537.12" y1="550.08" x2="525.6" y2="525.6"/><line class="cls-4" x1="537.21" y1="550.08" x2="537.12" y2="564.48"/><line class="cls-4" x1="537.21" y1="463.68" x2="537.12" y2="449.28"/><rect class="cls-5" x="446.4" y="463.68" width="14.4" height="43.2" transform="translate(907.2 970.56) rotate(180)"/><line class="cls-3" x1="537.21" y1="492.48" x2="525.69" y2="468"/><line class="cls-5" x1="537.21" y1="492.48" x2="537.21" y2="521.28"/><line class="cls-5" x1="203.04" y1="226.08" x2="203.04" y2="211.68"/><line class="cls-5" x1="177.12" y1="463.68" x2="177.12" y2="449.28"/><line class="cls-5" x1="177.12" y1="521.28" x2="177.12" y2="506.88"/><line class="cls-5" x1="453.6" y1="463.68" x2="453.6" y2="449.28"/><line class="cls-5" x1="453.6" y1="521.28" x2="453.6" y2="506.88"/><line class="cls-5" x1="450.72" y1="168.48" x2="450.72" y2="154.08"/><line class="cls-5" x1="450.72" y1="226.08" x2="450.72" y2="211.68"/><line class="cls-5" x1="724.32" y1="178.56" x2="724.32" y2="164.16"/><line class="cls-5" x1="724.32" y1="236.16" x2="724.32" y2="221.76"/><line class="cls-5" x1="728.64" y1="463.68" x2="728.64" y2="449.28"/><line class="cls-5" x1="728.64" y1="521.28" x2="728.64" y2="506.88"/><line class="cls-5" x1="303.84" y1="154.08" x2="303.84" y2="204.48"/><line class="cls-5" x1="623.52" y1="220.32" x2="623.52" y2="269.28"/><g><g><polygon class="cls-5" points="623.52 218.88 631.92 204.48 615.12 204.48 623.52 218.88"/><line class="cls-5" x1="613.44" y1="220.32" x2="633.6" y2="220.32"/></g><g><line class="cls-2" x1="637.02" y1="216.93" x2="630.72" y2="211.68"/><polygon class="cls-1" points="637.9 214.9 639.36 218.88 635.18 218.16 637.9 214.9"/></g><g><line class="cls-2" x1="641.34" y1="211.17" x2="635.04" y2="205.92"/><polygon class="cls-1" points="642.22 209.14 643.68 213.12 639.5 212.4 642.22 209.14"/></g></g><line class="cls-5" x1="623.52" y1="154.08" x2="623.52" y2="204.48"/><line class="cls-5" x1="897.12" y1="230.4" x2="897.12" y2="279.36"/><g><g><polygon class="cls-5" points="897.12 228.96 905.52 214.56 888.72 214.56 897.12 228.96"/><line class="cls-5" x1="887.04" y1="230.4" x2="907.2" y2="230.4"/></g><g><line class="cls-2" x1="910.62" y1="227.01" x2="904.32" y2="221.76"/><polygon class="cls-1" points="911.5 224.98 912.96 228.96 908.78 228.24 911.5 224.98"/></g><g><line class="cls-2" x1="914.94" y1="221.25" x2="908.64" y2="216"/><polygon class="cls-1" points="915.82 219.22 917.28 223.2 913.1 222.48 915.82 219.22"/></g></g><line class="cls-5" x1="897.12" y1="164.16" x2="897.12" y2="214.56"/><line class="cls-5" x1="901.44" y1="515.52" x2="901.44" y2="564.48"/><g><g><polygon class="cls-5" points="901.44 514.08 909.84 499.68 893.04 499.68 901.44 514.08"/><line class="cls-5" x1="891.36" y1="515.52" x2="911.52" y2="515.52"/></g><g><line class="cls-2" x1="914.94" y1="512.13" x2="908.64" y2="506.88"/><polygon class="cls-1" points="915.82 510.1 917.28 514.08 913.1 513.36 915.82 510.1"/></g><g><line class="cls-2" x1="919.26" y1="506.37" x2="912.96" y2="501.12"/><polygon class="cls-1" points="920.14 504.34 921.6 508.32 917.42 507.6 920.14 504.34"/></g></g><line class="cls-5" x1="901.44" y1="449.28" x2="901.44" y2="499.68"/><line class="cls-5" x1="626.4" y1="515.52" x2="626.4" y2="564.48"/><g><g><polygon class="cls-5" points="626.4 514.08 634.8 499.68 618 499.68 626.4 514.08"/><line class="cls-5" x1="616.32" y1="515.52" x2="636.48" y2="515.52"/></g><g><line class="cls-2" x1="639.9" y1="512.13" x2="633.6" y2="506.88"/><polygon class="cls-1" points="640.78 510.1 642.24 514.08 638.06 513.36 640.78 510.1"/></g><g><line class="cls-2" x1="644.22" y1="506.37" x2="637.92" y2="501.12"/><polygon class="cls-1" points="645.1 504.34 646.56 508.32 642.38 507.6 645.1 504.34"/></g></g><line class="cls-5" x1="626.4" y1="449.28" x2="626.4" y2="499.68"/><line class="cls-5" x1="326.88" y1="515.52" x2="326.88" y2="564.48"/><g><g><polygon class="cls-5" points="326.88 514.08 335.28 499.68 318.48 499.68 326.88 514.08"/><line class="cls-5" x1="316.8" y1="515.52" x2="336.96" y2="515.52"/></g><g><line class="cls-2" x1="340.38" y1="512.13" x2="334.08" y2="506.88"/><polygon class="cls-1" points="341.26 510.1 342.72 514.08 338.54 513.36 341.26 510.1"/></g><g><line class="cls-2" x1="344.7" y1="506.37" x2="338.4" y2="501.12"/><polygon class="cls-1" points="345.58 504.34 347.04 508.32 342.86 507.6 345.58 504.34"/></g></g><line class="cls-5" x1="326.88" y1="449.28" x2="326.88" y2="499.68"/></g><g id="Ebene_7"><circle class="cls-1" cx="479.52" cy="154.08" r="1.44"/><circle class="cls-1" cx="508.32" cy="154.08" r="1.44"/><circle class="cls-1" cx="580.32" cy="154.08" r="1.44"/><circle class="cls-1" cx="551.52" cy="154.08" r="1.44"/><circle class="cls-1" cx="789.12" cy="192.96" r="1.44"/><circle class="cls-1" cx="817.92" cy="192.96" r="1.44"/><circle class="cls-1" cx="853.92" cy="164.16" r="2.88"/><circle class="cls-1" cx="753.12" cy="164.16" r="2.88"/><circle class="cls-1" cx="789.12" cy="135.36" r="1.44"/><circle class="cls-1" cx="817.92" cy="135.36" r="1.44"/><circle class="cls-1" cx="231.84" cy="154.08" r="1.44"/><circle class="cls-1" cx="260.64" cy="154.08" r="1.44"/><circle class="cls-1" cx="840.96" cy="521.28" r="1.44"/><circle class="cls-1" cx="840.96" cy="492.48" r="1.44"/><circle class="cls-1" cx="840.96" cy="449.28" r="2.88"/><circle class="cls-1" cx="783.36" cy="521.28" r="1.44"/><circle class="cls-1" cx="783.36" cy="492.48" r="1.44"/><circle class="cls-1" cx="253.44" cy="521.28" r="1.44"/><circle class="cls-1" cx="253.44" cy="492.48" r="1.44"/><circle class="cls-1" cx="537.12" cy="550.08" r="1.44"/><circle class="cls-1" cx="537.12" cy="521.28" r="1.44"/><circle class="cls-1" cx="537.21" cy="492.48" r="1.44"/><circle class="cls-1" cx="537.21" cy="463.68" r="1.44"/><circle class="cls-1" cx="783.36" cy="449.28" r="2.88"/><circle class="cls-1" cx="783.36" cy="564.48" r="2.88"/><circle class="cls-1" cx="840.96" cy="564.48" r="2.88"/><circle class="cls-1" cx="537.12" cy="449.28" r="2.88"/><circle class="cls-1" cx="537.12" cy="564.48" r="2.88"/><circle class="cls-1" cx="253.44" cy="449.28" r="2.88"/><circle class="cls-1" cx="253.44" cy="564.48" r="2.88"/></g><g id="Text_Vector"><g><path class="cls-1" d="M414.43,45.61c.7,.43,1.73,.79,2.81,.79,1.6,0,2.54-.85,2.54-2.07,0-1.13-.65-1.78-2.29-2.41-1.98-.7-3.21-1.73-3.21-3.44,0-1.89,1.57-3.29,3.93-3.29,1.24,0,2.14,.29,2.68,.59l-.43,1.28c-.4-.22-1.21-.58-2.3-.58-1.66,0-2.29,.99-2.29,1.82,0,1.13,.74,1.69,2.41,2.34,2.05,.79,3.1,1.78,3.1,3.56,0,1.87-1.39,3.49-4.25,3.49-1.17,0-2.45-.34-3.1-.77l.4-1.31Z"/><path class="cls-1" d="M423.95,38.81l1.15,4.43c.25,.97,.49,1.87,.65,2.77h.05c.2-.88,.49-1.82,.77-2.75l1.42-4.45h1.33l1.35,4.36c.32,1.04,.58,1.96,.77,2.84h.05c.14-.88,.38-1.8,.67-2.83l1.24-4.38h1.57l-2.81,8.71h-1.44l-1.33-4.16c-.31-.97-.56-1.84-.77-2.86h-.04c-.22,1.04-.49,1.94-.79,2.88l-1.4,4.14h-1.44l-2.63-8.71h1.62Z"/><path class="cls-1" d="M438.34,36.36c.02,.54-.38,.97-1.01,.97-.56,0-.95-.43-.95-.97s.41-.99,.99-.99,.97,.43,.97,.99Zm-1.76,11.16v-8.71h1.58v8.71h-1.58Z"/><path class="cls-1" d="M442.69,36.3v2.5h2.27v1.21h-2.27v4.7c0,1.08,.31,1.69,1.19,1.69,.41,0,.72-.05,.92-.11l.07,1.19c-.31,.13-.79,.22-1.4,.22-.74,0-1.33-.23-1.71-.67-.45-.47-.61-1.24-.61-2.27v-4.75h-1.35v-1.21h1.35v-2.09l1.55-.41Z"/><path class="cls-1" d="M452.85,47.2c-.41,.22-1.33,.5-2.5,.5-2.63,0-4.34-1.78-4.34-4.45s1.84-4.63,4.68-4.63c.94,0,1.76,.23,2.2,.45l-.36,1.22c-.38-.22-.97-.41-1.84-.41-2,0-3.08,1.48-3.08,3.29,0,2.02,1.3,3.26,3.02,3.26,.9,0,1.49-.23,1.94-.43l.27,1.19Z"/><path class="cls-1" d="M454.7,34.74h1.58v5.44h.04c.25-.45,.65-.85,1.13-1.12,.47-.27,1.03-.45,1.62-.45,1.17,0,3.04,.72,3.04,3.73v5.19h-1.58v-5.01c0-1.4-.52-2.59-2.02-2.59-1.03,0-1.84,.72-2.12,1.58-.09,.22-.11,.45-.11,.76v5.26h-1.58v-12.78Z"/><path class="cls-1" d="M466.45,36.36c.02,.54-.38,.97-1.01,.97-.56,0-.95-.43-.95-.97s.41-.99,.99-.99,.97,.43,.97,.99Zm-1.76,11.16v-8.71h1.58v8.71h-1.58Z"/><path class="cls-1" d="M468.9,41.16c0-.9-.02-1.64-.07-2.36h1.4l.09,1.44h.04c.43-.83,1.44-1.64,2.88-1.64,1.21,0,3.08,.72,3.08,3.71v5.2h-1.58v-5.02c0-1.4-.52-2.57-2.02-2.57-1.04,0-1.85,.74-2.12,1.62-.07,.2-.11,.47-.11,.74v5.24h-1.58v-6.36Z"/><path class="cls-1" d="M486.4,38.81c-.04,.63-.07,1.33-.07,2.4v5.06c0,2-.4,3.22-1.24,3.98-.85,.79-2.07,1.04-3.17,1.04s-2.2-.25-2.9-.72l.4-1.21c.58,.36,1.48,.68,2.56,.68,1.62,0,2.81-.85,2.81-3.04v-.97h-.04c-.49,.81-1.42,1.46-2.77,1.46-2.16,0-3.71-1.84-3.71-4.25,0-2.95,1.93-4.63,3.93-4.63,1.51,0,2.34,.79,2.72,1.51h.04l.07-1.31h1.39Zm-1.64,3.44c0-.27-.02-.5-.09-.72-.29-.92-1.06-1.67-2.21-1.67-1.51,0-2.59,1.28-2.59,3.29,0,1.71,.86,3.13,2.57,3.13,.97,0,1.85-.61,2.2-1.62,.09-.27,.13-.58,.13-.85v-1.57Z"/><path class="cls-1" d="M501.3,47.12c-.58,.29-1.73,.58-3.21,.58-3.42,0-6-2.16-6-6.14s2.58-6.37,6.34-6.37c1.51,0,2.47,.32,2.88,.54l-.38,1.28c-.59-.29-1.44-.5-2.45-.5-2.84,0-4.74,1.82-4.74,5.01,0,2.97,1.71,4.88,4.66,4.88,.95,0,1.93-.2,2.56-.5l.32,1.24Z"/><path class="cls-1" d="M504.92,36.36c.02,.54-.38,.97-1.01,.97-.56,0-.95-.43-.95-.97s.41-.99,.99-.99,.97,.43,.97,.99Zm-1.76,11.16v-8.71h1.58v8.71h-1.58Z"/><path class="cls-1" d="M507.36,41.52c0-1.03-.02-1.91-.07-2.72h1.39l.05,1.71h.07c.4-1.17,1.35-1.91,2.41-1.91,.18,0,.31,.02,.45,.05v1.49c-.16-.04-.32-.05-.54-.05-1.12,0-1.91,.85-2.12,2.03-.04,.22-.07,.47-.07,.74v4.65h-1.57v-6Z"/><path class="cls-1" d="M519.28,47.2c-.41,.22-1.33,.5-2.5,.5-2.63,0-4.34-1.78-4.34-4.45s1.84-4.63,4.68-4.63c.94,0,1.76,.23,2.2,.45l-.36,1.22c-.38-.22-.97-.41-1.84-.41-2,0-3.08,1.48-3.08,3.29,0,2.02,1.3,3.26,3.02,3.26,.9,0,1.49-.23,1.94-.43l.27,1.19Z"/><path class="cls-1" d="M528.43,45.14c0,.9,.02,1.69,.07,2.38h-1.4l-.09-1.42h-.04c-.41,.7-1.33,1.62-2.88,1.62-1.37,0-3.01-.76-3.01-3.82v-5.1h1.58v4.83c0,1.66,.5,2.77,1.94,2.77,1.06,0,1.8-.74,2.09-1.44,.09-.23,.14-.52,.14-.81v-5.35h1.58v6.34Z"/><path class="cls-1" d="M532.82,36.36c.02,.54-.38,.97-1.01,.97-.56,0-.95-.43-.95-.97s.41-.99,.99-.99,.97,.43,.97,.99Zm-1.76,11.16v-8.71h1.58v8.71h-1.58Z"/><path class="cls-1" d="M537.17,36.3v2.5h2.27v1.21h-2.27v4.7c0,1.08,.31,1.69,1.19,1.69,.41,0,.72-.05,.92-.11l.07,1.19c-.31,.13-.79,.22-1.4,.22-.74,0-1.33-.23-1.71-.67-.45-.47-.61-1.24-.61-2.27v-4.75h-1.35v-1.21h1.35v-2.09l1.55-.41Z"/><path class="cls-1" d="M541.01,45.9c.47,.31,1.3,.63,2.09,.63,1.15,0,1.69-.58,1.69-1.3,0-.76-.45-1.17-1.62-1.6-1.57-.56-2.3-1.42-2.3-2.47,0-1.4,1.13-2.56,3.01-2.56,.88,0,1.66,.25,2.14,.54l-.4,1.15c-.34-.22-.97-.5-1.78-.5-.94,0-1.46,.54-1.46,1.19,0,.72,.52,1.04,1.66,1.48,1.51,.58,2.29,1.33,2.29,2.63,0,1.53-1.19,2.61-3.26,2.61-.96,0-1.84-.23-2.45-.59l.4-1.21Z"/><path class="cls-1" d="M552.33,47.52v-7.51h-1.22v-1.21h1.22v-.41c0-1.22,.27-2.34,1.01-3.04,.59-.58,1.39-.81,2.12-.81,.56,0,1.04,.13,1.35,.25l-.22,1.22c-.23-.11-.56-.2-1.01-.2-1.35,0-1.69,1.19-1.69,2.52v.47h2.11v1.21h-2.11v7.51h-1.57Z"/><path class="cls-1" d="M565.08,43.09c0,3.22-2.23,4.63-4.34,4.63-2.36,0-4.18-1.73-4.18-4.48,0-2.92,1.91-4.63,4.32-4.63s4.2,1.82,4.2,4.48Zm-6.91,.09c0,1.91,1.1,3.35,2.65,3.35s2.65-1.42,2.65-3.39c0-1.48-.74-3.35-2.61-3.35s-2.68,1.73-2.68,3.38Z"/><path class="cls-1" d="M567.07,41.52c0-1.03-.02-1.91-.07-2.72h1.39l.05,1.71h.07c.4-1.17,1.35-1.91,2.41-1.91,.18,0,.31,.02,.45,.05v1.49c-.16-.04-.32-.05-.54-.05-1.12,0-1.91,.85-2.12,2.03-.04,.22-.07,.47-.07,.74v4.65h-1.57v-6Z"/><path class="cls-1" d="M576.83,35.38h1.57v10.82h5.19v1.31h-6.75v-12.14Z"/><path class="cls-1" d="M592.9,43.09c0,3.22-2.23,4.63-4.34,4.63-2.36,0-4.18-1.73-4.18-4.48,0-2.92,1.91-4.63,4.32-4.63s4.2,1.82,4.2,4.48Zm-6.91,.09c0,1.91,1.1,3.35,2.65,3.35s2.65-1.42,2.65-3.39c0-1.48-.74-3.35-2.61-3.35s-2.68,1.73-2.68,3.38Z"/><path class="cls-1" d="M602.41,38.81c-.04,.63-.07,1.33-.07,2.4v5.06c0,2-.4,3.22-1.24,3.98-.85,.79-2.07,1.04-3.17,1.04s-2.2-.25-2.9-.72l.4-1.21c.58,.36,1.48,.68,2.56,.68,1.62,0,2.81-.85,2.81-3.04v-.97h-.04c-.49,.81-1.42,1.46-2.77,1.46-2.16,0-3.71-1.84-3.71-4.25,0-2.95,1.93-4.63,3.92-4.63,1.51,0,2.34,.79,2.72,1.51h.04l.07-1.31h1.39Zm-1.64,3.44c0-.27-.02-.5-.09-.72-.29-.92-1.06-1.67-2.21-1.67-1.51,0-2.59,1.28-2.59,3.29,0,1.71,.86,3.13,2.57,3.13,.97,0,1.85-.61,2.2-1.62,.09-.27,.13-.58,.13-.85v-1.57Z"/><path class="cls-1" d="M606.62,36.36c.02,.54-.38,.97-1.01,.97-.56,0-.95-.43-.95-.97s.41-.99,.99-.99,.97,.43,.97,.99Zm-1.76,11.16v-8.71h1.58v8.71h-1.58Z"/><path class="cls-1" d="M615.28,47.2c-.41,.22-1.33,.5-2.5,.5-2.63,0-4.34-1.78-4.34-4.45s1.84-4.63,4.68-4.63c.94,0,1.76,.23,2.2,.45l-.36,1.22c-.38-.22-.97-.41-1.84-.41-2,0-3.08,1.48-3.08,3.29,0,2.02,1.3,3.26,3.02,3.26,.9,0,1.49-.23,1.94-.43l.27,1.19Z"/><path class="cls-1" d="M630.24,46.98c-.7,.25-2.09,.67-3.73,.67-1.84,0-3.35-.47-4.54-1.6-1.04-1.01-1.69-2.63-1.69-4.52,.02-3.62,2.5-6.27,6.57-6.27,1.41,0,2.5,.31,3.03,.56l-.38,1.28c-.65-.29-1.46-.52-2.68-.52-2.95,0-4.88,1.84-4.88,4.88s1.85,4.9,4.68,4.9c1.03,0,1.73-.14,2.09-.32v-3.62h-2.47v-1.26h4v5.83Z"/><path class="cls-1" d="M637.54,47.52l-.13-1.1h-.05c-.49,.68-1.42,1.3-2.67,1.3-1.76,0-2.67-1.24-2.67-2.5,0-2.11,1.87-3.26,5.24-3.24v-.18c0-.72-.2-2.02-1.98-2.02-.81,0-1.66,.25-2.27,.65l-.36-1.04c.72-.47,1.76-.77,2.86-.77,2.67,0,3.31,1.82,3.31,3.56v3.26c0,.76,.04,1.49,.14,2.09h-1.44Zm-.23-4.45c-1.73-.04-3.69,.27-3.69,1.96,0,1.03,.68,1.51,1.49,1.51,1.13,0,1.85-.72,2.11-1.46,.05-.16,.09-.34,.09-.5v-1.51Z"/><path class="cls-1" d="M643.23,36.3v2.5h2.27v1.21h-2.27v4.7c0,1.08,.31,1.69,1.19,1.69,.41,0,.72-.05,.92-.11l.07,1.19c-.31,.13-.79,.22-1.4,.22-.74,0-1.33-.23-1.71-.67-.45-.47-.61-1.24-.61-2.27v-4.75h-1.35v-1.21h1.35v-2.09l1.55-.41Z"/><path class="cls-1" d="M648.05,43.45c.04,2.14,1.41,3.02,2.99,3.02,1.13,0,1.82-.2,2.41-.45l.27,1.13c-.56,.25-1.51,.54-2.9,.54-2.68,0-4.29-1.76-4.29-4.39s1.55-4.7,4.09-4.7c2.84,0,3.6,2.5,3.6,4.1,0,.32-.04,.58-.05,.74h-6.12Zm4.65-1.13c.02-1.01-.41-2.57-2.2-2.57-1.6,0-2.3,1.48-2.43,2.57h4.63Z"/><path class="cls-1" d="M655.97,45.9c.47,.31,1.3,.63,2.09,.63,1.15,0,1.69-.58,1.69-1.3,0-.76-.45-1.17-1.62-1.6-1.57-.56-2.3-1.42-2.3-2.47,0-1.4,1.13-2.56,3.01-2.56,.88,0,1.66,.25,2.14,.54l-.4,1.15c-.34-.22-.97-.5-1.78-.5-.94,0-1.46,.54-1.46,1.19,0,.72,.52,1.04,1.66,1.48,1.51,.58,2.29,1.33,2.29,2.63,0,1.53-1.19,2.61-3.26,2.61-.96,0-1.84-.23-2.45-.59l.4-1.21Z"/></g><g><path class="cls-1" d="M230.33,97.47c.68-.14,1.76-.25,2.86-.25,1.57,0,2.58,.27,3.33,.88,.63,.47,1.01,1.19,1.01,2.14,0,1.17-.77,2.2-2.05,2.66v.04c1.15,.29,2.5,1.24,2.5,3.04,0,1.04-.41,1.84-1.03,2.43-.85,.77-2.21,1.13-4.19,1.13-1.08,0-1.91-.07-2.43-.14v-11.94Zm1.57,4.97h1.42c1.66,0,2.63-.86,2.63-2.03,0-1.42-1.08-1.98-2.67-1.98-.72,0-1.13,.05-1.39,.11v3.91Zm0,5.82c.31,.05,.76,.07,1.31,.07,1.62,0,3.12-.59,3.12-2.36,0-1.66-1.42-2.34-3.13-2.34h-1.3v4.63Z"/><path class="cls-1" d="M247.32,107.06c0,.9,.02,1.69,.07,2.38h-1.4l-.09-1.42h-.04c-.41,.7-1.33,1.62-2.88,1.62-1.37,0-3.01-.76-3.01-3.82v-5.1h1.58v4.83c0,1.66,.5,2.77,1.95,2.77,1.06,0,1.8-.74,2.09-1.44,.09-.23,.14-.52,.14-.81v-5.35h1.58v6.34Z"/><path class="cls-1" d="M255.33,109.44v-7.51h-3.66v7.51h-1.57v-7.51h-1.22v-1.21h1.22v-.29c0-1.22,.29-2.29,.97-2.97,.5-.5,1.22-.81,2.2-.81,.5,0,.97,.16,1.24,.31l-.32,1.17c-.23-.11-.58-.22-.94-.22-1.24,0-1.58,1.06-1.58,2.43v.38h3.66v-.41c0-1.22,.29-2.34,1.03-3.04,.59-.58,1.39-.81,2.11-.81,.58,0,1.04,.13,1.35,.25l-.2,1.22c-.25-.11-.56-.2-1.03-.2-1.33,0-1.69,1.19-1.69,2.52v.47h2.11v1.21h-2.09v7.51h-1.58Z"/><path class="cls-1" d="M261.09,105.37c.04,2.14,1.4,3.02,2.99,3.02,1.13,0,1.82-.2,2.41-.45l.27,1.13c-.56,.25-1.51,.54-2.9,.54-2.68,0-4.29-1.76-4.29-4.39s1.55-4.7,4.09-4.7c2.84,0,3.6,2.5,3.6,4.1,0,.32-.04,.58-.05,.74h-6.12Zm4.65-1.13c.02-1.01-.41-2.57-2.2-2.57-1.6,0-2.3,1.48-2.43,2.57h4.63Z"/><path class="cls-1" d="M269.23,103.44c0-1.03-.02-1.91-.07-2.72h1.39l.05,1.71h.07c.4-1.17,1.35-1.91,2.41-1.91,.18,0,.31,.02,.45,.05v1.49c-.16-.04-.32-.05-.54-.05-1.12,0-1.91,.85-2.12,2.03-.04,.22-.07,.47-.07,.74v4.65h-1.57v-6Z"/></g><g><path class="cls-1" d="M523.17,105.62l-1.26,3.82h-1.62l4.12-12.14h1.89l4.14,12.14h-1.67l-1.3-3.82h-4.3Zm3.98-1.22l-1.19-3.49c-.27-.79-.45-1.51-.63-2.21h-.04c-.18,.72-.38,1.46-.61,2.2l-1.19,3.51h3.66Z"/><path class="cls-1" d="M532.22,109.44v-12.14h1.71l3.89,6.14c.9,1.42,1.6,2.7,2.18,3.94l.04-.02c-.14-1.62-.18-3.1-.18-4.99v-5.08h1.48v12.14h-1.58l-3.85-6.16c-.85-1.35-1.66-2.74-2.27-4.05l-.05,.02c.09,1.53,.13,2.99,.13,5.01v5.19h-1.48Z"/><path class="cls-1" d="M544.07,97.47c.95-.14,2.09-.25,3.33-.25,2.25,0,3.85,.52,4.92,1.51,1.08,.99,1.71,2.4,1.71,4.36s-.61,3.6-1.75,4.72c-1.13,1.13-3.01,1.75-5.37,1.75-1.12,0-2.05-.05-2.84-.14v-11.94Zm1.57,10.73c.4,.07,.97,.09,1.58,.09,3.35,0,5.17-1.87,5.17-5.15,.02-2.86-1.6-4.68-4.92-4.68-.81,0-1.42,.07-1.84,.16v9.58Z"/></g><g><path class="cls-1" d="M812.38,103.25c0,4.18-2.54,6.39-5.64,6.39s-5.46-2.48-5.46-6.16,2.39-6.37,5.63-6.37,5.46,2.54,5.46,6.14Zm-9.42,.2c0,2.59,1.4,4.92,3.87,4.92s3.89-2.29,3.89-5.04c0-2.41-1.26-4.93-3.87-4.93s-3.89,2.39-3.89,5.06Z"/><path class="cls-1" d="M814.41,97.47c.79-.16,1.93-.25,3.01-.25,1.67,0,2.75,.31,3.51,.99,.61,.54,.95,1.37,.95,2.3,0,1.6-1.01,2.67-2.29,3.1v.05c.94,.32,1.49,1.19,1.78,2.45,.4,1.69,.68,2.86,.94,3.33h-1.62c-.2-.34-.47-1.39-.81-2.9-.36-1.67-1.01-2.3-2.43-2.36h-1.48v5.26h-1.57v-11.97Zm1.57,5.53h1.6c1.67,0,2.74-.92,2.74-2.3,0-1.57-1.13-2.25-2.79-2.27-.76,0-1.3,.07-1.55,.14v4.43Z"/></g><g><path class="cls-1" d="M228.89,410.4v-12.14h1.71l3.89,6.14c.9,1.42,1.6,2.7,2.18,3.94l.04-.02c-.14-1.62-.18-3.1-.18-4.99v-5.08h1.48v12.14h-1.58l-3.85-6.16c-.85-1.35-1.66-2.74-2.27-4.05l-.05,.02c.09,1.53,.13,2.99,.13,5v5.19h-1.48Z"/><path class="cls-1" d="M251.1,404.21c0,4.18-2.54,6.39-5.64,6.39s-5.46-2.48-5.46-6.16,2.39-6.37,5.64-6.37,5.46,2.54,5.46,6.14Zm-9.42,.2c0,2.59,1.4,4.92,3.87,4.92s3.89-2.29,3.89-5.04c0-2.41-1.26-4.93-3.87-4.93s-3.89,2.39-3.89,5.06Z"/><path class="cls-1" d="M254.99,399.6h-3.69v-1.33h8.98v1.33h-3.71v10.8h-1.58v-10.8Z"/></g><g><path class="cls-1" d="M519.77,410.4v-12.14h1.71l3.89,6.14c.9,1.42,1.6,2.7,2.18,3.94l.04-.02c-.14-1.62-.18-3.1-.18-4.99v-5.08h1.48v12.14h-1.58l-3.85-6.16c-.85-1.35-1.66-2.74-2.27-4.05l-.05,.02c.09,1.53,.13,2.99,.13,5.01v5.19h-1.48Z"/><path class="cls-1" d="M533.57,406.58l-1.26,3.82h-1.62l4.12-12.14h1.89l4.14,12.14h-1.67l-1.3-3.82h-4.3Zm3.98-1.22l-1.19-3.49c-.27-.79-.45-1.51-.63-2.21h-.04c-.18,.72-.38,1.46-.61,2.2l-1.19,3.51h3.65Z"/><path class="cls-1" d="M542.63,410.4v-12.14h1.71l3.89,6.14c.9,1.42,1.6,2.7,2.18,3.94l.04-.02c-.14-1.62-.18-3.1-.18-4.99v-5.08h1.48v12.14h-1.58l-3.85-6.16c-.85-1.35-1.66-2.74-2.27-4.05l-.05,.02c.09,1.53,.13,2.99,.13,5.01v5.19h-1.48Z"/><path class="cls-1" d="M554.47,398.43c.95-.14,2.09-.25,3.33-.25,2.25,0,3.85,.52,4.92,1.51,1.08,.99,1.71,2.4,1.71,4.36s-.61,3.6-1.75,4.72c-1.13,1.13-3.01,1.75-5.37,1.75-1.12,0-2.05-.05-2.84-.14v-11.94Zm1.57,10.73c.4,.07,.97,.09,1.58,.09,3.35,0,5.17-1.87,5.17-5.15,.02-2.86-1.6-4.68-4.92-4.68-.81,0-1.42,.07-1.84,.16v9.58Z"/></g><g><path class="cls-1" d="M800.57,410.4v-12.14h1.71l3.89,6.14c.9,1.42,1.6,2.7,2.18,3.94l.04-.02c-.14-1.62-.18-3.1-.18-4.99v-5.08h1.48v12.14h-1.58l-3.85-6.16c-.85-1.35-1.66-2.74-2.27-4.05l-.05,.02c.09,1.53,.13,2.99,.13,5v5.19h-1.48Z"/><path class="cls-1" d="M822.78,404.21c0,4.18-2.54,6.39-5.63,6.39s-5.46-2.48-5.46-6.16,2.39-6.37,5.64-6.37,5.46,2.54,5.46,6.14Zm-9.42,.2c0,2.59,1.4,4.92,3.87,4.92s3.89-2.29,3.89-5.04c0-2.41-1.26-4.93-3.87-4.93s-3.89,2.39-3.89,5.06Z"/><path class="cls-1" d="M824.81,398.43c.79-.16,1.93-.25,3.01-.25,1.67,0,2.75,.31,3.51,.99,.61,.54,.96,1.37,.96,2.3,0,1.6-1.01,2.67-2.29,3.1v.05c.94,.32,1.49,1.19,1.78,2.45,.4,1.69,.68,2.86,.94,3.33h-1.62c-.2-.34-.47-1.39-.81-2.9-.36-1.67-1.01-2.3-2.43-2.36h-1.48v5.26h-1.57v-11.97Zm1.57,5.53h1.6c1.67,0,2.74-.92,2.74-2.3,0-1.57-1.13-2.25-2.79-2.27-.76,0-1.3,.07-1.55,.14v4.43Z"/></g><path class="cls-1" d="M435.96,212.5v2.82h2.71v.72h-2.71v2.84h-.77v-2.84h-2.71v-.72h2.71v-2.82h.77Z"/><path class="cls-1" d="M436.76,235.41v.78h-2.96v-.78h2.96Z"/><path class="cls-1" d="M709.56,222.58v2.82h2.71v.72h-2.71v2.84h-.77v-2.84h-2.71v-.72h2.71v-2.82h.77Z"/><path class="cls-1" d="M710.36,245.49v.78h-2.96v-.78h2.96Z"/><path class="cls-1" d="M188.28,212.5v2.82h2.71v.72h-2.71v2.84h-.77v-2.84h-2.71v-.72h2.71v-2.82h.77Z"/><path class="cls-1" d="M189.08,235.41v.78h-2.96v-.78h2.96Z"/><path class="cls-1" d="M713.88,507.7v2.82h2.71v.72h-2.71v2.84h-.77v-2.84h-2.71v-.72h2.71v-2.82h.77Z"/><path class="cls-1" d="M714.68,530.61v.78h-2.96v-.78h2.96Z"/><path class="cls-1" d="M162.36,507.7v2.82h2.71v.72h-2.71v2.84h-.77v-2.84h-2.71v-.72h2.71v-2.82h.77Z"/><path class="cls-1" d="M163.16,530.61v.78h-2.96v-.78h2.96Z"/><path class="cls-1" d="M438.84,507.7v2.82h2.71v.72h-2.71v2.84h-.77v-2.84h-2.71v-.72h2.71v-2.82h.77Z"/><path class="cls-1" d="M439.64,530.61v.78h-2.96v-.78h2.96Z"/></g></svg>