<?xml version="1.0" encoding="utf-8"?>
<!-- Generator: Adobe Illustrator 27.4.1, SVG Export Plug-In . SVG Version: 6.00 Build 0)  -->
<svg version="1.1" id="Ebene_1" xmlns="http://www.w3.org/2000/svg" xmlns:xlink="http://www.w3.org/1999/xlink" x="0px" y="0px"
	 viewBox="0 0 1080 600.5" style="enable-background:new 0 0 1080 600.5;" xml:space="preserve">
<style type="text/css">
	.st0{fill:none;stroke:#C9D1D9;stroke-width:2;stroke-miterlimit:10;}
	.st1{fill:none;stroke:#C9D1D9;stroke-width:2.17;stroke-miterlimit:10;}
	.st2{fill:none;stroke:#C9D1D9;stroke-width:0.82;stroke-miterlimit:10;}
	.st3{fill:none;stroke:#C9D1D9;stroke-width:1.37;stroke-miterlimit:10;}
	.st4{fill:none;stroke:#C9D1D9;stroke-width:0.25;stroke-miterlimit:10;}
	.st5{fill:none;stroke:#C9D1D9;stroke-width:0.17;stroke-miterlimit:10;}
	.st6{fill:none;stroke:#C9D1D9;stroke-width:1.27;stroke-miterlimit:10;}
	.st7{fill:none;stroke:#C9D1D9;stroke-width:1.98;stroke-miterlimit:10;}
	.st8{fill:#C9D1D9;}
	.st9{opacity:0.2;fill:#C9D1D9;stroke:#C9D1D9;stroke-width:1.27;stroke-miterlimit:10;enable-background:new    ;}
	.st10{enable-background:new    ;}
</style>
<g id="Ebene_1_00000130610886409576917550000007520443189972790664_">
	<rect x="181.4" y="229" class="st0" width="51.8" height="5.5"/>
	<rect x="135.4" y="236.2" class="st1" width="144" height="7.2"/>
	<g>
		<polygon class="st2" points="181.4,218.9 233.3,223.2 233.3,220.3 181.4,216 		"/>
		<polygon class="st2" points="181.4,221.8 233.3,226.1 233.3,223.2 181.4,218.9 		"/>
		<polygon class="st2" points="181.4,213.1 233.3,217.4 233.3,214.6 181.4,210.2 		"/>
		<polygon class="st2" points="233.3,200.2 233.3,197.3 198.7,197.3 		"/>
		<polygon class="st2" points="181.4,224.6 233.3,229 233.3,226.1 181.4,221.8 		"/>
		<polygon class="st2" points="181.4,234.7 233.3,234.7 233.3,229 181.4,224.6 		"/>
		<polygon class="st2" points="181.4,216 233.3,220.3 233.3,217.4 181.4,213.1 		"/>
		<polygon class="st2" points="181.4,201.6 233.3,205.9 233.3,203 181.4,198.7 		"/>
		<polygon class="st2" points="181.4,210.2 233.3,214.6 233.3,211.7 181.4,207.4 		"/>
		<polygon class="st2" points="181.4,197.3 181.4,198.7 233.3,203 233.3,200.2 198.7,197.3 		"/>
		<polygon class="st2" points="181.4,204.5 233.3,208.8 233.3,205.9 181.4,201.6 		"/>
		<polygon class="st2" points="181.4,207.4 233.3,211.7 233.3,208.8 181.4,204.5 		"/>
	</g>
	<polygon class="st3" points="203,77.8 184.3,77.8 184.3,195.8 230.4,195.8 230.4,77.8 211.7,77.8 211.7,142.6 203,142.6 	"/>
	<line class="st4" x1="187.2" y1="77.8" x2="187.2" y2="195.8"/>
	<line class="st4" x1="190.1" y1="77.8" x2="190.1" y2="195.8"/>
	<line class="st4" x1="193" y1="77.8" x2="193" y2="195.8"/>
	<line class="st4" x1="195.8" y1="77.8" x2="195.8" y2="195.8"/>
	<line class="st4" x1="195.8" y1="77.8" x2="195.8" y2="195.8"/>
	<line class="st4" x1="198.7" y1="77.8" x2="198.7" y2="195.8"/>
	<line class="st4" x1="201.6" y1="77.8" x2="201.6" y2="195.8"/>
	<line class="st4" x1="203" y1="77.8" x2="203" y2="195.8"/>
	<line class="st4" x1="203" y1="77.8" x2="203" y2="195.8"/>
	<line class="st5" x1="204.5" y1="142.6" x2="204.5" y2="195.8"/>
	<line class="st5" x1="205.9" y1="142.6" x2="205.9" y2="195.8"/>
	<line class="st5" x1="207.4" y1="142.6" x2="207.4" y2="195.8"/>
	<line class="st5" x1="208.8" y1="142.6" x2="208.8" y2="195.8"/>
	<line class="st5" x1="210.2" y1="142.6" x2="210.2" y2="195.8"/>
	<line class="st5" x1="210.2" y1="142.6" x2="210.2" y2="195.8"/>
	<line class="st4" x1="211.7" y1="77.8" x2="211.7" y2="195.8"/>
	<line class="st4" x1="213.1" y1="77.8" x2="213.1" y2="195.8"/>
	<line class="st4" x1="216" y1="77.8" x2="216" y2="195.8"/>
	<line class="st4" x1="218.9" y1="77.8" x2="218.9" y2="195.8"/>
	<line class="st4" x1="221.8" y1="77.8" x2="221.8" y2="195.8"/>
	<line class="st4" x1="224.6" y1="77.8" x2="224.6" y2="195.8"/>
	<line class="st4" x1="224.6" y1="77.8" x2="224.6" y2="195.8"/>
	<line class="st4" x1="227.5" y1="77.8" x2="227.5" y2="195.8"/>
	<line class="st4" x1="230.4" y1="77.8" x2="230.4" y2="195.8"/>
	<rect x="158.4" y="286.6" class="st6" width="11.5" height="43.2"/>
	<rect x="201.6" y="286.6" class="st6" width="11.5" height="43.2"/>
	<rect x="244.8" y="286.6" class="st6" width="11.5" height="43.2"/>
	<path class="st7" d="M164.2,329.8c0,32.6-44.4,59-99.4,59"/>
	<path class="st7" d="M207.4,329.8c0,54.7,70.3,72,87.8,72"/>
	<path class="st0" d="M207.4,329.8c2.9,24.5,44.6,23,44.6,0"/>
	<line class="st0" x1="453.6" y1="86.4" x2="367.2" y2="86.4"/>
	<rect x="367.2" y="86.4" class="st0" width="86.4" height="28.8"/>
	<g>
		<line class="st0" x1="410.3" y1="126.7" x2="410.3" y2="171.4"/>
		<polygon class="st8" points="403.3,128.7 410.3,116.6 417.3,128.7 		"/>
	</g>
	<line class="st0" x1="410.4" y1="171.4" x2="493.9" y2="171.4"/>
	<line class="st0" x1="493.9" y1="171.4" x2="493.9" y2="100.8"/>
	<line class="st0" x1="453.6" y1="100.8" x2="540" y2="100.8"/>
	<path class="st8" d="M493.9,99.9c0.5,0,0.9,0.4,0.9,0.9s-0.4,0.9-0.9,0.9s-0.9-0.4-0.9-0.9S493.4,99.9,493.9,99.9 M493.9,97.9
		c-1.6,0-2.9,1.3-2.9,2.9s1.3,2.9,2.9,2.9s2.9-1.3,2.9-2.9S495.5,97.9,493.9,97.9L493.9,97.9z"/>
	<rect x="728.6" y="229" class="st0" width="51.8" height="5.5"/>
	<rect x="682.6" y="236.2" class="st1" width="144" height="7.2"/>
	<g>
		<polygon class="st2" points="728.6,218.9 780.5,223.2 780.5,220.3 728.6,216 		"/>
		<polygon class="st2" points="728.6,221.8 780.5,226.1 780.5,223.2 728.6,218.9 		"/>
		<polygon class="st2" points="728.6,213.1 780.5,217.4 780.5,214.6 728.6,210.2 		"/>
		<polygon class="st2" points="780.5,200.2 780.5,197.3 745.9,197.3 		"/>
		<polygon class="st2" points="728.6,224.6 780.5,229 780.5,226.1 728.6,221.8 		"/>
		<polygon class="st2" points="728.6,234.7 780.5,234.7 780.5,229 728.6,224.6 		"/>
		<polygon class="st2" points="728.6,216 780.5,220.3 780.5,217.4 728.6,213.1 		"/>
		<polygon class="st2" points="728.6,201.6 780.5,205.9 780.5,203 728.6,198.7 		"/>
		<polygon class="st2" points="728.6,210.2 780.5,214.6 780.5,211.7 728.6,207.4 		"/>
		<polygon class="st2" points="728.6,197.3 728.6,198.7 780.5,203 780.5,200.2 745.9,197.3 		"/>
		<polygon class="st2" points="728.6,204.5 780.5,208.8 780.5,205.9 728.6,201.6 		"/>
		<polygon class="st2" points="728.6,207.4 780.5,211.7 780.5,208.8 728.6,204.5 		"/>
	</g>
	<polygon class="st3" points="750.2,77.8 731.5,77.8 731.5,195.8 777.6,195.8 777.6,77.8 758.9,77.8 758.9,142.6 750.2,142.6 	"/>
	<line class="st4" x1="734.4" y1="77.8" x2="734.4" y2="195.8"/>
	<line class="st4" x1="737.3" y1="77.8" x2="737.3" y2="195.8"/>
	<line class="st4" x1="740.2" y1="77.8" x2="740.2" y2="195.8"/>
	<line class="st4" x1="743" y1="77.8" x2="743" y2="195.8"/>
	<line class="st4" x1="743" y1="77.8" x2="743" y2="195.8"/>
	<line class="st4" x1="745.9" y1="77.8" x2="745.9" y2="195.8"/>
	<line class="st4" x1="748.8" y1="77.8" x2="748.8" y2="195.8"/>
	<line class="st4" x1="750.2" y1="77.8" x2="750.2" y2="195.8"/>
	<line class="st4" x1="750.2" y1="77.8" x2="750.2" y2="195.8"/>
	<line class="st5" x1="751.7" y1="142.6" x2="751.7" y2="195.8"/>
	<line class="st5" x1="753.1" y1="142.6" x2="753.1" y2="195.8"/>
	<line class="st5" x1="754.6" y1="142.6" x2="754.6" y2="195.8"/>
	<line class="st5" x1="756" y1="142.6" x2="756" y2="195.8"/>
	<line class="st5" x1="757.4" y1="142.6" x2="757.4" y2="195.8"/>
	<line class="st5" x1="757.4" y1="142.6" x2="757.4" y2="195.8"/>
	<line class="st4" x1="758.9" y1="77.8" x2="758.9" y2="195.8"/>
	<line class="st4" x1="760.3" y1="77.8" x2="760.3" y2="195.8"/>
	<line class="st4" x1="763.2" y1="77.8" x2="763.2" y2="195.8"/>
	<line class="st4" x1="766.1" y1="77.8" x2="766.1" y2="195.8"/>
	<line class="st4" x1="769" y1="77.8" x2="769" y2="195.8"/>
	<line class="st4" x1="771.8" y1="77.8" x2="771.8" y2="195.8"/>
	<line class="st4" x1="771.8" y1="77.8" x2="771.8" y2="195.8"/>
	<line class="st4" x1="774.7" y1="77.8" x2="774.7" y2="195.8"/>
	<line class="st4" x1="777.6" y1="77.8" x2="777.6" y2="195.8"/>
	<g>
		<path class="st7" d="M754.6,329.8c0,41.8-111.9,102.7-19.6,127.6"/>
		<path class="st8" d="M719.3,462.7c-0.2-0.5,0.1-1.1,0.7-1.2l14.5-4.3l-10.1-11.4c-0.4-0.4-0.3-1,0.1-1.4c0.4-0.4,1-0.3,1.4,0.1
			l11.1,12.5c0.2,0.2,0.3,0.6,0.2,0.9c-0.1,0.3-0.3,0.6-0.7,0.7l-16,4.8c-0.2,0-0.4,0-0.5,0C719.7,463.3,719.4,463,719.3,462.7
			L719.3,462.7z"/>
	</g>
	<path class="st7" d="M711.4,329.8c-19.7,55.7-33.1,76.3-30.2,162.7"/>
	<g>
		<path class="st7" d="M797.8,329.8c0,84.1-11.1,161.9-60.8,198.1"/>
		<polygon class="st8" points="719,527.4 738.3,526.8 729.7,544.1 		"/>
	</g>
	<line class="st0" x1="921.6" y1="148.3" x2="921.6" y2="158.3"/>
	<line class="st0" x1="935.9" y1="244.7" x2="935.9" y2="158.3"/>
	<line class="st0" x1="921.6" y1="244.7" x2="921.6" y2="316.8"/>
	<rect x="907.1" y="158.3" class="st0" width="28.8" height="86.4"/>
	<g>
		<line class="st0" x1="947.4" y1="201.4" x2="1034.2" y2="201.4"/>
		<polygon class="st8" points="949.4,208.3 937.3,201.4 949.4,194.4 		"/>
		<path class="st8" d="M1027.3,206.1c-0.2-0.2-0.1-0.5,0.2-0.7l6.4-4.1l-6.4-4.1c-0.2-0.1-0.3-0.5-0.2-0.7s0.5-0.3,0.7-0.1l7.1,4.5
			c0.1,0.1,0.2,0.2,0.2,0.4s-0.1,0.3-0.2,0.4l-7.1,4.5c-0.1,0.1-0.2,0.1-0.3,0.1C1027.6,206.4,1027.4,206.3,1027.3,206.1
			L1027.3,206.1z"/>
	</g>
	<line class="st0" x1="921.6" y1="148.3" x2="921.6" y2="87.8"/>
	<path class="st9" d="M823.8,243.4H685.3c-1.5,0-2.7,1.2-2.7,2.7v60.8c0,1.5,1.2,2.7,2.7,2.7h20.3v-23h11.5v23h31.7v-23h11.5v23H792
		v-23h11.5v23h20.3c1.5,0,2.7-1.2,2.7-2.7v-60.8C826.6,244.6,825.3,243.4,823.8,243.4L823.8,243.4z"/>
	<rect x="705.6" y="286.6" class="st6" width="11.5" height="43.2"/>
	<rect x="748.8" y="286.6" class="st6" width="11.5" height="43.2"/>
	<rect x="792" y="286.6" class="st6" width="11.5" height="43.2"/>
	<path class="st9" d="M276.6,243.4H138.1c-1.5,0-2.7,1.2-2.7,2.7v60.8c0,1.5,1.2,2.7,2.7,2.7h20.3v-23h11.5v23h31.7v-23h11.5v23
		h31.7v-23h11.5v23h20.3c1.5,0,2.7-1.2,2.7-2.7v-60.8C279.4,244.6,278.1,243.4,276.6,243.4L276.6,243.4z"/>
	<polygon class="st0" points="907.2,316.8 936,316.8 921.6,334.1 	"/>
	<circle class="st0" cx="921.6" cy="79.2" r="8.6"/>
	<circle class="st0" cx="548.6" cy="100.8" r="8.6"/>
	<line class="st0" x1="367.2" y1="100.8" x2="280.8" y2="100.8"/>
	<circle class="st0" cx="272.2" cy="100.8" r="8.6"/>
	
		<ellipse transform="matrix(0.9993 -3.837655e-02 3.837655e-02 0.9993 -14.8794 2.4416)" class="st7" cx="56.2" cy="388.8" rx="8.6" ry="8.6"/>
	<circle class="st7" cx="303.8" cy="401.8" r="8.6"/>
	<polygon class="st7" points="666.7,492.5 695.5,492.5 681.1,509.8 	"/>
	<path class="st6" d="M823.8,243.4H685.3c-1.5,0-2.7,1.2-2.7,2.7v60.8c0,1.5,1.2,2.7,2.7,2.7h20.3v-23h11.5v23h31.7v-23h11.5v23H792
		v-23h11.5v23h20.3c1.5,0,2.7-1.2,2.7-2.7v-60.8C826.6,244.6,825.3,243.4,823.8,243.4L823.8,243.4z"/>
	<path class="st6" d="M276.6,243.4H138.1c-1.5,0-2.7,1.2-2.7,2.7v60.8c0,1.5,1.2,2.7,2.7,2.7h20.3v-23h11.5v23h31.7v-23h11.5v23
		h31.7v-23h11.5v23h20.3c1.5,0,2.7-1.2,2.7-2.7v-60.8C279.4,244.6,278.1,243.4,276.6,243.4L276.6,243.4z"/>
</g>
<g id="TEXT">
	<g class="st10">
		<path class="st8" d="M198.8,337h-8.4v-1.2l4.4-4.9c0.7-0.7,1.1-1.3,1.4-1.8c0.2-0.5,0.4-0.9,0.4-1.4c0-0.7-0.2-1.2-0.6-1.6
			s-0.9-0.6-1.6-0.6c-0.8,0-1.4,0.2-1.9,0.7c-0.4,0.5-0.7,1.1-0.7,1.9h-1.6c0-1.2,0.4-2.1,1.1-2.9s1.8-1.1,3-1.1
			c1.2,0,2.1,0.3,2.8,0.9c0.7,0.6,1,1.5,1,2.5c0,1.3-0.8,2.8-2.4,4.5l-3.4,3.7h6.4V337z"/>
	</g>
	<g class="st10">
		<path class="st8" d="M154,337h-1.6v-10.8l-3.3,1.2v-1.5l4.7-1.7h0.3V337z"/>
	</g>
	<g class="st10">
		<path class="st8" d="M237.4,329.8h1.2c0.8,0,1.4-0.2,1.8-0.6s0.7-0.9,0.7-1.6c0-1.5-0.7-2.2-2.2-2.2c-0.7,0-1.3,0.2-1.7,0.6
			c-0.4,0.4-0.6,0.9-0.6,1.6h-1.6c0-1,0.4-1.9,1.1-2.5c0.7-0.7,1.7-1,2.8-1c1.2,0,2.2,0.3,2.8,1s1,1.5,1,2.7c0,0.6-0.2,1.1-0.5,1.6
			s-0.9,0.9-1.5,1.2c0.7,0.2,1.2,0.6,1.6,1.1s0.6,1.1,0.6,1.9c0,1.1-0.4,2.1-1.1,2.7s-1.7,1-2.9,1s-2.2-0.3-2.9-1s-1.1-1.5-1.1-2.6
			h1.6c0,0.7,0.2,1.2,0.7,1.6s1,0.6,1.8,0.6c0.8,0,1.4-0.2,1.8-0.6s0.6-1,0.6-1.8c0-0.7-0.2-1.3-0.7-1.7s-1.1-0.6-2-0.6h-1.2V329.8z
			"/>
	</g>
	<g class="st10">
		<path class="st8" d="M403.3,144h-8.4v-1.2l4.4-4.9c0.7-0.7,1.1-1.3,1.4-1.8c0.2-0.5,0.4-0.9,0.4-1.4c0-0.7-0.2-1.2-0.6-1.6
			s-0.9-0.6-1.6-0.6c-0.8,0-1.4,0.2-1.9,0.7c-0.4,0.5-0.7,1.1-0.7,1.9h-1.6c0-1.2,0.4-2.1,1.1-2.9s1.8-1.1,3-1.1
			c1.2,0,2.1,0.3,2.8,0.9c0.7,0.6,1,1.5,1,2.5c0,1.3-0.8,2.8-2.4,4.5l-3.4,3.7h6.4V144z"/>
	</g>
	<g class="st10">
		<path class="st8" d="M358.5,92.2h-1.6V81.3l-3.3,1.2v-1.5l4.7-1.7h0.3V92.2z"/>
	</g>
	<g class="st10">
		<path class="st8" d="M464.9,86.4h1.2c0.8,0,1.4-0.2,1.8-0.6s0.7-0.9,0.7-1.6c0-1.5-0.7-2.2-2.2-2.2c-0.7,0-1.3,0.2-1.7,0.6
			c-0.4,0.4-0.6,0.9-0.6,1.6h-1.6c0-1,0.4-1.9,1.1-2.5c0.7-0.7,1.7-1,2.8-1c1.2,0,2.2,0.3,2.8,1s1,1.5,1,2.7c0,0.6-0.2,1.1-0.5,1.6
			s-0.9,0.9-1.5,1.2c0.7,0.2,1.2,0.6,1.6,1.1s0.6,1.1,0.6,1.9c0,1.1-0.4,2.1-1.1,2.7s-1.7,1-2.9,1s-2.2-0.3-2.9-1s-1.1-1.5-1.1-2.6
			h1.6c0,0.7,0.2,1.2,0.7,1.6s1,0.6,1.8,0.6c0.8,0,1.4-0.2,1.8-0.6s0.6-1,0.6-1.8c0-0.7-0.2-1.3-0.7-1.7s-1.1-0.6-2-0.6h-1.2V86.4z"
			/>
	</g>
	<g class="st10">
		<path class="st8" d="M348.5,62.6l3.7-10.6h1.8l-4.7,12.8h-1.5L343.1,52h1.8L348.5,62.6z"/>
	</g>
	<g class="st10">
		<path class="st8" d="M361,64.8c-0.1-0.2-0.2-0.5-0.2-1c-0.8,0.8-1.7,1.2-2.7,1.2c-0.9,0-1.7-0.3-2.3-0.8s-0.9-1.2-0.9-2
			c0-1,0.4-1.8,1.1-2.3s1.8-0.8,3.2-0.8h1.6v-0.7c0-0.6-0.2-1-0.5-1.4c-0.3-0.3-0.8-0.5-1.5-0.5c-0.6,0-1.1,0.1-1.5,0.4
			s-0.6,0.6-0.6,1.1H355c0-0.5,0.2-0.9,0.5-1.4s0.8-0.8,1.4-1.1s1.2-0.4,1.9-0.4c1.1,0,2,0.3,2.6,0.8s0.9,1.3,1,2.3v4.4
			c0,0.9,0.1,1.6,0.3,2.1v0.1H361z M358.3,63.6c0.5,0,1-0.1,1.5-0.4s0.8-0.6,1-1v-2h-1.3c-2,0-3,0.6-3,1.7c0,0.5,0.2,0.9,0.5,1.2
			S357.7,63.6,358.3,63.6z"/>
		<path class="st8" d="M369.5,56.7c-0.2,0-0.5-0.1-0.8-0.1c-1.1,0-1.8,0.5-2.2,1.4v6.8h-1.6v-9.5h1.6l0,1.1c0.5-0.8,1.3-1.3,2.3-1.3
			c0.3,0,0.6,0,0.7,0.1V56.7z"/>
		<path class="st8" d="M371,52.8c0-0.3,0.1-0.5,0.2-0.7s0.4-0.3,0.7-0.3s0.6,0.1,0.7,0.3s0.2,0.4,0.2,0.7s-0.1,0.5-0.2,0.7
			s-0.4,0.3-0.7,0.3s-0.6-0.1-0.7-0.3S371,53,371,52.8z M372.7,64.8h-1.6v-9.5h1.6V64.8z"/>
		<path class="st8" d="M381.2,64.8c-0.1-0.2-0.2-0.5-0.2-1c-0.8,0.8-1.7,1.2-2.7,1.2c-0.9,0-1.7-0.3-2.3-0.8s-0.9-1.2-0.9-2
			c0-1,0.4-1.8,1.1-2.3s1.8-0.8,3.2-0.8h1.6v-0.7c0-0.6-0.2-1-0.5-1.4c-0.3-0.3-0.8-0.5-1.5-0.5c-0.6,0-1.1,0.1-1.5,0.4
			s-0.6,0.6-0.6,1.1h-1.6c0-0.5,0.2-0.9,0.5-1.4s0.8-0.8,1.4-1.1s1.2-0.4,1.9-0.4c1.1,0,2,0.3,2.6,0.8s0.9,1.3,1,2.3v4.4
			c0,0.9,0.1,1.6,0.3,2.1v0.1H381.2z M378.5,63.6c0.5,0,1-0.1,1.5-0.4s0.8-0.6,1-1v-2h-1.3c-2,0-3,0.6-3,1.7c0,0.5,0.2,0.9,0.5,1.2
			S378,63.6,378.5,63.6z"/>
		<path class="st8" d="M393.2,60.2c0,1.5-0.3,2.6-1,3.5s-1.6,1.3-2.7,1.3c-1.2,0-2.1-0.4-2.8-1.3l-0.1,1.1h-1.5V51.3h1.6v5
			c0.7-0.8,1.6-1.2,2.7-1.2s2.1,0.4,2.7,1.3s1,2.1,1,3.6V60.2z M391.6,60c0-1.1-0.2-2-0.6-2.6s-1-0.9-1.8-0.9
			c-1.1,0-1.8,0.5-2.3,1.5v4.1c0.5,1,1.3,1.5,2.3,1.5c0.8,0,1.4-0.3,1.8-0.9S391.6,61.2,391.6,60z"/>
		<path class="st8" d="M397,64.8h-1.6V51.3h1.6V64.8z"/>
		<path class="st8" d="M403.6,65c-1.3,0-2.3-0.4-3.1-1.3s-1.2-2-1.2-3.4V60c0-0.9,0.2-1.8,0.5-2.5s0.9-1.3,1.5-1.7s1.3-0.6,2.1-0.6
			c1.2,0,2.2,0.4,2.9,1.2s1,2,1,3.5v0.7h-6.4c0,0.9,0.3,1.7,0.8,2.3c0.5,0.6,1.2,0.9,2,0.9c0.6,0,1.1-0.1,1.5-0.4s0.7-0.5,1-0.9
			l1,0.8C406.3,64.4,405.1,65,403.6,65z M403.4,56.5c-0.7,0-1.2,0.2-1.7,0.7s-0.7,1.1-0.8,2h4.8v-0.1c0-0.8-0.3-1.5-0.7-1.9
			S404,56.5,403.4,56.5z"/>
		<path class="st8" d="M418.5,59.6h-3v5.2h-1.7V52h4.2c1.4,0,2.6,0.3,3.3,1s1.2,1.6,1.2,2.9c0,0.8-0.2,1.5-0.6,2.1s-1,1-1.8,1.3
			l3,5.4v0.1h-1.8L418.5,59.6z M415.5,58.2h2.6c0.8,0,1.5-0.2,2-0.7s0.7-1,0.7-1.7c0-0.8-0.2-1.4-0.7-1.8s-1.2-0.6-2-0.6h-2.6V58.2z
			"/>
		<path class="st8" d="M428.6,65c-1.3,0-2.3-0.4-3.1-1.3s-1.2-2-1.2-3.4V60c0-0.9,0.2-1.8,0.5-2.5s0.9-1.3,1.5-1.7s1.3-0.6,2.1-0.6
			c1.2,0,2.2,0.4,2.9,1.2s1,2,1,3.5v0.7h-6.4c0,0.9,0.3,1.7,0.8,2.3c0.5,0.6,1.2,0.9,2,0.9c0.6,0,1.1-0.1,1.5-0.4s0.7-0.5,1-0.9
			l1,0.8C431.4,64.4,430.2,65,428.6,65z M428.4,56.5c-0.7,0-1.2,0.2-1.7,0.7s-0.7,1.1-0.8,2h4.8v-0.1c0-0.8-0.3-1.5-0.7-1.9
			S429.1,56.5,428.4,56.5z"/>
		<path class="st8" d="M439.8,62.3c0-0.4-0.2-0.8-0.5-1c-0.3-0.2-0.9-0.5-1.7-0.6s-1.5-0.4-2-0.6s-0.8-0.5-1.1-0.9s-0.3-0.7-0.3-1.2
			c0-0.8,0.3-1.4,1-2s1.5-0.8,2.5-0.8c1.1,0,2,0.3,2.6,0.8s1,1.3,1,2.1h-1.6c0-0.4-0.2-0.8-0.6-1.2s-0.9-0.5-1.4-0.5
			c-0.6,0-1.1,0.1-1.4,0.4s-0.5,0.6-0.5,1c0,0.4,0.2,0.7,0.5,0.9s0.9,0.4,1.7,0.6s1.5,0.4,2,0.7s0.9,0.6,1.1,0.9
			c0.2,0.4,0.4,0.8,0.4,1.3c0,0.8-0.3,1.5-1,2c-0.7,0.5-1.6,0.8-2.6,0.8c-0.8,0-1.4-0.1-2-0.4s-1-0.6-1.4-1.1
			c-0.3-0.5-0.5-1-0.5-1.6h1.6c0,0.5,0.2,1,0.7,1.3c0.4,0.3,0.9,0.5,1.6,0.5c0.6,0,1.1-0.1,1.5-0.4C439.6,63,439.8,62.7,439.8,62.3z
			"/>
		<path class="st8" d="M443.5,52.8c0-0.3,0.1-0.5,0.2-0.7s0.4-0.3,0.7-0.3s0.6,0.1,0.7,0.3s0.2,0.4,0.2,0.7s-0.1,0.5-0.2,0.7
			s-0.4,0.3-0.7,0.3s-0.6-0.1-0.7-0.3S443.5,53,443.5,52.8z M445.3,64.8h-1.6v-9.5h1.6V64.8z"/>
		<path class="st8" d="M453.4,62.3c0-0.4-0.2-0.8-0.5-1c-0.3-0.2-0.9-0.5-1.7-0.6s-1.5-0.4-2-0.6s-0.8-0.5-1.1-0.9s-0.3-0.7-0.3-1.2
			c0-0.8,0.3-1.4,1-2s1.5-0.8,2.5-0.8c1.1,0,2,0.3,2.6,0.8s1,1.3,1,2.1h-1.6c0-0.4-0.2-0.8-0.6-1.2s-0.9-0.5-1.4-0.5
			c-0.6,0-1.1,0.1-1.4,0.4s-0.5,0.6-0.5,1c0,0.4,0.2,0.7,0.5,0.9s0.9,0.4,1.7,0.6s1.5,0.4,2,0.7s0.9,0.6,1.1,0.9
			c0.2,0.4,0.4,0.8,0.4,1.3c0,0.8-0.3,1.5-1,2c-0.7,0.5-1.6,0.8-2.6,0.8c-0.8,0-1.4-0.1-2-0.4s-1-0.6-1.4-1.1
			c-0.3-0.5-0.5-1-0.5-1.6h1.6c0,0.5,0.2,1,0.7,1.3c0.4,0.3,0.9,0.5,1.6,0.5c0.6,0,1.1-0.1,1.5-0.4C453.2,63,453.4,62.7,453.4,62.3z
			"/>
	</g>
	<g class="st10">
		<path class="st8" d="M459.4,53v2.3h1.8v1.3h-1.8v5.9c0,0.4,0.1,0.7,0.2,0.9s0.4,0.3,0.8,0.3c0.2,0,0.4,0,0.8-0.1v1.3
			c-0.4,0.1-0.8,0.2-1.2,0.2c-0.7,0-1.3-0.2-1.6-0.7s-0.6-1.1-0.6-1.9v-5.9H456v-1.3h1.7V53H459.4z"/>
	</g>
	<g class="st10">
		<path class="st8" d="M462.4,60c0-0.9,0.2-1.8,0.5-2.5s0.9-1.3,1.5-1.7s1.4-0.6,2.2-0.6c1.3,0,2.3,0.4,3.1,1.3s1.2,2.1,1.2,3.6v0.1
			c0,0.9-0.2,1.8-0.5,2.5c-0.4,0.7-0.9,1.3-1.5,1.7s-1.4,0.6-2.3,0.6c-1.3,0-2.3-0.4-3.1-1.3s-1.2-2.1-1.2-3.6V60z M464.1,60.2
			c0,1.1,0.2,1.9,0.7,2.5s1.1,1,2,1c0.8,0,1.5-0.3,2-1c0.5-0.6,0.7-1.6,0.7-2.7c0-1-0.2-1.9-0.7-2.5c-0.5-0.6-1.2-1-2-1
			c-0.8,0-1.5,0.3-1.9,1S464.1,59,464.1,60.2z"/>
		<path class="st8" d="M477.7,56.7c-0.2,0-0.5-0.1-0.8-0.1c-1.1,0-1.8,0.5-2.2,1.4v6.8h-1.6v-9.5h1.6l0,1.1c0.5-0.8,1.3-1.3,2.3-1.3
			c0.3,0,0.6,0,0.7,0.1V56.7z"/>
	</g>
	<g class="st10">
		<path class="st8" d="M867.1,62.6l3.7-10.6h1.8l-4.7,12.8h-1.5L861.6,52h1.8L867.1,62.6z"/>
	</g>
	<g class="st10">
		<path class="st8" d="M873.2,60c0-0.9,0.2-1.8,0.5-2.5s0.9-1.3,1.5-1.7s1.4-0.6,2.2-0.6c1.3,0,2.3,0.4,3.1,1.3s1.2,2.1,1.2,3.6v0.1
			c0,0.9-0.2,1.8-0.5,2.5c-0.4,0.7-0.9,1.3-1.5,1.7s-1.4,0.6-2.3,0.6c-1.3,0-2.3-0.4-3.1-1.3s-1.2-2.1-1.2-3.6V60z M874.8,60.2
			c0,1.1,0.2,1.9,0.7,2.5s1.1,1,2,1c0.8,0,1.5-0.3,2-1c0.5-0.6,0.7-1.6,0.7-2.7c0-1-0.2-1.9-0.7-2.5c-0.5-0.6-1.2-1-2-1
			c-0.8,0-1.5,0.3-1.9,1S874.8,59,874.8,60.2z"/>
		<path class="st8" d="M885.7,64.8H884V51.3h1.6V64.8z"/>
		<path class="st8" d="M890.5,53v2.3h1.8v1.3h-1.8v5.9c0,0.4,0.1,0.7,0.2,0.9s0.4,0.3,0.8,0.3c0.2,0,0.4,0,0.8-0.1v1.3
			c-0.4,0.1-0.8,0.2-1.2,0.2c-0.7,0-1.3-0.2-1.6-0.7s-0.6-1.1-0.6-1.9v-5.9h-1.7v-1.3h1.7V53H890.5z"/>
		<path class="st8" d="M900,64.8c-0.1-0.2-0.2-0.5-0.2-1c-0.8,0.8-1.7,1.2-2.7,1.2c-0.9,0-1.7-0.3-2.3-0.8s-0.9-1.2-0.9-2
			c0-1,0.4-1.8,1.1-2.3s1.8-0.8,3.2-0.8h1.6v-0.7c0-0.6-0.2-1-0.5-1.4c-0.3-0.3-0.8-0.5-1.5-0.5c-0.6,0-1.1,0.1-1.5,0.4
			s-0.6,0.6-0.6,1.1h-1.6c0-0.5,0.2-0.9,0.5-1.4s0.8-0.8,1.4-1.1s1.2-0.4,1.9-0.4c1.1,0,2,0.3,2.6,0.8s0.9,1.3,1,2.3v4.4
			c0,0.9,0.1,1.6,0.3,2.1v0.1H900z M897.3,63.6c0.5,0,1-0.1,1.5-0.4s0.8-0.6,1-1v-2h-1.3c-2,0-3,0.6-3,1.7c0,0.5,0.2,0.9,0.5,1.2
			S896.8,63.6,897.3,63.6z"/>
		<path class="st8" d="M903.6,60c0-1.5,0.3-2.7,1-3.5s1.6-1.3,2.7-1.3c1.2,0,2.1,0.4,2.7,1.2l0.1-1.1h1.5v9.3c0,1.2-0.4,2.2-1.1,2.9
			s-1.7,1.1-2.9,1.1c-0.7,0-1.4-0.1-2-0.4s-1.2-0.7-1.5-1.2l0.8-1c0.7,0.9,1.5,1.3,2.6,1.3c0.8,0,1.4-0.2,1.8-0.7s0.7-1.1,0.7-1.9
			v-0.8c-0.7,0.8-1.5,1.1-2.7,1.1c-1.1,0-2-0.4-2.7-1.3S903.6,61.5,903.6,60z M905.2,60.2c0,1.1,0.2,1.9,0.7,2.5
			c0.4,0.6,1.1,0.9,1.8,0.9c1,0,1.8-0.5,2.3-1.4v-4.3c-0.5-0.9-1.2-1.4-2.2-1.4c-0.8,0-1.4,0.3-1.9,0.9S905.2,58.9,905.2,60.2z"/>
		<path class="st8" d="M918,65c-1.3,0-2.3-0.4-3.1-1.3s-1.2-2-1.2-3.4V60c0-0.9,0.2-1.8,0.5-2.5s0.9-1.3,1.5-1.7s1.3-0.6,2.1-0.6
			c1.2,0,2.2,0.4,2.9,1.2s1,2,1,3.5v0.7h-6.4c0,0.9,0.3,1.7,0.8,2.3c0.5,0.6,1.2,0.9,2,0.9c0.6,0,1.1-0.1,1.5-0.4s0.7-0.5,1-0.9
			l1,0.8C920.8,64.4,919.6,65,918,65z M917.8,56.5c-0.7,0-1.2,0.2-1.7,0.7s-0.7,1.1-0.8,2h4.8v-0.1c0-0.8-0.3-1.5-0.7-1.9
			S918.5,56.5,917.8,56.5z"/>
		<path class="st8" d="M928.3,64.8V52h3.6c1.1,0,2.1,0.2,3,0.7s1.5,1.2,2,2.1s0.7,2,0.7,3.1v0.8c0,1.2-0.2,2.3-0.7,3.2
			s-1.1,1.6-2,2.1s-1.9,0.7-3,0.7H928.3z M930,53.4v10h1.8c1.3,0,2.3-0.4,3-1.2s1.1-2,1.1-3.5V58c0-1.5-0.3-2.6-1-3.4
			c-0.7-0.8-1.7-1.2-2.9-1.2H930z"/>
		<path class="st8" d="M939.8,52.8c0-0.3,0.1-0.5,0.2-0.7s0.4-0.3,0.7-0.3s0.6,0.1,0.7,0.3s0.2,0.4,0.2,0.7s-0.1,0.5-0.2,0.7
			s-0.4,0.3-0.7,0.3s-0.6-0.1-0.7-0.3S939.8,53,939.8,52.8z M941.6,64.8H940v-9.5h1.6V64.8z"/>
		<path class="st8" d="M947.3,62.6l2.4-7.3h1.7l-3.4,9.5h-1.2l-3.4-9.5h1.7L947.3,62.6z"/>
		<path class="st8" d="M952.9,52.8c0-0.3,0.1-0.5,0.2-0.7s0.4-0.3,0.7-0.3s0.6,0.1,0.7,0.3s0.2,0.4,0.2,0.7s-0.1,0.5-0.2,0.7
			s-0.4,0.3-0.7,0.3s-0.6-0.1-0.7-0.3S952.9,53,952.9,52.8z M954.7,64.8h-1.6v-9.5h1.6V64.8z"/>
		<path class="st8" d="M956.9,60c0-1.5,0.3-2.6,1-3.5c0.7-0.9,1.6-1.3,2.7-1.3c1.1,0,2,0.4,2.6,1.1v-5h1.6v13.5h-1.5l-0.1-1
			c-0.7,0.8-1.6,1.2-2.7,1.2c-1.1,0-2-0.5-2.7-1.4s-1-2.1-1-3.5V60z M958.5,60.2c0,1.1,0.2,1.9,0.7,2.5s1.1,0.9,1.8,0.9
			c1,0,1.8-0.5,2.3-1.4v-4.4c-0.5-0.9-1.2-1.3-2.2-1.3c-0.8,0-1.4,0.3-1.9,0.9S958.5,58.9,958.5,60.2z"/>
		<path class="st8" d="M971.4,65c-1.3,0-2.3-0.4-3.1-1.3s-1.2-2-1.2-3.4V60c0-0.9,0.2-1.8,0.5-2.5s0.9-1.3,1.5-1.7s1.3-0.6,2.1-0.6
			c1.2,0,2.2,0.4,2.9,1.2s1,2,1,3.5v0.7h-6.4c0,0.9,0.3,1.7,0.8,2.3c0.5,0.6,1.2,0.9,2,0.9c0.6,0,1.1-0.1,1.5-0.4s0.7-0.5,1-0.9
			l1,0.8C974.2,64.4,973,65,971.4,65z M971.2,56.5c-0.7,0-1.2,0.2-1.7,0.7s-0.7,1.1-0.8,2h4.8v-0.1c0-0.8-0.3-1.5-0.7-1.9
			S971.9,56.5,971.2,56.5z"/>
		<path class="st8" d="M981.6,56.7c-0.2,0-0.5-0.1-0.8-0.1c-1.1,0-1.8,0.5-2.2,1.4v6.8H977v-9.5h1.6l0,1.1c0.5-0.8,1.3-1.3,2.3-1.3
			c0.3,0,0.6,0,0.7,0.1V56.7z"/>
	</g>
	<g class="st10">
		<path class="st8" d="M727.2,434.1l3.7-10.6h1.8l-4.7,12.8h-1.5l-4.7-12.8h1.8L727.2,434.1z"/>
	</g>
	<g class="st10">
		<path class="st8" d="M739.5,438.8c0,0.7-0.1,1.4-0.4,1.9c-0.2,0.5-0.6,1-1,1.2c-0.4,0.3-1,0.4-1.6,0.4c-0.6,0-1.1-0.1-1.6-0.4
			c-0.5-0.3-0.8-0.7-1.1-1.2c-0.2-0.5-0.4-1.1-0.4-1.8v-0.5c0-0.7,0.1-1.3,0.4-1.9s0.6-1,1.1-1.3c0.5-0.3,1-0.4,1.6-0.4
			c0.6,0,1.1,0.1,1.6,0.4c0.5,0.3,0.8,0.7,1,1.2c0.2,0.5,0.4,1.2,0.4,1.9V438.8z M738.6,438.4c0-0.9-0.2-1.6-0.5-2s-0.8-0.7-1.5-0.7
			c-0.6,0-1.1,0.2-1.5,0.7c-0.4,0.5-0.5,1.1-0.5,2v0.5c0,0.9,0.2,1.5,0.5,2c0.4,0.5,0.9,0.7,1.5,0.7c0.6,0,1.1-0.2,1.5-0.7
			s0.5-1.1,0.5-2V438.4z"/>
		<path class="st8" d="M746.2,434.9v5c0,0.7-0.2,1.3-0.7,1.7c-0.4,0.4-1,0.7-1.8,0.8l-0.3,0c-0.8,0-1.5-0.2-1.9-0.7s-0.7-1-0.7-1.8
			v-5.1h1v5c0,0.5,0.1,1,0.4,1.3c0.3,0.3,0.7,0.4,1.3,0.4c0.6,0,1-0.1,1.3-0.4c0.3-0.3,0.4-0.7,0.4-1.2v-5H746.2z"/>
	</g>
	<g class="st10">
		<path class="st8" d="M752.9,435.7h-2.4v6.6h-1v-6.6h-2.4v-0.8h5.7V435.7z"/>
	</g>
	<g class="st10">
		<path class="st8" d="M746.5,545l3.7-10.6h1.8l-4.7,12.8h-1.5l-4.7-12.8h1.8L746.5,545z"/>
	</g>
	<g class="st10">
		<path class="st8" d="M754.2,553.2h-1v-7.4h1V553.2z"/>
		<path class="st8" d="M761.6,553.2h-1l-3.7-5.7v5.7h-1v-7.4h1l3.7,5.7v-5.7h1V553.2z"/>
	</g>
	<g class="st10">
		<path class="st8" d="M746,337h-8.4v-1.2l4.4-4.9c0.7-0.7,1.1-1.3,1.4-1.8c0.2-0.5,0.4-0.9,0.4-1.4c0-0.7-0.2-1.2-0.6-1.6
			s-0.9-0.6-1.6-0.6c-0.8,0-1.4,0.2-1.9,0.7c-0.4,0.5-0.7,1.1-0.7,1.9h-1.6c0-1.2,0.4-2.1,1.1-2.9s1.8-1.1,3-1.1
			c1.2,0,2.1,0.3,2.8,0.9c0.7,0.6,1,1.5,1,2.5c0,1.3-0.8,2.8-2.4,4.5l-3.4,3.7h6.4V337z"/>
	</g>
	<g class="st10">
		<path class="st8" d="M701.2,337h-1.6v-10.8l-3.3,1.2v-1.5l4.7-1.7h0.3V337z"/>
	</g>
	<g class="st10">
		<path class="st8" d="M784.6,329.8h1.2c0.8,0,1.4-0.2,1.8-0.6s0.7-0.9,0.7-1.6c0-1.5-0.7-2.2-2.2-2.2c-0.7,0-1.3,0.2-1.7,0.6
			c-0.4,0.4-0.6,0.9-0.6,1.6h-1.6c0-1,0.4-1.9,1.1-2.5c0.7-0.7,1.7-1,2.8-1c1.2,0,2.2,0.3,2.8,1s1,1.5,1,2.7c0,0.6-0.2,1.1-0.5,1.6
			s-0.9,0.9-1.5,1.2c0.7,0.2,1.2,0.6,1.6,1.1s0.6,1.1,0.6,1.9c0,1.1-0.4,2.1-1.1,2.7s-1.7,1-2.9,1s-2.2-0.3-2.9-1s-1.1-1.5-1.1-2.6
			h1.6c0,0.7,0.2,1.2,0.7,1.6s1,0.6,1.8,0.6c0.8,0,1.4-0.2,1.8-0.6s0.6-1,0.6-1.8c0-0.7-0.2-1.3-0.7-1.7s-1.1-0.6-2-0.6h-1.2V329.8z
			"/>
	</g>
	<g class="st10">
		<path class="st8" d="M641.9,509.5c-0.4,0.6-1,1.1-1.8,1.4c-0.8,0.3-1.7,0.5-2.7,0.5c-1,0-2-0.2-2.8-0.7c-0.8-0.5-1.4-1.2-1.9-2.1
			s-0.7-1.9-0.7-3.1v-1.1c0-1.9,0.4-3.4,1.3-4.5s2.2-1.6,3.8-1.6c1.3,0,2.4,0.3,3.2,1c0.8,0.7,1.3,1.7,1.5,2.9h-1.7
			c-0.3-1.7-1.3-2.5-3-2.5c-1.1,0-2,0.4-2.6,1.2c-0.6,0.8-0.9,1.9-0.9,3.5v1c0,1.4,0.3,2.6,1,3.4c0.7,0.8,1.5,1.3,2.7,1.3
			c0.6,0,1.2-0.1,1.7-0.2c0.5-0.1,0.9-0.4,1.2-0.7v-2.9h-3v-1.4h4.6V509.5z"/>
		<path class="st8" d="M654.6,511.2h-1.7l-6.4-9.9v9.9h-1.7v-12.8h1.7l6.5,9.9v-9.9h1.7V511.2z"/>
		<path class="st8" d="M657.6,511.2v-12.8h3.6c1.1,0,2.1,0.2,3,0.7s1.5,1.2,2,2.1s0.7,2,0.7,3.1v0.8c0,1.2-0.2,2.3-0.7,3.2
			s-1.1,1.6-2,2.1s-1.9,0.7-3,0.7H657.6z M659.3,499.8v10h1.8c1.3,0,2.3-0.4,3-1.2s1.1-2,1.1-3.5v-0.7c0-1.5-0.3-2.6-1-3.4
			c-0.7-0.8-1.7-1.2-2.9-1.2H659.3z"/>
	</g>
	<g class="st10">
		<path class="st8" d="M950.5,188.6h-8.4v-1.2l4.4-4.9c0.7-0.7,1.1-1.3,1.4-1.8c0.2-0.5,0.4-0.9,0.4-1.4c0-0.7-0.2-1.2-0.6-1.6
			s-0.9-0.6-1.6-0.6c-0.8,0-1.4,0.2-1.9,0.7c-0.4,0.5-0.7,1.1-0.7,1.9h-1.6c0-1.2,0.4-2.1,1.1-2.9s1.8-1.1,3-1.1
			c1.2,0,2.1,0.3,2.8,0.9c0.7,0.6,1,1.5,1,2.5c0,1.3-0.8,2.8-2.4,4.5l-3.4,3.7h6.4V188.6z"/>
	</g>
	<g class="st10">
		<path class="st8" d="M912.8,145.5h1.2c0.8,0,1.4-0.2,1.8-0.6s0.7-0.9,0.7-1.6c0-1.5-0.7-2.2-2.2-2.2c-0.7,0-1.3,0.2-1.7,0.6
			c-0.4,0.4-0.6,0.9-0.6,1.6h-1.6c0-1,0.4-1.9,1.1-2.5c0.7-0.7,1.7-1,2.8-1c1.2,0,2.2,0.3,2.8,1s1,1.5,1,2.7c0,0.6-0.2,1.1-0.5,1.6
			s-0.9,0.9-1.5,1.2c0.7,0.2,1.2,0.6,1.6,1.1s0.6,1.1,0.6,1.9c0,1.1-0.4,2.1-1.1,2.7s-1.7,1-2.9,1s-2.2-0.3-2.9-1s-1.1-1.5-1.1-2.6
			h1.6c0,0.7,0.2,1.2,0.7,1.6s1,0.6,1.8,0.6c0.8,0,1.4-0.2,1.8-0.6s0.6-1,0.6-1.8c0-0.7-0.2-1.3-0.7-1.7s-1.1-0.6-2-0.6h-1.2V145.5z
			"/>
	</g>
	<g class="st10">
		<path class="st8" d="M915.8,263.5h-1.6v-10.8l-3.3,1.2v-1.5l4.7-1.7h0.3V263.5z"/>
	</g>
	<g class="st10">
		<path class="st8" d="M918.4,358.3c-0.4,0.6-1,1.1-1.8,1.4c-0.8,0.3-1.7,0.5-2.7,0.5c-1,0-2-0.2-2.8-0.7c-0.8-0.5-1.4-1.2-1.9-2.1
			s-0.7-1.9-0.7-3.1v-1.1c0-1.9,0.5-3.4,1.3-4.5s2.2-1.6,3.8-1.6c1.3,0,2.4,0.3,3.2,1c0.8,0.7,1.3,1.7,1.5,2.9h-1.7
			c-0.3-1.7-1.3-2.5-3-2.5c-1.1,0-2,0.4-2.6,1.2c-0.6,0.8-0.9,1.9-0.9,3.5v1c0,1.4,0.3,2.6,1,3.4c0.7,0.8,1.5,1.3,2.7,1.3
			c0.6,0,1.2-0.1,1.7-0.2c0.5-0.1,0.9-0.4,1.2-0.7V355h-3v-1.4h4.6V358.3z"/>
		<path class="st8" d="M931.1,360h-1.7l-6.4-9.9v9.9h-1.7v-12.8h1.7l6.5,9.9v-9.9h1.7V360z"/>
		<path class="st8" d="M934,360v-12.8h3.6c1.1,0,2.1,0.2,3,0.7s1.5,1.2,2,2.1s0.7,2,0.7,3.1v0.8c0,1.2-0.2,2.3-0.7,3.2
			s-1.1,1.6-2,2.1s-1.9,0.7-3,0.7H934z M935.7,348.6v10h1.8c1.3,0,2.3-0.4,3-1.2s1.1-2,1.1-3.5v-0.7c0-1.5-0.3-2.6-1-3.4
			c-0.7-0.8-1.7-1.2-2.9-1.2H935.7z"/>
	</g>
	<g class="st10">
		<path class="st8" d="M1039.7,187.8l3.7-10.6h1.8l-4.7,12.8h-1.5l-4.7-12.8h1.8L1039.7,187.8z"/>
	</g>
	<g class="st10">
		<path class="st8" d="M1052,192.6c0,0.7-0.1,1.4-0.4,1.9c-0.2,0.5-0.6,1-1,1.2c-0.4,0.3-1,0.4-1.6,0.4c-0.6,0-1.1-0.1-1.6-0.4
			s-0.8-0.7-1.1-1.2c-0.2-0.5-0.4-1.1-0.4-1.8v-0.5c0-0.7,0.1-1.3,0.4-1.9c0.2-0.5,0.6-1,1.1-1.3s1-0.4,1.6-0.4
			c0.6,0,1.1,0.1,1.6,0.4s0.8,0.7,1,1.2c0.2,0.5,0.4,1.2,0.4,1.9V192.6z M1051,192.1c0-0.9-0.2-1.6-0.5-2s-0.8-0.7-1.5-0.7
			c-0.6,0-1.1,0.2-1.5,0.7s-0.5,1.1-0.5,2v0.5c0,0.9,0.2,1.5,0.5,2c0.4,0.5,0.9,0.7,1.5,0.7c0.6,0,1.1-0.2,1.5-0.7
			c0.3-0.5,0.5-1.1,0.5-2V192.1z"/>
		<path class="st8" d="M1058.7,188.6v5c0,0.7-0.2,1.3-0.7,1.7c-0.4,0.4-1,0.7-1.8,0.7l-0.3,0c-0.8,0-1.5-0.2-1.9-0.7
			c-0.5-0.4-0.7-1-0.7-1.8v-5.1h1v5c0,0.5,0.1,1,0.4,1.3s0.7,0.4,1.3,0.4c0.6,0,1-0.1,1.3-0.4c0.3-0.3,0.4-0.7,0.4-1.2v-5H1058.7z"
			/>
	</g>
	<g class="st10">
		<path class="st8" d="M1065.4,189.4h-2.4v6.6h-1v-6.6h-2.4v-0.8h5.7V189.4z"/>
	</g>
	<g class="st10">
		<path class="st8" d="M939.5,100l3.7-10.6h1.8l-4.7,12.8h-1.5L934,89.4h1.8L939.5,100z"/>
	</g>
	<g class="st10">
		<path class="st8" d="M947.1,108.2h-1v-7.4h1V108.2z"/>
		<path class="st8" d="M954.6,108.2h-1l-3.7-5.7v5.7h-1v-7.4h1l3.7,5.7v-5.7h1V108.2z"/>
	</g>
</g>
</svg>
