<?xml version="1.0" encoding="UTF-8"?><svg xmlns="http://www.w3.org/2000/svg" viewBox="0 0 1080 600.48"><defs><style>.cls-1{fill:#1d1d1b;opacity:.1;}.cls-2{stroke-dasharray:0 0 0 0 0 0 2.59 2.59 2.59 2.59 2.59 2.59;}.cls-2,.cls-3,.cls-4,.cls-5{fill:none;stroke:#000;stroke-miterlimit:10;}.cls-3{stroke-width:1.42px;}.cls-5{stroke-width:1px;}</style></defs><g id="Vector"><line class="cls-4" x1="499.55" y1="472.32" x2="499.55" y2="385.92"/><line class="cls-4" x1="585.95" y1="385.92" x2="499.55" y2="385.92"/><line class="cls-4" x1="585.95" y1="472.32" x2="585.95" y2="385.92"/><line class="cls-4" x1="629.15" y1="472.32" x2="585.95" y2="472.32"/><line class="cls-4" x1="521.15" y1="155.52" x2="629.15" y2="155.52"/><line class="cls-4" x1="499.55" y1="241.92" x2="521.15" y2="241.92"/><line class="cls-4" x1="427.55" y1="155.52" x2="499.81" y2="155.52"/><line class="cls-4" x1="499.55" y1="472.32" x2="413.15" y2="472.32"/><line class="cls-2" x1="629.15" y1="241.92" x2="413.15" y2="241.92"/><line class="cls-2" x1="601.79" y1="472.32" x2="413.15" y2="472.32"/><line class="cls-2" x1="629.15" y1="385.92" x2="413.15" y2="385.92"/><line class="cls-2" x1="499.55" y1="141.12" x2="499.55" y2="515.52"/><line class="cls-2" x1="629.15" y1="155.52" x2="413.15" y2="155.52"/><line class="cls-3" x1="413.15" y1="501.12" x2="645.39" y2="501.12"/><polygon points="642.58 505.24 657.95 501.12 642.58 497 642.58 505.24"/><line class="cls-4" x1="499.55" y1="241.92" x2="499.55" y2="155.52"/><line class="cls-2" x1="629.15" y1="270.72" x2="413.15" y2="270.72"/><line class="cls-2" x1="629.15" y1="357.12" x2="413.15" y2="357.12"/><line class="cls-4" x1="521.15" y1="241.92" x2="521.15" y2="155.52"/><line class="cls-2" x1="629.15" y1="213.12" x2="413.15" y2="213.12"/><line class="cls-2" x1="629.15" y1="299.52" x2="413.15" y2="299.52"/><path class="cls-5" d="m585.95,299.52c-57.6,0-86.4,14.4-86.4,57.6"/><line class="cls-5" x1="413.15" y1="357.12" x2="499.55" y2="357.12"/><line class="cls-5" x1="587.39" y1="357.12" x2="629.15" y2="357.12"/><line class="cls-5" x1="585.95" y1="299.52" x2="585.95" y2="357.12"/><rect class="cls-1" x="413.15" y="385.92" width="216" height="86.4"/><rect class="cls-1" x="413.15" y="270.72" width="216" height="86.4"/><rect class="cls-1" x="413.15" y="155.52" width="216" height="86.4"/></g><g id="TEXT_Kopie"><path d="m454.88,30.94l4.18,10.44,4.18-10.44h2.19v12.8h-1.69v-4.98l.16-5.38-4.2,10.36h-1.29l-4.19-10.34.17,5.35v4.98h-1.69v-12.8h2.18Z"/><path d="m467.73,38.9c0-.93.18-1.77.55-2.51s.88-1.32,1.53-1.72,1.4-.61,2.24-.61c1.29,0,2.34.45,3.14,1.34s1.2,2.09,1.2,3.58v.11c0,.93-.18,1.76-.53,2.49-.35.74-.86,1.31-1.52,1.72s-1.42.62-2.27.62c-1.29,0-2.33-.45-3.13-1.34s-1.2-2.08-1.2-3.56v-.11Zm1.63.19c0,1.05.24,1.9.73,2.54s1.14.96,1.96.96,1.48-.32,1.97-.97c.49-.65.73-1.55.73-2.72,0-1.04-.25-1.89-.74-2.54-.5-.65-1.15-.97-1.97-.97s-1.45.32-1.94.96-.74,1.55-.74,2.74Z"/><path d="m479.96,34.23l.05,1.2c.73-.91,1.68-1.37,2.85-1.37,2.01,0,3.02,1.13,3.04,3.4v6.28h-1.63v-6.29c0-.69-.16-1.19-.47-1.52s-.79-.49-1.44-.49c-.53,0-.99.14-1.39.42s-.71.65-.93,1.11v6.78h-1.63v-9.51h1.54Z"/><path d="m487.92,38.9c0-.93.18-1.77.55-2.51s.88-1.32,1.53-1.72,1.4-.61,2.24-.61c1.29,0,2.34.45,3.14,1.34s1.2,2.09,1.2,3.58v.11c0,.93-.18,1.76-.53,2.49-.35.74-.86,1.31-1.52,1.72s-1.42.62-2.27.62c-1.29,0-2.33-.45-3.13-1.34s-1.2-2.08-1.2-3.56v-.11Zm1.63.19c0,1.05.24,1.9.73,2.54s1.14.96,1.96.96,1.48-.32,1.97-.97c.49-.65.73-1.55.73-2.72,0-1.04-.25-1.89-.74-2.54-.5-.65-1.15-.97-1.97-.97s-1.45.32-1.94.96-.74,1.55-.74,2.74Z"/><path d="m504.16,41.22c0-.44-.17-.78-.5-1.02-.33-.24-.91-.45-1.73-.63-.82-.18-1.48-.39-1.96-.63-.48-.25-.84-.54-1.07-.88-.23-.34-.35-.74-.35-1.21,0-.78.33-1.44.99-1.98.66-.54,1.5-.81,2.53-.81,1.08,0,1.95.28,2.62.83.67.56,1.01,1.27,1.01,2.14h-1.63c0-.45-.19-.83-.57-1.15-.38-.32-.85-.48-1.43-.48s-1.05.13-1.39.39-.5.59-.5,1.01c0,.39.15.69.46.89s.87.39,1.68.57c.81.18,1.47.4,1.97.65s.88.56,1.12.91c.24.36.37.79.37,1.3,0,.85-.34,1.53-1.02,2.04-.68.51-1.56.77-2.65.77-.76,0-1.44-.13-2.02-.4s-1.04-.65-1.38-1.13c-.33-.48-.5-1.01-.5-1.57h1.62c.03.54.25.98.65,1.3.41.32.95.48,1.61.48.62,0,1.11-.12,1.48-.37.37-.25.56-.58.56-1Z"/><path d="m510.11,31.93v2.3h1.78v1.26h-1.78v5.91c0,.38.08.67.24.86s.43.29.81.29c.19,0,.45-.04.77-.11v1.31c-.43.12-.84.17-1.25.17-.73,0-1.27-.22-1.64-.66s-.55-1.06-.55-1.87v-5.9h-1.73v-1.26h1.73v-2.3h1.63Z"/><path d="m519.65,43.74c-.09-.19-.17-.52-.23-1-.76.79-1.66,1.18-2.71,1.18-.94,0-1.71-.26-2.31-.79-.6-.53-.9-1.2-.9-2.02,0-.99.38-1.76,1.13-2.31.75-.55,1.81-.82,3.18-.82h1.58v-.75c0-.57-.17-1.02-.51-1.36-.34-.34-.84-.5-1.5-.5-.58,0-1.07.15-1.46.44s-.59.65-.59,1.06h-1.63c0-.47.17-.93.5-1.38s.79-.79,1.37-1.05,1.21-.39,1.9-.39c1.1,0,1.95.27,2.58.82s.94,1.3.97,2.26v4.38c0,.87.11,1.57.33,2.08v.14h-1.71Zm-2.7-1.24c.51,0,.99-.13,1.45-.4s.79-.61.99-1.03v-1.95h-1.27c-1.99,0-2.99.58-2.99,1.75,0,.51.17.91.51,1.2s.78.43,1.31.43Z"/><path d="m531.62,39.09c0,1.45-.33,2.62-1,3.5s-1.56,1.32-2.69,1.32c-1.2,0-2.13-.42-2.79-1.27l-.08,1.1h-1.49v-13.5h1.63v5.04c.66-.81,1.56-1.22,2.72-1.22s2.06.44,2.72,1.31c.66.87.99,2.07.99,3.59v.14Zm-1.63-.18c0-1.11-.21-1.96-.64-2.57s-1.04-.91-1.85-.91c-1.07,0-1.84.5-2.31,1.49v4.11c.5,1,1.27,1.49,2.33,1.49.78,0,1.39-.3,1.82-.91s.65-1.51.65-2.72Z"/><path d="m535.44,43.74h-1.63v-13.5h1.63v13.5Z"/><path d="m541.99,43.92c-1.29,0-2.34-.42-3.15-1.27s-1.21-1.98-1.21-3.4v-.3c0-.94.18-1.79.54-2.53.36-.74.86-1.32,1.51-1.74s1.35-.63,2.11-.63c1.24,0,2.2.41,2.88,1.22s1.03,1.98,1.03,3.5v.68h-6.44c.02.94.3,1.7.82,2.27.52.58,1.19.87,2,.87.57,0,1.06-.12,1.46-.35s.75-.54,1.05-.93l.99.77c-.8,1.22-1.99,1.84-3.59,1.84Zm-.2-8.53c-.66,0-1.21.24-1.65.72s-.72,1.15-.83,2.01h4.76v-.12c-.05-.83-.27-1.47-.67-1.92s-.94-.68-1.62-.68Z"/><path d="m562.13,37.76c0,1.25-.21,2.35-.63,3.28-.42.94-1.02,1.65-1.79,2.14s-1.68.74-2.71.74-1.9-.25-2.68-.74-1.38-1.2-1.81-2.12c-.43-.92-.65-1.98-.66-3.19v-.92c0-1.23.21-2.32.64-3.26s1.03-1.67,1.82-2.17c.78-.5,1.68-.75,2.68-.75s1.93.25,2.71.74c.78.5,1.38,1.21,1.81,2.15.42.94.63,2.03.63,3.28v.81Zm-1.68-.83c0-1.52-.3-2.68-.91-3.49s-1.46-1.22-2.56-1.22-1.91.41-2.52,1.22-.93,1.94-.94,3.38v.94c0,1.47.31,2.63.93,3.47s1.47,1.26,2.55,1.26,1.93-.4,2.53-1.19.91-1.93.92-3.42v-.95Z"/><path d="m572.44,39.09c0,1.45-.33,2.61-.99,3.5s-1.56,1.33-2.69,1.33-2.06-.37-2.72-1.1v4.58h-1.63v-13.17h1.49l.08,1.05c.66-.82,1.58-1.23,2.76-1.23s2.05.43,2.71,1.29,1,2.06,1,3.59v.15Zm-1.63-.18c0-1.07-.23-1.92-.69-2.54s-1.08-.93-1.88-.93c-.98,0-1.72.44-2.21,1.31v4.54c.49.87,1.23,1.3,2.23,1.3.78,0,1.4-.31,1.86-.93s.69-1.54.69-2.76Z"/><path d="m578.45,43.92c-1.29,0-2.34-.42-3.15-1.27s-1.21-1.98-1.21-3.4v-.3c0-.94.18-1.79.54-2.53.36-.74.86-1.32,1.51-1.74s1.35-.63,2.11-.63c1.24,0,2.2.41,2.88,1.22s1.03,1.98,1.03,3.5v.68h-6.44c.02.94.3,1.7.82,2.27.52.58,1.19.87,2,.87.57,0,1.06-.12,1.46-.35s.75-.54,1.05-.93l.99.77c-.8,1.22-1.99,1.84-3.59,1.84Zm-.2-8.53c-.66,0-1.21.24-1.65.72s-.72,1.15-.83,2.01h4.76v-.12c-.05-.83-.27-1.47-.67-1.92s-.94-.68-1.62-.68Z"/><path d="m588.64,35.69c-.25-.04-.51-.06-.8-.06-1.07,0-1.79.45-2.17,1.36v6.75h-1.63v-9.51h1.58l.03,1.1c.53-.85,1.29-1.27,2.27-1.27.32,0,.56.04.72.12v1.51Z"/><path d="m595.65,43.74c-.09-.19-.17-.52-.23-1-.76.79-1.66,1.18-2.71,1.18-.94,0-1.71-.26-2.31-.79-.6-.53-.9-1.2-.9-2.02,0-.99.38-1.76,1.13-2.31.75-.55,1.81-.82,3.18-.82h1.58v-.75c0-.57-.17-1.02-.51-1.36-.34-.34-.84-.5-1.5-.5-.58,0-1.07.15-1.46.44s-.59.65-.59,1.06h-1.63c0-.47.17-.93.5-1.38s.79-.79,1.37-1.05,1.21-.39,1.9-.39c1.1,0,1.95.27,2.58.82s.94,1.3.97,2.26v4.38c0,.87.11,1.57.33,2.08v.14h-1.71Zm-2.7-1.24c.51,0,.99-.13,1.45-.4s.79-.61.99-1.03v-1.95h-1.27c-1.99,0-2.99.58-2.99,1.75,0,.51.17.91.51,1.2s.78.43,1.31.43Z"/><path d="m601.78,31.93v2.3h1.78v1.26h-1.78v5.91c0,.38.08.67.24.86s.43.29.81.29c.19,0,.45-.04.77-.11v1.31c-.43.12-.84.17-1.25.17-.73,0-1.27-.22-1.64-.66s-.55-1.06-.55-1.87v-5.9h-1.73v-1.26h1.73v-2.3h1.63Z"/><path d="m605.46,31.71c0-.26.08-.49.24-.67s.4-.27.72-.27.56.09.72.27.25.4.25.67-.08.48-.25.66-.4.26-.72.26-.56-.09-.72-.26-.24-.4-.24-.66Zm1.76,12.03h-1.63v-9.51h1.63v9.51Z"/><path d="m609.39,38.9c0-.93.18-1.77.55-2.51.37-.74.88-1.32,1.53-1.72.65-.4,1.4-.61,2.24-.61,1.29,0,2.34.45,3.14,1.34.8.9,1.2,2.09,1.2,3.58v.11c0,.93-.18,1.76-.53,2.49-.36.74-.86,1.31-1.52,1.72-.66.41-1.42.62-2.27.62-1.29,0-2.33-.45-3.13-1.34-.8-.9-1.2-2.08-1.2-3.56v-.11Zm1.63.19c0,1.05.24,1.9.73,2.54s1.14.96,1.96.96,1.48-.32,1.97-.97c.49-.65.73-1.55.73-2.72,0-1.04-.25-1.89-.74-2.54-.5-.65-1.15-.97-1.97-.97s-1.45.32-1.94.96-.74,1.55-.74,2.74Z"/><path d="m621.62,34.23l.05,1.2c.73-.91,1.68-1.37,2.85-1.37,2.01,0,3.02,1.13,3.04,3.4v6.28h-1.63v-6.29c0-.69-.16-1.19-.47-1.52-.31-.33-.79-.49-1.44-.49-.53,0-.99.14-1.39.42s-.71.65-.93,1.11v6.78h-1.63v-9.51h1.54Z"/><path d="m383.31,243.66c-.43.62-1.04,1.08-1.81,1.39-.78.31-1.68.46-2.71.46s-1.97-.24-2.78-.73c-.81-.49-1.43-1.18-1.88-2.09s-.67-1.95-.68-3.14v-1.12c0-1.93.45-3.42,1.35-4.48s2.16-1.59,3.79-1.59c1.34,0,2.41.34,3.23,1.02.81.68,1.31,1.65,1.49,2.91h-1.69c-.32-1.7-1.32-2.55-3.02-2.55-1.13,0-1.99.4-2.57,1.19-.58.79-.88,1.95-.88,3.45v1.05c0,1.44.33,2.58.98,3.43.66.85,1.54,1.27,2.66,1.27.63,0,1.19-.07,1.66-.21.47-.14.87-.38,1.18-.71v-2.87h-2.96v-1.38h4.64v4.69Z"/><path d="m395.96,245.34h-1.7l-6.44-9.86v9.86h-1.7v-12.8h1.7l6.46,9.91v-9.91h1.68v12.8Z"/><path d="m398.96,245.34v-12.8h3.61c1.11,0,2.1.25,2.95.74s1.52,1.19,1.98,2.1.7,1.95.71,3.13v.82c0,1.21-.23,2.26-.7,3.17s-1.13,1.61-2,2.09-1.87.74-3.02.75h-3.54Zm1.69-11.42v10.04h1.78c1.3,0,2.31-.4,3.04-1.21s1.09-1.96,1.09-3.46v-.75c0-1.45-.34-2.58-1.02-3.39-.68-.81-1.65-1.22-2.9-1.23h-1.97Z"/><path d="m383.31,473.82c-.43.62-1.04,1.08-1.81,1.39-.78.31-1.68.46-2.71.46s-1.97-.24-2.78-.73c-.81-.49-1.43-1.18-1.88-2.09s-.67-1.95-.68-3.14v-1.12c0-1.93.45-3.42,1.35-4.48s2.16-1.59,3.79-1.59c1.34,0,2.41.34,3.23,1.02.81.68,1.31,1.65,1.49,2.91h-1.69c-.32-1.7-1.32-2.55-3.02-2.55-1.13,0-1.99.4-2.57,1.19-.58.79-.88,1.95-.88,3.45v1.05c0,1.44.33,2.58.98,3.43.66.85,1.54,1.27,2.66,1.27.63,0,1.19-.07,1.66-.21.47-.14.87-.38,1.18-.71v-2.87h-2.96v-1.38h4.64v4.69Z"/><path d="m395.96,475.5h-1.7l-6.44-9.86v9.86h-1.7v-12.8h1.7l6.46,9.91v-9.91h1.68v12.8Z"/><path d="m398.96,475.5v-12.8h3.61c1.11,0,2.1.25,2.95.74s1.52,1.19,1.98,2.1.7,1.95.71,3.13v.82c0,1.21-.23,2.26-.7,3.17s-1.13,1.61-2,2.09-1.87.74-3.02.75h-3.54Zm1.69-11.42v10.04h1.78c1.3,0,2.31-.4,3.04-1.21s1.09-1.96,1.09-3.46v-.75c0-1.45-.34-2.58-1.02-3.39-.68-.81-1.65-1.22-2.9-1.23h-1.97Z"/><path d="m378.18,156.7l3.66-10.56h1.85l-4.75,12.8h-1.49l-4.74-12.8h1.84l3.64,10.56Z"/><path d="m384.78,164.93v-7.46h2.11c.65,0,1.22.14,1.72.43.5.29.88.7,1.16,1.22s.41,1.14.41,1.82v.48c0,.7-.14,1.32-.41,1.85-.27.53-.66.94-1.16,1.22s-1.09.43-1.76.44h-2.07Zm.98-6.66v5.85h1.04c.76,0,1.35-.24,1.77-.71.42-.47.63-1.14.63-2.02v-.44c0-.85-.2-1.51-.6-1.98-.4-.47-.96-.71-1.69-.72h-1.15Z"/><path d="m391.66,164.93v-7.46h2.11c.65,0,1.22.14,1.72.43.5.29.88.7,1.16,1.22s.41,1.14.41,1.82v.48c0,.7-.14,1.32-.41,1.85-.27.53-.66.94-1.16,1.22s-1.09.43-1.76.44h-2.07Zm.98-6.66v5.85h1.04c.76,0,1.35-.24,1.77-.71.42-.47.63-1.14.63-2.02v-.44c0-.85-.2-1.51-.6-1.98-.4-.47-.96-.71-1.69-.72h-1.15Z"/><path d="m378.18,387.1l3.66-10.56h1.85l-4.75,12.8h-1.49l-4.74-12.8h1.84l3.64,10.56Z"/><path d="m384.78,395.34v-7.46h2.11c.65,0,1.22.14,1.72.43.5.29.88.7,1.16,1.22s.41,1.14.41,1.82v.48c0,.7-.14,1.32-.41,1.85-.27.53-.66.94-1.16,1.22s-1.09.43-1.76.44h-2.07Zm.98-6.66v5.85h1.04c.76,0,1.35-.24,1.77-.71.42-.47.63-1.14.63-2.02v-.44c0-.85-.2-1.51-.6-1.98-.4-.47-.96-.71-1.69-.72h-1.15Z"/><path d="m391.66,395.34v-7.46h2.11c.65,0,1.22.14,1.72.43.5.29.88.7,1.16,1.22s.41,1.14.41,1.82v.48c0,.7-.14,1.32-.41,1.85-.27.53-.66.94-1.16,1.22s-1.09.43-1.76.44h-2.07Zm.98-6.66v5.85h1.04c.76,0,1.35-.24,1.77-.71.42-.47.63-1.14.63-2.02v-.44c0-.85-.2-1.51-.6-1.98-.4-.47-.96-.71-1.69-.72h-1.15Z"/><path d="m479.53,121.6h-4.11v11.42h-1.68v-11.42h-4.1v-1.38h9.9v1.38Z"/><path d="m485.11,124.97c-.25-.04-.51-.06-.8-.06-1.07,0-1.79.45-2.17,1.36v6.75h-1.63v-9.51h1.58l.03,1.1c.53-.85,1.29-1.27,2.27-1.27.32,0,.56.04.72.12v1.51Z"/><path d="m486.61,120.99c0-.26.08-.49.24-.67s.4-.27.72-.27.56.09.72.27.25.4.25.67-.08.48-.25.66-.4.26-.72.26-.56-.09-.72-.26-.24-.4-.24-.66Zm1.76,12.03h-1.63v-9.51h1.63v9.51Z"/><path d="m490.59,128.19c0-1.48.34-2.66,1.03-3.54s1.59-1.31,2.72-1.31,2.07.41,2.72,1.23l.08-1.05h1.49v9.28c0,1.23-.37,2.2-1.09,2.91-.73.71-1.71,1.06-2.94,1.06-.69,0-1.36-.15-2.01-.44s-1.16-.69-1.5-1.2l.84-.98c.7.86,1.55,1.29,2.56,1.29.79,0,1.41-.22,1.85-.67.44-.45.66-1.07.66-1.88v-.82c-.65.75-1.54,1.12-2.66,1.12s-2.01-.45-2.7-1.34-1.03-2.12-1.03-3.67Zm1.63.18c0,1.07.22,1.92.66,2.53.44.61,1.05.92,1.85.92,1.03,0,1.78-.47,2.26-1.4v-4.34c-.5-.91-1.25-1.36-2.24-1.36-.79,0-1.41.31-1.85.92s-.67,1.53-.67,2.73Z"/><path d="m500.68,128.19c0-1.48.34-2.66,1.03-3.54s1.59-1.31,2.72-1.31,2.07.41,2.72,1.23l.08-1.05h1.49v9.28c0,1.23-.37,2.2-1.09,2.91-.73.71-1.71,1.06-2.94,1.06-.69,0-1.36-.15-2.01-.44s-1.16-.69-1.5-1.2l.84-.98c.7.86,1.55,1.29,2.56,1.29.79,0,1.41-.22,1.85-.67s.66-1.07.66-1.88v-.82c-.65.75-1.54,1.12-2.66,1.12s-2.01-.45-2.7-1.34c-.69-.9-1.03-2.12-1.03-3.67Zm1.63.18c0,1.07.22,1.92.66,2.53.44.61,1.05.92,1.85.92,1.03,0,1.78-.47,2.26-1.4v-4.34c-.5-.91-1.25-1.36-2.24-1.36-.79,0-1.41.31-1.85.92s-.67,1.53-.67,2.73Z"/><path d="m515.12,133.2c-1.29,0-2.34-.42-3.15-1.27s-1.21-1.98-1.21-3.4v-.3c0-.94.18-1.79.54-2.53.36-.74.86-1.32,1.51-1.74s1.35-.63,2.11-.63c1.24,0,2.2.41,2.88,1.22s1.03,1.98,1.03,3.5v.68h-6.44c.02.94.3,1.7.82,2.27.52.58,1.19.87,2,.87.57,0,1.06-.12,1.46-.35s.75-.54,1.05-.93l.99.77c-.8,1.22-1.99,1.84-3.59,1.84Zm-.2-8.53c-.66,0-1.21.24-1.65.72s-.72,1.15-.83,2.01h4.76v-.12c-.05-.83-.27-1.47-.67-1.92s-.94-.68-1.62-.68Z"/><path d="m525.3,124.97c-.25-.04-.51-.06-.8-.06-1.07,0-1.79.45-2.17,1.36v6.75h-1.63v-9.51h1.58l.03,1.1c.53-.85,1.29-1.27,2.27-1.27.32,0,.56.04.72.12v1.51Z"/><path d="m657.03,422.23c0,1.25-.21,2.35-.63,3.28-.42.94-1.02,1.65-1.79,2.14s-1.68.74-2.71.74-1.9-.25-2.68-.74-1.38-1.2-1.81-2.12c-.43-.92-.65-1.98-.66-3.19v-.92c0-1.23.21-2.32.64-3.26s1.03-1.67,1.82-2.17c.78-.5,1.68-.75,2.68-.75s1.93.25,2.71.74c.78.5,1.38,1.21,1.81,2.15.42.94.63,2.03.63,3.28v.81Zm-1.68-.83c0-1.52-.3-2.68-.91-3.49s-1.46-1.22-2.56-1.22-1.91.41-2.52,1.22-.93,1.94-.95,3.38v.94c0,1.47.31,2.63.93,3.47s1.47,1.26,2.55,1.26,1.93-.4,2.53-1.19.91-1.93.92-3.42v-.95Z"/><path d="m665.18,427.28c-.63.74-1.56,1.12-2.79,1.12-1.01,0-1.79-.29-2.32-.88-.53-.59-.8-1.46-.8-2.62v-6.19h1.63v6.14c0,1.44.59,2.16,1.76,2.16,1.24,0,2.07-.46,2.48-1.39v-6.92h1.63v9.51h-1.55l-.04-.94Z"/><path d="m671.44,416.41v2.3h1.78v1.26h-1.78v5.91c0,.38.08.67.24.86s.43.29.81.29c.19,0,.45-.04.77-.11v1.31c-.43.12-.84.17-1.25.17-.73,0-1.27-.22-1.64-.66s-.55-1.06-.55-1.87v-5.9h-1.73v-1.26h1.73v-2.3h1.63Z"/><path d="m683.15,423.57c0,1.45-.33,2.61-.99,3.5s-1.56,1.33-2.69,1.33-2.06-.37-2.72-1.1v4.58h-1.63v-13.17h1.49l.08,1.05c.66-.82,1.58-1.23,2.76-1.23s2.04.43,2.71,1.29c.66.86,1,2.06,1,3.59v.15Zm-1.63-.18c0-1.07-.23-1.92-.69-2.54s-1.08-.93-1.88-.93c-.98,0-1.72.44-2.21,1.31v4.54c.49.87,1.23,1.3,2.23,1.3.78,0,1.4-.31,1.86-.93.46-.62.69-1.54.69-2.76Z"/><path d="m691.08,427.28c-.63.74-1.56,1.12-2.79,1.12-1.01,0-1.79-.29-2.32-.88-.53-.59-.8-1.46-.8-2.62v-6.19h1.63v6.14c0,1.44.59,2.16,1.76,2.16,1.24,0,2.07-.46,2.48-1.39v-6.92h1.63v9.51h-1.55l-.04-.94Z"/><path d="m697.34,416.41v2.3h1.78v1.26h-1.78v5.91c0,.38.08.67.24.86s.43.29.81.29c.19,0,.45-.04.77-.11v1.31c-.43.12-.84.17-1.25.17-.73,0-1.27-.22-1.64-.66s-.55-1.06-.55-1.87v-5.9h-1.73v-1.26h1.73v-2.3h1.63Z"/><path d="m709.96,425.98l3.66-10.56h1.85l-4.75,12.8h-1.49l-4.74-12.8h1.84l3.64,10.56Z"/><path d="m716.09,423.38c0-.93.18-1.77.55-2.51.37-.74.88-1.32,1.53-1.72.65-.4,1.4-.61,2.24-.61,1.29,0,2.34.45,3.14,1.34.8.9,1.2,2.09,1.2,3.58v.11c0,.93-.18,1.76-.53,2.49-.36.74-.86,1.31-1.52,1.72-.66.41-1.42.62-2.27.62-1.29,0-2.33-.45-3.13-1.34-.8-.9-1.2-2.08-1.2-3.56v-.11Zm1.63.19c0,1.05.24,1.9.73,2.54s1.14.96,1.96.96,1.48-.32,1.97-.97c.49-.65.73-1.55.73-2.72,0-1.04-.25-1.89-.74-2.54-.5-.65-1.15-.97-1.97-.97s-1.45.32-1.94.96-.74,1.55-.74,2.74Z"/><path d="m728.55,428.22h-1.63v-13.5h1.63v13.5Z"/><path d="m733.36,416.41v2.3h1.78v1.26h-1.78v5.91c0,.38.08.67.24.86s.43.29.81.29c.19,0,.45-.04.77-.11v1.31c-.43.12-.84.17-1.25.17-.73,0-1.27-.22-1.64-.66s-.55-1.06-.55-1.87v-5.9h-1.73v-1.26h1.73v-2.3h1.63Z"/><path d="m742.9,428.22c-.09-.19-.17-.52-.23-1-.76.79-1.66,1.18-2.71,1.18-.94,0-1.71-.26-2.31-.79-.6-.53-.9-1.2-.9-2.02,0-.99.38-1.76,1.13-2.31.75-.55,1.81-.82,3.18-.82h1.58v-.75c0-.57-.17-1.02-.51-1.36-.34-.34-.84-.5-1.5-.5-.58,0-1.07.15-1.46.44s-.59.65-.59,1.06h-1.63c0-.47.17-.93.5-1.38s.79-.79,1.37-1.05,1.21-.39,1.9-.39c1.1,0,1.95.27,2.58.82s.94,1.3.97,2.26v4.38c0,.87.11,1.57.33,2.08v.14h-1.71Zm-2.7-1.24c.51,0,.99-.13,1.45-.4s.79-.61.99-1.03v-1.95h-1.27c-1.99,0-2.99.58-2.99,1.75,0,.51.17.91.51,1.2s.78.43,1.31.43Z"/><path d="m746.43,423.39c0-1.48.34-2.66,1.03-3.54s1.59-1.31,2.72-1.31,2.07.41,2.72,1.23l.08-1.05h1.49v9.28c0,1.23-.37,2.2-1.09,2.91-.73.71-1.71,1.06-2.94,1.06-.69,0-1.36-.15-2.01-.44s-1.16-.69-1.5-1.2l.84-.98c.7.86,1.55,1.29,2.56,1.29.79,0,1.41-.22,1.85-.67s.66-1.07.66-1.88v-.82c-.65.75-1.54,1.12-2.66,1.12s-2.01-.45-2.7-1.34c-.69-.9-1.03-2.12-1.03-3.67Zm1.63.18c0,1.07.22,1.92.66,2.53.44.61,1.05.92,1.85.92,1.03,0,1.78-.47,2.26-1.4v-4.34c-.5-.91-1.25-1.36-2.24-1.36-.79,0-1.41.31-1.85.92s-.67,1.53-.67,2.73Z"/><path d="m760.87,428.4c-1.29,0-2.34-.42-3.15-1.27s-1.21-1.98-1.21-3.4v-.3c0-.94.18-1.79.54-2.53.36-.74.86-1.32,1.51-1.74s1.35-.63,2.11-.63c1.24,0,2.2.41,2.88,1.22s1.03,1.98,1.03,3.5v.68h-6.44c.02.94.3,1.7.82,2.27.52.58,1.19.87,2,.87.57,0,1.06-.12,1.46-.35s.75-.54,1.05-.93l.99.77c-.8,1.22-1.99,1.84-3.59,1.84Zm-.2-8.53c-.66,0-1.21.24-1.65.72s-.72,1.15-.83,2.01h4.76v-.12c-.05-.83-.27-1.47-.67-1.92s-.94-.68-1.62-.68Z"/><path d="m669.96,495.37v2.3h1.78v1.26h-1.78v5.91c0,.38.08.67.24.86s.43.29.81.29c.19,0,.45-.04.77-.11v1.31c-.43.12-.84.17-1.25.17-.73,0-1.27-.22-1.64-.66s-.55-1.06-.55-1.87v-5.9h-1.73v-1.26h1.73v-2.3h1.63Z"/><path d="m656.54,308.96c-.16,1.35-.66,2.4-1.5,3.13-.84.74-1.96,1.1-3.35,1.1-1.51,0-2.72-.54-3.63-1.63s-1.37-2.53-1.37-4.35v-1.23c0-1.19.21-2.24.64-3.14s1.03-1.59,1.81-2.08c.78-.48,1.68-.72,2.71-.72,1.36,0,2.45.38,3.27,1.14s1.3,1.81,1.43,3.15h-1.7c-.15-1.02-.46-1.76-.95-2.22-.49-.46-1.17-.69-2.05-.69-1.08,0-1.92.4-2.54,1.2s-.92,1.93-.92,3.4v1.24c0,1.39.29,2.5.87,3.32s1.39,1.23,2.43,1.23c.94,0,1.66-.21,2.16-.64.5-.42.83-1.16,1-2.22h1.7Z"/><path d="m664.46,313.02c-.09-.19-.17-.52-.23-1-.76.79-1.66,1.18-2.71,1.18-.94,0-1.71-.26-2.31-.79s-.9-1.2-.9-2.02c0-.99.38-1.76,1.13-2.31s1.81-.82,3.18-.82h1.58v-.75c0-.57-.17-1.02-.51-1.36-.34-.34-.84-.5-1.5-.5-.58,0-1.07.15-1.46.44s-.59.65-.59,1.06h-1.63c0-.47.17-.93.5-1.38s.79-.79,1.37-1.05,1.21-.39,1.9-.39c1.1,0,1.95.27,2.58.82s.94,1.3.97,2.26v4.38c0,.87.11,1.57.33,2.08v.14h-1.71Zm-2.7-1.24c.51,0,.99-.13,1.45-.4s.79-.61.99-1.03v-1.95h-1.27c-1.99,0-2.99.58-2.99,1.75,0,.51.17.91.51,1.2s.78.43,1.31.43Z"/><path d="m676.41,308.37c0,1.45-.33,2.61-.99,3.5s-1.56,1.33-2.69,1.33-2.06-.37-2.72-1.1v4.58h-1.63v-13.17h1.49l.08,1.05c.66-.82,1.58-1.23,2.76-1.23s2.05.43,2.71,1.29,1,2.06,1,3.59v.15Zm-1.63-.18c0-1.07-.23-1.92-.69-2.54s-1.08-.93-1.88-.93c-.98,0-1.72.44-2.21,1.31v4.54c.49.87,1.23,1.3,2.23,1.3.78,0,1.4-.31,1.86-.93s.69-1.54.69-2.76Z"/><path d="m684.35,313.02c-.09-.19-.17-.52-.23-1-.76.79-1.66,1.18-2.71,1.18-.94,0-1.71-.26-2.31-.79s-.9-1.2-.9-2.02c0-.99.38-1.76,1.13-2.31s1.81-.82,3.18-.82h1.58v-.75c0-.57-.17-1.02-.51-1.36-.34-.34-.84-.5-1.5-.5-.58,0-1.07.15-1.46.44s-.59.65-.59,1.06h-1.63c0-.47.17-.93.5-1.38s.79-.79,1.37-1.05,1.21-.39,1.9-.39c1.1,0,1.95.27,2.58.82s.94,1.3.97,2.26v4.38c0,.87.11,1.57.33,2.08v.14h-1.71Zm-2.7-1.24c.51,0,.99-.13,1.45-.4s.79-.61.99-1.03v-1.95h-1.27c-1.99,0-2.99.58-2.99,1.75,0,.51.17.91.51,1.2s.78.43,1.31.43Z"/><path d="m692.08,311.87c.58,0,1.09-.18,1.52-.53s.67-.79.72-1.32h1.54c-.03.54-.22,1.06-.56,1.56s-.81.88-1.38,1.18c-.58.29-1.19.44-1.83.44-1.29,0-2.33-.43-3.09-1.3-.76-.86-1.15-2.05-1.15-3.55v-.27c0-.93.17-1.75.51-2.47s.83-1.28,1.46-1.68c.63-.4,1.39-.6,2.25-.6,1.07,0,1.95.32,2.66.96.71.64,1.08,1.47,1.13,2.49h-1.54c-.05-.62-.28-1.12-.7-1.52-.42-.4-.94-.59-1.55-.59-.83,0-1.47.3-1.92.89-.45.59-.68,1.45-.68,2.58v.31c0,1.1.23,1.94.68,2.53s1.1.89,1.93.89Z"/><path d="m697.7,300.99c0-.26.08-.49.24-.67s.4-.27.72-.27.56.09.72.27.25.4.25.67-.08.48-.25.66-.4.26-.72.26-.56-.09-.72-.26-.24-.4-.24-.66Zm1.76,12.03h-1.63v-9.51h1.63v9.51Z"/><path d="m704.26,301.21v2.3h1.78v1.26h-1.78v5.91c0,.38.08.67.24.86s.43.29.81.29c.19,0,.45-.04.77-.11v1.31c-.43.12-.84.17-1.25.17-.73,0-1.27-.22-1.64-.66s-.55-1.06-.55-1.87v-5.9h-1.73v-1.26h1.73v-2.3h1.63Z"/><path d="m707.33,308.18c0-.93.18-1.77.55-2.51.37-.74.88-1.32,1.53-1.72.65-.4,1.4-.61,2.24-.61,1.29,0,2.34.45,3.14,1.34.8.9,1.2,2.09,1.2,3.58v.11c0,.93-.18,1.76-.53,2.49-.36.74-.86,1.31-1.52,1.72-.66.41-1.42.62-2.27.62-1.29,0-2.33-.45-3.13-1.34-.8-.9-1.2-2.08-1.2-3.56v-.11Zm1.63.19c0,1.05.24,1.9.73,2.54s1.14.96,1.96.96,1.48-.32,1.97-.97c.49-.65.73-1.55.73-2.72,0-1.04-.25-1.89-.74-2.54-.5-.65-1.15-.97-1.97-.97s-1.45.32-1.94.96-.74,1.55-.74,2.74Z"/><path d="m722.62,304.97c-.25-.04-.51-.06-.8-.06-1.07,0-1.79.45-2.17,1.36v6.75h-1.63v-9.51h1.58l.03,1.1c.53-.85,1.29-1.27,2.27-1.27.32,0,.56.04.72.12v1.51Z"/><path d="m733.06,310.78l3.66-10.56h1.85l-4.75,12.8h-1.49l-4.74-12.8h1.84l3.64,10.56Z"/><path d="m739.19,308.18c0-.93.18-1.77.55-2.51.37-.74.88-1.32,1.53-1.72.65-.4,1.4-.61,2.24-.61,1.29,0,2.34.45,3.14,1.34.8.9,1.2,2.09,1.2,3.58v.11c0,.93-.18,1.76-.53,2.49-.36.74-.86,1.31-1.52,1.72-.66.41-1.42.62-2.27.62-1.29,0-2.33-.45-3.13-1.34-.8-.9-1.2-2.08-1.2-3.56v-.11Zm1.63.19c0,1.05.24,1.9.73,2.54s1.14.96,1.96.96,1.48-.32,1.97-.97c.49-.65.73-1.55.73-2.72,0-1.04-.25-1.89-.74-2.54-.5-.65-1.15-.97-1.97-.97s-1.45.32-1.94.96-.74,1.55-.74,2.74Z"/><path d="m751.65,313.02h-1.63v-13.5h1.63v13.5Z"/><path d="m756.46,301.21v2.3h1.78v1.26h-1.78v5.91c0,.38.08.67.24.86s.43.29.81.29c.19,0,.45-.04.77-.11v1.31c-.43.12-.84.17-1.25.17-.73,0-1.27-.22-1.64-.66s-.55-1.06-.55-1.87v-5.9h-1.73v-1.26h1.73v-2.3h1.63Z"/><path d="m766.01,313.02c-.09-.19-.17-.52-.23-1-.76.79-1.66,1.18-2.71,1.18-.94,0-1.71-.26-2.31-.79-.6-.53-.9-1.2-.9-2.02,0-.99.38-1.76,1.13-2.31.75-.55,1.81-.82,3.18-.82h1.58v-.75c0-.57-.17-1.02-.51-1.36-.34-.34-.84-.5-1.5-.5-.58,0-1.07.15-1.46.44s-.59.65-.59,1.06h-1.63c0-.47.17-.93.5-1.38s.79-.79,1.37-1.05,1.21-.39,1.9-.39c1.1,0,1.95.27,2.58.82s.94,1.3.97,2.26v4.38c0,.87.11,1.57.33,2.08v.14h-1.71Zm-2.7-1.24c.51,0,.99-.13,1.45-.4s.79-.61.99-1.03v-1.95h-1.27c-1.99,0-2.99.58-2.99,1.75,0,.51.17.91.51,1.2s.78.43,1.31.43Z"/><path d="m769.54,308.19c0-1.48.34-2.66,1.03-3.54s1.59-1.31,2.72-1.31,2.07.41,2.72,1.23l.08-1.05h1.49v9.28c0,1.23-.37,2.2-1.09,2.91-.73.71-1.71,1.06-2.94,1.06-.69,0-1.36-.15-2.01-.44s-1.16-.69-1.5-1.2l.84-.98c.7.86,1.55,1.29,2.56,1.29.79,0,1.41-.22,1.85-.67s.66-1.07.66-1.88v-.82c-.65.75-1.54,1.12-2.66,1.12s-2.01-.45-2.7-1.34c-.69-.9-1.03-2.12-1.03-3.67Zm1.63.18c0,1.07.22,1.92.66,2.53.44.61,1.05.92,1.85.92,1.03,0,1.78-.47,2.26-1.4v-4.34c-.5-.91-1.25-1.36-2.24-1.36-.79,0-1.41.31-1.85.92s-.67,1.53-.67,2.73Z"/><path d="m783.97,313.2c-1.29,0-2.34-.42-3.15-1.27s-1.21-1.98-1.21-3.4v-.3c0-.94.18-1.79.54-2.53.36-.74.86-1.32,1.51-1.74s1.35-.63,2.11-.63c1.24,0,2.2.41,2.88,1.22s1.03,1.98,1.03,3.5v.68h-6.44c.02.94.3,1.7.82,2.27.52.58,1.19.87,2,.87.57,0,1.06-.12,1.46-.35s.75-.54,1.05-.93l.99.77c-.8,1.22-1.99,1.84-3.59,1.84Zm-.2-8.53c-.66,0-1.21.24-1.65.72s-.72,1.15-.83,2.01h4.76v-.12c-.05-.83-.27-1.47-.67-1.92s-.94-.68-1.62-.68Z"/><path d="m648.47,197.82h-1.69v-12.8h1.69v12.8Z"/><path d="m652.84,188.31l.05,1.2c.73-.91,1.68-1.37,2.85-1.37,2.01,0,3.02,1.13,3.04,3.4v6.28h-1.63v-6.29c0-.69-.16-1.19-.47-1.52s-.79-.49-1.44-.49c-.53,0-.99.14-1.39.42s-.71.65-.93,1.11v6.78h-1.63v-9.51h1.54Z"/><path d="m669.27,193.17c0,1.45-.33,2.61-.99,3.5s-1.56,1.33-2.69,1.33-2.06-.37-2.72-1.1v4.58h-1.63v-13.17h1.49l.08,1.05c.66-.82,1.58-1.23,2.76-1.23s2.05.43,2.71,1.29,1,2.06,1,3.59v.15Zm-1.63-.18c0-1.07-.23-1.92-.69-2.54s-1.08-.93-1.88-.93c-.98,0-1.72.44-2.21,1.31v4.54c.49.87,1.23,1.3,2.23,1.3.78,0,1.4-.31,1.86-.93s.69-1.54.69-2.76Z"/><path d="m677.21,196.88c-.63.74-1.56,1.12-2.79,1.12-1.01,0-1.79-.29-2.32-.88-.53-.59-.8-1.46-.8-2.62v-6.19h1.63v6.14c0,1.44.59,2.16,1.76,2.16,1.24,0,2.07-.46,2.48-1.39v-6.92h1.63v9.51h-1.55l-.04-.94Z"/><path d="m683.46,186.01v2.3h1.78v1.26h-1.78v5.91c0,.38.08.67.24.86s.43.29.81.29c.19,0,.45-.04.77-.11v1.31c-.43.12-.84.17-1.25.17-.73,0-1.27-.22-1.64-.66s-.55-1.06-.55-1.87v-5.9h-1.73v-1.26h1.73v-2.3h1.63Z"/><path d="m696.09,195.58l3.66-10.56h1.85l-4.75,12.8h-1.49l-4.74-12.8h1.84l3.64,10.56Z"/><path d="m702.21,192.98c0-.93.18-1.77.55-2.51.37-.74.88-1.32,1.53-1.72.65-.4,1.4-.61,2.24-.61,1.29,0,2.34.45,3.14,1.34.8.9,1.2,2.09,1.2,3.58v.11c0,.93-.18,1.76-.53,2.49-.36.74-.86,1.31-1.52,1.72-.66.41-1.42.62-2.27.62-1.29,0-2.33-.45-3.13-1.34-.8-.9-1.2-2.08-1.2-3.56v-.11Zm1.63.19c0,1.05.24,1.9.73,2.54s1.14.96,1.96.96,1.48-.32,1.97-.97c.49-.65.73-1.55.73-2.72,0-1.04-.25-1.89-.74-2.54-.5-.65-1.15-.97-1.97-.97s-1.45.32-1.94.96-.74,1.55-.74,2.74Z"/><path d="m714.67,197.82h-1.63v-13.5h1.63v13.5Z"/><path d="m719.48,186.01v2.3h1.78v1.26h-1.78v5.91c0,.38.08.67.24.86s.43.29.81.29c.19,0,.45-.04.77-.11v1.31c-.43.12-.84.17-1.25.17-.73,0-1.27-.22-1.64-.66s-.55-1.06-.55-1.87v-5.9h-1.73v-1.26h1.73v-2.3h1.63Z"/><path d="m729.03,197.82c-.09-.19-.17-.52-.23-1-.76.79-1.66,1.18-2.71,1.18-.94,0-1.71-.26-2.31-.79-.6-.53-.9-1.2-.9-2.02,0-.99.38-1.76,1.13-2.31.75-.55,1.81-.82,3.18-.82h1.58v-.75c0-.57-.17-1.02-.51-1.36-.34-.34-.84-.5-1.5-.5-.58,0-1.07.15-1.46.44s-.59.65-.59,1.06h-1.63c0-.47.17-.93.5-1.38s.79-.79,1.37-1.05,1.21-.39,1.9-.39c1.1,0,1.95.27,2.58.82s.94,1.3.97,2.26v4.38c0,.87.11,1.57.33,2.08v.14h-1.71Zm-2.7-1.24c.51,0,.99-.13,1.45-.4s.79-.61.99-1.03v-1.95h-1.27c-1.99,0-2.99.58-2.99,1.75,0,.51.17.91.51,1.2s.78.43,1.31.43Z"/><path d="m732.56,192.99c0-1.48.34-2.66,1.03-3.54s1.59-1.31,2.72-1.31,2.07.41,2.72,1.23l.08-1.05h1.49v9.28c0,1.23-.37,2.2-1.09,2.91-.73.71-1.71,1.06-2.94,1.06-.69,0-1.36-.15-2.01-.44s-1.16-.69-1.5-1.2l.84-.98c.7.86,1.55,1.29,2.56,1.29.79,0,1.41-.22,1.85-.67s.66-1.07.66-1.88v-.82c-.65.75-1.54,1.12-2.66,1.12s-2.01-.45-2.7-1.34c-.69-.9-1.03-2.12-1.03-3.67Zm1.63.18c0,1.07.22,1.92.66,2.53.44.61,1.05.92,1.85.92,1.03,0,1.78-.47,2.26-1.4v-4.34c-.5-.91-1.25-1.36-2.24-1.36-.79,0-1.41.31-1.85.92s-.67,1.53-.67,2.73Z"/><path d="m746.99,198c-1.29,0-2.34-.42-3.15-1.27s-1.21-1.98-1.21-3.4v-.3c0-.94.18-1.79.54-2.53.36-.74.86-1.32,1.51-1.74s1.35-.63,2.11-.63c1.24,0,2.2.41,2.88,1.22s1.03,1.98,1.03,3.5v.68h-6.44c.02.94.3,1.7.82,2.27.52.58,1.19.87,2,.87.57,0,1.06-.12,1.46-.35s.75-.54,1.05-.93l.99.77c-.8,1.22-1.99,1.84-3.59,1.84Zm-.2-8.53c-.66,0-1.21.24-1.65.72s-.72,1.15-.83,2.01h4.76v-.12c-.05-.83-.27-1.47-.67-1.92s-.94-.68-1.62-.68Z"/><path d="m383.31,358.86c-.43.62-1.04,1.08-1.81,1.39-.78.31-1.68.46-2.71.46s-1.97-.24-2.78-.73c-.81-.49-1.43-1.18-1.88-2.09s-.67-1.95-.68-3.14v-1.12c0-1.93.45-3.42,1.35-4.48s2.16-1.59,3.79-1.59c1.34,0,2.41.34,3.23,1.02.81.68,1.31,1.65,1.49,2.91h-1.69c-.32-1.7-1.32-2.55-3.02-2.55-1.13,0-1.99.4-2.57,1.19-.58.79-.88,1.95-.88,3.45v1.05c0,1.44.33,2.58.98,3.43.66.85,1.54,1.27,2.66,1.27.63,0,1.19-.07,1.66-.21.47-.14.87-.38,1.18-.71v-2.87h-2.96v-1.38h4.64v4.69Z"/><path d="m395.96,360.54h-1.7l-6.44-9.86v9.86h-1.7v-12.8h1.7l6.46,9.91v-9.91h1.68v12.8Z"/><path d="m398.96,360.54v-12.8h3.61c1.11,0,2.1.25,2.95.74s1.52,1.19,1.98,2.1.7,1.95.71,3.13v.82c0,1.21-.23,2.26-.7,3.17s-1.13,1.61-2,2.09-1.87.74-3.02.75h-3.54Zm1.69-11.42v10.04h1.78c1.3,0,2.31-.4,3.04-1.21s1.09-1.96,1.09-3.46v-.75c0-1.45-.34-2.58-1.02-3.39-.68-.81-1.65-1.22-2.9-1.23h-1.97Z"/><path d="m379.62,271.9l3.66-10.56h1.85l-4.75,12.8h-1.49l-4.74-12.8h1.84l3.64,10.56Z"/><path d="m386.22,280.13v-7.46h2.11c.65,0,1.22.14,1.72.43.5.29.88.7,1.16,1.22s.41,1.14.41,1.82v.48c0,.7-.14,1.32-.41,1.85-.27.53-.66.94-1.16,1.22s-1.09.43-1.76.44h-2.07Zm.98-6.66v5.85h1.04c.76,0,1.35-.24,1.77-.71.42-.47.63-1.14.63-2.02v-.44c0-.85-.2-1.51-.6-1.98-.4-.47-.96-.71-1.69-.72h-1.15Z"/><path d="m393.1,280.13v-7.46h2.11c.65,0,1.22.14,1.72.43.5.29.88.7,1.16,1.22s.41,1.14.41,1.82v.48c0,.7-.14,1.32-.41,1.85-.27.53-.66.94-1.16,1.22s-1.09.43-1.76.44h-2.07Zm.98-6.66v5.85h1.04c.76,0,1.35-.24,1.77-.71.42-.47.63-1.14.63-2.02v-.44c0-.85-.2-1.51-.6-1.98-.4-.47-.96-.71-1.69-.72h-1.15Z"/><path d="m447.06,205.02h-1.63v-10.84l-3.28,1.2v-1.48l4.66-1.75h.25v12.86Z"/><path d="m452.32,206.12h-1.4l5.34-13.9h1.39l-5.33,13.9Z"/><path d="m461.61,197.83h1.22c.77-.01,1.37-.21,1.81-.61s.66-.92.66-1.59c0-1.5-.75-2.25-2.24-2.25-.7,0-1.26.2-1.68.6-.42.4-.63.93-.63,1.6h-1.63c0-1.01.37-1.86,1.11-2.53.74-.67,1.68-1.01,2.83-1.01,1.21,0,2.15.32,2.84.96s1.03,1.53,1.03,2.66c0,.56-.18,1.1-.54,1.62s-.85.91-1.47,1.17c.7.22,1.25.59,1.63,1.11s.58,1.15.58,1.89c0,1.15-.38,2.06-1.12,2.73s-1.73,1.01-2.93,1.01-2.18-.33-2.93-.98-1.13-1.51-1.13-2.58h1.63c0,.67.22,1.21.66,1.62s1.03.61,1.77.61c.79,0,1.39-.21,1.8-.62s.62-1,.62-1.77-.23-1.32-.69-1.71-1.12-.6-1.98-.62h-1.22v-1.33Z"/><path d="m478.46,202.78l3.66-10.56h1.85l-4.75,12.8h-1.49l-4.74-12.8h1.84l3.64,10.56Z"/><path d="m485.06,211.01v-7.46h2.11c.65,0,1.22.14,1.72.43.5.29.88.7,1.16,1.22s.41,1.14.41,1.82v.48c0,.7-.14,1.32-.41,1.85-.27.53-.66.94-1.16,1.22s-1.09.43-1.76.44h-2.07Zm.98-6.66v5.85h1.04c.76,0,1.35-.24,1.77-.71.42-.47.63-1.14.63-2.02v-.44c0-.85-.2-1.51-.6-1.98-.4-.47-.96-.71-1.69-.72h-1.15Z"/><path d="m491.94,211.01v-7.46h2.11c.65,0,1.22.14,1.72.43.5.29.88.7,1.16,1.22s.41,1.14.41,1.82v.48c0,.7-.14,1.32-.41,1.85-.27.53-.66.94-1.16,1.22s-1.09.43-1.76.44h-2.07Zm.98-6.66v5.85h1.04c.76,0,1.35-.24,1.77-.71.42-.47.63-1.14.63-2.02v-.44c0-.85-.2-1.51-.6-1.98-.4-.47-.96-.71-1.69-.72h-1.15Z"/><path d="m451.54,314.46h-8.38v-1.17l4.43-4.92c.66-.74,1.11-1.35,1.36-1.82.25-.46.37-.95.37-1.45,0-.67-.2-1.22-.61-1.64s-.94-.64-1.62-.64c-.81,0-1.44.23-1.89.69-.45.46-.67,1.1-.67,1.92h-1.63c0-1.18.38-2.13,1.14-2.86s1.77-1.09,3.05-1.09c1.19,0,2.13.31,2.82.94.69.62,1.04,1.46,1.04,2.49,0,1.26-.8,2.76-2.41,4.5l-3.43,3.72h6.42v1.33Z"/><path d="m453.76,315.56h-1.4l5.34-13.9h1.39l-5.33,13.9Z"/><path d="m463.05,307.27h1.22c.77-.01,1.37-.21,1.81-.61s.66-.92.66-1.59c0-1.5-.75-2.25-2.24-2.25-.7,0-1.26.2-1.68.6-.42.4-.63.93-.63,1.6h-1.63c0-1.01.37-1.85,1.11-2.53.74-.67,1.68-1.01,2.83-1.01,1.21,0,2.15.32,2.84.96s1.03,1.53,1.03,2.66c0,.56-.18,1.1-.54,1.62s-.85.91-1.47,1.17c.7.22,1.25.59,1.63,1.11s.58,1.15.58,1.89c0,1.15-.38,2.06-1.12,2.73s-1.73,1.01-2.93,1.01-2.18-.33-2.93-.98-1.13-1.51-1.13-2.58h1.63c0,.67.22,1.21.66,1.62s1.03.61,1.77.61c.79,0,1.39-.21,1.8-.62s.62-1,.62-1.77-.23-1.32-.69-1.71-1.12-.6-1.98-.62h-1.22v-1.33Z"/><path d="m479.9,312.22l3.66-10.56h1.85l-4.75,12.8h-1.49l-4.74-12.8h1.84l3.64,10.56Z"/><path d="m486.5,320.45v-7.46h2.11c.65,0,1.22.14,1.72.43.5.29.88.7,1.16,1.22s.41,1.14.41,1.82v.48c0,.7-.14,1.32-.41,1.85-.27.53-.66.94-1.16,1.22s-1.09.43-1.76.44h-2.07Zm.98-6.66v5.85h1.04c.76,0,1.35-.24,1.77-.71.42-.47.63-1.14.63-2.02v-.44c0-.85-.2-1.51-.6-1.98-.4-.47-.96-.71-1.69-.72h-1.15Z"/><path d="m493.38,320.45v-7.46h2.11c.65,0,1.22.14,1.72.43.5.29.88.7,1.16,1.22s.41,1.14.41,1.82v.48c0,.7-.14,1.32-.41,1.85-.27.53-.66.94-1.16,1.22s-1.09.43-1.76.44h-2.07Zm.98-6.66v5.85h1.04c.76,0,1.35-.24,1.77-.71.42-.47.63-1.14.63-2.02v-.44c0-.85-.2-1.51-.6-1.98-.4-.47-.96-.71-1.69-.72h-1.15Z"/></g></svg>