<?xml version="1.0" encoding="UTF-8"?><svg xmlns="http://www.w3.org/2000/svg" viewBox="0 0 1080 600.48"><defs><style>.cls-1{stroke-width:3px;}.cls-1,.cls-2,.cls-3,.cls-4,.cls-5,.cls-6,.cls-7,.cls-8{stroke:#cad2d9;stroke-miterlimit:10;}.cls-1,.cls-3,.cls-4,.cls-5,.cls-6,.cls-7,.cls-8{fill:none;}.cls-9,.cls-10,.cls-2,.cls-11{fill:#cad2d9;}.cls-9,.cls-11{font-family:Roboto-Regular, Roboto;}.cls-2,.cls-4{stroke-width:2px;}.cls-12{letter-spacing:-.01em;}.cls-3{stroke-dasharray:0 0 3.91 3.91;}.cls-3,.cls-7,.cls-8{stroke-width:.97px;}.cls-13{letter-spacing:-.01em;}.cls-14,.cls-11{font-size:18px;}.cls-15{letter-spacing:0em;}.cls-16{letter-spacing:-.02em;}.cls-17{font-size:12px;}.cls-6{stroke-width:1.33px;}.cls-7{stroke-dasharray:0 0 3.86 3.86;}.cls-18{letter-spacing:0em;}</style></defs><g id="TEXT"><text class="cls-11" transform="translate(107.27 205.02)"><tspan x="0" y="0">1</tspan></text><text class="cls-11" transform="translate(107.27 262.62)"><tspan x="0" y="0">2</tspan></text><text class="cls-11" transform="translate(107.27 320.22)"><tspan x="0" y="0">3</tspan></text><text class="cls-11" transform="translate(107.27 377.82)"><tspan x="0" y="0">4</tspan></text><text class="cls-11" transform="translate(308.15 320.22)"><tspan x="0" y="0">6</tspan></text><text class="cls-11" transform="translate(309.59 377.82)"><tspan x="0" y="0">5</tspan></text><text class="cls-11" transform="translate(255.28 206.46)"><tspan x="0" y="0">V</tspan></text><text class="cls-11" transform="translate(266.74 212.45) scale(.58)"><tspan x="0" y="0">CC</tspan></text><text class="cls-11" transform="translate(172.65 447.84)"><tspan x="0" y="0">555</tspan><tspan class="cls-16" x="30.32" y="0"> </tspan><tspan x="34.43" y="0">Timer</tspan></text><text class="cls-11" transform="translate(308.15 206.46)"><tspan x="0" y="0">8</tspan></text><text class="cls-11" transform="translate(308.15 262.62)"><tspan x="0" y="0">7</tspan></text><text class="cls-11" transform="translate(141.12 206.46)"><tspan x="0" y="0">GND</tspan></text><text class="cls-11" transform="translate(141.12 264.06)"><tspan x="0" y="0">TRIG</tspan></text><text class="cls-11" transform="translate(141.12 321.66)"><tspan x="0" y="0">OU</tspan><tspan class="cls-16" x="24.05" y="0">T</tspan></text><text class="cls-11" transform="translate(141.12 379.26)"><tspan x="0" y="0">RES</tspan><tspan class="cls-18" x="31.99" y="0">E</tspan><tspan class="cls-16" x="42.4" y="0">T</tspan></text><text class="cls-11" transform="translate(238.06 379.26)"><tspan x="0" y="0">CO</tspan><tspan class="cls-13" x="24.09" y="0">N</tspan><tspan class="cls-16" x="36.67" y="0">T</tspan></text><text class="cls-11" transform="translate(229.56 321.66)"><tspan x="0" y="0">THRES</tspan></text><text class="cls-11" transform="translate(233.19 264.06)"><tspan x="0" y="0">DISCH</tspan></text><g><path class="cls-10" d="M500.1,158.98h-3.01v5.18h-1.7v-12.8h4.24c1.44,0,2.55,.33,3.33,.98s1.17,1.61,1.17,2.87c0,.8-.22,1.49-.65,2.08s-1.03,1.03-1.8,1.33l3.01,5.43v.11h-1.81l-2.78-5.18Zm-3.01-1.38h2.59c.84,0,1.5-.22,2-.65,.5-.43,.74-1.02,.74-1.74,0-.79-.24-1.4-.71-1.82-.47-.42-1.15-.64-2.04-.64h-2.58v4.86Z"/><path class="cls-10" d="M511.41,164.16h-1.63v-10.84l-3.28,1.2v-1.48l4.66-1.75h.25v12.86Z"/><path class="cls-10" d="M495.73,179.34l.65-6.38h6.56v1.5h-5.18l-.39,3.49c.63-.37,1.34-.55,2.14-.55,1.17,0,2.09,.39,2.78,1.16s1.03,1.81,1.03,3.12-.36,2.36-1.07,3.12-1.71,1.14-2.98,1.14c-1.13,0-2.05-.31-2.77-.94s-1.12-1.49-1.22-2.6h1.54c.1,.73,.36,1.28,.78,1.66s.98,.56,1.67,.56c.76,0,1.35-.26,1.78-.77s.65-1.23,.65-2.14c0-.86-.23-1.54-.7-2.06s-1.08-.78-1.86-.78c-.71,0-1.27,.16-1.67,.47l-.43,.35-1.3-.33Z"/><path class="cls-10" d="M507.91,181.36l-1.02,1.06v3.34h-1.63v-13.5h1.63v8.17l.87-1.05,2.96-3.13h1.98l-3.7,3.97,4.13,5.54h-1.91l-3.31-4.4Z"/><path class="cls-10" d="M519.63,184.34c.81-.16,1.44-.65,1.89-1.49,.45-.83,.69-1.94,.7-3.31v-1.18c0-1.35-.28-2.39-.85-3.11s-1.35-1.08-2.34-1.08-1.77,.37-2.33,1.1-.84,1.77-.84,3.11v.99c0,1.41,.23,2.55,.69,3.41,.46,.87,1.12,1.38,1.96,1.55v1.42h-4.32v-1.38h1.94c-.62-.6-1.11-1.35-1.46-2.25s-.53-1.82-.53-2.77v-.98c0-1.09,.21-2.06,.62-2.92s.99-1.52,1.74-1.98,1.59-.7,2.53-.7,1.78,.23,2.52,.69,1.32,1.1,1.74,1.93,.63,1.78,.65,2.83v1.14c0,.94-.18,1.86-.53,2.76s-.84,1.65-1.46,2.25h1.93v1.38h-4.25v-1.42Z"/></g><text class="cls-11" transform="translate(1010.94 362.88)"><tspan x="0" y="0">OU</tspan><tspan class="cls-16" x="24.05" y="0">T</tspan></text><text class="cls-11" transform="translate(596.42 216)"><tspan x="0" y="0">Compa</tspan><tspan class="cls-16" x="57.65" y="0">r</tspan><tspan x="63.39" y="0">a</tspan><tspan class="cls-15" x="73.18" y="0">t</tspan><tspan x="78.88" y="0">or</tspan></text><text class="cls-11" transform="translate(600.06 183.42)"><tspan x="0" y="0">+</tspan></text><text class="cls-11" transform="translate(571.31 127.26)"><tspan x="0" y="0">6</tspan></text><text class="cls-11" transform="translate(978.47 445.5)"><tspan x="0" y="0">7</tspan></text><text class="cls-11" transform="translate(601.24 248.22)"><tspan x="0" y="0">-</tspan></text><text class="cls-11" transform="translate(763.54 396)"><tspan x="0" y="0">Flip-Flop</tspan></text><text class="cls-11" transform="translate(761.98 312.48)"><tspan x="0" y="0">R</tspan></text><text class="cls-11" transform="translate(762.18 361.44)"><tspan x="0" y="0">S</tspan></text><text class="cls-11" transform="translate(816.05 361.44)"><tspan x="0" y="0">Q</tspan></text><text class="cls-11" transform="translate(458.19 544.32)"><tspan x="0" y="0">GND</tspan></text><text class="cls-9" transform="translate(481.82 79.2)"><tspan class="cls-14" x="0" y="0">V</tspan><tspan class="cls-17" x="11.45" y="0">CC</tspan></text><text class="cls-11" transform="translate(596.42 360)"><tspan x="0" y="0">Compa</tspan><tspan class="cls-16" x="57.65" y="0">r</tspan><tspan x="63.39" y="0">a</tspan><tspan class="cls-15" x="73.18" y="0">t</tspan><tspan x="78.88" y="0">or</tspan></text><text class="cls-11" transform="translate(362.39 246.24)"><tspan x="0" y="0">CO</tspan><tspan class="cls-13" x="24.09" y="0">N</tspan><tspan class="cls-16" x="36.67" y="0">T</tspan></text><text class="cls-11" transform="translate(416.87 233.82)"><tspan x="0" y="0">5</tspan></text><text class="cls-11" transform="translate(465.83 125.82)"><tspan x="0" y="0">8</tspan></text><text class="cls-11" transform="translate(539.94 67.68)"><tspan x="0" y="0">THRES</tspan></text><text class="cls-11" transform="translate(485.99 495.9)"><tspan x="0" y="0">1</tspan></text><text class="cls-11" transform="translate(977.03 349.02)"><tspan x="0" y="0">3</tspan></text><text class="cls-11" transform="translate(532.39 544.32)"><tspan x="0" y="0">TRIG</tspan></text><text class="cls-11" transform="translate(558.35 497.34)"><tspan x="0" y="0">2</tspan></text><text class="cls-11" transform="translate(1006.52 456.48)"><tspan x="0" y="0">DISCH</tspan></text><text class="cls-11" transform="translate(794.41 93.6)"><tspan x="0" y="0">RES</tspan><tspan class="cls-18" x="31.99" y="0">E</tspan><tspan class="cls-16" x="42.4" y="0">T</tspan></text><text class="cls-11" transform="translate(824.39 127.26)"><tspan x="0" y="0">4</tspan></text><text class="cls-11" transform="translate(672.31 504)"><tspan class="cls-12" x="0" y="0">F</tspan><tspan x="9.76" y="0">unctional Diag</tspan><tspan class="cls-16" x="124.15" y="0">r</tspan><tspan x="129.89" y="0">am (simplified)</tspan></text><text class="cls-11" transform="translate(598.62 328.86)"><tspan x="0" y="0">+</tspan></text><text class="cls-11" transform="translate(599.8 393.66)"><tspan x="0" y="0">-</tspan></text><text class="cls-11" transform="translate(810.21 312.48)"><tspan x="0" y="0">R1</tspan></text><text class="cls-11" transform="translate(858.52 318.24)"><tspan x="0" y="0">Output stage</tspan></text><g><path class="cls-10" d="M500.1,272.74h-3.01v5.18h-1.7v-12.8h4.24c1.44,0,2.55,.33,3.33,.98s1.17,1.61,1.17,2.87c0,.8-.22,1.49-.65,2.08s-1.03,1.03-1.8,1.33l3.01,5.43v.11h-1.81l-2.78-5.18Zm-3.01-1.38h2.59c.84,0,1.5-.22,2-.65,.5-.43,.74-1.02,.74-1.74,0-.79-.24-1.4-.71-1.82s-1.15-.64-2.04-.64h-2.58v4.86Z"/><path class="cls-10" d="M514.45,277.92h-8.38v-1.17l4.43-4.92c.66-.74,1.11-1.35,1.36-1.82s.37-.95,.37-1.45c0-.67-.2-1.22-.61-1.64s-.94-.64-1.62-.64c-.81,0-1.44,.23-1.89,.69s-.67,1.1-.67,1.92h-1.63c0-1.18,.38-2.13,1.14-2.86s1.77-1.09,3.05-1.09c1.19,0,2.13,.31,2.82,.94s1.04,1.46,1.04,2.49c0,1.26-.8,2.76-2.41,4.5l-3.43,3.72h6.42v1.33Z"/><path class="cls-10" d="M495.73,293.1l.65-6.38h6.56v1.5h-5.18l-.39,3.49c.63-.37,1.34-.55,2.14-.55,1.17,0,2.09,.39,2.78,1.16s1.03,1.81,1.03,3.12-.36,2.36-1.07,3.12-1.71,1.14-2.98,1.14c-1.13,0-2.05-.31-2.77-.94s-1.12-1.49-1.22-2.6h1.54c.1,.73,.36,1.29,.78,1.66s.98,.56,1.67,.56c.76,0,1.35-.26,1.78-.77s.65-1.23,.65-2.14c0-.86-.23-1.54-.7-2.06s-1.08-.78-1.86-.78c-.71,0-1.27,.16-1.67,.47l-.43,.35-1.3-.33Z"/><path class="cls-10" d="M507.91,295.12l-1.02,1.06v3.34h-1.63v-13.5h1.63v8.17l.87-1.05,2.96-3.13h1.98l-3.7,3.97,4.13,5.54h-1.91l-3.31-4.4Z"/><path class="cls-10" d="M519.63,298.1c.81-.16,1.44-.65,1.89-1.49s.69-1.94,.7-3.31v-1.18c0-1.35-.28-2.39-.85-3.11-.57-.72-1.35-1.08-2.34-1.08s-1.77,.37-2.33,1.1c-.56,.73-.84,1.77-.84,3.11v.99c0,1.41,.23,2.54,.69,3.41s1.12,1.38,1.96,1.55v1.42h-4.32v-1.38h1.94c-.62-.6-1.11-1.35-1.46-2.25s-.53-1.82-.53-2.77v-.98c0-1.09,.21-2.06,.62-2.92s.99-1.52,1.74-1.98,1.59-.7,2.53-.7,1.78,.23,2.52,.69,1.32,1.1,1.74,1.93,.63,1.78,.65,2.83v1.14c0,.94-.18,1.86-.53,2.76s-.84,1.65-1.46,2.25h1.93v1.38h-4.25v-1.42Z"/></g><g><path class="cls-10" d="M500.1,398.02h-3.01v5.18h-1.7v-12.8h4.24c1.44,0,2.55,.33,3.33,.98s1.17,1.61,1.17,2.87c0,.8-.22,1.49-.65,2.08s-1.03,1.03-1.8,1.33l3.01,5.43v.11h-1.81l-2.78-5.18Zm-3.01-1.38h2.59c.84,0,1.5-.22,2-.65,.5-.43,.74-1.02,.74-1.74,0-.79-.24-1.4-.71-1.82s-1.15-.64-2.04-.64h-2.58v4.86Z"/><path class="cls-10" d="M508.43,396.01h1.22c.77-.01,1.37-.21,1.81-.61s.66-.92,.66-1.59c0-1.5-.75-2.25-2.24-2.25-.7,0-1.26,.2-1.68,.6s-.63,.93-.63,1.6h-1.63c0-1.01,.37-1.86,1.11-2.53s1.68-1.01,2.83-1.01c1.21,0,2.15,.32,2.84,.96s1.03,1.53,1.03,2.66c0,.56-.18,1.1-.54,1.62s-.85,.91-1.47,1.17c.7,.22,1.25,.59,1.63,1.11s.58,1.15,.58,1.89c0,1.15-.38,2.06-1.12,2.73s-1.73,1.01-2.93,1.01-2.18-.33-2.93-.98-1.13-1.51-1.13-2.58h1.63c0,.67,.22,1.21,.66,1.62s1.03,.61,1.77,.61c.79,0,1.39-.21,1.8-.62s.62-1,.62-1.77-.23-1.32-.69-1.71-1.12-.6-1.98-.62h-1.22v-1.33Z"/><path class="cls-10" d="M495.73,418.38l.65-6.38h6.56v1.5h-5.18l-.39,3.49c.63-.37,1.34-.55,2.14-.55,1.17,0,2.09,.39,2.78,1.16s1.03,1.81,1.03,3.12-.36,2.36-1.07,3.12-1.71,1.14-2.98,1.14c-1.13,0-2.05-.31-2.77-.94s-1.12-1.49-1.22-2.6h1.54c.1,.73,.36,1.29,.78,1.66s.98,.56,1.67,.56c.76,0,1.35-.26,1.78-.77s.65-1.23,.65-2.14c0-.86-.23-1.54-.7-2.06s-1.08-.78-1.86-.78c-.71,0-1.27,.16-1.67,.47l-.43,.35-1.3-.33Z"/><path class="cls-10" d="M507.91,420.4l-1.02,1.06v3.34h-1.63v-13.5h1.63v8.17l.87-1.05,2.96-3.13h1.98l-3.7,3.97,4.13,5.54h-1.91l-3.31-4.4Z"/><path class="cls-10" d="M519.63,423.38c.81-.16,1.44-.65,1.89-1.49s.69-1.94,.7-3.31v-1.18c0-1.35-.28-2.39-.85-3.11-.57-.72-1.35-1.08-2.34-1.08s-1.77,.37-2.33,1.1c-.56,.73-.84,1.77-.84,3.11v.99c0,1.41,.23,2.54,.69,3.41s1.12,1.38,1.96,1.55v1.42h-4.32v-1.38h1.94c-.62-.6-1.11-1.35-1.46-2.25s-.53-1.82-.53-2.77v-.98c0-1.09,.21-2.06,.62-2.92s.99-1.52,1.74-1.98,1.59-.7,2.53-.7,1.78,.23,2.52,.69,1.32,1.1,1.74,1.93,.63,1.78,.65,2.83v1.14c0,.94-.18,1.86-.53,2.76s-.84,1.65-1.46,2.25h1.93v1.38h-4.25v-1.42Z"/></g><text class="cls-9" transform="translate(525.18 237.6)"><tspan class="cls-14" x="0" y="0">2/3 V</tspan><tspan class="cls-17" x="43.54" y="0">CC</tspan></text><text class="cls-9" transform="translate(525.18 324)"><tspan class="cls-14" x="0" y="0">1/3 V</tspan><tspan class="cls-17" x="43.54" y="0">CC</tspan></text></g><g id="Line"><line class="cls-1" x1="126.72" y1="154.08" x2="198.72" y2="154.08"/><line class="cls-1" x1="227.52" y1="154.08" x2="299.52" y2="154.08"/><path class="cls-1" d="M227.52,154.08c0,7.95-6.45,14.4-14.4,14.4s-14.4-6.45-14.4-14.4"/><rect class="cls-5" x="97.92" y="182.88" width="28.8" height="28.8"/><rect class="cls-5" x="97.92" y="240.48" width="28.8" height="28.8"/><rect class="cls-5" x="97.92" y="298.08" width="28.8" height="28.8"/><line class="cls-1" x1="126.72" y1="154.08" x2="126.72" y2="413.28"/><line class="cls-1" x1="126.72" y1="413.28" x2="299.52" y2="413.28"/><line class="cls-1" x1="299.52" y1="154.08" x2="299.52" y2="412.52"/><rect class="cls-5" x="97.92" y="355.68" width="28.8" height="28.8"/><rect class="cls-5" x="299.52" y="298.08" width="28.8" height="28.8"/><rect class="cls-5" x="299.52" y="355.68" width="28.8" height="28.8"/><rect class="cls-5" x="299.52" y="182.88" width="28.8" height="28.8"/><rect class="cls-5" x="299.52" y="240.48" width="28.8" height="28.8"/><line class="cls-5" x1="595.08" y1="182.88" x2="566.28" y2="182.88"/><line class="cls-5" x1="709.92" y1="211.68" x2="732.96" y2="211.68"/><g><line class="cls-5" x1="953.28" y1="355.68" x2="1006.37" y2="355.68"/><polygon class="cls-10" points="1001.4 361.81 1000.38 360.72 1005.8 355.68 1000.38 350.65 1001.4 349.55 1008 355.68 1001.4 361.81"/></g><line class="cls-5" x1="566.28" y1="74.88" x2="566.28" y2="182.88"/><g><line class="cls-5" x1="480.96" y1="112.32" x2="480.96" y2="84.88"/><polygon class="cls-10" points="485.73 93.75 484.32 94.26 480.96 85.03 477.6 94.26 476.19 93.75 480.96 80.64 485.73 93.75"/></g><line class="cls-5" x1="585" y1="240.48" x2="410.4" y2="240.48"/><line class="cls-5" x1="595.08" y1="326.88" x2="480.96" y2="326.88"/><line class="cls-5" x1="585" y1="384.48" x2="551.88" y2="384.48"/><rect class="cls-5" x="456.48" y="162.72" width="48.96" height="17.28" transform="translate(309.6 652.32) rotate(-90)"/><line class="cls-5" x1="480.96" y1="195.84" x2="480.96" y2="259.2"/><line class="cls-5" x1="480.96" y1="308.16" x2="480.96" y2="380.16"/><rect class="cls-4" x="753.12" y="286.56" width="86.4" height="90.72"/><polygon class="cls-4" points="940.32 355.68 882.72 326.88 882.72 384.48 940.32 355.68"/><line class="cls-5" x1="480.96" y1="506.88" x2="480.96" y2="429.12"/><line class="cls-5" x1="480.96" y1="146.88" x2="480.96" y2="102.24"/><line class="cls-5" x1="753.12" y1="305.28" x2="732.96" y2="305.28"/><line class="cls-5" x1="732.96" y1="211.68" x2="732.96" y2="305.28"/><line class="cls-5" x1="753.12" y1="355.68" x2="709.92" y2="355.68"/><polygon class="cls-4" points="710.28 211.68 595.08 154.08 595.08 269.28 710.28 211.68"/><polygon class="cls-4" points="710.28 355.68 595.08 298.08 595.08 413.28 710.28 355.68"/><line class="cls-5" x1="839.52" y1="355.68" x2="882.72" y2="355.68"/><circle class="cls-6" cx="947.52" cy="355.68" r="5.76"/><line class="cls-5" x1="816.48" y1="347.04" x2="828" y2="347.04"/><polygon class="cls-5" points="480.96 522.72 493.92 506.88 468 506.88 480.96 522.72"/><line class="cls-5" x1="480.96" y1="126.72" x2="480.96" y2="103.68"/><line class="cls-4" x1="846.72" y1="436.32" x2="875.52" y2="436.32"/><line class="cls-5" x1="861.12" y1="436.32" x2="861.12" y2="421.92"/><line class="cls-5" x1="856.8" y1="436.32" x2="845.28" y2="450.72"/><line class="cls-5" x1="865.44" y1="436.32" x2="876.96" y2="450.72"/><polygon class="cls-10" points="853.29 428.73 851.04 443.52 864.97 438.08 853.29 428.73"/><line class="cls-5" x1="861.12" y1="436.32" x2="861.12" y2="355.68"/><line class="cls-5" x1="876.96" y1="450.72" x2="1005.12" y2="450.72"/><line class="cls-5" x1="480.96" y1="450.72" x2="845.28" y2="450.72"/><line class="cls-5" x1="820.8" y1="276.48" x2="820.8" y2="100.8"/><g><polyline class="cls-8" points="972 474.7 972 476.64 970.06 476.64"/><line class="cls-7" x1="966.21" y1="476.64" x2="435.87" y2="476.64"/><polyline class="cls-8" points="433.94 476.64 432 476.64 432 474.7"/><line class="cls-3" x1="432" y1="470.79" x2="432" y2="136.37"/><polyline class="cls-8" points="432 134.42 432 132.48 433.94 132.48"/><line class="cls-7" x1="437.79" y1="132.48" x2="968.14" y2="132.48"/><polyline class="cls-8" points="970.06 132.48 972 132.48 972 134.42"/><line class="cls-3" x1="972" y1="138.33" x2="972" y2="472.75"/></g><rect class="cls-5" x="456.48" y="275.04" width="48.96" height="17.28" transform="translate(197.28 764.64) rotate(-90)"/><rect class="cls-5" x="456.48" y="396" width="48.96" height="17.28" transform="translate(76.32 885.6) rotate(-90)"/><line class="cls-5" x1="551.88" y1="384.48" x2="551.88" y2="522.72"/><circle class="cls-5" cx="820.8" cy="280.8" r="4.32"/><circle class="cls-5" cx="589.32" cy="240.48" r="4.32"/><circle class="cls-5" cx="589.32" cy="384.48" r="4.32"/></g><g id="Field"><circle class="cls-2" cx="480.96" cy="240.48" r="1.44"/><circle class="cls-2" cx="480.96" cy="326.88" r="1.44"/><circle class="cls-2" cx="480.96" cy="450.72" r="1.44"/><circle class="cls-2" cx="861.12" cy="355.68" r="1.44"/></g></svg>