<?xml version="1.0" encoding="UTF-8"?><svg xmlns="http://www.w3.org/2000/svg" viewBox="0 0 1080 600.48"><defs><style>.cls-1,.cls-2,.cls-3,.cls-4{fill:#1d1e1b;}.cls-5{stroke-dasharray:0 0 0 0 0 0 2.59 2.59 2.59 2.59 2.59 2.59;}.cls-5,.cls-2,.cls-6,.cls-7,.cls-8,.cls-9,.cls-3,.cls-10,.cls-11{stroke:#1d1e1b;stroke-miterlimit:10;}.cls-5,.cls-6,.cls-7,.cls-8,.cls-9,.cls-10,.cls-11{fill:none;}.cls-2,.cls-7{stroke-width:2px;}.cls-6{stroke-width:2px;}.cls-8{stroke-width:2.05px;}.cls-12{letter-spacing:-.01em;}.cls-3{stroke-width:3px;}.cls-13{letter-spacing:-.02em;}.cls-4{font-family:Roboto-Regular, Roboto;font-size:18px;}.cls-10{stroke-width:1.98px;}.cls-14{letter-spacing:0em;}.cls-11{stroke-width:1px;}</style></defs><g id="TEXT"><text class="cls-4" transform="translate(284.71 328.86)"><tspan x="0" y="0">Input</tspan></text><text class="cls-4" transform="translate(451.21 43.74)"><tspan x="0" y="0">Monostable Ope</tspan><tspan class="cls-13" x="131.6" y="0">r</tspan><tspan x="137.34" y="0">ation</tspan></text><text class="cls-4" transform="translate(439.77 220.32)"><tspan x="0" y="0">4</tspan></text><text class="cls-4" transform="translate(440.61 262.08)"><tspan x="0" y="0">7</tspan></text><text class="cls-4" transform="translate(441.21 326.88)"><tspan x="0" y="0">2</tspan></text><text class="cls-4" transform="translate(440.61 370.08)"><tspan x="0" y="0">6</tspan></text><text class="cls-4" transform="translate(580.29 420.48)"><tspan x="0" y="0">1</tspan></text><text class="cls-4" transform="translate(521.25 420.48)"><tspan x="0" y="0">5</tspan></text><text class="cls-4" transform="translate(584.61 191.52)"><tspan x="0" y="0">8</tspan></text><text class="cls-4" transform="translate(624.93 277.92)"><tspan x="0" y="0">3</tspan></text><text class="cls-4" transform="translate(319.98 190.62)"><tspan x="0" y="0">R</tspan></text><text class="cls-4" transform="translate(331.07 196.61) scale(.58)"><tspan x="0" y="0">1</tspan></text><text class="cls-4" transform="translate(650.08 305.82)"><tspan x="0" y="0">Output</tspan></text><text class="cls-4" transform="translate(576.27 540.54)"><tspan x="0" y="0">GND</tspan></text><text class="cls-4" transform="translate(341.55 540.54)"><tspan x="0" y="0">GND</tspan></text><text class="cls-4" transform="translate(310.71 418.14)"><tspan x="0" y="0">C</tspan></text><text class="cls-4" transform="translate(322.43 424.13) scale(.58)"><tspan x="0" y="0">1</tspan></text><text class="cls-4" transform="translate(576.27 397.98)"><tspan x="0" y="0">GND</tspan></text><text class="cls-4" transform="translate(469.44 380.7)"><tspan x="0" y="0">THRES</tspan></text><text class="cls-4" transform="translate(576.12 291.42)"><tspan x="0" y="0">OU</tspan><tspan class="cls-13" x="24.05" y="0">T</tspan></text><text class="cls-4" transform="translate(470.88 238.14)"><tspan x="0" y="0">RES</tspan><tspan class="cls-14" x="31.99" y="0">E</tspan><tspan class="cls-13" x="42.4" y="0">T</tspan></text><text class="cls-4" transform="translate(512.15 397.98)"><tspan x="0" y="0">CO</tspan><tspan class="cls-12" x="24.09" y="0">N</tspan><tspan class="cls-13" x="36.67" y="0">T</tspan></text><text class="cls-4" transform="translate(469.44 344.7)"><tspan x="0" y="0">TRIG</tspan></text><text class="cls-4" transform="translate(469.44 275.58)"><tspan x="0" y="0">DISCH</tspan></text><text class="cls-4" transform="translate(518.67 540.54)"><tspan x="0" y="0">GND</tspan></text><text class="cls-4" transform="translate(452.16 488.16)"><tspan x="0" y="0">0.01 µF</tspan></text><text class="cls-4" transform="translate(490.84 446.94)"><tspan x="0" y="0">C</tspan></text><text class="cls-4" transform="translate(759.38 412.38)"><tspan x="0" y="0">T</tspan></text><text class="cls-4" transform="translate(770.12 418.37) scale(.58)"><tspan x="0" y="0">H </tspan></text><text class="cls-4" transform="translate(780.19 412.38)"><tspan x="0" y="0">= 1.1 R</tspan></text><text class="cls-4" transform="translate(835.02 418.37) scale(.58)"><tspan x="0" y="0">1 </tspan></text><text class="cls-4" transform="translate(843.51 412.38)"><tspan x="0" y="0">C</tspan></text><text class="cls-4" transform="translate(855.23 418.37) scale(.58)"><tspan x="0" y="0">1</tspan></text><text class="cls-4" transform="translate(86.94 366.3)"><tspan x="0" y="0">GND</tspan></text><text class="cls-4" transform="translate(747.9 310.14)"><tspan x="0" y="0">GND</tspan></text><text class="cls-4" transform="translate(840.02 343.26)"><tspan x="0" y="0">T</tspan></text><text class="cls-4" transform="translate(850.76 349.25) scale(.58)"><tspan x="0" y="0">H </tspan></text><text class="cls-4" transform="translate(102.1 297.96)"><tspan x="0" y="0">V</tspan></text><text class="cls-4" transform="translate(113.55 303.95) scale(.58)"><tspan x="0" y="0">DD</tspan></text><text class="cls-4" transform="translate(750.59 239.58)"><tspan x="0" y="0">V</tspan></text><text class="cls-4" transform="translate(762.04 245.57) scale(.58)"><tspan x="0" y="0">DD</tspan></text><text class="cls-4" transform="translate(573.47 225.18)"><tspan x="0" y="0">V</tspan></text><text class="cls-4" transform="translate(584.92 231.17) scale(.58)"><tspan x="0" y="0">DD</tspan></text><text class="cls-4" transform="translate(587.87 63.9)"><tspan x="0" y="0">V</tspan></text><text class="cls-4" transform="translate(599.32 69.89) scale(.58)"><tspan x="0" y="0">DD</tspan></text></g><g id="Line"><line class="cls-9" x1="803.52" y1="306.72" x2="803.52" y2="234.72"/><line class="cls-9" x1="887.04" y1="234.72" x2="803.52" y2="234.72"/><line class="cls-9" x1="887.04" y1="306.72" x2="887.04" y2="234.72"/><line class="cls-9" x1="901.44" y1="306.72" x2="887.04" y2="306.72"/><line class="cls-9" x1="190.35" y1="289.44" x2="241.92" y2="289.44"/><line class="cls-9" x1="190.35" y1="289.44" x2="190.35" y2="361.44"/><line class="cls-9" x1="168.75" y1="361.44" x2="190.35" y2="361.44"/><line class="cls-9" x1="168.75" y1="289.44" x2="168.75" y2="361.44"/><line class="cls-9" x1="126.72" y1="289.44" x2="168.75" y2="289.44"/><rect class="cls-8" x="460.8" y="201.6" width="158.4" height="201.6"/><line class="cls-7" x1="594.72" y1="403.2" x2="594.72" y2="496.8"/><line class="cls-9" x1="580.32" y1="497.04" x2="609.12" y2="497.04"/><line class="cls-9" x1="594.48" y1="514.32" x2="580.08" y2="497.04"/><line class="cls-9" x1="608.88" y1="497.04" x2="594.48" y2="514.32"/><line class="cls-10" x1="360" y1="374.4" x2="460.8" y2="374.4"/><line class="cls-10" x1="367.2" y1="338.4" x2="460.8" y2="338.4"/><line class="cls-10" x1="460.8" y1="266.4" x2="360" y2="266.4"/><line class="cls-10" x1="450.72" y1="230.4" x2="421.92" y2="230.4"/><circle class="cls-10" cx="455.04" cy="230.4" r="4.32"/><line class="cls-7" x1="537.12" y1="402.96" x2="537.12" y2="431.76"/><line class="cls-7" x1="580.32" y1="80.64" x2="580.32" y2="201.6"/><g><line class="cls-6" x1="619.2" y1="282.24" x2="702.22" y2="282.24"/><polygon class="cls-1" points="692.28 294.52 690.23 292.32 701.07 282.24 690.23 272.16 692.28 269.97 705.48 282.24 692.28 294.52"/></g><line class="cls-7" x1="360" y1="437.76" x2="360" y2="496.8"/><line class="cls-9" x1="345.6" y1="496.8" x2="374.4" y2="496.8"/><line class="cls-9" x1="359.76" y1="514.08" x2="345.36" y2="496.8"/><line class="cls-9" x1="374.16" y1="496.8" x2="359.76" y2="514.08"/><line class="cls-7" x1="360" y1="374.4" x2="360" y2="423.36"/><rect class="cls-7" x="324" y="197.28" width="72" height="23.04" transform="translate(151.2 568.8) rotate(-90)"/><line class="cls-7" x1="360" y1="158.4" x2="360" y2="172.8"/><line class="cls-7" x1="421.92" y1="230.4" x2="421.92" y2="156.96"/><line class="cls-7" x1="360" y1="158.4" x2="580.32" y2="158.4"/><line class="cls-7" x1="360" y1="244.8" x2="360" y2="374.4"/><line class="cls-7" x1="537.12" y1="466.56" x2="537.12" y2="496.8"/><line class="cls-9" x1="522.72" y1="496.8" x2="551.52" y2="496.8"/><line class="cls-9" x1="536.88" y1="514.08" x2="522.48" y2="496.8"/><line class="cls-9" x1="551.28" y1="496.8" x2="536.88" y2="514.08"/><line class="cls-7" x1="537.12" y1="430.56" x2="537.12" y2="455.04"/><g><line class="cls-7" x1="580.32" y1="116.64" x2="580.32" y2="76.16"/><polygon class="cls-1" points="589.86 93.89 587.04 94.92 580.32 76.45 573.6 94.92 570.78 93.89 580.32 67.68 589.86 93.89"/></g><line class="cls-9" x1="803.52" y1="306.72" x2="789.12" y2="306.72"/><g><line class="cls-11" x1="810.61" y1="316.8" x2="873.74" y2="316.8"/><polygon class="cls-1" points="812.2 319.13 803.52 316.8 812.2 314.47 812.2 319.13"/><polygon class="cls-1" points="870.77 321.16 887.04 316.8 870.77 312.44 870.77 321.16"/></g><path class="cls-10" d="M352.8,338.4c0,3.98,3.22,7.2,7.2,7.2"/><path class="cls-10" d="M367.2,338.4c0,3.98-3.22,7.2-7.2,7.2"/><line class="cls-10" x1="259.2" y1="338.4" x2="352.8" y2="338.4"/><line class="cls-5" x1="241.92" y1="361.44" x2="126.72" y2="361.44"/><line class="cls-5" x1="901.44" y1="306.72" x2="786.24" y2="306.72"/><line class="cls-5" x1="901.44" y1="234.72" x2="786.24" y2="234.72"/></g><g id="Field"><rect class="cls-3" x="331.2" y="434.88" width="57.6" height="4.32" transform="translate(720 874.08) rotate(-180)"/><rect class="cls-3" x="331.2" y="423.36" width="57.6" height="4.32" transform="translate(720 851.04) rotate(-180)"/><circle class="cls-2" cx="360" cy="266.4" r="2.88"/><circle class="cls-2" cx="421.92" cy="158.4" r="2.88"/><circle class="cls-2" cx="360" cy="374.4" r="2.88"/><circle class="cls-2" cx="580.32" cy="158.4" r="2.88"/><rect class="cls-3" x="508.32" y="465.12" width="57.6" height="4.32" transform="translate(1074.24 934.56) rotate(-180)"/><rect class="cls-3" x="508.32" y="453.6" width="57.6" height="4.32" transform="translate(1074.24 911.52) rotate(-180)"/></g></svg>