<?xml version="1.0" encoding="UTF-8"?><svg xmlns="http://www.w3.org/2000/svg" viewBox="0 0 1080 600.48"><defs><style>.cls-1,.cls-2,.cls-3,.cls-4{fill:#cad2d9;}.cls-2,.cls-5{stroke-width:2px;}.cls-2,.cls-5,.cls-6,.cls-7,.cls-3,.cls-8{stroke:#cad2d9;stroke-miterlimit:10;}.cls-5,.cls-6,.cls-7,.cls-8{fill:none;}.cls-6{stroke-width:2.05px;}.cls-9{letter-spacing:-.01em;}.cls-3{stroke-width:3px;}.cls-10{letter-spacing:-.02em;}.cls-4{font-family:Roboto-Regular, Roboto;font-size:18px;}.cls-8{stroke-width:1.98px;}.cls-11{letter-spacing:0em;}</style></defs><g id="Line"><rect class="cls-6" x="462.24" y="201.6" width="158.4" height="201.6"/><line class="cls-5" x1="596.16" y1="402.96" x2="596.16" y2="496.8"/><line class="cls-8" x1="361.44" y1="374.4" x2="462.24" y2="374.4"/><line class="cls-8" x1="404.64" y1="338.4" x2="462.24" y2="338.4"/><line class="cls-8" x1="462.24" y1="266.4" x2="361.44" y2="266.4"/><line class="cls-8" x1="452.16" y1="230.4" x2="423.36" y2="230.4"/><circle class="cls-8" cx="456.48" cy="230.4" r="4.32"/><line class="cls-5" x1="538.56" y1="402.96" x2="538.56" y2="431.76"/><line class="cls-5" x1="581.76" y1="80.64" x2="581.76" y2="201.6"/><line class="cls-5" x1="620.64" y1="282.24" x2="706.92" y2="282.24"/><line class="cls-5" x1="361.44" y1="437.76" x2="361.44" y2="496.8"/><line class="cls-7" x1="347.04" y1="496.8" x2="375.84" y2="496.8"/><line class="cls-7" x1="361.2" y1="514.08" x2="346.8" y2="496.8"/><line class="cls-7" x1="375.6" y1="496.8" x2="361.2" y2="514.08"/><line class="cls-5" x1="361.44" y1="374.4" x2="361.44" y2="423.36"/><rect class="cls-5" x="325.44" y="197.28" width="72" height="23.04" transform="translate(152.64 570.24) rotate(-90)"/><line class="cls-5" x1="361.44" y1="154.08" x2="361.44" y2="172.8"/><line class="cls-5" x1="423.36" y1="230.4" x2="423.36" y2="152.64"/><line class="cls-5" x1="361.44" y1="154.08" x2="581.76" y2="154.08"/><rect class="cls-5" x="627.72" y="169.92" width="72" height="23.04" transform="translate(482.28 845.16) rotate(-90)"/><line class="cls-5" x1="663.72" y1="282.24" x2="663.72" y2="217.44"/><line class="cls-5" x1="581.76" y1="123.84" x2="663.84" y2="123.84"/><line class="cls-5" x1="404.64" y1="338.4" x2="404.64" y2="374.4"/><rect class="cls-5" x="325.44" y="312.48" width="72" height="23.04" transform="translate(37.44 685.44) rotate(-90)"/><line class="cls-5" x1="361.44" y1="244.8" x2="361.44" y2="288"/><line class="cls-5" x1="361.44" y1="360" x2="361.44" y2="374.4"/><g><line class="cls-7" x1="750.24" y1="286.56" x2="750.24" y2="214.56"/><line class="cls-7" x1="771.84" y1="214.56" x2="750.24" y2="214.56"/><line class="cls-7" x1="771.84" y1="286.56" x2="771.84" y2="214.56"/><line class="cls-7" x1="793.44" y1="286.56" x2="771.84" y2="286.56"/><line class="cls-7" x1="793.44" y1="286.56" x2="793.44" y2="214.56"/><line class="cls-7" x1="815.04" y1="214.56" x2="793.44" y2="214.56"/><line class="cls-7" x1="815.04" y1="286.56" x2="815.04" y2="214.56"/><line class="cls-7" x1="836.64" y1="286.56" x2="815.04" y2="286.56"/><line class="cls-7" x1="836.64" y1="286.56" x2="836.64" y2="214.56"/><line class="cls-7" x1="858.24" y1="214.56" x2="836.64" y2="214.56"/><line class="cls-7" x1="858.24" y1="286.56" x2="858.24" y2="214.56"/><line class="cls-7" x1="879.84" y1="286.56" x2="858.24" y2="286.56"/><line class="cls-7" x1="879.84" y1="286.56" x2="879.84" y2="214.56"/><line class="cls-7" x1="901.44" y1="214.56" x2="879.84" y2="214.56"/><line class="cls-7" x1="901.44" y1="286.56" x2="901.44" y2="214.56"/><line class="cls-7" x1="923.04" y1="286.56" x2="901.44" y2="286.56"/></g><line class="cls-7" x1="581.76" y1="497.04" x2="610.56" y2="497.04"/><line class="cls-7" x1="595.92" y1="514.32" x2="581.52" y2="497.04"/><line class="cls-7" x1="610.32" y1="497.04" x2="595.92" y2="514.32"/><g><line class="cls-5" x1="581.76" y1="118.08" x2="581.76" y2="77.6"/><polygon class="cls-1" points="591.3 95.33 588.48 96.36 581.76 77.89 575.04 96.36 572.22 95.33 581.76 69.12 591.3 95.33"/></g><line class="cls-7" x1="787.68" y1="377.28" x2="917.28" y2="377.28"/></g><g id="Field"><circle class="cls-2" cx="404.64" cy="374.4" r="2.88"/><circle class="cls-2" cx="361.44" cy="266.4" r="2.88"/><circle class="cls-2" cx="423.36" cy="154.08" r="2.88"/><circle class="cls-2" cx="581.76" cy="123.84" r="2.88"/><line class="cls-2" x1="663.84" y1="123.84" x2="663.84" y2="145.44"/><circle class="cls-2" cx="663.72" cy="282.24" r="2.88"/><circle class="cls-2" cx="361.44" cy="374.4" r="2.88"/><circle class="cls-2" cx="581.76" cy="154.08" r="2.88"/><rect class="cls-3" x="332.64" y="434.88" width="57.6" height="4.32" transform="translate(722.88 874.08) rotate(-180)"/><rect class="cls-3" x="332.64" y="423.36" width="57.6" height="4.32" transform="translate(722.88 851.04) rotate(-180)"/></g><g id="TEXT"><text class="cls-4" transform="translate(441.21 220.32)"><tspan x="0" y="0">4</tspan></text><text class="cls-4" transform="translate(442.05 262.08)"><tspan x="0" y="0">7</tspan></text><text class="cls-4" transform="translate(442.65 326.88)"><tspan x="0" y="0">2</tspan></text><text class="cls-4" transform="translate(442.05 370.08)"><tspan x="0" y="0">6</tspan></text><text class="cls-4" transform="translate(586.05 191.52)"><tspan x="0" y="0">8</tspan></text><text class="cls-4" transform="translate(626.37 277.92)"><tspan x="0" y="0">3</tspan></text><text class="cls-4" transform="translate(324.79 251.1)"><tspan x="0" y="0">R</tspan></text><text class="cls-4" transform="translate(335.87 257.09) scale(.58)"><tspan x="0" y="0">A</tspan></text><text class="cls-4" transform="translate(677.35 196.38)"><tspan x="0" y="0">R</tspan></text><text class="cls-4" transform="translate(688.43 202.37) scale(.58)"><tspan x="0" y="0">L</tspan></text><text class="cls-4" transform="translate(651.52 305.82)"><tspan x="0" y="0">Output</tspan></text><text class="cls-4" transform="translate(577.71 547.74)"><tspan x="0" y="0">GND</tspan></text><text class="cls-4" transform="translate(341.55 547.74)"><tspan x="0" y="0">GND</tspan></text><text class="cls-4" transform="translate(325.1 351.9)"><tspan x="0" y="0">R</tspan></text><text class="cls-4" transform="translate(336.19 357.89) scale(.58)"><tspan x="0" y="0">B</tspan></text><text class="cls-4" transform="translate(316.6 415.26)"><tspan x="0" y="0">C</tspan></text><text class="cls-4" transform="translate(577.71 397.98)"><tspan x="0" y="0">GND</tspan></text><text class="cls-4" transform="translate(470.88 380.7)"><tspan x="0" y="0">THRES</tspan></text><text class="cls-4" transform="translate(577.56 291.42)"><tspan x="0" y="0">OU</tspan><tspan class="cls-10" x="24.05" y="0">T</tspan></text><text class="cls-4" transform="translate(472.32 238.14)"><tspan x="0" y="0">RES</tspan><tspan class="cls-11" x="31.99" y="0">E</tspan><tspan class="cls-10" x="42.4" y="0">T</tspan></text><text class="cls-4" transform="translate(513.59 397.98)"><tspan x="0" y="0">CO</tspan><tspan class="cls-9" x="24.09" y="0">N</tspan><tspan class="cls-10" x="36.67" y="0">T</tspan></text><text class="cls-4" transform="translate(470.88 344.7)"><tspan x="0" y="0">TRIG</tspan></text><text class="cls-4" transform="translate(470.88 275.58)"><tspan x="0" y="0">DISCH</tspan></text><text class="cls-4" transform="translate(771.22 382.19)"><tspan x="0" y="0">=</tspan></text><text class="cls-4" transform="translate(783.73 400.32)"><tspan x="0" y="0">(R</tspan></text><text class="cls-4" transform="translate(800.96 406.31) scale(.58)"><tspan x="0" y="0">A</tspan></text><text class="cls-4" transform="translate(807.81 400.32)"><tspan x="0" y="0" xml:space="preserve"> + 2R</tspan></text><text class="cls-4" transform="translate(848.12 406.31) scale(.58)"><tspan x="0" y="0">B</tspan></text><text class="cls-4" transform="translate(854.65 400.32)"><tspan x="0" y="0">) C ln(2)</tspan></text><text class="cls-4" transform="translate(757 384.48)"><tspan x="0" y="0">f</tspan></text><text class="cls-4" transform="translate(845.99 367.2)"><tspan x="0" y="0">1</tspan></text><text class="cls-4" transform="translate(589.31 72.54)"><tspan x="0" y="0">V</tspan></text><text class="cls-4" transform="translate(600.76 78.53) scale(.58)"><tspan x="0" y="0">DD</tspan></text><text class="cls-4" transform="translate(576.35 222.3)"><tspan x="0" y="0">V</tspan></text><text class="cls-4" transform="translate(587.8 228.29) scale(.58)"><tspan x="0" y="0">DD</tspan></text><text class="cls-4" transform="translate(581.73 421.92)"><tspan x="0" y="0">1</tspan></text><text class="cls-4" transform="translate(522.69 421.92)"><tspan x="0" y="0">5</tspan></text><text class="cls-4" transform="translate(526.04 452.09)"><tspan x="0" y="0">NC</tspan></text><text class="cls-4" transform="translate(468.43 43.74)"><tspan x="0" y="0">Astable Ope</tspan><tspan class="cls-10" x="97.16" y="0">r</tspan><tspan x="102.9" y="0">ation</tspan></text></g></svg>