<?xml version="1.0" encoding="UTF-8"?><svg xmlns="http://www.w3.org/2000/svg" viewBox="0 0 1080 600.48"><defs><style>.cls-1,.cls-2,.cls-3{fill:#f0f6fc;}.cls-4{stroke-dasharray:0 0 0 0 0 0 2.59 2.59 2.59 2.59 2.59 2.59;}.cls-4,.cls-2,.cls-5,.cls-6,.cls-7,.cls-8,.cls-9,.cls-3,.cls-10,.cls-11{stroke:#f0f6fc;stroke-miterlimit:10;}.cls-4,.cls-5,.cls-6,.cls-7,.cls-8,.cls-9,.cls-10,.cls-11{fill:none;}.cls-2,.cls-7{stroke-width:2px;}.cls-5{stroke-width:1.42px;}.cls-6{stroke-width:2px;}.cls-8{stroke-width:2.05px;}.cls-12{opacity:.75;}.cls-3{stroke-width:3px;}.cls-10{stroke-width:1.98px;}.cls-11{stroke-width:1px;}</style></defs><g id="Field"><rect class="cls-12" x="648.12" y="276.48" width="216" height="86.4"/><rect class="cls-12" x="648.12" y="391.68" width="216" height="86.4"/><rect class="cls-12" x="648.12" y="161.28" width="216" height="86.4"/><rect class="cls-3" x="119.52" y="434.88" width="57.6" height="4.32" transform="translate(296.64 874.08) rotate(-180)"/><rect class="cls-3" x="119.52" y="423.36" width="57.6" height="4.32" transform="translate(296.64 851.04) rotate(-180)"/><circle class="cls-2" cx="148.32" cy="266.4" r="2.88"/><circle class="cls-2" cx="210.24" cy="158.4" r="2.88"/><circle class="cls-2" cx="148.32" cy="374.4" r="2.88"/><circle class="cls-2" cx="368.64" cy="158.4" r="2.88"/><rect class="cls-3" x="296.64" y="465.12" width="57.6" height="4.32" transform="translate(650.88 934.56) rotate(-180)"/><rect class="cls-3" x="296.64" y="453.6" width="57.6" height="4.32" transform="translate(650.88 911.52) rotate(-180)"/></g><g id="TEXT_Vector"><path class="cls-1" d="m76.33,328.86h-1.69v-12.8h1.69v12.8Z"/><path class="cls-1" d="m80.7,319.35l.05,1.2c.73-.91,1.68-1.37,2.85-1.37,2.01,0,3.02,1.13,3.04,3.4v6.28h-1.63v-6.29c0-.69-.16-1.19-.47-1.52s-.79-.49-1.44-.49c-.53,0-.99.14-1.39.42s-.71.65-.93,1.11v6.78h-1.63v-9.51h1.54Z"/><path class="cls-1" d="m97.12,324.21c0,1.45-.33,2.61-.99,3.5s-1.56,1.33-2.69,1.33-2.06-.37-2.72-1.1v4.58h-1.63v-13.17h1.49l.08,1.05c.66-.82,1.58-1.23,2.76-1.23s2.05.43,2.71,1.29,1,2.06,1,3.59v.15Zm-1.63-.18c0-1.07-.23-1.92-.69-2.54s-1.08-.93-1.88-.93c-.98,0-1.72.44-2.21,1.31v4.54c.49.87,1.23,1.3,2.23,1.3.78,0,1.4-.31,1.86-.93s.69-1.54.69-2.76Z"/><path class="cls-1" d="m105.06,327.92c-.63.74-1.56,1.12-2.79,1.12-1.01,0-1.79-.29-2.32-.88-.53-.59-.8-1.46-.8-2.62v-6.19h1.63v6.14c0,1.44.59,2.16,1.76,2.16,1.24,0,2.07-.46,2.48-1.39v-6.92h1.63v9.51h-1.55l-.04-.94Z"/><path class="cls-1" d="m111.32,317.05v2.3h1.78v1.26h-1.78v5.91c0,.38.08.67.24.86s.43.29.81.29c.19,0,.45-.04.77-.11v1.31c-.43.12-.84.17-1.25.17-.73,0-1.27-.22-1.64-.66s-.55-1.06-.55-1.87v-5.9h-1.73v-1.26h1.73v-2.3h1.63Z"/><path class="cls-1" d="m454.88,30.94l4.18,10.44,4.18-10.44h2.19v12.8h-1.69v-4.98l.16-5.38-4.2,10.36h-1.29l-4.19-10.34.17,5.35v4.98h-1.69v-12.8h2.18Z"/><path class="cls-1" d="m467.73,38.9c0-.93.18-1.77.55-2.51s.88-1.32,1.53-1.72,1.4-.61,2.24-.61c1.29,0,2.34.45,3.14,1.34s1.2,2.09,1.2,3.58v.11c0,.93-.18,1.76-.53,2.49-.35.74-.86,1.31-1.52,1.72s-1.42.62-2.27.62c-1.29,0-2.33-.45-3.13-1.34s-1.2-2.08-1.2-3.56v-.11Zm1.63.19c0,1.05.24,1.9.73,2.54s1.14.96,1.96.96,1.48-.32,1.97-.97c.49-.65.73-1.55.73-2.72,0-1.04-.25-1.89-.74-2.54-.5-.65-1.15-.97-1.97-.97s-1.45.32-1.94.96-.74,1.55-.74,2.74Z"/><path class="cls-1" d="m479.96,34.23l.05,1.2c.73-.91,1.68-1.37,2.85-1.37,2.01,0,3.02,1.13,3.04,3.4v6.28h-1.63v-6.29c0-.69-.16-1.19-.47-1.52s-.79-.49-1.44-.49c-.53,0-.99.14-1.39.42s-.71.65-.93,1.11v6.78h-1.63v-9.51h1.54Z"/><path class="cls-1" d="m487.92,38.9c0-.93.18-1.77.55-2.51s.88-1.32,1.53-1.72,1.4-.61,2.24-.61c1.29,0,2.34.45,3.14,1.34s1.2,2.09,1.2,3.58v.11c0,.93-.18,1.76-.53,2.49-.35.74-.86,1.31-1.52,1.72s-1.42.62-2.27.62c-1.29,0-2.33-.45-3.13-1.34s-1.2-2.08-1.2-3.56v-.11Zm1.63.19c0,1.05.24,1.9.73,2.54s1.14.96,1.96.96,1.48-.32,1.97-.97c.49-.65.73-1.55.73-2.72,0-1.04-.25-1.89-.74-2.54-.5-.65-1.15-.97-1.97-.97s-1.45.32-1.94.96-.74,1.55-.74,2.74Z"/><path class="cls-1" d="m504.16,41.22c0-.44-.17-.78-.5-1.02-.33-.24-.91-.45-1.73-.63-.82-.18-1.48-.39-1.96-.63-.48-.25-.84-.54-1.07-.88-.23-.34-.35-.74-.35-1.21,0-.78.33-1.44.99-1.98.66-.54,1.5-.81,2.53-.81,1.08,0,1.95.28,2.62.83.67.56,1.01,1.27,1.01,2.14h-1.63c0-.45-.19-.83-.57-1.15-.38-.32-.85-.48-1.43-.48s-1.05.13-1.39.39-.5.59-.5,1.01c0,.39.15.69.46.89s.87.39,1.68.57c.81.18,1.47.4,1.97.65s.88.56,1.12.91c.24.36.37.79.37,1.3,0,.85-.34,1.53-1.02,2.04-.68.51-1.56.77-2.65.77-.76,0-1.44-.13-2.02-.4s-1.04-.65-1.38-1.13c-.33-.48-.5-1.01-.5-1.57h1.62c.03.54.25.98.65,1.3.41.32.95.48,1.61.48.62,0,1.11-.12,1.48-.37.37-.25.56-.58.56-1Z"/><path class="cls-1" d="m510.11,31.93v2.3h1.78v1.26h-1.78v5.91c0,.38.08.67.24.86s.43.29.81.29c.19,0,.45-.04.77-.11v1.31c-.43.12-.84.17-1.25.17-.73,0-1.27-.22-1.64-.66s-.55-1.06-.55-1.87v-5.9h-1.73v-1.26h1.73v-2.3h1.63Z"/><path class="cls-1" d="m519.65,43.74c-.09-.19-.17-.52-.23-1-.76.79-1.66,1.18-2.71,1.18-.94,0-1.71-.26-2.31-.79-.6-.53-.9-1.2-.9-2.02,0-.99.38-1.76,1.13-2.31.75-.55,1.81-.82,3.18-.82h1.58v-.75c0-.57-.17-1.02-.51-1.36-.34-.34-.84-.5-1.5-.5-.58,0-1.07.15-1.46.44s-.59.65-.59,1.06h-1.63c0-.47.17-.93.5-1.38s.79-.79,1.37-1.05,1.21-.39,1.9-.39c1.1,0,1.95.27,2.58.82s.94,1.3.97,2.26v4.38c0,.87.11,1.57.33,2.08v.14h-1.71Zm-2.7-1.24c.51,0,.99-.13,1.45-.4s.79-.61.99-1.03v-1.95h-1.27c-1.99,0-2.99.58-2.99,1.75,0,.51.17.91.51,1.2s.78.43,1.31.43Z"/><path class="cls-1" d="m531.62,39.09c0,1.45-.33,2.62-1,3.5s-1.56,1.32-2.69,1.32c-1.2,0-2.13-.42-2.79-1.27l-.08,1.1h-1.49v-13.5h1.63v5.04c.66-.81,1.56-1.22,2.72-1.22s2.06.44,2.72,1.31c.66.87.99,2.07.99,3.59v.14Zm-1.63-.18c0-1.11-.21-1.96-.64-2.57s-1.04-.91-1.85-.91c-1.07,0-1.84.5-2.31,1.49v4.11c.5,1,1.27,1.49,2.33,1.49.78,0,1.39-.3,1.82-.91s.65-1.51.65-2.72Z"/><path class="cls-1" d="m535.44,43.74h-1.63v-13.5h1.63v13.5Z"/><path class="cls-1" d="m541.99,43.92c-1.29,0-2.34-.42-3.15-1.27s-1.21-1.98-1.21-3.4v-.3c0-.94.18-1.79.54-2.53.36-.74.86-1.32,1.51-1.74s1.35-.63,2.11-.63c1.24,0,2.2.41,2.88,1.22s1.03,1.98,1.03,3.5v.68h-6.44c.02.94.3,1.7.82,2.27.52.58,1.19.87,2,.87.57,0,1.06-.12,1.46-.35s.75-.54,1.05-.93l.99.77c-.8,1.22-1.99,1.84-3.59,1.84Zm-.2-8.53c-.66,0-1.21.24-1.65.72s-.72,1.15-.83,2.01h4.76v-.12c-.05-.83-.27-1.47-.67-1.92s-.94-.68-1.62-.68Z"/><path class="cls-1" d="m562.13,37.76c0,1.25-.21,2.35-.63,3.28-.42.94-1.02,1.65-1.79,2.14s-1.68.74-2.71.74-1.9-.25-2.68-.74-1.38-1.2-1.81-2.12c-.43-.92-.65-1.98-.66-3.19v-.92c0-1.23.21-2.32.64-3.26s1.03-1.67,1.82-2.17c.78-.5,1.68-.75,2.68-.75s1.93.25,2.71.74c.78.5,1.38,1.21,1.81,2.15.42.94.63,2.03.63,3.28v.81Zm-1.68-.83c0-1.52-.3-2.68-.91-3.49s-1.46-1.22-2.56-1.22-1.91.41-2.52,1.22-.93,1.94-.94,3.38v.94c0,1.47.31,2.63.93,3.47s1.47,1.26,2.55,1.26,1.93-.4,2.53-1.19.91-1.93.92-3.42v-.95Z"/><path class="cls-1" d="m572.44,39.09c0,1.45-.33,2.61-.99,3.5s-1.56,1.33-2.69,1.33-2.06-.37-2.72-1.1v4.58h-1.63v-13.17h1.49l.08,1.05c.66-.82,1.58-1.23,2.76-1.23s2.05.43,2.71,1.29,1,2.06,1,3.59v.15Zm-1.63-.18c0-1.07-.23-1.92-.69-2.54s-1.08-.93-1.88-.93c-.98,0-1.72.44-2.21,1.31v4.54c.49.87,1.23,1.3,2.23,1.3.78,0,1.4-.31,1.86-.93s.69-1.54.69-2.76Z"/><path class="cls-1" d="m578.45,43.92c-1.29,0-2.34-.42-3.15-1.27s-1.21-1.98-1.21-3.4v-.3c0-.94.18-1.79.54-2.53.36-.74.86-1.32,1.51-1.74s1.35-.63,2.11-.63c1.24,0,2.2.41,2.88,1.22s1.03,1.98,1.03,3.5v.68h-6.44c.02.94.3,1.7.82,2.27.52.58,1.19.87,2,.87.57,0,1.06-.12,1.46-.35s.75-.54,1.05-.93l.99.77c-.8,1.22-1.99,1.84-3.59,1.84Zm-.2-8.53c-.66,0-1.21.24-1.65.72s-.72,1.15-.83,2.01h4.76v-.12c-.05-.83-.27-1.47-.67-1.92s-.94-.68-1.62-.68Z"/><path class="cls-1" d="m588.64,35.69c-.25-.04-.51-.06-.8-.06-1.07,0-1.79.45-2.17,1.36v6.75h-1.63v-9.51h1.58l.03,1.1c.53-.85,1.29-1.27,2.27-1.27.32,0,.56.04.72.12v1.51Z"/><path class="cls-1" d="m595.65,43.74c-.09-.19-.17-.52-.23-1-.76.79-1.66,1.18-2.71,1.18-.94,0-1.71-.26-2.31-.79-.6-.53-.9-1.2-.9-2.02,0-.99.38-1.76,1.13-2.31.75-.55,1.81-.82,3.18-.82h1.58v-.75c0-.57-.17-1.02-.51-1.36-.34-.34-.84-.5-1.5-.5-.58,0-1.07.15-1.46.44s-.59.65-.59,1.06h-1.63c0-.47.17-.93.5-1.38s.79-.79,1.37-1.05,1.21-.39,1.9-.39c1.1,0,1.95.27,2.58.82s.94,1.3.97,2.26v4.38c0,.87.11,1.57.33,2.08v.14h-1.71Zm-2.7-1.24c.51,0,.99-.13,1.45-.4s.79-.61.99-1.03v-1.95h-1.27c-1.99,0-2.99.58-2.99,1.75,0,.51.17.91.51,1.2s.78.43,1.31.43Z"/><path class="cls-1" d="m601.78,31.93v2.3h1.78v1.26h-1.78v5.91c0,.38.08.67.24.86s.43.29.81.29c.19,0,.45-.04.77-.11v1.31c-.43.12-.84.17-1.25.17-.73,0-1.27-.22-1.64-.66s-.55-1.06-.55-1.87v-5.9h-1.73v-1.26h1.73v-2.3h1.63Z"/><path class="cls-1" d="m605.46,31.71c0-.26.08-.49.24-.67s.4-.27.72-.27.56.09.72.27.25.4.25.67-.08.48-.25.66-.4.26-.72.26-.56-.09-.72-.26-.24-.4-.24-.66Zm1.76,12.03h-1.63v-9.51h1.63v9.51Z"/><path class="cls-1" d="m609.39,38.9c0-.93.18-1.77.55-2.51.37-.74.88-1.32,1.53-1.72.65-.4,1.4-.61,2.24-.61,1.29,0,2.34.45,3.14,1.34.8.9,1.2,2.09,1.2,3.58v.11c0,.93-.18,1.76-.53,2.49-.36.74-.86,1.31-1.52,1.72-.66.41-1.42.62-2.27.62-1.29,0-2.33-.45-3.13-1.34-.8-.9-1.2-2.08-1.2-3.56v-.11Zm1.63.19c0,1.05.24,1.9.73,2.54s1.14.96,1.96.96,1.48-.32,1.97-.97c.49-.65.73-1.55.73-2.72,0-1.04-.25-1.89-.74-2.54-.5-.65-1.15-.97-1.97-.97s-1.45.32-1.94.96-.74,1.55-.74,2.74Z"/><path class="cls-1" d="m621.62,34.23l.05,1.2c.73-.91,1.68-1.37,2.85-1.37,2.01,0,3.02,1.13,3.04,3.4v6.28h-1.63v-6.29c0-.69-.16-1.19-.47-1.52-.31-.33-.79-.49-1.44-.49-.53,0-.99.14-1.39.42s-.71.65-.93,1.11v6.78h-1.63v-9.51h1.54Z"/><path class="cls-1" d="m236.02,216.02h1.78v1.33h-1.78v2.97h-1.63v-2.97h-5.83v-.96l5.73-8.87h1.73v8.5Zm-5.62,0h3.98v-6.28l-.19.35-3.79,5.92Z"/><path class="cls-1" d="m238.26,250.2l-5.3,11.88h-1.71l5.28-11.46h-6.93v-1.34h8.65v.91Z"/><path class="cls-1" d="m238.98,326.88h-8.38v-1.17l4.43-4.92c.66-.74,1.11-1.35,1.36-1.81s.37-.95.37-1.45c0-.67-.2-1.22-.61-1.64s-.94-.64-1.62-.64c-.81,0-1.44.23-1.89.69s-.67,1.1-.67,1.92h-1.63c0-1.18.38-2.13,1.14-2.86s1.77-1.09,3.05-1.09c1.19,0,2.13.31,2.82.94s1.04,1.45,1.04,2.49c0,1.26-.8,2.76-2.41,4.5l-3.43,3.72h6.42v1.33Z"/><path class="cls-1" d="m236.38,357.27v1.38h-.3c-1.27.02-2.27.4-3.02,1.12s-1.18,1.75-1.3,3.07c.67-.77,1.59-1.16,2.76-1.16s2,.39,2.67,1.18,1,1.8,1,3.04c0,1.32-.36,2.37-1.08,3.16s-1.68,1.19-2.89,1.19-2.22-.47-2.98-1.41-1.14-2.15-1.14-3.63v-.62c0-2.36.5-4.16,1.51-5.4s2.5-1.88,4.49-1.91h.29Zm-2.14,5.77c-.56,0-1.07.17-1.54.5s-.79.75-.98,1.26v.6c0,1.05.24,1.9.71,2.55s1.07.97,1.78.97,1.31-.27,1.73-.81.63-1.25.63-2.12-.21-1.59-.64-2.13-.99-.81-1.69-.81Z"/><path class="cls-1" d="m375.02,420.48h-1.63v-10.84l-3.28,1.2v-1.48l4.66-1.75h.25v12.86Z"/><path class="cls-1" d="m311.38,414.06l.65-6.38h6.56v1.5h-5.18l-.39,3.49c.63-.37,1.34-.55,2.14-.55,1.17,0,2.09.39,2.78,1.16s1.03,1.81,1.03,3.12-.36,2.36-1.07,3.12-1.71,1.14-2.98,1.14c-1.13,0-2.05-.31-2.77-.94s-1.12-1.49-1.22-2.6h1.54c.1.73.36,1.29.78,1.66s.98.56,1.67.56c.76,0,1.35-.26,1.78-.77s.65-1.23.65-2.14c0-.86-.23-1.54-.7-2.06s-1.08-.78-1.86-.78c-.71,0-1.27.16-1.67.47l-.43.35-1.3-.33Z"/><path class="cls-1" d="m381.76,182.06c0,.64-.17,1.21-.51,1.71s-.79.89-1.37,1.17c.67.29,1.2.71,1.59,1.26s.58,1.17.58,1.87c0,1.11-.37,1.99-1.12,2.65s-1.73.98-2.95.98-2.22-.33-2.96-.99-1.11-1.54-1.11-2.64c0-.69.19-1.32.57-1.87s.9-.98,1.57-1.27c-.57-.28-1.02-.67-1.34-1.17s-.49-1.06-.49-1.7c0-1.08.35-1.93,1.04-2.57s1.6-.95,2.73-.95,2.03.32,2.73.95,1.04,1.49,1.04,2.57Zm-1.33,5.97c0-.71-.23-1.3-.68-1.75-.45-.45-1.05-.68-1.78-.68s-1.32.22-1.76.67-.66,1.03-.66,1.76.21,1.3.65,1.71,1.03.62,1.8.62,1.36-.21,1.79-.63.65-.99.65-1.71Zm-2.44-8.15c-.64,0-1.16.2-1.55.59s-.59.93-.59,1.61.19,1.18.58,1.58.91.6,1.56.6,1.17-.2,1.56-.6.58-.93.58-1.58-.2-1.18-.61-1.59-.92-.62-1.54-.62Z"/><path class="cls-1" d="m416.68,270.73h1.22c.77-.01,1.37-.21,1.81-.61s.66-.92.66-1.59c0-1.5-.75-2.25-2.24-2.25-.7,0-1.26.2-1.68.6s-.63.93-.63,1.6h-1.63c0-1.01.37-1.86,1.11-2.53s1.68-1.01,2.83-1.01c1.21,0,2.15.32,2.84.96s1.03,1.53,1.03,2.66c0,.56-.18,1.1-.54,1.62s-.85.91-1.47,1.17c.7.22,1.25.59,1.63,1.11s.58,1.15.58,1.89c0,1.15-.38,2.06-1.12,2.73s-1.73,1.01-2.93,1.01-2.18-.33-2.93-.98-1.13-1.51-1.13-2.58h1.63c0,.67.22,1.21.66,1.62s1.03.61,1.77.61c.79,0,1.39-.21,1.8-.62s.62-1,.62-1.77-.23-1.32-.69-1.71-1.12-.6-1.98-.62h-1.22v-1.33Z"/><path class="cls-1" d="m114.48,185.44h-3.01v5.18h-1.7v-12.8h4.24c1.44,0,2.55.33,3.33.98s1.16,1.61,1.16,2.87c0,.8-.22,1.49-.65,2.08s-1.03,1.03-1.8,1.33l3.01,5.43v.11h-1.81l-2.78-5.18Zm-3.01-1.38h2.59c.84,0,1.5-.22,2-.65s.74-1.02.74-1.74c0-.79-.24-1.4-.71-1.82s-1.15-.64-2.04-.64h-2.58v4.86Z"/><path class="cls-1" d="m123.12,196.61h-.95v-6.32l-1.91.7v-.86l2.72-1.02h.15v7.5Z"/><path class="cls-1" d="m449.73,299.84c0,1.25-.21,2.35-.63,3.28-.42.94-1.02,1.65-1.79,2.14-.77.49-1.68.74-2.71.74s-1.9-.25-2.68-.74-1.38-1.2-1.81-2.12c-.43-.92-.65-1.98-.66-3.19v-.92c0-1.23.21-2.32.64-3.26s1.03-1.67,1.82-2.17c.78-.5,1.68-.75,2.68-.75s1.93.25,2.71.74c.78.5,1.38,1.21,1.81,2.15.42.94.63,2.03.63,3.28v.81Zm-1.68-.83c0-1.52-.3-2.68-.91-3.49s-1.46-1.22-2.56-1.22-1.91.41-2.52,1.22-.93,1.94-.95,3.38v.94c0,1.47.31,2.63.93,3.47s1.47,1.26,2.55,1.26,1.93-.4,2.53-1.19.91-1.93.92-3.42v-.95Z"/><path class="cls-1" d="m457.88,304.88c-.63.74-1.56,1.12-2.79,1.12-1.01,0-1.79-.29-2.32-.88-.53-.59-.8-1.46-.8-2.62v-6.19h1.63v6.14c0,1.44.59,2.16,1.76,2.16,1.24,0,2.07-.46,2.48-1.39v-6.92h1.63v9.51h-1.55l-.04-.94Z"/><path class="cls-1" d="m464.14,294.01v2.3h1.78v1.26h-1.78v5.91c0,.38.08.67.24.86s.43.29.81.29c.19,0,.45-.04.77-.11v1.31c-.43.12-.84.17-1.25.17-.73,0-1.27-.22-1.64-.66s-.55-1.06-.55-1.87v-5.9h-1.73v-1.26h1.73v-2.3h1.63Z"/><path class="cls-1" d="m475.84,301.17c0,1.45-.33,2.61-.99,3.5s-1.56,1.33-2.69,1.33-2.06-.37-2.72-1.1v4.58h-1.63v-13.17h1.49l.08,1.05c.66-.82,1.58-1.23,2.76-1.23s2.05.43,2.71,1.29,1,2.06,1,3.59v.15Zm-1.63-.18c0-1.07-.23-1.92-.69-2.54s-1.08-.93-1.88-.93c-.98,0-1.72.44-2.21,1.31v4.54c.49.87,1.23,1.3,2.23,1.3.78,0,1.4-.31,1.86-.93s.69-1.54.69-2.76Z"/><path class="cls-1" d="m483.78,304.88c-.63.74-1.56,1.12-2.79,1.12-1.01,0-1.79-.29-2.32-.88-.53-.59-.8-1.46-.8-2.62v-6.19h1.63v6.14c0,1.44.59,2.16,1.76,2.16,1.24,0,2.07-.46,2.48-1.39v-6.92h1.63v9.51h-1.55l-.04-.94Z"/><path class="cls-1" d="m490.04,294.01v2.3h1.78v1.26h-1.78v5.91c0,.38.08.67.24.86s.43.29.81.29c.19,0,.45-.04.77-.11v1.31c-.43.12-.84.17-1.25.17-.73,0-1.27-.22-1.64-.66s-.55-1.06-.55-1.87v-5.9h-1.73v-1.26h1.73v-2.3h1.63Z"/><path class="cls-1" d="m375.53,538.86c-.43.62-1.04,1.08-1.82,1.39-.78.31-1.68.46-2.71.46s-1.97-.24-2.78-.73c-.81-.49-1.43-1.18-1.88-2.09s-.67-1.95-.68-3.14v-1.12c0-1.93.45-3.42,1.35-4.48s2.16-1.59,3.79-1.59c1.34,0,2.41.34,3.23,1.02.81.68,1.31,1.65,1.49,2.91h-1.69c-.32-1.7-1.32-2.55-3.02-2.55-1.13,0-1.99.4-2.57,1.19-.58.79-.88,1.95-.88,3.45v1.05c0,1.44.33,2.58.98,3.43.66.85,1.54,1.27,2.66,1.27.63,0,1.19-.07,1.66-.21.47-.14.87-.38,1.18-.71v-2.87h-2.96v-1.38h4.64v4.69Z"/><path class="cls-1" d="m388.17,540.54h-1.7l-6.44-9.86v9.86h-1.7v-12.8h1.7l6.46,9.91v-9.91h1.68v12.8Z"/><path class="cls-1" d="m391.17,540.54v-12.8h3.61c1.11,0,2.1.25,2.95.74s1.52,1.19,1.98,2.1.7,1.95.71,3.13v.82c0,1.21-.23,2.26-.7,3.17s-1.13,1.61-2,2.09-1.87.74-3.02.75h-3.54Zm1.69-11.42v10.04h1.78c1.3,0,2.31-.4,3.04-1.21s1.09-1.96,1.09-3.46v-.75c0-1.45-.34-2.58-1.02-3.39-.68-.81-1.65-1.22-2.9-1.23h-1.97Z"/><path class="cls-1" d="m140.81,538.86c-.43.62-1.04,1.08-1.81,1.39-.78.31-1.68.46-2.71.46s-1.97-.24-2.78-.73c-.81-.49-1.43-1.18-1.88-2.09s-.67-1.95-.68-3.14v-1.12c0-1.93.45-3.42,1.35-4.48s2.16-1.59,3.79-1.59c1.34,0,2.41.34,3.23,1.02.81.68,1.31,1.65,1.49,2.91h-1.69c-.32-1.7-1.32-2.55-3.02-2.55-1.13,0-1.99.4-2.57,1.19-.58.79-.88,1.95-.88,3.45v1.05c0,1.44.33,2.58.98,3.43.66.85,1.54,1.27,2.66,1.27.63,0,1.19-.07,1.66-.21.47-.14.87-.38,1.18-.71v-2.87h-2.96v-1.38h4.64v4.69Z"/><path class="cls-1" d="m153.45,540.54h-1.7l-6.44-9.86v9.86h-1.7v-12.8h1.7l6.46,9.91v-9.91h1.68v12.8Z"/><path class="cls-1" d="m156.45,540.54v-12.8h3.61c1.11,0,2.1.25,2.95.74s1.52,1.19,1.98,2.1.7,1.95.71,3.13v.82c0,1.21-.23,2.26-.7,3.17s-1.13,1.61-2,2.09-1.87.74-3.02.75h-3.54Zm1.69-11.42v10.04h1.78c1.3,0,2.31-.4,3.04-1.21s1.09-1.96,1.09-3.46v-.75c0-1.45-.34-2.58-1.02-3.39-.68-.81-1.65-1.22-2.9-1.23h-1.97Z"/><path class="cls-1" d="m109.93,414.08c-.16,1.35-.66,2.4-1.5,3.13-.84.74-1.96,1.1-3.35,1.1-1.51,0-2.72-.54-3.63-1.63s-1.37-2.53-1.37-4.35v-1.23c0-1.19.21-2.24.64-3.14s1.03-1.59,1.81-2.08c.78-.48,1.68-.72,2.71-.72,1.36,0,2.45.38,3.27,1.14s1.3,1.81,1.43,3.15h-1.7c-.15-1.02-.46-1.76-.95-2.22-.49-.46-1.17-.69-2.05-.69-1.08,0-1.92.4-2.54,1.2s-.92,1.93-.92,3.4v1.24c0,1.39.29,2.5.87,3.32s1.39,1.23,2.43,1.23c.94,0,1.66-.21,2.16-.64.5-.42.83-1.16,1-2.22h1.7Z"/><path class="cls-1" d="m114.48,424.13h-.95v-6.32l-1.91.7v-.86l2.72-1.02h.15v7.5Z"/><path class="cls-1" d="m375.53,396.3c-.43.62-1.04,1.08-1.82,1.39-.78.31-1.68.46-2.71.46s-1.97-.24-2.78-.73c-.81-.49-1.43-1.18-1.88-2.09s-.67-1.95-.68-3.14v-1.12c0-1.93.45-3.42,1.35-4.48s2.16-1.59,3.79-1.59c1.34,0,2.41.34,3.23,1.02.81.68,1.31,1.65,1.49,2.91h-1.69c-.32-1.7-1.32-2.55-3.02-2.55-1.13,0-1.99.4-2.57,1.19-.58.79-.88,1.95-.88,3.45v1.05c0,1.44.33,2.58.98,3.43.66.85,1.54,1.27,2.66,1.27.63,0,1.19-.07,1.66-.21.47-.14.87-.38,1.18-.71v-2.87h-2.96v-1.38h4.64v4.69Z"/><path class="cls-1" d="m388.17,397.98h-1.7l-6.44-9.86v9.86h-1.7v-12.8h1.7l6.46,9.91v-9.91h1.68v12.8Z"/><path class="cls-1" d="m391.17,397.98v-12.8h3.61c1.11,0,2.1.25,2.95.74s1.52,1.19,1.98,2.1.7,1.95.71,3.13v.82c0,1.21-.23,2.26-.7,3.17s-1.13,1.61-2,2.09-1.87.74-3.02.75h-3.54Zm1.69-11.42v10.04h1.78c1.3,0,2.31-.4,3.04-1.21s1.09-1.96,1.09-3.46v-.75c0-1.45-.34-2.58-1.02-3.39-.68-.81-1.65-1.22-2.9-1.23h-1.97Z"/><path class="cls-1" d="m268.09,369.28h-4.11v11.42h-1.68v-11.42h-4.1v-1.38h9.9v1.38Z"/><path class="cls-1" d="m279.82,380.7h-1.7v-5.92h-6.45v5.92h-1.69v-12.8h1.69v5.5h6.45v-5.5h1.7v12.8Z"/><path class="cls-1" d="m287.51,375.52h-3.01v5.18h-1.7v-12.8h4.24c1.44,0,2.55.33,3.33.98s1.16,1.61,1.16,2.87c0,.8-.21,1.49-.65,2.08s-1.03,1.03-1.8,1.33l3.01,5.43v.11h-1.81l-2.78-5.18Zm-3.01-1.38h2.59c.84,0,1.5-.22,2-.65s.74-1.02.74-1.74c0-.79-.24-1.4-.71-1.82s-1.15-.64-2.04-.64h-2.58v4.86Z"/><path class="cls-1" d="m301.13,374.79h-5.55v4.54h6.44v1.38h-8.13v-12.8h8.04v1.38h-6.35v4.12h5.55v1.38Z"/><path class="cls-1" d="m307.9,375c-1.45-.42-2.5-.93-3.16-1.53-.66-.61-.99-1.35-.99-2.25,0-1.01.4-1.84,1.21-2.5.81-.66,1.85-.99,3.14-.99.88,0,1.66.17,2.35.51s1.22.81,1.6,1.41.57,1.25.57,1.96h-1.7c0-.78-.25-1.39-.74-1.83s-1.19-.67-2.08-.67c-.83,0-1.48.18-1.95.55-.47.37-.7.88-.7,1.53,0,.52.22.96.66,1.33s1.2.69,2.26.99c1.06.3,1.9.63,2.5.99.6.36,1.05.78,1.34,1.26s.43,1.05.43,1.7c0,1.04-.4,1.87-1.21,2.49-.81.62-1.89.94-3.24.94-.88,0-1.7-.17-2.46-.51-.76-.34-1.35-.8-1.76-1.38s-.62-1.25-.62-2h1.7c0,.77.29,1.38.86,1.83.57.45,1.33.67,2.29.67.89,0,1.57-.18,2.05-.54s.71-.86.71-1.49-.22-1.11-.66-1.46c-.44-.34-1.24-.68-2.39-1.01Z"/><path class="cls-1" d="m375.77,285.43c0,1.25-.21,2.35-.63,3.28-.42.94-1.02,1.65-1.79,2.14s-1.68.74-2.71.74-1.9-.25-2.68-.74-1.38-1.2-1.81-2.12c-.43-.92-.65-1.98-.66-3.19v-.92c0-1.23.21-2.32.64-3.26s1.03-1.67,1.82-2.17c.78-.5,1.68-.75,2.68-.75s1.93.25,2.71.74c.78.5,1.38,1.21,1.81,2.15.42.94.63,2.03.63,3.28v.81Zm-1.68-.83c0-1.52-.3-2.68-.91-3.49s-1.46-1.22-2.56-1.22-1.91.41-2.52,1.22-.93,1.94-.95,3.38v.94c0,1.47.31,2.63.93,3.47s1.47,1.26,2.55,1.26,1.93-.4,2.53-1.19.91-1.93.92-3.42v-.95Z"/><path class="cls-1" d="m387.31,278.62v8.7c0,1.21-.38,2.19-1.14,2.96s-1.77,1.2-3.06,1.29l-.45.02c-1.4,0-2.52-.38-3.35-1.13s-1.25-1.8-1.27-3.12v-8.72h1.67v8.67c0,.93.25,1.65.76,2.16s1.24.77,2.18.77,1.69-.25,2.19-.76.76-1.23.76-2.15v-8.67h1.7Z"/><path class="cls-1" d="m398.82,280h-4.11v11.42h-1.68v-11.42h-4.1v-1.38h9.9v1.38Z"/><path class="cls-1" d="m265.38,232.96h-3.01v5.18h-1.7v-12.8h4.24c1.44,0,2.55.33,3.33.98s1.16,1.61,1.16,2.87c0,.8-.22,1.49-.65,2.08-.43.59-1.03,1.03-1.8,1.33l3.01,5.43v.11h-1.81l-2.78-5.18Zm-3.01-1.38h2.59c.84,0,1.5-.22,2-.65s.74-1.02.74-1.74c0-.79-.24-1.4-.71-1.82s-1.15-.64-2.04-.64h-2.58v4.86Z"/><path class="cls-1" d="m279,232.23h-5.55v4.54h6.44v1.38h-8.13v-12.8h8.04v1.38h-6.35v4.12h5.55v1.38Z"/><path class="cls-1" d="m285.77,232.44c-1.45-.42-2.5-.93-3.16-1.53-.66-.61-.99-1.35-.99-2.25,0-1.01.4-1.84,1.21-2.5.81-.66,1.85-.99,3.14-.99.88,0,1.66.17,2.35.51s1.22.81,1.6,1.41.57,1.25.57,1.96h-1.7c0-.78-.25-1.39-.74-1.83s-1.19-.67-2.08-.67c-.83,0-1.48.18-1.95.55-.47.37-.7.88-.7,1.53,0,.52.22.96.66,1.33s1.2.69,2.26.99c1.06.3,1.9.63,2.5.99.6.36,1.05.78,1.34,1.26s.43,1.05.43,1.7c0,1.04-.4,1.87-1.21,2.49-.81.62-1.89.94-3.24.94-.88,0-1.7-.17-2.46-.51-.76-.34-1.35-.8-1.76-1.38s-.62-1.25-.62-2h1.7c0,.77.29,1.38.86,1.83.57.45,1.33.67,2.29.67.89,0,1.57-.18,2.05-.54s.71-.86.71-1.49-.22-1.11-.66-1.46c-.44-.34-1.24-.68-2.39-1.01Z"/><path class="cls-1" d="m299.91,232.23h-5.55v4.54h6.44v1.38h-8.13v-12.8h8.04v1.38h-6.35v4.12h5.55v1.38Z"/><path class="cls-1" d="m311.93,226.72h-4.11v11.42h-1.68v-11.42h-4.1v-1.38h9.9v1.38Z"/><path class="cls-1" d="m311.37,393.92c-.16,1.35-.66,2.4-1.5,3.13-.84.74-1.96,1.1-3.35,1.1-1.51,0-2.72-.54-3.63-1.63s-1.37-2.53-1.37-4.35v-1.23c0-1.19.21-2.24.64-3.14s1.03-1.59,1.81-2.08c.78-.48,1.68-.72,2.71-.72,1.36,0,2.45.38,3.27,1.14s1.3,1.81,1.43,3.15h-1.7c-.15-1.02-.46-1.76-.95-2.22-.49-.46-1.17-.69-2.05-.69-1.08,0-1.92.4-2.54,1.2s-.92,1.93-.92,3.4v1.24c0,1.39.29,2.5.87,3.32s1.39,1.23,2.43,1.23c.94,0,1.66-.21,2.16-.64.5-.42.83-1.16,1-2.22h1.7Z"/><path class="cls-1" d="m323.52,391.99c0,1.25-.21,2.35-.63,3.28-.42.94-1.02,1.65-1.79,2.14s-1.68.74-2.71.74-1.9-.25-2.68-.74c-.78-.5-1.38-1.2-1.81-2.12-.43-.92-.65-1.98-.66-3.19v-.92c0-1.23.21-2.32.64-3.26s1.03-1.67,1.82-2.17c.78-.5,1.68-.75,2.68-.75s1.93.25,2.71.74c.78.5,1.38,1.21,1.81,2.15.42.94.63,2.03.63,3.28v.81Zm-1.68-.83c0-1.52-.3-2.68-.91-3.49s-1.46-1.22-2.56-1.22-1.91.41-2.52,1.22-.93,1.94-.95,3.38v.94c0,1.47.31,2.63.93,3.47s1.47,1.26,2.55,1.26,1.93-.4,2.53-1.19.91-1.93.92-3.42v-.95Z"/><path class="cls-1" d="m335.88,397.98h-1.7l-6.44-9.86v9.86h-1.7v-12.8h1.7l6.46,9.91v-9.91h1.68v12.8Z"/><path class="cls-1" d="m347.47,386.56h-4.11v11.42h-1.68v-11.42h-4.1v-1.38h9.9v1.38Z"/><path class="cls-1" d="m268.09,333.28h-4.11v11.42h-1.68v-11.42h-4.1v-1.38h9.9v1.38Z"/><path class="cls-1" d="m274.68,339.52h-3.01v5.18h-1.7v-12.8h4.24c1.44,0,2.55.33,3.33.98s1.17,1.61,1.17,2.87c0,.8-.22,1.49-.65,2.08s-1.03,1.03-1.8,1.33l3.01,5.43v.11h-1.81l-2.78-5.18Zm-3.01-1.38h2.59c.84,0,1.5-.22,2-.65s.74-1.02.74-1.74c0-.79-.24-1.4-.71-1.82s-1.15-.64-2.04-.64h-2.58v4.86Z"/><path class="cls-1" d="m282.88,344.7h-1.69v-12.8h1.69v12.8Z"/><path class="cls-1" d="m295.41,343.02c-.43.62-1.04,1.08-1.82,1.39-.78.31-1.68.46-2.71.46s-1.97-.24-2.78-.73c-.81-.49-1.43-1.18-1.88-2.09s-.67-1.95-.68-3.14v-1.12c0-1.93.45-3.42,1.35-4.48s2.16-1.59,3.79-1.59c1.34,0,2.41.34,3.23,1.02.81.68,1.31,1.65,1.49,2.91h-1.69c-.32-1.7-1.32-2.55-3.02-2.55-1.13,0-1.99.4-2.57,1.19-.58.79-.88,1.95-.88,3.45v1.05c0,1.44.33,2.58.98,3.43.66.85,1.54,1.27,2.66,1.27.63,0,1.19-.07,1.66-.21.47-.14.87-.38,1.18-.71v-2.87h-2.96v-1.38h4.64v4.69Z"/><path class="cls-1" d="m259.25,275.58v-12.8h3.61c1.11,0,2.1.25,2.95.74s1.52,1.19,1.98,2.1.7,1.95.71,3.13v.82c0,1.21-.23,2.26-.7,3.17s-1.13,1.61-2,2.09-1.87.74-3.02.75h-3.54Zm1.69-11.42v10.04h1.78c1.3,0,2.31-.4,3.04-1.21s1.09-1.96,1.09-3.46v-.75c0-1.45-.34-2.58-1.02-3.39-.68-.81-1.65-1.22-2.9-1.23h-1.97Z"/><path class="cls-1" d="m272.86,275.58h-1.69v-12.8h1.69v12.8Z"/><path class="cls-1" d="m279.72,269.88c-1.45-.42-2.5-.93-3.16-1.53-.66-.61-.99-1.35-.99-2.25,0-1.01.4-1.84,1.21-2.5.81-.66,1.85-.99,3.14-.99.88,0,1.66.17,2.35.51s1.22.81,1.6,1.41.57,1.25.57,1.96h-1.7c0-.78-.25-1.39-.74-1.83s-1.19-.67-2.08-.67c-.83,0-1.48.18-1.95.55-.47.37-.7.88-.7,1.53,0,.52.22.96.66,1.33s1.2.69,2.26.99c1.06.3,1.9.63,2.5.99.6.36,1.05.78,1.34,1.26s.43,1.05.43,1.7c0,1.04-.4,1.87-1.21,2.49-.81.62-1.89.94-3.24.94-.88,0-1.7-.17-2.46-.51-.76-.34-1.35-.8-1.76-1.38s-.62-1.25-.62-2h1.7c0,.77.29,1.38.86,1.83.57.45,1.33.67,2.29.67.89,0,1.57-.18,2.05-.54s.71-.86.71-1.49-.22-1.11-.66-1.46c-.44-.34-1.24-.68-2.39-1.01Z"/><path class="cls-1" d="m296.04,271.52c-.16,1.35-.66,2.4-1.5,3.13-.84.74-1.96,1.1-3.35,1.1-1.51,0-2.72-.54-3.63-1.63s-1.37-2.53-1.37-4.35v-1.23c0-1.19.21-2.24.64-3.14s1.03-1.59,1.81-2.08c.78-.48,1.68-.72,2.71-.72,1.36,0,2.45.38,3.27,1.14s1.3,1.81,1.43,3.15h-1.7c-.15-1.02-.46-1.76-.95-2.22-.49-.46-1.17-.69-2.05-.69-1.08,0-1.92.4-2.54,1.2s-.92,1.93-.92,3.4v1.24c0,1.39.29,2.5.87,3.32s1.39,1.23,2.43,1.23c.94,0,1.66-.21,2.16-.64.5-.42.83-1.16,1-2.22h1.7Z"/><path class="cls-1" d="m308.17,275.58h-1.7v-5.92h-6.45v5.92h-1.69v-12.8h1.69v5.5h6.45v-5.5h1.7v12.8Z"/><path class="cls-1" d="m317.93,538.86c-.43.62-1.04,1.08-1.82,1.39-.78.31-1.68.46-2.71.46s-1.97-.24-2.78-.73c-.81-.49-1.43-1.18-1.88-2.09s-.67-1.95-.68-3.14v-1.12c0-1.93.45-3.42,1.35-4.48s2.16-1.59,3.79-1.59c1.34,0,2.41.34,3.23,1.02.81.68,1.31,1.65,1.49,2.91h-1.69c-.32-1.7-1.32-2.55-3.02-2.55-1.13,0-1.99.4-2.57,1.19-.58.79-.88,1.95-.88,3.45v1.05c0,1.44.33,2.58.98,3.43.66.85,1.54,1.27,2.66,1.27.63,0,1.19-.07,1.66-.21.47-.14.87-.38,1.18-.71v-2.87h-2.96v-1.38h4.64v4.69Z"/><path class="cls-1" d="m330.57,540.54h-1.7l-6.44-9.86v9.86h-1.7v-12.8h1.7l6.46,9.91v-9.91h1.68v12.8Z"/><path class="cls-1" d="m333.57,540.54v-12.8h3.61c1.11,0,2.1.25,2.95.74s1.52,1.19,1.98,2.1.7,1.95.71,3.13v.82c0,1.21-.23,2.26-.7,3.17s-1.13,1.61-2,2.09-1.87.74-3.02.75h-3.54Zm1.69-11.42v10.04h1.78c1.3,0,2.31-.4,3.04-1.21s1.09-1.96,1.09-3.46v-.75c0-1.45-.34-2.58-1.02-3.39-.68-.81-1.65-1.22-2.9-1.23h-1.97Z"/><path class="cls-1" d="m249.57,482.7c0,1.9-.33,3.32-.98,4.25s-1.67,1.39-3.05,1.39-2.38-.45-3.03-1.36-1-2.26-1.02-4.06v-2.17c0-1.88.33-3.28.98-4.19s1.67-1.37,3.06-1.37,2.39.44,3.04,1.32.98,2.24,1,4.08v2.11Zm-1.63-2.22c0-1.38-.19-2.38-.58-3.01s-1-.94-1.84-.94-1.44.31-1.82.94-.58,1.59-.59,2.89v2.6c0,1.38.2,2.4.6,3.06s1.01.99,1.82.99,1.4-.31,1.79-.93c.39-.62.59-1.6.61-2.94v-2.66Z"/><path class="cls-1" d="m251.85,487.31c0-.28.08-.52.25-.7.17-.19.42-.28.75-.28s.59.09.76.28.26.42.26.7-.09.5-.26.68-.43.27-.76.27-.58-.09-.75-.27c-.17-.18-.25-.41-.25-.68Z"/><path class="cls-1" d="m264.41,482.7c0,1.9-.33,3.32-.98,4.25s-1.67,1.39-3.05,1.39-2.38-.45-3.03-1.36-1-2.26-1.02-4.06v-2.17c0-1.88.33-3.28.98-4.19s1.67-1.37,3.06-1.37,2.39.44,3.04,1.32.98,2.24,1,4.08v2.11Zm-1.63-2.22c0-1.38-.19-2.38-.58-3.01s-1-.94-1.84-.94-1.44.31-1.82.94-.58,1.59-.59,2.89v2.6c0,1.38.2,2.4.6,3.06s1.01.99,1.82.99,1.4-.31,1.79-.93c.39-.62.59-1.6.61-2.94v-2.66Z"/><path class="cls-1" d="m271.84,488.16h-1.64v-10.84l-3.28,1.2v-1.48l4.66-1.75h.26v12.86Z"/><path class="cls-1" d="m282.98,478.65v5.56c0,.96.16,1.66.46,2.12.3.46.79.69,1.47.69,1.17,0,1.93-.45,2.29-1.34v-7.03h1.63v9.51h-1.47l-.08-1.01c-.54.79-1.32,1.19-2.31,1.19-.86,0-1.53-.21-2-.64v4.12h-1.63v-13.17h1.63Z"/><path class="cls-1" d="m298.73,482.51h-5.37v5.65h-1.69v-12.8h7.93v1.38h-6.24v4.39h5.37v1.38Z"/><path class="cls-1" d="m290.06,442.88c-.16,1.35-.66,2.4-1.5,3.13-.84.74-1.96,1.1-3.35,1.1-1.51,0-2.72-.54-3.63-1.63s-1.37-2.53-1.37-4.35v-1.23c0-1.19.21-2.24.64-3.14s1.03-1.59,1.81-2.08c.78-.48,1.68-.72,2.71-.72,1.36,0,2.45.38,3.27,1.14s1.3,1.81,1.43,3.15h-1.7c-.15-1.02-.46-1.76-.95-2.22-.49-.46-1.17-.69-2.05-.69-1.08,0-1.92.4-2.54,1.2s-.92,1.93-.92,3.4v1.24c0,1.39.29,2.5.87,3.32s1.39,1.23,2.43,1.23c.94,0,1.66-.21,2.16-.64.5-.42.83-1.16,1-2.22h1.7Z"/><path class="cls-1" d="m367.51,222.94l3.66-10.56h1.85l-4.75,12.8h-1.49l-4.74-12.8h1.84l3.64,10.56Z"/><path class="cls-1" d="m374.11,231.17v-7.46h2.11c.65,0,1.22.14,1.72.43s.88.7,1.16,1.22.41,1.14.41,1.82v.48c0,.7-.14,1.32-.41,1.85-.27.53-.66.94-1.16,1.22s-1.09.43-1.76.44h-2.07Zm.98-6.66v5.85h1.04c.76,0,1.35-.24,1.77-.71.42-.47.63-1.14.63-2.02v-.44c0-.85-.2-1.51-.6-1.98-.4-.47-.96-.71-1.69-.72h-1.15Z"/><path class="cls-1" d="m380.99,231.17v-7.46h2.11c.65,0,1.22.14,1.72.43.5.29.88.7,1.16,1.22s.41,1.14.41,1.82v.48c0,.7-.14,1.32-.41,1.85s-.66.94-1.16,1.22-1.09.43-1.76.44h-2.07Zm.98-6.66v5.85h1.04c.76,0,1.35-.24,1.77-.71.42-.47.63-1.14.63-2.02v-.44c0-.85-.2-1.51-.6-1.98-.4-.47-.96-.71-1.69-.72h-1.15Z"/><path class="cls-1" d="m381.91,61.66l3.66-10.56h1.85l-4.75,12.8h-1.49l-4.74-12.8h1.84l3.64,10.56Z"/><path class="cls-1" d="m388.51,69.89v-7.46h2.11c.65,0,1.22.14,1.72.43.5.29.88.7,1.16,1.22s.41,1.14.41,1.82v.48c0,.7-.14,1.32-.41,1.85s-.66.94-1.16,1.22-1.09.43-1.76.44h-2.07Zm.98-6.66v5.85h1.04c.76,0,1.35-.24,1.77-.71.42-.47.63-1.14.63-2.02v-.44c0-.85-.2-1.51-.6-1.98-.4-.47-.96-.71-1.69-.72h-1.15Z"/><path class="cls-1" d="m395.39,69.89v-7.46h2.11c.65,0,1.22.14,1.72.43s.88.7,1.16,1.22.41,1.14.41,1.82v.48c0,.7-.14,1.32-.41,1.85-.27.53-.66.94-1.16,1.22s-1.09.43-1.76.44h-2.07Zm.98-6.66v5.85h1.04c.76,0,1.35-.24,1.77-.71.42-.47.63-1.14.63-2.02v-.44c0-.85-.2-1.51-.6-1.98-.4-.47-.96-.71-1.69-.72h-1.15Z"/><path class="cls-1" d="m904.94,501.13v2.3h1.78v1.26h-1.78v5.91c0,.38.08.67.24.86s.43.29.81.29c.19,0,.45-.04.77-.11v1.31c-.43.12-.84.17-1.25.17-.73,0-1.27-.22-1.64-.66s-.55-1.06-.55-1.87v-5.9h-1.73v-1.26h1.73v-2.3h1.63Z"/><path class="cls-1" d="m741.62,548.51h-4.11v11.42h-1.68v-11.42h-4.1v-1.38h9.9v1.38Z"/><path class="cls-1" d="m748.63,565.92h-.99v-3.45h-3.76v3.45h-.98v-7.46h.98v3.21h3.76v-3.21h.99v7.46Z"/><path class="cls-1" d="m760.78,552.77h-7.33v-1.42h7.33v1.42Zm0,3.65h-7.33v-1.41h7.33v1.41Z"/><path class="cls-1" d="m772.86,559.93h-1.63v-10.84l-3.28,1.2v-1.48l4.66-1.75h.25v12.86Z"/><path class="cls-1" d="m777.82,559.07c0-.28.08-.52.25-.7s.42-.28.75-.28.59.09.76.28.26.42.26.7-.09.5-.26.68-.43.27-.76.27-.58-.09-.75-.27-.25-.41-.25-.68Z"/><path class="cls-1" d="m787.7,559.93h-1.63v-10.84l-3.28,1.2v-1.48l4.66-1.75h.25v12.86Z"/><path class="cls-1" d="m802.04,554.75h-3.01v5.18h-1.7v-12.8h4.24c1.44,0,2.55.33,3.33.98s1.17,1.61,1.17,2.87c0,.8-.22,1.49-.65,2.08s-1.03,1.03-1.8,1.33l3.01,5.43v.11h-1.81l-2.78-5.18Zm-3.01-1.38h2.59c.84,0,1.5-.22,2-.65s.74-1.02.74-1.74c0-.79-.24-1.4-.71-1.82s-1.15-.64-2.04-.64h-2.58v4.86Z"/><path class="cls-1" d="m810.67,565.92h-.95v-6.32l-1.91.7v-.86l2.72-1.02h.15v7.5Z"/><path class="cls-1" d="m826.33,555.87c-.16,1.35-.66,2.4-1.5,3.13-.84.74-1.96,1.1-3.35,1.1-1.51,0-2.72-.54-3.63-1.63s-1.37-2.53-1.37-4.35v-1.23c0-1.19.21-2.24.64-3.14s1.03-1.59,1.81-2.08c.78-.48,1.68-.72,2.71-.72,1.36,0,2.45.38,3.27,1.14s1.3,1.81,1.43,3.15h-1.7c-.15-1.02-.46-1.76-.95-2.22-.49-.46-1.17-.69-2.05-.69-1.08,0-1.92.4-2.54,1.2s-.92,1.93-.92,3.4v1.24c0,1.39.29,2.5.87,3.32s1.39,1.23,2.43,1.23c.94,0,1.66-.21,2.16-.64.5-.42.83-1.16,1-2.22h1.7Z"/><path class="cls-1" d="m830.88,565.92h-.95v-6.32l-1.91.7v-.86l2.72-1.02h.15v7.5Z"/><path class="cls-1" d="m618.29,249.42c-.43.62-1.04,1.08-1.81,1.39-.78.31-1.68.46-2.71.46s-1.97-.24-2.78-.73c-.81-.49-1.43-1.18-1.88-2.09s-.67-1.95-.68-3.14v-1.12c0-1.93.45-3.42,1.35-4.48s2.16-1.59,3.79-1.59c1.34,0,2.41.34,3.23,1.02.81.68,1.31,1.65,1.49,2.91h-1.69c-.32-1.7-1.32-2.55-3.02-2.55-1.13,0-1.99.4-2.57,1.19-.58.79-.88,1.95-.88,3.45v1.05c0,1.44.33,2.58.98,3.43.66.85,1.54,1.27,2.66,1.27.63,0,1.19-.07,1.66-.21.47-.14.87-.38,1.18-.71v-2.87h-2.96v-1.38h4.64v4.69Z"/><path class="cls-1" d="m630.93,251.1h-1.7l-6.44-9.86v9.86h-1.7v-12.8h1.7l6.46,9.91v-9.91h1.68v12.8Z"/><path class="cls-1" d="m633.93,251.1v-12.8h3.61c1.11,0,2.1.25,2.95.74s1.52,1.19,1.98,2.1.7,1.95.71,3.13v.82c0,1.21-.23,2.26-.7,3.17s-1.13,1.61-2,2.09-1.87.74-3.02.75h-3.54Zm1.69-11.42v10.04h1.78c1.3,0,2.31-.4,3.04-1.21s1.09-1.96,1.09-3.46v-.75c0-1.45-.34-2.58-1.02-3.39-.68-.81-1.65-1.22-2.9-1.23h-1.97Z"/><path class="cls-1" d="m618.29,479.58c-.43.62-1.04,1.08-1.81,1.39-.78.31-1.68.46-2.71.46s-1.97-.24-2.78-.73c-.81-.49-1.43-1.18-1.88-2.09s-.67-1.95-.68-3.14v-1.12c0-1.93.45-3.42,1.35-4.48s2.16-1.59,3.79-1.59c1.34,0,2.41.34,3.23,1.02.81.68,1.31,1.65,1.49,2.91h-1.69c-.32-1.7-1.32-2.55-3.02-2.55-1.13,0-1.99.4-2.57,1.19-.58.79-.88,1.95-.88,3.45v1.05c0,1.44.33,2.58.98,3.43.66.85,1.54,1.27,2.66,1.27.63,0,1.19-.07,1.66-.21.47-.14.87-.38,1.18-.71v-2.87h-2.96v-1.38h4.64v4.69Z"/><path class="cls-1" d="m630.93,481.26h-1.7l-6.44-9.86v9.86h-1.7v-12.8h1.7l6.46,9.91v-9.91h1.68v12.8Z"/><path class="cls-1" d="m633.93,481.26v-12.8h3.61c1.11,0,2.1.25,2.95.74s1.52,1.19,1.98,2.1.7,1.95.71,3.13v.82c0,1.21-.23,2.26-.7,3.17s-1.13,1.61-2,2.09-1.87.74-3.02.75h-3.54Zm1.69-11.42v10.04h1.78c1.3,0,2.31-.4,3.04-1.21s1.09-1.96,1.09-3.46v-.75c0-1.45-.34-2.58-1.02-3.39-.68-.81-1.65-1.22-2.9-1.23h-1.97Z"/><path class="cls-1" d="m613.16,162.46l3.66-10.56h1.85l-4.75,12.8h-1.49l-4.74-12.8h1.84l3.64,10.56Z"/><path class="cls-1" d="m619.75,170.69v-7.46h2.11c.65,0,1.22.14,1.72.43.5.29.88.7,1.16,1.22s.41,1.14.41,1.82v.48c0,.7-.14,1.32-.41,1.85-.27.53-.66.94-1.16,1.22s-1.09.43-1.76.44h-2.07Zm.98-6.66v5.85h1.04c.76,0,1.35-.24,1.77-.71.42-.47.63-1.14.63-2.02v-.44c0-.85-.2-1.51-.6-1.98-.4-.47-.96-.71-1.69-.72h-1.15Z"/><path class="cls-1" d="m626.63,170.69v-7.46h2.11c.65,0,1.22.14,1.72.43.5.29.88.7,1.16,1.22s.41,1.14.41,1.82v.48c0,.7-.14,1.32-.41,1.85-.27.53-.66.94-1.16,1.22s-1.09.43-1.76.44h-2.07Zm.98-6.66v5.85h1.04c.76,0,1.35-.24,1.77-.71.42-.47.63-1.14.63-2.02v-.44c0-.85-.2-1.51-.6-1.98-.4-.47-.96-.71-1.69-.72h-1.15Z"/><path class="cls-1" d="m613.16,392.86l3.66-10.56h1.85l-4.75,12.8h-1.49l-4.74-12.8h1.84l3.64,10.56Z"/><path class="cls-1" d="m619.75,401.1v-7.46h2.11c.65,0,1.22.14,1.72.43.5.29.88.7,1.16,1.22s.41,1.14.41,1.82v.48c0,.7-.14,1.32-.41,1.85-.27.53-.66.94-1.16,1.22s-1.09.43-1.76.44h-2.07Zm.98-6.66v5.85h1.04c.76,0,1.35-.24,1.77-.71.42-.47.63-1.14.63-2.02v-.44c0-.85-.2-1.51-.6-1.98-.4-.47-.96-.71-1.69-.72h-1.15Z"/><path class="cls-1" d="m626.63,401.1v-7.46h2.11c.65,0,1.22.14,1.72.43.5.29.88.7,1.16,1.22s.41,1.14.41,1.82v.48c0,.7-.14,1.32-.41,1.85-.27.53-.66.94-1.16,1.22s-1.09.43-1.76.44h-2.07Zm.98-6.66v5.85h1.04c.76,0,1.35-.24,1.77-.71.42-.47.63-1.14.63-2.02v-.44c0-.85-.2-1.51-.6-1.98-.4-.47-.96-.71-1.69-.72h-1.15Z"/><path class="cls-1" d="m714.51,127.36h-4.11v11.42h-1.68v-11.42h-4.1v-1.38h9.9v1.38Z"/><path class="cls-1" d="m720.09,130.73c-.25-.04-.51-.06-.8-.06-1.07,0-1.79.45-2.17,1.36v6.75h-1.63v-9.51h1.58l.03,1.1c.53-.85,1.29-1.27,2.27-1.27.32,0,.56.04.72.12v1.51Z"/><path class="cls-1" d="m721.59,126.75c0-.26.08-.49.24-.67s.4-.27.72-.27.56.09.72.27.25.4.25.67-.08.48-.25.66-.4.26-.72.26-.56-.09-.72-.26-.24-.4-.24-.66Zm1.76,12.03h-1.63v-9.51h1.63v9.51Z"/><path class="cls-1" d="m725.56,133.95c0-1.48.34-2.66,1.03-3.54s1.59-1.31,2.72-1.31,2.07.41,2.72,1.23l.08-1.05h1.49v9.28c0,1.23-.37,2.2-1.09,2.91-.73.71-1.71,1.06-2.94,1.06-.69,0-1.36-.15-2.01-.44s-1.16-.69-1.5-1.2l.84-.98c.7.86,1.55,1.29,2.56,1.29.79,0,1.41-.22,1.85-.67.44-.45.66-1.07.66-1.88v-.82c-.65.75-1.54,1.12-2.66,1.12s-2.01-.45-2.7-1.34-1.03-2.12-1.03-3.67Zm1.63.18c0,1.07.22,1.92.66,2.53.44.61,1.05.92,1.85.92,1.03,0,1.78-.47,2.26-1.4v-4.34c-.5-.91-1.25-1.36-2.24-1.36-.79,0-1.41.31-1.85.92s-.67,1.53-.67,2.73Z"/><path class="cls-1" d="m735.66,133.95c0-1.48.34-2.66,1.03-3.54s1.59-1.31,2.72-1.31,2.07.41,2.72,1.23l.08-1.05h1.49v9.28c0,1.23-.37,2.2-1.09,2.91-.73.71-1.71,1.06-2.94,1.06-.69,0-1.36-.15-2.01-.44s-1.16-.69-1.5-1.2l.84-.98c.7.86,1.55,1.29,2.56,1.29.79,0,1.41-.22,1.85-.67s.66-1.07.66-1.88v-.82c-.65.75-1.54,1.12-2.66,1.12s-2.01-.45-2.7-1.34c-.69-.9-1.03-2.12-1.03-3.67Zm1.63.18c0,1.07.22,1.92.66,2.53.44.61,1.05.92,1.85.92,1.03,0,1.78-.47,2.26-1.4v-4.34c-.5-.91-1.25-1.36-2.24-1.36-.79,0-1.41.31-1.85.92s-.67,1.53-.67,2.73Z"/><path class="cls-1" d="m750.09,138.96c-1.29,0-2.34-.42-3.15-1.27s-1.21-1.98-1.21-3.4v-.3c0-.94.18-1.79.54-2.53.36-.74.86-1.32,1.51-1.74s1.35-.63,2.11-.63c1.24,0,2.2.41,2.88,1.22s1.03,1.98,1.03,3.5v.68h-6.44c.02.94.3,1.7.82,2.27.52.58,1.19.87,2,.87.57,0,1.06-.12,1.46-.35s.75-.54,1.05-.93l.99.77c-.8,1.22-1.99,1.84-3.59,1.84Zm-.2-8.53c-.66,0-1.21.24-1.65.72s-.72,1.15-.83,2.01h4.76v-.12c-.05-.83-.27-1.47-.67-1.92s-.94-.68-1.62-.68Z"/><path class="cls-1" d="m760.28,130.73c-.25-.04-.51-.06-.8-.06-1.07,0-1.79.45-2.17,1.36v6.75h-1.63v-9.51h1.58l.03,1.1c.53-.85,1.29-1.27,2.27-1.27.32,0,.56.04.72.12v1.51Z"/><path class="cls-1" d="m892.01,427.99c0,1.25-.21,2.35-.63,3.28-.42.94-1.02,1.65-1.79,2.14s-1.68.74-2.71.74-1.9-.25-2.68-.74-1.38-1.2-1.81-2.12c-.43-.92-.65-1.98-.66-3.19v-.92c0-1.23.21-2.32.64-3.26s1.03-1.67,1.82-2.17c.78-.5,1.68-.75,2.68-.75s1.93.25,2.71.74c.78.5,1.38,1.21,1.81,2.15.42.94.63,2.03.63,3.28v.81Zm-1.68-.83c0-1.52-.3-2.68-.91-3.49s-1.46-1.22-2.56-1.22-1.91.41-2.52,1.22-.93,1.94-.95,3.38v.94c0,1.47.31,2.63.93,3.47s1.47,1.26,2.55,1.26,1.93-.4,2.53-1.19.91-1.93.92-3.42v-.95Z"/><path class="cls-1" d="m900.16,433.04c-.63.74-1.56,1.12-2.79,1.12-1.01,0-1.79-.29-2.32-.88-.53-.59-.8-1.46-.8-2.62v-6.19h1.63v6.14c0,1.44.59,2.16,1.76,2.16,1.24,0,2.07-.46,2.48-1.39v-6.92h1.63v9.51h-1.55l-.04-.94Z"/><path class="cls-1" d="m906.41,422.17v2.3h1.78v1.26h-1.78v5.91c0,.38.08.67.24.86s.43.29.81.29c.19,0,.45-.04.77-.11v1.31c-.43.12-.84.17-1.25.17-.73,0-1.27-.22-1.64-.66s-.55-1.06-.55-1.87v-5.9h-1.73v-1.26h1.73v-2.3h1.63Z"/><path class="cls-1" d="m918.12,429.33c0,1.45-.33,2.61-.99,3.5s-1.56,1.33-2.69,1.33-2.06-.37-2.72-1.1v4.58h-1.63v-13.17h1.49l.08,1.05c.66-.82,1.58-1.23,2.76-1.23s2.04.43,2.71,1.29c.66.86,1,2.06,1,3.59v.15Zm-1.63-.18c0-1.07-.23-1.92-.69-2.54s-1.08-.93-1.88-.93c-.98,0-1.72.44-2.21,1.31v4.54c.49.87,1.23,1.3,2.23,1.3.78,0,1.4-.31,1.86-.93.46-.62.69-1.54.69-2.76Z"/><path class="cls-1" d="m926.06,433.04c-.63.74-1.56,1.12-2.79,1.12-1.01,0-1.79-.29-2.32-.88-.53-.59-.8-1.46-.8-2.62v-6.19h1.63v6.14c0,1.44.59,2.16,1.76,2.16,1.24,0,2.07-.46,2.48-1.39v-6.92h1.63v9.51h-1.55l-.04-.94Z"/><path class="cls-1" d="m932.32,422.17v2.3h1.78v1.26h-1.78v5.91c0,.38.08.67.24.86s.43.29.81.29c.19,0,.45-.04.77-.11v1.31c-.43.12-.84.17-1.25.17-.73,0-1.27-.22-1.64-.66s-.55-1.06-.55-1.87v-5.9h-1.73v-1.26h1.73v-2.3h1.63Z"/><path class="cls-1" d="m944.94,431.74l3.66-10.56h1.85l-4.75,12.8h-1.49l-4.74-12.8h1.84l3.64,10.56Z"/><path class="cls-1" d="m951.06,429.14c0-.93.18-1.77.55-2.51.37-.74.88-1.32,1.53-1.72.65-.4,1.4-.61,2.24-.61,1.29,0,2.34.45,3.14,1.34.8.9,1.2,2.09,1.2,3.58v.11c0,.93-.18,1.76-.53,2.49-.36.74-.86,1.31-1.52,1.72-.66.41-1.42.62-2.27.62-1.29,0-2.33-.45-3.13-1.34-.8-.9-1.2-2.08-1.2-3.56v-.11Zm1.63.19c0,1.05.24,1.9.73,2.54s1.14.96,1.96.96,1.48-.32,1.97-.97c.49-.65.73-1.55.73-2.72,0-1.04-.25-1.89-.74-2.54-.5-.65-1.15-.97-1.97-.97s-1.45.32-1.94.96-.74,1.55-.74,2.74Z"/><path class="cls-1" d="m963.53,433.98h-1.63v-13.5h1.63v13.5Z"/><path class="cls-1" d="m968.33,422.17v2.3h1.78v1.26h-1.78v5.91c0,.38.08.67.24.86s.43.29.81.29c.19,0,.45-.04.77-.11v1.31c-.43.12-.84.17-1.25.17-.73,0-1.27-.22-1.64-.66s-.55-1.06-.55-1.87v-5.9h-1.73v-1.26h1.73v-2.3h1.63Z"/><path class="cls-1" d="m977.88,433.98c-.09-.19-.17-.52-.23-1-.76.79-1.66,1.18-2.71,1.18-.94,0-1.71-.26-2.31-.79-.6-.53-.9-1.2-.9-2.02,0-.99.38-1.76,1.13-2.31.75-.55,1.81-.82,3.18-.82h1.58v-.75c0-.57-.17-1.02-.51-1.36-.34-.34-.84-.5-1.5-.5-.58,0-1.07.15-1.46.44s-.59.65-.59,1.06h-1.63c0-.47.17-.93.5-1.38s.79-.79,1.37-1.05,1.21-.39,1.9-.39c1.1,0,1.95.27,2.58.82s.94,1.3.97,2.26v4.38c0,.87.11,1.57.33,2.08v.14h-1.71Zm-2.7-1.24c.51,0,.99-.13,1.45-.4s.79-.61.99-1.03v-1.95h-1.27c-1.99,0-2.99.58-2.99,1.75,0,.51.17.91.51,1.2s.78.43,1.31.43Z"/><path class="cls-1" d="m981.41,429.15c0-1.48.34-2.66,1.03-3.54s1.59-1.31,2.72-1.31,2.07.41,2.72,1.23l.08-1.05h1.49v9.28c0,1.23-.37,2.2-1.09,2.91-.73.71-1.71,1.06-2.94,1.06-.69,0-1.36-.15-2.01-.44s-1.16-.69-1.5-1.2l.84-.98c.7.86,1.55,1.29,2.56,1.29.79,0,1.41-.22,1.85-.67s.66-1.07.66-1.88v-.82c-.65.75-1.54,1.12-2.66,1.12s-2.01-.45-2.7-1.34c-.69-.9-1.03-2.12-1.03-3.67Zm1.63.18c0,1.07.22,1.92.66,2.53.44.61,1.05.92,1.85.92,1.03,0,1.78-.47,2.26-1.4v-4.34c-.5-.91-1.25-1.36-2.24-1.36-.79,0-1.41.31-1.85.92s-.67,1.53-.67,2.73Z"/><path class="cls-1" d="m995.84,434.16c-1.29,0-2.34-.42-3.15-1.27s-1.21-1.98-1.21-3.4v-.3c0-.94.18-1.79.54-2.53.36-.74.86-1.32,1.51-1.74s1.35-.63,2.11-.63c1.24,0,2.2.41,2.88,1.22s1.03,1.98,1.03,3.5v.68h-6.44c.02.94.3,1.7.82,2.27.52.58,1.19.87,2,.87.57,0,1.06-.12,1.46-.35s.75-.54,1.05-.93l.99.77c-.8,1.22-1.99,1.84-3.59,1.84Zm-.2-8.53c-.66,0-1.21.24-1.65.72s-.72,1.15-.83,2.01h4.76v-.12c-.05-.83-.27-1.47-.67-1.92s-.94-.68-1.62-.68Z"/><path class="cls-1" d="m891.51,314.72c-.16,1.35-.66,2.4-1.5,3.13-.84.74-1.96,1.1-3.35,1.1-1.51,0-2.72-.54-3.63-1.63s-1.37-2.53-1.37-4.35v-1.23c0-1.19.21-2.24.64-3.14s1.03-1.59,1.81-2.08c.78-.48,1.68-.72,2.71-.72,1.36,0,2.45.38,3.27,1.14s1.3,1.81,1.43,3.15h-1.7c-.15-1.02-.46-1.76-.95-2.22-.49-.46-1.17-.69-2.05-.69-1.08,0-1.92.4-2.54,1.2s-.92,1.93-.92,3.4v1.24c0,1.39.29,2.5.87,3.32s1.39,1.23,2.43,1.23c.94,0,1.66-.21,2.16-.64.5-.42.83-1.16,1-2.22h1.7Z"/><path class="cls-1" d="m899.43,318.78c-.09-.19-.17-.52-.23-1-.76.79-1.66,1.18-2.71,1.18-.94,0-1.71-.26-2.31-.79s-.9-1.2-.9-2.02c0-.99.38-1.76,1.13-2.31s1.81-.82,3.18-.82h1.58v-.75c0-.57-.17-1.02-.51-1.36-.34-.34-.84-.5-1.5-.5-.58,0-1.07.15-1.46.44s-.59.65-.59,1.06h-1.63c0-.47.17-.93.5-1.38s.79-.79,1.37-1.05,1.21-.39,1.9-.39c1.1,0,1.95.27,2.58.82s.94,1.3.97,2.26v4.38c0,.87.11,1.57.33,2.08v.14h-1.71Zm-2.7-1.24c.51,0,.99-.13,1.45-.4s.79-.61.99-1.03v-1.95h-1.27c-1.99,0-2.99.58-2.99,1.75,0,.51.17.91.51,1.2s.78.43,1.31.43Z"/><path class="cls-1" d="m911.39,314.13c0,1.45-.33,2.61-.99,3.5s-1.56,1.33-2.69,1.33-2.06-.37-2.72-1.1v4.58h-1.63v-13.17h1.49l.08,1.05c.66-.82,1.58-1.23,2.76-1.23s2.05.43,2.71,1.29,1,2.06,1,3.59v.15Zm-1.63-.18c0-1.07-.23-1.92-.69-2.54s-1.08-.93-1.88-.93c-.98,0-1.72.44-2.21,1.31v4.54c.49.87,1.23,1.3,2.23,1.3.78,0,1.4-.31,1.86-.93s.69-1.54.69-2.76Z"/><path class="cls-1" d="m919.32,318.78c-.09-.19-.17-.52-.23-1-.76.79-1.66,1.18-2.71,1.18-.94,0-1.71-.26-2.31-.79s-.9-1.2-.9-2.02c0-.99.38-1.76,1.13-2.31s1.81-.82,3.18-.82h1.58v-.75c0-.57-.17-1.02-.51-1.36-.34-.34-.84-.5-1.5-.5-.58,0-1.07.15-1.46.44s-.59.65-.59,1.06h-1.63c0-.47.17-.93.5-1.38s.79-.79,1.37-1.05,1.21-.39,1.9-.39c1.1,0,1.95.27,2.58.82s.94,1.3.97,2.26v4.38c0,.87.11,1.57.33,2.08v.14h-1.71Zm-2.7-1.24c.51,0,.99-.13,1.45-.4s.79-.61.99-1.03v-1.95h-1.27c-1.99,0-2.99.58-2.99,1.75,0,.51.17.91.51,1.2s.78.43,1.31.43Z"/><path class="cls-1" d="m927.06,317.63c.58,0,1.09-.18,1.52-.53s.67-.79.72-1.32h1.54c-.03.54-.22,1.06-.56,1.56s-.81.88-1.38,1.18c-.58.29-1.19.44-1.83.44-1.29,0-2.33-.43-3.09-1.3-.76-.86-1.15-2.05-1.15-3.55v-.27c0-.93.17-1.75.51-2.47s.83-1.28,1.46-1.68c.63-.4,1.39-.6,2.25-.6,1.07,0,1.95.32,2.66.96.71.64,1.08,1.47,1.13,2.49h-1.54c-.05-.62-.28-1.12-.7-1.52-.42-.4-.94-.59-1.55-.59-.83,0-1.47.3-1.92.89-.45.59-.68,1.45-.68,2.58v.31c0,1.1.23,1.94.68,2.53s1.1.89,1.93.89Z"/><path class="cls-1" d="m932.67,306.75c0-.26.08-.49.24-.67s.4-.27.72-.27.56.09.72.27.25.4.25.67-.08.48-.25.66-.4.26-.72.26-.56-.09-.72-.26-.24-.4-.24-.66Zm1.76,12.03h-1.63v-9.51h1.63v9.51Z"/><path class="cls-1" d="m939.24,306.97v2.3h1.78v1.26h-1.78v5.91c0,.38.08.67.24.86s.43.29.81.29c.19,0,.45-.04.77-.11v1.31c-.43.12-.84.17-1.25.17-.73,0-1.27-.22-1.64-.66s-.55-1.06-.55-1.87v-5.9h-1.73v-1.26h1.73v-2.3h1.63Z"/><path class="cls-1" d="m942.31,313.94c0-.93.18-1.77.55-2.51.37-.74.88-1.32,1.53-1.72.65-.4,1.4-.61,2.24-.61,1.29,0,2.34.45,3.14,1.34.8.9,1.2,2.09,1.2,3.58v.11c0,.93-.18,1.76-.53,2.49-.36.74-.86,1.31-1.52,1.72-.66.41-1.42.62-2.27.62-1.29,0-2.33-.45-3.13-1.34-.8-.9-1.2-2.08-1.2-3.56v-.11Zm1.63.19c0,1.05.24,1.9.73,2.54s1.14.96,1.96.96,1.48-.32,1.97-.97c.49-.65.73-1.55.73-2.72,0-1.04-.25-1.89-.74-2.54-.5-.65-1.15-.97-1.97-.97s-1.45.32-1.94.96-.74,1.55-.74,2.74Z"/><path class="cls-1" d="m957.6,310.73c-.25-.04-.51-.06-.8-.06-1.07,0-1.79.45-2.17,1.36v6.75h-1.63v-9.51h1.58l.03,1.1c.53-.85,1.29-1.27,2.27-1.27.32,0,.56.04.72.12v1.51Z"/><path class="cls-1" d="m968.04,316.54l3.66-10.56h1.85l-4.75,12.8h-1.49l-4.74-12.8h1.84l3.64,10.56Z"/><path class="cls-1" d="m974.17,313.94c0-.93.18-1.77.55-2.51.37-.74.88-1.32,1.53-1.72.65-.4,1.4-.61,2.24-.61,1.29,0,2.34.45,3.14,1.34.8.9,1.2,2.09,1.2,3.58v.11c0,.93-.18,1.76-.53,2.49-.36.74-.86,1.31-1.52,1.72-.66.41-1.42.62-2.27.62-1.29,0-2.33-.45-3.13-1.34-.8-.9-1.2-2.08-1.2-3.56v-.11Zm1.63.19c0,1.05.24,1.9.73,2.54s1.14.96,1.96.96,1.48-.32,1.97-.97c.49-.65.73-1.55.73-2.72,0-1.04-.25-1.89-.74-2.54-.5-.65-1.15-.97-1.97-.97s-1.45.32-1.94.96-.74,1.55-.74,2.74Z"/><path class="cls-1" d="m986.63,318.78h-1.63v-13.5h1.63v13.5Z"/><path class="cls-1" d="m991.44,306.97v2.3h1.78v1.26h-1.78v5.91c0,.38.08.67.24.86s.43.29.81.29c.19,0,.45-.04.77-.11v1.31c-.43.12-.84.17-1.25.17-.73,0-1.27-.22-1.64-.66s-.55-1.06-.55-1.87v-5.9h-1.73v-1.26h1.73v-2.3h1.63Z"/><path class="cls-1" d="m1000.98,318.78c-.09-.19-.17-.52-.23-1-.76.79-1.66,1.18-2.71,1.18-.94,0-1.71-.26-2.31-.79-.6-.53-.9-1.2-.9-2.02,0-.99.38-1.76,1.13-2.31.75-.55,1.81-.82,3.18-.82h1.58v-.75c0-.57-.17-1.02-.51-1.36-.34-.34-.84-.5-1.5-.5-.58,0-1.07.15-1.46.44s-.59.65-.59,1.06h-1.63c0-.47.17-.93.5-1.38s.79-.79,1.37-1.05,1.21-.39,1.9-.39c1.1,0,1.95.27,2.58.82s.94,1.3.97,2.26v4.38c0,.87.11,1.57.33,2.08v.14h-1.71Zm-2.7-1.24c.51,0,.99-.13,1.45-.4s.79-.61.99-1.03v-1.95h-1.27c-1.99,0-2.99.58-2.99,1.75,0,.51.17.91.51,1.2s.78.43,1.31.43Z"/><path class="cls-1" d="m1004.52,313.95c0-1.48.34-2.66,1.03-3.54s1.59-1.31,2.72-1.31,2.07.41,2.72,1.23l.08-1.05h1.49v9.28c0,1.23-.37,2.2-1.09,2.91-.73.71-1.71,1.06-2.94,1.06-.69,0-1.36-.15-2.01-.44s-1.16-.69-1.5-1.2l.84-.98c.7.86,1.55,1.29,2.56,1.29.79,0,1.41-.22,1.85-.67s.66-1.07.66-1.88v-.82c-.65.75-1.54,1.12-2.66,1.12s-2.01-.45-2.7-1.34c-.69-.9-1.03-2.12-1.03-3.67Zm1.63.18c0,1.07.22,1.92.66,2.53.44.61,1.05.92,1.85.92,1.03,0,1.78-.47,2.26-1.4v-4.34c-.5-.91-1.25-1.36-2.24-1.36-.79,0-1.41.31-1.85.92s-.67,1.53-.67,2.73Z"/><path class="cls-1" d="m1018.95,318.96c-1.29,0-2.34-.42-3.15-1.27s-1.21-1.98-1.21-3.4v-.3c0-.94.18-1.79.54-2.53.36-.74.86-1.32,1.51-1.74s1.35-.63,2.11-.63c1.24,0,2.2.41,2.88,1.22s1.03,1.98,1.03,3.5v.68h-6.44c.02.94.3,1.7.82,2.27.52.58,1.19.87,2,.87.57,0,1.06-.12,1.46-.35s.75-.54,1.05-.93l.99.77c-.8,1.22-1.99,1.84-3.59,1.84Zm-.2-8.53c-.66,0-1.21.24-1.65.72s-.72,1.15-.83,2.01h4.76v-.12c-.05-.83-.27-1.47-.67-1.92s-.94-.68-1.62-.68Z"/><path class="cls-1" d="m883.45,203.58h-1.69v-12.8h1.69v12.8Z"/><path class="cls-1" d="m887.82,194.07l.05,1.2c.73-.91,1.68-1.37,2.85-1.37,2.01,0,3.02,1.13,3.04,3.4v6.28h-1.63v-6.29c0-.69-.16-1.19-.47-1.52s-.79-.49-1.44-.49c-.53,0-.99.14-1.39.42s-.71.65-.93,1.11v6.78h-1.63v-9.51h1.54Z"/><path class="cls-1" d="m904.25,198.93c0,1.45-.33,2.61-.99,3.5s-1.56,1.33-2.69,1.33-2.06-.37-2.72-1.1v4.58h-1.63v-13.17h1.49l.08,1.05c.66-.82,1.58-1.23,2.76-1.23s2.05.43,2.71,1.29,1,2.06,1,3.59v.15Zm-1.63-.18c0-1.07-.23-1.92-.69-2.54s-1.08-.93-1.88-.93c-.98,0-1.72.44-2.21,1.31v4.54c.49.87,1.23,1.3,2.23,1.3.78,0,1.4-.31,1.86-.93s.69-1.54.69-2.76Z"/><path class="cls-1" d="m912.18,202.64c-.63.74-1.56,1.12-2.79,1.12-1.01,0-1.79-.29-2.32-.88-.53-.59-.8-1.46-.8-2.62v-6.19h1.63v6.14c0,1.44.59,2.16,1.76,2.16,1.24,0,2.07-.46,2.48-1.39v-6.92h1.63v9.51h-1.55l-.04-.94Z"/><path class="cls-1" d="m918.44,191.77v2.3h1.78v1.26h-1.78v5.91c0,.38.08.67.24.86s.43.29.81.29c.19,0,.45-.04.77-.11v1.31c-.43.12-.84.17-1.25.17-.73,0-1.27-.22-1.64-.66s-.55-1.06-.55-1.87v-5.9h-1.73v-1.26h1.73v-2.3h1.63Z"/><path class="cls-1" d="m931.06,201.34l3.66-10.56h1.85l-4.75,12.8h-1.49l-4.74-12.8h1.84l3.64,10.56Z"/><path class="cls-1" d="m937.19,198.74c0-.93.18-1.77.55-2.51.37-.74.88-1.32,1.53-1.72.65-.4,1.4-.61,2.24-.61,1.29,0,2.34.45,3.14,1.34.8.9,1.2,2.09,1.2,3.58v.11c0,.93-.18,1.76-.53,2.49-.36.74-.86,1.31-1.52,1.72-.66.41-1.42.62-2.27.62-1.29,0-2.33-.45-3.13-1.34-.8-.9-1.2-2.08-1.2-3.56v-.11Zm1.63.19c0,1.05.24,1.9.73,2.54s1.14.96,1.96.96,1.48-.32,1.97-.97c.49-.65.73-1.55.73-2.72,0-1.04-.25-1.89-.74-2.54-.5-.65-1.15-.97-1.97-.97s-1.45.32-1.94.96-.74,1.55-.74,2.74Z"/><path class="cls-1" d="m949.65,203.58h-1.63v-13.5h1.63v13.5Z"/><path class="cls-1" d="m954.46,191.77v2.3h1.78v1.26h-1.78v5.91c0,.38.08.67.24.86s.43.29.81.29c.19,0,.45-.04.77-.11v1.31c-.43.12-.84.17-1.25.17-.73,0-1.27-.22-1.64-.66s-.55-1.06-.55-1.87v-5.9h-1.73v-1.26h1.73v-2.3h1.63Z"/><path class="cls-1" d="m964,203.58c-.09-.19-.17-.52-.23-1-.76.79-1.66,1.18-2.71,1.18-.94,0-1.71-.26-2.31-.79-.6-.53-.9-1.2-.9-2.02,0-.99.38-1.76,1.13-2.31.75-.55,1.81-.82,3.18-.82h1.58v-.75c0-.57-.17-1.02-.51-1.36-.34-.34-.84-.5-1.5-.5-.58,0-1.07.15-1.46.44s-.59.65-.59,1.06h-1.63c0-.47.17-.93.5-1.38s.79-.79,1.37-1.05,1.21-.39,1.9-.39c1.1,0,1.95.27,2.58.82s.94,1.3.97,2.26v4.38c0,.87.11,1.57.33,2.08v.14h-1.71Zm-2.7-1.24c.51,0,.99-.13,1.45-.4s.79-.61.99-1.03v-1.95h-1.27c-1.99,0-2.99.58-2.99,1.75,0,.51.17.91.51,1.2s.78.43,1.31.43Z"/><path class="cls-1" d="m967.54,198.75c0-1.48.34-2.66,1.03-3.54s1.59-1.31,2.72-1.31,2.07.41,2.72,1.23l.08-1.05h1.49v9.28c0,1.23-.37,2.2-1.09,2.91-.73.71-1.71,1.06-2.94,1.06-.69,0-1.36-.15-2.01-.44s-1.16-.69-1.5-1.2l.84-.98c.7.86,1.55,1.29,2.56,1.29.79,0,1.41-.22,1.85-.67s.66-1.07.66-1.88v-.82c-.65.75-1.54,1.12-2.66,1.12s-2.01-.45-2.7-1.34c-.69-.9-1.03-2.12-1.03-3.67Zm1.63.18c0,1.07.22,1.92.66,2.53.44.61,1.05.92,1.85.92,1.03,0,1.78-.47,2.26-1.4v-4.34c-.5-.91-1.25-1.36-2.24-1.36-.79,0-1.41.31-1.85.92s-.67,1.53-.67,2.73Z"/><path class="cls-1" d="m981.97,203.76c-1.29,0-2.34-.42-3.15-1.27s-1.21-1.98-1.21-3.4v-.3c0-.94.18-1.79.54-2.53.36-.74.86-1.32,1.51-1.74s1.35-.63,2.11-.63c1.24,0,2.2.41,2.88,1.22s1.03,1.98,1.03,3.5v.68h-6.44c.02.94.3,1.7.82,2.27.52.58,1.19.87,2,.87.57,0,1.06-.12,1.46-.35s.75-.54,1.05-.93l.99.77c-.8,1.22-1.99,1.84-3.59,1.84Zm-.2-8.53c-.66,0-1.21.24-1.65.72s-.72,1.15-.83,2.01h4.76v-.12c-.05-.83-.27-1.47-.67-1.92s-.94-.68-1.62-.68Z"/><path class="cls-1" d="m618.29,364.62c-.43.62-1.04,1.08-1.81,1.39-.78.31-1.68.46-2.71.46s-1.97-.24-2.78-.73c-.81-.49-1.43-1.18-1.88-2.09s-.67-1.95-.68-3.14v-1.12c0-1.93.45-3.42,1.35-4.48s2.16-1.59,3.79-1.59c1.34,0,2.41.34,3.23,1.02.81.68,1.31,1.65,1.49,2.91h-1.69c-.32-1.7-1.32-2.55-3.02-2.55-1.13,0-1.99.4-2.57,1.19-.58.79-.88,1.95-.88,3.45v1.05c0,1.44.33,2.58.98,3.43.66.85,1.54,1.27,2.66,1.27.63,0,1.19-.07,1.66-.21.47-.14.87-.38,1.18-.71v-2.87h-2.96v-1.38h4.64v4.69Z"/><path class="cls-1" d="m630.93,366.3h-1.7l-6.44-9.86v9.86h-1.7v-12.8h1.7l6.46,9.91v-9.91h1.68v12.8Z"/><path class="cls-1" d="m633.93,366.3v-12.8h3.61c1.11,0,2.1.25,2.95.74s1.52,1.19,1.98,2.1.7,1.95.71,3.13v.82c0,1.21-.23,2.26-.7,3.17s-1.13,1.61-2,2.09-1.87.74-3.02.75h-3.54Zm1.69-11.42v10.04h1.78c1.3,0,2.31-.4,3.04-1.21s1.09-1.96,1.09-3.46v-.75c0-1.45-.34-2.58-1.02-3.39-.68-.81-1.65-1.22-2.9-1.23h-1.97Z"/><path class="cls-1" d="m614.6,277.66l3.66-10.56h1.85l-4.75,12.8h-1.49l-4.74-12.8h1.84l3.64,10.56Z"/><path class="cls-1" d="m621.19,285.89v-7.46h2.11c.65,0,1.22.14,1.72.43.5.29.88.7,1.16,1.22s.41,1.14.41,1.82v.48c0,.7-.14,1.32-.41,1.85-.27.53-.66.94-1.16,1.22s-1.09.43-1.76.44h-2.07Zm.98-6.66v5.85h1.04c.76,0,1.35-.24,1.77-.71.42-.47.63-1.14.63-2.02v-.44c0-.85-.2-1.51-.6-1.98-.4-.47-.96-.71-1.69-.72h-1.15Z"/><path class="cls-1" d="m628.07,285.89v-7.46h2.11c.65,0,1.22.14,1.72.43.5.29.88.7,1.16,1.22s.41,1.14.41,1.82v.48c0,.7-.14,1.32-.41,1.85-.27.53-.66.94-1.16,1.22s-1.09.43-1.76.44h-2.07Zm.98-6.66v5.85h1.04c.76,0,1.35-.24,1.77-.71.42-.47.63-1.14.63-2.02v-.44c0-.85-.2-1.51-.6-1.98-.4-.47-.96-.71-1.69-.72h-1.15Z"/><path class="cls-1" d="m682.04,210.78h-1.63v-10.84l-3.28,1.2v-1.48l4.66-1.75h.25v12.86Z"/><path class="cls-1" d="m687.29,211.88h-1.4l5.34-13.9h1.39l-5.33,13.9Z"/><path class="cls-1" d="m696.58,203.59h1.22c.77-.01,1.37-.21,1.81-.61s.66-.92.66-1.59c0-1.5-.75-2.25-2.24-2.25-.7,0-1.26.2-1.68.6-.42.4-.63.93-.63,1.6h-1.63c0-1.01.37-1.86,1.11-2.53.74-.67,1.68-1.01,2.83-1.01,1.21,0,2.15.32,2.84.96s1.03,1.53,1.03,2.66c0,.56-.18,1.1-.54,1.62s-.85.91-1.47,1.17c.7.22,1.25.59,1.63,1.11s.58,1.15.58,1.89c0,1.15-.38,2.06-1.12,2.73s-1.73,1.01-2.93,1.01-2.18-.33-2.93-.98-1.13-1.51-1.13-2.58h1.63c0,.67.22,1.21.66,1.62s1.03.61,1.77.61c.79,0,1.39-.21,1.8-.62s.62-1,.62-1.77-.23-1.32-.69-1.71-1.12-.6-1.98-.62h-1.22v-1.33Z"/><path class="cls-1" d="m713.44,208.54l3.66-10.56h1.85l-4.75,12.8h-1.49l-4.74-12.8h1.84l3.64,10.56Z"/><path class="cls-1" d="m720.04,216.77v-7.46h2.11c.65,0,1.22.14,1.72.43.5.29.88.7,1.16,1.22s.41,1.14.41,1.82v.48c0,.7-.14,1.32-.41,1.85-.27.53-.66.94-1.16,1.22s-1.09.43-1.76.44h-2.07Zm.98-6.66v5.85h1.04c.76,0,1.35-.24,1.77-.71.42-.47.63-1.14.63-2.02v-.44c0-.85-.2-1.51-.6-1.98-.4-.47-.96-.71-1.69-.72h-1.15Z"/><path class="cls-1" d="m726.92,216.77v-7.46h2.11c.65,0,1.22.14,1.72.43.5.29.88.7,1.16,1.22s.41,1.14.41,1.82v.48c0,.7-.14,1.32-.41,1.85-.27.53-.66.94-1.16,1.22s-1.09.43-1.76.44h-2.07Zm.98-6.66v5.85h1.04c.76,0,1.35-.24,1.77-.71.42-.47.63-1.14.63-2.02v-.44c0-.85-.2-1.51-.6-1.98-.4-.47-.96-.71-1.69-.72h-1.15Z"/><path class="cls-1" d="m686.52,320.22h-8.38v-1.17l4.43-4.92c.66-.74,1.11-1.35,1.36-1.82.25-.46.37-.95.37-1.45,0-.67-.2-1.22-.61-1.64s-.94-.64-1.62-.64c-.81,0-1.44.23-1.89.69-.45.46-.67,1.1-.67,1.92h-1.63c0-1.18.38-2.13,1.14-2.86s1.77-1.09,3.05-1.09c1.19,0,2.13.31,2.82.94.69.62,1.04,1.46,1.04,2.49,0,1.26-.8,2.76-2.41,4.5l-3.43,3.72h6.42v1.33Z"/><path class="cls-1" d="m688.73,321.32h-1.4l5.34-13.9h1.39l-5.33,13.9Z"/><path class="cls-1" d="m698.02,313.03h1.22c.77-.01,1.37-.21,1.81-.61s.66-.92.66-1.59c0-1.5-.75-2.25-2.24-2.25-.7,0-1.26.2-1.68.6-.42.4-.63.93-.63,1.6h-1.63c0-1.01.37-1.85,1.11-2.53.74-.67,1.68-1.01,2.83-1.01,1.21,0,2.15.32,2.84.96s1.03,1.53,1.03,2.66c0,.56-.18,1.1-.54,1.62s-.85.91-1.47,1.17c.7.22,1.25.59,1.63,1.11s.58,1.15.58,1.89c0,1.15-.38,2.06-1.12,2.73s-1.73,1.01-2.93,1.01-2.18-.33-2.93-.98-1.13-1.51-1.13-2.58h1.63c0,.67.22,1.21.66,1.62s1.03.61,1.77.61c.79,0,1.39-.21,1.8-.62s.62-1,.62-1.77-.23-1.32-.69-1.71-1.12-.6-1.98-.62h-1.22v-1.33Z"/><path class="cls-1" d="m714.88,317.98l3.66-10.56h1.85l-4.75,12.8h-1.49l-4.74-12.8h1.84l3.64,10.56Z"/><path class="cls-1" d="m721.48,326.21v-7.46h2.11c.65,0,1.22.14,1.72.43.5.29.88.7,1.16,1.22s.41,1.14.41,1.82v.48c0,.7-.14,1.32-.41,1.85-.27.53-.66.94-1.16,1.22s-1.09.43-1.76.44h-2.07Zm.98-6.66v5.85h1.04c.76,0,1.35-.24,1.77-.71.42-.47.63-1.14.63-2.02v-.44c0-.85-.2-1.51-.6-1.98-.4-.47-.96-.71-1.69-.72h-1.15Z"/><path class="cls-1" d="m728.36,326.21v-7.46h2.11c.65,0,1.22.14,1.72.43.5.29.88.7,1.16,1.22s.41,1.14.41,1.82v.48c0,.7-.14,1.32-.41,1.85-.27.53-.66.94-1.16,1.22s-1.09.43-1.76.44h-2.07Zm.98-6.66v5.85h1.04c.76,0,1.35-.24,1.77-.71.42-.47.63-1.14.63-2.02v-.44c0-.85-.2-1.51-.6-1.98-.4-.47-.96-.71-1.69-.72h-1.15Z"/><path class="cls-1" d="m780.3,406.02h-4.11v11.42h-1.68v-11.42h-4.1v-1.38h9.9v1.38Z"/><path class="cls-1" d="m787.31,423.43h-.99v-3.45h-3.76v3.45h-.98v-7.46h.98v3.21h3.76v-3.21h.99v7.46Z"/></g><g id="Line"><rect class="cls-8" x="249.12" y="201.6" width="158.4" height="201.6"/><line class="cls-7" x1="383.04" y1="403.2" x2="383.04" y2="496.8"/><line class="cls-9" x1="368.64" y1="497.04" x2="397.44" y2="497.04"/><line class="cls-9" x1="382.8" y1="514.32" x2="368.4" y2="497.04"/><line class="cls-9" x1="397.2" y1="497.04" x2="382.8" y2="514.32"/><line class="cls-10" x1="148.32" y1="374.4" x2="249.12" y2="374.4"/><line class="cls-10" x1="155.52" y1="338.4" x2="249.12" y2="338.4"/><line class="cls-10" x1="249.12" y1="266.4" x2="148.32" y2="266.4"/><line class="cls-10" x1="239.04" y1="230.4" x2="210.24" y2="230.4"/><circle class="cls-10" cx="243.36" cy="230.4" r="4.32"/><line class="cls-7" x1="325.44" y1="402.96" x2="325.44" y2="431.76"/><line class="cls-7" x1="368.64" y1="80.64" x2="368.64" y2="201.6"/><line class="cls-6" x1="407.52" y1="282.24" x2="490.54" y2="282.24"/><polygon class="cls-1" points="480.6 294.52 478.55 292.32 489.39 282.24 478.55 272.16 480.6 269.97 493.8 282.24 480.6 294.52"/><line class="cls-7" x1="148.32" y1="437.76" x2="148.32" y2="496.8"/><line class="cls-9" x1="133.92" y1="496.8" x2="162.72" y2="496.8"/><line class="cls-9" x1="148.08" y1="514.08" x2="133.68" y2="496.8"/><line class="cls-9" x1="162.48" y1="496.8" x2="148.08" y2="514.08"/><line class="cls-7" x1="148.32" y1="374.4" x2="148.32" y2="423.36"/><rect class="cls-7" x="112.32" y="197.28" width="72" height="23.04" transform="translate(-60.48 357.12) rotate(-90)"/><line class="cls-7" x1="148.32" y1="158.4" x2="148.32" y2="172.8"/><line class="cls-7" x1="210.24" y1="230.4" x2="210.24" y2="156.96"/><line class="cls-7" x1="148.32" y1="158.4" x2="368.64" y2="158.4"/><line class="cls-7" x1="148.32" y1="244.8" x2="148.32" y2="374.4"/><line class="cls-7" x1="325.44" y1="466.56" x2="325.44" y2="496.8"/><line class="cls-9" x1="311.04" y1="496.8" x2="339.84" y2="496.8"/><line class="cls-9" x1="325.2" y1="514.08" x2="310.8" y2="496.8"/><line class="cls-9" x1="339.6" y1="496.8" x2="325.2" y2="514.08"/><line class="cls-7" x1="325.44" y1="430.56" x2="325.44" y2="455.04"/><line class="cls-7" x1="368.64" y1="116.64" x2="368.64" y2="76.16"/><polygon class="cls-1" points="378.18 93.89 375.36 94.92 368.64 76.45 361.92 94.92 359.1 93.89 368.64 67.68 378.18 93.89"/><path class="cls-10" d="m141.12,338.4c0,3.98,3.22,7.2,7.2,7.2"/><path class="cls-10" d="m155.52,338.4c0,3.98-3.22,7.2-7.2,7.2"/><line class="cls-10" x1="47.52" y1="338.4" x2="141.12" y2="338.4"/><line class="cls-9" x1="734.52" y1="478.08" x2="734.52" y2="391.68"/><line class="cls-9" x1="820.92" y1="391.68" x2="734.52" y2="391.68"/><line class="cls-9" x1="820.92" y1="478.08" x2="820.92" y2="391.68"/><line class="cls-9" x1="864.12" y1="478.08" x2="820.92" y2="478.08"/><line class="cls-9" x1="756.12" y1="161.28" x2="864.12" y2="161.28"/><line class="cls-9" x1="734.52" y1="247.68" x2="756.12" y2="247.68"/><line class="cls-9" x1="662.52" y1="161.28" x2="734.79" y2="161.28"/><line class="cls-9" x1="734.52" y1="478.08" x2="648.12" y2="478.08"/><line class="cls-4" x1="864.12" y1="247.68" x2="648.12" y2="247.68"/><line class="cls-4" x1="836.76" y1="478.08" x2="648.12" y2="478.08"/><line class="cls-4" x1="864.12" y1="391.68" x2="648.12" y2="391.68"/><line class="cls-4" x1="734.52" y1="146.88" x2="734.52" y2="521.28"/><line class="cls-4" x1="864.12" y1="161.28" x2="648.12" y2="161.28"/><line class="cls-5" x1="648.12" y1="506.88" x2="880.36" y2="506.88"/><polygon class="cls-1" points="877.56 511 892.92 506.88 877.56 502.76 877.56 511"/><line class="cls-9" x1="734.52" y1="247.68" x2="734.52" y2="161.28"/><line class="cls-4" x1="864.12" y1="276.48" x2="648.12" y2="276.48"/><line class="cls-4" x1="864.12" y1="362.88" x2="648.12" y2="362.88"/><line class="cls-9" x1="756.12" y1="247.68" x2="756.12" y2="161.28"/><line class="cls-4" x1="864.12" y1="218.88" x2="648.12" y2="218.88"/><line class="cls-4" x1="864.12" y1="305.28" x2="648.12" y2="305.28"/><path class="cls-11" d="m820.92,305.28c-57.6,0-86.4,14.4-86.4,57.6"/><line class="cls-11" x1="648.12" y1="362.88" x2="734.52" y2="362.88"/><line class="cls-11" x1="822.36" y1="362.88" x2="864.12" y2="362.88"/><line class="cls-11" x1="820.92" y1="305.28" x2="820.92" y2="362.88"/><line class="cls-5" x1="746.96" y1="426.24" x2="808.24" y2="426.24"/><polygon class="cls-1" points="749.76 430.36 734.4 426.24 749.76 422.12 749.76 430.36"/><polygon class="cls-1" points="805.44 430.36 820.8 426.24 805.44 422.12 805.44 430.36"/></g></svg>