<?xml version="1.0" encoding="UTF-8"?><svg xmlns="http://www.w3.org/2000/svg" viewBox="0 0 1080 600.48"><defs><style>.cls-1{stroke-width:3px;}.cls-1,.cls-2,.cls-3,.cls-4,.cls-5,.cls-6,.cls-7,.cls-8{stroke:#cad2d9;stroke-miterlimit:10;}.cls-1,.cls-2,.cls-4,.cls-5,.cls-6,.cls-8{fill:none;}.cls-2{stroke-width:.85px;}.cls-9{fill:#fff;}.cls-10,.cls-3,.cls-7{fill:#cad2d9;}.cls-3,.cls-6{stroke-width:2px;}.cls-4{stroke-width:2px;}.cls-5{stroke-width:2px;}.cls-7{stroke-width:1.63px;}</style></defs><g id="TEXT_Vector"><g><path class="cls-10" d="M862.76,160.42h-3.01v5.18h-1.7v-12.8h4.24c1.44,0,2.55,.33,3.33,.98s1.16,1.61,1.16,2.87c0,.8-.21,1.49-.65,2.08s-1.03,1.03-1.8,1.33l3.01,5.43v.11h-1.81l-2.78-5.18Zm-3.01-1.38h2.59c.84,0,1.5-.22,2-.65,.5-.43,.74-1.02,.74-1.74,0-.79-.24-1.4-.71-1.82-.47-.42-1.15-.64-2.04-.64h-2.58v4.86Z"/><path class="cls-10" d="M873.36,161.83h-3.58v3.77h-1.12v-8.53h5.29v.92h-4.16v2.92h3.58v.92Z"/></g><g><path class="cls-10" d="M1044.04,304.48l3.66-10.56h1.85l-4.75,12.8h-1.49l-4.74-12.8h1.84l3.64,10.56Z"/><path class="cls-10" d="M1057.32,302.73c0,.84-.14,1.57-.42,2.19s-.68,1.1-1.2,1.43-1.12,.49-1.8,.49-1.27-.17-1.79-.5-.92-.8-1.21-1.41-.43-1.32-.44-2.12v-.62c0-.82,.14-1.54,.43-2.17s.69-1.11,1.21-1.44,1.12-.5,1.79-.5,1.29,.17,1.81,.5,.92,.81,1.2,1.44,.42,1.36,.42,2.19v.54Zm-1.12-.55c0-1.01-.2-1.79-.61-2.33s-.97-.81-1.71-.81-1.27,.27-1.68,.81-.62,1.29-.63,2.25v.63c0,.98,.21,1.75,.62,2.31s.98,.84,1.7,.84,1.29-.26,1.69-.79,.6-1.29,.62-2.28v-.63Z"/><path class="cls-10" d="M1065.01,298.19v5.8c0,.8-.26,1.46-.76,1.97s-1.18,.8-2.04,.86h-.3c-.93,.01-1.68-.24-2.23-.74s-.84-1.2-.84-2.08v-5.81h1.11v5.78c0,.62,.17,1.1,.51,1.44s.82,.51,1.45,.51,1.12-.17,1.46-.51,.51-.82,.51-1.44v-5.78h1.13Z"/><path class="cls-10" d="M1072.68,299.11h-2.74v7.61h-1.12v-7.61h-2.74v-.92h6.6v.92Z"/></g><g><path class="cls-10" d="M898.58,362.88h-1.69v-12.8h1.69v12.8Z"/><path class="cls-10" d="M911.07,358.82c-.16,1.35-.66,2.4-1.5,3.13s-1.96,1.1-3.35,1.1c-1.51,0-2.72-.54-3.63-1.63s-1.37-2.53-1.37-4.35v-1.23c0-1.19,.21-2.24,.64-3.14s1.03-1.6,1.81-2.08,1.68-.72,2.71-.72c1.36,0,2.45,.38,3.27,1.14s1.3,1.81,1.43,3.15h-1.7c-.15-1.02-.46-1.76-.95-2.22-.49-.46-1.17-.69-2.05-.69-1.08,0-1.92,.4-2.54,1.2s-.92,1.93-.92,3.4v1.24c0,1.39,.29,2.5,.87,3.32,.58,.82,1.39,1.23,2.43,1.23,.94,0,1.66-.21,2.16-.64s.83-1.16,1-2.22h1.7Z"/><path class="cls-10" d="M918.3,362.88h-1.63v-10.84l-3.28,1.2v-1.48l4.66-1.75h.25v12.86Z"/></g><path class="cls-10" d="M113.67,206.46h-1.63v-10.84l-3.28,1.2v-1.48l4.66-1.75h.25v12.86Z"/><path class="cls-10" d="M116.71,264.06h-8.38v-1.17l4.43-4.92c.66-.74,1.11-1.35,1.36-1.81s.37-.95,.37-1.45c0-.67-.2-1.22-.61-1.64s-.94-.64-1.62-.64c-.81,0-1.44,.23-1.89,.69s-.67,1.1-.67,1.92h-1.63c0-1.18,.38-2.13,1.14-2.86s1.77-1.09,3.05-1.09c1.19,0,2.13,.31,2.82,.94s1.04,1.45,1.04,2.49c0,1.26-.8,2.76-2.41,4.5l-3.43,3.72h6.42v1.33Z"/><path class="cls-10" d="M110.69,314.47h1.22c.77-.01,1.37-.21,1.81-.61s.66-.92,.66-1.59c0-1.5-.75-2.25-2.24-2.25-.7,0-1.26,.2-1.68,.6s-.63,.93-.63,1.59h-1.63c0-1.01,.37-1.86,1.11-2.53s1.68-1.01,2.83-1.01c1.21,0,2.15,.32,2.84,.96s1.03,1.53,1.03,2.66c0,.56-.18,1.1-.54,1.62s-.85,.91-1.47,1.17c.7,.22,1.25,.59,1.63,1.11s.58,1.15,.58,1.89c0,1.15-.38,2.06-1.12,2.73s-1.73,1.01-2.93,1.01-2.18-.33-2.93-.98-1.13-1.51-1.13-2.58h1.63c0,.67,.22,1.21,.66,1.62s1.03,.61,1.77,.61c.79,0,1.39-.21,1.8-.62s.62-1,.62-1.77-.23-1.32-.69-1.71-1.12-.6-1.98-.62h-1.22v-1.33Z"/><path class="cls-10" d="M115.19,374.96h1.78v1.33h-1.78v2.97h-1.63v-2.97h-5.83v-.96l5.73-8.87h1.73v8.5Zm-5.62,0h3.98v-6.28l-.19,.35-3.79,5.92Z"/><path class="cls-10" d="M315.59,308.85v1.38h-.3c-1.27,.02-2.27,.4-3.02,1.12s-1.18,1.75-1.3,3.07c.67-.77,1.59-1.16,2.76-1.16s2,.39,2.67,1.18,1,1.8,1,3.04c0,1.32-.36,2.37-1.08,3.16s-1.68,1.19-2.89,1.19-2.22-.47-2.98-1.41-1.14-2.15-1.14-3.63v-.62c0-2.36,.5-4.16,1.51-5.4s2.5-1.88,4.49-1.91h.29Zm-2.14,5.77c-.56,0-1.07,.17-1.54,.5s-.79,.75-.98,1.26v.6c0,1.05,.24,1.9,.71,2.55s1.07,.97,1.78,.97,1.31-.27,1.73-.81,.63-1.25,.63-2.12-.21-1.59-.64-2.13-.99-.81-1.69-.81Z"/><path class="cls-10" d="M309.96,372.84l.65-6.38h6.56v1.5h-5.18l-.39,3.49c.63-.37,1.34-.55,2.14-.55,1.17,0,2.09,.38,2.78,1.16s1.03,1.81,1.03,3.12-.36,2.36-1.07,3.12-1.71,1.14-2.98,1.14c-1.13,0-2.05-.31-2.77-.94s-1.12-1.49-1.22-2.6h1.54c.1,.73,.36,1.28,.78,1.66s.98,.56,1.67,.56c.76,0,1.35-.26,1.78-.77s.65-1.23,.65-2.14c0-.86-.23-1.54-.7-2.06s-1.09-.78-1.86-.78c-.71,0-1.27,.16-1.67,.47l-.43,.35-1.3-.33Z"/><g><path class="cls-10" d="M261.01,204.22l3.66-10.56h1.85l-4.75,12.8h-1.49l-4.74-12.8h1.84l3.64,10.56Z"/><path class="cls-10" d="M273.09,210.09c-.09,.79-.38,1.4-.87,1.83s-1.14,.64-1.95,.64c-.88,0-1.59-.32-2.12-.95-.53-.63-.8-1.48-.8-2.54v-.72c0-.69,.12-1.3,.37-1.83,.25-.53,.6-.93,1.05-1.21,.45-.28,.98-.42,1.58-.42,.79,0,1.43,.22,1.91,.66,.48,.44,.76,1.05,.84,1.84h-.99c-.09-.6-.27-1.03-.56-1.29-.29-.27-.68-.4-1.2-.4-.63,0-1.12,.23-1.48,.7-.36,.47-.54,1.13-.54,1.99v.72c0,.81,.17,1.46,.51,1.93s.81,.72,1.42,.72c.55,0,.97-.12,1.26-.37,.29-.25,.49-.68,.58-1.29h.99Z"/><path class="cls-10" d="M279.92,210.09c-.09,.79-.38,1.4-.87,1.83s-1.14,.64-1.95,.64c-.88,0-1.59-.32-2.12-.95-.53-.63-.8-1.48-.8-2.54v-.72c0-.69,.12-1.3,.37-1.83,.25-.53,.6-.93,1.05-1.21,.45-.28,.98-.42,1.58-.42,.79,0,1.43,.22,1.91,.66,.48,.44,.76,1.05,.84,1.84h-.99c-.09-.6-.27-1.03-.56-1.29-.29-.27-.68-.4-1.2-.4-.63,0-1.12,.23-1.48,.7-.36,.47-.54,1.13-.54,1.99v.72c0,.81,.17,1.46,.51,1.93s.81,.72,1.42,.72c.55,0,.97-.12,1.26-.37,.29-.25,.49-.68,.58-1.29h.99Z"/></g><g><path class="cls-10" d="M188.44,446.46h6.06v1.38h-7.76v-12.8h1.7v11.42Z"/><path class="cls-10" d="M198.61,435.04l4.18,10.44,4.18-10.44h2.19v12.8h-1.69v-4.98l.16-5.38-4.2,10.36h-1.29l-4.19-10.34,.17,5.35v4.98h-1.69v-12.8h2.18Z"/><path class="cls-10" d="M214.09,440.65h1.22c.77-.01,1.37-.21,1.81-.61s.66-.92,.66-1.59c0-1.5-.75-2.25-2.24-2.25-.7,0-1.26,.2-1.68,.6s-.63,.93-.63,1.6h-1.63c0-1.01,.37-1.86,1.11-2.53s1.68-1.01,2.83-1.01c1.21,0,2.15,.32,2.84,.96s1.03,1.53,1.03,2.66c0,.56-.18,1.1-.54,1.62s-.85,.91-1.47,1.17c.7,.22,1.25,.59,1.63,1.11s.58,1.15,.58,1.89c0,1.15-.38,2.06-1.12,2.73s-1.73,1.01-2.93,1.01-2.18-.33-2.93-.98-1.13-1.51-1.13-2.58h1.63c0,.67,.22,1.21,.66,1.62s1.03,.61,1.77,.61c.79,0,1.39-.21,1.8-.62s.62-1,.62-1.77-.23-1.32-.69-1.71-1.12-.6-1.98-.62h-1.22v-1.33Z"/><path class="cls-10" d="M222.58,441.42l.65-6.38h6.56v1.5h-5.18l-.39,3.49c.63-.37,1.34-.55,2.14-.55,1.17,0,2.09,.38,2.78,1.16s1.03,1.81,1.03,3.12-.36,2.36-1.07,3.12-1.71,1.14-2.98,1.14c-1.13,0-2.05-.31-2.77-.94s-1.12-1.49-1.22-2.6h1.54c.1,.73,.36,1.28,.78,1.66s.98,.56,1.67,.56c.76,0,1.35-.26,1.78-.77s.65-1.23,.65-2.14c0-.86-.23-1.54-.7-2.06s-1.09-.78-1.86-.78c-.71,0-1.27,.16-1.67,.47l-.43,.35-1.3-.33Z"/><path class="cls-10" d="M239.7,438.38c0,.64-.17,1.21-.51,1.71s-.79,.89-1.37,1.17c.67,.29,1.2,.71,1.59,1.26s.58,1.17,.58,1.87c0,1.11-.37,1.99-1.12,2.65s-1.73,.98-2.95,.98-2.22-.33-2.96-.99-1.11-1.54-1.11-2.64c0-.69,.19-1.32,.57-1.87s.9-.98,1.57-1.27c-.57-.28-1.02-.67-1.34-1.17s-.49-1.06-.49-1.7c0-1.08,.35-1.93,1.04-2.57s1.6-.95,2.73-.95,2.03,.32,2.73,.95,1.04,1.49,1.04,2.57Zm-1.33,5.97c0-.71-.23-1.3-.68-1.75s-1.05-.68-1.78-.68-1.32,.22-1.76,.67-.66,1.03-.66,1.76,.22,1.3,.65,1.71,1.03,.62,1.8,.62,1.36-.21,1.79-.63,.65-.99,.65-1.71Zm-2.44-8.15c-.64,0-1.16,.2-1.55,.59s-.59,.93-.59,1.61,.19,1.18,.58,1.58,.91,.6,1.56,.6,1.17-.2,1.56-.6,.58-.93,.58-1.58-.2-1.18-.61-1.59-.92-.62-1.54-.62Z"/></g><path class="cls-10" d="M316.97,197c0,.64-.17,1.21-.51,1.71s-.79,.89-1.37,1.17c.67,.29,1.2,.71,1.59,1.26s.58,1.17,.58,1.87c0,1.11-.37,1.99-1.12,2.65s-1.73,.98-2.95,.98-2.22-.33-2.96-.99-1.11-1.54-1.11-2.64c0-.69,.19-1.32,.57-1.87s.9-.98,1.57-1.27c-.57-.28-1.02-.67-1.34-1.17s-.49-1.06-.49-1.7c0-1.08,.35-1.93,1.04-2.57s1.6-.95,2.73-.95,2.03,.32,2.73,.95,1.04,1.49,1.04,2.57Zm-1.33,5.97c0-.71-.23-1.3-.68-1.75s-1.05-.68-1.78-.68-1.32,.22-1.76,.67-.66,1.03-.66,1.76,.22,1.3,.65,1.71,1.03,.62,1.8,.62,1.36-.21,1.79-.63,.65-.99,.65-1.71Zm-2.44-8.15c-.64,0-1.16,.2-1.55,.59s-.59,.93-.59,1.61,.19,1.18,.58,1.58,.91,.6,1.56,.6,1.17-.2,1.56-.6,.58-.93,.58-1.58-.2-1.18-.61-1.59-.92-.62-1.54-.62Z"/><path class="cls-10" d="M317.47,252.18l-5.3,11.88h-1.71l5.28-11.46h-6.93v-1.34h8.65v.91Z"/><g><path class="cls-10" d="M147.53,206.46h-1.63v-10.84l-3.28,1.2v-1.48l4.66-1.75h.25v12.86Z"/><path class="cls-10" d="M162.56,200.47c0,1.25-.21,2.35-.63,3.28-.42,.94-1.02,1.65-1.79,2.14s-1.68,.74-2.71,.74-1.9-.25-2.68-.74-1.38-1.2-1.81-2.12c-.43-.92-.65-1.98-.66-3.19v-.92c0-1.23,.21-2.32,.64-3.26s1.03-1.67,1.81-2.17c.78-.5,1.68-.75,2.69-.75s1.93,.25,2.71,.74c.78,.5,1.38,1.21,1.81,2.15,.42,.94,.63,2.03,.63,3.28v.81Zm-1.68-.83c0-1.52-.3-2.68-.91-3.49s-1.46-1.22-2.56-1.22-1.91,.41-2.52,1.22-.93,1.94-.94,3.38v.94c0,1.47,.31,2.63,.93,3.47s1.47,1.26,2.55,1.26,1.93-.4,2.53-1.19,.91-1.93,.92-3.42v-.95Z"/><path class="cls-10" d="M174.1,193.66v8.7c0,1.21-.39,2.19-1.14,2.96s-1.77,1.2-3.06,1.29l-.45,.02c-1.4,0-2.52-.38-3.35-1.13s-1.25-1.8-1.27-3.12v-8.72h1.67v8.67c0,.93,.25,1.65,.76,2.16s1.24,.77,2.18,.77,1.69-.25,2.19-.76,.76-1.23,.76-2.15v-8.67h1.7Z"/><path class="cls-10" d="M185.6,195.04h-4.11v11.42h-1.68v-11.42h-4.1v-1.38h9.9v1.38Z"/></g><g><path class="cls-10" d="M147.53,264.06h-1.63v-10.84l-3.28,1.2v-1.48l4.66-1.75h.25v12.86Z"/><path class="cls-10" d="M154.52,264.06h-1.69v-12.8h1.69v12.8Z"/><path class="cls-10" d="M167.44,264.06h-1.7l-6.44-9.86v9.86h-1.7v-12.8h1.7l6.46,9.91v-9.91h1.68v12.8Z"/><path class="cls-10" d="M173.57,259.29h-4.29v-1.33h4.29v1.33Z"/></g><g><path class="cls-10" d="M147.53,321.66h-1.63v-10.84l-3.28,1.2v-1.48l4.66-1.75h.25v12.86Z"/><path class="cls-10" d="M154.52,321.66h-1.69v-12.8h1.69v12.8Z"/><path class="cls-10" d="M167.44,321.66h-1.7l-6.44-9.86v9.86h-1.7v-12.8h1.7l6.46,9.91v-9.91h1.68v12.8Z"/><path class="cls-10" d="M174.84,314.8h3.57v1.54h-3.57v4.04h-1.63v-4.04h-3.57v-1.54h3.57v-3.74h1.63v3.74Z"/></g><g><path class="cls-10" d="M152.05,377.58c-.43,.62-1.04,1.08-1.81,1.39-.78,.31-1.68,.46-2.71,.46s-1.97-.24-2.78-.73c-.81-.49-1.43-1.18-1.88-2.09s-.67-1.95-.68-3.14v-1.12c0-1.93,.45-3.42,1.35-4.48s2.16-1.59,3.79-1.59c1.34,0,2.41,.34,3.23,1.02,.81,.68,1.31,1.65,1.49,2.91h-1.69c-.32-1.7-1.32-2.55-3.02-2.55-1.13,0-1.99,.4-2.57,1.19-.58,.79-.88,1.95-.88,3.45v1.05c0,1.44,.33,2.58,.98,3.43,.66,.85,1.54,1.27,2.66,1.27,.63,0,1.19-.07,1.66-.21,.47-.14,.87-.38,1.18-.71v-2.87h-2.96v-1.38h4.64v4.69Z"/><path class="cls-10" d="M164.7,379.26h-1.7l-6.44-9.86v9.86h-1.7v-12.8h1.7l6.46,9.91v-9.91h1.68v12.8Z"/><path class="cls-10" d="M167.7,379.26v-12.8h3.61c1.11,0,2.1,.25,2.95,.74s1.52,1.19,1.98,2.1,.7,1.95,.71,3.13v.82c0,1.21-.23,2.26-.7,3.17s-1.13,1.61-2,2.09-1.87,.74-3.02,.75h-3.54Zm1.69-11.42v10.04h1.78c1.3,0,2.31-.4,3.04-1.21s1.09-1.96,1.09-3.46v-.75c0-1.45-.34-2.58-1.02-3.39-.68-.81-1.65-1.22-2.9-1.23h-1.97Z"/></g><g><path class="cls-10" d="M256.53,379.26h-8.38v-1.17l4.43-4.92c.66-.74,1.11-1.35,1.36-1.82,.25-.46,.37-.95,.37-1.45,0-.67-.2-1.22-.61-1.64s-.94-.64-1.62-.64c-.81,0-1.44,.23-1.89,.69-.45,.46-.67,1.1-.67,1.92h-1.63c0-1.18,.38-2.13,1.14-2.86s1.77-1.09,3.05-1.09c1.19,0,2.13,.31,2.82,.94,.69,.62,1.04,1.46,1.04,2.49,0,1.26-.8,2.76-2.41,4.5l-3.43,3.72h6.42v1.33Z"/><path class="cls-10" d="M260.48,379.26h-1.69v-12.8h1.69v12.8Z"/><path class="cls-10" d="M273.4,379.26h-1.7l-6.44-9.86v9.86h-1.7v-12.8h1.7l6.46,9.91v-9.91h1.68v12.8Z"/><path class="cls-10" d="M280.8,372.39h3.57v1.54h-3.57v4.04h-1.63v-4.04h-3.57v-1.54h3.57v-3.74h1.63v3.74Z"/></g><g><path class="cls-10" d="M261.77,321.66h-8.38v-1.17l4.43-4.92c.66-.74,1.11-1.35,1.36-1.82,.25-.46,.37-.95,.37-1.45,0-.67-.2-1.22-.61-1.64s-.94-.64-1.62-.64c-.81,0-1.44,.23-1.89,.69-.45,.46-.67,1.1-.67,1.92h-1.63c0-1.18,.38-2.13,1.14-2.86s1.77-1.09,3.05-1.09c1.19,0,2.13,.31,2.82,.94,.69,.62,1.04,1.46,1.04,2.49,0,1.26-.8,2.76-2.41,4.5l-3.43,3.72h6.42v1.33Z"/><path class="cls-10" d="M265.72,321.66h-1.69v-12.8h1.69v12.8Z"/><path class="cls-10" d="M278.64,321.66h-1.7l-6.44-9.86v9.86h-1.7v-12.8h1.7l6.46,9.91v-9.91h1.68v12.8Z"/><path class="cls-10" d="M284.77,316.89h-4.29v-1.33h4.29v1.33Z"/></g><g><path class="cls-10" d="M250.03,264.06h-8.38v-1.17l4.43-4.92c.66-.74,1.11-1.35,1.36-1.82,.25-.46,.37-.95,.37-1.45,0-.67-.2-1.22-.61-1.64s-.94-.64-1.62-.64c-.81,0-1.44,.23-1.89,.69-.45,.46-.67,1.1-.67,1.92h-1.63c0-1.18,.38-2.13,1.14-2.86s1.77-1.09,3.05-1.09c1.19,0,2.13,.31,2.82,.94,.69,.62,1.04,1.46,1.04,2.49,0,1.26-.8,2.76-2.41,4.5l-3.43,3.72h6.42v1.33Z"/><path class="cls-10" d="M262.01,258.07c0,1.25-.21,2.35-.63,3.28-.42,.94-1.02,1.65-1.79,2.14-.77,.49-1.68,.74-2.71,.74s-1.9-.25-2.68-.74c-.78-.5-1.38-1.2-1.81-2.12-.43-.92-.65-1.98-.66-3.19v-.92c0-1.23,.21-2.32,.64-3.26s1.03-1.67,1.81-2.17c.78-.5,1.68-.75,2.69-.75s1.93,.25,2.71,.74c.78,.5,1.38,1.21,1.81,2.15,.42,.94,.63,2.03,.63,3.28v.81Zm-1.68-.83c0-1.52-.3-2.68-.91-3.49s-1.46-1.22-2.56-1.22-1.91,.41-2.52,1.22-.93,1.94-.94,3.38v.94c0,1.47,.31,2.63,.93,3.47s1.47,1.26,2.55,1.26,1.93-.4,2.53-1.19,.91-1.93,.92-3.42v-.95Z"/><path class="cls-10" d="M273.55,251.26v8.7c0,1.21-.39,2.19-1.14,2.96-.75,.77-1.77,1.2-3.06,1.29l-.45,.02c-1.4,0-2.52-.38-3.35-1.13-.83-.76-1.25-1.8-1.27-3.12v-8.72h1.67v8.67c0,.93,.25,1.65,.76,2.16s1.24,.77,2.18,.77,1.69-.25,2.19-.76,.76-1.23,.76-2.15v-8.67h1.7Z"/><path class="cls-10" d="M285.06,252.64h-4.11v11.42h-1.68v-11.42h-4.1v-1.38h9.9v1.38Z"/></g><g><path class="cls-10" d="M629.7,122.98h-3.01v5.18h-1.7v-12.8h4.24c1.44,0,2.55,.33,3.33,.98s1.16,1.61,1.16,2.87c0,.8-.21,1.49-.65,2.08s-1.03,1.03-1.8,1.33l3.01,5.43v.11h-1.81l-2.78-5.18Zm-3.01-1.38h2.59c.84,0,1.5-.22,2-.65,.5-.43,.74-1.02,.74-1.74,0-.79-.24-1.4-.71-1.82-.47-.42-1.15-.64-2.04-.64h-2.58v4.86Z"/><path class="cls-10" d="M636.8,128.16h-1.12v-8.53h1.12v8.53Z"/><path class="cls-10" d="M645.41,128.16h-1.13l-4.29-6.57v6.57h-1.13v-8.53h1.13l4.31,6.6v-6.6h1.12v8.53Z"/><path class="cls-10" d="M652.72,128.16h-5.59v-.78l2.95-3.28c.44-.5,.74-.9,.91-1.21s.25-.63,.25-.96c0-.45-.13-.81-.4-1.1s-.63-.43-1.08-.43c-.54,0-.96,.15-1.26,.46s-.45,.73-.45,1.28h-1.08c0-.79,.25-1.42,.76-1.9s1.18-.73,2.03-.73c.79,0,1.42,.21,1.88,.62s.69,.97,.69,1.66c0,.84-.54,1.84-1.61,3l-2.29,2.48h4.28v.88Z"/></g><g><path class="cls-10" d="M629.7,194.98h-3.01v5.18h-1.7v-12.8h4.24c1.44,0,2.55,.33,3.33,.98s1.16,1.61,1.16,2.87c0,.8-.21,1.49-.65,2.08s-1.03,1.03-1.8,1.33l3.01,5.43v.11h-1.81l-2.78-5.18Zm-3.01-1.38h2.59c.84,0,1.5-.22,2-.65,.5-.43,.74-1.02,.74-1.74,0-.79-.24-1.4-.71-1.82-.47-.42-1.15-.64-2.04-.64h-2.58v4.86Z"/><path class="cls-10" d="M636.8,200.16h-1.12v-8.53h1.12v8.53Z"/><path class="cls-10" d="M645.41,200.16h-1.13l-4.29-6.57v6.57h-1.13v-8.53h1.13l4.31,6.6v-6.6h1.12v8.53Z"/><path class="cls-10" d="M648.71,195.37h.81c.51,0,.91-.14,1.21-.4s.44-.62,.44-1.06c0-1-.5-1.5-1.49-1.5-.47,0-.84,.13-1.12,.4s-.42,.62-.42,1.06h-1.08c0-.68,.25-1.24,.74-1.68s1.12-.67,1.88-.67c.8,0,1.44,.21,1.89,.64s.69,1.02,.69,1.78c0,.37-.12,.73-.36,1.08s-.57,.61-.98,.78c.47,.15,.83,.39,1.09,.74s.38,.76,.38,1.26c0,.77-.25,1.37-.75,1.82s-1.15,.67-1.95,.67-1.45-.22-1.95-.65-.75-1.01-.75-1.72h1.09c0,.45,.15,.81,.44,1.08s.69,.4,1.18,.4c.52,0,.92-.14,1.2-.41s.42-.67,.42-1.18-.15-.88-.46-1.14-.74-.4-1.32-.41h-.81v-.88Z"/></g><g><path class="cls-10" d="M628.26,266.98h-3.01v5.18h-1.7v-12.8h4.24c1.44,0,2.55,.33,3.33,.98s1.17,1.61,1.17,2.87c0,.8-.22,1.49-.65,2.08s-1.03,1.03-1.8,1.33l3.01,5.43v.11h-1.81l-2.78-5.18Zm-3.01-1.38h2.59c.84,0,1.5-.22,2-.65,.5-.43,.74-1.02,.74-1.74,0-.79-.24-1.4-.71-1.82-.47-.42-1.15-.64-2.04-.64h-2.58v4.86Z"/><path class="cls-10" d="M635.36,272.16h-1.12v-8.53h1.12v8.53Z"/><path class="cls-10" d="M643.97,272.16h-1.13l-4.29-6.57v6.57h-1.13v-8.53h1.13l4.31,6.6v-6.6h1.12v8.53Z"/><path class="cls-10" d="M650.27,269.29h1.18v.88h-1.18v1.98h-1.09v-1.98h-3.88v-.64l3.82-5.91h1.15v5.67Zm-3.74,0h2.65v-4.18l-.13,.23-2.53,3.95Z"/></g><g><path class="cls-10" d="M533.62,119.78c-.16,1.35-.66,2.4-1.5,3.13s-1.96,1.1-3.35,1.1c-1.51,0-2.72-.54-3.63-1.63s-1.37-2.53-1.37-4.35v-1.23c0-1.19,.21-2.24,.64-3.14s1.03-1.59,1.81-2.08,1.68-.73,2.71-.73c1.36,0,2.45,.38,3.27,1.14s1.3,1.81,1.43,3.15h-1.7c-.15-1.02-.46-1.76-.95-2.22-.49-.46-1.17-.69-2.05-.69-1.08,0-1.92,.4-2.54,1.2-.61,.8-.92,1.93-.92,3.4v1.24c0,1.39,.29,2.5,.87,3.32,.58,.82,1.39,1.23,2.43,1.23,.94,0,1.66-.21,2.16-.64s.83-1.17,1-2.22h1.7Z"/><path class="cls-10" d="M536.63,123.84h-1.12v-8.53h1.12v8.53Z"/><path class="cls-10" d="M545.25,123.84h-1.13l-4.29-6.57v6.57h-1.13v-8.53h1.13l4.31,6.6v-6.6h1.12v8.53Z"/><path class="cls-10" d="M552.55,123.84h-5.59v-.78l2.95-3.28c.44-.5,.74-.9,.91-1.21s.25-.63,.25-.96c0-.45-.13-.81-.4-1.1s-.63-.43-1.08-.43c-.54,0-.96,.15-1.26,.46s-.45,.73-.45,1.28h-1.08c0-.79,.25-1.42,.76-1.9s1.18-.73,2.03-.73c.79,0,1.42,.21,1.88,.62s.69,.97,.69,1.66c0,.84-.54,1.84-1.61,3l-2.29,2.48h4.28v.88Z"/></g><g><path class="cls-10" d="M533.62,191.78c-.16,1.35-.66,2.4-1.5,3.13s-1.96,1.1-3.35,1.1c-1.51,0-2.72-.54-3.63-1.63s-1.37-2.53-1.37-4.35v-1.23c0-1.19,.21-2.24,.64-3.14s1.03-1.6,1.81-2.08,1.68-.73,2.71-.73c1.36,0,2.45,.38,3.27,1.14s1.3,1.81,1.43,3.15h-1.7c-.15-1.02-.46-1.76-.95-2.22s-1.17-.69-2.05-.69c-1.08,0-1.92,.4-2.54,1.2-.61,.8-.92,1.93-.92,3.4v1.24c0,1.39,.29,2.5,.87,3.32s1.39,1.23,2.43,1.23c.94,0,1.66-.21,2.16-.64s.83-1.16,1-2.22h1.7Z"/><path class="cls-10" d="M536.63,195.84h-1.12v-8.53h1.12v8.53Z"/><path class="cls-10" d="M545.25,195.84h-1.13l-4.29-6.57v6.57h-1.13v-8.53h1.13l4.31,6.6v-6.6h1.12v8.53Z"/><path class="cls-10" d="M548.54,191.05h.81c.51,0,.91-.14,1.21-.4s.44-.62,.44-1.06c0-1-.5-1.5-1.49-1.5-.47,0-.84,.13-1.12,.4s-.42,.62-.42,1.06h-1.08c0-.68,.25-1.24,.74-1.68s1.12-.67,1.88-.67c.8,0,1.44,.21,1.89,.64s.69,1.02,.69,1.78c0,.37-.12,.73-.36,1.08s-.57,.61-.98,.78c.47,.15,.83,.39,1.09,.74s.38,.76,.38,1.26c0,.77-.25,1.37-.75,1.82s-1.15,.67-1.95,.67-1.45-.22-1.95-.65-.75-1.01-.75-1.72h1.09c0,.45,.15,.81,.44,1.08s.69,.4,1.18,.4c.52,0,.92-.14,1.2-.41s.42-.67,.42-1.18-.15-.88-.46-1.14-.74-.4-1.32-.41h-.81v-.88Z"/></g><g><path class="cls-10" d="M532.18,263.78c-.16,1.35-.66,2.4-1.5,3.13s-1.96,1.1-3.35,1.1c-1.51,0-2.72-.54-3.63-1.63s-1.37-2.53-1.37-4.35v-1.23c0-1.19,.21-2.24,.64-3.14s1.03-1.6,1.81-2.08,1.68-.73,2.71-.73c1.36,0,2.45,.38,3.27,1.14s1.3,1.81,1.43,3.15h-1.7c-.15-1.02-.46-1.76-.95-2.22s-1.17-.69-2.05-.69c-1.08,0-1.92,.4-2.54,1.2-.61,.8-.92,1.93-.92,3.4v1.24c0,1.39,.29,2.5,.87,3.32,.58,.82,1.39,1.23,2.43,1.23,.94,0,1.66-.21,2.16-.64s.83-1.16,1-2.22h1.7Z"/><path class="cls-10" d="M535.19,267.84h-1.12v-8.53h1.12v8.53Z"/><path class="cls-10" d="M543.81,267.84h-1.13l-4.29-6.57v6.57h-1.13v-8.53h1.13l4.31,6.6v-6.6h1.12v8.53Z"/><path class="cls-10" d="M550.1,264.97h1.18v.88h-1.18v1.98h-1.09v-1.98h-3.88v-.64l3.82-5.91h1.15v5.67Zm-3.74,0h2.65v-4.18l-.13,.23-2.53,3.95Z"/></g><path class="cls-10" d="M799.17,289.53h-4.29v-1.33h4.29v1.33Z"/><path class="cls-10" d="M797.83,359.44h3.57v1.54h-3.57v4.04h-1.63v-4.04h-3.57v-1.54h3.57v-3.74h1.63v3.74Z"/><path class="cls-10" d="M924.39,315.9h-1.63v-10.84l-3.28,1.2v-1.48l4.66-1.75h.25v12.86Z"/><path class="cls-10" d="M777.67,282.78h-8.38v-1.17l4.43-4.92c.66-.74,1.11-1.35,1.36-1.81s.37-.95,.37-1.45c0-.67-.2-1.22-.61-1.64s-.94-.64-1.62-.64c-.81,0-1.44,.23-1.89,.69s-.67,1.1-.67,1.92h-1.63c0-1.18,.38-2.13,1.14-2.86s1.77-1.09,3.05-1.09c1.19,0,2.13,.31,2.82,.94s1.04,1.45,1.04,2.49c0,1.26-.8,2.76-2.41,4.5l-3.43,3.72h6.42v1.33Z"/><path class="cls-10" d="M770.21,347.59h1.22c.77-.01,1.37-.21,1.81-.61s.66-.92,.66-1.59c0-1.5-.75-2.25-2.24-2.25-.7,0-1.26,.2-1.68,.6s-.63,.93-.63,1.59h-1.63c0-1.01,.37-1.86,1.11-2.53s1.68-1.01,2.83-1.01c1.21,0,2.15,.32,2.84,.96s1.03,1.53,1.03,2.66c0,.56-.18,1.1-.54,1.62s-.85,.91-1.47,1.17c.7,.22,1.25,.59,1.63,1.11s.58,1.15,.58,1.89c0,1.15-.38,2.06-1.12,2.73s-1.73,1.01-2.93,1.01-2.18-.33-2.93-.98-1.13-1.51-1.13-2.58h1.63c0,.67,.22,1.21,.66,1.62s1.03,.61,1.77,.61c.79,0,1.39-.21,1.8-.62s.62-1,.62-1.77-.23-1.32-.69-1.71-1.12-.6-1.98-.62h-1.22v-1.33Z"/><g><path class="cls-10" d="M416.35,147.52l3.66-10.56h1.85l-4.75,12.8h-1.49l-4.74-12.8h1.84l3.64,10.56Z"/><path class="cls-10" d="M424.28,149.76h-1.12v-8.53h1.12v8.53Z"/><path class="cls-10" d="M432.89,149.76h-1.13l-4.29-6.57v6.57h-1.13v-8.53h1.13l4.31,6.6v-6.6h1.12v8.53Z"/><path class="cls-10" d="M440.2,149.76h-5.59v-.78l2.95-3.28c.44-.5,.74-.9,.91-1.21s.25-.63,.25-.96c0-.45-.13-.81-.4-1.1s-.63-.43-1.08-.43c-.54,0-.96,.15-1.26,.46s-.45,.73-.45,1.28h-1.08c0-.79,.25-1.42,.76-1.9s1.18-.73,2.03-.73c.79,0,1.42,.21,1.88,.62s.69,.97,.69,1.66c0,.84-.54,1.84-1.61,3l-2.29,2.48h4.28v.88Z"/></g><g><path class="cls-10" d="M416.35,75.52l3.66-10.56h1.85l-4.75,12.8h-1.49l-4.74-12.8h1.84l3.64,10.56Z"/><path class="cls-10" d="M424.28,77.76h-1.12v-8.53h1.12v8.53Z"/><path class="cls-10" d="M432.89,77.76h-1.13l-4.29-6.57v6.57h-1.13v-8.53h1.13l4.31,6.6v-6.6h1.12v8.53Z"/><path class="cls-10" d="M438.17,77.76h-1.09v-7.22l-2.19,.8v-.98l3.11-1.17h.17v8.57Z"/></g><g><path class="cls-10" d="M416.35,219.52l3.66-10.56h1.85l-4.75,12.8h-1.49l-4.74-12.8h1.84l3.64,10.56Z"/><path class="cls-10" d="M424.28,221.76h-1.12v-8.53h1.12v8.53Z"/><path class="cls-10" d="M432.89,221.76h-1.13l-4.29-6.57v6.57h-1.13v-8.53h1.13l4.31,6.6v-6.6h1.12v8.53Z"/><path class="cls-10" d="M436.19,216.97h.81c.51,0,.91-.14,1.21-.4s.44-.62,.44-1.06c0-1-.5-1.5-1.49-1.5-.47,0-.84,.13-1.12,.4s-.42,.62-.42,1.06h-1.08c0-.68,.25-1.24,.74-1.68s1.12-.67,1.88-.67c.8,0,1.44,.21,1.89,.64s.69,1.02,.69,1.78c0,.37-.12,.73-.36,1.08s-.57,.61-.98,.78c.47,.15,.83,.39,1.09,.74s.38,.76,.38,1.26c0,.77-.25,1.37-.75,1.82s-1.15,.67-1.95,.67-1.45-.22-1.95-.65-.75-1.01-.75-1.72h1.09c0,.45,.15,.81,.44,1.08s.69,.4,1.18,.4c.52,0,.92-.14,1.2-.41s.42-.67,.42-1.18-.15-.88-.46-1.14-.74-.4-1.32-.41h-.81v-.88Z"/></g><g><path class="cls-10" d="M416.35,291.52l3.66-10.56h1.85l-4.75,12.8h-1.49l-4.74-12.8h1.84l3.64,10.56Z"/><path class="cls-10" d="M424.28,293.76h-1.12v-8.53h1.12v8.53Z"/><path class="cls-10" d="M432.89,293.76h-1.13l-4.29-6.57v6.57h-1.13v-8.53h1.13l4.31,6.6v-6.6h1.12v8.53Z"/><path class="cls-10" d="M439.19,290.89h1.18v.88h-1.18v1.98h-1.09v-1.98h-3.88v-.64l3.82-5.91h1.15v5.67Zm-3.74,0h2.65v-4.18l-.13,.23-2.53,3.95Z"/></g><g><path class="cls-10" d="M869.45,421.68c-.43,.62-1.04,1.08-1.81,1.39s-1.68,.46-2.71,.46-1.97-.24-2.78-.73-1.43-1.18-1.88-2.09-.67-1.95-.68-3.14v-1.12c0-1.93,.45-3.42,1.35-4.48s2.16-1.59,3.79-1.59c1.34,0,2.41,.34,3.23,1.02s1.31,1.65,1.49,2.91h-1.69c-.32-1.7-1.32-2.55-3.02-2.55-1.13,0-1.99,.4-2.57,1.19s-.88,1.95-.88,3.45v1.05c0,1.44,.33,2.58,.98,3.43s1.54,1.27,2.66,1.27c.63,0,1.19-.07,1.66-.21s.87-.38,1.18-.71v-2.87h-2.96v-1.38h4.64v4.69Z"/><path class="cls-10" d="M882.09,423.36h-1.7l-6.44-9.86v9.86h-1.7v-12.8h1.7l6.46,9.91v-9.91h1.68v12.8Z"/><path class="cls-10" d="M885.09,423.36v-12.8h3.61c1.11,0,2.1,.25,2.95,.74s1.52,1.19,1.98,2.1,.7,1.95,.71,3.13v.82c0,1.21-.23,2.27-.7,3.17s-1.13,1.61-2,2.09-1.87,.73-3.02,.75h-3.54Zm1.69-11.42v10.04h1.78c1.3,0,2.31-.41,3.04-1.21,.72-.81,1.08-1.96,1.08-3.46v-.75c0-1.45-.34-2.58-1.02-3.39s-1.65-1.21-2.91-1.23h-1.97Z"/></g><g><path class="cls-10" d="M864.37,254.08l3.66-10.56h1.85l-4.75,12.8h-1.49l-4.74-12.8h1.84l3.64,10.56Z"/><path class="cls-10" d="M876.45,259.95c-.09,.79-.38,1.4-.87,1.83s-1.14,.64-1.96,.64c-.88,0-1.59-.32-2.12-.95-.53-.63-.8-1.48-.8-2.54v-.72c0-.69,.12-1.3,.37-1.83,.25-.53,.6-.93,1.05-1.21,.45-.28,.98-.42,1.58-.42,.79,0,1.43,.22,1.91,.66s.76,1.05,.84,1.84h-.99c-.09-.6-.27-1.03-.56-1.3-.29-.27-.68-.4-1.2-.4-.63,0-1.12,.23-1.48,.7-.36,.46-.54,1.13-.54,1.98v.72c0,.81,.17,1.46,.51,1.93,.34,.48,.81,.72,1.42,.72,.55,0,.97-.12,1.26-.37,.29-.25,.49-.68,.58-1.29h.99Z"/><path class="cls-10" d="M883.28,259.95c-.09,.79-.38,1.4-.87,1.83s-1.14,.64-1.96,.64c-.88,0-1.59-.32-2.12-.95-.53-.63-.8-1.48-.8-2.54v-.72c0-.69,.12-1.3,.37-1.83,.25-.53,.6-.93,1.05-1.21,.45-.28,.98-.42,1.58-.42,.79,0,1.43,.22,1.91,.66s.76,1.05,.84,1.84h-.99c-.09-.6-.27-1.03-.56-1.3-.29-.27-.68-.4-1.2-.4-.63,0-1.12,.23-1.48,.7-.36,.46-.54,1.13-.54,1.98v.72c0,.81,.17,1.46,.51,1.93,.34,.48,.81,.72,1.42,.72,.55,0,.97-.12,1.26-.37,.29-.25,.49-.68,.58-1.29h.99Z"/></g><path class="cls-10" d="M866.33,277.64c0,.64-.17,1.21-.51,1.71s-.79,.89-1.37,1.17c.67,.29,1.2,.71,1.59,1.26s.58,1.17,.58,1.87c0,1.11-.37,1.99-1.12,2.65s-1.73,.98-2.95,.98-2.22-.33-2.96-.99-1.11-1.54-1.11-2.64c0-.69,.19-1.32,.57-1.87s.9-.98,1.57-1.27c-.57-.28-1.02-.67-1.34-1.17s-.49-1.06-.49-1.7c0-1.08,.35-1.93,1.04-2.57s1.6-.95,2.73-.95,2.03,.32,2.73,.95,1.04,1.49,1.04,2.57Zm-1.33,5.97c0-.71-.23-1.3-.68-1.75s-1.05-.68-1.78-.68-1.32,.22-1.76,.67-.66,1.03-.66,1.76,.21,1.3,.65,1.71,1.03,.62,1.8,.62,1.36-.21,1.79-.63,.65-.99,.65-1.71Zm-2.44-8.15c-.64,0-1.16,.2-1.55,.59s-.59,.93-.59,1.61,.19,1.18,.58,1.58,.91,.6,1.56,.6,1.17-.2,1.56-.6,.58-.93,.58-1.58-.2-1.18-.61-1.59-.92-.62-1.54-.62Z"/><path class="cls-10" d="M865.43,372.08h1.78v1.33h-1.78v2.97h-1.63v-2.97h-5.83v-.96l5.73-8.87h1.73v8.5Zm-5.62,0h3.98v-6.28l-.19,.35-3.79,5.92Z"/><g><path class="cls-10" d="M791.41,456.48h-1.63v-10.84l-3.28,1.2v-1.48l4.66-1.75h.25v12.86Z"/><path class="cls-10" d="M796.66,457.58h-1.4l5.34-13.9h1.39l-5.33,13.9Z"/><path class="cls-10" d="M811.97,456.48h-8.38v-1.17l4.43-4.92c.66-.74,1.11-1.35,1.36-1.82s.37-.95,.37-1.45c0-.67-.2-1.22-.61-1.64s-.94-.64-1.62-.64c-.81,0-1.44,.23-1.89,.69s-.67,1.1-.67,1.92h-1.63c0-1.18,.38-2.13,1.14-2.86s1.77-1.09,3.05-1.09c1.19,0,2.13,.31,2.82,.94s1.04,1.46,1.04,2.49c0,1.26-.8,2.76-2.41,4.5l-3.43,3.72h6.42v1.33Z"/><path class="cls-10" d="M822.81,454.24l3.66-10.56h1.85l-4.75,12.8h-1.49l-4.74-12.8h1.84l3.64,10.56Z"/><path class="cls-10" d="M834.89,460.11c-.09,.79-.38,1.4-.87,1.83s-1.14,.64-1.95,.64c-.88,0-1.59-.32-2.12-.95s-.8-1.48-.8-2.54v-.72c0-.69,.12-1.3,.37-1.83,.25-.53,.6-.93,1.05-1.21s.98-.42,1.58-.42c.79,0,1.43,.22,1.91,.66,.48,.44,.76,1.05,.83,1.84h-.99c-.08-.6-.27-1.03-.56-1.3-.29-.27-.68-.4-1.2-.4-.63,0-1.12,.23-1.48,.7-.36,.46-.54,1.13-.54,1.98v.72c0,.81,.17,1.46,.51,1.93,.34,.48,.81,.72,1.42,.72,.55,0,.97-.12,1.26-.37,.29-.25,.49-.68,.58-1.29h.99Z"/><path class="cls-10" d="M841.72,460.11c-.09,.79-.38,1.4-.87,1.83s-1.14,.64-1.95,.64c-.88,0-1.59-.32-2.12-.95s-.8-1.48-.8-2.54v-.72c0-.69,.12-1.3,.37-1.83,.25-.53,.6-.93,1.05-1.21s.98-.42,1.58-.42c.79,0,1.43,.22,1.91,.66,.48,.44,.76,1.05,.83,1.84h-.99c-.08-.6-.27-1.03-.56-1.3-.29-.27-.68-.4-1.2-.4-.63,0-1.12,.23-1.48,.7-.36,.46-.54,1.13-.54,1.98v.72c0,.81,.17,1.46,.51,1.93,.34,.48,.81,.72,1.42,.72,.55,0,.97-.12,1.26-.37,.29-.25,.49-.68,.58-1.29h.99Z"/></g><g><path class="cls-10" d="M629.7,50.98h-3.01v5.18h-1.7v-12.8h4.24c1.44,0,2.55,.33,3.33,.98s1.16,1.61,1.16,2.87c0,.8-.21,1.49-.65,2.08s-1.03,1.03-1.8,1.33l3.01,5.43v.11h-1.81l-2.78-5.18Zm-3.01-1.38h2.59c.84,0,1.5-.22,2-.65,.5-.43,.74-1.02,.74-1.74,0-.79-.24-1.4-.71-1.82-.47-.42-1.15-.64-2.04-.64h-2.58v4.86Z"/><path class="cls-10" d="M636.8,56.16h-1.12v-8.53h1.12v8.53Z"/><path class="cls-10" d="M645.41,56.16h-1.13l-4.29-6.57v6.57h-1.13v-8.53h1.13l4.31,6.6v-6.6h1.12v8.53Z"/><path class="cls-10" d="M650.69,56.16h-1.09v-7.22l-2.19,.8v-.98l3.11-1.17h.17v8.57Z"/></g><g><path class="cls-10" d="M533.62,47.78c-.16,1.35-.66,2.4-1.5,3.13s-1.96,1.1-3.35,1.1c-1.51,0-2.72-.54-3.63-1.63s-1.37-2.53-1.37-4.35v-1.23c0-1.19,.21-2.24,.64-3.14s1.03-1.6,1.81-2.08,1.68-.73,2.71-.73c1.36,0,2.45,.38,3.27,1.14s1.3,1.81,1.43,3.15h-1.7c-.15-1.02-.46-1.76-.95-2.22s-1.17-.69-2.05-.69c-1.08,0-1.92,.4-2.54,1.2-.61,.8-.92,1.93-.92,3.4v1.24c0,1.39,.29,2.5,.87,3.32s1.39,1.23,2.43,1.23c.94,0,1.66-.21,2.16-.64s.83-1.16,1-2.22h1.7Z"/><path class="cls-10" d="M536.63,51.84h-1.12v-8.53h1.12v8.53Z"/><path class="cls-10" d="M545.25,51.84h-1.13l-4.29-6.57v6.57h-1.13v-8.53h1.13l4.31,6.6v-6.6h1.12v8.53Z"/><path class="cls-10" d="M550.53,51.84h-1.09v-7.22l-2.19,.8v-.98l3.11-1.17h.17v8.57Z"/></g><g><path class="cls-10" d="M606.61,375.04l3.66-10.56h1.85l-4.75,12.8h-1.49l-4.74-12.8h1.84l3.64,10.56Z"/><path class="cls-10" d="M618.69,380.91c-.09,.79-.38,1.4-.87,1.83s-1.14,.64-1.96,.64c-.88,0-1.59-.32-2.12-.95-.53-.63-.8-1.48-.8-2.54v-.72c0-.69,.12-1.3,.37-1.83,.25-.53,.6-.93,1.05-1.21,.45-.28,.98-.42,1.58-.42,.79,0,1.43,.22,1.91,.66s.76,1.05,.84,1.84h-.99c-.09-.6-.27-1.03-.56-1.29-.29-.27-.68-.4-1.2-.4-.63,0-1.12,.23-1.48,.7-.36,.46-.54,1.13-.54,1.98v.72c0,.81,.17,1.46,.51,1.93,.34,.48,.81,.72,1.42,.72,.55,0,.97-.12,1.26-.37s.49-.68,.58-1.29h.99Z"/><path class="cls-10" d="M625.52,380.91c-.09,.79-.38,1.4-.87,1.83s-1.14,.64-1.96,.64c-.88,0-1.59-.32-2.12-.95-.53-.63-.8-1.48-.8-2.54v-.72c0-.69,.12-1.3,.37-1.83,.25-.53,.6-.93,1.05-1.21,.45-.28,.98-.42,1.58-.42,.79,0,1.43,.22,1.91,.66s.76,1.05,.84,1.84h-.99c-.09-.6-.27-1.03-.56-1.29-.29-.27-.68-.4-1.2-.4-.63,0-1.12,.23-1.48,.7-.36,.46-.54,1.13-.54,1.98v.72c0,.81,.17,1.46,.51,1.93,.34,.48,.81,.72,1.42,.72,.55,0,.97-.12,1.26-.37s.49-.68,.58-1.29h.99Z"/></g><g><path class="cls-10" d="M767.21,590.16c-.43,.62-1.04,1.09-1.82,1.39s-1.68,.46-2.71,.46-1.97-.24-2.78-.73-1.43-1.19-1.88-2.09-.67-1.95-.68-3.14v-1.12c0-1.93,.45-3.42,1.35-4.48s2.16-1.59,3.79-1.59c1.34,0,2.41,.34,3.23,1.02s1.31,1.65,1.49,2.9h-1.69c-.32-1.7-1.32-2.55-3.02-2.55-1.13,0-1.99,.4-2.57,1.19s-.88,1.95-.88,3.45v1.05c0,1.44,.33,2.58,.98,3.43,.66,.85,1.54,1.27,2.66,1.27,.63,0,1.19-.07,1.66-.21s.87-.38,1.18-.71v-2.87h-2.96v-1.38h4.64v4.69Z"/><path class="cls-10" d="M779.85,591.84h-1.7l-6.44-9.86v9.86h-1.7v-12.8h1.7l6.46,9.91v-9.91h1.68v12.8Z"/><path class="cls-10" d="M782.85,591.84v-12.8h3.61c1.11,0,2.1,.25,2.95,.74s1.52,1.19,1.98,2.1,.7,1.95,.71,3.13v.82c0,1.21-.23,2.26-.7,3.17s-1.13,1.61-2,2.09-1.87,.74-3.02,.75h-3.54Zm1.69-11.42v10.04h1.78c1.3,0,2.31-.4,3.04-1.21,.72-.81,1.09-1.96,1.09-3.46v-.75c0-1.45-.34-2.58-1.02-3.39s-1.65-1.22-2.9-1.23h-1.97Z"/></g></g><g id="Field"><circle class="cls-3" cx="699.84" cy="216" r="2.88"/><circle class="cls-3" cx="743.04" cy="288" r="2.88"/><rect class="cls-7" x="529.92" y="129.6" width="2.88" height="28.8"/><rect class="cls-7" x="538.56" y="129.6" width="2.88" height="28.8"/><rect class="cls-7" x="529.92" y="201.6" width="2.88" height="28.8"/><rect class="cls-7" x="538.56" y="201.6" width="2.88" height="28.8"/><rect class="cls-7" x="529.92" y="273.6" width="2.88" height="28.8"/><rect class="cls-7" x="538.56" y="273.6" width="2.88" height="28.8"/><circle class="cls-3" cx="699.84" cy="288" r="2.88"/><rect class="cls-7" x="529.92" y="57.6" width="2.88" height="28.8"/><rect class="cls-7" x="538.56" y="57.6" width="2.88" height="28.8"/><circle class="cls-3" cx="699.84" cy="144" r="2.88"/><circle class="cls-3" cx="740.16" cy="417.6" r="2.88"/><circle class="cls-3" cx="947.52" cy="324.12" r="2.88"/></g><g id="Line"><line class="cls-6" x1="783.36" y1="259.32" x2="783.36" y2="388.92"/><line class="cls-6" x1="920.16" y1="324.12" x2="783.36" y2="388.92"/><line class="cls-6" x1="783.36" y1="259.32" x2="920.16" y2="324.12"/><line class="cls-6" x1="783.36" y1="288" x2="743.04" y2="288"/><line class="cls-6" x1="743.04" y1="180" x2="826.56" y2="180"/><line class="cls-6" x1="898.56" y1="180" x2="947.52" y2="180"/><line class="cls-6" x1="947.52" y1="180" x2="947.52" y2="325.56"/><g><line class="cls-5" x1="947.52" y1="324" x2="1046.88" y2="324"/><path class="cls-10" d="M1038.67,329.76c-.18-.28-.09-.65,.19-.83l7.75-4.93-7.75-4.93c-.28-.18-.36-.55-.19-.83s.55-.36,.83-.18l8.54,5.44c.17,.11,.28,.3,.28,.51s-.11,.4-.28,.51l-8.54,5.44c-.1,.06-.21,.09-.32,.09-.2,0-.39-.1-.51-.28Z"/></g><line class="cls-6" x1="743.04" y1="180.12" x2="743.04" y2="288"/><rect class="cls-6" x="826.56" y="168.48" width="72" height="23.04"/><line class="cls-1" x1="126.72" y1="154.08" x2="198.72" y2="154.08"/><line class="cls-1" x1="227.52" y1="154.08" x2="299.52" y2="154.08"/><path class="cls-1" d="M227.52,154.08c0,7.95-6.45,14.4-14.4,14.4s-14.4-6.45-14.4-14.4"/><rect class="cls-8" x="97.92" y="182.88" width="28.8" height="28.8"/><rect class="cls-8" x="97.92" y="240.48" width="28.8" height="28.8"/><rect class="cls-8" x="97.92" y="298.08" width="28.8" height="28.8"/><line class="cls-1" x1="126.72" y1="154.08" x2="126.72" y2="413.28"/><line class="cls-1" x1="126.72" y1="413.28" x2="299.52" y2="413.28"/><line class="cls-1" x1="299.52" y1="154.08" x2="299.52" y2="412.52"/><rect class="cls-8" x="97.92" y="355.68" width="28.8" height="28.8"/><rect class="cls-8" x="299.52" y="298.08" width="28.8" height="28.8"/><rect class="cls-8" x="299.52" y="355.68" width="28.8" height="28.8"/><rect class="cls-8" x="299.52" y="182.88" width="28.8" height="28.8"/><rect class="cls-8" x="299.52" y="240.48" width="28.8" height="28.8"/><rect class="cls-6" x="599.04" y="132.48" width="72" height="23.04"/><line class="cls-6" x1="782.97" y1="360" x2="740.16" y2="360"/><line class="cls-6" x1="947.52" y1="324" x2="920.16" y2="324"/><rect class="cls-6" x="599.04" y="204.48" width="72" height="23.04"/><rect class="cls-6" x="599.04" y="276.48" width="72" height="23.04"/><line class="cls-6" x1="671.04" y1="144" x2="699.84" y2="144"/><line class="cls-6" x1="671.04" y1="216" x2="699.84" y2="216"/><line class="cls-6" x1="671.04" y1="288" x2="699.84" y2="288"/><line class="cls-6" x1="699.84" y1="288" x2="699.84" y2="72"/><line class="cls-6" x1="743.04" y1="288" x2="699.84" y2="288"/><g><line class="cls-5" x1="531.36" y1="144" x2="469.98" y2="144"/><g><path class="cls-9" d="M470.23,139.49c-2.49,0-4.51,2.02-4.51,4.51s2.02,4.51,4.51,4.51,4.51-2.02,4.51-4.51-2.02-4.51-4.51-4.51Z"/><path class="cls-10" d="M470.23,138.89c2.82,0,5.11,2.29,5.11,5.11s-2.29,5.11-5.11,5.11-5.11-2.29-5.11-5.11,2.29-5.11,5.11-5.11-2.82,0,0,0Zm0,9.03c2.16,0,3.91-1.76,3.91-3.91s-1.76-3.91-3.91-3.91-3.91,1.76-3.91,3.91,1.76,3.91,3.91,3.91-2.16,0,0,0Z"/></g></g><g><line class="cls-5" x1="531.36" y1="216" x2="469.98" y2="216"/><g><path class="cls-9" d="M470.23,211.49c-2.49,0-4.51,2.02-4.51,4.51s2.02,4.51,4.51,4.51,4.51-2.02,4.51-4.51-2.02-4.51-4.51-4.51Z"/><path class="cls-10" d="M470.23,210.89c2.82,0,5.11,2.29,5.11,5.11s-2.29,5.11-5.11,5.11-5.11-2.29-5.11-5.11,2.29-5.11,5.11-5.11-2.82,0,0,0Zm0,9.03c2.16,0,3.91-1.76,3.91-3.91s-1.76-3.91-3.91-3.91-3.91,1.76-3.91,3.91,1.76,3.91,3.91,3.91-2.16,0,0,0Z"/></g></g><g><line class="cls-5" x1="531.36" y1="288" x2="469.98" y2="288"/><g><path class="cls-9" d="M470.23,283.49c-2.49,0-4.51,2.02-4.51,4.51s2.02,4.51,4.51,4.51,4.51-2.02,4.51-4.51-2.02-4.51-4.51-4.51Z"/><path class="cls-10" d="M470.23,282.89c2.82,0,5.11,2.29,5.11,5.11s-2.29,5.11-5.11,5.11-5.11-2.29-5.11-5.11,2.29-5.11,5.11-5.11-2.82,0,0,0Zm0,9.03c2.16,0,3.91-1.76,3.91-3.91s-1.76-3.91-3.91-3.91-3.91,1.76-3.91,3.91,1.76,3.91,3.91,3.91-2.16,0,0,0Z"/></g></g><g><line class="cls-5" x1="846.72" y1="289.44" x2="846.72" y2="246.13"/><polygon class="cls-10" points="853.09 257.96 851.2 258.65 846.72 246.33 842.24 258.65 840.36 257.96 846.72 240.48 853.09 257.96"/></g><line class="cls-6" x1="846.72" y1="358.56" x2="846.72" y2="401.76"/><polygon class="cls-6" points="832.32 401.76 861.12 401.76 846.72 419.04 832.32 401.76"/><line class="cls-5" x1="540" y1="144" x2="599.04" y2="144"/><line class="cls-5" x1="540" y1="216" x2="599.04" y2="216"/><line class="cls-5" x1="540" y1="288" x2="599.04" y2="288"/><rect class="cls-6" x="599.04" y="60.48" width="72" height="23.04"/><line class="cls-6" x1="671.04" y1="72" x2="699.84" y2="72"/><g><line class="cls-5" x1="531.36" y1="72" x2="469.98" y2="72"/><g><path class="cls-9" d="M470.23,67.49c-2.49,0-4.51,2.02-4.51,4.51s2.02,4.51,4.51,4.51,4.51-2.02,4.51-4.51-2.02-4.51-4.51-4.51Z"/><path class="cls-10" d="M470.23,66.89c2.82,0,5.11,2.29,5.11,5.11s-2.29,5.11-5.11,5.11-5.11-2.29-5.11-5.11,2.29-5.11,5.11-5.11-2.82,0,0,0Zm0,9.03c2.16,0,3.91-1.76,3.91-3.91s-1.76-3.91-3.91-3.91-3.91,1.76-3.91,3.91,1.76,3.91,3.91,3.91-2.16,0,0,0Z"/></g></g><line class="cls-5" x1="540" y1="72" x2="599.04" y2="72"/><line class="cls-4" x1="740.16" y1="360" x2="740.16" y2="417.6"/><rect class="cls-6" x="629.28" y="406.08" width="72" height="23.04"/><line class="cls-6" x1="740.16" y1="417.6" x2="701.28" y2="417.6"/><line class="cls-6" x1="586.08" y1="417.6" x2="629.28" y2="417.6"/><line class="cls-6" x1="586.08" y1="388.8" x2="586.08" y2="417.6"/><g><line class="cls-5" x1="586.08" y1="410.4" x2="586.08" y2="367.09"/><polygon class="cls-10" points="592.45 378.92 590.56 379.61 586.08 367.29 581.6 379.61 579.72 378.92 586.08 361.44 592.45 378.92"/></g><rect class="cls-6" x="704.16" y="480.96" width="72" height="23.04" transform="translate(247.68 1232.64) rotate(-90)"/><line class="cls-6" x1="740.16" y1="417.6" x2="740.16" y2="456.48"/><line class="cls-6" x1="740.16" y1="528.48" x2="740.16" y2="571.68"/><polygon class="cls-6" points="725.76 571.68 754.56 571.68 740.16 588.96 725.76 571.68"/><line class="cls-2" x1="793.44" y1="439.2" x2="747.36" y2="391.68"/></g></svg>