<?xml version="1.0" encoding="UTF-8"?><svg xmlns="http://www.w3.org/2000/svg" viewBox="0 0 1080 600.48"><defs><style>.cls-1{stroke-width:3px;}.cls-1,.cls-2,.cls-3,.cls-4,.cls-5,.cls-6,.cls-7,.cls-8,.cls-9{stroke:#1d1e1b;stroke-miterlimit:10;}.cls-1,.cls-2,.cls-4,.cls-5,.cls-6,.cls-7,.cls-9{fill:none;}.cls-10,.cls-11,.cls-3,.cls-8,.cls-12{fill:#1d1e1b;}.cls-10,.cls-12{font-family:Roboto-Regular, Roboto;}.cls-2{stroke-width:.85px;}.cls-13{fill:#fff;}.cls-3,.cls-7{stroke-width:2px;}.cls-4{stroke-width:2px;}.cls-5{stroke-width:2px;}.cls-6{stroke-width:2px;}.cls-8{stroke-width:1.63px;}.cls-14,.cls-12{font-size:18px;}.cls-15,.cls-16{letter-spacing:-.02em;}.cls-17,.cls-16{font-size:12px;}</style></defs><g id="TEXT"><text class="cls-10" transform="translate(856.58 165.6)"><tspan class="cls-14" x="0" y="0">R</tspan><tspan class="cls-17" x="11.08" y="0">F</tspan></text><text class="cls-10" transform="translate(1038.31 306.72)"><tspan class="cls-14" x="0" y="0">V</tspan><tspan class="cls-17" x="11.45" y="0">OU</tspan><tspan class="cls-16" x="27.48" y="0">T</tspan></text><text class="cls-12" transform="translate(895.28 362.88)"><tspan x="0" y="0">IC1</tspan></text><text class="cls-12" transform="translate(107.27 206.46)"><tspan x="0" y="0">1</tspan></text><text class="cls-12" transform="translate(107.27 264.06)"><tspan x="0" y="0">2</tspan></text><text class="cls-12" transform="translate(107.27 321.66)"><tspan x="0" y="0">3</tspan></text><text class="cls-12" transform="translate(107.27 379.26)"><tspan x="0" y="0">4</tspan></text><text class="cls-12" transform="translate(308.15 321.66)"><tspan x="0" y="0">6</tspan></text><text class="cls-12" transform="translate(308.15 379.26)"><tspan x="0" y="0">5</tspan></text><text class="cls-12" transform="translate(255.28 206.46)"><tspan x="0" y="0">V</tspan></text><text class="cls-12" transform="translate(266.74 212.45) scale(.58)"><tspan x="0" y="0">CC</tspan></text><text class="cls-12" transform="translate(185.26 447.84)"><tspan x="0" y="0">LM358</tspan></text><text class="cls-12" transform="translate(308.15 206.46)"><tspan x="0" y="0">8</tspan></text><text class="cls-12" transform="translate(308.15 264.06)"><tspan x="0" y="0">7</tspan></text><text class="cls-12" transform="translate(141.12 206.46)"><tspan x="0" y="0">1OU</tspan><tspan class="cls-15" x="34.15" y="0">T</tspan></text><text class="cls-12" transform="translate(141.12 264.06)"><tspan x="0" y="0">1IN-</tspan></text><text class="cls-12" transform="translate(141.12 321.66)"><tspan x="0" y="0">1IN+</tspan></text><text class="cls-12" transform="translate(141.12 379.26)"><tspan x="0" y="0">GND</tspan></text><text class="cls-12" transform="translate(247.08 379.26)"><tspan x="0" y="0">2IN+</tspan></text><text class="cls-12" transform="translate(252.32 321.66)"><tspan x="0" y="0">2IN-</tspan></text><text class="cls-12" transform="translate(240.58 264.06)"><tspan x="0" y="0">2OU</tspan><tspan class="cls-15" x="34.15" y="0">T</tspan></text><text class="cls-10" transform="translate(623.52 128.16)"><tspan class="cls-14" x="0" y="0">R</tspan><tspan class="cls-17" x="11.08" y="0">IN2</tspan></text><text class="cls-10" transform="translate(623.52 200.16)"><tspan class="cls-14" x="0" y="0">R</tspan><tspan class="cls-17" x="11.08" y="0">IN3</tspan></text><text class="cls-10" transform="translate(622.08 272.16)"><tspan class="cls-14" x="0" y="0">R</tspan><tspan class="cls-17" x="11.08" y="0">IN4</tspan></text><text class="cls-10" transform="translate(522.72 123.84)"><tspan class="cls-14" x="0" y="0">C</tspan><tspan class="cls-17" x="11.72" y="0">IN2</tspan></text><text class="cls-10" transform="translate(522.72 195.84)"><tspan class="cls-14" x="0" y="0">C</tspan><tspan class="cls-17" x="11.72" y="0">IN3</tspan></text><text class="cls-10" transform="translate(521.28 267.84)"><tspan class="cls-14" x="0" y="0">C</tspan><tspan class="cls-17" x="11.72" y="0">IN4</tspan></text><text class="cls-12" transform="translate(794.56 294.3)"><tspan x="0" y="0">-</tspan></text><text class="cls-12" transform="translate(791.94 366.3)"><tspan x="0" y="0">+</tspan></text><text class="cls-12" transform="translate(917.99 315.9)"><tspan x="0" y="0">1</tspan></text><text class="cls-12" transform="translate(768.23 282.78)"><tspan x="0" y="0">2</tspan></text><text class="cls-12" transform="translate(766.79 354.78)"><tspan x="0" y="0">3</tspan></text><text class="cls-10" transform="translate(410.63 149.76)"><tspan class="cls-14" x="0" y="0">V</tspan><tspan class="cls-17" x="11.45" y="0">IN2</tspan></text><text class="cls-10" transform="translate(410.63 77.76)"><tspan class="cls-14" x="0" y="0">V</tspan><tspan class="cls-17" x="11.45" y="0">IN1</tspan></text><text class="cls-10" transform="translate(410.63 221.76)"><tspan class="cls-14" x="0" y="0">V</tspan><tspan class="cls-17" x="11.45" y="0">IN3</tspan></text><text class="cls-10" transform="translate(410.63 293.76)"><tspan class="cls-14" x="0" y="0">V</tspan><tspan class="cls-17" x="11.45" y="0">IN4</tspan></text><text class="cls-12" transform="translate(858.51 423.36)"><tspan x="0" y="0">GND</tspan></text><text class="cls-12" transform="translate(858.64 256.32)"><tspan x="0" y="0">V</tspan></text><text class="cls-12" transform="translate(870.1 262.31) scale(.58)"><tspan x="0" y="0">CC</tspan></text><text class="cls-12" transform="translate(857.51 287.1)"><tspan x="0" y="0">8</tspan></text><text class="cls-12" transform="translate(857.51 376.38)"><tspan x="0" y="0">4</tspan></text><text class="cls-12" transform="translate(785 456.48)"><tspan x="0" y="0">1/2 V</tspan></text><text class="cls-12" transform="translate(828.54 462.47) scale(.58)"><tspan x="0" y="0">CC</tspan></text><text class="cls-10" transform="translate(623.52 56.16)"><tspan class="cls-14" x="0" y="0">R</tspan><tspan class="cls-17" x="11.08" y="0">IN1</tspan></text><text class="cls-10" transform="translate(522.72 51.84)"><tspan class="cls-14" x="0" y="0">C</tspan><tspan class="cls-17" x="11.72" y="0">IN1</tspan></text><text class="cls-12" transform="translate(600.88 377.28)"><tspan x="0" y="0">V</tspan></text><text class="cls-12" transform="translate(612.34 383.27) scale(.58)"><tspan x="0" y="0">CC</tspan></text><text class="cls-12" transform="translate(756.27 591.84)"><tspan x="0" y="0">GND</tspan></text></g><g id="Field"><circle class="cls-3" cx="699.84" cy="216" r="2.88"/><circle class="cls-3" cx="743.04" cy="288" r="2.88"/><rect class="cls-8" x="529.92" y="129.6" width="2.88" height="28.8"/><rect class="cls-8" x="538.56" y="129.6" width="2.88" height="28.8"/><rect class="cls-8" x="529.92" y="201.6" width="2.88" height="28.8"/><rect class="cls-8" x="538.56" y="201.6" width="2.88" height="28.8"/><rect class="cls-8" x="529.92" y="273.6" width="2.88" height="28.8"/><rect class="cls-8" x="538.56" y="273.6" width="2.88" height="28.8"/><circle class="cls-3" cx="699.84" cy="288" r="2.88"/><rect class="cls-8" x="529.92" y="57.6" width="2.88" height="28.8"/><rect class="cls-8" x="538.56" y="57.6" width="2.88" height="28.8"/><circle class="cls-3" cx="699.84" cy="144" r="2.88"/><circle class="cls-3" cx="740.16" cy="417.6" r="2.88"/><circle class="cls-3" cx="947.52" cy="324.12" r="2.88"/></g><g id="Line"><line class="cls-7" x1="783.36" y1="259.32" x2="783.36" y2="388.92"/><line class="cls-7" x1="920.16" y1="324.12" x2="783.36" y2="388.92"/><line class="cls-7" x1="783.36" y1="259.32" x2="920.16" y2="324.12"/><line class="cls-7" x1="783.36" y1="288" x2="743.04" y2="288"/><line class="cls-7" x1="743.04" y1="180" x2="826.56" y2="180"/><line class="cls-7" x1="898.56" y1="180" x2="947.52" y2="180"/><line class="cls-7" x1="947.52" y1="180" x2="947.52" y2="325.56"/><g><line class="cls-6" x1="947.52" y1="324" x2="1046.88" y2="324"/><path class="cls-11" d="M1038.67,329.76c-.18-.28-.09-.65,.19-.83l7.75-4.93-7.75-4.93c-.28-.18-.36-.55-.19-.83s.55-.36,.83-.18l8.54,5.44c.17,.11,.28,.3,.28,.51s-.11,.4-.28,.51l-8.54,5.44c-.1,.06-.21,.09-.32,.09-.2,0-.39-.1-.51-.28Z"/></g><line class="cls-7" x1="743.04" y1="180.12" x2="743.04" y2="288"/><rect class="cls-7" x="826.56" y="168.48" width="72" height="23.04"/><line class="cls-1" x1="126.72" y1="154.08" x2="198.72" y2="154.08"/><line class="cls-1" x1="227.52" y1="154.08" x2="299.52" y2="154.08"/><path class="cls-1" d="M227.52,154.08c0,7.95-6.45,14.4-14.4,14.4s-14.4-6.45-14.4-14.4"/><rect class="cls-9" x="97.92" y="182.88" width="28.8" height="28.8"/><rect class="cls-9" x="97.92" y="240.48" width="28.8" height="28.8"/><rect class="cls-9" x="97.92" y="298.08" width="28.8" height="28.8"/><line class="cls-1" x1="126.72" y1="154.08" x2="126.72" y2="413.28"/><line class="cls-1" x1="126.72" y1="413.28" x2="299.52" y2="413.28"/><line class="cls-1" x1="299.52" y1="154.08" x2="299.52" y2="412.52"/><rect class="cls-9" x="97.92" y="355.68" width="28.8" height="28.8"/><rect class="cls-9" x="299.52" y="298.08" width="28.8" height="28.8"/><rect class="cls-9" x="299.52" y="355.68" width="28.8" height="28.8"/><rect class="cls-9" x="299.52" y="182.88" width="28.8" height="28.8"/><rect class="cls-9" x="299.52" y="240.48" width="28.8" height="28.8"/><rect class="cls-7" x="599.04" y="132.48" width="72" height="23.04"/><line class="cls-7" x1="782.97" y1="360" x2="740.16" y2="360"/><line class="cls-7" x1="947.52" y1="324" x2="920.16" y2="324"/><rect class="cls-7" x="599.04" y="204.48" width="72" height="23.04"/><rect class="cls-7" x="599.04" y="276.48" width="72" height="23.04"/><line class="cls-7" x1="671.04" y1="144" x2="699.84" y2="144"/><line class="cls-7" x1="671.04" y1="216" x2="699.84" y2="216"/><line class="cls-7" x1="671.04" y1="288" x2="699.84" y2="288"/><line class="cls-7" x1="699.84" y1="288" x2="699.84" y2="72"/><line class="cls-7" x1="743.04" y1="288" x2="699.84" y2="288"/><g><line class="cls-6" x1="531.36" y1="144" x2="469.98" y2="144"/><g><path class="cls-13" d="M470.23,139.49c-2.49,0-4.51,2.02-4.51,4.51s2.02,4.51,4.51,4.51,4.51-2.02,4.51-4.51-2.02-4.51-4.51-4.51Z"/><path class="cls-11" d="M470.23,138.89c2.82,0,5.11,2.29,5.11,5.11s-2.29,5.11-5.11,5.11-5.11-2.29-5.11-5.11,2.29-5.11,5.11-5.11-2.82,0,0,0Zm0,9.03c2.16,0,3.91-1.76,3.91-3.91s-1.76-3.91-3.91-3.91-3.91,1.76-3.91,3.91,1.76,3.91,3.91,3.91-2.16,0,0,0Z"/></g></g><g><line class="cls-6" x1="531.36" y1="216" x2="469.98" y2="216"/><g><path class="cls-13" d="M470.23,211.49c-2.49,0-4.51,2.02-4.51,4.51s2.02,4.51,4.51,4.51,4.51-2.02,4.51-4.51-2.02-4.51-4.51-4.51Z"/><path class="cls-11" d="M470.23,210.89c2.82,0,5.11,2.29,5.11,5.11s-2.29,5.11-5.11,5.11-5.11-2.29-5.11-5.11,2.29-5.11,5.11-5.11-2.82,0,0,0Zm0,9.03c2.16,0,3.91-1.76,3.91-3.91s-1.76-3.91-3.91-3.91-3.91,1.76-3.91,3.91,1.76,3.91,3.91,3.91-2.16,0,0,0Z"/></g></g><g><line class="cls-6" x1="531.36" y1="288" x2="469.98" y2="288"/><g><path class="cls-13" d="M470.23,283.49c-2.49,0-4.51,2.02-4.51,4.51s2.02,4.51,4.51,4.51,4.51-2.02,4.51-4.51-2.02-4.51-4.51-4.51Z"/><path class="cls-11" d="M470.23,282.89c2.82,0,5.11,2.29,5.11,5.11s-2.29,5.11-5.11,5.11-5.11-2.29-5.11-5.11,2.29-5.11,5.11-5.11-2.82,0,0,0Zm0,9.03c2.16,0,3.91-1.76,3.91-3.91s-1.76-3.91-3.91-3.91-3.91,1.76-3.91,3.91,1.76,3.91,3.91,3.91-2.16,0,0,0Z"/></g></g><g><line class="cls-5" x1="846.72" y1="289.44" x2="846.72" y2="246.13"/><polygon class="cls-11" points="853.09 257.96 851.2 258.65 846.72 246.33 842.24 258.65 840.36 257.96 846.72 240.48 853.09 257.96"/></g><line class="cls-7" x1="846.72" y1="358.56" x2="846.72" y2="401.76"/><polygon class="cls-7" points="832.32 401.76 861.12 401.76 846.72 419.04 832.32 401.76"/><line class="cls-6" x1="540" y1="144" x2="599.04" y2="144"/><line class="cls-6" x1="540" y1="216" x2="599.04" y2="216"/><line class="cls-6" x1="540" y1="288" x2="599.04" y2="288"/><rect class="cls-7" x="599.04" y="60.48" width="72" height="23.04"/><line class="cls-7" x1="671.04" y1="72" x2="699.84" y2="72"/><g><line class="cls-6" x1="531.36" y1="72" x2="469.98" y2="72"/><g><path class="cls-13" d="M470.23,67.49c-2.49,0-4.51,2.02-4.51,4.51s2.02,4.51,4.51,4.51,4.51-2.02,4.51-4.51-2.02-4.51-4.51-4.51Z"/><path class="cls-11" d="M470.23,66.89c2.82,0,5.11,2.29,5.11,5.11s-2.29,5.11-5.11,5.11-5.11-2.29-5.11-5.11,2.29-5.11,5.11-5.11-2.82,0,0,0Zm0,9.03c2.16,0,3.91-1.76,3.91-3.91s-1.76-3.91-3.91-3.91-3.91,1.76-3.91,3.91,1.76,3.91,3.91,3.91-2.16,0,0,0Z"/></g></g><line class="cls-6" x1="540" y1="72" x2="599.04" y2="72"/><line class="cls-4" x1="740.16" y1="360" x2="740.16" y2="417.6"/><rect class="cls-7" x="629.28" y="406.08" width="72" height="23.04"/><line class="cls-7" x1="740.16" y1="417.6" x2="701.28" y2="417.6"/><line class="cls-7" x1="586.08" y1="417.6" x2="629.28" y2="417.6"/><line class="cls-7" x1="586.08" y1="388.8" x2="586.08" y2="417.6"/><g><line class="cls-5" x1="586.08" y1="410.4" x2="586.08" y2="367.09"/><polygon class="cls-11" points="592.45 378.92 590.56 379.61 586.08 367.29 581.6 379.61 579.72 378.92 586.08 361.44 592.45 378.92"/></g><rect class="cls-7" x="704.16" y="480.96" width="72" height="23.04" transform="translate(247.68 1232.64) rotate(-90)"/><line class="cls-7" x1="740.16" y1="417.6" x2="740.16" y2="456.48"/><line class="cls-7" x1="740.16" y1="528.48" x2="740.16" y2="571.68"/><polygon class="cls-7" points="725.76 571.68 754.56 571.68 740.16 588.96 725.76 571.68"/><line class="cls-2" x1="793.44" y1="439.2" x2="747.36" y2="391.68"/></g></svg>