<?xml version="1.0" encoding="UTF-8"?><svg xmlns="http://www.w3.org/2000/svg" viewBox="0 0 1080 600.48"><defs><style>.cls-1{fill:#1d1e1b;}.cls-2{fill:none;stroke:#1d1e1b;stroke-miterlimit:10;stroke-width:2px;}</style></defs><g id="Line"><rect class="cls-2" x="360" y="349.92" width="72" height="57.6" transform="translate(792 757.44) rotate(-180)"/><rect class="cls-2" x="504" y="349.92" width="72" height="57.6" transform="translate(1080 757.44) rotate(-180)"/><g><line class="cls-2" x1="432" y1="378.72" x2="489.82" y2="378.72"/><polygon class="cls-1" points="486.64 383.37 504 378.72 486.64 374.07 486.64 383.37"/></g><rect class="cls-2" x="648" y="349.92" width="72" height="57.6" transform="translate(1368 757.44) rotate(-180)"/><g><line class="cls-2" x1="576" y1="378.72" x2="633.82" y2="378.72"/><polygon class="cls-1" points="630.64 383.37 648 378.72 630.64 374.07 630.64 383.37"/></g><g><line class="cls-2" x1="720" y1="378.72" x2="777.82" y2="378.72"/><polygon class="cls-1" points="774.64 383.37 792 378.72 774.64 374.07 774.64 383.37"/></g><line class="cls-2" x1="322.56" y1="213.12" x2="322.56" y2="378.72"/><g><line class="cls-2" x1="322.56" y1="378.72" x2="345.82" y2="378.72"/><polygon class="cls-1" points="342.64 383.37 360 378.72 342.64 374.07 342.64 383.37"/></g><g><line class="cls-2" x1="684" y1="348.48" x2="583.48" y2="254.49"/><polygon class="cls-1" points="588.97 253.26 573.12 244.8 582.62 260.05 588.97 253.26"/></g><g><line class="cls-2" x1="397.44" y1="349.92" x2="499.4" y2="254.49"/><polygon class="cls-1" points="500.27 260.06 509.76 244.8 493.91 253.26 500.27 260.06"/></g><line class="cls-2" x1="498.24" y1="213.12" x2="322.56" y2="213.12"/><circle class="cls-2" cx="541.44" cy="213.12" r="43.2"/><line class="cls-2" x1="396" y1="398.88" x2="391.68" y2="407.52"/><line class="cls-2" x1="400.32" y1="407.52" x2="396" y2="398.88"/><line class="cls-2" x1="540" y1="398.88" x2="535.68" y2="407.52"/><line class="cls-2" x1="544.32" y1="407.52" x2="540" y2="398.88"/><g><line class="cls-2" x1="540" y1="407.52" x2="540" y2="436.41"/><path class="cls-1" d="M537.06,436.26c0,1.62,1.31,2.93,2.93,2.93s2.93-1.31,2.93-2.93c0-1.62-1.31-2.93-2.93-2.93-1.62,0-2.93,1.31-2.93,2.93Z"/></g><line class="cls-2" x1="684" y1="398.88" x2="679.68" y2="407.52"/><line class="cls-2" x1="688.32" y1="407.52" x2="684" y2="398.88"/><line class="cls-2" x1="684" y1="407.52" x2="684" y2="436.32"/><line class="cls-2" x1="684" y1="436.32" x2="358.56" y2="436.32"/><g><line class="cls-2" x1="396" y1="407.52" x2="396" y2="436.41"/><path class="cls-1" d="M393.06,436.26c0,1.62,1.31,2.93,2.93,2.93s2.93-1.31,2.93-2.93c0-1.62-1.31-2.93-2.93-2.93-1.62,0-2.93,1.31-2.93,2.93Z"/></g></g><g id="TEXT_Vector"><g><path class="cls-1" d="M391.73,384.48v-12.8h3.61c1.11,0,2.1,.25,2.95,.74s1.52,1.19,1.98,2.1,.7,1.95,.71,3.13v.82c0,1.21-.23,2.26-.7,3.17s-1.13,1.61-2,2.09-1.87,.74-3.02,.75h-3.54Zm1.69-11.42v10.04h1.78c1.3,0,2.31-.4,3.04-1.21s1.09-1.96,1.09-3.46v-.75c0-1.45-.34-2.58-1.02-3.39-.68-.81-1.65-1.22-2.9-1.23h-1.97Z"/><path class="cls-1" d="M405.78,390.47h-.95v-6.32l-1.91,.7v-.86l2.72-1.02h.15v7.5Z"/></g><g><path class="cls-1" d="M535.73,384.48v-12.8h3.61c1.11,0,2.1,.25,2.95,.74s1.52,1.19,1.98,2.1,.7,1.95,.71,3.13v.82c0,1.21-.23,2.26-.7,3.17s-1.13,1.61-2,2.09-1.87,.74-3.02,.75h-3.54Zm1.69-11.42v10.04h1.78c1.3,0,2.31-.4,3.04-1.21s1.09-1.96,1.09-3.46v-.75c0-1.45-.34-2.58-1.02-3.39-.68-.81-1.65-1.22-2.9-1.23h-1.97Z"/><path class="cls-1" d="M551.55,390.47h-4.89v-.68l2.58-2.87c.38-.43,.65-.79,.79-1.06,.14-.27,.22-.55,.22-.84,0-.39-.12-.71-.35-.96-.24-.25-.55-.37-.94-.37-.47,0-.84,.13-1.1,.4-.26,.27-.39,.64-.39,1.12h-.95c0-.69,.22-1.24,.66-1.67s1.03-.64,1.78-.64c.69,0,1.24,.18,1.65,.55,.4,.36,.6,.85,.6,1.45,0,.73-.47,1.61-1.4,2.62l-2,2.17h3.75v.77Z"/></g><g><path class="cls-1" d="M679.73,384.48v-12.8h3.61c1.11,0,2.1,.25,2.95,.74s1.52,1.19,1.98,2.1,.7,1.95,.71,3.13v.82c0,1.21-.23,2.26-.7,3.17s-1.13,1.61-2,2.09-1.87,.74-3.02,.75h-3.54Zm1.69-11.42v10.04h1.78c1.3,0,2.31-.4,3.04-1.21s1.09-1.96,1.09-3.46v-.75c0-1.45-.34-2.58-1.02-3.39-.68-.81-1.65-1.22-2.9-1.23h-1.97Z"/><path class="cls-1" d="M692.04,386.28h.71c.45,0,.8-.12,1.06-.35,.26-.23,.38-.54,.38-.93,0-.87-.44-1.31-1.31-1.31-.41,0-.74,.12-.98,.35-.24,.23-.37,.54-.37,.93h-.95c0-.59,.22-1.08,.65-1.47,.43-.39,.98-.59,1.65-.59,.7,0,1.25,.19,1.66,.56,.4,.37,.6,.89,.6,1.55,0,.33-.11,.64-.32,.94-.21,.3-.5,.53-.86,.68,.41,.13,.73,.35,.95,.65,.22,.3,.34,.67,.34,1.1,0,.67-.22,1.2-.66,1.59-.44,.39-1.01,.59-1.71,.59s-1.27-.19-1.71-.57c-.44-.38-.66-.88-.66-1.5h.95c0,.39,.13,.71,.38,.94,.26,.24,.6,.35,1.03,.35,.46,0,.81-.12,1.05-.36,.24-.24,.36-.58,.36-1.03s-.13-.77-.4-1c-.27-.23-.65-.35-1.15-.36h-.71v-.77Z"/></g><g><path class="cls-1" d="M533.49,201.6c-.09-.19-.17-.52-.23-1-.76,.79-1.66,1.18-2.71,1.18-.94,0-1.71-.26-2.31-.79s-.9-1.2-.9-2.02c0-.99,.38-1.76,1.13-2.31s1.81-.82,3.18-.82h1.58v-.75c0-.57-.17-1.02-.51-1.36-.34-.34-.84-.5-1.5-.5-.58,0-1.07,.15-1.46,.44s-.59,.65-.59,1.06h-1.63c0-.47,.17-.93,.5-1.38s.79-.79,1.37-1.05,1.21-.39,1.9-.39c1.1,0,1.95,.27,2.58,.82s.94,1.3,.97,2.26v4.38c0,.87,.11,1.57,.33,2.08v.14h-1.71Zm-2.7-1.24c.51,0,.99-.13,1.45-.4s.79-.61,.99-1.03v-1.95h-1.27c-1.99,0-2.99,.58-2.99,1.75,0,.51,.17,.91,.51,1.2s.78,.43,1.31,.43Z"/><path class="cls-1" d="M537.02,196.77c0-1.46,.35-2.63,1.04-3.52,.69-.89,1.6-1.33,2.72-1.33s2,.38,2.65,1.14v-4.96h1.63v13.5h-1.49l-.08-1.02c-.65,.8-1.56,1.2-2.72,1.2s-2-.45-2.69-1.35-1.04-2.08-1.04-3.53v-.12Zm1.63,.18c0,1.08,.22,1.92,.67,2.53s1.06,.91,1.85,.91c1.03,0,1.78-.46,2.26-1.39v-4.37c-.49-.9-1.23-1.34-2.24-1.34-.8,0-1.42,.31-1.86,.92s-.67,1.53-.67,2.73Z"/><path class="cls-1" d="M547.17,196.77c0-1.46,.35-2.63,1.04-3.52,.69-.89,1.6-1.33,2.72-1.33s2,.38,2.65,1.14v-4.96h1.63v13.5h-1.49l-.08-1.02c-.65,.8-1.56,1.2-2.72,1.2s-2-.45-2.69-1.35-1.04-2.08-1.04-3.53v-.12Zm1.63,.18c0,1.08,.22,1.92,.67,2.53s1.06,.91,1.85,.91c1.03,0,1.78-.46,2.26-1.39v-4.37c-.49-.9-1.23-1.34-2.24-1.34-.8,0-1.42,.31-1.86,.92s-.67,1.53-.67,2.73Z"/><path class="cls-1" d="M526.1,213.69l.04,1.05c.7-.82,1.64-1.23,2.82-1.23,1.33,0,2.24,.51,2.72,1.53,.32-.46,.73-.83,1.23-1.11s1.11-.42,1.8-.42c2.09,0,3.15,1.1,3.18,3.31v6.37h-1.63v-6.28c0-.68-.16-1.19-.47-1.53-.31-.34-.83-.5-1.56-.5-.6,0-1.1,.18-1.5,.54-.4,.36-.63,.85-.69,1.46v6.31h-1.63v-6.23c0-1.38-.68-2.07-2.03-2.07-1.07,0-1.8,.45-2.19,1.36v6.94h-1.63v-9.51h1.54Z"/><path class="cls-1" d="M539.92,218.36c0-.93,.18-1.77,.55-2.51s.88-1.32,1.53-1.72,1.4-.61,2.24-.61c1.29,0,2.34,.45,3.14,1.34s1.2,2.09,1.2,3.58v.11c0,.93-.18,1.76-.53,2.49-.35,.74-.86,1.31-1.52,1.72s-1.42,.62-2.27,.62c-1.29,0-2.33-.45-3.13-1.34s-1.2-2.08-1.2-3.56v-.11Zm1.63,.19c0,1.05,.24,1.9,.73,2.54s1.14,.96,1.96,.96,1.48-.32,1.97-.97c.49-.65,.73-1.55,.73-2.72,0-1.04-.25-1.89-.74-2.54-.5-.65-1.15-.97-1.97-.97s-1.45,.32-1.94,.96-.74,1.55-.74,2.74Z"/><path class="cls-1" d="M550.22,218.37c0-1.46,.35-2.63,1.04-3.52,.69-.89,1.6-1.33,2.72-1.33s2,.38,2.65,1.14v-4.96h1.63v13.5h-1.49l-.08-1.02c-.65,.8-1.56,1.2-2.72,1.2s-2-.45-2.69-1.35-1.04-2.08-1.04-3.53v-.12Zm1.63,.18c0,1.08,.22,1.92,.67,2.53s1.06,.91,1.85,.91c1.03,0,1.78-.46,2.26-1.39v-4.37c-.49-.9-1.23-1.34-2.24-1.34-.8,0-1.42,.31-1.86,.92s-.67,1.53-.67,2.73Z"/><path class="cls-1" d="M545.83,244.8h-8.38v-1.17l4.43-4.92c.66-.74,1.11-1.35,1.36-1.82,.25-.46,.37-.95,.37-1.45,0-.67-.2-1.22-.61-1.64s-.94-.64-1.62-.64c-.81,0-1.44,.23-1.89,.69-.45,.46-.67,1.1-.67,1.92h-1.63c0-1.18,.38-2.13,1.14-2.86s1.77-1.09,3.05-1.09c1.19,0,2.13,.31,2.82,.94,.69,.62,1.04,1.46,1.04,2.49,0,1.26-.8,2.76-2.41,4.5l-3.43,3.72h6.42v1.33Z"/></g><g><path class="cls-1" d="M383.86,456.74c-.16,1.35-.66,2.4-1.5,3.13-.84,.74-1.96,1.1-3.35,1.1-1.51,0-2.72-.54-3.63-1.63s-1.37-2.53-1.37-4.35v-1.23c0-1.19,.21-2.24,.64-3.14s1.03-1.59,1.81-2.08c.78-.48,1.68-.72,2.71-.72,1.36,0,2.45,.38,3.27,1.14s1.3,1.81,1.43,3.15h-1.7c-.15-1.02-.46-1.76-.95-2.22-.49-.46-1.17-.69-2.05-.69-1.08,0-1.92,.4-2.54,1.2s-.92,1.93-.92,3.4v1.24c0,1.39,.29,2.5,.87,3.32s1.39,1.23,2.43,1.23c.94,0,1.66-.21,2.16-.64,.5-.42,.83-1.16,1-2.22h1.7Z"/><path class="cls-1" d="M387.67,460.8h-1.63v-13.5h1.63v13.5Z"/><path class="cls-1" d="M389.84,455.96c0-.93,.18-1.77,.55-2.51s.88-1.32,1.53-1.72,1.4-.61,2.24-.61c1.29,0,2.34,.45,3.14,1.34s1.2,2.09,1.2,3.58v.11c0,.93-.18,1.76-.53,2.49-.35,.74-.86,1.31-1.52,1.72s-1.42,.62-2.27,.62c-1.29,0-2.33-.45-3.13-1.34s-1.2-2.08-1.2-3.56v-.11Zm1.63,.19c0,1.05,.24,1.9,.73,2.54s1.14,.96,1.96,.96,1.48-.32,1.97-.97c.49-.65,.73-1.55,.73-2.72,0-1.04-.25-1.89-.74-2.54-.5-.65-1.15-.97-1.97-.97s-1.45,.32-1.94,.96-.74,1.55-.74,2.74Z"/><path class="cls-1" d="M404.35,459.65c.58,0,1.09-.18,1.52-.53s.67-.79,.72-1.32h1.54c-.03,.54-.22,1.06-.56,1.56s-.81,.88-1.38,1.18-1.19,.44-1.83,.44c-1.29,0-2.32-.43-3.09-1.3-.76-.86-1.15-2.05-1.15-3.55v-.27c0-.93,.17-1.75,.51-2.47s.83-1.28,1.46-1.68,1.39-.6,2.25-.6c1.07,0,1.95,.32,2.66,.96s1.08,1.47,1.13,2.49h-1.54c-.05-.62-.28-1.12-.7-1.52-.42-.4-.94-.59-1.55-.59-.83,0-1.47,.3-1.92,.89s-.68,1.45-.68,2.58v.31c0,1.1,.23,1.94,.68,2.53s1.1,.89,1.93,.89Z"/><path class="cls-1" d="M412.62,456.4l-1.02,1.06v3.34h-1.63v-13.5h1.63v8.17l.87-1.05,2.96-3.13h1.98l-3.7,3.97,4.13,5.54h-1.91l-3.31-4.4Z"/></g><g><path class="cls-1" d="M342.62,201.71h-5.37v5.65h-1.69v-12.8h7.93v1.38h-6.24v4.39h5.37v1.38Z"/><path class="cls-1" d="M349.02,207.54c-1.29,0-2.34-.42-3.15-1.27s-1.21-1.98-1.21-3.4v-.3c0-.94,.18-1.79,.54-2.53s.86-1.32,1.51-1.74,1.35-.63,2.1-.63c1.24,0,2.2,.41,2.88,1.22s1.03,1.98,1.03,3.5v.68h-6.44c.02,.94,.3,1.7,.82,2.27,.52,.58,1.19,.87,2,.87,.57,0,1.06-.12,1.46-.35s.75-.54,1.05-.93l.99,.77c-.8,1.22-1.99,1.84-3.59,1.84Zm-.2-8.53c-.66,0-1.21,.24-1.65,.72s-.72,1.15-.83,2.01h4.76v-.12c-.05-.83-.27-1.47-.67-1.92s-.94-.68-1.62-.68Z"/><path class="cls-1" d="M358.56,207.54c-1.29,0-2.34-.42-3.15-1.27s-1.21-1.98-1.21-3.4v-.3c0-.94,.18-1.79,.54-2.53s.86-1.32,1.51-1.74,1.35-.63,2.1-.63c1.24,0,2.2,.41,2.88,1.22s1.03,1.98,1.03,3.5v.68h-6.44c.02,.94,.3,1.7,.82,2.27,.52,.58,1.19,.87,2,.87,.57,0,1.06-.12,1.46-.35s.75-.54,1.05-.93l.99,.77c-.8,1.22-1.99,1.84-3.59,1.84Zm-.2-8.53c-.66,0-1.21,.24-1.65,.72s-.72,1.15-.83,2.01h4.76v-.12c-.05-.83-.27-1.47-.67-1.92s-.94-.68-1.62-.68Z"/><path class="cls-1" d="M363.75,202.53c0-1.46,.35-2.63,1.04-3.52,.69-.89,1.6-1.33,2.72-1.33s2,.38,2.65,1.14v-4.96h1.63v13.5h-1.49l-.08-1.02c-.65,.8-1.56,1.2-2.72,1.2s-2-.45-2.69-1.35-1.04-2.08-1.04-3.53v-.12Zm1.63,.18c0,1.08,.22,1.92,.67,2.53s1.06,.91,1.85,.91c1.03,0,1.78-.46,2.26-1.39v-4.37c-.49-.9-1.23-1.34-2.24-1.34-.8,0-1.42,.31-1.86,.92s-.67,1.53-.67,2.73Z"/><path class="cls-1" d="M382.35,202.71c0,1.45-.33,2.62-1,3.5s-1.56,1.32-2.69,1.32c-1.2,0-2.13-.42-2.79-1.27l-.08,1.1h-1.49v-13.5h1.63v5.04c.66-.81,1.56-1.22,2.72-1.22s2.06,.44,2.72,1.31,.99,2.07,.99,3.59v.14Zm-1.63-.18c0-1.11-.21-1.96-.64-2.57s-1.04-.91-1.85-.91c-1.07,0-1.84,.5-2.31,1.49v4.11c.5,1,1.27,1.49,2.33,1.49,.78,0,1.39-.3,1.82-.91s.65-1.51,.65-2.72Z"/><path class="cls-1" d="M390.27,207.36c-.09-.19-.17-.52-.23-1-.76,.79-1.66,1.18-2.71,1.18-.94,0-1.71-.26-2.31-.79s-.9-1.2-.9-2.02c0-.99,.38-1.76,1.13-2.31s1.81-.82,3.18-.82h1.58v-.75c0-.57-.17-1.02-.51-1.36-.34-.34-.84-.5-1.5-.5-.58,0-1.07,.15-1.46,.44s-.59,.65-.59,1.06h-1.63c0-.47,.17-.93,.51-1.38s.79-.79,1.37-1.05,1.21-.39,1.9-.39c1.1,0,1.95,.27,2.58,.82s.94,1.3,.97,2.26v4.38c0,.87,.11,1.57,.33,2.08v.14h-1.71Zm-2.7-1.24c.51,0,.99-.13,1.45-.4s.79-.61,.99-1.03v-1.95h-1.27c-1.99,0-2.99,.58-2.99,1.75,0,.51,.17,.91,.51,1.2s.78,.43,1.31,.43Z"/><path class="cls-1" d="M398,206.21c.58,0,1.09-.18,1.52-.53s.67-.79,.72-1.32h1.54c-.03,.54-.22,1.06-.56,1.56s-.81,.88-1.38,1.18-1.19,.44-1.83,.44c-1.29,0-2.32-.43-3.09-1.3-.76-.86-1.15-2.05-1.15-3.55v-.27c0-.93,.17-1.75,.51-2.47s.83-1.28,1.46-1.68,1.39-.6,2.25-.6c1.07,0,1.95,.32,2.66,.96s1.08,1.47,1.13,2.49h-1.54c-.05-.62-.28-1.12-.7-1.52-.42-.4-.94-.59-1.55-.59-.83,0-1.47,.3-1.92,.89s-.68,1.45-.68,2.58v.31c0,1.1,.23,1.94,.68,2.53s1.1,.89,1.93,.89Z"/><path class="cls-1" d="M406.26,202.96l-1.02,1.06v3.34h-1.63v-13.5h1.63v8.17l.87-1.05,2.96-3.13h1.98l-3.7,3.97,4.13,5.54h-1.91l-3.31-4.4Z"/></g></g></svg>