<?xml version="1.0" encoding="UTF-8"?><svg id="hidden" xmlns="http://www.w3.org/2000/svg" viewBox="0 0 1080 600.48"><defs><style>.cls-1{letter-spacing:-.01em;}.cls-2,.cls-3{fill:#cad2d9;}.cls-4{stroke-width:1.42px;}.cls-4,.cls-5,.cls-6{fill:none;stroke:#cad2d9;stroke-miterlimit:10;}.cls-5{stroke-width:2.88px;}.cls-6{stroke-width:2.83px;}.cls-3{font-family:Roboto-Regular, Roboto;font-size:18px;}</style></defs><rect class="cls-6" x="360" y="349.92" width="72" height="57.6" transform="translate(792 757.44) rotate(-180)"/><rect class="cls-6" x="504" y="349.92" width="72" height="57.6" transform="translate(1080 757.44) rotate(-180)"/><g><line class="cls-6" x1="432" y1="378.72" x2="483.91" y2="378.72"/><polygon class="cls-2" points="479.42 385.31 504 378.72 479.42 372.13 479.42 385.31"/></g><rect class="cls-6" x="648" y="349.92" width="72" height="57.6" transform="translate(1368 757.44) rotate(-180)"/><g><line class="cls-6" x1="576" y1="378.72" x2="627.91" y2="378.72"/><polygon class="cls-2" points="623.42 385.31 648 378.72 623.42 372.13 623.42 385.31"/></g><g><line class="cls-6" x1="720" y1="378.72" x2="771.91" y2="378.72"/><polygon class="cls-2" points="767.42 385.31 792 378.72 767.42 372.13 767.42 385.31"/></g><line class="cls-6" x1="322.56" y1="213.12" x2="322.56" y2="378.72"/><g><line class="cls-6" x1="322.56" y1="378.72" x2="339.91" y2="378.72"/><polygon class="cls-2" points="335.42 385.31 360 378.72 335.42 372.13 335.42 385.31"/></g><g><line class="cls-6" x1="684" y1="348.48" x2="587.79" y2="258.52"/><polygon class="cls-2" points="595.58 256.78 573.12 244.8 586.58 266.4 595.58 256.78"/></g><text class="cls-3" transform="translate(390.24 384.48)"><tspan x="0" y="0">D</tspan></text><text class="cls-3" transform="translate(402.04 390.47) scale(.58)"><tspan x="0" y="0">1</tspan></text><text class="cls-3" transform="translate(534.24 384.48)"><tspan x="0" y="0">D</tspan></text><text class="cls-3" transform="translate(546.04 390.47) scale(.58)"><tspan x="0" y="0">2</tspan></text><text class="cls-3" transform="translate(678.24 384.48)"><tspan x="0" y="0">D</tspan></text><text class="cls-3" transform="translate(690.04 390.47) scale(.58)"><tspan x="0" y="0">3</tspan></text><g><path class="cls-2" d="M533.49,201.6c-.09-.19-.17-.52-.23-1-.76,.79-1.66,1.18-2.71,1.18-.94,0-1.71-.26-2.31-.79s-.9-1.2-.9-2.02c0-.99,.38-1.76,1.13-2.31s1.81-.82,3.18-.82h1.58v-.75c0-.57-.17-1.02-.51-1.36-.34-.34-.84-.5-1.5-.5-.58,0-1.07,.15-1.46,.44s-.59,.65-.59,1.06h-1.63c0-.47,.17-.93,.5-1.38s.79-.79,1.37-1.05,1.21-.39,1.9-.39c1.1,0,1.95,.27,2.58,.82s.94,1.3,.97,2.26v4.38c0,.87,.11,1.57,.33,2.08v.14h-1.71Zm-2.7-1.24c.51,0,.99-.13,1.45-.4s.79-.61,.99-1.03v-1.95h-1.27c-1.99,0-2.99,.58-2.99,1.75,0,.51,.17,.91,.51,1.2s.78,.43,1.31,.43Z"/><path class="cls-2" d="M537.02,196.77c0-1.46,.35-2.63,1.04-3.52,.69-.89,1.6-1.33,2.72-1.33s2,.38,2.65,1.14v-4.96h1.63v13.5h-1.49l-.08-1.02c-.65,.8-1.56,1.2-2.72,1.2s-2-.45-2.69-1.35-1.04-2.08-1.04-3.53v-.12Zm1.63,.18c0,1.08,.22,1.92,.67,2.53s1.06,.91,1.85,.91c1.03,0,1.78-.46,2.26-1.39v-4.37c-.49-.9-1.23-1.34-2.24-1.34-.8,0-1.42,.31-1.86,.92s-.67,1.53-.67,2.73Z"/><path class="cls-2" d="M547.17,196.77c0-1.46,.35-2.63,1.04-3.52,.69-.89,1.6-1.33,2.72-1.33s2,.38,2.65,1.14v-4.96h1.63v13.5h-1.49l-.08-1.02c-.65,.8-1.56,1.2-2.72,1.2s-2-.45-2.69-1.35-1.04-2.08-1.04-3.53v-.12Zm1.63,.18c0,1.08,.22,1.92,.67,2.53s1.06,.91,1.85,.91c1.03,0,1.78-.46,2.26-1.39v-4.37c-.49-.9-1.23-1.34-2.24-1.34-.8,0-1.42,.31-1.86,.92s-.67,1.53-.67,2.73Z"/><path class="cls-2" d="M526.1,213.69l.04,1.05c.7-.82,1.64-1.23,2.82-1.23,1.33,0,2.24,.51,2.72,1.53,.32-.46,.73-.83,1.23-1.11s1.11-.42,1.8-.42c2.09,0,3.15,1.1,3.18,3.31v6.37h-1.63v-6.28c0-.68-.16-1.19-.47-1.53-.31-.34-.83-.5-1.56-.5-.6,0-1.1,.18-1.5,.54-.4,.36-.63,.85-.69,1.46v6.31h-1.63v-6.23c0-1.38-.68-2.07-2.03-2.07-1.07,0-1.8,.45-2.19,1.36v6.94h-1.63v-9.51h1.54Z"/><path class="cls-2" d="M539.92,218.36c0-.93,.18-1.77,.55-2.51s.88-1.32,1.53-1.72,1.4-.61,2.24-.61c1.29,0,2.34,.45,3.14,1.34s1.2,2.09,1.2,3.58v.11c0,.93-.18,1.76-.53,2.49-.35,.74-.86,1.31-1.52,1.72s-1.42,.62-2.27,.62c-1.29,0-2.33-.45-3.13-1.34s-1.2-2.08-1.2-3.56v-.11Zm1.63,.19c0,1.05,.24,1.9,.73,2.54s1.14,.96,1.96,.96,1.48-.32,1.97-.97c.49-.65,.73-1.55,.73-2.72,0-1.04-.25-1.89-.74-2.54-.5-.65-1.15-.97-1.97-.97s-1.45,.32-1.94,.96-.74,1.55-.74,2.74Z"/><path class="cls-2" d="M550.22,218.37c0-1.46,.35-2.63,1.04-3.52,.69-.89,1.6-1.33,2.72-1.33s2,.38,2.65,1.14v-4.96h1.63v13.5h-1.49l-.08-1.02c-.65,.8-1.56,1.2-2.72,1.2s-2-.45-2.69-1.35-1.04-2.08-1.04-3.53v-.12Zm1.63,.18c0,1.08,.22,1.92,.67,2.53s1.06,.91,1.85,.91c1.03,0,1.78-.46,2.26-1.39v-4.37c-.49-.9-1.23-1.34-2.24-1.34-.8,0-1.42,.31-1.86,.92s-.67,1.53-.67,2.73Z"/><path class="cls-2" d="M545.83,244.8h-8.38v-1.17l4.43-4.92c.66-.74,1.11-1.35,1.36-1.82,.25-.46,.37-.95,.37-1.45,0-.67-.2-1.22-.61-1.64s-.94-.64-1.62-.64c-.81,0-1.44,.23-1.89,.69-.45,.46-.67,1.1-.67,1.92h-1.63c0-1.18,.38-2.13,1.14-2.86s1.77-1.09,3.05-1.09c1.19,0,2.13,.31,2.82,.94,.69,.62,1.04,1.46,1.04,2.49,0,1.26-.8,2.76-2.41,4.5l-3.43,3.72h6.42v1.33Z"/></g><g><line class="cls-6" x1="397.44" y1="349.92" x2="495.09" y2="258.53"/><polygon class="cls-2" points="496.31 266.41 509.76 244.8 487.31 256.79 496.31 266.41"/></g><line class="cls-6" x1="498.24" y1="213.12" x2="322.56" y2="213.12"/><circle class="cls-5" cx="541.44" cy="213.12" r="43.2"/><line class="cls-4" x1="396" y1="398.88" x2="391.68" y2="407.52"/><line class="cls-4" x1="400.32" y1="407.52" x2="396" y2="398.88"/><line class="cls-6" x1="396" y1="407.52" x2="396" y2="436.32"/><line class="cls-4" x1="540" y1="398.88" x2="535.68" y2="407.52"/><line class="cls-4" x1="544.32" y1="407.52" x2="540" y2="398.88"/><line class="cls-6" x1="540" y1="407.52" x2="540" y2="436.32"/><line class="cls-4" x1="684" y1="398.88" x2="679.68" y2="407.52"/><line class="cls-4" x1="688.32" y1="407.52" x2="684" y2="398.88"/><line class="cls-6" x1="684" y1="407.52" x2="684" y2="436.32"/><line class="cls-6" x1="684" y1="436.32" x2="358.56" y2="436.32"/><circle class="cls-6" cx="396" cy="436.32" r="1.44"/><circle class="cls-6" cx="540" cy="436.32" r="1.44"/><text class="cls-3" transform="translate(372.96 460.8)"><tspan x="0" y="0">Clock</tspan></text><text class="cls-3" transform="translate(334.08 207.36)"><tspan class="cls-1" x="0" y="0">F</tspan><tspan x="9.76" y="0">eedback</tspan></text></svg>