<?xml version="1.0" encoding="UTF-8"?><svg xmlns="http://www.w3.org/2000/svg" viewBox="0 0 1080 600.48"><defs><style>.cls-1{stroke-width:3px;}.cls-1,.cls-2,.cls-3,.cls-4{fill:none;stroke:#1d1e1b;stroke-miterlimit:10;}.cls-5{fill:#1d1e1b;}.cls-2{stroke-width:2px;}.cls-3{stroke-width:2px;}</style></defs><g id="TEXT_Vector"><path class="cls-5" d="M84.87,101.02h-1.63v-10.84l-3.28,1.2v-1.48l4.66-1.75h.25v12.86Z"/><path class="cls-5" d="M87.91,158.62h-8.38v-1.17l4.43-4.92c.66-.74,1.11-1.35,1.36-1.81s.37-.95,.37-1.45c0-.67-.2-1.22-.61-1.64s-.94-.64-1.62-.64c-.81,0-1.44,.23-1.89,.69s-.67,1.1-.67,1.92h-1.63c0-1.18,.38-2.13,1.14-2.86s1.77-1.09,3.05-1.09c1.19,0,2.13,.31,2.82,.94s1.04,1.45,1.04,2.49c0,1.26-.8,2.76-2.41,4.5l-3.43,3.72h6.42v1.33Z"/><path class="cls-5" d="M81.89,209.03h1.22c.77-.01,1.37-.21,1.81-.61s.66-.92,.66-1.59c0-1.5-.75-2.25-2.24-2.25-.7,0-1.26,.2-1.68,.6s-.63,.93-.63,1.6h-1.63c0-1.01,.37-1.86,1.11-2.53s1.68-1.01,2.83-1.01c1.21,0,2.15,.32,2.84,.96s1.03,1.53,1.03,2.66c0,.56-.18,1.1-.54,1.62s-.85,.91-1.47,1.17c.7,.22,1.25,.59,1.63,1.11s.58,1.15,.58,1.89c0,1.15-.38,2.06-1.12,2.73s-1.73,1.01-2.93,1.01-2.18-.33-2.93-.98-1.13-1.51-1.13-2.58h1.63c0,.67,.22,1.21,.66,1.62s1.03,.61,1.77,.61c.79,0,1.39-.21,1.8-.62s.62-1,.62-1.77-.23-1.32-.69-1.71-1.12-.6-1.98-.62h-1.22v-1.33Z"/><path class="cls-5" d="M86.39,269.52h1.78v1.33h-1.78v2.97h-1.63v-2.97h-5.83v-.96l5.73-8.87h1.73v8.5Zm-5.62,0h3.98v-6.28l-.19,.35-3.79,5.92Z"/><path class="cls-5" d="M80.28,325l.65-6.38h6.56v1.5h-5.18l-.39,3.49c.63-.37,1.34-.55,2.14-.55,1.17,0,2.09,.39,2.78,1.16s1.03,1.81,1.03,3.12-.36,2.36-1.07,3.12-1.71,1.14-2.98,1.14c-1.13,0-2.05-.31-2.77-.94s-1.12-1.49-1.22-2.6h1.54c.1,.73,.36,1.29,.78,1.66s.98,.56,1.67,.56c.76,0,1.35-.26,1.78-.77s.65-1.23,.65-2.14c0-.86-.23-1.54-.7-2.06s-1.09-.78-1.86-.78c-.71,0-1.27,.16-1.67,.47l-.43,.35-1.3-.33Z"/><path class="cls-5" d="M85.91,376.21v1.38h-.3c-1.27,.02-2.27,.4-3.02,1.12s-1.18,1.75-1.3,3.07c.67-.77,1.59-1.16,2.76-1.16s2,.39,2.67,1.18,1,1.8,1,3.04c0,1.32-.36,2.37-1.08,3.16s-1.68,1.19-2.89,1.19-2.22-.47-2.98-1.41-1.14-2.15-1.14-3.63v-.62c0-2.36,.5-4.16,1.51-5.4s2.5-1.88,4.49-1.91h.29Zm-2.14,5.77c-.56,0-1.07,.17-1.54,.5s-.79,.75-.98,1.26v.6c0,1.05,.24,1.9,.71,2.55s1.07,.97,1.78,.97,1.31-.27,1.73-.81,.63-1.25,.63-2.12-.21-1.59-.64-2.13-.99-.81-1.69-.81Z"/><path class="cls-5" d="M87.79,434.73l-5.3,11.88h-1.71l5.28-11.46h-6.93v-1.34h8.65v.91Z"/><g><path class="cls-5" d="M338.3,101.02h-1.63v-10.84l-3.28,1.2v-1.48l4.66-1.75h.25v12.86Z"/><path class="cls-5" d="M349.93,96.72h1.78v1.33h-1.78v2.97h-1.63v-2.97h-5.83v-.96l5.73-8.87h1.73v8.5Zm-5.62,0h3.98v-6.28l-.19,.35-3.79,5.92Z"/></g><g><path class="cls-5" d="M338.3,158.62h-1.63v-10.84l-3.28,1.2v-1.48l4.66-1.75h.25v12.86Z"/><path class="cls-5" d="M345.43,151.43h1.22c.77-.01,1.37-.21,1.81-.61s.66-.92,.66-1.59c0-1.5-.75-2.25-2.24-2.25-.7,0-1.26,.2-1.68,.6s-.63,.93-.63,1.6h-1.63c0-1.01,.37-1.86,1.11-2.53s1.68-1.01,2.83-1.01c1.21,0,2.15,.32,2.84,.96s1.03,1.53,1.03,2.66c0,.56-.18,1.1-.54,1.62s-.85,.91-1.47,1.17c.7,.22,1.25,.59,1.63,1.11s.58,1.15,.58,1.89c0,1.15-.38,2.06-1.12,2.73s-1.73,1.01-2.93,1.01-2.18-.33-2.93-.98-1.13-1.51-1.13-2.58h1.63c0,.67,.22,1.21,.66,1.62s1.03,.61,1.77,.61c.79,0,1.39-.21,1.8-.62s.62-1,.62-1.77-.23-1.32-.69-1.71-1.12-.6-1.98-.62h-1.22v-1.33Z"/></g><g><path class="cls-5" d="M338.3,216.22h-1.63v-10.84l-3.28,1.2v-1.48l4.66-1.75h.25v12.86Z"/><path class="cls-5" d="M351.45,216.22h-8.38v-1.17l4.43-4.92c.66-.74,1.11-1.35,1.36-1.81s.37-.95,.37-1.45c0-.67-.2-1.22-.61-1.64s-.94-.64-1.62-.64c-.81,0-1.44,.23-1.89,.69s-.67,1.1-.67,1.92h-1.63c0-1.18,.38-2.13,1.14-2.86s1.77-1.09,3.05-1.09c1.19,0,2.13,.31,2.82,.94s1.04,1.45,1.04,2.49c0,1.26-.8,2.76-2.41,4.5l-3.43,3.72h6.42v1.33Z"/></g><g><path class="cls-5" d="M338.3,273.82h-1.63v-10.84l-3.28,1.2v-1.48l4.66-1.75h.25v12.86Z"/><path class="cls-5" d="M348.41,273.82h-1.63v-10.84l-3.28,1.2v-1.48l4.66-1.75h.25v12.86Z"/></g><g><path class="cls-5" d="M338.3,331.42h-1.63v-10.84l-3.28,1.2v-1.48l4.66-1.75h.25v12.86Z"/><path class="cls-5" d="M351.09,325.96c0,1.9-.33,3.32-.98,4.25s-1.67,1.39-3.05,1.39-2.38-.45-3.03-1.36-1-2.26-1.02-4.06v-2.17c0-1.88,.33-3.28,.98-4.19s1.67-1.37,3.06-1.37,2.39,.44,3.04,1.32,.98,2.24,1,4.08v2.11Zm-1.63-2.22c0-1.38-.19-2.38-.58-3.01s-1-.95-1.84-.95-1.44,.31-1.82,.94-.58,1.59-.59,2.89v2.6c0,1.38,.2,2.4,.6,3.06s1.01,.99,1.82,.99,1.4-.31,1.79-.93,.59-1.6,.61-2.94v-2.66Z"/></g><path class="cls-5" d="M344.96,383.39c-.34,.4-.75,.73-1.22,.98s-.99,.37-1.55,.37c-.74,0-1.38-.18-1.93-.54s-.97-.88-1.27-1.53-.45-1.39-.45-2.18c0-.86,.16-1.63,.49-2.31s.79-1.21,1.38-1.57,1.29-.54,2.09-.54c1.27,0,2.26,.47,2.99,1.42s1.09,2.24,1.09,3.87v.47c0,2.49-.49,4.31-1.48,5.45s-2.47,1.73-4.46,1.76h-.32v-1.38h.34c1.34-.02,2.37-.37,3.09-1.05,.72-.68,1.11-1.74,1.18-3.21Zm-2.5,0c.54,0,1.05-.17,1.51-.5s.8-.75,1.01-1.24v-.65c0-1.07-.23-1.93-.69-2.6s-1.05-1-1.76-1-1.29,.27-1.72,.82-.65,1.27-.65,2.17,.21,1.59,.63,2.16,.98,.85,1.68,.85Z"/><path class="cls-5" d="M346.49,437.16c0,.64-.17,1.21-.51,1.71s-.79,.89-1.37,1.17c.67,.29,1.2,.71,1.59,1.26s.58,1.17,.58,1.87c0,1.11-.37,1.99-1.12,2.65s-1.73,.98-2.95,.98-2.22-.33-2.96-.99-1.11-1.54-1.11-2.64c0-.69,.19-1.32,.57-1.87s.9-.98,1.57-1.27c-.57-.28-1.02-.67-1.34-1.17s-.49-1.06-.49-1.7c0-1.08,.35-1.93,1.04-2.57s1.6-.95,2.73-.95,2.03,.32,2.73,.95,1.04,1.49,1.04,2.57Zm-1.33,5.97c0-.71-.23-1.3-.68-1.75s-1.05-.68-1.78-.68-1.32,.22-1.76,.67-.66,1.03-.66,1.76,.22,1.3,.65,1.71,1.03,.62,1.8,.62,1.36-.21,1.79-.63,.65-.99,.65-1.71Zm-2.44-8.15c-.64,0-1.16,.2-1.55,.59s-.59,.93-.59,1.61,.19,1.18,.58,1.58,.91,.6,1.56,.6,1.17-.2,1.56-.6,.58-.93,.58-1.58-.2-1.18-.61-1.59-.92-.62-1.54-.62Z"/><g><path class="cls-5" d="M110.96,444.38l3.66-10.56h1.85l-4.75,12.8h-1.49l-4.74-12.8h1.84l3.64,10.56Z"/><path class="cls-5" d="M120.19,442.81c-.96-.28-1.67-.62-2.11-1.02s-.66-.9-.66-1.5c0-.67,.27-1.23,.81-1.67s1.24-.66,2.09-.66c.59,0,1.11,.11,1.57,.34s.81,.54,1.07,.94,.38,.83,.38,1.31h-1.13c0-.52-.16-.92-.49-1.22s-.79-.44-1.39-.44c-.55,0-.99,.12-1.3,.37-.31,.24-.47,.58-.47,1.02,0,.35,.15,.64,.44,.88,.29,.24,.8,.46,1.51,.66,.71,.2,1.26,.42,1.66,.66s.7,.52,.89,.84,.29,.7,.29,1.13c0,.69-.27,1.25-.81,1.66s-1.26,.62-2.16,.62c-.59,0-1.13-.11-1.64-.34s-.9-.53-1.17-.92-.41-.83-.41-1.33h1.13c0,.52,.19,.92,.57,1.22s.89,.45,1.53,.45c.59,0,1.05-.12,1.37-.36s.47-.57,.47-.99-.15-.74-.44-.97-.82-.45-1.59-.68Z"/><path class="cls-5" d="M127.31,442.81c-.96-.28-1.67-.62-2.11-1.02s-.66-.9-.66-1.5c0-.67,.27-1.23,.81-1.67s1.24-.66,2.09-.66c.59,0,1.11,.11,1.57,.34s.81,.54,1.07,.94,.38,.83,.38,1.31h-1.13c0-.52-.16-.92-.49-1.22s-.79-.44-1.39-.44c-.55,0-.99,.12-1.3,.37-.31,.24-.47,.58-.47,1.02,0,.35,.15,.64,.44,.88,.29,.24,.8,.46,1.51,.66,.71,.2,1.26,.42,1.66,.66s.7,.52,.89,.84,.29,.7,.29,1.13c0,.69-.27,1.25-.81,1.66s-1.26,.62-2.16,.62c-.59,0-1.13-.11-1.64-.34s-.9-.53-1.17-.92-.41-.83-.41-1.33h1.13c0,.52,.19,.92,.57,1.22s.89,.45,1.53,.45c.59,0,1.05-.12,1.37-.36s.47-.57,.47-.99-.15-.74-.44-.97-.82-.45-1.59-.68Z"/></g><g><path class="cls-5" d="M295.97,98.78l3.66-10.56h1.85l-4.75,12.8h-1.49l-4.74-12.8h1.84l3.64,10.56Z"/><path class="cls-5" d="M302.69,101.02v-8.53h2.41c.74,0,1.4,.16,1.97,.49s1.01,.79,1.32,1.4,.47,1.3,.47,2.09v.54c0,.8-.16,1.51-.47,2.12s-.75,1.07-1.33,1.39-1.25,.49-2.01,.5h-2.36Zm1.12-7.61v6.69h1.18c.87,0,1.54-.27,2.02-.81,.48-.54,.72-1.31,.72-2.3v-.5c0-.97-.23-1.72-.68-2.26-.46-.54-1.1-.81-1.94-.82h-1.31Z"/><path class="cls-5" d="M310.56,101.02v-8.53h2.41c.74,0,1.4,.16,1.97,.49s1.01,.79,1.32,1.4,.47,1.3,.47,2.09v.54c0,.8-.16,1.51-.47,2.12s-.75,1.07-1.33,1.39-1.25,.49-2.01,.5h-2.36Zm1.12-7.61v6.69h1.18c.87,0,1.54-.27,2.02-.81,.48-.54,.72-1.31,.72-2.3v-.5c0-.97-.23-1.72-.68-2.26-.46-.54-1.1-.81-1.94-.82h-1.31Z"/></g><path class="cls-5" d="M732.16,108.58h-3.01v5.18h-1.7v-12.8h4.24c1.44,0,2.55,.33,3.33,.98s1.16,1.61,1.16,2.87c0,.8-.21,1.49-.65,2.08s-1.03,1.03-1.8,1.33l3.01,5.43v.11h-1.81l-2.78-5.18Zm-3.01-1.38h2.59c.84,0,1.5-.22,2-.65,.5-.43,.74-1.02,.74-1.74,0-.79-.24-1.4-.71-1.82-.47-.42-1.15-.64-2.04-.64h-2.58v4.86Z"/><path class="cls-5" d="M640.08,384.74c-.16,1.35-.66,2.4-1.5,3.13s-1.96,1.1-3.35,1.1c-1.51,0-2.72-.54-3.63-1.63s-1.37-2.53-1.37-4.35v-1.23c0-1.19,.21-2.24,.64-3.14s1.03-1.6,1.81-2.08,1.68-.72,2.71-.72c1.36,0,2.45,.38,3.27,1.14s1.3,1.81,1.43,3.15h-1.7c-.15-1.02-.46-1.76-.95-2.22-.49-.46-1.17-.69-2.05-.69-1.08,0-1.92,.4-2.54,1.2s-.92,1.93-.92,3.4v1.24c0,1.39,.29,2.5,.87,3.32,.58,.82,1.39,1.23,2.43,1.23,.94,0,1.66-.21,2.16-.64s.83-1.16,1-2.22h1.7Z"/><g><path class="cls-5" d="M961.96,254.08l3.66-10.56h1.85l-4.75,12.8h-1.49l-4.74-12.8h1.84l3.64,10.56Z"/><path class="cls-5" d="M975.24,252.33c0,.84-.14,1.57-.42,2.19s-.68,1.1-1.2,1.43-1.12,.49-1.8,.49-1.27-.17-1.79-.5-.92-.8-1.21-1.41-.43-1.32-.44-2.12v-.62c0-.82,.14-1.54,.43-2.17s.69-1.11,1.21-1.44,1.12-.5,1.79-.5,1.29,.17,1.81,.5,.92,.81,1.2,1.44,.42,1.36,.42,2.19v.54Zm-1.12-.55c0-1.01-.2-1.79-.61-2.33s-.97-.81-1.71-.81-1.27,.27-1.68,.81-.62,1.29-.63,2.25v.63c0,.98,.21,1.75,.62,2.31s.98,.84,1.7,.84,1.29-.26,1.69-.79,.6-1.29,.62-2.28v-.63Z"/><path class="cls-5" d="M982.93,247.79v5.8c0,.8-.26,1.46-.76,1.97s-1.18,.8-2.04,.86h-.3c-.93,.01-1.68-.24-2.23-.74s-.84-1.2-.84-2.08v-5.81h1.11v5.78c0,.62,.17,1.1,.51,1.44s.82,.51,1.45,.51,1.12-.17,1.46-.51,.51-.82,.51-1.44v-5.78h1.13Z"/><path class="cls-5" d="M990.6,248.71h-2.74v7.61h-1.12v-7.61h-2.74v-.92h6.6v.92Z"/></g><g><path class="cls-5" d="M605.55,494.56l3.66-10.56h1.85l-4.75,12.8h-1.49l-4.74-12.8h1.84l3.64,10.56Z"/><path class="cls-5" d="M614.35,499.47c-.84-.24-1.46-.54-1.84-.89-.38-.35-.58-.79-.58-1.31,0-.59,.23-1.07,.7-1.46,.47-.38,1.08-.58,1.83-.58,.51,0,.97,.1,1.37,.3,.4,.2,.71,.47,.93,.82,.22,.35,.33,.73,.33,1.14h-.99c0-.45-.14-.81-.43-1.07-.29-.26-.69-.39-1.21-.39-.49,0-.86,.11-1.13,.32-.27,.21-.41,.51-.41,.89,0,.3,.13,.56,.39,.77,.26,.21,.7,.4,1.32,.58,.62,.17,1.11,.37,1.46,.58,.35,.21,.61,.46,.78,.74s.25,.61,.25,.99c0,.61-.24,1.09-.71,1.45-.47,.36-1.1,.55-1.89,.55-.51,0-.99-.1-1.44-.29-.44-.2-.79-.47-1.03-.81-.24-.34-.36-.73-.36-1.16h.99c0,.45,.17,.81,.5,1.07,.33,.26,.78,.39,1.33,.39,.52,0,.92-.11,1.19-.32s.42-.5,.42-.87-.13-.65-.38-.85c-.26-.2-.72-.4-1.39-.59Z"/><path class="cls-5" d="M620.57,499.47c-.84-.24-1.46-.54-1.84-.89-.38-.35-.58-.79-.58-1.31,0-.59,.23-1.07,.7-1.46,.47-.38,1.08-.58,1.83-.58,.51,0,.97,.1,1.37,.3,.4,.2,.71,.47,.93,.82,.22,.35,.33,.73,.33,1.14h-.99c0-.45-.14-.81-.43-1.07-.29-.26-.69-.39-1.21-.39-.49,0-.86,.11-1.13,.32-.27,.21-.41,.51-.41,.89,0,.3,.13,.56,.39,.77,.26,.21,.7,.4,1.32,.58,.62,.17,1.11,.37,1.46,.58,.35,.21,.61,.46,.78,.74s.25,.61,.25,.99c0,.61-.24,1.09-.71,1.45-.47,.36-1.1,.55-1.89,.55-.51,0-.99-.1-1.44-.29-.44-.2-.79-.47-1.03-.81-.24-.34-.36-.73-.36-1.16h.99c0,.45,.17,.81,.5,1.07,.33,.26,.78,.39,1.33,.39,.52,0,.92-.11,1.19-.32s.42-.5,.42-.87-.13-.65-.38-.85c-.26-.2-.72-.4-1.39-.59Z"/><path class="cls-5" d="M629.36,491.61c0-1.32,.18-2.6,.53-3.81s.88-2.33,1.59-3.32,1.43-1.7,2.19-2.11l.33,1.07c-.86,.66-1.56,1.66-2.11,3.01s-.85,2.86-.9,4.53v.75c0,2.26,.4,4.22,1.23,5.89,.5,1,1.09,1.78,1.78,2.34l-.33,.99c-.78-.43-1.52-1.16-2.23-2.18-1.38-1.99-2.07-4.37-2.07-7.15Z"/><path class="cls-5" d="M645.28,495.12c-.43,.62-1.04,1.08-1.82,1.39s-1.68,.46-2.71,.46-1.97-.25-2.78-.73-1.43-1.18-1.88-2.09-.67-1.95-.68-3.14v-1.12c0-1.93,.45-3.42,1.35-4.48s2.16-1.59,3.79-1.59c1.34,0,2.41,.34,3.23,1.02s1.31,1.65,1.49,2.91h-1.69c-.32-1.7-1.32-2.55-3.02-2.55-1.13,0-1.99,.4-2.57,1.19-.58,.79-.88,1.95-.88,3.45v1.05c0,1.44,.33,2.58,.98,3.43s1.54,1.27,2.66,1.27c.63,0,1.19-.07,1.66-.21,.47-.14,.87-.38,1.18-.71v-2.87h-2.96v-1.38h4.64v4.69Z"/><path class="cls-5" d="M652.43,488.75c-.25-.04-.51-.06-.8-.06-1.07,0-1.79,.45-2.17,1.36v6.75h-1.63v-9.51h1.58l.03,1.1c.53-.85,1.29-1.27,2.27-1.27,.32,0,.56,.04,.72,.12v1.51Z"/><path class="cls-5" d="M653.32,491.96c0-.93,.18-1.77,.55-2.51s.88-1.32,1.53-1.72,1.4-.61,2.24-.61c1.29,0,2.34,.45,3.14,1.34s1.2,2.09,1.2,3.58v.11c0,.93-.18,1.76-.53,2.49s-.86,1.31-1.52,1.72-1.42,.62-2.27,.62c-1.29,0-2.33-.45-3.13-1.34s-1.2-2.08-1.2-3.56v-.11Zm1.63,.19c0,1.05,.24,1.9,.73,2.54s1.14,.96,1.96,.96,1.48-.32,1.97-.97,.73-1.55,.73-2.72c0-1.04-.25-1.89-.74-2.54s-1.15-.97-1.97-.97-1.45,.32-1.94,.96-.74,1.55-.74,2.74Z"/><path class="cls-5" d="M669.89,495.86c-.63,.74-1.56,1.12-2.79,1.12-1.01,0-1.79-.29-2.32-.88s-.8-1.46-.8-2.61v-6.19h1.63v6.14c0,1.44,.59,2.16,1.76,2.16,1.24,0,2.07-.46,2.48-1.39v-6.92h1.63v9.51h-1.55l-.04-.94Z"/><path class="cls-5" d="M675.48,487.29l.05,1.2c.73-.91,1.68-1.37,2.85-1.37,2.01,0,3.02,1.13,3.04,3.4v6.28h-1.63v-6.29c0-.69-.16-1.19-.47-1.52s-.79-.49-1.44-.49c-.53,0-.99,.14-1.39,.42s-.71,.65-.93,1.11v6.78h-1.63v-9.51h1.54Z"/><path class="cls-5" d="M683.47,491.97c0-1.46,.35-2.63,1.04-3.52s1.6-1.33,2.72-1.33,2,.38,2.65,1.14v-4.96h1.63v13.5h-1.49l-.08-1.02c-.65,.8-1.56,1.2-2.72,1.2s-2-.45-2.69-1.35-1.04-2.08-1.04-3.53v-.12Zm1.63,.18c0,1.08,.22,1.92,.67,2.53s1.06,.91,1.85,.91c1.03,0,1.78-.46,2.26-1.39v-4.37c-.49-.9-1.23-1.34-2.24-1.34-.8,0-1.42,.31-1.86,.92s-.67,1.53-.67,2.73Z"/><path class="cls-5" d="M697.77,491.69c0,1.31-.17,2.56-.51,3.76s-.87,2.3-1.57,3.32-1.45,1.73-2.22,2.16l-.34-.99c.9-.69,1.63-1.77,2.17-3.22s.83-3.07,.84-4.85v-.28c0-1.23-.13-2.38-.39-3.43s-.62-2-1.08-2.84-.98-1.49-1.55-1.96l.34-.99c.77,.43,1.51,1.14,2.21,2.14s1.22,2.11,1.57,3.31,.52,2.5,.52,3.88Z"/></g><g><path class="cls-5" d="M189.14,515.78c-.16,1.35-.66,2.4-1.5,3.13s-1.96,1.1-3.35,1.1c-1.51,0-2.72-.54-3.63-1.63s-1.37-2.53-1.37-4.35v-1.23c0-1.19,.21-2.24,.64-3.14s1.03-1.6,1.81-2.08,1.68-.72,2.71-.72c1.36,0,2.45,.38,3.27,1.14s1.3,1.81,1.43,3.15h-1.7c-.15-1.02-.46-1.76-.95-2.22-.49-.46-1.17-.69-2.05-.69-1.08,0-1.92,.4-2.54,1.2s-.92,1.93-.92,3.4v1.24c0,1.39,.29,2.5,.87,3.32,.58,.82,1.39,1.23,2.43,1.23,.94,0,1.66-.21,2.16-.64s.83-1.16,1-2.22h1.7Z"/><path class="cls-5" d="M191.45,519.84v-12.8h3.61c1.11,0,2.1,.25,2.95,.74s1.52,1.19,1.98,2.1,.7,1.95,.71,3.13v.82c0,1.21-.23,2.26-.7,3.17s-1.13,1.61-2,2.09-1.87,.74-3.02,.75h-3.54Zm1.69-11.42v10.04h1.78c1.3,0,2.31-.41,3.04-1.21,.72-.81,1.09-1.96,1.09-3.46v-.75c0-1.45-.34-2.58-1.02-3.39-.68-.81-1.65-1.21-2.9-1.23h-1.97Z"/><path class="cls-5" d="M209.69,515.54h1.78v1.33h-1.78v2.97h-1.63v-2.97h-5.83v-.96l5.73-8.87h1.73v8.5Zm-5.62,0h3.98v-6.28l-.19,.35-3.79,5.92Z"/><path class="cls-5" d="M220.96,514.38c0,1.9-.33,3.32-.98,4.25s-1.67,1.39-3.05,1.39-2.38-.45-3.03-1.36-1-2.26-1.02-4.06v-2.17c0-1.88,.33-3.28,.98-4.19s1.67-1.37,3.06-1.37,2.39,.44,3.04,1.32,.98,2.24,1,4.08v2.11Zm-1.63-2.22c0-1.38-.19-2.38-.58-3.01s-1-.94-1.84-.94-1.44,.31-1.82,.94-.58,1.59-.59,2.89v2.6c0,1.38,.2,2.4,.6,3.06s1.01,.99,1.82,.99,1.4-.31,1.79-.93,.59-1.6,.61-2.94v-2.66Z"/><path class="cls-5" d="M228.39,519.84h-1.63v-10.84l-3.28,1.2v-1.48l4.66-1.75h.25v12.86Z"/><path class="cls-5" d="M241.18,514.38c0,1.9-.33,3.32-.98,4.25s-1.67,1.39-3.05,1.39-2.38-.45-3.03-1.36-1-2.26-1.02-4.06v-2.17c0-1.88,.33-3.28,.98-4.19s1.67-1.37,3.06-1.37,2.39,.44,3.04,1.32,.98,2.24,1,4.08v2.11Zm-1.63-2.22c0-1.38-.19-2.38-.58-3.01s-1-.94-1.84-.94-1.44,.31-1.82,.94-.58,1.59-.59,2.89v2.6c0,1.38,.2,2.4,.6,3.06s1.01,.99,1.82,.99,1.4-.31,1.79-.93,.59-1.6,.61-2.94v-2.66Z"/><path class="cls-5" d="M249.64,507.03v1.38h-.3c-1.27,.02-2.27,.4-3.02,1.12s-1.18,1.75-1.3,3.07c.67-.77,1.59-1.16,2.76-1.16s2,.39,2.67,1.18,1,1.8,1,3.04c0,1.32-.36,2.37-1.08,3.16s-1.68,1.19-2.89,1.19-2.22-.47-2.98-1.41-1.14-2.15-1.14-3.63v-.62c0-2.36,.5-4.16,1.51-5.4s2.5-1.88,4.49-1.91h.29Zm-2.14,5.77c-.56,0-1.07,.17-1.54,.5s-.79,.75-.98,1.26v.6c0,1.05,.24,1.9,.71,2.55s1.07,.97,1.78,.97,1.31-.27,1.73-.81,.63-1.25,.63-2.12-.21-1.59-.64-2.13-.99-.81-1.69-.81Z"/></g><g><path class="cls-5" d="M766.15,316.8h-1.63v-10.84l-3.28,1.2v-1.48l4.66-1.75h.25v12.86Z"/><path class="cls-5" d="M771.4,317.9h-1.4l5.34-13.9h1.39l-5.33,13.9Z"/><path class="cls-5" d="M784.71,303.99v1.38h-.3c-1.27,.02-2.27,.4-3.02,1.12s-1.18,1.75-1.3,3.07c.67-.77,1.59-1.16,2.76-1.16s2,.39,2.67,1.18,1,1.8,1,3.04c0,1.32-.36,2.37-1.08,3.16s-1.68,1.19-2.89,1.19-2.22-.47-2.98-1.41-1.14-2.15-1.14-3.63v-.62c0-2.36,.5-4.16,1.51-5.4s2.5-1.88,4.49-1.91h.29Zm-2.14,5.77c-.56,0-1.07,.17-1.54,.5s-.79,.75-.98,1.26v.6c0,1.05,.24,1.9,.71,2.55s1.07,.97,1.78,.97,1.31-.27,1.73-.81,.63-1.25,.63-2.12-.21-1.59-.64-2.13-.99-.81-1.69-.81Z"/><path class="cls-5" d="M802.73,312.74c-.16,1.35-.66,2.4-1.5,3.13s-1.96,1.1-3.35,1.1c-1.51,0-2.72-.54-3.63-1.63s-1.37-2.53-1.37-4.35v-1.23c0-1.19,.21-2.24,.64-3.14s1.03-1.59,1.81-2.08,1.68-.73,2.71-.73c1.36,0,2.45,.38,3.27,1.14s1.3,1.81,1.43,3.15h-1.7c-.15-1.02-.46-1.76-.95-2.22-.49-.46-1.17-.69-2.05-.69-1.08,0-1.92,.4-2.54,1.2-.61,.8-.92,1.93-.92,3.4v1.24c0,1.39,.29,2.5,.87,3.32,.58,.82,1.39,1.23,2.43,1.23,.94,0,1.66-.21,2.16-.64s.83-1.17,1-2.22h1.7Z"/><path class="cls-5" d="M805.03,316.8v-12.8h3.61c1.11,0,2.1,.25,2.95,.74s1.52,1.19,1.98,2.1,.7,1.95,.71,3.13v.82c0,1.21-.23,2.26-.7,3.17s-1.13,1.61-2,2.09-1.87,.74-3.02,.75h-3.54Zm1.69-11.42v10.04h1.78c1.3,0,2.31-.4,3.04-1.21,.72-.81,1.09-1.96,1.09-3.46v-.75c0-1.45-.34-2.58-1.02-3.39s-1.65-1.22-2.9-1.23h-1.97Z"/><path class="cls-5" d="M823.28,312.5h1.78v1.33h-1.78v2.97h-1.63v-2.97h-5.83v-.96l5.73-8.87h1.73v8.5Zm-5.62,0h3.98v-6.28l-.19,.35-3.79,5.92Z"/><path class="cls-5" d="M834.54,311.34c0,1.9-.33,3.32-.98,4.25s-1.67,1.39-3.05,1.39-2.38-.45-3.03-1.36-1-2.26-1.02-4.06v-2.17c0-1.88,.33-3.28,.98-4.19s1.67-1.37,3.06-1.37,2.39,.44,3.04,1.32,.98,2.24,1,4.08v2.11Zm-1.63-2.22c0-1.38-.19-2.38-.58-3.01s-1-.95-1.84-.95-1.44,.31-1.82,.94-.58,1.59-.59,2.89v2.6c0,1.38,.2,2.4,.6,3.06s1.01,.99,1.82,.99,1.4-.31,1.79-.93,.59-1.6,.61-2.94v-2.66Z"/><path class="cls-5" d="M841.97,316.8h-1.63v-10.84l-3.28,1.2v-1.48l4.66-1.75h.25v12.86Z"/><path class="cls-5" d="M854.76,311.34c0,1.9-.33,3.32-.98,4.25s-1.67,1.39-3.05,1.39-2.38-.45-3.03-1.36-1-2.26-1.02-4.06v-2.17c0-1.88,.33-3.28,.98-4.19s1.67-1.37,3.06-1.37,2.39,.44,3.04,1.32,.98,2.24,1,4.08v2.11Zm-1.63-2.22c0-1.38-.19-2.38-.58-3.01s-1-.95-1.84-.95-1.44,.31-1.82,.94-.58,1.59-.59,2.89v2.6c0,1.38,.2,2.4,.6,3.06s1.01,.99,1.82,.99,1.4-.31,1.79-.93,.59-1.6,.61-2.94v-2.66Z"/><path class="cls-5" d="M863.22,303.99v1.38h-.3c-1.27,.02-2.27,.4-3.02,1.12s-1.18,1.75-1.3,3.07c.67-.77,1.59-1.16,2.76-1.16s2,.39,2.67,1.18,1,1.8,1,3.04c0,1.32-.36,2.37-1.08,3.16s-1.68,1.19-2.89,1.19-2.22-.47-2.98-1.41-1.14-2.15-1.14-3.63v-.62c0-2.36,.5-4.16,1.51-5.4s2.5-1.88,4.49-1.91h.29Zm-2.14,5.77c-.56,0-1.07,.17-1.54,.5s-.79,.75-.98,1.26v.6c0,1.05,.24,1.9,.71,2.55s1.07,.97,1.78,.97,1.31-.27,1.73-.81,.63-1.25,.63-2.12-.21-1.59-.64-2.13-.99-.81-1.69-.81Z"/></g><g><path class="cls-5" d="M734.72,203.68l3.66-10.56h1.85l-4.75,12.8h-1.49l-4.74-12.8h1.84l3.64,10.56Z"/><path class="cls-5" d="M741.31,211.91v-7.46h2.11c.65,0,1.22,.14,1.72,.43,.5,.29,.88,.7,1.16,1.22,.27,.53,.41,1.14,.41,1.82v.48c0,.7-.14,1.32-.41,1.85-.27,.53-.66,.94-1.16,1.22s-1.09,.43-1.76,.44h-2.07Zm.98-6.66v5.85h1.04c.76,0,1.35-.24,1.77-.71s.63-1.14,.63-2.02v-.44c0-.85-.2-1.51-.6-1.98-.4-.47-.96-.71-1.69-.72h-1.15Z"/><path class="cls-5" d="M748.19,211.91v-7.46h2.11c.65,0,1.22,.14,1.72,.43,.5,.29,.88,.7,1.16,1.22,.27,.53,.41,1.14,.41,1.82v.48c0,.7-.14,1.32-.41,1.85-.27,.53-.66,.94-1.16,1.22s-1.09,.43-1.76,.44h-2.07Zm.98-6.66v5.85h1.04c.76,0,1.35-.24,1.77-.71s.63-1.14,.63-2.02v-.44c0-.85-.2-1.51-.6-1.98-.4-.47-.96-.71-1.69-.72h-1.15Z"/></g><path class="cls-5" d="M642.15,269.82h-1.63v-10.84l-3.28,1.2v-1.48l4.66-1.75h.25v12.86Z"/><path class="cls-5" d="M794.95,261.18h-8.38v-1.17l4.43-4.92c.66-.74,1.11-1.35,1.36-1.81s.37-.95,.37-1.45c0-.67-.2-1.22-.61-1.64s-.94-.64-1.62-.64c-.81,0-1.44,.23-1.89,.69s-.67,1.1-.67,1.92h-1.63c0-1.18,.38-2.13,1.14-2.86s1.77-1.09,3.05-1.09c1.19,0,2.13,.31,2.82,.94s1.04,1.45,1.04,2.49c0,1.26-.8,2.76-2.41,4.5l-3.43,3.72h6.42v1.33Z"/><g><path class="cls-5" d="M734.3,236.7h-1.63v-10.84l-3.28,1.2v-1.48l4.66-1.75h.25v12.86Z"/><path class="cls-5" d="M745.93,232.4h1.78v1.33h-1.78v2.97h-1.63v-2.97h-5.83v-.96l5.73-8.87h1.73v8.5Zm-5.62,0h3.98v-6.28l-.19,.35-3.79,5.92Z"/></g><path class="cls-5" d="M735.79,314.1l-5.3,11.88h-1.71l5.28-11.46h-6.93v-1.34h8.65v.91Z"/><g><path class="cls-5" d="M735.15,376.48l3.66-10.56h1.85l-4.75,12.8h-1.49l-4.74-12.8h1.84l3.64,10.56Z"/><path class="cls-5" d="M743.95,381.39c-.84-.24-1.46-.54-1.84-.89-.38-.35-.58-.79-.58-1.31,0-.59,.24-1.07,.71-1.46,.47-.38,1.08-.58,1.83-.58,.51,0,.97,.1,1.37,.3,.4,.2,.71,.47,.93,.82,.22,.35,.33,.73,.33,1.14h-.99c0-.45-.14-.81-.43-1.07-.29-.26-.69-.39-1.21-.39-.49,0-.86,.11-1.14,.32-.27,.21-.41,.51-.41,.89,0,.3,.13,.56,.39,.77,.26,.21,.7,.4,1.32,.58s1.1,.37,1.46,.58,.61,.46,.78,.74c.17,.28,.25,.61,.25,.99,0,.61-.24,1.09-.71,1.45-.47,.36-1.1,.55-1.89,.55-.51,0-.99-.1-1.43-.29s-.79-.47-1.03-.81c-.24-.34-.36-.73-.36-1.16h.99c0,.45,.17,.81,.5,1.07,.33,.26,.78,.39,1.33,.39,.52,0,.92-.11,1.19-.32,.28-.21,.42-.5,.42-.87s-.13-.65-.38-.85c-.26-.2-.72-.4-1.39-.59Z"/><path class="cls-5" d="M750.17,381.39c-.84-.24-1.46-.54-1.84-.89-.38-.35-.58-.79-.58-1.31,0-.59,.24-1.07,.71-1.46,.47-.38,1.08-.58,1.83-.58,.51,0,.97,.1,1.37,.3,.4,.2,.71,.47,.93,.82,.22,.35,.33,.73,.33,1.14h-.99c0-.45-.14-.81-.43-1.07-.29-.26-.69-.39-1.21-.39-.49,0-.86,.11-1.14,.32-.27,.21-.41,.51-.41,.89,0,.3,.13,.56,.39,.77,.26,.21,.7,.4,1.32,.58s1.1,.37,1.46,.58,.61,.46,.78,.74c.17,.28,.25,.61,.25,.99,0,.61-.24,1.09-.71,1.45-.47,.36-1.1,.55-1.89,.55-.51,0-.99-.1-1.43-.29s-.79-.47-1.03-.81c-.24-.34-.36-.73-.36-1.16h.99c0,.45,.17,.81,.5,1.07,.33,.26,.78,.39,1.33,.39,.52,0,.92-.11,1.19-.32,.28-.21,.42-.5,.42-.87s-.13-.65-.38-.85c-.26-.2-.72-.4-1.39-.59Z"/><path class="cls-5" d="M758.96,373.53c0-1.32,.18-2.6,.53-3.81s.88-2.33,1.59-3.32,1.43-1.7,2.19-2.11l.33,1.07c-.86,.66-1.56,1.66-2.1,3.01s-.85,2.86-.9,4.53v.75c0,2.26,.4,4.22,1.23,5.89,.5,1,1.09,1.78,1.78,2.34l-.33,.99c-.78-.43-1.52-1.16-2.23-2.18-1.38-1.99-2.07-4.37-2.07-7.15Z"/><path class="cls-5" d="M774.88,377.04c-.43,.62-1.04,1.08-1.81,1.39s-1.68,.46-2.71,.46-1.97-.25-2.78-.73-1.43-1.18-1.88-2.09-.67-1.95-.68-3.14v-1.12c0-1.93,.45-3.42,1.35-4.48s2.16-1.59,3.79-1.59c1.34,0,2.41,.34,3.23,1.02s1.31,1.65,1.49,2.91h-1.69c-.32-1.7-1.32-2.55-3.02-2.55-1.13,0-1.99,.4-2.57,1.19-.58,.79-.88,1.95-.88,3.45v1.05c0,1.44,.33,2.58,.98,3.43s1.54,1.27,2.66,1.27c.63,0,1.19-.07,1.66-.21,.47-.14,.87-.38,1.18-.71v-2.87h-2.96v-1.38h4.64v4.69Z"/><path class="cls-5" d="M782.03,370.67c-.25-.04-.51-.06-.8-.06-1.07,0-1.79,.45-2.17,1.36v6.75h-1.63v-9.51h1.58l.03,1.1c.53-.85,1.29-1.27,2.27-1.27,.32,0,.56,.04,.72,.12v1.51Z"/><path class="cls-5" d="M782.92,373.88c0-.93,.18-1.77,.55-2.51s.88-1.32,1.53-1.72,1.4-.61,2.24-.61c1.29,0,2.34,.45,3.14,1.34s1.2,2.09,1.2,3.58v.11c0,.93-.18,1.76-.53,2.49s-.86,1.31-1.52,1.72-1.42,.62-2.27,.62c-1.29,0-2.33-.45-3.13-1.34s-1.2-2.08-1.2-3.56v-.11Zm1.63,.19c0,1.05,.25,1.9,.73,2.54s1.14,.96,1.96,.96,1.48-.32,1.97-.97,.73-1.55,.73-2.72c0-1.04-.25-1.89-.74-2.54s-1.15-.97-1.97-.97-1.45,.32-1.94,.96-.74,1.55-.74,2.74Z"/><path class="cls-5" d="M799.49,377.78c-.63,.74-1.56,1.12-2.79,1.12-1.01,0-1.79-.29-2.32-.88s-.8-1.46-.8-2.61v-6.19h1.63v6.14c0,1.44,.59,2.16,1.76,2.16,1.24,0,2.07-.46,2.48-1.39v-6.92h1.63v9.51h-1.55l-.04-.94Z"/><path class="cls-5" d="M805.08,369.21l.05,1.2c.73-.91,1.68-1.37,2.85-1.37,2.01,0,3.02,1.13,3.04,3.4v6.28h-1.63v-6.29c0-.69-.16-1.19-.47-1.52s-.79-.49-1.44-.49c-.53,0-.99,.14-1.39,.42s-.71,.65-.93,1.11v6.78h-1.63v-9.51h1.54Z"/><path class="cls-5" d="M813.07,373.89c0-1.46,.35-2.63,1.04-3.52s1.6-1.33,2.72-1.33,2,.38,2.65,1.14v-4.96h1.63v13.5h-1.49l-.08-1.02c-.65,.8-1.56,1.2-2.72,1.2s-2-.45-2.69-1.35-1.04-2.08-1.04-3.53v-.12Zm1.63,.18c0,1.08,.22,1.92,.67,2.53s1.06,.91,1.85,.91c1.03,0,1.78-.46,2.26-1.39v-4.37c-.49-.9-1.23-1.34-2.24-1.34-.8,0-1.42,.31-1.86,.92s-.67,1.53-.67,2.73Z"/><path class="cls-5" d="M827.37,373.61c0,1.31-.17,2.56-.51,3.76s-.87,2.3-1.57,3.32-1.45,1.73-2.22,2.16l-.34-.99c.9-.69,1.63-1.77,2.18-3.22s.83-3.07,.84-4.85v-.28c0-1.23-.13-2.38-.39-3.43s-.62-2-1.08-2.84-.98-1.49-1.55-1.96l.34-.99c.77,.43,1.51,1.14,2.21,2.14s1.22,2.11,1.57,3.31,.52,2.5,.52,3.88Z"/></g></g><g id="LINE"><line class="cls-1" x1="97.92" y1="48.64" x2="198.72" y2="48.64"/><line class="cls-1" x1="227.52" y1="48.64" x2="328.32" y2="48.64"/><path class="cls-1" d="M227.52,48.64c0,7.95-6.45,14.4-14.4,14.4s-14.4-6.45-14.4-14.4"/><rect class="cls-4" x="69.12" y="77.44" width="28.8" height="28.8"/><rect class="cls-4" x="69.12" y="135.04" width="28.8" height="28.8"/><rect class="cls-4" x="69.12" y="192.64" width="28.8" height="28.8"/><line class="cls-1" x1="97.92" y1="48.64" x2="97.92" y2="480.64"/><line class="cls-1" x1="97.92" y1="480.64" x2="328.32" y2="480.64"/><line class="cls-1" x1="328.32" y1="48.64" x2="328.32" y2="480.64"/><line class="cls-4" x1="162.72" y1="96.16" x2="119.52" y2="96.16"/><line class="cls-4" x1="141.12" y1="139.36" x2="119.52" y2="96.16"/><line class="cls-4" x1="141.12" y1="139.36" x2="162.72" y2="96.16"/><circle class="cls-4" cx="141.12" cy="142.24" r="2.88"/><line class="cls-4" x1="135.36" y1="101.92" x2="135.36" y2="109.12"/><line class="cls-4" x1="146.88" y1="109.12" x2="146.88" y2="116.32"/><line class="cls-4" x1="135.36" y1="104.8" x2="146.88" y2="109.12"/><line class="cls-4" x1="135.36" y1="109.12" x2="146.88" y2="113.44"/><line class="cls-4" x1="97.92" y1="91.84" x2="141.12" y2="91.84"/><line class="cls-4" x1="141.12" y1="96.16" x2="141.12" y2="91.84"/><line class="cls-4" x1="97.92" y1="149.44" x2="141.12" y2="149.44"/><line class="cls-4" x1="141.12" y1="145.12" x2="141.12" y2="149.44"/><line class="cls-4" x1="162.72" y1="211.36" x2="119.52" y2="211.36"/><line class="cls-4" x1="141.12" y1="254.56" x2="119.52" y2="211.36"/><line class="cls-4" x1="141.12" y1="254.56" x2="162.72" y2="211.36"/><circle class="cls-4" cx="141.12" cy="257.44" r="2.88"/><line class="cls-4" x1="135.36" y1="217.12" x2="135.36" y2="224.32"/><line class="cls-4" x1="146.88" y1="224.32" x2="146.88" y2="231.52"/><line class="cls-4" x1="135.36" y1="220" x2="146.88" y2="224.32"/><line class="cls-4" x1="135.36" y1="224.32" x2="146.88" y2="228.64"/><line class="cls-4" x1="97.92" y1="207.04" x2="141.12" y2="207.04"/><line class="cls-4" x1="141.12" y1="211.36" x2="141.12" y2="207.04"/><line class="cls-4" x1="97.92" y1="264.64" x2="141.12" y2="264.64"/><line class="cls-4" x1="141.12" y1="260.32" x2="141.12" y2="264.64"/><line class="cls-4" x1="162.72" y1="326.56" x2="119.52" y2="326.56"/><line class="cls-4" x1="141.12" y1="369.76" x2="119.52" y2="326.56"/><line class="cls-4" x1="141.12" y1="369.76" x2="162.72" y2="326.56"/><circle class="cls-4" cx="141.12" cy="372.64" r="2.88"/><line class="cls-4" x1="135.36" y1="332.32" x2="135.36" y2="339.52"/><line class="cls-4" x1="146.88" y1="339.52" x2="146.88" y2="346.72"/><line class="cls-4" x1="135.36" y1="335.2" x2="146.88" y2="339.52"/><line class="cls-4" x1="135.36" y1="339.52" x2="146.88" y2="343.84"/><line class="cls-4" x1="97.92" y1="322.24" x2="141.12" y2="322.24"/><line class="cls-4" x1="141.12" y1="326.56" x2="141.12" y2="322.24"/><line class="cls-4" x1="97.92" y1="379.84" x2="141.12" y2="379.84"/><line class="cls-4" x1="141.12" y1="375.52" x2="141.12" y2="379.84"/><line class="cls-4" x1="263.52" y1="153.76" x2="306.72" y2="153.76"/><line class="cls-4" x1="285.12" y1="196.96" x2="306.72" y2="153.76"/><line class="cls-4" x1="285.12" y1="196.96" x2="263.52" y2="153.76"/><circle class="cls-4" cx="285.12" cy="199.84" r="2.88"/><line class="cls-4" x1="290.88" y1="159.52" x2="290.88" y2="166.72"/><line class="cls-4" x1="279.36" y1="166.72" x2="279.36" y2="173.92"/><line class="cls-4" x1="290.88" y1="162.4" x2="279.36" y2="166.72"/><line class="cls-4" x1="290.88" y1="166.72" x2="279.36" y2="171.04"/><line class="cls-4" x1="328.32" y1="149.44" x2="285.12" y2="149.44"/><line class="cls-4" x1="285.12" y1="153.76" x2="285.12" y2="149.44"/><line class="cls-4" x1="328.32" y1="207.04" x2="285.12" y2="207.04"/><line class="cls-4" x1="285.12" y1="202.72" x2="285.12" y2="207.04"/><line class="cls-4" x1="263.52" y1="268.96" x2="306.72" y2="268.96"/><line class="cls-4" x1="285.12" y1="312.16" x2="306.72" y2="268.96"/><line class="cls-4" x1="285.12" y1="312.16" x2="263.52" y2="268.96"/><circle class="cls-4" cx="285.12" cy="315.04" r="2.88"/><line class="cls-4" x1="290.88" y1="274.72" x2="290.88" y2="281.92"/><line class="cls-4" x1="279.36" y1="281.92" x2="279.36" y2="289.12"/><line class="cls-4" x1="290.88" y1="277.6" x2="279.36" y2="281.92"/><line class="cls-4" x1="290.88" y1="281.92" x2="279.36" y2="286.24"/><line class="cls-4" x1="328.32" y1="264.64" x2="285.12" y2="264.64"/><line class="cls-4" x1="285.12" y1="268.96" x2="285.12" y2="264.64"/><line class="cls-4" x1="328.32" y1="322.24" x2="285.12" y2="322.24"/><line class="cls-4" x1="285.12" y1="317.92" x2="285.12" y2="322.24"/><line class="cls-4" x1="263.52" y1="384.16" x2="306.72" y2="384.16"/><line class="cls-4" x1="285.12" y1="427.36" x2="306.72" y2="384.16"/><line class="cls-4" x1="285.12" y1="427.36" x2="263.52" y2="384.16"/><circle class="cls-4" cx="285.12" cy="430.24" r="2.88"/><line class="cls-4" x1="290.88" y1="389.92" x2="290.88" y2="397.12"/><line class="cls-4" x1="279.36" y1="397.12" x2="279.36" y2="404.32"/><line class="cls-4" x1="290.88" y1="392.8" x2="279.36" y2="397.12"/><line class="cls-4" x1="290.88" y1="397.12" x2="279.36" y2="401.44"/><line class="cls-4" x1="328.32" y1="379.84" x2="285.12" y2="379.84"/><line class="cls-4" x1="285.12" y1="384.16" x2="285.12" y2="379.84"/><line class="cls-4" x1="328.32" y1="437.44" x2="285.12" y2="437.44"/><line class="cls-4" x1="285.12" y1="433.12" x2="285.12" y2="437.44"/><rect class="cls-4" x="69.12" y="250.24" width="28.8" height="28.8"/><rect class="cls-4" x="69.12" y="307.84" width="28.8" height="28.8"/><rect class="cls-4" x="69.12" y="365.44" width="28.8" height="28.8"/><rect class="cls-4" x="69.12" y="423.04" width="28.8" height="28.8"/><rect class="cls-4" x="328.32" y="77.44" width="28.8" height="28.8"/><rect class="cls-4" x="328.32" y="135.04" width="28.8" height="28.8"/><rect class="cls-4" x="328.32" y="192.64" width="28.8" height="28.8"/><rect class="cls-4" x="328.32" y="250.24" width="28.8" height="28.8"/><rect class="cls-4" x="328.32" y="307.84" width="28.8" height="28.8"/><rect class="cls-4" x="328.32" y="365.44" width="28.8" height="28.8"/><rect class="cls-4" x="328.32" y="423.04" width="28.8" height="28.8"/><line class="cls-3" x1="652.32" y1="208.8" x2="652.32" y2="338.4"/><line class="cls-3" x1="789.12" y1="273.6" x2="652.32" y2="338.4"/><line class="cls-3" x1="652.32" y1="208.8" x2="789.12" y2="273.6"/><line class="cls-3" x1="691.2" y1="296.64" x2="695.52" y2="253.44"/><line class="cls-3" x1="682.56" y1="296.64" x2="702.72" y2="296.64"/><line class="cls-3" x1="695.52" y1="253.44" x2="715.68" y2="253.44"/><line class="cls-3" x1="702.72" y1="296.64" x2="707.04" y2="253.44"/><circle class="cls-3" cx="797.76" cy="273.6" r="8.64"/><line class="cls-3" x1="652.32" y1="273.6" x2="587.52" y2="273.6"/><line class="cls-3" x1="587.52" y1="388.8" x2="587.52" y2="228.96"/><line class="cls-3" x1="587.52" y1="129.6" x2="695.52" y2="129.6"/><line class="cls-3" x1="767.52" y1="129.6" x2="846.72" y2="129.6"/><line class="cls-3" x1="846.72" y1="129.6" x2="846.72" y2="275.04"/><line class="cls-3" x1="807.84" y1="273.6" x2="882.72" y2="273.6"/><g><line class="cls-3" x1="865.44" y1="273.6" x2="962.99" y2="273.6"/><polygon class="cls-5" points="953.05 285.87 951 283.67 961.84 273.6 951 263.53 953.05 261.33 966.24 273.6 953.05 285.87"/></g><line class="cls-3" x1="587.52" y1="129.6" x2="587.52" y2="275.04"/><rect class="cls-3" x="695.52" y="118.08" width="72" height="23.04"/><line class="cls-3" x1="587.52" y1="401.76" x2="587.52" y2="469.44"/><polygon class="cls-3" points="573.12 469.44 601.92 469.44 587.52 486.72 573.12 469.44"/><g><line class="cls-3" x1="717.12" y1="239.04" x2="717.12" y2="198.56"/><polygon class="cls-5" points="726.66 216.29 723.84 217.32 717.12 198.85 710.4 217.32 707.58 216.29 717.12 190.08 726.66 216.29"/></g><line class="cls-3" x1="717.12" y1="308.16" x2="717.12" y2="351.36"/><polygon class="cls-2" points="717.12 350.84 731.52 350.84 724.32 359.74 717.12 368.64 709.92 359.74 702.72 350.84 717.12 350.84"/></g><g id="FIELD"><rect class="cls-5" x="558.72" y="398.88" width="57.6" height="7.2"/><rect class="cls-5" x="558.72" y="387.36" width="57.6" height="7.2"/><circle class="cls-5" cx="587.52" cy="273.6" r="4.32"/><circle class="cls-5" cx="846.72" cy="273.6" r="4.32"/></g></svg>