<?xml version="1.0" encoding="UTF-8"?><svg xmlns="http://www.w3.org/2000/svg" viewBox="0 0 1080 600.48"><defs><style>.cls-1{stroke-dasharray:0 0 3.96 3.96;}.cls-1,.cls-2,.cls-3,.cls-4,.cls-5,.cls-6,.cls-7,.cls-8,.cls-9,.cls-10{fill:none;stroke:#cad2d9;stroke-miterlimit:10;}.cls-2{stroke-width:3px;}.cls-11{fill:#cad2d9;}.cls-3{stroke-dasharray:0 0 6.2 6.2;}.cls-4{stroke-width:2px;}.cls-5{stroke-width:2px;}.cls-6{stroke-width:2px;}.cls-8{stroke-width:2.11px;}.cls-9{stroke-width:1px;}.cls-10{stroke-width:1px;}</style></defs><g id="Line"><line class="cls-2" x1="97.92" y1="43.2" x2="198.72" y2="43.2"/><line class="cls-2" x1="227.52" y1="43.2" x2="328.32" y2="43.2"/><path class="cls-2" d="M227.52,43.2c0,7.95-6.45,14.4-14.4,14.4s-14.4-6.45-14.4-14.4"/><rect class="cls-7" x="69.12" y="72" width="28.8" height="28.8"/><rect class="cls-7" x="69.12" y="129.6" width="28.8" height="28.8"/><rect class="cls-7" x="69.12" y="187.2" width="28.8" height="28.8"/><line class="cls-2" x1="97.92" y1="43.2" x2="97.92" y2="534.24"/><line class="cls-2" x1="97.92" y1="532.8" x2="328.32" y2="532.8"/><line class="cls-2" x1="328.32" y1="43.2" x2="328.32" y2="532.8"/><rect class="cls-7" x="69.12" y="244.8" width="28.8" height="28.8"/><rect class="cls-7" x="69.12" y="302.4" width="28.8" height="28.8"/><rect class="cls-7" x="69.12" y="360" width="28.8" height="28.8"/><rect class="cls-7" x="69.12" y="417.6" width="28.8" height="28.8"/><rect class="cls-7" x="328.32" y="187.2" width="28.8" height="28.8"/><rect class="cls-7" x="328.32" y="244.8" width="28.8" height="28.8"/><rect class="cls-7" x="328.32" y="302.4" width="28.8" height="28.8"/><rect class="cls-7" x="328.32" y="360" width="28.8" height="28.8"/><rect class="cls-7" x="328.32" y="417.6" width="28.8" height="28.8"/><rect class="cls-7" x="328.32" y="475.2" width="28.8" height="28.8"/><rect class="cls-7" x="69.12" y="475.2" width="28.8" height="28.8"/><rect class="cls-7" x="328.32" y="72" width="28.8" height="28.8"/><rect class="cls-7" x="328.32" y="129.6" width="28.8" height="28.8"/><rect class="cls-8" x="573.12" y="95.04" width="210.24" height="367.2"/><g><line class="cls-4" x1="785.53" y1="116.64" x2="930.95" y2="116.64"/><polygon class="cls-11" points="792.16 124.82 793.53 123.36 786.3 116.64 793.53 109.92 792.16 108.46 783.36 116.64 792.16 124.82"/><polygon class="cls-11" points="924.32 124.82 922.95 123.36 930.18 116.64 922.95 109.92 924.32 108.46 933.12 116.64 924.32 124.82"/></g><g><line class="cls-4" x1="785.53" y1="159.84" x2="930.95" y2="159.84"/><polygon class="cls-11" points="792.16 168.02 793.53 166.56 786.3 159.84 793.53 153.12 792.16 151.66 783.36 159.84 792.16 168.02"/><polygon class="cls-11" points="924.32 168.02 922.95 166.56 930.18 159.84 922.95 153.12 924.32 151.66 933.12 159.84 924.32 168.02"/></g><g><line class="cls-4" x1="785.53" y1="210.24" x2="930.95" y2="210.24"/><polygon class="cls-11" points="792.16 218.42 793.53 216.96 786.3 210.24 793.53 203.52 792.16 202.06 783.36 210.24 792.16 218.42"/><polygon class="cls-11" points="924.32 218.42 922.95 216.96 930.18 210.24 922.95 203.52 924.32 202.06 933.12 210.24 924.32 218.42"/></g><g><line class="cls-4" x1="785.53" y1="253.44" x2="930.95" y2="253.44"/><polygon class="cls-11" points="792.16 261.62 793.53 260.16 786.3 253.44 793.53 246.72 792.16 245.26 783.36 253.44 792.16 261.62"/><polygon class="cls-11" points="924.32 261.62 922.95 260.16 930.18 253.44 922.95 246.72 924.32 245.26 933.12 253.44 924.32 261.62"/></g><g><line class="cls-4" x1="785.53" y1="303.84" x2="930.95" y2="303.84"/><polygon class="cls-11" points="792.16 312.02 793.53 310.56 786.3 303.84 793.53 297.12 792.16 295.66 783.36 303.84 792.16 312.02"/><polygon class="cls-11" points="924.32 312.02 922.95 310.56 930.18 303.84 922.95 297.12 924.32 295.66 933.12 303.84 924.32 312.02"/></g><g><line class="cls-4" x1="785.53" y1="347.04" x2="930.95" y2="347.04"/><polygon class="cls-11" points="792.16 355.22 793.53 353.76 786.3 347.04 793.53 340.32 792.16 338.86 783.36 347.04 792.16 355.22"/><polygon class="cls-11" points="924.32 355.22 922.95 353.76 930.18 347.04 922.95 340.32 924.32 338.86 933.12 347.04 924.32 355.22"/></g><g><line class="cls-4" x1="785.53" y1="397.44" x2="930.95" y2="397.44"/><polygon class="cls-11" points="792.16 405.62 793.53 404.16 786.3 397.44 793.53 390.72 792.16 389.26 783.36 397.44 792.16 405.62"/><polygon class="cls-11" points="924.32 405.62 922.95 404.16 930.18 397.44 922.95 390.72 924.32 389.26 933.12 397.44 924.32 405.62"/></g><g><line class="cls-4" x1="785.53" y1="440.64" x2="930.95" y2="440.64"/><polygon class="cls-11" points="792.16 448.82 793.53 447.36 786.3 440.64 793.53 433.92 792.16 432.46 783.36 440.64 792.16 448.82"/><polygon class="cls-11" points="924.32 448.82 922.95 447.36 930.18 440.64 922.95 433.92 924.32 432.46 933.12 440.64 924.32 448.82"/></g><g><line class="cls-4" x1="702.72" y1="43.2" x2="702.72" y2="92.87"/><polygon class="cls-11" points="694.54 86.24 696 84.87 702.72 92.1 709.44 84.87 710.9 86.24 702.72 95.04 694.54 86.24"/></g><g><line class="cls-6" x1="636.48" y1="95.04" x2="636.48" y2="51.68"/><polygon class="cls-11" points="646.02 69.41 643.2 70.44 636.48 51.97 629.76 70.44 626.94 69.41 636.48 43.2 646.02 69.41"/></g><line class="cls-6" x1="696.96" y1="462.24" x2="696.96" y2="505.44"/><g><line class="cls-4" x1="464.41" y1="259.2" x2="570.95" y2="259.2"/><polygon class="cls-11" points="471.04 267.38 472.41 265.92 465.18 259.2 472.41 252.48 471.04 251.02 462.24 259.2 471.04 267.38"/><polygon class="cls-11" points="564.32 267.38 562.95 265.92 570.18 259.2 562.95 252.48 564.32 251.02 573.12 259.2 564.32 267.38"/></g><g><line class="cls-4" x1="606.24" y1="504" x2="606.24" y2="465.61"/><polygon class="cls-11" points="614.42 472.24 612.96 473.6 606.24 466.37 599.52 473.6 598.06 472.24 606.24 463.44 614.42 472.24"/></g><g><path class="cls-7" d="M680.76,237.96c.47,.47,.94,.95,1.39,1.44"/><path class="cls-1" d="M684.72,242.41c14.81,18.76,14.39,45.61-1.25,63.91"/><path class="cls-7" d="M682.14,307.8c-.45,.49-.91,.97-1.39,1.44"/></g><line class="cls-7" x1="711.36" y1="339.84" x2="783.36" y2="440.64"/><line class="cls-7" x1="783.36" y1="397.44" x2="722.88" y2="328.32"/><line class="cls-7" x1="783.36" y1="347.04" x2="735.84" y2="305.28"/><line class="cls-7" x1="783.36" y1="303.84" x2="740.16" y2="286.56"/><line class="cls-7" x1="783.36" y1="253.44" x2="740.16" y2="260.64"/><line class="cls-7" x1="783.36" y1="210.24" x2="735.84" y2="241.92"/><line class="cls-7" x1="783.36" y1="159.84" x2="722.88" y2="217.44"/><line class="cls-7" x1="783.36" y1="116.64" x2="711.36" y2="205.92"/><line class="cls-9" x1="702.72" y1="339.84" x2="711.36" y2="339.84"/><line class="cls-9" x1="714.24" y1="328.32" x2="722.88" y2="328.32"/><line class="cls-9" x1="727.2" y1="305.28" x2="735.84" y2="305.28"/><line class="cls-9" x1="731.52" y1="286.56" x2="740.16" y2="286.56"/><line class="cls-9" x1="731.52" y1="260.64" x2="740.16" y2="260.64"/><line class="cls-9" x1="727.2" y1="241.92" x2="735.84" y2="241.92"/><line class="cls-9" x1="714.24" y1="217.44" x2="722.88" y2="217.44"/><line class="cls-9" x1="702.72" y1="205.92" x2="711.36" y2="205.92"/><line class="cls-10" x1="696.96" y1="204.48" x2="648" y2="259.2"/><g><line class="cls-7" x1="606.24" y1="276.48" x2="606.24" y2="279.48"/><line class="cls-3" x1="606.24" y1="285.68" x2="606.24" y2="456.14"/><line class="cls-7" x1="606.24" y1="459.24" x2="606.24" y2="462.24"/></g><g><line class="cls-4" x1="464.41" y1="288" x2="570.95" y2="288"/><polygon class="cls-11" points="471.04 296.18 472.41 294.72 465.18 288 472.41 281.28 471.04 279.82 462.24 288 471.04 296.18"/><polygon class="cls-11" points="564.32 296.18 562.95 294.72 570.18 288 562.95 281.28 564.32 279.82 573.12 288 564.32 296.18"/></g><g><line class="cls-10" x1="648.75" y1="259.2" x2="627.84" y2="259.2"/><path class="cls-11" d="M648.56,255.44c2.08,0,3.76,1.68,3.76,3.76s-1.68,3.76-3.76,3.76-3.76-1.68-3.76-3.76,1.68-3.76,3.76-3.76Z"/></g><g><line class="cls-10" x1="648.75" y1="288" x2="627.84" y2="288"/><path class="cls-11" d="M648.56,284.24c2.08,0,3.76,1.68,3.76,3.76s-1.68,3.76-3.76,3.76-3.76-1.68-3.76-3.76,1.68-3.76,3.76-3.76Z"/></g><line class="cls-10" x1="708.48" y1="216" x2="648" y2="288"/><g><line class="cls-10" x1="586.83" y1="259.2" x2="548.64" y2="259.2"/><path class="cls-11" d="M586.64,255.44c2.08,0,3.76,1.68,3.76,3.76s-1.68,3.76-3.76,3.76-3.76-1.68-3.76-3.76,1.68-3.76,3.76-3.76Z"/></g><g><line class="cls-10" x1="586.83" y1="288" x2="548.64" y2="288"/><path class="cls-11" d="M586.64,284.24c2.08,0,3.76,1.68,3.76,3.76s-1.68,3.76-3.76,3.76-3.76-1.68-3.76-3.76,1.68-3.76,3.76-3.76Z"/></g><line class="cls-10" x1="586.08" y1="259.2" x2="624.96" y2="254.88"/><line class="cls-10" x1="586.08" y1="288" x2="624.96" y2="283.68"/><line class="cls-6" x1="760.32" y1="462.24" x2="760.32" y2="504"/><g><line class="cls-4" x1="731.52" y1="43.2" x2="731.52" y2="92.87"/><polygon class="cls-11" points="723.34 86.24 724.8 84.87 731.52 92.1 738.24 84.87 739.7 86.24 731.52 95.04 723.34 86.24"/></g><polygon class="cls-5" points="696.96 505.44 711.36 505.44 704.16 514.08 696.96 522.72 689.76 514.08 682.56 505.44 696.96 505.44"/><path class="cls-11" d="M623.52,284.88c1.72,0,3.12,1.4,3.12,3.12s-1.4,3.12-3.12,3.12-3.12-1.4-3.12-3.12,1.4-3.12,3.12-3.12m0-1.2c-2.39,0-4.32,1.93-4.32,4.32s1.93,4.32,4.32,4.32,4.32-1.93,4.32-4.32-1.93-4.32-4.32-4.32h0Z"/><path class="cls-11" d="M623.52,256.08c1.72,0,3.12,1.4,3.12,3.12s-1.4,3.12-3.12,3.12-3.12-1.4-3.12-3.12,1.4-3.12,3.12-3.12m0-1.2c-2.39,0-4.32,1.93-4.32,4.32s1.93,4.32,4.32,4.32,4.32-1.93,4.32-4.32-1.93-4.32-4.32-4.32h0Z"/><path class="cls-11" d="M699.84,337.76c1.15,0,2.08,.93,2.08,2.08s-.93,2.08-2.08,2.08-2.08-.93-2.08-2.08,.93-2.08,2.08-2.08m0-.8c-1.59,0-2.88,1.29-2.88,2.88s1.29,2.88,2.88,2.88,2.88-1.29,2.88-2.88-1.29-2.88-2.88-2.88h0Z"/><path class="cls-11" d="M711.36,326.24c1.15,0,2.08,.93,2.08,2.08s-.93,2.08-2.08,2.08-2.08-.93-2.08-2.08,.93-2.08,2.08-2.08m0-.8c-1.59,0-2.88,1.29-2.88,2.88s1.29,2.88,2.88,2.88,2.88-1.29,2.88-2.88-1.29-2.88-2.88-2.88h0Z"/><path class="cls-11" d="M724.32,303.2c1.15,0,2.08,.93,2.08,2.08s-.93,2.08-2.08,2.08-2.08-.93-2.08-2.08,.93-2.08,2.08-2.08m0-.8c-1.59,0-2.88,1.29-2.88,2.88s1.29,2.88,2.88,2.88,2.88-1.29,2.88-2.88-1.29-2.88-2.88-2.88h0Z"/><path class="cls-11" d="M728.64,284.48c1.15,0,2.08,.93,2.08,2.08s-.93,2.08-2.08,2.08-2.08-.93-2.08-2.08,.93-2.08,2.08-2.08m0-.8c-1.59,0-2.88,1.29-2.88,2.88s1.29,2.88,2.88,2.88,2.88-1.29,2.88-2.88-1.29-2.88-2.88-2.88h0Z"/><path class="cls-11" d="M728.64,258.56c1.15,0,2.08,.93,2.08,2.08s-.93,2.08-2.08,2.08-2.08-.93-2.08-2.08,.93-2.08,2.08-2.08m0-.8c-1.59,0-2.88,1.29-2.88,2.88s1.29,2.88,2.88,2.88,2.88-1.29,2.88-2.88-1.29-2.88-2.88-2.88h0Z"/><path class="cls-11" d="M724.32,239.84c1.15,0,2.08,.93,2.08,2.08s-.93,2.08-2.08,2.08-2.08-.93-2.08-2.08,.93-2.08,2.08-2.08m0-.8c-1.59,0-2.88,1.29-2.88,2.88s1.29,2.88,2.88,2.88,2.88-1.29,2.88-2.88-1.29-2.88-2.88-2.88h0Z"/><path class="cls-11" d="M711.36,215.36c1.15,0,2.08,.93,2.08,2.08s-.93,2.08-2.08,2.08-2.08-.93-2.08-2.08,.93-2.08,2.08-2.08m0-.8c-1.59,0-2.88,1.29-2.88,2.88s1.29,2.88,2.88,2.88,2.88-1.29,2.88-2.88-1.29-2.88-2.88-2.88h0Z"/><path class="cls-11" d="M699.84,203.84c1.15,0,2.08,.93,2.08,2.08s-.93,2.08-2.08,2.08-2.08-.93-2.08-2.08,.93-2.08,2.08-2.08m0-.8c-1.59,0-2.88,1.29-2.88,2.88s1.29,2.88,2.88,2.88,2.88-1.29,2.88-2.88-1.29-2.88-2.88-2.88h0Z"/></g><g id="TEXT_Vector"><path class="cls-11" d="M83.15,81.73h-.04l-2.03,1.1-.31-1.21,2.56-1.37h1.35v11.7h-1.53v-10.23Z"/><path class="cls-11" d="M79.71,149.56v-.97l1.24-1.21c2.99-2.84,4.34-4.36,4.36-6.12,0-1.19-.58-2.29-2.32-2.29-1.06,0-1.94,.54-2.48,.99l-.5-1.12c.81-.68,1.96-1.19,3.31-1.19,2.52,0,3.58,1.73,3.58,3.4,0,2.16-1.57,3.91-4.03,6.28l-.94,.86v.04h5.26v1.31h-7.47Z"/><path class="cls-11" d="M80.09,205.34c.45,.29,1.49,.74,2.59,.74,2.03,0,2.66-1.3,2.65-2.27-.02-1.64-1.49-2.34-3.02-2.34h-.88v-1.19h.88c1.15,0,2.61-.59,2.61-1.98,0-.94-.59-1.76-2.05-1.76-.94,0-1.84,.41-2.34,.77l-.41-1.15c.61-.45,1.8-.9,3.06-.9,2.3,0,3.35,1.37,3.35,2.79,0,1.21-.72,2.23-2.16,2.75v.04c1.44,.29,2.61,1.37,2.61,3.01,0,1.87-1.46,3.51-4.27,3.51-1.31,0-2.47-.41-3.04-.79l.43-1.22Z"/><path class="cls-11" d="M84.61,264.76v-3.19h-5.44v-1.04l5.22-7.47h1.71v7.27h1.64v1.24h-1.64v3.19h-1.49Zm0-4.43v-3.91c0-.61,.02-1.22,.05-1.84h-.05c-.36,.68-.65,1.19-.97,1.73l-2.86,3.98v.04h3.83Z"/><path class="cls-11" d="M86.7,311.99h-4.47l-.45,3.01c.27-.04,.52-.07,.95-.07,.9,0,1.8,.2,2.52,.63,.92,.52,1.67,1.53,1.67,3.01,0,2.29-1.82,4-4.36,4-1.28,0-2.36-.36-2.92-.72l.4-1.21c.49,.29,1.44,.65,2.5,.65,1.49,0,2.77-.97,2.77-2.54-.02-1.51-1.03-2.59-3.37-2.59-.67,0-1.19,.07-1.62,.13l.76-5.62h5.6v1.33Z"/><path class="cls-11" d="M86.39,369.37c-.32-.02-.74,0-1.19,.07-2.48,.41-3.8,2.23-4.07,4.16h.05c.56-.74,1.53-1.35,2.83-1.35,2.07,0,3.53,1.5,3.53,3.78,0,2.14-1.46,4.12-3.89,4.12s-4.14-1.95-4.14-4.99c0-2.3,.83-4.12,1.98-5.28,.97-.95,2.27-1.55,3.75-1.73,.47-.07,.86-.09,1.15-.09v1.3Zm-.45,6.75c0-1.67-.95-2.68-2.41-2.68-.95,0-1.84,.59-2.27,1.44-.11,.18-.18,.41-.18,.7,.04,1.93,.92,3.35,2.57,3.35,1.37,0,2.29-1.13,2.29-2.81Z"/><path class="cls-11" d="M87.31,425.86v1.04l-5.1,10.66h-1.64l5.08-10.35v-.04h-5.73v-1.31h7.38Z"/><g><path class="cls-11" d="M337.02,196.93h-.04l-2.03,1.1-.31-1.21,2.56-1.37h1.35v11.7h-1.53v-10.23Z"/><path class="cls-11" d="M347.71,207.16v-3.19h-5.44v-1.04l5.22-7.47h1.71v7.27h1.64v1.24h-1.64v3.19h-1.49Zm0-4.43v-3.91c0-.61,.02-1.22,.05-1.84h-.05c-.36,.68-.65,1.19-.97,1.73l-2.86,3.98v.04h3.83Z"/></g><g><path class="cls-11" d="M337.02,254.53h-.04l-2.03,1.1-.31-1.21,2.56-1.37h1.35v11.7h-1.53v-10.23Z"/><path class="cls-11" d="M343.19,262.94c.45,.29,1.49,.74,2.59,.74,2.03,0,2.66-1.3,2.65-2.27-.02-1.64-1.49-2.34-3.02-2.34h-.88v-1.19h.88c1.15,0,2.61-.59,2.61-1.98,0-.94-.59-1.76-2.05-1.76-.94,0-1.84,.41-2.34,.77l-.41-1.15c.61-.45,1.8-.9,3.06-.9,2.3,0,3.35,1.37,3.35,2.79,0,1.21-.72,2.23-2.16,2.75v.04c1.44,.29,2.61,1.37,2.61,3.01,0,1.87-1.46,3.51-4.27,3.51-1.31,0-2.47-.41-3.04-.79l.43-1.22Z"/></g><g><path class="cls-11" d="M337.02,312.13h-.04l-2.03,1.1-.31-1.21,2.56-1.37h1.35v11.7h-1.53v-10.23Z"/><path class="cls-11" d="M342.81,322.36v-.97l1.24-1.21c2.99-2.84,4.34-4.36,4.36-6.12,0-1.19-.58-2.29-2.32-2.29-1.06,0-1.94,.54-2.48,.99l-.5-1.12c.81-.68,1.96-1.19,3.31-1.19,2.52,0,3.58,1.73,3.58,3.4,0,2.16-1.57,3.91-4.03,6.28l-.94,.86v.04h5.26v1.31h-7.47Z"/></g><g><path class="cls-11" d="M337.02,369.73h-.04l-2.03,1.1-.31-1.21,2.56-1.37h1.35v11.7h-1.53v-10.23Z"/><path class="cls-11" d="M346.25,369.73h-.04l-2.03,1.1-.31-1.21,2.56-1.37h1.35v11.7h-1.53v-10.23Z"/></g><g><path class="cls-11" d="M337.02,427.33h-.04l-2.03,1.1-.31-1.21,2.56-1.37h1.35v11.7h-1.53v-10.23Z"/><path class="cls-11" d="M350.59,431.58c0,3.98-1.48,6.18-4.07,6.18-2.29,0-3.84-2.14-3.87-6.01,0-3.92,1.69-6.09,4.07-6.09s3.87,2.2,3.87,5.92Zm-6.36,.18c0,3.04,.94,4.77,2.38,4.77,1.62,0,2.39-1.89,2.39-4.88s-.74-4.77-2.38-4.77c-1.39,0-2.4,1.69-2.4,4.88Z"/></g><path class="cls-11" d="M339.83,494.05c.34,.04,.74,0,1.28-.05,.92-.13,1.78-.5,2.45-1.13,.77-.7,1.33-1.73,1.55-3.11h-.05c-.65,.79-1.58,1.26-2.75,1.26-2.11,0-3.46-1.58-3.46-3.58,0-2.21,1.6-4.16,4-4.16s3.87,1.94,3.87,4.93c0,2.58-.86,4.38-2.02,5.49-.9,.88-2.14,1.42-3.4,1.57-.58,.09-1.08,.11-1.46,.09v-1.3Zm.58-6.73c0,1.46,.88,2.48,2.25,2.48,1.06,0,1.89-.52,2.3-1.22,.09-.14,.14-.32,.14-.58,0-2-.74-3.53-2.39-3.53-1.35,0-2.3,1.19-2.3,2.85Z"/><g><path class="cls-11" d="M116.35,495.16l-3.96-12.14h1.69l1.89,5.98c.52,1.64,.97,3.12,1.3,4.54h.04c.34-1.41,.85-2.94,1.39-4.52l2.05-6h1.67l-4.34,12.14h-1.73Z"/><path class="cls-11" d="M123.13,493.89c.47,.29,1.15,.53,1.87,.53,1.07,0,1.69-.56,1.69-1.38,0-.76-.43-1.19-1.52-1.61-1.32-.47-2.13-1.15-2.13-2.29,0-1.26,1.04-2.2,2.61-2.2,.83,0,1.43,.19,1.79,.4l-.29,.85c-.26-.14-.8-.38-1.54-.38-1.1,0-1.52,.66-1.52,1.21,0,.76,.49,1.13,1.61,1.56,1.37,.53,2.06,1.19,2.06,2.37,0,1.25-.92,2.33-2.83,2.33-.78,0-1.63-.23-2.06-.52l.26-.88Z"/><path class="cls-11" d="M129.05,493.89c.47,.29,1.15,.53,1.87,.53,1.07,0,1.69-.56,1.69-1.38,0-.76-.43-1.19-1.52-1.61-1.32-.47-2.13-1.15-2.13-2.29,0-1.26,1.04-2.2,2.61-2.2,.83,0,1.43,.19,1.79,.4l-.29,.85c-.26-.14-.8-.38-1.54-.38-1.1,0-1.52,.66-1.52,1.21,0,.76,.49,1.13,1.61,1.56,1.37,.53,2.06,1.19,2.06,2.37,0,1.25-.92,2.33-2.83,2.33-.78,0-1.63-.23-2.06-.52l.26-.88Z"/></g><g><path class="cls-11" d="M291.92,91.96l-3.96-12.14h1.69l1.89,5.98c.52,1.64,.97,3.12,1.3,4.54h.04c.34-1.4,.85-2.94,1.39-4.52l2.05-6h1.67l-4.34,12.14h-1.73Z"/><path class="cls-11" d="M298.85,83.99c.64-.1,1.39-.17,2.22-.17,1.5,0,2.57,.35,3.27,1.01,.72,.66,1.14,1.59,1.14,2.9s-.41,2.4-1.16,3.14c-.76,.76-2,1.16-3.57,1.16-.74,0-1.37-.04-1.9-.1v-7.95Zm1.04,7.15c.26,.05,.65,.06,1.06,.06,2.23,0,3.44-1.25,3.44-3.43,.01-1.91-1.07-3.12-3.27-3.12-.54,0-.95,.05-1.22,.11v6.38Z"/><path class="cls-11" d="M306.84,83.99c.64-.1,1.39-.17,2.22-.17,1.5,0,2.57,.35,3.27,1.01,.72,.66,1.14,1.59,1.14,2.9s-.41,2.4-1.16,3.14c-.76,.76-2,1.16-3.57,1.16-.74,0-1.37-.04-1.9-.1v-7.95Zm1.04,7.15c.26,.05,.65,.06,1.06,.06,2.23,0,3.44-1.25,3.44-3.43,.01-1.91-1.07-3.12-3.27-3.12-.54,0-.95,.05-1.22,.11v6.38Z"/></g><g><path class="cls-11" d="M193.29,558.32c-.58,.29-1.73,.58-3.21,.58-3.42,0-6-2.16-6-6.14s2.57-6.37,6.34-6.37c1.51,0,2.47,.32,2.88,.54l-.38,1.28c-.59-.29-1.44-.5-2.45-.5-2.84,0-4.74,1.82-4.74,5,0,2.97,1.71,4.88,4.66,4.88,.95,0,1.93-.2,2.56-.5l.32,1.24Z"/><path class="cls-11" d="M195.25,546.75c.95-.14,2.09-.25,3.33-.25,2.25,0,3.85,.52,4.92,1.51,1.08,.99,1.71,2.39,1.71,4.36s-.61,3.6-1.75,4.72c-1.13,1.13-3.01,1.75-5.37,1.75-1.12,0-2.05-.05-2.84-.14v-11.94Zm1.57,10.73c.4,.07,.97,.09,1.58,.09,3.35,0,5.17-1.87,5.17-5.15,.02-2.86-1.6-4.68-4.92-4.68-.81,0-1.42,.07-1.84,.16v9.58Z"/><path class="cls-11" d="M211.57,558.72v-3.19h-5.44v-1.04l5.22-7.47h1.71v7.27h1.64v1.24h-1.64v3.19h-1.49Zm0-4.43v-3.91c0-.61,.02-1.22,.05-1.84h-.05c-.36,.68-.65,1.19-.97,1.73l-2.86,3.98v.04h3.83Z"/><path class="cls-11" d="M223.69,552.74c0,3.98-1.48,6.18-4.07,6.18-2.29,0-3.84-2.14-3.87-6.01,0-3.92,1.69-6.09,4.07-6.09s3.87,2.2,3.87,5.92Zm-6.36,.18c0,3.04,.94,4.77,2.38,4.77,1.62,0,2.39-1.89,2.39-4.88s-.74-4.77-2.38-4.77c-1.39,0-2.4,1.69-2.4,4.88Z"/><path class="cls-11" d="M232.13,548.35h-4.47l-.45,3.01c.27-.04,.52-.07,.95-.07,.9,0,1.8,.2,2.52,.63,.92,.52,1.67,1.53,1.67,3.01,0,2.29-1.82,4-4.36,4-1.28,0-2.36-.36-2.92-.72l.4-1.21c.49,.29,1.44,.65,2.5,.65,1.49,0,2.77-.97,2.77-2.54-.02-1.51-1.03-2.59-3.37-2.59-.67,0-1.19,.07-1.62,.13l.76-5.62h5.6v1.33Z"/><path class="cls-11" d="M234.38,558.72v-.97l1.24-1.21c2.99-2.84,4.34-4.36,4.36-6.12,0-1.19-.58-2.29-2.32-2.29-1.06,0-1.94,.54-2.48,.99l-.5-1.12c.81-.68,1.96-1.19,3.31-1.19,2.52,0,3.58,1.73,3.58,3.4,0,2.16-1.57,3.91-4.03,6.28l-.94,.86v.04h5.26v1.31h-7.47Z"/></g><path class="cls-11" d="M79.57,492.19c0-1.48,.88-2.52,2.32-3.13l-.02-.05c-1.3-.61-1.85-1.62-1.85-2.63,0-1.85,1.57-3.12,3.62-3.12,2.27,0,3.4,1.42,3.4,2.88,0,.99-.49,2.05-1.93,2.74v.05c1.46,.58,2.36,1.6,2.36,3.02,0,2.04-1.75,3.4-3.98,3.4-2.45,0-3.93-1.46-3.93-3.17Zm6.3-.07c0-1.42-.99-2.11-2.57-2.56-1.37,.4-2.11,1.3-2.11,2.41-.05,1.19,.85,2.23,2.34,2.23s2.34-.88,2.34-2.09Zm-4.36-5.85c0,1.17,.88,1.8,2.23,2.16,1.01-.34,1.78-1.06,1.78-2.12,0-.94-.56-1.91-1.98-1.91-1.31,0-2.03,.86-2.03,1.87Z"/><g><path class="cls-11" d="M337.02,81.73h-.04l-2.03,1.1-.31-1.21,2.56-1.37h1.35v11.7h-1.53v-10.23Z"/><path class="cls-11" d="M349.49,81.37c-.32-.02-.74,0-1.19,.07-2.48,.41-3.8,2.23-4.07,4.16h.05c.56-.74,1.53-1.35,2.83-1.35,2.07,0,3.53,1.49,3.53,3.78,0,2.14-1.46,4.12-3.89,4.12s-4.14-1.94-4.14-4.99c0-2.3,.83-4.12,1.98-5.28,.97-.95,2.27-1.55,3.75-1.73,.47-.07,.86-.09,1.15-.09v1.3Zm-.45,6.75c0-1.67-.95-2.68-2.41-2.68-.95,0-1.84,.59-2.27,1.44-.11,.18-.18,.41-.18,.7,.04,1.93,.92,3.35,2.57,3.35,1.37,0,2.29-1.13,2.29-2.81Z"/></g><g><path class="cls-11" d="M337.02,139.33h-.04l-2.03,1.1-.31-1.21,2.56-1.37h1.35v11.7h-1.53v-10.23Z"/><path class="cls-11" d="M349.8,139.19h-4.47l-.45,3.01c.27-.04,.52-.07,.95-.07,.9,0,1.8,.2,2.52,.63,.92,.52,1.67,1.53,1.67,3.01,0,2.29-1.82,4-4.36,4-1.28,0-2.36-.36-2.92-.72l.4-1.21c.49,.29,1.44,.65,2.5,.65,1.49,0,2.77-.97,2.77-2.54-.02-1.51-1.03-2.59-3.37-2.59-.67,0-1.19,.07-1.62,.13l.76-5.62h5.6v1.33Z"/></g><g><path class="cls-11" d="M115.61,79.63c-.41,1.51-1.19,3.44-1.67,4.27l-1.01,.13c.38-1.06,.86-2.94,1.06-4.23l1.62-.16Zm2.67,0c-.41,1.51-1.19,3.44-1.67,4.27l-1.01,.13c.4-1.06,.86-2.94,1.06-4.23l1.62-.16Z"/><path class="cls-11" d="M123.14,91.96v-5.15l-3.84-6.99h1.78l1.71,3.35c.47,.92,.83,1.66,1.21,2.5h.04c.34-.79,.76-1.58,1.22-2.5l1.75-3.35h1.78l-4.07,6.97v5.17h-1.58Z"/><path class="cls-11" d="M137.4,85.98c0,3.98-1.48,6.18-4.07,6.18-2.29,0-3.84-2.14-3.87-6.01,0-3.92,1.69-6.09,4.07-6.09s3.87,2.2,3.87,5.92Zm-6.36,.18c0,3.04,.94,4.77,2.38,4.77,1.62,0,2.39-1.89,2.39-4.88s-.74-4.77-2.38-4.77c-1.39,0-2.4,1.69-2.4,4.88Z"/><path class="cls-11" d="M138.65,84.02c.41-1.51,1.19-3.46,1.69-4.29l1.01-.11c-.4,1.06-.86,2.92-1.06,4.21l-1.64,.18Zm2.68,0c.4-1.51,1.19-3.46,1.67-4.29l1.01-.11c-.4,1.06-.86,2.92-1.06,4.21l-1.62,.18Z"/></g><g><path class="cls-11" d="M115.61,138.67c-.41,1.51-1.19,3.44-1.67,4.27l-1.01,.13c.38-1.06,.86-2.94,1.06-4.23l1.62-.16Zm2.67,0c-.41,1.51-1.19,3.44-1.67,4.27l-1.01,.13c.4-1.06,.86-2.94,1.06-4.23l1.62-.16Z"/><path class="cls-11" d="M123.14,151v-5.15l-3.84-6.99h1.78l1.71,3.35c.47,.92,.83,1.66,1.21,2.5h.04c.34-.79,.76-1.58,1.22-2.5l1.75-3.35h1.78l-4.07,6.97v5.17h-1.58Z"/><path class="cls-11" d="M129.62,151v-.97l1.24-1.21c2.99-2.84,4.34-4.36,4.36-6.12,0-1.19-.58-2.29-2.32-2.29-1.06,0-1.94,.54-2.48,.99l-.5-1.12c.81-.68,1.96-1.19,3.31-1.19,2.52,0,3.58,1.73,3.58,3.4,0,2.16-1.57,3.91-4.03,6.28l-.94,.86v.04h5.26v1.31h-7.47Z"/><path class="cls-11" d="M138.65,143.06c.41-1.51,1.19-3.46,1.69-4.29l1.01-.11c-.4,1.06-.86,2.92-1.06,4.21l-1.64,.18Zm2.68,0c.4-1.51,1.19-3.46,1.67-4.29l1.01-.11c-.4,1.06-.86,2.92-1.06,4.21l-1.62,.18Z"/></g><g><path class="cls-11" d="M122.17,194.8c-.58,.29-1.73,.58-3.21,.58-3.42,0-6-2.16-6-6.14s2.57-6.37,6.34-6.37c1.51,0,2.47,.32,2.88,.54l-.38,1.28c-.59-.29-1.44-.5-2.45-.5-2.84,0-4.74,1.82-4.74,5.01,0,2.97,1.71,4.88,4.66,4.88,.95,0,1.93-.2,2.56-.5l.32,1.24Z"/><path class="cls-11" d="M134.12,189c0,4.18-2.54,6.39-5.64,6.39s-5.46-2.48-5.46-6.16c0-3.85,2.4-6.37,5.64-6.37s5.46,2.54,5.46,6.14Zm-9.42,.2c0,2.59,1.4,4.92,3.87,4.92s3.89-2.29,3.89-5.04c0-2.41-1.26-4.93-3.87-4.93s-3.89,2.39-3.89,5.06Z"/><path class="cls-11" d="M146.38,189.87c-.09-1.69-.2-3.73-.18-5.24h-.05c-.41,1.42-.92,2.94-1.53,4.61l-2.14,5.89h-1.19l-1.96-5.78c-.58-1.71-1.06-3.28-1.4-4.72h-.04c-.04,1.51-.13,3.55-.23,5.37l-.32,5.2h-1.49l.85-12.14h2l2.07,5.87c.5,1.49,.92,2.83,1.22,4.09h.05c.31-1.22,.74-2.56,1.28-4.09l2.16-5.87h2l.76,12.14h-1.53l-.31-5.33Z"/><path class="cls-11" d="M160.85,189.87c-.09-1.69-.2-3.73-.18-5.24h-.05c-.41,1.42-.92,2.94-1.53,4.61l-2.14,5.89h-1.19l-1.96-5.78c-.58-1.71-1.06-3.28-1.4-4.72h-.04c-.04,1.51-.13,3.55-.23,5.37l-.32,5.2h-1.49l.85-12.14h2l2.07,5.87c.5,1.49,.92,2.83,1.22,4.09h.05c.31-1.22,.74-2.56,1.28-4.09l2.16-5.87h2l.76,12.14h-1.53l-.31-5.33Z"/><path class="cls-11" d="M175.47,189c0,4.18-2.54,6.39-5.64,6.39s-5.46-2.48-5.46-6.16c0-3.85,2.39-6.37,5.64-6.37s5.46,2.54,5.46,6.14Zm-9.42,.2c0,2.59,1.4,4.92,3.87,4.92s3.89-2.29,3.89-5.04c0-2.41-1.26-4.93-3.87-4.93s-3.89,2.39-3.89,5.06Z"/><path class="cls-11" d="M177.5,195.2v-12.14h1.71l3.89,6.14c.9,1.42,1.6,2.7,2.18,3.94l.04-.02c-.14-1.62-.18-3.1-.18-4.99v-5.08h1.48v12.14h-1.58l-3.85-6.16c-.85-1.35-1.66-2.74-2.27-4.05l-.05,.02c.09,1.53,.13,2.99,.13,5.01v5.19h-1.48Z"/><path class="cls-11" d="M195.03,195.2v-5.15l-3.84-6.99h1.78l1.71,3.35c.47,.92,.83,1.66,1.21,2.5h.04c.34-.79,.76-1.58,1.22-2.5l1.75-3.35h1.78l-4.07,6.97v5.17h-1.58Z"/><path class="cls-11" d="M124.06,210.6c0,4.18-2.54,6.39-5.64,6.39s-5.46-2.48-5.46-6.16c0-3.85,2.39-6.37,5.64-6.37s5.46,2.54,5.46,6.14Zm-9.42,.2c0,2.59,1.4,4.92,3.87,4.92s3.89-2.29,3.89-5.04c0-2.41-1.26-4.93-3.87-4.93s-3.89,2.39-3.89,5.06Z"/><path class="cls-11" d="M127.66,204.66v7.18c0,2.72,1.21,3.87,2.83,3.87,1.8,0,2.95-1.19,2.95-3.87v-7.18h1.58v7.08c0,3.73-1.96,5.26-4.59,5.26-2.48,0-4.36-1.42-4.36-5.19v-7.15h1.58Z"/><path class="cls-11" d="M140.04,205.99h-3.69v-1.33h8.98v1.33h-3.71v10.8h-1.58v-10.8Z"/><path class="cls-11" d="M145.3,217.52l5.02-13.05h1.22l-5.04,13.05h-1.21Z"/><path class="cls-11" d="M154.42,204.66v12.14h-1.57v-12.14h1.57Z"/><path class="cls-11" d="M157.16,216.8v-12.14h1.71l3.89,6.14c.9,1.42,1.6,2.7,2.18,3.94l.04-.02c-.14-1.62-.18-3.1-.18-4.99v-5.08h1.48v12.14h-1.58l-3.85-6.16c-.85-1.35-1.66-2.74-2.27-4.05l-.05,.02c.09,1.53,.13,2.99,.13,5.01v5.19h-1.48Z"/></g><g><path class="cls-11" d="M112.93,256.82c.41-1.51,1.19-3.46,1.69-4.29l1.01-.11c-.4,1.06-.86,2.92-1.06,4.21l-1.64,.18Zm2.68,0c.4-1.51,1.19-3.46,1.67-4.29l1.01-.11c-.4,1.06-.86,2.92-1.06,4.21l-1.62,.18Z"/><path class="cls-11" d="M123.1,264.76v-5.15l-3.84-6.99h1.78l1.71,3.35c.47,.92,.83,1.66,1.21,2.5h.04c.34-.79,.76-1.58,1.22-2.5l1.75-3.35h1.78l-4.07,6.97v5.17h-1.58Z"/><path class="cls-11" d="M129.96,262.94c.45,.29,1.49,.74,2.59,.74,2.03,0,2.66-1.3,2.65-2.27-.02-1.64-1.49-2.34-3.02-2.34h-.88v-1.19h.88c1.15,0,2.61-.59,2.61-1.98,0-.94-.59-1.76-2.05-1.76-.94,0-1.84,.41-2.34,.77l-.41-1.15c.61-.45,1.8-.9,3.06-.9,2.3,0,3.35,1.37,3.35,2.79,0,1.21-.72,2.23-2.16,2.75v.04c1.44,.29,2.61,1.37,2.61,3.01,0,1.87-1.46,3.51-4.27,3.51-1.31,0-2.47-.41-3.04-.79l.43-1.22Z"/><path class="cls-11" d="M138.62,256.82c.41-1.51,1.19-3.46,1.69-4.29l1.01-.11c-.4,1.06-.86,2.92-1.06,4.21l-1.64,.18Zm2.68,0c.4-1.51,1.19-3.46,1.67-4.29l1.01-.11c-.4,1.06-.86,2.92-1.06,4.21l-1.62,.18Z"/></g><g><path class="cls-11" d="M112.93,314.42c.41-1.51,1.19-3.46,1.69-4.29l1.01-.11c-.4,1.06-.86,2.92-1.06,4.21l-1.64,.18Zm2.68,0c.4-1.51,1.19-3.46,1.67-4.29l1.01-.11c-.4,1.06-.86,2.92-1.06,4.21l-1.62,.18Z"/><path class="cls-11" d="M123.1,322.36v-5.15l-3.84-6.99h1.78l1.71,3.35c.47,.92,.83,1.66,1.21,2.5h.04c.34-.79,.76-1.58,1.22-2.5l1.75-3.35h1.78l-4.07,6.97v5.17h-1.58Z"/><path class="cls-11" d="M133.02,312.13h-.04l-2.03,1.1-.31-1.21,2.56-1.37h1.35v11.7h-1.53v-10.23Z"/><path class="cls-11" d="M138.62,314.42c.41-1.51,1.19-3.46,1.69-4.29l1.01-.11c-.4,1.06-.86,2.92-1.06,4.21l-1.64,.18Zm2.68,0c.4-1.51,1.19-3.46,1.67-4.29l1.01-.11c-.4,1.06-.86,2.92-1.06,4.21l-1.62,.18Z"/></g><g><path class="cls-11" d="M115.26,367.83v12.14h-1.57v-12.14h1.57Z"/><path class="cls-11" d="M117.99,379.96v-12.14h1.71l3.89,6.14c.9,1.42,1.6,2.7,2.18,3.94l.04-.02c-.14-1.62-.18-3.1-.18-4.99v-5.08h1.48v12.14h-1.58l-3.85-6.16c-.85-1.35-1.66-2.74-2.27-4.05l-.05,.02c.09,1.53,.13,2.99,.13,5v5.19h-1.48Z"/><path class="cls-11" d="M131.4,367.83v5.08h5.87v-5.08h1.58v12.14h-1.58v-5.69h-5.87v5.69h-1.57v-12.14h1.57Z"/><path class="cls-11" d="M143.14,367.83v12.14h-1.57v-12.14h1.57Z"/><path class="cls-11" d="M145.87,367.99c.68-.14,1.76-.25,2.86-.25,1.57,0,2.57,.27,3.33,.88,.63,.47,1.01,1.19,1.01,2.14,0,1.17-.77,2.2-2.05,2.66v.04c1.15,.29,2.5,1.24,2.5,3.04,0,1.04-.41,1.84-1.03,2.43-.85,.77-2.21,1.13-4.2,1.13-1.08,0-1.91-.07-2.43-.14v-11.94Zm1.57,4.97h1.42c1.66,0,2.63-.86,2.63-2.03,0-1.42-1.08-1.98-2.66-1.98-.72,0-1.13,.05-1.39,.11v3.91Zm0,5.82c.31,.05,.76,.07,1.31,.07,1.62,0,3.11-.59,3.11-2.36,0-1.66-1.42-2.34-3.13-2.34h-1.3v4.63Z"/><path class="cls-11" d="M157.19,367.83v12.14h-1.57v-12.14h1.57Z"/><path class="cls-11" d="M162.23,369.16h-3.69v-1.33h8.98v1.33h-3.71v10.8h-1.58v-10.8Z"/></g><g><path class="cls-11" d="M282.22,199.22c.41-1.51,1.19-3.46,1.69-4.29l1.01-.11c-.4,1.06-.86,2.92-1.06,4.21l-1.64,.18Zm2.68,0c.4-1.51,1.19-3.46,1.67-4.29l1.01-.11c-.4,1.06-.86,2.92-1.06,4.21l-1.62,.18Z"/><path class="cls-11" d="M296.05,207.16l-1.55-2.68c-.63-1.03-1.03-1.69-1.4-2.4h-.04c-.34,.7-.68,1.35-1.31,2.41l-1.46,2.66h-1.8l3.71-6.14-3.56-6h1.82l1.6,2.85c.45,.79,.79,1.4,1.12,2.05h.05c.34-.72,.65-1.28,1.1-2.05l1.66-2.85h1.8l-3.69,5.91,3.78,6.23h-1.82Z"/><path class="cls-11" d="M302.56,196.93h-.04l-2.03,1.1-.31-1.21,2.56-1.37h1.35v11.7h-1.53v-10.23Z"/><path class="cls-11" d="M308.16,199.22c.41-1.51,1.19-3.46,1.69-4.29l1.01-.11c-.4,1.06-.86,2.92-1.06,4.21l-1.64,.18Zm2.68,0c.4-1.51,1.19-3.46,1.67-4.29l1.01-.11c-.4,1.06-.86,2.92-1.06,4.21l-1.62,.18Z"/></g><g><path class="cls-11" d="M230.17,247.98c-.58,.29-1.73,.58-3.21,.58-3.42,0-6-2.16-6-6.14s2.57-6.37,6.34-6.37c1.51,0,2.47,.32,2.88,.54l-.38,1.28c-.59-.29-1.44-.5-2.45-.5-2.84,0-4.74,1.82-4.74,5.01,0,2.97,1.71,4.88,4.66,4.88,.95,0,1.93-.2,2.56-.5l.32,1.24Z"/><path class="cls-11" d="M242.12,242.19c0,4.18-2.54,6.39-5.64,6.39s-5.46-2.48-5.46-6.16c0-3.85,2.4-6.37,5.64-6.37s5.46,2.54,5.46,6.14Zm-9.42,.2c0,2.59,1.4,4.92,3.87,4.92s3.89-2.29,3.89-5.04c0-2.41-1.26-4.93-3.87-4.93s-3.89,2.39-3.89,5.06Z"/><path class="cls-11" d="M254.38,243.05c-.09-1.69-.2-3.73-.18-5.24h-.05c-.41,1.42-.92,2.94-1.53,4.61l-2.14,5.89h-1.19l-1.96-5.78c-.58-1.71-1.06-3.28-1.4-4.72h-.04c-.04,1.51-.13,3.55-.23,5.37l-.32,5.2h-1.49l.85-12.14h2l2.07,5.87c.5,1.49,.92,2.83,1.22,4.09h.05c.31-1.22,.74-2.56,1.28-4.09l2.16-5.87h2l.76,12.14h-1.53l-.31-5.33Z"/><path class="cls-11" d="M268.85,243.05c-.09-1.69-.2-3.73-.18-5.24h-.05c-.41,1.42-.92,2.94-1.53,4.61l-2.14,5.89h-1.19l-1.96-5.78c-.58-1.71-1.06-3.28-1.4-4.72h-.04c-.04,1.51-.13,3.55-.23,5.37l-.32,5.2h-1.49l.85-12.14h2l2.07,5.87c.5,1.49,.92,2.83,1.22,4.09h.05c.31-1.22,.74-2.56,1.28-4.09l2.16-5.87h2l.76,12.14h-1.53l-.31-5.33Z"/><path class="cls-11" d="M283.47,242.19c0,4.18-2.54,6.39-5.64,6.39s-5.46-2.48-5.46-6.16c0-3.85,2.39-6.37,5.64-6.37s5.46,2.54,5.46,6.14Zm-9.42,.2c0,2.59,1.4,4.92,3.87,4.92s3.89-2.29,3.89-5.04c0-2.41-1.26-4.93-3.87-4.93s-3.89,2.39-3.89,5.06Z"/><path class="cls-11" d="M285.5,248.38v-12.14h1.71l3.89,6.14c.9,1.42,1.6,2.7,2.18,3.94l.04-.02c-.14-1.62-.18-3.1-.18-4.99v-5.08h1.48v12.14h-1.58l-3.85-6.16c-.85-1.35-1.66-2.74-2.27-4.05l-.05,.02c.09,1.53,.13,2.99,.13,5.01v5.19h-1.48Z"/><path class="cls-11" d="M307.8,248.38l-1.55-2.68c-.63-1.03-1.03-1.69-1.4-2.4h-.04c-.34,.7-.68,1.35-1.31,2.41l-1.46,2.66h-1.8l3.71-6.14-3.56-6h1.82l1.6,2.85c.45,.79,.79,1.4,1.12,2.05h.05c.34-.72,.65-1.28,1.1-2.05l1.66-2.85h1.8l-3.69,5.91,3.78,6.23h-1.82Z"/><path class="cls-11" d="M232.06,263.79c0,4.18-2.54,6.39-5.64,6.39s-5.46-2.48-5.46-6.16,2.39-6.37,5.64-6.37,5.46,2.54,5.46,6.14Zm-9.42,.2c0,2.59,1.4,4.92,3.87,4.92s3.89-2.29,3.89-5.04c0-2.41-1.26-4.93-3.87-4.93s-3.89,2.39-3.89,5.06Z"/><path class="cls-11" d="M235.66,257.85v7.18c0,2.72,1.21,3.87,2.83,3.87,1.8,0,2.95-1.19,2.95-3.87v-7.18h1.58v7.08c0,3.73-1.96,5.26-4.59,5.26-2.48,0-4.36-1.42-4.36-5.19v-7.15h1.58Z"/><path class="cls-11" d="M248.04,259.18h-3.69v-1.33h8.98v1.33h-3.71v10.8h-1.58v-10.8Z"/><path class="cls-11" d="M253.3,270.7l5.02-13.05h1.22l-5.04,13.05h-1.21Z"/><path class="cls-11" d="M262.42,257.85v12.14h-1.57v-12.14h1.57Z"/><path class="cls-11" d="M265.16,269.98v-12.14h1.71l3.89,6.14c.9,1.42,1.6,2.7,2.18,3.94l.04-.02c-.14-1.62-.18-3.1-.18-4.99v-5.08h1.48v12.14h-1.58l-3.85-6.16c-.85-1.35-1.66-2.74-2.27-4.05l-.05,.02c.09,1.53,.13,2.99,.13,5v5.19h-1.48Z"/></g><g><path class="cls-11" d="M282.22,314.42c.41-1.51,1.19-3.46,1.69-4.29l1.01-.11c-.4,1.06-.86,2.92-1.06,4.21l-1.64,.18Zm2.68,0c.4-1.51,1.19-3.46,1.67-4.29l1.01-.11c-.4,1.06-.86,2.92-1.06,4.21l-1.62,.18Z"/><path class="cls-11" d="M296.05,322.36l-1.55-2.68c-.63-1.03-1.03-1.69-1.4-2.39h-.04c-.34,.7-.68,1.35-1.31,2.41l-1.46,2.66h-1.8l3.71-6.14-3.56-6h1.82l1.6,2.85c.45,.79,.79,1.4,1.12,2.05h.05c.34-.72,.65-1.28,1.1-2.05l1.66-2.85h1.8l-3.69,5.91,3.78,6.23h-1.82Z"/><path class="cls-11" d="M306.9,316.38c0,3.98-1.48,6.18-4.07,6.18-2.29,0-3.84-2.14-3.87-6.01,0-3.92,1.69-6.09,4.07-6.09s3.87,2.2,3.87,5.92Zm-6.36,.18c0,3.04,.94,4.77,2.38,4.77,1.62,0,2.39-1.89,2.39-4.88s-.74-4.77-2.38-4.77c-1.39,0-2.4,1.69-2.4,4.88Z"/><path class="cls-11" d="M308.16,314.42c.41-1.51,1.19-3.46,1.69-4.29l1.01-.11c-.4,1.06-.86,2.92-1.06,4.21l-1.64,.18Zm2.68,0c.4-1.51,1.19-3.46,1.67-4.29l1.01-.11c-.4,1.06-.86,2.92-1.06,4.21l-1.62,.18Z"/></g><g><path class="cls-11" d="M282.22,372.02c.41-1.51,1.19-3.46,1.69-4.29l1.01-.11c-.4,1.06-.86,2.92-1.06,4.21l-1.64,.18Zm2.68,0c.4-1.51,1.19-3.46,1.67-4.29l1.01-.11c-.4,1.06-.86,2.92-1.06,4.21l-1.62,.18Z"/><path class="cls-11" d="M296.05,379.96l-1.55-2.68c-.63-1.03-1.03-1.69-1.4-2.4h-.04c-.34,.7-.68,1.35-1.31,2.41l-1.46,2.67h-1.8l3.71-6.14-3.56-6h1.82l1.6,2.84c.45,.79,.79,1.4,1.12,2.05h.05c.34-.72,.65-1.28,1.1-2.05l1.66-2.84h1.8l-3.69,5.91,3.78,6.23h-1.82Z"/><path class="cls-11" d="M299.5,378.14c.45,.29,1.49,.74,2.59,.74,2.03,0,2.66-1.3,2.65-2.27-.02-1.64-1.49-2.34-3.02-2.34h-.88v-1.19h.88c1.15,0,2.61-.59,2.61-1.98,0-.94-.59-1.76-2.05-1.76-.94,0-1.84,.41-2.34,.77l-.41-1.15c.61-.45,1.8-.9,3.06-.9,2.3,0,3.35,1.37,3.35,2.79,0,1.21-.72,2.23-2.16,2.75v.04c1.44,.29,2.61,1.37,2.61,3.01,0,1.87-1.46,3.51-4.27,3.51-1.31,0-2.47-.42-3.04-.79l.43-1.22Z"/><path class="cls-11" d="M308.16,372.02c.41-1.51,1.19-3.46,1.69-4.29l1.01-.11c-.4,1.06-.86,2.92-1.06,4.21l-1.64,.18Zm2.68,0c.4-1.51,1.19-3.46,1.67-4.29l1.01-.11c-.4,1.06-.86,2.92-1.06,4.21l-1.62,.18Z"/></g><path class="cls-11" d="M306.23,433.74l-1.26,3.82h-1.62l4.12-12.14h1.89l4.14,12.14h-1.67l-1.3-3.82h-4.3Zm3.98-1.22l-1.19-3.49c-.27-.79-.45-1.51-.63-2.21h-.04c-.18,.72-.38,1.46-.61,2.2l-1.19,3.51h3.65Z"/><path class="cls-11" d="M305.53,483.19c.68-.14,1.76-.25,2.86-.25,1.57,0,2.57,.27,3.33,.88,.63,.47,1.01,1.19,1.01,2.14,0,1.17-.77,2.2-2.05,2.67v.04c1.15,.29,2.5,1.24,2.5,3.04,0,1.04-.41,1.84-1.03,2.43-.85,.77-2.21,1.13-4.19,1.13-1.08,0-1.91-.07-2.43-.14v-11.94Zm1.57,4.97h1.42c1.66,0,2.63-.86,2.63-2.03,0-1.42-1.08-1.98-2.67-1.98-.72,0-1.13,.05-1.39,.11v3.91Zm0,5.82c.31,.05,.76,.07,1.31,.07,1.62,0,3.12-.59,3.12-2.36,0-1.66-1.42-2.34-3.13-2.34h-1.3v4.63Z"/><g><path class="cls-11" d="M282.22,141.62c.41-1.51,1.19-3.46,1.69-4.29l1.01-.11c-.4,1.06-.86,2.92-1.06,4.21l-1.64,.18Zm2.68,0c.4-1.51,1.19-3.46,1.67-4.29l1.01-.11c-.4,1.06-.86,2.92-1.06,4.21l-1.62,.18Z"/><path class="cls-11" d="M296.05,149.56l-1.55-2.68c-.63-1.03-1.03-1.69-1.4-2.39h-.04c-.34,.7-.68,1.35-1.31,2.41l-1.46,2.66h-1.8l3.71-6.14-3.56-6h1.82l1.6,2.85c.45,.79,.79,1.4,1.12,2.05h.05c.34-.72,.65-1.28,1.1-2.05l1.66-2.85h1.8l-3.69,5.91,3.78,6.23h-1.82Z"/><path class="cls-11" d="M299.12,149.56v-.97l1.24-1.21c2.99-2.84,4.34-4.36,4.36-6.12,0-1.19-.58-2.29-2.32-2.29-1.06,0-1.94,.54-2.48,.99l-.5-1.12c.81-.68,1.96-1.19,3.31-1.19,2.52,0,3.58,1.73,3.58,3.4,0,2.16-1.57,3.91-4.03,6.28l-.94,.86v.04h5.26v1.31h-7.47Z"/><path class="cls-11" d="M308.16,141.62c.41-1.51,1.19-3.46,1.69-4.29l1.01-.11c-.4,1.06-.86,2.92-1.06,4.21l-1.64,.18Zm2.68,0c.4-1.51,1.19-3.46,1.67-4.29l1.01-.11c-.4,1.06-.86,2.92-1.06,4.21l-1.62,.18Z"/></g><g><path class="cls-11" d="M678.42,74.73h-.04l-2.03,1.1-.31-1.21,2.56-1.37h1.35v11.7h-1.53v-10.23Z"/><path class="cls-11" d="M691.99,78.98c0,3.98-1.48,6.18-4.07,6.18-2.29,0-3.83-2.14-3.87-6.01,0-3.92,1.69-6.09,4.07-6.09s3.87,2.2,3.87,5.92Zm-6.36,.18c0,3.04,.94,4.77,2.38,4.77,1.62,0,2.39-1.89,2.39-4.88s-.74-4.77-2.38-4.77c-1.39,0-2.4,1.69-2.4,4.88Z"/></g><path class="cls-11" d="M742.74,85.28c.34,.04,.74,0,1.28-.05,.92-.13,1.78-.5,2.45-1.13,.77-.7,1.33-1.73,1.55-3.11h-.05c-.65,.79-1.58,1.26-2.75,1.26-2.11,0-3.46-1.58-3.46-3.58,0-2.21,1.6-4.16,4-4.16s3.87,1.94,3.87,4.93c0,2.57-.86,4.38-2.02,5.49-.9,.88-2.14,1.42-3.4,1.57-.58,.09-1.08,.11-1.46,.09v-1.3Zm.58-6.73c0,1.46,.88,2.48,2.25,2.48,1.06,0,1.89-.52,2.3-1.22,.09-.14,.14-.32,.14-.58,0-2-.74-3.53-2.39-3.53-1.35,0-2.3,1.19-2.3,2.84Z"/><g><path class="cls-11" d="M799.38,100.65h-.04l-2.04,1.1-.31-1.21,2.56-1.37h1.35v11.7h-1.53v-10.23Z"/><path class="cls-11" d="M805.18,110.88v-.97l1.24-1.21c2.99-2.84,4.34-4.36,4.36-6.12,0-1.19-.58-2.29-2.32-2.29-1.06,0-1.94,.54-2.48,.99l-.5-1.12c.81-.68,1.96-1.19,3.31-1.19,2.52,0,3.58,1.73,3.58,3.4,0,2.16-1.57,3.91-4.03,6.28l-.94,.86v.04h5.26v1.31h-7.47Z"/></g><path class="cls-11" d="M808.62,143.85h-.04l-2.04,1.1-.31-1.21,2.56-1.37h1.35v11.7h-1.53v-10.23Z"/><g><path class="cls-11" d="M799.38,194.25h-.04l-2.03,1.1-.31-1.21,2.56-1.37h1.35v11.7h-1.53v-10.23Z"/><path class="cls-11" d="M810.07,204.48v-3.19h-5.44v-1.04l5.22-7.47h1.71v7.27h1.64v1.24h-1.64v3.19h-1.49Zm0-4.43v-3.91c0-.61,.02-1.22,.05-1.84h-.05c-.36,.68-.65,1.19-.97,1.73l-2.86,3.98v.04h3.83Z"/></g><path class="cls-11" d="M812.16,237.31h-4.47l-.45,3.01c.27-.04,.52-.07,.95-.07,.9,0,1.8,.2,2.52,.63,.92,.52,1.67,1.53,1.67,3.01,0,2.29-1.82,4-4.36,4-1.28,0-2.36-.36-2.92-.72l.4-1.21c.49,.29,1.44,.65,2.5,.65,1.49,0,2.77-.97,2.77-2.54-.02-1.51-1.03-2.59-3.37-2.59-.67,0-1.19,.07-1.62,.13l.76-5.62h5.6v1.33Z"/><g><path class="cls-11" d="M797.94,287.85h-.04l-2.03,1.1-.31-1.21,2.56-1.37h1.35v11.7h-1.53v-10.23Z"/><path class="cls-11" d="M810.72,287.71h-4.47l-.45,3.01c.27-.04,.52-.07,.95-.07,.9,0,1.8,.2,2.52,.63,.92,.52,1.67,1.53,1.67,3.01,0,2.29-1.82,4-4.36,4-1.28,0-2.36-.36-2.92-.72l.4-1.21c.49,.29,1.44,.65,2.5,.65,1.49,0,2.77-.97,2.77-2.54-.02-1.51-1.03-2.59-3.37-2.59-.67,0-1.19,.07-1.62,.13l.76-5.62h5.6v1.33Z"/></g><path class="cls-11" d="M803.74,341.28v-.97l1.24-1.21c2.99-2.84,4.34-4.36,4.36-6.12,0-1.19-.58-2.29-2.32-2.29-1.06,0-1.94,.54-2.48,.99l-.5-1.12c.81-.68,1.96-1.19,3.31-1.19,2.52,0,3.58,1.73,3.58,3.4,0,2.16-1.57,3.91-4.03,6.28l-.94,.86v.04h5.26v1.31h-7.47Z"/><g><path class="cls-11" d="M797.94,381.45h-.04l-2.04,1.1-.31-1.21,2.56-1.37h1.35v11.7h-1.53v-10.23Z"/><path class="cls-11" d="M807.18,381.45h-.04l-2.03,1.1-.31-1.21,2.56-1.37h1.35v11.7h-1.53v-10.23Z"/></g><path class="cls-11" d="M808.63,434.88v-3.19h-5.44v-1.04l5.22-7.47h1.71v7.27h1.64v1.24h-1.64v3.19h-1.49Zm0-4.43v-3.91c0-.61,.02-1.22,.05-1.84h-.05c-.36,.68-.65,1.19-.97,1.73l-2.86,3.98v.04h3.83Z"/><g><path class="cls-11" d="M720.3,527.04l-3.96-12.14h1.69l1.89,5.98c.52,1.64,.97,3.12,1.3,4.54h.04c.34-1.4,.85-2.93,1.39-4.52l2.05-6h1.67l-4.34,12.14h-1.73Z"/><path class="cls-11" d="M727.07,525.77c.47,.29,1.15,.53,1.87,.53,1.07,0,1.69-.56,1.69-1.38,0-.76-.43-1.19-1.52-1.61-1.32-.47-2.14-1.15-2.14-2.29,0-1.26,1.04-2.2,2.62-2.2,.83,0,1.43,.19,1.79,.4l-.29,.85c-.26-.14-.8-.38-1.54-.38-1.1,0-1.52,.66-1.52,1.21,0,.75,.49,1.13,1.61,1.56,1.37,.53,2.06,1.19,2.06,2.38,0,1.25-.92,2.33-2.83,2.33-.78,0-1.63-.23-2.06-.52l.26-.88Z"/><path class="cls-11" d="M732.99,525.77c.47,.29,1.15,.53,1.87,.53,1.07,0,1.69-.56,1.69-1.38,0-.76-.43-1.19-1.52-1.61-1.32-.47-2.14-1.15-2.14-2.29,0-1.26,1.04-2.2,2.62-2.2,.83,0,1.43,.19,1.79,.4l-.29,.85c-.26-.14-.8-.38-1.54-.38-1.1,0-1.52,.66-1.52,1.21,0,.75,.49,1.13,1.61,1.56,1.37,.53,2.06,1.19,2.06,2.38,0,1.25-.92,2.33-2.83,2.33-.78,0-1.63-.23-2.06-.52l.26-.88Z"/></g><path class="cls-11" d="M728.57,22.41c.68-.14,1.76-.25,2.86-.25,1.57,0,2.57,.27,3.33,.88,.63,.47,1.01,1.19,1.01,2.14,0,1.17-.77,2.2-2.05,2.66v.04c1.15,.29,2.5,1.24,2.5,3.04,0,1.04-.41,1.84-1.03,2.43-.85,.77-2.21,1.13-4.2,1.13-1.08,0-1.91-.07-2.43-.14v-11.94Zm1.57,4.97h1.42c1.66,0,2.63-.86,2.63-2.03,0-1.42-1.08-1.98-2.66-1.98-.72,0-1.13,.05-1.39,.11v3.91Zm0,5.82c.31,.05,.76,.07,1.31,.07,1.62,0,3.12-.59,3.12-2.36,0-1.66-1.42-2.34-3.13-2.34h-1.3v4.63Z"/><path class="cls-11" d="M700.29,30.56l-1.26,3.82h-1.62l4.12-12.14h1.89l4.14,12.14h-1.67l-1.3-3.82h-4.3Zm3.98-1.22l-1.19-3.49c-.27-.79-.45-1.51-.63-2.21h-.04c-.18,.72-.38,1.46-.61,2.2l-1.19,3.51h3.65Z"/><g><path class="cls-11" d="M627.5,37.44l-3.96-12.14h1.69l1.89,5.98c.52,1.64,.97,3.11,1.3,4.54h.04c.34-1.4,.85-2.93,1.39-4.52l2.05-6h1.67l-4.34,12.14h-1.73Z"/><path class="cls-11" d="M634.42,29.46c.64-.1,1.39-.17,2.22-.17,1.5,0,2.57,.35,3.27,1.01,.72,.66,1.14,1.6,1.14,2.9s-.41,2.4-1.16,3.14c-.75,.76-2,1.16-3.57,1.16-.74,0-1.37-.04-1.9-.1v-7.95Zm1.04,7.15c.26,.05,.65,.06,1.05,.06,2.23,0,3.44-1.25,3.44-3.43,.01-1.91-1.07-3.12-3.27-3.12-.54,0-.95,.05-1.22,.11v6.38Z"/><path class="cls-11" d="M642.41,29.46c.64-.1,1.39-.17,2.22-.17,1.5,0,2.57,.35,3.27,1.01,.72,.66,1.14,1.6,1.14,2.9s-.41,2.4-1.16,3.14c-.76,.76-2,1.16-3.57,1.16-.74,0-1.37-.04-1.89-.1v-7.95Zm1.04,7.15c.26,.05,.65,.06,1.06,.06,2.23,0,3.44-1.25,3.44-3.43,.01-1.91-1.07-3.12-3.27-3.12-.54,0-.95,.05-1.22,.11v6.38Z"/></g><g><path class="cls-11" d="M939.18,114.46c.41-1.51,1.19-3.46,1.69-4.29l1.01-.11c-.4,1.06-.86,2.92-1.06,4.21l-1.64,.18Zm2.68,0c.4-1.51,1.19-3.46,1.67-4.29l1.01-.11c-.4,1.06-.86,2.92-1.06,4.21l-1.62,.18Z"/><path class="cls-11" d="M953,122.4l-1.55-2.68c-.63-1.03-1.03-1.69-1.4-2.4h-.04c-.34,.7-.68,1.35-1.31,2.41l-1.46,2.67h-1.8l3.71-6.14-3.56-6h1.82l1.6,2.84c.45,.79,.79,1.4,1.12,2.05h.05c.34-.72,.65-1.28,1.1-2.05l1.66-2.84h1.8l-3.69,5.91,3.78,6.23h-1.82Z"/><path class="cls-11" d="M963.86,116.42c0,3.98-1.48,6.18-4.07,6.18-2.29,0-3.84-2.14-3.87-6.01,0-3.92,1.69-6.09,4.07-6.09s3.87,2.2,3.87,5.92Zm-6.36,.18c0,3.04,.94,4.77,2.38,4.77,1.62,0,2.39-1.89,2.39-4.88s-.74-4.77-2.38-4.77c-1.39,0-2.39,1.69-2.39,4.88Z"/><path class="cls-11" d="M965.11,114.46c.41-1.51,1.19-3.46,1.69-4.29l1.01-.11c-.4,1.06-.86,2.92-1.06,4.21l-1.64,.18Zm2.68,0c.4-1.51,1.19-3.46,1.67-4.29l1.01-.11c-.4,1.06-.86,2.92-1.06,4.21l-1.62,.18Z"/></g><g><path class="cls-11" d="M939.3,157.66c.41-1.51,1.19-3.46,1.69-4.29l1.01-.11c-.4,1.06-.86,2.92-1.06,4.21l-1.64,.18Zm2.68,0c.4-1.51,1.19-3.46,1.67-4.29l1.01-.11c-.4,1.06-.86,2.92-1.06,4.21l-1.62,.18Z"/><path class="cls-11" d="M949.47,165.6v-5.15l-3.83-6.99h1.78l1.71,3.35c.47,.92,.83,1.66,1.21,2.5h.04c.34-.79,.76-1.58,1.22-2.5l1.75-3.35h1.78l-4.07,6.97v5.17h-1.58Z"/><path class="cls-11" d="M963.73,159.62c0,3.98-1.48,6.18-4.07,6.18-2.29,0-3.84-2.14-3.87-6.01,0-3.92,1.69-6.09,4.07-6.09s3.87,2.2,3.87,5.92Zm-6.36,.18c0,3.04,.94,4.77,2.38,4.77,1.62,0,2.39-1.89,2.39-4.88s-.74-4.77-2.38-4.77c-1.39,0-2.39,1.69-2.39,4.88Z"/><path class="cls-11" d="M964.99,157.66c.41-1.51,1.19-3.46,1.69-4.29l1.01-.11c-.4,1.06-.86,2.92-1.06,4.21l-1.64,.18Zm2.68,0c.4-1.51,1.19-3.46,1.67-4.29l1.01-.11c-.4,1.06-.86,2.92-1.06,4.21l-1.62,.18Z"/></g><g><path class="cls-11" d="M939.18,208.06c.41-1.51,1.19-3.46,1.69-4.29l1.01-.11c-.4,1.06-.86,2.92-1.06,4.21l-1.64,.18Zm2.68,0c.4-1.51,1.19-3.46,1.67-4.29l1.01-.11c-.4,1.06-.87,2.92-1.06,4.21l-1.62,.18Z"/><path class="cls-11" d="M953,216l-1.55-2.68c-.63-1.03-1.03-1.69-1.4-2.4h-.04c-.34,.7-.68,1.35-1.31,2.41l-1.46,2.67h-1.8l3.71-6.14-3.57-6h1.82l1.6,2.84c.45,.79,.79,1.4,1.12,2.05h.05c.34-.72,.65-1.28,1.1-2.05l1.66-2.84h1.8l-3.69,5.91,3.78,6.23h-1.82Z"/><path class="cls-11" d="M959.52,205.77h-.04l-2.03,1.1-.31-1.21,2.56-1.37h1.35v11.7h-1.53v-10.23Z"/><path class="cls-11" d="M965.11,208.06c.41-1.51,1.19-3.46,1.69-4.29l1.01-.11c-.4,1.06-.86,2.92-1.06,4.21l-1.64,.18Zm2.68,0c.4-1.51,1.19-3.46,1.67-4.29l1.01-.11c-.4,1.06-.87,2.92-1.06,4.21l-1.62,.18Z"/></g><g><path class="cls-11" d="M939.3,251.26c.41-1.51,1.19-3.46,1.69-4.29l1.01-.11c-.4,1.06-.86,2.92-1.06,4.21l-1.64,.18Zm2.68,0c.4-1.51,1.19-3.46,1.67-4.29l1.01-.11c-.4,1.06-.86,2.92-1.06,4.21l-1.62,.18Z"/><path class="cls-11" d="M949.47,259.2v-5.15l-3.83-6.99h1.78l1.71,3.35c.47,.92,.83,1.66,1.21,2.5h.04c.34-.79,.76-1.58,1.22-2.5l1.75-3.35h1.78l-4.07,6.97v5.17h-1.58Z"/><path class="cls-11" d="M959.39,248.97h-.04l-2.03,1.1-.31-1.21,2.56-1.37h1.35v11.7h-1.53v-10.23Z"/><path class="cls-11" d="M964.99,251.26c.41-1.51,1.19-3.46,1.69-4.29l1.01-.11c-.4,1.06-.86,2.92-1.06,4.21l-1.64,.18Zm2.68,0c.4-1.51,1.19-3.46,1.67-4.29l1.01-.11c-.4,1.06-.86,2.92-1.06,4.21l-1.62,.18Z"/></g><g><path class="cls-11" d="M939.18,301.66c.41-1.51,1.19-3.46,1.69-4.29l1.01-.11c-.4,1.06-.86,2.92-1.06,4.21l-1.64,.18Zm2.68,0c.4-1.51,1.19-3.46,1.67-4.29l1.01-.11c-.4,1.06-.86,2.92-1.06,4.21l-1.62,.18Z"/><path class="cls-11" d="M953,309.6l-1.55-2.68c-.63-1.03-1.03-1.69-1.4-2.4h-.04c-.34,.7-.68,1.35-1.31,2.41l-1.46,2.67h-1.8l3.71-6.14-3.56-6h1.82l1.6,2.84c.45,.79,.79,1.4,1.12,2.05h.05c.34-.72,.65-1.28,1.1-2.05l1.66-2.84h1.8l-3.69,5.91,3.78,6.23h-1.82Z"/><path class="cls-11" d="M956.08,309.6v-.97l1.24-1.21c2.99-2.84,4.34-4.36,4.36-6.12,0-1.19-.58-2.29-2.32-2.29-1.06,0-1.94,.54-2.48,.99l-.5-1.12c.81-.68,1.96-1.19,3.31-1.19,2.52,0,3.58,1.73,3.58,3.4,0,2.16-1.57,3.91-4.03,6.28l-.94,.86v.04h5.26v1.31h-7.47Z"/><path class="cls-11" d="M965.11,301.66c.41-1.51,1.19-3.46,1.69-4.29l1.01-.11c-.4,1.06-.86,2.92-1.06,4.21l-1.64,.18Zm2.68,0c.4-1.51,1.19-3.46,1.67-4.29l1.01-.11c-.4,1.06-.86,2.92-1.06,4.21l-1.62,.18Z"/></g><g><path class="cls-11" d="M939.3,344.86c.41-1.51,1.19-3.46,1.69-4.29l1.01-.11c-.4,1.06-.86,2.92-1.06,4.21l-1.64,.18Zm2.68,0c.4-1.51,1.19-3.46,1.67-4.29l1.01-.11c-.4,1.06-.86,2.92-1.06,4.21l-1.62,.18Z"/><path class="cls-11" d="M949.47,352.8v-5.15l-3.84-6.99h1.78l1.71,3.35c.47,.92,.83,1.66,1.21,2.5h.04c.34-.79,.76-1.58,1.22-2.5l1.75-3.35h1.78l-4.07,6.97v5.17h-1.58Z"/><path class="cls-11" d="M955.95,352.8v-.97l1.24-1.21c2.99-2.84,4.34-4.36,4.36-6.12,0-1.19-.58-2.29-2.32-2.29-1.06,0-1.95,.54-2.49,.99l-.5-1.12c.81-.68,1.96-1.19,3.31-1.19,2.52,0,3.58,1.73,3.58,3.4,0,2.16-1.57,3.91-4.03,6.28l-.94,.86v.04h5.26v1.31h-7.47Z"/><path class="cls-11" d="M964.99,344.86c.41-1.51,1.19-3.46,1.69-4.29l1.01-.11c-.4,1.06-.86,2.92-1.06,4.21l-1.64,.18Zm2.68,0c.4-1.51,1.19-3.46,1.67-4.29l1.01-.11c-.4,1.06-.86,2.92-1.06,4.21l-1.62,.18Z"/></g><g><path class="cls-11" d="M939.18,395.26c.41-1.51,1.19-3.46,1.69-4.29l1.01-.11c-.4,1.06-.86,2.92-1.06,4.21l-1.64,.18Zm2.68,0c.4-1.51,1.19-3.46,1.67-4.29l1.01-.11c-.4,1.06-.86,2.92-1.06,4.21l-1.62,.18Z"/><path class="cls-11" d="M953,403.2l-1.55-2.68c-.63-1.03-1.03-1.69-1.4-2.4h-.04c-.34,.7-.68,1.35-1.31,2.41l-1.46,2.67h-1.8l3.71-6.14-3.57-6h1.82l1.6,2.84c.45,.79,.79,1.4,1.12,2.05h.05c.34-.72,.65-1.28,1.1-2.05l1.66-2.84h1.8l-3.69,5.91,3.78,6.23h-1.82Z"/><path class="cls-11" d="M956.46,401.38c.45,.29,1.49,.74,2.59,.74,2.04,0,2.67-1.3,2.65-2.27-.02-1.64-1.49-2.34-3.02-2.34h-.88v-1.19h.88c1.15,0,2.61-.59,2.61-1.98,0-.94-.59-1.76-2.05-1.76-.94,0-1.84,.41-2.34,.77l-.41-1.15c.61-.45,1.8-.9,3.06-.9,2.3,0,3.35,1.37,3.35,2.79,0,1.21-.72,2.23-2.16,2.75v.04c1.44,.29,2.61,1.37,2.61,3.01,0,1.87-1.46,3.51-4.27,3.51-1.31,0-2.47-.41-3.04-.79l.43-1.22Z"/><path class="cls-11" d="M965.11,395.26c.41-1.51,1.19-3.46,1.69-4.29l1.01-.11c-.4,1.06-.86,2.92-1.06,4.21l-1.64,.18Zm2.68,0c.4-1.51,1.19-3.46,1.67-4.29l1.01-.11c-.4,1.06-.86,2.92-1.06,4.21l-1.62,.18Z"/></g><g><path class="cls-11" d="M939.3,438.46c.41-1.51,1.19-3.46,1.69-4.29l1.01-.11c-.4,1.06-.86,2.92-1.06,4.21l-1.64,.18Zm2.68,0c.4-1.51,1.19-3.46,1.67-4.29l1.01-.11c-.4,1.06-.86,2.92-1.06,4.21l-1.62,.18Z"/><path class="cls-11" d="M949.47,446.4v-5.15l-3.84-6.99h1.78l1.71,3.35c.47,.92,.83,1.66,1.21,2.5h.04c.34-.79,.76-1.58,1.22-2.5l1.75-3.35h1.78l-4.07,6.97v5.17h-1.58Z"/><path class="cls-11" d="M956.33,444.58c.45,.29,1.49,.74,2.59,.74,2.04,0,2.67-1.3,2.65-2.27-.02-1.64-1.49-2.34-3.02-2.34h-.88v-1.19h.88c1.15,0,2.61-.59,2.61-1.98,0-.94-.59-1.76-2.05-1.76-.94,0-1.84,.41-2.34,.77l-.41-1.15c.61-.45,1.8-.9,3.06-.9,2.3,0,3.35,1.37,3.35,2.79,0,1.21-.72,2.23-2.16,2.75v.04c1.44,.29,2.61,1.37,2.61,3.01,0,1.87-1.46,3.51-4.27,3.51-1.31,0-2.47-.41-3.04-.79l.43-1.22Z"/><path class="cls-11" d="M964.99,438.46c.41-1.51,1.19-3.46,1.69-4.29l1.01-.11c-.4,1.06-.86,2.92-1.06,4.21l-1.64,.18Zm2.68,0c.4-1.51,1.19-3.46,1.67-4.29l1.01-.11c-.4,1.06-.86,2.92-1.06,4.21l-1.62,.18Z"/></g><g><path class="cls-11" d="M988.66,328.4h12.14v1.57h-12.14v-1.57Z"/><path class="cls-11" d="M994.44,325.54c-.9,0-1.64,.02-2.36,.07v-1.4l1.44-.09v-.04c-.83-.43-1.64-1.44-1.64-2.88,0-1.21,.72-3.08,3.71-3.08h5.2v1.58h-5.02c-1.4,0-2.57,.52-2.57,2.02,0,1.04,.74,1.85,1.62,2.12,.2,.07,.47,.11,.74,.11h5.24v1.58h-6.36Z"/><path class="cls-11" d="M994.93,315.55c-1.12,0-2.02,.04-2.85,.07v-1.42l1.5-.07v-.04c-1.06-.65-1.69-1.67-1.69-3.1,0-2.11,1.78-3.69,4.43-3.69,3.13,0,4.68,1.91,4.68,3.96,0,1.15-.5,2.16-1.37,2.68v.04h4.74v1.57h-9.43Zm2.32-1.57c.23,0,.45-.04,.65-.07,1.1-.29,1.85-1.24,1.85-2.38,0-1.67-1.37-2.65-3.37-2.65-1.75,0-3.24,.92-3.24,2.59,0,1.08,.77,2.09,1.96,2.39,.2,.05,.43,.11,.65,.11h1.49Z"/><path class="cls-11" d="M998.42,298.01c.9,0,1.69-.02,2.38-.07v1.4l-1.42,.09v.04c.7,.41,1.62,1.33,1.62,2.88,0,1.37-.76,3.01-3.82,3.01h-5.1v-1.58h4.83c1.66,0,2.77-.5,2.77-1.95,0-1.06-.74-1.8-1.44-2.09-.23-.09-.52-.14-.81-.14h-5.35v-1.58h6.34Z"/><path class="cls-11" d="M989.58,293.48h2.5v-2.27h1.21v2.27h4.7c1.08,0,1.69-.31,1.69-1.19,0-.41-.05-.72-.11-.92l1.19-.07c.13,.31,.22,.79,.22,1.4,0,.74-.23,1.33-.67,1.71-.47,.45-1.24,.61-2.27,.61h-4.75v1.35h-1.21v-1.35h-2.09l-.41-1.55Z"/><path class="cls-11" d="M999.18,289.65c.31-.47,.63-1.3,.63-2.09,0-1.15-.58-1.69-1.3-1.69-.76,0-1.17,.45-1.6,1.62-.56,1.57-1.42,2.3-2.47,2.3-1.4,0-2.56-1.13-2.56-3.01,0-.88,.25-1.66,.54-2.14l1.15,.4c-.22,.34-.5,.97-.5,1.78,0,.94,.54,1.46,1.19,1.46,.72,0,1.04-.52,1.48-1.66,.58-1.51,1.33-2.29,2.63-2.29,1.53,0,2.61,1.19,2.61,3.26,0,.95-.23,1.84-.59,2.45l-1.21-.4Z"/><path class="cls-11" d="M1001.52,283.64l-13.05-5.02v-1.22l13.05,5.04v1.21Z"/><path class="cls-11" d="M994.61,265.7c4.18,0,6.39,2.54,6.39,5.63s-2.48,5.46-6.16,5.46-6.37-2.39-6.37-5.64,2.54-5.46,6.14-5.46Zm.2,9.42c2.59,0,4.92-1.4,4.92-3.87s-2.29-3.89-5.04-3.89c-2.41,0-4.93,1.26-4.93,3.87s2.39,3.89,5.06,3.89Z"/><path class="cls-11" d="M998.42,256.38c.9,0,1.69-.02,2.38-.07v1.4l-1.42,.09v.04c.7,.41,1.62,1.33,1.62,2.88,0,1.37-.76,3.01-3.82,3.01h-5.1v-1.58h4.83c1.66,0,2.77-.5,2.77-1.94,0-1.06-.74-1.8-1.44-2.09-.23-.09-.52-.14-.81-.14h-5.35v-1.58h6.34Z"/><path class="cls-11" d="M989.58,251.85h2.5v-2.27h1.21v2.27h4.7c1.08,0,1.69-.31,1.69-1.19,0-.41-.05-.72-.11-.92l1.19-.07c.13,.31,.22,.79,.22,1.4,0,.74-.23,1.33-.67,1.71-.47,.45-1.24,.61-2.27,.61h-4.75v1.35h-1.21v-1.35h-2.09l-.41-1.55Z"/><path class="cls-11" d="M994.93,247.8c-1.12,0-2.02,.04-2.85,.07v-1.42l1.5-.07v-.04c-1.06-.65-1.69-1.67-1.69-3.1,0-2.11,1.78-3.69,4.43-3.69,3.13,0,4.68,1.91,4.68,3.96,0,1.15-.5,2.16-1.37,2.68v.04h4.74v1.57h-9.43Zm2.32-1.57c.23,0,.45-.04,.65-.07,1.1-.29,1.85-1.24,1.85-2.38,0-1.67-1.37-2.65-3.37-2.65-1.75,0-3.24,.92-3.24,2.59,0,1.08,.77,2.09,1.96,2.4,.2,.05,.43,.11,.65,.11h1.49Z"/><path class="cls-11" d="M998.42,230.26c.9,0,1.69-.02,2.38-.07v1.4l-1.42,.09v.04c.7,.41,1.62,1.33,1.62,2.88,0,1.37-.76,3.01-3.82,3.01h-5.1v-1.58h4.83c1.66,0,2.77-.5,2.77-1.94,0-1.06-.74-1.8-1.44-2.09-.23-.09-.52-.14-.81-.14h-5.35v-1.58h6.34Z"/><path class="cls-11" d="M989.58,225.73h2.5v-2.27h1.21v2.27h4.7c1.08,0,1.69-.31,1.69-1.19,0-.41-.05-.72-.11-.92l1.19-.07c.13,.31,.22,.79,.22,1.4,0,.74-.23,1.33-.67,1.71-.47,.45-1.24,.61-2.27,.61h-4.75v1.35h-1.21v-1.35h-2.09l-.41-1.55Z"/><path class="cls-11" d="M999.18,221.9c.31-.47,.63-1.3,.63-2.09,0-1.15-.58-1.69-1.3-1.69-.76,0-1.17,.45-1.6,1.62-.56,1.57-1.42,2.3-2.47,2.3-1.4,0-2.56-1.13-2.56-3.01,0-.88,.25-1.66,.54-2.14l1.15,.4c-.22,.34-.5,.97-.5,1.78,0,.94,.54,1.46,1.19,1.46,.72,0,1.04-.52,1.48-1.66,.58-1.51,1.33-2.29,2.63-2.29,1.53,0,2.61,1.19,2.61,3.26,0,.95-.23,1.84-.59,2.45l-1.21-.4Z"/></g><g><path class="cls-11" d="M116.35,437.56l-3.96-12.14h1.69l1.89,5.98c.52,1.64,.97,3.12,1.3,4.54h.04c.34-1.41,.85-2.94,1.39-4.52l2.05-6h1.67l-4.34,12.14h-1.73Z"/><path class="cls-11" d="M127.46,433.77h-3.14v2.91h3.5v.88h-4.55v-8.08h4.37v.88h-3.32v2.55h3.14v.86Z"/><path class="cls-11" d="M133.36,433.77h-3.14v2.91h3.5v.88h-4.55v-8.08h4.37v.88h-3.32v2.55h3.14v.86Z"/></g><g><path class="cls-11" d="M543.06,243.21h-.04l-2.04,1.1-.31-1.21,2.56-1.37h1.35v11.7h-1.53v-10.23Z"/><path class="cls-11" d="M549.24,251.62c.45,.29,1.49,.74,2.59,.74,2.03,0,2.66-1.3,2.65-2.27-.02-1.64-1.49-2.34-3.03-2.34h-.88v-1.19h.88c1.15,0,2.61-.59,2.61-1.98,0-.94-.59-1.76-2.05-1.76-.94,0-1.84,.41-2.34,.77l-.41-1.15c.61-.45,1.8-.9,3.06-.9,2.3,0,3.35,1.37,3.35,2.79,0,1.21-.72,2.23-2.16,2.75v.04c1.44,.29,2.61,1.37,2.61,3.01,0,1.87-1.46,3.51-4.27,3.51-1.31,0-2.47-.41-3.04-.79l.43-1.22Z"/></g><g><path class="cls-11" d="M490.41,254.7l-1.55-2.68c-.63-1.03-1.03-1.69-1.4-2.4h-.04c-.34,.7-.68,1.35-1.31,2.41l-1.46,2.67h-1.8l3.71-6.14-3.56-6h1.82l1.6,2.84c.45,.79,.79,1.4,1.12,2.05h.05c.34-.72,.65-1.28,1.1-2.05l1.66-2.84h1.8l-3.69,5.91,3.78,6.23h-1.82Z"/><path class="cls-11" d="M506.34,254.3c-.58,.29-1.73,.58-3.21,.58-3.42,0-6-2.16-6-6.14s2.57-6.37,6.34-6.37c1.51,0,2.47,.32,2.88,.54l-.38,1.28c-.59-.29-1.44-.5-2.45-.5-2.84,0-4.74,1.82-4.74,5.01,0,2.97,1.71,4.88,4.66,4.88,.95,0,1.93-.2,2.56-.5l.32,1.24Z"/><path class="cls-11" d="M518.3,248.51c0,4.18-2.54,6.39-5.64,6.39s-5.46-2.48-5.46-6.16c0-3.85,2.4-6.37,5.64-6.37s5.46,2.54,5.46,6.14Zm-9.42,.2c0,2.59,1.4,4.92,3.87,4.92s3.89-2.29,3.89-5.04c0-2.41-1.26-4.93-3.87-4.93s-3.89,2.39-3.89,5.06Z"/><path class="cls-11" d="M530.55,249.37c-.09-1.69-.2-3.73-.18-5.24h-.05c-.41,1.42-.92,2.94-1.53,4.61l-2.14,5.89h-1.19l-1.96-5.78c-.58-1.71-1.06-3.28-1.4-4.72h-.04c-.04,1.51-.13,3.55-.23,5.37l-.32,5.2h-1.49l.85-12.14h2l2.07,5.87c.5,1.49,.92,2.83,1.22,4.09h.05c.31-1.22,.74-2.56,1.28-4.09l2.16-5.87h2l.76,12.14h-1.53l-.31-5.33Z"/></g><path class="cls-11" d="M598.07,476.2c-.32-.02-.74,0-1.19,.07-2.48,.41-3.8,2.23-4.07,4.16h.05c.56-.74,1.53-1.35,2.83-1.35,2.07,0,3.53,1.49,3.53,3.78,0,2.14-1.46,4.12-3.89,4.12s-4.14-1.94-4.14-4.99c0-2.3,.83-4.12,1.98-5.28,.97-.96,2.27-1.55,3.75-1.73,.47-.07,.86-.09,1.15-.09v1.3Zm-.45,6.75c0-1.67-.95-2.68-2.41-2.68-.96,0-1.84,.59-2.27,1.44-.11,.18-.18,.41-.18,.7,.04,1.93,.92,3.35,2.57,3.35,1.37,0,2.29-1.13,2.29-2.81Z"/><g><path class="cls-11" d="M606.3,75.99h-.04l-2.04,1.1-.31-1.21,2.56-1.37h1.35v11.7h-1.53v-10.23Z"/><path class="cls-11" d="M618.77,75.63c-.32-.02-.74,0-1.19,.07-2.48,.41-3.8,2.23-4.07,4.16h.05c.56-.74,1.53-1.35,2.83-1.35,2.07,0,3.53,1.49,3.53,3.78,0,2.14-1.46,4.12-3.89,4.12s-4.14-1.94-4.14-4.99c0-2.3,.83-4.12,1.98-5.28,.97-.95,2.27-1.55,3.75-1.73,.47-.07,.86-.09,1.15-.09v1.3Zm-.45,6.75c0-1.67-.95-2.68-2.41-2.68-.95,0-1.84,.59-2.27,1.44-.11,.18-.18,.41-.18,.7,.04,1.93,.92,3.35,2.57,3.35,1.37,0,2.29-1.13,2.29-2.81Z"/></g><path class="cls-11" d="M681.49,483.57c0-1.48,.88-2.52,2.32-3.13l-.02-.05c-1.3-.61-1.85-1.62-1.85-2.63,0-1.85,1.57-3.11,3.62-3.11,2.27,0,3.4,1.42,3.4,2.88,0,.99-.49,2.05-1.93,2.74v.05c1.46,.58,2.36,1.6,2.36,3.03,0,2.03-1.75,3.4-3.98,3.4-2.45,0-3.93-1.46-3.93-3.17Zm6.3-.07c0-1.42-.99-2.11-2.58-2.56-1.37,.4-2.11,1.3-2.11,2.41-.05,1.19,.85,2.23,2.34,2.23s2.34-.88,2.34-2.09Zm-4.36-5.85c0,1.17,.88,1.8,2.23,2.16,1.01-.34,1.78-1.06,1.78-2.12,0-.94-.56-1.91-1.98-1.91-1.31,0-2.03,.86-2.03,1.87Z"/><path class="cls-11" d="M549.23,280.42c.45,.29,1.49,.74,2.59,.74,2.04,0,2.67-1.3,2.65-2.27-.02-1.64-1.49-2.34-3.02-2.34h-.88v-1.19h.88c1.15,0,2.61-.59,2.61-1.98,0-.94-.59-1.76-2.05-1.76-.94,0-1.84,.41-2.34,.77l-.41-1.15c.61-.45,1.8-.9,3.06-.9,2.3,0,3.35,1.37,3.35,2.79,0,1.21-.72,2.23-2.16,2.75v.04c1.44,.29,2.61,1.37,2.61,3.01,0,1.87-1.46,3.51-4.27,3.51-1.31,0-2.47-.41-3.04-.79l.43-1.22Z"/><g><path class="cls-11" d="M486.47,283.5v-5.15l-3.84-6.99h1.78l1.71,3.35c.47,.92,.83,1.66,1.21,2.5h.04c.34-.79,.76-1.58,1.22-2.5l1.75-3.35h1.78l-4.07,6.97v5.17h-1.58Z"/><path class="cls-11" d="M505.8,283.1c-.58,.29-1.73,.58-3.21,.58-3.42,0-6-2.16-6-6.14s2.58-6.37,6.34-6.37c1.51,0,2.47,.32,2.88,.54l-.38,1.28c-.59-.29-1.44-.5-2.45-.5-2.84,0-4.74,1.82-4.74,5.01,0,2.97,1.71,4.88,4.66,4.88,.96,0,1.93-.2,2.56-.5l.32,1.24Z"/><path class="cls-11" d="M517.76,277.31c0,4.18-2.54,6.39-5.64,6.39s-5.46-2.48-5.46-6.16,2.39-6.37,5.64-6.37,5.46,2.54,5.46,6.14Zm-9.42,.2c0,2.59,1.4,4.92,3.87,4.92s3.89-2.29,3.89-5.04c0-2.41-1.26-4.93-3.87-4.93s-3.89,2.39-3.89,5.06Z"/><path class="cls-11" d="M530.01,278.17c-.09-1.69-.2-3.73-.18-5.24h-.05c-.41,1.42-.92,2.94-1.53,4.61l-2.14,5.89h-1.19l-1.96-5.78c-.58-1.71-1.06-3.28-1.4-4.72h-.04c-.04,1.51-.13,3.55-.23,5.37l-.32,5.2h-1.49l.85-12.14h2l2.07,5.87c.5,1.49,.92,2.83,1.22,4.09h.05c.31-1.22,.74-2.56,1.28-4.09l2.16-5.87h2l.76,12.14h-1.53l-.31-5.33Z"/></g><g><path class="cls-11" d="M767.83,527.04l-3.96-12.14h1.69l1.89,5.98c.52,1.64,.97,3.12,1.3,4.54h.04c.34-1.4,.85-2.93,1.39-4.52l2.05-6h1.67l-4.34,12.14h-1.73Z"/><path class="cls-11" d="M778.94,523.25h-3.14v2.91h3.5v.88h-4.54v-8.08h4.37v.88h-3.32v2.55h3.14v.86Z"/><path class="cls-11" d="M784.84,523.25h-3.14v2.91h3.5v.88h-4.55v-8.08h4.37v.88h-3.32v2.55h3.14v.86Z"/></g><g><path class="cls-11" d="M595.23,510.58v12.14h-1.57v-12.14h1.57Z"/><path class="cls-11" d="M597.97,522.72v-12.14h1.71l3.89,6.14c.9,1.42,1.6,2.7,2.18,3.94l.04-.02c-.14-1.62-.18-3.1-.18-4.99v-5.08h1.48v12.14h-1.58l-3.85-6.16c-.85-1.35-1.66-2.74-2.27-4.05l-.05,.02c.09,1.53,.13,2.99,.13,5v5.19h-1.48Z"/><path class="cls-11" d="M611.38,510.58v5.08h5.87v-5.08h1.58v12.14h-1.58v-5.69h-5.87v5.69h-1.57v-12.14h1.57Z"/></g><path class="cls-11" d="M752.59,474.84v1.04l-5.1,10.66h-1.64l5.08-10.35v-.04h-5.73v-1.31h7.38Z"/></g></svg>