<?xml version="1.0" encoding="UTF-8"?><svg xmlns="http://www.w3.org/2000/svg" viewBox="0 0 1080 600.48"><defs><style>.cls-1{stroke-width:3px;}.cls-1,.cls-2,.cls-3,.cls-4{fill:none;stroke:#1d1e1b;stroke-miterlimit:10;}.cls-5,.cls-6,.cls-7{fill:#1d1e1b;}.cls-5,.cls-7{font-family:Roboto-Regular, Roboto;}.cls-8{letter-spacing:-.01em;}.cls-9{fill:#fff;}.cls-2{stroke-width:2px;}.cls-3{stroke-width:2px;}.cls-10,.cls-7{font-size:18px;}.cls-11{letter-spacing:0em;}.cls-12{letter-spacing:-.02em;}.cls-13{font-size:12px;}.cls-14{letter-spacing:0em;}</style></defs><g id="TEXT"><text class="cls-7" transform="translate(78.47 95.58)"><tspan x="0" y="0">1</tspan></text><text class="cls-7" transform="translate(78.47 153.18)"><tspan x="0" y="0">2</tspan></text><text class="cls-7" transform="translate(78.47 210.78)"><tspan x="0" y="0">3</tspan></text><text class="cls-7" transform="translate(78.47 268.38)"><tspan x="0" y="0">4</tspan></text><text class="cls-7" transform="translate(78.47 325.98)"><tspan x="0" y="0">5</tspan></text><text class="cls-7" transform="translate(78.47 383.58)"><tspan x="0" y="0">6</tspan></text><text class="cls-7" transform="translate(78.47 441.18)"><tspan x="0" y="0">7</tspan></text><text class="cls-7" transform="translate(331.89 210.78)"><tspan x="0" y="0">14</tspan></text><text class="cls-7" transform="translate(331.89 268.38)"><tspan x="0" y="0">13</tspan></text><text class="cls-7" transform="translate(331.89 325.98)"><tspan x="0" y="0">12</tspan></text><text class="cls-7" transform="translate(331.89 383.58)"><tspan x="0" y="0">11</tspan></text><text class="cls-7" transform="translate(331.89 441.18)"><tspan x="0" y="0">10</tspan></text><text class="cls-7" transform="translate(337.67 498.78)"><tspan x="0" y="0">9</tspan></text><text class="cls-5" transform="translate(112.32 498.78)"><tspan class="cls-10" x="0" y="0">V</tspan><tspan class="cls-13" x="11.45" y="0">SS</tspan></text><text class="cls-5" transform="translate(286.73 95.58)"><tspan class="cls-10" x="0" y="0">V</tspan><tspan class="cls-13" x="11.45" y="0">DD</tspan></text><text class="cls-7" transform="translate(181.15 565.92)"><tspan x="0" y="0">CD4046</tspan></text><text class="cls-7" transform="translate(78.47 498.78)"><tspan x="0" y="0">8</tspan></text><text class="cls-7" transform="translate(331.89 95.58)"><tspan x="0" y="0">16</tspan></text><text class="cls-7" transform="translate(331.89 153.18)"><tspan x="0" y="0">15</tspan></text><text class="cls-7" transform="translate(113 95.58)"><tspan x="0" y="0">Phase Pulses</tspan></text><text class="cls-7" transform="translate(112.32 153.18)"><tspan x="0" y="0">Phase Comp I </tspan><tspan x="0" y="21.6">OU</tspan><tspan class="cls-12" x="24.05" y="21.6">T</tspan></text><text class="cls-7" transform="translate(112.32 210.78)"><tspan x="0" y="0">Compa</tspan><tspan class="cls-12" x="57.65" y="0">r</tspan><tspan x="63.39" y="0">a</tspan><tspan class="cls-11" x="73.18" y="0">t</tspan><tspan x="78.88" y="0">or </tspan><tspan x="0" y="21.6">In</tspan></text><text class="cls-7" transform="translate(112.32 268.38)"><tspan class="cls-14" x="0" y="0">V</tspan><tspan x="11.34" y="0">CO Out</tspan></text><text class="cls-7" transform="translate(112.32 325.98)"><tspan x="0" y="0">Inhibit</tspan></text><text class="cls-7" transform="translate(112.32 383.58)"><tspan x="0" y="0">CI (1)</tspan></text><text class="cls-7" transform="translate(112.32 441.18)"><tspan x="0" y="0">CI (2)</tspan></text><text class="cls-7" transform="translate(245.4 210.78)"><tspan x="0" y="0">Signal In</tspan></text><text class="cls-7" transform="translate(211.73 268.38)"><tspan x="0" y="0">Phase Comp </tspan><tspan x="59.77" y="21.6">II Out</tspan></text><text class="cls-7" transform="translate(237.83 325.98)"><tspan x="0" y="0">R2 </tspan><tspan class="cls-11" x="25.65" y="0">t</tspan><tspan x="31.35" y="0">o Vss</tspan></text><text class="cls-7" transform="translate(237.83 383.58)"><tspan x="0" y="0">R1 </tspan><tspan class="cls-11" x="25.65" y="0">t</tspan><tspan x="31.35" y="0">o Vss</tspan></text><text class="cls-7" transform="translate(210.24 441.18)"><tspan x="0" y="0">Demodula</tspan><tspan class="cls-11" x="81.62" y="0">t</tspan><tspan x="87.32" y="0">or </tspan><tspan x="75.5" y="21.6">Out</tspan></text><text class="cls-7" transform="translate(259.21 498.78)"><tspan class="cls-14" x="0" y="0">V</tspan><tspan x="11.34" y="0">CO In</tspan></text><text class="cls-7" transform="translate(268.23 153.18)"><tspan class="cls-8" x="0" y="0">Z</tspan><tspan x="10.59" y="0">ener</tspan></text><text class="cls-5" transform="translate(530.04 578.88)"><tspan class="cls-10" x="0" y="0">V</tspan><tspan class="cls-13" x="11.45" y="0">SS</tspan></text><text class="cls-7" transform="translate(529.4 316.8)"><tspan x="0" y="0">R1</tspan></text><text class="cls-7" transform="translate(417.4 230.4)"><tspan x="0" y="0">Input</tspan></text><text class="cls-5" transform="translate(702.09 53.28)"><tspan class="cls-10" x="0" y="0">V</tspan><tspan class="cls-13" x="11.45" y="0">DD</tspan></text><text class="cls-7" transform="translate(790.53 364.32)"><tspan x="0" y="0">9</tspan></text><text class="cls-7" transform="translate(790.53 122.4)"><tspan x="0" y="0">3</tspan></text><text class="cls-7" transform="translate(931.58 505.44)"><tspan x="0" y="0">C</tspan></text><text class="cls-7" transform="translate(905.24 446.4)"><tspan x="0" y="0">R2</tspan></text><text class="cls-7" transform="translate(590.37 370.62)"><tspan x="0" y="0">5</tspan></text><text class="cls-7" transform="translate(578.83 413.82)"><tspan x="0" y="0">11</tspan></text><text class="cls-7" transform="translate(841.92 286.56)"><tspan x="0" y="0">VR1</tspan></text><text class="cls-7" transform="translate(577.39 241.02)"><tspan x="0" y="0">14</tspan></text><text class="cls-7" transform="translate(780.43 212.22)"><tspan x="0" y="0">13</tspan></text><text class="cls-7" transform="translate(699.11 476.64)"><tspan x="0" y="0">8</tspan></text><text class="cls-7" transform="translate(695.49 80.64)"><tspan x="0" y="0">16</tspan></text><text class="cls-7" transform="translate(968 151.2)"><tspan x="0" y="0">Output</tspan></text><text class="cls-7" transform="translate(790.53 168.48)"><tspan x="0" y="0">4</tspan></text><text class="cls-7" transform="translate(616.32 429.12)"><tspan x="0" y="0">1, 2, 10, 12, 15 </tspan><tspan x="0" y="21.6">not used</tspan></text><text class="cls-7" transform="translate(557.18 162.72)"><tspan x="0" y="0">C</tspan></text><text class="cls-7" transform="translate(586.05 197.82)"><tspan x="0" y="0">6</tspan></text><text class="cls-7" transform="translate(586.05 109.98)"><tspan x="0" y="0">7</tspan></text></g><g id="Linie"><line class="cls-1" x1="97.92" y1="43.2" x2="198.72" y2="43.2"/><line class="cls-1" x1="227.52" y1="43.2" x2="328.32" y2="43.2"/><path class="cls-1" d="M227.52,43.2c0,7.95-6.45,14.4-14.4,14.4s-14.4-6.45-14.4-14.4"/><rect class="cls-4" x="69.12" y="72" width="28.8" height="28.8"/><rect class="cls-4" x="69.12" y="129.6" width="28.8" height="28.8"/><rect class="cls-4" x="69.12" y="187.2" width="28.8" height="28.8"/><line class="cls-1" x1="97.92" y1="43.2" x2="97.92" y2="534.24"/><line class="cls-1" x1="97.92" y1="532.8" x2="328.32" y2="532.8"/><line class="cls-1" x1="328.32" y1="43.2" x2="328.32" y2="532.8"/><rect class="cls-4" x="69.12" y="244.8" width="28.8" height="28.8"/><rect class="cls-4" x="69.12" y="302.4" width="28.8" height="28.8"/><rect class="cls-4" x="69.12" y="360" width="28.8" height="28.8"/><rect class="cls-4" x="69.12" y="417.6" width="28.8" height="28.8"/><rect class="cls-4" x="328.32" y="187.2" width="28.8" height="28.8"/><rect class="cls-4" x="328.32" y="244.8" width="28.8" height="28.8"/><rect class="cls-4" x="328.32" y="302.4" width="28.8" height="28.8"/><rect class="cls-4" x="328.32" y="360" width="28.8" height="28.8"/><rect class="cls-4" x="328.32" y="417.6" width="28.8" height="28.8"/><rect class="cls-4" x="328.32" y="475.2" width="28.8" height="28.8"/><rect class="cls-4" x="69.12" y="475.2" width="28.8" height="28.8"/><rect class="cls-4" x="328.32" y="72" width="28.8" height="28.8"/><rect class="cls-4" x="328.32" y="129.6" width="28.8" height="28.8"/><line class="cls-3" x1="515.52" y1="417.6" x2="604.8" y2="417.6"/><line class="cls-3" x1="515.52" y1="374.4" x2="604.8" y2="374.4"/><g><line class="cls-3" x1="435.59" y1="244.8" x2="604.8" y2="244.8"/><g><path class="cls-9" d="M435.94,250.82c-3.32,0-6.02-2.69-6.02-6.02s2.69-6.02,6.02-6.02,6.02,2.69,6.02,6.02c0,3.32-2.69,6.02-6.02,6.02Z"/><path class="cls-6" d="M435.94,251.62c3.76,0,6.82-3.06,6.82-6.82s-3.06-6.82-6.82-6.82c-3.76,0-6.82,3.06-6.82,6.82,0,3.76,3.06,6.82,6.82,6.82s-3.76,0,0,0Zm0-12.03c2.88,0,5.22,2.34,5.22,5.22s-2.34,5.22-5.22,5.22-5.22-2.34-5.22-5.22,2.34-5.22,5.22-5.22-2.88,0,0,0Z"/></g></g><line class="cls-3" x1="515.52" y1="372.96" x2="515.52" y2="504"/><line class="cls-3" x1="515.52" y1="503.77" x2="515.52" y2="558.72"/><rect class="cls-3" x="604.8" y="86.4" width="172.8" height="374.4"/><g><line class="cls-3" x1="691.2" y1="86.4" x2="691.2" y2="45.92"/><polygon class="cls-6" points="700.74 63.65 697.92 64.68 691.2 46.21 684.48 64.68 681.66 63.65 691.2 37.44 700.74 63.65"/></g><line class="cls-3" x1="691.2" y1="460.8" x2="691.2" y2="532.8"/><line class="cls-3" x1="777.6" y1="129.6" x2="846.72" y2="129.6"/><line class="cls-3" x1="777.6" y1="374.4" x2="889.92" y2="374.4"/><g><line class="cls-3" x1="777.6" y1="172.8" x2="1000.43" y2="172.8"/><polygon class="cls-6" points="990.49 185.07 988.44 182.87 999.28 172.8 988.44 162.73 990.49 160.53 1003.68 172.8 990.49 185.07"/></g><rect class="cls-3" x="853.92" y="427.68" width="72" height="23.04" transform="translate(1329.12 -450.72) rotate(90)"/><rect class="cls-3" x="479.52" y="298.08" width="72" height="23.04" transform="translate(205.92 825.12) rotate(-90)"/><line class="cls-3" x1="515.52" y1="244.8" x2="515.52" y2="273.6"/><line class="cls-3" x1="515.52" y1="345.6" x2="515.52" y2="374.4"/><line class="cls-3" x1="846.72" y1="172.8" x2="846.72" y2="129.6"/><line class="cls-3" x1="889.92" y1="504" x2="889.92" y2="532.8"/><line class="cls-3" x1="889.92" y1="491.04" x2="889.92" y2="475.2"/><line class="cls-3" x1="889.92" y1="374.4" x2="889.92" y2="403.2"/><rect class="cls-3" x="853.92" y="269.28" width="72" height="23.04" transform="translate(1170.72 -609.12) rotate(90)"/><line class="cls-3" x1="777.6" y1="216" x2="889.92" y2="216"/><line class="cls-3" x1="889.92" y1="244.8" x2="889.92" y2="216"/><line class="cls-3" x1="889.92" y1="374.4" x2="889.92" y2="316.8"/><line class="cls-3" x1="933.12" y1="280.8" x2="933.12" y2="331.2"/><g><line class="cls-3" x1="909.85" y1="280.8" x2="933.12" y2="280.8"/><polygon class="cls-6" points="911.16 271.08 911.16 290.52 901.44 280.8 911.16 271.08"/></g><line class="cls-3" x1="889.92" y1="331.2" x2="933.12" y2="331.2"/><line class="cls-3" x1="889.92" y1="532.8" x2="515.52" y2="532.8"/><line class="cls-3" x1="515.52" y1="161.28" x2="515.52" y2="201.6"/><line class="cls-3" x1="515.52" y1="148.32" x2="515.52" y2="115.2"/><line class="cls-3" x1="515.52" y1="201.6" x2="604.8" y2="201.6"/><line class="cls-3" x1="515.52" y1="115.2" x2="604.8" y2="115.2"/><polygon class="cls-2" points="515.52 558.72 531.36 558.72 523.44 567.36 515.52 576 507.6 567.36 499.68 558.72 515.52 558.72"/></g><g id="Field"><circle class="cls-6" cx="515.52" cy="244.8" r="4.32"/><circle class="cls-6" cx="515.52" cy="374.4" r="4.32"/><circle class="cls-6" cx="515.52" cy="417.6" r="4.32"/><circle class="cls-6" cx="515.52" cy="532.8" r="4.32"/><circle class="cls-6" cx="691.2" cy="532.8" r="4.32"/><circle class="cls-6" cx="889.92" cy="374.4" r="4.32"/><circle class="cls-6" cx="889.92" cy="331.2" r="4.32"/><circle class="cls-6" cx="846.72" cy="172.8" r="4.32"/><rect class="cls-6" x="859.68" y="501.12" width="60.48" height="7.2"/><rect class="cls-6" x="859.68" y="489.6" width="60.48" height="7.2"/><rect class="cls-6" x="485.28" y="158.4" width="60.48" height="7.2"/><rect class="cls-6" x="485.28" y="146.88" width="60.48" height="7.2"/></g></svg>