<?xml version="1.0" encoding="UTF-8"?><svg xmlns="http://www.w3.org/2000/svg" viewBox="0 0 1080 600.48"><defs><style>.cls-1{stroke-width:3px;}.cls-1,.cls-2,.cls-3,.cls-4,.cls-5,.cls-6,.cls-7,.cls-8,.cls-9,.cls-10,.cls-11,.cls-12,.cls-13,.cls-14,.cls-15,.cls-16,.cls-17{fill:none;stroke:#1d1e1b;stroke-miterlimit:10;}.cls-2{stroke-dasharray:0 0 1.42 1.42;}.cls-2,.cls-4,.cls-5,.cls-6,.cls-7,.cls-8,.cls-13,.cls-14,.cls-16,.cls-17{stroke-width:1px;}.cls-3{stroke-dasharray:0 0 6 6;}.cls-4{stroke-dasharray:0 0 1.4 1.4;}.cls-5{stroke-dasharray:0 0 1.41 1.41;}.cls-6{stroke-dasharray:0 0 1.42 1.42;}.cls-18,.cls-19{fill:#cad2d9;}.cls-20{fill:#1d1e1b;}.cls-7{stroke-dasharray:0 0 1.44 1.44;}.cls-8{stroke-dasharray:0 0 1.33 1.33;}.cls-9{stroke-width:2px;}.cls-10{stroke-width:2px;}.cls-11{stroke-width:2px;}.cls-13{stroke-dasharray:0 0 1.4 1.4;}.cls-14{stroke-dasharray:0 0 1.41 1.41;}.cls-15{stroke-dasharray:0 2.69;stroke-width:.85px;}.cls-16{stroke-dasharray:0 0 1.39 1.39;}.cls-19{opacity:.5;}</style></defs><g id="Field"><rect class="cls-19" x="241.92" y="216" width="57.6" height="57.6" transform="translate(25.92 515.52) rotate(-90)"/><rect class="cls-19" x="184.32" y="86.4" width="57.6" height="57.6"/><rect class="cls-19" x="126.72" y="230.4" width="57.6" height="57.6" transform="translate(311.04 518.4) rotate(180)"/><circle class="cls-18" cx="630.72" cy="167.04" r="2.88"/><circle class="cls-18" cx="708.48" cy="167.04" r="2.88"/><circle class="cls-18" cx="630.72" cy="296.64" r="2.88"/><circle class="cls-18" cx="708.48" cy="296.64" r="2.88"/><circle class="cls-18" cx="708.48" cy="426.24" r="2.88"/><circle class="cls-18" cx="630.72" cy="426.24" r="2.88"/></g><g id="Line"><rect class="cls-17" x="184.32" y="86.4" width="57.6" height="57.6"/><rect class="cls-17" x="241.92" y="216" width="57.6" height="57.6"/><rect class="cls-17" x="126.72" y="230.4" width="57.6" height="57.6"/><rect class="cls-11" x="610.56" y="95.04" width="172.8" height="403.2"/><g><line class="cls-11" x1="785.53" y1="145.44" x2="987.47" y2="145.44"/><polygon class="cls-20" points="792.16 153.62 793.52 152.15 786.3 145.44 793.52 138.73 792.16 137.26 783.36 145.44 792.16 153.62"/><polygon class="cls-20" points="977.53 157.71 975.48 155.51 986.32 145.44 975.48 135.37 977.53 133.17 990.72 145.44 977.53 157.71"/></g><g><line class="cls-11" x1="785.53" y1="188.64" x2="987.47" y2="188.64"/><polygon class="cls-20" points="792.16 196.82 793.52 195.35 786.3 188.64 793.52 181.93 792.16 180.46 783.36 188.64 792.16 196.82"/><polygon class="cls-20" points="977.53 200.91 975.48 198.71 986.32 188.64 975.48 178.57 977.53 176.37 990.72 188.64 977.53 200.91"/></g><g><line class="cls-11" x1="785.53" y1="275.04" x2="987.47" y2="275.04"/><polygon class="cls-20" points="792.16 283.22 793.52 281.75 786.3 275.04 793.52 268.33 792.16 266.86 783.36 275.04 792.16 283.22"/><polygon class="cls-20" points="977.53 287.31 975.48 285.11 986.32 275.04 975.48 264.97 977.53 262.77 990.72 275.04 977.53 287.31"/></g><g><line class="cls-11" x1="785.53" y1="318.24" x2="987.47" y2="318.24"/><polygon class="cls-20" points="792.16 326.42 793.52 324.95 786.3 318.24 793.52 311.53 792.16 310.06 783.36 318.24 792.16 326.42"/><polygon class="cls-20" points="977.53 330.51 975.48 328.31 986.32 318.24 975.48 308.17 977.53 305.97 990.72 318.24 977.53 330.51"/></g><g><line class="cls-11" x1="785.53" y1="404.64" x2="987.47" y2="404.64"/><polygon class="cls-20" points="792.16 412.82 793.52 411.35 786.3 404.64 793.52 397.93 792.16 396.46 783.36 404.64 792.16 412.82"/><polygon class="cls-20" points="977.53 416.91 975.48 414.71 986.32 404.64 975.48 394.57 977.53 392.37 990.72 404.64 977.53 416.91"/></g><g><line class="cls-11" x1="785.53" y1="447.84" x2="987.47" y2="447.84"/><polygon class="cls-20" points="792.16 456.02 793.52 454.55 786.3 447.84 793.52 441.13 792.16 439.66 783.36 447.84 792.16 456.02"/><polygon class="cls-20" points="977.53 460.11 975.48 457.91 986.32 447.84 975.48 437.77 977.53 435.57 990.72 447.84 977.53 460.11"/></g><g><line class="cls-11" x1="696.96" y1="95.04" x2="696.96" y2="54.56"/><polygon class="cls-20" points="706.5 72.29 703.68 73.32 696.96 54.85 690.24 73.32 687.42 72.29 696.96 46.08 706.5 72.29"/></g><line class="cls-11" x1="696.96" y1="498.24" x2="696.96" y2="541.44"/><g><line class="cls-10" x1="465.85" y1="426.24" x2="607.79" y2="426.24"/><polygon class="cls-20" points="472.48 434.42 473.85 432.96 466.62 426.24 473.85 419.52 472.48 418.06 463.68 426.24 472.48 434.42"/><polygon class="cls-20" points="597.85 438.52 595.8 436.32 606.64 426.24 595.8 416.16 597.85 413.97 611.05 426.24 597.85 438.52"/></g><g><line class="cls-12" x1="645.12" y1="139.68" x2="645.12" y2="142.68"/><line class="cls-3" x1="645.12" y1="148.68" x2="645.12" y2="493.68"/><line class="cls-12" x1="645.12" y1="496.68" x2="645.12" y2="499.68"/></g><line class="cls-11" x1="645.08" y1="497.38" x2="645.08" y2="540.58"/><line class="cls-11" x1="745.92" y1="498.24" x2="745.92" y2="541.44"/><line class="cls-10" x1="741.6" y1="444.96" x2="708.48" y2="426.24"/><rect class="cls-15" x="694.08" y="396" width="66.24" height="66.24"/><line class="cls-10" x1="610.56" y1="426.24" x2="630.72" y2="426.24"/><line class="cls-10" x1="659.52" y1="411.84" x2="630.72" y2="426.24"/><line class="cls-10" x1="463.68" y1="390.24" x2="724.32" y2="390.24"/><line class="cls-10" x1="724.32" y1="413.28" x2="724.32" y2="390.24"/><g><line class="cls-10" x1="465.85" y1="296.64" x2="607.79" y2="296.64"/><polygon class="cls-20" points="472.48 304.82 473.85 303.36 466.62 296.64 473.85 289.92 472.48 288.46 463.68 296.64 472.48 304.82"/><polygon class="cls-20" points="597.85 308.92 595.8 306.72 606.64 296.64 595.8 286.56 597.85 284.37 611.05 296.64 597.85 308.92"/></g><line class="cls-10" x1="741.6" y1="315.36" x2="708.48" y2="296.64"/><rect class="cls-15" x="694.08" y="266.4" width="66.24" height="66.24"/><line class="cls-10" x1="610.56" y1="296.64" x2="630.72" y2="296.64"/><line class="cls-10" x1="659.52" y1="282.24" x2="630.72" y2="296.64"/><line class="cls-10" x1="463.68" y1="260.64" x2="724.32" y2="260.64"/><line class="cls-10" x1="724.32" y1="283.68" x2="724.32" y2="260.64"/><g><line class="cls-10" x1="465.85" y1="167.04" x2="607.79" y2="167.04"/><polygon class="cls-20" points="472.48 175.22 473.85 173.76 466.62 167.04 473.85 160.32 472.48 158.86 463.68 167.04 472.48 175.22"/><polygon class="cls-20" points="597.85 179.32 595.8 177.12 606.64 167.04 595.8 156.96 597.85 154.77 611.05 167.04 597.85 179.32"/></g><line class="cls-10" x1="741.6" y1="185.76" x2="708.48" y2="167.04"/><rect class="cls-15" x="694.08" y="136.8" width="66.24" height="66.24"/><line class="cls-10" x1="610.56" y1="167.04" x2="630.72" y2="167.04"/><line class="cls-10" x1="659.52" y1="152.64" x2="630.72" y2="167.04"/><line class="cls-10" x1="463.68" y1="131.04" x2="724.32" y2="131.04"/><line class="cls-10" x1="724.32" y1="154.08" x2="724.32" y2="131.04"/><polygon class="cls-10" points="696.96 541.44 711.36 541.44 704.16 550.08 696.96 558.72 689.76 550.08 682.56 541.44 696.96 541.44"/><line class="cls-1" x1="97.92" y1="43.2" x2="198.72" y2="43.2"/><line class="cls-1" x1="227.52" y1="43.2" x2="328.32" y2="43.2"/><path class="cls-1" d="M227.52,43.2c0,7.95-6.45,14.4-14.4,14.4s-14.4-6.45-14.4-14.4"/><rect class="cls-12" x="69.12" y="72" width="28.8" height="28.8"/><rect class="cls-12" x="69.12" y="129.6" width="28.8" height="28.8"/><rect class="cls-12" x="69.12" y="187.2" width="28.8" height="28.8"/><line class="cls-1" x1="97.92" y1="43.2" x2="97.92" y2="534.24"/><line class="cls-1" x1="97.92" y1="532.8" x2="328.32" y2="532.8"/><line class="cls-1" x1="328.32" y1="43.2" x2="328.32" y2="532.8"/><rect class="cls-12" x="69.12" y="244.8" width="28.8" height="28.8"/><rect class="cls-12" x="69.12" y="302.4" width="28.8" height="28.8"/><rect class="cls-12" x="69.12" y="360" width="28.8" height="28.8"/><rect class="cls-12" x="69.12" y="417.6" width="28.8" height="28.8"/><rect class="cls-12" x="328.32" y="187.2" width="28.8" height="28.8"/><rect class="cls-12" x="328.32" y="244.8" width="28.8" height="28.8"/><rect class="cls-12" x="328.32" y="302.4" width="28.8" height="28.8"/><rect class="cls-12" x="328.32" y="360" width="28.8" height="28.8"/><rect class="cls-12" x="328.32" y="417.6" width="28.8" height="28.8"/><rect class="cls-12" x="328.32" y="475.2" width="28.8" height="28.8"/><rect class="cls-12" x="69.12" y="475.2" width="28.8" height="28.8"/><rect class="cls-12" x="328.32" y="72" width="28.8" height="28.8"/><rect class="cls-12" x="328.32" y="129.6" width="28.8" height="28.8"/><line class="cls-12" x1="97.92" y1="86.4" x2="155.52" y2="86.4"/><line class="cls-12" x1="97.92" y1="144" x2="155.52" y2="144"/><line class="cls-12" x1="155.52" y1="129.6" x2="155.52" y2="144"/><line class="cls-12" x1="155.52" y1="86.4" x2="155.52" y2="100.8"/><g><line class="cls-17" x1="231.09" y1="115.2" x2="270.72" y2="115.2"/><path class="cls-20" d="M231.28,118.96c-2.08,0-3.76-1.68-3.76-3.76s1.68-3.76,3.76-3.76,3.76,1.68,3.76,3.76-1.68,3.76-3.76,3.76Z"/></g><line class="cls-12" x1="270.72" y1="144" x2="328.32" y2="144"/><line class="cls-12" x1="270.72" y1="115.2" x2="270.72" y2="144"/><line class="cls-17" x1="178.56" y1="273.6" x2="198.72" y2="273.6"/><g><line class="cls-17" x1="137.55" y1="259.2" x2="97.92" y2="259.2"/><path class="cls-20" d="M137.36,255.44c2.08,0,3.76,1.68,3.76,3.76s-1.68,3.76-3.76,3.76-3.76-1.68-3.76-3.76,1.68-3.76,3.76-3.76Z"/></g><line class="cls-12" x1="97.92" y1="201.6" x2="198.72" y2="201.6"/><line class="cls-12" x1="198.72" y1="244.8" x2="198.72" y2="201.6"/><line class="cls-12" x1="97.92" y1="316.8" x2="198.72" y2="316.8"/><line class="cls-12" x1="198.72" y1="273.6" x2="198.72" y2="316.8"/><g><line class="cls-17" x1="270.72" y1="226.83" x2="270.72" y2="201.6"/><path class="cls-20" d="M274.48,226.64c0,2.08-1.68,3.76-3.76,3.76s-3.76-1.68-3.76-3.76,1.68-3.76,3.76-3.76,3.76,1.68,3.76,3.76Z"/></g><line class="cls-12" x1="328.32" y1="201.6" x2="270.72" y2="201.6"/><line class="cls-12" x1="313.92" y1="288" x2="285.12" y2="288"/><line class="cls-12" x1="313.92" y1="259.2" x2="313.92" y2="288"/><line class="cls-12" x1="328.32" y1="259.2" x2="313.92" y2="259.2"/><line class="cls-12" x1="328.32" y1="316.8" x2="256.32" y2="316.8"/><g><line class="cls-17" x1="328.32" y1="432" x2="327.61" y2="432"/><line class="cls-4" x1="326.21" y1="432" x2="214.53" y2="432"/><line class="cls-17" x1="213.83" y1="432" x2="213.12" y2="432"/></g><g><line class="cls-17" x1="213.12" y1="144" x2="213.12" y2="144.71"/><line class="cls-5" x1="213.12" y1="146.12" x2="213.12" y2="430.59"/><line class="cls-17" x1="213.12" y1="431.29" x2="213.12" y2="432"/></g><g><line class="cls-17" x1="328.32" y1="489.6" x2="327.61" y2="489.6"/><line class="cls-6" x1="326.19" y1="489.6" x2="156.94" y2="489.6"/><line class="cls-17" x1="156.23" y1="489.6" x2="155.52" y2="489.6"/></g><g><line class="cls-17" x1="155.52" y1="288" x2="155.52" y2="288.71"/><line class="cls-2" x1="155.52" y1="290.13" x2="155.52" y2="488.18"/><line class="cls-17" x1="155.52" y1="488.89" x2="155.52" y2="489.6"/></g><g><line class="cls-17" x1="241.92" y1="244.8" x2="241.21" y2="244.8"/><line class="cls-7" x1="239.77" y1="244.8" x2="228.95" y2="244.8"/><line class="cls-17" x1="228.23" y1="244.8" x2="227.52" y2="244.8"/></g><g><line class="cls-17" x1="328.32" y1="374.4" x2="327.61" y2="374.4"/><line class="cls-13" x1="326.21" y1="374.4" x2="228.93" y2="374.4"/><line class="cls-17" x1="228.23" y1="374.4" x2="227.52" y2="374.4"/></g><g><line class="cls-17" x1="227.52" y1="244.8" x2="227.52" y2="245.51"/><line class="cls-14" x1="227.52" y1="246.92" x2="227.52" y2="372.99"/><line class="cls-17" x1="227.52" y1="373.69" x2="227.52" y2="374.4"/></g><line class="cls-17" x1="172.8" y1="277.92" x2="136.8" y2="259.2"/><line class="cls-17" x1="270.72" y1="226.08" x2="289.44" y2="262.08"/><line class="cls-17" x1="231.84" y1="115.2" x2="195.84" y2="133.92"/><g><line class="cls-17" x1="155.52" y1="269.28" x2="155.52" y2="269.99"/><line class="cls-8" x1="155.52" y1="271.32" x2="155.52" y2="286.63"/><line class="cls-17" x1="155.52" y1="287.29" x2="155.52" y2="288"/></g><g><line class="cls-17" x1="280.8" y1="244.8" x2="280.09" y2="244.8"/><line class="cls-16" x1="278.7" y1="244.8" x2="243.32" y2="244.8"/><line class="cls-17" x1="242.63" y1="244.8" x2="241.92" y2="244.8"/></g><g><line class="cls-17" x1="213.12" y1="144" x2="213.12" y2="143.29"/><line class="cls-8" x1="213.12" y1="141.96" x2="213.12" y2="126.65"/><line class="cls-17" x1="213.12" y1="125.99" x2="213.12" y2="125.28"/></g><path class="cls-20" d="M174.24,270.28c1.83,0,3.32,1.49,3.32,3.32s-1.49,3.32-3.32,3.32-3.32-1.49-3.32-3.32,1.49-3.32,3.32-3.32m0-1c-2.39,0-4.32,1.93-4.32,4.32s1.93,4.32,4.32,4.32,4.32-1.93,4.32-4.32-1.93-4.32-4.32-4.32h0Z"/><line class="cls-17" x1="178.56" y1="244.8" x2="198.72" y2="244.8"/><path class="cls-20" d="M174.24,241.48c1.83,0,3.32,1.49,3.32,3.32s-1.49,3.32-3.32,3.32-3.32-1.49-3.32-3.32,1.49-3.32,3.32-3.32m0-1c-2.39,0-4.32,1.93-4.32,4.32s1.93,4.32,4.32,4.32,4.32-1.93,4.32-4.32-1.93-4.32-4.32-4.32h0Z"/><line class="cls-17" x1="256.32" y1="267.84" x2="256.32" y2="316.8"/><path class="cls-20" d="M256.32,260.2c1.83,0,3.32,1.49,3.32,3.32s-1.49,3.32-3.32,3.32-3.32-1.49-3.32-3.32,1.49-3.32,3.32-3.32m0-1c-2.39,0-4.32,1.93-4.32,4.32s1.93,4.32,4.32,4.32,4.32-1.93,4.32-4.32-1.93-4.32-4.32-4.32h0Z"/><line class="cls-17" x1="285.12" y1="267.84" x2="285.12" y2="288"/><path class="cls-20" d="M285.12,260.2c1.83,0,3.32,1.49,3.32,3.32s-1.49,3.32-3.32,3.32-3.32-1.49-3.32-3.32,1.49-3.32,3.32-3.32m0-1c-2.39,0-4.32,1.93-4.32,4.32s1.93,4.32,4.32,4.32,4.32-1.93,4.32-4.32-1.93-4.32-4.32-4.32h0Z"/><line class="cls-17" x1="190.08" y1="100.8" x2="155.52" y2="100.8"/><path class="cls-20" d="M194.4,97.48c1.83,0,3.32,1.49,3.32,3.32s-1.49,3.32-3.32,3.32-3.32-1.49-3.32-3.32,1.49-3.32,3.32-3.32m0-1c-2.39,0-4.32,1.93-4.32,4.32s1.93,4.32,4.32,4.32,4.32-1.93,4.32-4.32-1.93-4.32-4.32-4.32h0Z"/><line class="cls-17" x1="190.08" y1="129.6" x2="155.52" y2="129.6"/><path class="cls-20" d="M194.4,126.28c1.83,0,3.32,1.49,3.32,3.32s-1.49,3.32-3.32,3.32-3.32-1.49-3.32-3.32,1.49-3.32,3.32-3.32m0-1c-2.39,0-4.32,1.93-4.32,4.32s1.93,4.32,4.32,4.32,4.32-1.93,4.32-4.32-1.93-4.32-4.32-4.32h0Z"/><line class="cls-9" x1="741.6" y1="318.24" x2="783.36" y2="318.24"/><path class="cls-20" d="M737.28,315.92c1.28,0,2.32,1.04,2.32,2.32s-1.04,2.32-2.32,2.32-2.32-1.04-2.32-2.32,1.04-2.32,2.32-2.32m0-2c-2.39,0-4.32,1.93-4.32,4.32s1.93,4.32,4.32,4.32,4.32-1.93,4.32-4.32-1.93-4.32-4.32-4.32h0Z"/><line class="cls-9" x1="741.6" y1="275.04" x2="783.36" y2="275.04"/><path class="cls-20" d="M737.28,272.72c1.28,0,2.32,1.04,2.32,2.32s-1.04,2.32-2.32,2.32-2.32-1.04-2.32-2.32,1.04-2.32,2.32-2.32m0-2c-2.39,0-4.32,1.93-4.32,4.32s1.93,4.32,4.32,4.32,4.32-1.93,4.32-4.32-1.93-4.32-4.32-4.32h0Z"/><line class="cls-9" x1="741.6" y1="447.84" x2="783.36" y2="447.84"/><path class="cls-20" d="M737.28,445.52c1.28,0,2.32,1.04,2.32,2.32s-1.04,2.32-2.32,2.32-2.32-1.04-2.32-2.32,1.04-2.32,2.32-2.32m0-2c-2.39,0-4.32,1.93-4.32,4.32s1.93,4.32,4.32,4.32,4.32-1.93,4.32-4.32-1.93-4.32-4.32-4.32h0Z"/><line class="cls-9" x1="741.6" y1="404.64" x2="783.36" y2="404.64"/><path class="cls-20" d="M737.28,402.32c1.28,0,2.32,1.04,2.32,2.32s-1.04,2.32-2.32,2.32-2.32-1.04-2.32-2.32,1.04-2.32,2.32-2.32m0-2c-2.39,0-4.32,1.93-4.32,4.32s1.93,4.32,4.32,4.32,4.32-1.93,4.32-4.32-1.93-4.32-4.32-4.32h0Z"/><line class="cls-9" x1="741.6" y1="188.64" x2="783.36" y2="188.64"/><path class="cls-20" d="M737.28,186.32c1.28,0,2.32,1.04,2.32,2.32s-1.04,2.32-2.32,2.32-2.32-1.04-2.32-2.32,1.04-2.32,2.32-2.32m0-2c-2.39,0-4.32,1.93-4.32,4.32s1.93,4.32,4.32,4.32,4.32-1.93,4.32-4.32-1.93-4.32-4.32-4.32h0Z"/><line class="cls-9" x1="741.6" y1="145.44" x2="783.36" y2="145.44"/><path class="cls-20" d="M737.28,143.12c1.28,0,2.32,1.04,2.32,2.32s-1.04,2.32-2.32,2.32-2.32-1.04-2.32-2.32,1.04-2.32,2.32-2.32m0-2c-2.39,0-4.32,1.93-4.32,4.32s1.93,4.32,4.32,4.32,4.32-1.93,4.32-4.32-1.93-4.32-4.32-4.32h0Z"/><line class="cls-9" x1="666.72" y1="296.64" x2="708.48" y2="296.64"/><path class="cls-20" d="M662.4,294.32c1.28,0,2.32,1.04,2.32,2.32s-1.04,2.32-2.32,2.32-2.32-1.04-2.32-2.32,1.04-2.32,2.32-2.32m0-2c-2.39,0-4.32,1.93-4.32,4.32s1.93,4.32,4.32,4.32,4.32-1.93,4.32-4.32-1.93-4.32-4.32-4.32h0Z"/><line class="cls-9" x1="666.72" y1="167.04" x2="708.48" y2="167.04"/><path class="cls-20" d="M662.4,164.72c1.28,0,2.32,1.04,2.32,2.32s-1.04,2.32-2.32,2.32-2.32-1.04-2.32-2.32,1.04-2.32,2.32-2.32m0-2c-2.39,0-4.32,1.93-4.32,4.32s1.93,4.32,4.32,4.32,4.32-1.93,4.32-4.32-1.93-4.32-4.32-4.32h0Z"/><line class="cls-9" x1="666.72" y1="426.24" x2="708.48" y2="426.24"/><path class="cls-20" d="M662.4,423.92c1.28,0,2.32,1.04,2.32,2.32s-1.04,2.32-2.32,2.32-2.32-1.04-2.32-2.32,1.04-2.32,2.32-2.32m0-2c-2.39,0-4.32,1.93-4.32,4.32s1.93,4.32,4.32,4.32,4.32-1.93,4.32-4.32-1.93-4.32-4.32-4.32h0Z"/></g><g id="TEXT"><path class="cls-20" d="M84.87,95.58h-1.63v-10.84l-3.28,1.2v-1.48l4.66-1.75h.25v12.86Z"/><path class="cls-20" d="M87.91,153.18h-8.38v-1.17l4.43-4.92c.66-.74,1.11-1.35,1.36-1.81s.37-.95,.37-1.45c0-.67-.2-1.22-.61-1.64s-.94-.64-1.62-.64c-.81,0-1.44,.23-1.89,.69s-.67,1.1-.67,1.92h-1.63c0-1.18,.38-2.13,1.14-2.86s1.77-1.09,3.05-1.09c1.19,0,2.13,.31,2.82,.94s1.04,1.45,1.04,2.49c0,1.26-.8,2.76-2.41,4.5l-3.43,3.72h6.42v1.33Z"/><path class="cls-20" d="M81.89,203.59h1.22c.77-.01,1.37-.21,1.81-.61s.66-.92,.66-1.59c0-1.5-.75-2.25-2.24-2.25-.7,0-1.26,.2-1.68,.6s-.63,.93-.63,1.6h-1.63c0-1.01,.37-1.86,1.11-2.53s1.68-1.01,2.83-1.01c1.21,0,2.15,.32,2.84,.96s1.03,1.53,1.03,2.66c0,.56-.18,1.1-.54,1.62s-.85,.91-1.47,1.17c.7,.22,1.25,.59,1.63,1.11s.58,1.15,.58,1.89c0,1.15-.38,2.06-1.12,2.73s-1.73,1.01-2.93,1.01-2.18-.33-2.93-.98-1.13-1.51-1.13-2.58h1.63c0,.67,.22,1.21,.66,1.62s1.03,.61,1.77,.61c.79,0,1.39-.21,1.8-.62s.62-1,.62-1.77-.23-1.32-.69-1.71-1.12-.6-1.98-.62h-1.22v-1.33Z"/><path class="cls-20" d="M86.39,264.08h1.78v1.33h-1.78v2.97h-1.63v-2.97h-5.83v-.96l5.73-8.87h1.73v8.5Zm-5.62,0h3.98v-6.28l-.19,.35-3.79,5.92Z"/><path class="cls-20" d="M80.28,319.56l.65-6.38h6.56v1.5h-5.18l-.39,3.49c.63-.37,1.34-.55,2.14-.55,1.17,0,2.09,.38,2.78,1.16s1.03,1.81,1.03,3.12-.36,2.36-1.07,3.12-1.71,1.14-2.98,1.14c-1.13,0-2.05-.31-2.77-.94s-1.12-1.49-1.22-2.6h1.54c.1,.73,.36,1.28,.78,1.66s.98,.56,1.67,.56c.76,0,1.35-.26,1.78-.77s.65-1.23,.65-2.14c0-.86-.23-1.54-.7-2.06s-1.09-.78-1.86-.78c-.71,0-1.27,.16-1.67,.47l-.43,.35-1.3-.33Z"/><path class="cls-20" d="M87.79,429.3l-5.3,11.88h-1.71l5.28-11.46h-6.93v-1.34h8.65v.91Z"/><g><path class="cls-20" d="M338.3,210.78h-1.63v-10.84l-3.28,1.2v-1.48l4.66-1.75h.25v12.86Z"/><path class="cls-20" d="M349.93,206.48h1.78v1.33h-1.78v2.97h-1.63v-2.97h-5.83v-.96l5.73-8.87h1.73v8.5Zm-5.62,0h3.98v-6.28l-.19,.35-3.79,5.92Z"/></g><g><path class="cls-20" d="M338.3,268.38h-1.63v-10.84l-3.28,1.2v-1.48l4.66-1.75h.25v12.86Z"/><path class="cls-20" d="M345.43,261.19h1.22c.77-.01,1.37-.21,1.81-.61s.66-.92,.66-1.59c0-1.5-.75-2.25-2.24-2.25-.7,0-1.26,.2-1.68,.6s-.63,.93-.63,1.6h-1.63c0-1.01,.37-1.86,1.11-2.53s1.68-1.01,2.83-1.01c1.21,0,2.15,.32,2.84,.96s1.03,1.53,1.03,2.66c0,.56-.18,1.1-.54,1.62s-.85,.91-1.47,1.17c.7,.22,1.25,.59,1.63,1.11s.58,1.15,.58,1.89c0,1.15-.38,2.06-1.12,2.73s-1.73,1.01-2.93,1.01-2.18-.33-2.93-.98-1.13-1.51-1.13-2.58h1.63c0,.67,.22,1.21,.66,1.62s1.03,.61,1.77,.61c.79,0,1.39-.21,1.8-.62s.62-1,.62-1.77-.23-1.32-.69-1.71-1.12-.6-1.98-.62h-1.22v-1.33Z"/></g><g><path class="cls-20" d="M338.3,325.98h-1.63v-10.84l-3.28,1.2v-1.48l4.66-1.75h.25v12.86Z"/><path class="cls-20" d="M351.45,325.98h-8.38v-1.17l4.43-4.92c.66-.74,1.11-1.35,1.36-1.81s.37-.95,.37-1.45c0-.67-.2-1.22-.61-1.64s-.94-.64-1.62-.64c-.81,0-1.44,.23-1.89,.69s-.67,1.1-.67,1.92h-1.63c0-1.18,.38-2.13,1.14-2.86s1.77-1.09,3.05-1.09c1.19,0,2.13,.31,2.82,.94s1.04,1.45,1.04,2.49c0,1.26-.8,2.76-2.41,4.5l-3.43,3.72h6.42v1.33Z"/></g><g><path class="cls-20" d="M338.3,383.58h-1.63v-10.84l-3.28,1.2v-1.48l4.66-1.75h.25v12.86Z"/><path class="cls-20" d="M348.41,383.58h-1.63v-10.84l-3.28,1.2v-1.48l4.66-1.75h.25v12.86Z"/></g><g><path class="cls-20" d="M338.3,441.18h-1.63v-10.84l-3.28,1.2v-1.48l4.66-1.75h.25v12.86Z"/><path class="cls-20" d="M351.09,435.72c0,1.9-.33,3.32-.98,4.25s-1.67,1.39-3.05,1.39-2.38-.45-3.03-1.36-1-2.26-1.02-4.06v-2.17c0-1.88,.33-3.28,.98-4.19s1.67-1.37,3.06-1.37,2.39,.44,3.04,1.32,.98,2.24,1,4.08v2.11Zm-1.63-2.22c0-1.38-.19-2.38-.58-3.01s-1-.94-1.84-.94-1.44,.31-1.82,.94-.58,1.59-.59,2.89v2.6c0,1.38,.2,2.4,.6,3.06s1.01,.99,1.82,.99,1.4-.31,1.79-.93,.59-1.6,.61-2.94v-2.66Z"/></g><path class="cls-20" d="M344.96,493.15c-.34,.4-.75,.73-1.22,.98s-.99,.37-1.55,.37c-.74,0-1.38-.18-1.93-.54s-.97-.87-1.27-1.53c-.3-.66-.45-1.39-.45-2.18,0-.86,.16-1.63,.49-2.31s.79-1.21,1.38-1.57,1.29-.54,2.09-.54c1.27,0,2.26,.47,2.99,1.42,.73,.95,1.09,2.24,1.09,3.87v.47c0,2.49-.49,4.31-1.48,5.45-.98,1.15-2.47,1.73-4.46,1.76h-.32v-1.38h.34c1.34-.02,2.37-.37,3.09-1.05,.72-.68,1.11-1.74,1.18-3.21Zm-2.5,0c.54,0,1.05-.17,1.51-.5s.8-.75,1.01-1.24v-.65c0-1.07-.23-1.93-.69-2.6s-1.05-1-1.76-1-1.29,.27-1.72,.82c-.43,.55-.65,1.27-.65,2.17s.21,1.59,.63,2.16c.42,.56,.98,.85,1.68,.85Z"/><g><path class="cls-20" d="M118.04,496.54l3.66-10.56h1.85l-4.75,12.8h-1.49l-4.74-12.8h1.84l3.64,10.56Z"/><path class="cls-20" d="M127.28,494.98c-.96-.28-1.67-.62-2.11-1.02s-.66-.9-.66-1.5c0-.67,.27-1.23,.81-1.67s1.24-.66,2.09-.66c.59,0,1.11,.11,1.57,.34s.81,.54,1.07,.94,.38,.83,.38,1.31h-1.13c0-.52-.16-.92-.49-1.22s-.79-.44-1.39-.44c-.55,0-.99,.12-1.3,.37-.31,.24-.47,.58-.47,1.02,0,.35,.15,.64,.44,.88,.29,.24,.8,.46,1.51,.66,.71,.2,1.26,.42,1.66,.66s.7,.52,.89,.84,.29,.7,.29,1.13c0,.69-.27,1.25-.81,1.66s-1.26,.62-2.16,.62c-.59,0-1.13-.11-1.64-.34s-.9-.53-1.17-.92-.41-.83-.41-1.33h1.13c0,.52,.19,.92,.57,1.22s.89,.45,1.53,.45c.59,0,1.05-.12,1.37-.36s.47-.57,.47-.99-.15-.74-.44-.97-.82-.45-1.59-.68Z"/><path class="cls-20" d="M134.4,494.98c-.96-.28-1.67-.62-2.11-1.02s-.66-.9-.66-1.5c0-.67,.27-1.23,.81-1.67s1.24-.66,2.09-.66c.59,0,1.11,.11,1.57,.34s.81,.54,1.07,.94,.38,.83,.38,1.31h-1.13c0-.52-.16-.92-.49-1.22s-.79-.44-1.39-.44c-.55,0-.99,.12-1.3,.37-.31,.24-.47,.58-.47,1.02,0,.35,.15,.64,.44,.88,.29,.24,.8,.46,1.51,.66,.71,.2,1.26,.42,1.66,.66s.7,.52,.89,.84,.29,.7,.29,1.13c0,.69-.27,1.25-.81,1.66s-1.26,.62-2.16,.62c-.59,0-1.13-.11-1.64-.34s-.9-.53-1.17-.92-.41-.83-.41-1.33h1.13c0,.52,.19,.92,.57,1.22s.89,.45,1.53,.45c.59,0,1.05-.12,1.37-.36s.47-.57,.47-.99-.15-.74-.44-.97-.82-.45-1.59-.68Z"/></g><g><path class="cls-20" d="M292.45,93.34l3.66-10.56h1.85l-4.75,12.8h-1.49l-4.74-12.8h1.84l3.64,10.56Z"/><path class="cls-20" d="M299.17,95.58v-8.53h2.41c.74,0,1.4,.16,1.97,.49s1.01,.79,1.32,1.4,.47,1.3,.47,2.09v.54c0,.8-.16,1.51-.47,2.12s-.75,1.07-1.33,1.39-1.25,.49-2.01,.5h-2.36Zm1.12-7.61v6.69h1.18c.87,0,1.54-.27,2.02-.81,.48-.54,.72-1.31,.72-2.3v-.5c0-.97-.23-1.72-.68-2.26-.46-.54-1.1-.81-1.94-.82h-1.31Z"/><path class="cls-20" d="M307.04,95.58v-8.53h2.41c.74,0,1.4,.16,1.97,.49s1.01,.79,1.32,1.4,.47,1.3,.47,2.09v.54c0,.8-.16,1.51-.47,2.12s-.75,1.07-1.33,1.39-1.25,.49-2.01,.5h-2.36Zm1.12-7.61v6.69h1.18c.87,0,1.54-.27,2.02-.81,.48-.54,.72-1.31,.72-2.3v-.5c0-.97-.23-1.72-.68-2.26-.46-.54-1.1-.81-1.94-.82h-1.31Z"/></g><g><path class="cls-20" d="M192.04,554.66c-.16,1.35-.66,2.4-1.5,3.13s-1.96,1.1-3.35,1.1c-1.51,0-2.72-.54-3.63-1.63s-1.37-2.53-1.37-4.35v-1.23c0-1.19,.21-2.24,.64-3.14s1.03-1.59,1.81-2.08,1.68-.73,2.71-.73c1.36,0,2.45,.38,3.27,1.14s1.3,1.81,1.43,3.15h-1.7c-.15-1.02-.46-1.76-.95-2.22-.49-.46-1.17-.69-2.05-.69-1.08,0-1.92,.4-2.54,1.2-.61,.8-.92,1.93-.92,3.4v1.24c0,1.39,.29,2.5,.87,3.32,.58,.82,1.39,1.23,2.43,1.23,.94,0,1.66-.21,2.16-.64s.83-1.17,1-2.22h1.7Z"/><path class="cls-20" d="M194.35,558.72v-12.8h3.61c1.11,0,2.1,.25,2.95,.74s1.52,1.19,1.98,2.1,.7,1.95,.71,3.13v.82c0,1.21-.23,2.26-.7,3.17s-1.13,1.61-2,2.09-1.87,.74-3.02,.75h-3.54Zm1.69-11.42v10.04h1.78c1.3,0,2.31-.4,3.04-1.21,.72-.81,1.09-1.96,1.09-3.46v-.75c0-1.45-.34-2.58-1.02-3.39s-1.65-1.22-2.9-1.23h-1.97Z"/><path class="cls-20" d="M212.59,554.42h1.78v1.33h-1.78v2.97h-1.63v-2.97h-5.83v-.96l5.73-8.87h1.73v8.5Zm-5.62,0h3.98v-6.28l-.19,.35-3.79,5.92Z"/><path class="cls-20" d="M223.86,553.26c0,1.9-.33,3.32-.98,4.25s-1.67,1.39-3.05,1.39-2.38-.45-3.03-1.36-1-2.26-1.02-4.06v-2.17c0-1.88,.33-3.28,.98-4.19s1.67-1.37,3.06-1.37,2.39,.44,3.04,1.32,.98,2.24,1,4.08v2.11Zm-1.63-2.22c0-1.38-.19-2.38-.58-3.01s-1-.95-1.84-.95-1.44,.31-1.82,.94-.58,1.59-.59,2.89v2.6c0,1.38,.2,2.4,.6,3.06s1.01,.99,1.82,.99,1.4-.31,1.79-.93,.59-1.6,.61-2.94v-2.66Z"/><path class="cls-20" d="M226.69,552.3l.65-6.38h6.56v1.5h-5.18l-.39,3.49c.63-.37,1.34-.55,2.14-.55,1.17,0,2.09,.39,2.78,1.16s1.03,1.81,1.03,3.12-.36,2.36-1.07,3.12-1.71,1.14-2.98,1.14c-1.13,0-2.05-.31-2.77-.94s-1.12-1.49-1.22-2.6h1.54c.1,.73,.36,1.29,.78,1.66s.98,.56,1.67,.56c.76,0,1.35-.26,1.78-.77s.65-1.23,.65-2.14c0-.86-.23-1.54-.7-2.06s-1.09-.78-1.86-.78c-.71,0-1.27,.16-1.67,.47l-.43,.35-1.3-.33Z"/><path class="cls-20" d="M238.41,551.53h1.22c.77-.01,1.37-.21,1.81-.61s.66-.92,.66-1.59c0-1.5-.75-2.25-2.24-2.25-.7,0-1.26,.2-1.68,.6s-.63,.93-.63,1.59h-1.63c0-1.01,.37-1.86,1.11-2.53s1.68-1.01,2.83-1.01c1.21,0,2.15,.32,2.84,.96s1.03,1.53,1.03,2.66c0,.56-.18,1.1-.54,1.62s-.85,.91-1.47,1.17c.7,.22,1.25,.59,1.63,1.11s.58,1.15,.58,1.89c0,1.15-.38,2.06-1.12,2.73s-1.73,1.01-2.93,1.01-2.18-.33-2.93-.98-1.13-1.51-1.13-2.58h1.63c0,.67,.22,1.21,.66,1.62s1.03,.61,1.77,.61c.79,0,1.39-.21,1.8-.62s.62-1,.62-1.77-.23-1.32-.69-1.71-1.12-.6-1.98-.62h-1.22v-1.33Z"/></g><path class="cls-20" d="M87.29,489.32c0,.64-.17,1.21-.51,1.71s-.79,.89-1.37,1.17c.67,.29,1.2,.71,1.59,1.26s.58,1.17,.58,1.87c0,1.11-.37,1.99-1.12,2.65s-1.73,.98-2.95,.98-2.22-.33-2.96-.99-1.11-1.54-1.11-2.64c0-.69,.19-1.32,.57-1.87s.9-.98,1.57-1.27c-.57-.28-1.02-.67-1.34-1.17s-.49-1.06-.49-1.7c0-1.08,.35-1.93,1.04-2.57s1.6-.95,2.73-.95,2.03,.32,2.73,.95,1.04,1.49,1.04,2.57Zm-1.33,5.97c0-.71-.23-1.3-.68-1.75s-1.05-.68-1.78-.68-1.32,.22-1.76,.67-.66,1.03-.66,1.76,.22,1.3,.65,1.71,1.03,.62,1.8,.62,1.36-.21,1.79-.63,.65-.99,.65-1.71Zm-2.44-8.15c-.64,0-1.16,.2-1.55,.59s-.59,.93-.59,1.61,.19,1.18,.58,1.58,.91,.6,1.56,.6,1.17-.2,1.56-.6,.58-.93,.58-1.58-.2-1.18-.61-1.59-.92-.62-1.54-.62Z"/><g><path class="cls-20" d="M338.3,95.58h-1.63v-10.84l-3.28,1.2v-1.48l4.66-1.75h.25v12.86Z"/><path class="cls-20" d="M349.44,82.77v1.38h-.3c-1.27,.02-2.27,.4-3.02,1.12s-1.18,1.75-1.3,3.07c.67-.77,1.59-1.16,2.76-1.16s2,.39,2.67,1.18,1,1.8,1,3.04c0,1.32-.36,2.37-1.08,3.16s-1.68,1.19-2.89,1.19-2.22-.47-2.98-1.41-1.14-2.15-1.14-3.63v-.62c0-2.36,.5-4.16,1.51-5.4s2.5-1.88,4.49-1.91h.29Zm-2.14,5.77c-.56,0-1.07,.17-1.54,.5s-.79,.75-.98,1.26v.6c0,1.05,.24,1.9,.71,2.55s1.07,.97,1.78,.97,1.31-.27,1.73-.81,.63-1.25,.63-2.12-.21-1.59-.64-2.13-.99-.81-1.69-.81Z"/></g><g><path class="cls-20" d="M338.3,153.18h-1.63v-10.84l-3.28,1.2v-1.48l4.66-1.75h.25v12.86Z"/><path class="cls-20" d="M343.81,146.76l.65-6.38h6.56v1.5h-5.18l-.39,3.49c.63-.37,1.34-.55,2.14-.55,1.17,0,2.09,.38,2.78,1.16s1.03,1.81,1.03,3.12-.36,2.36-1.07,3.12-1.71,1.14-2.98,1.14c-1.13,0-2.05-.31-2.77-.94s-1.12-1.49-1.22-2.6h1.54c.1,.73,.36,1.28,.78,1.66s.98,.56,1.67,.56c.76,0,1.35-.26,1.78-.77s.65-1.23,.65-2.14c0-.86-.23-1.54-.7-2.06s-1.09-.78-1.86-.78c-.71,0-1.27,.16-1.67,.47l-.43,.35-1.3-.33Z"/></g><g><path class="cls-20" d="M111.52,79.41c0,1.45-.33,2.62-1,3.5s-1.56,1.32-2.69,1.32c-1.2,0-2.13-.42-2.79-1.27l-.08,1.1h-1.49v-13.5h1.63v5.04c.66-.81,1.56-1.22,2.72-1.22s2.06,.44,2.72,1.31,.99,2.07,.99,3.59v.14Zm-1.63-.18c0-1.11-.21-1.96-.64-2.57s-1.04-.91-1.85-.91c-1.07,0-1.84,.5-2.31,1.49v4.11c.5,1,1.27,1.49,2.33,1.49,.78,0,1.39-.3,1.82-.91s.65-1.51,.65-2.72Z"/><path class="cls-20" d="M116.58,81.68l2.21-7.13h1.74l-3.82,10.98c-.59,1.58-1.53,2.37-2.82,2.37l-.31-.03-.61-.11v-1.32l.44,.04c.55,0,.98-.11,1.29-.33s.56-.63,.76-1.22l.36-.97-3.39-9.4h1.78l2.37,7.13Z"/><path class="cls-20" d="M127.17,84.06h-1.63v-10.84l-3.28,1.2v-1.48l4.66-1.75h.25v12.86Z"/></g><g><path class="cls-20" d="M111.52,137.01c0,1.45-.33,2.62-1,3.5s-1.56,1.32-2.69,1.32c-1.2,0-2.13-.42-2.79-1.27l-.08,1.1h-1.49v-13.5h1.63v5.04c.66-.81,1.56-1.22,2.72-1.22s2.06,.44,2.72,1.31,.99,2.07,.99,3.59v.14Zm-1.63-.18c0-1.11-.21-1.96-.64-2.57s-1.04-.91-1.85-.91c-1.07,0-1.84,.5-2.31,1.49v4.11c.5,1,1.27,1.49,2.33,1.49,.78,0,1.39-.3,1.82-.91s.65-1.51,.65-2.72Z"/><path class="cls-20" d="M116.63,135.62l2.11-3.47h1.9l-3.11,4.7,3.21,4.81h-1.88l-2.2-3.56-2.2,3.56h-1.89l3.21-4.81-3.11-4.7h1.88l2.08,3.47Z"/><path class="cls-20" d="M130.22,136.2c0,1.9-.33,3.32-.98,4.25s-1.67,1.39-3.05,1.39-2.38-.45-3.03-1.36-1-2.26-1.02-4.06v-2.17c0-1.88,.33-3.28,.98-4.19s1.67-1.37,3.06-1.37,2.39,.44,3.04,1.32,.98,2.24,1,4.08v2.11Zm-1.63-2.22c0-1.38-.19-2.38-.58-3.01s-1-.95-1.84-.95-1.44,.31-1.82,.94-.58,1.59-.59,2.89v2.6c0,1.38,.2,2.4,.6,3.06s1.01,.99,1.82,.99,1.4-.31,1.79-.93,.59-1.6,.61-2.94v-2.66Z"/></g><g><path class="cls-20" d="M107.28,198.11c.58,0,1.09-.18,1.52-.53s.67-.79,.72-1.32h1.54c-.03,.54-.22,1.06-.56,1.56s-.81,.88-1.38,1.18-1.19,.44-1.83,.44c-1.29,0-2.32-.43-3.09-1.3s-1.15-2.05-1.15-3.55v-.27c0-.93,.17-1.75,.51-2.47s.83-1.28,1.46-1.68,1.39-.6,2.25-.6c1.07,0,1.95,.32,2.66,.96s1.08,1.47,1.13,2.49h-1.54c-.05-.62-.28-1.12-.7-1.52s-.94-.59-1.55-.59c-.83,0-1.47,.3-1.92,.89s-.68,1.45-.68,2.58v.31c0,1.1,.23,1.94,.68,2.53s1.1,.89,1.93,.89Z"/><path class="cls-20" d="M116,196.88l2.21-7.13h1.74l-3.82,10.98c-.59,1.58-1.53,2.37-2.82,2.37l-.31-.03-.61-.11v-1.32l.44,.04c.55,0,.98-.11,1.29-.33s.56-.63,.76-1.22l.36-.97-3.39-9.4h1.78l2.37,7.13Z"/><path class="cls-20" d="M126.59,199.26h-1.63v-10.84l-3.28,1.2v-1.48l4.66-1.75h.25v12.86Z"/></g><g><path class="cls-20" d="M113.14,252.8c-.16,1.35-.66,2.4-1.5,3.13s-1.96,1.1-3.35,1.1c-1.51,0-2.72-.54-3.63-1.63s-1.37-2.53-1.37-4.35v-1.23c0-1.19,.21-2.24,.64-3.14s1.03-1.6,1.81-2.08,1.68-.73,2.71-.73c1.36,0,2.45,.38,3.27,1.14s1.3,1.81,1.43,3.15h-1.7c-.15-1.02-.46-1.76-.95-2.22s-1.17-.69-2.05-.69c-1.08,0-1.92,.4-2.54,1.2-.61,.8-.92,1.93-.92,3.4v1.24c0,1.39,.29,2.5,.87,3.32s1.39,1.23,2.43,1.23c.94,0,1.66-.21,2.16-.64s.83-1.16,1-2.22h1.7Z"/><path class="cls-20" d="M116.72,255.53h5.56v1.33h-7.55v-1.2l5.25-6.97h-5.17v-1.34h7.21v1.15l-5.3,7.03Z"/></g><g><path class="cls-20" d="M107.28,313.31c.58,0,1.09-.18,1.52-.53s.67-.79,.72-1.32h1.54c-.03,.54-.22,1.06-.56,1.56s-.81,.88-1.38,1.18-1.19,.44-1.83,.44c-1.29,0-2.32-.43-3.09-1.3s-1.15-2.05-1.15-3.55v-.27c0-.93,.17-1.75,.51-2.47s.83-1.28,1.46-1.68,1.39-.6,2.25-.6c1.07,0,1.95,.32,2.66,.96s1.08,1.47,1.13,2.49h-1.54c-.05-.62-.28-1.12-.7-1.52s-.94-.59-1.55-.59c-.83,0-1.47,.3-1.92,.89s-.68,1.45-.68,2.58v.31c0,1.1,.23,1.94,.68,2.53s1.1,.89,1.93,.89Z"/><path class="cls-20" d="M116.08,308.42l2.11-3.47h1.9l-3.11,4.7,3.21,4.81h-1.88l-2.2-3.56-2.2,3.56h-1.89l3.21-4.81-3.11-4.7h1.88l2.08,3.47Z"/><path class="cls-20" d="M129.67,309c0,1.9-.33,3.32-.98,4.25s-1.67,1.39-3.05,1.39-2.38-.45-3.03-1.36-1-2.26-1.02-4.06v-2.17c0-1.88,.33-3.28,.98-4.19s1.67-1.37,3.06-1.37,2.39,.44,3.04,1.32,.98,2.24,1,4.08v2.11Zm-1.63-2.22c0-1.38-.19-2.38-.58-3.01s-1-.95-1.84-.95-1.44,.31-1.82,.94-.58,1.59-.59,2.89v2.6c0,1.38,.2,2.4,.6,3.06s1.01,.99,1.82,.99,1.4-.31,1.79-.93,.59-1.6,.61-2.94v-2.66Z"/></g><path class="cls-20" d="M121.04,377.67h-5.55v4.54h6.44v1.38h-8.13v-12.8h8.04v1.38h-6.35v4.12h5.55v1.38Z"/><g><path class="cls-20" d="M313.22,194.47h-5.36l-1.2,3.35h-1.74l4.89-12.8h1.48l4.9,12.8h-1.73l-1.22-3.35Zm-4.85-1.38h4.35l-2.18-5.99-2.17,5.99Z"/><path class="cls-20" d="M319.28,196.49h5.56v1.33h-7.55v-1.2l5.25-6.97h-5.17v-1.34h7.21v1.15l-5.3,7.03Z"/></g><g><path class="cls-20" d="M307.14,255.42c-.09-.19-.17-.52-.23-1-.76,.79-1.66,1.18-2.71,1.18-.94,0-1.71-.27-2.31-.8s-.9-1.2-.9-2.02c0-.99,.38-1.76,1.13-2.31s1.81-.82,3.18-.82h1.58v-.75c0-.57-.17-1.02-.51-1.36s-.84-.51-1.5-.51c-.58,0-1.07,.15-1.46,.44s-.59,.65-.59,1.06h-1.63c0-.47,.17-.93,.51-1.38s.79-.79,1.37-1.05,1.21-.39,1.9-.39c1.1,0,1.95,.27,2.58,.82s.94,1.3,.97,2.26v4.38c0,.87,.11,1.57,.33,2.08v.14h-1.71Zm-2.7-1.24c.51,0,.99-.13,1.45-.4s.79-.61,.99-1.03v-1.95h-1.27c-1.99,0-2.99,.58-2.99,1.75,0,.51,.17,.91,.51,1.2s.78,.43,1.31,.43Z"/><path class="cls-20" d="M314.04,253.04l2.21-7.13h1.74l-3.82,10.98c-.59,1.58-1.53,2.37-2.82,2.37l-.31-.03-.61-.11v-1.32l.44,.04c.55,0,.98-.11,1.29-.33s.56-.63,.76-1.22l.36-.97-3.39-9.4h1.78l2.37,7.13Z"/><path class="cls-20" d="M324.62,255.42h-1.63v-10.84l-3.28,1.2v-1.48l4.66-1.75h.25v12.86Z"/></g><g><path class="cls-20" d="M303.72,313.02c-.09-.19-.17-.52-.23-1-.76,.79-1.66,1.18-2.71,1.18-.94,0-1.71-.27-2.31-.8s-.9-1.2-.9-2.02c0-.99,.38-1.76,1.13-2.31s1.81-.82,3.18-.82h1.58v-.75c0-.57-.17-1.02-.51-1.36s-.84-.5-1.5-.5c-.58,0-1.07,.15-1.46,.44s-.59,.65-.59,1.06h-1.63c0-.47,.17-.93,.51-1.38s.79-.79,1.37-1.05,1.21-.39,1.9-.39c1.1,0,1.95,.27,2.58,.82s.94,1.3,.97,2.26v4.38c0,.87,.11,1.57,.33,2.08v.14h-1.71Zm-2.7-1.24c.51,0,.99-.13,1.45-.4s.79-.61,.99-1.03v-1.95h-1.27c-1.99,0-2.99,.58-2.99,1.75,0,.51,.17,.91,.51,1.2s.78,.43,1.31,.43Z"/><path class="cls-20" d="M310.83,306.98l2.11-3.47h1.9l-3.11,4.7,3.21,4.81h-1.88l-2.2-3.56-2.2,3.56h-1.89l3.21-4.81-3.11-4.7h1.88l2.08,3.47Z"/><path class="cls-20" d="M324.42,307.56c0,1.9-.33,3.32-.98,4.25s-1.67,1.39-3.05,1.39-2.38-.45-3.03-1.36-1-2.26-1.02-4.06v-2.17c0-1.88,.33-3.28,.98-4.19s1.67-1.37,3.06-1.37,2.39,.44,3.04,1.32,.98,2.24,1,4.08v2.11Zm-1.63-2.22c0-1.38-.19-2.38-.58-3.01s-1-.94-1.84-.94-1.44,.31-1.82,.94-.58,1.59-.59,2.89v2.6c0,1.38,.2,2.4,.6,3.06s1.01,.99,1.82,.99,1.4-.31,1.79-.93,.59-1.6,.61-2.94v-2.66Z"/></g><path class="cls-20" d="M310.73,367.27h-5.36l-1.2,3.35h-1.74l4.89-12.8h1.48l4.9,12.8h-1.73l-1.22-3.35Zm-4.85-1.38h4.35l-2.18-5.99-2.17,5.99Z"/><path class="cls-20" d="M304.2,428.22v-12.8h4.18c1.39,0,2.43,.29,3.13,.86s1.05,1.42,1.05,2.55c0,.6-.17,1.13-.51,1.59s-.8,.82-1.39,1.07c.69,.19,1.24,.56,1.64,1.1s.6,1.19,.6,1.94c0,1.15-.37,2.05-1.12,2.71s-1.8,.98-3.16,.98h-4.44Zm1.69-7.34h2.55c.74,0,1.33-.18,1.77-.55s.66-.87,.66-1.51c0-.71-.21-1.22-.62-1.54s-1.03-.48-1.87-.48h-2.5v4.08Zm0,1.35v4.61h2.79c.79,0,1.4-.2,1.86-.61s.68-.97,.68-1.68c0-1.54-.84-2.31-2.51-2.31h-2.81Z"/><path class="cls-20" d="M313.1,481.76c-.16,1.35-.66,2.4-1.5,3.13s-1.96,1.1-3.35,1.1c-1.51,0-2.72-.54-3.63-1.63s-1.37-2.53-1.37-4.35v-1.23c0-1.19,.21-2.24,.64-3.14s1.03-1.6,1.81-2.08,1.68-.72,2.71-.72c1.36,0,2.45,.38,3.27,1.14s1.3,1.81,1.43,3.15h-1.7c-.15-1.02-.46-1.76-.95-2.22-.49-.46-1.17-.69-2.05-.69-1.08,0-1.92,.4-2.54,1.2s-.92,1.93-.92,3.4v1.24c0,1.39,.29,2.5,.87,3.32,.58,.82,1.39,1.23,2.43,1.23,.94,0,1.66-.21,2.16-.64s.83-1.16,1-2.22h1.7Z"/><g><path class="cls-20" d="M306.8,140.22v-12.8h4.18c1.39,0,2.43,.29,3.13,.86s1.05,1.42,1.05,2.55c0,.6-.17,1.13-.51,1.59s-.8,.82-1.39,1.07c.69,.19,1.24,.56,1.64,1.1s.6,1.19,.6,1.94c0,1.15-.37,2.05-1.12,2.71s-1.8,.98-3.16,.98h-4.44Zm1.69-7.34h2.55c.74,0,1.33-.19,1.77-.55,.44-.37,.66-.87,.66-1.51,0-.7-.21-1.22-.62-1.54-.41-.32-1.03-.48-1.87-.48h-2.5v4.08Zm0,1.35v4.61h2.79c.79,0,1.4-.2,1.86-.61s.68-.97,.68-1.68c0-1.54-.84-2.31-2.51-2.31h-2.81Z"/><path class="cls-20" d="M319.28,138.89h5.56v1.33h-7.55v-1.2l5.25-6.97h-5.17v-1.34h7.21v1.15l-5.3,7.03Z"/></g><g><path class="cls-20" d="M799.79,139.68h-1.63v-10.84l-3.28,1.2v-1.48l4.66-1.75h.25v12.86Z"/><path class="cls-20" d="M812.94,139.68h-8.38v-1.17l4.43-4.92c.66-.74,1.11-1.35,1.36-1.81s.37-.95,.37-1.45c0-.67-.2-1.22-.61-1.64s-.94-.64-1.62-.64c-.81,0-1.44,.23-1.89,.69s-.67,1.1-.67,1.92h-1.63c0-1.18,.38-2.13,1.14-2.86s1.77-1.09,3.05-1.09c1.19,0,2.13,.31,2.82,.94s1.04,1.45,1.04,2.49c0,1.26-.8,2.76-2.41,4.5l-3.43,3.72h6.42v1.33Z"/></g><g><path class="cls-20" d="M799.79,182.88h-1.63v-10.84l-3.28,1.2v-1.48l4.66-1.75h.25v12.86Z"/><path class="cls-20" d="M806.92,175.69h1.22c.77-.01,1.37-.21,1.81-.61s.66-.92,.66-1.59c0-1.5-.75-2.25-2.24-2.25-.7,0-1.26,.2-1.68,.6s-.63,.93-.63,1.6h-1.63c0-1.01,.37-1.86,1.11-2.53s1.68-1.01,2.83-1.01c1.21,0,2.15,.32,2.84,.96s1.03,1.53,1.03,2.66c0,.56-.18,1.1-.54,1.62s-.85,.91-1.47,1.17c.7,.22,1.25,.59,1.63,1.11s.58,1.15,.58,1.89c0,1.15-.38,2.06-1.12,2.73s-1.73,1.01-2.93,1.01-2.18-.33-2.93-.98-1.13-1.51-1.13-2.58h1.63c0,.67,.22,1.21,.66,1.62s1.03,.61,1.77,.61c.79,0,1.39-.21,1.8-.62s.62-1,.62-1.77-.23-1.32-.69-1.71-1.12-.6-1.98-.62h-1.22v-1.33Z"/></g><path class="cls-20" d="M814.38,269.28h-8.38v-1.17l4.43-4.92c.66-.74,1.11-1.35,1.36-1.81s.37-.95,.37-1.45c0-.67-.2-1.22-.61-1.64s-.94-.64-1.62-.64c-.81,0-1.44,.23-1.88,.69s-.67,1.1-.67,1.92h-1.63c0-1.18,.38-2.13,1.14-2.86s1.77-1.09,3.04-1.09c1.19,0,2.13,.31,2.82,.94s1.04,1.45,1.04,2.49c0,1.26-.8,2.76-2.41,4.5l-3.43,3.72h6.42v1.33Z"/><path class="cls-20" d="M811.34,312.48h-1.63v-10.84l-3.28,1.2v-1.48l4.66-1.75h.25v12.86Z"/><path class="cls-20" d="M806.74,392.46l.65-6.38h6.56v1.5h-5.18l-.39,3.49c.63-.37,1.34-.55,2.14-.55,1.17,0,2.09,.39,2.78,1.16s1.03,1.81,1.03,3.12-.36,2.36-1.07,3.12-1.71,1.14-2.98,1.14c-1.13,0-2.05-.31-2.77-.94s-1.12-1.49-1.22-2.6h1.54c.1,.73,.36,1.29,.78,1.66s.98,.56,1.67,.56c.76,0,1.35-.26,1.78-.77s.65-1.23,.65-2.14c0-.86-.23-1.54-.7-2.06s-1.08-.78-1.86-.78c-.71,0-1.27,.16-1.67,.47l-.43,.35-1.3-.33Z"/><path class="cls-20" d="M808.36,434.89h1.22c.77-.01,1.37-.21,1.81-.61s.66-.92,.66-1.59c0-1.5-.75-2.25-2.24-2.25-.7,0-1.26,.2-1.68,.6s-.63,.93-.63,1.59h-1.63c0-1.01,.37-1.86,1.11-2.53s1.68-1.01,2.83-1.01c1.21,0,2.15,.32,2.84,.96s1.03,1.53,1.03,2.66c0,.56-.18,1.1-.54,1.62s-.85,.91-1.47,1.17c.7,.22,1.25,.59,1.63,1.11s.58,1.15,.58,1.89c0,1.15-.38,2.06-1.12,2.73s-1.73,1.01-2.93,1.01-2.18-.33-2.93-.98-1.13-1.51-1.13-2.58h1.63c0,.67,.22,1.21,.66,1.62s1.03,.61,1.77,.61c.79,0,1.39-.21,1.8-.62s.62-1,.62-1.77-.23-1.32-.69-1.71-1.12-.6-1.98-.62h-1.22v-1.33Z"/><g><path class="cls-20" d="M689.84,578.08l3.66-10.56h1.85l-4.75,12.8h-1.49l-4.74-12.8h1.84l3.64,10.56Z"/><path class="cls-20" d="M699.07,576.52c-.96-.28-1.67-.62-2.11-1.02s-.66-.9-.66-1.5c0-.67,.27-1.23,.81-1.67s1.24-.66,2.09-.66c.59,0,1.11,.11,1.57,.34s.81,.54,1.07,.94,.38,.83,.38,1.31h-1.13c0-.52-.16-.92-.49-1.22s-.79-.44-1.39-.44c-.55,0-.99,.12-1.3,.37-.31,.24-.47,.58-.47,1.02,0,.35,.15,.64,.44,.88,.29,.24,.8,.46,1.51,.66,.71,.2,1.26,.42,1.66,.66s.7,.52,.89,.84,.29,.7,.29,1.13c0,.69-.27,1.25-.81,1.66s-1.26,.62-2.16,.62c-.59,0-1.13-.11-1.64-.34s-.9-.53-1.17-.92-.41-.83-.41-1.33h1.13c0,.52,.19,.92,.57,1.22s.89,.45,1.53,.45c.59,0,1.05-.12,1.37-.36s.47-.57,.47-.99-.15-.74-.44-.97-.82-.45-1.59-.68Z"/><path class="cls-20" d="M706.19,576.52c-.96-.28-1.67-.62-2.11-1.02s-.66-.9-.66-1.5c0-.67,.27-1.23,.81-1.67s1.24-.66,2.09-.66c.59,0,1.11,.11,1.57,.34s.81,.54,1.07,.94,.38,.83,.38,1.31h-1.13c0-.52-.16-.92-.49-1.22s-.79-.44-1.39-.44c-.55,0-.99,.12-1.3,.37-.31,.24-.47,.58-.47,1.02,0,.35,.15,.64,.44,.88,.29,.24,.8,.46,1.51,.66,.71,.2,1.26,.42,1.66,.66s.7,.52,.89,.84,.29,.7,.29,1.13c0,.69-.27,1.25-.81,1.66s-1.26,.62-2.16,.62c-.59,0-1.13-.11-1.64-.34s-.9-.53-1.17-.92-.41-.83-.41-1.33h1.13c0,.52,.19,.92,.57,1.22s.89,.45,1.53,.45c.59,0,1.05-.12,1.37-.36s.47-.57,.47-.99-.15-.74-.44-.97-.82-.45-1.59-.68Z"/></g><path class="cls-20" d="M596.23,379.39c-.34,.4-.75,.73-1.22,.98s-.99,.37-1.55,.37c-.74,0-1.38-.18-1.93-.54s-.97-.88-1.27-1.53-.45-1.39-.45-2.18c0-.86,.16-1.63,.49-2.31s.79-1.21,1.38-1.57,1.29-.54,2.09-.54c1.27,0,2.26,.47,2.99,1.42s1.09,2.24,1.09,3.87v.47c0,2.49-.49,4.31-1.48,5.45s-2.47,1.73-4.46,1.76h-.32v-1.38h.34c1.34-.02,2.37-.37,3.09-1.05,.72-.68,1.11-1.74,1.18-3.21Zm-2.5,0c.54,0,1.05-.17,1.51-.5s.8-.75,1.01-1.24v-.65c0-1.07-.23-1.93-.69-2.6s-1.05-1-1.76-1-1.29,.27-1.72,.82-.65,1.27-.65,2.17,.21,1.59,.63,2.16,.98,.85,1.68,.85Z"/><g><path class="cls-20" d="M713.57,59.68l3.66-10.56h1.85l-4.75,12.8h-1.49l-4.74-12.8h1.84l3.64,10.56Z"/><path class="cls-20" d="M720.29,61.92v-8.53h2.41c.74,0,1.4,.16,1.97,.49s1.01,.79,1.32,1.4,.47,1.3,.47,2.09v.54c0,.8-.16,1.51-.47,2.12s-.75,1.07-1.33,1.39-1.25,.49-2.01,.5h-2.36Zm1.12-7.61v6.69h1.18c.87,0,1.54-.27,2.02-.81s.72-1.31,.72-2.31v-.5c0-.97-.23-1.72-.68-2.26-.46-.54-1.1-.81-1.94-.82h-1.31Z"/><path class="cls-20" d="M728.16,61.92v-8.53h2.41c.74,0,1.4,.16,1.97,.49s1.01,.79,1.32,1.4,.47,1.3,.47,2.09v.54c0,.8-.16,1.51-.47,2.12s-.75,1.07-1.33,1.39-1.25,.49-2.01,.5h-2.36Zm1.12-7.61v6.69h1.18c.87,0,1.54-.27,2.02-.81s.72-1.31,.72-2.31v-.5c0-.97-.23-1.72-.68-2.26-.46-.54-1.1-.81-1.94-.82h-1.31Z"/></g><g><path class="cls-20" d="M1012.22,151.2c-.09-.19-.17-.52-.23-1-.76,.79-1.66,1.18-2.71,1.18-.94,0-1.71-.27-2.31-.8s-.9-1.2-.9-2.02c0-.99,.38-1.76,1.13-2.31s1.81-.82,3.18-.82h1.58v-.75c0-.57-.17-1.02-.51-1.36s-.84-.51-1.5-.51c-.58,0-1.07,.15-1.46,.44s-.59,.65-.59,1.06h-1.63c0-.47,.17-.93,.5-1.38s.79-.79,1.37-1.05,1.21-.39,1.9-.39c1.1,0,1.95,.27,2.58,.82s.94,1.3,.97,2.26v4.38c0,.87,.11,1.57,.33,2.08v.14h-1.71Zm-2.7-1.24c.51,0,.99-.13,1.45-.4s.79-.61,.99-1.03v-1.95h-1.27c-1.99,0-2.99,.58-2.99,1.75,0,.51,.17,.91,.51,1.2s.78,.43,1.31,.43Z"/><path class="cls-20" d="M1019.33,145.16l2.11-3.47h1.9l-3.11,4.7,3.21,4.81h-1.88l-2.2-3.56-2.2,3.56h-1.89l3.21-4.81-3.11-4.7h1.88l2.08,3.47Z"/><path class="cls-20" d="M1032.92,145.74c0,1.9-.33,3.32-.98,4.25s-1.67,1.39-3.05,1.39-2.38-.45-3.03-1.36-1-2.26-1.02-4.06v-2.17c0-1.88,.33-3.28,.98-4.19s1.67-1.37,3.06-1.37,2.39,.44,3.04,1.32,.98,2.24,1,4.08v2.11Zm-1.63-2.22c0-1.38-.19-2.38-.58-3.01s-1-.94-1.84-.94-1.44,.31-1.82,.94-.58,1.59-.59,2.89v2.6c0,1.38,.2,2.4,.6,3.06s1.01,.99,1.82,.99,1.4-.31,1.79-.93,.59-1.6,.61-2.94v-2.66Z"/></g><g><path class="cls-20" d="M1012.22,194.4c-.09-.19-.17-.52-.23-1-.76,.79-1.66,1.18-2.71,1.18-.94,0-1.71-.27-2.31-.8s-.9-1.2-.9-2.02c0-.99,.38-1.76,1.13-2.31s1.81-.82,3.18-.82h1.58v-.75c0-.57-.17-1.02-.51-1.36s-.84-.51-1.5-.51c-.58,0-1.07,.15-1.46,.44s-.59,.65-.59,1.06h-1.63c0-.47,.17-.93,.5-1.38s.79-.79,1.37-1.05,1.21-.39,1.9-.39c1.1,0,1.95,.27,2.58,.82s.94,1.3,.97,2.26v4.38c0,.87,.11,1.57,.33,2.08v.14h-1.71Zm-2.7-1.24c.51,0,.99-.13,1.45-.4s.79-.61,.99-1.03v-1.95h-1.27c-1.99,0-2.99,.58-2.99,1.75,0,.51,.17,.91,.51,1.2s.78,.43,1.31,.43Z"/><path class="cls-20" d="M1019.12,192.02l2.21-7.13h1.74l-3.82,10.98c-.59,1.58-1.53,2.37-2.82,2.37l-.31-.03-.61-.11v-1.32l.44,.04c.55,0,.98-.11,1.29-.33s.56-.63,.76-1.22l.36-.97-3.39-9.4h1.78l2.37,7.13Z"/><path class="cls-20" d="M1029.7,194.4h-1.63v-10.84l-3.28,1.2v-1.48l4.66-1.75h.25v12.86Z"/></g><g><path class="cls-20" d="M1014.4,276.15c0,1.45-.33,2.62-1,3.5s-1.56,1.32-2.69,1.32c-1.2,0-2.13-.42-2.79-1.27l-.08,1.1h-1.49v-13.5h1.63v5.04c.66-.81,1.56-1.22,2.72-1.22s2.06,.44,2.72,1.31c.66,.87,.99,2.07,.99,3.59v.14Zm-1.63-.18c0-1.11-.21-1.96-.64-2.57s-1.04-.91-1.85-.91c-1.07,0-1.84,.5-2.31,1.49v4.11c.5,1,1.27,1.49,2.33,1.49,.78,0,1.39-.3,1.82-.91s.65-1.51,.65-2.72Z"/><path class="cls-20" d="M1019.51,274.76l2.11-3.47h1.9l-3.11,4.7,3.21,4.81h-1.88l-2.2-3.56-2.2,3.56h-1.89l3.21-4.81-3.11-4.7h1.88l2.08,3.47Z"/><path class="cls-20" d="M1033.1,275.34c0,1.9-.33,3.32-.98,4.25s-1.67,1.39-3.05,1.39-2.38-.45-3.03-1.36-1-2.26-1.02-4.06v-2.17c0-1.88,.33-3.28,.98-4.19s1.67-1.37,3.06-1.37,2.39,.44,3.04,1.32,.98,2.24,1,4.08v2.11Zm-1.63-2.22c0-1.38-.19-2.38-.58-3.01s-1-.95-1.84-.95-1.44,.31-1.82,.94-.58,1.59-.59,2.89v2.6c0,1.38,.2,2.4,.6,3.06,.4,.66,1.01,.99,1.82,.99s1.4-.31,1.79-.93c.39-.62,.59-1.6,.61-2.94v-2.66Z"/></g><g><path class="cls-20" d="M1014.4,319.35c0,1.45-.33,2.62-1,3.5s-1.56,1.32-2.69,1.32c-1.2,0-2.13-.42-2.79-1.27l-.08,1.1h-1.49v-13.5h1.63v5.04c.66-.81,1.56-1.22,2.72-1.22s2.06,.44,2.72,1.31,.99,2.07,.99,3.59v.14Zm-1.63-.18c0-1.11-.21-1.96-.64-2.57s-1.04-.91-1.85-.91c-1.07,0-1.84,.5-2.31,1.49v4.11c.5,1,1.27,1.49,2.33,1.49,.78,0,1.39-.3,1.82-.91s.65-1.51,.65-2.72Z"/><path class="cls-20" d="M1019.46,321.62l2.21-7.13h1.74l-3.82,10.98c-.59,1.58-1.53,2.37-2.82,2.37l-.31-.03-.61-.11v-1.32l.44,.04c.55,0,.98-.11,1.29-.33s.56-.63,.76-1.22l.36-.97-3.39-9.4h1.78l2.37,7.13Z"/><path class="cls-20" d="M1030.04,324h-1.63v-10.84l-3.28,1.2v-1.48l4.66-1.75h.25v12.86Z"/></g><g><path class="cls-20" d="M1010.16,409.25c.58,0,1.09-.18,1.52-.53s.67-.79,.72-1.32h1.54c-.03,.54-.22,1.06-.56,1.56s-.81,.88-1.38,1.18-1.19,.44-1.83,.44c-1.29,0-2.33-.43-3.09-1.3s-1.15-2.05-1.15-3.55v-.27c0-.93,.17-1.75,.51-2.47s.83-1.28,1.46-1.68,1.39-.6,2.25-.6c1.07,0,1.95,.32,2.66,.96s1.08,1.47,1.13,2.49h-1.54c-.05-.62-.28-1.12-.7-1.52s-.94-.59-1.55-.59c-.83,0-1.47,.3-1.92,.89s-.68,1.46-.68,2.58v.31c0,1.1,.23,1.94,.68,2.53s1.1,.89,1.93,.89Z"/><path class="cls-20" d="M1018.96,404.36l2.11-3.47h1.9l-3.11,4.7,3.21,4.81h-1.88l-2.2-3.56-2.2,3.56h-1.89l3.21-4.81-3.11-4.7h1.88l2.08,3.47Z"/><path class="cls-20" d="M1032.55,404.94c0,1.9-.33,3.32-.98,4.25s-1.67,1.39-3.05,1.39-2.38-.45-3.03-1.36-1-2.26-1.02-4.06v-2.17c0-1.88,.33-3.28,.98-4.19s1.67-1.37,3.06-1.37,2.39,.44,3.04,1.32,.98,2.24,1,4.08v2.11Zm-1.63-2.22c0-1.38-.19-2.38-.58-3.01s-1-.94-1.84-.94-1.44,.31-1.82,.94-.58,1.59-.59,2.89v2.6c0,1.38,.2,2.4,.6,3.06s1.01,.99,1.82,.99,1.4-.31,1.79-.93,.59-1.6,.61-2.94v-2.66Z"/></g><g><path class="cls-20" d="M1010.16,452.45c.58,0,1.09-.18,1.52-.53s.67-.79,.72-1.32h1.54c-.03,.54-.22,1.06-.56,1.56s-.81,.88-1.38,1.18-1.19,.44-1.83,.44c-1.29,0-2.32-.43-3.09-1.3s-1.15-2.05-1.15-3.55v-.27c0-.93,.17-1.75,.51-2.47s.83-1.28,1.46-1.68,1.39-.6,2.25-.6c1.07,0,1.95,.32,2.66,.96s1.08,1.47,1.13,2.49h-1.54c-.05-.62-.28-1.12-.7-1.52s-.94-.59-1.55-.59c-.83,0-1.47,.3-1.92,.89s-.68,1.46-.68,2.58v.31c0,1.1,.23,1.94,.68,2.53s1.1,.89,1.93,.89Z"/><path class="cls-20" d="M1018.88,451.22l2.21-7.13h1.74l-3.82,10.98c-.59,1.58-1.53,2.37-2.82,2.37l-.31-.03-.61-.11v-1.32l.44,.04c.55,0,.98-.11,1.29-.33s.56-.63,.76-1.22l.36-.97-3.39-9.4h1.78l2.37,7.13Z"/><path class="cls-20" d="M1029.46,453.6h-1.63v-10.84l-3.28,1.2v-1.48l4.66-1.75h.25v12.86Z"/></g><g><path class="cls-20" d="M1061.28,352.3v1.69h-12.8v-1.69h12.8Z"/><path class="cls-20" d="M1051.77,347.93l1.2-.05c-.91-.73-1.37-1.68-1.37-2.85,0-2.01,1.13-3.02,3.4-3.04h6.28v1.62h-6.29c-.69,0-1.19,.16-1.52,.47s-.49,.79-.49,1.44c0,.53,.14,.99,.42,1.39s.65,.71,1.11,.93h6.78v1.62h-9.51v-1.54Z"/><path class="cls-20" d="M1056.63,331.5c1.45,0,2.61,.33,3.5,.99s1.33,1.56,1.33,2.69-.37,2.06-1.1,2.72h4.58v1.62h-13.17v-1.48l1.05-.08c-.82-.66-1.23-1.58-1.23-2.76s.43-2.05,1.29-2.71,2.06-1,3.59-1h.15Zm-.18,1.63c-1.07,0-1.92,.23-2.54,.69s-.93,1.08-.93,1.88c0,.98,.44,1.72,1.31,2.21h4.54c.87-.49,1.3-1.23,1.3-2.23,0-.78-.31-1.4-.93-1.86s-1.54-.69-2.76-.69Z"/><path class="cls-20" d="M1060.34,323.57c.74,.63,1.12,1.56,1.12,2.79,0,1.01-.29,1.79-.88,2.32s-1.46,.8-2.62,.8h-6.19v-1.63h6.14c1.44,0,2.16-.59,2.16-1.76,0-1.24-.46-2.07-1.39-2.48h-6.92v-1.62h9.51v1.55l-.94,.04Z"/><path class="cls-20" d="M1049.47,317.31h2.3v-1.78h1.26v1.78h5.91c.38,0,.67-.08,.86-.24,.19-.16,.29-.43,.29-.81,0-.19-.04-.45-.11-.77h1.31c.12,.43,.17,.84,.17,1.25,0,.73-.22,1.28-.66,1.64s-1.06,.55-1.87,.55h-5.9v1.73h-1.26v-1.73h-2.3v-1.62Z"/><path class="cls-20" d="M1058.76,308.1c-.44,0-.78,.17-1.02,.5s-.45,.91-.63,1.73-.39,1.48-.63,1.96-.54,.84-.88,1.07-.74,.35-1.21,.35c-.78,0-1.44-.33-1.98-.99s-.81-1.5-.81-2.53c0-1.08,.28-1.95,.83-2.62s1.27-1.01,2.14-1.01v1.63c-.45,0-.83,.19-1.15,.57s-.48,.85-.48,1.43,.13,1.05,.39,1.39,.59,.5,1.01,.5c.39,0,.69-.15,.89-.46s.39-.87,.57-1.68,.4-1.47,.65-1.97,.56-.88,.91-1.12,.79-.37,1.3-.37c.85,0,1.53,.34,2.04,1.02s.77,1.56,.77,2.65c0,.76-.13,1.44-.4,2.02s-.65,1.04-1.13,1.38-1.01,.5-1.57,.5v-1.62c.54-.03,.98-.25,1.3-.66s.48-.94,.48-1.61c0-.62-.12-1.11-.37-1.48s-.58-.56-1-.56Z"/><path class="cls-20" d="M1062.38,304.03v1.4l-13.9-5.34v-1.39l13.9,5.33Z"/><path class="cls-20" d="M1055.29,286.84c1.25,0,2.35,.21,3.28,.63s1.65,1.02,2.14,1.79,.74,1.68,.74,2.71-.25,1.9-.74,2.68-1.2,1.38-2.12,1.81-1.98,.65-3.19,.66h-.92c-1.23,0-2.32-.21-3.26-.64s-1.67-1.03-2.17-1.81-.75-1.68-.75-2.69,.25-1.93,.74-2.71,1.21-1.38,2.15-1.81,2.03-.63,3.28-.63h.81Zm-.83,1.68c-1.52,0-2.68,.3-3.49,.91s-1.22,1.46-1.22,2.56,.41,1.91,1.22,2.52,1.94,.93,3.38,.94h.94c1.47,0,2.63-.31,3.47-.93s1.26-1.47,1.26-2.55-.4-1.93-1.19-2.53-1.93-.9-3.42-.92h-.95Z"/><path class="cls-20" d="M1060.34,278.69c.74,.63,1.12,1.56,1.12,2.79,0,1.01-.29,1.79-.88,2.32s-1.46,.8-2.62,.8h-6.19v-1.63h6.14c1.44,0,2.16-.59,2.16-1.76,0-1.24-.46-2.07-1.39-2.48h-6.92v-1.62h9.51v1.55l-.94,.04Z"/><path class="cls-20" d="M1049.47,272.43h2.3v-1.78h1.26v1.78h5.91c.38,0,.67-.08,.86-.24,.19-.16,.29-.43,.29-.81,0-.19-.04-.45-.11-.77h1.31c.12,.43,.17,.84,.17,1.25,0,.73-.22,1.28-.66,1.64s-1.06,.55-1.87,.55h-5.9v1.73h-1.26v-1.73h-2.3v-1.62Z"/><path class="cls-20" d="M1056.63,260.72c1.45,0,2.61,.33,3.5,.99s1.33,1.56,1.33,2.69-.37,2.06-1.1,2.72h4.58v1.63h-13.17v-1.49l1.05-.08c-.82-.66-1.23-1.58-1.23-2.76s.43-2.05,1.29-2.71,2.06-1,3.59-1h.15Zm-.18,1.63c-1.07,0-1.92,.23-2.54,.69s-.93,1.08-.93,1.88c0,.98,.44,1.72,1.31,2.21h4.54c.87-.49,1.3-1.23,1.3-2.23,0-.78-.31-1.4-.93-1.86s-1.54-.69-2.76-.69Z"/><path class="cls-20" d="M1060.34,252.79c.74,.63,1.12,1.56,1.12,2.79,0,1.01-.29,1.79-.88,2.32s-1.46,.8-2.62,.8h-6.19v-1.63h6.14c1.44,0,2.16-.59,2.16-1.76,0-1.24-.46-2.07-1.39-2.48h-6.92v-1.63h9.51v1.55l-.94,.04Z"/><path class="cls-20" d="M1049.47,246.53h2.3v-1.78h1.26v1.78h5.91c.38,0,.67-.08,.86-.24,.19-.16,.29-.43,.29-.81,0-.19-.04-.45-.11-.77h1.31c.12,.43,.17,.84,.17,1.25,0,.73-.22,1.27-.66,1.64s-1.06,.55-1.87,.55h-5.9v1.73h-1.26v-1.73h-2.3v-1.63Z"/><path class="cls-20" d="M1058.76,237.32c-.44,0-.78,.17-1.02,.5s-.45,.91-.63,1.73-.39,1.48-.63,1.96-.54,.84-.88,1.07-.74,.35-1.21,.35c-.78,0-1.44-.33-1.98-.99s-.81-1.5-.81-2.53c0-1.08,.28-1.95,.83-2.62s1.27-1.01,2.14-1.01v1.63c-.45,0-.83,.19-1.15,.57s-.48,.85-.48,1.43,.13,1.05,.39,1.39,.59,.5,1.01,.5c.39,0,.69-.16,.89-.47s.39-.87,.57-1.68,.4-1.47,.65-1.97,.56-.88,.91-1.12,.79-.36,1.3-.36c.85,0,1.53,.34,2.04,1.02s.77,1.56,.77,2.65c0,.76-.13,1.44-.4,2.02s-.65,1.04-1.13,1.38-1.01,.5-1.57,.5v-1.63c.54-.03,.98-.25,1.3-.65s.48-.94,.48-1.61c0-.62-.12-1.11-.37-1.48s-.58-.56-1-.56Z"/></g><g><path class="cls-20" d="M118.04,438.94l3.66-10.56h1.85l-4.75,12.8h-1.49l-4.74-12.8h1.84l3.64,10.56Z"/><path class="cls-20" d="M129.58,437.24h-3.7v3.02h4.29v.92h-5.42v-8.53h5.36v.92h-4.24v2.75h3.7v.92Z"/><path class="cls-20" d="M136.4,437.24h-3.7v3.02h4.29v.92h-5.42v-8.53h5.36v.92h-4.24v2.75h3.7v.92Z"/></g><path class="cls-20" d="M596.86,416.18h1.78v1.33h-1.78v2.97h-1.63v-2.97h-5.83v-.96l5.73-8.87h1.73v8.5Zm-5.62,0h3.98v-6.28l-.19,.35-3.79,5.92Z"/><g><path class="cls-20" d="M633.38,580.86h-1.69v-12.8h1.69v12.8Z"/><path class="cls-20" d="M646.3,580.86h-1.7l-6.44-9.86v9.86h-1.7v-12.8h1.7l6.46,9.91v-9.91h1.68v12.8Z"/><path class="cls-20" d="M659.13,580.86h-1.7v-5.92h-6.45v5.92h-1.69v-12.8h1.69v5.5h6.45v-5.5h1.7v12.8Z"/></g><g><path class="cls-20" d="M678.14,91.26h-1.63v-10.84l-3.28,1.2v-1.48l4.66-1.75h.25v12.86Z"/><path class="cls-20" d="M689.28,78.45v1.38h-.3c-1.27,.02-2.27,.4-3.02,1.12s-1.18,1.75-1.3,3.07c.67-.77,1.59-1.16,2.76-1.16s2,.39,2.67,1.18,1,1.8,1,3.04c0,1.32-.36,2.37-1.08,3.16s-1.68,1.19-2.89,1.19-2.22-.47-2.98-1.41-1.14-2.15-1.14-3.63v-.62c0-2.36,.5-4.16,1.51-5.4s2.5-1.88,4.49-1.91h.29Zm-2.14,5.77c-.56,0-1.07,.17-1.54,.5s-.79,.75-.98,1.26v.6c0,1.05,.24,1.9,.71,2.55s1.07,.97,1.78,.97,1.31-.27,1.73-.81,.63-1.25,.63-2.12-.21-1.59-.64-2.13-.99-.81-1.69-.81Z"/></g><path class="cls-20" d="M689.21,508.04c0,.64-.17,1.21-.51,1.71s-.79,.89-1.37,1.17c.67,.29,1.2,.71,1.59,1.26s.58,1.17,.58,1.87c0,1.11-.37,1.99-1.12,2.65s-1.73,.98-2.95,.98-2.22-.33-2.96-.99-1.11-1.54-1.11-2.64c0-.69,.19-1.32,.57-1.87s.9-.98,1.57-1.27c-.57-.28-1.02-.67-1.34-1.17s-.49-1.06-.49-1.7c0-1.08,.35-1.93,1.04-2.57s1.6-.95,2.73-.95,2.03,.32,2.73,.95,1.04,1.49,1.04,2.57Zm-1.33,5.97c0-.71-.23-1.3-.68-1.75s-1.05-.68-1.78-.68-1.32,.22-1.76,.67-.66,1.03-.66,1.76,.21,1.3,.65,1.71,1.03,.62,1.8,.62,1.36-.21,1.79-.63,.65-.99,.65-1.71Zm-2.44-8.15c-.64,0-1.16,.2-1.55,.59s-.59,.93-.59,1.61,.19,1.18,.58,1.58,.91,.6,1.56,.6,1.17-.2,1.56-.6,.58-.93,.58-1.58-.2-1.18-.61-1.59-.92-.62-1.54-.62Z"/><g><path class="cls-20" d="M737.24,578.62l3.66-10.56h1.85l-4.75,12.8h-1.49l-4.74-12.8h1.84l3.64,10.56Z"/><path class="cls-20" d="M748.78,576.92h-3.7v3.02h4.29v.92h-5.42v-8.53h5.36v.92h-4.24v2.75h3.7v.92Z"/><path class="cls-20" d="M755.61,576.92h-3.7v3.02h4.29v.92h-5.42v-8.53h5.36v.92h-4.24v2.75h3.7v.92Z"/></g><g><path class="cls-20" d="M585.23,255.42h-1.63v-10.84l-3.28,1.2v-1.48l4.66-1.75h.25v12.86Z"/><path class="cls-20" d="M598.02,249.96c0,1.9-.33,3.32-.98,4.25s-1.67,1.39-3.05,1.39-2.38-.45-3.03-1.36-1-2.26-1.02-4.06v-2.17c0-1.88,.33-3.28,.98-4.19s1.67-1.37,3.06-1.37,2.39,.44,3.04,1.32,.98,2.24,1,4.08v2.11Zm-1.63-2.22c0-1.38-.19-2.38-.58-3.01s-1-.94-1.84-.94-1.44,.31-1.82,.94-.58,1.59-.59,2.89v2.6c0,1.38,.2,2.4,.6,3.06s1.01,.99,1.82,.99,1.4-.31,1.79-.93,.59-1.6,.61-2.94v-2.66Z"/></g><g><path class="cls-20" d="M585.23,290.88h-1.63v-10.84l-3.28,1.2v-1.48l4.66-1.75h.25v12.86Z"/><path class="cls-20" d="M590.74,284.46l.65-6.38h6.56v1.5h-5.18l-.39,3.49c.63-.37,1.34-.55,2.14-.55,1.17,0,2.09,.39,2.78,1.16s1.03,1.81,1.03,3.12-.36,2.36-1.07,3.12-1.71,1.14-2.98,1.14c-1.13,0-2.05-.31-2.77-.94s-1.12-1.49-1.22-2.6h1.54c.1,.73,.36,1.29,.78,1.66s.98,.56,1.67,.56c.76,0,1.35-.26,1.78-.77s.65-1.23,.65-2.14c0-.86-.23-1.54-.7-2.06s-1.08-.78-1.86-.78c-.71,0-1.27,.16-1.67,.47l-.43,.35-1.3-.33Z"/></g><g><path class="cls-20" d="M588.11,125.82h-1.63v-10.84l-3.28,1.2v-1.48l4.66-1.75h.25v12.86Z"/><path class="cls-20" d="M598.22,125.82h-1.63v-10.84l-3.28,1.2v-1.48l4.66-1.75h.25v12.86Z"/></g><g><path class="cls-20" d="M585.23,161.28h-1.63v-10.84l-3.28,1.2v-1.48l4.66-1.75h.25v12.86Z"/><path class="cls-20" d="M596.86,156.98h1.78v1.33h-1.78v2.97h-1.63v-2.97h-5.83v-.96l5.73-8.87h1.73v8.5Zm-5.62,0h3.98v-6.28l-.19,.35-3.79,5.92Z"/></g><g><path class="cls-20" d="M445.7,169.99h-5.36l-1.2,3.35h-1.74l4.89-12.8h1.48l4.9,12.8h-1.73l-1.22-3.35Zm-4.85-1.38h4.35l-2.18-5.99-2.17,5.99Z"/><path class="cls-20" d="M451.76,172.01h5.56v1.33h-7.55v-1.2l5.25-6.97h-5.17v-1.34h7.21v1.15l-5.3,7.03Z"/></g><path class="cls-20" d="M454.73,133.99h-5.36l-1.2,3.35h-1.74l4.89-12.8h1.48l4.9,12.8h-1.73l-1.22-3.35Zm-4.85-1.38h4.35l-2.18-5.99-2.17,5.99Z"/><path class="cls-20" d="M448.2,266.94v-12.8h4.18c1.39,0,2.43,.29,3.13,.86s1.05,1.42,1.05,2.55c0,.6-.17,1.13-.51,1.59s-.8,.82-1.39,1.07c.69,.19,1.24,.56,1.64,1.1s.6,1.19,.6,1.94c0,1.15-.37,2.05-1.12,2.71s-1.8,.98-3.16,.98h-4.44Zm1.69-7.34h2.55c.74,0,1.33-.19,1.77-.55,.44-.37,.66-.87,.66-1.51,0-.7-.21-1.22-.62-1.54-.41-.32-1.03-.48-1.87-.48h-2.5v4.08Zm0,1.35v4.6h2.79c.79,0,1.4-.2,1.86-.61s.68-.97,.68-1.68c0-1.54-.84-2.31-2.51-2.31h-2.81Z"/><g><path class="cls-20" d="M439.28,300.06v-12.8h4.18c1.39,0,2.43,.29,3.13,.86s1.05,1.42,1.05,2.55c0,.6-.17,1.13-.51,1.59s-.8,.82-1.39,1.07c.69,.19,1.24,.56,1.64,1.1s.6,1.19,.6,1.94c0,1.15-.37,2.05-1.12,2.71s-1.8,.98-3.16,.98h-4.44Zm1.69-7.34h2.55c.74,0,1.33-.19,1.77-.55,.44-.37,.66-.87,.66-1.51,0-.7-.21-1.22-.62-1.54-.41-.32-1.03-.48-1.87-.48h-2.5v4.08Zm0,1.35v4.61h2.79c.79,0,1.4-.2,1.86-.61s.68-.97,.68-1.68c0-1.54-.84-2.31-2.51-2.31h-2.81Z"/><path class="cls-20" d="M451.76,298.73h5.56v1.33h-7.55v-1.2l5.25-6.97h-5.17v-1.34h7.21v1.15l-5.3,7.03Z"/></g><path class="cls-20" d="M457.1,392.48c-.16,1.35-.66,2.4-1.5,3.13s-1.96,1.1-3.35,1.1c-1.51,0-2.72-.54-3.63-1.63s-1.37-2.53-1.37-4.35v-1.23c0-1.19,.21-2.24,.64-3.14s1.03-1.59,1.81-2.08,1.68-.73,2.71-.73c1.36,0,2.45,.38,3.27,1.14s1.3,1.81,1.43,3.15h-1.7c-.15-1.02-.46-1.76-.95-2.22-.49-.46-1.17-.69-2.05-.69-1.08,0-1.92,.4-2.54,1.2-.61,.8-.92,1.93-.92,3.4v1.24c0,1.39,.29,2.5,.87,3.32,.58,.82,1.39,1.23,2.43,1.23,.94,0,1.66-.21,2.16-.64s.83-1.17,1-2.22h1.7Z"/><g><path class="cls-20" d="M448.18,428.48c-.16,1.35-.66,2.4-1.5,3.13s-1.96,1.1-3.35,1.1c-1.51,0-2.72-.54-3.63-1.63s-1.37-2.53-1.37-4.35v-1.23c0-1.19,.21-2.24,.64-3.14s1.03-1.59,1.81-2.08,1.68-.73,2.71-.73c1.36,0,2.45,.38,3.27,1.14s1.3,1.81,1.43,3.15h-1.7c-.15-1.02-.46-1.76-.95-2.22-.49-.46-1.17-.69-2.05-.69-1.08,0-1.92,.4-2.54,1.2-.61,.8-.92,1.93-.92,3.4v1.24c0,1.39,.29,2.5,.87,3.32,.58,.82,1.39,1.23,2.43,1.23,.94,0,1.66-.21,2.16-.64s.83-1.17,1-2.22h1.7Z"/><path class="cls-20" d="M451.76,431.21h5.56v1.33h-7.55v-1.2l5.25-6.97h-5.17v-1.34h7.21v1.15l-5.3,7.03Z"/></g><g><path class="cls-20" d="M667.12,118.34l2.11-3.47h1.9l-3.11,4.7,3.21,4.81h-1.88l-2.2-3.56-2.2,3.56h-1.89l3.21-4.81-3.11-4.7h1.88l2.08,3.47Z"/><path class="cls-20" d="M687.4,118.39c0,1.25-.21,2.35-.63,3.28s-1.02,1.65-1.79,2.14-1.68,.74-2.71,.74-1.9-.25-2.68-.74-1.38-1.2-1.81-2.12-.65-1.98-.66-3.19v-.92c0-1.23,.21-2.32,.64-3.26s1.03-1.67,1.82-2.17,1.68-.75,2.68-.75,1.93,.25,2.71,.74,1.38,1.21,1.81,2.15,.63,2.03,.63,3.28v.81Zm-1.68-.83c0-1.52-.3-2.68-.91-3.49s-1.46-1.22-2.56-1.22-1.91,.41-2.52,1.22-.93,1.94-.95,3.38v.94c0,1.47,.31,2.63,.93,3.47s1.47,1.26,2.55,1.26,1.93-.4,2.53-1.19,.91-1.93,.92-3.41v-.95Z"/><path class="cls-20" d="M694.63,119.2h-3.01v5.18h-1.7v-12.8h4.24c1.44,0,2.55,.33,3.33,.98s1.16,1.61,1.16,2.87c0,.8-.21,1.49-.65,2.08s-1.03,1.03-1.8,1.33l3.01,5.43v.11h-1.81l-2.78-5.18Zm-3.01-1.38h2.59c.84,0,1.5-.22,2-.65,.5-.43,.74-1.02,.74-1.74,0-.79-.24-1.4-.71-1.82-.47-.42-1.15-.64-2.04-.64h-2.58v4.86Z"/><path class="cls-20" d="M708.33,122l2.21-7.13h1.74l-3.82,10.98c-.59,1.58-1.53,2.37-2.82,2.37l-.31-.03-.61-.11v-1.32l.44,.04c.55,0,.98-.11,1.29-.33s.56-.63,.76-1.22l.36-.97-3.39-9.4h1.78l2.37,7.13Z"/></g><g><path class="cls-20" d="M667.12,247.94l2.11-3.47h1.9l-3.11,4.7,3.21,4.81h-1.88l-2.2-3.56-2.2,3.56h-1.89l3.21-4.81-3.11-4.7h1.88l2.08,3.47Z"/><path class="cls-20" d="M687.4,247.99c0,1.25-.21,2.35-.63,3.28s-1.02,1.65-1.79,2.14-1.68,.74-2.71,.74-1.9-.25-2.68-.74-1.38-1.2-1.81-2.12-.65-1.98-.66-3.19v-.92c0-1.23,.21-2.32,.64-3.26s1.03-1.67,1.82-2.17,1.68-.75,2.68-.75,1.93,.25,2.71,.74,1.38,1.21,1.81,2.15,.63,2.03,.63,3.28v.81Zm-1.68-.83c0-1.52-.3-2.68-.91-3.49s-1.46-1.22-2.56-1.22-1.91,.41-2.52,1.22-.93,1.94-.95,3.38v.94c0,1.47,.31,2.63,.93,3.47s1.47,1.26,2.55,1.26,1.93-.4,2.53-1.19,.91-1.93,.92-3.41v-.95Z"/><path class="cls-20" d="M694.63,248.8h-3.01v5.18h-1.7v-12.8h4.24c1.44,0,2.55,.33,3.33,.98s1.16,1.61,1.16,2.87c0,.8-.21,1.49-.65,2.08s-1.03,1.03-1.8,1.33l3.01,5.43v.11h-1.81l-2.78-5.18Zm-3.01-1.38h2.59c.84,0,1.5-.22,2-.65,.5-.43,.74-1.02,.74-1.74,0-.79-.24-1.4-.71-1.82-.47-.42-1.15-.64-2.04-.64h-2.58v4.86Z"/><path class="cls-20" d="M708.33,251.6l2.21-7.13h1.74l-3.82,10.98c-.59,1.58-1.53,2.37-2.82,2.37l-.31-.03-.61-.11v-1.32l.44,.04c.55,0,.98-.11,1.29-.33s.56-.63,.76-1.22l.36-.97-3.39-9.4h1.78l2.37,7.13Z"/></g><g><path class="cls-20" d="M667.12,377.54l2.11-3.47h1.9l-3.11,4.7,3.21,4.81h-1.88l-2.2-3.56-2.2,3.56h-1.89l3.21-4.81-3.11-4.7h1.88l2.08,3.47Z"/><path class="cls-20" d="M687.4,377.59c0,1.25-.21,2.35-.63,3.28s-1.02,1.65-1.79,2.14-1.68,.74-2.71,.74-1.9-.25-2.68-.74-1.38-1.2-1.81-2.12-.65-1.98-.66-3.19v-.92c0-1.23,.21-2.32,.64-3.26s1.03-1.67,1.82-2.17,1.68-.75,2.68-.75,1.93,.25,2.71,.74,1.38,1.21,1.81,2.15,.63,2.03,.63,3.28v.81Zm-1.68-.83c0-1.52-.3-2.68-.91-3.49s-1.46-1.22-2.56-1.22-1.91,.41-2.52,1.22-.93,1.94-.95,3.38v.94c0,1.47,.31,2.63,.93,3.47s1.47,1.26,2.55,1.26,1.93-.4,2.53-1.19,.91-1.93,.92-3.42v-.95Z"/><path class="cls-20" d="M694.63,378.4h-3.01v5.18h-1.7v-12.8h4.24c1.44,0,2.55,.33,3.33,.98s1.16,1.61,1.16,2.87c0,.8-.21,1.49-.65,2.08s-1.03,1.03-1.8,1.33l3.01,5.43v.11h-1.81l-2.78-5.18Zm-3.01-1.38h2.59c.84,0,1.5-.22,2-.65s.74-1.02,.74-1.74c0-.79-.24-1.4-.71-1.82-.47-.42-1.15-.64-2.04-.64h-2.58v4.86Z"/><path class="cls-20" d="M708.33,381.2l2.21-7.13h1.74l-3.82,10.98c-.59,1.58-1.53,2.37-2.82,2.37l-.31-.03-.61-.11v-1.32l.44,.04c.55,0,.98-.11,1.29-.33s.56-.63,.76-1.22l.36-.97-3.39-9.4h1.78l2.37,7.13Z"/></g><path class="cls-20" d="M637.43,504.69v1.38h-.3c-1.27,.02-2.27,.4-3.02,1.12s-1.18,1.75-1.3,3.07c.67-.77,1.59-1.16,2.76-1.16s2,.39,2.67,1.18,1,1.8,1,3.04c0,1.32-.36,2.37-1.08,3.16s-1.68,1.19-2.89,1.19-2.22-.47-2.98-1.41-1.14-2.15-1.14-3.63v-.62c0-2.36,.5-4.16,1.51-5.4s2.5-1.88,4.49-1.91h.29Zm-2.14,5.77c-.56,0-1.07,.17-1.54,.5s-.79,.75-.98,1.26v.6c0,1.05,.24,1.9,.71,2.55s1.07,.97,1.78,.97,1.31-.27,1.73-.81,.63-1.25,.63-2.12-.21-1.59-.64-2.13-.99-.81-1.69-.81Z"/><path class="cls-20" d="M740.11,505.62l-5.3,11.88h-1.71l5.28-11.46h-6.93v-1.34h8.65v.91Z"/><g><path class="cls-20" d="M501.99,422.33h-1.69v-12.8h1.69v12.8Z"/><path class="cls-20" d="M514.91,422.33h-1.7l-6.44-9.86v9.86h-1.7v-12.8h1.7l6.46,9.91v-9.91h1.68v12.8Z"/><path class="cls-20" d="M517.97,423.43h-1.4l5.34-13.9h1.39l-5.33,13.9Z"/><path class="cls-20" d="M535.16,416.35c0,1.25-.21,2.35-.63,3.28s-1.02,1.65-1.79,2.14-1.68,.74-2.71,.74-1.9-.25-2.68-.74-1.38-1.2-1.82-2.12-.65-1.98-.66-3.19v-.92c0-1.23,.21-2.32,.64-3.26s1.03-1.67,1.81-2.17,1.68-.75,2.69-.75,1.93,.25,2.71,.74,1.38,1.21,1.81,2.15,.63,2.03,.63,3.28v.81Zm-1.68-.83c0-1.52-.3-2.68-.91-3.49s-1.46-1.22-2.56-1.22-1.91,.41-2.52,1.22-.93,1.94-.94,3.38v.94c0,1.47,.31,2.63,.93,3.47s1.47,1.26,2.55,1.26,1.93-.4,2.53-1.19,.91-1.93,.92-3.42v-.95Z"/><path class="cls-20" d="M546.7,409.53v8.7c0,1.21-.39,2.19-1.14,2.96s-1.77,1.2-3.06,1.29l-.45,.02c-1.4,0-2.52-.38-3.35-1.13s-1.25-1.8-1.27-3.12v-8.72h1.67v8.67c0,.93,.25,1.65,.76,2.16s1.24,.77,2.18,.77,1.69-.25,2.19-.76,.76-1.23,.76-2.15v-8.67h1.7Z"/><path class="cls-20" d="M558.21,410.91h-4.11v11.42h-1.68v-11.42h-4.1v-1.38h9.9v1.38Z"/></g><g><path class="cls-20" d="M501.99,293.76h-1.69v-12.8h1.69v12.8Z"/><path class="cls-20" d="M514.91,293.76h-1.7l-6.44-9.86v9.86h-1.7v-12.8h1.7l6.46,9.91v-9.91h1.68v12.8Z"/><path class="cls-20" d="M517.97,294.86h-1.4l5.34-13.9h1.39l-5.33,13.9Z"/><path class="cls-20" d="M535.16,287.77c0,1.25-.21,2.35-.63,3.28s-1.02,1.65-1.79,2.14-1.68,.74-2.71,.74-1.9-.25-2.68-.74-1.38-1.2-1.82-2.12-.65-1.98-.66-3.19v-.92c0-1.23,.21-2.32,.64-3.26s1.03-1.67,1.81-2.17,1.68-.75,2.69-.75,1.93,.25,2.71,.74,1.38,1.21,1.81,2.15,.63,2.04,.63,3.28v.81Zm-1.68-.83c0-1.52-.3-2.68-.91-3.49s-1.46-1.22-2.56-1.22-1.91,.41-2.52,1.22-.93,1.94-.94,3.38v.94c0,1.47,.31,2.63,.93,3.47s1.47,1.26,2.55,1.26,1.93-.4,2.53-1.19,.91-1.93,.92-3.41v-.95Z"/><path class="cls-20" d="M546.7,280.96v8.7c0,1.21-.39,2.19-1.14,2.96s-1.77,1.2-3.06,1.29l-.45,.02c-1.4,0-2.52-.38-3.35-1.13s-1.25-1.8-1.27-3.12v-8.72h1.67v8.67c0,.93,.25,1.64,.76,2.16s1.24,.77,2.18,.77,1.69-.25,2.19-.76,.76-1.23,.76-2.15v-8.67h1.7Z"/><path class="cls-20" d="M558.21,282.34h-4.11v11.42h-1.68v-11.42h-4.1v-1.38h9.9v1.38Z"/></g><g><path class="cls-20" d="M501.99,164.16h-1.69v-12.8h1.69v12.8Z"/><path class="cls-20" d="M514.91,164.16h-1.7l-6.44-9.86v9.86h-1.7v-12.8h1.7l6.46,9.91v-9.91h1.68v12.8Z"/><path class="cls-20" d="M517.97,165.26h-1.4l5.34-13.9h1.39l-5.33,13.9Z"/><path class="cls-20" d="M535.16,158.17c0,1.25-.21,2.35-.63,3.28s-1.02,1.65-1.79,2.14-1.68,.74-2.71,.74-1.9-.25-2.68-.74-1.38-1.2-1.82-2.12-.65-1.98-.66-3.19v-.92c0-1.23,.21-2.32,.64-3.26s1.03-1.67,1.81-2.17,1.68-.75,2.69-.75,1.93,.25,2.71,.74,1.38,1.21,1.81,2.15,.63,2.03,.63,3.28v.81Zm-1.68-.83c0-1.52-.3-2.68-.91-3.49s-1.46-1.22-2.56-1.22-1.91,.41-2.52,1.22-.93,1.94-.94,3.38v.94c0,1.47,.31,2.63,.93,3.47s1.47,1.26,2.55,1.26,1.93-.4,2.53-1.19,.91-1.93,.92-3.41v-.95Z"/><path class="cls-20" d="M546.7,151.36v8.7c0,1.21-.39,2.19-1.14,2.96s-1.77,1.2-3.06,1.29l-.45,.02c-1.4,0-2.52-.38-3.35-1.13s-1.25-1.8-1.27-3.12v-8.72h1.67v8.67c0,.93,.25,1.65,.76,2.16s1.24,.77,2.18,.77,1.69-.25,2.19-.76,.76-1.23,.76-2.15v-8.67h1.7Z"/><path class="cls-20" d="M558.21,152.74h-4.11v11.42h-1.68v-11.42h-4.1v-1.38h9.9v1.38Z"/></g><g><path class="cls-20" d="M511.24,381.96c0-.44-.17-.78-.5-1.02s-.91-.45-1.73-.63-1.48-.39-1.96-.63-.84-.54-1.07-.88-.35-.74-.35-1.21c0-.78,.33-1.44,.99-1.98s1.5-.81,2.53-.81c1.08,0,1.95,.28,2.62,.83s1.01,1.27,1.01,2.14h-1.63c0-.45-.19-.83-.57-1.15s-.85-.48-1.43-.48-1.05,.13-1.39,.39-.5,.59-.5,1.01c0,.39,.16,.69,.47,.89s.87,.39,1.68,.57,1.47,.4,1.97,.65,.88,.55,1.12,.91,.37,.79,.37,1.3c0,.85-.34,1.53-1.02,2.04s-1.56,.77-2.65,.77c-.76,0-1.44-.13-2.02-.4s-1.04-.65-1.38-1.13-.5-1.01-.5-1.57h1.63c.03,.54,.25,.98,.65,1.3s.95,.48,1.61,.48c.62,0,1.11-.12,1.48-.37s.56-.58,.56-1Z"/><path class="cls-20" d="M518.93,384.66c-1.29,0-2.34-.42-3.15-1.27s-1.21-1.98-1.21-3.4v-.3c0-.94,.18-1.79,.54-2.53s.86-1.32,1.51-1.74,1.35-.63,2.11-.63c1.24,0,2.2,.41,2.88,1.22s1.03,1.98,1.03,3.5v.68h-6.44c.02,.94,.3,1.69,.82,2.27s1.19,.87,2,.87c.57,0,1.06-.12,1.46-.35s.75-.54,1.05-.93l.99,.77c-.8,1.22-1.99,1.84-3.59,1.84Zm-.2-8.53c-.66,0-1.21,.24-1.65,.72s-.72,1.15-.83,2.01h4.76v-.12c-.05-.83-.27-1.47-.67-1.92s-.94-.68-1.62-.68Z"/><path class="cls-20" d="M526.28,384.48h-1.63v-13.5h1.63v13.5Z"/><path class="cls-20" d="M532.83,384.66c-1.29,0-2.34-.42-3.15-1.27s-1.21-1.98-1.21-3.4v-.3c0-.94,.18-1.79,.54-2.53s.86-1.32,1.51-1.74,1.35-.63,2.11-.63c1.24,0,2.2,.41,2.88,1.22s1.03,1.98,1.03,3.5v.68h-6.44c.02,.94,.3,1.69,.82,2.27s1.19,.87,2,.87c.57,0,1.06-.12,1.46-.35s.75-.54,1.05-.93l.99,.77c-.8,1.22-1.99,1.84-3.59,1.84Zm-.2-8.53c-.66,0-1.21,.24-1.65,.72s-.72,1.15-.83,2.01h4.76v-.12c-.05-.83-.27-1.47-.67-1.92s-.94-.68-1.62-.68Z"/><path class="cls-20" d="M542.24,383.33c.58,0,1.09-.18,1.52-.53s.67-.79,.72-1.32h1.54c-.03,.54-.22,1.06-.56,1.56s-.81,.88-1.38,1.18-1.19,.44-1.83,.44c-1.29,0-2.33-.43-3.09-1.3s-1.15-2.05-1.15-3.55v-.27c0-.93,.17-1.75,.51-2.47s.83-1.28,1.46-1.68,1.39-.6,2.25-.6c1.07,0,1.95,.32,2.66,.96s1.08,1.47,1.13,2.49h-1.54c-.05-.62-.28-1.12-.7-1.52s-.94-.59-1.55-.59c-.83,0-1.47,.3-1.92,.89s-.68,1.46-.68,2.58v.31c0,1.1,.23,1.94,.68,2.53s1.1,.89,1.93,.89Z"/><path class="cls-20" d="M550.05,372.67v2.3h1.78v1.26h-1.78v5.9c0,.38,.08,.67,.24,.86s.43,.29,.81,.29c.19,0,.45-.04,.77-.11v1.31c-.43,.12-.84,.17-1.25,.17-.73,0-1.27-.22-1.64-.66s-.55-1.06-.55-1.87v-5.9h-1.73v-1.26h1.73v-2.3h1.63Z"/></g><g><path class="cls-20" d="M511.24,253.39c0-.44-.17-.78-.5-1.02s-.91-.45-1.73-.63-1.48-.39-1.96-.63-.84-.54-1.07-.88-.35-.74-.35-1.21c0-.78,.33-1.44,.99-1.98s1.5-.81,2.53-.81c1.08,0,1.95,.28,2.62,.83s1.01,1.27,1.01,2.14h-1.63c0-.45-.19-.83-.57-1.15s-.85-.48-1.43-.48-1.05,.13-1.39,.39-.5,.59-.5,1.01c0,.39,.16,.69,.47,.89s.87,.39,1.68,.57,1.47,.4,1.97,.65,.88,.56,1.12,.91,.36,.79,.36,1.3c0,.85-.34,1.53-1.02,2.04s-1.56,.77-2.65,.77c-.76,0-1.44-.13-2.02-.4s-1.04-.65-1.38-1.13-.5-1.01-.5-1.57h1.63c.03,.54,.25,.98,.66,1.3s.94,.48,1.61,.48c.62,0,1.11-.12,1.48-.37s.56-.58,.56-1Z"/><path class="cls-20" d="M518.93,256.08c-1.29,0-2.34-.42-3.15-1.27s-1.21-1.98-1.21-3.4v-.3c0-.94,.18-1.79,.54-2.53s.86-1.32,1.51-1.74,1.35-.63,2.1-.63c1.24,0,2.2,.41,2.88,1.22s1.03,1.98,1.03,3.5v.68h-6.44c.02,.94,.3,1.69,.82,2.27s1.19,.87,2,.87c.57,0,1.06-.12,1.46-.35s.75-.54,1.05-.93l.99,.77c-.8,1.22-1.99,1.84-3.59,1.84Zm-.2-8.53c-.66,0-1.21,.24-1.65,.72s-.72,1.15-.83,2.01h4.76v-.12c-.05-.83-.27-1.47-.67-1.92s-.94-.68-1.62-.68Z"/><path class="cls-20" d="M526.28,255.91h-1.63v-13.5h1.63v13.5Z"/><path class="cls-20" d="M532.83,256.08c-1.29,0-2.34-.42-3.15-1.27s-1.21-1.98-1.21-3.4v-.3c0-.94,.18-1.79,.54-2.53s.86-1.32,1.51-1.74,1.35-.63,2.1-.63c1.24,0,2.2,.41,2.88,1.22s1.03,1.98,1.03,3.5v.68h-6.44c.02,.94,.3,1.69,.82,2.27s1.19,.87,2,.87c.57,0,1.06-.12,1.46-.35s.75-.54,1.05-.93l.99,.77c-.8,1.22-1.99,1.84-3.59,1.84Zm-.2-8.53c-.66,0-1.21,.24-1.65,.72s-.72,1.15-.83,2.01h4.76v-.12c-.05-.83-.27-1.47-.67-1.92s-.94-.68-1.62-.68Z"/><path class="cls-20" d="M542.24,254.76c.58,0,1.09-.18,1.52-.53s.67-.79,.72-1.32h1.54c-.03,.54-.22,1.06-.56,1.56s-.81,.88-1.38,1.18-1.19,.44-1.83,.44c-1.29,0-2.32-.43-3.09-1.3s-1.15-2.05-1.15-3.55v-.27c0-.93,.17-1.75,.51-2.47s.83-1.28,1.46-1.68,1.39-.6,2.25-.6c1.07,0,1.95,.32,2.66,.96s1.08,1.47,1.13,2.49h-1.54c-.05-.62-.28-1.12-.7-1.52s-.94-.59-1.55-.59c-.83,0-1.47,.3-1.92,.89s-.68,1.45-.68,2.58v.31c0,1.1,.23,1.94,.68,2.53s1.1,.89,1.93,.89Z"/><path class="cls-20" d="M550.05,244.1v2.3h1.78v1.26h-1.78v5.9c0,.38,.08,.67,.24,.86,.16,.19,.43,.29,.81,.29,.19,0,.45-.04,.77-.11v1.31c-.43,.12-.84,.17-1.25,.17-.73,0-1.27-.22-1.64-.66s-.55-1.06-.55-1.87v-5.9h-1.73v-1.26h1.73v-2.3h1.63Z"/></g><g><path class="cls-20" d="M511.24,123.79c0-.44-.17-.78-.5-1.02s-.91-.45-1.73-.63-1.48-.39-1.96-.63-.84-.54-1.07-.88-.35-.74-.35-1.21c0-.78,.33-1.44,.99-1.98s1.5-.81,2.53-.81c1.08,0,1.95,.28,2.62,.83s1.01,1.27,1.01,2.14h-1.63c0-.45-.19-.83-.57-1.15s-.85-.48-1.43-.48-1.05,.13-1.39,.39-.5,.59-.5,1.01c0,.39,.16,.69,.47,.89s.87,.39,1.68,.57,1.47,.4,1.97,.65,.88,.56,1.12,.91,.37,.79,.37,1.3c0,.85-.34,1.53-1.02,2.04s-1.56,.77-2.65,.77c-.76,0-1.44-.13-2.02-.4s-1.04-.65-1.38-1.13-.5-1.01-.5-1.57h1.63c.03,.54,.25,.98,.65,1.3s.95,.48,1.61,.48c.62,0,1.11-.12,1.48-.37s.56-.58,.56-1Z"/><path class="cls-20" d="M518.93,126.48c-1.29,0-2.34-.42-3.15-1.27s-1.21-1.98-1.21-3.4v-.3c0-.94,.18-1.79,.54-2.53s.86-1.32,1.51-1.74,1.35-.63,2.11-.63c1.24,0,2.2,.41,2.88,1.22s1.03,1.98,1.03,3.5v.68h-6.44c.02,.94,.3,1.69,.82,2.27s1.19,.87,2,.87c.57,0,1.06-.12,1.46-.35s.75-.54,1.05-.93l.99,.77c-.8,1.22-1.99,1.84-3.59,1.84Zm-.2-8.53c-.66,0-1.21,.24-1.65,.72s-.72,1.15-.83,2.01h4.76v-.12c-.05-.83-.27-1.47-.67-1.92s-.94-.68-1.62-.68Z"/><path class="cls-20" d="M526.28,126.31h-1.63v-13.5h1.63v13.5Z"/><path class="cls-20" d="M532.83,126.48c-1.29,0-2.34-.42-3.15-1.27s-1.21-1.98-1.21-3.4v-.3c0-.94,.18-1.79,.54-2.53s.86-1.32,1.51-1.74,1.35-.63,2.11-.63c1.24,0,2.2,.41,2.88,1.22s1.03,1.98,1.03,3.5v.68h-6.44c.02,.94,.3,1.69,.82,2.27s1.19,.87,2,.87c.57,0,1.06-.12,1.46-.35s.75-.54,1.05-.93l.99,.77c-.8,1.22-1.99,1.84-3.59,1.84Zm-.2-8.53c-.66,0-1.21,.24-1.65,.72s-.72,1.15-.83,2.01h4.76v-.12c-.05-.83-.27-1.47-.67-1.92s-.94-.68-1.62-.68Z"/><path class="cls-20" d="M542.24,125.16c.58,0,1.09-.18,1.52-.53s.67-.79,.72-1.32h1.54c-.03,.54-.22,1.06-.56,1.56s-.81,.88-1.38,1.18-1.19,.44-1.83,.44c-1.29,0-2.33-.43-3.09-1.3s-1.15-2.05-1.15-3.55v-.27c0-.93,.17-1.75,.51-2.47s.83-1.28,1.46-1.68,1.39-.6,2.25-.6c1.07,0,1.95,.32,2.66,.96s1.08,1.47,1.13,2.49h-1.54c-.05-.62-.28-1.12-.7-1.52s-.94-.59-1.55-.59c-.83,0-1.47,.3-1.92,.89s-.68,1.45-.68,2.58v.31c0,1.1,.23,1.94,.68,2.53s1.1,.89,1.93,.89Z"/><path class="cls-20" d="M550.05,114.5v2.3h1.78v1.26h-1.78v5.9c0,.38,.08,.67,.24,.86,.16,.19,.43,.29,.81,.29,.19,0,.45-.04,.77-.11v1.31c-.43,.12-.84,.17-1.25,.17-.73,0-1.27-.22-1.64-.66s-.55-1.06-.55-1.87v-5.9h-1.73v-1.26h1.73v-2.3h1.63Z"/></g><g><path class="cls-20" d="M487.74,26.18c-.16,1.35-.66,2.4-1.5,3.13s-1.96,1.1-3.35,1.1c-1.51,0-2.72-.54-3.63-1.63s-1.37-2.53-1.37-4.35v-1.23c0-1.19,.21-2.24,.64-3.14s1.03-1.6,1.81-2.08,1.68-.73,2.71-.73c1.36,0,2.45,.38,3.27,1.14s1.3,1.81,1.43,3.15h-1.7c-.15-1.02-.46-1.76-.95-2.22s-1.17-.69-2.05-.69c-1.08,0-1.92,.4-2.54,1.2-.61,.8-.92,1.93-.92,3.4v1.24c0,1.39,.29,2.5,.87,3.32s1.39,1.23,2.43,1.23c.94,0,1.66-.21,2.16-.64s.83-1.16,1-2.22h1.7Z"/><path class="cls-20" d="M490.05,30.24v-12.8h3.61c1.11,0,2.1,.25,2.95,.74s1.52,1.19,1.98,2.1,.7,1.95,.71,3.13v.82c0,1.21-.23,2.26-.7,3.17s-1.13,1.61-2,2.09-1.87,.74-3.02,.75h-3.54Zm1.69-11.42v10.04h1.78c1.3,0,2.31-.4,3.04-1.21s1.08-1.96,1.08-3.46v-.75c0-1.45-.34-2.58-1.02-3.39-.68-.81-1.65-1.22-2.91-1.23h-1.97Z"/><path class="cls-20" d="M508.29,25.94h1.78v1.33h-1.78v2.97h-1.63v-2.97h-5.83v-.96l5.73-8.87h1.73v8.5Zm-5.62,0h3.98v-6.28l-.19,.35-3.79,5.92Z"/><path class="cls-20" d="M519.56,24.78c0,1.9-.33,3.32-.98,4.25s-1.67,1.39-3.05,1.39-2.38-.45-3.03-1.36-1-2.26-1.02-4.06v-2.17c0-1.88,.33-3.28,.98-4.19s1.67-1.37,3.06-1.37,2.39,.44,3.04,1.32,.98,2.24,1,4.08v2.11Zm-1.63-2.22c0-1.38-.19-2.38-.58-3.01s-1-.94-1.84-.94-1.44,.31-1.82,.94-.58,1.59-.59,2.89v2.6c0,1.38,.2,2.4,.6,3.06s1.01,.99,1.82,.99,1.4-.31,1.79-.93,.59-1.6,.61-2.94v-2.66Z"/><path class="cls-20" d="M522.39,23.82l.65-6.38h6.56v1.5h-5.18l-.39,3.49c.63-.37,1.34-.55,2.14-.55,1.17,0,2.09,.39,2.78,1.16s1.03,1.81,1.03,3.12-.36,2.36-1.07,3.12-1.71,1.14-2.98,1.14c-1.13,0-2.05-.31-2.77-.94s-1.12-1.49-1.22-2.6h1.54c.1,.73,.36,1.28,.78,1.66s.98,.56,1.67,.56c.76,0,1.35-.26,1.78-.77s.65-1.23,.65-2.14c0-.86-.23-1.54-.7-2.06s-1.09-.78-1.86-.78c-.71,0-1.27,.16-1.67,.47l-.43,.35-1.3-.33Z"/><path class="cls-20" d="M534.12,23.05h1.22c.77-.01,1.37-.21,1.81-.61s.66-.92,.66-1.59c0-1.5-.75-2.25-2.24-2.25-.7,0-1.26,.2-1.68,.6s-.63,.93-.63,1.6h-1.63c0-1.01,.37-1.86,1.11-2.53s1.68-1.01,2.83-1.01c1.21,0,2.15,.32,2.84,.96s1.03,1.53,1.03,2.66c0,.56-.18,1.1-.54,1.62s-.85,.91-1.47,1.17c.7,.22,1.25,.59,1.63,1.11s.58,1.15,.58,1.89c0,1.15-.38,2.06-1.12,2.73s-1.73,1.01-2.93,1.01-2.18-.33-2.93-.98-1.13-1.51-1.13-2.58h1.63c0,.67,.22,1.21,.66,1.62s1.03,.61,1.77,.61c.79,0,1.39-.21,1.8-.62s.62-1,.62-1.77-.23-1.32-.69-1.71-1.12-.6-1.98-.62h-1.22v-1.33Z"/><path class="cls-20" d="M552.02,27.72c0-.44-.17-.78-.5-1.02s-.91-.45-1.73-.63-1.48-.39-1.96-.63-.84-.54-1.07-.88-.35-.74-.35-1.21c0-.78,.33-1.44,.99-1.98s1.5-.81,2.53-.81c1.08,0,1.95,.28,2.62,.83s1.01,1.27,1.01,2.14h-1.63c0-.45-.19-.83-.57-1.15s-.85-.48-1.43-.48-1.05,.13-1.39,.39-.5,.59-.5,1.01c0,.39,.16,.69,.47,.89s.87,.39,1.68,.57,1.47,.4,1.97,.65,.88,.56,1.12,.91,.36,.79,.36,1.3c0,.85-.34,1.53-1.02,2.04s-1.56,.77-2.65,.77c-.76,0-1.44-.13-2.02-.4s-1.04-.65-1.38-1.13-.5-1.01-.5-1.57h1.63c.03,.54,.25,.98,.66,1.3s.94,.48,1.61,.48c.62,0,1.11-.12,1.48-.37s.56-.58,.56-1Z"/><path class="cls-20" d="M555.77,18.21c0-.26,.08-.49,.24-.67s.4-.27,.72-.27,.56,.09,.72,.27,.25,.4,.25,.67-.08,.48-.25,.66-.4,.26-.72,.26-.55-.09-.72-.26-.24-.4-.24-.66Zm1.76,12.03h-1.63v-9.51h1.63v9.51Z"/><path class="cls-20" d="M561.67,20.73l.05,1.2c.73-.91,1.68-1.37,2.85-1.37,2.01,0,3.02,1.13,3.04,3.4v6.28h-1.63v-6.29c0-.69-.16-1.19-.47-1.52s-.79-.49-1.44-.49c-.53,0-.99,.14-1.39,.42s-.71,.65-.93,1.11v6.78h-1.63v-9.51h1.54Z"/><path class="cls-20" d="M569.68,25.41c0-1.48,.34-2.66,1.03-3.54s1.59-1.31,2.72-1.31,2.07,.41,2.72,1.23l.08-1.05h1.49v9.28c0,1.23-.36,2.2-1.09,2.91s-1.71,1.06-2.94,1.06c-.69,0-1.36-.15-2.01-.44s-1.16-.69-1.5-1.2l.84-.98c.7,.86,1.55,1.29,2.56,1.29,.79,0,1.41-.22,1.85-.67s.66-1.07,.66-1.88v-.82c-.65,.75-1.54,1.12-2.66,1.12s-2.01-.45-2.7-1.34-1.03-2.12-1.03-3.67Zm1.63,.18c0,1.07,.22,1.91,.66,2.53s1.05,.92,1.85,.92c1.03,0,1.78-.47,2.26-1.4v-4.34c-.5-.91-1.25-1.36-2.24-1.36-.79,0-1.41,.31-1.85,.92s-.67,1.53-.67,2.73Z"/><path class="cls-20" d="M581.93,30.24h-1.63v-13.5h1.63v13.5Z"/><path class="cls-20" d="M588.48,30.42c-1.29,0-2.34-.42-3.15-1.27s-1.21-1.98-1.21-3.4v-.3c0-.94,.18-1.79,.54-2.53s.86-1.32,1.51-1.74,1.35-.63,2.1-.63c1.24,0,2.2,.41,2.88,1.22s1.03,1.98,1.03,3.5v.68h-6.44c.02,.94,.3,1.69,.82,2.27s1.19,.87,2,.87c.57,0,1.06-.12,1.46-.35s.75-.54,1.05-.93l.99,.77c-.8,1.22-1.99,1.84-3.59,1.84Zm-.2-8.53c-.66,0-1.21,.24-1.65,.72s-.72,1.15-.83,2.01h4.76v-.12c-.05-.83-.27-1.47-.67-1.92s-.94-.68-1.62-.68Z"/><path class="cls-20" d="M606.56,25.59c0,1.45-.33,2.61-.99,3.5s-1.56,1.33-2.69,1.33-2.06-.37-2.72-1.1v4.58h-1.63v-13.17h1.49l.08,1.05c.66-.82,1.58-1.23,2.76-1.23s2.05,.43,2.71,1.29,1,2.06,1,3.59v.15Zm-1.63-.18c0-1.07-.23-1.92-.69-2.54s-1.08-.93-1.88-.93c-.98,0-1.72,.44-2.21,1.31v4.54c.49,.87,1.23,1.3,2.23,1.3,.78,0,1.4-.31,1.86-.93s.69-1.54,.69-2.76Z"/><path class="cls-20" d="M608.19,25.4c0-.93,.18-1.77,.55-2.51s.88-1.32,1.53-1.72,1.4-.61,2.24-.61c1.29,0,2.34,.45,3.14,1.34s1.2,2.09,1.2,3.58v.11c0,.93-.18,1.76-.53,2.49s-.86,1.31-1.52,1.72-1.42,.62-2.27,.62c-1.29,0-2.33-.45-3.13-1.34s-1.2-2.08-1.2-3.56v-.11Zm1.63,.19c0,1.05,.25,1.9,.73,2.54s1.14,.96,1.96,.96,1.48-.32,1.97-.97,.73-1.55,.73-2.72c0-1.04-.25-1.89-.74-2.54s-1.15-.97-1.97-.97-1.45,.32-1.94,.96-.74,1.55-.74,2.74Z"/><path class="cls-20" d="M620.65,30.24h-1.63v-13.5h1.63v13.5Z"/><path class="cls-20" d="M627.2,30.42c-1.29,0-2.34-.42-3.15-1.27s-1.21-1.98-1.21-3.4v-.3c0-.94,.18-1.79,.54-2.53s.86-1.32,1.51-1.74,1.35-.63,2.1-.63c1.24,0,2.2,.41,2.88,1.22s1.03,1.98,1.03,3.5v.68h-6.44c.02,.94,.3,1.69,.82,2.27s1.19,.87,2,.87c.57,0,1.06-.12,1.46-.35s.75-.54,1.05-.93l.99,.77c-.8,1.22-1.99,1.84-3.59,1.84Zm-.2-8.53c-.66,0-1.21,.24-1.65,.72s-.72,1.15-.83,2.01h4.76v-.12c-.05-.83-.27-1.47-.67-1.92s-.94-.68-1.62-.68Z"/><path class="cls-20" d="M636.85,25.41c0-1.46,.35-2.63,1.04-3.52s1.6-1.33,2.72-1.33,2,.38,2.65,1.14v-4.96h1.63v13.5h-1.49l-.08-1.02c-.65,.8-1.56,1.2-2.72,1.2s-2-.45-2.69-1.35-1.04-2.08-1.04-3.53v-.12Zm1.63,.18c0,1.08,.22,1.92,.67,2.53s1.06,.91,1.85,.91c1.03,0,1.78-.46,2.26-1.39v-4.37c-.49-.9-1.23-1.34-2.24-1.34-.8,0-1.42,.31-1.86,.92s-.67,1.53-.67,2.73Z"/><path class="cls-20" d="M646.97,25.4c0-.93,.18-1.77,.55-2.51s.88-1.32,1.53-1.72,1.4-.61,2.24-.61c1.29,0,2.34,.45,3.14,1.34s1.2,2.09,1.2,3.58v.11c0,.93-.18,1.76-.53,2.49s-.86,1.31-1.52,1.72-1.42,.62-2.27,.62c-1.29,0-2.33-.45-3.13-1.34s-1.2-2.08-1.2-3.56v-.11Zm1.63,.19c0,1.05,.25,1.9,.73,2.54s1.14,.96,1.96,.96,1.48-.32,1.97-.97,.73-1.55,.73-2.72c0-1.04-.25-1.89-.74-2.54s-1.15-.97-1.97-.97-1.45,.32-1.94,.96-.74,1.55-.74,2.74Z"/><path class="cls-20" d="M663.53,29.3c-.63,.74-1.56,1.12-2.79,1.12-1.01,0-1.79-.29-2.32-.88s-.8-1.46-.8-2.61v-6.19h1.63v6.14c0,1.44,.59,2.16,1.76,2.16,1.24,0,2.07-.46,2.48-1.39v-6.92h1.63v9.51h-1.55l-.04-.94Z"/><path class="cls-20" d="M675.64,25.59c0,1.45-.33,2.62-1,3.5s-1.56,1.32-2.69,1.32c-1.2,0-2.13-.42-2.79-1.27l-.08,1.1h-1.49v-13.5h1.63v5.04c.66-.81,1.56-1.22,2.72-1.22s2.06,.44,2.72,1.31,.99,2.07,.99,3.59v.14Zm-1.63-.18c0-1.11-.21-1.96-.64-2.57s-1.04-.91-1.85-.91c-1.07,0-1.84,.5-2.31,1.49v4.11c.5,1,1.27,1.49,2.33,1.49,.78,0,1.39-.3,1.82-.91s.65-1.51,.65-2.72Z"/><path class="cls-20" d="M679.45,30.24h-1.63v-13.5h1.63v13.5Z"/><path class="cls-20" d="M686,30.42c-1.29,0-2.34-.42-3.15-1.27s-1.21-1.98-1.21-3.4v-.3c0-.94,.18-1.79,.54-2.53s.86-1.32,1.51-1.74,1.35-.63,2.1-.63c1.24,0,2.2,.41,2.88,1.22s1.03,1.98,1.03,3.5v.68h-6.44c.02,.94,.3,1.69,.82,2.27s1.19,.87,2,.87c.57,0,1.06-.12,1.46-.35s.75-.54,1.05-.93l.99,.77c-.8,1.22-1.99,1.84-3.59,1.84Zm-.2-8.53c-.66,0-1.21,.24-1.65,.72s-.72,1.15-.83,2.01h4.76v-.12c-.05-.83-.27-1.47-.67-1.92s-.94-.68-1.62-.68Z"/><path class="cls-20" d="M698.25,18.43v2.3h1.78v1.26h-1.78v5.9c0,.38,.08,.67,.24,.86,.16,.19,.43,.29,.81,.29,.19,0,.45-.04,.77-.11v1.31c-.43,.12-.84,.17-1.25,.17-.73,0-1.27-.22-1.64-.66s-.55-1.06-.55-1.87v-5.9h-1.73v-1.26h1.73v-2.3h1.63Z"/><path class="cls-20" d="M703.55,21.88c.72-.88,1.66-1.33,2.81-1.33,2.01,0,3.02,1.13,3.04,3.4v6.28h-1.63v-6.29c0-.69-.16-1.19-.47-1.52s-.79-.49-1.44-.49c-.53,0-.99,.14-1.39,.42s-.71,.65-.93,1.11v6.78h-1.63v-13.5h1.63v5.14Z"/><path class="cls-20" d="M716.44,22.19c-.25-.04-.51-.06-.8-.06-1.07,0-1.79,.45-2.17,1.36v6.75h-1.63v-9.51h1.58l.03,1.1c.53-.85,1.29-1.27,2.27-1.27,.32,0,.56,.04,.72,.12v1.51Z"/><path class="cls-20" d="M717.32,25.4c0-.93,.18-1.77,.55-2.51s.88-1.32,1.53-1.72,1.4-.61,2.24-.61c1.29,0,2.34,.45,3.14,1.34s1.2,2.09,1.2,3.58v.11c0,.93-.18,1.76-.53,2.49s-.86,1.31-1.52,1.72-1.42,.62-2.27,.62c-1.29,0-2.33-.45-3.13-1.34s-1.2-2.08-1.2-3.56v-.11Zm1.63,.19c0,1.05,.25,1.9,.73,2.54s1.14,.96,1.96,.96,1.48-.32,1.97-.97,.73-1.55,.73-2.72c0-1.04-.25-1.89-.74-2.54s-1.15-.97-1.97-.97-1.45,.32-1.94,.96-.74,1.55-.74,2.74Z"/><path class="cls-20" d="M736.44,28l1.83-7.27h1.63l-2.77,9.51h-1.32l-2.31-7.21-2.25,7.21h-1.32l-2.76-9.51h1.62l1.87,7.12,2.21-7.12h1.31l2.26,7.27Z"/><path class="cls-20" d="M745.94,25.05c0-1.32,.18-2.6,.53-3.81s.88-2.33,1.59-3.32,1.43-1.7,2.19-2.11l.33,1.07c-.86,.66-1.56,1.66-2.1,3.01s-.85,2.86-.9,4.53v.75c0,2.26,.4,4.22,1.23,5.89,.5,1,1.09,1.78,1.78,2.34l-.33,.99c-.78-.43-1.52-1.16-2.23-2.18-1.38-1.99-2.07-4.37-2.07-7.15Z"/><path class="cls-20" d="M756.18,24.54c-1.45-.42-2.5-.93-3.16-1.53s-.99-1.35-.99-2.25c0-1.01,.4-1.84,1.21-2.5s1.85-.99,3.14-.99c.88,0,1.66,.17,2.35,.51s1.22,.81,1.6,1.41,.57,1.25,.57,1.96h-1.7c0-.78-.25-1.39-.74-1.83s-1.19-.67-2.08-.67c-.83,0-1.48,.18-1.95,.55-.47,.37-.7,.88-.7,1.53,0,.52,.22,.96,.66,1.33s1.2,.69,2.26,.99,1.9,.63,2.5,.99,1.05,.78,1.34,1.26,.43,1.05,.43,1.7c0,1.04-.4,1.87-1.21,2.49s-1.89,.94-3.24,.94c-.88,0-1.7-.17-2.46-.51s-1.35-.8-1.76-1.38-.62-1.25-.62-2h1.7c0,.77,.29,1.38,.86,1.83s1.33,.67,2.29,.67c.89,0,1.57-.18,2.05-.54s.71-.86,.71-1.49-.22-1.11-.66-1.45-1.24-.68-2.39-1.02Z"/><path class="cls-20" d="M764.78,25.23v5.01h-1.69v-12.8h4.72c1.4,0,2.5,.36,3.29,1.07s1.19,1.66,1.19,2.84c0,1.24-.39,2.2-1.16,2.87s-1.89,1.01-3.34,1.01h-3.01Zm0-1.38h3.03c.9,0,1.59-.21,2.07-.64,.48-.43,.72-1.04,.72-1.84s-.24-1.37-.72-1.83c-.48-.46-1.14-.7-1.98-.71h-3.13v5.03Z"/><path class="cls-20" d="M774.44,30.24v-12.8h3.61c1.11,0,2.1,.25,2.95,.74s1.52,1.19,1.98,2.1,.7,1.95,.71,3.13v.82c0,1.21-.23,2.26-.7,3.17s-1.13,1.61-2,2.09-1.87,.74-3.02,.75h-3.54Zm1.69-11.42v10.04h1.78c1.3,0,2.31-.4,3.04-1.21s1.08-1.96,1.08-3.46v-.75c0-1.45-.34-2.58-1.02-3.39-.68-.81-1.65-1.22-2.91-1.23h-1.97Z"/><path class="cls-20" d="M794.85,18.82h-4.11v11.42h-1.68v-11.42h-4.1v-1.38h9.9v1.38Z"/><path class="cls-20" d="M800.25,25.13c0,1.31-.17,2.56-.51,3.76s-.87,2.3-1.57,3.32-1.45,1.73-2.22,2.16l-.34-.99c.9-.69,1.63-1.77,2.18-3.22s.83-3.07,.84-4.85v-.28c0-1.23-.13-2.37-.39-3.43s-.62-2.01-1.08-2.84-.98-1.49-1.55-1.96l.34-.99c.77,.43,1.51,1.14,2.21,2.14s1.22,2.11,1.57,3.31,.52,2.5,.52,3.88Z"/><path class="cls-20" d="M813.08,30.24c-.09-.19-.17-.52-.23-1-.76,.79-1.66,1.18-2.71,1.18-.94,0-1.71-.27-2.31-.8s-.9-1.2-.9-2.02c0-.99,.38-1.76,1.13-2.31s1.81-.82,3.18-.82h1.58v-.75c0-.57-.17-1.02-.51-1.36s-.84-.51-1.5-.51c-.58,0-1.07,.15-1.46,.44s-.59,.65-.59,1.06h-1.63c0-.47,.17-.93,.51-1.38s.79-.79,1.37-1.05,1.21-.39,1.9-.39c1.1,0,1.95,.27,2.58,.82s.94,1.3,.97,2.26v4.38c0,.87,.11,1.57,.33,2.08v.14h-1.71Zm-2.7-1.24c.51,0,.99-.13,1.45-.4s.79-.61,.99-1.03v-1.95h-1.27c-1.99,0-2.99,.58-2.99,1.75,0,.51,.17,.91,.51,1.2s.78,.43,1.31,.43Z"/><path class="cls-20" d="M818.54,20.73l.05,1.2c.73-.91,1.68-1.37,2.85-1.37,2.01,0,3.02,1.13,3.04,3.4v6.28h-1.63v-6.29c0-.69-.16-1.19-.47-1.52s-.79-.49-1.44-.49c-.53,0-.99,.14-1.39,.42s-.71,.65-.93,1.11v6.78h-1.63v-9.51h1.54Z"/><path class="cls-20" d="M832.8,30.24c-.09-.19-.17-.52-.23-1-.76,.79-1.66,1.18-2.71,1.18-.94,0-1.71-.27-2.31-.8s-.9-1.2-.9-2.02c0-.99,.38-1.76,1.13-2.31s1.81-.82,3.18-.82h1.58v-.75c0-.57-.17-1.02-.51-1.36s-.84-.51-1.5-.51c-.58,0-1.07,.15-1.46,.44s-.59,.65-.59,1.06h-1.63c0-.47,.17-.93,.51-1.38s.79-.79,1.37-1.05,1.21-.39,1.9-.39c1.1,0,1.95,.27,2.58,.82s.94,1.3,.97,2.26v4.38c0,.87,.11,1.57,.33,2.08v.14h-1.71Zm-2.7-1.24c.51,0,.99-.13,1.45-.4s.79-.61,.99-1.03v-1.95h-1.27c-1.99,0-2.99,.58-2.99,1.75,0,.51,.17,.91,.51,1.2s.78,.43,1.31,.43Z"/><path class="cls-20" d="M838.49,30.24h-1.63v-13.5h1.63v13.5Z"/><path class="cls-20" d="M840.66,25.4c0-.93,.18-1.77,.55-2.51s.88-1.32,1.53-1.72,1.4-.61,2.24-.61c1.29,0,2.34,.45,3.14,1.34s1.2,2.09,1.2,3.58v.11c0,.93-.18,1.76-.53,2.49s-.86,1.31-1.52,1.72-1.42,.62-2.27,.62c-1.29,0-2.33-.45-3.13-1.34s-1.2-2.08-1.2-3.56v-.11Zm1.63,.19c0,1.05,.25,1.9,.73,2.54s1.14,.96,1.96,.96,1.48-.32,1.97-.97,.73-1.55,.73-2.72c0-1.04-.25-1.89-.74-2.54s-1.15-.97-1.97-.97-1.45,.32-1.94,.96-.74,1.55-.74,2.74Z"/><path class="cls-20" d="M850.97,25.41c0-1.48,.34-2.66,1.03-3.54s1.59-1.31,2.72-1.31,2.07,.41,2.72,1.23l.08-1.05h1.49v9.28c0,1.23-.36,2.2-1.09,2.91s-1.71,1.06-2.94,1.06c-.69,0-1.36-.15-2.01-.44s-1.16-.69-1.5-1.2l.84-.98c.7,.86,1.55,1.29,2.56,1.29,.79,0,1.41-.22,1.85-.67s.66-1.07,.66-1.88v-.82c-.65,.75-1.54,1.12-2.66,1.12s-2.01-.45-2.7-1.34-1.03-2.12-1.03-3.67Zm1.63,.18c0,1.07,.22,1.91,.66,2.53s1.05,.92,1.85,.92c1.03,0,1.78-.47,2.26-1.4v-4.34c-.5-.91-1.25-1.36-2.24-1.36-.79,0-1.41,.31-1.85,.92s-.67,1.53-.67,2.73Z"/><path class="cls-20" d="M871.45,27.72c0-.44-.17-.78-.5-1.02s-.91-.45-1.73-.63-1.48-.39-1.96-.63-.84-.54-1.07-.88-.35-.74-.35-1.21c0-.78,.33-1.44,.99-1.98s1.5-.81,2.53-.81c1.08,0,1.95,.28,2.62,.83s1.01,1.27,1.01,2.14h-1.63c0-.45-.19-.83-.57-1.15s-.85-.48-1.43-.48-1.05,.13-1.39,.39-.5,.59-.5,1.01c0,.39,.16,.69,.47,.89s.87,.39,1.68,.57,1.47,.4,1.97,.65,.88,.56,1.12,.91,.36,.79,.36,1.3c0,.85-.34,1.53-1.02,2.04s-1.56,.77-2.65,.77c-.76,0-1.44-.13-2.02-.4s-1.04-.65-1.38-1.13-.5-1.01-.5-1.57h1.63c.03,.54,.25,.98,.66,1.3s.94,.48,1.61,.48c.62,0,1.11-.12,1.48-.37s.56-.58,.56-1Z"/><path class="cls-20" d="M883.61,28l1.83-7.27h1.63l-2.77,9.51h-1.32l-2.31-7.21-2.25,7.21h-1.32l-2.76-9.51h1.62l1.87,7.12,2.21-7.12h1.31l2.26,7.27Z"/><path class="cls-20" d="M888.73,18.21c0-.26,.08-.49,.24-.67s.4-.27,.72-.27,.56,.09,.72,.27,.25,.4,.25,.67-.08,.48-.25,.66-.4,.26-.72,.26-.56-.09-.72-.26-.24-.4-.24-.66Zm1.76,12.03h-1.63v-9.51h1.63v9.51Z"/><path class="cls-20" d="M895.29,18.43v2.3h1.78v1.26h-1.78v5.9c0,.38,.08,.67,.24,.86,.16,.19,.43,.29,.81,.29,.19,0,.45-.04,.77-.11v1.31c-.43,.12-.84,.17-1.25,.17-.73,0-1.27-.22-1.64-.66s-.55-1.06-.55-1.87v-5.9h-1.73v-1.26h1.73v-2.3h1.63Z"/><path class="cls-20" d="M902.78,29.09c.58,0,1.09-.18,1.52-.53s.67-.79,.72-1.32h1.54c-.03,.54-.22,1.06-.56,1.56s-.81,.88-1.38,1.18-1.19,.44-1.83,.44c-1.29,0-2.32-.43-3.09-1.3-.76-.86-1.15-2.05-1.15-3.55v-.27c0-.93,.17-1.75,.51-2.47s.83-1.28,1.46-1.68,1.39-.6,2.25-.6c1.07,0,1.95,.32,2.66,.96,.71,.64,1.08,1.47,1.13,2.49h-1.54c-.05-.62-.28-1.12-.7-1.52-.42-.4-.94-.59-1.55-.59-.83,0-1.47,.3-1.92,.89s-.68,1.45-.68,2.58v.31c0,1.1,.23,1.94,.68,2.53s1.1,.89,1.93,.89Z"/><path class="cls-20" d="M910.02,21.88c.72-.88,1.66-1.33,2.81-1.33,2.01,0,3.02,1.13,3.04,3.4v6.28h-1.63v-6.29c0-.69-.16-1.19-.47-1.52-.31-.33-.79-.49-1.44-.49-.53,0-.99,.14-1.39,.42s-.71,.65-.93,1.11v6.78h-1.63v-13.5h1.63v5.14Z"/></g><path class="cls-20" d="M85.91,370.77v1.38h-.3c-1.27,.02-2.27,.4-3.02,1.12s-1.18,1.75-1.3,3.07c.67-.77,1.59-1.16,2.76-1.16s2,.39,2.67,1.18,1,1.8,1,3.04c0,1.32-.36,2.37-1.08,3.16s-1.68,1.19-2.89,1.19-2.22-.47-2.98-1.41-1.14-2.15-1.14-3.63v-.62c0-2.36,.5-4.16,1.51-5.4s2.5-1.88,4.49-1.91h.29Zm-2.14,5.77c-.56,0-1.07,.17-1.54,.5s-.79,.75-.98,1.26v.6c0,1.05,.24,1.9,.71,2.55s1.07,.97,1.78,.97,1.31-.27,1.73-.81,.63-1.25,.63-2.12-.21-1.59-.64-2.13-.99-.81-1.69-.81Z"/></g></svg>