<?xml version="1.0" encoding="UTF-8"?><svg xmlns="http://www.w3.org/2000/svg" viewBox="0 0 1080 600.48"><defs><style>.cls-1{stroke-width:3px;}.cls-1,.cls-2,.cls-3,.cls-4,.cls-5,.cls-6,.cls-7,.cls-8{fill:none;stroke:#cad2d9;stroke-miterlimit:10;}.cls-9{fill:#cad2d9;}.cls-2{stroke-width:1.67px;}.cls-3{stroke-width:1.26px;}.cls-4{stroke-width:.72px;}.cls-5{stroke-width:1.03px;}.cls-6{stroke-width:2px;}.cls-10{fill:#1d1e1b;opacity:.5;}.cls-8{stroke-width:1px;}</style></defs><g id="Line"><line class="cls-1" x1="97.92" y1="57.6" x2="198.72" y2="57.6"/><line class="cls-1" x1="227.52" y1="57.6" x2="328.32" y2="57.6"/><path class="cls-1" d="M227.52,57.6c0,7.95-6.45,14.4-14.4,14.4s-14.4-6.45-14.4-14.4"/><rect class="cls-7" x="69.12" y="86.4" width="28.8" height="28.8"/><rect class="cls-7" x="69.12" y="144" width="28.8" height="28.8"/><rect class="cls-7" x="69.12" y="201.6" width="28.8" height="28.8"/><line class="cls-1" x1="97.92" y1="57.6" x2="97.92" y2="548.64"/><line class="cls-1" x1="97.92" y1="547.2" x2="328.32" y2="547.2"/><line class="cls-1" x1="328.32" y1="57.6" x2="328.32" y2="548.64"/><rect class="cls-7" x="69.12" y="259.2" width="28.8" height="28.8"/><rect class="cls-7" x="69.12" y="316.8" width="28.8" height="28.8"/><rect class="cls-7" x="69.12" y="374.4" width="28.8" height="28.8"/><rect class="cls-7" x="69.12" y="432" width="28.8" height="28.8"/><rect class="cls-7" x="328.32" y="201.6" width="28.8" height="28.8"/><rect class="cls-7" x="328.32" y="259.2" width="28.8" height="28.8"/><rect class="cls-7" x="328.32" y="316.8" width="28.8" height="28.8"/><rect class="cls-7" x="328.32" y="374.4" width="28.8" height="28.8"/><rect class="cls-7" x="328.32" y="432" width="28.8" height="28.8"/><rect class="cls-7" x="328.32" y="489.6" width="28.8" height="28.8"/><rect class="cls-7" x="69.12" y="489.6" width="28.8" height="28.8"/><rect class="cls-7" x="328.32" y="144" width="28.8" height="28.8"/><rect class="cls-7" x="328.32" y="86.4" width="28.8" height="28.8"/><line class="cls-7" x1="849.6" y1="319.68" x2="849.6" y2="247.68"/><line class="cls-3" x1="914.4" y1="290.88" x2="914.4" y2="247.68"/><rect class="cls-6" x="878.4" y="315.36" width="72" height="23.04" transform="translate(587.52 1241.28) rotate(-90)"/><line class="cls-7" x1="849.6" y1="332.64" x2="849.6" y2="391.68"/><line class="cls-3" x1="979.2" y1="290.88" x2="979.2" y2="247.68"/><rect class="cls-6" x="943.2" y="315.36" width="72" height="23.04" transform="translate(652.32 1306.08) rotate(-90)"/><line class="cls-7" x1="979.2" y1="391.68" x2="849.6" y2="391.68"/><line class="cls-5" x1="914.4" y1="391.68" x2="914.4" y2="362.88"/><line class="cls-5" x1="979.2" y1="391.68" x2="979.2" y2="362.88"/><line class="cls-6" x1="835.2" y1="151.2" x2="835.2" y2="247.68"/><line class="cls-6" x1="1006.56" y1="247.68" x2="835.2" y2="247.68"/><rect class="cls-2" x="528.48" y="119.52" width="138.24" height="352.8"/><g><line class="cls-4" x1="666.72" y1="133.92" x2="711.62" y2="133.92"/><polygon class="cls-9" points="708.02 138.36 707.28 137.57 711.2 133.92 707.28 130.27 708.02 129.48 712.8 133.92 708.02 138.36"/></g><g><line class="cls-4" x1="666.72" y1="169.92" x2="711.62" y2="169.92"/><polygon class="cls-9" points="708.02 174.36 707.28 173.57 711.2 169.92 707.28 166.27 708.02 165.48 712.8 169.92 708.02 174.36"/></g><g><line class="cls-4" x1="666.72" y1="205.92" x2="711.62" y2="205.92"/><polygon class="cls-9" points="708.02 210.36 707.28 209.57 711.2 205.92 707.28 202.27 708.02 201.48 712.8 205.92 708.02 210.36"/></g><g><line class="cls-4" x1="666.72" y1="241.92" x2="711.62" y2="241.92"/><polygon class="cls-9" points="708.02 246.36 707.28 245.57 711.2 241.92 707.28 238.27 708.02 237.48 712.8 241.92 708.02 246.36"/></g><g><line class="cls-4" x1="666.72" y1="277.92" x2="711.62" y2="277.92"/><polygon class="cls-9" points="708.02 282.36 707.28 281.57 711.2 277.92 707.28 274.27 708.02 273.48 712.8 277.92 708.02 282.36"/></g><g><line class="cls-4" x1="666.72" y1="313.92" x2="711.62" y2="313.92"/><polygon class="cls-9" points="708.02 318.36 707.28 317.57 711.2 313.92 707.28 310.27 708.02 309.48 712.8 313.92 708.02 318.36"/></g><g><line class="cls-4" x1="666.72" y1="349.92" x2="711.62" y2="349.92"/><polygon class="cls-9" points="708.02 354.36 707.28 353.57 711.2 349.92 707.28 346.27 708.02 345.48 712.8 349.92 708.02 354.36"/></g><g><line class="cls-4" x1="666.72" y1="385.92" x2="711.62" y2="385.92"/><polygon class="cls-9" points="708.02 390.36 707.28 389.57 711.2 385.92 707.28 382.27 708.02 381.48 712.8 385.92 708.02 390.36"/></g><g><line class="cls-7" x1="489.6" y1="205.92" x2="526.48" y2="205.92"/><polygon class="cls-9" points="521.51 212.06 520.49 210.96 525.9 205.92 520.49 200.89 521.51 199.79 528.11 205.92 521.51 212.06"/></g><g><line class="cls-7" x1="597.6" y1="119.52" x2="597.6" y2="74.8"/><polygon class="cls-9" points="602.37 83.67 600.96 84.18 597.6 74.95 594.24 84.18 592.83 83.67 597.6 70.56 602.37 83.67"/></g><line class="cls-7" x1="597.6" y1="472.32" x2="597.6" y2="515.52"/><g><line class="cls-4" x1="666.72" y1="421.92" x2="711.62" y2="421.92"/><polygon class="cls-9" points="708.02 426.36 707.28 425.57 711.2 421.92 707.28 418.27 708.02 417.48 712.8 421.92 708.02 426.36"/></g><g><line class="cls-4" x1="666.72" y1="457.92" x2="711.62" y2="457.92"/><polygon class="cls-9" points="708.02 462.36 707.28 461.57 711.2 457.92 707.28 454.27 708.02 453.48 712.8 457.92 708.02 462.36"/></g><g><line class="cls-7" x1="529.92" y1="385.92" x2="493.04" y2="385.92"/><polygon class="cls-9" points="498.01 379.79 499.03 380.88 493.61 385.92 499.03 390.96 498.01 392.05 491.41 385.92 498.01 379.79"/></g><g><line class="cls-7" x1="529.92" y1="457.92" x2="493.04" y2="457.92"/><polygon class="cls-9" points="498.01 451.79 499.03 452.88 493.61 457.92 499.03 462.96 498.01 464.05 491.41 457.92 498.01 451.79"/></g><polygon class="cls-8" points="597.6 515.52 612 515.52 604.8 524.16 597.6 532.8 590.4 524.16 583.2 515.52 597.6 515.52"/><line class="cls-7" x1="874.28" y1="469.44" x2="898.76" y2="469.44"/><line class="cls-7" x1="924.68" y1="469.44" x2="1016.64" y2="469.44"/><g><line class="cls-7" x1="489.6" y1="144" x2="526.48" y2="144"/><polygon class="cls-9" points="521.51 150.13 520.49 149.04 525.9 144 520.49 138.97 521.51 137.87 528.11 144 521.51 150.13"/></g></g><g id="Field"><circle class="cls-9" cx="914.4" cy="391.68" r="2.88"/><rect class="cls-9" x="819.36" y="329.76" width="60.48" height="7.2" transform="translate(1699.2 666.72) rotate(-180)"/><rect class="cls-9" x="819.36" y="316.8" width="60.48" height="7.2" transform="translate(1699.2 640.8) rotate(-180)"/><rect class="cls-10" x="835.2" y="151.2" width="171.36" height="96.48"/></g><g id="TEXT_Vector"><path class="cls-9" d="M84.87,107.22h-1.63v-10.84l-3.28,1.2v-1.48l4.66-1.75h.25v12.86Z"/><path class="cls-9" d="M87.91,164.82h-8.38v-1.17l4.43-4.92c.66-.74,1.11-1.35,1.36-1.81s.37-.95,.37-1.45c0-.67-.2-1.22-.61-1.64s-.94-.64-1.62-.64c-.81,0-1.44,.23-1.89,.69s-.67,1.1-.67,1.92h-1.63c0-1.18,.38-2.13,1.14-2.86s1.77-1.09,3.05-1.09c1.19,0,2.13,.31,2.82,.94s1.04,1.45,1.04,2.49c0,1.26-.8,2.76-2.41,4.5l-3.43,3.72h6.42v1.33Z"/><path class="cls-9" d="M81.89,215.23h1.22c.77-.01,1.37-.21,1.81-.61s.66-.92,.66-1.59c0-1.5-.75-2.25-2.24-2.25-.7,0-1.26,.2-1.68,.6s-.63,.93-.63,1.6h-1.63c0-1.01,.37-1.86,1.11-2.53s1.68-1.01,2.83-1.01c1.21,0,2.15,.32,2.84,.96s1.03,1.53,1.03,2.66c0,.56-.18,1.1-.54,1.62s-.85,.91-1.47,1.17c.7,.22,1.25,.59,1.63,1.11s.58,1.15,.58,1.89c0,1.15-.38,2.06-1.12,2.73s-1.73,1.01-2.93,1.01-2.18-.33-2.93-.98-1.13-1.51-1.13-2.58h1.63c0,.67,.22,1.21,.66,1.62s1.03,.61,1.77,.61c.79,0,1.39-.21,1.8-.62s.62-1,.62-1.77-.23-1.32-.69-1.71-1.12-.6-1.98-.62h-1.22v-1.33Z"/><path class="cls-9" d="M86.39,275.73h1.78v1.33h-1.78v2.97h-1.63v-2.97h-5.83v-.96l5.73-8.87h1.73v8.5Zm-5.62,0h3.98v-6.28l-.19,.35-3.79,5.92Z"/><path class="cls-9" d="M80.28,331.21l.65-6.38h6.56v1.5h-5.18l-.39,3.49c.63-.37,1.34-.55,2.14-.55,1.17,0,2.09,.38,2.78,1.16s1.03,1.81,1.03,3.12-.36,2.36-1.07,3.12-1.71,1.14-2.98,1.14c-1.13,0-2.05-.31-2.77-.94s-1.12-1.49-1.22-2.6h1.54c.1,.73,.36,1.28,.78,1.66s.98,.56,1.67,.56c.76,0,1.35-.26,1.78-.77s.65-1.23,.65-2.14c0-.86-.23-1.54-.7-2.06s-1.09-.78-1.86-.78c-.71,0-1.27,.16-1.67,.47l-.43,.35-1.3-.33Z"/><path class="cls-9" d="M85.91,382.42v1.38h-.3c-1.27,.02-2.27,.4-3.02,1.12s-1.18,1.75-1.3,3.07c.67-.77,1.59-1.16,2.76-1.16s2,.39,2.67,1.18,1,1.8,1,3.04c0,1.32-.36,2.37-1.08,3.16s-1.68,1.19-2.89,1.19-2.22-.47-2.98-1.41-1.14-2.15-1.14-3.63v-.62c0-2.36,.5-4.16,1.51-5.4s2.5-1.88,4.49-1.91h.29Zm-2.14,5.77c-.56,0-1.07,.17-1.54,.5s-.79,.75-.98,1.26v.6c0,1.05,.24,1.9,.71,2.55s1.07,.97,1.78,.97,1.31-.27,1.73-.81,.63-1.25,.63-2.12-.21-1.59-.64-2.13-.99-.81-1.69-.81Z"/><path class="cls-9" d="M87.79,440.94l-5.3,11.88h-1.71l5.28-11.46h-6.93v-1.34h8.65v.91Z"/><g><path class="cls-9" d="M338.3,222.42h-1.63v-10.84l-3.28,1.2v-1.48l4.66-1.75h.25v12.86Z"/><path class="cls-9" d="M349.93,218.13h1.78v1.33h-1.78v2.97h-1.63v-2.97h-5.83v-.96l5.73-8.87h1.73v8.5Zm-5.62,0h3.98v-6.28l-.19,.35-3.79,5.92Z"/></g><g><path class="cls-9" d="M338.3,280.02h-1.63v-10.84l-3.28,1.2v-1.48l4.66-1.75h.25v12.86Z"/><path class="cls-9" d="M345.43,272.83h1.22c.77-.01,1.37-.21,1.81-.61s.66-.92,.66-1.59c0-1.5-.75-2.25-2.24-2.25-.7,0-1.26,.2-1.68,.6s-.63,.93-.63,1.59h-1.63c0-1.01,.37-1.86,1.11-2.53s1.68-1.01,2.83-1.01c1.21,0,2.15,.32,2.84,.96s1.03,1.53,1.03,2.66c0,.56-.18,1.1-.54,1.62s-.85,.91-1.47,1.17c.7,.22,1.25,.59,1.63,1.11s.58,1.15,.58,1.89c0,1.15-.38,2.06-1.12,2.73s-1.73,1.01-2.93,1.01-2.18-.33-2.93-.98-1.13-1.51-1.13-2.58h1.63c0,.67,.22,1.21,.66,1.62s1.03,.61,1.77,.61c.79,0,1.39-.21,1.8-.62s.62-1,.62-1.77-.23-1.32-.69-1.71-1.12-.6-1.98-.62h-1.22v-1.33Z"/></g><g><path class="cls-9" d="M338.3,337.62h-1.63v-10.84l-3.28,1.2v-1.48l4.66-1.75h.25v12.86Z"/><path class="cls-9" d="M351.45,337.62h-8.38v-1.17l4.43-4.92c.66-.74,1.11-1.35,1.36-1.81s.37-.95,.37-1.45c0-.67-.2-1.22-.61-1.64s-.94-.64-1.62-.64c-.81,0-1.44,.23-1.89,.69s-.67,1.1-.67,1.92h-1.63c0-1.18,.38-2.13,1.14-2.86s1.77-1.09,3.05-1.09c1.19,0,2.13,.31,2.82,.94s1.04,1.45,1.04,2.49c0,1.26-.8,2.76-2.41,4.5l-3.43,3.72h6.42v1.33Z"/></g><g><path class="cls-9" d="M338.3,395.22h-1.63v-10.84l-3.28,1.2v-1.48l4.66-1.75h.25v12.86Z"/><path class="cls-9" d="M348.41,395.22h-1.63v-10.84l-3.28,1.2v-1.48l4.66-1.75h.25v12.86Z"/></g><g><path class="cls-9" d="M339.74,452.82h-1.63v-10.84l-3.28,1.2v-1.48l4.66-1.75h.25v12.86Z"/><path class="cls-9" d="M352.53,447.37c0,1.9-.33,3.32-.98,4.25s-1.67,1.39-3.05,1.39-2.38-.45-3.03-1.36-1-2.26-1.02-4.06v-2.17c0-1.88,.33-3.28,.98-4.19s1.67-1.37,3.06-1.37,2.39,.44,3.04,1.32,.98,2.24,1,4.08v2.11Zm-1.63-2.22c0-1.38-.19-2.38-.58-3.01s-1-.94-1.84-.94-1.44,.31-1.82,.94-.58,1.59-.59,2.89v2.6c0,1.38,.2,2.4,.6,3.06s1.01,.99,1.82,.99,1.4-.31,1.79-.93,.59-1.6,.61-2.94v-2.66Z"/></g><path class="cls-9" d="M344.96,504.8c-.34,.4-.75,.73-1.22,.98s-.99,.37-1.55,.37c-.74,0-1.38-.18-1.93-.54s-.97-.87-1.27-1.53-.45-1.39-.45-2.18c0-.86,.16-1.63,.49-2.31s.79-1.21,1.38-1.57,1.29-.54,2.09-.54c1.27,0,2.26,.47,2.99,1.42s1.09,2.24,1.09,3.87v.47c0,2.49-.49,4.31-1.48,5.45s-2.47,1.73-4.46,1.76h-.32v-1.38h.34c1.34-.02,2.37-.37,3.09-1.05s1.11-1.74,1.18-3.21Zm-2.5,0c.54,0,1.05-.17,1.51-.5s.8-.75,1.01-1.24v-.65c0-1.07-.23-1.93-.69-2.6s-1.05-1-1.76-1-1.29,.27-1.72,.82-.65,1.27-.65,2.17,.21,1.59,.63,2.16,.98,.85,1.68,.85Z"/><g><path class="cls-9" d="M113.72,508.18l3.66-10.56h1.85l-4.75,12.8h-1.49l-4.74-12.8h1.84l3.64,10.56Z"/><path class="cls-9" d="M122.96,506.62c-.96-.28-1.67-.62-2.11-1.02s-.66-.9-.66-1.5c0-.67,.27-1.23,.81-1.67s1.24-.66,2.09-.66c.59,0,1.11,.11,1.57,.34s.81,.54,1.07,.94,.38,.83,.38,1.31h-1.13c0-.52-.16-.92-.49-1.22s-.79-.44-1.39-.44c-.55,0-.99,.12-1.3,.37-.31,.24-.47,.58-.47,1.02,0,.35,.15,.64,.44,.88,.29,.24,.8,.46,1.51,.66,.71,.2,1.26,.42,1.66,.66s.7,.52,.89,.84,.29,.7,.29,1.13c0,.69-.27,1.25-.81,1.66s-1.26,.62-2.16,.62c-.59,0-1.13-.11-1.64-.34s-.9-.53-1.17-.92-.41-.83-.41-1.33h1.13c0,.52,.19,.92,.57,1.22s.89,.45,1.53,.45c.59,0,1.05-.12,1.37-.36s.47-.57,.47-.99-.15-.74-.44-.97-.82-.45-1.59-.68Z"/><path class="cls-9" d="M130.07,506.62c-.96-.28-1.67-.62-2.11-1.02s-.66-.9-.66-1.5c0-.67,.27-1.23,.81-1.67s1.24-.66,2.09-.66c.59,0,1.11,.11,1.57,.34s.81,.54,1.07,.94,.38,.83,.38,1.31h-1.13c0-.52-.16-.92-.49-1.22s-.79-.44-1.39-.44c-.55,0-.99,.12-1.3,.37-.31,.24-.47,.58-.47,1.02,0,.35,.15,.64,.44,.88,.29,.24,.8,.46,1.51,.66,.71,.2,1.26,.42,1.66,.66s.7,.52,.89,.84,.29,.7,.29,1.13c0,.69-.27,1.25-.81,1.66s-1.26,.62-2.16,.62c-.59,0-1.13-.11-1.64-.34s-.9-.53-1.17-.92-.41-.83-.41-1.33h1.13c0,.52,.19,.92,.57,1.22s.89,.45,1.53,.45c.59,0,1.05-.12,1.37-.36s.47-.57,.47-.99-.15-.74-.44-.97-.82-.45-1.59-.68Z"/></g><g><path class="cls-9" d="M292.45,104.98l3.66-10.56h1.85l-4.75,12.8h-1.49l-4.74-12.8h1.84l3.64,10.56Z"/><path class="cls-9" d="M299.17,107.22v-8.53h2.41c.74,0,1.4,.16,1.97,.49s1.01,.79,1.32,1.4,.47,1.3,.47,2.09v.54c0,.8-.16,1.51-.47,2.12s-.75,1.07-1.33,1.39-1.25,.49-2.01,.5h-2.36Zm1.12-7.61v6.69h1.18c.87,0,1.54-.27,2.02-.81,.48-.54,.72-1.31,.72-2.3v-.5c0-.97-.23-1.72-.68-2.26-.46-.54-1.1-.81-1.94-.82h-1.31Z"/><path class="cls-9" d="M307.04,107.22v-8.53h2.41c.74,0,1.4,.16,1.97,.49s1.01,.79,1.32,1.4,.47,1.3,.47,2.09v.54c0,.8-.16,1.51-.47,2.12s-.75,1.07-1.33,1.39-1.25,.49-2.01,.5h-2.36Zm1.12-7.61v6.69h1.18c.87,0,1.54-.27,2.02-.81,.48-.54,.72-1.31,.72-2.3v-.5c0-.97-.23-1.72-.68-2.26-.46-.54-1.1-.81-1.94-.82h-1.31Z"/></g><g><path class="cls-9" d="M194.2,566.18c-.16,1.35-.66,2.4-1.5,3.13s-1.96,1.1-3.35,1.1c-1.51,0-2.72-.54-3.63-1.63s-1.37-2.53-1.37-4.35v-1.23c0-1.19,.21-2.24,.64-3.14s1.03-1.59,1.81-2.08,1.68-.73,2.71-.73c1.36,0,2.45,.38,3.27,1.14s1.3,1.81,1.43,3.15h-1.7c-.15-1.02-.46-1.76-.95-2.22-.49-.46-1.17-.69-2.05-.69-1.08,0-1.92,.4-2.54,1.2-.61,.8-.92,1.93-.92,3.4v1.24c0,1.39,.29,2.5,.87,3.32,.58,.82,1.39,1.23,2.43,1.23,.94,0,1.66-.21,2.16-.64s.83-1.17,1-2.22h1.7Z"/><path class="cls-9" d="M196.5,570.24v-12.8h3.61c1.11,0,2.1,.25,2.95,.74s1.52,1.19,1.98,2.1,.7,1.95,.71,3.13v.82c0,1.21-.23,2.26-.7,3.17s-1.13,1.61-2,2.09-1.87,.74-3.02,.75h-3.54Zm1.69-11.42v10.04h1.78c1.3,0,2.31-.4,3.04-1.21,.72-.81,1.09-1.96,1.09-3.46v-.75c0-1.45-.34-2.58-1.02-3.39s-1.65-1.22-2.9-1.23h-1.97Z"/><path class="cls-9" d="M214.75,565.94h1.78v1.33h-1.78v2.97h-1.63v-2.97h-5.83v-.96l5.73-8.87h1.73v8.5Zm-5.62,0h3.98v-6.28l-.19,.35-3.79,5.92Z"/><path class="cls-9" d="M226.01,564.78c0,1.9-.33,3.32-.98,4.25s-1.67,1.39-3.05,1.39-2.38-.45-3.03-1.36-1-2.26-1.02-4.06v-2.17c0-1.88,.33-3.28,.98-4.19s1.67-1.37,3.06-1.37,2.39,.44,3.04,1.32,.98,2.24,1,4.08v2.11Zm-1.63-2.22c0-1.38-.19-2.38-.58-3.01s-1-.95-1.84-.95-1.44,.31-1.82,.94-.58,1.59-.59,2.89v2.6c0,1.38,.2,2.4,.6,3.06s1.01,.99,1.82,.99,1.4-.31,1.79-.93,.59-1.6,.61-2.94v-2.66Z"/><path class="cls-9" d="M234.48,557.43v1.38h-.3c-1.27,.02-2.27,.4-3.02,1.12s-1.18,1.75-1.3,3.07c.67-.77,1.59-1.16,2.76-1.16s2,.39,2.67,1.18,1,1.8,1,3.04c0,1.32-.36,2.37-1.08,3.16s-1.68,1.19-2.89,1.19-2.22-.47-2.98-1.41-1.14-2.15-1.14-3.63v-.62c0-2.36,.5-4.16,1.51-5.4s2.5-1.88,4.49-1.91h.29Zm-2.14,5.77c-.56,0-1.07,.17-1.54,.5s-.79,.75-.98,1.26v.6c0,1.05,.24,1.9,.71,2.55s1.07,.97,1.78,.97,1.31-.27,1.73-.81,.63-1.25,.63-2.12-.21-1.59-.64-2.13-.99-.81-1.69-.81Z"/><path class="cls-9" d="M246.23,564.78c0,1.9-.33,3.32-.98,4.25s-1.67,1.39-3.05,1.39-2.38-.45-3.03-1.36-1-2.26-1.02-4.06v-2.17c0-1.88,.33-3.28,.98-4.19s1.67-1.37,3.06-1.37,2.39,.44,3.04,1.32,.98,2.24,1,4.08v2.11Zm-1.63-2.22c0-1.38-.19-2.38-.58-3.01s-1-.95-1.84-.95-1.44,.31-1.82,.94-.58,1.59-.59,2.89v2.6c0,1.38,.2,2.4,.6,3.06s1.01,.99,1.82,.99,1.4-.31,1.79-.93,.59-1.6,.61-2.94v-2.66Z"/></g><path class="cls-9" d="M87.29,500.97c0,.64-.17,1.21-.51,1.71s-.79,.89-1.37,1.17c.67,.29,1.2,.71,1.59,1.26s.58,1.17,.58,1.87c0,1.11-.37,1.99-1.12,2.65s-1.73,.98-2.95,.98-2.22-.33-2.96-.99-1.11-1.54-1.11-2.64c0-.69,.19-1.32,.57-1.87s.9-.98,1.57-1.27c-.57-.28-1.02-.67-1.34-1.17s-.49-1.06-.49-1.7c0-1.08,.35-1.93,1.04-2.57s1.6-.95,2.73-.95,2.03,.32,2.73,.95,1.04,1.49,1.04,2.57Zm-1.33,5.97c0-.71-.23-1.3-.68-1.75s-1.05-.68-1.78-.68-1.32,.22-1.76,.67-.66,1.03-.66,1.76,.22,1.3,.65,1.71,1.03,.62,1.8,.62,1.36-.21,1.79-.63,.65-.99,.65-1.71Zm-2.44-8.15c-.64,0-1.16,.2-1.55,.59s-.59,.93-.59,1.61,.19,1.18,.58,1.58,.91,.6,1.56,.6,1.17-.2,1.56-.6,.58-.93,.58-1.58-.2-1.18-.61-1.59-.92-.62-1.54-.62Z"/><g><path class="cls-9" d="M338.3,164.82h-1.63v-10.84l-3.28,1.2v-1.48l4.66-1.75h.25v12.86Z"/><path class="cls-9" d="M343.81,158.41l.65-6.38h6.56v1.5h-5.18l-.39,3.49c.63-.37,1.34-.55,2.14-.55,1.17,0,2.09,.38,2.78,1.16s1.03,1.81,1.03,3.12-.36,2.36-1.07,3.12-1.71,1.14-2.98,1.14c-1.13,0-2.05-.31-2.77-.94s-1.12-1.49-1.22-2.6h1.54c.1,.73,.36,1.28,.78,1.66s.98,.56,1.67,.56c.76,0,1.35-.26,1.78-.77s.65-1.23,.65-2.14c0-.86-.23-1.54-.7-2.06s-1.09-.78-1.86-.78c-.71,0-1.27,.16-1.67,.47l-.43,.35-1.3-.33Z"/></g><g><path class="cls-9" d="M338.3,107.22h-1.63v-10.84l-3.28,1.2v-1.48l4.66-1.75h.25v12.86Z"/><path class="cls-9" d="M349.44,94.42v1.38h-.3c-1.27,.02-2.27,.4-3.02,1.12s-1.18,1.75-1.3,3.07c.67-.77,1.59-1.16,2.76-1.16s2,.39,2.67,1.18,1,1.8,1,3.04c0,1.32-.36,2.37-1.08,3.16s-1.68,1.19-2.89,1.19-2.22-.47-2.98-1.41-1.14-2.15-1.14-3.63v-.62c0-2.36,.5-4.16,1.51-5.4s2.5-1.88,4.49-1.91h.29Zm-2.14,5.77c-.56,0-1.07,.17-1.54,.5s-.79,.75-.98,1.26v.6c0,1.05,.24,1.9,.71,2.55s1.07,.97,1.78,.97,1.31-.27,1.73-.81,.63-1.25,.63-2.12-.21-1.59-.64-2.13-.99-.81-1.69-.81Z"/></g><g><path class="cls-9" d="M119.26,101.24c0,1.24-.2,2.3-.59,3.19-.39,.89-.94,1.59-1.65,2.1l2.29,1.79-1.15,1.06-2.7-2.14c-.42,.11-.87,.16-1.34,.16-1.01,0-1.9-.25-2.68-.74s-1.38-1.2-1.81-2.12c-.43-.92-.65-1.98-.66-3.19v-.92c0-1.23,.21-2.32,.64-3.26s1.03-1.67,1.81-2.17c.78-.5,1.68-.75,2.69-.75s1.94,.25,2.72,.75,1.38,1.21,1.81,2.15,.63,2.03,.63,3.27v.82Zm-1.69-.83c0-1.51-.3-2.67-.9-3.49-.6-.82-1.46-1.23-2.57-1.23s-1.9,.41-2.51,1.22-.93,1.94-.94,3.38v.94c0,1.46,.31,2.62,.92,3.46s1.46,1.27,2.55,1.27,1.93-.4,2.53-1.19,.91-1.93,.92-3.42v-.95Z"/><path class="cls-9" d="M126.78,107.22h-1.63v-10.84l-3.28,1.2v-1.48l4.66-1.75h.25v12.86Z"/><path class="cls-9" d="M139.93,107.22h-8.38v-1.17l4.43-4.92c.66-.74,1.11-1.35,1.36-1.82,.25-.46,.37-.95,.37-1.45,0-.67-.2-1.22-.61-1.64s-.94-.64-1.62-.64c-.81,0-1.44,.23-1.89,.69-.45,.46-.67,1.1-.67,1.92h-1.63c0-1.18,.38-2.13,1.14-2.86s1.77-1.09,3.05-1.09c1.19,0,2.13,.31,2.82,.94,.69,.62,1.04,1.46,1.04,2.49,0,1.26-.8,2.76-2.41,4.5l-3.43,3.72h6.42v1.33Z"/></g><g><path class="cls-9" d="M119.26,158.84c0,1.24-.2,2.3-.59,3.19-.39,.89-.94,1.59-1.65,2.1l2.29,1.79-1.15,1.06-2.7-2.14c-.42,.11-.87,.16-1.34,.16-1.01,0-1.9-.25-2.68-.74s-1.38-1.2-1.81-2.12c-.43-.92-.65-1.98-.66-3.19v-.92c0-1.23,.21-2.32,.64-3.26s1.03-1.67,1.81-2.17c.78-.5,1.68-.75,2.69-.75s1.94,.25,2.72,.75,1.38,1.21,1.81,2.15,.63,2.03,.63,3.27v.82Zm-1.69-.83c0-1.51-.3-2.67-.9-3.49-.6-.82-1.46-1.23-2.57-1.23s-1.9,.41-2.51,1.22-.93,1.94-.94,3.38v.94c0,1.46,.31,2.62,.92,3.46s1.46,1.27,2.55,1.27,1.93-.4,2.53-1.19,.91-1.93,.92-3.42v-.95Z"/><path class="cls-9" d="M126.78,164.82h-1.63v-10.84l-3.28,1.2v-1.48l4.66-1.75h.25v12.86Z"/><path class="cls-9" d="M133.91,157.64h1.22c.77-.01,1.37-.21,1.81-.61s.66-.92,.66-1.59c0-1.5-.75-2.25-2.24-2.25-.7,0-1.26,.2-1.68,.6-.42,.4-.63,.93-.63,1.6h-1.63c0-1.01,.37-1.86,1.11-2.53,.74-.67,1.68-1.01,2.83-1.01,1.21,0,2.15,.32,2.84,.96s1.03,1.53,1.03,2.66c0,.56-.18,1.1-.54,1.62s-.85,.91-1.47,1.17c.7,.22,1.25,.59,1.63,1.11s.58,1.15,.58,1.89c0,1.15-.38,2.06-1.12,2.73s-1.73,1.01-2.93,1.01-2.18-.33-2.93-.98-1.13-1.51-1.13-2.58h1.63c0,.67,.22,1.21,.66,1.62s1.03,.61,1.77,.61c.79,0,1.39-.21,1.8-.62s.62-1,.62-1.77-.23-1.32-.69-1.71-1.12-.6-1.98-.62h-1.22v-1.33Z"/></g><g><path class="cls-9" d="M119.26,217.88c0,1.24-.2,2.3-.59,3.19-.39,.89-.94,1.59-1.65,2.1l2.29,1.79-1.15,1.06-2.7-2.14c-.42,.11-.87,.16-1.34,.16-1.01,0-1.9-.25-2.68-.74s-1.38-1.2-1.81-2.12c-.43-.92-.65-1.98-.66-3.19v-.92c0-1.23,.21-2.32,.64-3.26s1.03-1.67,1.81-2.17c.78-.5,1.68-.75,2.69-.75s1.94,.25,2.72,.75,1.38,1.21,1.81,2.15,.63,2.03,.63,3.27v.82Zm-1.69-.83c0-1.51-.3-2.67-.9-3.49-.6-.82-1.46-1.23-2.57-1.23s-1.9,.41-2.51,1.22-.93,1.94-.94,3.38v.94c0,1.46,.31,2.62,.92,3.46s1.46,1.27,2.55,1.27,1.93-.4,2.53-1.19,.91-1.93,.92-3.42v-.95Z"/><path class="cls-9" d="M126.78,223.86h-1.63v-10.84l-3.28,1.2v-1.48l4.66-1.75h.25v12.86Z"/><path class="cls-9" d="M138.41,219.57h1.78v1.33h-1.78v2.97h-1.63v-2.97h-5.83v-.96l5.73-8.87h1.73v8.5Zm-5.62,0h3.98v-6.28l-.19,.35-3.79,5.92Z"/></g><g><path class="cls-9" d="M119.26,274.04c0,1.24-.2,2.3-.59,3.19-.39,.89-.94,1.59-1.65,2.1l2.29,1.79-1.15,1.06-2.7-2.14c-.42,.11-.87,.16-1.34,.16-1.01,0-1.9-.25-2.68-.74s-1.38-1.2-1.81-2.12c-.43-.92-.65-1.98-.66-3.19v-.92c0-1.23,.21-2.32,.64-3.26s1.03-1.67,1.81-2.17c.78-.5,1.68-.75,2.69-.75s1.94,.25,2.72,.75,1.38,1.21,1.81,2.15,.63,2.03,.63,3.27v.82Zm-1.69-.83c0-1.51-.3-2.67-.9-3.49-.6-.82-1.46-1.23-2.57-1.23s-1.9,.41-2.51,1.22-.93,1.94-.94,3.38v.94c0,1.46,.31,2.62,.92,3.46s1.46,1.27,2.55,1.27,1.93-.4,2.53-1.19,.91-1.93,.92-3.42v-.95Z"/><path class="cls-9" d="M127.82,267.22v1.38h-.3c-1.27,.02-2.27,.4-3.02,1.12s-1.18,1.75-1.3,3.07c.67-.77,1.59-1.16,2.76-1.16s2,.39,2.67,1.18,1,1.8,1,3.04c0,1.32-.36,2.37-1.08,3.16s-1.68,1.19-2.89,1.19-2.22-.47-2.98-1.41c-.76-.94-1.14-2.15-1.14-3.63v-.62c0-2.36,.5-4.16,1.51-5.4,1-1.24,2.5-1.88,4.49-1.91h.29Zm-2.14,5.77c-.56,0-1.07,.17-1.54,.5s-.79,.75-.98,1.26v.6c0,1.05,.24,1.9,.71,2.55s1.07,.97,1.78,.97,1.31-.27,1.73-.81,.63-1.25,.63-2.12-.21-1.59-.64-2.13-.99-.81-1.69-.81Z"/></g><g><path class="cls-9" d="M119.26,331.64c0,1.24-.2,2.3-.59,3.19-.39,.89-.94,1.59-1.65,2.1l2.29,1.79-1.15,1.06-2.7-2.14c-.42,.11-.87,.16-1.34,.16-1.01,0-1.9-.25-2.68-.74s-1.38-1.2-1.81-2.12c-.43-.92-.65-1.98-.66-3.19v-.92c0-1.23,.21-2.32,.64-3.26s1.03-1.67,1.81-2.17c.78-.5,1.68-.75,2.69-.75s1.94,.25,2.72,.75,1.38,1.21,1.81,2.15,.63,2.03,.63,3.27v.82Zm-1.69-.83c0-1.51-.3-2.67-.9-3.49-.6-.82-1.46-1.23-2.57-1.23s-1.9,.41-2.51,1.22-.93,1.94-.94,3.38v.94c0,1.46,.31,2.62,.92,3.46s1.46,1.27,2.55,1.27,1.93-.4,2.53-1.19,.91-1.93,.92-3.42v-.95Z"/><path class="cls-9" d="M122.19,331.21l.65-6.38h6.56v1.5h-5.18l-.39,3.49c.63-.37,1.34-.55,2.14-.55,1.17,0,2.09,.39,2.78,1.16,.69,.77,1.03,1.81,1.03,3.12s-.36,2.36-1.07,3.12c-.71,.76-1.71,1.14-2.98,1.14-1.13,0-2.05-.31-2.77-.94s-1.12-1.49-1.22-2.6h1.54c.1,.73,.36,1.29,.78,1.66s.98,.56,1.67,.56c.76,0,1.35-.26,1.78-.77s.65-1.23,.65-2.14c0-.86-.23-1.54-.7-2.06-.47-.52-1.09-.78-1.86-.78-.71,0-1.27,.16-1.67,.47l-.43,.35-1.3-.33Z"/></g><g><path class="cls-9" d="M119.26,389.24c0,1.24-.2,2.3-.59,3.19-.39,.89-.94,1.59-1.65,2.1l2.29,1.79-1.15,1.06-2.7-2.14c-.42,.11-.87,.16-1.34,.16-1.01,0-1.9-.25-2.68-.74s-1.38-1.2-1.81-2.12c-.43-.92-.65-1.98-.66-3.19v-.92c0-1.23,.21-2.32,.64-3.26s1.03-1.67,1.81-2.17c.78-.5,1.68-.75,2.69-.75s1.94,.25,2.72,.75,1.38,1.21,1.81,2.15,.63,2.03,.63,3.27v.82Zm-1.69-.83c0-1.51-.3-2.67-.9-3.49-.6-.82-1.46-1.23-2.57-1.23s-1.9,.41-2.51,1.22-.93,1.94-.94,3.38v.94c0,1.46,.31,2.62,.92,3.46s1.46,1.27,2.55,1.27,1.93-.4,2.53-1.19,.91-1.93,.92-3.42v-.95Z"/><path class="cls-9" d="M129.7,383.34l-5.3,11.88h-1.71l5.28-11.46h-6.93v-1.34h8.65v.91Z"/></g><g><path class="cls-9" d="M119.26,446.84c0,1.24-.2,2.3-.59,3.19-.39,.89-.94,1.59-1.65,2.1l2.29,1.79-1.15,1.06-2.7-2.14c-.42,.11-.87,.16-1.34,.16-1.01,0-1.9-.25-2.68-.74s-1.38-1.2-1.81-2.12c-.43-.92-.65-1.98-.66-3.19v-.92c0-1.23,.21-2.32,.64-3.26s1.03-1.67,1.81-2.17c.78-.5,1.68-.75,2.69-.75s1.94,.25,2.72,.75,1.38,1.21,1.81,2.15,.63,2.03,.63,3.27v.82Zm-1.69-.83c0-1.51-.3-2.67-.9-3.49-.6-.82-1.46-1.23-2.57-1.23s-1.9,.41-2.51,1.22-.93,1.94-.94,3.38v.94c0,1.46,.31,2.62,.92,3.46s1.46,1.27,2.55,1.27,1.93-.4,2.53-1.19,.91-1.93,.92-3.42v-.95Z"/><path class="cls-9" d="M128.3,448.53h1.78v1.33h-1.78v2.97h-1.63v-2.97h-5.83v-.96l5.73-8.87h1.73v8.5Zm-5.62,0h3.98v-6.28l-.19,.35-3.79,5.92Z"/></g><g><path class="cls-9" d="M292.59,158.84c0,1.24-.2,2.3-.59,3.19-.39,.89-.94,1.59-1.65,2.1l2.29,1.79-1.15,1.06-2.7-2.14c-.42,.11-.87,.16-1.34,.16-1.01,0-1.9-.25-2.68-.74s-1.38-1.2-1.81-2.12c-.43-.92-.65-1.98-.66-3.19v-.92c0-1.23,.21-2.32,.64-3.26s1.03-1.67,1.81-2.17c.78-.5,1.68-.75,2.69-.75s1.94,.25,2.72,.75,1.38,1.21,1.81,2.15,.63,2.03,.63,3.27v.82Zm-1.69-.83c0-1.51-.3-2.67-.9-3.49-.6-.82-1.46-1.23-2.57-1.23s-1.9,.41-2.51,1.22-.93,1.94-.94,3.38v.94c0,1.46,.31,2.62,.92,3.46s1.46,1.27,2.55,1.27,1.93-.4,2.53-1.19,.91-1.93,.92-3.42v-.95Z"/><path class="cls-9" d="M300.11,164.82h-1.63v-10.84l-3.28,1.2v-1.48l4.66-1.75h.25v12.86Z"/><path class="cls-9" d="M312.9,159.37c0,1.9-.33,3.32-.98,4.25s-1.67,1.39-3.05,1.39-2.38-.45-3.03-1.36c-.66-.91-1-2.26-1.02-4.06v-2.17c0-1.88,.33-3.28,.98-4.19s1.67-1.37,3.06-1.37,2.39,.44,3.04,1.32c.65,.88,.98,2.24,1,4.08v2.11Zm-1.63-2.22c0-1.38-.19-2.38-.58-3.01s-1-.95-1.84-.95-1.44,.31-1.82,.94-.58,1.59-.59,2.89v2.6c0,1.38,.2,2.4,.6,3.06,.4,.66,1.01,.99,1.82,.99s1.4-.31,1.79-.93,.59-1.6,.61-2.94v-2.66Z"/></g><g><path class="cls-9" d="M302.7,216.44c0,1.24-.2,2.3-.59,3.19-.39,.89-.94,1.59-1.65,2.1l2.29,1.79-1.15,1.06-2.7-2.14c-.42,.11-.87,.16-1.34,.16-1.01,0-1.9-.25-2.68-.74s-1.38-1.2-1.81-2.12c-.43-.92-.65-1.98-.66-3.19v-.92c0-1.23,.21-2.32,.64-3.26s1.03-1.67,1.81-2.17c.78-.5,1.68-.75,2.69-.75s1.94,.25,2.72,.75,1.38,1.21,1.81,2.15,.63,2.03,.63,3.27v.82Zm-1.69-.83c0-1.51-.3-2.67-.9-3.49-.6-.82-1.46-1.23-2.57-1.23s-1.9,.41-2.51,1.22-.93,1.94-.94,3.38v.94c0,1.46,.31,2.62,.92,3.46s1.46,1.27,2.55,1.27,1.93-.4,2.53-1.19,.91-1.93,.92-3.42v-.95Z"/><path class="cls-9" d="M312.64,212.97c0,.64-.17,1.21-.51,1.71s-.79,.89-1.37,1.17c.67,.29,1.2,.71,1.59,1.26s.58,1.17,.58,1.87c0,1.11-.37,1.99-1.12,2.65s-1.73,.98-2.95,.98-2.22-.33-2.96-.99c-.74-.66-1.11-1.54-1.11-2.64,0-.69,.19-1.32,.57-1.87s.9-.98,1.57-1.27c-.57-.28-1.02-.67-1.34-1.17s-.49-1.06-.49-1.7c0-1.08,.35-1.93,1.04-2.57s1.6-.95,2.73-.95,2.03,.32,2.73,.95,1.04,1.49,1.04,2.57Zm-1.33,5.97c0-.71-.23-1.3-.68-1.75s-1.05-.68-1.78-.68-1.32,.22-1.76,.67-.66,1.03-.66,1.76,.22,1.3,.65,1.71,1.03,.62,1.8,.62,1.36-.21,1.79-.63,.65-.99,.65-1.71Zm-2.44-8.15c-.64,0-1.16,.2-1.55,.59-.4,.39-.59,.93-.59,1.61s.19,1.18,.58,1.58c.39,.4,.91,.6,1.56,.6s1.17-.2,1.56-.6c.39-.4,.58-.93,.58-1.58s-.2-1.18-.61-1.59-.92-.62-1.54-.62Z"/></g><g><path class="cls-9" d="M302.7,274.04c0,1.24-.2,2.3-.59,3.19-.39,.89-.94,1.59-1.65,2.1l2.29,1.79-1.15,1.06-2.7-2.14c-.42,.11-.87,.16-1.34,.16-1.01,0-1.9-.25-2.68-.74s-1.38-1.2-1.81-2.12c-.43-.92-.65-1.98-.66-3.19v-.92c0-1.23,.21-2.32,.64-3.26s1.03-1.67,1.81-2.17c.78-.5,1.68-.75,2.69-.75s1.94,.25,2.72,.75,1.38,1.21,1.81,2.15,.63,2.03,.63,3.27v.82Zm-1.69-.83c0-1.51-.3-2.67-.9-3.49-.6-.82-1.46-1.23-2.57-1.23s-1.9,.41-2.51,1.22-.93,1.94-.94,3.38v.94c0,1.46,.31,2.62,.92,3.46s1.46,1.27,2.55,1.27,1.93-.4,2.53-1.19,.91-1.93,.92-3.42v-.95Z"/><path class="cls-9" d="M311.11,274.4c-.34,.4-.75,.73-1.22,.98s-.99,.37-1.55,.37c-.74,0-1.38-.18-1.93-.54s-.97-.87-1.27-1.53c-.3-.66-.45-1.39-.45-2.18,0-.86,.16-1.63,.49-2.31s.79-1.21,1.38-1.57,1.29-.54,2.09-.54c1.27,0,2.26,.47,2.99,1.42s1.09,2.24,1.09,3.87v.47c0,2.49-.49,4.31-1.48,5.45-.98,1.15-2.47,1.73-4.46,1.76h-.32v-1.38h.34c1.34-.02,2.37-.37,3.09-1.05,.72-.68,1.11-1.74,1.18-3.21Zm-2.5,0c.54,0,1.05-.17,1.51-.5s.8-.75,1.01-1.24v-.65c0-1.07-.23-1.93-.69-2.6s-1.05-1-1.76-1-1.29,.27-1.72,.82-.65,1.27-.65,2.17,.21,1.59,.63,2.16,.98,.85,1.68,.85Z"/></g><g><path class="cls-9" d="M267.31,332.45h-3.01v5.18h-1.7v-12.8h4.24c1.44,0,2.55,.33,3.33,.98s1.16,1.61,1.16,2.87c0,.8-.22,1.49-.65,2.08s-1.03,1.03-1.8,1.33l3.01,5.43v.11h-1.81l-2.78-5.18Zm-3.01-1.38h2.59c.84,0,1.5-.22,2-.65s.74-1.02,.74-1.74c0-.79-.24-1.4-.71-1.82s-1.15-.64-2.04-.64h-2.58v4.86Z"/><path class="cls-9" d="M280.93,331.71h-5.55v4.54h6.44v1.38h-8.13v-12.8h8.04v1.38h-6.35v4.12h5.55v1.38Z"/><path class="cls-9" d="M287.7,331.92c-1.45-.42-2.5-.93-3.16-1.53-.66-.61-.99-1.35-.99-2.25,0-1.01,.4-1.84,1.21-2.5,.81-.66,1.85-.99,3.14-.99,.88,0,1.66,.17,2.35,.51s1.22,.81,1.6,1.41,.57,1.25,.57,1.96h-1.7c0-.78-.25-1.39-.74-1.83s-1.19-.67-2.08-.67c-.83,0-1.48,.18-1.95,.55-.47,.37-.7,.88-.7,1.53,0,.52,.22,.96,.66,1.33s1.2,.69,2.26,.99c1.06,.3,1.9,.63,2.5,.99,.6,.36,1.05,.78,1.34,1.26s.44,1.05,.44,1.7c0,1.04-.4,1.87-1.21,2.49-.81,.62-1.89,.94-3.24,.94-.88,0-1.7-.17-2.46-.51-.76-.34-1.35-.8-1.76-1.38s-.62-1.25-.62-2h1.7c0,.77,.29,1.38,.86,1.83,.57,.45,1.33,.67,2.29,.67,.89,0,1.57-.18,2.05-.54s.71-.86,.71-1.49-.22-1.11-.66-1.46c-.44-.34-1.24-.68-2.39-1.01Z"/><path class="cls-9" d="M301.84,331.71h-5.55v4.54h6.44v1.38h-8.13v-12.8h8.04v1.38h-6.35v4.12h5.55v1.38Z"/><path class="cls-9" d="M313.86,326.21h-4.11v11.42h-1.68v-11.42h-4.1v-1.38h9.9v1.38Z"/></g><g><path class="cls-9" d="M236.53,391.16c-.16,1.35-.66,2.4-1.5,3.13-.84,.74-1.96,1.1-3.35,1.1-1.51,0-2.72-.54-3.63-1.63s-1.37-2.53-1.37-4.35v-1.23c0-1.19,.21-2.24,.64-3.14s1.03-1.59,1.81-2.08c.78-.48,1.68-.72,2.71-.72,1.36,0,2.45,.38,3.27,1.14s1.3,1.81,1.43,3.15h-1.7c-.15-1.02-.46-1.76-.95-2.22-.49-.46-1.17-.69-2.05-.69-1.08,0-1.92,.4-2.54,1.2s-.92,1.93-.92,3.4v1.24c0,1.39,.29,2.5,.87,3.32s1.39,1.23,2.43,1.23c.94,0,1.66-.21,2.16-.64,.5-.42,.83-1.16,1-2.22h1.7Z"/><path class="cls-9" d="M240.53,393.84h6.06v1.38h-7.76v-12.8h1.7v11.42Z"/><path class="cls-9" d="M251.77,389.27l-1.56,1.63v4.32h-1.69v-12.8h1.69v6.33l5.69-6.33h2.04l-5.04,5.65,5.43,7.15h-2.02l-4.54-5.95Z"/><path class="cls-9" d="M266.07,395.22h-1.69v-12.8h1.69v12.8Z"/><path class="cls-9" d="M278.99,395.22h-1.7l-6.44-9.86v9.86h-1.7v-12.8h1.7l6.46,9.91v-9.91h1.68v12.8Z"/><path class="cls-9" d="M283.68,390.21v5.01h-1.69v-12.8h4.72c1.4,0,2.5,.36,3.29,1.07s1.19,1.66,1.19,2.84c0,1.24-.39,2.2-1.16,2.87-.78,.67-1.89,1.01-3.34,1.01h-3.01Zm0-1.38h3.03c.9,0,1.59-.21,2.07-.64,.48-.42,.72-1.04,.72-1.84,0-.76-.24-1.37-.72-1.83s-1.14-.7-1.98-.71h-3.13v5.03Z"/><path class="cls-9" d="M302.35,382.43v8.7c0,1.21-.39,2.19-1.14,2.96s-1.77,1.2-3.06,1.29l-.45,.02c-1.4,0-2.52-.38-3.35-1.13s-1.25-1.8-1.27-3.12v-8.72h1.67v8.67c0,.93,.25,1.65,.76,2.16s1.24,.77,2.18,.77,1.69-.25,2.19-.76,.76-1.23,.76-2.15v-8.67h1.7Z"/><path class="cls-9" d="M313.86,383.81h-4.11v11.42h-1.68v-11.42h-4.1v-1.38h9.9v1.38Z"/></g><g><path class="cls-9" d="M219.96,453c-1.29,0-2.34-.42-3.15-1.27s-1.21-1.98-1.21-3.4v-.3c0-.94,.18-1.79,.54-2.53s.86-1.32,1.51-1.74,1.35-.63,2.1-.63c1.24,0,2.2,.41,2.88,1.22s1.03,1.98,1.03,3.5v.68h-6.44c.02,.94,.3,1.7,.82,2.27,.52,.58,1.19,.87,2,.87,.57,0,1.06-.12,1.46-.35s.75-.54,1.05-.93l.99,.77c-.8,1.22-1.99,1.84-3.59,1.84Zm-.2-8.53c-.66,0-1.21,.24-1.65,.72s-.72,1.15-.83,2.01h4.76v-.12c-.05-.83-.27-1.47-.67-1.92s-.94-.68-1.62-.68Z"/><path class="cls-9" d="M228.74,446.79l2.11-3.47h1.9l-3.11,4.7,3.21,4.81h-1.88l-2.2-3.56-2.2,3.56h-1.89l3.21-4.81-3.11-4.7h1.88l2.08,3.47Z"/><path class="cls-9" d="M236.67,441.01v2.3h1.78v1.26h-1.78v5.91c0,.38,.08,.67,.24,.86s.43,.29,.81,.29c.19,0,.45-.04,.77-.11v1.31c-.43,.12-.84,.17-1.25,.17-.73,0-1.27-.22-1.64-.66s-.55-1.06-.55-1.87v-5.9h-1.73v-1.26h1.73v-2.3h1.63Z"/><path class="cls-9" d="M240.38,451.97c0-.28,.08-.52,.25-.7s.42-.28,.75-.28,.59,.09,.76,.28,.26,.42,.26,.7-.09,.5-.26,.68-.43,.27-.76,.27-.58-.09-.75-.27-.25-.41-.25-.68Z"/><path class="cls-9" d="M254.49,447.65h-3.01v5.18h-1.7v-12.8h4.24c1.44,0,2.55,.33,3.33,.98s1.16,1.61,1.16,2.87c0,.8-.22,1.49-.65,2.08s-1.03,1.03-1.8,1.33l3.01,5.43v.11h-1.81l-2.78-5.18Zm-3.01-1.38h2.59c.84,0,1.5-.22,2-.65s.74-1.02,.74-1.74c0-.79-.24-1.4-.71-1.82s-1.15-.64-2.04-.64h-2.58v4.86Z"/><path class="cls-9" d="M264.57,453c-1.29,0-2.34-.42-3.15-1.27s-1.21-1.98-1.21-3.4v-.3c0-.94,.18-1.79,.54-2.53s.86-1.32,1.51-1.74,1.35-.63,2.1-.63c1.24,0,2.2,.41,2.88,1.22s1.03,1.98,1.03,3.5v.68h-6.44c.02,.94,.3,1.7,.82,2.27,.52,.58,1.19,.87,2,.87,.57,0,1.06-.12,1.46-.35s.75-.54,1.05-.93l.99,.77c-.8,1.22-1.99,1.84-3.59,1.84Zm-.2-8.53c-.66,0-1.21,.24-1.65,.72s-.72,1.15-.83,2.01h4.76v-.12c-.05-.83-.27-1.47-.67-1.92s-.94-.68-1.62-.68Z"/><path class="cls-9" d="M275.7,450.3c0-.44-.17-.78-.5-1.02-.33-.24-.91-.45-1.73-.63s-1.48-.39-1.96-.63-.84-.54-1.07-.88-.35-.74-.35-1.21c0-.78,.33-1.44,.99-1.98s1.5-.81,2.53-.81c1.08,0,1.95,.28,2.62,.83s1.01,1.27,1.01,2.14h-1.63c0-.45-.19-.83-.57-1.15s-.85-.48-1.43-.48-1.05,.13-1.39,.39-.5,.59-.5,1.01c0,.39,.16,.69,.47,.89s.87,.39,1.68,.57,1.47,.4,1.97,.65,.88,.56,1.12,.91c.24,.36,.36,.79,.36,1.3,0,.85-.34,1.53-1.02,2.04-.68,.51-1.56,.77-2.65,.77-.76,0-1.44-.13-2.02-.4s-1.04-.65-1.38-1.13c-.33-.48-.5-1.01-.5-1.57h1.63c.03,.54,.25,.98,.65,1.3,.41,.32,.94,.48,1.61,.48,.62,0,1.11-.12,1.48-.37,.37-.25,.56-.58,.56-1Z"/><path class="cls-9" d="M279.45,440.79c0-.26,.08-.49,.24-.67s.4-.27,.72-.27,.56,.09,.72,.27,.25,.4,.25,.67-.08,.48-.25,.66-.4,.26-.72,.26-.56-.09-.72-.26-.24-.4-.24-.66Zm1.76,12.03h-1.63v-9.51h1.63v9.51Z"/><path class="cls-9" d="M289.35,450.3c0-.44-.17-.78-.5-1.02-.33-.24-.91-.45-1.73-.63s-1.48-.39-1.96-.63-.84-.54-1.07-.88-.35-.74-.35-1.21c0-.78,.33-1.44,.99-1.98s1.5-.81,2.53-.81c1.08,0,1.95,.28,2.62,.83,.67,.56,1.01,1.27,1.01,2.14h-1.63c0-.45-.19-.83-.57-1.15-.38-.32-.85-.48-1.43-.48s-1.05,.13-1.39,.39-.5,.59-.5,1.01c0,.39,.16,.69,.47,.89s.87,.39,1.68,.57,1.47,.4,1.97,.65,.88,.56,1.12,.91c.24,.36,.36,.79,.36,1.3,0,.85-.34,1.53-1.02,2.04-.68,.51-1.56,.77-2.65,.77-.76,0-1.44-.13-2.02-.4s-1.04-.65-1.38-1.13c-.33-.48-.5-1.01-.5-1.57h1.63c.03,.54,.25,.98,.65,1.3,.41,.32,.94,.48,1.61,.48,.62,0,1.11-.12,1.48-.37,.37-.25,.56-.58,.56-1Z"/><path class="cls-9" d="M295.3,441.01v2.3h1.78v1.26h-1.78v5.91c0,.38,.08,.67,.24,.86s.43,.29,.81,.29c.19,0,.45-.04,.77-.11v1.31c-.43,.12-.84,.17-1.25,.17-.73,0-1.27-.22-1.64-.66s-.55-1.06-.55-1.87v-5.9h-1.73v-1.26h1.73v-2.3h1.63Z"/><path class="cls-9" d="M298.36,447.98c0-.93,.18-1.77,.55-2.51,.37-.74,.88-1.32,1.53-1.72,.65-.4,1.4-.61,2.24-.61,1.29,0,2.34,.45,3.14,1.34,.8,.9,1.2,2.09,1.2,3.58v.11c0,.93-.18,1.76-.53,2.49-.36,.74-.86,1.31-1.52,1.72-.66,.41-1.42,.62-2.27,.62-1.29,0-2.33-.45-3.13-1.34-.8-.9-1.2-2.08-1.2-3.56v-.11Zm1.63,.19c0,1.05,.24,1.9,.73,2.54s1.14,.96,1.96,.96,1.48-.32,1.97-.97c.49-.65,.73-1.55,.73-2.72,0-1.04-.25-1.89-.74-2.54-.5-.65-1.15-.97-1.97-.97s-1.45,.32-1.94,.96-.74,1.55-.74,2.74Z"/><path class="cls-9" d="M313.66,444.77c-.25-.04-.51-.06-.8-.06-1.07,0-1.79,.45-2.17,1.36v6.75h-1.63v-9.51h1.58l.03,1.1c.53-.85,1.29-1.27,2.27-1.27,.32,0,.56,.04,.72,.12v1.51Z"/></g><g><path class="cls-9" d="M208.32,510.6c-1.29,0-2.34-.42-3.15-1.27s-1.21-1.98-1.21-3.4v-.3c0-.94,.18-1.79,.54-2.53s.86-1.32,1.51-1.74,1.35-.63,2.1-.63c1.24,0,2.2,.41,2.88,1.22s1.03,1.98,1.03,3.5v.68h-6.44c.02,.94,.3,1.7,.82,2.27,.52,.58,1.19,.87,2,.87,.57,0,1.06-.12,1.46-.35s.75-.54,1.05-.93l.99,.77c-.8,1.22-1.99,1.84-3.59,1.84Zm-.2-8.53c-.66,0-1.21,.24-1.65,.72s-.72,1.15-.83,2.01h4.76v-.12c-.05-.83-.27-1.47-.67-1.92s-.94-.68-1.62-.68Z"/><path class="cls-9" d="M217.1,504.39l2.11-3.47h1.9l-3.11,4.7,3.21,4.81h-1.88l-2.2-3.56-2.2,3.56h-1.89l3.21-4.81-3.11-4.7h1.88l2.08,3.47Z"/><path class="cls-9" d="M225.04,498.61v2.3h1.78v1.26h-1.78v5.91c0,.38,.08,.67,.24,.86s.43,.29,.81,.29c.19,0,.45-.04,.77-.11v1.31c-.43,.12-.84,.17-1.25,.17-.73,0-1.27-.22-1.64-.66s-.55-1.06-.55-1.87v-5.9h-1.73v-1.26h1.73v-2.3h1.63Z"/><path class="cls-9" d="M228.75,509.57c0-.28,.08-.52,.25-.7s.42-.28,.75-.28,.59,.09,.76,.28,.26,.42,.26,.7-.09,.5-.26,.68-.43,.27-.76,.27-.58-.09-.75-.27-.25-.41-.25-.68Z"/><path class="cls-9" d="M247.57,506.36c-.16,1.35-.66,2.4-1.5,3.13-.84,.74-1.96,1.1-3.35,1.1-1.51,0-2.72-.54-3.63-1.63s-1.37-2.53-1.37-4.35v-1.23c0-1.19,.21-2.24,.64-3.14s1.03-1.59,1.81-2.08c.78-.48,1.68-.72,2.71-.72,1.36,0,2.45,.38,3.27,1.14s1.3,1.81,1.43,3.15h-1.7c-.15-1.02-.46-1.76-.95-2.22-.49-.46-1.17-.69-2.05-.69-1.08,0-1.92,.4-2.54,1.2s-.92,1.93-.92,3.4v1.24c0,1.39,.29,2.5,.87,3.32s1.39,1.23,2.43,1.23c.94,0,1.66-.21,2.16-.64,.5-.42,.83-1.16,1-2.22h1.7Z"/><path class="cls-9" d="M255.49,510.42c-.09-.19-.17-.52-.23-1-.76,.79-1.66,1.18-2.71,1.18-.94,0-1.71-.26-2.31-.79s-.9-1.2-.9-2.02c0-.99,.38-1.76,1.13-2.31s1.81-.82,3.18-.82h1.58v-.75c0-.57-.17-1.02-.51-1.36-.34-.34-.84-.5-1.5-.5-.58,0-1.07,.15-1.46,.44s-.59,.65-.59,1.06h-1.63c0-.47,.17-.93,.51-1.38s.79-.79,1.37-1.05,1.21-.39,1.9-.39c1.1,0,1.95,.27,2.58,.82s.94,1.3,.97,2.26v4.38c0,.87,.11,1.57,.33,2.08v.14h-1.71Zm-2.7-1.24c.51,0,.99-.13,1.45-.4s.79-.61,.99-1.03v-1.95h-1.27c-1.99,0-2.99,.58-2.99,1.75,0,.51,.17,.91,.51,1.2s.78,.43,1.31,.43Z"/><path class="cls-9" d="M267.44,505.77c0,1.45-.33,2.61-.99,3.5s-1.56,1.33-2.69,1.33-2.06-.37-2.72-1.1v4.58h-1.63v-13.17h1.49l.08,1.05c.66-.82,1.58-1.23,2.76-1.23s2.05,.43,2.71,1.29,1,2.06,1,3.59v.15Zm-1.63-.18c0-1.07-.23-1.92-.69-2.54s-1.08-.93-1.88-.93c-.98,0-1.72,.44-2.21,1.31v4.54c.49,.87,1.23,1.3,2.23,1.3,.78,0,1.4-.31,1.86-.93s.69-1.54,.69-2.76Z"/><path class="cls-9" d="M275.38,510.42c-.09-.19-.17-.52-.23-1-.76,.79-1.66,1.18-2.71,1.18-.94,0-1.71-.26-2.31-.79s-.9-1.2-.9-2.02c0-.99,.38-1.76,1.13-2.31s1.81-.82,3.18-.82h1.58v-.75c0-.57-.17-1.02-.51-1.36-.34-.34-.84-.5-1.5-.5-.58,0-1.07,.15-1.46,.44s-.59,.65-.59,1.06h-1.63c0-.47,.17-.93,.51-1.38s.79-.79,1.37-1.05,1.21-.39,1.9-.39c1.1,0,1.95,.27,2.58,.82s.94,1.3,.97,2.26v4.38c0,.87,.11,1.57,.33,2.08v.14h-1.71Zm-2.7-1.24c.51,0,.99-.13,1.45-.4s.79-.61,.99-1.03v-1.95h-1.27c-1.99,0-2.99,.58-2.99,1.75,0,.51,.17,.91,.51,1.2s.78,.43,1.31,.43Z"/><path class="cls-9" d="M283.11,509.27c.58,0,1.09-.18,1.52-.53s.67-.79,.72-1.32h1.54c-.03,.54-.22,1.06-.56,1.56s-.81,.88-1.38,1.18c-.58,.29-1.19,.44-1.83,.44-1.29,0-2.32-.43-3.09-1.3-.76-.86-1.15-2.05-1.15-3.55v-.27c0-.93,.17-1.75,.51-2.47s.83-1.28,1.46-1.68,1.39-.6,2.25-.6c1.07,0,1.95,.32,2.66,.96,.71,.64,1.08,1.47,1.13,2.49h-1.54c-.05-.62-.28-1.12-.7-1.52-.42-.4-.94-.59-1.55-.59-.83,0-1.47,.3-1.92,.89s-.68,1.45-.68,2.58v.31c0,1.1,.23,1.94,.68,2.53s1.1,.89,1.93,.89Z"/><path class="cls-9" d="M288.73,498.39c0-.26,.08-.49,.24-.67s.4-.27,.72-.27,.56,.09,.72,.27,.25,.4,.25,.67-.08,.48-.25,.66-.4,.26-.72,.26-.56-.09-.72-.26-.24-.4-.24-.66Zm1.76,12.03h-1.63v-9.51h1.63v9.51Z"/><path class="cls-9" d="M295.3,498.61v2.3h1.78v1.26h-1.78v5.91c0,.38,.08,.67,.24,.86s.43,.29,.81,.29c.19,0,.45-.04,.77-.11v1.31c-.43,.12-.84,.17-1.25,.17-.73,0-1.27-.22-1.64-.66s-.55-1.06-.55-1.87v-5.9h-1.73v-1.26h1.73v-2.3h1.63Z"/><path class="cls-9" d="M298.36,505.58c0-.93,.18-1.77,.55-2.51,.37-.74,.88-1.32,1.53-1.72,.65-.4,1.4-.61,2.24-.61,1.29,0,2.34,.45,3.14,1.34,.8,.9,1.2,2.09,1.2,3.58v.11c0,.93-.18,1.76-.53,2.49-.36,.74-.86,1.31-1.52,1.72-.66,.41-1.42,.62-2.27,.62-1.29,0-2.33-.45-3.13-1.34-.8-.9-1.2-2.08-1.2-3.56v-.11Zm1.63,.19c0,1.05,.24,1.9,.73,2.54s1.14,.96,1.96,.96,1.48-.32,1.97-.97c.49-.65,.73-1.55,.73-2.72,0-1.04-.25-1.89-.74-2.54-.5-.65-1.15-.97-1.97-.97s-1.45,.32-1.94,.96-.74,1.55-.74,2.74Z"/><path class="cls-9" d="M313.66,502.37c-.25-.04-.51-.06-.8-.06-1.07,0-1.79,.45-2.17,1.36v6.75h-1.63v-9.51h1.58l.03,1.1c.53-.85,1.29-1.27,2.27-1.27,.32,0,.56,.04,.72,.12v1.51Z"/></g><path class="cls-9" d="M863.6,467.19h-7.33v-1.42h7.33v1.42Zm0,3.65h-7.33v-1.41h7.33v1.41Z"/><g><path class="cls-9" d="M948.85,486.72h-8.38v-1.17l4.43-4.92c.66-.74,1.11-1.35,1.36-1.81s.37-.95,.37-1.45c0-.67-.2-1.22-.61-1.64s-.94-.64-1.62-.64c-.81,0-1.44,.23-1.88,.69s-.67,1.1-.67,1.92h-1.63c0-1.18,.38-2.13,1.14-2.86s1.77-1.09,3.04-1.09c1.19,0,2.13,.31,2.82,.94s1.04,1.45,1.04,2.49c0,1.26-.8,2.76-2.41,4.5l-3.43,3.72h6.42v1.33Z"/><path class="cls-9" d="M950.69,489.27l-.92-.63c.55-.77,.84-1.56,.86-2.37v-1.47h1.59v1.27c0,.59-.14,1.18-.43,1.78s-.66,1.07-1.09,1.42Z"/><path class="cls-9" d="M962.49,486.72h-8.38v-1.17l4.43-4.92c.66-.74,1.11-1.35,1.36-1.81s.37-.95,.37-1.45c0-.67-.2-1.22-.61-1.64s-.94-.64-1.62-.64c-.81,0-1.44,.23-1.88,.69s-.67,1.1-.67,1.92h-1.63c0-1.18,.38-2.13,1.14-2.86s1.77-1.09,3.04-1.09c1.19,0,2.13,.31,2.82,.94s1.04,1.45,1.04,2.49c0,1.26-.8,2.76-2.41,4.5l-3.43,3.72h6.42v1.33Z"/><path class="cls-9" d="M973.79,481.54h-3.01v5.18h-1.7v-12.8h4.24c1.44,0,2.55,.33,3.33,.98s1.16,1.61,1.16,2.87c0,.8-.21,1.49-.65,2.08s-1.03,1.03-1.8,1.33l3.01,5.43v.11h-1.81l-2.78-5.18Zm-3.01-1.38h2.59c.84,0,1.5-.22,2-.65s.74-1.02,.74-1.74c0-.79-.24-1.4-.71-1.82-.47-.42-1.15-.64-2.04-.64h-2.58v4.86Z"/><path class="cls-9" d="M980.69,485.83v1.34h1.04v.73h-1.04v3.44c0,.22,.05,.39,.14,.5,.09,.11,.25,.17,.47,.17,.11,0,.26-.02,.45-.06v.76c-.25,.07-.49,.1-.73,.1-.42,0-.74-.13-.96-.38-.22-.26-.32-.62-.32-1.09v-3.44h-1.01v-.73h1.01v-1.34h.95Z"/><path class="cls-9" d="M997.47,482.66c-.16,1.35-.66,2.4-1.5,3.13s-1.96,1.1-3.35,1.1c-1.51,0-2.72-.54-3.63-1.63s-1.37-2.53-1.37-4.35v-1.23c0-1.19,.21-2.24,.64-3.14s1.03-1.59,1.81-2.08,1.68-.73,2.71-.73c1.36,0,2.45,.38,3.27,1.14s1.3,1.81,1.43,3.15h-1.7c-.15-1.02-.46-1.76-.95-2.22-.49-.46-1.17-.69-2.05-.69-1.08,0-1.92,.4-2.54,1.2-.61,.8-.92,1.93-.92,3.4v1.24c0,1.39,.29,2.5,.87,3.32,.58,.82,1.39,1.23,2.43,1.23,.94,0,1.66-.21,2.16-.64s.83-1.17,1-2.22h1.7Z"/><path class="cls-9" d="M1000.29,485.83v1.34h1.04v.73h-1.04v3.44c0,.22,.05,.39,.14,.5,.09,.11,.25,.17,.47,.17,.11,0,.26-.02,.45-.06v.76c-.25,.07-.49,.1-.73,.1-.42,0-.74-.13-.96-.38-.22-.26-.32-.62-.32-1.09v-3.44h-1.01v-.73h1.01v-1.34h.95Z"/></g><path class="cls-9" d="M842.75,476.64v-8.25h-1.5v-1.26h1.5v-.98c0-1.02,.27-1.81,.82-2.36s1.32-.83,2.31-.83c.38,0,.75,.05,1.12,.15l-.09,1.31c-.28-.05-.57-.08-.88-.08-.53,0-.93,.15-1.22,.46s-.43,.75-.43,1.33v1h2.03v1.26h-2.03v8.25h-1.63Z"/><path class="cls-9" d="M890.93,475.3h-4.11v11.42h-1.68v-11.42h-4.1v-1.38h9.9v1.38Z"/><path class="cls-9" d="M887.15,463.68h-1.63v-10.84l-3.28,1.2v-1.48l4.66-1.75h.25v12.86Z"/><path class="cls-9" d="M915.44,466.61h-7.33v-1.42h7.33v1.42Zm0,3.65h-7.33v-1.41h7.33v1.41Z"/><path class="cls-9" d="M971.91,463.68h-1.63v-10.84l-3.28,1.2v-1.48l4.66-1.75h.25v12.86Z"/><g><path class="cls-9" d="M937.02,356.26h-3.01v5.18h-1.7v-12.8h4.24c1.44,0,2.55,.33,3.33,.98s1.17,1.61,1.17,2.87c0,.8-.22,1.49-.65,2.08-.43,.59-1.03,1.03-1.8,1.33l3.01,5.43v.11h-1.81l-2.78-5.18Zm-3.01-1.38h2.59c.84,0,1.5-.22,2-.65,.49-.43,.74-1.02,.74-1.74,0-.79-.24-1.4-.71-1.82-.47-.42-1.15-.64-2.04-.64h-2.58v4.86Z"/><path class="cls-9" d="M943.92,360.55v1.34h1.03v.73h-1.03v3.44c0,.22,.05,.39,.14,.5,.09,.11,.25,.17,.47,.17,.11,0,.26-.02,.45-.06v.76c-.25,.07-.49,.1-.73,.1-.42,0-.74-.13-.96-.38-.21-.26-.32-.62-.32-1.09v-3.44h-1.01v-.73h1.01v-1.34h.95Z"/></g><g><path class="cls-9" d="M869.42,357.38c-.16,1.35-.66,2.4-1.5,3.13-.84,.74-1.96,1.1-3.35,1.1-1.51,0-2.72-.54-3.63-1.63s-1.37-2.53-1.37-4.35v-1.23c0-1.19,.21-2.24,.64-3.14,.42-.9,1.03-1.59,1.81-2.08,.78-.48,1.68-.72,2.71-.72,1.36,0,2.45,.38,3.27,1.14s1.3,1.81,1.43,3.15h-1.7c-.15-1.02-.46-1.76-.95-2.22-.49-.46-1.17-.69-2.05-.69-1.08,0-1.92,.4-2.54,1.2s-.92,1.93-.92,3.4v1.24c0,1.39,.29,2.5,.87,3.32s1.39,1.23,2.43,1.23c.94,0,1.66-.21,2.16-.64,.5-.42,.83-1.16,1-2.22h1.7Z"/><path class="cls-9" d="M872.24,360.55v1.34h1.03v.73h-1.03v3.44c0,.22,.05,.39,.14,.5,.09,.11,.25,.17,.47,.17,.11,0,.26-.02,.45-.06v.76c-.25,.07-.49,.1-.73,.1-.42,0-.74-.13-.96-.38-.21-.26-.32-.62-.32-1.09v-3.44h-1.01v-.73h1.01v-1.34h.95Z"/></g><g><path class="cls-9" d="M503.15,201.6h-1.63v-10.84l-3.28,1.2v-1.48l4.66-1.75h.25v12.86Z"/><path class="cls-9" d="M516.3,201.6h-8.38v-1.17l4.43-4.92c.66-.74,1.11-1.35,1.36-1.81s.37-.95,.37-1.45c0-.67-.2-1.22-.61-1.64s-.94-.64-1.62-.64c-.81,0-1.44,.23-1.88,.69s-.67,1.1-.67,1.92h-1.63c0-1.18,.38-2.13,1.14-2.86s1.77-1.09,3.04-1.09c1.19,0,2.13,.31,2.82,.94s1.04,1.45,1.04,2.49c0,1.26-.8,2.76-2.41,4.5l-3.43,3.72h6.42v1.33Z"/></g><g><path class="cls-9" d="M505.41,139.58h-1.63v-10.84l-3.28,1.2v-1.48l4.66-1.75h.25v12.86Z"/><path class="cls-9" d="M515.52,139.58h-1.63v-10.84l-3.28,1.2v-1.48l4.66-1.75h.25v12.86Z"/></g><path class="cls-9" d="M687.54,117.72l-5.3,11.88h-1.71l5.28-11.46h-6.93v-1.34h8.65v.91Z"/><path class="cls-9" d="M680.02,159.18l.65-6.38h6.56v1.5h-5.18l-.39,3.49c.63-.37,1.34-.55,2.14-.55,1.17,0,2.09,.39,2.78,1.16s1.03,1.81,1.03,3.12-.36,2.36-1.07,3.12-1.71,1.14-2.98,1.14c-1.13,0-2.05-.31-2.77-.94s-1.12-1.49-1.22-2.6h1.54c.1,.73,.36,1.28,.78,1.66s.98,.56,1.67,.56c.76,0,1.35-.26,1.78-.77s.65-1.23,.65-2.14c0-.86-.23-1.54-.7-2.06s-1.09-.78-1.86-.78c-.71,0-1.27,.16-1.67,.47l-.43,.35-1.3-.33Z"/><path class="cls-9" d="M686.14,197.3h1.78v1.33h-1.78v2.97h-1.63v-2.97h-5.83v-.96l5.73-8.87h1.73v8.5Zm-5.62,0h3.98v-6.28l-.19,.35-3.79,5.92Z"/><path class="cls-9" d="M685.66,224.79v1.38h-.3c-1.27,.02-2.27,.4-3.02,1.12s-1.18,1.75-1.3,3.07c.67-.77,1.59-1.16,2.76-1.16s2,.39,2.67,1.18,1,1.8,1,3.04c0,1.32-.36,2.37-1.08,3.16s-1.68,1.19-2.89,1.19-2.22-.47-2.98-1.41-1.14-2.15-1.14-3.63v-.62c0-2.36,.5-4.16,1.51-5.4s2.5-1.88,4.49-1.91h.29Zm-2.14,5.77c-.56,0-1.07,.17-1.54,.5s-.79,.75-.98,1.26v.6c0,1.05,.24,1.9,.71,2.55s1.07,.97,1.78,.97,1.31-.27,1.73-.81,.63-1.25,.63-2.12-.21-1.59-.64-2.13-.99-.81-1.69-.81Z"/><g><path class="cls-9" d="M674.51,273.6h-1.63v-10.84l-3.28,1.2v-1.48l4.66-1.75h.25v12.86Z"/><path class="cls-9" d="M686.14,269.3h1.78v1.33h-1.78v2.97h-1.63v-2.97h-5.83v-.96l5.73-8.87h1.73v8.5Zm-5.62,0h3.98v-6.28l-.19,.35-3.79,5.92Z"/></g><g><path class="cls-9" d="M674.51,309.6h-1.63v-10.84l-3.28,1.2v-1.48l4.66-1.75h.25v12.86Z"/><path class="cls-9" d="M681.64,302.41h1.22c.77-.01,1.37-.21,1.81-.61s.66-.92,.66-1.59c0-1.5-.75-2.25-2.24-2.25-.7,0-1.26,.2-1.68,.6s-.63,.93-.63,1.6h-1.63c0-1.01,.37-1.86,1.11-2.53s1.68-1.01,2.83-1.01c1.21,0,2.15,.32,2.84,.96s1.03,1.53,1.03,2.66c0,.56-.18,1.1-.54,1.62s-.85,.91-1.47,1.17c.7,.22,1.25,.59,1.63,1.11s.58,1.15,.58,1.89c0,1.15-.38,2.06-1.12,2.73s-1.73,1.01-2.93,1.01-2.18-.33-2.93-.98-1.13-1.51-1.13-2.58h1.63c0,.67,.22,1.21,.66,1.62s1.03,.61,1.77,.61c.79,0,1.39-.21,1.8-.62s.62-1,.62-1.77-.23-1.32-.69-1.71-1.12-.6-1.98-.62h-1.22v-1.33Z"/></g><g><path class="cls-9" d="M674.51,345.6h-1.63v-10.84l-3.28,1.2v-1.48l4.66-1.75h.25v12.86Z"/><path class="cls-9" d="M680.02,339.18l.65-6.38h6.56v1.5h-5.18l-.39,3.49c.63-.37,1.34-.55,2.14-.55,1.17,0,2.09,.38,2.78,1.16s1.03,1.81,1.03,3.12-.36,2.36-1.07,3.12-1.71,1.14-2.98,1.14c-1.13,0-2.05-.31-2.77-.94s-1.12-1.49-1.22-2.6h1.54c.1,.73,.36,1.28,.78,1.66s.98,.56,1.67,.56c.76,0,1.35-.26,1.78-.77s.65-1.23,.65-2.14c0-.86-.23-1.54-.7-2.06s-1.09-.78-1.86-.78c-.71,0-1.27,.16-1.67,.47l-.43,.35-1.3-.33Z"/></g><path class="cls-9" d="M684.62,381.6h-1.63v-10.84l-3.28,1.2v-1.48l4.66-1.75h.25v12.86Z"/><g><path class="cls-9" d="M620.72,534.88l3.66-10.56h1.85l-4.75,12.8h-1.49l-4.74-12.8h1.84l3.64,10.56Z"/><path class="cls-9" d="M629.95,533.32c-.96-.28-1.67-.62-2.11-1.02s-.66-.9-.66-1.5c0-.67,.27-1.23,.81-1.67s1.24-.66,2.09-.66c.59,0,1.11,.11,1.57,.34s.81,.54,1.07,.94,.38,.83,.38,1.31h-1.13c0-.52-.16-.92-.49-1.22s-.79-.44-1.39-.44c-.55,0-.99,.12-1.3,.37-.31,.24-.47,.58-.47,1.02,0,.35,.15,.64,.44,.88s.8,.46,1.51,.66c.71,.2,1.26,.42,1.66,.66s.7,.52,.89,.84,.29,.7,.29,1.13c0,.69-.27,1.25-.81,1.66s-1.26,.62-2.16,.62c-.59,0-1.13-.11-1.64-.34s-.9-.53-1.17-.92-.41-.83-.41-1.33h1.13c0,.52,.19,.92,.57,1.22s.89,.45,1.53,.45c.59,0,1.05-.12,1.37-.36s.47-.57,.47-.99-.15-.74-.44-.97-.82-.45-1.59-.68Z"/><path class="cls-9" d="M637.07,533.32c-.96-.28-1.67-.62-2.11-1.02s-.66-.9-.66-1.5c0-.67,.27-1.23,.81-1.67s1.24-.66,2.09-.66c.59,0,1.11,.11,1.57,.34s.81,.54,1.07,.94,.38,.83,.38,1.31h-1.13c0-.52-.16-.92-.49-1.22s-.79-.44-1.39-.44c-.55,0-.99,.12-1.3,.37-.31,.24-.47,.58-.47,1.02,0,.35,.15,.64,.44,.88s.8,.46,1.51,.66c.71,.2,1.26,.42,1.66,.66s.7,.52,.89,.84,.29,.7,.29,1.13c0,.69-.27,1.25-.81,1.66s-1.26,.62-2.16,.62c-.59,0-1.13-.11-1.64-.34s-.9-.53-1.17-.92-.41-.83-.41-1.33h1.13c0,.52,.19,.92,.57,1.22s.89,.45,1.53,.45c.59,0,1.05-.12,1.37-.36s.47-.57,.47-.99-.15-.74-.44-.97-.82-.45-1.59-.68Z"/></g><g><path class="cls-9" d="M445.52,123.2c-.16,1.35-.66,2.4-1.5,3.13s-1.96,1.1-3.35,1.1c-1.51,0-2.72-.54-3.63-1.63s-1.37-2.53-1.37-4.35v-1.23c0-1.19,.21-2.24,.64-3.14s1.03-1.6,1.81-2.08,1.68-.73,2.71-.73c1.36,0,2.45,.38,3.27,1.14s1.3,1.81,1.43,3.15h-1.7c-.15-1.02-.46-1.76-.95-2.22s-1.17-.69-2.05-.69c-1.08,0-1.92,.4-2.54,1.2-.61,.8-.92,1.93-.92,3.4v1.24c0,1.39,.29,2.5,.87,3.32s1.39,1.23,2.43,1.23c.94,0,1.66-.21,2.16-.64s.83-1.16,1-2.22h1.7Z"/><path class="cls-9" d="M449.34,127.26h-1.63v-13.5h1.63v13.5Z"/><path class="cls-9" d="M451.51,122.42c0-.93,.18-1.77,.55-2.51s.88-1.32,1.53-1.72,1.4-.61,2.24-.61c1.29,0,2.34,.45,3.14,1.34s1.2,2.09,1.2,3.58v.11c0,.93-.18,1.76-.53,2.49s-.86,1.31-1.52,1.72-1.42,.62-2.27,.62c-1.29,0-2.33-.45-3.13-1.34s-1.2-2.08-1.2-3.56v-.11Zm1.63,.19c0,1.05,.24,1.9,.73,2.54s1.14,.96,1.96,.96,1.48-.32,1.97-.97,.73-1.55,.73-2.72c0-1.04-.25-1.89-.74-2.54s-1.15-.97-1.97-.97-1.45,.32-1.94,.96-.74,1.55-.74,2.74Z"/><path class="cls-9" d="M466.02,126.11c.58,0,1.09-.18,1.52-.53s.67-.79,.72-1.32h1.54c-.03,.54-.22,1.06-.56,1.56s-.81,.88-1.38,1.18-1.19,.44-1.83,.44c-1.29,0-2.32-.43-3.09-1.3s-1.15-2.05-1.15-3.55v-.27c0-.93,.17-1.75,.51-2.47s.83-1.28,1.46-1.68,1.39-.6,2.25-.6c1.07,0,1.95,.32,2.66,.96s1.08,1.47,1.13,2.49h-1.54c-.05-.62-.28-1.12-.7-1.52s-.94-.59-1.55-.59c-.83,0-1.47,.3-1.92,.89s-.68,1.45-.68,2.58v.31c0,1.1,.23,1.94,.68,2.53s1.1,.89,1.93,.89Z"/><path class="cls-9" d="M474.28,122.86l-1.02,1.06v3.34h-1.63v-13.5h1.63v8.17l.87-1.05,2.96-3.13h1.98l-3.7,3.97,4.13,5.54h-1.91l-3.31-4.4Z"/><path class="cls-9" d="M442.09,148.86h-1.69v-12.8h1.69v12.8Z"/><path class="cls-9" d="M446.45,139.35l.05,1.2c.73-.91,1.68-1.37,2.85-1.37,2.01,0,3.02,1.13,3.04,3.4v6.28h-1.63v-6.29c0-.69-.16-1.19-.47-1.52s-.79-.49-1.44-.49c-.53,0-.99,.14-1.39,.42s-.71,.65-.93,1.11v6.78h-1.63v-9.51h1.54Z"/><path class="cls-9" d="M462.88,144.21c0,1.45-.33,2.61-.99,3.5s-1.56,1.33-2.69,1.33-2.06-.37-2.72-1.1v4.58h-1.63v-13.17h1.49l.08,1.05c.66-.82,1.58-1.23,2.76-1.23s2.05,.43,2.71,1.29,1,2.06,1,3.59v.15Zm-1.63-.18c0-1.07-.23-1.92-.69-2.54s-1.08-.93-1.88-.93c-.98,0-1.72,.44-2.21,1.31v4.54c.49,.87,1.23,1.3,2.23,1.3,.78,0,1.4-.31,1.86-.93s.69-1.54,.69-2.76Z"/><path class="cls-9" d="M470.82,147.92c-.63,.74-1.56,1.12-2.79,1.12-1.01,0-1.79-.29-2.32-.88s-.8-1.46-.8-2.61v-6.19h1.63v6.14c0,1.44,.59,2.16,1.76,2.16,1.24,0,2.07-.46,2.48-1.39v-6.92h1.63v9.51h-1.55l-.04-.94Z"/><path class="cls-9" d="M477.07,137.05v2.3h1.78v1.26h-1.78v5.9c0,.38,.08,.67,.24,.86,.16,.19,.43,.29,.81,.29,.19,0,.45-.04,.77-.11v1.31c-.43,.12-.84,.17-1.25,.17-.73,0-1.27-.22-1.64-.66s-.55-1.06-.55-1.87v-5.9h-1.73v-1.26h1.73v-2.3h1.63Z"/></g><g><path class="cls-9" d="M440.38,207.04h-3.01v5.18h-1.7v-12.8h4.24c1.44,0,2.55,.33,3.33,.98s1.16,1.61,1.16,2.87c0,.8-.22,1.49-.65,2.08s-1.03,1.03-1.8,1.33l3.01,5.43v.11h-1.81l-2.78-5.18Zm-3.01-1.38h2.59c.84,0,1.5-.22,2-.65,.5-.43,.74-1.02,.74-1.74,0-.79-.24-1.4-.71-1.82-.47-.42-1.15-.64-2.04-.64h-2.58v4.86Z"/><path class="cls-9" d="M450.46,212.4c-1.29,0-2.34-.42-3.15-1.27s-1.21-1.98-1.21-3.4v-.3c0-.94,.18-1.79,.54-2.53s.86-1.32,1.51-1.74,1.35-.63,2.1-.63c1.24,0,2.2,.41,2.88,1.22s1.03,1.98,1.03,3.5v.68h-6.44c.02,.94,.3,1.69,.82,2.27s1.19,.87,2,.87c.57,0,1.06-.12,1.46-.35s.75-.54,1.05-.93l.99,.77c-.8,1.22-1.99,1.84-3.59,1.84Zm-.2-8.53c-.66,0-1.21,.24-1.65,.72s-.72,1.15-.83,2.01h4.76v-.12c-.05-.83-.27-1.47-.67-1.92s-.94-.68-1.62-.68Z"/><path class="cls-9" d="M461.59,209.7c0-.44-.17-.78-.5-1.02s-.91-.45-1.73-.63-1.48-.39-1.96-.63-.84-.54-1.07-.88-.35-.74-.35-1.21c0-.78,.33-1.44,.99-1.98s1.5-.81,2.53-.81c1.08,0,1.95,.28,2.62,.83s1.01,1.27,1.01,2.14h-1.63c0-.45-.19-.83-.57-1.15s-.85-.48-1.43-.48-1.05,.13-1.39,.39-.5,.59-.5,1.01c0,.39,.16,.69,.47,.89s.87,.39,1.68,.57,1.47,.4,1.97,.65,.88,.56,1.12,.91,.36,.79,.36,1.3c0,.85-.34,1.53-1.02,2.04s-1.56,.77-2.65,.77c-.76,0-1.44-.13-2.02-.4s-1.04-.65-1.38-1.13-.5-1.01-.5-1.57h1.63c.03,.54,.25,.98,.65,1.3s.94,.48,1.61,.48c.62,0,1.11-.12,1.48-.37s.56-.58,.56-1Z"/><path class="cls-9" d="M469.28,212.4c-1.29,0-2.34-.42-3.15-1.27s-1.21-1.98-1.21-3.4v-.3c0-.94,.18-1.79,.54-2.53s.86-1.32,1.51-1.74,1.35-.63,2.1-.63c1.24,0,2.2,.41,2.88,1.22s1.03,1.98,1.03,3.5v.68h-6.44c.02,.94,.3,1.69,.82,2.27s1.19,.87,2,.87c.57,0,1.06-.12,1.46-.35s.75-.54,1.05-.93l.99,.77c-.8,1.22-1.99,1.84-3.59,1.84Zm-.2-8.53c-.66,0-1.21,.24-1.65,.72s-.72,1.15-.83,2.01h4.76v-.12c-.05-.83-.27-1.47-.67-1.92s-.94-.68-1.62-.68Z"/><path class="cls-9" d="M477.07,200.41v2.3h1.78v1.26h-1.78v5.9c0,.38,.08,.67,.24,.86,.16,.19,.43,.29,.81,.29,.19,0,.45-.04,.77-.11v1.31c-.43,.12-.84,.17-1.25,.17-.73,0-1.27-.22-1.64-.66s-.55-1.06-.55-1.87v-5.9h-1.73v-1.26h1.73v-2.3h1.63Z"/></g><g><path class="cls-9" d="M605.57,68.32l3.66-10.56h1.85l-4.75,12.8h-1.49l-4.74-12.8h1.84l3.64,10.56Z"/><path class="cls-9" d="M612.29,70.56v-8.53h2.41c.74,0,1.4,.16,1.97,.49s1.01,.79,1.32,1.4,.47,1.3,.47,2.09v.54c0,.8-.16,1.51-.47,2.12s-.75,1.07-1.33,1.39-1.25,.49-2.01,.5h-2.36Zm1.12-7.61v6.69h1.18c.87,0,1.54-.27,2.02-.81s.72-1.31,.72-2.31v-.5c0-.97-.23-1.72-.68-2.26-.46-.54-1.1-.81-1.94-.82h-1.31Z"/><path class="cls-9" d="M620.16,70.56v-8.53h2.41c.74,0,1.4,.16,1.97,.49s1.01,.79,1.32,1.4,.47,1.3,.47,2.09v.54c0,.8-.16,1.51-.47,2.12s-.75,1.07-1.33,1.39-1.25,.49-2.01,.5h-2.36Zm1.12-7.61v6.69h1.18c.87,0,1.54-.27,2.02-.81s.72-1.31,.72-2.31v-.5c0-.97-.23-1.72-.68-2.26-.46-.54-1.1-.81-1.94-.82h-1.31Z"/></g><g><path class="cls-9" d="M733.72,134.41h-8.77v-1.62h8.77v1.62Zm-5.34-4.38c0-.28,.08-.52,.25-.7s.42-.28,.75-.28,.59,.09,.76,.28,.26,.42,.26,.7-.09,.5-.26,.69-.43,.27-.76,.27-.58-.09-.75-.27-.25-.41-.25-.69Zm0,7.18c0-.28,.08-.52,.25-.7s.42-.28,.75-.28,.59,.09,.76,.28,.26,.42,.26,.7-.09,.5-.26,.68-.43,.28-.76,.28-.58-.09-.75-.28-.25-.41-.25-.68Z"/><path class="cls-9" d="M744.04,139.68h-8.38v-1.17l4.43-4.92c.66-.74,1.11-1.35,1.36-1.81s.37-.95,.37-1.45c0-.67-.2-1.22-.61-1.64s-.94-.64-1.62-.64c-.81,0-1.44,.23-1.89,.69s-.67,1.1-.67,1.92h-1.63c0-1.18,.38-2.13,1.14-2.86s1.77-1.09,3.05-1.09c1.19,0,2.13,.31,2.82,.94s1.04,1.45,1.04,2.49c0,1.26-.8,2.76-2.41,4.5l-3.43,3.72h6.42v1.33Z"/><path class="cls-9" d="M749.32,131.18h1.03v.77h-1.03v1.73h-.95v-1.73h-3.4v-.56l3.34-5.17h1.01v4.95Zm-3.27,0h2.32v-3.66l-.11,.2-2.21,3.45Z"/></g><g><path class="cls-9" d="M733.71,168.97h-8.77v-1.62h8.77v1.62Zm-5.34-4.38c0-.28,.08-.52,.25-.7,.17-.19,.42-.28,.75-.28s.59,.09,.76,.28c.17,.19,.26,.42,.26,.7s-.09,.5-.26,.69c-.17,.18-.43,.27-.76,.27s-.58-.09-.75-.27c-.17-.18-.25-.41-.25-.69Zm0,7.18c0-.28,.08-.52,.25-.7,.17-.19,.42-.28,.75-.28s.59,.09,.76,.28c.17,.19,.26,.42,.26,.7s-.09,.5-.26,.68c-.17,.18-.43,.28-.76,.28s-.58-.09-.75-.28c-.17-.18-.25-.41-.25-.68Z"/><path class="cls-9" d="M744.04,174.24h-8.38v-1.17l4.43-4.92c.66-.74,1.11-1.35,1.36-1.81,.25-.47,.37-.95,.37-1.45,0-.67-.2-1.22-.61-1.64s-.94-.64-1.62-.64c-.81,0-1.44,.23-1.89,.69-.45,.46-.67,1.1-.67,1.92h-1.63c0-1.18,.38-2.13,1.14-2.86,.76-.73,1.77-1.09,3.05-1.09,1.19,0,2.13,.31,2.82,.94s1.04,1.45,1.04,2.49c0,1.26-.8,2.76-2.41,4.5l-3.43,3.72h6.42v1.33Z"/><path class="cls-9" d="M745.76,164.5l.38-3.72h3.82v.88h-3.02l-.23,2.03c.37-.21,.78-.32,1.25-.32,.68,0,1.22,.22,1.62,.67s.6,1.06,.6,1.82-.21,1.37-.62,1.82c-.42,.44-1,.66-1.74,.66-.66,0-1.2-.18-1.61-.55-.42-.37-.65-.87-.71-1.52h.9c.06,.43,.21,.75,.46,.97,.25,.22,.57,.33,.97,.33,.44,0,.79-.15,1.04-.45,.25-.3,.38-.72,.38-1.25,0-.5-.13-.9-.41-1.2-.27-.3-.63-.45-1.08-.45-.41,0-.74,.09-.97,.27l-.25,.21-.76-.19Z"/></g><g><path class="cls-9" d="M733.71,204.97h-8.77v-1.62h8.77v1.62Zm-5.34-4.38c0-.28,.08-.52,.25-.7s.42-.28,.75-.28,.59,.09,.76,.28,.26,.42,.26,.7-.09,.5-.26,.69-.43,.27-.76,.27-.58-.09-.75-.27-.25-.41-.25-.69Zm0,7.18c0-.28,.08-.52,.25-.7s.42-.28,.75-.28,.59,.09,.76,.28,.26,.42,.26,.7-.09,.5-.26,.68-.43,.28-.76,.28-.58-.09-.75-.28-.25-.41-.25-.68Z"/><path class="cls-9" d="M744.04,210.24h-8.38v-1.17l4.43-4.92c.66-.74,1.11-1.35,1.36-1.81s.37-.95,.37-1.45c0-.67-.2-1.22-.61-1.64s-.94-.64-1.62-.64c-.81,0-1.44,.23-1.88,.69s-.67,1.1-.67,1.92h-1.63c0-1.18,.38-2.13,1.14-2.86s1.77-1.09,3.04-1.09c1.19,0,2.13,.31,2.82,.94s1.04,1.45,1.04,2.49c0,1.26-.8,2.76-2.41,4.5l-3.43,3.72h6.42v1.33Z"/><path class="cls-9" d="M749.04,196.78v.8h-.17c-.74,.01-1.33,.23-1.76,.66-.44,.42-.69,1.02-.76,1.79,.39-.45,.93-.68,1.61-.68s1.17,.23,1.56,.69c.39,.46,.58,1.05,.58,1.77,0,.77-.21,1.38-.63,1.84-.42,.46-.98,.69-1.68,.69s-1.29-.27-1.74-.82c-.44-.55-.67-1.25-.67-2.12v-.36c0-1.37,.29-2.42,.88-3.15,.59-.73,1.46-1.1,2.62-1.11h.17Zm-1.25,3.36c-.32,0-.62,.1-.9,.29-.27,.19-.46,.44-.57,.73v.35c0,.61,.14,1.11,.42,1.49,.28,.38,.62,.56,1.04,.56s.76-.16,1.01-.47,.37-.73,.37-1.23-.12-.93-.37-1.24c-.25-.32-.58-.47-.99-.47Z"/></g><g><path class="cls-9" d="M733.71,240.97h-8.77v-1.62h8.77v1.62Zm-5.34-4.38c0-.28,.08-.52,.25-.7s.42-.28,.75-.28,.59,.09,.76,.28,.26,.42,.26,.7-.09,.5-.26,.69-.43,.27-.76,.27-.58-.09-.75-.27-.25-.41-.25-.69Zm0,7.18c0-.28,.08-.52,.25-.7s.42-.28,.75-.28,.59,.09,.76,.28,.26,.42,.26,.7-.09,.5-.26,.68-.43,.28-.76,.28-.58-.09-.75-.28-.25-.41-.25-.68Z"/><path class="cls-9" d="M744.04,246.24h-8.38v-1.17l4.43-4.92c.66-.74,1.11-1.35,1.36-1.81s.37-.95,.37-1.45c0-.67-.2-1.22-.61-1.64s-.94-.64-1.62-.64c-.81,0-1.44,.23-1.88,.69s-.67,1.1-.67,1.92h-1.63c0-1.18,.38-2.13,1.14-2.86s1.77-1.09,3.04-1.09c1.19,0,2.13,.31,2.82,.94s1.04,1.45,1.04,2.49c0,1.26-.8,2.76-2.41,4.5l-3.43,3.72h6.42v1.33Z"/><path class="cls-9" d="M750.14,233.32l-3.09,6.93h-.99l3.08-6.68h-4.04v-.78h5.04v.53Z"/></g><g><path class="cls-9" d="M733.71,276.97h-8.77v-1.62h8.77v1.62Zm-5.34-4.38c0-.28,.08-.52,.25-.7s.42-.28,.75-.28,.59,.09,.76,.28,.26,.42,.26,.7-.09,.5-.26,.69-.43,.27-.76,.27-.58-.09-.75-.27-.25-.41-.25-.69Zm0,7.18c0-.28,.08-.52,.25-.7s.42-.28,.75-.28,.59,.09,.76,.28,.26,.42,.26,.7-.09,.5-.26,.68-.43,.28-.76,.28-.58-.09-.75-.28-.25-.41-.25-.68Z"/><path class="cls-9" d="M744.04,282.24h-8.38v-1.17l4.43-4.92c.66-.74,1.11-1.35,1.36-1.82s.37-.95,.37-1.45c0-.67-.2-1.22-.61-1.64s-.94-.64-1.62-.64c-.81,0-1.44,.23-1.88,.69s-.67,1.1-.67,1.92h-1.63c0-1.18,.38-2.13,1.14-2.86s1.77-1.09,3.04-1.09c1.19,0,2.13,.31,2.82,.94s1.04,1.46,1.04,2.49c0,1.26-.8,2.76-2.41,4.5l-3.43,3.72h6.42v1.33Z"/><path class="cls-9" d="M749.84,270.73c0,.37-.1,.7-.29,.99-.2,.29-.46,.52-.8,.68,.39,.17,.7,.41,.92,.73,.23,.32,.34,.68,.34,1.09,0,.65-.22,1.16-.65,1.54s-1.01,.57-1.72,.57-1.29-.19-1.72-.58c-.43-.38-.65-.9-.65-1.54,0-.4,.11-.77,.33-1.09,.22-.32,.53-.57,.92-.74-.33-.16-.59-.39-.78-.68-.19-.29-.29-.62-.29-.99,0-.63,.2-1.13,.6-1.5,.4-.37,.93-.55,1.59-.55s1.19,.18,1.59,.55c.41,.37,.61,.87,.61,1.5Zm-.77,3.48c0-.42-.13-.76-.4-1.02-.26-.26-.61-.39-1.04-.39s-.77,.13-1.03,.39-.39,.6-.39,1.03,.12,.76,.38,1,.6,.36,1.05,.36,.79-.12,1.05-.37c.25-.24,.38-.58,.38-1Zm-1.42-4.75c-.37,0-.67,.12-.9,.35s-.35,.54-.35,.94,.11,.69,.34,.92c.23,.23,.53,.35,.91,.35s.68-.12,.91-.35c.23-.23,.34-.54,.34-.92s-.12-.69-.35-.93c-.24-.24-.54-.36-.9-.36Z"/></g><g><path class="cls-9" d="M733.71,312.97h-8.77v-1.62h8.77v1.62Zm-5.34-4.38c0-.28,.08-.52,.25-.7s.42-.28,.75-.28,.59,.09,.76,.28,.26,.42,.26,.7-.09,.5-.26,.69-.43,.27-.76,.27-.58-.09-.75-.27-.25-.41-.25-.69Zm0,7.18c0-.28,.08-.52,.25-.7s.42-.28,.75-.28,.59,.09,.76,.28,.26,.42,.26,.7-.09,.5-.26,.68-.43,.28-.76,.28-.58-.09-.75-.28-.25-.41-.25-.68Z"/><path class="cls-9" d="M744.04,318.24h-8.38v-1.17l4.43-4.92c.66-.74,1.11-1.35,1.36-1.81s.37-.95,.37-1.45c0-.67-.2-1.22-.61-1.64s-.94-.64-1.62-.64c-.81,0-1.44,.23-1.89,.69s-.67,1.1-.67,1.92h-1.63c0-1.18,.38-2.13,1.14-2.86s1.77-1.09,3.05-1.09c1.19,0,2.13,.31,2.82,.94s1.04,1.45,1.04,2.49c0,1.26-.8,2.76-2.41,4.5l-3.43,3.72h6.42v1.33Z"/><path class="cls-9" d="M748.95,308.97c-.2,.24-.43,.43-.71,.57s-.58,.21-.9,.21c-.43,0-.81-.11-1.12-.32s-.57-.51-.74-.89c-.17-.38-.26-.81-.26-1.27,0-.5,.1-.95,.29-1.35s.46-.71,.81-.92,.75-.32,1.22-.32c.74,0,1.32,.28,1.74,.83,.43,.55,.64,1.3,.64,2.26v.28c0,1.45-.29,2.51-.86,3.18-.57,.67-1.44,1.01-2.6,1.03h-.18v-.8h.2c.78-.01,1.38-.22,1.8-.61,.42-.39,.65-1.02,.69-1.87Zm-1.46,0c.32,0,.61-.1,.88-.29,.27-.19,.46-.44,.59-.72v-.38c0-.62-.13-1.13-.41-1.52-.27-.39-.61-.58-1.02-.58s-.75,.16-1,.48-.38,.74-.38,1.26,.12,.93,.37,1.26c.24,.33,.57,.49,.98,.49Z"/></g><g><path class="cls-9" d="M733.71,348.97h-8.77v-1.62h8.77v1.62Zm-5.34-4.38c0-.28,.08-.52,.25-.7s.42-.28,.75-.28,.59,.09,.76,.28,.26,.42,.26,.7-.09,.5-.26,.69-.43,.27-.76,.27-.58-.09-.75-.27-.25-.41-.25-.69Zm0,7.18c0-.28,.08-.52,.25-.7s.42-.28,.75-.28,.59,.09,.76,.28,.26,.42,.26,.7-.09,.5-.26,.68-.43,.28-.76,.28-.58-.09-.75-.28-.25-.41-.25-.68Z"/><path class="cls-9" d="M744.04,354.24h-8.38v-1.17l4.43-4.92c.66-.74,1.11-1.35,1.36-1.81s.37-.95,.37-1.45c0-.67-.2-1.22-.61-1.64s-.94-.64-1.62-.64c-.81,0-1.44,.23-1.88,.69s-.67,1.1-.67,1.92h-1.63c0-1.18,.38-2.13,1.14-2.86s1.77-1.09,3.04-1.09c1.19,0,2.13,.31,2.82,.94s1.04,1.45,1.04,2.49c0,1.26-.8,2.76-2.41,4.5l-3.43,3.72h6.42v1.33Z"/><path class="cls-9" d="M748.44,348.25h-.95v-6.32l-1.91,.7v-.86l2.72-1.02h.15v7.5Z"/><path class="cls-9" d="M755.89,345.06c0,1.11-.19,1.94-.57,2.47-.38,.54-.97,.81-1.78,.81s-1.39-.26-1.77-.79c-.38-.53-.58-1.32-.59-2.37v-1.27c0-1.1,.19-1.91,.57-2.44,.38-.53,.97-.8,1.78-.8s1.39,.26,1.77,.77c.38,.51,.57,1.31,.58,2.38v1.23Zm-.95-1.3c0-.8-.11-1.39-.34-1.75s-.58-.55-1.07-.55-.84,.18-1.06,.55c-.22,.37-.34,.93-.34,1.69v1.52c0,.81,.12,1.4,.35,1.79,.23,.38,.59,.58,1.06,.58s.82-.18,1.04-.54c.23-.36,.35-.93,.36-1.71v-1.55Z"/></g><g><path class="cls-9" d="M733.71,384.97h-8.77v-1.62h8.77v1.62Zm-5.34-4.38c0-.28,.08-.52,.25-.7s.42-.28,.75-.28,.59,.09,.76,.28,.26,.42,.26,.7-.09,.5-.26,.69-.43,.27-.76,.27-.58-.09-.75-.27-.25-.41-.25-.69Zm0,7.18c0-.28,.08-.52,.25-.7s.42-.28,.75-.28,.59,.09,.76,.28,.26,.42,.26,.7-.09,.5-.26,.68-.43,.28-.76,.28-.58-.09-.75-.28-.25-.41-.25-.68Z"/><path class="cls-9" d="M744.04,390.24h-8.38v-1.17l4.43-4.92c.66-.74,1.11-1.35,1.36-1.82s.37-.95,.37-1.45c0-.67-.2-1.22-.61-1.64s-.94-.64-1.62-.64c-.81,0-1.44,.23-1.88,.69s-.67,1.1-.67,1.92h-1.63c0-1.18,.38-2.13,1.14-2.86s1.77-1.09,3.04-1.09c1.19,0,2.13,.31,2.82,.94s1.04,1.46,1.04,2.49c0,1.26-.8,2.76-2.41,4.5l-3.43,3.72h6.42v1.33Z"/><path class="cls-9" d="M748.44,384.25h-.95v-6.32l-1.91,.7v-.86l2.72-1.02h.15v7.5Z"/><path class="cls-9" d="M756.1,384.25h-4.89v-.68l2.58-2.87c.38-.43,.65-.79,.79-1.06,.15-.27,.22-.55,.22-.84,0-.39-.12-.71-.35-.96-.24-.25-.55-.37-.94-.37-.47,0-.84,.13-1.1,.4-.26,.27-.39,.64-.39,1.12h-.95c0-.69,.22-1.24,.66-1.67s1.03-.64,1.78-.64c.69,0,1.24,.18,1.64,.55s.6,.85,.6,1.45c0,.73-.47,1.61-1.4,2.62l-2,2.17h3.75v.77Z"/></g><g><path class="cls-9" d="M123.04,36h-1.63v-10.84l-3.28,1.2v-1.48l4.66-1.75h.25v12.86Z"/><path class="cls-9" d="M134.67,31.7h1.78v1.33h-1.78v2.97h-1.63v-2.97h-5.83v-.96l5.73-8.87h1.73v8.5Zm-5.62,0h3.98v-6.28l-.19,.35-3.79,5.92Z"/><path class="cls-9" d="M146.56,30.3c-1.45-.42-2.5-.93-3.16-1.53s-.99-1.35-.99-2.25c0-1.01,.4-1.84,1.21-2.5s1.85-.99,3.14-.99c.88,0,1.66,.17,2.35,.51s1.22,.81,1.6,1.41,.57,1.25,.57,1.96h-1.7c0-.78-.25-1.39-.74-1.83s-1.19-.67-2.08-.67c-.83,0-1.48,.18-1.95,.55-.47,.37-.7,.88-.7,1.53,0,.52,.22,.96,.66,1.33s1.2,.69,2.26,.99,1.9,.63,2.5,.99,1.05,.78,1.34,1.26,.44,1.05,.44,1.7c0,1.04-.4,1.87-1.21,2.49s-1.89,.94-3.24,.94c-.88,0-1.7-.17-2.46-.51s-1.35-.8-1.76-1.38-.62-1.25-.62-2h1.7c0,.77,.29,1.38,.86,1.83s1.33,.67,2.29,.67c.89,0,1.57-.18,2.05-.54s.71-.86,.71-1.49-.22-1.11-.66-1.45-1.24-.68-2.39-1.02Z"/><path class="cls-9" d="M155.42,24.19v2.3h1.78v1.26h-1.78v5.9c0,.38,.08,.67,.24,.86,.16,.19,.43,.29,.81,.29,.19,0,.45-.04,.77-.11v1.31c-.43,.12-.84,.17-1.25,.17-.73,0-1.27-.22-1.64-.66s-.55-1.06-.55-1.87v-5.9h-1.73v-1.26h1.73v-2.3h1.63Z"/><path class="cls-9" d="M164.97,36c-.09-.19-.17-.52-.23-1-.76,.79-1.66,1.18-2.71,1.18-.94,0-1.71-.27-2.31-.8s-.9-1.2-.9-2.02c0-.99,.38-1.76,1.13-2.31s1.81-.82,3.18-.82h1.58v-.75c0-.57-.17-1.02-.51-1.36s-.84-.51-1.5-.51c-.58,0-1.07,.15-1.46,.44s-.59,.65-.59,1.06h-1.63c0-.47,.17-.93,.51-1.38s.79-.79,1.37-1.05,1.21-.39,1.9-.39c1.1,0,1.95,.27,2.58,.82s.94,1.3,.97,2.26v4.38c0,.87,.11,1.57,.33,2.08v.14h-1.71Zm-2.7-1.24c.51,0,.99-.13,1.45-.4s.79-.61,.99-1.03v-1.95h-1.27c-1.99,0-2.99,.58-2.99,1.75,0,.51,.17,.91,.51,1.2s.78,.43,1.31,.43Z"/><path class="cls-9" d="M168.5,31.17c0-1.48,.34-2.66,1.03-3.54s1.59-1.31,2.72-1.31,2.07,.41,2.72,1.23l.08-1.05h1.49v9.28c0,1.23-.36,2.2-1.09,2.91s-1.71,1.06-2.94,1.06c-.69,0-1.36-.15-2.01-.44s-1.16-.69-1.5-1.2l.84-.98c.7,.86,1.55,1.29,2.56,1.29,.79,0,1.41-.22,1.85-.67s.66-1.07,.66-1.88v-.82c-.65,.75-1.54,1.12-2.66,1.12s-2.01-.45-2.7-1.34-1.03-2.12-1.03-3.67Zm1.63,.18c0,1.07,.22,1.91,.66,2.53s1.05,.92,1.85,.92c1.03,0,1.78-.47,2.26-1.4v-4.34c-.5-.91-1.25-1.36-2.24-1.36-.79,0-1.41,.31-1.85,.92s-.67,1.53-.67,2.73Z"/><path class="cls-9" d="M182.93,36.18c-1.29,0-2.34-.42-3.15-1.27s-1.21-1.98-1.21-3.4v-.3c0-.94,.18-1.79,.54-2.53s.86-1.32,1.51-1.74,1.35-.63,2.1-.63c1.24,0,2.2,.41,2.88,1.22s1.03,1.98,1.03,3.5v.68h-6.44c.02,.94,.3,1.69,.82,2.27s1.19,.87,2,.87c.57,0,1.06-.12,1.46-.35s.75-.54,1.05-.93l.99,.77c-.8,1.22-1.99,1.84-3.59,1.84Zm-.2-8.53c-.66,0-1.21,.24-1.65,.72s-.72,1.15-.83,2.01h4.76v-.12c-.05-.83-.27-1.47-.67-1.92s-.94-.68-1.62-.68Z"/><path class="cls-9" d="M193.23,36v-12.8h4.18c1.39,0,2.43,.29,3.13,.86s1.05,1.42,1.05,2.55c0,.6-.17,1.13-.51,1.59s-.8,.82-1.39,1.07c.69,.19,1.24,.56,1.64,1.1s.6,1.19,.6,1.94c0,1.15-.37,2.05-1.12,2.71s-1.8,.98-3.16,.98h-4.44Zm1.69-7.34h2.55c.74,0,1.33-.19,1.77-.55,.44-.37,.66-.87,.66-1.51,0-.7-.21-1.22-.62-1.54-.41-.32-1.03-.48-1.87-.48h-2.5v4.08Zm0,1.35v4.61h2.79c.79,0,1.4-.2,1.86-.61s.68-.97,.68-1.68c0-1.54-.84-2.31-2.51-2.31h-2.81Z"/><path class="cls-9" d="M204.19,23.97c0-.26,.08-.49,.24-.67s.4-.27,.72-.27,.56,.09,.72,.27,.25,.4,.25,.67-.08,.48-.25,.66-.4,.26-.72,.26-.56-.09-.72-.26-.24-.4-.24-.66Zm1.76,12.03h-1.63v-9.51h1.63v9.51Z"/><path class="cls-9" d="M210.09,26.49l.05,1.2c.73-.91,1.68-1.37,2.85-1.37,2.01,0,3.02,1.13,3.04,3.4v6.28h-1.63v-6.29c0-.69-.16-1.19-.47-1.52s-.79-.49-1.44-.49c-.53,0-.99,.14-1.39,.42s-.71,.65-.93,1.11v6.78h-1.63v-9.51h1.54Z"/><path class="cls-9" d="M224.35,36c-.09-.19-.17-.52-.23-1-.76,.79-1.66,1.18-2.71,1.18-.94,0-1.71-.27-2.31-.8s-.9-1.2-.9-2.02c0-.99,.38-1.76,1.13-2.31s1.81-.82,3.18-.82h1.58v-.75c0-.57-.17-1.02-.51-1.36s-.84-.51-1.5-.51c-.58,0-1.07,.15-1.46,.44s-.59,.65-.59,1.06h-1.63c0-.47,.17-.93,.51-1.38s.79-.79,1.37-1.05,1.21-.39,1.9-.39c1.1,0,1.95,.27,2.58,.82s.94,1.3,.97,2.26v4.38c0,.87,.11,1.57,.33,2.08v.14h-1.71Zm-2.7-1.24c.51,0,.99-.13,1.45-.4s.79-.61,.99-1.03v-1.95h-1.27c-1.99,0-2.99,.58-2.99,1.75,0,.51,.17,.91,.51,1.2s.78,.43,1.31,.43Z"/><path class="cls-9" d="M232.87,27.95c-.25-.04-.51-.06-.8-.06-1.07,0-1.79,.45-2.17,1.36v6.75h-1.63v-9.51h1.58l.03,1.1c.53-.85,1.29-1.27,2.27-1.27,.32,0,.56,.04,.72,.12v1.51Z"/><path class="cls-9" d="M237.63,33.62l2.21-7.13h1.74l-3.82,10.98c-.59,1.58-1.53,2.37-2.82,2.37l-.31-.03-.61-.11v-1.32l.44,.04c.55,0,.98-.11,1.29-.33s.56-.63,.76-1.22l.36-.97-3.39-9.4h1.78l2.37,7.13Z"/><path class="cls-9" d="M257.16,31.94c-.16,1.35-.66,2.4-1.5,3.13s-1.96,1.1-3.35,1.1c-1.51,0-2.72-.54-3.63-1.63s-1.37-2.53-1.37-4.35v-1.23c0-1.19,.21-2.24,.64-3.14s1.03-1.6,1.81-2.08,1.68-.73,2.71-.73c1.36,0,2.45,.38,3.27,1.14s1.3,1.81,1.43,3.15h-1.7c-.15-1.02-.46-1.76-.95-2.22s-1.17-.69-2.05-.69c-1.08,0-1.92,.4-2.54,1.2-.61,.8-.92,1.93-.92,3.4v1.24c0,1.39,.29,2.5,.87,3.32s1.39,1.23,2.43,1.23c.94,0,1.66-.21,2.16-.64s.83-1.16,1-2.22h1.7Z"/><path class="cls-9" d="M258.78,31.16c0-.93,.18-1.77,.55-2.51s.88-1.32,1.53-1.72,1.4-.61,2.24-.61c1.29,0,2.34,.45,3.14,1.34s1.2,2.09,1.2,3.58v.11c0,.93-.18,1.76-.53,2.49s-.86,1.31-1.52,1.72-1.42,.62-2.27,.62c-1.29,0-2.33-.45-3.13-1.34s-1.2-2.08-1.2-3.56v-.11Zm1.63,.19c0,1.05,.24,1.9,.73,2.54s1.14,.96,1.96,.96,1.48-.32,1.97-.97,.73-1.55,.73-2.72c0-1.04-.25-1.89-.74-2.54s-1.15-.97-1.97-.97-1.45,.32-1.94,.96-.74,1.55-.74,2.74Z"/><path class="cls-9" d="M275.35,35.06c-.63,.74-1.56,1.12-2.79,1.12-1.01,0-1.79-.29-2.32-.88s-.8-1.46-.8-2.61v-6.19h1.63v6.14c0,1.44,.59,2.16,1.76,2.16,1.24,0,2.07-.46,2.48-1.39v-6.92h1.63v9.51h-1.55l-.04-.94Z"/><path class="cls-9" d="M280.94,26.49l.05,1.2c.73-.91,1.68-1.37,2.85-1.37,2.01,0,3.02,1.13,3.04,3.4v6.28h-1.63v-6.29c0-.69-.16-1.19-.47-1.52s-.79-.49-1.44-.49c-.53,0-.99,.14-1.39,.42s-.71,.65-.93,1.11v6.78h-1.63v-9.51h1.54Z"/><path class="cls-9" d="M291.54,24.19v2.3h1.78v1.26h-1.78v5.9c0,.38,.08,.67,.24,.86,.16,.19,.43,.29,.81,.29,.19,0,.45-.04,.77-.11v1.31c-.43,.12-.84,.17-1.25,.17-.73,0-1.27-.22-1.64-.66s-.55-1.06-.55-1.87v-5.9h-1.73v-1.26h1.73v-2.3h1.63Z"/><path class="cls-9" d="M299.16,36.18c-1.29,0-2.34-.42-3.15-1.27s-1.21-1.98-1.21-3.4v-.3c0-.94,.18-1.79,.54-2.53s.86-1.32,1.51-1.74,1.35-.63,2.1-.63c1.24,0,2.2,.41,2.88,1.22s1.03,1.98,1.03,3.5v.68h-6.44c.02,.94,.3,1.69,.82,2.27s1.19,.87,2,.87c.57,0,1.06-.12,1.46-.35s.75-.54,1.05-.93l.99,.77c-.8,1.22-1.99,1.84-3.59,1.84Zm-.2-8.53c-.66,0-1.21,.24-1.65,.72s-.72,1.15-.83,2.01h4.76v-.12c-.05-.83-.27-1.47-.67-1.92s-.94-.68-1.62-.68Z"/><path class="cls-9" d="M309.34,27.95c-.25-.04-.51-.06-.8-.06-1.07,0-1.79,.45-2.17,1.36v6.75h-1.63v-9.51h1.58l.03,1.1c.53-.85,1.29-1.27,2.27-1.27,.32,0,.56,.04,.72,.12v1.51Z"/></g><g><path class="cls-9" d="M580.94,115.74h-1.63v-10.84l-3.28,1.2v-1.48l4.66-1.75h.25v12.86Z"/><path class="cls-9" d="M592.08,102.94v1.38h-.3c-1.27,.02-2.27,.4-3.02,1.12s-1.18,1.75-1.3,3.07c.67-.77,1.59-1.16,2.76-1.16s2,.39,2.67,1.18,1,1.8,1,3.04c0,1.32-.36,2.37-1.08,3.16s-1.68,1.19-2.89,1.19-2.22-.47-2.98-1.41-1.14-2.15-1.14-3.63v-.62c0-2.36,.5-4.16,1.51-5.4s2.5-1.88,4.49-1.91h.29Zm-2.14,5.77c-.56,0-1.07,.17-1.54,.5s-.79,.75-.98,1.26v.6c0,1.05,.24,1.9,.71,2.55s1.07,.97,1.78,.97,1.31-.27,1.73-.81,.63-1.25,.63-2.12-.21-1.59-.64-2.13-.99-.81-1.69-.81Z"/></g><path class="cls-9" d="M592.01,482.12c0,.64-.17,1.21-.51,1.71s-.79,.89-1.37,1.17c.67,.29,1.2,.71,1.59,1.26s.58,1.17,.58,1.87c0,1.11-.37,1.99-1.12,2.65s-1.73,.98-2.95,.98-2.22-.33-2.96-.99-1.11-1.54-1.11-2.64c0-.69,.19-1.32,.57-1.87s.9-.98,1.57-1.27c-.57-.28-1.02-.67-1.34-1.17s-.49-1.06-.49-1.7c0-1.08,.35-1.93,1.04-2.57s1.6-.95,2.73-.95,2.03,.32,2.73,.95,1.04,1.49,1.04,2.57Zm-1.33,5.97c0-.71-.23-1.3-.68-1.75s-1.05-.68-1.78-.68-1.32,.22-1.76,.67-.66,1.03-.66,1.76,.21,1.3,.65,1.71,1.03,.62,1.8,.62,1.36-.21,1.79-.63,.65-.99,.65-1.71Zm-2.44-8.15c-.64,0-1.16,.2-1.55,.59s-.59,.93-.59,1.61,.19,1.18,.58,1.58,.91,.6,1.56,.6,1.17-.2,1.56-.6,.58-.93,.58-1.58-.2-1.18-.61-1.59-.92-.62-1.54-.62Z"/><path class="cls-9" d="M687.66,417.6h-8.38v-1.17l4.43-4.92c.66-.74,1.11-1.35,1.36-1.82,.25-.46,.37-.95,.37-1.45,0-.67-.2-1.22-.61-1.64s-.94-.64-1.62-.64c-.81,0-1.44,.23-1.89,.69-.45,.46-.67,1.1-.67,1.92h-1.63c0-1.18,.38-2.13,1.14-2.86s1.77-1.09,3.05-1.09c1.19,0,2.13,.31,2.82,.94,.69,.62,1.04,1.46,1.04,2.49,0,1.26-.8,2.76-2.41,4.5l-3.43,3.72h6.42v1.33Z"/><path class="cls-9" d="M681.64,446.41h1.22c.77-.01,1.37-.21,1.81-.61s.66-.92,.66-1.59c0-1.5-.75-2.25-2.24-2.25-.7,0-1.26,.2-1.68,.6s-.63,.93-.63,1.59h-1.63c0-1.01,.37-1.86,1.11-2.53s1.68-1.01,2.83-1.01c1.21,0,2.15,.32,2.84,.96s1.03,1.53,1.03,2.66c0,.56-.18,1.1-.54,1.62s-.85,.91-1.47,1.17c.7,.22,1.25,.59,1.63,1.11s.58,1.15,.58,1.89c0,1.15-.38,2.06-1.12,2.73s-1.73,1.01-2.93,1.01-2.18-.33-2.93-.98-1.13-1.51-1.13-2.58h1.63c0,.67,.22,1.21,.66,1.62s1.03,.61,1.77,.61c.79,0,1.39-.21,1.8-.62s.62-1,.62-1.77-.23-1.32-.69-1.71-1.12-.6-1.98-.62h-1.22v-1.33Z"/><g><path class="cls-9" d="M733.71,420.97h-8.77v-1.62h8.77v1.62Zm-5.34-4.38c0-.28,.08-.52,.25-.7s.42-.28,.75-.28,.59,.09,.76,.28,.26,.42,.26,.7-.09,.5-.26,.69-.43,.27-.76,.27-.58-.09-.75-.27-.25-.41-.25-.69Zm0,7.18c0-.28,.08-.52,.25-.7s.42-.28,.75-.28,.59,.09,.76,.28,.26,.42,.26,.7-.09,.5-.26,.68-.43,.28-.76,.28-.58-.09-.75-.28-.25-.41-.25-.68Z"/><path class="cls-9" d="M744.04,426.24h-8.38v-1.17l4.43-4.92c.66-.74,1.11-1.35,1.36-1.82s.37-.95,.37-1.45c0-.67-.2-1.22-.61-1.64s-.94-.64-1.62-.64c-.81,0-1.44,.23-1.88,.69s-.67,1.1-.67,1.92h-1.63c0-1.18,.38-2.13,1.14-2.86s1.77-1.09,3.04-1.09c1.19,0,2.13,.31,2.82,.94s1.04,1.46,1.04,2.49c0,1.26-.8,2.76-2.41,4.5l-3.43,3.72h6.42v1.33Z"/><path class="cls-9" d="M748.44,420.25h-.95v-6.32l-1.91,.7v-.86l2.72-1.02h.15v7.5Z"/><path class="cls-9" d="M752.59,416.06h.71c.45,0,.8-.12,1.06-.35,.26-.23,.38-.54,.38-.93,0-.87-.44-1.31-1.31-1.31-.41,0-.74,.12-.98,.35-.25,.23-.37,.54-.37,.93h-.95c0-.59,.22-1.08,.65-1.47,.43-.39,.98-.59,1.65-.59,.7,0,1.26,.19,1.66,.56s.6,.89,.6,1.55c0,.32-.11,.64-.32,.94-.21,.3-.5,.53-.86,.68,.41,.13,.73,.35,.95,.65,.22,.3,.33,.67,.33,1.1,0,.67-.22,1.2-.66,1.59-.44,.39-1.01,.59-1.71,.59s-1.27-.19-1.71-.57c-.44-.38-.66-.88-.66-1.5h.95c0,.39,.13,.71,.38,.94,.26,.24,.6,.35,1.03,.35,.46,0,.81-.12,1.05-.36,.24-.24,.36-.58,.36-1.03s-.13-.77-.4-1c-.27-.23-.65-.35-1.15-.36h-.71v-.77Z"/></g><g><path class="cls-9" d="M733.71,456.97h-8.77v-1.62h8.77v1.62Zm-5.34-4.38c0-.28,.08-.52,.25-.7s.42-.28,.75-.28,.59,.09,.76,.28,.26,.42,.26,.7-.09,.5-.26,.69-.43,.27-.76,.27-.58-.09-.75-.27-.25-.41-.25-.69Zm0,7.18c0-.28,.08-.52,.25-.7s.42-.28,.75-.28,.59,.09,.76,.28,.26,.42,.26,.7-.09,.5-.26,.68-.43,.28-.76,.28-.58-.09-.75-.28-.25-.41-.25-.68Z"/><path class="cls-9" d="M744.04,462.24h-8.38v-1.17l4.43-4.92c.66-.74,1.11-1.35,1.36-1.82s.37-.95,.37-1.45c0-.67-.2-1.22-.61-1.64s-.94-.64-1.62-.64c-.81,0-1.44,.23-1.88,.69s-.67,1.1-.67,1.92h-1.63c0-1.18,.38-2.13,1.14-2.86s1.77-1.09,3.04-1.09c1.19,0,2.13,.31,2.82,.94s1.04,1.46,1.04,2.49c0,1.26-.8,2.76-2.41,4.5l-3.43,3.72h6.42v1.33Z"/><path class="cls-9" d="M748.44,456.25h-.95v-6.32l-1.91,.7v-.86l2.72-1.02h.15v7.5Z"/><path class="cls-9" d="M755.21,453.74h1.04v.77h-1.04v1.73h-.95v-1.73h-3.4v-.56l3.34-5.17h1.01v4.96Zm-3.27,0h2.32v-3.66l-.11,.2-2.21,3.45Z"/></g><g><path class="cls-9" d="M503.15,381.6h-1.63v-10.84l-3.28,1.2v-1.48l4.66-1.75h.25v12.86Z"/><path class="cls-9" d="M515.94,376.14c0,1.9-.33,3.32-.98,4.25s-1.67,1.39-3.05,1.39-2.38-.45-3.03-1.36-1-2.26-1.02-4.06v-2.17c0-1.88,.33-3.28,.98-4.19s1.67-1.37,3.06-1.37,2.39,.44,3.04,1.32,.98,2.24,1,4.08v2.11Zm-1.63-2.22c0-1.38-.19-2.38-.58-3.01s-1-.94-1.84-.94-1.44,.31-1.82,.94-.58,1.59-.59,2.89v2.6c0,1.38,.2,2.4,.6,3.06s1.01,.99,1.82,.99,1.4-.31,1.79-.93,.59-1.6,.61-2.94v-2.66Z"/></g><path class="cls-9" d="M514.15,447.97c-.34,.4-.75,.73-1.22,.98s-.99,.37-1.55,.37c-.74,0-1.38-.18-1.93-.54s-.97-.87-1.27-1.53-.45-1.39-.45-2.18c0-.86,.16-1.63,.49-2.31s.79-1.21,1.38-1.57,1.29-.54,2.09-.54c1.27,0,2.26,.47,2.99,1.42s1.09,2.24,1.09,3.87v.47c0,2.49-.49,4.31-1.48,5.45s-2.47,1.73-4.46,1.76h-.32v-1.38h.34c1.34-.02,2.37-.37,3.09-1.05s1.11-1.74,1.18-3.21Zm-2.5,0c.54,0,1.05-.17,1.51-.5s.79-.75,1.01-1.24v-.65c0-1.07-.23-1.93-.69-2.6s-1.05-1-1.76-1-1.29,.27-1.72,.82-.65,1.27-.65,2.17,.21,1.59,.63,2.16,.98,.85,1.68,.85Z"/><g><path class="cls-9" d="M455.62,450c-1.29,0-2.34-.42-3.15-1.27s-1.21-1.98-1.21-3.4v-.3c0-.94,.18-1.79,.54-2.53s.86-1.32,1.51-1.74,1.35-.63,2.1-.63c1.24,0,2.2,.41,2.88,1.22s1.03,1.98,1.03,3.5v.68h-6.44c.02,.94,.3,1.7,.82,2.27s1.19,.87,2,.87c.57,0,1.06-.12,1.46-.35s.75-.54,1.05-.93l.99,.77c-.8,1.22-1.99,1.84-3.59,1.84Zm-.2-8.53c-.66,0-1.21,.24-1.65,.72s-.72,1.15-.83,2.01h4.76v-.12c-.05-.83-.27-1.47-.67-1.92s-.94-.68-1.62-.68Z"/><path class="cls-9" d="M464.4,443.78l2.11-3.47h1.9l-3.11,4.7,3.21,4.81h-1.88l-2.2-3.56-2.2,3.56h-1.89l3.21-4.81-3.11-4.7h1.88l2.08,3.47Z"/><path class="cls-9" d="M472.34,438.01v2.3h1.78v1.26h-1.78v5.91c0,.38,.08,.67,.24,.86,.16,.19,.43,.29,.81,.29,.19,0,.45-.04,.77-.11v1.31c-.43,.12-.84,.17-1.25,.17-.73,0-1.27-.22-1.64-.66s-.55-1.06-.55-1.87v-5.9h-1.73v-1.26h1.73v-2.3h1.63Z"/><path class="cls-9" d="M476.05,448.97c0-.28,.08-.52,.25-.7s.42-.28,.75-.28,.59,.09,.76,.28,.26,.42,.26,.7-.09,.5-.26,.68-.43,.27-.76,.27-.58-.09-.75-.27-.25-.41-.25-.68Z"/><path class="cls-9" d="M413.17,467.36c-.16,1.35-.66,2.4-1.5,3.13s-1.96,1.1-3.35,1.1c-1.51,0-2.72-.54-3.63-1.63s-1.37-2.53-1.37-4.35v-1.23c0-1.19,.21-2.24,.64-3.14s1.03-1.6,1.81-2.08,1.68-.72,2.71-.72c1.36,0,2.45,.38,3.27,1.14s1.3,1.81,1.43,3.15h-1.7c-.15-1.02-.46-1.76-.95-2.22-.49-.46-1.17-.69-2.05-.69-1.08,0-1.92,.4-2.54,1.2s-.92,1.93-.92,3.4v1.24c0,1.39,.29,2.5,.87,3.32,.58,.82,1.39,1.23,2.43,1.23,.94,0,1.66-.21,2.16-.64s.83-1.16,1-2.22h1.7Z"/><path class="cls-9" d="M421.09,471.42c-.09-.19-.17-.52-.23-1-.76,.79-1.66,1.18-2.71,1.18-.94,0-1.71-.27-2.31-.8s-.9-1.2-.9-2.02c0-.99,.38-1.76,1.13-2.31s1.81-.82,3.18-.82h1.58v-.75c0-.57-.17-1.02-.51-1.36s-.84-.5-1.5-.5c-.58,0-1.07,.15-1.46,.44s-.59,.65-.59,1.06h-1.63c0-.47,.17-.93,.51-1.38s.79-.79,1.37-1.05,1.21-.39,1.9-.39c1.1,0,1.95,.27,2.58,.82s.94,1.3,.97,2.26v4.38c0,.87,.11,1.57,.33,2.08v.14h-1.71Zm-2.7-1.24c.51,0,.99-.13,1.45-.4s.79-.61,.99-1.03v-1.95h-1.27c-1.99,0-2.99,.58-2.99,1.75,0,.51,.17,.91,.51,1.2s.78,.43,1.31,.43Z"/><path class="cls-9" d="M433.04,466.77c0,1.45-.33,2.61-.99,3.5s-1.56,1.33-2.69,1.33-2.06-.37-2.72-1.1v4.58h-1.63v-13.17h1.49l.08,1.05c.66-.82,1.58-1.23,2.76-1.23s2.05,.43,2.71,1.29,1,2.06,1,3.59v.15Zm-1.63-.18c0-1.07-.23-1.92-.69-2.54s-1.08-.93-1.88-.93c-.98,0-1.72,.44-2.21,1.31v4.54c.49,.87,1.23,1.3,2.23,1.3,.78,0,1.4-.31,1.86-.93s.69-1.54,.69-2.75Z"/><path class="cls-9" d="M440.98,471.42c-.09-.19-.17-.52-.23-1-.76,.79-1.66,1.18-2.71,1.18-.94,0-1.71-.27-2.31-.8s-.9-1.2-.9-2.02c0-.99,.38-1.76,1.13-2.31s1.81-.82,3.18-.82h1.58v-.75c0-.57-.17-1.02-.51-1.36s-.84-.5-1.5-.5c-.58,0-1.07,.15-1.46,.44s-.59,.65-.59,1.06h-1.63c0-.47,.17-.93,.51-1.38s.79-.79,1.37-1.05,1.21-.39,1.9-.39c1.1,0,1.95,.27,2.58,.82s.94,1.3,.97,2.26v4.38c0,.87,.11,1.57,.33,2.08v.14h-1.71Zm-2.7-1.24c.51,0,.99-.13,1.45-.4s.79-.61,.99-1.03v-1.95h-1.27c-1.99,0-2.99,.58-2.99,1.75,0,.51,.17,.91,.51,1.2s.78,.43,1.31,.43Z"/><path class="cls-9" d="M448.71,470.27c.58,0,1.09-.18,1.52-.53s.67-.79,.72-1.32h1.54c-.03,.54-.22,1.06-.56,1.56s-.81,.88-1.38,1.18-1.19,.44-1.83,.44c-1.29,0-2.32-.43-3.09-1.3s-1.15-2.05-1.15-3.55v-.27c0-.93,.17-1.75,.51-2.47s.83-1.28,1.46-1.68,1.39-.6,2.25-.6c1.07,0,1.95,.32,2.66,.96s1.08,1.47,1.13,2.49h-1.54c-.05-.62-.28-1.12-.7-1.52s-.94-.59-1.55-.59c-.83,0-1.47,.3-1.92,.89s-.68,1.46-.68,2.58v.31c0,1.1,.23,1.94,.68,2.53s1.1,.89,1.93,.89Z"/><path class="cls-9" d="M454.33,459.39c0-.26,.08-.49,.24-.67s.4-.27,.72-.27,.56,.09,.72,.27,.25,.4,.25,.67-.08,.48-.25,.66-.4,.26-.72,.26-.56-.09-.72-.26-.24-.4-.24-.66Zm1.76,12.03h-1.63v-9.51h1.63v9.51Z"/><path class="cls-9" d="M460.89,459.61v2.3h1.78v1.26h-1.78v5.9c0,.38,.08,.67,.24,.86s.43,.29,.81,.29c.19,0,.45-.04,.77-.11v1.31c-.43,.12-.84,.17-1.25,.17-.73,0-1.27-.22-1.64-.66s-.55-1.06-.55-1.87v-5.9h-1.73v-1.26h1.73v-2.3h1.63Z"/><path class="cls-9" d="M463.96,466.58c0-.93,.18-1.77,.55-2.51s.88-1.32,1.53-1.72,1.4-.61,2.24-.61c1.29,0,2.34,.45,3.14,1.34s1.2,2.09,1.2,3.58v.11c0,.93-.18,1.76-.53,2.49s-.86,1.31-1.52,1.72-1.42,.62-2.27,.62c-1.29,0-2.33-.45-3.13-1.34s-1.2-2.08-1.2-3.56v-.11Zm1.63,.19c0,1.05,.24,1.9,.73,2.54s1.14,.96,1.96,.96,1.48-.32,1.97-.97,.73-1.55,.73-2.72c0-1.04-.25-1.89-.74-2.54s-1.15-.97-1.97-.97-1.45,.32-1.94,.96-.74,1.55-.74,2.74Z"/><path class="cls-9" d="M479.25,463.37c-.25-.04-.51-.06-.8-.06-1.07,0-1.79,.45-2.17,1.36v6.75h-1.63v-9.51h1.58l.03,1.1c.53-.85,1.29-1.27,2.27-1.27,.32,0,.56,.04,.72,.12v1.51Z"/></g><g><path class="cls-9" d="M455.62,375.12c-1.29,0-2.34-.42-3.15-1.27s-1.21-1.98-1.21-3.4v-.3c0-.94,.18-1.79,.54-2.53s.86-1.32,1.51-1.74,1.35-.63,2.1-.63c1.24,0,2.2,.41,2.88,1.22s1.03,1.98,1.03,3.5v.68h-6.44c.02,.94,.3,1.7,.82,2.27s1.19,.87,2,.87c.57,0,1.06-.12,1.46-.35s.75-.54,1.05-.93l.99,.77c-.8,1.22-1.99,1.84-3.59,1.84Zm-.2-8.53c-.66,0-1.21,.24-1.65,.72s-.72,1.15-.83,2.01h4.76v-.12c-.05-.83-.27-1.47-.67-1.92s-.94-.68-1.62-.68Z"/><path class="cls-9" d="M464.4,368.9l2.11-3.47h1.9l-3.11,4.7,3.21,4.81h-1.88l-2.2-3.56-2.2,3.56h-1.89l3.21-4.81-3.11-4.7h1.88l2.08,3.47Z"/><path class="cls-9" d="M472.34,363.13v2.3h1.78v1.26h-1.78v5.91c0,.38,.08,.67,.24,.86,.16,.19,.43,.29,.81,.29,.19,0,.45-.04,.77-.11v1.31c-.43,.12-.84,.17-1.25,.17-.73,0-1.27-.22-1.64-.66s-.55-1.06-.55-1.87v-5.9h-1.73v-1.26h1.73v-2.3h1.63Z"/><path class="cls-9" d="M476.05,374.09c0-.28,.08-.52,.25-.7s.42-.28,.75-.28,.59,.09,.76,.28,.26,.42,.26,.7-.09,.5-.26,.68-.43,.27-.76,.27-.58-.09-.75-.27-.25-.41-.25-.68Z"/><path class="cls-9" d="M420.09,391.36h-3.01v5.18h-1.7v-12.8h4.24c1.44,0,2.55,.33,3.33,.98s1.16,1.61,1.16,2.87c0,.8-.22,1.49-.65,2.08s-1.03,1.03-1.8,1.33l3.01,5.43v.11h-1.81l-2.78-5.18Zm-3.01-1.38h2.59c.84,0,1.5-.22,2-.65,.5-.43,.74-1.02,.74-1.74,0-.79-.24-1.4-.71-1.82s-1.15-.64-2.04-.64h-2.58v4.86Z"/><path class="cls-9" d="M430.17,396.72c-1.29,0-2.34-.42-3.15-1.27s-1.21-1.98-1.21-3.4v-.3c0-.94,.18-1.79,.54-2.53s.86-1.32,1.51-1.74,1.35-.63,2.1-.63c1.24,0,2.2,.41,2.88,1.22s1.03,1.98,1.03,3.5v.68h-6.44c.02,.94,.3,1.69,.82,2.27s1.19,.87,2,.87c.57,0,1.06-.12,1.46-.35s.75-.54,1.05-.93l.99,.77c-.8,1.22-1.99,1.84-3.59,1.84Zm-.2-8.53c-.66,0-1.21,.24-1.65,.72s-.72,1.15-.83,2.01h4.76v-.12c-.05-.83-.27-1.47-.67-1.92s-.94-.68-1.62-.68Z"/><path class="cls-9" d="M441.29,394.02c0-.44-.17-.78-.5-1.02s-.91-.45-1.73-.63-1.48-.39-1.96-.63-.84-.54-1.07-.88-.35-.74-.35-1.21c0-.78,.33-1.44,.99-1.98s1.5-.81,2.53-.81c1.08,0,1.95,.28,2.62,.83s1.01,1.27,1.01,2.14h-1.63c0-.45-.19-.83-.57-1.15s-.85-.48-1.43-.48-1.05,.13-1.39,.39-.5,.59-.5,1.01c0,.39,.16,.69,.47,.89s.87,.39,1.68,.57,1.47,.4,1.97,.65,.88,.55,1.12,.91,.36,.79,.36,1.3c0,.85-.34,1.53-1.02,2.04s-1.56,.77-2.65,.77c-.76,0-1.44-.13-2.02-.4s-1.04-.65-1.38-1.13-.5-1.01-.5-1.57h1.63c.03,.54,.25,.98,.65,1.3s.94,.48,1.61,.48c.62,0,1.11-.12,1.48-.37s.56-.58,.56-1Z"/><path class="cls-9" d="M445.05,384.51c0-.26,.08-.49,.24-.67s.4-.27,.72-.27,.56,.09,.72,.27,.25,.4,.25,.67-.08,.48-.25,.66-.4,.26-.72,.26-.56-.09-.72-.26-.24-.4-.24-.66Zm1.76,12.03h-1.63v-9.51h1.63v9.51Z"/><path class="cls-9" d="M454.94,394.02c0-.44-.17-.78-.5-1.02s-.91-.45-1.73-.63-1.48-.39-1.96-.63-.84-.54-1.07-.88-.35-.74-.35-1.21c0-.78,.33-1.44,.99-1.98s1.5-.81,2.53-.81c1.08,0,1.95,.28,2.62,.83s1.01,1.27,1.01,2.14h-1.63c0-.45-.19-.83-.57-1.15s-.85-.48-1.43-.48-1.05,.13-1.39,.39-.5,.59-.5,1.01c0,.39,.16,.69,.47,.89s.87,.39,1.68,.57,1.47,.4,1.97,.65,.88,.55,1.12,.91,.36,.79,.36,1.3c0,.85-.34,1.53-1.02,2.04s-1.56,.77-2.65,.77c-.76,0-1.44-.13-2.02-.4s-1.04-.65-1.38-1.13-.5-1.01-.5-1.57h1.63c.03,.54,.25,.98,.65,1.3s.94,.48,1.61,.48c.62,0,1.11-.12,1.48-.37s.56-.58,.56-1Z"/><path class="cls-9" d="M460.89,384.73v2.3h1.78v1.26h-1.78v5.9c0,.38,.08,.67,.24,.86s.43,.29,.81,.29c.19,0,.45-.04,.77-.11v1.31c-.43,.12-.84,.17-1.25,.17-.73,0-1.27-.22-1.64-.66s-.55-1.06-.55-1.87v-5.9h-1.73v-1.26h1.73v-2.3h1.63Z"/><path class="cls-9" d="M463.96,391.7c0-.93,.18-1.77,.55-2.51s.88-1.32,1.53-1.72,1.4-.61,2.24-.61c1.29,0,2.34,.45,3.14,1.34s1.2,2.09,1.2,3.58v.11c0,.93-.18,1.76-.53,2.49s-.86,1.31-1.52,1.72-1.42,.62-2.27,.62c-1.29,0-2.33-.45-3.13-1.34s-1.2-2.08-1.2-3.56v-.11Zm1.63,.19c0,1.05,.24,1.9,.73,2.54s1.14,.96,1.96,.96,1.48-.32,1.97-.97,.73-1.55,.73-2.72c0-1.04-.25-1.89-.74-2.54s-1.15-.97-1.97-.97-1.45,.32-1.94,.96-.74,1.55-.74,2.74Z"/><path class="cls-9" d="M479.25,388.49c-.25-.04-.51-.06-.8-.06-1.07,0-1.79,.45-2.17,1.36v6.75h-1.63v-9.51h1.58l.03,1.1c.53-.85,1.29-1.27,2.27-1.27,.32,0,.56,.04,.72,.12v1.51Z"/></g><g><path class="cls-9" d="M1002.02,356.26h-3.01v5.18h-1.7v-12.8h4.24c1.44,0,2.55,.33,3.33,.98s1.17,1.61,1.17,2.87c0,.8-.22,1.49-.65,2.08-.43,.59-1.03,1.03-1.8,1.33l3.01,5.43v.11h-1.81l-2.78-5.18Zm-3.01-1.38h2.59c.84,0,1.5-.22,2-.65,.49-.43,.74-1.02,.74-1.74,0-.79-.24-1.4-.71-1.82-.47-.42-1.15-.64-2.04-.64h-2.58v4.86Z"/><path class="cls-9" d="M1012.44,367.43h-4.89v-.68l2.58-2.87c.38-.43,.65-.79,.79-1.06s.22-.55,.22-.84c0-.39-.12-.71-.35-.96s-.55-.37-.94-.37c-.47,0-.84,.13-1.1,.4s-.39,.64-.39,1.12h-.95c0-.69,.22-1.24,.66-1.67s1.03-.64,1.78-.64c.69,0,1.24,.18,1.64,.55,.4,.36,.6,.85,.6,1.45,0,.73-.47,1.61-1.4,2.62l-2,2.17h3.75v.77Z"/></g><path class="cls-9" d="M851.84,237.74c-.34,.4-.75,.73-1.22,.98s-.99,.37-1.55,.37c-.74,0-1.38-.18-1.93-.54s-.97-.87-1.27-1.53-.45-1.39-.45-2.18c0-.86,.16-1.63,.49-2.31s.79-1.21,1.38-1.57,1.29-.54,2.09-.54c1.27,0,2.26,.47,2.99,1.42s1.09,2.24,1.09,3.87v.47c0,2.49-.49,4.31-1.48,5.45s-2.47,1.73-4.46,1.76h-.32v-1.38h.34c1.34-.02,2.37-.37,3.09-1.05,.72-.68,1.11-1.74,1.18-3.21Zm-2.5,0c.54,0,1.05-.17,1.51-.5s.8-.75,1.01-1.24v-.65c0-1.07-.23-1.93-.69-2.6s-1.05-1-1.76-1-1.29,.27-1.72,.82-.65,1.27-.65,2.17,.21,1.59,.63,2.16,.98,.85,1.68,.85Z"/><g><path class="cls-9" d="M910.7,243.36h-1.63v-10.84l-3.28,1.2v-1.48l4.66-1.75h.25v12.86Z"/><path class="cls-9" d="M923.49,237.9c0,1.9-.33,3.32-.98,4.25s-1.67,1.39-3.05,1.39-2.38-.45-3.03-1.36-1-2.26-1.02-4.06v-2.17c0-1.88,.33-3.28,.98-4.19s1.67-1.37,3.06-1.37,2.39,.44,3.04,1.32,.98,2.24,1,4.08v2.11Zm-1.63-2.22c0-1.38-.19-2.38-.58-3.01s-1-.94-1.84-.94-1.44,.31-1.82,.94-.58,1.59-.59,2.89v2.6c0,1.38,.2,2.4,.6,3.06s1.01,.99,1.82,.99,1.4-.31,1.79-.93,.59-1.6,.61-2.94v-2.66Z"/></g><g><path class="cls-9" d="M975.5,243.36h-1.63v-10.84l-3.28,1.2v-1.48l4.66-1.75h.25v12.86Z"/><path class="cls-9" d="M985.61,243.36h-1.63v-10.84l-3.28,1.2v-1.48l4.66-1.75h.25v12.86Z"/></g><g><path class="cls-9" d="M948.83,536.26h-3.01v5.18h-1.7v-12.8h4.24c1.44,0,2.55,.33,3.33,.98s1.17,1.61,1.17,2.87c0,.8-.22,1.49-.65,2.08-.43,.59-1.03,1.03-1.8,1.33l3.01,5.43v.11h-1.81l-2.78-5.18Zm-3.01-1.38h2.59c.84,0,1.5-.22,2-.65,.49-.44,.74-1.02,.74-1.74,0-.79-.24-1.4-.71-1.82-.47-.42-1.15-.64-2.04-.64h-2.58v4.86Z"/><path class="cls-9" d="M955.74,540.55v1.34h1.03v.73h-1.03v3.44c0,.22,.05,.39,.14,.5,.09,.11,.25,.17,.47,.17,.11,0,.26-.02,.45-.06v.77c-.25,.07-.49,.1-.73,.1-.42,0-.74-.13-.96-.38-.21-.26-.32-.62-.32-1.09v-3.44h-1.01v-.73h1.01v-1.34h.95Z"/><path class="cls-9" d="M963.94,535.78l5.5,2.22v1.72l-7.19-3.33v-1.28l7.19-3.32v1.72l-5.5,2.27Z"/><path class="cls-9" d="M973.09,535.78l5.5,2.22v1.72l-7.19-3.33v-1.28l7.19-3.32v1.72l-5.5,2.27Z"/><path class="cls-9" d="M990.55,536.26h-3.01v5.18h-1.7v-12.8h4.24c1.44,0,2.55,.33,3.33,.98s1.17,1.61,1.17,2.87c0,.8-.22,1.49-.65,2.08-.43,.59-1.03,1.03-1.8,1.33l3.01,5.43v.11h-1.81l-2.78-5.18Zm-3.01-1.38h2.59c.84,0,1.5-.22,2-.65,.49-.44,.74-1.02,.74-1.74,0-.79-.24-1.4-.71-1.82-.47-.42-1.15-.64-2.04-.64h-2.58v4.86Z"/><path class="cls-9" d="M1000.97,547.43h-4.89v-.68l2.58-2.87c.38-.43,.65-.79,.79-1.06s.22-.55,.22-.84c0-.39-.12-.71-.35-.96-.24-.25-.55-.37-.94-.37-.47,0-.84,.13-1.1,.4-.26,.27-.39,.64-.39,1.12h-.95c0-.69,.22-1.24,.66-1.67s1.03-.63,1.78-.63c.69,0,1.24,.18,1.64,.54,.4,.37,.6,.85,.6,1.45,0,.73-.47,1.61-1.4,2.62l-2,2.17h3.75v.77Z"/></g><g><path class="cls-9" d="M856.14,133.69c0,1.25-.21,2.35-.63,3.28s-1.02,1.65-1.79,2.14-1.68,.74-2.71,.74-1.9-.25-2.68-.74-1.38-1.2-1.81-2.12-.65-1.98-.66-3.19v-.92c0-1.23,.21-2.32,.64-3.26s1.03-1.67,1.82-2.17,1.68-.75,2.68-.75,1.93,.25,2.71,.74,1.38,1.21,1.81,2.15,.63,2.03,.63,3.28v.81Zm-1.68-.83c0-1.52-.3-2.68-.91-3.49s-1.46-1.22-2.56-1.22-1.91,.41-2.52,1.22-.93,1.94-.95,3.38v.94c0,1.47,.31,2.63,.93,3.47s1.47,1.26,2.55,1.26,1.93-.4,2.53-1.19,.91-1.93,.92-3.41v-.95Z"/><path class="cls-9" d="M863.95,137.16c0-.44-.17-.78-.5-1.02s-.91-.45-1.73-.63-1.48-.39-1.96-.63-.84-.54-1.07-.88-.35-.74-.35-1.21c0-.78,.33-1.44,.99-1.98s1.5-.81,2.53-.81c1.08,0,1.95,.28,2.62,.83s1.01,1.27,1.01,2.14h-1.63c0-.45-.19-.83-.57-1.15s-.85-.48-1.43-.48-1.05,.13-1.39,.39-.5,.59-.5,1.01c0,.39,.16,.69,.47,.89s.87,.39,1.68,.57,1.47,.4,1.97,.65,.88,.56,1.12,.91,.36,.79,.36,1.3c0,.85-.34,1.53-1.02,2.04s-1.56,.77-2.65,.77c-.76,0-1.44-.13-2.02-.4s-1.04-.65-1.38-1.13-.5-1.01-.5-1.57h1.63c.03,.54,.25,.98,.66,1.3s.94,.48,1.61,.48c.62,0,1.11-.12,1.48-.37s.56-.58,.56-1Z"/><path class="cls-9" d="M871.51,138.53c.58,0,1.09-.18,1.52-.53s.67-.79,.72-1.32h1.54c-.03,.54-.22,1.06-.56,1.56s-.81,.88-1.38,1.18-1.19,.44-1.83,.44c-1.29,0-2.32-.43-3.09-1.3s-1.15-2.05-1.15-3.55v-.27c0-.93,.17-1.75,.51-2.47s.83-1.28,1.46-1.68,1.39-.6,2.25-.6c1.07,0,1.95,.32,2.66,.96s1.08,1.47,1.13,2.49h-1.54c-.05-.62-.28-1.12-.7-1.52s-.94-.59-1.55-.59c-.83,0-1.47,.3-1.92,.89s-.68,1.45-.68,2.58v.31c0,1.1,.23,1.94,.68,2.53s1.1,.89,1.93,.89Z"/><path class="cls-9" d="M877.12,127.65c0-.26,.08-.49,.24-.67s.4-.27,.72-.27,.56,.09,.72,.27,.25,.4,.25,.67-.08,.48-.25,.66-.4,.26-.72,.26-.55-.09-.72-.26-.24-.4-.24-.66Zm1.76,12.03h-1.63v-9.51h1.63v9.51Z"/><path class="cls-9" d="M883.25,139.68h-1.63v-13.5h1.63v13.5Z"/><path class="cls-9" d="M887.62,139.68h-1.63v-13.5h1.63v13.5Z"/><path class="cls-9" d="M896.09,139.68c-.09-.19-.17-.52-.23-1-.76,.79-1.66,1.18-2.71,1.18-.94,0-1.71-.27-2.31-.8s-.9-1.2-.9-2.02c0-.99,.38-1.76,1.13-2.31s1.81-.82,3.18-.82h1.58v-.75c0-.57-.17-1.02-.51-1.36s-.84-.51-1.5-.51c-.58,0-1.07,.15-1.46,.44s-.59,.65-.59,1.06h-1.63c0-.47,.17-.93,.51-1.38s.79-.79,1.37-1.05,1.21-.39,1.9-.39c1.1,0,1.95,.27,2.58,.82s.94,1.3,.97,2.26v4.38c0,.87,.11,1.57,.33,2.08v.14h-1.71Zm-2.7-1.24c.51,0,.99-.13,1.45-.4s.79-.61,.99-1.03v-1.95h-1.27c-1.99,0-2.99,.58-2.99,1.75,0,.51,.17,.91,.51,1.2s.78,.43,1.31,.43Z"/><path class="cls-9" d="M902.22,127.87v2.3h1.78v1.26h-1.78v5.9c0,.38,.08,.67,.24,.86,.16,.19,.43,.29,.81,.29,.19,0,.45-.04,.77-.11v1.31c-.43,.12-.84,.17-1.25,.17-.73,0-1.27-.22-1.64-.66s-.55-1.06-.55-1.87v-5.9h-1.73v-1.26h1.73v-2.3h1.63Z"/><path class="cls-9" d="M905.28,134.84c0-.93,.18-1.77,.55-2.51s.88-1.32,1.53-1.72,1.4-.61,2.24-.61c1.29,0,2.34,.45,3.14,1.34s1.2,2.09,1.2,3.58v.11c0,.93-.18,1.76-.53,2.49s-.86,1.31-1.52,1.72-1.42,.62-2.27,.62c-1.29,0-2.33-.45-3.13-1.34s-1.2-2.08-1.2-3.56v-.11Zm1.63,.19c0,1.05,.25,1.9,.73,2.54s1.14,.96,1.96,.96,1.48-.32,1.97-.97,.73-1.55,.73-2.72c0-1.04-.25-1.89-.74-2.54s-1.15-.97-1.97-.97-1.45,.32-1.94,.96-.74,1.55-.74,2.74Z"/><path class="cls-9" d="M920.58,131.63c-.25-.04-.51-.06-.8-.06-1.07,0-1.79,.45-2.17,1.36v6.75h-1.63v-9.51h1.58l.03,1.1c.53-.85,1.29-1.27,2.27-1.27,.32,0,.56,.04,.72,.12v1.51Z"/><path class="cls-9" d="M931.48,134.5h-3.01v5.18h-1.7v-12.8h4.24c1.44,0,2.55,.33,3.33,.98s1.16,1.61,1.16,2.87c0,.8-.21,1.49-.65,2.08s-1.03,1.03-1.8,1.33l3.01,5.43v.11h-1.81l-2.78-5.18Zm-3.01-1.38h2.59c.84,0,1.5-.22,2-.65,.5-.43,.74-1.02,.74-1.74,0-.79-.24-1.4-.71-1.82-.47-.42-1.15-.64-2.04-.64h-2.58v4.86Z"/><path class="cls-9" d="M947.28,135.62c-.16,1.35-.66,2.4-1.5,3.13s-1.96,1.1-3.35,1.1c-1.51,0-2.72-.54-3.63-1.63s-1.37-2.53-1.37-4.35v-1.23c0-1.19,.21-2.24,.64-3.14s1.03-1.6,1.81-2.08,1.68-.73,2.71-.73c1.36,0,2.45,.38,3.27,1.14s1.3,1.81,1.43,3.15h-1.7c-.15-1.02-.46-1.76-.95-2.22s-1.17-.69-2.05-.69c-1.08,0-1.92,.4-2.54,1.2-.61,.8-.92,1.93-.92,3.4v1.24c0,1.39,.29,2.5,.87,3.32s1.39,1.23,2.43,1.23c.94,0,1.66-.21,2.16-.64s.83-1.16,1-2.22h1.7Z"/><path class="cls-9" d="M963.45,135.62c-.16,1.35-.66,2.4-1.5,3.13s-1.96,1.1-3.35,1.1c-1.51,0-2.72-.54-3.63-1.63s-1.37-2.53-1.37-4.35v-1.23c0-1.19,.21-2.24,.64-3.14s1.03-1.6,1.81-2.08,1.68-.73,2.71-.73c1.36,0,2.45,.38,3.27,1.14s1.3,1.81,1.43,3.15h-1.7c-.15-1.02-.46-1.76-.95-2.22s-1.17-.69-2.05-.69c-1.08,0-1.92,.4-2.54,1.2-.61,.8-.92,1.93-.92,3.4v1.24c0,1.39,.29,2.5,.87,3.32s1.39,1.23,2.43,1.23c.94,0,1.66-.21,2.16-.64s.83-1.16,1-2.22h1.7Z"/><path class="cls-9" d="M965.51,127.65c0-.26,.08-.49,.24-.67s.4-.27,.72-.27,.56,.09,.72,.27,.25,.4,.25,.67-.08,.48-.25,.66-.4,.26-.72,.26-.55-.09-.72-.26-.24-.4-.24-.66Zm1.76,12.03h-1.63v-9.51h1.63v9.51Z"/><path class="cls-9" d="M974.46,131.63c-.25-.04-.51-.06-.8-.06-1.07,0-1.79,.45-2.17,1.36v6.75h-1.63v-9.51h1.58l.03,1.1c.53-.85,1.29-1.27,2.27-1.27,.32,0,.56,.04,.72,.12v1.51Z"/><path class="cls-9" d="M979.6,138.53c.58,0,1.09-.18,1.52-.53s.67-.79,.72-1.32h1.54c-.03,.54-.22,1.06-.56,1.56s-.81,.88-1.38,1.18-1.19,.44-1.83,.44c-1.29,0-2.32-.43-3.09-1.3s-1.15-2.05-1.15-3.55v-.27c0-.93,.17-1.75,.51-2.47s.83-1.28,1.46-1.68,1.39-.6,2.25-.6c1.07,0,1.95,.32,2.66,.96s1.08,1.47,1.13,2.49h-1.54c-.05-.62-.28-1.12-.7-1.52s-.94-.59-1.55-.59c-.83,0-1.47,.3-1.92,.89s-.68,1.45-.68,2.58v.31c0,1.1,.23,1.94,.68,2.53s1.1,.89,1.93,.89Z"/><path class="cls-9" d="M991.08,138.74c-.63,.74-1.56,1.12-2.79,1.12-1.01,0-1.79-.29-2.32-.88s-.8-1.46-.8-2.61v-6.19h1.63v6.14c0,1.44,.59,2.16,1.76,2.16,1.24,0,2.07-.46,2.48-1.39v-6.92h1.63v9.51h-1.55l-.04-.94Z"/><path class="cls-9" d="M995.14,127.65c0-.26,.08-.49,.24-.67s.4-.27,.72-.27,.56,.09,.72,.27,.25,.4,.25,.67-.08,.48-.25,.66-.4,.26-.72,.26-.55-.09-.72-.26-.24-.4-.24-.66Zm1.76,12.03h-1.63v-9.51h1.63v9.51Z"/><path class="cls-9" d="M1001.71,127.87v2.3h1.78v1.26h-1.78v5.9c0,.38,.08,.67,.24,.86,.16,.19,.43,.29,.81,.29,.19,0,.45-.04,.77-.11v1.31c-.43,.12-.84,.17-1.25,.17-.73,0-1.27-.22-1.64-.66s-.55-1.06-.55-1.87v-5.9h-1.73v-1.26h1.73v-2.3h1.63Z"/></g><g><path class="cls-9" d="M899.08,191.78c-.16,1.35-.66,2.4-1.5,3.13s-1.96,1.1-3.35,1.1c-1.51,0-2.72-.54-3.63-1.63s-1.37-2.53-1.37-4.35v-1.23c0-1.19,.21-2.24,.64-3.14s1.03-1.6,1.81-2.08,1.68-.73,2.71-.73c1.36,0,2.45,.38,3.27,1.14s1.3,1.81,1.43,3.15h-1.7c-.15-1.02-.46-1.76-.95-2.22s-1.17-.69-2.05-.69c-1.08,0-1.92,.4-2.54,1.2-.61,.8-.92,1.93-.92,3.4v1.24c0,1.39,.29,2.5,.87,3.32s1.39,1.23,2.43,1.23c.94,0,1.66-.21,2.16-.64s.83-1.16,1-2.22h1.7Z"/><path class="cls-9" d="M901.39,195.84v-12.8h3.61c1.11,0,2.1,.25,2.95,.74s1.52,1.19,1.98,2.1,.7,1.95,.71,3.13v.82c0,1.21-.23,2.26-.7,3.17s-1.13,1.61-2,2.09-1.87,.74-3.02,.75h-3.54Zm1.69-11.42v10.04h1.78c1.3,0,2.31-.4,3.04-1.21s1.09-1.96,1.09-3.46v-.75c0-1.45-.34-2.58-1.02-3.39-.68-.81-1.65-1.22-2.9-1.23h-1.97Z"/><path class="cls-9" d="M919.63,191.54h1.78v1.33h-1.78v2.97h-1.63v-2.97h-5.83v-.96l5.73-8.87h1.73v8.5Zm-5.62,0h3.98v-6.28l-.19,.35-3.79,5.92Z"/><path class="cls-9" d="M930.9,190.38c0,1.9-.33,3.32-.98,4.25s-1.67,1.39-3.05,1.39-2.38-.45-3.03-1.36-1-2.26-1.02-4.06v-2.17c0-1.88,.33-3.28,.98-4.19s1.67-1.37,3.06-1.37,2.39,.44,3.04,1.32,.98,2.24,1,4.08v2.11Zm-1.63-2.22c0-1.38-.19-2.38-.58-3.01s-1-.94-1.84-.94-1.44,.31-1.82,.94-.58,1.59-.59,2.89v2.6c0,1.38,.2,2.4,.6,3.06s1.01,.99,1.82,.99,1.4-.31,1.79-.93,.59-1.6,.61-2.94v-2.66Z"/><path class="cls-9" d="M939.36,183.03v1.38h-.3c-1.27,.02-2.27,.4-3.02,1.12s-1.18,1.75-1.3,3.07c.67-.77,1.59-1.16,2.76-1.16s2,.39,2.67,1.18,1,1.8,1,3.04c0,1.32-.36,2.37-1.08,3.16s-1.68,1.19-2.89,1.19-2.22-.47-2.98-1.41-1.14-2.15-1.14-3.63v-.62c0-2.36,.5-4.16,1.51-5.4s2.5-1.88,4.49-1.91h.29Zm-2.14,5.77c-.56,0-1.07,.17-1.54,.5s-.79,.75-.98,1.26v.6c0,1.05,.24,1.9,.71,2.55s1.07,.97,1.78,.97,1.31-.27,1.73-.81,.63-1.25,.63-2.12-.21-1.59-.64-2.13-.99-.81-1.69-.81Z"/><path class="cls-9" d="M951.11,190.38c0,1.9-.33,3.32-.98,4.25s-1.67,1.39-3.05,1.39-2.38-.45-3.03-1.36-1-2.26-1.02-4.06v-2.17c0-1.88,.33-3.28,.98-4.19s1.67-1.37,3.06-1.37,2.39,.44,3.04,1.32,.98,2.24,1,4.08v2.11Zm-1.63-2.22c0-1.38-.19-2.38-.58-3.01s-1-.94-1.84-.94-1.44,.31-1.82,.94-.58,1.59-.59,2.89v2.6c0,1.38,.2,2.4,.6,3.06s1.01,.99,1.82,.99,1.4-.31,1.79-.93,.59-1.6,.61-2.94v-2.66Z"/></g><g><path class="cls-9" d="M951.2,566.18c-.16,1.35-.66,2.4-1.5,3.13-.84,.74-1.96,1.1-3.35,1.1-1.51,0-2.72-.54-3.63-1.63s-1.37-2.53-1.37-4.35v-1.23c0-1.19,.21-2.24,.64-3.14,.42-.9,1.03-1.59,1.81-2.08,.78-.48,1.68-.72,2.71-.72,1.36,0,2.45,.38,3.27,1.14s1.3,1.81,1.43,3.15h-1.7c-.15-1.02-.46-1.76-.95-2.22-.49-.46-1.17-.69-2.05-.69-1.08,0-1.92,.4-2.54,1.2s-.92,1.93-.92,3.4v1.24c0,1.39,.29,2.5,.87,3.32s1.39,1.23,2.43,1.23c.94,0,1.66-.21,2.16-.64,.5-.42,.83-1.16,1-2.22h1.7Z"/><path class="cls-9" d="M954.02,569.35v1.34h1.03v.73h-1.03v3.44c0,.22,.05,.39,.14,.5,.09,.11,.25,.17,.47,.17,.11,0,.26-.02,.45-.06v.76c-.25,.07-.49,.1-.73,.1-.42,0-.74-.13-.96-.38-.21-.26-.32-.62-.32-1.09v-3.44h-1.01v-.73h1.01v-1.34h.95Z"/><path class="cls-9" d="M966.55,570.23h-7.34v-1.33h7.34v1.33Zm-1.52-6.14l-5.81-2.05v-1.5l7.51,2.99v1.16l-7.51,3v-1.52l5.81-2.07Z"/><path class="cls-9" d="M978.32,570.24h-1.63v-10.84l-3.28,1.2v-1.48l4.66-1.75h.25v12.86Z"/><path class="cls-9" d="M991.11,564.78c0,1.9-.33,3.32-.98,4.25s-1.67,1.39-3.05,1.39-2.38-.45-3.03-1.36c-.66-.91-1-2.26-1.02-4.06v-2.17c0-1.88,.33-3.28,.98-4.19s1.67-1.37,3.06-1.37,2.39,.44,3.04,1.32c.65,.88,.98,2.24,1,4.08v2.11Zm-1.63-2.22c0-1.38-.19-2.38-.58-3.01s-1-.95-1.84-.95-1.44,.31-1.82,.94-.58,1.59-.59,2.89v2.6c0,1.38,.2,2.4,.6,3.06,.4,.66,1.01,.99,1.82,.99s1.4-.31,1.79-.93c.39-.62,.59-1.6,.61-2.94v-2.66Z"/><path class="cls-9" d="M1001.21,564.78c0,1.9-.33,3.32-.98,4.25s-1.67,1.39-3.05,1.39-2.38-.45-3.03-1.36c-.66-.91-1-2.26-1.02-4.06v-2.17c0-1.88,.33-3.28,.98-4.19s1.67-1.37,3.06-1.37,2.39,.44,3.04,1.32c.65,.88,.98,2.24,1,4.08v2.11Zm-1.63-2.22c0-1.38-.19-2.38-.58-3.01s-1-.95-1.84-.95-1.44,.31-1.82,.94-.58,1.59-.59,2.89v2.6c0,1.38,.2,2.4,.6,3.06,.4,.66,1.01,.99,1.82,.99s1.4-.31,1.79-.93c.39-.62,.59-1.6,.61-2.94v-2.66Z"/><path class="cls-9" d="M1011.5,565.59c0,1.45-.33,2.61-.99,3.5s-1.56,1.33-2.69,1.33-2.06-.37-2.72-1.1v4.58h-1.63v-13.17h1.49l.08,1.05c.66-.82,1.58-1.23,2.76-1.23s2.05,.43,2.71,1.29,1,2.06,1,3.59v.15Zm-1.63-.18c0-1.07-.23-1.92-.69-2.54s-1.08-.93-1.88-.93c-.98,0-1.72,.44-2.21,1.31v4.54c.49,.87,1.23,1.3,2.23,1.3,.78,0,1.4-.31,1.86-.93s.69-1.54,.69-2.76Z"/><path class="cls-9" d="M1020.88,564.59h-5.37v5.65h-1.69v-12.8h7.93v1.38h-6.24v4.39h5.37v1.38Z"/></g></g></svg>