<?xml version="1.0" encoding="UTF-8"?><svg xmlns="http://www.w3.org/2000/svg" viewBox="0 0 1080 600.48"><defs><style>.cls-1{stroke-width:3px;}.cls-1,.cls-2,.cls-3,.cls-4,.cls-5,.cls-6,.cls-7,.cls-8,.cls-9,.cls-10,.cls-11,.cls-12,.cls-13,.cls-14,.cls-15,.cls-16{fill:none;stroke:#1d1e1b;stroke-miterlimit:10;}.cls-2{stroke-width:1.09px;}.cls-17,.cls-18,.cls-19,.cls-20{fill:#1d1e1b;}.cls-17,.cls-19,.cls-20{font-family:Roboto-Regular, Roboto;}.cls-3{stroke-dasharray:0 0 2.02 2.02;}.cls-4{stroke-width:2.26px;}.cls-5{stroke-dasharray:0 0 1.92 1.92;}.cls-6{stroke-width:.84px;}.cls-7{stroke-dasharray:0 0 2.05 2.05;}.cls-8{stroke-dasharray:0 0 2.07 2.07;}.cls-9{stroke-dasharray:0 0 2.06 2.06;}.cls-10{stroke-dasharray:0 0 1.96 1.96;}.cls-11{stroke-dasharray:0 0 2.06 2.06;}.cls-12{stroke-width:2px;}.cls-13{stroke-width:2px;}.cls-21,.cls-19{font-size:18px;}.cls-15{stroke-width:1.18px;}.cls-22{letter-spacing:0em;}.cls-23{font-size:12px;}.cls-16{stroke-width:1.96px;}.cls-20{font-size:14px;}</style></defs><g id="Linie"><line class="cls-13" x1="725.76" y1="180" x2="769.94" y2="163.15"/><g><line class="cls-13" x1="745.92" y1="115.2" x2="745.92" y2="54.56"/><polygon class="cls-18" points="755.46 72.29 752.64 73.32 745.92 54.85 739.2 73.32 736.38 72.29 745.92 46.08 755.46 72.29"/></g><line class="cls-13" x1="745.92" y1="475.2" x2="745.92" y2="522.72"/><polygon class="cls-13" points="731.52 522.72 760.32 522.72 745.92 540 731.52 522.72"/><line class="cls-12" x1="659.52" y1="181.44" x2="594.72" y2="181.44"/><line class="cls-12" x1="780.48" y1="181.44" x2="897.12" y2="181.44"/><rect class="cls-15" x="709.92" y="151.2" width="72" height="43.2"/><line class="cls-13" x1="745.92" y1="151.2" x2="745.92" y2="129.6"/><line class="cls-4" x1="542.88" y1="129.6" x2="745.73" y2="129.6"/><line class="cls-12" x1="659.52" y1="181.44" x2="717.12" y2="181.44"/><line class="cls-12" x1="774.72" y1="181.44" x2="810.72" y2="181.44"/><g><line class="cls-14" x1="745.92" y1="138.24" x2="745.92" y2="139.24"/><line class="cls-8" x1="745.92" y1="141.32" x2="745.92" y2="169.32"/><line class="cls-14" x1="745.92" y1="170.36" x2="745.92" y2="171.36"/></g><rect class="cls-16" x="659.52" y="115.2" width="172.8" height="360"/><rect class="cls-15" x="710.59" y="237.6" width="72" height="43.2"/><line class="cls-13" x1="746.59" y1="237.6" x2="746.59" y2="216"/><line class="cls-4" x1="543.74" y1="216" x2="746.59" y2="216"/><g><line class="cls-14" x1="746.59" y1="224.64" x2="746.59" y2="225.64"/><line class="cls-8" x1="746.59" y1="227.72" x2="746.59" y2="255.72"/><line class="cls-14" x1="746.59" y1="256.76" x2="746.59" y2="257.76"/></g><rect class="cls-15" x="709.92" y="324" width="72" height="43.2"/><line class="cls-13" x1="745.92" y1="324" x2="745.92" y2="302.4"/><line class="cls-4" x1="542.88" y1="302.4" x2="745.73" y2="302.4"/><g><line class="cls-14" x1="745.92" y1="311.04" x2="745.92" y2="312.04"/><line class="cls-8" x1="745.92" y1="314.12" x2="745.92" y2="342.12"/><line class="cls-14" x1="745.92" y1="343.16" x2="745.92" y2="344.16"/></g><rect class="cls-15" x="710.59" y="410.4" width="72" height="43.2"/><line class="cls-13" x1="746.59" y1="410.4" x2="746.59" y2="388.8"/><line class="cls-4" x1="543.74" y1="388.8" x2="746.59" y2="388.8"/><g><line class="cls-14" x1="746.59" y1="397.44" x2="746.59" y2="398.44"/><line class="cls-8" x1="746.59" y1="400.52" x2="746.59" y2="428.52"/><line class="cls-14" x1="746.59" y1="429.56" x2="746.59" y2="430.56"/></g><circle class="cls-2" cx="721.44" cy="181.44" r="4.32"/><circle class="cls-2" cx="770.4" cy="181.44" r="4.32"/><line class="cls-13" x1="725.76" y1="264.99" x2="769.94" y2="248.13"/><line class="cls-12" x1="659.52" y1="266.43" x2="594.72" y2="266.43"/><line class="cls-12" x1="780.48" y1="266.43" x2="897.12" y2="266.4"/><line class="cls-12" x1="659.52" y1="266.42" x2="717.12" y2="266.43"/><line class="cls-12" x1="774.72" y1="266.43" x2="810.72" y2="266.43"/><circle class="cls-2" cx="721.44" cy="266.43" r="4.32"/><circle class="cls-2" cx="770.4" cy="266.43" r="4.32"/><line class="cls-13" x1="725.76" y1="352.8" x2="769.94" y2="335.95"/><line class="cls-12" x1="659.52" y1="354.24" x2="594.72" y2="354.24"/><line class="cls-12" x1="780.48" y1="354.24" x2="897.12" y2="354.24"/><line class="cls-12" x1="659.52" y1="354.24" x2="717.12" y2="354.24"/><line class="cls-12" x1="774.72" y1="354.24" x2="810.72" y2="354.24"/><circle class="cls-2" cx="721.44" cy="354.24" r="4.32"/><circle class="cls-2" cx="770.4" cy="354.24" r="4.32"/><line class="cls-13" x1="725.76" y1="439.2" x2="769.94" y2="422.35"/><line class="cls-12" x1="659.52" y1="440.64" x2="594.72" y2="440.64"/><line class="cls-12" x1="780.48" y1="440.64" x2="897.12" y2="440.64"/><line class="cls-12" x1="659.52" y1="440.64" x2="717.12" y2="440.64"/><line class="cls-12" x1="774.72" y1="440.64" x2="810.72" y2="440.64"/><circle class="cls-2" cx="721.44" cy="440.64" r="4.32"/><circle class="cls-2" cx="770.4" cy="440.64" r="4.32"/><line class="cls-1" x1="97.92" y1="86.4" x2="198.72" y2="86.4"/><line class="cls-1" x1="227.52" y1="86.4" x2="328.32" y2="86.4"/><path class="cls-1" d="M227.52,86.4c0,7.95-6.45,14.4-14.4,14.4s-14.4-6.45-14.4-14.4"/><rect class="cls-14" x="69.12" y="115.2" width="28.8" height="28.8"/><rect class="cls-14" x="69.12" y="172.8" width="28.8" height="28.8"/><rect class="cls-14" x="69.12" y="230.4" width="28.8" height="28.8"/><line class="cls-1" x1="97.92" y1="86.4" x2="97.92" y2="518.4"/><line class="cls-1" x1="97.92" y1="518.4" x2="328.32" y2="518.4"/><line class="cls-1" x1="328.32" y1="86.4" x2="328.32" y2="518.4"/><rect class="cls-14" x="69.12" y="288" width="28.8" height="28.8"/><rect class="cls-14" x="69.12" y="345.6" width="28.8" height="28.8"/><rect class="cls-14" x="69.12" y="403.2" width="28.8" height="28.8"/><rect class="cls-14" x="69.12" y="460.8" width="28.8" height="28.8"/><rect class="cls-14" x="328.32" y="115.2" width="28.8" height="28.8"/><rect class="cls-14" x="328.32" y="172.8" width="28.8" height="28.8"/><rect class="cls-14" x="328.32" y="230.4" width="28.8" height="28.8"/><rect class="cls-14" x="328.32" y="288" width="28.8" height="28.8"/><rect class="cls-14" x="328.32" y="345.6" width="28.8" height="28.8"/><rect class="cls-14" x="328.32" y="403.2" width="28.8" height="28.8"/><rect class="cls-14" x="328.32" y="460.8" width="28.8" height="28.8"/><line class="cls-13" x1="141.12" y1="144" x2="155.52" y2="169.92"/><rect class="cls-6" x="123.12" y="140.4" width="43.2" height="36" transform="translate(303.12 13.68) rotate(90)"/><g><line class="cls-12" x1="141.12" y1="144.02" x2="141.12" y2="129.6"/><path class="cls-18" d="M144.13,143.87c0,1.66-1.35,3.01-3.01,3.01s-3.01-1.35-3.01-3.01,1.35-3.01,3.01-3.01,3.01,1.35,3.01,3.01Z"/></g><g><line class="cls-12" x1="141.12" y1="172.78" x2="141.12" y2="187.2"/><circle class="cls-18" cx="141.12" cy="172.93" r="3.01" transform="translate(-58.43 272.93) rotate(-77.4)"/></g><line class="cls-12" x1="97.92" y1="129.6" x2="141.12" y2="129.6"/><line class="cls-12" x1="97.92" y1="187.2" x2="141.12" y2="187.2"/><line class="cls-13" x1="141.12" y1="259.2" x2="155.52" y2="285.12"/><rect class="cls-6" x="123.12" y="255.6" width="43.2" height="36" transform="translate(418.32 128.88) rotate(90)"/><g><line class="cls-14" x1="184.32" y1="273.6" x2="183.32" y2="273.6"/><line class="cls-5" x1="181.4" y1="273.6" x2="151.72" y2="273.6"/><line class="cls-14" x1="150.76" y1="273.6" x2="149.76" y2="273.6"/></g><g><line class="cls-12" x1="141.12" y1="259.22" x2="141.12" y2="244.8"/><path class="cls-18" d="M144.13,259.07c0,1.66-1.35,3.01-3.01,3.01s-3.01-1.35-3.01-3.01,1.35-3.01,3.01-3.01,3.01,1.35,3.01,3.01Z"/></g><g><line class="cls-12" x1="141.12" y1="287.98" x2="141.12" y2="302.4"/><path class="cls-18" d="M138.11,288.13c0-1.66,1.35-3.01,3.01-3.01s3.01,1.35,3.01,3.01-1.35,3.01-3.01,3.01-3.01-1.35-3.01-3.01Z"/></g><line class="cls-12" x1="97.92" y1="244.8" x2="141.12" y2="244.8"/><line class="cls-12" x1="97.92" y1="302.4" x2="141.12" y2="302.4"/><g><line class="cls-14" x1="328.32" y1="187.2" x2="327.32" y2="187.2"/><line class="cls-3" x1="325.3" y1="187.2" x2="229.53" y2="187.2"/><line class="cls-14" x1="228.52" y1="187.2" x2="227.52" y2="187.2"/></g><g><line class="cls-14" x1="227.52" y1="158.4" x2="227.52" y2="159.4"/><line class="cls-11" x1="227.52" y1="161.46" x2="227.52" y2="185.17"/><line class="cls-14" x1="227.52" y1="186.2" x2="227.52" y2="187.2"/></g><line class="cls-13" x1="285.12" y1="460.8" x2="270.72" y2="434.88"/><rect class="cls-6" x="259.92" y="428.4" width="43.2" height="36" transform="translate(-164.88 727.92) rotate(-90)"/><g><line class="cls-14" x1="198.72" y1="446.4" x2="199.72" y2="446.4"/><line class="cls-7" x1="201.77" y1="446.4" x2="274.46" y2="446.4"/><line class="cls-14" x1="275.48" y1="446.4" x2="276.48" y2="446.4"/></g><g><line class="cls-12" x1="285.12" y1="460.78" x2="285.12" y2="475.2"/><circle class="cls-18" cx="285.12" cy="460.93" r="3.01"/></g><g><line class="cls-12" x1="285.12" y1="432.02" x2="285.12" y2="417.6"/><circle class="cls-18" cx="285.12" cy="431.87" r="3.01"/></g><line class="cls-12" x1="328.32" y1="475.2" x2="285.12" y2="475.2"/><line class="cls-12" x1="328.32" y1="417.6" x2="285.12" y2="417.6"/><line class="cls-13" x1="285.12" y1="345.6" x2="270.72" y2="319.68"/><rect class="cls-6" x="259.92" y="313.2" width="43.2" height="36" transform="translate(-49.68 612.72) rotate(-90)"/><g><line class="cls-14" x1="241.92" y1="331.2" x2="242.92" y2="331.2"/><line class="cls-5" x1="244.84" y1="331.2" x2="274.52" y2="331.2"/><line class="cls-14" x1="275.48" y1="331.2" x2="276.48" y2="331.2"/></g><g><line class="cls-12" x1="285.12" y1="345.58" x2="285.12" y2="360"/><path class="cls-18" d="M282.11,345.73c0-1.66,1.35-3.01,3.01-3.01s3.01,1.35,3.01,3.01-1.35,3.01-3.01,3.01-3.01-1.35-3.01-3.01Z"/></g><g><line class="cls-12" x1="285.12" y1="316.82" x2="285.12" y2="302.4"/><path class="cls-18" d="M288.13,316.67c0,1.66-1.35,3.01-3.01,3.01s-3.01-1.35-3.01-3.01,1.35-3.01,3.01-3.01,3.01,1.35,3.01,3.01Z"/></g><line class="cls-12" x1="328.32" y1="360" x2="285.12" y2="360"/><line class="cls-12" x1="328.32" y1="302.4" x2="285.12" y2="302.4"/><g><line class="cls-14" x1="184.32" y1="360" x2="184.32" y2="359"/><line class="cls-10" x1="184.32" y1="357.04" x2="184.32" y2="275.58"/><line class="cls-14" x1="184.32" y1="274.6" x2="184.32" y2="273.6"/></g><g><line class="cls-14" x1="184.32" y1="360" x2="183.32" y2="360"/><line class="cls-10" x1="181.36" y1="360" x2="99.9" y2="360"/><line class="cls-14" x1="98.92" y1="360" x2="97.92" y2="360"/></g><g><line class="cls-14" x1="97.92" y1="417.6" x2="98.92" y2="417.6"/><line class="cls-3" x1="100.94" y1="417.6" x2="196.71" y2="417.6"/><line class="cls-14" x1="197.72" y1="417.6" x2="198.72" y2="417.6"/></g><g><line class="cls-14" x1="198.72" y1="446.33" x2="198.72" y2="445.33"/><line class="cls-9" x1="198.72" y1="443.28" x2="198.72" y2="419.63"/><line class="cls-14" x1="198.72" y1="418.6" x2="198.72" y2="417.6"/></g><g><line class="cls-14" x1="241.92" y1="331.2" x2="241.92" y2="330.2"/><line class="cls-10" x1="241.92" y1="328.24" x2="241.92" y2="246.78"/><line class="cls-14" x1="241.92" y1="245.8" x2="241.92" y2="244.8"/></g><g><line class="cls-14" x1="328.32" y1="244.8" x2="327.32" y2="244.8"/><line class="cls-10" x1="325.36" y1="244.8" x2="243.9" y2="244.8"/><line class="cls-14" x1="242.92" y1="244.8" x2="241.92" y2="244.8"/></g><line class="cls-13" x1="198.72" y1="54.72" x2="224.64" y2="40.32"/><rect class="cls-6" x="191.52" y="33.12" width="43.2" height="36"/><g><line class="cls-12" x1="198.74" y1="54.72" x2="155.52" y2="54.72"/><path class="cls-18" d="M198.59,51.71c1.66,0,3.01,1.35,3.01,3.01s-1.35,3.01-3.01,3.01-3.01-1.35-3.01-3.01,1.35-3.01,3.01-3.01Z"/></g><g><line class="cls-14" x1="213.12" y1="18.72" x2="213.12" y2="19.72"/><line class="cls-11" x1="213.12" y1="21.78" x2="213.12" y2="45.49"/><line class="cls-14" x1="213.12" y1="46.52" x2="213.12" y2="47.52"/></g><g><line class="cls-12" x1="227.5" y1="54.72" x2="270.72" y2="54.72"/><path class="cls-18" d="M227.65,57.73c-1.66,0-3.01-1.35-3.01-3.01s1.35-3.01,3.01-3.01,3.01,1.35,3.01,3.01-1.35,3.01-3.01,3.01Z"/></g><g><line class="cls-14" x1="149.76" y1="158.4" x2="150.76" y2="158.4"/><line class="cls-7" x1="152.81" y1="158.4" x2="225.5" y2="158.4"/><line class="cls-14" x1="226.52" y1="158.4" x2="227.52" y2="158.4"/></g></g><g id="TEXT"><text class="cls-19" transform="translate(840.96 177.12)"><tspan x="0" y="0">2</tspan></text><text class="cls-19" transform="translate(633.55 125.28)"><tspan x="0" y="0">13</tspan></text><text class="cls-19" transform="translate(643.65 177.12)"><tspan x="0" y="0">1</tspan></text><text class="cls-17" transform="translate(761.87 544.32)"><tspan class="cls-21" x="0" y="0">V</tspan><tspan class="cls-23" x="11.45" y="0">SS</tspan></text><text class="cls-17" transform="translate(756.81 53.28)"><tspan class="cls-21" x="0" y="0">V</tspan><tspan class="cls-23" x="11.45" y="0">DD</tspan></text><text class="cls-19" transform="translate(722.85 112.32)"><tspan x="0" y="0">14</tspan></text><text class="cls-19" transform="translate(732.23 499.68)"><tspan x="0" y="0">7</tspan></text><text class="cls-19" transform="translate(512.26 187.2)"><tspan x="0" y="0">In/Out A</tspan></text><text class="cls-19" transform="translate(912.96 187.2)"><tspan x="0" y="0">In/Out A</tspan></text><text class="cls-19" transform="translate(460.97 136.8)"><tspan x="0" y="0">Cont</tspan><tspan class="cls-22" x="37.79" y="0">r</tspan><tspan x="43.71" y="0">ol A</tspan></text><text class="cls-19" transform="translate(840.96 263.52)"><tspan x="0" y="0">4</tspan></text><text class="cls-19" transform="translate(643.65 211.68)"><tspan x="0" y="0">5</tspan></text><text class="cls-19" transform="translate(643.65 263.52)"><tspan x="0" y="0">3</tspan></text><text class="cls-19" transform="translate(514.24 273.6)"><tspan x="0" y="0">In/Out B</tspan></text><text class="cls-19" transform="translate(912.96 273.6)"><tspan x="0" y="0">In/Out B</tspan></text><text class="cls-19" transform="translate(840.96 349.92)"><tspan x="0" y="0">9</tspan></text><text class="cls-19" transform="translate(643.65 298.08)"><tspan x="0" y="0">6</tspan></text><text class="cls-19" transform="translate(643.65 349.92)"><tspan x="0" y="0">8</tspan></text><text class="cls-19" transform="translate(512.29 360)"><tspan x="0" y="0">In/Out C</tspan></text><text class="cls-19" transform="translate(912.96 360)"><tspan x="0" y="0">In/Out C</tspan></text><text class="cls-19" transform="translate(839.52 436.32)"><tspan x="0" y="0">11</tspan></text><text class="cls-19" transform="translate(633.54 384.48)"><tspan x="0" y="0">12</tspan></text><text class="cls-19" transform="translate(633.55 436.32)"><tspan x="0" y="0">10</tspan></text><text class="cls-19" transform="translate(512.2 446.4)"><tspan x="0" y="0">In/Out D</tspan></text><text class="cls-19" transform="translate(912.96 446.4)"><tspan x="0" y="0">In/Out D</tspan></text><text class="cls-19" transform="translate(465.56 223.2)"><tspan x="0" y="0">Cont</tspan><tspan class="cls-22" x="37.79" y="0">r</tspan><tspan x="43.71" y="0">ol B</tspan></text><text class="cls-19" transform="translate(465.3 308.16)"><tspan x="0" y="0">Cont</tspan><tspan class="cls-22" x="37.79" y="0">r</tspan><tspan x="43.71" y="0">ol C</tspan></text><text class="cls-19" transform="translate(466.7 394.56)"><tspan x="0" y="0">Cont</tspan><tspan class="cls-22" x="37.79" y="0">r</tspan><tspan x="43.71" y="0">ol D</tspan></text><text class="cls-19" transform="translate(78.47 138.78)"><tspan x="0" y="0">1</tspan></text><text class="cls-19" transform="translate(78.47 196.38)"><tspan x="0" y="0">2</tspan></text><text class="cls-19" transform="translate(78.47 253.98)"><tspan x="0" y="0">3</tspan></text><text class="cls-19" transform="translate(78.47 311.58)"><tspan x="0" y="0">4</tspan></text><text class="cls-19" transform="translate(78.47 369.18)"><tspan x="0" y="0">5</tspan></text><text class="cls-19" transform="translate(78.47 426.78)"><tspan x="0" y="0">6</tspan></text><text class="cls-19" transform="translate(78.47 484.38)"><tspan x="0" y="0">7</tspan></text><text class="cls-19" transform="translate(331.89 138.78)"><tspan x="0" y="0">14</tspan></text><text class="cls-19" transform="translate(331.89 196.38)"><tspan x="0" y="0">13</tspan></text><text class="cls-19" transform="translate(331.89 253.98)"><tspan x="0" y="0">12</tspan></text><text class="cls-19" transform="translate(331.89 311.58)"><tspan x="0" y="0">11</tspan></text><text class="cls-19" transform="translate(331.89 369.18)"><tspan x="0" y="0">10</tspan></text><text class="cls-19" transform="translate(337.67 426.78)"><tspan x="0" y="0">9</tspan></text><text class="cls-19" transform="translate(337.67 484.38)"><tspan x="0" y="0">8</tspan></text><text class="cls-17" transform="translate(102.35 484.38)"><tspan class="cls-21" x="0" y="0">V</tspan><tspan class="cls-23" x="11.45" y="0">SS</tspan></text><text class="cls-17" transform="translate(296 138.78)"><tspan class="cls-21" x="0" y="0">V</tspan><tspan class="cls-23" x="11.45" y="0">DD</tspan></text><text class="cls-19" transform="translate(181.15 547.2)"><tspan x="0" y="0">CD4066</tspan></text><text class="cls-20" transform="translate(103.66 58.02)"><tspan x="0" y="0">1,3,8,10</tspan></text><text class="cls-20" transform="translate(155.89 23.46)"><tspan x="0" y="0">5,6,12,13</tspan></text><text class="cls-20" transform="translate(275.02 58.02)"><tspan x="0" y="0">2,4,9,11</tspan></text><text class="cls-19" transform="translate(102.24 124.38)"><tspan x="0" y="0">In/Out A</tspan></text><text class="cls-19" transform="translate(102.24 241.02)"><tspan x="0" y="0">In/Out B</tspan></text><text class="cls-19" transform="translate(102.24 318.78)"><tspan x="0" y="0">In/Out B</tspan></text><text class="cls-19" transform="translate(103.68 377.82)"><tspan x="0" y="0">Cont</tspan><tspan class="cls-22" x="37.79" y="0">r</tspan><tspan x="43.71" y="0">ol B</tspan></text><text class="cls-19" transform="translate(103.68 433.98)"><tspan x="0" y="0">Cont</tspan><tspan class="cls-22" x="37.79" y="0">r</tspan><tspan x="43.71" y="0">ol C</tspan></text><text class="cls-19" transform="translate(255.88 298.62)"><tspan x="0" y="0">In/Out D</tspan></text><text class="cls-19" transform="translate(255.88 377.82)"><tspan x="0" y="0">In/Out D</tspan></text><text class="cls-19" transform="translate(255.97 413.82)"><tspan x="0" y="0">In/Out C</tspan></text><text class="cls-19" transform="translate(248.02 205.02)"><tspan x="0" y="0">Cont</tspan><tspan class="cls-22" x="37.79" y="0">r</tspan><tspan x="43.71" y="0">ol A</tspan></text><text class="cls-19" transform="translate(247.96 262.62)"><tspan x="0" y="0">Cont</tspan><tspan class="cls-22" x="37.79" y="0">r</tspan><tspan x="43.71" y="0">ol D</tspan></text><text class="cls-19" transform="translate(255.97 491.58)"><tspan x="0" y="0">In/Out C</tspan></text></g></svg>