<?xml version="1.0" encoding="UTF-8"?><svg xmlns="http://www.w3.org/2000/svg" viewBox="0 0 1080 600.48"><defs><style>.cls-1{stroke-width:3px;}.cls-1,.cls-2,.cls-3,.cls-4,.cls-5,.cls-6,.cls-7,.cls-8,.cls-9,.cls-10,.cls-11,.cls-12{stroke:#1d1e1b;stroke-miterlimit:10;}.cls-1,.cls-2,.cls-3,.cls-5,.cls-6,.cls-7,.cls-8,.cls-9,.cls-10,.cls-11,.cls-12{fill:none;}.cls-2{stroke-dasharray:0 0 4.12 4.12;}.cls-3{stroke-width:1.63px;}.cls-13,.cls-4{fill:#1d1e1b;}.cls-4,.cls-10{stroke-width:2px;}.cls-5{stroke-dasharray:0 0 4.01 4.01;}.cls-6{stroke-width:1.44px;}.cls-7{stroke-width:1.44px;}.cls-8{stroke-width:1.98px;}.cls-9{stroke-width:2px;}.cls-12{stroke-width:1.91px;}</style></defs><g id="TEXT_Vector"><path class="cls-13" d="M84.87,92.06h-1.63v-10.84l-3.28,1.2v-1.48l4.66-1.75h.25v12.86Z"/><path class="cls-13" d="M87.91,149.66h-8.38v-1.17l4.43-4.92c.66-.74,1.11-1.35,1.36-1.81s.37-.95,.37-1.45c0-.67-.2-1.22-.61-1.64s-.94-.64-1.62-.64c-.81,0-1.44,.23-1.89,.69s-.67,1.1-.67,1.92h-1.63c0-1.18,.38-2.13,1.14-2.86s1.77-1.09,3.05-1.09c1.19,0,2.13,.31,2.82,.94s1.04,1.45,1.04,2.49c0,1.26-.8,2.76-2.41,4.5l-3.43,3.72h6.42v1.33Z"/><path class="cls-13" d="M81.89,200.07h1.22c.77-.01,1.37-.21,1.81-.61s.66-.92,.66-1.59c0-1.5-.75-2.25-2.24-2.25-.7,0-1.26,.2-1.68,.6s-.63,.93-.63,1.6h-1.63c0-1.01,.37-1.86,1.11-2.53s1.68-1.01,2.83-1.01c1.21,0,2.15,.32,2.84,.96s1.03,1.53,1.03,2.66c0,.56-.18,1.1-.54,1.62s-.85,.91-1.47,1.17c.7,.22,1.25,.59,1.63,1.11s.58,1.15,.58,1.89c0,1.15-.38,2.06-1.12,2.73s-1.73,1.01-2.93,1.01-2.18-.33-2.93-.98-1.13-1.51-1.13-2.58h1.63c0,.67,.22,1.21,.66,1.62s1.03,.61,1.77,.61c.79,0,1.39-.21,1.8-.62s.62-1,.62-1.77-.23-1.32-.69-1.71-1.12-.6-1.98-.62h-1.22v-1.33Z"/><path class="cls-13" d="M86.39,260.56h1.78v1.33h-1.78v2.97h-1.63v-2.97h-5.83v-.96l5.73-8.87h1.73v8.5Zm-5.62,0h3.98v-6.28l-.19,.35-3.79,5.92Z"/><path class="cls-13" d="M80.28,316.04l.65-6.38h6.56v1.5h-5.18l-.39,3.49c.63-.37,1.34-.55,2.14-.55,1.17,0,2.09,.39,2.78,1.16s1.03,1.81,1.03,3.12-.36,2.36-1.07,3.12-1.71,1.14-2.98,1.14c-1.13,0-2.05-.31-2.77-.94s-1.12-1.49-1.22-2.6h1.54c.1,.73,.36,1.29,.78,1.66s.98,.56,1.67,.56c.76,0,1.35-.26,1.78-.77s.65-1.23,.65-2.14c0-.86-.23-1.54-.7-2.06s-1.09-.78-1.86-.78c-.71,0-1.27,.16-1.67,.47l-.43,.35-1.3-.33Z"/><path class="cls-13" d="M85.91,367.25v1.38h-.3c-1.27,.02-2.27,.4-3.02,1.12s-1.18,1.75-1.3,3.07c.67-.77,1.59-1.16,2.76-1.16s2,.39,2.67,1.18,1,1.8,1,3.04c0,1.32-.36,2.37-1.08,3.16s-1.68,1.19-2.89,1.19-2.22-.47-2.98-1.41-1.14-2.15-1.14-3.63v-.62c0-2.36,.5-4.16,1.51-5.4s2.5-1.88,4.49-1.91h.29Zm-2.14,5.77c-.56,0-1.07,.17-1.54,.5s-.79,.75-.98,1.26v.6c0,1.05,.24,1.9,.71,2.55s1.07,.97,1.78,.97,1.31-.27,1.73-.81,.63-1.25,.63-2.12-.21-1.59-.64-2.13-.99-.81-1.69-.81Z"/><path class="cls-13" d="M87.79,425.78l-5.3,11.88h-1.71l5.28-11.46h-6.93v-1.34h8.65v.91Z"/><g><path class="cls-13" d="M338.3,207.26h-1.63v-10.84l-3.28,1.2v-1.48l4.66-1.75h.25v12.86Z"/><path class="cls-13" d="M349.93,202.96h1.78v1.33h-1.78v2.97h-1.63v-2.97h-5.83v-.96l5.73-8.87h1.73v8.5Zm-5.62,0h3.98v-6.28l-.19,.35-3.79,5.92Z"/></g><g><path class="cls-13" d="M338.3,264.86h-1.63v-10.84l-3.28,1.2v-1.48l4.66-1.75h.25v12.86Z"/><path class="cls-13" d="M345.43,257.67h1.22c.77-.01,1.37-.21,1.81-.61s.66-.92,.66-1.59c0-1.5-.75-2.25-2.24-2.25-.7,0-1.26,.2-1.68,.6s-.63,.93-.63,1.6h-1.63c0-1.01,.37-1.86,1.11-2.53s1.68-1.01,2.83-1.01c1.21,0,2.15,.32,2.84,.96s1.03,1.53,1.03,2.66c0,.56-.18,1.1-.54,1.62s-.85,.91-1.47,1.17c.7,.22,1.25,.59,1.63,1.11s.58,1.15,.58,1.89c0,1.15-.38,2.06-1.12,2.73s-1.73,1.01-2.93,1.01-2.18-.33-2.93-.98-1.13-1.51-1.13-2.58h1.63c0,.67,.22,1.21,.66,1.62s1.03,.61,1.77,.61c.79,0,1.39-.21,1.8-.62s.62-1,.62-1.77-.23-1.32-.69-1.71-1.12-.6-1.98-.62h-1.22v-1.33Z"/></g><g><path class="cls-13" d="M338.3,322.46h-1.63v-10.84l-3.28,1.2v-1.48l4.66-1.75h.25v12.86Z"/><path class="cls-13" d="M351.45,322.46h-8.38v-1.17l4.43-4.92c.66-.74,1.11-1.35,1.36-1.82s.37-.95,.37-1.45c0-.67-.2-1.22-.61-1.64s-.94-.64-1.62-.64c-.81,0-1.44,.23-1.89,.69s-.67,1.1-.67,1.92h-1.63c0-1.18,.38-2.13,1.14-2.86s1.77-1.09,3.05-1.09c1.19,0,2.13,.31,2.82,.94s1.04,1.46,1.04,2.49c0,1.26-.8,2.76-2.41,4.5l-3.43,3.72h6.42v1.33Z"/></g><g><path class="cls-13" d="M338.3,380.06h-1.63v-10.84l-3.28,1.2v-1.48l4.66-1.75h.25v12.86Z"/><path class="cls-13" d="M348.41,380.06h-1.63v-10.84l-3.28,1.2v-1.48l4.66-1.75h.25v12.86Z"/></g><g><path class="cls-13" d="M338.3,437.66h-1.63v-10.84l-3.28,1.2v-1.48l4.66-1.75h.25v12.86Z"/><path class="cls-13" d="M351.09,432.2c0,1.9-.33,3.32-.98,4.25s-1.67,1.39-3.05,1.39-2.38-.45-3.03-1.36c-.66-.9-1-2.26-1.02-4.06v-2.17c0-1.88,.33-3.28,.98-4.19s1.67-1.37,3.06-1.37,2.39,.44,3.04,1.32c.65,.88,.98,2.24,1,4.08v2.11Zm-1.63-2.22c0-1.38-.19-2.38-.58-3.01-.39-.63-1-.94-1.84-.94s-1.44,.31-1.82,.94-.58,1.59-.59,2.89v2.6c0,1.38,.2,2.4,.6,3.06,.4,.66,1.01,.99,1.82,.99s1.4-.31,1.79-.93,.59-1.6,.61-2.94v-2.66Z"/></g><path class="cls-13" d="M344.96,489.63c-.34,.4-.75,.73-1.22,.98s-.99,.37-1.55,.37c-.74,0-1.38-.18-1.93-.54s-.97-.87-1.27-1.53-.45-1.39-.45-2.18c0-.86,.16-1.63,.49-2.31s.79-1.21,1.38-1.57,1.29-.54,2.09-.54c1.27,0,2.26,.47,2.99,1.42s1.09,2.24,1.09,3.87v.47c0,2.49-.49,4.31-1.48,5.45s-2.47,1.73-4.46,1.76h-.32v-1.38h.34c1.34-.02,2.37-.37,3.09-1.05s1.11-1.74,1.18-3.21Zm-2.5,0c.54,0,1.05-.17,1.51-.5s.8-.75,1.01-1.24v-.65c0-1.07-.23-1.93-.69-2.6s-1.05-1-1.76-1-1.29,.27-1.72,.82-.65,1.27-.65,2.17,.21,1.59,.63,2.16,.98,.85,1.68,.85Z"/><g><path class="cls-13" d="M118.04,494.46l3.66-10.56h1.85l-4.75,12.8h-1.49l-4.74-12.8h1.84l3.64,10.56Z"/><path class="cls-13" d="M127.28,492.9c-.96-.28-1.67-.62-2.11-1.02s-.66-.9-.66-1.5c0-.67,.27-1.23,.81-1.67s1.24-.66,2.09-.66c.59,0,1.11,.11,1.57,.34s.81,.54,1.07,.94,.38,.83,.38,1.31h-1.13c0-.52-.16-.92-.49-1.22s-.79-.44-1.39-.44c-.55,0-.99,.12-1.3,.37-.31,.24-.47,.58-.47,1.02,0,.35,.15,.64,.44,.88,.29,.24,.8,.46,1.51,.66,.71,.2,1.26,.42,1.66,.66s.7,.52,.89,.84,.29,.7,.29,1.13c0,.69-.27,1.25-.81,1.66s-1.26,.62-2.16,.62c-.59,0-1.13-.11-1.64-.34s-.9-.53-1.17-.92-.41-.83-.41-1.33h1.13c0,.52,.19,.92,.57,1.22s.89,.45,1.53,.45c.59,0,1.05-.12,1.37-.36s.47-.57,.47-.99-.15-.74-.44-.97-.82-.45-1.59-.68Z"/><path class="cls-13" d="M134.4,492.9c-.96-.28-1.67-.62-2.11-1.02s-.66-.9-.66-1.5c0-.67,.27-1.23,.81-1.67s1.24-.66,2.09-.66c.59,0,1.11,.11,1.57,.34s.81,.54,1.07,.94,.38,.83,.38,1.31h-1.13c0-.52-.16-.92-.49-1.22s-.79-.44-1.39-.44c-.55,0-.99,.12-1.3,.37-.31,.24-.47,.58-.47,1.02,0,.35,.15,.64,.44,.88,.29,.24,.8,.46,1.51,.66,.71,.2,1.26,.42,1.66,.66s.7,.52,.89,.84,.29,.7,.29,1.13c0,.69-.27,1.25-.81,1.66s-1.26,.62-2.16,.62c-.59,0-1.13-.11-1.64-.34s-.9-.53-1.17-.92-.41-.83-.41-1.33h1.13c0,.52,.19,.92,.57,1.22s.89,.45,1.53,.45c.59,0,1.05-.12,1.37-.36s.47-.57,.47-.99-.15-.74-.44-.97-.82-.45-1.59-.68Z"/></g><g><path class="cls-13" d="M292.45,91.26l3.66-10.56h1.85l-4.75,12.8h-1.49l-4.74-12.8h1.84l3.64,10.56Z"/><path class="cls-13" d="M299.17,93.5v-8.53h2.41c.74,0,1.4,.16,1.97,.49s1.01,.79,1.32,1.4,.47,1.3,.47,2.09v.54c0,.8-.16,1.51-.47,2.12s-.75,1.07-1.33,1.39-1.25,.49-2.01,.5h-2.36Zm1.12-7.61v6.69h1.18c.87,0,1.54-.27,2.02-.81,.48-.54,.72-1.31,.72-2.3v-.5c0-.97-.23-1.72-.68-2.26-.46-.54-1.1-.81-1.94-.82h-1.31Z"/><path class="cls-13" d="M307.04,93.5v-8.53h2.41c.74,0,1.4,.16,1.97,.49s1.01,.79,1.32,1.4,.47,1.3,.47,2.09v.54c0,.8-.16,1.51-.47,2.12s-.75,1.07-1.33,1.39-1.25,.49-2.01,.5h-2.36Zm1.12-7.61v6.69h1.18c.87,0,1.54-.27,2.02-.81,.48-.54,.72-1.31,.72-2.3v-.5c0-.97-.23-1.72-.68-2.26-.46-.54-1.1-.81-1.94-.82h-1.31Z"/></g><g><path class="cls-13" d="M192.04,561.86c-.16,1.35-.66,2.4-1.5,3.13s-1.96,1.1-3.35,1.1c-1.51,0-2.72-.54-3.63-1.63s-1.37-2.53-1.37-4.35v-1.23c0-1.19,.21-2.24,.64-3.14s1.03-1.6,1.81-2.08,1.68-.72,2.71-.72c1.36,0,2.45,.38,3.27,1.14s1.3,1.81,1.43,3.15h-1.7c-.15-1.02-.46-1.76-.95-2.22-.49-.46-1.17-.69-2.05-.69-1.08,0-1.92,.4-2.54,1.2s-.92,1.93-.92,3.4v1.24c0,1.39,.29,2.5,.87,3.32,.58,.82,1.39,1.23,2.43,1.23,.94,0,1.66-.21,2.16-.64s.83-1.16,1-2.22h1.7Z"/><path class="cls-13" d="M194.35,565.92v-12.8h3.61c1.11,0,2.1,.25,2.95,.74s1.52,1.19,1.98,2.1,.7,1.95,.71,3.13v.82c0,1.21-.23,2.26-.7,3.17s-1.13,1.61-2,2.09-1.87,.74-3.02,.75h-3.54Zm1.69-11.42v10.04h1.78c1.3,0,2.31-.41,3.04-1.21,.72-.81,1.09-1.96,1.09-3.46v-.75c0-1.45-.34-2.58-1.02-3.39-.68-.81-1.65-1.21-2.9-1.23h-1.97Z"/><path class="cls-13" d="M212.59,561.62h1.78v1.33h-1.78v2.97h-1.63v-2.97h-5.83v-.96l5.73-8.87h1.73v8.5Zm-5.62,0h3.98v-6.28l-.19,.35-3.79,5.92Z"/><path class="cls-13" d="M223.86,560.46c0,1.9-.33,3.32-.98,4.25s-1.67,1.39-3.05,1.39-2.38-.45-3.03-1.36-1-2.26-1.02-4.06v-2.17c0-1.88,.33-3.28,.98-4.19s1.67-1.37,3.06-1.37,2.39,.44,3.04,1.32,.98,2.24,1,4.08v2.11Zm-1.63-2.22c0-1.38-.19-2.38-.58-3.01s-1-.94-1.84-.94-1.44,.31-1.82,.94-.58,1.59-.59,2.89v2.6c0,1.38,.2,2.4,.6,3.06s1.01,.99,1.82,.99,1.4-.31,1.79-.93,.59-1.6,.61-2.94v-2.66Z"/><path class="cls-13" d="M231.29,565.92h-1.63v-10.84l-3.28,1.2v-1.48l4.66-1.75h.25v12.86Z"/><path class="cls-13" d="M243.81,556.46c0,.64-.17,1.21-.51,1.71s-.79,.89-1.37,1.17c.67,.29,1.2,.71,1.59,1.26s.58,1.17,.58,1.87c0,1.11-.37,1.99-1.12,2.65s-1.73,.98-2.95,.98-2.22-.33-2.96-.99-1.11-1.54-1.11-2.64c0-.69,.19-1.32,.57-1.87s.9-.98,1.57-1.27c-.57-.28-1.02-.67-1.34-1.17s-.49-1.06-.49-1.7c0-1.08,.35-1.93,1.04-2.57s1.6-.95,2.73-.95,2.03,.32,2.73,.95,1.04,1.49,1.04,2.57Zm-1.33,5.97c0-.71-.23-1.3-.68-1.75s-1.05-.68-1.78-.68-1.32,.22-1.76,.67-.66,1.03-.66,1.76,.22,1.3,.65,1.71,1.03,.62,1.8,.62,1.36-.21,1.79-.63,.65-.99,.65-1.71Zm-2.44-8.15c-.64,0-1.16,.2-1.55,.59s-.59,.93-.59,1.61,.19,1.18,.58,1.58,.91,.6,1.56,.6,1.17-.2,1.56-.6,.58-.93,.58-1.58-.2-1.18-.61-1.59-.92-.62-1.54-.62Z"/></g><path class="cls-13" d="M87.29,485.8c0,.64-.17,1.21-.51,1.71s-.79,.89-1.37,1.17c.67,.29,1.2,.71,1.59,1.26s.58,1.17,.58,1.87c0,1.11-.37,1.99-1.12,2.65s-1.73,.98-2.95,.98-2.22-.33-2.96-.99-1.11-1.54-1.11-2.64c0-.69,.19-1.32,.57-1.87s.9-.98,1.57-1.27c-.57-.28-1.02-.67-1.34-1.17s-.49-1.06-.49-1.7c0-1.08,.35-1.93,1.04-2.57s1.6-.95,2.73-.95,2.03,.32,2.73,.95,1.04,1.49,1.04,2.57Zm-1.33,5.97c0-.71-.23-1.3-.68-1.75s-1.05-.68-1.78-.68-1.32,.22-1.76,.67-.66,1.03-.66,1.76,.22,1.3,.65,1.71,1.03,.62,1.8,.62,1.36-.21,1.79-.63,.65-.99,.65-1.71Zm-2.44-8.15c-.64,0-1.16,.2-1.55,.59s-.59,.93-.59,1.61,.19,1.18,.58,1.58,.91,.6,1.56,.6,1.17-.2,1.56-.6,.58-.93,.58-1.58-.2-1.18-.61-1.59-.92-.62-1.54-.62Z"/><g><path class="cls-13" d="M338.3,92.06h-1.63v-10.84l-3.28,1.2v-1.48l4.66-1.75h.25v12.86Z"/><path class="cls-13" d="M349.44,79.25v1.38h-.3c-1.27,.02-2.27,.4-3.02,1.12s-1.18,1.75-1.3,3.07c.67-.77,1.59-1.16,2.76-1.16s2,.39,2.67,1.18,1,1.8,1,3.04c0,1.32-.36,2.37-1.08,3.16s-1.68,1.19-2.89,1.19-2.22-.47-2.98-1.41-1.14-2.15-1.14-3.63v-.62c0-2.36,.5-4.16,1.51-5.4s2.5-1.88,4.49-1.91h.29Zm-2.14,5.77c-.56,0-1.07,.17-1.54,.5s-.79,.75-.98,1.26v.6c0,1.05,.24,1.9,.71,2.55s1.07,.97,1.78,.97,1.31-.27,1.73-.81,.63-1.25,.63-2.12-.21-1.59-.64-2.13-.99-.81-1.69-.81Z"/></g><g><path class="cls-13" d="M338.3,149.66h-1.63v-10.84l-3.28,1.2v-1.48l4.66-1.75h.25v12.86Z"/><path class="cls-13" d="M343.81,143.24l.65-6.38h6.56v1.5h-5.18l-.39,3.49c.63-.37,1.34-.55,2.14-.55,1.17,0,2.09,.39,2.78,1.16s1.03,1.81,1.03,3.12-.36,2.36-1.07,3.12-1.71,1.14-2.98,1.14c-1.13,0-2.05-.31-2.77-.94s-1.12-1.49-1.22-2.6h1.54c.1,.73,.36,1.28,.78,1.66s.98,.56,1.67,.56c.76,0,1.35-.26,1.78-.77s.65-1.23,.65-2.14c0-.86-.23-1.54-.7-2.06s-1.09-.78-1.86-.78c-.71,0-1.27,.16-1.67,.47l-.43,.35-1.3-.33Z"/></g><g><path class="cls-13" d="M113.81,92.06v-12.8h3.61c1.11,0,2.1,.25,2.95,.74s1.52,1.19,1.98,2.1,.7,1.95,.71,3.13v.82c0,1.21-.23,2.26-.7,3.17s-1.13,1.61-2,2.09-1.87,.74-3.02,.75h-3.54Zm1.69-11.42v10.04h1.78c1.3,0,2.31-.4,3.04-1.21,.72-.81,1.09-1.96,1.09-3.46v-.75c0-1.45-.34-2.58-1.02-3.39s-1.65-1.22-2.9-1.23h-1.97Z"/><path class="cls-13" d="M132.49,88.71h-5.36l-1.2,3.35h-1.74l4.89-12.8h1.48l4.9,12.8h-1.73l-1.22-3.35Zm-4.85-1.38h4.35l-2.18-5.99-2.17,5.99Z"/><path class="cls-13" d="M144.87,80.64h-4.11v11.42h-1.68v-11.42h-4.1v-1.38h9.9v1.38Z"/><path class="cls-13" d="M153.15,88.71h-5.36l-1.2,3.35h-1.74l4.89-12.8h1.48l4.9,12.8h-1.73l-1.22-3.35Zm-4.85-1.38h4.35l-2.18-5.99-2.17,5.99Z"/></g><g><path class="cls-13" d="M119.17,138.3h1.7v9.06c0,1.22-.37,2.18-1.1,2.87s-1.72,1.04-2.94,1.04-2.26-.33-2.97-.98-1.06-1.56-1.06-2.73h1.69c0,.73,.2,1.3,.6,1.71s.98,.62,1.74,.62c.7,0,1.26-.22,1.69-.66s.65-1.05,.65-1.85v-9.09Z"/><path class="cls-13" d="M130.61,147.75h-5.36l-1.2,3.35h-1.74l4.89-12.8h1.48l4.9,12.8h-1.73l-1.22-3.35Zm-4.85-1.38h4.35l-2.18-5.99-2.17,5.99Z"/><path class="cls-13" d="M137.47,138.3l4.18,10.44,4.18-10.44h2.19v12.8h-1.69v-4.98l.16-5.38-4.2,10.36h-1.29l-4.19-10.34,.17,5.35v4.98h-1.69v-12.8h2.18Z"/><path class="cls-13" d="M160.38,151.1h-1.63v-10.84l-3.28,1.2v-1.48l4.66-1.75h.25v12.86Z"/></g><g><path class="cls-13" d="M119.17,195.9h1.7v9.06c0,1.22-.37,2.18-1.1,2.87s-1.72,1.04-2.94,1.04-2.26-.33-2.97-.98-1.06-1.56-1.06-2.73h1.69c0,.73,.2,1.3,.6,1.71s.98,.62,1.74,.62c.7,0,1.26-.22,1.69-.66s.65-1.05,.65-1.85v-9.09Z"/><path class="cls-13" d="M130.61,205.35h-5.36l-1.2,3.35h-1.74l4.89-12.8h1.48l4.9,12.8h-1.73l-1.22-3.35Zm-4.85-1.38h4.35l-2.18-5.99-2.17,5.99Z"/><path class="cls-13" d="M137.47,195.9l4.18,10.44,4.18-10.44h2.19v12.8h-1.69v-4.98l.16-5.38-4.2,10.36h-1.29l-4.19-10.34,.17,5.35v4.98h-1.69v-12.8h2.18Z"/><path class="cls-13" d="M163.42,208.7h-8.38v-1.17l4.43-4.92c.66-.74,1.11-1.35,1.36-1.81s.37-.95,.37-1.45c0-.67-.2-1.22-.61-1.64s-.94-.64-1.62-.64c-.81,0-1.44,.23-1.89,.69s-.67,1.1-.67,1.92h-1.63c0-1.18,.38-2.13,1.14-2.86s1.77-1.09,3.05-1.09c1.19,0,2.13,.31,2.82,.94s1.04,1.45,1.04,2.49c0,1.26-.8,2.76-2.41,4.5l-3.43,3.72h6.42v1.33Z"/></g><g><path class="cls-13" d="M123.58,260.31c0,1.24-.2,2.3-.59,3.19s-.94,1.59-1.65,2.1l2.29,1.79-1.15,1.06-2.7-2.14c-.42,.11-.87,.16-1.34,.16-1.01,0-1.9-.25-2.68-.74s-1.38-1.2-1.81-2.12-.65-1.98-.66-3.19v-.92c0-1.23,.21-2.32,.64-3.26s1.03-1.67,1.81-2.17,1.68-.75,2.69-.75,1.94,.25,2.72,.75,1.38,1.21,1.81,2.15,.63,2.03,.63,3.27v.82Zm-1.69-.83c0-1.51-.3-2.67-.9-3.48s-1.46-1.23-2.57-1.23-1.9,.41-2.51,1.22-.93,1.94-.94,3.38v.94c0,1.47,.31,2.62,.92,3.46s1.46,1.27,2.55,1.27,1.93-.4,2.53-1.19,.91-1.93,.92-3.41v-.95Z"/><path class="cls-13" d="M138.6,266.3h-8.38v-1.17l4.43-4.92c.66-.74,1.11-1.35,1.36-1.81s.37-.95,.37-1.45c0-.67-.2-1.22-.61-1.64s-.94-.64-1.62-.64c-.81,0-1.44,.23-1.89,.69s-.67,1.1-.67,1.92h-1.63c0-1.18,.38-2.13,1.14-2.86s1.77-1.09,3.05-1.09c1.19,0,2.13,.31,2.82,.94s1.04,1.45,1.04,2.49c0,1.26-.8,2.76-2.41,4.5l-3.43,3.72h6.42v1.33Z"/></g><g><path class="cls-13" d="M123.58,317.91c0,1.24-.2,2.3-.59,3.2s-.94,1.59-1.65,2.1l2.29,1.79-1.15,1.06-2.7-2.14c-.42,.11-.87,.16-1.34,.16-1.01,0-1.9-.25-2.68-.74s-1.38-1.2-1.81-2.12-.65-1.98-.66-3.19v-.92c0-1.23,.21-2.32,.64-3.26s1.03-1.67,1.81-2.17,1.68-.75,2.69-.75,1.94,.25,2.72,.75,1.38,1.21,1.81,2.15,.63,2.03,.63,3.27v.82Zm-1.69-.83c0-1.51-.3-2.67-.9-3.48s-1.46-1.23-2.57-1.23-1.9,.41-2.51,1.22-.93,1.94-.94,3.38v.94c0,1.46,.31,2.62,.92,3.46s1.46,1.27,2.55,1.27,1.93-.4,2.53-1.19,.91-1.93,.92-3.42v-.95Z"/><path class="cls-13" d="M135.56,323.9h-1.63v-10.84l-3.28,1.2v-1.48l4.66-1.75h.25v12.86Z"/></g><g><path class="cls-13" d="M123.58,375.51c0,1.24-.2,2.3-.59,3.2s-.94,1.59-1.65,2.1l2.29,1.79-1.15,1.06-2.7-2.14c-.42,.11-.87,.16-1.34,.16-1.01,0-1.9-.25-2.68-.74s-1.38-1.2-1.81-2.12-.65-1.98-.66-3.19v-.92c0-1.23,.21-2.32,.64-3.26s1.03-1.67,1.81-2.17,1.68-.75,2.69-.75,1.94,.25,2.72,.75,1.38,1.21,1.81,2.15,.63,2.03,.63,3.27v.82Zm-1.69-.83c0-1.51-.3-2.67-.9-3.48s-1.46-1.23-2.57-1.23-1.9,.41-2.51,1.22-.93,1.94-.94,3.38v.94c0,1.46,.31,2.62,.92,3.46s1.46,1.27,2.55,1.27,1.93-.4,2.53-1.19,.91-1.93,.92-3.42v-.95Z"/><path class="cls-13" d="M132.58,374.31h1.22c.77-.01,1.37-.21,1.81-.61s.66-.92,.66-1.59c0-1.5-.75-2.25-2.24-2.25-.7,0-1.26,.2-1.68,.6s-.63,.93-.63,1.59h-1.63c0-1.01,.37-1.86,1.11-2.53s1.68-1.01,2.83-1.01c1.21,0,2.15,.32,2.84,.96s1.03,1.53,1.03,2.66c0,.56-.18,1.1-.54,1.62s-.85,.91-1.47,1.17c.7,.22,1.25,.59,1.63,1.11s.58,1.15,.58,1.89c0,1.15-.38,2.06-1.12,2.73s-1.73,1.01-2.93,1.01-2.18-.33-2.93-.98-1.13-1.51-1.13-2.58h1.63c0,.67,.22,1.21,.66,1.62s1.03,.61,1.77,.61c.79,0,1.39-.21,1.8-.62s.62-1,.62-1.77-.23-1.32-.69-1.71-1.12-.6-1.98-.62h-1.22v-1.33Z"/></g><g><path class="cls-13" d="M119.17,426.3h1.7v9.06c0,1.22-.37,2.18-1.1,2.87s-1.72,1.04-2.94,1.04-2.26-.33-2.97-.98-1.06-1.56-1.06-2.73h1.69c0,.73,.2,1.3,.6,1.71s.98,.62,1.74,.62c.7,0,1.26-.22,1.69-.66s.65-1.05,.65-1.85v-9.09Z"/><path class="cls-13" d="M130.61,435.75h-5.36l-1.2,3.35h-1.74l4.89-12.8h1.48l4.9,12.8h-1.73l-1.22-3.35Zm-4.85-1.38h4.35l-2.18-5.99-2.17,5.99Z"/><path class="cls-13" d="M137.47,426.3l4.18,10.44,4.18-10.44h2.19v12.8h-1.69v-4.98l.16-5.38-4.2,10.36h-1.29l-4.19-10.34,.17,5.35v4.98h-1.69v-12.8h2.18Z"/><path class="cls-13" d="M157.4,431.91h1.22c.77-.01,1.37-.21,1.81-.61s.66-.92,.66-1.59c0-1.5-.75-2.25-2.24-2.25-.7,0-1.26,.2-1.68,.6s-.63,.93-.63,1.59h-1.63c0-1.01,.37-1.86,1.11-2.53s1.68-1.01,2.83-1.01c1.21,0,2.15,.32,2.84,.96s1.03,1.53,1.03,2.66c0,.56-.18,1.1-.54,1.62s-.85,.91-1.47,1.17c.7,.22,1.25,.59,1.63,1.11s.58,1.15,.58,1.89c0,1.15-.38,2.06-1.12,2.73s-1.73,1.01-2.93,1.01-2.18-.33-2.93-.98-1.13-1.51-1.13-2.58h1.63c0,.67,.22,1.21,.66,1.62s1.03,.61,1.77,.61c.79,0,1.39-.21,1.8-.62s.62-1,.62-1.77-.23-1.32-.69-1.71-1.12-.6-1.98-.62h-1.22v-1.33Z"/></g><g><path class="cls-13" d="M268.61,204.64c-.16,1.35-.66,2.4-1.5,3.13s-1.96,1.1-3.35,1.1c-1.51,0-2.72-.54-3.63-1.63s-1.37-2.53-1.37-4.35v-1.23c0-1.19,.21-2.24,.64-3.14s1.03-1.6,1.81-2.08,1.68-.73,2.71-.73c1.36,0,2.45,.38,3.27,1.14s1.3,1.81,1.43,3.15h-1.7c-.15-1.02-.46-1.76-.95-2.22s-1.17-.69-2.05-.69c-1.08,0-1.92,.4-2.54,1.2-.61,.8-.92,1.93-.92,3.4v1.24c0,1.39,.29,2.5,.87,3.32s1.39,1.23,2.43,1.23c.94,0,1.66-.21,2.16-.64s.83-1.16,1-2.22h1.7Z"/><path class="cls-13" d="M272.61,207.32h6.06v1.38h-7.76v-12.8h1.7v11.42Z"/><path class="cls-13" d="M289.87,202.71c0,1.25-.21,2.35-.63,3.28s-1.02,1.65-1.79,2.14-1.68,.74-2.71,.74-1.9-.25-2.68-.74-1.38-1.2-1.81-2.12-.65-1.98-.66-3.19v-.92c0-1.23,.21-2.32,.64-3.26s1.03-1.67,1.81-2.17,1.68-.75,2.69-.75,1.93,.25,2.71,.74,1.38,1.21,1.81,2.15,.63,2.03,.63,3.28v.81Zm-1.68-.83c0-1.52-.3-2.68-.91-3.49s-1.46-1.22-2.56-1.22-1.91,.41-2.52,1.22-.93,1.94-.94,3.38v.94c0,1.47,.31,2.63,.93,3.47s1.47,1.26,2.55,1.26,1.93-.4,2.53-1.19,.91-1.93,.92-3.41v-.95Z"/><path class="cls-13" d="M301.82,204.64c-.16,1.35-.66,2.4-1.5,3.13s-1.96,1.1-3.35,1.1c-1.51,0-2.72-.54-3.63-1.63s-1.37-2.53-1.37-4.35v-1.23c0-1.19,.21-2.24,.64-3.14s1.03-1.6,1.81-2.08,1.68-.73,2.71-.73c1.36,0,2.45,.38,3.27,1.14s1.3,1.81,1.43,3.15h-1.7c-.15-1.02-.46-1.76-.95-2.22s-1.17-.69-2.05-.69c-1.08,0-1.92,.4-2.54,1.2-.61,.8-.92,1.93-.92,3.4v1.24c0,1.39,.29,2.5,.87,3.32s1.39,1.23,2.43,1.23c.94,0,1.66-.21,2.16-.64s.83-1.16,1-2.22h1.7Z"/><path class="cls-13" d="M307.37,202.75l-1.56,1.63v4.32h-1.69v-12.8h1.69v6.33l5.69-6.33h2.04l-5.04,5.65,5.43,7.15h-2.02l-4.54-5.95Z"/></g><g><path class="cls-13" d="M298.24,260.31c0,1.24-.2,2.3-.59,3.19s-.94,1.59-1.65,2.1l2.29,1.79-1.15,1.06-2.7-2.14c-.42,.11-.87,.16-1.34,.16-1.01,0-1.9-.25-2.68-.74s-1.38-1.2-1.81-2.12-.65-1.98-.66-3.19v-.92c0-1.23,.21-2.32,.64-3.26s1.03-1.67,1.81-2.17,1.68-.75,2.69-.75,1.94,.25,2.72,.75,1.38,1.21,1.81,2.15,.63,2.03,.63,3.27v.82Zm-1.69-.83c0-1.51-.3-2.67-.9-3.48s-1.46-1.23-2.57-1.23-1.9,.41-2.51,1.22-.93,1.94-.94,3.38v.94c0,1.47,.31,2.62,.92,3.46s1.46,1.27,2.55,1.27,1.93-.4,2.53-1.19,.91-1.93,.92-3.41v-.95Z"/><path class="cls-13" d="M305.62,259.88l.65-6.38h6.56v1.5h-5.18l-.39,3.49c.63-.37,1.34-.55,2.14-.55,1.17,0,2.09,.39,2.78,1.16s1.03,1.81,1.03,3.12-.36,2.36-1.07,3.12-1.71,1.14-2.98,1.14c-1.13,0-2.05-.31-2.77-.94s-1.12-1.49-1.22-2.6h1.54c.1,.73,.36,1.28,.78,1.66s.98,.56,1.67,.56c.76,0,1.35-.26,1.78-.77s.65-1.23,.65-2.14c0-.86-.23-1.54-.7-2.06s-1.09-.78-1.86-.78c-.71,0-1.27,.16-1.67,.47l-.43,.35-1.3-.33Z"/></g><g><path class="cls-13" d="M269.01,311.1h1.7v9.06c0,1.22-.37,2.18-1.1,2.87s-1.72,1.04-2.94,1.04-2.26-.33-2.97-.98-1.06-1.56-1.06-2.73h1.69c0,.73,.2,1.3,.6,1.71s.98,.62,1.74,.62c.7,0,1.26-.22,1.69-.66s.65-1.05,.65-1.85v-9.09Z"/><path class="cls-13" d="M280.45,320.55h-5.36l-1.2,3.35h-1.74l4.89-12.8h1.48l4.9,12.8h-1.73l-1.22-3.35Zm-4.85-1.38h4.35l-2.18-5.99-2.17,5.99Z"/><path class="cls-13" d="M287.31,311.1l4.18,10.44,4.18-10.44h2.19v12.8h-1.69v-4.98l.16-5.38-4.2,10.36h-1.29l-4.19-10.34,.17,5.35v4.98h-1.69v-12.8h2.18Z"/><path class="cls-13" d="M305.62,317.48l.65-6.38h6.56v1.5h-5.18l-.39,3.49c.63-.37,1.34-.55,2.14-.55,1.17,0,2.09,.38,2.78,1.16s1.03,1.81,1.03,3.12-.36,2.36-1.07,3.12-1.71,1.14-2.98,1.14c-1.13,0-2.05-.31-2.77-.94s-1.12-1.49-1.22-2.6h1.54c.1,.73,.36,1.28,.78,1.66s.98,.56,1.67,.56c.76,0,1.35-.26,1.78-.77s.65-1.23,.65-2.14c0-.86-.23-1.54-.7-2.06s-1.09-.78-1.86-.78c-.71,0-1.27,.16-1.67,.47l-.43,.35-1.3-.33Z"/></g><g><path class="cls-13" d="M298.24,375.51c0,1.24-.2,2.3-.59,3.2s-.94,1.59-1.65,2.1l2.29,1.79-1.15,1.06-2.7-2.14c-.42,.11-.87,.16-1.34,.16-1.01,0-1.9-.25-2.68-.74s-1.38-1.2-1.81-2.12-.65-1.98-.66-3.19v-.92c0-1.23,.21-2.32,.64-3.26s1.03-1.67,1.81-2.17,1.68-.75,2.69-.75,1.94,.25,2.72,.75,1.38,1.21,1.81,2.15,.63,2.03,.63,3.27v.82Zm-1.69-.83c0-1.51-.3-2.67-.9-3.48s-1.46-1.23-2.57-1.23-1.9,.41-2.51,1.22-.93,1.94-.94,3.38v.94c0,1.46,.31,2.62,.92,3.46s1.46,1.27,2.55,1.27,1.93-.4,2.53-1.19,.91-1.93,.92-3.42v-.95Z"/><path class="cls-13" d="M311.74,377.2h1.78v1.33h-1.78v2.97h-1.63v-2.97h-5.83v-.96l5.73-8.87h1.73v8.5Zm-5.62,0h3.98v-6.28l-.19,.35-3.79,5.92Z"/></g><g><path class="cls-13" d="M252.95,424.01v5.01h-1.69v-12.8h4.72c1.4,0,2.5,.36,3.29,1.07s1.19,1.66,1.19,2.84c0,1.24-.39,2.2-1.16,2.87s-1.89,1.01-3.34,1.01h-3.01Zm0-1.38h3.03c.9,0,1.59-.21,2.07-.64,.48-.43,.72-1.04,.72-1.84s-.24-1.37-.72-1.83c-.48-.46-1.14-.7-1.98-.71h-3.13v5.03Z"/><path class="cls-13" d="M267.31,423.84h-3.01v5.18h-1.7v-12.8h4.24c1.44,0,2.55,.33,3.33,.98s1.16,1.61,1.16,2.87c0,.8-.22,1.49-.65,2.08s-1.03,1.03-1.8,1.33l3.01,5.43v.11h-1.81l-2.78-5.18Zm-3.01-1.38h2.59c.84,0,1.5-.22,2-.65s.74-1.02,.74-1.74c0-.79-.24-1.4-.71-1.82-.47-.42-1.15-.64-2.04-.64h-2.58v4.86Z"/><path class="cls-13" d="M280.93,423.1h-5.55v4.54h6.44v1.38h-8.13v-12.8h8.04v1.38h-6.35v4.12h5.55v1.38Z"/><path class="cls-13" d="M287.7,423.31c-1.45-.42-2.5-.93-3.16-1.53s-.99-1.36-.99-2.25c0-1.01,.4-1.84,1.21-2.5s1.85-.99,3.14-.99c.88,0,1.66,.17,2.35,.51s1.22,.81,1.6,1.41,.57,1.25,.57,1.96h-1.7c0-.78-.25-1.39-.74-1.83-.49-.44-1.19-.67-2.08-.67-.83,0-1.48,.18-1.95,.55s-.7,.88-.7,1.53c0,.52,.22,.96,.66,1.33,.44,.36,1.2,.69,2.26,.99,1.06,.3,1.9,.63,2.5,.99s1.05,.78,1.34,1.26,.44,1.05,.44,1.7c0,1.04-.4,1.87-1.21,2.49s-1.89,.94-3.24,.94c-.88,0-1.7-.17-2.46-.5s-1.35-.8-1.76-1.38-.62-1.25-.62-2h1.7c0,.77,.29,1.38,.86,1.83s1.33,.67,2.29,.67c.89,0,1.57-.18,2.05-.54s.71-.86,.71-1.49-.22-1.11-.66-1.45-1.24-.68-2.39-1.02Z"/><path class="cls-13" d="M301.84,423.1h-5.55v4.54h6.44v1.38h-8.13v-12.8h8.04v1.38h-6.35v4.12h5.55v1.38Z"/><path class="cls-13" d="M313.86,417.6h-4.11v11.42h-1.68v-11.42h-4.1v-1.38h9.9v1.38Z"/><path class="cls-13" d="M256.55,444.7h-5.55v4.54h6.44v1.38h-8.13v-12.8h8.04v1.38h-6.35v4.12h5.55v1.38Z"/><path class="cls-13" d="M269.39,450.62h-1.7l-6.44-9.86v9.86h-1.7v-12.8h1.7l6.46,9.91v-9.91h1.68v12.8Z"/><path class="cls-13" d="M279.61,447.27h-5.36l-1.2,3.35h-1.74l4.89-12.8h1.48l4.9,12.8h-1.73l-1.22-3.35Zm-4.85-1.38h4.35l-2.18-5.99-2.17,5.99Z"/><path class="cls-13" d="M284.28,450.62v-12.8h4.18c1.39,0,2.43,.29,3.13,.86s1.05,1.42,1.05,2.55c0,.6-.17,1.13-.51,1.59s-.8,.82-1.39,1.07c.69,.19,1.24,.56,1.64,1.1s.6,1.19,.6,1.94c0,1.15-.37,2.05-1.12,2.71s-1.8,.98-3.16,.98h-4.44Zm1.69-7.34h2.55c.74,0,1.33-.19,1.77-.55,.44-.37,.66-.87,.66-1.51,0-.7-.21-1.22-.62-1.54-.41-.32-1.03-.48-1.87-.48h-2.5v4.08Zm0,1.35v4.61h2.79c.79,0,1.4-.2,1.86-.61s.68-.97,.68-1.68c0-1.54-.84-2.31-2.51-2.31h-2.81Z"/><path class="cls-13" d="M297.19,449.24h6.06v1.38h-7.76v-12.8h1.7v11.42Z"/><path class="cls-13" d="M312.41,444.7h-5.55v4.54h6.44v1.38h-8.13v-12.8h8.04v1.38h-6.35v4.12h5.55v1.38Z"/></g><g><path class="cls-13" d="M269.01,483.9h1.7v9.06c0,1.22-.37,2.18-1.1,2.87s-1.72,1.04-2.94,1.04-2.26-.33-2.97-.98-1.06-1.56-1.06-2.73h1.69c0,.73,.2,1.3,.6,1.71s.98,.62,1.74,.62c.7,0,1.26-.22,1.69-.66s.65-1.05,.65-1.85v-9.09Z"/><path class="cls-13" d="M280.45,493.35h-5.36l-1.2,3.35h-1.74l4.89-12.8h1.48l4.9,12.8h-1.73l-1.22-3.35Zm-4.85-1.38h4.35l-2.18-5.99-2.17,5.99Z"/><path class="cls-13" d="M287.31,483.9l4.18,10.44,4.18-10.44h2.19v12.8h-1.69v-4.98l.16-5.38-4.2,10.36h-1.29l-4.19-10.34,.17,5.35v4.98h-1.69v-12.8h2.18Z"/><path class="cls-13" d="M311.74,492.4h1.78v1.33h-1.78v2.97h-1.63v-2.97h-5.83v-.96l5.73-8.87h1.73v8.5Zm-5.62,0h3.98v-6.28l-.19,.35-3.79,5.92Z"/></g><g><path class="cls-13" d="M267.31,145.92h-3.01v5.18h-1.7v-12.8h4.24c1.44,0,2.55,.33,3.33,.98s1.16,1.61,1.16,2.87c0,.8-.22,1.49-.65,2.08s-1.03,1.03-1.8,1.33l3.01,5.43v.11h-1.81l-2.78-5.18Zm-3.01-1.38h2.59c.84,0,1.5-.22,2-.65,.5-.43,.74-1.02,.74-1.74,0-.79-.24-1.4-.71-1.82s-1.15-.64-2.04-.64h-2.58v4.86Z"/><path class="cls-13" d="M280.93,145.18h-5.55v4.54h6.44v1.38h-8.13v-12.8h8.04v1.38h-6.35v4.12h5.55v1.38Z"/><path class="cls-13" d="M287.7,145.39c-1.45-.42-2.5-.93-3.16-1.53s-.99-1.35-.99-2.25c0-1.01,.4-1.84,1.21-2.5s1.85-.99,3.14-.99c.88,0,1.66,.17,2.35,.51s1.22,.81,1.6,1.41,.57,1.25,.57,1.96h-1.7c0-.78-.25-1.39-.74-1.83-.49-.44-1.19-.67-2.08-.67-.83,0-1.48,.18-1.95,.55-.47,.37-.7,.88-.7,1.53,0,.52,.22,.96,.66,1.33,.44,.36,1.2,.69,2.26,.99,1.06,.3,1.9,.63,2.5,.99s1.05,.78,1.34,1.26,.44,1.05,.44,1.7c0,1.04-.4,1.87-1.21,2.49s-1.89,.94-3.24,.94c-.88,0-1.7-.17-2.46-.51s-1.35-.8-1.76-1.38-.62-1.25-.62-2h1.7c0,.77,.29,1.38,.86,1.83s1.33,.67,2.29,.67c.89,0,1.57-.18,2.05-.54s.71-.86,.71-1.49-.22-1.11-.66-1.46-1.24-.68-2.39-1.01Z"/><path class="cls-13" d="M301.84,145.18h-5.55v4.54h6.44v1.38h-8.13v-12.8h8.04v1.38h-6.35v4.12h5.55v1.38Z"/><path class="cls-13" d="M313.86,139.68h-4.11v11.42h-1.68v-11.42h-4.1v-1.38h9.9v1.38Z"/></g><g><path class="cls-13" d="M597.68,523.59l3.66-10.56h1.85l-4.75,12.8h-1.49l-4.74-12.8h1.84l3.64,10.56Z"/><path class="cls-13" d="M606.91,522.02c-.96-.28-1.67-.62-2.11-1.02s-.66-.9-.66-1.5c0-.67,.27-1.23,.81-1.67s1.24-.66,2.09-.66c.59,0,1.11,.11,1.57,.34s.81,.54,1.07,.94,.38,.83,.38,1.31h-1.13c0-.52-.16-.92-.49-1.22s-.79-.44-1.39-.44c-.55,0-.99,.12-1.3,.37-.31,.24-.47,.58-.47,1.02,0,.35,.15,.64,.44,.88,.29,.24,.8,.46,1.51,.66,.71,.2,1.26,.42,1.66,.66s.7,.52,.89,.84,.29,.7,.29,1.13c0,.69-.27,1.25-.81,1.66s-1.26,.62-2.16,.62c-.59,0-1.13-.11-1.64-.34s-.9-.53-1.17-.92-.41-.83-.41-1.33h1.13c0,.52,.19,.92,.57,1.22s.89,.45,1.53,.45c.59,0,1.05-.12,1.37-.36s.47-.57,.47-.99-.15-.74-.44-.97-.82-.45-1.59-.68Z"/><path class="cls-13" d="M614.03,522.02c-.96-.28-1.67-.62-2.11-1.02s-.66-.9-.66-1.5c0-.67,.27-1.23,.81-1.67s1.24-.66,2.09-.66c.59,0,1.11,.11,1.57,.34s.81,.54,1.07,.94,.38,.83,.38,1.31h-1.13c0-.52-.16-.92-.49-1.22s-.79-.44-1.39-.44c-.55,0-.99,.12-1.3,.37-.31,.24-.47,.58-.47,1.02,0,.35,.15,.64,.44,.88,.29,.24,.8,.46,1.51,.66,.71,.2,1.26,.42,1.66,.66s.7,.52,.89,.84,.29,.7,.29,1.13c0,.69-.27,1.25-.81,1.66s-1.26,.62-2.16,.62c-.59,0-1.13-.11-1.64-.34s-.9-.53-1.17-.92-.41-.83-.41-1.33h1.13c0,.52,.19,.92,.57,1.22s.89,.45,1.53,.45c.59,0,1.05-.12,1.37-.36s.47-.57,.47-.99-.15-.74-.44-.97-.82-.45-1.59-.68Z"/></g><g><path class="cls-13" d="M594.05,79.84l3.66-10.56h1.85l-4.75,12.8h-1.49l-4.74-12.8h1.84l3.64,10.56Z"/><path class="cls-13" d="M600.77,82.08v-8.53h2.41c.74,0,1.4,.16,1.97,.49s1.01,.79,1.32,1.4,.47,1.3,.47,2.09v.54c0,.8-.16,1.51-.47,2.12s-.75,1.07-1.33,1.39-1.25,.49-2.01,.5h-2.36Zm1.12-7.61v6.69h1.18c.87,0,1.54-.27,2.02-.81s.72-1.31,.72-2.31v-.5c0-.97-.23-1.72-.68-2.26-.46-.54-1.1-.81-1.94-.82h-1.31Z"/><path class="cls-13" d="M608.64,82.08v-8.53h2.41c.74,0,1.4,.16,1.97,.49s1.01,.79,1.32,1.4,.47,1.3,.47,2.09v.54c0,.8-.16,1.51-.47,2.12s-.75,1.07-1.33,1.39-1.25,.49-2.01,.5h-2.36Zm1.12-7.61v6.69h1.18c.87,0,1.54-.27,2.02-.81s.72-1.31,.72-2.31v-.5c0-.97-.23-1.72-.68-2.26-.46-.54-1.1-.81-1.94-.82h-1.31Z"/></g><g><path class="cls-13" d="M497.39,385.02h-1.63v-10.84l-3.28,1.2v-1.48l4.66-1.75h.25v12.86Z"/><path class="cls-13" d="M509.02,380.72h1.78v1.33h-1.78v2.97h-1.63v-2.97h-5.83v-.96l5.73-8.87h1.73v8.5Zm-5.62,0h3.98v-6.28l-.19,.35-3.79,5.92Z"/></g><path class="cls-13" d="M506.06,413.82h-1.63v-10.84l-3.28,1.2v-1.48l4.66-1.75h.25v12.86Z"/><g><path class="cls-13" d="M495.95,442.62h-1.63v-10.84l-3.28,1.2v-1.48l4.66-1.75h.25v12.86Z"/><path class="cls-13" d="M501.46,436.2l.65-6.38h6.56v1.5h-5.18l-.39,3.49c.63-.37,1.34-.55,2.14-.55,1.17,0,2.09,.39,2.78,1.16s1.03,1.81,1.03,3.12-.36,2.36-1.07,3.12-1.71,1.14-2.98,1.14c-1.13,0-2.05-.31-2.77-.94s-1.12-1.49-1.22-2.6h1.54c.1,.73,.36,1.29,.78,1.66s.98,.56,1.67,.56c.76,0,1.35-.26,1.78-.77s.65-1.23,.65-2.14c0-.86-.23-1.54-.7-2.06s-1.09-.78-1.86-.78c-.71,0-1.27,.16-1.67,.47l-.43,.35-1.3-.33Z"/></g><path class="cls-13" d="M505.51,206.59c-.34,.4-.75,.73-1.22,.98s-.99,.37-1.55,.37c-.74,0-1.38-.18-1.93-.54s-.97-.87-1.27-1.53-.45-1.39-.45-2.18c0-.86,.16-1.63,.49-2.31s.79-1.21,1.38-1.57,1.29-.54,2.09-.54c1.27,0,2.26,.47,2.99,1.42s1.09,2.24,1.09,3.87v.47c0,2.49-.49,4.31-1.48,5.45s-2.47,1.73-4.46,1.76h-.32v-1.38h.34c1.34-.02,2.37-.37,3.09-1.05,.72-.68,1.11-1.74,1.18-3.21Zm-2.5,0c.54,0,1.05-.17,1.51-.5s.8-.75,1.01-1.24v-.65c0-1.07-.23-1.93-.69-2.6s-1.05-1-1.76-1-1.29,.27-1.72,.82-.65,1.27-.65,2.17,.21,1.59,.63,2.16,.98,.85,1.68,.85Z"/><path class="cls-13" d="M594.17,467.18c0,.64-.17,1.21-.51,1.71s-.79,.89-1.37,1.17c.67,.29,1.2,.71,1.59,1.26,.39,.55,.58,1.17,.58,1.87,0,1.11-.37,1.99-1.12,2.65-.75,.66-1.73,.98-2.95,.98s-2.22-.33-2.96-.99c-.74-.66-1.11-1.54-1.11-2.64,0-.69,.19-1.32,.57-1.87,.38-.56,.9-.98,1.57-1.27-.57-.28-1.02-.67-1.34-1.17s-.49-1.06-.49-1.7c0-1.08,.35-1.93,1.04-2.57s1.6-.95,2.73-.95,2.03,.32,2.73,.95c.69,.63,1.04,1.49,1.04,2.57Zm-1.33,5.97c0-.71-.23-1.3-.68-1.75-.46-.45-1.05-.68-1.78-.68s-1.32,.22-1.76,.67-.66,1.03-.66,1.76,.22,1.3,.65,1.71c.43,.42,1.03,.62,1.8,.62s1.36-.21,1.79-.63,.65-.99,.65-1.71Zm-2.44-8.15c-.64,0-1.16,.2-1.55,.59s-.59,.93-.59,1.61,.19,1.18,.58,1.58c.39,.4,.91,.6,1.56,.6s1.17-.2,1.56-.6c.39-.4,.58-.93,.58-1.58s-.2-1.18-.61-1.59-.92-.62-1.54-.62Z"/><g><path class="cls-13" d="M588.14,109.44h-1.63v-10.84l-3.28,1.2v-1.48l4.66-1.75h.25v12.86Z"/><path class="cls-13" d="M599.28,96.64v1.38h-.3c-1.27,.02-2.27,.4-3.02,1.12s-1.18,1.75-1.3,3.07c.67-.77,1.59-1.16,2.76-1.16s2,.39,2.67,1.18,1,1.8,1,3.04c0,1.32-.36,2.37-1.08,3.16-.72,.79-1.68,1.19-2.89,1.19s-2.22-.47-2.98-1.41c-.76-.94-1.14-2.15-1.14-3.63v-.62c0-2.36,.5-4.16,1.51-5.4,1-1.24,2.5-1.88,4.49-1.91h.29Zm-2.14,5.77c-.56,0-1.07,.17-1.54,.5s-.79,.75-.98,1.26v.6c0,1.05,.24,1.9,.71,2.55s1.07,.97,1.78,.97,1.31-.27,1.73-.81c.42-.54,.63-1.25,.63-2.12s-.21-1.59-.64-2.13-.99-.81-1.69-.81Z"/></g><g><path class="cls-13" d="M497.39,356.22h-1.63v-10.84l-3.28,1.2v-1.48l4.66-1.75h.25v12.86Z"/><path class="cls-13" d="M510.18,350.76c0,1.9-.33,3.32-.98,4.25s-1.67,1.39-3.05,1.39-2.38-.45-3.03-1.36-1-2.26-1.02-4.06v-2.17c0-1.88,.33-3.28,.98-4.19s1.67-1.37,3.06-1.37,2.39,.44,3.04,1.32,.98,2.24,1,4.08v2.11Zm-1.63-2.22c0-1.38-.19-2.38-.58-3.01s-1-.94-1.84-.94-1.44,.31-1.82,.94-.58,1.59-.59,2.89v2.6c0,1.38,.2,2.4,.6,3.06s1.01,.99,1.82,.99,1.4-.31,1.79-.93,.59-1.6,.61-2.94v-2.66Z"/></g><g><path class="cls-13" d="M497.39,241.02h-1.63v-10.84l-3.28,1.2v-1.48l4.66-1.75h.25v12.86Z"/><path class="cls-13" d="M510.54,241.02h-8.38v-1.17l4.43-4.92c.66-.74,1.11-1.35,1.36-1.81s.37-.95,.37-1.45c0-.67-.2-1.22-.61-1.64s-.94-.64-1.62-.64c-.81,0-1.44,.23-1.88,.69s-.67,1.1-.67,1.92h-1.63c0-1.18,.38-2.13,1.14-2.86s1.77-1.09,3.04-1.09c1.19,0,2.13,.31,2.82,.94s1.04,1.45,1.04,2.49c0,1.26-.8,2.76-2.41,4.5l-3.43,3.72h6.42v1.33Z"/></g><path class="cls-13" d="M510.42,171.54l-5.3,11.88h-1.71l5.28-11.46h-6.93v-1.34h8.65v.91Z"/><path class="cls-13" d="M504.52,147.43h1.22c.77-.01,1.37-.21,1.81-.61s.66-.92,.66-1.59c0-1.5-.75-2.25-2.24-2.25-.7,0-1.26,.2-1.68,.6s-.63,.93-.63,1.59h-1.63c0-1.01,.37-1.86,1.11-2.53s1.68-1.01,2.83-1.01c1.21,0,2.15,.32,2.84,.96s1.03,1.53,1.03,2.66c0,.56-.18,1.1-.54,1.62s-.85,.91-1.47,1.17c.7,.22,1.25,.59,1.63,1.11s.58,1.15,.58,1.89c0,1.15-.38,2.06-1.12,2.73s-1.73,1.01-2.93,1.01-2.18-.33-2.93-.98-1.13-1.51-1.13-2.58h1.63c0,.67,.22,1.21,.66,1.62s1.03,.61,1.77,.61c.79,0,1.39-.21,1.8-.62s.62-1,.62-1.77-.23-1.32-.69-1.71-1.12-.6-1.98-.62h-1.22v-1.33Z"/><path class="cls-13" d="M510.54,125.82h-8.38v-1.17l4.43-4.92c.66-.74,1.11-1.35,1.36-1.81s.37-.95,.37-1.45c0-.67-.2-1.22-.61-1.64s-.94-.64-1.62-.64c-.81,0-1.44,.23-1.88,.69s-.67,1.1-.67,1.92h-1.63c0-1.18,.38-2.13,1.14-2.86s1.77-1.09,3.04-1.09c1.19,0,2.13,.31,2.82,.94s1.04,1.45,1.04,2.49c0,1.26-.8,2.76-2.41,4.5l-3.43,3.72h6.42v1.33Z"/><g><path class="cls-13" d="M648.59,341.82h-1.63v-10.84l-3.28,1.2v-1.48l4.66-1.75h.25v12.86Z"/><path class="cls-13" d="M658.7,341.82h-1.63v-10.84l-3.28,1.2v-1.48l4.66-1.75h.25v12.86Z"/></g><g><path class="cls-13" d="M648.59,399.42h-1.63v-10.84l-3.28,1.2v-1.48l4.66-1.75h.25v12.86Z"/><path class="cls-13" d="M655.72,392.23h1.22c.77-.01,1.37-.21,1.81-.61s.66-.92,.66-1.59c0-1.5-.75-2.25-2.24-2.25-.7,0-1.26,.2-1.68,.6s-.63,.93-.63,1.59h-1.63c0-1.01,.37-1.86,1.11-2.53s1.68-1.01,2.83-1.01c1.21,0,2.15,.32,2.84,.96s1.03,1.53,1.03,2.66c0,.56-.18,1.1-.54,1.62s-.85,.91-1.47,1.17c.7,.22,1.25,.59,1.63,1.11s.58,1.15,.58,1.89c0,1.15-.38,2.06-1.12,2.73s-1.73,1.01-2.93,1.01-2.18-.33-2.93-.98-1.13-1.51-1.13-2.58h1.63c0,.67,.22,1.21,.66,1.62s1.03,.61,1.77,.61c.79,0,1.39-.21,1.8-.62s.62-1,.62-1.77-.23-1.32-.69-1.71-1.12-.6-1.98-.62h-1.22v-1.33Z"/></g><path class="cls-13" d="M660.22,222.32h1.78v1.33h-1.78v2.97h-1.63v-2.97h-5.83v-.96l5.73-8.87h1.73v8.5Zm-5.62,0h3.98v-6.28l-.19,.35-3.79,5.92Z"/><path class="cls-13" d="M659.74,271.41v1.38h-.3c-1.27,.02-2.27,.4-3.02,1.12s-1.18,1.75-1.3,3.07c.67-.77,1.59-1.16,2.76-1.16s2,.39,2.67,1.18,1,1.8,1,3.04c0,1.32-.36,2.37-1.08,3.16s-1.68,1.19-2.89,1.19-2.22-.47-2.98-1.41-1.14-2.15-1.14-3.63v-.62c0-2.36,.5-4.16,1.51-5.4s2.5-1.88,4.49-1.91h.29Zm-2.14,5.77c-.56,0-1.07,.17-1.54,.5s-.79,.75-.98,1.26v.6c0,1.05,.24,1.9,.71,2.55s1.07,.97,1.78,.97,1.31-.27,1.73-.81,.63-1.25,.63-2.12-.21-1.59-.64-2.13-.99-.81-1.69-.81Z"/><path class="cls-13" d="M654.1,162.6l.65-6.38h6.56v1.5h-5.18l-.39,3.49c.63-.37,1.34-.55,2.14-.55,1.17,0,2.09,.39,2.78,1.16s1.03,1.81,1.03,3.12-.36,2.36-1.07,3.12-1.71,1.14-2.98,1.14c-1.13,0-2.05-.31-2.77-.94s-1.12-1.49-1.22-2.6h1.54c.1,.73,.36,1.28,.78,1.66s.98,.56,1.67,.56c.76,0,1.35-.26,1.78-.77s.65-1.23,.65-2.14c0-.86-.23-1.54-.7-2.06s-1.08-.78-1.86-.78c-.71,0-1.27,.16-1.67,.47l-.43,.35-1.3-.33Z"/><g><path class="cls-13" d="M623.3,293.95c1.25,0,2.35,.21,3.28,.63s1.65,1.02,2.14,1.79,.74,1.68,.74,2.71-.25,1.9-.74,2.68-1.2,1.38-2.12,1.82-1.98,.65-3.19,.66h-.92c-1.23,0-2.32-.21-3.26-.64s-1.67-1.03-2.17-1.82-.75-1.68-.75-2.68,.25-1.93,.74-2.71,1.21-1.38,2.15-1.81,2.04-.63,3.28-.63h.81Zm-.83,1.68c-1.52,0-2.68,.3-3.49,.91s-1.22,1.46-1.22,2.56,.41,1.91,1.22,2.52,1.94,.93,3.38,.95h.94c1.47,0,2.63-.31,3.47-.93s1.26-1.47,1.26-2.55-.4-1.93-1.19-2.53-1.93-.91-3.41-.92h-.95Z"/><path class="cls-13" d="M628.34,285.8c.74,.63,1.12,1.56,1.12,2.79,0,1.01-.29,1.79-.88,2.31-.59,.53-1.46,.8-2.61,.8h-6.19v-1.62h6.14c1.44,0,2.16-.59,2.16-1.76,0-1.24-.46-2.07-1.39-2.48h-6.92v-1.63h9.51v1.55l-.94,.04Z"/><path class="cls-13" d="M617.47,279.55h2.3v-1.78h1.26v1.78h5.9c.38,0,.67-.08,.86-.24s.29-.43,.29-.81c0-.19-.04-.45-.11-.77h1.31c.12,.43,.17,.84,.17,1.25,0,.73-.22,1.27-.66,1.64s-1.06,.55-1.87,.55h-5.9v1.73h-1.26v-1.73h-2.3v-1.63Z"/><path class="cls-13" d="M624.63,267.84c1.45,0,2.61,.33,3.5,.99s1.33,1.56,1.33,2.69-.37,2.06-1.1,2.72h4.58v1.63h-13.17v-1.49l1.05-.08c-.82-.66-1.23-1.58-1.23-2.76s.43-2.05,1.29-2.71,2.06-1,3.59-1h.15Zm-.18,1.63c-1.07,0-1.92,.23-2.54,.69s-.93,1.08-.93,1.88c0,.98,.44,1.72,1.31,2.21h4.54c.87-.49,1.3-1.23,1.3-2.23,0-.78-.31-1.4-.93-1.86s-1.54-.69-2.75-.69Z"/><path class="cls-13" d="M628.34,259.9c.74,.63,1.12,1.56,1.12,2.79,0,1.01-.29,1.79-.88,2.32-.59,.53-1.46,.8-2.61,.8h-6.19v-1.63h6.14c1.44,0,2.16-.59,2.16-1.76,0-1.24-.46-2.07-1.39-2.48h-6.92v-1.63h9.51v1.55l-.94,.04Z"/><path class="cls-13" d="M617.47,253.64h2.3v-1.78h1.26v1.78h5.9c.38,0,.67-.08,.86-.24s.29-.43,.29-.81c0-.19-.04-.45-.11-.77h1.31c.12,.43,.17,.84,.17,1.25,0,.73-.22,1.27-.66,1.64s-1.06,.55-1.87,.55h-5.9v1.73h-1.26v-1.73h-2.3v-1.63Z"/><path class="cls-13" d="M626.76,244.43c-.44,0-.78,.17-1.02,.5-.24,.33-.45,.91-.63,1.73s-.39,1.48-.63,1.96c-.25,.48-.54,.84-.88,1.07-.34,.23-.74,.35-1.21,.35-.78,0-1.44-.33-1.98-.99-.54-.66-.81-1.5-.81-2.53,0-1.08,.28-1.95,.83-2.62s1.27-1.01,2.14-1.01v1.63c-.45,0-.83,.19-1.15,.57-.32,.38-.48,.85-.48,1.43s.13,1.05,.39,1.39,.59,.5,1.01,.5c.39,0,.69-.16,.89-.47s.39-.87,.57-1.68c.18-.81,.4-1.47,.65-1.97s.55-.88,.91-1.12c.35-.24,.79-.36,1.3-.36,.85,0,1.53,.34,2.04,1.02s.77,1.56,.77,2.65c0,.76-.13,1.44-.4,2.02s-.65,1.04-1.13,1.38c-.48,.33-1.01,.5-1.57,.5v-1.63c.54-.03,.98-.25,1.3-.65s.48-.95,.48-1.61c0-.62-.12-1.11-.37-1.48s-.58-.56-1-.56Z"/></g><g><path class="cls-13" d="M387.42,359.31v5.01h-1.69v-12.8h4.72c1.4,0,2.5,.36,3.29,1.07s1.19,1.66,1.19,2.84c0,1.24-.39,2.2-1.16,2.87s-1.89,1.01-3.34,1.01h-3.01Zm0-1.38h3.03c.9,0,1.59-.21,2.07-.64s.72-1.04,.72-1.84c0-.76-.24-1.37-.72-1.83s-1.14-.7-1.98-.71h-3.13v5.03Z"/><path class="cls-13" d="M401.43,356.27c-.25-.04-.51-.06-.8-.06-1.07,0-1.79,.45-2.17,1.36v6.75h-1.63v-9.51h1.58l.03,1.1c.53-.85,1.29-1.27,2.27-1.27,.32,0,.56,.04,.72,.12v1.51Z"/><path class="cls-13" d="M406.71,364.5c-1.29,0-2.34-.42-3.15-1.27s-1.21-1.98-1.21-3.4v-.3c0-.94,.18-1.79,.54-2.53s.86-1.32,1.51-1.74,1.35-.63,2.1-.63c1.24,0,2.2,.41,2.88,1.22s1.03,1.98,1.03,3.5v.68h-6.44c.02,.94,.3,1.69,.82,2.27s1.19,.87,2,.87c.57,0,1.06-.12,1.46-.35s.75-.54,1.05-.93l.99,.77c-.8,1.22-1.99,1.84-3.59,1.84Zm-.2-8.53c-.66,0-1.21,.24-1.65,.72s-.72,1.15-.83,2.01h4.76v-.12c-.05-.83-.27-1.47-.67-1.92s-.94-.68-1.62-.68Z"/><path class="cls-13" d="M417.83,361.8c0-.44-.17-.78-.5-1.02s-.91-.45-1.73-.63-1.48-.39-1.96-.63-.84-.54-1.07-.88-.35-.74-.35-1.21c0-.78,.33-1.44,.99-1.98s1.5-.81,2.53-.81c1.08,0,1.95,.28,2.62,.83s1.01,1.27,1.01,2.14h-1.63c0-.45-.19-.83-.57-1.15s-.85-.48-1.43-.48-1.05,.13-1.39,.39-.5,.59-.5,1.01c0,.39,.16,.69,.47,.89s.87,.39,1.68,.57,1.47,.4,1.97,.65,.88,.55,1.12,.91,.36,.79,.36,1.3c0,.85-.34,1.53-1.02,2.04s-1.56,.77-2.65,.77c-.76,0-1.44-.13-2.02-.4s-1.04-.65-1.38-1.13-.5-1.01-.5-1.57h1.63c.03,.54,.25,.98,.65,1.3s.94,.48,1.61,.48c.62,0,1.11-.12,1.48-.37s.56-.58,.56-1Z"/><path class="cls-13" d="M425.53,364.5c-1.29,0-2.34-.42-3.15-1.27s-1.21-1.98-1.21-3.4v-.3c0-.94,.18-1.79,.54-2.53s.86-1.32,1.51-1.74,1.35-.63,2.1-.63c1.24,0,2.2,.41,2.88,1.22s1.03,1.98,1.03,3.5v.68h-6.44c.02,.94,.3,1.69,.82,2.27s1.19,.87,2,.87c.57,0,1.06-.12,1.46-.35s.75-.54,1.05-.93l.99,.77c-.8,1.22-1.99,1.84-3.59,1.84Zm-.2-8.53c-.66,0-1.21,.24-1.65,.72s-.72,1.15-.83,2.01h4.76v-.12c-.05-.83-.27-1.47-.67-1.92s-.94-.68-1.62-.68Z"/><path class="cls-13" d="M433.32,352.51v2.3h1.78v1.26h-1.78v5.9c0,.38,.08,.67,.24,.86s.43,.29,.81,.29c.19,0,.45-.04,.77-.11v1.31c-.43,.12-.84,.17-1.25,.17-.73,0-1.27-.22-1.64-.66s-.55-1.06-.55-1.87v-5.9h-1.73v-1.26h1.73v-2.3h1.63Z"/><path class="cls-13" d="M448.94,358.4h-5.55v4.54h6.44v1.38h-8.13v-12.8h8.04v1.38h-6.35v4.12h5.55v1.38Z"/><path class="cls-13" d="M453.22,354.81l.05,1.2c.73-.91,1.68-1.37,2.85-1.37,2.01,0,3.02,1.13,3.04,3.4v6.28h-1.63v-6.29c0-.69-.16-1.19-.47-1.52-.31-.33-.79-.49-1.44-.49-.53,0-.99,.14-1.39,.42s-.71,.65-.93,1.11v6.78h-1.63v-9.51h1.54Z"/><path class="cls-13" d="M461.65,363.47c0-.28,.08-.52,.25-.7,.17-.19,.42-.28,.75-.28s.59,.09,.76,.28,.26,.42,.26,.7-.09,.5-.26,.68-.43,.27-.76,.27-.58-.09-.75-.27c-.17-.18-.25-.41-.25-.68Z"/></g><g><path class="cls-13" d="M431.97,389.06c-.16,1.35-.66,2.4-1.5,3.13-.84,.74-1.96,1.1-3.35,1.1-1.51,0-2.72-.54-3.63-1.63s-1.37-2.53-1.37-4.35v-1.23c0-1.19,.21-2.24,.64-3.14s1.03-1.59,1.81-2.08,1.68-.73,2.71-.73c1.36,0,2.45,.38,3.27,1.14s1.3,1.81,1.43,3.15h-1.7c-.15-1.02-.46-1.76-.95-2.22-.49-.46-1.17-.69-2.05-.69-1.08,0-1.92,.4-2.54,1.2-.61,.8-.92,1.93-.92,3.4v1.24c0,1.39,.29,2.5,.87,3.32,.58,.82,1.39,1.23,2.43,1.23,.94,0,1.66-.21,2.16-.64,.5-.42,.83-1.17,1-2.22h1.7Z"/><path class="cls-13" d="M435.79,393.12h-1.63v-13.5h1.63v13.5Z"/><path class="cls-13" d="M437.96,388.28c0-.93,.18-1.77,.55-2.51,.37-.74,.88-1.32,1.53-1.72,.65-.4,1.4-.61,2.24-.61,1.29,0,2.34,.45,3.14,1.34,.8,.9,1.2,2.09,1.2,3.58v.11c0,.93-.18,1.76-.53,2.49-.36,.74-.86,1.31-1.52,1.72-.66,.41-1.42,.62-2.27,.62-1.29,0-2.33-.45-3.13-1.34-.8-.9-1.2-2.08-1.2-3.56v-.11Zm1.63,.19c0,1.05,.24,1.9,.73,2.54s1.14,.96,1.96,.96,1.48-.32,1.97-.97,.73-1.55,.73-2.72c0-1.04-.25-1.89-.74-2.54s-1.15-.97-1.97-.97-1.45,.32-1.94,.96-.74,1.55-.74,2.74Z"/><path class="cls-13" d="M452.47,391.97c.58,0,1.09-.18,1.52-.53s.67-.79,.72-1.32h1.54c-.03,.54-.22,1.06-.56,1.56s-.81,.88-1.38,1.18-1.19,.44-1.83,.44c-1.29,0-2.32-.43-3.09-1.3-.76-.86-1.15-2.05-1.15-3.55v-.27c0-.93,.17-1.75,.51-2.47s.83-1.28,1.46-1.68,1.39-.6,2.25-.6c1.07,0,1.95,.32,2.66,.96,.71,.64,1.08,1.47,1.13,2.49h-1.54c-.05-.62-.28-1.12-.7-1.52-.42-.4-.94-.59-1.55-.59-.83,0-1.47,.3-1.92,.89s-.68,1.45-.68,2.58v.31c0,1.1,.23,1.94,.68,2.53s1.1,.89,1.93,.89Z"/><path class="cls-13" d="M460.73,388.72l-1.02,1.06v3.34h-1.63v-13.5h1.63v8.17l.87-1.05,2.96-3.13h1.98l-3.7,3.97,4.13,5.54h-1.91l-3.31-4.4Z"/></g><g><path class="cls-13" d="M429.25,421.92v-12.8h3.61c1.11,0,2.1,.25,2.95,.74s1.52,1.19,1.98,2.1c.46,.91,.7,1.95,.71,3.13v.82c0,1.21-.23,2.26-.7,3.17-.46,.91-1.13,1.61-1.99,2.09-.87,.49-1.87,.74-3.02,.75h-3.54Zm1.69-11.42v10.04h1.78c1.3,0,2.31-.41,3.04-1.21,.72-.81,1.09-1.96,1.09-3.46v-.75c0-1.45-.34-2.58-1.02-3.39-.68-.81-1.65-1.21-2.91-1.23h-1.97Z"/><path class="cls-13" d="M446.67,421.92c-.09-.19-.17-.52-.23-1-.76,.79-1.66,1.18-2.71,1.18-.94,0-1.71-.27-2.31-.8-.6-.53-.9-1.2-.9-2.02,0-.99,.38-1.76,1.13-2.31,.75-.55,1.81-.82,3.18-.82h1.58v-.75c0-.57-.17-1.02-.51-1.36s-.84-.5-1.5-.5c-.58,0-1.07,.15-1.46,.44s-.59,.65-.59,1.06h-1.63c0-.47,.17-.93,.5-1.38s.79-.79,1.37-1.05,1.21-.39,1.9-.39c1.1,0,1.95,.27,2.58,.82s.94,1.3,.97,2.26v4.38c0,.87,.11,1.57,.33,2.08v.14h-1.71Zm-2.7-1.24c.51,0,.99-.13,1.45-.4s.79-.61,.99-1.03v-1.95h-1.27c-1.99,0-2.99,.58-2.99,1.75,0,.51,.17,.91,.51,1.2s.78,.43,1.31,.43Z"/><path class="cls-13" d="M452.8,410.11v2.3h1.78v1.26h-1.78v5.9c0,.38,.08,.67,.24,.86s.43,.29,.81,.29c.19,0,.45-.04,.77-.11v1.31c-.43,.12-.84,.17-1.25,.17-.73,0-1.27-.22-1.64-.66s-.55-1.06-.55-1.87v-5.9h-1.73v-1.26h1.73v-2.3h1.63Z"/><path class="cls-13" d="M462.34,421.92c-.09-.19-.17-.52-.23-1-.76,.79-1.66,1.18-2.71,1.18-.94,0-1.71-.27-2.31-.8-.6-.53-.9-1.2-.9-2.02,0-.99,.38-1.76,1.13-2.31,.75-.55,1.81-.82,3.18-.82h1.58v-.75c0-.57-.17-1.02-.51-1.36s-.84-.5-1.5-.5c-.58,0-1.07,.15-1.46,.44s-.59,.65-.59,1.06h-1.63c0-.47,.17-.93,.5-1.38s.79-.79,1.37-1.05,1.21-.39,1.9-.39c1.1,0,1.95,.27,2.58,.82s.94,1.3,.97,2.26v4.38c0,.87,.11,1.57,.33,2.08v.14h-1.71Zm-2.7-1.24c.51,0,.99-.13,1.45-.4s.79-.61,.99-1.03v-1.95h-1.27c-1.99,0-2.99,.58-2.99,1.75,0,.51,.17,.91,.51,1.2s.78,.43,1.31,.43Z"/></g><g><path class="cls-13" d="M427.04,445.54h-3.01v5.18h-1.7v-12.8h4.24c1.44,0,2.55,.33,3.33,.98s1.17,1.61,1.17,2.87c0,.8-.22,1.49-.65,2.08-.43,.59-1.03,1.03-1.8,1.33l3.01,5.43v.11h-1.81l-2.78-5.18Zm-3.01-1.38h2.59c.84,0,1.5-.22,2-.65,.49-.43,.74-1.02,.74-1.74,0-.79-.24-1.4-.71-1.82-.47-.42-1.15-.64-2.04-.64h-2.58v4.86Z"/><path class="cls-13" d="M437.12,450.9c-1.29,0-2.34-.42-3.15-1.27s-1.21-1.98-1.21-3.4v-.3c0-.94,.18-1.79,.54-2.53,.36-.74,.86-1.32,1.51-1.74s1.35-.63,2.11-.63c1.24,0,2.2,.41,2.88,1.22s1.03,1.98,1.03,3.5v.68h-6.44c.02,.94,.3,1.69,.82,2.27,.52,.58,1.19,.87,2,.87,.57,0,1.06-.12,1.46-.35s.75-.54,1.05-.93l.99,.77c-.8,1.22-1.99,1.84-3.59,1.84Zm-.2-8.53c-.66,0-1.21,.24-1.65,.72s-.72,1.15-.83,2.01h4.76v-.12c-.05-.83-.27-1.47-.67-1.92s-.94-.68-1.62-.68Z"/><path class="cls-13" d="M448.25,448.2c0-.44-.17-.78-.5-1.02-.33-.24-.91-.45-1.73-.63s-1.48-.39-1.96-.63c-.48-.25-.84-.54-1.07-.88-.23-.34-.35-.74-.35-1.21,0-.78,.33-1.44,.99-1.98,.66-.54,1.5-.81,2.53-.81,1.08,0,1.95,.28,2.62,.83s1.01,1.27,1.01,2.14h-1.63c0-.45-.19-.83-.57-1.15-.38-.32-.85-.48-1.43-.48s-1.05,.13-1.39,.39-.5,.59-.5,1.01c0,.39,.16,.69,.47,.89s.87,.39,1.68,.57c.81,.18,1.47,.4,1.97,.65s.88,.55,1.12,.91c.24,.35,.36,.79,.36,1.3,0,.85-.34,1.53-1.02,2.04s-1.56,.77-2.65,.77c-.76,0-1.44-.13-2.02-.4s-1.04-.65-1.38-1.13c-.33-.48-.5-1.01-.5-1.57h1.63c.03,.54,.25,.98,.65,1.3s.95,.48,1.61,.48c.62,0,1.11-.12,1.48-.37s.56-.58,.56-1Z"/><path class="cls-13" d="M455.94,450.9c-1.29,0-2.34-.42-3.15-1.27s-1.21-1.98-1.21-3.4v-.3c0-.94,.18-1.79,.54-2.53,.36-.74,.86-1.32,1.51-1.74s1.35-.63,2.11-.63c1.24,0,2.2,.41,2.88,1.22s1.03,1.98,1.03,3.5v.68h-6.44c.02,.94,.3,1.69,.82,2.27,.52,.58,1.19,.87,2,.87,.57,0,1.06-.12,1.46-.35s.75-.54,1.05-.93l.99,.77c-.8,1.22-1.99,1.84-3.59,1.84Zm-.2-8.53c-.66,0-1.21,.24-1.65,.72s-.72,1.15-.83,2.01h4.76v-.12c-.05-.83-.27-1.47-.67-1.92s-.94-.68-1.62-.68Z"/><path class="cls-13" d="M463.74,438.91v2.3h1.78v1.26h-1.78v5.9c0,.38,.08,.67,.24,.86s.43,.29,.81,.29c.19,0,.45-.04,.77-.11v1.31c-.43,.12-.84,.17-1.25,.17-.73,0-1.27-.22-1.64-.66s-.55-1.06-.55-1.87v-5.9h-1.73v-1.26h1.73v-2.3h1.63Z"/></g><g><path class="cls-13" d="M426.78,122.56h1.7v9.06c0,1.22-.37,2.18-1.1,2.87-.73,.69-1.71,1.04-2.94,1.04s-2.26-.33-2.97-.98-1.06-1.56-1.06-2.73h1.69c0,.73,.2,1.3,.6,1.71s.98,.62,1.74,.62c.7,0,1.26-.22,1.69-.66,.43-.44,.65-1.05,.65-1.85v-9.09Z"/><path class="cls-13" d="M436.96,135.36c-.09-.19-.17-.52-.23-1-.76,.79-1.66,1.18-2.71,1.18-.94,0-1.71-.27-2.31-.8-.6-.53-.9-1.2-.9-2.02,0-.99,.38-1.76,1.13-2.31,.75-.55,1.81-.82,3.18-.82h1.58v-.75c0-.57-.17-1.02-.51-1.36s-.84-.51-1.5-.51c-.58,0-1.07,.15-1.46,.44s-.59,.65-.59,1.06h-1.63c0-.47,.17-.93,.5-1.38s.79-.79,1.37-1.05,1.21-.39,1.9-.39c1.1,0,1.95,.27,2.58,.82s.94,1.3,.97,2.26v4.38c0,.87,.11,1.57,.33,2.08v.14h-1.71Zm-2.7-1.24c.51,0,.99-.13,1.45-.4s.79-.61,.99-1.03v-1.95h-1.27c-1.99,0-2.99,.58-2.99,1.75,0,.51,.17,.91,.51,1.2s.78,.43,1.31,.43Z"/><path class="cls-13" d="M442.41,125.85l.04,1.05c.7-.82,1.64-1.23,2.82-1.23,1.33,0,2.24,.51,2.72,1.53,.32-.46,.73-.83,1.24-1.11,.51-.28,1.11-.42,1.8-.42,2.09,0,3.15,1.1,3.18,3.31v6.37h-1.63v-6.28c0-.68-.16-1.19-.47-1.52s-.83-.51-1.56-.51c-.6,0-1.1,.18-1.5,.54s-.63,.85-.69,1.45v6.31h-1.63v-6.23c0-1.38-.68-2.07-2.03-2.07-1.07,0-1.8,.45-2.19,1.36v6.94h-1.63v-9.51h1.54Z"/><path class="cls-13" d="M466.29,135.36h-1.63v-10.84l-3.28,1.2v-1.48l4.66-1.75h.25v12.86Z"/></g><g><path class="cls-13" d="M425.34,180.16h1.7v9.06c0,1.22-.37,2.18-1.1,2.87-.73,.69-1.71,1.04-2.94,1.04s-2.26-.33-2.97-.98-1.06-1.56-1.06-2.73h1.69c0,.73,.2,1.3,.6,1.71s.98,.62,1.74,.62c.7,0,1.26-.22,1.69-.66,.43-.44,.65-1.05,.65-1.85v-9.09Z"/><path class="cls-13" d="M435.52,192.96c-.09-.19-.17-.52-.23-1-.76,.79-1.66,1.18-2.71,1.18-.94,0-1.71-.27-2.31-.8-.6-.53-.9-1.2-.9-2.02,0-.99,.38-1.76,1.13-2.31,.75-.55,1.81-.82,3.18-.82h1.58v-.75c0-.57-.17-1.02-.51-1.36s-.84-.51-1.5-.51c-.58,0-1.07,.15-1.46,.44s-.59,.65-.59,1.06h-1.63c0-.47,.17-.93,.5-1.38s.79-.79,1.37-1.05,1.21-.39,1.9-.39c1.1,0,1.95,.27,2.58,.82s.94,1.3,.97,2.26v4.38c0,.87,.11,1.57,.33,2.08v.14h-1.71Zm-2.7-1.24c.51,0,.99-.13,1.45-.4s.79-.61,.99-1.03v-1.95h-1.27c-1.99,0-2.99,.58-2.99,1.75,0,.51,.17,.91,.51,1.2s.78,.43,1.31,.43Z"/><path class="cls-13" d="M440.97,183.45l.04,1.05c.7-.82,1.64-1.23,2.82-1.23,1.33,0,2.24,.51,2.72,1.53,.32-.46,.73-.83,1.24-1.11,.51-.28,1.11-.42,1.8-.42,2.09,0,3.15,1.1,3.18,3.31v6.37h-1.63v-6.28c0-.68-.16-1.19-.47-1.52s-.83-.51-1.56-.51c-.6,0-1.1,.18-1.5,.54s-.63,.85-.69,1.45v6.31h-1.63v-6.23c0-1.38-.68-2.07-2.03-2.07-1.07,0-1.8,.45-2.19,1.36v6.94h-1.63v-9.51h1.54Z"/><path class="cls-13" d="M461.87,185.77h1.22c.77-.01,1.37-.21,1.81-.61s.66-.92,.66-1.59c0-1.5-.75-2.25-2.24-2.25-.7,0-1.26,.2-1.68,.6-.42,.4-.63,.93-.63,1.6h-1.63c0-1.01,.37-1.86,1.11-2.53,.74-.67,1.68-1.01,2.83-1.01,1.21,0,2.15,.32,2.84,.96s1.03,1.53,1.03,2.66c0,.56-.18,1.1-.54,1.62-.36,.52-.85,.91-1.47,1.17,.7,.22,1.25,.59,1.63,1.11,.38,.52,.58,1.15,.58,1.89,0,1.15-.38,2.06-1.12,2.73s-1.73,1.01-2.93,1.01-2.18-.33-2.93-.98-1.13-1.51-1.13-2.58h1.63c0,.67,.22,1.21,.66,1.62s1.03,.61,1.77,.61c.79,0,1.39-.21,1.8-.62s.62-1,.62-1.77-.23-1.32-.69-1.71-1.12-.6-1.98-.62h-1.22v-1.33Z"/></g><g><path class="cls-13" d="M425.34,151.36h1.7v9.06c0,1.22-.37,2.18-1.1,2.87-.73,.69-1.71,1.04-2.94,1.04s-2.26-.33-2.97-.98-1.06-1.56-1.06-2.73h1.69c0,.73,.2,1.3,.6,1.71s.98,.62,1.74,.62c.7,0,1.26-.22,1.69-.66,.43-.44,.65-1.05,.65-1.85v-9.09Z"/><path class="cls-13" d="M435.52,164.16c-.09-.19-.17-.52-.23-1-.76,.79-1.66,1.18-2.71,1.18-.94,0-1.71-.27-2.31-.8-.6-.53-.9-1.2-.9-2.02,0-.99,.38-1.76,1.13-2.31,.75-.55,1.81-.82,3.18-.82h1.58v-.75c0-.57-.17-1.02-.51-1.36s-.84-.51-1.5-.51c-.58,0-1.07,.15-1.46,.44s-.59,.65-.59,1.06h-1.63c0-.47,.17-.93,.5-1.38s.79-.79,1.37-1.05,1.21-.39,1.9-.39c1.1,0,1.95,.27,2.58,.82s.94,1.3,.97,2.26v4.38c0,.87,.11,1.57,.33,2.08v.14h-1.71Zm-2.7-1.24c.51,0,.99-.13,1.45-.4s.79-.61,.99-1.03v-1.95h-1.27c-1.99,0-2.99,.58-2.99,1.75,0,.51,.17,.91,.51,1.2s.78,.43,1.31,.43Z"/><path class="cls-13" d="M440.97,154.65l.04,1.05c.7-.82,1.64-1.23,2.82-1.23,1.33,0,2.24,.51,2.72,1.53,.32-.46,.73-.83,1.24-1.11,.51-.28,1.11-.42,1.8-.42,2.09,0,3.15,1.1,3.18,3.31v6.37h-1.63v-6.28c0-.68-.16-1.19-.47-1.52s-.83-.51-1.56-.51c-.6,0-1.1,.18-1.5,.54s-.63,.85-.69,1.45v6.31h-1.63v-6.23c0-1.38-.68-2.07-2.03-2.07-1.07,0-1.8,.45-2.19,1.36v6.94h-1.63v-9.51h1.54Z"/><path class="cls-13" d="M467.89,164.16h-8.38v-1.17l4.43-4.92c.66-.74,1.11-1.35,1.36-1.81,.25-.47,.37-.95,.37-1.45,0-.67-.2-1.22-.61-1.64s-.94-.64-1.62-.64c-.81,0-1.44,.23-1.89,.69-.45,.46-.67,1.1-.67,1.92h-1.63c0-1.18,.38-2.13,1.14-2.86s1.77-1.09,3.05-1.09c1.19,0,2.13,.31,2.82,.94s1.04,1.45,1.04,2.49c0,1.26-.8,2.76-2.41,4.5l-3.43,3.72h6.42v1.33Z"/></g><g><path class="cls-13" d="M425.34,208.96h1.7v9.06c0,1.22-.37,2.18-1.1,2.87-.73,.69-1.71,1.04-2.94,1.04s-2.26-.33-2.97-.98-1.06-1.56-1.06-2.73h1.69c0,.73,.2,1.3,.6,1.71s.98,.62,1.74,.62c.7,0,1.26-.22,1.69-.66,.43-.44,.65-1.05,.65-1.85v-9.09Z"/><path class="cls-13" d="M435.52,221.76c-.09-.19-.17-.52-.23-1-.76,.79-1.66,1.18-2.71,1.18-.94,0-1.71-.27-2.31-.8-.6-.53-.9-1.2-.9-2.02,0-.99,.38-1.76,1.13-2.31,.75-.55,1.81-.82,3.18-.82h1.58v-.75c0-.57-.17-1.02-.51-1.36s-.84-.51-1.5-.51c-.58,0-1.07,.15-1.46,.44s-.59,.65-.59,1.06h-1.63c0-.47,.17-.93,.5-1.38s.79-.79,1.37-1.05,1.21-.39,1.9-.39c1.1,0,1.95,.27,2.58,.82s.94,1.3,.97,2.26v4.38c0,.87,.11,1.57,.33,2.08v.14h-1.71Zm-2.7-1.24c.51,0,.99-.13,1.45-.4s.79-.61,.99-1.03v-1.95h-1.27c-1.99,0-2.99,.58-2.99,1.75,0,.51,.17,.91,.51,1.2s.78,.43,1.31,.43Z"/><path class="cls-13" d="M440.97,212.25l.04,1.05c.7-.82,1.64-1.23,2.82-1.23,1.33,0,2.24,.51,2.72,1.53,.32-.46,.73-.83,1.24-1.11,.51-.28,1.11-.42,1.8-.42,2.09,0,3.15,1.1,3.18,3.31v6.37h-1.63v-6.28c0-.68-.16-1.19-.47-1.52s-.83-.51-1.56-.51c-.6,0-1.1,.18-1.5,.54s-.63,.85-.69,1.45v6.31h-1.63v-6.23c0-1.38-.68-2.07-2.03-2.07-1.07,0-1.8,.45-2.19,1.36v6.94h-1.63v-9.51h1.54Z"/><path class="cls-13" d="M466.37,217.46h1.78v1.33h-1.78v2.97h-1.63v-2.97h-5.83v-.96l5.73-8.87h1.73v8.5Zm-5.62,0h3.98v-6.28l-.19,.35-3.79,5.92Z"/></g><g><path class="cls-13" d="M425.34,237.76h1.7v9.06c0,1.22-.37,2.18-1.1,2.87-.73,.69-1.71,1.04-2.94,1.04s-2.26-.33-2.97-.98-1.06-1.56-1.06-2.73h1.69c0,.73,.2,1.3,.6,1.71s.98,.62,1.74,.62c.7,0,1.26-.22,1.69-.66,.43-.44,.65-1.05,.65-1.85v-9.09Z"/><path class="cls-13" d="M435.52,250.56c-.09-.19-.17-.52-.23-1-.76,.79-1.66,1.18-2.71,1.18-.94,0-1.71-.27-2.31-.8-.6-.53-.9-1.2-.9-2.02,0-.99,.38-1.76,1.13-2.31,.75-.55,1.81-.82,3.18-.82h1.58v-.75c0-.57-.17-1.02-.51-1.36s-.84-.51-1.5-.51c-.58,0-1.07,.15-1.46,.44s-.59,.65-.59,1.06h-1.63c0-.47,.17-.93,.5-1.38s.79-.79,1.37-1.05,1.21-.39,1.9-.39c1.1,0,1.95,.27,2.58,.82s.94,1.3,.97,2.26v4.38c0,.87,.11,1.57,.33,2.08v.14h-1.71Zm-2.7-1.24c.51,0,.99-.13,1.45-.4s.79-.61,.99-1.03v-1.95h-1.27c-1.99,0-2.99,.58-2.99,1.75,0,.51,.17,.91,.51,1.2s.78,.43,1.31,.43Z"/><path class="cls-13" d="M440.97,241.05l.04,1.05c.7-.82,1.64-1.23,2.82-1.23,1.33,0,2.24,.51,2.72,1.53,.32-.46,.73-.83,1.24-1.11,.51-.28,1.11-.42,1.8-.42,2.09,0,3.15,1.1,3.18,3.31v6.37h-1.63v-6.28c0-.68-.16-1.19-.47-1.52s-.83-.51-1.56-.51c-.6,0-1.1,.18-1.5,.54s-.63,.85-.69,1.45v6.31h-1.63v-6.23c0-1.38-.68-2.07-2.03-2.07-1.07,0-1.8,.45-2.19,1.36v6.94h-1.63v-9.51h1.54Z"/><path class="cls-13" d="M460.26,244.14l.65-6.38h6.56v1.5h-5.18l-.39,3.49c.63-.37,1.34-.55,2.14-.55,1.17,0,2.09,.39,2.78,1.16s1.03,1.81,1.03,3.12-.36,2.36-1.07,3.12c-.71,.76-1.71,1.14-2.98,1.14-1.13,0-2.05-.31-2.77-.94s-1.12-1.49-1.22-2.6h1.54c.1,.73,.36,1.28,.78,1.66s.98,.56,1.67,.56c.76,0,1.35-.26,1.78-.77,.43-.52,.65-1.23,.65-2.14,0-.86-.23-1.54-.7-2.06-.46-.52-1.08-.78-1.86-.78-.71,0-1.27,.16-1.67,.47l-.43,.35-1.3-.33Z"/></g><g><path class="cls-13" d="M705.76,173.12c0,1.24-.2,2.3-.59,3.19s-.94,1.59-1.65,2.1l2.29,1.79-1.15,1.06-2.7-2.14c-.42,.11-.87,.16-1.34,.16-1.01,0-1.9-.25-2.68-.74s-1.38-1.2-1.81-2.12-.65-1.98-.66-3.19v-.92c0-1.23,.21-2.32,.64-3.26s1.03-1.67,1.82-2.17,1.68-.75,2.68-.75,1.94,.25,2.72,.75,1.38,1.21,1.81,2.15,.63,2.03,.63,3.27v.82Zm-1.69-.83c0-1.51-.3-2.67-.9-3.48s-1.46-1.23-2.57-1.23-1.9,.41-2.51,1.22-.93,1.94-.95,3.38v.94c0,1.46,.31,2.62,.92,3.46s1.46,1.27,2.55,1.27,1.93-.4,2.53-1.19,.91-1.93,.92-3.41v-.95Z"/><path class="cls-13" d="M717.74,179.1h-1.63v-10.84l-3.28,1.2v-1.48l4.66-1.75h.25v12.86Z"/></g><g><path class="cls-13" d="M705.76,230.98c0,1.24-.2,2.3-.59,3.19s-.94,1.59-1.65,2.1l2.29,1.79-1.15,1.06-2.7-2.14c-.42,.11-.87,.16-1.34,.16-1.01,0-1.9-.25-2.68-.74s-1.38-1.2-1.81-2.12-.65-1.98-.66-3.19v-.92c0-1.23,.21-2.32,.64-3.26s1.03-1.67,1.82-2.17,1.68-.75,2.68-.75,1.94,.25,2.72,.75,1.38,1.21,1.81,2.15,.63,2.03,.63,3.27v.82Zm-1.69-.83c0-1.51-.3-2.67-.9-3.48s-1.46-1.23-2.57-1.23-1.9,.41-2.51,1.22-.93,1.94-.95,3.38v.94c0,1.46,.31,2.62,.92,3.46s1.46,1.27,2.55,1.27,1.93-.4,2.53-1.19,.91-1.93,.92-3.41v-.95Z"/><path class="cls-13" d="M720.78,236.96h-8.38v-1.17l4.43-4.92c.66-.74,1.11-1.35,1.36-1.81s.37-.95,.37-1.45c0-.67-.2-1.22-.61-1.64s-.94-.64-1.62-.64c-.81,0-1.44,.23-1.88,.69s-.67,1.1-.67,1.92h-1.63c0-1.18,.38-2.13,1.14-2.86s1.77-1.09,3.04-1.09c1.19,0,2.13,.31,2.82,.94s1.04,1.45,1.04,2.49c0,1.26-.8,2.76-2.41,4.5l-3.43,3.72h6.42v1.33Z"/></g><g><path class="cls-13" d="M705.76,288.58c0,1.24-.2,2.3-.59,3.19s-.94,1.59-1.65,2.1l2.29,1.79-1.15,1.06-2.7-2.14c-.42,.11-.87,.16-1.34,.16-1.01,0-1.9-.25-2.68-.74s-1.38-1.2-1.81-2.12-.65-1.98-.66-3.19v-.92c0-1.23,.21-2.32,.64-3.26s1.03-1.67,1.82-2.17,1.68-.75,2.68-.75,1.94,.25,2.72,.75,1.38,1.21,1.81,2.15,.63,2.03,.63,3.27v.82Zm-1.69-.83c0-1.51-.3-2.67-.9-3.49s-1.46-1.23-2.57-1.23-1.9,.41-2.51,1.22-.93,1.94-.95,3.38v.94c0,1.46,.31,2.62,.92,3.46s1.46,1.27,2.55,1.27,1.93-.4,2.53-1.19,.91-1.93,.92-3.41v-.95Z"/><path class="cls-13" d="M714.76,287.37h1.22c.77-.01,1.37-.21,1.81-.61s.66-.92,.66-1.59c0-1.5-.75-2.25-2.24-2.25-.7,0-1.26,.2-1.68,.6s-.63,.93-.63,1.6h-1.63c0-1.01,.37-1.86,1.11-2.53s1.68-1.01,2.83-1.01c1.21,0,2.15,.32,2.84,.96s1.03,1.53,1.03,2.66c0,.56-.18,1.1-.54,1.62s-.85,.91-1.47,1.17c.7,.22,1.25,.59,1.63,1.11s.58,1.15,.58,1.89c0,1.15-.38,2.06-1.12,2.73s-1.73,1.01-2.93,1.01-2.18-.33-2.93-.98-1.13-1.51-1.13-2.58h1.63c0,.67,.22,1.21,.66,1.62s1.03,.61,1.77,.61c.79,0,1.39-.21,1.8-.62s.62-1,.62-1.77-.23-1.32-.69-1.71-1.12-.6-1.98-.62h-1.22v-1.33Z"/></g><g><path class="cls-13" d="M705.76,346.18c0,1.24-.2,2.3-.59,3.2s-.94,1.59-1.65,2.1l2.29,1.79-1.15,1.06-2.7-2.14c-.42,.11-.87,.16-1.34,.16-1.01,0-1.9-.25-2.68-.74s-1.38-1.2-1.81-2.12-.65-1.98-.66-3.19v-.92c0-1.23,.21-2.32,.64-3.26s1.03-1.67,1.82-2.17,1.68-.75,2.68-.75,1.94,.25,2.72,.75,1.38,1.21,1.81,2.15,.63,2.03,.63,3.27v.82Zm-1.69-.83c0-1.51-.3-2.67-.9-3.48s-1.46-1.23-2.57-1.23-1.9,.41-2.51,1.22-.93,1.94-.95,3.38v.94c0,1.46,.31,2.62,.92,3.46s1.46,1.27,2.55,1.27,1.93-.4,2.53-1.19,.91-1.93,.92-3.42v-.95Z"/><path class="cls-13" d="M719.26,347.86h1.78v1.33h-1.78v2.97h-1.63v-2.97h-5.83v-.96l5.73-8.87h1.73v8.5Zm-5.62,0h3.98v-6.28l-.19,.35-3.79,5.92Z"/></g><g><path class="cls-13" d="M705.76,403.78c0,1.24-.2,2.3-.59,3.19s-.94,1.59-1.65,2.1l2.29,1.79-1.15,1.06-2.7-2.14c-.42,.11-.87,.16-1.34,.16-1.01,0-1.9-.25-2.68-.74s-1.38-1.2-1.81-2.12-.65-1.98-.66-3.19v-.92c0-1.23,.21-2.32,.64-3.26s1.03-1.67,1.82-2.17,1.68-.75,2.68-.75,1.94,.25,2.72,.75,1.38,1.21,1.81,2.15,.63,2.03,.63,3.27v.82Zm-1.69-.83c0-1.51-.3-2.67-.9-3.49s-1.46-1.23-2.57-1.23-1.9,.41-2.51,1.22-.93,1.94-.95,3.38v.94c0,1.46,.31,2.62,.92,3.46s1.46,1.27,2.55,1.27,1.93-.4,2.53-1.19,.91-1.93,.92-3.41v-.95Z"/><path class="cls-13" d="M713.14,403.35l.65-6.38h6.56v1.5h-5.18l-.39,3.49c.63-.37,1.34-.55,2.14-.55,1.17,0,2.09,.38,2.78,1.16s1.03,1.81,1.03,3.12-.36,2.36-1.07,3.12-1.71,1.14-2.98,1.14c-1.13,0-2.05-.31-2.77-.94s-1.12-1.49-1.22-2.6h1.54c.1,.73,.36,1.28,.78,1.66s.98,.56,1.67,.56c.76,0,1.35-.26,1.78-.77s.65-1.23,.65-2.14c0-.86-.23-1.54-.7-2.06s-1.09-.78-1.86-.78c-.71,0-1.27,.16-1.67,.47l-.43,.35-1.3-.33Z"/></g><g><path class="cls-13" d="M902.18,20.32h1.7v9.06c0,1.22-.37,2.18-1.1,2.87s-1.72,1.04-2.94,1.04-2.26-.33-2.97-.98-1.06-1.56-1.06-2.73h1.69c0,.73,.2,1.3,.6,1.71s.98,.62,1.74,.62c.7,0,1.26-.22,1.69-.66s.65-1.05,.65-1.85v-9.09Z"/><path class="cls-13" d="M912.37,33.12c-.09-.19-.17-.52-.23-1-.76,.79-1.66,1.18-2.71,1.18-.94,0-1.71-.27-2.31-.8s-.9-1.2-.9-2.02c0-.99,.38-1.76,1.13-2.31s1.81-.82,3.18-.82h1.58v-.75c0-.57-.17-1.02-.51-1.36s-.84-.51-1.5-.51c-.58,0-1.07,.15-1.46,.44s-.59,.65-.59,1.06h-1.63c0-.47,.17-.93,.51-1.38s.79-.79,1.37-1.05,1.21-.39,1.9-.39c1.1,0,1.95,.27,2.58,.82s.94,1.3,.97,2.26v4.38c0,.87,.11,1.57,.33,2.08v.14h-1.71Zm-2.7-1.24c.51,0,.99-.13,1.45-.4s.79-.61,.99-1.03v-1.95h-1.27c-1.99,0-2.99,.58-2.99,1.75,0,.51,.17,.91,.51,1.2s.78,.43,1.31,.43Z"/><path class="cls-13" d="M917.82,23.61l.04,1.05c.7-.82,1.64-1.23,2.82-1.23,1.33,0,2.24,.51,2.72,1.53,.32-.46,.73-.83,1.24-1.11,.51-.28,1.11-.42,1.8-.42,2.09,0,3.15,1.1,3.18,3.31v6.37h-1.63v-6.28c0-.68-.16-1.19-.47-1.52s-.83-.51-1.56-.51c-.6,0-1.1,.18-1.5,.54s-.63,.85-.69,1.45v6.31h-1.63v-6.23c0-1.38-.68-2.07-2.03-2.07-1.07,0-1.8,.45-2.19,1.36v6.94h-1.63v-9.51h1.54Z"/><path class="cls-13" d="M938.59,33.12h-1.69v-12.8h1.69v12.8Z"/><path class="cls-13" d="M942.96,23.61l.05,1.2c.73-.91,1.68-1.37,2.85-1.37,2.01,0,3.02,1.13,3.04,3.4v6.28h-1.63v-6.29c0-.69-.16-1.19-.47-1.52-.31-.33-.79-.49-1.44-.49-.53,0-.99,.14-1.39,.42s-.71,.65-.93,1.11v6.78h-1.63v-9.51h1.54Z"/><path class="cls-13" d="M959.38,28.47c0,1.45-.33,2.61-.99,3.5s-1.56,1.33-2.69,1.33-2.06-.37-2.72-1.1v4.58h-1.63v-13.17h1.49l.08,1.05c.66-.82,1.58-1.23,2.76-1.23s2.05,.43,2.71,1.29,1,2.06,1,3.59v.15Zm-1.63-.18c0-1.07-.23-1.92-.69-2.54s-1.08-.93-1.88-.93c-.98,0-1.72,.44-2.21,1.31v4.54c.49,.87,1.23,1.3,2.23,1.3,.78,0,1.4-.31,1.86-.93s.69-1.54,.69-2.76Z"/><path class="cls-13" d="M967.32,32.18c-.63,.74-1.56,1.12-2.79,1.12-1.01,0-1.79-.29-2.32-.88-.53-.59-.8-1.46-.8-2.61v-6.19h1.63v6.14c0,1.44,.59,2.16,1.76,2.16,1.24,0,2.07-.46,2.48-1.39v-6.92h1.63v9.51h-1.55l-.04-.94Z"/><path class="cls-13" d="M973.58,21.31v2.3h1.78v1.26h-1.78v5.9c0,.38,.08,.67,.24,.86,.16,.19,.43,.29,.81,.29,.19,0,.45-.04,.77-.11v1.31c-.43,.12-.84,.17-1.25,.17-.73,0-1.27-.22-1.64-.66s-.55-1.06-.55-1.87v-5.9h-1.73v-1.26h1.73v-2.3h1.63Z"/><path class="cls-13" d="M982.79,30.6c0-.44-.17-.78-.5-1.02-.33-.24-.91-.45-1.73-.63s-1.48-.39-1.96-.63c-.48-.25-.84-.54-1.07-.88-.23-.34-.35-.74-.35-1.21,0-.78,.33-1.44,.99-1.98,.66-.54,1.5-.81,2.53-.81,1.08,0,1.95,.28,2.62,.83s1.01,1.27,1.01,2.14h-1.63c0-.45-.19-.83-.57-1.15-.38-.32-.85-.48-1.43-.48s-1.05,.13-1.39,.39-.5,.59-.5,1.01c0,.39,.16,.69,.47,.89s.87,.39,1.68,.57c.81,.18,1.47,.4,1.97,.65s.88,.56,1.12,.91c.24,.35,.36,.79,.36,1.3,0,.85-.34,1.53-1.02,2.04s-1.56,.77-2.65,.77c-.76,0-1.44-.13-2.02-.4s-1.04-.65-1.38-1.13c-.33-.48-.5-1.01-.5-1.57h1.63c.03,.54,.25,.98,.65,1.3s.95,.48,1.61,.48c.62,0,1.11-.12,1.48-.37s.56-.58,.56-1Z"/></g><g><path class="cls-13" d="M957.75,515.52h-1.63v-10.84l-3.28,1.2v-1.48l4.66-1.75h.25v12.86Z"/><path class="cls-13" d="M963,516.62h-1.4l5.34-13.9h1.39l-5.33,13.9Z"/><path class="cls-13" d="M978.31,515.52h-8.38v-1.17l4.43-4.92c.66-.74,1.11-1.35,1.36-1.82s.37-.95,.37-1.45c0-.67-.2-1.21-.61-1.64s-.94-.64-1.62-.64c-.81,0-1.44,.23-1.88,.69s-.67,1.1-.67,1.92h-1.63c0-1.18,.38-2.13,1.14-2.86s1.77-1.09,3.04-1.09c1.19,0,2.13,.31,2.82,.94s1.04,1.45,1.04,2.49c0,1.26-.8,2.76-2.41,4.5l-3.43,3.72h6.42v1.33Z"/><path class="cls-13" d="M994.33,511.46c-.16,1.35-.66,2.4-1.5,3.13s-1.96,1.1-3.35,1.1c-1.51,0-2.72-.54-3.63-1.62s-1.37-2.54-1.37-4.35v-1.23c0-1.19,.21-2.23,.64-3.14s1.03-1.6,1.81-2.08,1.68-.73,2.71-.73c1.36,0,2.45,.38,3.27,1.14s1.3,1.81,1.43,3.15h-1.7c-.15-1.02-.46-1.76-.95-2.22-.49-.46-1.17-.69-2.05-.69-1.08,0-1.92,.4-2.54,1.2-.61,.8-.92,1.93-.92,3.4v1.24c0,1.39,.29,2.5,.87,3.32,.58,.82,1.39,1.23,2.43,1.23,.94,0,1.66-.21,2.16-.64s.83-1.17,1-2.22h1.7Z"/><path class="cls-13" d="M996.63,515.52v-12.8h3.61c1.11,0,2.1,.25,2.95,.74s1.52,1.19,1.98,2.1,.7,1.95,.71,3.13v.82c0,1.21-.23,2.27-.7,3.17s-1.13,1.61-2,2.09-1.87,.73-3.02,.75h-3.54Zm1.69-11.42v10.04h1.78c1.3,0,2.31-.41,3.04-1.21,.72-.81,1.08-1.96,1.08-3.46v-.75c0-1.45-.34-2.58-1.02-3.39s-1.65-1.21-2.91-1.23h-1.97Z"/><path class="cls-13" d="M1014.88,511.22h1.78v1.33h-1.78v2.97h-1.63v-2.97h-5.83v-.96l5.73-8.87h1.73v8.5Zm-5.62,0h3.98v-6.28l-.19,.35-3.79,5.92Z"/><path class="cls-13" d="M1026.14,510.06c0,1.9-.33,3.32-.98,4.24s-1.67,1.39-3.05,1.39-2.38-.45-3.03-1.36-1-2.26-1.02-4.06v-2.17c0-1.88,.33-3.28,.98-4.19s1.67-1.37,3.06-1.37,2.39,.44,3.04,1.32,.98,2.24,1,4.08v2.11Zm-1.63-2.22c0-1.38-.19-2.38-.58-3.01s-1-.95-1.84-.95-1.44,.31-1.82,.94-.58,1.59-.59,2.89v2.6c0,1.38,.2,2.4,.6,3.06s1.01,.99,1.82,.99,1.4-.31,1.79-.93,.59-1.6,.61-2.94v-2.66Z"/><path class="cls-13" d="M1033.57,515.52h-1.63v-10.84l-3.28,1.2v-1.48l4.66-1.75h.25v12.86Z"/><path class="cls-13" d="M1043.68,515.52h-1.63v-10.84l-3.28,1.2v-1.48l4.66-1.75h.25v12.86Z"/></g><g><path class="cls-13" d="M1054.16,193.6l3.66-10.56h1.85l-4.75,12.8h-1.49l-4.74-12.8h1.84l3.64,10.56Z"/><path class="cls-13" d="M1063.39,192.04c-.96-.28-1.67-.62-2.11-1.02s-.66-.9-.66-1.5c0-.67,.27-1.23,.81-1.67s1.24-.66,2.09-.66c.59,0,1.11,.11,1.57,.34s.81,.54,1.07,.94,.38,.83,.38,1.31h-1.13c0-.52-.16-.92-.49-1.22s-.79-.44-1.39-.44c-.55,0-.99,.12-1.3,.37-.31,.24-.47,.58-.47,1.02,0,.35,.15,.64,.44,.88,.29,.24,.8,.46,1.51,.66s1.26,.42,1.66,.66,.7,.52,.89,.84,.29,.7,.29,1.13c0,.69-.27,1.25-.81,1.66s-1.26,.62-2.16,.62c-.59,0-1.13-.11-1.64-.34s-.9-.53-1.17-.92-.41-.83-.41-1.33h1.13c0,.52,.19,.92,.57,1.22s.89,.45,1.53,.45c.59,0,1.05-.12,1.37-.36s.47-.57,.47-.99-.15-.74-.44-.97-.82-.45-1.59-.68Z"/><path class="cls-13" d="M1070.51,192.04c-.96-.28-1.67-.62-2.11-1.02s-.66-.9-.66-1.5c0-.67,.27-1.23,.81-1.67s1.24-.66,2.09-.66c.59,0,1.11,.11,1.57,.34s.81,.54,1.07,.94,.38,.83,.38,1.31h-1.13c0-.52-.16-.92-.49-1.22s-.79-.44-1.39-.44c-.55,0-.99,.12-1.3,.37-.31,.24-.47,.58-.47,1.02,0,.35,.15,.64,.44,.88,.29,.24,.8,.46,1.51,.66s1.26,.42,1.66,.66,.7,.52,.89,.84,.29,.7,.29,1.13c0,.69-.27,1.25-.81,1.66s-1.26,.62-2.16,.62c-.59,0-1.13-.11-1.64-.34s-.9-.53-1.17-.92-.41-.83-.41-1.33h1.13c0,.52,.19,.92,.57,1.22s.89,.45,1.53,.45c.59,0,1.05-.12,1.37-.36s.47-.57,.47-.99-.15-.74-.44-.97-.82-.45-1.59-.68Z"/></g><g><path class="cls-13" d="M717.54,85.22c-.16,1.35-.66,2.4-1.5,3.13s-1.96,1.1-3.35,1.1c-1.51,0-2.72-.54-3.63-1.63s-1.37-2.53-1.37-4.35v-1.23c0-1.19,.21-2.24,.64-3.14s1.03-1.6,1.81-2.08,1.68-.73,2.71-.73c1.36,0,2.45,.38,3.27,1.14s1.3,1.81,1.43,3.15h-1.7c-.15-1.02-.46-1.76-.95-2.22s-1.17-.69-2.05-.69c-1.08,0-1.92,.4-2.54,1.2-.61,.8-.92,1.93-.92,3.4v1.24c0,1.39,.29,2.5,.87,3.32s1.39,1.23,2.43,1.23c.94,0,1.66-.21,2.16-.64s.83-1.16,1-2.22h1.7Z"/><path class="cls-13" d="M721.35,89.28h-1.63v-13.5h1.63v13.5Z"/><path class="cls-13" d="M723.52,84.44c0-.93,.18-1.77,.55-2.51s.88-1.32,1.53-1.72,1.4-.61,2.24-.61c1.29,0,2.34,.45,3.14,1.34s1.2,2.09,1.2,3.58v.11c0,.93-.18,1.76-.53,2.49s-.86,1.31-1.52,1.72-1.42,.62-2.27,.62c-1.29,0-2.33-.45-3.13-1.34s-1.2-2.08-1.2-3.56v-.11Zm1.63,.19c0,1.05,.24,1.9,.73,2.54s1.14,.96,1.96,.96,1.48-.32,1.97-.97,.73-1.55,.73-2.72c0-1.04-.25-1.89-.74-2.54s-1.15-.97-1.97-.97-1.45,.32-1.94,.96-.74,1.55-.74,2.74Z"/><path class="cls-13" d="M738.03,88.13c.58,0,1.09-.18,1.52-.53s.67-.79,.72-1.32h1.54c-.03,.54-.22,1.06-.56,1.56s-.81,.88-1.38,1.18c-.58,.29-1.19,.44-1.83,.44-1.29,0-2.32-.43-3.09-1.3-.76-.86-1.15-2.05-1.15-3.55v-.27c0-.93,.17-1.75,.51-2.47s.83-1.28,1.46-1.68c.63-.4,1.39-.6,2.25-.6,1.07,0,1.95,.32,2.66,.96,.71,.64,1.08,1.47,1.13,2.49h-1.54c-.05-.62-.28-1.12-.7-1.52-.42-.4-.94-.59-1.55-.59-.83,0-1.47,.3-1.92,.89-.46,.59-.68,1.45-.68,2.58v.31c0,1.1,.23,1.94,.68,2.53s1.1,.89,1.93,.89Z"/><path class="cls-13" d="M746.3,84.88l-1.02,1.06v3.34h-1.63v-13.5h1.63v8.17l.87-1.05,2.96-3.13h1.98l-3.7,3.97,4.13,5.54h-1.91l-3.31-4.4Z"/><path class="cls-13" d="M759.29,89.28h-1.69v-12.8h1.69v12.8Z"/><path class="cls-13" d="M763.65,79.77l.05,1.2c.73-.91,1.68-1.37,2.85-1.37,2.01,0,3.02,1.13,3.04,3.4v6.28h-1.63v-6.29c0-.69-.16-1.19-.47-1.52-.31-.33-.79-.49-1.44-.49-.53,0-.99,.14-1.39,.42s-.71,.65-.93,1.11v6.78h-1.63v-9.51h1.54Z"/><path class="cls-13" d="M780.08,84.63c0,1.45-.33,2.61-.99,3.5s-1.56,1.33-2.69,1.33-2.06-.37-2.72-1.1v4.58h-1.63v-13.17h1.49l.08,1.05c.66-.82,1.58-1.23,2.76-1.23s2.05,.43,2.71,1.29,1,2.06,1,3.59v.15Zm-1.63-.18c0-1.07-.23-1.92-.69-2.54s-1.08-.93-1.88-.93c-.98,0-1.72,.44-2.21,1.31v4.54c.49,.87,1.23,1.3,2.23,1.3,.78,0,1.4-.31,1.86-.93s.69-1.54,.69-2.76Z"/><path class="cls-13" d="M788.02,88.34c-.63,.74-1.56,1.12-2.79,1.12-1.01,0-1.79-.29-2.32-.88-.53-.59-.8-1.46-.8-2.61v-6.19h1.63v6.14c0,1.44,.59,2.16,1.76,2.16,1.24,0,2.07-.46,2.48-1.39v-6.92h1.63v9.51h-1.55l-.04-.94Z"/><path class="cls-13" d="M794.28,77.47v2.3h1.78v1.26h-1.78v5.9c0,.38,.08,.67,.24,.86,.16,.19,.43,.29,.81,.29,.19,0,.45-.04,.77-.11v1.31c-.43,.12-.84,.17-1.25,.17-.73,0-1.27-.22-1.64-.66s-.55-1.06-.55-1.87v-5.9h-1.73v-1.26h1.73v-2.3h1.63Z"/></g><g><path class="cls-13" d="M709.88,507.68v-12.8h3.61c1.11,0,2.1,.25,2.95,.74s1.52,1.19,1.98,2.1,.7,1.95,.71,3.13v.82c0,1.21-.23,2.26-.7,3.17s-1.13,1.61-2,2.09-1.87,.74-3.02,.75h-3.54Zm1.69-11.42v10.04h1.78c1.3,0,2.31-.4,3.04-1.21,.72-.81,1.09-1.96,1.09-3.46v-.75c0-1.45-.34-2.58-1.02-3.39s-1.65-1.22-2.9-1.23h-1.97Z"/><path class="cls-13" d="M721.44,495.65c0-.26,.08-.49,.24-.67s.4-.27,.72-.27,.56,.09,.72,.27,.25,.4,.25,.67-.08,.48-.25,.66-.4,.26-.72,.26-.56-.09-.72-.26-.24-.4-.24-.66Zm1.76,12.03h-1.63v-9.51h1.63v9.51Z"/><path class="cls-13" d="M728.94,505.47l2.36-7.3h1.66l-3.41,9.51h-1.24l-3.45-9.51h1.66l2.42,7.3Z"/><path class="cls-13" d="M734.53,495.65c0-.26,.08-.49,.24-.67s.4-.27,.72-.27,.56,.09,.72,.27,.25,.4,.25,.67-.08,.48-.25,.66-.4,.26-.72,.26-.56-.09-.72-.26-.24-.4-.24-.66Zm1.76,12.03h-1.63v-9.51h1.63v9.51Z"/><path class="cls-13" d="M738.49,502.85c0-1.46,.35-2.63,1.04-3.52s1.6-1.33,2.72-1.33,2,.38,2.65,1.14v-4.96h1.63v13.5h-1.49l-.08-1.02c-.65,.8-1.56,1.2-2.72,1.2s-2-.45-2.69-1.35-1.04-2.08-1.04-3.53v-.12Zm1.63,.18c0,1.08,.22,1.92,.67,2.53s1.06,.91,1.85,.91c1.03,0,1.78-.46,2.26-1.39v-4.37c-.49-.9-1.23-1.34-2.24-1.34-.8,0-1.42,.31-1.86,.92s-.67,1.53-.67,2.73Z"/><path class="cls-13" d="M752.98,507.86c-1.29,0-2.34-.42-3.15-1.27s-1.21-1.98-1.21-3.4v-.3c0-.94,.18-1.79,.54-2.53s.86-1.32,1.51-1.74,1.35-.63,2.11-.63c1.24,0,2.2,.41,2.88,1.22s1.03,1.98,1.03,3.5v.68h-6.44c.02,.94,.3,1.7,.82,2.27s1.19,.87,2,.87c.57,0,1.06-.12,1.46-.35s.75-.54,1.05-.93l.99,.77c-.8,1.22-1.99,1.84-3.59,1.84Zm-.2-8.53c-.66,0-1.21,.24-1.65,.72s-.72,1.15-.83,2.01h4.76v-.12c-.05-.83-.27-1.47-.67-1.92s-.94-.68-1.62-.68Z"/><path class="cls-13" d="M771.08,503.03c0,1.45-.33,2.62-1,3.5s-1.56,1.32-2.69,1.32c-1.2,0-2.13-.42-2.79-1.27l-.08,1.1h-1.49v-13.5h1.63v5.04c.66-.81,1.56-1.22,2.72-1.22s2.06,.44,2.72,1.31,.99,2.07,.99,3.59v.14Zm-1.63-.18c0-1.11-.21-1.96-.64-2.57s-1.04-.91-1.85-.91c-1.07,0-1.84,.5-2.31,1.49v4.11c.5,1,1.27,1.49,2.33,1.49,.78,0,1.39-.3,1.82-.91s.65-1.51,.65-2.72Z"/><path class="cls-13" d="M776.14,505.3l2.21-7.13h1.74l-3.82,10.98c-.59,1.58-1.53,2.37-2.82,2.37l-.31-.03-.61-.11v-1.32l.44,.04c.55,0,.98-.11,1.29-.33s.56-.63,.76-1.22l.36-.97-3.39-9.4h1.78l2.37,7.13Z"/><path class="cls-13" d="M788.2,500.49h1.22c.77-.01,1.37-.21,1.81-.61s.66-.92,.66-1.59c0-1.5-.75-2.25-2.24-2.25-.7,0-1.26,.2-1.68,.6s-.63,.93-.63,1.59h-1.63c0-1.01,.37-1.86,1.11-2.53s1.68-1.01,2.83-1.01c1.21,0,2.15,.32,2.84,.96s1.03,1.53,1.03,2.66c0,.56-.18,1.1-.54,1.62s-.85,.91-1.47,1.17c.7,.22,1.25,.59,1.63,1.11s.58,1.15,.58,1.89c0,1.15-.38,2.06-1.12,2.73s-1.73,1.01-2.93,1.01-2.18-.33-2.93-.98-1.13-1.51-1.13-2.58h1.63c0,.67,.22,1.21,.66,1.62s1.03,.61,1.77,.61c.79,0,1.39-.21,1.8-.62s.62-1,.62-1.77-.23-1.32-.69-1.71-1.12-.6-1.98-.62h-1.22v-1.33Z"/></g><g><path class="cls-13" d="M757.57,133.92v-12.8h3.61c1.11,0,2.1,.25,2.95,.74s1.52,1.19,1.98,2.1c.46,.91,.7,1.95,.71,3.13v.82c0,1.21-.23,2.26-.7,3.17-.46,.91-1.13,1.61-1.99,2.09-.87,.49-1.87,.74-3.02,.75h-3.54Zm1.69-11.42v10.04h1.78c1.3,0,2.31-.4,3.04-1.21s1.09-1.96,1.09-3.46v-.75c0-1.45-.34-2.58-1.02-3.39-.68-.81-1.65-1.22-2.91-1.23h-1.97Z"/><path class="cls-13" d="M774.99,133.92c-.09-.19-.17-.52-.23-1-.76,.79-1.66,1.18-2.71,1.18-.94,0-1.71-.27-2.31-.8-.6-.53-.9-1.2-.9-2.02,0-.99,.38-1.76,1.13-2.31,.75-.55,1.81-.82,3.18-.82h1.58v-.75c0-.57-.17-1.02-.51-1.36s-.84-.51-1.5-.51c-.58,0-1.07,.15-1.46,.44s-.59,.65-.59,1.06h-1.63c0-.47,.17-.93,.5-1.38s.79-.79,1.37-1.05,1.21-.39,1.9-.39c1.1,0,1.95,.27,2.58,.82s.94,1.3,.97,2.26v4.38c0,.87,.11,1.57,.33,2.08v.14h-1.71Zm-2.7-1.24c.51,0,.99-.13,1.45-.4s.79-.61,.99-1.03v-1.95h-1.27c-1.99,0-2.99,.58-2.99,1.75,0,.51,.17,.91,.51,1.2s.78,.43,1.31,.43Z"/><path class="cls-13" d="M781.12,122.11v2.3h1.78v1.26h-1.78v5.9c0,.38,.08,.67,.24,.86,.16,.19,.43,.29,.81,.29,.19,0,.45-.04,.77-.11v1.31c-.43,.12-.84,.17-1.25,.17-.73,0-1.27-.22-1.64-.66s-.55-1.06-.55-1.87v-5.9h-1.73v-1.26h1.73v-2.3h1.63Z"/><path class="cls-13" d="M790.66,133.92c-.09-.19-.17-.52-.23-1-.76,.79-1.66,1.18-2.71,1.18-.94,0-1.71-.27-2.31-.8-.6-.53-.9-1.2-.9-2.02,0-.99,.38-1.76,1.13-2.31,.75-.55,1.81-.82,3.18-.82h1.58v-.75c0-.57-.17-1.02-.51-1.36s-.84-.51-1.5-.51c-.58,0-1.07,.15-1.46,.44s-.59,.65-.59,1.06h-1.63c0-.47,.17-.93,.5-1.38s.79-.79,1.37-1.05,1.21-.39,1.9-.39c1.1,0,1.95,.27,2.58,.82s.94,1.3,.97,2.26v4.38c0,.87,.11,1.57,.33,2.08v.14h-1.71Zm-2.7-1.24c.51,0,.99-.13,1.45-.4s.79-.61,.99-1.03v-1.95h-1.27c-1.99,0-2.99,.58-2.99,1.75,0,.51,.17,.91,.51,1.2s.78,.43,1.31,.43Z"/></g><g><path class="cls-13" d="M1015.82,125.28h-1.63v-10.84l-3.28,1.2v-1.48l4.66-1.75h.25v12.86Z"/><path class="cls-13" d="M1021.33,118.86l.65-6.38h6.56v1.5h-5.18l-.39,3.49c.63-.37,1.34-.55,2.14-.55,1.17,0,2.09,.39,2.78,1.16s1.03,1.81,1.03,3.12-.36,2.36-1.07,3.12c-.71,.76-1.71,1.14-2.98,1.14-1.13,0-2.05-.31-2.77-.94s-1.12-1.49-1.22-2.6h1.54c.1,.73,.36,1.28,.78,1.66s.98,.56,1.67,.56c.76,0,1.35-.26,1.78-.77,.43-.52,.65-1.23,.65-2.14,0-.86-.23-1.54-.7-2.06-.46-.52-1.08-.78-1.86-.78-.71,0-1.27,.16-1.67,.47l-.43,.35-1.3-.33Z"/></g><g><path class="cls-13" d="M1015.82,82.08h-1.63v-10.84l-3.28,1.2v-1.48l4.66-1.75h.25v12.86Z"/><path class="cls-13" d="M1028.61,76.62c0,1.9-.33,3.32-.98,4.25s-1.67,1.39-3.05,1.39-2.38-.45-3.03-1.36-1-2.26-1.02-4.06v-2.17c0-1.88,.33-3.28,.98-4.19s1.67-1.37,3.06-1.37,2.39,.44,3.04,1.32,.98,2.24,1,4.08v2.11Zm-1.63-2.22c0-1.38-.19-2.38-.58-3.01s-1-.94-1.84-.94-1.44,.31-1.82,.94-.58,1.59-.59,2.89v2.6c0,1.38,.2,2.4,.6,3.06s1.01,.99,1.82,.99,1.4-.31,1.79-.93c.39-.62,.59-1.6,.61-2.94v-2.66Z"/></g><path class="cls-13" d="M875.59,69.12h-8.38v-1.17l4.43-4.92c.66-.74,1.11-1.35,1.36-1.81,.25-.47,.37-.95,.37-1.45,0-.67-.2-1.22-.61-1.64s-.94-.64-1.62-.64c-.81,0-1.44,.23-1.89,.69-.45,.46-.67,1.1-.67,1.92h-1.63c0-1.18,.38-2.13,1.14-2.86s1.77-1.09,3.05-1.09c1.19,0,2.13,.31,2.82,.94s1.04,1.45,1.04,2.49c0,1.26-.8,2.76-2.41,4.5l-3.43,3.72h6.42v1.33Z"/><path class="cls-13" d="M898.37,61.93h1.22c.77-.01,1.37-.21,1.81-.61s.66-.92,.66-1.59c0-1.5-.75-2.25-2.24-2.25-.7,0-1.26,.2-1.68,.6-.42,.4-.63,.93-.63,1.6h-1.63c0-1.01,.37-1.86,1.11-2.53,.74-.67,1.68-1.01,2.83-1.01,1.21,0,2.15,.32,2.84,.96s1.03,1.53,1.03,2.66c0,.56-.18,1.1-.54,1.62-.36,.52-.85,.91-1.47,1.17,.7,.22,1.25,.59,1.63,1.11,.38,.52,.58,1.15,.58,1.89,0,1.15-.38,2.06-1.12,2.73s-1.73,1.01-2.93,1.01-2.18-.33-2.93-.98-1.13-1.51-1.13-2.58h1.63c0,.67,.22,1.21,.66,1.62s1.03,.61,1.77,.61c.79,0,1.39-.21,1.8-.62s.62-1,.62-1.77-.23-1.32-.69-1.71-1.12-.6-1.98-.62h-1.22v-1.33Z"/><path class="cls-13" d="M933.07,57.24l-5.3,11.88h-1.71l5.28-11.46h-6.93v-1.34h8.65v.91Z"/><path class="cls-13" d="M959.84,63.5c-.34,.4-.75,.73-1.22,.98-.47,.25-.99,.37-1.55,.37-.74,0-1.38-.18-1.93-.54-.55-.36-.97-.87-1.27-1.53s-.45-1.39-.45-2.18c0-.86,.16-1.63,.49-2.31,.32-.69,.79-1.21,1.38-1.57s1.29-.54,2.09-.54c1.27,0,2.26,.47,2.99,1.42,.73,.95,1.09,2.24,1.09,3.87v.47c0,2.49-.49,4.31-1.48,5.45s-2.47,1.73-4.46,1.76h-.32v-1.38h.34c1.34-.02,2.37-.37,3.09-1.05,.72-.68,1.11-1.74,1.18-3.21Zm-2.5,0c.54,0,1.05-.17,1.51-.5s.8-.75,1.01-1.24v-.65c0-1.07-.23-1.93-.69-2.6s-1.05-1-1.76-1-1.29,.27-1.72,.82-.65,1.27-.65,2.17,.21,1.59,.63,2.16c.42,.57,.98,.85,1.68,.85Z"/><g><path class="cls-13" d="M985.58,69.12h-1.63v-10.84l-3.28,1.2v-1.48l4.66-1.75h.25v12.86Z"/><path class="cls-13" d="M998.73,69.12h-8.38v-1.17l4.43-4.92c.66-.74,1.11-1.35,1.36-1.81,.25-.47,.37-.95,.37-1.45,0-.67-.2-1.22-.61-1.64s-.94-.64-1.62-.64c-.81,0-1.44,.23-1.89,.69-.45,.46-.67,1.1-.67,1.92h-1.63c0-1.18,.38-2.13,1.14-2.86s1.77-1.09,3.05-1.09c1.19,0,2.13,.31,2.82,.94s1.04,1.45,1.04,2.49c0,1.26-.8,2.76-2.41,4.5l-3.43,3.72h6.42v1.33Z"/></g><g><path class="cls-13" d="M814.19,84.06h-1.63v-10.84l-3.28,1.2v-1.48l4.66-1.75h.25v12.86Z"/><path class="cls-13" d="M825.82,79.76h1.78v1.33h-1.78v2.97h-1.63v-2.97h-5.83v-.96l5.73-8.87h1.73v8.5Zm-5.62,0h3.98v-6.28l-.19,.35-3.79,5.92Z"/></g><path class="cls-13" d="M827.18,127.26h-1.63v-10.84l-3.28,1.2v-1.48l4.66-1.75h.25v12.86Z"/><g><path class="cls-13" d="M924.13,131.62c0,1.24-.2,2.3-.59,3.19s-.94,1.59-1.65,2.1l2.29,1.79-1.15,1.06-2.7-2.14c-.42,.11-.87,.16-1.34,.16-1.01,0-1.9-.25-2.68-.74s-1.38-1.2-1.81-2.12-.65-1.98-.66-3.19v-.92c0-1.23,.21-2.32,.64-3.26s1.03-1.67,1.81-2.17,1.68-.75,2.69-.75,1.94,.25,2.72,.75,1.38,1.21,1.81,2.15,.63,2.03,.63,3.27v.82Zm-1.69-.83c0-1.51-.3-2.67-.9-3.48s-1.46-1.23-2.57-1.23-1.9,.41-2.51,1.22-.93,1.94-.95,3.38v.94c0,1.46,.31,2.62,.92,3.46s1.46,1.27,2.55,1.27,1.93-.4,2.53-1.19,.9-1.93,.92-3.41v-.95Z"/><path class="cls-13" d="M936.11,137.6h-1.63v-10.84l-3.28,1.2v-1.48l4.66-1.75h.26v12.86Z"/></g><g><path class="cls-13" d="M970.22,131.62c0,1.24-.2,2.3-.59,3.19s-.94,1.59-1.65,2.1l2.29,1.79-1.15,1.06-2.7-2.14c-.42,.11-.87,.16-1.34,.16-1.01,0-1.9-.25-2.68-.74s-1.38-1.2-1.82-2.12-.65-1.98-.66-3.19v-.92c0-1.23,.21-2.32,.64-3.26s1.03-1.67,1.81-2.17,1.68-.75,2.69-.75,1.94,.25,2.72,.75,1.38,1.21,1.81,2.15,.63,2.03,.63,3.27v.82Zm-1.69-.83c0-1.51-.3-2.67-.9-3.48s-1.46-1.23-2.57-1.23-1.9,.41-2.51,1.22-.93,1.94-.94,3.38v.94c0,1.46,.31,2.62,.92,3.46s1.46,1.27,2.55,1.27,1.93-.4,2.53-1.19,.91-1.93,.92-3.41v-.95Z"/><path class="cls-13" d="M985.24,137.6h-8.38v-1.17l4.43-4.92c.66-.74,1.11-1.35,1.36-1.81s.37-.95,.37-1.45c0-.67-.2-1.22-.61-1.64s-.94-.64-1.62-.64c-.81,0-1.44,.23-1.89,.69s-.67,1.1-.67,1.92h-1.63c0-1.18,.38-2.13,1.14-2.86s1.77-1.09,3.05-1.09c1.19,0,2.13,.31,2.82,.94s1.04,1.45,1.04,2.49c0,1.26-.8,2.76-2.41,4.5l-3.43,3.72h6.42v1.33Z"/></g><g><path class="cls-13" d="M893.32,105.38c-.16,1.35-.66,2.4-1.5,3.13s-1.96,1.1-3.35,1.1c-1.51,0-2.72-.54-3.63-1.63s-1.37-2.53-1.37-4.35v-1.23c0-1.19,.21-2.24,.64-3.14s1.03-1.6,1.81-2.08,1.68-.73,2.71-.73c1.36,0,2.45,.38,3.27,1.14s1.3,1.81,1.43,3.15h-1.7c-.15-1.02-.46-1.76-.95-2.22s-1.17-.69-2.05-.69c-1.08,0-1.92,.4-2.54,1.2-.61,.8-.92,1.93-.92,3.4v1.24c0,1.39,.29,2.5,.87,3.32s1.39,1.23,2.43,1.23c.94,0,1.66-.21,2.16-.64s.83-1.16,1-2.22h1.7Z"/><path class="cls-13" d="M895.63,109.44v-12.8h3.61c1.11,0,2.1,.25,2.95,.74s1.52,1.19,1.98,2.1,.7,1.95,.71,3.13v.82c0,1.21-.23,2.26-.7,3.17s-1.13,1.61-2,2.09-1.87,.74-3.02,.75h-3.54Zm1.69-11.42v10.04h1.78c1.3,0,2.31-.4,3.04-1.21s1.09-1.96,1.09-3.46v-.75c0-1.45-.34-2.58-1.02-3.39-.68-.81-1.65-1.22-2.9-1.23h-1.97Z"/><path class="cls-13" d="M913.87,105.14h1.78v1.33h-1.78v2.97h-1.63v-2.97h-5.83v-.96l5.73-8.87h1.73v8.5Zm-5.62,0h3.98v-6.28l-.19,.35-3.79,5.92Z"/><path class="cls-13" d="M925.14,103.98c0,1.9-.33,3.32-.98,4.25s-1.67,1.39-3.05,1.39-2.38-.45-3.03-1.36-1-2.26-1.02-4.06v-2.17c0-1.88,.33-3.28,.98-4.19s1.67-1.37,3.06-1.37,2.39,.44,3.04,1.32,.98,2.24,1,4.08v2.11Zm-1.63-2.22c0-1.38-.19-2.38-.58-3.01s-1-.94-1.84-.94-1.44,.31-1.82,.94-.58,1.59-.59,2.89v2.6c0,1.38,.2,2.4,.6,3.06s1.01,.99,1.82,.99,1.4-.31,1.79-.93,.59-1.6,.61-2.94v-2.66Z"/><path class="cls-13" d="M932.57,109.44h-1.63v-10.84l-3.28,1.2v-1.48l4.66-1.75h.25v12.86Z"/><path class="cls-13" d="M945.09,99.98c0,.64-.17,1.21-.51,1.71s-.79,.89-1.37,1.17c.67,.29,1.2,.71,1.59,1.26s.58,1.17,.58,1.87c0,1.11-.37,1.99-1.12,2.65s-1.73,.98-2.95,.98-2.22-.33-2.96-.99-1.11-1.54-1.11-2.64c0-.69,.19-1.32,.57-1.87s.9-.98,1.57-1.27c-.57-.28-1.02-.67-1.34-1.17s-.49-1.06-.49-1.7c0-1.08,.35-1.93,1.04-2.57s1.6-.95,2.73-.95,2.03,.32,2.73,.95,1.04,1.49,1.04,2.57Zm-1.33,5.97c0-.71-.23-1.3-.68-1.75s-1.05-.68-1.78-.68-1.32,.22-1.76,.67-.66,1.03-.66,1.76,.21,1.3,.65,1.71,1.03,.62,1.8,.62,1.36-.21,1.79-.63,.65-.99,.65-1.71Zm-2.44-8.15c-.64,0-1.16,.2-1.55,.59s-.59,.93-.59,1.61,.19,1.18,.58,1.58,.91,.6,1.56,.6,1.17-.2,1.56-.6,.58-.93,.58-1.58-.2-1.18-.61-1.59-.92-.62-1.54-.62Z"/></g></g><g id="Line"><line class="cls-1" x1="97.92" y1="43.2" x2="198.72" y2="43.2"/><line class="cls-1" x1="227.52" y1="43.2" x2="328.32" y2="43.2"/><path class="cls-1" d="M227.52,43.2c0,7.95-6.45,14.4-14.4,14.4s-14.4-6.45-14.4-14.4"/><rect class="cls-11" x="69.12" y="72" width="28.8" height="28.8"/><rect class="cls-11" x="69.12" y="129.6" width="28.8" height="28.8"/><rect class="cls-11" x="69.12" y="187.2" width="28.8" height="28.8"/><line class="cls-1" x1="97.92" y1="43.2" x2="97.92" y2="534.24"/><line class="cls-1" x1="97.92" y1="532.8" x2="328.32" y2="532.8"/><line class="cls-1" x1="328.32" y1="43.2" x2="328.32" y2="532.8"/><rect class="cls-11" x="69.12" y="244.8" width="28.8" height="28.8"/><rect class="cls-11" x="69.12" y="302.4" width="28.8" height="28.8"/><rect class="cls-11" x="69.12" y="360" width="28.8" height="28.8"/><rect class="cls-11" x="69.12" y="417.6" width="28.8" height="28.8"/><rect class="cls-11" x="328.32" y="187.2" width="28.8" height="28.8"/><rect class="cls-11" x="328.32" y="244.8" width="28.8" height="28.8"/><rect class="cls-11" x="328.32" y="302.4" width="28.8" height="28.8"/><rect class="cls-11" x="328.32" y="360" width="28.8" height="28.8"/><rect class="cls-11" x="328.32" y="417.6" width="28.8" height="28.8"/><rect class="cls-11" x="328.32" y="475.2" width="28.8" height="28.8"/><rect class="cls-11" x="69.12" y="475.2" width="28.8" height="28.8"/><rect class="cls-11" x="328.32" y="72" width="28.8" height="28.8"/><rect class="cls-11" x="328.32" y="129.6" width="28.8" height="28.8"/><line class="cls-7" x1="469.44" y1="446.4" x2="515.52" y2="446.4"/><line class="cls-7" x1="469.44" y1="388.8" x2="515.52" y2="388.8"/><line class="cls-7" x1="469.44" y1="417.6" x2="515.52" y2="417.6"/><line class="cls-10" x1="577.44" y1="460.8" x2="577.44" y2="505.67"/><rect class="cls-3" x="515.52" y="115.2" width="123.84" height="345.6"/><g><line class="cls-10" x1="577.44" y1="115.2" x2="577.44" y2="74.72"/><polygon class="cls-13" points="586.98 92.45 584.16 93.48 577.44 75.01 570.72 93.48 567.9 92.45 577.44 66.24 586.98 92.45"/></g><line class="cls-7" x1="469.44" y1="360" x2="515.52" y2="360"/><line class="cls-7" x1="469.44" y1="244.8" x2="515.52" y2="244.8"/><line class="cls-7" x1="469.44" y1="216" x2="515.52" y2="216"/><line class="cls-7" x1="469.44" y1="187.2" x2="515.52" y2="187.2"/><line class="cls-7" x1="469.44" y1="158.4" x2="515.52" y2="158.4"/><line class="cls-7" x1="469.44" y1="129.6" x2="515.52" y2="129.6"/><line class="cls-6" x1="639.36" y1="345.6" x2="685.44" y2="345.6"/><line class="cls-6" x1="639.36" y1="403.2" x2="685.44" y2="403.2"/><line class="cls-6" x1="639.36" y1="230.4" x2="685.44" y2="230.4"/><line class="cls-6" x1="639.36" y1="288" x2="685.44" y2="288"/><line class="cls-6" x1="639.36" y1="172.8" x2="685.44" y2="172.8"/><line class="cls-10" x1="993.99" y1="172.8" x2="901.44" y2="172.8"/><circle class="cls-10" cx="947.52" cy="293.76" r="8.64"/><line class="cls-10" x1="924.48" y1="172.8" x2="924.48" y2="144"/><line class="cls-10" x1="993.6" y1="239.04" x2="993.6" y2="172.8"/><line class="cls-10" x1="901.44" y1="239.04" x2="901.44" y2="172.8"/><line class="cls-10" x1="970.56" y1="172.8" x2="970.56" y2="144"/><path class="cls-8" d="M901.44,238.32c0,25.85,20.63,46.8,46.08,46.8s46.08-20.95,46.08-46.8"/><line class="cls-10" x1="947.52" y1="331.2" x2="947.52" y2="302.4"/><line class="cls-10" x1="993.99" y1="360" x2="901.44" y2="360"/><circle class="cls-10" cx="947.52" cy="480.96" r="8.64"/><line class="cls-10" x1="924.48" y1="360" x2="924.48" y2="331.2"/><line class="cls-10" x1="993.6" y1="426.24" x2="993.6" y2="360"/><line class="cls-10" x1="901.44" y1="426.24" x2="901.44" y2="360"/><line class="cls-10" x1="970.56" y1="360" x2="970.56" y2="331.2"/><path class="cls-8" d="M901.44,425.52c0,25.85,20.63,46.8,46.08,46.8s46.08-20.95,46.08-46.8"/><line class="cls-10" x1="947.52" y1="518.4" x2="947.52" y2="489.6"/><line class="cls-10" x1="924.48" y1="331.2" x2="970.56" y2="331.2"/><rect class="cls-12" x="832.32" y="72" width="172.8" height="72"/><line class="cls-10" x1="1033.92" y1="43.2" x2="1033.92" y2="177.12"/><line class="cls-10" x1="1005.12" y1="129.6" x2="1033.92" y2="129.6"/><line class="cls-10" x1="1005.12" y1="86.4" x2="1033.92" y2="86.4"/><line class="cls-10" x1="976.32" y1="72" x2="976.32" y2="43.2"/><line class="cls-10" x1="947.52" y1="72" x2="947.52" y2="43.2"/><line class="cls-10" x1="918.72" y1="72" x2="918.72" y2="43.2"/><line class="cls-10" x1="889.92" y1="72" x2="889.92" y2="43.2"/><line class="cls-10" x1="861.12" y1="72" x2="861.12" y2="43.2"/><line class="cls-10" x1="861.12" y1="43.2" x2="1033.92" y2="43.2"/><line class="cls-10" x1="803.52" y1="86.4" x2="832.32" y2="86.4"/><line class="cls-10" x1="803.52" y1="129.6" x2="832.32" y2="129.6"/><line class="cls-10" x1="947.52" y1="518.4" x2="803.52" y2="518.4"/><line class="cls-10" x1="803.52" y1="129.6" x2="803.52" y2="518.4"/><g><polyline class="cls-11" points="1005.12 493.36 1005.12 495.36 1003.12 495.36"/><line class="cls-2" x1="999" y1="495.36" x2="893.98" y2="495.36"/><polyline class="cls-11" points="891.92 495.36 889.92 495.36 889.92 493.36"/><line class="cls-5" x1="889.92" y1="489.35" x2="889.92" y2="162.41"/><polyline class="cls-11" points="889.92 160.4 889.92 158.4 891.92 158.4"/><line class="cls-2" x1="896.04" y1="158.4" x2="1001.06" y2="158.4"/><polyline class="cls-11" points="1003.12 158.4 1005.12 158.4 1005.12 160.4"/><line class="cls-5" x1="1005.12" y1="164.41" x2="1005.12" y2="491.35"/></g><line class="cls-10" x1="803.52" y1="518.4" x2="745.92" y2="518.4"/><line class="cls-11" x1="912.96" y1="122.66" x2="923.04" y2="122.66"/><line class="cls-11" x1="959.04" y1="122.66" x2="969.12" y2="122.66"/><polygon class="cls-9" points="1033.92 177.12 1048.32 177.12 1041.12 185.76 1033.92 194.4 1026.72 185.76 1019.52 177.12 1033.92 177.12"/><polygon class="cls-9" points="577.44 505.44 591.84 505.44 584.64 514.08 577.44 522.72 570.24 514.08 563.04 505.44 577.44 505.44"/><line class="cls-11" x1="695.52" y1="164.16" x2="705.6" y2="164.16"/><line class="cls-11" x1="695.52" y1="222.02" x2="705.6" y2="222.02"/><line class="cls-11" x1="695.52" y1="279.62" x2="705.6" y2="279.62"/><line class="cls-11" x1="695.52" y1="337.22" x2="705.6" y2="337.22"/><line class="cls-11" x1="288" y1="252" x2="298.08" y2="252"/><line class="cls-11" x1="288" y1="367.2" x2="298.08" y2="367.2"/><line class="cls-11" x1="113.76" y1="367.2" x2="123.84" y2="367.2"/><line class="cls-11" x1="113.76" y1="309.6" x2="123.84" y2="309.6"/><line class="cls-11" x1="113.76" y1="252" x2="123.84" y2="252"/><line class="cls-11" x1="695.52" y1="394.82" x2="705.6" y2="394.82"/></g><g id="Field"><circle class="cls-4" cx="889.92" cy="43.2" r="2.88"/><circle class="cls-4" cx="918.72" cy="43.2" r="2.88"/><circle class="cls-4" cx="947.52" cy="43.2" r="2.88"/><circle class="cls-4" cx="976.32" cy="43.2" r="2.88"/><circle class="cls-4" cx="1033.92" cy="86.4" r="2.88"/><circle class="cls-4" cx="1033.92" cy="129.6" r="2.88"/><circle class="cls-4" cx="803.52" cy="518.4" r="2.88"/><circle class="cls-4" cx="947.52" cy="331.2" r="2.88"/></g></svg>