<?xml version="1.0" encoding="UTF-8"?><svg xmlns="http://www.w3.org/2000/svg" viewBox="0 0 1080 600.48"><defs><style>.cls-1{stroke-dasharray:0 0 3.96 3.96;}.cls-1,.cls-2,.cls-3,.cls-4,.cls-5,.cls-6,.cls-7,.cls-8{fill:none;stroke:#1d1e1b;stroke-miterlimit:10;}.cls-2{stroke-width:3px;}.cls-9,.cls-10,.cls-11{fill:#1d1e1b;}.cls-9,.cls-11{font-family:Roboto-Regular, Roboto;}.cls-12{fill:#fff;}.cls-3{stroke-dasharray:0 0 6.2 6.2;}.cls-4{stroke-width:2px;}.cls-5{stroke-width:2px;}.cls-13{letter-spacing:-.01em;}.cls-14,.cls-11{font-size:18px;}.cls-7{stroke-width:2.11px;}.cls-15{letter-spacing:-.02em;}.cls-16{font-size:12px;}.cls-8{stroke-width:1px;}</style></defs><g id="Line"><line class="cls-2" x1="97.92" y1="43.2" x2="198.72" y2="43.2"/><line class="cls-2" x1="227.52" y1="43.2" x2="328.32" y2="43.2"/><path class="cls-2" d="M227.52,43.2c0,7.95-6.45,14.4-14.4,14.4s-14.4-6.45-14.4-14.4"/><rect class="cls-6" x="69.12" y="72" width="28.8" height="28.8"/><rect class="cls-6" x="69.12" y="129.6" width="28.8" height="28.8"/><rect class="cls-6" x="69.12" y="187.2" width="28.8" height="28.8"/><line class="cls-2" x1="97.92" y1="43.2" x2="97.92" y2="534.24"/><line class="cls-2" x1="97.92" y1="532.8" x2="328.32" y2="532.8"/><line class="cls-2" x1="328.32" y1="43.2" x2="328.32" y2="532.8"/><rect class="cls-6" x="69.12" y="244.8" width="28.8" height="28.8"/><rect class="cls-6" x="69.12" y="302.4" width="28.8" height="28.8"/><rect class="cls-6" x="69.12" y="360" width="28.8" height="28.8"/><rect class="cls-6" x="69.12" y="417.6" width="28.8" height="28.8"/><rect class="cls-6" x="328.32" y="187.2" width="28.8" height="28.8"/><rect class="cls-6" x="328.32" y="244.8" width="28.8" height="28.8"/><rect class="cls-6" x="328.32" y="302.4" width="28.8" height="28.8"/><rect class="cls-6" x="328.32" y="360" width="28.8" height="28.8"/><rect class="cls-6" x="328.32" y="417.6" width="28.8" height="28.8"/><rect class="cls-6" x="328.32" y="475.2" width="28.8" height="28.8"/><rect class="cls-6" x="69.12" y="475.2" width="28.8" height="28.8"/><rect class="cls-6" x="328.32" y="72" width="28.8" height="28.8"/><rect class="cls-6" x="328.32" y="129.6" width="28.8" height="28.8"/><rect class="cls-7" x="573.12" y="95.04" width="210.24" height="367.2"/><g><line class="cls-5" x1="784.66" y1="116.64" x2="929.87" y2="116.64"/><polygon class="cls-10" points="788.64 121.55 789.46 120.67 785.12 116.64 789.46 112.61 788.64 111.73 783.36 116.64 788.64 121.55"/><polygon class="cls-10" points="919.93 128.91 917.88 126.71 928.72 116.64 917.88 106.57 919.93 104.37 933.12 116.64 919.93 128.91"/></g><g><line class="cls-5" x1="784.66" y1="159.84" x2="929.87" y2="159.84"/><polygon class="cls-10" points="788.64 164.75 789.46 163.87 785.12 159.84 789.46 155.81 788.64 154.93 783.36 159.84 788.64 164.75"/><polygon class="cls-10" points="919.93 172.11 917.88 169.91 928.72 159.84 917.88 149.77 919.93 147.57 933.12 159.84 919.93 172.11"/></g><g><line class="cls-5" x1="784.66" y1="210.24" x2="929.87" y2="210.24"/><polygon class="cls-10" points="788.64 215.15 789.46 214.27 785.12 210.24 789.46 206.21 788.64 205.33 783.36 210.24 788.64 215.15"/><polygon class="cls-10" points="919.93 222.51 917.88 220.31 928.72 210.24 917.88 200.17 919.93 197.97 933.12 210.24 919.93 222.51"/></g><g><line class="cls-5" x1="784.66" y1="253.44" x2="929.87" y2="253.44"/><polygon class="cls-10" points="788.64 258.35 789.46 257.47 785.12 253.44 789.46 249.41 788.64 248.53 783.36 253.44 788.64 258.35"/><polygon class="cls-10" points="919.93 265.71 917.88 263.51 928.72 253.44 917.88 243.37 919.93 241.17 933.12 253.44 919.93 265.71"/></g><g><line class="cls-5" x1="784.66" y1="303.84" x2="929.87" y2="303.84"/><polygon class="cls-10" points="788.64 308.75 789.46 307.87 785.12 303.84 789.46 299.81 788.64 298.93 783.36 303.84 788.64 308.75"/><polygon class="cls-10" points="919.93 316.11 917.88 313.91 928.72 303.84 917.88 293.77 919.93 291.57 933.12 303.84 919.93 316.11"/></g><g><line class="cls-5" x1="784.66" y1="347.04" x2="929.87" y2="347.04"/><polygon class="cls-10" points="788.64 351.95 789.46 351.07 785.12 347.04 789.46 343.01 788.64 342.13 783.36 347.04 788.64 351.95"/><polygon class="cls-10" points="919.93 359.31 917.88 357.11 928.72 347.04 917.88 336.97 919.93 334.77 933.12 347.04 919.93 359.31"/></g><g><line class="cls-5" x1="784.66" y1="397.44" x2="929.87" y2="397.44"/><polygon class="cls-10" points="788.64 402.35 789.46 401.47 785.12 397.44 789.46 393.41 788.64 392.53 783.36 397.44 788.64 402.35"/><polygon class="cls-10" points="919.93 409.71 917.88 407.51 928.72 397.44 917.88 387.37 919.93 385.17 933.12 397.44 919.93 409.71"/></g><g><line class="cls-5" x1="784.66" y1="440.64" x2="929.87" y2="440.64"/><polygon class="cls-10" points="788.64 445.55 789.46 444.67 785.12 440.64 789.46 436.61 788.64 435.73 783.36 440.64 788.64 445.55"/><polygon class="cls-10" points="919.93 452.91 917.88 450.71 928.72 440.64 917.88 430.57 919.93 428.37 933.12 440.64 919.93 452.91"/></g><g><line class="cls-5" x1="702.72" y1="43.2" x2="702.72" y2="91.79"/><polygon class="cls-10" points="690.45 81.85 692.65 79.8 702.72 90.64 712.79 79.8 714.99 81.85 702.72 95.04 690.45 81.85"/></g><g><line class="cls-5" x1="636.48" y1="95.04" x2="636.48" y2="51.68"/><polygon class="cls-10" points="646.02 69.41 643.2 70.44 636.48 51.97 629.76 70.44 626.94 69.41 636.48 43.2 646.02 69.41"/></g><line class="cls-5" x1="696.96" y1="462.24" x2="696.96" y2="505.44"/><g><line class="cls-5" x1="463.54" y1="259.2" x2="569.87" y2="259.2"/><polygon class="cls-10" points="467.52 264.11 468.34 263.23 464 259.2 468.34 255.17 467.52 254.29 462.24 259.2 467.52 264.11"/><polygon class="cls-10" points="559.93 271.47 557.88 269.27 568.72 259.2 557.88 249.13 559.93 246.93 573.12 259.2 559.93 271.47"/></g><g><line class="cls-5" x1="606.24" y1="504" x2="606.24" y2="466.69"/><polygon class="cls-10" points="618.51 476.63 616.31 478.68 606.24 467.84 596.17 478.68 593.97 476.63 606.24 463.44 618.51 476.63"/></g><g><path class="cls-6" d="M680.76,237.96c.47,.47,.94,.95,1.39,1.44"/><path class="cls-1" d="M684.72,242.41c14.81,18.76,14.39,45.61-1.25,63.91"/><path class="cls-6" d="M682.14,307.8c-.45,.49-.91,.97-1.39,1.44"/></g><line class="cls-6" x1="711.36" y1="339.84" x2="783.36" y2="440.64"/><line class="cls-6" x1="783.36" y1="397.44" x2="722.88" y2="328.32"/><line class="cls-6" x1="783.36" y1="347.04" x2="735.84" y2="305.28"/><line class="cls-6" x1="783.36" y1="303.84" x2="740.16" y2="286.56"/><line class="cls-6" x1="783.36" y1="253.44" x2="740.16" y2="260.64"/><line class="cls-6" x1="783.36" y1="210.24" x2="735.84" y2="241.92"/><line class="cls-6" x1="783.36" y1="159.84" x2="722.88" y2="217.44"/><line class="cls-6" x1="783.36" y1="116.64" x2="711.36" y2="205.92"/><g><line class="cls-6" x1="699.39" y1="339.84" x2="711.36" y2="339.84"/><g><circle class="cls-12" cx="699.52" cy="339.84" r="2.26"/><path class="cls-10" d="M699.52,342.4c1.41,0,2.56-1.15,2.56-2.56s-1.15-2.56-2.56-2.56-2.56,1.15-2.56,2.56,1.15,2.56,2.56,2.56-1.41,0,0,0Zm0-4.51c1.08,0,1.96,.88,1.96,1.96s-.88,1.96-1.96,1.96-1.96-.88-1.96-1.96,.88-1.96,1.96-1.96-1.08,0,0,0Z"/></g></g><g><line class="cls-6" x1="710.91" y1="328.32" x2="722.88" y2="328.32"/><g><path class="cls-12" d="M711.04,330.58c-1.25,0-2.26-1.01-2.26-2.26s1.01-2.26,2.26-2.26,2.26,1.01,2.26,2.26-1.01,2.26-2.26,2.26Z"/><path class="cls-10" d="M711.04,330.88c1.41,0,2.56-1.15,2.56-2.56s-1.15-2.56-2.56-2.56-2.56,1.15-2.56,2.56,1.15,2.56,2.56,2.56-1.41,0,0,0Zm0-4.51c1.08,0,1.96,.88,1.96,1.96s-.88,1.96-1.96,1.96-1.96-.88-1.96-1.96,.88-1.96,1.96-1.96-1.08,0,0,0Z"/></g></g><g><line class="cls-6" x1="723.87" y1="305.28" x2="735.84" y2="305.28"/><g><circle class="cls-12" cx="724" cy="305.28" r="2.26"/><path class="cls-10" d="M724,307.84c1.41,0,2.56-1.15,2.56-2.56s-1.15-2.56-2.56-2.56-2.56,1.15-2.56,2.56,1.15,2.56,2.56,2.56-1.41,0,0,0Zm0-4.51c1.08,0,1.96,.88,1.96,1.96s-.88,1.96-1.96,1.96-1.96-.88-1.96-1.96,.88-1.96,1.96-1.96-1.08,0,0,0Z"/></g></g><g><line class="cls-6" x1="728.19" y1="286.56" x2="740.16" y2="286.56"/><g><circle class="cls-12" cx="728.32" cy="286.56" r="2.26"/><path class="cls-10" d="M728.32,289.12c1.41,0,2.56-1.15,2.56-2.56s-1.15-2.56-2.56-2.56-2.56,1.15-2.56,2.56,1.15,2.56,2.56,2.56-1.41,0,0,0Zm0-4.51c1.08,0,1.96,.88,1.96,1.96s-.88,1.96-1.96,1.96-1.96-.88-1.96-1.96,.88-1.96,1.96-1.96-1.08,0,0,0Z"/></g></g><g><line class="cls-6" x1="728.19" y1="260.64" x2="740.16" y2="260.64"/><g><circle class="cls-12" cx="728.32" cy="260.64" r="2.26"/><path class="cls-10" d="M728.32,263.2c1.41,0,2.56-1.15,2.56-2.56s-1.15-2.56-2.56-2.56-2.56,1.15-2.56,2.56,1.15,2.56,2.56,2.56-1.41,0,0,0Zm0-4.51c1.08,0,1.96,.88,1.96,1.96s-.88,1.96-1.96,1.96-1.96-.88-1.96-1.96,.88-1.96,1.96-1.96-1.08,0,0,0Z"/></g></g><g><line class="cls-6" x1="723.87" y1="241.92" x2="735.84" y2="241.92"/><g><circle class="cls-12" cx="724" cy="241.92" r="2.26"/><path class="cls-10" d="M724,244.48c1.41,0,2.56-1.15,2.56-2.56s-1.15-2.56-2.56-2.56-2.56,1.15-2.56,2.56,1.15,2.56,2.56,2.56-1.41,0,0,0Zm0-4.51c1.08,0,1.96,.88,1.96,1.96s-.88,1.96-1.96,1.96-1.96-.88-1.96-1.96,.88-1.96,1.96-1.96-1.08,0,0,0Z"/></g></g><g><line class="cls-6" x1="710.91" y1="217.44" x2="722.88" y2="217.44"/><g><path class="cls-12" d="M711.04,219.7c-1.25,0-2.26-1.01-2.26-2.26s1.01-2.26,2.26-2.26,2.26,1.01,2.26,2.26-1.01,2.26-2.26,2.26Z"/><path class="cls-10" d="M711.04,220c1.41,0,2.56-1.15,2.56-2.56s-1.15-2.56-2.56-2.56-2.56,1.15-2.56,2.56,1.15,2.56,2.56,2.56-1.41,0,0,0Zm0-4.51c1.08,0,1.96,.88,1.96,1.96s-.88,1.96-1.96,1.96-1.96-.88-1.96-1.96,.88-1.96,1.96-1.96-1.08,0,0,0Z"/></g></g><g><line class="cls-6" x1="699.39" y1="205.92" x2="711.36" y2="205.92"/><g><circle class="cls-12" cx="699.52" cy="205.92" r="2.26"/><path class="cls-10" d="M699.52,208.48c1.41,0,2.56-1.15,2.56-2.56s-1.15-2.56-2.56-2.56-2.56,1.15-2.56,2.56,1.15,2.56,2.56,2.56-1.41,0,0,0Zm0-4.51c1.08,0,1.96,.88,1.96,1.96s-.88,1.96-1.96,1.96-1.96-.88-1.96-1.96,.88-1.96,1.96-1.96-1.08,0,0,0Z"/></g></g><line class="cls-8" x1="696.96" y1="204.48" x2="648" y2="259.2"/><g><line class="cls-6" x1="606.24" y1="276.48" x2="606.24" y2="279.48"/><line class="cls-3" x1="606.24" y1="285.68" x2="606.24" y2="456.14"/><line class="cls-6" x1="606.24" y1="459.24" x2="606.24" y2="462.24"/></g><g><line class="cls-5" x1="463.54" y1="288" x2="569.87" y2="288"/><polygon class="cls-10" points="467.52 292.91 468.34 292.03 464 288 468.34 283.97 467.52 283.09 462.24 288 467.52 292.91"/><polygon class="cls-10" points="559.93 300.27 557.88 298.07 568.72 288 557.88 277.93 559.93 275.73 573.12 288 559.93 300.27"/></g><g><line class="cls-8" x1="650.18" y1="259.2" x2="626.71" y2="259.2"/><path class="cls-10" d="M650.06,256.94c1.25,0,2.26,1.01,2.26,2.26s-1.01,2.26-2.26,2.26-2.26-1.01-2.26-2.26,1.01-2.26,2.26-2.26Z"/><g><path class="cls-12" d="M627.03,253.56c-3.12,0-5.64,2.53-5.64,5.64s2.53,5.64,5.64,5.64,5.64-2.53,5.64-5.64-2.53-5.64-5.64-5.64Z"/><path class="cls-10" d="M627.03,252.81c3.53,0,6.39,2.87,6.39,6.39s-2.87,6.39-6.39,6.39-6.39-2.87-6.39-6.39,2.87-6.39,6.39-6.39-3.53,0,0,0Zm0,11.29c2.7,0,4.89-2.19,4.89-4.89s-2.19-4.89-4.89-4.89-4.89,2.19-4.89,4.89,2.19,4.89,4.89,4.89-2.7,0,0,0Z"/></g></g><g><line class="cls-8" x1="650.18" y1="288" x2="626.71" y2="288"/><path class="cls-10" d="M650.06,285.74c1.25,0,2.26,1.01,2.26,2.26s-1.01,2.26-2.26,2.26-2.26-1.01-2.26-2.26,1.01-2.26,2.26-2.26Z"/><g><path class="cls-12" d="M627.03,282.36c-3.12,0-5.64,2.53-5.64,5.64s2.53,5.64,5.64,5.64,5.64-2.53,5.64-5.64-2.53-5.64-5.64-5.64Z"/><path class="cls-10" d="M627.03,281.61c3.53,0,6.39,2.87,6.39,6.39s-2.87,6.39-6.39,6.39-6.39-2.87-6.39-6.39,2.87-6.39,6.39-6.39-3.53,0,0,0Zm0,11.29c2.7,0,4.89-2.19,4.89-4.89s-2.19-4.89-4.89-4.89-4.89,2.19-4.89,4.89,2.19,4.89,4.89,4.89-2.7,0,0,0Z"/></g></g><line class="cls-8" x1="708.48" y1="216" x2="648" y2="288"/><g><line class="cls-8" x1="588.26" y1="259.2" x2="548.64" y2="259.2"/><circle class="cls-10" cx="588.14" cy="259.2" r="2.26" transform="translate(-11.02 491.8) rotate(-45)"/></g><g><line class="cls-8" x1="588.26" y1="288" x2="548.64" y2="288"/><circle class="cls-10" cx="588.14" cy="288" r="2.26" transform="translate(172.72 794.24) rotate(-76.72)"/></g><line class="cls-8" x1="586.08" y1="259.2" x2="624.96" y2="254.88"/><line class="cls-8" x1="586.08" y1="288" x2="624.96" y2="283.68"/><line class="cls-5" x1="760.32" y1="462.24" x2="760.32" y2="504"/><g><line class="cls-5" x1="731.52" y1="43.2" x2="731.52" y2="91.79"/><polygon class="cls-10" points="719.25 81.85 721.45 79.8 731.52 90.64 741.59 79.8 743.79 81.85 731.52 95.04 719.25 81.85"/></g><polygon class="cls-4" points="696.96 505.44 711.36 505.44 704.16 514.08 696.96 522.72 689.76 514.08 682.56 505.44 696.96 505.44"/></g><g id="TEXT"><text class="cls-11" transform="translate(78.47 95.58)"><tspan x="0" y="0">1</tspan></text><text class="cls-11" transform="translate(78.47 153.18)"><tspan x="0" y="0">2</tspan></text><text class="cls-11" transform="translate(78.47 210.78)"><tspan x="0" y="0">3</tspan></text><text class="cls-11" transform="translate(78.47 268.38)"><tspan x="0" y="0">4</tspan></text><text class="cls-11" transform="translate(78.47 325.98)"><tspan x="0" y="0">5</tspan></text><text class="cls-11" transform="translate(78.47 383.58)"><tspan x="0" y="0">6</tspan></text><text class="cls-11" transform="translate(78.47 441.18)"><tspan x="0" y="0">7</tspan></text><text class="cls-11" transform="translate(331.89 210.78)"><tspan x="0" y="0">14</tspan></text><text class="cls-11" transform="translate(331.89 268.38)"><tspan x="0" y="0">13</tspan></text><text class="cls-11" transform="translate(331.89 325.98)"><tspan x="0" y="0">12</tspan></text><text class="cls-11" transform="translate(331.89 383.58)"><tspan x="0" y="0">11</tspan></text><text class="cls-11" transform="translate(331.89 441.18)"><tspan x="0" y="0">10</tspan></text><text class="cls-11" transform="translate(337.67 498.78)"><tspan x="0" y="0">9</tspan></text><text class="cls-9" transform="translate(112.32 498.78)"><tspan class="cls-14" x="0" y="0">V</tspan><tspan class="cls-16" x="11.45" y="0">SS</tspan></text><text class="cls-9" transform="translate(286.73 95.58)"><tspan class="cls-14" x="0" y="0">V</tspan><tspan class="cls-16" x="11.45" y="0">DD</tspan></text><text class="cls-11" transform="translate(181.15 558.72)"><tspan x="0" y="0">CD4052</tspan></text><text class="cls-11" transform="translate(78.47 498.78)"><tspan x="0" y="0">8</tspan></text><text class="cls-11" transform="translate(331.89 95.58)"><tspan x="0" y="0">16</tspan></text><text class="cls-11" transform="translate(331.89 153.18)"><tspan x="0" y="0">15</tspan></text><text class="cls-11" transform="translate(112.32 95.58)"><tspan x="0" y="0">”Y0“</tspan></text><text class="cls-11" transform="translate(112.32 154.62)"><tspan x="0" y="0">”Y2“</tspan></text><text class="cls-11" transform="translate(112.32 210.78)"><tspan x="0" y="0">COMMON </tspan><tspan x="0" y="21.6">Y OUT/IN</tspan></text><text class="cls-11" transform="translate(112.32 268.38)"><tspan x="0" y="0">“Y3“</tspan></text><text class="cls-11" transform="translate(112.32 325.98)"><tspan x="0" y="0">“Y1“</tspan></text><text class="cls-11" transform="translate(112.32 383.58)"><tspan x="0" y="0">INHIB</tspan><tspan class="cls-13" x="46.66" y="0">I</tspan><tspan class="cls-15" x="51.3" y="0">T</tspan></text><text class="cls-11" transform="translate(279.8 210.78)"><tspan x="0" y="0">“X1“</tspan></text><text class="cls-11" transform="translate(220.32 256.86)"><tspan x="0" y="0">COMMON </tspan><tspan x="0" y="21.6">X OUT/IN</tspan></text><text class="cls-11" transform="translate(279.8 325.98)"><tspan x="0" y="0">“X0“</tspan></text><text class="cls-11" transform="translate(279.8 383.58)"><tspan x="0" y="0">“X3“</tspan></text><text class="cls-11" transform="translate(302.18 441.18)"><tspan x="0" y="0">A</tspan></text><text class="cls-11" transform="translate(302.71 498.78)"><tspan x="0" y="0">B</tspan></text><text class="cls-11" transform="translate(279.8 153.18)"><tspan x="0" y="0">“X2“</tspan></text><text class="cls-11" transform="translate(672.42 84.96)"><tspan x="0" y="0">10</tspan></text><text class="cls-11" transform="translate(740.13 86.4)"><tspan x="0" y="0">9</tspan></text><text class="cls-11" transform="translate(793.39 110.88)"><tspan x="0" y="0">12</tspan></text><text class="cls-11" transform="translate(803.49 154.08)"><tspan x="0" y="0">1</tspan></text><text class="cls-11" transform="translate(793.38 204.48)"><tspan x="0" y="0">14</tspan></text><text class="cls-11" transform="translate(803.49 247.68)"><tspan x="0" y="0">5</tspan></text><text class="cls-11" transform="translate(791.94 298.08)"><tspan x="0" y="0">15</tspan></text><text class="cls-11" transform="translate(802.05 341.28)"><tspan x="0" y="0">2</tspan></text><text class="cls-11" transform="translate(791.94 391.68)"><tspan x="0" y="0">11</tspan></text><text class="cls-11" transform="translate(802.05 434.88)"><tspan x="0" y="0">4</tspan></text><text class="cls-9" transform="translate(714.35 527.04)"><tspan class="cls-14" x="0" y="0">V</tspan><tspan class="cls-16" x="11.45" y="0">SS</tspan></text><text class="cls-11" transform="translate(727.2 35.1)"><tspan x="0" y="0">B</tspan></text><text class="cls-11" transform="translate(696.96 35.1)"><tspan x="0" y="0">A</tspan></text><text class="cls-9" transform="translate(622.88 37.44)"><tspan class="cls-14" x="0" y="0">V</tspan><tspan class="cls-16" x="11.45" y="0">DD</tspan></text><text class="cls-11" transform="translate(937.66 122.4)"><tspan x="0" y="0">“X0“</tspan></text><text class="cls-11" transform="translate(937.9 165.6)"><tspan x="0" y="0">“Y0“</tspan></text><text class="cls-11" transform="translate(937.66 216)"><tspan x="0" y="0">“X1“</tspan></text><text class="cls-11" transform="translate(937.9 259.2)"><tspan x="0" y="0">“Y1“</tspan></text><text class="cls-11" transform="translate(937.66 309.6)"><tspan x="0" y="0">“X2“</tspan></text><text class="cls-11" transform="translate(937.9 352.8)"><tspan x="0" y="0">“Y2“</tspan></text><text class="cls-11" transform="translate(937.66 403.2)"><tspan x="0" y="0">“X3“</tspan></text><text class="cls-11" transform="translate(937.9 446.4)"><tspan x="0" y="0">“Y3“</tspan></text><text class="cls-11" transform="translate(1000.8 333.99) rotate(-90)"><tspan x="0" y="0">Inputs/Outputs</tspan></text><text class="cls-9" transform="translate(112.32 441.18)"><tspan class="cls-14" x="0" y="0">V</tspan><tspan class="cls-16" x="11.45" y="0">EE</tspan></text><text class="cls-11" transform="translate(537.07 253.44)"><tspan x="0" y="0">13</tspan></text><text class="cls-11" transform="translate(482.4 255.42)"><tspan x="0" y="0">X COM</tspan></text><text class="cls-11" transform="translate(589.71 486.79)"><tspan x="0" y="0">6</tspan></text><text class="cls-11" transform="translate(601.17 86.94)"><tspan x="0" y="0">16</tspan></text><text class="cls-11" transform="translate(680.39 487.26)"><tspan x="0" y="0">8</tspan></text><text class="cls-11" transform="translate(547.17 282.24)"><tspan x="0" y="0">3</tspan></text><text class="cls-11" transform="translate(482.4 284.22)"><tspan x="0" y="0">Y COM</tspan></text><text class="cls-9" transform="translate(762.17 527.04)"><tspan class="cls-14" x="0" y="0">V</tspan><tspan class="cls-16" x="11.45" y="0">EE</tspan></text><text class="cls-11" transform="translate(590.96 522.72)"><tspan x="0" y="0">INH</tspan></text><text class="cls-11" transform="translate(743.75 487.26)"><tspan x="0" y="0">7</tspan></text></g></svg>