<?xml version="1.0" encoding="UTF-8"?><svg xmlns="http://www.w3.org/2000/svg" viewBox="0 0 1080 600.48"><defs><style>.cls-1{stroke-width:3px;}.cls-1,.cls-2,.cls-3,.cls-4{fill:none;stroke:#1d1e1b;stroke-miterlimit:10;}.cls-5,.cls-6,.cls-7{fill:#1d1e1b;}.cls-5,.cls-7{font-family:Roboto-Regular, Roboto;}.cls-2{stroke-width:2px;}.cls-3{stroke-width:2px;}.cls-8,.cls-7{font-size:18px;}.cls-9{letter-spacing:0em;}.cls-10,.cls-11{font-size:12px;}.cls-11{letter-spacing:-.02em;}</style></defs><g id="TEXT"><text class="cls-7" transform="translate(78.47 101.02)"><tspan x="0" y="0">1</tspan></text><text class="cls-7" transform="translate(78.47 158.62)"><tspan x="0" y="0">2</tspan></text><text class="cls-7" transform="translate(78.47 216.22)"><tspan x="0" y="0">3</tspan></text><text class="cls-7" transform="translate(78.47 273.82)"><tspan x="0" y="0">4</tspan></text><text class="cls-7" transform="translate(78.47 331.42)"><tspan x="0" y="0">5</tspan></text><text class="cls-7" transform="translate(78.47 389.02)"><tspan x="0" y="0">6</tspan></text><text class="cls-7" transform="translate(78.47 446.62)"><tspan x="0" y="0">7</tspan></text><text class="cls-7" transform="translate(331.89 101.02)"><tspan x="0" y="0">14</tspan></text><text class="cls-7" transform="translate(331.89 158.62)"><tspan x="0" y="0">13</tspan></text><text class="cls-7" transform="translate(331.89 216.22)"><tspan x="0" y="0">12</tspan></text><text class="cls-7" transform="translate(331.89 273.82)"><tspan x="0" y="0">11</tspan></text><text class="cls-7" transform="translate(331.89 331.42)"><tspan x="0" y="0">10</tspan></text><text class="cls-7" transform="translate(337.67 389.02)"><tspan x="0" y="0">9</tspan></text><text class="cls-7" transform="translate(337.67 446.62)"><tspan x="0" y="0">8</tspan></text><text class="cls-5" transform="translate(105.23 446.62)"><tspan class="cls-8" x="0" y="0">V</tspan><tspan class="cls-10" x="11.45" y="0">SS</tspan></text><text class="cls-5" transform="translate(290.24 101.02)"><tspan class="cls-8" x="0" y="0">V</tspan><tspan class="cls-10" x="11.45" y="0">DD</tspan></text><text class="cls-7" transform="translate(725.98 113.76)"><tspan x="0" y="0">R</tspan></text><text class="cls-7" transform="translate(629.18 388.8)"><tspan x="0" y="0">C</tspan></text><text class="cls-5" transform="translate(956.23 256.32)"><tspan class="cls-8" x="0" y="0">V</tspan><tspan class="cls-10" x="11.45" y="0">OU</tspan><tspan class="cls-11" x="27.48" y="0">T</tspan></text><text class="cls-7" transform="translate(599.83 496.8)"><tspan x="0" y="0">V</tspan></text><text class="cls-7" transform="translate(611.28 502.79) scale(.58)"><tspan x="0" y="0">SS</tspan></text><text class="cls-7" transform="translate(623.73 496.8)"><tspan x="0" y="0" xml:space="preserve"> (G</tspan><tspan class="cls-9" x="22.87" y="0">r</tspan><tspan x="28.78" y="0">ound)</tspan></text><text class="cls-7" transform="translate(178.25 519.84)"><tspan x="0" y="0">CD40106</tspan></text><text class="cls-7" transform="translate(759.74 316.8)"><tspan x="0" y="0">1/6 CD40106 </tspan></text><text class="cls-7" transform="translate(728.99 205.92)"><tspan x="0" y="0">V</tspan></text><text class="cls-7" transform="translate(740.45 211.91) scale(.58)"><tspan x="0" y="0">DD</tspan></text><text class="cls-7" transform="translate(635.75 269.82)"><tspan x="0" y="0">1</tspan></text><text class="cls-7" transform="translate(785.51 261.18)"><tspan x="0" y="0">2</tspan></text><text class="cls-7" transform="translate(727.89 236.7)"><tspan x="0" y="0">14</tspan></text><text class="cls-7" transform="translate(726.47 325.98)"><tspan x="0" y="0">7</tspan></text><text class="cls-7" transform="translate(729.43 378.72)"><tspan x="0" y="0">V</tspan></text><text class="cls-7" transform="translate(740.88 384.71) scale(.58)"><tspan x="0" y="0">SS</tspan></text><text class="cls-7" transform="translate(753.33 378.72)"><tspan x="0" y="0" xml:space="preserve"> (G</tspan><tspan class="cls-9" x="22.87" y="0">r</tspan><tspan x="28.78" y="0">ound)</tspan></text></g><g id="LINE"><line class="cls-1" x1="97.92" y1="48.64" x2="198.72" y2="48.64"/><line class="cls-1" x1="227.52" y1="48.64" x2="328.32" y2="48.64"/><path class="cls-1" d="M227.52,48.64c0,7.95-6.45,14.4-14.4,14.4s-14.4-6.45-14.4-14.4"/><rect class="cls-4" x="69.12" y="77.44" width="28.8" height="28.8"/><rect class="cls-4" x="69.12" y="135.04" width="28.8" height="28.8"/><rect class="cls-4" x="69.12" y="192.64" width="28.8" height="28.8"/><line class="cls-1" x1="97.92" y1="48.64" x2="97.92" y2="480.64"/><line class="cls-1" x1="97.92" y1="480.64" x2="328.32" y2="480.64"/><line class="cls-1" x1="328.32" y1="48.64" x2="328.32" y2="480.64"/><line class="cls-4" x1="162.72" y1="96.16" x2="119.52" y2="96.16"/><line class="cls-4" x1="141.12" y1="139.36" x2="119.52" y2="96.16"/><line class="cls-4" x1="141.12" y1="139.36" x2="162.72" y2="96.16"/><circle class="cls-4" cx="141.12" cy="142.24" r="2.88"/><line class="cls-4" x1="135.36" y1="101.92" x2="135.36" y2="109.12"/><line class="cls-4" x1="146.88" y1="109.12" x2="146.88" y2="116.32"/><line class="cls-4" x1="135.36" y1="104.8" x2="146.88" y2="109.12"/><line class="cls-4" x1="135.36" y1="109.12" x2="146.88" y2="113.44"/><line class="cls-4" x1="97.92" y1="91.84" x2="141.12" y2="91.84"/><line class="cls-4" x1="141.12" y1="96.16" x2="141.12" y2="91.84"/><line class="cls-4" x1="97.92" y1="149.44" x2="141.12" y2="149.44"/><line class="cls-4" x1="141.12" y1="145.12" x2="141.12" y2="149.44"/><line class="cls-4" x1="162.72" y1="211.36" x2="119.52" y2="211.36"/><line class="cls-4" x1="141.12" y1="254.56" x2="119.52" y2="211.36"/><line class="cls-4" x1="141.12" y1="254.56" x2="162.72" y2="211.36"/><circle class="cls-4" cx="141.12" cy="257.44" r="2.88"/><line class="cls-4" x1="135.36" y1="217.12" x2="135.36" y2="224.32"/><line class="cls-4" x1="146.88" y1="224.32" x2="146.88" y2="231.52"/><line class="cls-4" x1="135.36" y1="220" x2="146.88" y2="224.32"/><line class="cls-4" x1="135.36" y1="224.32" x2="146.88" y2="228.64"/><line class="cls-4" x1="97.92" y1="207.04" x2="141.12" y2="207.04"/><line class="cls-4" x1="141.12" y1="211.36" x2="141.12" y2="207.04"/><line class="cls-4" x1="97.92" y1="264.64" x2="141.12" y2="264.64"/><line class="cls-4" x1="141.12" y1="260.32" x2="141.12" y2="264.64"/><line class="cls-4" x1="162.72" y1="326.56" x2="119.52" y2="326.56"/><line class="cls-4" x1="141.12" y1="369.76" x2="119.52" y2="326.56"/><line class="cls-4" x1="141.12" y1="369.76" x2="162.72" y2="326.56"/><circle class="cls-4" cx="141.12" cy="372.64" r="2.88"/><line class="cls-4" x1="135.36" y1="332.32" x2="135.36" y2="339.52"/><line class="cls-4" x1="146.88" y1="339.52" x2="146.88" y2="346.72"/><line class="cls-4" x1="135.36" y1="335.2" x2="146.88" y2="339.52"/><line class="cls-4" x1="135.36" y1="339.52" x2="146.88" y2="343.84"/><line class="cls-4" x1="97.92" y1="322.24" x2="141.12" y2="322.24"/><line class="cls-4" x1="141.12" y1="326.56" x2="141.12" y2="322.24"/><line class="cls-4" x1="97.92" y1="379.84" x2="141.12" y2="379.84"/><line class="cls-4" x1="141.12" y1="375.52" x2="141.12" y2="379.84"/><line class="cls-4" x1="263.52" y1="153.76" x2="306.72" y2="153.76"/><line class="cls-4" x1="285.12" y1="196.96" x2="306.72" y2="153.76"/><line class="cls-4" x1="285.12" y1="196.96" x2="263.52" y2="153.76"/><circle class="cls-4" cx="285.12" cy="199.84" r="2.88"/><line class="cls-4" x1="290.88" y1="159.52" x2="290.88" y2="166.72"/><line class="cls-4" x1="279.36" y1="166.72" x2="279.36" y2="173.92"/><line class="cls-4" x1="290.88" y1="162.4" x2="279.36" y2="166.72"/><line class="cls-4" x1="290.88" y1="166.72" x2="279.36" y2="171.04"/><line class="cls-4" x1="328.32" y1="149.44" x2="285.12" y2="149.44"/><line class="cls-4" x1="285.12" y1="153.76" x2="285.12" y2="149.44"/><line class="cls-4" x1="328.32" y1="207.04" x2="285.12" y2="207.04"/><line class="cls-4" x1="285.12" y1="202.72" x2="285.12" y2="207.04"/><line class="cls-4" x1="263.52" y1="268.96" x2="306.72" y2="268.96"/><line class="cls-4" x1="285.12" y1="312.16" x2="306.72" y2="268.96"/><line class="cls-4" x1="285.12" y1="312.16" x2="263.52" y2="268.96"/><circle class="cls-4" cx="285.12" cy="315.04" r="2.88"/><line class="cls-4" x1="290.88" y1="274.72" x2="290.88" y2="281.92"/><line class="cls-4" x1="279.36" y1="281.92" x2="279.36" y2="289.12"/><line class="cls-4" x1="290.88" y1="277.6" x2="279.36" y2="281.92"/><line class="cls-4" x1="290.88" y1="281.92" x2="279.36" y2="286.24"/><line class="cls-4" x1="328.32" y1="264.64" x2="285.12" y2="264.64"/><line class="cls-4" x1="285.12" y1="268.96" x2="285.12" y2="264.64"/><line class="cls-4" x1="328.32" y1="322.24" x2="285.12" y2="322.24"/><line class="cls-4" x1="285.12" y1="317.92" x2="285.12" y2="322.24"/><line class="cls-4" x1="263.52" y1="384.16" x2="306.72" y2="384.16"/><line class="cls-4" x1="285.12" y1="427.36" x2="306.72" y2="384.16"/><line class="cls-4" x1="285.12" y1="427.36" x2="263.52" y2="384.16"/><circle class="cls-4" cx="285.12" cy="430.24" r="2.88"/><line class="cls-4" x1="290.88" y1="389.92" x2="290.88" y2="397.12"/><line class="cls-4" x1="279.36" y1="397.12" x2="279.36" y2="404.32"/><line class="cls-4" x1="290.88" y1="392.8" x2="279.36" y2="397.12"/><line class="cls-4" x1="290.88" y1="397.12" x2="279.36" y2="401.44"/><line class="cls-4" x1="328.32" y1="379.84" x2="285.12" y2="379.84"/><line class="cls-4" x1="285.12" y1="384.16" x2="285.12" y2="379.84"/><line class="cls-4" x1="328.32" y1="437.44" x2="285.12" y2="437.44"/><line class="cls-4" x1="285.12" y1="433.12" x2="285.12" y2="437.44"/><rect class="cls-4" x="69.12" y="250.24" width="28.8" height="28.8"/><rect class="cls-4" x="69.12" y="307.84" width="28.8" height="28.8"/><rect class="cls-4" x="69.12" y="365.44" width="28.8" height="28.8"/><rect class="cls-4" x="69.12" y="423.04" width="28.8" height="28.8"/><rect class="cls-4" x="328.32" y="77.44" width="28.8" height="28.8"/><rect class="cls-4" x="328.32" y="135.04" width="28.8" height="28.8"/><rect class="cls-4" x="328.32" y="192.64" width="28.8" height="28.8"/><rect class="cls-4" x="328.32" y="250.24" width="28.8" height="28.8"/><rect class="cls-4" x="328.32" y="307.84" width="28.8" height="28.8"/><rect class="cls-4" x="328.32" y="365.44" width="28.8" height="28.8"/><rect class="cls-4" x="328.32" y="423.04" width="28.8" height="28.8"/><line class="cls-3" x1="652.32" y1="208.8" x2="652.32" y2="338.4"/><line class="cls-3" x1="789.12" y1="273.6" x2="652.32" y2="338.4"/><line class="cls-3" x1="652.32" y1="208.8" x2="789.12" y2="273.6"/><line class="cls-3" x1="691.2" y1="296.64" x2="695.52" y2="253.44"/><line class="cls-3" x1="682.56" y1="296.64" x2="702.72" y2="296.64"/><line class="cls-3" x1="695.52" y1="253.44" x2="715.68" y2="253.44"/><line class="cls-3" x1="702.72" y1="296.64" x2="707.04" y2="253.44"/><circle class="cls-3" cx="797.76" cy="273.6" r="8.64"/><line class="cls-3" x1="652.32" y1="273.6" x2="587.52" y2="273.6"/><line class="cls-3" x1="587.52" y1="388.8" x2="587.52" y2="228.96"/><line class="cls-3" x1="587.52" y1="129.6" x2="695.52" y2="129.6"/><line class="cls-3" x1="767.52" y1="129.6" x2="846.72" y2="129.6"/><line class="cls-3" x1="846.72" y1="129.6" x2="846.72" y2="275.04"/><line class="cls-3" x1="807.84" y1="273.6" x2="882.72" y2="273.6"/><g><line class="cls-3" x1="865.44" y1="273.6" x2="962.99" y2="273.6"/><polygon class="cls-6" points="953.05 285.87 951 283.67 961.84 273.6 951 263.53 953.05 261.33 966.24 273.6 953.05 285.87"/></g><line class="cls-3" x1="587.52" y1="129.6" x2="587.52" y2="275.04"/><rect class="cls-3" x="695.52" y="118.08" width="72" height="23.04"/><line class="cls-3" x1="587.52" y1="401.76" x2="587.52" y2="469.44"/><polygon class="cls-3" points="573.12 469.44 601.92 469.44 587.52 486.72 573.12 469.44"/><g><line class="cls-3" x1="717.12" y1="239.04" x2="717.12" y2="198.56"/><polygon class="cls-6" points="726.66 216.29 723.84 217.32 717.12 198.85 710.4 217.32 707.58 216.29 717.12 190.08 726.66 216.29"/></g><line class="cls-3" x1="717.12" y1="308.16" x2="717.12" y2="351.36"/><polygon class="cls-2" points="717.12 350.84 731.52 350.84 724.32 359.74 717.12 368.64 709.92 359.74 702.72 350.84 717.12 350.84"/></g><g id="FIELD"><rect class="cls-6" x="558.72" y="398.88" width="57.6" height="7.2"/><rect class="cls-6" x="558.72" y="387.36" width="57.6" height="7.2"/><circle class="cls-6" cx="587.52" cy="273.6" r="4.32"/><circle class="cls-6" cx="846.72" cy="273.6" r="4.32"/></g></svg>