<?xml version="1.0" encoding="UTF-8"?><svg xmlns="http://www.w3.org/2000/svg" viewBox="0 0 1080 600.48"><defs><style>.cls-1{letter-spacing:0em;}.cls-2{stroke-width:3px;}.cls-2,.cls-3,.cls-4,.cls-5,.cls-6,.cls-7,.cls-8,.cls-9{fill:none;stroke:#cad2d9;stroke-miterlimit:10;}.cls-10,.cls-11,.cls-12,.cls-13,.cls-14{fill:#cad2d9;}.cls-10,.cls-11,.cls-13,.cls-14{font-family:Roboto-Regular, Roboto;}.cls-11{letter-spacing:0em;}.cls-11,.cls-13,.cls-15,.cls-14{font-size:18px;}.cls-3{stroke-width:1.67px;}.cls-4{stroke-width:1.26px;}.cls-5{stroke-width:.72px;}.cls-6{stroke-width:1.03px;}.cls-16{letter-spacing:0em;}.cls-7{stroke-width:2px;}.cls-13,.cls-17{letter-spacing:-.02em;}.cls-18{letter-spacing:0em;}.cls-19{font-size:12px;}.cls-20{letter-spacing:0em;}.cls-21{fill:#1d1e1b;opacity:.5;}.cls-9{stroke-width:1px;}</style></defs><g id="Line"><line class="cls-2" x1="97.92" y1="57.6" x2="198.72" y2="57.6"/><line class="cls-2" x1="227.52" y1="57.6" x2="328.32" y2="57.6"/><path class="cls-2" d="M227.52,57.6c0,7.95-6.45,14.4-14.4,14.4s-14.4-6.45-14.4-14.4"/><rect class="cls-8" x="69.12" y="86.4" width="28.8" height="28.8"/><rect class="cls-8" x="69.12" y="144" width="28.8" height="28.8"/><rect class="cls-8" x="69.12" y="201.6" width="28.8" height="28.8"/><line class="cls-2" x1="97.92" y1="57.6" x2="97.92" y2="548.64"/><line class="cls-2" x1="97.92" y1="547.2" x2="328.32" y2="547.2"/><line class="cls-2" x1="328.32" y1="57.6" x2="328.32" y2="548.64"/><rect class="cls-8" x="69.12" y="259.2" width="28.8" height="28.8"/><rect class="cls-8" x="69.12" y="316.8" width="28.8" height="28.8"/><rect class="cls-8" x="69.12" y="374.4" width="28.8" height="28.8"/><rect class="cls-8" x="69.12" y="432" width="28.8" height="28.8"/><rect class="cls-8" x="328.32" y="201.6" width="28.8" height="28.8"/><rect class="cls-8" x="328.32" y="259.2" width="28.8" height="28.8"/><rect class="cls-8" x="328.32" y="316.8" width="28.8" height="28.8"/><rect class="cls-8" x="328.32" y="374.4" width="28.8" height="28.8"/><rect class="cls-8" x="328.32" y="432" width="28.8" height="28.8"/><rect class="cls-8" x="328.32" y="489.6" width="28.8" height="28.8"/><rect class="cls-8" x="69.12" y="489.6" width="28.8" height="28.8"/><rect class="cls-8" x="328.32" y="144" width="28.8" height="28.8"/><rect class="cls-8" x="328.32" y="86.4" width="28.8" height="28.8"/><line class="cls-8" x1="849.6" y1="319.68" x2="849.6" y2="247.68"/><line class="cls-4" x1="914.4" y1="290.88" x2="914.4" y2="247.68"/><rect class="cls-7" x="878.4" y="315.36" width="72" height="23.04" transform="translate(587.52 1241.28) rotate(-90)"/><line class="cls-8" x1="849.6" y1="332.64" x2="849.6" y2="391.68"/><line class="cls-4" x1="979.2" y1="290.88" x2="979.2" y2="247.68"/><rect class="cls-7" x="943.2" y="315.36" width="72" height="23.04" transform="translate(652.32 1306.08) rotate(-90)"/><line class="cls-8" x1="979.2" y1="391.68" x2="849.6" y2="391.68"/><line class="cls-6" x1="914.4" y1="391.68" x2="914.4" y2="362.88"/><line class="cls-6" x1="979.2" y1="391.68" x2="979.2" y2="362.88"/><line class="cls-7" x1="835.2" y1="151.2" x2="835.2" y2="247.68"/><line class="cls-7" x1="1006.56" y1="247.68" x2="835.2" y2="247.68"/><rect class="cls-3" x="528.48" y="119.52" width="138.24" height="352.8"/><g><line class="cls-5" x1="666.72" y1="133.92" x2="711.62" y2="133.92"/><polygon class="cls-12" points="708.02 138.36 707.28 137.57 711.2 133.92 707.28 130.27 708.02 129.48 712.8 133.92 708.02 138.36"/></g><g><line class="cls-5" x1="666.72" y1="169.92" x2="711.62" y2="169.92"/><polygon class="cls-12" points="708.02 174.36 707.28 173.57 711.2 169.92 707.28 166.27 708.02 165.48 712.8 169.92 708.02 174.36"/></g><g><line class="cls-5" x1="666.72" y1="205.92" x2="711.62" y2="205.92"/><polygon class="cls-12" points="708.02 210.36 707.28 209.57 711.2 205.92 707.28 202.27 708.02 201.48 712.8 205.92 708.02 210.36"/></g><g><line class="cls-5" x1="666.72" y1="241.92" x2="711.62" y2="241.92"/><polygon class="cls-12" points="708.02 246.36 707.28 245.57 711.2 241.92 707.28 238.27 708.02 237.48 712.8 241.92 708.02 246.36"/></g><g><line class="cls-5" x1="666.72" y1="277.92" x2="711.62" y2="277.92"/><polygon class="cls-12" points="708.02 282.36 707.28 281.57 711.2 277.92 707.28 274.27 708.02 273.48 712.8 277.92 708.02 282.36"/></g><g><line class="cls-5" x1="666.72" y1="313.92" x2="711.62" y2="313.92"/><polygon class="cls-12" points="708.02 318.36 707.28 317.57 711.2 313.92 707.28 310.27 708.02 309.48 712.8 313.92 708.02 318.36"/></g><g><line class="cls-5" x1="666.72" y1="349.92" x2="711.62" y2="349.92"/><polygon class="cls-12" points="708.02 354.36 707.28 353.57 711.2 349.92 707.28 346.27 708.02 345.48 712.8 349.92 708.02 354.36"/></g><g><line class="cls-5" x1="666.72" y1="385.92" x2="711.62" y2="385.92"/><polygon class="cls-12" points="708.02 390.36 707.28 389.57 711.2 385.92 707.28 382.27 708.02 381.48 712.8 385.92 708.02 390.36"/></g><g><line class="cls-8" x1="489.6" y1="205.92" x2="526.48" y2="205.92"/><polygon class="cls-12" points="521.51 212.06 520.49 210.96 525.9 205.92 520.49 200.89 521.51 199.79 528.11 205.92 521.51 212.06"/></g><g><line class="cls-8" x1="597.6" y1="119.52" x2="597.6" y2="74.8"/><polygon class="cls-12" points="602.37 83.67 600.96 84.18 597.6 74.95 594.24 84.18 592.83 83.67 597.6 70.56 602.37 83.67"/></g><line class="cls-8" x1="597.6" y1="472.32" x2="597.6" y2="515.52"/><g><line class="cls-5" x1="666.72" y1="421.92" x2="711.62" y2="421.92"/><polygon class="cls-12" points="708.02 426.36 707.28 425.57 711.2 421.92 707.28 418.27 708.02 417.48 712.8 421.92 708.02 426.36"/></g><g><line class="cls-5" x1="666.72" y1="457.92" x2="711.62" y2="457.92"/><polygon class="cls-12" points="708.02 462.36 707.28 461.57 711.2 457.92 707.28 454.27 708.02 453.48 712.8 457.92 708.02 462.36"/></g><g><line class="cls-8" x1="529.92" y1="385.92" x2="493.04" y2="385.92"/><polygon class="cls-12" points="498.01 379.79 499.03 380.88 493.61 385.92 499.03 390.96 498.01 392.05 491.41 385.92 498.01 379.79"/></g><g><line class="cls-8" x1="529.92" y1="457.92" x2="493.04" y2="457.92"/><polygon class="cls-12" points="498.01 451.79 499.03 452.88 493.61 457.92 499.03 462.96 498.01 464.05 491.41 457.92 498.01 451.79"/></g><polygon class="cls-9" points="597.6 515.52 612 515.52 604.8 524.16 597.6 532.8 590.4 524.16 583.2 515.52 597.6 515.52"/><line class="cls-8" x1="874.28" y1="469.44" x2="898.76" y2="469.44"/><line class="cls-8" x1="924.68" y1="469.44" x2="1016.64" y2="469.44"/><g><line class="cls-8" x1="489.6" y1="144" x2="526.48" y2="144"/><polygon class="cls-12" points="521.51 150.13 520.49 149.04 525.9 144 520.49 138.97 521.51 137.87 528.11 144 521.51 150.13"/></g></g><g id="Field"><circle class="cls-12" cx="914.4" cy="391.68" r="2.88"/><rect class="cls-12" x="819.36" y="329.76" width="60.48" height="7.2" transform="translate(1699.2 666.72) rotate(-180)"/><rect class="cls-12" x="819.36" y="316.8" width="60.48" height="7.2" transform="translate(1699.2 640.8) rotate(-180)"/><rect class="cls-21" x="835.2" y="151.2" width="171.36" height="96.48"/></g><g id="TEXT"><text class="cls-14" transform="translate(78.47 108.54)"><tspan x="0" y="0">1</tspan></text><text class="cls-14" transform="translate(78.47 166.14)"><tspan x="0" y="0">2</tspan></text><text class="cls-14" transform="translate(78.47 223.74)"><tspan x="0" y="0">3</tspan></text><text class="cls-14" transform="translate(78.47 281.34)"><tspan x="0" y="0">4</tspan></text><text class="cls-14" transform="translate(78.47 338.94)"><tspan x="0" y="0">5</tspan></text><text class="cls-14" transform="translate(78.47 396.54)"><tspan x="0" y="0">6</tspan></text><text class="cls-14" transform="translate(78.47 454.14)"><tspan x="0" y="0">7</tspan></text><text class="cls-14" transform="translate(331.89 223.74)"><tspan x="0" y="0">14</tspan></text><text class="cls-14" transform="translate(331.89 281.34)"><tspan x="0" y="0">13</tspan></text><text class="cls-14" transform="translate(331.89 338.94)"><tspan x="0" y="0">12</tspan></text><text class="cls-14" transform="translate(331.89 396.54)"><tspan x="0" y="0">11</tspan></text><text class="cls-14" transform="translate(333.33 454.14)"><tspan x="0" y="0">10</tspan></text><text class="cls-14" transform="translate(337.67 511.74)"><tspan x="0" y="0">9</tspan></text><text class="cls-10" transform="translate(108 511.74)"><tspan class="cls-15" x="0" y="0">V</tspan><tspan class="cls-19" x="11.45" y="0">SS</tspan></text><text class="cls-10" transform="translate(286.73 108.54)"><tspan class="cls-15" x="0" y="0">V</tspan><tspan class="cls-19" x="11.45" y="0">DD</tspan></text><text class="cls-14" transform="translate(183.3 570.24)"><tspan x="0" y="0">CD4060</tspan></text><text class="cls-14" transform="translate(78.47 511.74)"><tspan x="0" y="0">8</tspan></text><text class="cls-14" transform="translate(331.89 166.14)"><tspan x="0" y="0">15</tspan></text><text class="cls-14" transform="translate(331.89 108.54)"><tspan x="0" y="0">16</tspan></text><text class="cls-14" transform="translate(108 108.54)"><tspan x="0" y="0">Q12</tspan></text><text class="cls-14" transform="translate(108 166.14)"><tspan x="0" y="0">Q13</tspan></text><text class="cls-14" transform="translate(108 225.18)"><tspan x="0" y="0">Q14</tspan></text><text class="cls-14" transform="translate(108 281.34)"><tspan x="0" y="0">Q6</tspan></text><text class="cls-14" transform="translate(108 338.94)"><tspan x="0" y="0">Q5</tspan></text><text class="cls-14" transform="translate(108 396.54)"><tspan x="0" y="0">Q7</tspan></text><text class="cls-14" transform="translate(108 454.14)"><tspan x="0" y="0">Q4</tspan></text><text class="cls-14" transform="translate(281.33 166.14)"><tspan x="0" y="0">Q10</tspan></text><text class="cls-14" transform="translate(291.44 223.74)"><tspan x="0" y="0">Q8</tspan></text><text class="cls-14" transform="translate(291.44 281.34)"><tspan x="0" y="0">Q9</tspan></text><text class="cls-14" transform="translate(261.13 338.94)"><tspan x="0" y="0">RES</tspan><tspan class="cls-20" x="31.99" y="0">E</tspan><tspan class="cls-17" x="42.4" y="0">T</tspan></text><text class="cls-14" transform="translate(225.63 396.54)"><tspan x="0" y="0">CLK INPU</tspan><tspan class="cls-17" x="77.9" y="0">T</tspan></text><text class="cls-14" transform="translate(214.78 454.14)"><tspan x="0" y="0">ext. Resis</tspan><tspan class="cls-18" x="77.08" y="0">t</tspan><tspan x="82.78" y="0">or</tspan></text><text class="cls-14" transform="translate(203.14 511.74)"><tspan x="0" y="0">ext. Capaci</tspan><tspan class="cls-18" x="88.72" y="0">t</tspan><tspan x="94.42" y="0">or</tspan></text><text class="cls-14" transform="translate(854.94 474.35)"><tspan x="0" y="0">=</tspan></text><text class="cls-14" transform="translate(939.4 486.72)"><tspan x="0" y="0">2,2 R</tspan></text><text class="cls-14" transform="translate(978.69 492.71) scale(.58)"><tspan x="0" y="0">t</tspan></text><text class="cls-14" transform="translate(982.12 486.72)"><tspan x="0" y="0" xml:space="preserve"> C</tspan></text><text class="cls-11" transform="translate(998.29 492.71) scale(.58)"><tspan x="0" y="0">t</tspan></text><text class="cls-14" transform="translate(840.72 476.64)"><tspan x="0" y="0">f</tspan></text><text class="cls-13" transform="translate(880.6 486.72)"><tspan x="0" y="0">T</tspan></text><text class="cls-14" transform="translate(880.74 463.68)"><tspan x="0" y="0">1</tspan></text><text class="cls-14" transform="translate(906.78 473.76)"><tspan x="0" y="0">=</tspan></text><text class="cls-14" transform="translate(965.51 463.68)"><tspan x="0" y="0">1</tspan></text><text class="cls-14" transform="translate(930.84 361.44)"><tspan x="0" y="0">R</tspan></text><text class="cls-14" transform="translate(941.92 367.43) scale(.58)"><tspan x="0" y="0">t</tspan></text><text class="cls-14" transform="translate(945.35 361.44)"><tspan x="0" y="0"> </tspan></text><text class="cls-14" transform="translate(858.52 361.44)"><tspan x="0" y="0">C</tspan></text><text class="cls-14" transform="translate(870.24 367.43) scale(.58)"><tspan x="0" y="0">t</tspan></text><text class="cls-14" transform="translate(873.66 361.44)"><tspan x="0" y="0"> </tspan></text><text class="cls-14" transform="translate(498.18 201.6)"><tspan x="0" y="0">12</tspan></text><text class="cls-14" transform="translate(499.62 129.6)"><tspan x="0" y="0">11</tspan></text><text class="cls-14" transform="translate(676.77 129.6)"><tspan x="0" y="0">7</tspan></text><text class="cls-14" transform="translate(676.77 165.6)"><tspan x="0" y="0">5</tspan></text><text class="cls-14" transform="translate(676.77 201.6)"><tspan x="0" y="0">4</tspan></text><text class="cls-14" transform="translate(676.77 237.6)"><tspan x="0" y="0">6</tspan></text><text class="cls-14" transform="translate(666.66 273.6)"><tspan x="0" y="0">14</tspan></text><text class="cls-14" transform="translate(666.66 309.6)"><tspan x="0" y="0">13</tspan></text><text class="cls-14" transform="translate(666.66 345.6)"><tspan x="0" y="0">15</tspan></text><text class="cls-14" transform="translate(676.77 381.6)"><tspan x="0" y="0">1</tspan></text><text class="cls-10" transform="translate(614.99 537.12)"><tspan class="cls-15" x="0" y="0">V</tspan><tspan class="cls-19" x="11.45" y="0">SS</tspan></text><text class="cls-14" transform="translate(434.62 127.26)"><tspan x="0" y="0">Clock</tspan><tspan x="4.17" y="21.6">Input</tspan></text><text class="cls-14" transform="translate(434.2 212.22)"><tspan x="0" y="0">Reset</tspan></text><text class="cls-10" transform="translate(599.84 70.56)"><tspan class="cls-15" x="0" y="0">V</tspan><tspan class="cls-19" x="11.45" y="0">DD</tspan></text><text class="cls-14" transform="translate(724.32 139.68)"><tspan x="0" y="0">÷2</tspan></text><text class="cls-14" transform="translate(744.7 133.69) scale(.58)"><tspan x="0" y="0">4</tspan></text><text class="cls-14" transform="translate(724.32 174.24)"><tspan x="0" y="0">÷2</tspan></text><text class="cls-14" transform="translate(744.7 168.25) scale(.58)"><tspan x="0" y="0">5</tspan></text><text class="cls-14" transform="translate(724.32 210.24)"><tspan x="0" y="0">÷2</tspan></text><text class="cls-14" transform="translate(744.7 204.25) scale(.58)"><tspan x="0" y="0">6</tspan></text><text class="cls-14" transform="translate(724.32 246.24)"><tspan x="0" y="0">÷2</tspan></text><text class="cls-14" transform="translate(744.7 240.25) scale(.58)"><tspan x="0" y="0">7</tspan></text><text class="cls-14" transform="translate(724.32 282.24)"><tspan x="0" y="0">÷2</tspan></text><text class="cls-14" transform="translate(744.7 276.25) scale(.58)"><tspan x="0" y="0">8</tspan></text><text class="cls-14" transform="translate(724.32 318.24)"><tspan x="0" y="0">÷2</tspan></text><text class="cls-14" transform="translate(744.7 312.25) scale(.58)"><tspan x="0" y="0">9</tspan></text><text class="cls-14" transform="translate(724.32 354.24)"><tspan x="0" y="0">÷2</tspan></text><text class="cls-14" transform="translate(744.7 348.25) scale(.58)"><tspan x="0" y="0">10</tspan></text><text class="cls-14" transform="translate(724.32 390.24)"><tspan x="0" y="0">÷2</tspan></text><text class="cls-14" transform="translate(744.7 384.25) scale(.58)"><tspan x="0" y="0">12</tspan></text><text class="cls-14" transform="translate(116.63 36)"><tspan x="0" y="0">14 Stage Bina</tspan><tspan class="cls-16" x="110.41" y="0">r</tspan><tspan x="116.66" y="0">y Counter</tspan></text><text class="cls-14" transform="translate(574.53 115.74)"><tspan x="0" y="0">16</tspan></text><text class="cls-14" transform="translate(583.19 491.58)"><tspan x="0" y="0">8</tspan></text><text class="cls-14" transform="translate(676.77 417.6)"><tspan x="0" y="0">2</tspan></text><text class="cls-14" transform="translate(676.77 453.6)"><tspan x="0" y="0">3</tspan></text><text class="cls-14" transform="translate(724.32 426.24)"><tspan x="0" y="0">÷2</tspan></text><text class="cls-14" transform="translate(744.7 420.25) scale(.58)"><tspan x="0" y="0">13</tspan></text><text class="cls-14" transform="translate(724.32 462.24)"><tspan x="0" y="0">÷2</tspan></text><text class="cls-14" transform="translate(744.7 456.25) scale(.58)"><tspan x="0" y="0">14</tspan></text><text class="cls-14" transform="translate(496.74 381.6)"><tspan x="0" y="0">10</tspan></text><text class="cls-14" transform="translate(506.85 453.6)"><tspan x="0" y="0">9</tspan></text><g><path class="cls-12" d="M455.62,450c-1.29,0-2.34-.42-3.15-1.27s-1.21-1.98-1.21-3.4v-.3c0-.94,.18-1.79,.54-2.53s.86-1.32,1.51-1.74,1.35-.63,2.1-.63c1.24,0,2.2,.41,2.88,1.22s1.03,1.98,1.03,3.5v.68h-6.44c.02,.94,.3,1.7,.82,2.27s1.19,.87,2,.87c.57,0,1.06-.12,1.46-.35s.75-.54,1.05-.93l.99,.77c-.8,1.22-1.99,1.84-3.59,1.84Zm-.2-8.53c-.66,0-1.21,.24-1.65,.72s-.72,1.15-.83,2.01h4.76v-.12c-.05-.83-.27-1.47-.67-1.92s-.94-.68-1.62-.68Z"/><path class="cls-12" d="M464.4,443.78l2.11-3.47h1.9l-3.11,4.7,3.21,4.81h-1.88l-2.2-3.56-2.2,3.56h-1.89l3.21-4.81-3.11-4.7h1.88l2.08,3.47Z"/><path class="cls-12" d="M472.34,438.01v2.3h1.78v1.26h-1.78v5.91c0,.38,.08,.67,.24,.86,.16,.19,.43,.29,.81,.29,.19,0,.45-.04,.77-.11v1.31c-.43,.12-.84,.17-1.25,.17-.73,0-1.27-.22-1.64-.66s-.55-1.06-.55-1.87v-5.9h-1.73v-1.26h1.73v-2.3h1.63Z"/><path class="cls-12" d="M476.05,448.97c0-.28,.08-.52,.25-.7s.42-.28,.75-.28,.59,.09,.76,.28,.26,.42,.26,.7-.09,.5-.26,.68-.43,.27-.76,.27-.58-.09-.75-.27-.25-.41-.25-.68Z"/><path class="cls-12" d="M413.17,467.36c-.16,1.35-.66,2.4-1.5,3.13s-1.96,1.1-3.35,1.1c-1.51,0-2.72-.54-3.63-1.63s-1.37-2.53-1.37-4.35v-1.23c0-1.19,.21-2.24,.64-3.14s1.03-1.6,1.81-2.08,1.68-.72,2.71-.72c1.36,0,2.45,.38,3.27,1.14s1.3,1.81,1.43,3.15h-1.7c-.15-1.02-.46-1.76-.95-2.22-.49-.46-1.17-.69-2.05-.69-1.08,0-1.92,.4-2.54,1.2s-.92,1.93-.92,3.4v1.24c0,1.39,.29,2.5,.87,3.32,.58,.82,1.39,1.23,2.43,1.23,.94,0,1.66-.21,2.16-.64s.83-1.16,1-2.22h1.7Z"/><path class="cls-12" d="M421.09,471.42c-.09-.19-.17-.52-.23-1-.76,.79-1.66,1.18-2.71,1.18-.94,0-1.71-.27-2.31-.8s-.9-1.2-.9-2.02c0-.99,.38-1.76,1.13-2.31s1.81-.82,3.18-.82h1.58v-.75c0-.57-.17-1.02-.51-1.36s-.84-.5-1.5-.5c-.58,0-1.07,.15-1.46,.44s-.59,.65-.59,1.06h-1.63c0-.47,.17-.93,.51-1.38s.79-.79,1.37-1.05,1.21-.39,1.9-.39c1.1,0,1.95,.27,2.58,.82s.94,1.3,.97,2.26v4.38c0,.87,.11,1.57,.33,2.08v.14h-1.71Zm-2.7-1.24c.51,0,.99-.13,1.45-.4s.79-.61,.99-1.03v-1.95h-1.27c-1.99,0-2.99,.58-2.99,1.75,0,.51,.17,.91,.51,1.2s.78,.43,1.31,.43Z"/><path class="cls-12" d="M433.04,466.77c0,1.45-.33,2.61-.99,3.5s-1.56,1.33-2.69,1.33-2.06-.37-2.72-1.1v4.58h-1.63v-13.17h1.49l.08,1.05c.66-.82,1.58-1.23,2.76-1.23s2.05,.43,2.71,1.29,1,2.06,1,3.59v.15Zm-1.63-.18c0-1.07-.23-1.92-.69-2.54s-1.08-.93-1.88-.93c-.98,0-1.72,.44-2.21,1.31v4.54c.49,.87,1.23,1.3,2.23,1.3,.78,0,1.4-.31,1.86-.93s.69-1.54,.69-2.75Z"/><path class="cls-12" d="M440.98,471.42c-.09-.19-.17-.52-.23-1-.76,.79-1.66,1.18-2.71,1.18-.94,0-1.71-.27-2.31-.8s-.9-1.2-.9-2.02c0-.99,.38-1.76,1.13-2.31s1.81-.82,3.18-.82h1.58v-.75c0-.57-.17-1.02-.51-1.36s-.84-.5-1.5-.5c-.58,0-1.07,.15-1.46,.44s-.59,.65-.59,1.06h-1.63c0-.47,.17-.93,.51-1.38s.79-.79,1.37-1.05,1.21-.39,1.9-.39c1.1,0,1.95,.27,2.58,.82s.94,1.3,.97,2.26v4.38c0,.87,.11,1.57,.33,2.08v.14h-1.71Zm-2.7-1.24c.51,0,.99-.13,1.45-.4s.79-.61,.99-1.03v-1.95h-1.27c-1.99,0-2.99,.58-2.99,1.75,0,.51,.17,.91,.51,1.2s.78,.43,1.31,.43Z"/><path class="cls-12" d="M448.71,470.27c.58,0,1.09-.18,1.52-.53s.67-.79,.72-1.32h1.54c-.03,.54-.22,1.06-.56,1.56s-.81,.88-1.38,1.18-1.19,.44-1.83,.44c-1.29,0-2.32-.43-3.09-1.3s-1.15-2.05-1.15-3.55v-.27c0-.93,.17-1.75,.51-2.47s.83-1.28,1.46-1.68,1.39-.6,2.25-.6c1.07,0,1.95,.32,2.66,.96s1.08,1.47,1.13,2.49h-1.54c-.05-.62-.28-1.12-.7-1.52s-.94-.59-1.55-.59c-.83,0-1.47,.3-1.92,.89s-.68,1.46-.68,2.58v.31c0,1.1,.23,1.94,.68,2.53s1.1,.89,1.93,.89Z"/><path class="cls-12" d="M454.33,459.39c0-.26,.08-.49,.24-.67s.4-.27,.72-.27,.56,.09,.72,.27,.25,.4,.25,.67-.08,.48-.25,.66-.4,.26-.72,.26-.56-.09-.72-.26-.24-.4-.24-.66Zm1.76,12.03h-1.63v-9.51h1.63v9.51Z"/><path class="cls-12" d="M460.89,459.61v2.3h1.78v1.26h-1.78v5.9c0,.38,.08,.67,.24,.86s.43,.29,.81,.29c.19,0,.45-.04,.77-.11v1.31c-.43,.12-.84,.17-1.25,.17-.73,0-1.27-.22-1.64-.66s-.55-1.06-.55-1.87v-5.9h-1.73v-1.26h1.73v-2.3h1.63Z"/><path class="cls-12" d="M463.96,466.58c0-.93,.18-1.77,.55-2.51s.88-1.32,1.53-1.72,1.4-.61,2.24-.61c1.29,0,2.34,.45,3.14,1.34s1.2,2.09,1.2,3.58v.11c0,.93-.18,1.76-.53,2.49s-.86,1.31-1.52,1.72-1.42,.62-2.27,.62c-1.29,0-2.33-.45-3.13-1.34s-1.2-2.08-1.2-3.56v-.11Zm1.63,.19c0,1.05,.24,1.9,.73,2.54s1.14,.96,1.96,.96,1.48-.32,1.97-.97,.73-1.55,.73-2.72c0-1.04-.25-1.89-.74-2.54s-1.15-.97-1.97-.97-1.45,.32-1.94,.96-.74,1.55-.74,2.74Z"/><path class="cls-12" d="M479.25,463.37c-.25-.04-.51-.06-.8-.06-1.07,0-1.79,.45-2.17,1.36v6.75h-1.63v-9.51h1.58l.03,1.1c.53-.85,1.29-1.27,2.27-1.27,.32,0,.56,.04,.72,.12v1.51Z"/></g><g><path class="cls-12" d="M455.62,375.12c-1.29,0-2.34-.42-3.15-1.27s-1.21-1.98-1.21-3.4v-.3c0-.94,.18-1.79,.54-2.53s.86-1.32,1.51-1.74,1.35-.63,2.1-.63c1.24,0,2.2,.41,2.88,1.22s1.03,1.98,1.03,3.5v.68h-6.44c.02,.94,.3,1.7,.82,2.27s1.19,.87,2,.87c.57,0,1.06-.12,1.46-.35s.75-.54,1.05-.93l.99,.77c-.8,1.22-1.99,1.84-3.59,1.84Zm-.2-8.53c-.66,0-1.21,.24-1.65,.72s-.72,1.15-.83,2.01h4.76v-.12c-.05-.83-.27-1.47-.67-1.92s-.94-.68-1.62-.68Z"/><path class="cls-12" d="M464.4,368.9l2.11-3.47h1.9l-3.11,4.7,3.21,4.81h-1.88l-2.2-3.56-2.2,3.56h-1.89l3.21-4.81-3.11-4.7h1.88l2.08,3.47Z"/><path class="cls-12" d="M472.34,363.13v2.3h1.78v1.26h-1.78v5.91c0,.38,.08,.67,.24,.86,.16,.19,.43,.29,.81,.29,.19,0,.45-.04,.77-.11v1.31c-.43,.12-.84,.17-1.25,.17-.73,0-1.27-.22-1.64-.66s-.55-1.06-.55-1.87v-5.9h-1.73v-1.26h1.73v-2.3h1.63Z"/><path class="cls-12" d="M476.05,374.09c0-.28,.08-.52,.25-.7s.42-.28,.75-.28,.59,.09,.76,.28,.26,.42,.26,.7-.09,.5-.26,.68-.43,.27-.76,.27-.58-.09-.75-.27-.25-.41-.25-.68Z"/><path class="cls-12" d="M420.09,391.36h-3.01v5.18h-1.7v-12.8h4.24c1.44,0,2.55,.33,3.33,.98s1.16,1.61,1.16,2.87c0,.8-.22,1.49-.65,2.08s-1.03,1.03-1.8,1.33l3.01,5.43v.11h-1.81l-2.78-5.18Zm-3.01-1.38h2.59c.84,0,1.5-.22,2-.65,.5-.43,.74-1.02,.74-1.74,0-.79-.24-1.4-.71-1.82s-1.15-.64-2.04-.64h-2.58v4.86Z"/><path class="cls-12" d="M430.17,396.72c-1.29,0-2.34-.42-3.15-1.27s-1.21-1.98-1.21-3.4v-.3c0-.94,.18-1.79,.54-2.53s.86-1.32,1.51-1.74,1.35-.63,2.1-.63c1.24,0,2.2,.41,2.88,1.22s1.03,1.98,1.03,3.5v.68h-6.44c.02,.94,.3,1.69,.82,2.27s1.19,.87,2,.87c.57,0,1.06-.12,1.46-.35s.75-.54,1.05-.93l.99,.77c-.8,1.22-1.99,1.84-3.59,1.84Zm-.2-8.53c-.66,0-1.21,.24-1.65,.72s-.72,1.15-.83,2.01h4.76v-.12c-.05-.83-.27-1.47-.67-1.92s-.94-.68-1.62-.68Z"/><path class="cls-12" d="M441.29,394.02c0-.44-.17-.78-.5-1.02s-.91-.45-1.73-.63-1.48-.39-1.96-.63-.84-.54-1.07-.88-.35-.74-.35-1.21c0-.78,.33-1.44,.99-1.98s1.5-.81,2.53-.81c1.08,0,1.95,.28,2.62,.83s1.01,1.27,1.01,2.14h-1.63c0-.45-.19-.83-.57-1.15s-.85-.48-1.43-.48-1.05,.13-1.39,.39-.5,.59-.5,1.01c0,.39,.16,.69,.47,.89s.87,.39,1.68,.57,1.47,.4,1.97,.65,.88,.55,1.12,.91,.36,.79,.36,1.3c0,.85-.34,1.53-1.02,2.04s-1.56,.77-2.65,.77c-.76,0-1.44-.13-2.02-.4s-1.04-.65-1.38-1.13-.5-1.01-.5-1.57h1.63c.03,.54,.25,.98,.65,1.3s.94,.48,1.61,.48c.62,0,1.11-.12,1.48-.37s.56-.58,.56-1Z"/><path class="cls-12" d="M445.05,384.51c0-.26,.08-.49,.24-.67s.4-.27,.72-.27,.56,.09,.72,.27,.25,.4,.25,.67-.08,.48-.25,.66-.4,.26-.72,.26-.56-.09-.72-.26-.24-.4-.24-.66Zm1.76,12.03h-1.63v-9.51h1.63v9.51Z"/><path class="cls-12" d="M454.94,394.02c0-.44-.17-.78-.5-1.02s-.91-.45-1.73-.63-1.48-.39-1.96-.63-.84-.54-1.07-.88-.35-.74-.35-1.21c0-.78,.33-1.44,.99-1.98s1.5-.81,2.53-.81c1.08,0,1.95,.28,2.62,.83s1.01,1.27,1.01,2.14h-1.63c0-.45-.19-.83-.57-1.15s-.85-.48-1.43-.48-1.05,.13-1.39,.39-.5,.59-.5,1.01c0,.39,.16,.69,.47,.89s.87,.39,1.68,.57,1.47,.4,1.97,.65,.88,.55,1.12,.91,.36,.79,.36,1.3c0,.85-.34,1.53-1.02,2.04s-1.56,.77-2.65,.77c-.76,0-1.44-.13-2.02-.4s-1.04-.65-1.38-1.13-.5-1.01-.5-1.57h1.63c.03,.54,.25,.98,.65,1.3s.94,.48,1.61,.48c.62,0,1.11-.12,1.48-.37s.56-.58,.56-1Z"/><path class="cls-12" d="M460.89,384.73v2.3h1.78v1.26h-1.78v5.9c0,.38,.08,.67,.24,.86s.43,.29,.81,.29c.19,0,.45-.04,.77-.11v1.31c-.43,.12-.84,.17-1.25,.17-.73,0-1.27-.22-1.64-.66s-.55-1.06-.55-1.87v-5.9h-1.73v-1.26h1.73v-2.3h1.63Z"/><path class="cls-12" d="M463.96,391.7c0-.93,.18-1.77,.55-2.51s.88-1.32,1.53-1.72,1.4-.61,2.24-.61c1.29,0,2.34,.45,3.14,1.34s1.2,2.09,1.2,3.58v.11c0,.93-.18,1.76-.53,2.49s-.86,1.31-1.52,1.72-1.42,.62-2.27,.62c-1.29,0-2.33-.45-3.13-1.34s-1.2-2.08-1.2-3.56v-.11Zm1.63,.19c0,1.05,.24,1.9,.73,2.54s1.14,.96,1.96,.96,1.48-.32,1.97-.97,.73-1.55,.73-2.72c0-1.04-.25-1.89-.74-2.54s-1.15-.97-1.97-.97-1.45,.32-1.94,.96-.74,1.55-.74,2.74Z"/><path class="cls-12" d="M479.25,388.49c-.25-.04-.51-.06-.8-.06-1.07,0-1.79,.45-2.17,1.36v6.75h-1.63v-9.51h1.58l.03,1.1c.53-.85,1.29-1.27,2.27-1.27,.32,0,.56,.04,.72,.12v1.51Z"/></g><text class="cls-14" transform="translate(995.84 361.44)"><tspan x="0" y="0">R</tspan></text><text class="cls-14" transform="translate(1006.93 367.43) scale(.58)"><tspan x="0" y="0">2</tspan></text><text class="cls-14" transform="translate(1012.82 361.44)"><tspan x="0" y="0"> </tspan></text><text class="cls-14" transform="translate(844.55 243.36)"><tspan x="0" y="0">9</tspan></text><text class="cls-14" transform="translate(904.29 243.36)"><tspan x="0" y="0">10</tspan></text><text class="cls-14" transform="translate(969.09 243.36)"><tspan x="0" y="0">11</tspan></text><text class="cls-14" transform="translate(942.65 541.44)"><tspan x="0" y="0">R</tspan></text><text class="cls-14" transform="translate(953.73 547.43) scale(.58)"><tspan x="0" y="0">t</tspan></text><text class="cls-14" transform="translate(957.16 541.44)"><tspan x="0" y="0" xml:space="preserve"> &lt;&lt; R</tspan></text><text class="cls-14" transform="translate(995.46 547.43) scale(.58)"><tspan x="0" y="0">2</tspan></text><text class="cls-14" transform="translate(844.81 139.68)"><tspan x="0" y="0">Oscilla</tspan><tspan class="cls-18" x="53.97" y="0">t</tspan><tspan x="59.68" y="0">or RC Ci</tspan><tspan class="cls-1" x="123.83" y="0">r</tspan><tspan x="129.75" y="0">cuit</tspan></text><text class="cls-14" transform="translate(888.19 195.84)"><tspan x="0" y="0">CD4060</tspan></text><text class="cls-14" transform="translate(940.3 570.24)"><tspan x="0" y="0">C</tspan></text><text class="cls-14" transform="translate(952.02 576.23) scale(.58)"><tspan x="0" y="0">t </tspan></text><text class="cls-14" transform="translate(958.04 570.24)"><tspan x="0" y="0">≥ 100pF </tspan></text></g></svg>