<?xml version="1.0" encoding="UTF-8"?><svg xmlns="http://www.w3.org/2000/svg" viewBox="0 0 1080 600.48"><defs><style>.cls-1{stroke-width:3px;}.cls-1,.cls-2,.cls-3,.cls-4{fill:none;stroke:#cad2d9;stroke-miterlimit:10;}.cls-5{fill:#cad2d9;}.cls-2{stroke-width:2px;}.cls-3{stroke-width:2.03px;}</style></defs><g id="TEXT_Vector"><path class="cls-5" d="M84.87,92.87h-1.63v-10.84l-3.28,1.2v-1.48l4.66-1.75h.25v12.86Z"/><path class="cls-5" d="M87.91,150.47h-8.38v-1.17l4.43-4.92c.66-.74,1.11-1.35,1.36-1.81s.37-.95,.37-1.45c0-.67-.2-1.22-.61-1.64s-.94-.64-1.62-.64c-.81,0-1.44,.23-1.89,.69s-.67,1.1-.67,1.92h-1.63c0-1.18,.38-2.13,1.14-2.86s1.77-1.09,3.05-1.09c1.19,0,2.13,.31,2.82,.94s1.04,1.45,1.04,2.49c0,1.26-.8,2.76-2.41,4.5l-3.43,3.72h6.42v1.33Z"/><path class="cls-5" d="M81.89,200.88h1.22c.77-.01,1.37-.21,1.81-.61s.66-.92,.66-1.59c0-1.5-.75-2.25-2.24-2.25-.7,0-1.26,.2-1.68,.6s-.63,.93-.63,1.6h-1.63c0-1.01,.37-1.86,1.11-2.53s1.68-1.01,2.83-1.01c1.21,0,2.15,.32,2.84,.96s1.03,1.53,1.03,2.66c0,.56-.18,1.1-.54,1.62s-.85,.91-1.47,1.17c.7,.22,1.25,.59,1.63,1.11s.58,1.15,.58,1.89c0,1.15-.38,2.06-1.12,2.73s-1.73,1.01-2.93,1.01-2.18-.33-2.93-.98-1.13-1.51-1.13-2.58h1.63c0,.67,.22,1.21,.66,1.62s1.03,.61,1.77,.61c.79,0,1.39-.21,1.8-.62s.62-1,.62-1.77-.23-1.32-.69-1.71-1.12-.6-1.98-.62h-1.22v-1.33Z"/><path class="cls-5" d="M86.39,261.37h1.78v1.33h-1.78v2.97h-1.63v-2.97h-5.83v-.96l5.73-8.87h1.73v8.5Zm-5.62,0h3.98v-6.28l-.19,.35-3.79,5.92Z"/><path class="cls-5" d="M80.28,316.85l.65-6.38h6.56v1.5h-5.18l-.39,3.49c.63-.37,1.34-.55,2.14-.55,1.17,0,2.09,.38,2.78,1.16s1.03,1.81,1.03,3.12-.36,2.36-1.07,3.12-1.71,1.14-2.98,1.14c-1.13,0-2.05-.31-2.77-.94s-1.12-1.49-1.22-2.6h1.54c.1,.73,.36,1.28,.78,1.66s.98,.56,1.67,.56c.76,0,1.35-.26,1.78-.77s.65-1.23,.65-2.14c0-.86-.23-1.54-.7-2.06s-1.09-.78-1.86-.78c-.71,0-1.27,.16-1.67,.47l-.43,.35-1.3-.33Z"/><path class="cls-5" d="M85.91,368.06v1.38h-.3c-1.27,.02-2.27,.4-3.02,1.12s-1.18,1.75-1.3,3.07c.67-.77,1.59-1.16,2.76-1.16s2,.39,2.67,1.18,1,1.8,1,3.04c0,1.32-.36,2.37-1.08,3.16s-1.68,1.19-2.89,1.19-2.22-.47-2.98-1.41-1.14-2.15-1.14-3.63v-.62c0-2.36,.5-4.16,1.51-5.4s2.5-1.88,4.49-1.91h.29Zm-2.14,5.77c-.56,0-1.07,.17-1.54,.5s-.79,.75-.98,1.26v.6c0,1.05,.24,1.9,.71,2.55s1.07,.97,1.78,.97,1.31-.27,1.73-.81,.63-1.25,.63-2.12-.21-1.59-.64-2.13-.99-.81-1.69-.81Z"/><path class="cls-5" d="M87.79,426.58l-5.3,11.88h-1.71l5.28-11.46h-6.93v-1.34h8.65v.91Z"/><g><path class="cls-5" d="M338.3,208.07h-1.63v-10.84l-3.28,1.2v-1.48l4.66-1.75h.25v12.86Z"/><path class="cls-5" d="M349.93,203.77h1.78v1.33h-1.78v2.97h-1.63v-2.97h-5.83v-.96l5.73-8.87h1.73v8.5Zm-5.62,0h3.98v-6.28l-.19,.35-3.79,5.92Z"/></g><g><path class="cls-5" d="M338.3,265.67h-1.63v-10.84l-3.28,1.2v-1.48l4.66-1.75h.25v12.86Z"/><path class="cls-5" d="M345.43,258.48h1.22c.77-.01,1.37-.21,1.81-.61s.66-.92,.66-1.59c0-1.5-.75-2.25-2.24-2.25-.7,0-1.26,.2-1.68,.6s-.63,.93-.63,1.6h-1.63c0-1.01,.37-1.86,1.11-2.53s1.68-1.01,2.83-1.01c1.21,0,2.15,.32,2.84,.96s1.03,1.53,1.03,2.66c0,.56-.18,1.1-.54,1.62s-.85,.91-1.47,1.17c.7,.22,1.25,.59,1.63,1.11s.58,1.15,.58,1.89c0,1.15-.38,2.06-1.12,2.73s-1.73,1.01-2.93,1.01-2.18-.33-2.93-.98-1.13-1.51-1.13-2.58h1.63c0,.67,.22,1.21,.66,1.62s1.03,.61,1.77,.61c.79,0,1.39-.21,1.8-.62s.62-1,.62-1.77-.23-1.32-.69-1.71-1.12-.6-1.98-.62h-1.22v-1.33Z"/></g><g><path class="cls-5" d="M338.3,323.27h-1.63v-10.84l-3.28,1.2v-1.48l4.66-1.75h.25v12.86Z"/><path class="cls-5" d="M351.45,323.27h-8.38v-1.17l4.43-4.92c.66-.74,1.11-1.35,1.36-1.81s.37-.95,.37-1.45c0-.67-.2-1.22-.61-1.64s-.94-.64-1.62-.64c-.81,0-1.44,.23-1.89,.69s-.67,1.1-.67,1.92h-1.63c0-1.18,.38-2.13,1.14-2.86s1.77-1.09,3.05-1.09c1.19,0,2.13,.31,2.82,.94s1.04,1.45,1.04,2.49c0,1.26-.8,2.76-2.41,4.5l-3.43,3.72h6.42v1.33Z"/></g><g><path class="cls-5" d="M338.3,380.87h-1.63v-10.84l-3.28,1.2v-1.48l4.66-1.75h.25v12.86Z"/><path class="cls-5" d="M348.41,380.87h-1.63v-10.84l-3.28,1.2v-1.48l4.66-1.75h.25v12.86Z"/></g><g><path class="cls-5" d="M338.3,438.47h-1.63v-10.84l-3.28,1.2v-1.48l4.66-1.75h.25v12.86Z"/><path class="cls-5" d="M351.09,433.01c0,1.9-.33,3.32-.98,4.25s-1.67,1.39-3.05,1.39-2.38-.45-3.03-1.36-1-2.26-1.02-4.06v-2.17c0-1.88,.33-3.28,.98-4.19s1.67-1.37,3.06-1.37,2.39,.44,3.04,1.32,.98,2.24,1,4.08v2.11Zm-1.63-2.22c0-1.38-.19-2.38-.58-3.01s-1-.94-1.84-.94-1.44,.31-1.82,.94-.58,1.59-.59,2.89v2.6c0,1.38,.2,2.4,.6,3.06s1.01,.99,1.82,.99,1.4-.31,1.79-.93,.59-1.6,.61-2.94v-2.66Z"/></g><path class="cls-5" d="M344.96,490.44c-.34,.4-.75,.73-1.22,.98s-.99,.37-1.55,.37c-.74,0-1.38-.18-1.93-.54s-.97-.87-1.27-1.53c-.3-.66-.45-1.39-.45-2.18,0-.86,.16-1.63,.49-2.31s.79-1.21,1.38-1.57,1.29-.54,2.09-.54c1.27,0,2.26,.47,2.99,1.42,.73,.95,1.09,2.24,1.09,3.87v.47c0,2.49-.49,4.31-1.48,5.45-.98,1.15-2.47,1.73-4.46,1.76h-.32v-1.38h.34c1.34-.02,2.37-.37,3.09-1.05,.72-.68,1.11-1.74,1.18-3.21Zm-2.5,0c.54,0,1.05-.17,1.51-.5s.8-.75,1.01-1.24v-.65c0-1.07-.23-1.93-.69-2.6s-1.05-1-1.76-1-1.29,.27-1.72,.82c-.43,.55-.65,1.27-.65,2.17s.21,1.59,.63,2.16c.42,.56,.98,.85,1.68,.85Z"/><g><path class="cls-5" d="M118.04,493.83l3.66-10.56h1.85l-4.75,12.8h-1.49l-4.74-12.8h1.84l3.64,10.56Z"/><path class="cls-5" d="M127.28,492.26c-.96-.28-1.67-.62-2.11-1.02s-.66-.9-.66-1.5c0-.67,.27-1.23,.81-1.67s1.24-.66,2.09-.66c.59,0,1.11,.11,1.57,.34s.81,.54,1.07,.94,.38,.83,.38,1.31h-1.13c0-.52-.16-.92-.49-1.22s-.79-.44-1.39-.44c-.55,0-.99,.12-1.3,.37-.31,.24-.47,.58-.47,1.02,0,.35,.15,.64,.44,.88,.29,.24,.8,.46,1.51,.66,.71,.2,1.26,.42,1.66,.66s.7,.52,.89,.84,.29,.7,.29,1.13c0,.69-.27,1.25-.81,1.66s-1.26,.62-2.16,.62c-.59,0-1.13-.11-1.64-.34s-.9-.53-1.17-.92-.41-.83-.41-1.33h1.13c0,.52,.19,.92,.57,1.22s.89,.45,1.53,.45c.59,0,1.05-.12,1.37-.36s.47-.57,.47-.99-.15-.74-.44-.97-.82-.45-1.59-.68Z"/><path class="cls-5" d="M134.39,492.26c-.96-.28-1.67-.62-2.11-1.02s-.66-.9-.66-1.5c0-.67,.27-1.23,.81-1.67s1.24-.66,2.09-.66c.59,0,1.11,.11,1.57,.34s.81,.54,1.07,.94,.38,.83,.38,1.31h-1.13c0-.52-.16-.92-.49-1.22s-.79-.44-1.39-.44c-.55,0-.99,.12-1.3,.37-.31,.24-.47,.58-.47,1.02,0,.35,.15,.64,.44,.88,.29,.24,.8,.46,1.51,.66,.71,.2,1.26,.42,1.66,.66s.7,.52,.89,.84,.29,.7,.29,1.13c0,.69-.27,1.25-.81,1.66s-1.26,.62-2.16,.62c-.59,0-1.13-.11-1.64-.34s-.9-.53-1.17-.92-.41-.83-.41-1.33h1.13c0,.52,.19,.92,.57,1.22s.89,.45,1.53,.45c.59,0,1.05-.12,1.37-.36s.47-.57,.47-.99-.15-.74-.44-.97-.82-.45-1.59-.68Z"/></g><g><path class="cls-5" d="M299.65,90.63l3.66-10.56h1.85l-4.75,12.8h-1.49l-4.74-12.8h1.84l3.64,10.56Z"/><path class="cls-5" d="M306.37,92.87v-8.53h2.41c.74,0,1.4,.16,1.97,.49s1.01,.79,1.32,1.4,.47,1.3,.47,2.09v.54c0,.8-.16,1.51-.47,2.12s-.75,1.07-1.33,1.39-1.25,.49-2.01,.5h-2.36Zm1.12-7.61v6.69h1.18c.87,0,1.54-.27,2.02-.81,.48-.54,.72-1.31,.72-2.3v-.5c0-.97-.23-1.72-.68-2.26-.46-.54-1.1-.81-1.94-.82h-1.31Z"/><path class="cls-5" d="M314.24,92.87v-8.53h2.41c.74,0,1.4,.16,1.97,.49s1.01,.79,1.32,1.4,.47,1.3,.47,2.09v.54c0,.8-.16,1.51-.47,2.12s-.75,1.07-1.33,1.39-1.25,.49-2.01,.5h-2.36Zm1.12-7.61v6.69h1.18c.87,0,1.54-.27,2.02-.81,.48-.54,.72-1.31,.72-2.3v-.5c0-.97-.23-1.72-.68-2.26-.46-.54-1.1-.81-1.94-.82h-1.31Z"/></g><g><path class="cls-5" d="M192.04,554.66c-.16,1.35-.66,2.4-1.5,3.13s-1.96,1.1-3.35,1.1c-1.51,0-2.72-.54-3.63-1.63s-1.37-2.53-1.37-4.35v-1.23c0-1.19,.21-2.24,.64-3.14s1.03-1.59,1.81-2.08,1.68-.73,2.71-.73c1.36,0,2.45,.38,3.27,1.14s1.3,1.81,1.43,3.15h-1.7c-.15-1.02-.46-1.76-.95-2.22-.49-.46-1.17-.69-2.05-.69-1.08,0-1.92,.4-2.54,1.2-.61,.8-.92,1.93-.92,3.4v1.24c0,1.39,.29,2.5,.87,3.32,.58,.82,1.39,1.23,2.43,1.23,.94,0,1.66-.21,2.16-.64s.83-1.17,1-2.22h1.7Z"/><path class="cls-5" d="M194.35,558.72v-12.8h3.61c1.11,0,2.1,.25,2.95,.74s1.52,1.19,1.98,2.1,.7,1.95,.71,3.13v.82c0,1.21-.23,2.26-.7,3.17s-1.13,1.61-2,2.09-1.87,.74-3.02,.75h-3.54Zm1.69-11.42v10.04h1.78c1.3,0,2.31-.4,3.04-1.21,.72-.81,1.09-1.96,1.09-3.46v-.75c0-1.45-.34-2.58-1.02-3.39s-1.65-1.22-2.9-1.23h-1.97Z"/><path class="cls-5" d="M212.59,554.42h1.78v1.33h-1.78v2.97h-1.63v-2.97h-5.83v-.96l5.73-8.87h1.73v8.5Zm-5.62,0h3.98v-6.28l-.19,.35-3.79,5.92Z"/><path class="cls-5" d="M223.86,553.26c0,1.9-.33,3.32-.98,4.25s-1.67,1.39-3.05,1.39-2.38-.45-3.03-1.36-1-2.26-1.02-4.06v-2.17c0-1.88,.33-3.28,.98-4.19s1.67-1.37,3.06-1.37,2.39,.44,3.04,1.32,.98,2.24,1,4.08v2.11Zm-1.63-2.22c0-1.38-.19-2.38-.58-3.01s-1-.95-1.84-.95-1.44,.31-1.82,.94-.58,1.59-.59,2.89v2.6c0,1.38,.2,2.4,.6,3.06s1.01,.99,1.82,.99,1.4-.31,1.79-.93,.59-1.6,.61-2.94v-2.66Z"/><path class="cls-5" d="M234.33,558.72h-8.38v-1.17l4.43-4.92c.66-.74,1.11-1.35,1.36-1.81s.37-.95,.37-1.45c0-.67-.2-1.22-.61-1.64s-.94-.64-1.62-.64c-.81,0-1.44,.23-1.89,.69s-.67,1.1-.67,1.92h-1.63c0-1.18,.38-2.13,1.14-2.86s1.77-1.09,3.05-1.09c1.19,0,2.13,.31,2.82,.94s1.04,1.45,1.04,2.49c0,1.26-.8,2.76-2.41,4.5l-3.43,3.72h6.42v1.33Z"/><path class="cls-5" d="M244.44,558.72h-8.38v-1.17l4.43-4.92c.66-.74,1.11-1.35,1.36-1.81s.37-.95,.37-1.45c0-.67-.2-1.22-.61-1.64s-.94-.64-1.62-.64c-.81,0-1.44,.23-1.89,.69s-.67,1.1-.67,1.92h-1.63c0-1.18,.38-2.13,1.14-2.86s1.77-1.09,3.05-1.09c1.19,0,2.13,.31,2.82,.94s1.04,1.45,1.04,2.49c0,1.26-.8,2.76-2.41,4.5l-3.43,3.72h6.42v1.33Z"/></g><path class="cls-5" d="M87.29,486.61c0,.64-.17,1.21-.51,1.71s-.79,.89-1.37,1.17c.67,.29,1.2,.71,1.59,1.26s.58,1.17,.58,1.87c0,1.11-.37,1.99-1.12,2.65s-1.73,.98-2.95,.98-2.22-.33-2.96-.99-1.11-1.54-1.11-2.64c0-.69,.19-1.32,.57-1.87s.9-.98,1.57-1.27c-.57-.28-1.02-.67-1.34-1.17s-.49-1.06-.49-1.7c0-1.08,.35-1.93,1.04-2.57s1.6-.95,2.73-.95,2.03,.32,2.73,.95,1.04,1.49,1.04,2.57Zm-1.33,5.97c0-.71-.23-1.3-.68-1.75s-1.05-.68-1.78-.68-1.32,.22-1.76,.67-.66,1.03-.66,1.76,.22,1.3,.65,1.71,1.03,.62,1.8,.62,1.36-.21,1.79-.63,.65-.99,.65-1.71Zm-2.44-8.15c-.64,0-1.16,.2-1.55,.59s-.59,.93-.59,1.61,.19,1.18,.58,1.58,.91,.6,1.56,.6,1.17-.2,1.56-.6,.58-.93,.58-1.58-.2-1.18-.61-1.59-.92-.62-1.54-.62Z"/><g><path class="cls-5" d="M338.3,92.87h-1.63v-10.84l-3.28,1.2v-1.48l4.66-1.75h.25v12.86Z"/><path class="cls-5" d="M349.44,80.06v1.38h-.3c-1.27,.02-2.27,.4-3.02,1.12s-1.18,1.75-1.3,3.07c.67-.77,1.59-1.16,2.76-1.16s2,.39,2.67,1.18,1,1.8,1,3.04c0,1.32-.36,2.37-1.08,3.16s-1.68,1.19-2.89,1.19-2.22-.47-2.98-1.41-1.14-2.15-1.14-3.63v-.62c0-2.36,.5-4.16,1.51-5.4s2.5-1.88,4.49-1.91h.29Zm-2.14,5.77c-.56,0-1.07,.17-1.54,.5s-.79,.75-.98,1.26v.6c0,1.05,.24,1.9,.71,2.55s1.07,.97,1.78,.97,1.31-.27,1.73-.81,.63-1.25,.63-2.12-.21-1.59-.64-2.13-.99-.81-1.69-.81Z"/></g><g><path class="cls-5" d="M338.3,150.47h-1.63v-10.84l-3.28,1.2v-1.48l4.66-1.75h.25v12.86Z"/><path class="cls-5" d="M343.81,144.05l.65-6.38h6.56v1.5h-5.18l-.39,3.49c.63-.37,1.34-.55,2.14-.55,1.17,0,2.09,.38,2.78,1.16s1.03,1.81,1.03,3.12-.36,2.36-1.07,3.12-1.71,1.14-2.98,1.14c-1.13,0-2.05-.31-2.77-.94s-1.12-1.49-1.22-2.6h1.54c.1,.73,.36,1.28,.78,1.66s.98,.56,1.67,.56c.76,0,1.35-.26,1.78-.77s.65-1.23,.65-2.14c0-.86-.23-1.54-.7-2.06s-1.09-.78-1.86-.78c-.71,0-1.27,.16-1.67,.47l-.43,.35-1.3-.33Z"/></g><g><path class="cls-5" d="M113.77,83.67l-.92-.63c.54-.76,.83-1.56,.84-2.41v-1.27h1.61v1.14c0,.59-.15,1.17-.44,1.75s-.65,1.05-1.09,1.41Zm2.7,0l-.92-.63c.54-.76,.83-1.56,.84-2.41v-1.27h1.61v1.14c0,.59-.15,1.17-.44,1.75s-.65,1.05-1.09,1.41Z"/><path class="cls-5" d="M125.15,92.87h-1.63v-10.84l-3.28,1.2v-1.48l4.66-1.75h.25v12.86Z"/><path class="cls-5" d="M131.3,79.2l.93,.63c-.54,.74-.83,1.55-.84,2.41v1.2h-1.62v-1.02c0-.6,.14-1.19,.43-1.78s.65-1.07,1.1-1.44Zm2.77,0l.93,.63c-.54,.74-.83,1.55-.84,2.41v1.2h-1.62v-1.02c0-.6,.14-1.19,.43-1.78s.65-1.07,1.1-1.44Z"/></g><g><path class="cls-5" d="M113.77,141.27l-.92-.63c.54-.76,.83-1.56,.84-2.41v-1.27h1.61v1.14c0,.59-.15,1.17-.44,1.75s-.65,1.05-1.09,1.41Zm2.7,0l-.92-.63c.54-.76,.83-1.56,.84-2.41v-1.27h1.61v1.14c0,.59-.15,1.17-.44,1.75s-.65,1.05-1.09,1.41Z"/><path class="cls-5" d="M127.83,145.01c0,1.9-.33,3.32-.98,4.25s-1.67,1.39-3.05,1.39-2.38-.45-3.03-1.36-1-2.26-1.02-4.06v-2.17c0-1.88,.33-3.28,.98-4.19s1.67-1.37,3.06-1.37,2.39,.44,3.04,1.32,.98,2.24,1,4.08v2.11Zm-1.63-2.22c0-1.38-.19-2.38-.58-3.01s-1-.94-1.84-.94-1.44,.31-1.82,.94-.58,1.59-.59,2.89v2.6c0,1.38,.2,2.4,.6,3.06s1.01,.99,1.82,.99,1.4-.31,1.79-.93,.59-1.6,.61-2.94v-2.66Z"/><path class="cls-5" d="M131.3,136.8l.93,.63c-.54,.74-.83,1.55-.84,2.41v1.2h-1.62v-1.02c0-.6,.14-1.19,.43-1.78s.65-1.07,1.1-1.44Zm2.77,0l.93,.63c-.54,.74-.83,1.55-.84,2.41v1.2h-1.62v-1.02c0-.6,.14-1.19,.43-1.78s.65-1.07,1.1-1.44Z"/></g><g><path class="cls-5" d="M114.76,194.4l.93,.63c-.54,.74-.83,1.55-.84,2.41v1.2h-1.62v-1.02c0-.6,.14-1.19,.43-1.78s.65-1.07,1.1-1.44Zm2.77,0l.93,.63c-.54,.74-.83,1.55-.84,2.41v1.2h-1.62v-1.02c0-.6,.14-1.19,.43-1.78s.65-1.07,1.1-1.44Z"/><path class="cls-5" d="M128.13,208.07h-8.38v-1.17l4.43-4.92c.66-.74,1.11-1.35,1.36-1.81s.37-.95,.37-1.45c0-.67-.2-1.22-.61-1.64s-.94-.64-1.62-.64c-.81,0-1.44,.23-1.89,.69s-.67,1.1-.67,1.92h-1.63c0-1.18,.38-2.13,1.14-2.86s1.77-1.09,3.05-1.09c1.19,0,2.13,.31,2.82,.94s1.04,1.45,1.04,2.49c0,1.26-.8,2.76-2.41,4.5l-3.43,3.72h6.42v1.33Z"/><path class="cls-5" d="M131.23,194.4l.93,.63c-.54,.74-.83,1.55-.84,2.41v1.2h-1.62v-1.02c0-.6,.14-1.19,.43-1.78s.65-1.07,1.1-1.44Zm2.77,0l.93,.63c-.54,.74-.83,1.55-.84,2.41v1.2h-1.62v-1.02c0-.6,.14-1.19,.43-1.78s.65-1.07,1.1-1.44Z"/></g><g><path class="cls-5" d="M114.76,252l.93,.63c-.54,.74-.83,1.55-.84,2.41v1.2h-1.62v-1.02c0-.6,.14-1.19,.43-1.78s.65-1.07,1.1-1.44Zm2.77,0l.93,.63c-.54,.74-.83,1.55-.84,2.41v1.2h-1.62v-1.02c0-.6,.14-1.19,.43-1.78s.65-1.07,1.1-1.44Z"/><path class="cls-5" d="M120.49,259.25l.65-6.38h6.56v1.5h-5.18l-.39,3.49c.63-.37,1.34-.55,2.14-.55,1.17,0,2.09,.39,2.78,1.16s1.03,1.81,1.03,3.12-.36,2.36-1.07,3.12-1.71,1.14-2.98,1.14c-1.13,0-2.05-.31-2.77-.94s-1.12-1.49-1.22-2.6h1.54c.1,.73,.36,1.28,.78,1.66s.98,.56,1.67,.56c.76,0,1.35-.26,1.78-.77s.65-1.23,.65-2.14c0-.86-.23-1.54-.7-2.06s-1.09-.78-1.86-.78c-.71,0-1.27,.16-1.67,.47l-.43,.35-1.3-.33Z"/><path class="cls-5" d="M131.23,252l.93,.63c-.54,.74-.83,1.55-.84,2.41v1.2h-1.62v-1.02c0-.6,.14-1.19,.43-1.78s.65-1.07,1.1-1.44Zm2.77,0l.93,.63c-.54,.74-.83,1.55-.84,2.41v1.2h-1.62v-1.02c0-.6,.14-1.19,.43-1.78s.65-1.07,1.1-1.44Z"/></g><g><path class="cls-5" d="M114.76,309.6l.93,.63c-.54,.74-.83,1.55-.84,2.41v1.2h-1.62v-1.02c0-.6,.14-1.19,.43-1.78s.65-1.07,1.1-1.44Zm2.77,0l.93,.63c-.54,.74-.83,1.55-.84,2.41v1.2h-1.62v-1.02c0-.6,.14-1.19,.43-1.78s.65-1.07,1.1-1.44Z"/><path class="cls-5" d="M126.13,310.46v1.38h-.3c-1.27,.02-2.27,.4-3.02,1.12s-1.18,1.75-1.3,3.07c.67-.77,1.59-1.16,2.76-1.16s2,.39,2.67,1.18,1,1.8,1,3.04c0,1.32-.36,2.37-1.08,3.16s-1.68,1.19-2.89,1.19-2.22-.47-2.98-1.41-1.14-2.15-1.14-3.63v-.62c0-2.36,.5-4.16,1.51-5.4s2.5-1.88,4.49-1.91h.29Zm-2.14,5.77c-.56,0-1.07,.17-1.54,.5s-.79,.75-.98,1.26v.6c0,1.05,.24,1.9,.71,2.55s1.07,.97,1.78,.97,1.31-.27,1.73-.81,.63-1.25,.63-2.12-.21-1.59-.64-2.13-.99-.81-1.69-.81Z"/><path class="cls-5" d="M131.23,309.6l.93,.63c-.54,.74-.83,1.55-.84,2.41v1.2h-1.62v-1.02c0-.6,.14-1.19,.43-1.78s.65-1.07,1.1-1.44Zm2.77,0l.93,.63c-.54,.74-.83,1.55-.84,2.41v1.2h-1.62v-1.02c0-.6,.14-1.19,.43-1.78s.65-1.07,1.1-1.44Z"/></g><g><path class="cls-5" d="M123.64,380.87h-1.7l-6.44-9.86v9.86h-1.7v-12.8h1.7l6.46,9.91v-9.91h1.68v12.8Z"/><path class="cls-5" d="M136.05,376.81c-.16,1.35-.66,2.4-1.5,3.13s-1.96,1.1-3.35,1.1c-1.51,0-2.72-.54-3.63-1.63s-1.37-2.53-1.37-4.35v-1.23c0-1.19,.21-2.24,.64-3.14s1.03-1.59,1.81-2.08,1.68-.73,2.71-.73c1.36,0,2.45,.38,3.27,1.14s1.3,1.81,1.43,3.15h-1.7c-.15-1.02-.46-1.76-.95-2.22-.49-.46-1.17-.69-2.05-.69-1.08,0-1.92,.4-2.54,1.2-.61,.8-.92,1.93-.92,3.4v1.24c0,1.39,.29,2.5,.87,3.32,.58,.82,1.39,1.23,2.43,1.23,.94,0,1.66-.21,2.16-.64s.83-1.17,1-2.22h1.7Z"/></g><g><path class="cls-5" d="M114.76,424.8l.93,.63c-.54,.74-.83,1.55-.84,2.41v1.2h-1.62v-1.02c0-.6,.14-1.19,.43-1.78s.65-1.07,1.1-1.44Zm2.77,0l.93,.63c-.54,.74-.83,1.55-.84,2.41v1.2h-1.62v-1.02c0-.6,.14-1.19,.43-1.78s.65-1.07,1.1-1.44Z"/><path class="cls-5" d="M122.11,431.28h1.22c.77-.01,1.37-.21,1.81-.61s.66-.92,.66-1.59c0-1.5-.75-2.25-2.24-2.25-.7,0-1.26,.2-1.68,.6s-.63,.93-.63,1.6h-1.63c0-1.01,.37-1.86,1.11-2.53s1.68-1.01,2.83-1.01c1.21,0,2.15,.32,2.84,.96s1.03,1.53,1.03,2.66c0,.56-.18,1.1-.54,1.62s-.85,.91-1.47,1.17c.7,.22,1.25,.59,1.63,1.11s.58,1.15,.58,1.89c0,1.15-.38,2.06-1.12,2.73s-1.73,1.01-2.93,1.01-2.18-.33-2.93-.98-1.13-1.51-1.13-2.58h1.63c0,.67,.22,1.21,.66,1.62s1.03,.61,1.77,.61c.79,0,1.39-.21,1.8-.62s.62-1,.62-1.77-.23-1.32-.69-1.71-1.12-.6-1.98-.62h-1.22v-1.33Z"/><path class="cls-5" d="M131.23,424.8l.93,.63c-.54,.74-.83,1.55-.84,2.41v1.2h-1.62v-1.02c0-.6,.14-1.19,.43-1.78s.65-1.07,1.1-1.44Zm2.77,0l.93,.63c-.54,.74-.83,1.55-.84,2.41v1.2h-1.62v-1.02c0-.6,.14-1.19,.43-1.78s.65-1.07,1.1-1.44Z"/></g><g><path class="cls-5" d="M279.92,204.01c-.16,1.35-.66,2.4-1.5,3.13s-1.96,1.1-3.35,1.1c-1.51,0-2.72-.54-3.63-1.63s-1.37-2.53-1.37-4.35v-1.23c0-1.19,.21-2.24,.64-3.14s1.03-1.6,1.81-2.08,1.68-.73,2.71-.73c1.36,0,2.45,.38,3.27,1.14s1.3,1.81,1.43,3.15h-1.7c-.15-1.02-.46-1.76-.95-2.22s-1.17-.69-2.05-.69c-1.08,0-1.92,.4-2.54,1.2-.61,.8-.92,1.93-.92,3.4v1.24c0,1.39,.29,2.5,.87,3.32s1.39,1.23,2.43,1.23c.94,0,1.66-.21,2.16-.64s.83-1.16,1-2.22h1.7Z"/><path class="cls-5" d="M283.74,208.07h-1.63v-13.5h1.63v13.5Z"/><path class="cls-5" d="M285.91,203.22c0-.93,.18-1.77,.55-2.51s.88-1.32,1.53-1.72,1.4-.61,2.24-.61c1.29,0,2.34,.45,3.14,1.34s1.2,2.09,1.2,3.58v.11c0,.93-.18,1.76-.53,2.49s-.86,1.31-1.52,1.72-1.42,.62-2.27,.62c-1.29,0-2.33-.45-3.13-1.34s-1.2-2.08-1.2-3.56v-.11Zm1.63,.19c0,1.05,.24,1.9,.73,2.54s1.14,.96,1.96,.96,1.48-.32,1.97-.97,.73-1.55,.73-2.72c0-1.04-.25-1.89-.74-2.54s-1.15-.97-1.97-.97-1.45,.32-1.94,.96-.74,1.55-.74,2.74Z"/><path class="cls-5" d="M300.42,206.92c.58,0,1.09-.18,1.52-.53s.67-.79,.72-1.32h1.54c-.03,.54-.22,1.06-.56,1.56s-.81,.88-1.38,1.18-1.19,.44-1.83,.44c-1.29,0-2.32-.43-3.09-1.3s-1.15-2.05-1.15-3.55v-.27c0-.93,.17-1.75,.51-2.47s.83-1.28,1.46-1.68,1.39-.6,2.25-.6c1.07,0,1.95,.32,2.66,.96s1.08,1.47,1.13,2.49h-1.54c-.05-.62-.28-1.12-.7-1.52s-.94-.59-1.55-.59c-.83,0-1.47,.3-1.92,.89s-.68,1.45-.68,2.58v.31c0,1.1,.23,1.94,.68,2.53s1.1,.89,1.93,.89Z"/><path class="cls-5" d="M308.68,203.66l-1.02,1.06v3.34h-1.63v-13.5h1.63v8.17l.87-1.05,2.96-3.13h1.98l-3.7,3.97,4.13,5.54h-1.91l-3.31-4.4Z"/></g><g><path class="cls-5" d="M226.01,261.61c-.16,1.35-.66,2.4-1.5,3.13s-1.96,1.1-3.35,1.1c-1.51,0-2.72-.54-3.63-1.63s-1.37-2.53-1.37-4.35v-1.23c0-1.19,.21-2.24,.64-3.14s1.03-1.6,1.81-2.08,1.68-.73,2.71-.73c1.36,0,2.45,.38,3.27,1.14s1.3,1.81,1.43,3.15h-1.7c-.15-1.02-.46-1.76-.95-2.22s-1.17-.69-2.05-.69c-1.08,0-1.92,.4-2.54,1.2-.61,.8-.92,1.93-.92,3.4v1.24c0,1.39,.29,2.5,.87,3.32,.58,.82,1.39,1.23,2.43,1.23,.94,0,1.66-.21,2.16-.64s.83-1.16,1-2.22h1.7Z"/><path class="cls-5" d="M229.83,265.67h-1.63v-13.5h1.63v13.5Z"/><path class="cls-5" d="M232,260.82c0-.93,.18-1.77,.55-2.51s.88-1.32,1.53-1.72,1.4-.61,2.24-.61c1.29,0,2.34,.45,3.14,1.34s1.2,2.09,1.2,3.58v.11c0,.93-.18,1.76-.53,2.49s-.86,1.31-1.52,1.72-1.42,.62-2.27,.62c-1.29,0-2.33-.45-3.13-1.34s-1.2-2.08-1.2-3.56v-.11Zm1.63,.19c0,1.05,.24,1.9,.73,2.54s1.14,.96,1.96,.96,1.48-.32,1.97-.97,.73-1.55,.73-2.72c0-1.04-.25-1.89-.74-2.54s-1.15-.97-1.97-.97-1.45,.32-1.94,.96-.74,1.55-.74,2.74Z"/><path class="cls-5" d="M246.51,264.52c.58,0,1.09-.18,1.52-.53s.67-.79,.72-1.32h1.54c-.03,.54-.22,1.06-.56,1.56s-.81,.88-1.38,1.18-1.19,.44-1.83,.44c-1.29,0-2.32-.43-3.09-1.3s-1.15-2.05-1.15-3.55v-.27c0-.93,.17-1.75,.51-2.47s.83-1.28,1.46-1.68,1.39-.6,2.25-.6c1.07,0,1.95,.32,2.66,.96s1.08,1.47,1.13,2.49h-1.54c-.05-.62-.28-1.12-.7-1.52s-.94-.59-1.55-.59c-.83,0-1.47,.3-1.92,.89s-.68,1.45-.68,2.58v.31c0,1.1,.23,1.94,.68,2.53s1.1,.89,1.93,.89Z"/><path class="cls-5" d="M254.77,261.26l-1.02,1.06v3.34h-1.63v-13.5h1.63v8.17l.87-1.05,2.96-3.13h1.98l-3.7,3.97,4.13,5.54h-1.91l-3.31-4.4Z"/><path class="cls-5" d="M267.76,265.67h-1.69v-12.8h1.69v12.8Z"/><path class="cls-5" d="M272.13,256.16l.05,1.2c.73-.91,1.68-1.37,2.85-1.37,2.01,0,3.02,1.13,3.04,3.4v6.28h-1.63v-6.29c0-.69-.16-1.19-.47-1.52s-.79-.49-1.44-.49c-.53,0-.99,.14-1.39,.42s-.71,.65-.93,1.11v6.78h-1.63v-9.51h1.54Z"/><path class="cls-5" d="M282.15,257.31c.72-.88,1.66-1.33,2.81-1.33,2.01,0,3.02,1.13,3.04,3.4v6.28h-1.63v-6.29c0-.69-.16-1.19-.47-1.52s-.79-.49-1.44-.49c-.53,0-.99,.14-1.39,.42s-.71,.65-.93,1.11v6.78h-1.63v-13.5h1.63v5.14Z"/><path class="cls-5" d="M290.44,253.63c0-.26,.08-.49,.24-.67s.4-.27,.72-.27,.56,.09,.72,.27,.25,.4,.25,.67-.08,.48-.25,.66-.4,.26-.72,.26-.56-.09-.72-.26-.24-.4-.24-.66Zm1.76,12.03h-1.63v-9.51h1.63v9.51Z"/><path class="cls-5" d="M302.85,261.02c0,1.45-.33,2.62-1,3.5s-1.56,1.32-2.69,1.32c-1.2,0-2.13-.42-2.79-1.27l-.08,1.1h-1.49v-13.5h1.63v5.04c.66-.81,1.56-1.22,2.72-1.22s2.06,.44,2.72,1.31,.99,2.07,.99,3.59v.14Zm-1.63-.19c0-1.11-.21-1.96-.64-2.57s-1.04-.91-1.85-.91c-1.07,0-1.84,.5-2.31,1.49v4.11c.5,1,1.27,1.49,2.33,1.49,.78,0,1.39-.3,1.82-.91s.65-1.51,.65-2.73Z"/><path class="cls-5" d="M304.91,253.63c0-.26,.08-.49,.24-.67s.4-.27,.72-.27,.56,.09,.72,.27,.25,.4,.25,.67-.08,.48-.25,.66-.4,.26-.72,.26-.56-.09-.72-.26-.24-.4-.24-.66Zm1.76,12.03h-1.63v-9.51h1.63v9.51Z"/><path class="cls-5" d="M311.48,253.85v2.3h1.78v1.26h-1.78v5.9c0,.38,.08,.67,.24,.86s.43,.29,.81,.29c.19,0,.45-.04,.77-.11v1.31c-.43,.12-.84,.17-1.25,.17-.73,0-1.27-.22-1.64-.66s-.55-1.06-.55-1.87v-5.9h-1.73v-1.26h1.73v-2.3h1.63Z"/></g><g><path class="cls-5" d="M249.82,319.21c-.16,1.35-.66,2.4-1.5,3.13s-1.96,1.1-3.35,1.1c-1.51,0-2.72-.54-3.63-1.63s-1.37-2.53-1.37-4.35v-1.23c0-1.19,.21-2.24,.64-3.14s1.03-1.6,1.81-2.08,1.68-.72,2.71-.72c1.36,0,2.45,.38,3.27,1.14s1.3,1.81,1.43,3.15h-1.7c-.15-1.02-.46-1.76-.95-2.22-.49-.46-1.17-.69-2.05-.69-1.08,0-1.92,.4-2.54,1.2s-.92,1.93-.92,3.4v1.24c0,1.39,.29,2.5,.87,3.32,.58,.82,1.39,1.23,2.43,1.23,.94,0,1.66-.21,2.16-.64s.83-1.16,1-2.22h1.7Z"/><path class="cls-5" d="M257.74,323.27c-.09-.19-.17-.52-.23-1-.76,.79-1.66,1.18-2.71,1.18-.94,0-1.71-.27-2.31-.8s-.9-1.2-.9-2.02c0-.99,.38-1.76,1.13-2.31s1.81-.82,3.18-.82h1.58v-.75c0-.57-.17-1.02-.51-1.36s-.84-.5-1.5-.5c-.58,0-1.07,.15-1.46,.44s-.59,.65-.59,1.06h-1.63c0-.47,.17-.93,.51-1.38s.79-.79,1.37-1.05,1.21-.39,1.9-.39c1.1,0,1.95,.27,2.58,.82s.94,1.3,.97,2.26v4.38c0,.87,.11,1.57,.33,2.08v.14h-1.71Zm-2.7-1.24c.51,0,.99-.13,1.45-.4s.79-.61,.99-1.03v-1.95h-1.27c-1.99,0-2.99,.58-2.99,1.75,0,.51,.17,.91,.51,1.2s.78,.43,1.31,.43Z"/><path class="cls-5" d="M266.26,315.22c-.25-.04-.51-.06-.8-.06-1.07,0-1.79,.45-2.17,1.36v6.75h-1.63v-9.51h1.58l.03,1.1c.53-.85,1.29-1.27,2.27-1.27,.32,0,.56,.04,.72,.12v1.51Z"/><path class="cls-5" d="M272.35,315.22c-.25-.04-.51-.06-.8-.06-1.07,0-1.79,.45-2.17,1.36v6.75h-1.63v-9.51h1.58l.03,1.1c.53-.85,1.29-1.27,2.27-1.27,.32,0,.56,.04,.72,.12v1.51Z"/><path class="cls-5" d="M277.11,320.88l2.21-7.13h1.74l-3.82,10.98c-.59,1.58-1.53,2.37-2.82,2.37l-.31-.03-.61-.11v-1.32l.44,.04c.55,0,.98-.11,1.29-.33s.56-.63,.76-1.22l.36-.97-3.39-9.4h1.78l2.37,7.13Z"/><path class="cls-5" d="M297.07,317.28c0,1.25-.21,2.35-.63,3.28s-1.02,1.65-1.79,2.14-1.68,.74-2.71,.74-1.9-.25-2.68-.74-1.38-1.2-1.81-2.12-.65-1.98-.66-3.19v-.92c0-1.23,.21-2.32,.64-3.26s1.03-1.67,1.81-2.17,1.68-.75,2.69-.75,1.93,.25,2.71,.74,1.38,1.21,1.81,2.15,.63,2.04,.63,3.28v.81Zm-1.68-.83c0-1.52-.3-2.68-.91-3.49s-1.46-1.22-2.56-1.22-1.91,.41-2.52,1.22-.93,1.94-.94,3.38v.94c0,1.47,.31,2.63,.93,3.47s1.47,1.26,2.55,1.26,1.93-.4,2.53-1.19,.91-1.93,.92-3.41v-.95Z"/><path class="cls-5" d="M305.22,322.33c-.63,.74-1.56,1.12-2.79,1.12-1.01,0-1.79-.29-2.32-.88s-.8-1.46-.8-2.61v-6.19h1.63v6.14c0,1.44,.59,2.16,1.76,2.16,1.24,0,2.07-.46,2.48-1.39v-6.92h1.63v9.51h-1.55l-.04-.94Z"/><path class="cls-5" d="M311.48,311.45v2.3h1.78v1.26h-1.78v5.9c0,.38,.08,.67,.24,.86s.43,.29,.81,.29c.19,0,.45-.04,.77-.11v1.31c-.43,.12-.84,.17-1.25,.17-.73,0-1.27-.22-1.64-.66s-.55-1.06-.55-1.87v-5.9h-1.73v-1.26h1.73v-2.3h1.63Z"/></g><g><path class="cls-5" d="M293.53,367.2l.93,.63c-.54,.74-.83,1.55-.84,2.41v1.2h-1.62v-1.02c0-.6,.14-1.19,.43-1.78s.65-1.07,1.1-1.44Zm2.77,0l.93,.63c-.54,.74-.83,1.55-.84,2.41v1.2h-1.62v-1.02c0-.6,.14-1.19,.43-1.78s.65-1.07,1.1-1.44Z"/><path class="cls-5" d="M305.38,376.57h1.78v1.33h-1.78v2.97h-1.63v-2.97h-5.83v-.96l5.73-8.87h1.73v8.5Zm-5.62,0h3.98v-6.28l-.19,.35-3.79,5.92Z"/><path class="cls-5" d="M310,367.2l.93,.63c-.54,.74-.83,1.55-.84,2.41v1.2h-1.62v-1.02c0-.6,.14-1.19,.43-1.78s.65-1.07,1.1-1.44Zm2.77,0l.93,.63c-.54,.74-.83,1.55-.84,2.41v1.2h-1.62v-1.02c0-.6,.14-1.19,.43-1.78s.65-1.07,1.1-1.44Z"/></g><g><path class="cls-5" d="M293.53,424.8l.93,.63c-.54,.74-.83,1.55-.84,2.41v1.2h-1.62v-1.02c0-.6,.14-1.19,.43-1.78s.65-1.07,1.1-1.44Zm2.77,0l.93,.63c-.54,.74-.83,1.55-.84,2.41v1.2h-1.62v-1.02c0-.6,.14-1.19,.43-1.78s.65-1.07,1.1-1.44Z"/><path class="cls-5" d="M306.77,426.58l-5.3,11.88h-1.71l5.28-11.46h-6.93v-1.34h8.65v.91Z"/><path class="cls-5" d="M310,424.8l.93,.63c-.54,.74-.83,1.55-.84,2.41v1.2h-1.62v-1.02c0-.6,.14-1.19,.43-1.78s.65-1.07,1.1-1.44Zm2.77,0l.93,.63c-.54,.74-.83,1.55-.84,2.41v1.2h-1.62v-1.02c0-.6,.14-1.19,.43-1.78s.65-1.07,1.1-1.44Z"/></g><g><path class="cls-5" d="M300.69,496.07h-1.7l-6.44-9.86v9.86h-1.7v-12.8h1.7l6.46,9.91v-9.91h1.68v12.8Z"/><path class="cls-5" d="M313.1,492.01c-.16,1.35-.66,2.4-1.5,3.13-.84,.74-1.96,1.1-3.35,1.1-1.51,0-2.72-.54-3.63-1.63s-1.37-2.53-1.37-4.35v-1.23c0-1.19,.21-2.24,.64-3.14s1.03-1.59,1.81-2.08c.78-.48,1.68-.72,2.71-.72,1.36,0,2.45,.38,3.27,1.14,.82,.76,1.3,1.81,1.43,3.15h-1.7c-.15-1.02-.46-1.76-.95-2.22s-1.17-.69-2.05-.69c-1.08,0-1.92,.4-2.54,1.2-.61,.8-.92,1.93-.92,3.4v1.24c0,1.39,.29,2.5,.87,3.32s1.39,1.23,2.43,1.23c.94,0,1.66-.21,2.16-.64,.5-.42,.83-1.16,1-2.22h1.7Z"/></g><g><path class="cls-5" d="M274.78,145.29h-3.01v5.18h-1.7v-12.8h4.24c1.44,0,2.55,.33,3.33,.98s1.16,1.61,1.16,2.87c0,.8-.22,1.49-.65,2.08s-1.03,1.03-1.8,1.33l3.01,5.43v.11h-1.81l-2.78-5.18Zm-3.01-1.38h2.59c.84,0,1.5-.22,2-.65,.5-.43,.74-1.02,.74-1.74,0-.79-.24-1.4-.71-1.82s-1.15-.64-2.04-.64h-2.58v4.86Z"/><path class="cls-5" d="M284.86,150.64c-1.29,0-2.34-.42-3.15-1.27s-1.21-1.98-1.21-3.4v-.3c0-.94,.18-1.79,.54-2.53s.86-1.32,1.51-1.74,1.35-.63,2.1-.63c1.24,0,2.2,.41,2.88,1.22s1.03,1.98,1.03,3.5v.68h-6.44c.02,.94,.3,1.69,.82,2.27s1.19,.87,2,.87c.57,0,1.06-.12,1.46-.35s.75-.54,1.05-.93l.99,.77c-.8,1.22-1.99,1.84-3.59,1.84Zm-.2-8.53c-.66,0-1.21,.24-1.65,.72s-.72,1.15-.83,2.01h4.76v-.12c-.05-.83-.27-1.47-.67-1.92s-.94-.68-1.62-.68Z"/><path class="cls-5" d="M295.99,147.94c0-.44-.17-.78-.5-1.02s-.91-.45-1.73-.63-1.48-.39-1.96-.63-.84-.54-1.07-.88-.35-.74-.35-1.21c0-.78,.33-1.44,.99-1.98s1.5-.81,2.53-.81c1.08,0,1.95,.28,2.62,.83s1.01,1.27,1.01,2.14h-1.63c0-.45-.19-.83-.57-1.15s-.85-.48-1.43-.48-1.05,.13-1.39,.39-.5,.59-.5,1.01c0,.39,.16,.69,.47,.89s.87,.39,1.68,.57,1.47,.4,1.97,.65,.88,.55,1.12,.91,.36,.79,.36,1.3c0,.85-.34,1.53-1.02,2.04s-1.56,.77-2.65,.77c-.76,0-1.44-.13-2.02-.4s-1.04-.65-1.38-1.13-.5-1.01-.5-1.57h1.63c.03,.54,.25,.98,.65,1.3s.94,.48,1.61,.48c.62,0,1.11-.12,1.48-.37s.56-.58,.56-1Z"/><path class="cls-5" d="M303.68,150.64c-1.29,0-2.34-.42-3.15-1.27s-1.21-1.98-1.21-3.4v-.3c0-.94,.18-1.79,.54-2.53s.86-1.32,1.51-1.74,1.35-.63,2.1-.63c1.24,0,2.2,.41,2.88,1.22s1.03,1.98,1.03,3.5v.68h-6.44c.02,.94,.3,1.69,.82,2.27s1.19,.87,2,.87c.57,0,1.06-.12,1.46-.35s.75-.54,1.05-.93l.99,.77c-.8,1.22-1.99,1.84-3.59,1.84Zm-.2-8.53c-.66,0-1.21,.24-1.65,.72s-.72,1.15-.83,2.01h4.76v-.12c-.05-.83-.27-1.47-.67-1.92s-.94-.68-1.62-.68Z"/><path class="cls-5" d="M311.48,138.65v2.3h1.78v1.26h-1.78v5.9c0,.38,.08,.67,.24,.86s.43,.29,.81,.29c.19,0,.45-.04,.77-.11v1.31c-.43,.12-.84,.17-1.25,.17-.73,0-1.27-.22-1.64-.66s-.55-1.06-.55-1.87v-5.9h-1.73v-1.26h1.73v-2.3h1.63Z"/></g><g><path class="cls-5" d="M578.06,115.2h-1.63v-10.84l-3.28,1.2v-1.48l4.66-1.75h.25v12.86Z"/><path class="cls-5" d="M583.57,108.78l.65-6.38h6.56v1.5h-5.18l-.39,3.49c.63-.37,1.34-.55,2.14-.55,1.17,0,2.09,.39,2.78,1.16s1.03,1.81,1.03,3.12-.36,2.36-1.07,3.12-1.71,1.14-2.98,1.14c-1.13,0-2.05-.31-2.77-.94s-1.12-1.49-1.22-2.6h1.54c.1,.73,.36,1.28,.78,1.66s.98,.56,1.67,.56c.76,0,1.35-.26,1.78-.77s.65-1.23,.65-2.14c0-.86-.23-1.54-.7-2.06s-1.08-.78-1.86-.78c-.71,0-1.27,.16-1.67,.47l-.43,.35-1.3-.33Z"/></g><g><path class="cls-5" d="M578.06,158.4h-1.63v-10.84l-3.28,1.2v-1.48l4.66-1.75h.25v12.86Z"/><path class="cls-5" d="M589.69,154.1h1.78v1.33h-1.78v2.97h-1.63v-2.97h-5.83v-.96l5.73-8.87h1.73v8.5Zm-5.62,0h3.98v-6.28l-.19,.35-3.79,5.92Z"/></g><g><path class="cls-5" d="M578.06,203.04h-1.63v-10.84l-3.28,1.2v-1.48l4.66-1.75h.25v12.86Z"/><path class="cls-5" d="M585.19,195.85h1.22c.77-.01,1.37-.21,1.81-.61s.66-.92,.66-1.59c0-1.5-.75-2.25-2.24-2.25-.7,0-1.26,.2-1.68,.6s-.63,.93-.63,1.6h-1.63c0-1.01,.37-1.86,1.11-2.53s1.68-1.01,2.83-1.01c1.21,0,2.15,.32,2.84,.96s1.03,1.53,1.03,2.66c0,.56-.18,1.1-.54,1.62s-.85,.91-1.47,1.17c.7,.22,1.25,.59,1.63,1.11s.58,1.15,.58,1.89c0,1.15-.38,2.06-1.12,2.73s-1.73,1.01-2.93,1.01-2.18-.33-2.93-.98-1.13-1.51-1.13-2.58h1.63c0,.67,.22,1.21,.66,1.62s1.03,.61,1.77,.61c.79,0,1.39-.21,1.8-.62s.62-1,.62-1.77-.23-1.32-.69-1.71-1.12-.6-1.98-.62h-1.22v-1.33Z"/></g><path class="cls-5" d="M802.15,118.08h-8.38v-1.17l4.43-4.92c.66-.74,1.11-1.35,1.36-1.81s.37-.95,.37-1.45c0-.67-.2-1.22-.61-1.64s-.94-.64-1.62-.64c-.81,0-1.44,.23-1.89,.69s-.67,1.1-.67,1.92h-1.63c0-1.18,.38-2.13,1.14-2.86s1.77-1.09,3.05-1.09c1.19,0,2.13,.31,2.82,.94s1.04,1.45,1.04,2.49c0,1.26-.8,2.76-2.41,4.5l-3.43,3.72h6.42v1.33Z"/><path class="cls-5" d="M799.11,161.28h-1.63v-10.84l-3.28,1.2v-1.48l4.66-1.75h.25v12.86Z"/><path class="cls-5" d="M796.13,197.29h1.22c.77-.01,1.37-.21,1.81-.61s.66-.92,.66-1.59c0-1.5-.75-2.25-2.24-2.25-.7,0-1.26,.2-1.68,.6s-.63,.93-.63,1.6h-1.63c0-1.01,.37-1.86,1.11-2.53s1.68-1.01,2.83-1.01c1.21,0,2.15,.32,2.84,.96s1.03,1.53,1.03,2.66c0,.56-.18,1.1-.54,1.62s-.85,.91-1.47,1.17c.7,.22,1.25,.59,1.63,1.11s.58,1.15,.58,1.89c0,1.15-.38,2.06-1.12,2.73s-1.73,1.01-2.93,1.01-2.18-.33-2.93-.98-1.13-1.51-1.13-2.58h1.63c0,.67,.22,1.21,.66,1.62s1.03,.61,1.77,.61c.79,0,1.39-.21,1.8-.62s.62-1,.62-1.77-.23-1.32-.69-1.71-1.12-.6-1.98-.62h-1.22v-1.33Z"/><path class="cls-5" d="M802.03,235.8l-5.3,11.88h-1.71l5.28-11.46h-6.93v-1.34h8.65v.91Z"/><g><path class="cls-5" d="M794.06,290.88h-1.63v-10.84l-3.28,1.2v-1.48l4.66-1.75h.25v12.86Z"/><path class="cls-5" d="M804.17,290.88h-1.63v-10.84l-3.28,1.2v-1.48l4.66-1.75h.25v12.86Z"/></g><path class="cls-5" d="M800.63,329.78h1.78v1.33h-1.78v2.97h-1.63v-2.97h-5.83v-.96l5.73-8.87h1.73v8.5Zm-5.62,0h3.98v-6.28l-.19,.35-3.79,5.92Z"/><path class="cls-5" d="M794.52,370.86l.65-6.38h6.56v1.5h-5.18l-.39,3.49c.63-.37,1.34-.55,2.14-.55,1.17,0,2.09,.39,2.78,1.16s1.03,1.81,1.03,3.12-.36,2.36-1.07,3.12-1.71,1.14-2.98,1.14c-1.13,0-2.05-.31-2.77-.94s-1.12-1.49-1.22-2.6h1.54c.1,.73,.36,1.29,.78,1.66s.98,.56,1.67,.56c.76,0,1.35-.26,1.78-.77s.65-1.23,.65-2.14c0-.86-.23-1.54-.7-2.06s-1.08-.78-1.86-.78c-.71,0-1.27,.16-1.67,.47l-.43,.35-1.3-.33Z"/><g><path class="cls-5" d="M794.06,420.48h-1.63v-10.84l-3.28,1.2v-1.48l4.66-1.75h.25v12.86Z"/><path class="cls-5" d="M806.85,415.02c0,1.9-.33,3.32-.98,4.25s-1.67,1.39-3.05,1.39-2.38-.45-3.03-1.36-1-2.26-1.02-4.06v-2.17c0-1.88,.33-3.28,.98-4.19s1.67-1.37,3.06-1.37,2.39,.44,3.04,1.32,.98,2.24,1,4.08v2.11Zm-1.63-2.22c0-1.38-.19-2.38-.58-3.01s-1-.95-1.84-.95-1.44,.31-1.82,.94-.58,1.59-.59,2.89v2.6c0,1.38,.2,2.4,.6,3.06s1.01,.99,1.82,.99,1.4-.31,1.79-.93,.59-1.6,.61-2.94v-2.66Z"/></g><g><path class="cls-5" d="M794.06,463.68h-1.63v-10.84l-3.28,1.2v-1.48l4.66-1.75h.25v12.86Z"/><path class="cls-5" d="M807.21,463.68h-8.38v-1.17l4.43-4.92c.66-.74,1.11-1.35,1.36-1.81s.37-.95,.37-1.45c0-.67-.2-1.22-.61-1.64s-.94-.64-1.62-.64c-.81,0-1.44,.23-1.89,.69s-.67,1.1-.67,1.92h-1.63c0-1.18,.38-2.13,1.14-2.86s1.77-1.09,3.05-1.09c1.19,0,2.13,.31,2.82,.94s1.04,1.45,1.04,2.49c0,1.26-.8,2.76-2.41,4.5l-3.43,3.72h6.42v1.33Z"/></g><g><path class="cls-5" d="M720.08,560.8l3.66-10.56h1.85l-4.75,12.8h-1.49l-4.74-12.8h1.84l3.64,10.56Z"/><path class="cls-5" d="M729.31,559.24c-.96-.28-1.67-.62-2.11-1.02s-.66-.9-.66-1.5c0-.67,.27-1.23,.81-1.67s1.24-.66,2.09-.66c.59,0,1.11,.11,1.57,.34s.81,.54,1.07,.94,.38,.83,.38,1.31h-1.13c0-.52-.16-.92-.49-1.22s-.79-.44-1.39-.44c-.55,0-.99,.12-1.3,.37-.31,.24-.47,.58-.47,1.02,0,.35,.15,.64,.44,.88s.8,.46,1.51,.66c.71,.2,1.26,.42,1.66,.66s.7,.52,.89,.84,.29,.7,.29,1.13c0,.69-.27,1.25-.81,1.66s-1.26,.62-2.16,.62c-.59,0-1.13-.11-1.64-.34s-.9-.53-1.17-.92-.41-.83-.41-1.33h1.13c0,.52,.19,.92,.57,1.22s.89,.45,1.53,.45c.59,0,1.05-.12,1.37-.36s.47-.57,.47-.99-.15-.74-.44-.97-.82-.45-1.59-.68Z"/><path class="cls-5" d="M736.43,559.24c-.96-.28-1.67-.62-2.11-1.02s-.66-.9-.66-1.5c0-.67,.27-1.23,.81-1.67s1.24-.66,2.09-.66c.59,0,1.11,.11,1.57,.34s.81,.54,1.07,.94,.38,.83,.38,1.31h-1.13c0-.52-.16-.92-.49-1.22s-.79-.44-1.39-.44c-.55,0-.99,.12-1.3,.37-.31,.24-.47,.58-.47,1.02,0,.35,.15,.64,.44,.88s.8,.46,1.51,.66c.71,.2,1.26,.42,1.66,.66s.7,.52,.89,.84,.29,.7,.29,1.13c0,.69-.27,1.25-.81,1.66s-1.26,.62-2.16,.62c-.59,0-1.13-.11-1.64-.34s-.9-.53-1.17-.92-.41-.83-.41-1.33h1.13c0,.52,.19,.92,.57,1.22s.89,.45,1.53,.45c.59,0,1.05-.12,1.37-.36s.47-.57,.47-.99-.15-.74-.44-.97-.82-.45-1.59-.68Z"/></g><g><path class="cls-5" d="M472.29,156.32c-.16,1.35-.66,2.4-1.5,3.13s-1.96,1.1-3.35,1.1c-1.51,0-2.72-.54-3.63-1.63s-1.37-2.53-1.37-4.35v-1.23c0-1.19,.21-2.24,.64-3.14s1.03-1.6,1.81-2.08,1.68-.73,2.71-.73c1.36,0,2.45,.38,3.27,1.14s1.3,1.81,1.43,3.15h-1.7c-.15-1.02-.46-1.76-.95-2.22s-1.17-.69-2.05-.69c-1.08,0-1.92,.4-2.54,1.2-.61,.8-.92,1.93-.92,3.4v1.24c0,1.39,.29,2.5,.87,3.32s1.39,1.23,2.43,1.23c.94,0,1.66-.21,2.16-.64s.83-1.16,1-2.22h1.7Z"/><path class="cls-5" d="M476.11,160.38h-1.63v-13.5h1.63v13.5Z"/><path class="cls-5" d="M478.28,155.54c0-.93,.18-1.77,.55-2.51s.88-1.32,1.53-1.72,1.4-.61,2.24-.61c1.3,0,2.34,.45,3.14,1.34s1.2,2.09,1.2,3.58v.11c0,.93-.18,1.76-.53,2.49s-.86,1.31-1.52,1.72-1.42,.62-2.27,.62c-1.29,0-2.33-.45-3.13-1.34s-1.2-2.08-1.2-3.56v-.11Zm1.63,.19c0,1.05,.24,1.9,.73,2.54s1.14,.96,1.96,.96,1.48-.32,1.97-.97,.73-1.55,.73-2.72c0-1.04-.25-1.89-.74-2.54s-1.15-.97-1.97-.97-1.45,.32-1.94,.96-.74,1.55-.74,2.74Z"/><path class="cls-5" d="M492.79,159.23c.58,0,1.09-.18,1.52-.53s.67-.79,.72-1.32h1.54c-.03,.54-.22,1.06-.56,1.56s-.81,.88-1.38,1.18-1.19,.44-1.83,.44c-1.29,0-2.33-.43-3.09-1.3s-1.15-2.05-1.15-3.55v-.27c0-.93,.17-1.75,.51-2.47s.83-1.28,1.46-1.68,1.39-.6,2.25-.6c1.07,0,1.95,.32,2.66,.96s1.08,1.47,1.13,2.49h-1.54c-.05-.62-.28-1.12-.7-1.52s-.94-.59-1.55-.59c-.83,0-1.47,.3-1.92,.89s-.68,1.45-.68,2.58v.31c0,1.1,.23,1.94,.68,2.53s1.1,.89,1.93,.89Z"/><path class="cls-5" d="M501.05,155.98l-1.02,1.06v3.34h-1.63v-13.5h1.63v8.17l.87-1.05,2.96-3.13h1.98l-3.7,3.97,4.13,5.54h-1.91l-3.31-4.4Z"/></g><g><path class="cls-5" d="M469.1,202.4c-.16,1.35-.66,2.4-1.5,3.13s-1.96,1.1-3.35,1.1c-1.51,0-2.72-.54-3.63-1.63s-1.37-2.53-1.37-4.35v-1.23c0-1.19,.21-2.24,.64-3.14s1.03-1.6,1.81-2.08,1.68-.73,2.71-.73c1.36,0,2.45,.38,3.27,1.14s1.3,1.81,1.43,3.15h-1.7c-.15-1.02-.46-1.76-.95-2.22s-1.17-.69-2.05-.69c-1.08,0-1.92,.4-2.54,1.2-.61,.8-.92,1.93-.92,3.4v1.24c0,1.39,.29,2.5,.87,3.32s1.39,1.23,2.43,1.23c.94,0,1.66-.21,2.16-.64s.83-1.16,1-2.22h1.7Z"/><path class="cls-5" d="M472.91,206.46h-1.63v-13.5h1.63v13.5Z"/><path class="cls-5" d="M475.08,201.62c0-.93,.18-1.77,.55-2.51s.88-1.32,1.53-1.72,1.4-.61,2.24-.61c1.29,0,2.34,.45,3.14,1.34,.8,.9,1.2,2.09,1.2,3.58v.11c0,.93-.18,1.76-.53,2.49-.35,.74-.86,1.31-1.52,1.72s-1.42,.62-2.27,.62c-1.29,0-2.33-.45-3.13-1.34s-1.2-2.08-1.2-3.56v-.11Zm1.63,.19c0,1.05,.24,1.9,.73,2.54s1.14,.96,1.96,.96,1.48-.32,1.97-.97,.73-1.55,.73-2.72c0-1.04-.25-1.89-.74-2.54s-1.15-.97-1.97-.97-1.45,.32-1.94,.96-.74,1.55-.74,2.74Z"/><path class="cls-5" d="M489.59,205.31c.58,0,1.09-.18,1.52-.53s.67-.79,.72-1.32h1.54c-.03,.54-.22,1.06-.56,1.56s-.81,.88-1.38,1.18-1.19,.44-1.83,.44c-1.29,0-2.32-.43-3.09-1.3s-1.15-2.05-1.15-3.55v-.27c0-.93,.17-1.75,.51-2.47s.83-1.28,1.46-1.68,1.39-.6,2.25-.6c1.07,0,1.95,.32,2.66,.96s1.08,1.47,1.13,2.49h-1.54c-.05-.62-.28-1.12-.7-1.52s-.94-.59-1.55-.59c-.83,0-1.47,.3-1.92,.89s-.68,1.45-.68,2.58v.31c0,1.1,.23,1.94,.68,2.53s1.1,.89,1.93,.89Z"/><path class="cls-5" d="M497.85,202.06l-1.02,1.06v3.34h-1.63v-13.5h1.63v8.17l.87-1.05,2.96-3.13h1.98l-3.7,3.97,4.13,5.54h-1.91l-3.31-4.4Z"/><path class="cls-5" d="M510.84,206.46h-1.69v-12.8h1.69v12.8Z"/><path class="cls-5" d="M515.21,196.95l.05,1.2c.73-.91,1.68-1.37,2.85-1.37,2.01,0,3.02,1.13,3.04,3.4v6.28h-1.63v-6.29c0-.69-.16-1.19-.47-1.52s-.79-.49-1.44-.49c-.53,0-.99,.14-1.39,.42s-.71,.65-.93,1.11v6.78h-1.63v-9.51h1.54Z"/><path class="cls-5" d="M525.23,198.1c.72-.88,1.66-1.33,2.81-1.33,2.01,0,3.02,1.13,3.04,3.4v6.28h-1.63v-6.29c0-.69-.16-1.19-.47-1.52s-.79-.49-1.44-.49c-.53,0-.99,.14-1.39,.42s-.71,.65-.93,1.11v6.78h-1.63v-13.5h1.63v5.14Z"/><path class="cls-5" d="M533.53,194.43c0-.26,.08-.49,.24-.67s.4-.27,.72-.27,.56,.09,.72,.27,.25,.4,.25,.67-.08,.48-.25,.66-.4,.26-.72,.26-.55-.09-.72-.26-.24-.4-.24-.66Zm1.76,12.03h-1.63v-9.51h1.63v9.51Z"/><path class="cls-5" d="M545.94,201.81c0,1.45-.33,2.62-1,3.5s-1.56,1.32-2.69,1.32c-1.2,0-2.13-.42-2.79-1.27l-.08,1.1h-1.49v-13.5h1.63v5.04c.66-.81,1.56-1.22,2.72-1.22s2.06,.44,2.72,1.31,.99,2.07,.99,3.59v.14Zm-1.63-.18c0-1.11-.21-1.96-.64-2.57s-1.04-.91-1.85-.91c-1.07,0-1.84,.5-2.31,1.49v4.11c.5,1,1.27,1.49,2.33,1.49,.78,0,1.39-.3,1.82-.91s.65-1.51,.65-2.72Z"/><path class="cls-5" d="M547.99,194.43c0-.26,.08-.49,.24-.67s.4-.27,.72-.27,.56,.09,.72,.27,.25,.4,.25,.67-.08,.48-.25,.66-.4,.26-.72,.26-.55-.09-.72-.26-.24-.4-.24-.66Zm1.76,12.03h-1.63v-9.51h1.63v9.51Z"/><path class="cls-5" d="M554.56,194.65v2.3h1.78v1.26h-1.78v5.9c0,.38,.08,.67,.24,.86,.16,.19,.43,.29,.81,.29,.19,0,.45-.04,.77-.11v1.31c-.43,.12-.84,.17-1.25,.17-.73,0-1.27-.22-1.64-.66s-.55-1.06-.55-1.87v-5.9h-1.73v-1.26h1.73v-2.3h1.63Z"/></g><g><path class="cls-5" d="M467.36,114.88h-3.01v5.18h-1.7v-12.8h4.24c1.44,0,2.55,.33,3.33,.98s1.16,1.61,1.16,2.87c0,.8-.22,1.49-.65,2.08s-1.03,1.03-1.8,1.33l3.01,5.43v.11h-1.81l-2.78-5.18Zm-3.01-1.38h2.59c.84,0,1.5-.22,2-.65,.5-.43,.74-1.02,.74-1.74,0-.79-.24-1.4-.71-1.82-.47-.42-1.15-.64-2.04-.64h-2.58v4.86Z"/><path class="cls-5" d="M477.44,120.24c-1.29,0-2.34-.42-3.15-1.27s-1.21-1.98-1.21-3.4v-.3c0-.94,.18-1.79,.54-2.53s.86-1.32,1.51-1.74,1.35-.63,2.1-.63c1.24,0,2.2,.41,2.88,1.22s1.03,1.98,1.03,3.5v.68h-6.44c.02,.94,.3,1.69,.82,2.27s1.19,.87,2,.87c.57,0,1.06-.12,1.46-.35s.75-.54,1.05-.93l.99,.77c-.8,1.22-1.99,1.84-3.59,1.84Zm-.2-8.53c-.66,0-1.21,.24-1.65,.72s-.72,1.15-.83,2.01h4.76v-.12c-.05-.83-.27-1.47-.67-1.92s-.94-.68-1.62-.68Z"/><path class="cls-5" d="M488.57,117.54c0-.44-.17-.78-.5-1.02s-.91-.45-1.73-.63-1.48-.39-1.96-.63-.84-.54-1.07-.88-.35-.74-.35-1.21c0-.78,.33-1.44,.99-1.98s1.5-.81,2.53-.81c1.08,0,1.95,.28,2.62,.83s1.01,1.27,1.01,2.14h-1.63c0-.45-.19-.83-.57-1.15s-.85-.48-1.43-.48-1.05,.13-1.39,.39-.5,.59-.5,1.01c0,.39,.16,.69,.47,.89s.87,.39,1.68,.57,1.47,.4,1.97,.65,.88,.56,1.12,.91,.37,.79,.37,1.3c0,.85-.34,1.53-1.02,2.04s-1.56,.77-2.65,.77c-.76,0-1.44-.13-2.02-.4s-1.04-.65-1.38-1.13-.5-1.01-.5-1.57h1.63c.03,.54,.25,.98,.65,1.3s.95,.48,1.61,.48c.62,0,1.11-.12,1.48-.37s.56-.58,.56-1Z"/><path class="cls-5" d="M496.26,120.24c-1.29,0-2.34-.42-3.15-1.27s-1.21-1.98-1.21-3.4v-.3c0-.94,.18-1.79,.54-2.53s.86-1.32,1.51-1.74,1.35-.63,2.11-.63c1.24,0,2.2,.41,2.88,1.22s1.03,1.98,1.03,3.5v.68h-6.44c.02,.94,.3,1.69,.82,2.27s1.19,.87,2,.87c.57,0,1.06-.12,1.46-.35s.75-.54,1.05-.93l.99,.77c-.8,1.22-1.99,1.84-3.59,1.84Zm-.2-8.53c-.66,0-1.21,.24-1.65,.72s-.72,1.15-.83,2.01h4.76v-.12c-.05-.83-.27-1.47-.67-1.92s-.94-.68-1.62-.68Z"/><path class="cls-5" d="M504.06,108.25v2.3h1.78v1.26h-1.78v5.9c0,.38,.08,.67,.24,.86,.16,.19,.43,.29,.81,.29,.19,0,.45-.04,.77-.11v1.31c-.43,.12-.84,.17-1.25,.17-.73,0-1.27-.22-1.64-.66s-.55-1.06-.55-1.87v-5.9h-1.73v-1.26h1.73v-2.3h1.63Z"/></g><g><path class="cls-5" d="M882.04,523.52c-.16,1.35-.66,2.4-1.5,3.13s-1.96,1.1-3.35,1.1c-1.51,0-2.72-.54-3.63-1.63s-1.37-2.53-1.37-4.35v-1.23c0-1.19,.21-2.24,.64-3.14s1.03-1.6,1.81-2.08,1.68-.72,2.71-.72c1.36,0,2.45,.38,3.27,1.14s1.3,1.81,1.43,3.15h-1.7c-.15-1.02-.46-1.76-.95-2.22-.49-.46-1.17-.69-2.05-.69-1.08,0-1.92,.4-2.54,1.2s-.92,1.93-.92,3.4v1.24c0,1.39,.29,2.5,.87,3.32,.58,.82,1.39,1.23,2.43,1.23,.94,0,1.66-.21,2.16-.64s.83-1.16,1-2.22h1.7Z"/><path class="cls-5" d="M889.96,527.58c-.09-.19-.17-.52-.23-1-.76,.79-1.66,1.18-2.71,1.18-.94,0-1.71-.27-2.31-.8s-.9-1.2-.9-2.02c0-.99,.38-1.76,1.13-2.31s1.81-.82,3.18-.82h1.58v-.75c0-.57-.17-1.02-.51-1.36s-.84-.5-1.5-.5c-.58,0-1.07,.15-1.46,.44s-.59,.65-.59,1.06h-1.63c0-.47,.17-.93,.51-1.38s.79-.79,1.37-1.05,1.21-.39,1.9-.39c1.1,0,1.95,.27,2.58,.82s.94,1.3,.97,2.26v4.38c0,.87,.11,1.57,.33,2.08v.14h-1.71Zm-2.7-1.24c.51,0,.99-.13,1.45-.4s.79-.61,.99-1.03v-1.95h-1.27c-1.99,0-2.99,.58-2.99,1.75,0,.51,.17,.91,.51,1.2s.78,.43,1.31,.43Z"/><path class="cls-5" d="M898.48,519.53c-.25-.04-.51-.06-.8-.06-1.07,0-1.79,.45-2.17,1.36v6.75h-1.63v-9.51h1.58l.03,1.1c.53-.85,1.29-1.27,2.27-1.27,.32,0,.56,.04,.72,.12v1.51Z"/><path class="cls-5" d="M904.57,519.53c-.25-.04-.51-.06-.8-.06-1.07,0-1.79,.45-2.17,1.36v6.75h-1.63v-9.51h1.58l.03,1.1c.53-.85,1.29-1.27,2.27-1.27,.32,0,.56,.04,.72,.12v1.51Z"/><path class="cls-5" d="M909.33,525.2l2.21-7.13h1.74l-3.82,10.98c-.59,1.58-1.53,2.37-2.82,2.37l-.31-.03-.61-.11v-1.32l.44,.04c.55,0,.98-.11,1.29-.33s.56-.63,.76-1.22l.36-.97-3.39-9.4h1.78l2.37,7.13Z"/><path class="cls-5" d="M929.29,521.6c0,1.25-.21,2.35-.63,3.28s-1.02,1.65-1.79,2.14-1.68,.74-2.71,.74-1.9-.25-2.68-.74-1.38-1.2-1.81-2.12-.65-1.98-.66-3.19v-.92c0-1.23,.21-2.32,.64-3.26s1.03-1.67,1.82-2.17,1.68-.75,2.68-.75,1.93,.25,2.71,.74,1.38,1.21,1.81,2.15,.63,2.04,.63,3.28v.81Zm-1.68-.83c0-1.52-.3-2.68-.91-3.49s-1.46-1.22-2.56-1.22-1.91,.41-2.52,1.22-.93,1.94-.95,3.38v.94c0,1.47,.31,2.63,.93,3.47s1.47,1.26,2.55,1.26,1.93-.4,2.53-1.19,.91-1.93,.92-3.41v-.95Z"/><path class="cls-5" d="M937.44,526.64c-.63,.74-1.56,1.12-2.79,1.12-1.01,0-1.79-.29-2.32-.88s-.8-1.46-.8-2.61v-6.19h1.63v6.14c0,1.44,.59,2.16,1.76,2.16,1.24,0,2.07-.46,2.48-1.39v-6.92h1.63v9.51h-1.55l-.04-.94Z"/><path class="cls-5" d="M943.7,515.77v2.3h1.78v1.26h-1.78v5.9c0,.38,.08,.67,.24,.86s.43,.29,.81,.29c.19,0,.45-.04,.77-.11v1.31c-.43,.12-.84,.17-1.25,.17-.73,0-1.27-.22-1.64-.66s-.55-1.06-.55-1.87v-5.9h-1.73v-1.26h1.73v-2.3h1.63Z"/></g><g><path class="cls-5" d="M713.57,59.68l3.66-10.56h1.85l-4.75,12.8h-1.49l-4.74-12.8h1.84l3.64,10.56Z"/><path class="cls-5" d="M720.29,61.92v-8.53h2.41c.74,0,1.4,.16,1.97,.49s1.01,.79,1.32,1.4,.47,1.3,.47,2.09v.54c0,.8-.16,1.51-.47,2.12s-.75,1.07-1.33,1.39-1.25,.49-2.01,.5h-2.36Zm1.12-7.61v6.69h1.18c.87,0,1.54-.27,2.02-.81s.72-1.31,.72-2.31v-.5c0-.97-.23-1.72-.68-2.26-.46-.54-1.1-.81-1.94-.82h-1.31Z"/><path class="cls-5" d="M728.16,61.92v-8.53h2.41c.74,0,1.4,.16,1.97,.49s1.01,.79,1.32,1.4,.47,1.3,.47,2.09v.54c0,.8-.16,1.51-.47,2.12s-.75,1.07-1.33,1.39-1.25,.49-2.01,.5h-2.36Zm1.12-7.61v6.69h1.18c.87,0,1.54-.27,2.02-.81s.72-1.31,.72-2.31v-.5c0-.97-.23-1.72-.68-2.26-.46-.54-1.1-.81-1.94-.82h-1.31Z"/></g><g><path class="cls-5" d="M996.15,115.93l.93,.63c-.54,.74-.83,1.55-.84,2.41v1.2h-1.62v-1.02c0-.6,.14-1.19,.43-1.78s.65-1.07,1.1-1.44Zm2.77,0l.93,.63c-.54,.74-.83,1.55-.84,2.41v1.2h-1.62v-1.02c0-.6,.14-1.19,.43-1.78s.65-1.07,1.1-1.44Z"/><path class="cls-5" d="M1009.15,124.14c0,1.9-.33,3.32-.98,4.25s-1.67,1.39-3.05,1.39-2.38-.45-3.03-1.36-1-2.26-1.02-4.06v-2.17c0-1.88,.33-3.28,.98-4.19s1.67-1.37,3.06-1.37,2.39,.44,3.04,1.32,.98,2.24,1,4.08v2.11Zm-1.63-2.22c0-1.38-.19-2.38-.58-3.01s-1-.94-1.84-.94-1.44,.31-1.82,.94-.58,1.59-.59,2.89v2.6c0,1.38,.2,2.4,.6,3.06s1.01,.99,1.82,.99,1.4-.31,1.79-.93,.59-1.6,.61-2.94v-2.66Z"/><path class="cls-5" d="M1012.62,115.93l.93,.63c-.54,.74-.83,1.55-.84,2.41v1.2h-1.62v-1.02c0-.6,.14-1.19,.43-1.78s.65-1.07,1.1-1.44Zm2.77,0l.93,.63c-.54,.74-.83,1.55-.84,2.41v1.2h-1.62v-1.02c0-.6,.14-1.19,.43-1.78s.65-1.07,1.1-1.44Z"/></g><g><path class="cls-5" d="M996.15,159.13l.93,.63c-.54,.74-.83,1.55-.84,2.41v1.2h-1.62v-1.02c0-.6,.14-1.19,.43-1.78s.65-1.07,1.1-1.44Zm2.77,0l.93,.63c-.54,.74-.83,1.55-.84,2.41v1.2h-1.62v-1.02c0-.6,.14-1.19,.43-1.78s.65-1.07,1.1-1.44Z"/><path class="cls-5" d="M1006.47,172.8h-1.63v-10.84l-3.28,1.2v-1.48l4.66-1.75h.25v12.86Z"/><path class="cls-5" d="M1012.62,159.13l.93,.63c-.54,.74-.83,1.55-.84,2.41v1.2h-1.62v-1.02c0-.6,.14-1.19,.43-1.78s.65-1.07,1.1-1.44Zm2.77,0l.93,.63c-.54,.74-.83,1.55-.84,2.41v1.2h-1.62v-1.02c0-.6,.14-1.19,.43-1.78s.65-1.07,1.1-1.44Z"/></g><g><path class="cls-5" d="M996.15,202.33l.93,.63c-.54,.74-.83,1.55-.84,2.41v1.2h-1.62v-1.02c0-.6,.14-1.19,.43-1.78s.65-1.07,1.1-1.44Zm2.77,0l.93,.63c-.54,.74-.83,1.55-.84,2.41v1.2h-1.62v-1.02c0-.6,.14-1.19,.43-1.78s.65-1.07,1.1-1.44Z"/><path class="cls-5" d="M1009.51,216h-8.38v-1.17l4.43-4.92c.66-.74,1.11-1.35,1.36-1.81s.37-.95,.37-1.45c0-.67-.2-1.22-.61-1.64s-.94-.64-1.62-.64c-.81,0-1.44,.23-1.88,.69s-.67,1.1-.67,1.92h-1.63c0-1.18,.38-2.13,1.14-2.86s1.77-1.09,3.04-1.09c1.19,0,2.13,.31,2.82,.94s1.04,1.45,1.04,2.49c0,1.26-.8,2.76-2.41,4.5l-3.43,3.72h6.42v1.33Z"/><path class="cls-5" d="M1012.62,202.33l.93,.63c-.54,.74-.83,1.55-.84,2.41v1.2h-1.62v-1.02c0-.6,.14-1.19,.43-1.78s.65-1.07,1.1-1.44Zm2.77,0l.93,.63c-.54,.74-.83,1.55-.84,2.41v1.2h-1.62v-1.02c0-.6,.14-1.19,.43-1.78s.65-1.07,1.1-1.44Z"/></g><g><path class="cls-5" d="M996.15,245.53l.93,.63c-.54,.74-.83,1.55-.84,2.41v1.2h-1.62v-1.02c0-.6,.14-1.19,.43-1.78,.29-.59,.65-1.07,1.1-1.44Zm2.77,0l.93,.63c-.54,.74-.83,1.55-.84,2.41v1.2h-1.62v-1.02c0-.6,.14-1.19,.43-1.78,.28-.59,.65-1.07,1.1-1.44Z"/><path class="cls-5" d="M1003.49,252.01h1.22c.77-.01,1.37-.21,1.81-.61s.66-.92,.66-1.59c0-1.5-.75-2.25-2.24-2.25-.7,0-1.26,.2-1.68,.6-.42,.4-.63,.93-.63,1.6h-1.63c0-1.01,.37-1.86,1.11-2.53,.74-.67,1.68-1.01,2.83-1.01,1.21,0,2.15,.32,2.84,.96s1.03,1.53,1.03,2.66c0,.56-.18,1.1-.54,1.62-.36,.52-.85,.91-1.47,1.17,.7,.22,1.25,.59,1.63,1.11,.38,.52,.58,1.15,.58,1.89,0,1.15-.38,2.06-1.12,2.73s-1.73,1.01-2.93,1.01-2.18-.33-2.93-.98c-.75-.65-1.13-1.51-1.13-2.58h1.63c0,.67,.22,1.21,.66,1.62s1.03,.61,1.77,.61c.79,0,1.39-.21,1.8-.62s.62-1,.62-1.77-.23-1.32-.69-1.71-1.12-.6-1.98-.62h-1.22v-1.33Z"/><path class="cls-5" d="M1012.62,245.53l.93,.63c-.54,.74-.83,1.55-.84,2.41v1.2h-1.62v-1.02c0-.6,.14-1.19,.43-1.78,.29-.59,.65-1.07,1.1-1.44Zm2.77,0l.93,.63c-.54,.74-.83,1.55-.84,2.41v1.2h-1.62v-1.02c0-.6,.14-1.19,.43-1.78,.28-.59,.65-1.07,1.1-1.44Z"/></g><g><path class="cls-5" d="M996.15,288.73l.93,.63c-.54,.74-.83,1.55-.84,2.41v1.2h-1.62v-1.02c0-.6,.14-1.19,.43-1.78s.65-1.07,1.1-1.44Zm2.77,0l.93,.63c-.54,.74-.83,1.55-.84,2.41v1.2h-1.62v-1.02c0-.6,.14-1.19,.43-1.78s.65-1.07,1.1-1.44Z"/><path class="cls-5" d="M1007.99,298.1h1.78v1.33h-1.78v2.97h-1.63v-2.97h-5.83v-.96l5.73-8.87h1.73v8.5Zm-5.62,0h3.98v-6.28l-.19,.35-3.79,5.92Z"/><path class="cls-5" d="M1012.62,288.73l.93,.63c-.54,.74-.83,1.55-.84,2.41v1.2h-1.62v-1.02c0-.6,.14-1.19,.43-1.78s.65-1.07,1.1-1.44Zm2.77,0l.93,.63c-.54,.74-.83,1.55-.84,2.41v1.2h-1.62v-1.02c0-.6,.14-1.19,.43-1.78s.65-1.07,1.1-1.44Z"/></g><g><path class="cls-5" d="M996.15,331.93l.93,.63c-.54,.74-.83,1.55-.84,2.41v1.2h-1.62v-1.02c0-.6,.14-1.19,.43-1.78s.65-1.07,1.1-1.44Zm2.77,0l.93,.63c-.54,.74-.83,1.55-.84,2.41v1.2h-1.62v-1.02c0-.6,.14-1.19,.43-1.78s.65-1.07,1.1-1.44Z"/><path class="cls-5" d="M1001.88,339.18l.65-6.38h6.56v1.5h-5.18l-.39,3.49c.63-.37,1.34-.55,2.14-.55,1.17,0,2.09,.38,2.78,1.16s1.03,1.81,1.03,3.12-.36,2.36-1.07,3.12-1.71,1.14-2.98,1.14c-1.13,0-2.05-.31-2.77-.94s-1.12-1.49-1.22-2.6h1.54c.1,.73,.36,1.28,.78,1.66s.98,.56,1.67,.56c.76,0,1.35-.26,1.78-.77s.65-1.23,.65-2.14c0-.86-.23-1.54-.7-2.06s-1.08-.78-1.86-.78c-.71,0-1.27,.16-1.67,.47l-.43,.35-1.3-.33Z"/><path class="cls-5" d="M1012.62,331.93l.93,.63c-.54,.74-.83,1.55-.84,2.41v1.2h-1.62v-1.02c0-.6,.14-1.19,.43-1.78s.65-1.07,1.1-1.44Zm2.77,0l.93,.63c-.54,.74-.83,1.55-.84,2.41v1.2h-1.62v-1.02c0-.6,.14-1.19,.43-1.78s.65-1.07,1.1-1.44Z"/></g><g><path class="cls-5" d="M996.15,375.13l.93,.63c-.54,.74-.83,1.55-.84,2.41v1.2h-1.62v-1.02c0-.6,.14-1.19,.43-1.78s.65-1.07,1.1-1.44Zm2.77,0l.93,.63c-.54,.74-.83,1.55-.84,2.41v1.2h-1.62v-1.02c0-.6,.14-1.19,.43-1.78s.65-1.07,1.1-1.44Z"/><path class="cls-5" d="M1007.51,375.99v1.38h-.3c-1.27,.02-2.27,.4-3.02,1.12s-1.18,1.75-1.3,3.07c.67-.77,1.59-1.16,2.76-1.16s2,.39,2.67,1.18,1,1.8,1,3.04c0,1.32-.36,2.37-1.08,3.16s-1.68,1.19-2.89,1.19-2.22-.47-2.98-1.41-1.14-2.15-1.14-3.63v-.62c0-2.36,.5-4.16,1.51-5.4s2.5-1.88,4.49-1.91h.29Zm-2.14,5.77c-.56,0-1.07,.17-1.54,.5s-.79,.75-.98,1.26v.6c0,1.05,.24,1.9,.71,2.55s1.07,.97,1.78,.97,1.31-.27,1.73-.81,.63-1.25,.63-2.12-.21-1.59-.64-2.13-.99-.81-1.69-.81Z"/><path class="cls-5" d="M1012.62,375.13l.93,.63c-.54,.74-.83,1.55-.84,2.41v1.2h-1.62v-1.02c0-.6,.14-1.19,.43-1.78s.65-1.07,1.1-1.44Zm2.77,0l.93,.63c-.54,.74-.83,1.55-.84,2.41v1.2h-1.62v-1.02c0-.6,.14-1.19,.43-1.78s.65-1.07,1.1-1.44Z"/></g><g><path class="cls-5" d="M996.15,418.33l.93,.63c-.54,.74-.83,1.55-.84,2.41v1.2h-1.62v-1.02c0-.6,.14-1.19,.43-1.78s.65-1.07,1.1-1.44Zm2.77,0l.93,.63c-.54,.74-.83,1.55-.84,2.41v1.2h-1.62v-1.02c0-.6,.14-1.19,.43-1.78s.65-1.07,1.1-1.44Z"/><path class="cls-5" d="M1009.39,420.12l-5.3,11.88h-1.71l5.28-11.46h-6.93v-1.34h8.65v.91Z"/><path class="cls-5" d="M1012.62,418.33l.93,.63c-.54,.74-.83,1.55-.84,2.41v1.2h-1.62v-1.02c0-.6,.14-1.19,.43-1.78s.65-1.07,1.1-1.44Zm2.77,0l.93,.63c-.54,.74-.83,1.55-.84,2.41v1.2h-1.62v-1.02c0-.6,.14-1.19,.43-1.78s.65-1.07,1.1-1.44Z"/></g><g><path class="cls-5" d="M764.64,345.78h-12.8v-3.61c0-1.11,.25-2.1,.74-2.95s1.19-1.52,2.1-1.98,1.95-.7,3.13-.71h.82c1.21,0,2.26,.23,3.17,.7s1.61,1.13,2.09,2,.74,1.87,.75,3.02v3.54Zm-11.42-1.69h10.04v-1.78c0-1.3-.41-2.31-1.21-3.04s-1.96-1.08-3.46-1.08h-.75c-1.45,0-2.58,.34-3.39,1.02s-1.22,1.65-1.23,2.9v1.97Z"/><path class="cls-5" d="M764.82,330.28c0,1.29-.42,2.34-1.27,3.15-.85,.81-1.98,1.21-3.4,1.21h-.3c-.94,0-1.79-.18-2.53-.54-.74-.36-1.32-.86-1.74-1.51-.42-.65-.63-1.35-.63-2.11,0-1.24,.41-2.2,1.22-2.88s1.98-1.03,3.5-1.03h.68v6.44c.94-.02,1.7-.3,2.27-.82,.58-.52,.87-1.19,.87-2,0-.57-.12-1.06-.35-1.46s-.54-.75-.93-1.05l.77-.99c1.22,.8,1.84,1.99,1.84,3.59Zm-8.53,.2c0,.66,.24,1.21,.72,1.65,.48,.45,1.15,.72,2.01,.83v-4.76h-.12c-.83,.05-1.47,.27-1.92,.67-.46,.4-.68,.94-.68,1.62Z"/><path class="cls-5" d="M763.49,320.88c0-.58-.18-1.09-.53-1.52s-.79-.67-1.32-.72v-1.54c.54,.03,1.06,.22,1.56,.56s.88,.81,1.18,1.38,.44,1.19,.44,1.83c0,1.29-.43,2.32-1.3,3.09-.86,.76-2.05,1.15-3.55,1.15h-.27c-.93,0-1.75-.17-2.47-.51s-1.28-.83-1.68-1.46-.6-1.39-.6-2.25c0-1.07,.32-1.95,.96-2.66s1.47-1.08,2.49-1.13v1.54c-.62,.05-1.12,.28-1.52,.7-.4,.42-.59,.94-.59,1.55,0,.83,.3,1.47,.89,1.92,.59,.45,1.45,.68,2.58,.68h.31c1.1,0,1.94-.22,2.53-.68s.89-1.1,.89-1.93Z"/><path class="cls-5" d="M759.8,315.7c-.93,0-1.77-.18-2.51-.55s-1.32-.88-1.72-1.53-.61-1.4-.61-2.24c0-1.29,.45-2.34,1.34-3.14s2.09-1.2,3.58-1.2h.11c.93,0,1.76,.18,2.49,.53,.74,.35,1.31,.86,1.72,1.52s.62,1.42,.62,2.27c0,1.29-.45,2.33-1.34,3.13s-2.08,1.2-3.56,1.2h-.11Zm.19-1.63c1.05,0,1.9-.24,2.54-.73s.96-1.14,.96-1.96-.32-1.48-.97-1.97c-.65-.49-1.55-.73-2.72-.73-1.04,0-1.89,.25-2.54,.74-.65,.5-.97,1.15-.97,1.97s.32,1.45,.96,1.94,1.55,.74,2.74,.74Z"/><path class="cls-5" d="M759.81,305.4c-1.46,0-2.63-.35-3.52-1.04-.89-.69-1.33-1.6-1.33-2.71s.38-2,1.14-2.65h-4.96v-1.62h13.5v1.49l-1.02,.08c.8,.65,1.2,1.56,1.2,2.72s-.45,2-1.35,2.69-2.08,1.04-3.53,1.04h-.12Zm.18-1.62c1.08,0,1.92-.22,2.53-.67s.91-1.06,.91-1.85c0-1.03-.46-1.79-1.39-2.26h-4.37c-.9,.49-1.34,1.23-1.34,2.24,0,.8,.31,1.42,.92,1.86s1.53,.67,2.73,.67Z"/><path class="cls-5" d="M764.82,290.91c0,1.29-.42,2.34-1.27,3.15-.85,.81-1.98,1.21-3.4,1.21h-.3c-.94,0-1.79-.18-2.53-.54-.74-.36-1.32-.86-1.74-1.51-.42-.65-.63-1.35-.63-2.11,0-1.24,.41-2.2,1.22-2.88s1.98-1.03,3.5-1.03h.68v6.44c.94-.02,1.7-.3,2.27-.82,.58-.52,.87-1.19,.87-2,0-.57-.12-1.06-.35-1.46s-.54-.75-.93-1.05l.77-.99c1.22,.8,1.84,1.99,1.84,3.59Zm-8.53,.2c0,.66,.24,1.21,.72,1.65,.48,.45,1.15,.72,2.01,.83v-4.76h-.12c-.83,.05-1.47,.27-1.92,.67-.46,.4-.68,.94-.68,1.62Z"/><path class="cls-5" d="M759.81,285.71c-1.46,0-2.63-.35-3.52-1.04-.89-.69-1.33-1.6-1.33-2.71s.38-2,1.14-2.65h-4.96v-1.62h13.5v1.49l-1.02,.08c.8,.65,1.2,1.56,1.2,2.72s-.45,2-1.35,2.69-2.08,1.04-3.53,1.04h-.12Zm.18-1.62c1.08,0,1.92-.22,2.53-.67s.91-1.06,.91-1.85c0-1.03-.46-1.79-1.39-2.26h-4.37c-.9,.49-1.34,1.23-1.34,2.24,0,.8,.31,1.42,.92,1.86s1.53,.67,2.73,.67Z"/><path class="cls-5" d="M758.65,260.61c1.25,0,2.35,.21,3.28,.63,.94,.42,1.65,1.02,2.14,1.79,.49,.77,.74,1.68,.74,2.71s-.25,1.9-.74,2.68c-.5,.78-1.2,1.38-2.12,1.81-.92,.43-1.98,.65-3.19,.66h-.92c-1.23,0-2.32-.21-3.26-.64s-1.67-1.03-2.17-1.81c-.5-.78-.75-1.68-.75-2.69s.25-1.93,.74-2.71c.5-.78,1.21-1.38,2.15-1.81,.94-.42,2.03-.63,3.28-.63h.81Zm-.83,1.68c-1.52,0-2.68,.3-3.49,.91-.81,.61-1.22,1.46-1.22,2.56s.41,1.91,1.22,2.52c.81,.61,1.94,.93,3.38,.94h.94c1.47,0,2.63-.31,3.47-.93,.84-.62,1.26-1.47,1.26-2.55s-.4-1.93-1.19-2.53c-.79-.6-1.93-.91-3.42-.92h-.95Z"/><path class="cls-5" d="M763.7,252.46c.74,.63,1.12,1.56,1.12,2.79,0,1.01-.29,1.79-.88,2.32-.59,.53-1.46,.8-2.62,.8h-6.19v-1.63h6.14c1.44,0,2.16-.59,2.16-1.76,0-1.24-.46-2.07-1.39-2.48h-6.92v-1.63h9.51v1.55l-.94,.04Z"/><path class="cls-5" d="M752.83,246.2h2.3v-1.78h1.26v1.78h5.91c.38,0,.67-.08,.86-.24,.19-.16,.29-.43,.29-.81,0-.19-.04-.45-.11-.77h1.31c.12,.43,.17,.84,.17,1.25,0,.73-.22,1.27-.66,1.64s-1.06,.55-1.87,.55h-5.9v1.73h-1.26v-1.73h-2.3v-1.63Z"/><path class="cls-5" d="M759.99,234.5c1.45,0,2.61,.33,3.5,.99s1.33,1.56,1.33,2.69-.37,2.06-1.1,2.72h4.58v1.63h-13.17v-1.49l1.05-.08c-.82-.66-1.23-1.58-1.23-2.76s.43-2.05,1.29-2.71,2.06-1,3.59-1h.15Zm-.18,1.63c-1.07,0-1.92,.23-2.54,.69s-.93,1.08-.93,1.88c0,.98,.44,1.72,1.31,2.21h4.54c.87-.49,1.3-1.23,1.3-2.23,0-.78-.31-1.4-.93-1.86-.62-.46-1.54-.69-2.76-.69Z"/><path class="cls-5" d="M763.7,226.56c.74,.63,1.12,1.56,1.12,2.79,0,1.01-.29,1.79-.88,2.32-.59,.53-1.46,.8-2.62,.8h-6.19v-1.63h6.14c1.44,0,2.16-.59,2.16-1.76,0-1.24-.46-2.07-1.39-2.48h-6.92v-1.63h9.51v1.55l-.94,.04Z"/><path class="cls-5" d="M752.83,220.3h2.3v-1.78h1.26v1.78h5.91c.38,0,.67-.08,.86-.24,.19-.16,.29-.43,.29-.81,0-.19-.04-.45-.11-.77h1.31c.12,.43,.17,.84,.17,1.25,0,.73-.22,1.27-.66,1.64s-1.06,.55-1.87,.55h-5.9v1.73h-1.26v-1.73h-2.3v-1.63Z"/><path class="cls-5" d="M762.12,211.09c-.44,0-.78,.17-1.02,.5-.24,.33-.45,.91-.63,1.73s-.39,1.48-.63,1.96-.54,.84-.88,1.07-.74,.35-1.21,.35c-.78,0-1.44-.33-1.98-.99s-.81-1.5-.81-2.53c0-1.08,.28-1.95,.83-2.62s1.27-1.01,2.14-1.01v1.63c-.45,0-.83,.19-1.15,.57s-.48,.85-.48,1.43,.13,1.05,.39,1.39,.59,.5,1.01,.5c.39,0,.69-.16,.89-.47s.39-.87,.57-1.68,.4-1.47,.65-1.97,.56-.88,.91-1.12c.36-.24,.79-.36,1.3-.36,.85,0,1.53,.34,2.04,1.02,.51,.68,.77,1.56,.77,2.65,0,.76-.13,1.44-.4,2.02s-.65,1.04-1.13,1.38c-.48,.33-1.01,.5-1.57,.5v-1.63c.54-.03,.98-.25,1.3-.65,.32-.41,.48-.94,.48-1.61,0-.62-.12-1.11-.37-1.48-.25-.37-.58-.56-1-.56Z"/></g><g><path class="cls-5" d="M680.3,91.26h-1.63v-10.84l-3.28,1.2v-1.48l4.66-1.75h.25v12.86Z"/><path class="cls-5" d="M691.44,78.45v1.38h-.3c-1.27,.02-2.27,.4-3.02,1.12s-1.18,1.75-1.3,3.07c.67-.77,1.59-1.16,2.76-1.16s2,.39,2.67,1.18,1,1.8,1,3.04c0,1.32-.36,2.37-1.08,3.16s-1.68,1.19-2.89,1.19-2.22-.47-2.98-1.41-1.14-2.15-1.14-3.63v-.62c0-2.36,.5-4.16,1.51-5.4s2.5-1.88,4.49-1.91h.29Zm-2.14,5.77c-.56,0-1.07,.17-1.54,.5s-.79,.75-.98,1.26v.6c0,1.05,.24,1.9,.71,2.55s1.07,.97,1.78,.97,1.31-.27,1.73-.81,.63-1.25,.63-2.12-.21-1.59-.64-2.13-.99-.81-1.69-.81Z"/></g><path class="cls-5" d="M691.37,508.04c0,.64-.17,1.21-.51,1.71s-.79,.89-1.37,1.17c.67,.29,1.2,.71,1.59,1.26s.58,1.17,.58,1.87c0,1.11-.37,1.99-1.12,2.65s-1.73,.98-2.95,.98-2.22-.33-2.96-.99-1.11-1.54-1.11-2.64c0-.69,.19-1.32,.57-1.87s.9-.98,1.57-1.27c-.57-.28-1.02-.67-1.34-1.17s-.49-1.06-.49-1.7c0-1.08,.35-1.93,1.04-2.57s1.6-.95,2.73-.95,2.03,.32,2.73,.95,1.04,1.49,1.04,2.57Zm-1.33,5.97c0-.71-.23-1.3-.68-1.75s-1.05-.68-1.78-.68-1.32,.22-1.76,.67-.66,1.03-.66,1.76,.21,1.3,.65,1.71,1.03,.62,1.8,.62,1.36-.21,1.79-.63,.65-.99,.65-1.71Zm-2.44-8.15c-.64,0-1.16,.2-1.55,.59s-.59,.93-.59,1.61,.19,1.18,.58,1.58,.91,.6,1.56,.6,1.17-.2,1.56-.6,.58-.93,.58-1.58-.2-1.18-.61-1.59-.92-.62-1.54-.62Z"/></g><g id="Line"><line class="cls-1" x1="97.92" y1="43.2" x2="198.72" y2="43.2"/><line class="cls-1" x1="227.52" y1="43.2" x2="328.32" y2="43.2"/><path class="cls-1" d="M227.52,43.2c0,7.95-6.45,14.4-14.4,14.4s-14.4-6.45-14.4-14.4"/><rect class="cls-4" x="69.12" y="72" width="28.8" height="28.8"/><rect class="cls-4" x="69.12" y="129.6" width="28.8" height="28.8"/><rect class="cls-4" x="69.12" y="187.2" width="28.8" height="28.8"/><line class="cls-1" x1="97.92" y1="43.2" x2="97.92" y2="534.24"/><line class="cls-1" x1="97.92" y1="532.8" x2="328.32" y2="532.8"/><line class="cls-1" x1="328.32" y1="43.2" x2="328.32" y2="532.8"/><rect class="cls-4" x="69.12" y="244.8" width="28.8" height="28.8"/><rect class="cls-4" x="69.12" y="302.4" width="28.8" height="28.8"/><rect class="cls-4" x="69.12" y="360" width="28.8" height="28.8"/><rect class="cls-4" x="69.12" y="417.6" width="28.8" height="28.8"/><rect class="cls-4" x="328.32" y="187.2" width="28.8" height="28.8"/><rect class="cls-4" x="328.32" y="244.8" width="28.8" height="28.8"/><rect class="cls-4" x="328.32" y="302.4" width="28.8" height="28.8"/><rect class="cls-4" x="328.32" y="360" width="28.8" height="28.8"/><rect class="cls-4" x="328.32" y="417.6" width="28.8" height="28.8"/><rect class="cls-4" x="328.32" y="475.2" width="28.8" height="28.8"/><rect class="cls-4" x="69.12" y="475.2" width="28.8" height="28.8"/><rect class="cls-4" x="328.32" y="72" width="28.8" height="28.8"/><rect class="cls-4" x="328.32" y="129.6" width="28.8" height="28.8"/><rect class="cls-2" x="610.56" y="95.04" width="172.8" height="403.2"/><g><line class="cls-2" x1="783.36" y1="123.84" x2="987.47" y2="123.84"/><polygon class="cls-5" points="977.53 136.11 975.48 133.91 986.32 123.84 975.48 113.77 977.53 111.57 990.72 123.84 977.53 136.11"/></g><g><line class="cls-2" x1="783.36" y1="167.04" x2="987.47" y2="167.04"/><polygon class="cls-5" points="977.53 179.31 975.48 177.11 986.32 167.04 975.48 156.97 977.53 154.77 990.72 167.04 977.53 179.31"/></g><g><line class="cls-2" x1="783.36" y1="210.24" x2="987.47" y2="210.24"/><polygon class="cls-5" points="977.53 222.51 975.48 220.31 986.32 210.24 975.48 200.17 977.53 197.97 990.72 210.24 977.53 222.51"/></g><g><line class="cls-2" x1="783.36" y1="253.44" x2="987.47" y2="253.44"/><polygon class="cls-5" points="977.53 265.71 975.48 263.51 986.32 253.44 975.48 243.37 977.53 241.17 990.72 253.44 977.53 265.71"/></g><g><line class="cls-2" x1="783.36" y1="296.64" x2="987.47" y2="296.64"/><polygon class="cls-5" points="977.53 308.91 975.48 306.71 986.32 296.64 975.48 286.57 977.53 284.37 990.72 296.64 977.53 308.91"/></g><g><line class="cls-2" x1="783.36" y1="339.84" x2="987.47" y2="339.84"/><polygon class="cls-5" points="977.53 352.11 975.48 349.91 986.32 339.84 975.48 329.77 977.53 327.57 990.72 339.84 977.53 352.11"/></g><g><line class="cls-2" x1="783.36" y1="383.04" x2="987.47" y2="383.04"/><polygon class="cls-5" points="977.53 395.31 975.48 393.11 986.32 383.04 975.48 372.97 977.53 370.77 990.72 383.04 977.53 395.31"/></g><g><line class="cls-2" x1="783.36" y1="426.24" x2="987.47" y2="426.24"/><polygon class="cls-5" points="977.53 438.51 975.48 436.31 986.32 426.24 975.48 416.17 977.53 413.97 990.72 426.24 977.53 438.51"/></g><line class="cls-2" x1="783.36" y1="469.44" x2="826.56" y2="469.44"/><g><line class="cls-2" x1="462.24" y1="123.84" x2="607.31" y2="123.84"/><polygon class="cls-5" points="597.37 136.11 595.32 133.91 606.16 123.84 595.32 113.77 597.37 111.57 610.56 123.84 597.37 136.11"/></g><g><line class="cls-2" x1="462.24" y1="167.04" x2="607.31" y2="167.04"/><polygon class="cls-5" points="597.37 179.31 595.32 177.11 606.16 167.04 595.32 156.97 597.37 154.77 610.56 167.04 597.37 179.31"/></g><g><line class="cls-2" x1="462.24" y1="210.24" x2="607.31" y2="210.24"/><polygon class="cls-5" points="597.37 222.51 595.32 220.31 606.16 210.24 595.32 200.17 597.37 197.97 610.56 210.24 597.37 222.51"/></g><g><line class="cls-2" x1="696.96" y1="95.04" x2="696.96" y2="54.56"/><polygon class="cls-5" points="706.5 72.29 703.68 73.32 696.96 54.85 690.24 73.32 687.42 72.29 696.96 46.08 706.5 72.29"/></g><line class="cls-2" x1="696.96" y1="498.24" x2="696.96" y2="541.44"/><line class="cls-2" x1="826.56" y1="532.8" x2="826.56" y2="469.44"/><g><line class="cls-2" x1="826.56" y1="532.8" x2="987.47" y2="532.8"/><polygon class="cls-5" points="977.53 545.07 975.48 542.87 986.32 532.8 975.48 522.73 977.53 520.53 990.72 532.8 977.53 545.07"/></g><polygon class="cls-3" points="696.92 541.44 712.8 541.44 704.86 550.8 696.92 560.16 688.98 550.8 681.04 541.44 696.92 541.44"/></g></svg>