<?xml version="1.0" encoding="UTF-8"?><svg xmlns="http://www.w3.org/2000/svg" viewBox="0 0 1080 600.48"><defs><style>.cls-1{stroke-width:3px;}.cls-1,.cls-2,.cls-3,.cls-4,.cls-5,.cls-6,.cls-7,.cls-8,.cls-9,.cls-10,.cls-11,.cls-12,.cls-13,.cls-14,.cls-15,.cls-16,.cls-17,.cls-18{fill:none;stroke:#1d1e1b;stroke-miterlimit:10;}.cls-2{stroke-dasharray:0 0 1.42 1.42;}.cls-2,.cls-4,.cls-5,.cls-6,.cls-7,.cls-8,.cls-13,.cls-14,.cls-16,.cls-18{stroke-width:1px;}.cls-19,.cls-20,.cls-21{fill:#1d1e1b;}.cls-19,.cls-21{font-family:Roboto-Regular, Roboto;}.cls-3{stroke-dasharray:0 0 6 6;}.cls-4{stroke-dasharray:0 0 1.4 1.4;}.cls-5{stroke-dasharray:0 0 1.41 1.41;}.cls-22{letter-spacing:0em;}.cls-6{stroke-dasharray:0 0 1.42 1.42;}.cls-23{fill:#fff;}.cls-7{stroke-dasharray:0 0 1.44 1.44;}.cls-8{stroke-dasharray:0 0 1.33 1.33;}.cls-24{letter-spacing:-.01em;}.cls-9{stroke-width:2px;}.cls-10{stroke-width:2px;}.cls-11{stroke-width:2px;}.cls-13{stroke-dasharray:0 0 1.4 1.4;}.cls-25{letter-spacing:0em;}.cls-26{letter-spacing:0em;}.cls-27,.cls-21{font-size:18px;}.cls-28{letter-spacing:0em;}.cls-29{letter-spacing:-.02em;}.cls-30{font-size:12px;}.cls-14{stroke-dasharray:0 0 1.41 1.41;}.cls-15{stroke-dasharray:0 2.69;stroke-width:.85px;}.cls-16{stroke-dasharray:0 0 1.39 1.39;}.cls-31{fill:#cad2d9;opacity:.5;}.cls-17{stroke-width:1px;}</style></defs><g id="Field"><rect class="cls-31" x="241.92" y="216" width="57.6" height="57.6" transform="translate(25.92 515.52) rotate(-90)"/><rect class="cls-31" x="184.32" y="86.4" width="57.6" height="57.6"/><rect class="cls-31" x="126.72" y="230.4" width="57.6" height="57.6" transform="translate(311.04 518.4) rotate(180)"/><circle class="cls-20" cx="630.72" cy="167.04" r="2.88"/><circle class="cls-20" cx="708.48" cy="167.04" r="2.88"/><circle class="cls-20" cx="630.72" cy="296.64" r="2.88"/><circle class="cls-20" cx="708.48" cy="296.64" r="2.88"/><circle class="cls-20" cx="708.48" cy="426.24" r="2.88"/><circle class="cls-20" cx="630.72" cy="426.24" r="2.88"/></g><g id="Line"><rect class="cls-17" x="184.32" y="86.4" width="57.6" height="57.6"/><rect class="cls-17" x="241.92" y="216" width="57.6" height="57.6"/><rect class="cls-17" x="126.72" y="230.4" width="57.6" height="57.6"/><rect class="cls-11" x="610.56" y="95.04" width="172.8" height="403.2"/><g><line class="cls-11" x1="785.53" y1="145.44" x2="988.55" y2="145.44"/><polygon class="cls-20" points="792.16 153.62 793.52 152.15 786.3 145.44 793.52 138.73 792.16 137.26 783.36 145.44 792.16 153.62"/><polygon class="cls-20" points="981.92 153.62 980.56 152.15 987.78 145.44 980.56 138.73 981.92 137.26 990.72 145.44 981.92 153.62"/></g><g><line class="cls-11" x1="785.53" y1="188.64" x2="988.55" y2="188.64"/><polygon class="cls-20" points="792.16 196.82 793.52 195.35 786.3 188.64 793.52 181.93 792.16 180.46 783.36 188.64 792.16 196.82"/><polygon class="cls-20" points="981.92 196.82 980.56 195.35 987.78 188.64 980.56 181.93 981.92 180.46 990.72 188.64 981.92 196.82"/></g><g><line class="cls-11" x1="785.53" y1="275.04" x2="988.55" y2="275.04"/><polygon class="cls-20" points="792.16 283.22 793.52 281.75 786.3 275.04 793.52 268.33 792.16 266.86 783.36 275.04 792.16 283.22"/><polygon class="cls-20" points="981.92 283.22 980.56 281.75 987.78 275.04 980.56 268.33 981.92 266.86 990.72 275.04 981.92 283.22"/></g><g><line class="cls-11" x1="785.53" y1="318.24" x2="988.55" y2="318.24"/><polygon class="cls-20" points="792.16 326.42 793.52 324.95 786.3 318.24 793.52 311.53 792.16 310.06 783.36 318.24 792.16 326.42"/><polygon class="cls-20" points="981.92 326.42 980.56 324.95 987.78 318.24 980.56 311.53 981.92 310.06 990.72 318.24 981.92 326.42"/></g><g><line class="cls-11" x1="785.53" y1="404.64" x2="988.55" y2="404.64"/><polygon class="cls-20" points="792.16 412.82 793.52 411.35 786.3 404.64 793.52 397.93 792.16 396.46 783.36 404.64 792.16 412.82"/><polygon class="cls-20" points="981.92 412.82 980.56 411.35 987.78 404.64 980.56 397.93 981.92 396.46 990.72 404.64 981.92 412.82"/></g><g><line class="cls-11" x1="785.53" y1="447.84" x2="988.55" y2="447.84"/><polygon class="cls-20" points="792.16 456.02 793.52 454.55 786.3 447.84 793.52 441.13 792.16 439.66 783.36 447.84 792.16 456.02"/><polygon class="cls-20" points="981.92 456.02 980.56 454.55 987.78 447.84 980.56 441.13 981.92 439.66 990.72 447.84 981.92 456.02"/></g><g><line class="cls-11" x1="696.96" y1="95.04" x2="696.96" y2="54.56"/><polygon class="cls-20" points="706.5 72.29 703.68 73.32 696.96 54.85 690.24 73.32 687.42 72.29 696.96 46.08 706.5 72.29"/></g><line class="cls-11" x1="696.96" y1="498.24" x2="696.96" y2="541.44"/><g><line class="cls-10" x1="465.85" y1="426.24" x2="608.88" y2="426.24"/><polygon class="cls-20" points="472.48 434.42 473.85 432.96 466.62 426.24 473.85 419.52 472.48 418.06 463.68 426.24 472.48 434.42"/><polygon class="cls-20" points="602.25 434.42 600.88 432.96 608.11 426.24 600.88 419.52 602.25 418.06 611.05 426.24 602.25 434.42"/></g><g><line class="cls-12" x1="645.12" y1="139.68" x2="645.12" y2="142.68"/><line class="cls-3" x1="645.12" y1="148.68" x2="645.12" y2="493.68"/><line class="cls-12" x1="645.12" y1="496.68" x2="645.12" y2="499.68"/></g><line class="cls-11" x1="645.08" y1="497.38" x2="645.08" y2="540.58"/><line class="cls-11" x1="745.92" y1="498.24" x2="745.92" y2="541.44"/><g><line class="cls-10" x1="737.64" y1="404.64" x2="783.36" y2="404.64"/><g><path class="cls-23" d="M737.81,407.65c-1.66,0-3.01-1.35-3.01-3.01s1.35-3.01,3.01-3.01,3.01,1.35,3.01,3.01-1.35,3.01-3.01,3.01Z"/><path class="cls-20" d="M737.81,408.05c1.88,0,3.41-1.53,3.41-3.41s-1.53-3.41-3.41-3.41-3.41,1.53-3.41,3.41,1.53,3.41,3.41,3.41-1.88,0,0,0Zm0-6.02c1.44,0,2.61,1.17,2.61,2.61s-1.17,2.61-2.61,2.61-2.61-1.17-2.61-2.61,1.17-2.61,2.61-2.61-1.44,0,0,0Z"/></g></g><line class="cls-10" x1="741.6" y1="444.96" x2="708.48" y2="426.24"/><g><line class="cls-10" x1="737.64" y1="447.84" x2="783.36" y2="447.84"/><g><path class="cls-23" d="M737.81,450.85c-1.66,0-3.01-1.35-3.01-3.01s1.35-3.01,3.01-3.01,3.01,1.35,3.01,3.01-1.35,3.01-3.01,3.01Z"/><path class="cls-20" d="M737.81,451.25c1.88,0,3.41-1.53,3.41-3.41s-1.53-3.41-3.41-3.41-3.41,1.53-3.41,3.41,1.53,3.41,3.41,3.41-1.88,0,0,0Zm0-6.02c1.44,0,2.61,1.17,2.61,2.61s-1.17,2.61-2.61,2.61-2.61-1.17-2.61-2.61,1.17-2.61,2.61-2.61-1.44,0,0,0Z"/></g></g><rect class="cls-15" x="694.08" y="396" width="66.24" height="66.24"/><line class="cls-10" x1="610.56" y1="426.24" x2="630.72" y2="426.24"/><g><line class="cls-10" x1="662.76" y1="426.24" x2="708.48" y2="426.24"/><g><path class="cls-23" d="M662.93,429.25c-1.66,0-3.01-1.35-3.01-3.01s1.35-3.01,3.01-3.01,3.01,1.35,3.01,3.01-1.35,3.01-3.01,3.01Z"/><path class="cls-20" d="M662.93,429.65c1.88,0,3.41-1.53,3.41-3.41s-1.53-3.41-3.41-3.41-3.41,1.53-3.41,3.41,1.53,3.41,3.41,3.41-1.88,0,0,0Zm0-6.02c1.44,0,2.61,1.17,2.61,2.61s-1.17,2.61-2.61,2.61-2.61-1.17-2.61-2.61,1.17-2.61,2.61-2.61-1.44,0,0,0Z"/></g></g><line class="cls-10" x1="659.52" y1="411.84" x2="630.72" y2="426.24"/><line class="cls-10" x1="463.68" y1="390.24" x2="724.32" y2="390.24"/><line class="cls-10" x1="724.32" y1="413.28" x2="724.32" y2="390.24"/><g><line class="cls-10" x1="465.85" y1="296.64" x2="608.88" y2="296.64"/><polygon class="cls-20" points="472.48 304.82 473.85 303.36 466.62 296.64 473.85 289.92 472.48 288.46 463.68 296.64 472.48 304.82"/><polygon class="cls-20" points="602.25 304.82 600.88 303.36 608.11 296.64 600.88 289.92 602.25 288.46 611.05 296.64 602.25 304.82"/></g><g><line class="cls-10" x1="737.64" y1="275.04" x2="783.36" y2="275.04"/><g><path class="cls-23" d="M737.81,278.05c-1.66,0-3.01-1.35-3.01-3.01s1.35-3.01,3.01-3.01,3.01,1.35,3.01,3.01-1.35,3.01-3.01,3.01Z"/><path class="cls-20" d="M737.81,278.45c1.88,0,3.41-1.53,3.41-3.41s-1.53-3.41-3.41-3.41-3.41,1.53-3.41,3.41,1.53,3.41,3.41,3.41-1.88,0,0,0Zm0-6.02c1.44,0,2.61,1.17,2.61,2.61s-1.17,2.61-2.61,2.61-2.61-1.17-2.61-2.61,1.17-2.61,2.61-2.61-1.44,0,0,0Z"/></g></g><line class="cls-10" x1="741.6" y1="315.36" x2="708.48" y2="296.64"/><g><line class="cls-10" x1="737.64" y1="318.24" x2="783.36" y2="318.24"/><g><path class="cls-23" d="M737.81,321.25c-1.66,0-3.01-1.35-3.01-3.01s1.35-3.01,3.01-3.01,3.01,1.35,3.01,3.01-1.35,3.01-3.01,3.01Z"/><path class="cls-20" d="M737.81,321.65c1.88,0,3.41-1.53,3.41-3.41s-1.53-3.41-3.41-3.41-3.41,1.53-3.41,3.41,1.53,3.41,3.41,3.41-1.88,0,0,0Zm0-6.02c1.44,0,2.61,1.17,2.61,2.61s-1.17,2.61-2.61,2.61-2.61-1.17-2.61-2.61,1.17-2.61,2.61-2.61-1.44,0,0,0Z"/></g></g><rect class="cls-15" x="694.08" y="266.4" width="66.24" height="66.24"/><line class="cls-10" x1="610.56" y1="296.64" x2="630.72" y2="296.64"/><g><line class="cls-10" x1="662.76" y1="296.64" x2="708.48" y2="296.64"/><g><path class="cls-23" d="M662.93,299.65c-1.66,0-3.01-1.35-3.01-3.01s1.35-3.01,3.01-3.01,3.01,1.35,3.01,3.01-1.35,3.01-3.01,3.01Z"/><path class="cls-20" d="M662.93,300.05c1.88,0,3.41-1.53,3.41-3.41s-1.53-3.41-3.41-3.41-3.41,1.53-3.41,3.41,1.53,3.41,3.41,3.41-1.88,0,0,0Zm0-6.02c1.44,0,2.61,1.17,2.61,2.61s-1.17,2.61-2.61,2.61-2.61-1.17-2.61-2.61,1.17-2.61,2.61-2.61-1.44,0,0,0Z"/></g></g><line class="cls-10" x1="659.52" y1="282.24" x2="630.72" y2="296.64"/><line class="cls-10" x1="463.68" y1="260.64" x2="724.32" y2="260.64"/><line class="cls-10" x1="724.32" y1="283.68" x2="724.32" y2="260.64"/><g><line class="cls-10" x1="465.85" y1="167.04" x2="608.88" y2="167.04"/><polygon class="cls-20" points="472.48 175.22 473.85 173.76 466.62 167.04 473.85 160.32 472.48 158.86 463.68 167.04 472.48 175.22"/><polygon class="cls-20" points="602.25 175.22 600.88 173.76 608.11 167.04 600.88 160.32 602.25 158.86 611.05 167.04 602.25 175.22"/></g><g><line class="cls-10" x1="737.64" y1="145.44" x2="783.36" y2="145.44"/><g><path class="cls-23" d="M737.81,148.45c-1.66,0-3.01-1.35-3.01-3.01s1.35-3.01,3.01-3.01,3.01,1.35,3.01,3.01-1.35,3.01-3.01,3.01Z"/><path class="cls-20" d="M737.81,148.85c1.88,0,3.41-1.53,3.41-3.41s-1.53-3.41-3.41-3.41-3.41,1.53-3.41,3.41,1.53,3.41,3.41,3.41-1.88,0,0,0Zm0-6.02c1.44,0,2.61,1.17,2.61,2.61s-1.17,2.61-2.61,2.61-2.61-1.17-2.61-2.61,1.17-2.61,2.61-2.61-1.44,0,0,0Z"/></g></g><line class="cls-10" x1="741.6" y1="185.76" x2="708.48" y2="167.04"/><g><line class="cls-10" x1="737.64" y1="188.64" x2="783.36" y2="188.64"/><g><path class="cls-23" d="M737.81,191.65c-1.66,0-3.01-1.35-3.01-3.01s1.35-3.01,3.01-3.01,3.01,1.35,3.01,3.01-1.35,3.01-3.01,3.01Z"/><path class="cls-20" d="M737.81,192.05c1.88,0,3.41-1.53,3.41-3.41s-1.53-3.41-3.41-3.41-3.41,1.53-3.41,3.41,1.53,3.41,3.41,3.41-1.88,0,0,0Zm0-6.02c1.44,0,2.61,1.17,2.61,2.61s-1.17,2.61-2.61,2.61-2.61-1.17-2.61-2.61,1.17-2.61,2.61-2.61-1.44,0,0,0Z"/></g></g><rect class="cls-15" x="694.08" y="136.8" width="66.24" height="66.24"/><line class="cls-10" x1="610.56" y1="167.04" x2="630.72" y2="167.04"/><g><line class="cls-10" x1="662.76" y1="167.04" x2="708.48" y2="167.04"/><g><path class="cls-23" d="M662.93,170.05c-1.66,0-3.01-1.35-3.01-3.01s1.35-3.01,3.01-3.01,3.01,1.35,3.01,3.01-1.35,3.01-3.01,3.01Z"/><path class="cls-20" d="M662.93,170.45c1.88,0,3.41-1.53,3.41-3.41s-1.53-3.41-3.41-3.41-3.41,1.53-3.41,3.41,1.53,3.41,3.41,3.41-1.88,0,0,0Zm0-6.02c1.44,0,2.61,1.17,2.61,2.61s-1.17,2.61-2.61,2.61-2.61-1.17-2.61-2.61,1.17-2.61,2.61-2.61-1.44,0,0,0Z"/></g></g><line class="cls-10" x1="659.52" y1="152.64" x2="630.72" y2="167.04"/><line class="cls-10" x1="463.68" y1="131.04" x2="724.32" y2="131.04"/><line class="cls-10" x1="724.32" y1="154.08" x2="724.32" y2="131.04"/><polygon class="cls-9" points="696.96 541.44 711.36 541.44 704.16 550.08 696.96 558.72 689.76 550.08 682.56 541.44 696.96 541.44"/><line class="cls-1" x1="97.92" y1="43.2" x2="198.72" y2="43.2"/><line class="cls-1" x1="227.52" y1="43.2" x2="328.32" y2="43.2"/><path class="cls-1" d="M227.52,43.2c0,7.95-6.45,14.4-14.4,14.4s-14.4-6.45-14.4-14.4"/><rect class="cls-12" x="69.12" y="72" width="28.8" height="28.8"/><rect class="cls-12" x="69.12" y="129.6" width="28.8" height="28.8"/><rect class="cls-12" x="69.12" y="187.2" width="28.8" height="28.8"/><line class="cls-1" x1="97.92" y1="43.2" x2="97.92" y2="534.24"/><line class="cls-1" x1="97.92" y1="532.8" x2="328.32" y2="532.8"/><line class="cls-1" x1="328.32" y1="43.2" x2="328.32" y2="532.8"/><rect class="cls-12" x="69.12" y="244.8" width="28.8" height="28.8"/><rect class="cls-12" x="69.12" y="302.4" width="28.8" height="28.8"/><rect class="cls-12" x="69.12" y="360" width="28.8" height="28.8"/><rect class="cls-12" x="69.12" y="417.6" width="28.8" height="28.8"/><rect class="cls-12" x="328.32" y="187.2" width="28.8" height="28.8"/><rect class="cls-12" x="328.32" y="244.8" width="28.8" height="28.8"/><rect class="cls-12" x="328.32" y="302.4" width="28.8" height="28.8"/><rect class="cls-12" x="328.32" y="360" width="28.8" height="28.8"/><rect class="cls-12" x="328.32" y="417.6" width="28.8" height="28.8"/><rect class="cls-12" x="328.32" y="475.2" width="28.8" height="28.8"/><rect class="cls-12" x="69.12" y="475.2" width="28.8" height="28.8"/><rect class="cls-12" x="328.32" y="72" width="28.8" height="28.8"/><rect class="cls-12" x="328.32" y="129.6" width="28.8" height="28.8"/><line class="cls-12" x1="97.92" y1="86.4" x2="155.52" y2="86.4"/><line class="cls-12" x1="97.92" y1="144" x2="155.52" y2="144"/><line class="cls-12" x1="155.52" y1="129.6" x2="155.52" y2="144"/><g><line class="cls-18" x1="194.67" y1="129.6" x2="155.52" y2="129.6"/><g><path class="cls-23" d="M194.46,125.84c2.08,0,3.76,1.68,3.76,3.76s-1.68,3.76-3.76,3.76-3.76-1.68-3.76-3.76,1.68-3.76,3.76-3.76Z"/><path class="cls-20" d="M194.46,125.34c-2.35,0-4.26,1.91-4.26,4.26s1.91,4.26,4.26,4.26,4.26-1.91,4.26-4.26-1.91-4.26-4.26-4.26,2.35,0,0,0Zm0,7.52c-1.8,0-3.26-1.46-3.26-3.26s1.46-3.26,3.26-3.26,3.26,1.46,3.26,3.26-1.46,3.26-3.26,3.26,1.8,0,0,0Z"/></g></g><g><line class="cls-18" x1="194.67" y1="100.8" x2="155.52" y2="100.8"/><g><path class="cls-23" d="M194.46,97.04c2.08,0,3.76,1.68,3.76,3.76s-1.68,3.76-3.76,3.76-3.76-1.68-3.76-3.76,1.68-3.76,3.76-3.76Z"/><path class="cls-20" d="M194.46,96.54c-2.35,0-4.26,1.91-4.26,4.26s1.91,4.26,4.26,4.26,4.26-1.91,4.26-4.26-1.91-4.26-4.26-4.26,2.35,0,0,0Zm0,7.52c-1.8,0-3.26-1.46-3.26-3.26s1.46-3.26,3.26-3.26,3.26,1.46,3.26,3.26-1.46,3.26-3.26,3.26,1.8,0,0,0Z"/></g></g><line class="cls-12" x1="155.52" y1="86.4" x2="155.52" y2="100.8"/><g><line class="cls-18" x1="231.09" y1="115.2" x2="270.72" y2="115.2"/><path class="cls-20" d="M231.28,118.96c-2.08,0-3.76-1.68-3.76-3.76s1.68-3.76,3.76-3.76,3.76,1.68,3.76,3.76-1.68,3.76-3.76,3.76Z"/></g><line class="cls-12" x1="270.72" y1="144" x2="328.32" y2="144"/><line class="cls-12" x1="270.72" y1="115.2" x2="270.72" y2="144"/><g><line class="cls-18" x1="173.97" y1="244.8" x2="198.72" y2="244.8"/><g><path class="cls-23" d="M174.18,248.56c-2.08,0-3.76-1.68-3.76-3.76s1.68-3.76,3.76-3.76,3.76,1.68,3.76,3.76-1.68,3.76-3.76,3.76Z"/><path class="cls-20" d="M174.18,249.06c2.35,0,4.26-1.91,4.26-4.26s-1.91-4.26-4.26-4.26-4.26,1.91-4.26,4.26,1.91,4.26,4.26,4.26-2.35,0,0,0Zm0-7.52c1.8,0,3.26,1.46,3.26,3.26s-1.46,3.26-3.26,3.26-3.26-1.46-3.26-3.26,1.46-3.26,3.26-3.26-1.8,0,0,0Z"/></g></g><g><line class="cls-18" x1="173.97" y1="273.6" x2="198.72" y2="273.6"/><g><path class="cls-23" d="M174.18,277.36c-2.08,0-3.76-1.68-3.76-3.76s1.68-3.76,3.76-3.76,3.76,1.68,3.76,3.76-1.68,3.76-3.76,3.76Z"/><path class="cls-20" d="M174.18,277.86c2.35,0,4.26-1.91,4.26-4.26s-1.91-4.26-4.26-4.26-4.26,1.91-4.26,4.26,1.91,4.26,4.26,4.26-2.35,0,0,0Zm0-7.52c1.8,0,3.26,1.46,3.26,3.26s-1.46,3.26-3.26,3.26-3.26-1.46-3.26-3.26,1.46-3.26,3.26-3.26-1.8,0,0,0Z"/></g></g><g><line class="cls-18" x1="137.55" y1="259.2" x2="97.92" y2="259.2"/><path class="cls-20" d="M137.36,255.44c2.08,0,3.76,1.68,3.76,3.76s-1.68,3.76-3.76,3.76-3.76-1.68-3.76-3.76,1.68-3.76,3.76-3.76Z"/></g><line class="cls-12" x1="97.92" y1="201.6" x2="198.72" y2="201.6"/><line class="cls-12" x1="198.72" y1="244.8" x2="198.72" y2="201.6"/><line class="cls-12" x1="97.92" y1="316.8" x2="198.72" y2="316.8"/><line class="cls-12" x1="198.72" y1="273.6" x2="198.72" y2="316.8"/><g><line class="cls-18" x1="285.12" y1="263.25" x2="285.12" y2="288"/><g><circle class="cls-23" cx="285.12" cy="263.46" r="3.76"/><path class="cls-20" d="M280.86,263.46c0,2.35,1.91,4.26,4.26,4.26s4.26-1.91,4.26-4.26-1.91-4.26-4.26-4.26-4.26,1.91-4.26,4.26,0-2.35,0,0Zm7.52,0c0,1.8-1.46,3.26-3.26,3.26s-3.26-1.46-3.26-3.26,1.46-3.26,3.26-3.26,3.26,1.46,3.26,3.26,0-1.8,0,0Z"/></g></g><g><line class="cls-18" x1="256.32" y1="263.25" x2="256.32" y2="316.8"/><g><circle class="cls-23" cx="256.32" cy="263.46" r="3.76"/><path class="cls-20" d="M252.06,263.46c0,2.35,1.91,4.26,4.26,4.26s4.26-1.91,4.26-4.26-1.91-4.26-4.26-4.26-4.26,1.91-4.26,4.26,0-2.35,0,0Zm7.52,0c0,1.8-1.46,3.26-3.26,3.26s-3.26-1.46-3.26-3.26,1.46-3.26,3.26-3.26,3.26,1.46,3.26,3.26,0-1.8,0,0Z"/></g></g><g><line class="cls-18" x1="270.72" y1="226.83" x2="270.72" y2="201.6"/><path class="cls-20" d="M274.48,226.64c0,2.08-1.68,3.76-3.76,3.76s-3.76-1.68-3.76-3.76,1.68-3.76,3.76-3.76,3.76,1.68,3.76,3.76Z"/></g><line class="cls-12" x1="328.32" y1="201.6" x2="270.72" y2="201.6"/><line class="cls-12" x1="313.92" y1="288" x2="285.12" y2="288"/><line class="cls-12" x1="313.92" y1="259.2" x2="313.92" y2="288"/><line class="cls-12" x1="328.32" y1="259.2" x2="313.92" y2="259.2"/><line class="cls-12" x1="328.32" y1="316.8" x2="256.32" y2="316.8"/><g><line class="cls-18" x1="328.32" y1="432" x2="327.61" y2="432"/><line class="cls-4" x1="326.21" y1="432" x2="214.53" y2="432"/><line class="cls-18" x1="213.83" y1="432" x2="213.12" y2="432"/></g><g><line class="cls-18" x1="213.12" y1="144" x2="213.12" y2="144.71"/><line class="cls-5" x1="213.12" y1="146.12" x2="213.12" y2="430.59"/><line class="cls-18" x1="213.12" y1="431.29" x2="213.12" y2="432"/></g><g><line class="cls-18" x1="328.32" y1="489.6" x2="327.61" y2="489.6"/><line class="cls-6" x1="326.19" y1="489.6" x2="156.94" y2="489.6"/><line class="cls-18" x1="156.23" y1="489.6" x2="155.52" y2="489.6"/></g><g><line class="cls-18" x1="155.52" y1="288" x2="155.52" y2="288.71"/><line class="cls-2" x1="155.52" y1="290.13" x2="155.52" y2="488.18"/><line class="cls-18" x1="155.52" y1="488.89" x2="155.52" y2="489.6"/></g><g><line class="cls-18" x1="241.92" y1="244.8" x2="241.21" y2="244.8"/><line class="cls-7" x1="239.77" y1="244.8" x2="228.95" y2="244.8"/><line class="cls-18" x1="228.23" y1="244.8" x2="227.52" y2="244.8"/></g><g><line class="cls-18" x1="328.32" y1="374.4" x2="327.61" y2="374.4"/><line class="cls-13" x1="326.21" y1="374.4" x2="228.93" y2="374.4"/><line class="cls-18" x1="228.23" y1="374.4" x2="227.52" y2="374.4"/></g><g><line class="cls-18" x1="227.52" y1="244.8" x2="227.52" y2="245.51"/><line class="cls-14" x1="227.52" y1="246.92" x2="227.52" y2="372.99"/><line class="cls-18" x1="227.52" y1="373.69" x2="227.52" y2="374.4"/></g><line class="cls-18" x1="172.8" y1="277.92" x2="136.8" y2="259.2"/><line class="cls-18" x1="270.72" y1="226.08" x2="289.44" y2="262.08"/><line class="cls-18" x1="231.84" y1="115.2" x2="195.84" y2="133.92"/><g><line class="cls-18" x1="155.52" y1="269.28" x2="155.52" y2="269.99"/><line class="cls-8" x1="155.52" y1="271.32" x2="155.52" y2="286.63"/><line class="cls-18" x1="155.52" y1="287.29" x2="155.52" y2="288"/></g><g><line class="cls-18" x1="280.8" y1="244.8" x2="280.09" y2="244.8"/><line class="cls-16" x1="278.7" y1="244.8" x2="243.32" y2="244.8"/><line class="cls-18" x1="242.63" y1="244.8" x2="241.92" y2="244.8"/></g><g><line class="cls-18" x1="213.12" y1="144" x2="213.12" y2="143.29"/><line class="cls-8" x1="213.12" y1="141.96" x2="213.12" y2="126.65"/><line class="cls-18" x1="213.12" y1="125.99" x2="213.12" y2="125.28"/></g></g><g id="TEXT"><text class="cls-21" transform="translate(78.47 95.58)"><tspan x="0" y="0">1</tspan></text><text class="cls-21" transform="translate(78.47 153.18)"><tspan x="0" y="0">2</tspan></text><text class="cls-21" transform="translate(78.47 210.78)"><tspan x="0" y="0">3</tspan></text><text class="cls-21" transform="translate(78.47 268.38)"><tspan x="0" y="0">4</tspan></text><text class="cls-21" transform="translate(78.47 325.98)"><tspan x="0" y="0">5</tspan></text><text class="cls-21" transform="translate(78.47 441.18)"><tspan x="0" y="0">7</tspan></text><text class="cls-21" transform="translate(331.89 210.78)"><tspan x="0" y="0">14</tspan></text><text class="cls-21" transform="translate(331.89 268.38)"><tspan x="0" y="0">13</tspan></text><text class="cls-21" transform="translate(331.89 325.98)"><tspan x="0" y="0">12</tspan></text><text class="cls-21" transform="translate(331.89 383.58)"><tspan x="0" y="0">11</tspan></text><text class="cls-21" transform="translate(331.89 441.18)"><tspan x="0" y="0">10</tspan></text><text class="cls-21" transform="translate(337.67 498.78)"><tspan x="0" y="0">9</tspan></text><text class="cls-19" transform="translate(112.32 498.78)"><tspan class="cls-27" x="0" y="0">V</tspan><tspan class="cls-30" x="11.45" y="0">SS</tspan></text><text class="cls-19" transform="translate(286.73 95.58)"><tspan class="cls-27" x="0" y="0">V</tspan><tspan class="cls-30" x="11.45" y="0">DD</tspan></text><text class="cls-21" transform="translate(181.15 558.72)"><tspan x="0" y="0">CD4053</tspan></text><text class="cls-21" transform="translate(78.47 498.78)"><tspan x="0" y="0">8</tspan></text><text class="cls-21" transform="translate(331.89 95.58)"><tspan x="0" y="0">16</tspan></text><text class="cls-21" transform="translate(331.89 153.18)"><tspan x="0" y="0">15</tspan></text><text class="cls-21" transform="translate(102.24 84.06)"><tspan class="cls-26" x="0" y="0">b</tspan><tspan x="10" y="0">y1</tspan></text><text class="cls-21" transform="translate(102.24 141.66)"><tspan class="cls-22" x="0" y="0">b</tspan><tspan x="9.97" y="0">x0</tspan></text><text class="cls-21" transform="translate(102.24 199.26)"><tspan x="0" y="0">cy1</tspan></text><text class="cls-21" transform="translate(102.24 256.86)"><tspan x="0" y="0">Cz</tspan></text><text class="cls-21" transform="translate(102.24 314.46)"><tspan x="0" y="0">cx0</tspan></text><text class="cls-21" transform="translate(112.32 383.58)"><tspan x="0" y="0">E</tspan></text><text class="cls-21" transform="translate(304.67 197.82)"><tspan class="cls-25" x="0" y="0">A</tspan><tspan x="11.85" y="0">z</tspan></text><text class="cls-21" transform="translate(300.04 255.42)"><tspan class="cls-22" x="0" y="0">a</tspan><tspan x="9.66" y="0">y1</tspan></text><text class="cls-21" transform="translate(296.62 313.02)"><tspan x="0" y="0">ax0</tspan></text><text class="cls-21" transform="translate(302.18 370.62)"><tspan x="0" y="0">A</tspan></text><text class="cls-21" transform="translate(302.71 428.22)"><tspan x="0" y="0">B</tspan></text><text class="cls-21" transform="translate(302.2 485.82)"><tspan x="0" y="0">C</tspan></text><text class="cls-21" transform="translate(305.31 140.22)"><tspan x="0" y="0">Bz</tspan></text><text class="cls-21" transform="translate(793.39 139.68)"><tspan x="0" y="0">12</tspan></text><text class="cls-21" transform="translate(793.39 182.88)"><tspan x="0" y="0">13</tspan></text><text class="cls-21" transform="translate(804.93 269.28)"><tspan x="0" y="0">2</tspan></text><text class="cls-21" transform="translate(804.93 312.48)"><tspan x="0" y="0">1</tspan></text><text class="cls-21" transform="translate(804.93 398.88)"><tspan x="0" y="0">5</tspan></text><text class="cls-21" transform="translate(804.93 442.08)"><tspan x="0" y="0">3</tspan></text><text class="cls-19" transform="translate(684.12 580.32)"><tspan class="cls-27" x="0" y="0">V</tspan><tspan class="cls-30" x="11.45" y="0">SS</tspan></text><text class="cls-21" transform="translate(588.93 385.02)"><tspan x="0" y="0">9</tspan></text><text class="cls-19" transform="translate(707.85 61.92)"><tspan class="cls-27" x="0" y="0">V</tspan><tspan class="cls-30" x="11.45" y="0">DD</tspan></text><text class="cls-21" transform="translate(1005.12 151.2)"><tspan x="0" y="0">ax0</tspan></text><text class="cls-21" transform="translate(1005.12 194.4)"><tspan class="cls-22" x="0" y="0">a</tspan><tspan x="9.66" y="0">y1</tspan></text><text class="cls-21" transform="translate(1005.12 280.8)"><tspan class="cls-22" x="0" y="0">b</tspan><tspan x="9.97" y="0">x0</tspan></text><text class="cls-21" transform="translate(1005.12 324)"><tspan class="cls-26" x="0" y="0">b</tspan><tspan x="10" y="0">y1</tspan></text><text class="cls-21" transform="translate(1005.12 410.4)"><tspan x="0" y="0">cx0</tspan></text><text class="cls-21" transform="translate(1005.12 453.6)"><tspan x="0" y="0">cy1</tspan></text><text class="cls-21" transform="translate(1061.28 355.59) rotate(-90)"><tspan x="0" y="0">Inputs/Outputs</tspan></text><text class="cls-19" transform="translate(112.32 441.18)"><tspan class="cls-27" x="0" y="0">V</tspan><tspan class="cls-30" x="11.45" y="0">EE</tspan></text><text class="cls-21" transform="translate(588.93 420.48)"><tspan x="0" y="0">4</tspan></text><text class="cls-21" transform="translate(630.08 580.86)"><tspan x="0" y="0">INH</tspan></text><text class="cls-21" transform="translate(671.73 91.26)"><tspan x="0" y="0">16</tspan></text><text class="cls-21" transform="translate(680.39 517.5)"><tspan x="0" y="0">8</tspan></text><text class="cls-19" transform="translate(731.52 580.86)"><tspan class="cls-27" x="0" y="0">V</tspan><tspan class="cls-30" x="11.45" y="0">EE</tspan></text><text class="cls-21" transform="translate(578.82 255.42)"><tspan x="0" y="0">10</tspan></text><text class="cls-21" transform="translate(578.82 290.88)"><tspan x="0" y="0">15</tspan></text><text class="cls-21" transform="translate(581.7 125.82)"><tspan x="0" y="0">11</tspan></text><text class="cls-21" transform="translate(578.83 161.28)"><tspan x="0" y="0">14</tspan></text><text class="cls-21" transform="translate(437.15 173.34)"><tspan class="cls-25" x="0" y="0">A</tspan><tspan x="11.85" y="0">z</tspan></text><text class="cls-21" transform="translate(446.18 137.34)"><tspan x="0" y="0">A</tspan></text><text class="cls-21" transform="translate(446.71 266.94)"><tspan x="0" y="0">B</tspan></text><text class="cls-21" transform="translate(437.79 300.06)"><tspan x="0" y="0">Bz</tspan></text><text class="cls-21" transform="translate(446.2 396.54)"><tspan x="0" y="0">C</tspan></text><text class="cls-21" transform="translate(437.28 432.54)"><tspan x="0" y="0">Cz</tspan></text><text class="cls-21" transform="translate(662.7 124.38)"><tspan x="0" y="0">x OR y</tspan></text><text class="cls-21" transform="translate(662.7 253.98)"><tspan x="0" y="0">x OR y</tspan></text><text class="cls-21" transform="translate(662.7 383.58)"><tspan x="0" y="0">x OR y</tspan></text><text class="cls-21" transform="translate(629.99 517.5)"><tspan x="0" y="0">6</tspan></text><text class="cls-21" transform="translate(730.79 517.5)"><tspan x="0" y="0">7</tspan></text><text class="cls-21" transform="translate(498.69 422.33)"><tspan x="0" y="0">IN/OU</tspan><tspan class="cls-29" x="49.19" y="0">T</tspan></text><text class="cls-21" transform="translate(498.69 293.76)"><tspan x="0" y="0">IN/OU</tspan><tspan class="cls-29" x="49.19" y="0">T</tspan></text><text class="cls-21" transform="translate(498.69 164.16)"><tspan x="0" y="0">IN/OU</tspan><tspan class="cls-29" x="49.19" y="0">T</tspan></text><text class="cls-21" transform="translate(504.47 384.48)"><tspan x="0" y="0">select</tspan></text><text class="cls-21" transform="translate(504.47 255.91)"><tspan x="0" y="0">select</tspan></text><text class="cls-21" transform="translate(504.47 126.31)"><tspan x="0" y="0">select</tspan></text><text class="cls-21" transform="translate(476.85 30.24)"><tspan x="0" y="0">CD4053 single pole double th</tspan><tspan class="cls-28" x="233.76" y="0">r</tspan><tspan x="239.68" y="0">ow (SP</tspan><tspan class="cls-24" x="296.11" y="0">D</tspan><tspan x="307.68" y="0">T) analog switch</tspan></text><text class="cls-21" transform="translate(78.47 383.58)"><tspan x="0" y="0">6</tspan></text></g></svg>