<?xml version="1.0" encoding="UTF-8"?><svg xmlns="http://www.w3.org/2000/svg" viewBox="0 0 1080 600.48"><defs><style>.cls-1{stroke-dasharray:0 0 3.96 3.96;}.cls-1,.cls-2,.cls-3,.cls-4,.cls-5,.cls-6{fill:none;stroke:#cad2d9;stroke-miterlimit:10;}.cls-2{stroke-width:3px;}.cls-7,.cls-8,.cls-9{fill:#cad2d9;}.cls-7,.cls-9{font-family:Roboto-Regular, Roboto;}.cls-10{fill:#fff;}.cls-3{stroke-dasharray:0 0 6.07 6.07;}.cls-4{stroke-width:2px;}.cls-5{stroke-width:2px;}.cls-11{letter-spacing:-.01em;}.cls-12,.cls-9{font-size:18px;}.cls-13{letter-spacing:-.02em;}.cls-14{font-size:12px;}</style></defs><g id="TEXT"><text class="cls-9" transform="translate(78.47 95.58)"><tspan x="0" y="0">1</tspan></text><text class="cls-9" transform="translate(78.47 153.18)"><tspan x="0" y="0">2</tspan></text><text class="cls-9" transform="translate(78.47 210.78)"><tspan x="0" y="0">3</tspan></text><text class="cls-9" transform="translate(78.47 268.38)"><tspan x="0" y="0">4</tspan></text><text class="cls-9" transform="translate(78.47 325.98)"><tspan x="0" y="0">5</tspan></text><text class="cls-9" transform="translate(78.47 383.58)"><tspan x="0" y="0">6</tspan></text><text class="cls-9" transform="translate(78.47 441.18)"><tspan x="0" y="0">7</tspan></text><text class="cls-9" transform="translate(331.89 210.78)"><tspan x="0" y="0">14</tspan></text><text class="cls-9" transform="translate(331.89 268.38)"><tspan x="0" y="0">13</tspan></text><text class="cls-9" transform="translate(331.89 325.98)"><tspan x="0" y="0">12</tspan></text><text class="cls-9" transform="translate(331.89 383.58)"><tspan x="0" y="0">11</tspan></text><text class="cls-9" transform="translate(331.89 441.18)"><tspan x="0" y="0">10</tspan></text><text class="cls-9" transform="translate(337.67 498.78)"><tspan x="0" y="0">9</tspan></text><text class="cls-7" transform="translate(112.32 498.78)"><tspan class="cls-12" x="0" y="0">V</tspan><tspan class="cls-14" x="11.45" y="0">SS</tspan></text><text class="cls-7" transform="translate(286.73 95.58)"><tspan class="cls-12" x="0" y="0">V</tspan><tspan class="cls-14" x="11.45" y="0">DD</tspan></text><text class="cls-9" transform="translate(181.15 558.72)"><tspan x="0" y="0">CD4051</tspan></text><text class="cls-9" transform="translate(78.47 498.78)"><tspan x="0" y="0">8</tspan></text><text class="cls-9" transform="translate(331.89 95.58)"><tspan x="0" y="0">16</tspan></text><text class="cls-9" transform="translate(331.89 153.18)"><tspan x="0" y="0">15</tspan></text><text class="cls-9" transform="translate(112.32 95.58)"><tspan x="0" y="0">”4“</tspan></text><text class="cls-9" transform="translate(112.32 154.62)"><tspan x="0" y="0">”6“</tspan></text><text class="cls-9" transform="translate(112.32 210.78)"><tspan x="0" y="0">COMMON </tspan><tspan x="0" y="21.6">OUT/IN</tspan></text><text class="cls-9" transform="translate(112.32 268.38)"><tspan x="0" y="0">“7“</tspan></text><text class="cls-9" transform="translate(112.32 325.98)"><tspan x="0" y="0">“5“</tspan></text><text class="cls-9" transform="translate(112.32 383.58)"><tspan x="0" y="0">INHIB</tspan><tspan class="cls-11" x="46.66" y="0">I</tspan><tspan class="cls-13" x="51.3" y="0">T</tspan></text><text class="cls-9" transform="translate(291.09 210.78)"><tspan x="0" y="0">“1“</tspan></text><text class="cls-9" transform="translate(291.09 268.38)"><tspan x="0" y="0">“0“</tspan></text><text class="cls-9" transform="translate(291.09 325.98)"><tspan x="0" y="0">“3“</tspan></text><text class="cls-9" transform="translate(302.18 383.58)"><tspan x="0" y="0">A</tspan></text><text class="cls-9" transform="translate(302.71 441.18)"><tspan x="0" y="0">B</tspan></text><text class="cls-9" transform="translate(302.2 498.78)"><tspan x="0" y="0">C</tspan></text><text class="cls-9" transform="translate(291.09 153.18)"><tspan x="0" y="0">“2“</tspan></text><text class="cls-9" transform="translate(577.39 116.64)"><tspan x="0" y="0">11</tspan></text><text class="cls-9" transform="translate(577.39 159.84)"><tspan x="0" y="0">10</tspan></text><text class="cls-9" transform="translate(587.49 204.48)"><tspan x="0" y="0">9</tspan></text><text class="cls-9" transform="translate(793.39 118.08)"><tspan x="0" y="0">13</tspan></text><text class="cls-9" transform="translate(793.39 161.28)"><tspan x="0" y="0">14</tspan></text><text class="cls-9" transform="translate(793.38 204.48)"><tspan x="0" y="0">15</tspan></text><text class="cls-9" transform="translate(793.39 247.68)"><tspan x="0" y="0">12</tspan></text><text class="cls-9" transform="translate(802.05 334.08)"><tspan x="0" y="0">5</tspan></text><text class="cls-9" transform="translate(802.05 377.28)"><tspan x="0" y="0">2</tspan></text><text class="cls-9" transform="translate(802.05 420.48)"><tspan x="0" y="0">4</tspan></text><text class="cls-7" transform="translate(714.35 563.04)"><tspan class="cls-12" x="0" y="0">V</tspan><tspan class="cls-14" x="11.45" y="0">SS</tspan></text><text class="cls-9" transform="translate(516.96 160.38)"><tspan x="0" y="0">B</tspan></text><text class="cls-9" transform="translate(515.52 206.46)"><tspan x="0" y="0">C</tspan></text><text class="cls-9" transform="translate(516.96 120.06)"><tspan x="0" y="0">A</tspan></text><text class="cls-7" transform="translate(707.85 61.92)"><tspan class="cls-12" x="0" y="0">V</tspan><tspan class="cls-14" x="11.45" y="0">DD</tspan></text><text class="cls-9" transform="translate(993.7 129.6)"><tspan x="0" y="0">“0“</tspan></text><text class="cls-9" transform="translate(993.7 172.8)"><tspan x="0" y="0">“1“</tspan></text><text class="cls-9" transform="translate(993.7 216)"><tspan x="0" y="0">“2“</tspan></text><text class="cls-9" transform="translate(993.7 259.2)"><tspan x="0" y="0">“3“</tspan></text><text class="cls-9" transform="translate(993.7 302.4)"><tspan x="0" y="0">“4“</tspan></text><text class="cls-9" transform="translate(993.7 345.6)"><tspan x="0" y="0">“5“</tspan></text><text class="cls-9" transform="translate(993.7 388.8)"><tspan x="0" y="0">“6“</tspan></text><text class="cls-9" transform="translate(993.7 432)"><tspan x="0" y="0">“7“</tspan></text><text class="cls-9" transform="translate(1051.2 333.99) rotate(-90)"><tspan x="0" y="0">Inputs/Outputs</tspan></text><text class="cls-7" transform="translate(112.32 441.18)"><tspan class="cls-12" x="0" y="0">V</tspan><tspan class="cls-14" x="11.45" y="0">EE</tspan></text><text class="cls-9" transform="translate(587.49 267.84)"><tspan x="0" y="0">3</tspan></text><text class="cls-9" transform="translate(502.56 269.82)"><tspan x="0" y="0">COM</tspan></text><text class="cls-9" transform="translate(587.49 440.64)"><tspan x="0" y="0">6</tspan></text><text class="cls-9" transform="translate(504.49 442.62)"><tspan x="0" y="0">INH</tspan></text><text class="cls-9" transform="translate(671.73 91.26)"><tspan x="0" y="0">16</tspan></text><text class="cls-9" transform="translate(680.39 517.5)"><tspan x="0" y="0">8</tspan></text><text class="cls-9" transform="translate(802.05 290.88)"><tspan x="0" y="0">1</tspan></text></g><g id="Line"><line class="cls-2" x1="97.92" y1="43.2" x2="198.72" y2="43.2"/><line class="cls-2" x1="227.52" y1="43.2" x2="328.32" y2="43.2"/><path class="cls-2" d="M227.52,43.2c0,7.95-6.45,14.4-14.4,14.4s-14.4-6.45-14.4-14.4"/><rect class="cls-6" x="69.12" y="72" width="28.8" height="28.8"/><rect class="cls-6" x="69.12" y="129.6" width="28.8" height="28.8"/><rect class="cls-6" x="69.12" y="187.2" width="28.8" height="28.8"/><line class="cls-2" x1="97.92" y1="43.2" x2="97.92" y2="534.24"/><line class="cls-2" x1="97.92" y1="532.8" x2="328.32" y2="532.8"/><line class="cls-2" x1="328.32" y1="43.2" x2="328.32" y2="532.8"/><rect class="cls-6" x="69.12" y="244.8" width="28.8" height="28.8"/><rect class="cls-6" x="69.12" y="302.4" width="28.8" height="28.8"/><rect class="cls-6" x="69.12" y="360" width="28.8" height="28.8"/><rect class="cls-6" x="69.12" y="417.6" width="28.8" height="28.8"/><rect class="cls-6" x="328.32" y="187.2" width="28.8" height="28.8"/><rect class="cls-6" x="328.32" y="244.8" width="28.8" height="28.8"/><rect class="cls-6" x="328.32" y="302.4" width="28.8" height="28.8"/><rect class="cls-6" x="328.32" y="360" width="28.8" height="28.8"/><rect class="cls-6" x="328.32" y="417.6" width="28.8" height="28.8"/><rect class="cls-6" x="328.32" y="475.2" width="28.8" height="28.8"/><rect class="cls-6" x="69.12" y="475.2" width="28.8" height="28.8"/><rect class="cls-6" x="328.32" y="72" width="28.8" height="28.8"/><rect class="cls-6" x="328.32" y="129.6" width="28.8" height="28.8"/><rect class="cls-5" x="610.56" y="95.04" width="172.8" height="403.2"/><g><line class="cls-5" x1="784.66" y1="123.84" x2="987.47" y2="123.84"/><polygon class="cls-8" points="788.64 128.75 789.46 127.87 785.12 123.84 789.46 119.81 788.64 118.93 783.36 123.84 788.64 128.75"/><polygon class="cls-8" points="977.53 136.11 975.48 133.91 986.32 123.84 975.48 113.77 977.53 111.57 990.72 123.84 977.53 136.11"/></g><g><line class="cls-5" x1="784.66" y1="167.04" x2="987.47" y2="167.04"/><polygon class="cls-8" points="788.64 171.95 789.46 171.07 785.12 167.04 789.46 163.01 788.64 162.13 783.36 167.04 788.64 171.95"/><polygon class="cls-8" points="977.53 179.31 975.48 177.11 986.32 167.04 975.48 156.97 977.53 154.77 990.72 167.04 977.53 179.31"/></g><g><line class="cls-5" x1="784.66" y1="210.24" x2="987.47" y2="210.24"/><polygon class="cls-8" points="788.64 215.15 789.46 214.27 785.12 210.24 789.46 206.21 788.64 205.33 783.36 210.24 788.64 215.15"/><polygon class="cls-8" points="977.53 222.51 975.48 220.31 986.32 210.24 975.48 200.17 977.53 197.97 990.72 210.24 977.53 222.51"/></g><g><line class="cls-5" x1="784.66" y1="253.44" x2="987.47" y2="253.44"/><polygon class="cls-8" points="788.64 258.35 789.46 257.47 785.12 253.44 789.46 249.41 788.64 248.53 783.36 253.44 788.64 258.35"/><polygon class="cls-8" points="977.53 265.71 975.48 263.51 986.32 253.44 975.48 243.37 977.53 241.17 990.72 253.44 977.53 265.71"/></g><g><line class="cls-5" x1="784.66" y1="296.64" x2="987.47" y2="296.64"/><polygon class="cls-8" points="788.64 301.55 789.46 300.67 785.12 296.64 789.46 292.61 788.64 291.73 783.36 296.64 788.64 301.55"/><polygon class="cls-8" points="977.53 308.91 975.48 306.71 986.32 296.64 975.48 286.57 977.53 284.37 990.72 296.64 977.53 308.91"/></g><g><line class="cls-5" x1="784.66" y1="339.84" x2="987.47" y2="339.84"/><polygon class="cls-8" points="788.64 344.75 789.46 343.87 785.12 339.84 789.46 335.81 788.64 334.93 783.36 339.84 788.64 344.75"/><polygon class="cls-8" points="977.53 352.11 975.48 349.91 986.32 339.84 975.48 329.77 977.53 327.57 990.72 339.84 977.53 352.11"/></g><g><line class="cls-5" x1="784.66" y1="383.04" x2="987.47" y2="383.04"/><polygon class="cls-8" points="788.64 387.95 789.46 387.07 785.12 383.04 789.46 379.01 788.64 378.13 783.36 383.04 788.64 387.95"/><polygon class="cls-8" points="977.53 395.31 975.48 393.11 986.32 383.04 975.48 372.97 977.53 370.77 990.72 383.04 977.53 395.31"/></g><g><line class="cls-5" x1="784.66" y1="426.24" x2="987.47" y2="426.24"/><polygon class="cls-8" points="788.64 431.15 789.46 430.27 785.12 426.24 789.46 422.21 788.64 421.33 783.36 426.24 788.64 431.15"/><polygon class="cls-8" points="977.53 438.51 975.48 436.31 986.32 426.24 975.48 416.17 977.53 413.97 990.72 426.24 977.53 438.51"/></g><g><line class="cls-5" x1="462.24" y1="123.84" x2="607.31" y2="123.84"/><polygon class="cls-8" points="597.37 136.11 595.32 133.91 606.16 123.84 595.32 113.77 597.37 111.57 610.56 123.84 597.37 136.11"/></g><g><line class="cls-5" x1="462.24" y1="167.04" x2="607.31" y2="167.04"/><polygon class="cls-8" points="597.37 179.31 595.32 177.11 606.16 167.04 595.32 156.97 597.37 154.77 610.56 167.04 597.37 179.31"/></g><g><line class="cls-5" x1="462.24" y1="210.24" x2="607.31" y2="210.24"/><polygon class="cls-8" points="597.37 222.51 595.32 220.31 606.16 210.24 595.32 200.17 597.37 197.97 610.56 210.24 597.37 222.51"/></g><g><line class="cls-5" x1="696.96" y1="95.04" x2="696.96" y2="54.56"/><polygon class="cls-8" points="706.5 72.29 703.68 73.32 696.96 54.85 690.24 73.32 687.42 72.29 696.96 46.08 706.5 72.29"/></g><line class="cls-5" x1="696.96" y1="498.24" x2="696.96" y2="541.44"/><g><line class="cls-5" x1="463.54" y1="273.6" x2="607.31" y2="273.6"/><polygon class="cls-8" points="467.52 278.51 468.34 277.63 464 273.6 468.34 269.57 467.52 268.69 462.24 273.6 467.52 278.51"/><polygon class="cls-8" points="597.37 285.87 595.32 283.67 606.16 273.6 595.32 263.53 597.37 261.33 610.56 273.6 597.37 285.87"/></g><g><line class="cls-5" x1="462.73" y1="446.4" x2="607.8" y2="446.4"/><polygon class="cls-8" points="597.86 458.67 595.81 456.47 606.64 446.4 595.81 436.33 597.86 434.13 611.05 446.4 597.86 458.67"/></g><g><path class="cls-6" d="M680.76,237.96c.47,.47,.94,.95,1.39,1.44"/><path class="cls-1" d="M684.72,242.41c14.81,18.76,14.39,45.61-1.25,63.91"/><path class="cls-6" d="M682.14,307.8c-.45,.49-.91,.97-1.39,1.44"/></g><line class="cls-6" x1="708.48" y1="344.16" x2="783.36" y2="426.24"/><line class="cls-6" x1="783.36" y1="383.04" x2="720" y2="332.64"/><line class="cls-6" x1="783.36" y1="339.84" x2="730.08" y2="315.36"/><line class="cls-6" x1="783.36" y1="296.64" x2="738.72" y2="289.44"/><line class="cls-6" x1="783.36" y1="253.44" x2="738.72" y2="260.64"/><line class="cls-6" x1="783.36" y1="210.24" x2="731.52" y2="234.72"/><line class="cls-6" x1="783.36" y1="167.04" x2="720" y2="216"/><line class="cls-6" x1="783.36" y1="123.84" x2="709.92" y2="204.48"/><g><line class="cls-6" x1="696.51" y1="344.16" x2="708.48" y2="344.16"/><g><circle class="cls-10" cx="696.64" cy="344.16" r="2.26"/><path class="cls-8" d="M696.64,346.72c1.41,0,2.56-1.15,2.56-2.56s-1.15-2.56-2.56-2.56-2.56,1.15-2.56,2.56,1.15,2.56,2.56,2.56-1.41,0,0,0Zm0-4.51c1.08,0,1.96,.88,1.96,1.96s-.88,1.96-1.96,1.96-1.96-.88-1.96-1.96,.88-1.96,1.96-1.96-1.08,0,0,0Z"/></g></g><g><line class="cls-6" x1="708.03" y1="332.64" x2="720" y2="332.64"/><g><path class="cls-10" d="M708.16,334.9c-1.25,0-2.26-1.01-2.26-2.26s1.01-2.26,2.26-2.26,2.26,1.01,2.26,2.26-1.01,2.26-2.26,2.26Z"/><path class="cls-8" d="M708.16,335.2c1.41,0,2.56-1.15,2.56-2.56s-1.15-2.56-2.56-2.56-2.56,1.15-2.56,2.56,1.15,2.56,2.56,2.56-1.41,0,0,0Zm0-4.51c1.08,0,1.96,.88,1.96,1.96s-.88,1.96-1.96,1.96-1.96-.88-1.96-1.96,.88-1.96,1.96-1.96-1.08,0,0,0Z"/></g></g><g><line class="cls-6" x1="719.55" y1="315.36" x2="731.52" y2="315.36"/><g><path class="cls-10" d="M719.68,317.62c-1.25,0-2.26-1.01-2.26-2.26s1.01-2.26,2.26-2.26,2.26,1.01,2.26,2.26-1.01,2.26-2.26,2.26Z"/><path class="cls-8" d="M719.68,317.92c1.41,0,2.56-1.15,2.56-2.56s-1.15-2.56-2.56-2.56-2.56,1.15-2.56,2.56,1.15,2.56,2.56,2.56-1.41,0,0,0Zm0-4.51c1.08,0,1.96,.88,1.96,1.96s-.88,1.96-1.96,1.96-1.96-.88-1.96-1.96,.88-1.96,1.96-1.96-1.08,0,0,0Z"/></g></g><g><line class="cls-6" x1="726.75" y1="289.44" x2="738.72" y2="289.44"/><g><circle class="cls-10" cx="726.88" cy="289.44" r="2.26"/><path class="cls-8" d="M726.88,292c1.41,0,2.56-1.15,2.56-2.56s-1.15-2.56-2.56-2.56-2.56,1.15-2.56,2.56,1.15,2.56,2.56,2.56-1.41,0,0,0Zm0-4.51c1.08,0,1.96,.88,1.96,1.96s-.88,1.96-1.96,1.96-1.96-.88-1.96-1.96,.88-1.96,1.96-1.96-1.08,0,0,0Z"/></g></g><g><line class="cls-6" x1="726.75" y1="260.64" x2="738.72" y2="260.64"/><g><circle class="cls-10" cx="726.88" cy="260.64" r="2.26"/><path class="cls-8" d="M726.88,263.2c1.41,0,2.56-1.15,2.56-2.56s-1.15-2.56-2.56-2.56-2.56,1.15-2.56,2.56,1.15,2.56,2.56,2.56-1.41,0,0,0Zm0-4.51c1.08,0,1.96,.88,1.96,1.96s-.88,1.96-1.96,1.96-1.96-.88-1.96-1.96,.88-1.96,1.96-1.96-1.08,0,0,0Z"/></g></g><g><line class="cls-6" x1="719.55" y1="234.72" x2="731.52" y2="234.72"/><g><path class="cls-10" d="M719.68,236.98c-1.25,0-2.26-1.01-2.26-2.26s1.01-2.26,2.26-2.26,2.26,1.01,2.26,2.26-1.01,2.26-2.26,2.26Z"/><path class="cls-8" d="M719.68,237.28c1.41,0,2.56-1.15,2.56-2.56s-1.15-2.56-2.56-2.56-2.56,1.15-2.56,2.56,1.15,2.56,2.56,2.56-1.41,0,0,0Zm0-4.51c1.08,0,1.96,.88,1.96,1.96s-.88,1.96-1.96,1.96-1.96-.88-1.96-1.96,.88-1.96,1.96-1.96-1.08,0,0,0Z"/></g></g><g><line class="cls-6" x1="708.03" y1="216" x2="720" y2="216"/><g><path class="cls-10" d="M708.16,218.26c-1.25,0-2.26-1.01-2.26-2.26s1.01-2.26,2.26-2.26,2.26,1.01,2.26,2.26-1.01,2.26-2.26,2.26Z"/><path class="cls-8" d="M708.16,218.56c1.41,0,2.56-1.15,2.56-2.56s-1.15-2.56-2.56-2.56-2.56,1.15-2.56,2.56,1.15,2.56,2.56,2.56-1.41,0,0,0Zm0-4.51c1.08,0,1.96,.88,1.96,1.96s-.88,1.96-1.96,1.96-1.96-.88-1.96-1.96,.88-1.96,1.96-1.96-1.08,0,0,0Z"/></g></g><g><line class="cls-6" x1="697.95" y1="204.48" x2="709.92" y2="204.48"/><g><circle class="cls-10" cx="698.08" cy="204.48" r="2.26"/><path class="cls-8" d="M698.08,207.04c1.41,0,2.56-1.15,2.56-2.56s-1.15-2.56-2.56-2.56-2.56,1.15-2.56,2.56,1.15,2.56,2.56,2.56-1.41,0,0,0Zm0-4.51c1.08,0,1.96,.88,1.96,1.96s-.88,1.96-1.96,1.96-1.96-.88-1.96-1.96,.88-1.96,1.96-1.96-1.08,0,0,0Z"/></g></g><line class="cls-6" x1="610.56" y1="273.6" x2="616.32" y2="273.6"/><g><line class="cls-6" x1="640.35" y1="273.6" x2="645.12" y2="273.6"/><g><circle class="cls-10" cx="640.48" cy="273.6" r="2.26"/><path class="cls-8" d="M640.48,276.16c1.41,0,2.56-1.15,2.56-2.56s-1.15-2.56-2.56-2.56-2.56,1.15-2.56,2.56,1.15,2.56,2.56,2.56-1.41,0,0,0Zm0-4.51c1.08,0,1.96,.88,1.96,1.96s-.88,1.96-1.96,1.96-1.96-.88-1.96-1.96,.88-1.96,1.96-1.96-1.08,0,0,0Z"/></g></g><line class="cls-6" x1="695.52" y1="204.48" x2="645.12" y2="273.6"/><line class="cls-6" x1="639.36" y1="276.48" x2="616.32" y2="273.6"/><g><line class="cls-6" x1="626.4" y1="276.48" x2="626.4" y2="279.48"/><line class="cls-3" x1="626.4" y1="285.55" x2="626.4" y2="440.36"/><line class="cls-6" x1="626.4" y1="443.4" x2="626.4" y2="446.4"/></g><line class="cls-5" x1="610.56" y1="446.4" x2="626.4" y2="446.4"/><polygon class="cls-4" points="696.96 541.38 711.36 541.38 704.16 550.05 696.96 558.72 689.76 550.05 682.56 541.38 696.96 541.38"/></g><g id="Field"><circle class="cls-8" cx="616.32" cy="273.6" r="2.88"/></g></svg>