<?xml version="1.0" encoding="UTF-8"?><svg xmlns="http://www.w3.org/2000/svg" viewBox="0 0 1080 600.48"><defs><style>.cls-1{stroke-width:3px;}.cls-1,.cls-2,.cls-3,.cls-4,.cls-5,.cls-6,.cls-7,.cls-8,.cls-9{fill:none;stroke:#1d1e1b;stroke-miterlimit:10;}.cls-10,.cls-11,.cls-12,.cls-13{fill:#1d1e1b;}.cls-10,.cls-12,.cls-13{font-family:Roboto-Regular, Roboto;}.cls-14{letter-spacing:-.01em;}.cls-2{stroke-width:.75px;}.cls-3{stroke-width:2px;}.cls-4{stroke-width:2px;}.cls-15,.cls-12{font-size:18px;}.cls-16,.cls-17{font-size:12px;}.cls-6{stroke-width:1.98px;}.cls-7{stroke-width:.93px;}.cls-8{stroke-width:.93px;}.cls-17{letter-spacing:-.02em;}.cls-9{stroke-width:1px;}.cls-13{font-size:14px;}</style></defs><g id="TEXT"><text class="cls-12" transform="translate(78.47 138.78)"><tspan x="0" y="0">1</tspan></text><text class="cls-12" transform="translate(78.47 196.38)"><tspan x="0" y="0">2</tspan></text><text class="cls-12" transform="translate(78.47 253.98)"><tspan x="0" y="0">3</tspan></text><text class="cls-12" transform="translate(78.47 311.58)"><tspan x="0" y="0">4</tspan></text><text class="cls-12" transform="translate(78.47 369.18)"><tspan x="0" y="0">5</tspan></text><text class="cls-12" transform="translate(78.47 426.78)"><tspan x="0" y="0">6</tspan></text><text class="cls-12" transform="translate(78.47 484.38)"><tspan x="0" y="0">7</tspan></text><text class="cls-12" transform="translate(331.89 138.78)"><tspan x="0" y="0">14</tspan></text><text class="cls-12" transform="translate(331.89 196.38)"><tspan x="0" y="0">13</tspan></text><text class="cls-12" transform="translate(331.89 253.98)"><tspan x="0" y="0">12</tspan></text><text class="cls-12" transform="translate(331.89 311.58)"><tspan x="0" y="0">11</tspan></text><text class="cls-12" transform="translate(331.89 369.18)"><tspan x="0" y="0">10</tspan></text><text class="cls-12" transform="translate(337.67 426.78)"><tspan x="0" y="0">9</tspan></text><text class="cls-12" transform="translate(337.67 484.38)"><tspan x="0" y="0">8</tspan></text><text class="cls-10" transform="translate(105.23 484.38)"><tspan class="cls-15" x="0" y="0">V</tspan><tspan class="cls-16" x="11.45" y="0">SS</tspan></text><text class="cls-10" transform="translate(290.24 138.78)"><tspan class="cls-15" x="0" y="0">V</tspan><tspan class="cls-16" x="11.45" y="0">DD</tspan></text><text class="cls-12" transform="translate(181.15 547.2)"><tspan x="0" y="0">CD4070</tspan></text><text class="cls-13" transform="translate(106.54 39.3)"><tspan x="0" y="0">1,5,8,12</tspan></text><text class="cls-13" transform="translate(105.82 59.46)"><tspan x="0" y="0">2,6,9,13</tspan></text><text class="cls-13" transform="translate(269.65 50.46)"><tspan x="0" y="0">3,4,10,11</tspan></text><text class="cls-10" transform="translate(784.88 280.8)"><tspan class="cls-15" x="0" y="0">V</tspan><tspan class="cls-16" x="11.45" y="0">OU</tspan><tspan class="cls-17" x="27.48" y="0">T</tspan></text><text class="cls-12" transform="translate(720.94 231.84)"><tspan x="0" y="0">1/4 CD4070</tspan></text><text class="cls-12" transform="translate(612.71 329.76)"><tspan x="0" y="0">2</tspan></text><text class="cls-12" transform="translate(758.15 280.8)"><tspan x="0" y="0">3</tspan></text><text class="cls-12" transform="translate(612.71 259.2)"><tspan x="0" y="0">1</tspan></text><text class="cls-10" transform="translate(688.43 394.56)"><tspan class="cls-15" x="0" y="0">V</tspan><tspan class="cls-16" x="11.45" y="0">SS</tspan></text><text class="cls-10" transform="translate(684.81 195.84)"><tspan class="cls-15" x="0" y="0">V</tspan><tspan class="cls-16" x="11.45" y="0">DD</tspan></text><text class="cls-12" transform="translate(647.97 233.28)"><tspan x="0" y="0">14</tspan></text><text class="cls-12" transform="translate(657.35 352.8)"><tspan x="0" y="0">7</tspan></text><text class="cls-12" transform="translate(830.72 332.64)"><tspan x="0" y="0">Modulated Output</tspan></text><text class="cls-13" transform="translate(197.28 20.16)"><tspan class="cls-14" x="0" y="0">X</tspan><tspan x="8.61" y="0">OR</tspan></text></g><g id="Line"><line class="cls-8" x1="267.49" y1="46.08" x2="240.5" y2="46.08"/><path class="cls-7" d="M187.19,25.92c3.73,0,6.75,11.42,6.75,20.15s-3.02,20.15-6.75,20.15"/><line class="cls-8" x1="206.76" y1="25.92" x2="187.19" y2="25.92"/><line class="cls-8" x1="206.76" y1="66.24" x2="187.19" y2="66.24"/><path class="cls-7" d="M206.76,25.92c18.63,0,33.74,20.15,33.74,20.15,0,0-15.11,20.15-33.74,20.15"/><path class="cls-7" d="M182.47,25.92c3.73,0,6.75,11.42,6.75,20.15s-3.02,20.15-6.75,20.15"/><line class="cls-8" x1="192.59" y1="56.16" x2="165.6" y2="56.16"/><line class="cls-8" x1="192.59" y1="36" x2="165.6" y2="36"/><line class="cls-9" x1="155.52" y1="244.8" x2="155.51" y2="232.32"/><path class="cls-9" d="M175.67,179.01c0,3.73-11.42,6.75-20.15,6.75s-20.15-3.02-20.15-6.75"/><line class="cls-9" x1="175.67" y1="198.58" x2="175.67" y2="179.01"/><line class="cls-9" x1="135.35" y1="198.58" x2="135.35" y2="179.01"/><path class="cls-9" d="M175.67,198.58c0,18.63-20.15,33.74-20.15,33.74,0,0-20.15-15.11-20.15-33.74"/><path class="cls-9" d="M175.67,174.29c0,3.73-11.42,6.75-20.15,6.75s-20.15-3.02-20.15-6.75"/><line class="cls-9" x1="145.43" y1="184.41" x2="145.44" y2="158.4"/><line class="cls-9" x1="165.59" y1="184.41" x2="165.6" y2="129.6"/><line class="cls-9" x1="155.52" y1="302.4" x2="155.53" y2="314.88"/><path class="cls-9" d="M135.37,368.19c0-3.73,11.42-6.75,20.15-6.75s20.15,3.02,20.15,6.75"/><line class="cls-9" x1="135.37" y1="348.62" x2="135.37" y2="368.19"/><line class="cls-9" x1="175.69" y1="348.62" x2="175.69" y2="368.19"/><path class="cls-9" d="M135.37,348.62c0-18.63,20.15-33.74,20.15-33.74,0,0,20.15,15.11,20.15,33.74"/><path class="cls-9" d="M135.37,372.91c0-3.73,11.42-6.75,20.15-6.75s20.15,3.02,20.15,6.75"/><line class="cls-9" x1="165.61" y1="362.79" x2="165.6" y2="417.6"/><line class="cls-9" x1="145.45" y1="362.79" x2="145.44" y2="388.8"/><line class="cls-9" x1="270.71" y1="360" x2="270.72" y2="372.48"/><path class="cls-9" d="M250.56,425.79c0-3.73,11.42-6.75,20.15-6.75s20.15,3.02,20.15,6.75"/><line class="cls-9" x1="250.56" y1="406.22" x2="250.56" y2="425.79"/><line class="cls-9" x1="290.88" y1="406.22" x2="290.88" y2="425.79"/><path class="cls-9" d="M250.56,406.22c0-18.63,20.15-33.74,20.15-33.74,0,0,20.15,15.11,20.15,33.74"/><path class="cls-9" d="M250.56,430.51c0-3.73,11.42-6.75,20.15-6.75s20.15,3.02,20.15,6.75"/><line class="cls-9" x1="280.8" y1="420.39" x2="280.8" y2="446.4"/><line class="cls-9" x1="260.64" y1="420.39" x2="260.64" y2="475.2"/><line class="cls-9" x1="270.73" y1="302.4" x2="270.72" y2="289.92"/><path class="cls-9" d="M290.88,236.61c0,3.73-11.42,6.75-20.15,6.75s-20.15-3.02-20.15-6.75"/><line class="cls-9" x1="290.88" y1="256.18" x2="290.88" y2="236.61"/><line class="cls-9" x1="250.56" y1="256.18" x2="250.56" y2="236.61"/><path class="cls-9" d="M290.88,256.18c0,18.63-20.15,33.74-20.15,33.74,0,0-20.15-15.11-20.15-33.74"/><path class="cls-9" d="M290.88,231.89c0,3.73-11.42,6.75-20.15,6.75s-20.15-3.02-20.15-6.75"/><line class="cls-9" x1="260.64" y1="242.01" x2="260.64" y2="187.2"/><line class="cls-9" x1="280.8" y1="242.01" x2="280.8" y2="216"/><line class="cls-1" x1="97.92" y1="86.4" x2="198.72" y2="86.4"/><line class="cls-1" x1="227.52" y1="86.4" x2="328.32" y2="86.4"/><path class="cls-1" d="M227.52,86.4c0,7.95-6.45,14.4-14.4,14.4s-14.4-6.45-14.4-14.4"/><rect class="cls-5" x="69.12" y="115.2" width="28.8" height="28.8"/><rect class="cls-5" x="69.12" y="172.8" width="28.8" height="28.8"/><rect class="cls-5" x="69.12" y="230.4" width="28.8" height="28.8"/><line class="cls-1" x1="97.92" y1="86.4" x2="97.92" y2="518.4"/><line class="cls-1" x1="97.92" y1="518.4" x2="328.32" y2="518.4"/><line class="cls-1" x1="328.32" y1="86.4" x2="328.32" y2="518.4"/><rect class="cls-5" x="69.12" y="288" width="28.8" height="28.8"/><rect class="cls-5" x="69.12" y="345.6" width="28.8" height="28.8"/><rect class="cls-5" x="69.12" y="403.2" width="28.8" height="28.8"/><rect class="cls-5" x="69.12" y="460.8" width="28.8" height="28.8"/><rect class="cls-5" x="328.32" y="115.2" width="28.8" height="28.8"/><rect class="cls-5" x="328.32" y="172.8" width="28.8" height="28.8"/><rect class="cls-5" x="328.32" y="230.4" width="28.8" height="28.8"/><rect class="cls-5" x="328.32" y="288" width="28.8" height="28.8"/><rect class="cls-5" x="328.32" y="345.6" width="28.8" height="28.8"/><rect class="cls-5" x="328.32" y="403.2" width="28.8" height="28.8"/><rect class="cls-5" x="328.32" y="460.8" width="28.8" height="28.8"/><line class="cls-9" x1="99.36" y1="244.8" x2="155.52" y2="244.8"/><line class="cls-9" x1="99.36" y1="129.6" x2="165.6" y2="129.6"/><line class="cls-9" x1="97.92" y1="187.2" x2="118.08" y2="187.2"/><line class="cls-9" x1="118.08" y1="158.4" x2="118.08" y2="187.2"/><line class="cls-9" x1="145.44" y1="158.4" x2="118.08" y2="158.4"/><line class="cls-9" x1="99.36" y1="302.4" x2="155.52" y2="302.4"/><line class="cls-9" x1="99.36" y1="417.6" x2="165.6" y2="417.6"/><line class="cls-9" x1="97.92" y1="360" x2="118.08" y2="360"/><line class="cls-9" x1="118.08" y1="388.8" x2="118.08" y2="360"/><line class="cls-9" x1="145.44" y1="388.8" x2="118.08" y2="388.8"/><line class="cls-9" x1="326.88" y1="302.4" x2="270.72" y2="302.4"/><line class="cls-9" x1="326.88" y1="187.2" x2="260.64" y2="187.2"/><line class="cls-5" x1="328.32" y1="244.8" x2="308.16" y2="244.8"/><line class="cls-5" x1="308.16" y1="216" x2="308.16" y2="244.8"/><line class="cls-9" x1="280.8" y1="216" x2="308.16" y2="216"/><line class="cls-9" x1="326.88" y1="360" x2="270.72" y2="360"/><line class="cls-9" x1="326.88" y1="475.2" x2="260.64" y2="475.2"/><line class="cls-5" x1="328.32" y1="417.6" x2="308.16" y2="417.6"/><line class="cls-5" x1="308.16" y1="446.4" x2="308.16" y2="417.6"/><line class="cls-9" x1="280.8" y1="446.4" x2="308.16" y2="446.4"/><g><line class="cls-4" x1="673.92" y1="246.24" x2="673.92" y2="184.16"/><polygon class="cls-11" points="683.46 201.89 680.64 202.92 673.92 184.45 667.2 202.92 664.38 201.89 673.92 175.68 683.46 201.89"/></g><line class="cls-4" x1="673.92" y1="332.64" x2="673.92" y2="374.4"/><line class="cls-2" x1="475.2" y1="277.8" x2="475.2" y2="256.2"/><line class="cls-2" x1="480.96" y1="277.8" x2="480.96" y2="256.2"/><line class="cls-2" x1="475.2" y1="256.2" x2="480.96" y2="256.2"/><line class="cls-2" x1="480.96" y1="277.8" x2="486.72" y2="277.8"/><line class="cls-2" x1="486.72" y1="277.8" x2="486.72" y2="256.2"/><line class="cls-2" x1="492.48" y1="277.92" x2="492.48" y2="256.32"/><line class="cls-2" x1="486.72" y1="256.32" x2="492.48" y2="256.32"/><line class="cls-2" x1="492.48" y1="277.92" x2="498.24" y2="277.92"/><line class="cls-2" x1="498.24" y1="277.8" x2="498.24" y2="256.2"/><line class="cls-2" x1="504" y1="277.8" x2="504" y2="256.2"/><line class="cls-2" x1="498.24" y1="256.2" x2="504" y2="256.2"/><line class="cls-2" x1="504" y1="277.8" x2="509.76" y2="277.8"/><line class="cls-2" x1="509.76" y1="277.8" x2="509.76" y2="256.2"/><line class="cls-2" x1="515.52" y1="277.92" x2="515.52" y2="256.32"/><line class="cls-2" x1="509.76" y1="256.32" x2="515.52" y2="256.32"/><line class="cls-2" x1="515.52" y1="277.92" x2="521.28" y2="277.92"/><line class="cls-2" x1="521.28" y1="277.8" x2="521.28" y2="256.2"/><line class="cls-2" x1="527.04" y1="277.8" x2="527.04" y2="256.2"/><line class="cls-2" x1="521.28" y1="256.2" x2="527.04" y2="256.2"/><line class="cls-2" x1="527.04" y1="277.8" x2="532.8" y2="277.8"/><line class="cls-2" x1="532.8" y1="277.8" x2="532.8" y2="256.2"/><line class="cls-2" x1="538.56" y1="277.92" x2="538.56" y2="256.32"/><line class="cls-2" x1="532.8" y1="256.32" x2="538.56" y2="256.32"/><line class="cls-2" x1="538.56" y1="277.92" x2="544.32" y2="277.92"/><line class="cls-2" x1="544.32" y1="277.8" x2="544.32" y2="256.2"/><line class="cls-2" x1="550.08" y1="277.8" x2="550.08" y2="256.2"/><line class="cls-2" x1="544.32" y1="256.2" x2="550.08" y2="256.2"/><line class="cls-2" x1="550.08" y1="277.8" x2="555.84" y2="277.8"/><line class="cls-2" x1="555.84" y1="277.8" x2="555.84" y2="256.2"/><line class="cls-2" x1="561.6" y1="277.92" x2="561.6" y2="256.32"/><line class="cls-2" x1="555.84" y1="256.32" x2="561.6" y2="256.32"/><line class="cls-2" x1="561.6" y1="277.92" x2="567.36" y2="277.92"/><line class="cls-2" x1="475.2" y1="318.24" x2="475.2" y2="296.64"/><line class="cls-2" x1="475.2" y1="296.64" x2="489.6" y2="296.64"/><line class="cls-2" x1="489.6" y1="318.24" x2="489.6" y2="296.64"/><line class="cls-2" x1="567.36" y1="277.92" x2="567.36" y2="256.32"/><line class="cls-2" x1="573.12" y1="277.92" x2="573.12" y2="256.32"/><line class="cls-2" x1="567.36" y1="256.32" x2="573.12" y2="256.32"/><line class="cls-2" x1="573.12" y1="277.92" x2="578.88" y2="277.92"/><line class="cls-2" x1="504" y1="318.24" x2="504" y2="296.64"/><line class="cls-2" x1="504" y1="296.64" x2="518.4" y2="296.64"/><line class="cls-2" x1="518.4" y1="318.24" x2="518.4" y2="296.64"/><line class="cls-2" x1="489.6" y1="318.24" x2="504" y2="318.24"/><line class="cls-2" x1="532.8" y1="318.24" x2="532.8" y2="296.64"/><line class="cls-2" x1="532.8" y1="296.64" x2="547.2" y2="296.64"/><line class="cls-2" x1="547.2" y1="318.24" x2="547.2" y2="296.64"/><line class="cls-2" x1="518.4" y1="318.24" x2="532.8" y2="318.24"/><line class="cls-2" x1="561.6" y1="318.24" x2="561.6" y2="296.64"/><line class="cls-2" x1="561.6" y1="296.64" x2="576" y2="296.64"/><line class="cls-2" x1="576" y1="318.24" x2="576" y2="296.64"/><line class="cls-2" x1="547.2" y1="318.24" x2="561.6" y2="318.24"/><line class="cls-2" x1="858.24" y1="299.52" x2="858.24" y2="277.92"/><line class="cls-2" x1="851.04" y1="299.52" x2="858.24" y2="299.52"/><line class="cls-2" x1="858.24" y1="277.92" x2="864" y2="277.92"/><line class="cls-2" x1="864" y1="299.52" x2="864" y2="277.92"/><line class="cls-2" x1="864" y1="299.52" x2="866.88" y2="299.52"/><line class="cls-2" x1="866.88" y1="299.52" x2="866.88" y2="277.92"/><line class="cls-2" x1="869.76" y1="299.52" x2="869.76" y2="277.92"/><line class="cls-2" x1="866.88" y1="277.92" x2="869.76" y2="277.92"/><line class="cls-2" x1="869.76" y1="299.52" x2="875.52" y2="299.52"/><line class="cls-2" x1="875.52" y1="299.52" x2="875.52" y2="277.92"/><line class="cls-2" x1="875.52" y1="277.92" x2="887.04" y2="277.92"/><line class="cls-2" x1="887.04" y1="299.52" x2="892.8" y2="299.52"/><line class="cls-2" x1="887.04" y1="299.52" x2="887.04" y2="277.92"/><line class="cls-2" x1="892.8" y1="299.52" x2="892.8" y2="277.92"/><line class="cls-2" x1="895.68" y1="299.52" x2="895.68" y2="277.92"/><line class="cls-2" x1="898.56" y1="299.52" x2="898.56" y2="277.92"/><line class="cls-2" x1="892.8" y1="277.92" x2="895.68" y2="277.92"/><line class="cls-2" x1="895.68" y1="299.52" x2="898.56" y2="299.52"/><line class="cls-2" x1="898.56" y1="277.92" x2="904.32" y2="277.92"/><line class="cls-2" x1="904.32" y1="299.52" x2="904.32" y2="277.92"/><line class="cls-2" x1="915.84" y1="299.52" x2="915.84" y2="277.92"/><line class="cls-2" x1="921.6" y1="299.52" x2="921.6" y2="277.92"/><line class="cls-2" x1="924.48" y1="299.52" x2="924.48" y2="277.92"/><line class="cls-2" x1="927.36" y1="299.52" x2="927.36" y2="277.92"/><line class="cls-2" x1="933.12" y1="299.52" x2="933.12" y2="277.92"/><line class="cls-2" x1="944.64" y1="299.52" x2="944.64" y2="277.92"/><line class="cls-2" x1="950.4" y1="299.52" x2="950.4" y2="277.92"/><line class="cls-2" x1="953.28" y1="299.52" x2="953.28" y2="277.92"/><line class="cls-2" x1="904.32" y1="299.52" x2="915.84" y2="299.52"/><line class="cls-2" x1="915.84" y1="277.92" x2="921.6" y2="277.92"/><line class="cls-2" x1="921.6" y1="299.52" x2="924.48" y2="299.52"/><line class="cls-2" x1="924.48" y1="277.92" x2="927.36" y2="277.92"/><line class="cls-2" x1="927.36" y1="299.52" x2="933.12" y2="299.52"/><line class="cls-2" x1="933.12" y1="277.92" x2="944.64" y2="277.92"/><line class="cls-2" x1="950.4" y1="277.92" x2="953.28" y2="277.92"/><line class="cls-2" x1="944.64" y1="299.52" x2="950.4" y2="299.52"/><line class="cls-6" x1="813.6" y1="289.44" x2="756" y2="289.44"/><path class="cls-6" d="M642.24,246.24c7.95,0,14.4,24.48,14.4,43.2s-6.45,43.2-14.4,43.2"/><line class="cls-6" x1="684" y1="246.24" x2="642.24" y2="246.24"/><line class="cls-6" x1="684" y1="332.64" x2="642.24" y2="332.64"/><path class="cls-6" d="M684,246.24c39.76,0,72,43.2,72,43.2,0,0-32.24,43.2-72,43.2"/><path class="cls-6" d="M632.16,246.24c7.95,0,14.4,24.48,14.4,43.2s-6.45,43.2-14.4,43.2"/><line class="cls-6" x1="653.76" y1="311.04" x2="596.16" y2="311.04"/><line class="cls-6" x1="653.76" y1="267.84" x2="596.16" y2="267.84"/><polygon class="cls-3" points="673.92 374.4 688.32 374.4 681.12 383.76 673.92 393.12 666.72 383.76 659.52 374.4 673.92 374.4"/></g></svg>