<?xml version="1.0" encoding="UTF-8"?><svg xmlns="http://www.w3.org/2000/svg" viewBox="0 0 1080 600.48"><defs><style>.cls-1{stroke-width:3px;}.cls-1,.cls-2,.cls-3,.cls-4{fill:none;stroke:#1d1e1b;stroke-miterlimit:10;}.cls-5{fill:#1d1e1b;}.cls-2{stroke-width:2px;}.cls-3{stroke-width:2px;}</style></defs><g id="Field"><rect class="cls-5" x="424.8" y="444.96" width="60.48" height="7.2"/><circle class="cls-5" cx="954.72" cy="257.76" r="4.32"/><rect class="cls-5" x="424.8" y="433.44" width="60.48" height="7.2"/><circle class="cls-5" cx="732.96" cy="396" r="4.32"/><circle class="cls-5" cx="676.8" cy="228.96" r="4.32"/><circle class="cls-5" cx="455.04" cy="367.2" r="4.32"/><rect class="cls-5" x="702.72" y="444.96" width="60.48" height="7.2"/><rect class="cls-5" x="702.72" y="433.44" width="60.48" height="7.2"/></g><g id="Line"><line class="cls-1" x1="97.92" y1="86.4" x2="198.72" y2="86.4"/><line class="cls-1" x1="227.52" y1="86.4" x2="328.32" y2="86.4"/><path class="cls-1" d="M227.52,86.4c0,7.95-6.45,14.4-14.4,14.4s-14.4-6.45-14.4-14.4"/><rect class="cls-4" x="69.12" y="115.2" width="28.8" height="28.8"/><rect class="cls-4" x="69.12" y="172.8" width="28.8" height="28.8"/><rect class="cls-4" x="69.12" y="230.4" width="28.8" height="28.8"/><line class="cls-1" x1="97.92" y1="86.4" x2="97.92" y2="518.4"/><line class="cls-1" x1="97.92" y1="518.4" x2="328.32" y2="518.4"/><line class="cls-1" x1="328.32" y1="86.4" x2="328.32" y2="518.4"/><rect class="cls-4" x="69.12" y="288" width="28.8" height="28.8"/><rect class="cls-4" x="69.12" y="345.6" width="28.8" height="28.8"/><rect class="cls-4" x="69.12" y="403.2" width="28.8" height="28.8"/><rect class="cls-4" x="69.12" y="460.8" width="28.8" height="28.8"/><rect class="cls-4" x="328.32" y="115.2" width="28.8" height="28.8"/><rect class="cls-4" x="328.32" y="172.8" width="28.8" height="28.8"/><rect class="cls-4" x="328.32" y="230.4" width="28.8" height="28.8"/><rect class="cls-4" x="328.32" y="288" width="28.8" height="28.8"/><rect class="cls-4" x="328.32" y="345.6" width="28.8" height="28.8"/><rect class="cls-4" x="328.32" y="403.2" width="28.8" height="28.8"/><rect class="cls-4" x="328.32" y="460.8" width="28.8" height="28.8"/><g><line class="cls-4" x1="145.44" y1="174.24" x2="145.44" y2="158.4"/><line class="cls-4" x1="99.36" y1="244.8" x2="155.52" y2="244.8"/><line class="cls-4" x1="155.52" y1="218.88" x2="155.52" y2="244.8"/><g><line class="cls-4" x1="138.24" y1="195.84" x2="138.24" y2="174.24"/><line class="cls-4" x1="172.8" y1="195.84" x2="172.8" y2="174.24"/><line class="cls-4" x1="149.76" y1="182.88" x2="149.76" y2="192.96"/><line class="cls-4" x1="149.76" y1="187.2" x2="161.28" y2="190.08"/><line class="cls-4" x1="149.76" y1="192.96" x2="161.28" y2="195.84"/><line class="cls-4" x1="172.8" y1="174.24" x2="138.24" y2="174.24"/><circle class="cls-4" cx="155.52" cy="216" r="2.88"/><path class="cls-4" d="M172.8,195.84c0,9.54-7.74,17.28-17.28,17.28s-17.28-7.74-17.28-17.28"/><line class="cls-4" x1="161.28" y1="190.08" x2="161.28" y2="200.16"/></g><line class="cls-4" x1="165.6" y1="174.24" x2="165.6" y2="129.6"/><line class="cls-4" x1="99.36" y1="129.6" x2="165.6" y2="129.6"/><line class="cls-4" x1="97.92" y1="187.2" x2="118.08" y2="187.2"/><line class="cls-4" x1="118.08" y1="158.4" x2="118.08" y2="187.2"/><line class="cls-4" x1="145.44" y1="158.4" x2="118.08" y2="158.4"/></g><g><line class="cls-4" x1="145.44" y1="372.96" x2="145.44" y2="388.8"/><line class="cls-4" x1="99.36" y1="302.4" x2="155.52" y2="302.4"/><line class="cls-4" x1="155.52" y1="328.32" x2="155.52" y2="302.4"/><g><line class="cls-4" x1="138.24" y1="351.36" x2="138.24" y2="372.96"/><line class="cls-4" x1="172.8" y1="351.36" x2="172.8" y2="372.96"/><line class="cls-4" x1="149.76" y1="364.32" x2="149.76" y2="354.24"/><line class="cls-4" x1="149.76" y1="360" x2="161.28" y2="357.12"/><line class="cls-4" x1="149.76" y1="354.24" x2="161.28" y2="351.36"/><line class="cls-4" x1="172.8" y1="372.96" x2="138.24" y2="372.96"/><circle class="cls-4" cx="155.52" cy="331.2" r="2.88"/><path class="cls-4" d="M172.8,351.36c0-9.54-7.74-17.28-17.28-17.28s-17.28,7.74-17.28,17.28"/><line class="cls-4" x1="161.28" y1="357.12" x2="161.28" y2="347.04"/></g><line class="cls-4" x1="165.6" y1="372.96" x2="165.6" y2="417.6"/><line class="cls-4" x1="99.36" y1="417.6" x2="165.6" y2="417.6"/><line class="cls-4" x1="97.92" y1="360" x2="118.08" y2="360"/><line class="cls-4" x1="118.08" y1="388.8" x2="118.08" y2="360"/><line class="cls-4" x1="145.44" y1="388.8" x2="118.08" y2="388.8"/></g><g><line class="cls-4" x1="280.8" y1="231.84" x2="280.8" y2="216"/><line class="cls-4" x1="326.88" y1="302.4" x2="270.72" y2="302.4"/><line class="cls-4" x1="270.72" y1="276.48" x2="270.72" y2="302.4"/><g><line class="cls-4" x1="288" y1="253.44" x2="288" y2="231.84"/><line class="cls-4" x1="253.44" y1="253.44" x2="253.44" y2="231.84"/><line class="cls-4" x1="276.48" y1="240.48" x2="276.48" y2="250.56"/><line class="cls-4" x1="276.48" y1="244.8" x2="264.96" y2="247.68"/><line class="cls-4" x1="276.48" y1="250.56" x2="264.96" y2="253.44"/><line class="cls-4" x1="253.44" y1="231.84" x2="288" y2="231.84"/><circle class="cls-4" cx="270.72" cy="273.6" r="2.88"/><path class="cls-4" d="M253.44,253.44c0,9.54,7.74,17.28,17.28,17.28s17.28-7.74,17.28-17.28"/><line class="cls-4" x1="264.96" y1="247.68" x2="264.96" y2="257.76"/></g><line class="cls-4" x1="260.64" y1="231.84" x2="260.64" y2="187.2"/><line class="cls-4" x1="326.88" y1="187.2" x2="260.64" y2="187.2"/><line class="cls-4" x1="328.32" y1="244.8" x2="308.16" y2="244.8"/><line class="cls-4" x1="308.16" y1="216" x2="308.16" y2="244.8"/><line class="cls-4" x1="280.8" y1="216" x2="308.16" y2="216"/></g><g><line class="cls-4" x1="280.8" y1="430.56" x2="280.8" y2="446.4"/><line class="cls-4" x1="326.88" y1="360" x2="270.72" y2="360"/><line class="cls-4" x1="270.72" y1="385.92" x2="270.72" y2="360"/><g><line class="cls-4" x1="288" y1="408.96" x2="288" y2="430.56"/><line class="cls-4" x1="253.44" y1="408.96" x2="253.44" y2="430.56"/><line class="cls-4" x1="276.48" y1="421.92" x2="276.48" y2="411.84"/><line class="cls-4" x1="276.48" y1="417.6" x2="264.96" y2="414.72"/><line class="cls-4" x1="276.48" y1="411.84" x2="264.96" y2="408.96"/><line class="cls-4" x1="253.44" y1="430.56" x2="288" y2="430.56"/><circle class="cls-4" cx="270.72" cy="388.8" r="2.88"/><path class="cls-4" d="M253.44,408.96c0-9.54,7.74-17.28,17.28-17.28s17.28,7.74,17.28,17.28"/><line class="cls-4" x1="264.96" y1="414.72" x2="264.96" y2="404.64"/></g><line class="cls-4" x1="260.64" y1="430.56" x2="260.64" y2="475.2"/><line class="cls-4" x1="326.88" y1="475.2" x2="260.64" y2="475.2"/><line class="cls-4" x1="328.32" y1="417.6" x2="308.16" y2="417.6"/><line class="cls-4" x1="308.16" y1="446.4" x2="308.16" y2="417.6"/><line class="cls-4" x1="280.8" y1="446.4" x2="308.16" y2="446.4"/></g><line class="cls-4" x1="191.52" y1="54.72" x2="165.6" y2="54.72"/><line class="cls-4" x1="236.16" y1="44.64" x2="262.08" y2="44.64"/><g><line class="cls-4" x1="213.12" y1="61.92" x2="191.52" y2="61.92"/><line class="cls-4" x1="213.12" y1="27.36" x2="191.52" y2="27.36"/><line class="cls-4" x1="200.16" y1="50.4" x2="210.24" y2="50.4"/><line class="cls-4" x1="204.48" y1="50.4" x2="207.36" y2="38.88"/><line class="cls-4" x1="210.24" y1="50.4" x2="213.12" y2="38.88"/><line class="cls-4" x1="191.52" y1="27.36" x2="191.52" y2="61.92"/><circle class="cls-4" cx="233.28" cy="44.64" r="2.88"/><path class="cls-4" d="M213.12,27.36c9.54,0,17.28,7.74,17.28,17.28s-7.74,17.28-17.28,17.28"/><line class="cls-4" x1="207.36" y1="38.88" x2="217.44" y2="38.88"/></g><line class="cls-4" x1="191.52" y1="34.56" x2="165.6" y2="34.56"/><line class="cls-3" x1="511.2" y1="178.56" x2="511.2" y2="272.16"/><line class="cls-3" x1="554.4" y1="250.56" x2="558.72" y2="207.36"/><line class="cls-3" x1="540" y1="250.56" x2="573.12" y2="250.56"/><line class="cls-3" x1="573.12" y1="250.56" x2="577.44" y2="207.36"/><circle class="cls-3" cx="646.56" cy="228.96" r="8.64"/><line class="cls-3" x1="511.2" y1="243.36" x2="455.04" y2="243.36"/><line class="cls-3" x1="455.04" y1="436.32" x2="455.04" y2="243.36"/><line class="cls-3" x1="455.04" y1="447.84" x2="455.04" y2="515.52"/><line class="cls-3" x1="455.04" y1="367.2" x2="541.44" y2="367.2"/><line class="cls-3" x1="612" y1="367.2" x2="676.8" y2="367.2"/><line class="cls-3" x1="676.8" y1="367.2" x2="676.8" y2="228.96"/><line class="cls-3" x1="655.2" y1="228.96" x2="696.96" y2="228.96"/><g><line class="cls-3" x1="936" y1="257.76" x2="1033.19" y2="257.76"/><path class="cls-5" d="M1012.69,272.16c-.45-.7-.24-1.63,.46-2.07l19.36-12.33-19.36-12.33c-.7-.45-.91-1.37-.46-2.07,.45-.7,1.38-.9,2.07-.46l21.34,13.59c.43,.28,.69,.75,.69,1.27s-.26,.99-.69,1.27l-21.34,13.59c-.25,.16-.53,.23-.81,.23-.5,0-.98-.25-1.27-.69Z"/></g><rect class="cls-3" x="540" y="355.68" width="72" height="23.04"/><line class="cls-3" x1="591.84" y1="178.56" x2="511.2" y2="178.56"/><line class="cls-3" x1="591.84" y1="272.16" x2="511.2" y2="272.16"/><line class="cls-3" x1="558.72" y1="207.36" x2="591.84" y2="207.36"/><line class="cls-3" x1="511.2" y1="200.16" x2="455.04" y2="200.16"/><g><line class="cls-3" x1="455.04" y1="200.16" x2="455.04" y2="64.64"/><polygon class="cls-5" points="464.58 82.37 461.76 83.4 455.04 64.93 448.32 83.4 445.5 82.37 455.04 56.16 464.58 82.37"/></g><path class="cls-3" d="M591.12,272.16c25.85,0,46.8-20.95,46.8-46.8s-20.95-46.8-46.8-46.8"/><g><line class="cls-3" x1="563.04" y1="178.56" x2="563.04" y2="138.08"/><polygon class="cls-5" points="572.58 155.81 569.76 156.84 563.04 138.37 556.32 156.84 553.5 155.81 563.04 129.6 572.58 155.81"/></g><line class="cls-3" x1="563.04" y1="272.16" x2="563.04" y2="315.36"/><line class="cls-3" x1="789.12" y1="207.36" x2="789.12" y2="300.96"/><line class="cls-3" x1="832.32" y1="279.36" x2="836.64" y2="236.16"/><line class="cls-3" x1="817.92" y1="279.36" x2="851.04" y2="279.36"/><line class="cls-3" x1="851.04" y1="279.36" x2="855.36" y2="236.16"/><circle class="cls-3" cx="924.48" cy="257.76" r="8.64"/><line class="cls-3" x1="789.12" y1="272.16" x2="732.96" y2="272.16"/><line class="cls-3" x1="732.96" y1="436.32" x2="732.96" y2="272.16"/><line class="cls-3" x1="732.96" y1="449.28" x2="732.96" y2="515.52"/><line class="cls-3" x1="732.96" y1="396" x2="817.92" y2="396"/><line class="cls-3" x1="889.92" y1="396" x2="954.72" y2="396"/><line class="cls-3" x1="954.72" y1="396" x2="954.72" y2="257.76"/><line class="cls-3" x1="933.12" y1="257.76" x2="974.88" y2="257.76"/><rect class="cls-3" x="817.92" y="384.48" width="72" height="23.04"/><line class="cls-3" x1="869.76" y1="207.36" x2="789.12" y2="207.36"/><line class="cls-3" x1="869.76" y1="300.96" x2="789.12" y2="300.96"/><line class="cls-3" x1="836.64" y1="236.16" x2="869.76" y2="236.16"/><line class="cls-3" x1="789.12" y1="228.96" x2="666.72" y2="228.96"/><path class="cls-3" d="M869.04,300.96c25.85,0,46.8-20.95,46.8-46.8s-20.95-46.8-46.8-46.8"/><polygon class="cls-2" points="455.04 515.52 469.44 515.52 462.24 524.16 455.04 532.8 447.84 524.16 440.64 515.52 455.04 515.52"/><polygon class="cls-2" points="732.96 515.52 747.36 515.52 740.16 524.16 732.96 532.8 725.76 524.16 718.56 515.52 732.96 515.52"/><polygon class="cls-2" points="563.04 315.36 577.44 315.36 570.24 324 563.04 332.64 555.84 324 548.64 315.36 563.04 315.36"/></g><g id="TEXT_Vector"><path class="cls-5" d="M84.87,138.78h-1.63v-10.84l-3.28,1.2v-1.48l4.66-1.75h.25v12.86Z"/><path class="cls-5" d="M87.91,196.38h-8.38v-1.17l4.43-4.92c.66-.74,1.11-1.35,1.36-1.81s.37-.95,.37-1.45c0-.67-.2-1.22-.61-1.64s-.94-.64-1.62-.64c-.81,0-1.44,.23-1.89,.69s-.67,1.1-.67,1.92h-1.63c0-1.18,.38-2.13,1.14-2.86s1.77-1.09,3.05-1.09c1.19,0,2.13,.31,2.82,.94s1.04,1.45,1.04,2.49c0,1.26-.8,2.76-2.41,4.5l-3.43,3.72h6.42v1.33Z"/><path class="cls-5" d="M81.89,246.79h1.22c.77-.01,1.37-.21,1.81-.61s.66-.92,.66-1.59c0-1.5-.75-2.25-2.24-2.25-.7,0-1.26,.2-1.68,.6s-.63,.93-.63,1.6h-1.63c0-1.01,.37-1.86,1.11-2.53s1.68-1.01,2.83-1.01c1.21,0,2.15,.32,2.84,.96s1.03,1.53,1.03,2.66c0,.56-.18,1.1-.54,1.62s-.85,.91-1.47,1.17c.7,.22,1.25,.59,1.63,1.11s.58,1.15,.58,1.89c0,1.15-.38,2.06-1.12,2.73s-1.73,1.01-2.93,1.01-2.18-.33-2.93-.98-1.13-1.51-1.13-2.58h1.63c0,.67,.22,1.21,.66,1.62s1.03,.61,1.77,.61c.79,0,1.39-.21,1.8-.62s.62-1,.62-1.77-.23-1.32-.69-1.71-1.12-.6-1.98-.62h-1.22v-1.33Z"/><path class="cls-5" d="M86.39,307.28h1.78v1.33h-1.78v2.97h-1.63v-2.97h-5.83v-.96l5.73-8.87h1.73v8.5Zm-5.62,0h3.98v-6.28l-.19,.35-3.79,5.92Z"/><path class="cls-5" d="M80.28,362.76l.65-6.38h6.56v1.5h-5.18l-.39,3.49c.63-.37,1.34-.55,2.14-.55,1.17,0,2.09,.38,2.78,1.16s1.03,1.81,1.03,3.12-.36,2.36-1.07,3.12-1.71,1.14-2.98,1.14c-1.13,0-2.05-.31-2.77-.94s-1.12-1.49-1.22-2.6h1.54c.1,.73,.36,1.28,.78,1.66s.98,.56,1.67,.56c.76,0,1.35-.26,1.78-.77s.65-1.23,.65-2.14c0-.86-.23-1.54-.7-2.06s-1.09-.78-1.86-.78c-.71,0-1.27,.16-1.67,.47l-.43,.35-1.3-.33Z"/><path class="cls-5" d="M85.91,413.97v1.38h-.3c-1.27,.02-2.27,.4-3.02,1.12s-1.18,1.75-1.3,3.07c.67-.77,1.59-1.16,2.76-1.16s2,.39,2.67,1.18,1,1.8,1,3.04c0,1.32-.36,2.37-1.08,3.16s-1.68,1.19-2.89,1.19-2.22-.47-2.98-1.41-1.14-2.15-1.14-3.63v-.62c0-2.36,.5-4.16,1.51-5.4s2.5-1.88,4.49-1.91h.29Zm-2.14,5.77c-.56,0-1.07,.17-1.54,.5s-.79,.75-.98,1.26v.6c0,1.05,.24,1.9,.71,2.55s1.07,.97,1.78,.97,1.31-.27,1.73-.81,.63-1.25,.63-2.12-.21-1.59-.64-2.13-.99-.81-1.69-.81Z"/><path class="cls-5" d="M87.79,472.5l-5.3,11.88h-1.71l5.28-11.46h-6.93v-1.34h8.65v.91Z"/><g><path class="cls-5" d="M338.3,138.78h-1.63v-10.84l-3.28,1.2v-1.48l4.66-1.75h.25v12.86Z"/><path class="cls-5" d="M349.93,134.48h1.78v1.33h-1.78v2.97h-1.63v-2.97h-5.83v-.96l5.73-8.87h1.73v8.5Zm-5.62,0h3.98v-6.28l-.19,.35-3.79,5.92Z"/></g><g><path class="cls-5" d="M338.3,196.38h-1.63v-10.84l-3.28,1.2v-1.48l4.66-1.75h.25v12.86Z"/><path class="cls-5" d="M345.43,189.19h1.22c.77-.01,1.37-.21,1.81-.61s.66-.92,.66-1.59c0-1.5-.75-2.25-2.24-2.25-.7,0-1.26,.2-1.68,.6s-.63,.93-.63,1.6h-1.63c0-1.01,.37-1.86,1.11-2.53s1.68-1.01,2.83-1.01c1.21,0,2.15,.32,2.84,.96s1.03,1.53,1.03,2.66c0,.56-.18,1.1-.54,1.62s-.85,.91-1.47,1.17c.7,.22,1.25,.59,1.63,1.11s.58,1.15,.58,1.89c0,1.15-.38,2.06-1.12,2.73s-1.73,1.01-2.93,1.01-2.18-.33-2.93-.98-1.13-1.51-1.13-2.58h1.63c0,.67,.22,1.21,.66,1.62s1.03,.61,1.77,.61c.79,0,1.39-.21,1.8-.62s.62-1,.62-1.77-.23-1.32-.69-1.71-1.12-.6-1.98-.62h-1.22v-1.33Z"/></g><g><path class="cls-5" d="M338.3,253.98h-1.63v-10.84l-3.28,1.2v-1.48l4.66-1.75h.25v12.86Z"/><path class="cls-5" d="M351.45,253.98h-8.38v-1.17l4.43-4.92c.66-.74,1.11-1.35,1.36-1.81s.37-.95,.37-1.45c0-.67-.2-1.22-.61-1.64s-.94-.64-1.62-.64c-.81,0-1.44,.23-1.89,.69s-.67,1.1-.67,1.92h-1.63c0-1.18,.38-2.13,1.14-2.86s1.77-1.09,3.05-1.09c1.19,0,2.13,.31,2.82,.94s1.04,1.45,1.04,2.49c0,1.26-.8,2.76-2.41,4.5l-3.43,3.72h6.42v1.33Z"/></g><g><path class="cls-5" d="M338.3,311.58h-1.63v-10.84l-3.28,1.2v-1.48l4.66-1.75h.25v12.86Z"/><path class="cls-5" d="M348.41,311.58h-1.63v-10.84l-3.28,1.2v-1.48l4.66-1.75h.25v12.86Z"/></g><g><path class="cls-5" d="M338.3,369.18h-1.63v-10.84l-3.28,1.2v-1.48l4.66-1.75h.25v12.86Z"/><path class="cls-5" d="M351.09,363.72c0,1.9-.33,3.32-.98,4.25s-1.67,1.39-3.05,1.39-2.38-.45-3.03-1.36-1-2.26-1.02-4.06v-2.17c0-1.88,.33-3.28,.98-4.19s1.67-1.37,3.06-1.37,2.39,.44,3.04,1.32,.98,2.24,1,4.08v2.11Zm-1.63-2.22c0-1.38-.19-2.38-.58-3.01s-1-.94-1.84-.94-1.44,.31-1.82,.94-.58,1.59-.59,2.89v2.6c0,1.38,.2,2.4,.6,3.06s1.01,.99,1.82,.99,1.4-.31,1.79-.93,.59-1.6,.61-2.94v-2.66Z"/></g><path class="cls-5" d="M344.96,421.15c-.34,.4-.75,.73-1.22,.98s-.99,.37-1.55,.37c-.74,0-1.38-.18-1.93-.54s-.97-.87-1.27-1.53-.45-1.39-.45-2.18c0-.86,.16-1.63,.49-2.31s.79-1.21,1.38-1.57,1.29-.54,2.09-.54c1.27,0,2.26,.47,2.99,1.42s1.09,2.24,1.09,3.87v.47c0,2.49-.49,4.31-1.48,5.45s-2.47,1.73-4.46,1.76h-.32v-1.38h.34c1.34-.02,2.37-.37,3.09-1.05s1.11-1.74,1.18-3.21Zm-2.5,0c.54,0,1.05-.17,1.51-.5s.8-.75,1.01-1.24v-.65c0-1.07-.23-1.93-.69-2.6s-1.05-1-1.76-1-1.29,.27-1.72,.82-.65,1.27-.65,2.17,.21,1.59,.63,2.16,.98,.85,1.68,.85Z"/><path class="cls-5" d="M346.49,474.92c0,.64-.17,1.21-.51,1.71s-.79,.89-1.37,1.17c.67,.29,1.2,.71,1.59,1.26s.58,1.17,.58,1.87c0,1.11-.37,1.99-1.12,2.65s-1.73,.98-2.95,.98-2.22-.33-2.96-.99-1.11-1.54-1.11-2.64c0-.69,.19-1.32,.57-1.87s.9-.98,1.57-1.27c-.57-.28-1.02-.67-1.34-1.17s-.49-1.06-.49-1.7c0-1.08,.35-1.93,1.04-2.57s1.6-.95,2.73-.95,2.03,.32,2.73,.95,1.04,1.49,1.04,2.57Zm-1.33,5.97c0-.71-.23-1.3-.68-1.75s-1.05-.68-1.78-.68-1.32,.22-1.76,.67-.66,1.03-.66,1.76,.22,1.3,.65,1.71,1.03,.62,1.8,.62,1.36-.21,1.79-.63,.65-.99,.65-1.71Zm-2.44-8.15c-.64,0-1.16,.2-1.55,.59s-.59,.93-.59,1.61,.19,1.18,.58,1.58,.91,.6,1.56,.6,1.17-.2,1.56-.6,.58-.93,.58-1.58-.2-1.18-.61-1.59-.92-.62-1.54-.62Z"/><g><path class="cls-5" d="M110.96,482.14l3.66-10.56h1.85l-4.75,12.8h-1.49l-4.74-12.8h1.84l3.64,10.56Z"/><path class="cls-5" d="M120.19,480.58c-.96-.28-1.67-.62-2.11-1.02s-.66-.9-.66-1.5c0-.67,.27-1.23,.81-1.67s1.24-.66,2.09-.66c.59,0,1.11,.11,1.57,.34s.81,.54,1.07,.94,.38,.83,.38,1.31h-1.13c0-.52-.16-.92-.49-1.22s-.79-.44-1.39-.44c-.55,0-.99,.12-1.3,.37-.31,.24-.47,.58-.47,1.02,0,.35,.15,.64,.44,.88,.29,.24,.8,.46,1.51,.66,.71,.2,1.26,.42,1.66,.66s.7,.52,.89,.84,.29,.7,.29,1.13c0,.69-.27,1.25-.81,1.66s-1.26,.62-2.16,.62c-.59,0-1.13-.11-1.64-.34s-.9-.53-1.17-.92-.41-.83-.41-1.33h1.13c0,.52,.19,.92,.57,1.22s.89,.45,1.53,.45c.59,0,1.05-.12,1.37-.36s.47-.57,.47-.99-.15-.74-.44-.97-.82-.45-1.59-.68Z"/><path class="cls-5" d="M127.31,480.58c-.96-.28-1.67-.62-2.11-1.02s-.66-.9-.66-1.5c0-.67,.27-1.23,.81-1.67s1.24-.66,2.09-.66c.59,0,1.11,.11,1.57,.34s.81,.54,1.07,.94,.38,.83,.38,1.31h-1.13c0-.52-.16-.92-.49-1.22s-.79-.44-1.39-.44c-.55,0-.99,.12-1.3,.37-.31,.24-.47,.58-.47,1.02,0,.35,.15,.64,.44,.88,.29,.24,.8,.46,1.51,.66,.71,.2,1.26,.42,1.66,.66s.7,.52,.89,.84,.29,.7,.29,1.13c0,.69-.27,1.25-.81,1.66s-1.26,.62-2.16,.62c-.59,0-1.13-.11-1.64-.34s-.9-.53-1.17-.92-.41-.83-.41-1.33h1.13c0,.52,.19,.92,.57,1.22s.89,.45,1.53,.45c.59,0,1.05-.12,1.37-.36s.47-.57,.47-.99-.15-.74-.44-.97-.82-.45-1.59-.68Z"/></g><g><path class="cls-5" d="M295.97,136.54l3.66-10.56h1.85l-4.75,12.8h-1.49l-4.74-12.8h1.84l3.64,10.56Z"/><path class="cls-5" d="M302.69,138.78v-8.53h2.41c.74,0,1.4,.16,1.97,.49s1.01,.79,1.32,1.4,.47,1.3,.47,2.09v.54c0,.8-.16,1.51-.47,2.12s-.75,1.07-1.33,1.39-1.25,.49-2.01,.5h-2.36Zm1.12-7.61v6.69h1.18c.87,0,1.54-.27,2.02-.81,.48-.54,.72-1.31,.72-2.3v-.5c0-.97-.23-1.72-.68-2.26-.46-.54-1.1-.81-1.94-.82h-1.31Z"/><path class="cls-5" d="M310.56,138.78v-8.53h2.41c.74,0,1.4,.16,1.97,.49s1.01,.79,1.32,1.4,.47,1.3,.47,2.09v.54c0,.8-.16,1.51-.47,2.12s-.75,1.07-1.33,1.39-1.25,.49-2.01,.5h-2.36Zm1.12-7.61v6.69h1.18c.87,0,1.54-.27,2.02-.81,.48-.54,.72-1.31,.72-2.3v-.5c0-.97-.23-1.72-.68-2.26-.46-.54-1.1-.81-1.94-.82h-1.31Z"/></g><g><path class="cls-5" d="M192.04,543.14c-.16,1.35-.66,2.4-1.5,3.13s-1.96,1.1-3.35,1.1c-1.51,0-2.72-.54-3.63-1.63s-1.37-2.53-1.37-4.35v-1.23c0-1.19,.21-2.24,.64-3.14s1.03-1.6,1.81-2.08,1.68-.72,2.71-.72c1.36,0,2.45,.38,3.27,1.14s1.3,1.81,1.43,3.15h-1.7c-.15-1.02-.46-1.76-.95-2.22-.49-.46-1.17-.69-2.05-.69-1.08,0-1.92,.4-2.54,1.2s-.92,1.93-.92,3.4v1.24c0,1.39,.29,2.5,.87,3.32,.58,.82,1.39,1.23,2.43,1.23,.94,0,1.66-.21,2.16-.64s.83-1.16,1-2.22h1.7Z"/><path class="cls-5" d="M194.35,547.2v-12.8h3.61c1.11,0,2.1,.25,2.95,.74s1.52,1.19,1.98,2.1,.7,1.95,.71,3.13v.82c0,1.21-.23,2.26-.7,3.17s-1.13,1.61-2,2.09-1.87,.74-3.02,.75h-3.54Zm1.69-11.42v10.04h1.78c1.3,0,2.31-.41,3.04-1.21,.72-.81,1.09-1.96,1.09-3.46v-.75c0-1.45-.34-2.58-1.02-3.39-.68-.81-1.65-1.21-2.9-1.23h-1.97Z"/><path class="cls-5" d="M212.59,542.9h1.78v1.33h-1.78v2.97h-1.63v-2.97h-5.83v-.96l5.73-8.87h1.73v8.5Zm-5.62,0h3.98v-6.28l-.19,.35-3.79,5.92Z"/><path class="cls-5" d="M223.86,541.74c0,1.9-.33,3.32-.98,4.25s-1.67,1.39-3.05,1.39-2.38-.45-3.03-1.36-1-2.26-1.02-4.06v-2.17c0-1.88,.33-3.28,.98-4.19s1.67-1.37,3.06-1.37,2.39,.44,3.04,1.32,.98,2.24,1,4.08v2.11Zm-1.63-2.22c0-1.38-.19-2.38-.58-3.01s-1-.94-1.84-.94-1.44,.31-1.82,.94-.58,1.59-.59,2.89v2.6c0,1.38,.2,2.4,.6,3.06s1.01,.99,1.82,.99,1.4-.31,1.79-.93,.59-1.6,.61-2.94v-2.66Z"/><path class="cls-5" d="M232.17,541.58c-.34,.4-.75,.73-1.22,.98s-.99,.37-1.55,.37c-.74,0-1.38-.18-1.93-.54s-.97-.88-1.27-1.53-.45-1.39-.45-2.18c0-.86,.16-1.63,.49-2.31s.79-1.21,1.38-1.57,1.29-.54,2.09-.54c1.27,0,2.26,.47,2.99,1.42s1.09,2.24,1.09,3.87v.47c0,2.49-.49,4.31-1.48,5.45s-2.47,1.73-4.46,1.76h-.32v-1.38h.34c1.34-.02,2.37-.37,3.09-1.05,.72-.68,1.11-1.74,1.18-3.21Zm-2.5,0c.54,0,1.05-.17,1.51-.5s.8-.75,1.01-1.24v-.65c0-1.07-.23-1.93-.69-2.6s-1.05-1-1.76-1-1.29,.27-1.72,.82-.65,1.27-.65,2.17,.21,1.59,.63,2.16,.98,.85,1.68,.85Z"/><path class="cls-5" d="M238.41,540.01h1.22c.77-.01,1.37-.21,1.81-.61s.66-.92,.66-1.59c0-1.5-.75-2.25-2.24-2.25-.7,0-1.26,.2-1.68,.6s-.63,.93-.63,1.6h-1.63c0-1.01,.37-1.86,1.11-2.53s1.68-1.01,2.83-1.01c1.21,0,2.15,.32,2.84,.96s1.03,1.53,1.03,2.66c0,.56-.18,1.1-.54,1.62s-.85,.91-1.47,1.17c.7,.22,1.25,.59,1.63,1.11s.58,1.15,.58,1.89c0,1.15-.38,2.06-1.12,2.73s-1.73,1.01-2.93,1.01-2.18-.33-2.93-.98-1.13-1.51-1.13-2.58h1.63c0,.67,.22,1.21,.66,1.62s1.03,.61,1.77,.61c.79,0,1.39-.21,1.8-.62s.62-1,.62-1.77-.23-1.32-.69-1.71-1.12-.6-1.98-.62h-1.22v-1.33Z"/></g><g><path class="cls-5" d="M111.53,39.3h-1.27v-8.43l-2.55,.94v-1.15l3.62-1.36h.2v10Z"/><path class="cls-5" d="M115.32,41.28l-.72-.49c.43-.6,.65-1.21,.67-1.85v-1.14h1.24v.99c0,.46-.11,.92-.34,1.38s-.51,.83-.85,1.11Z"/><path class="cls-5" d="M118.56,34.31l.51-4.96h5.1v1.17h-4.03l-.3,2.71c.49-.29,1.04-.43,1.66-.43,.91,0,1.63,.3,2.16,.9s.8,1.41,.8,2.43-.28,1.83-.83,2.42-1.33,.89-2.32,.89c-.88,0-1.6-.24-2.15-.73s-.87-1.16-.95-2.02h1.2c.08,.57,.28,1,.61,1.29s.76,.43,1.3,.43c.59,0,1.05-.2,1.38-.6s.5-.95,.5-1.66c0-.67-.18-1.2-.54-1.6s-.84-.6-1.45-.6c-.55,0-.98,.12-1.3,.36l-.33,.27-1.01-.26Z"/><path class="cls-5" d="M125.93,41.28l-.72-.49c.43-.6,.65-1.21,.67-1.85v-1.14h1.24v.99c0,.46-.11,.92-.34,1.38s-.51,.83-.85,1.11Z"/><path class="cls-5" d="M134.63,31.94c0,.5-.13,.94-.39,1.33s-.62,.69-1.06,.91c.52,.22,.93,.55,1.23,.98s.45,.91,.45,1.46c0,.86-.29,1.55-.87,2.06s-1.35,.77-2.29,.77-1.72-.26-2.3-.77-.86-1.2-.86-2.05c0-.54,.15-1.02,.44-1.46s.7-.76,1.22-.98c-.44-.22-.79-.52-1.05-.91s-.38-.83-.38-1.32c0-.84,.27-1.5,.81-2s1.25-.74,2.13-.74,1.58,.25,2.12,.74,.81,1.16,.81,2Zm-1.03,4.64c0-.56-.18-1.01-.53-1.36s-.81-.53-1.38-.53-1.03,.17-1.37,.52-.52,.8-.52,1.37,.17,1.01,.5,1.33,.8,.49,1.4,.49,1.06-.16,1.39-.49,.51-.77,.51-1.33Zm-1.9-6.34c-.5,0-.9,.15-1.21,.46s-.46,.73-.46,1.25,.15,.92,.45,1.23,.71,.47,1.21,.47,.91-.16,1.21-.47,.45-.72,.45-1.23-.16-.92-.47-1.24-.71-.48-1.2-.48Z"/><path class="cls-5" d="M136.54,41.28l-.72-.49c.43-.6,.65-1.21,.67-1.85v-1.14h1.24v.99c0,.46-.11,.92-.34,1.38s-.51,.83-.85,1.11Z"/><path class="cls-5" d="M143.36,39.3h-1.27v-8.43l-2.55,.94v-1.15l3.62-1.36h.2v10Z"/><path class="cls-5" d="M153.58,39.3h-6.52v-.91l3.45-3.83c.51-.58,.86-1.05,1.06-1.41s.29-.74,.29-1.12c0-.52-.16-.95-.47-1.28s-.73-.5-1.26-.5c-.63,0-1.12,.18-1.47,.54s-.52,.86-.52,1.49h-1.26c0-.92,.29-1.66,.89-2.22s1.38-.85,2.37-.85c.93,0,1.66,.24,2.19,.73s.81,1.13,.81,1.94c0,.98-.62,2.15-1.87,3.5l-2.67,2.89h5v1.03Z"/></g><g><path class="cls-5" d="M113.17,59.46h-6.52v-.91l3.45-3.83c.51-.58,.86-1.05,1.06-1.41s.29-.74,.29-1.12c0-.52-.16-.95-.47-1.28s-.73-.5-1.26-.5c-.63,0-1.12,.18-1.47,.54s-.52,.86-.52,1.49h-1.26c0-.92,.29-1.66,.89-2.22s1.38-.85,2.37-.85c.93,0,1.66,.24,2.19,.73s.81,1.13,.81,1.94c0,.98-.62,2.15-1.87,3.5l-2.67,2.89h5v1.03Z"/><path class="cls-5" d="M114.6,61.44l-.72-.49c.43-.6,.65-1.21,.67-1.85v-1.14h1.24v.99c0,.46-.11,.92-.34,1.38s-.51,.83-.85,1.11Z"/><path class="cls-5" d="M122.22,49.5v1.07h-.23c-.98,.02-1.77,.31-2.35,.88s-.92,1.36-1.01,2.39c.52-.6,1.24-.9,2.15-.9s1.56,.31,2.07,.92,.78,1.4,.78,2.37c0,1.03-.28,1.85-.84,2.46s-1.31,.92-2.25,.92-1.73-.37-2.32-1.1-.89-1.67-.89-2.83v-.49c0-1.83,.39-3.23,1.17-4.2s1.94-1.46,3.49-1.49h.23Zm-1.66,4.48c-.43,0-.83,.13-1.2,.39s-.62,.59-.76,.98v.46c0,.82,.18,1.48,.55,1.98s.83,.75,1.38,.75,1.02-.21,1.34-.63,.49-.97,.49-1.65-.17-1.24-.5-1.66-.77-.63-1.32-.63Z"/><path class="cls-5" d="M125.21,61.44l-.72-.49c.43-.6,.65-1.21,.67-1.85v-1.14h1.24v.99c0,.46-.11,.92-.34,1.38s-.51,.83-.85,1.11Z"/><path class="cls-5" d="M132.72,55.08c-.26,.31-.58,.57-.95,.76s-.77,.29-1.21,.29c-.57,0-1.07-.14-1.5-.42s-.76-.68-.99-1.19-.35-1.08-.35-1.7c0-.67,.13-1.26,.38-1.8s.61-.94,1.08-1.22,1.01-.42,1.63-.42c.98,0,1.76,.37,2.33,1.1s.85,1.74,.85,3.01v.37c0,1.94-.38,3.35-1.15,4.24s-1.92,1.35-3.47,1.37h-.25v-1.07h.27c1.04-.02,1.85-.29,2.41-.82,.56-.52,.87-1.36,.92-2.49Zm-1.95,0c.42,0,.81-.13,1.17-.39s.62-.58,.78-.96v-.51c0-.83-.18-1.5-.54-2.02s-.82-.78-1.37-.78-1,.21-1.34,.64-.51,.99-.51,1.69,.16,1.24,.49,1.68,.76,.66,1.31,.66Z"/><path class="cls-5" d="M135.82,61.44l-.72-.49c.43-.6,.65-1.21,.67-1.85v-1.14h1.24v.99c0,.46-.11,.92-.34,1.38s-.51,.83-.85,1.11Z"/><path class="cls-5" d="M142.64,59.46h-1.27v-8.43l-2.55,.94v-1.15l3.62-1.36h.2v10Z"/><path class="cls-5" d="M148.18,53.87h.95c.6,0,1.07-.17,1.41-.47s.51-.72,.51-1.24c0-1.17-.58-1.75-1.74-1.75-.55,0-.98,.16-1.31,.47s-.49,.73-.49,1.24h-1.26c0-.79,.29-1.44,.86-1.97s1.31-.78,2.2-.78c.94,0,1.67,.25,2.21,.75s.8,1.19,.8,2.07c0,.43-.14,.85-.42,1.26s-.66,.71-1.15,.91c.55,.17,.97,.46,1.27,.86s.45,.89,.45,1.47c0,.89-.29,1.6-.88,2.13s-1.34,.79-2.28,.79-1.69-.25-2.28-.76-.88-1.17-.88-2h1.27c0,.52,.17,.94,.51,1.26s.8,.47,1.37,.47c.61,0,1.08-.16,1.4-.48s.49-.78,.49-1.37-.18-1.02-.53-1.33-.87-.47-1.54-.48h-.95v-1.03Z"/></g><g><path class="cls-5" d="M272.32,44.87h.95c.6,0,1.07-.17,1.41-.47s.51-.72,.51-1.24c0-1.17-.58-1.75-1.74-1.75-.55,0-.98,.16-1.31,.47s-.49,.73-.49,1.24h-1.26c0-.79,.29-1.44,.86-1.97s1.31-.78,2.2-.78c.94,0,1.67,.25,2.21,.75s.8,1.19,.8,2.07c0,.43-.14,.85-.42,1.26s-.66,.71-1.15,.91c.55,.17,.97,.46,1.27,.86s.45,.89,.45,1.47c0,.89-.29,1.6-.88,2.13s-1.34,.79-2.28,.79-1.69-.25-2.28-.76-.88-1.17-.88-2h1.27c0,.52,.17,.94,.51,1.26s.8,.47,1.37,.47c.61,0,1.08-.16,1.4-.48s.49-.78,.49-1.37-.18-1.02-.53-1.33-.87-.47-1.54-.48h-.95v-1.03Z"/><path class="cls-5" d="M278.43,52.44l-.72-.49c.43-.6,.65-1.21,.67-1.85v-1.14h1.24v.99c0,.46-.11,.92-.34,1.38s-.51,.83-.85,1.11Z"/><path class="cls-5" d="M286.43,47.12h1.38v1.03h-1.38v2.31h-1.27v-2.31h-4.53v-.75l4.46-6.9h1.35v6.61Zm-4.37,0h3.1v-4.88l-.15,.27-2.95,4.61Z"/><path class="cls-5" d="M289.04,52.44l-.72-.49c.43-.6,.65-1.21,.67-1.85v-1.14h1.24v.99c0,.46-.11,.92-.34,1.38s-.51,.83-.85,1.11Z"/><path class="cls-5" d="M295.86,50.46h-1.27v-8.43l-2.55,.94v-1.15l3.62-1.36h.2v10Z"/><path class="cls-5" d="M305.8,46.21c0,1.48-.25,2.58-.76,3.3s-1.3,1.08-2.37,1.08-1.85-.35-2.36-1.06-.77-1.76-.79-3.15v-1.69c0-1.46,.25-2.55,.76-3.26s1.3-1.07,2.38-1.07,1.86,.34,2.37,1.03,.77,1.74,.78,3.18v1.64Zm-1.26-1.73c0-1.07-.15-1.85-.45-2.34s-.78-.73-1.43-.73-1.12,.24-1.42,.73-.45,1.24-.46,2.25v2.02c0,1.08,.16,1.87,.47,2.38s.79,.77,1.42,.77,1.09-.24,1.39-.72,.46-1.24,.48-2.28v-2.07Z"/><path class="cls-5" d="M307.51,52.44l-.72-.49c.43-.6,.65-1.21,.67-1.85v-1.14h1.24v.99c0,.46-.11,.92-.34,1.38s-.51,.83-.85,1.11Z"/><path class="cls-5" d="M314.33,50.46h-1.27v-8.43l-2.55,.94v-1.15l3.62-1.36h.2v10Z"/><path class="cls-5" d="M322.19,50.46h-1.27v-8.43l-2.55,.94v-1.15l3.62-1.36h.2v10Z"/></g><g><path class="cls-5" d="M567.26,392.26h-3.01v5.18h-1.7v-12.8h4.24c1.44,0,2.55,.33,3.33,.98s1.16,1.61,1.16,2.87c0,.8-.21,1.49-.65,2.08s-1.03,1.03-1.8,1.33l3.01,5.43v.11h-1.81l-2.78-5.18Zm-3.01-1.38h2.59c.84,0,1.5-.22,2-.65s.74-1.02,.74-1.74c0-.79-.24-1.4-.71-1.82-.47-.42-1.15-.64-2.04-.64h-2.58v4.86Z"/><path class="cls-5" d="M578.57,397.44h-1.63v-10.84l-3.28,1.2v-1.48l4.66-1.75h.25v12.86Z"/></g><g><path class="cls-5" d="M495.35,423.62c-.16,1.35-.66,2.4-1.5,3.13-.84,.74-1.96,1.1-3.35,1.1-1.51,0-2.72-.54-3.63-1.63s-1.37-2.53-1.37-4.35v-1.23c0-1.19,.21-2.24,.64-3.14s1.03-1.59,1.81-2.08c.78-.48,1.68-.72,2.71-.72,1.36,0,2.45,.38,3.27,1.14,.82,.76,1.3,1.81,1.43,3.15h-1.7c-.15-1.02-.46-1.76-.95-2.22s-1.17-.69-2.05-.69c-1.08,0-1.92,.4-2.54,1.2-.61,.8-.92,1.93-.92,3.4v1.24c0,1.39,.29,2.5,.87,3.32s1.39,1.23,2.43,1.23c.94,0,1.66-.21,2.16-.64,.5-.42,.83-1.16,1-2.22h1.7Z"/><path class="cls-5" d="M502.57,427.68h-1.63v-10.84l-3.28,1.2v-1.48l4.66-1.75h.25v12.86Z"/></g><g><path class="cls-5" d="M1032.52,232.48l3.66-10.56h1.85l-4.75,12.8h-1.49l-4.74-12.8h1.84l3.64,10.56Z"/><path class="cls-5" d="M1045.8,230.73c0,.84-.14,1.57-.42,2.19s-.68,1.1-1.2,1.43-1.12,.49-1.8,.49-1.27-.17-1.79-.5-.92-.8-1.21-1.41-.43-1.32-.44-2.12v-.62c0-.82,.14-1.54,.43-2.17s.69-1.11,1.21-1.44,1.12-.5,1.79-.5,1.29,.17,1.81,.5,.92,.81,1.2,1.44,.42,1.36,.42,2.19v.54Zm-1.12-.55c0-1.01-.2-1.79-.61-2.33s-.97-.81-1.71-.81-1.27,.27-1.68,.81-.62,1.29-.63,2.25v.63c0,.98,.21,1.75,.62,2.31s.98,.84,1.7,.84,1.29-.26,1.69-.79,.6-1.29,.62-2.28v-.63Z"/><path class="cls-5" d="M1053.49,226.19v5.8c0,.8-.26,1.46-.76,1.97s-1.18,.8-2.04,.86h-.3c-.93,.01-1.68-.24-2.23-.74s-.84-1.2-.84-2.08v-5.81h1.11v5.78c0,.62,.17,1.1,.51,1.44s.82,.51,1.45,.51,1.12-.17,1.46-.51,.51-.82,.51-1.44v-5.78h1.13Z"/><path class="cls-5" d="M1061.16,227.11h-2.74v7.61h-1.12v-7.61h-2.74v-.92h6.6v.92Z"/></g><g><path class="cls-5" d="M489.68,523.36l3.66-10.56h1.85l-4.75,12.8h-1.49l-4.74-12.8h1.84l3.64,10.56Z"/><path class="cls-5" d="M498.91,521.8c-.96-.28-1.67-.62-2.11-1.02s-.66-.9-.66-1.5c0-.67,.27-1.23,.81-1.67s1.24-.66,2.09-.66c.59,0,1.11,.11,1.57,.34s.81,.54,1.07,.94,.38,.83,.38,1.31h-1.13c0-.52-.16-.92-.49-1.22s-.79-.44-1.39-.44c-.55,0-.99,.12-1.3,.37-.31,.24-.47,.58-.47,1.02,0,.35,.15,.64,.44,.88s.8,.46,1.51,.66c.71,.2,1.26,.42,1.66,.66s.7,.52,.89,.84,.29,.7,.29,1.13c0,.69-.27,1.25-.81,1.66s-1.26,.62-2.16,.62c-.59,0-1.13-.11-1.64-.34s-.9-.53-1.17-.92-.41-.83-.41-1.33h1.13c0,.52,.19,.92,.57,1.22s.89,.45,1.53,.45c.59,0,1.05-.12,1.37-.36s.47-.57,.47-.99-.15-.74-.44-.97-.82-.45-1.59-.68Z"/><path class="cls-5" d="M506.03,521.8c-.96-.28-1.67-.62-2.11-1.02s-.66-.9-.66-1.5c0-.67,.27-1.23,.81-1.67s1.24-.66,2.09-.66c.59,0,1.11,.11,1.57,.34s.81,.54,1.07,.94,.38,.83,.38,1.31h-1.13c0-.52-.16-.92-.49-1.22s-.79-.44-1.39-.44c-.55,0-.99,.12-1.3,.37-.31,.24-.47,.58-.47,1.02,0,.35,.15,.64,.44,.88s.8,.46,1.51,.66c.71,.2,1.26,.42,1.66,.66s.7,.52,.89,.84,.29,.7,.29,1.13c0,.69-.27,1.25-.81,1.66s-1.26,.62-2.16,.62c-.59,0-1.13-.11-1.64-.34s-.9-.53-1.17-.92-.41-.83-.41-1.33h1.13c0,.52,.19,.92,.57,1.22s.89,.45,1.53,.45c.59,0,1.05-.12,1.37-.36s.47-.57,.47-.99-.15-.74-.44-.97-.82-.45-1.59-.68Z"/></g><g><path class="cls-5" d="M625.11,177.12h-1.63v-10.84l-3.28,1.2v-1.48l4.66-1.75h.25v12.86Z"/><path class="cls-5" d="M630.36,178.22h-1.4l5.34-13.9h1.39l-5.33,13.9Z"/><path class="cls-5" d="M644.15,172.82h1.78v1.33h-1.78v2.97h-1.63v-2.97h-5.83v-.96l5.73-8.87h1.73v8.5Zm-5.62,0h3.98v-6.28l-.19,.35-3.79,5.92Z"/><path class="cls-5" d="M661.69,173.06c-.16,1.35-.66,2.4-1.5,3.13s-1.96,1.1-3.35,1.1c-1.51,0-2.72-.54-3.63-1.63s-1.37-2.53-1.37-4.35v-1.23c0-1.19,.21-2.24,.64-3.14s1.03-1.6,1.81-2.08,1.68-.73,2.71-.73c1.36,0,2.45,.38,3.27,1.14s1.3,1.81,1.43,3.15h-1.7c-.15-1.02-.46-1.76-.95-2.22s-1.17-.69-2.05-.69c-1.08,0-1.92,.4-2.54,1.2-.61,.8-.92,1.93-.92,3.4v1.24c0,1.39,.29,2.5,.87,3.32s1.39,1.23,2.43,1.23c.94,0,1.66-.21,2.16-.64s.83-1.16,1-2.22h1.7Z"/><path class="cls-5" d="M663.99,177.12v-12.8h3.61c1.11,0,2.1,.25,2.95,.74s1.52,1.19,1.98,2.1,.7,1.95,.71,3.13v.82c0,1.21-.23,2.26-.7,3.17s-1.13,1.61-2,2.09-1.87,.74-3.02,.75h-3.54Zm1.69-11.42v10.04h1.78c1.3,0,2.31-.4,3.04-1.21s1.09-1.96,1.09-3.46v-.75c0-1.45-.34-2.58-1.02-3.39-.68-.81-1.65-1.22-2.9-1.23h-1.97Z"/><path class="cls-5" d="M682.24,172.82h1.78v1.33h-1.78v2.97h-1.63v-2.97h-5.83v-.96l5.73-8.87h1.73v8.5Zm-5.62,0h3.98v-6.28l-.19,.35-3.79,5.92Z"/><path class="cls-5" d="M693.5,171.66c0,1.9-.33,3.32-.98,4.25s-1.67,1.39-3.05,1.39-2.38-.45-3.03-1.36-1-2.26-1.02-4.06v-2.17c0-1.88,.33-3.28,.98-4.19s1.67-1.37,3.06-1.37,2.39,.44,3.04,1.32,.98,2.24,1,4.08v2.11Zm-1.63-2.22c0-1.38-.19-2.38-.58-3.01s-1-.94-1.84-.94-1.44,.31-1.82,.94-.58,1.59-.59,2.89v2.6c0,1.38,.2,2.4,.6,3.06s1.01,.99,1.82,.99,1.4-.31,1.79-.93,.59-1.6,.61-2.94v-2.66Z"/><path class="cls-5" d="M701.82,171.5c-.34,.4-.75,.73-1.22,.98s-.99,.37-1.55,.37c-.74,0-1.38-.18-1.93-.54s-.97-.87-1.27-1.53-.45-1.39-.45-2.18c0-.86,.16-1.63,.49-2.31s.79-1.21,1.38-1.57,1.29-.54,2.09-.54c1.27,0,2.26,.47,2.99,1.42s1.09,2.24,1.09,3.87v.47c0,2.49-.49,4.31-1.48,5.45s-2.47,1.73-4.46,1.76h-.32v-1.38h.34c1.34-.02,2.37-.37,3.09-1.05,.72-.68,1.11-1.74,1.18-3.21Zm-2.5,0c.54,0,1.05-.17,1.51-.5s.8-.75,1.01-1.24v-.65c0-1.07-.23-1.93-.69-2.6s-1.05-1-1.76-1-1.29,.27-1.72,.82-.65,1.27-.65,2.17,.21,1.59,.63,2.16,.98,.85,1.68,.85Z"/><path class="cls-5" d="M708.06,169.93h1.22c.77-.01,1.37-.21,1.81-.61s.66-.92,.66-1.59c0-1.5-.75-2.25-2.24-2.25-.7,0-1.26,.2-1.68,.6s-.63,.93-.63,1.6h-1.63c0-1.01,.37-1.86,1.11-2.53s1.68-1.01,2.83-1.01c1.21,0,2.15,.32,2.84,.96s1.03,1.53,1.03,2.66c0,.56-.18,1.1-.54,1.62s-.85,.91-1.47,1.17c.7,.22,1.25,.59,1.63,1.11s.58,1.15,.58,1.89c0,1.15-.38,2.06-1.12,2.73s-1.73,1.01-2.93,1.01-2.18-.33-2.93-.98-1.13-1.51-1.13-2.58h1.63c0,.67,.22,1.21,.66,1.62s1.03,.61,1.77,.61c.79,0,1.39-.21,1.8-.62s.62-1,.62-1.77-.23-1.32-.69-1.71-1.12-.6-1.98-.62h-1.22v-1.33Z"/></g><path class="cls-5" d="M505.51,259.2h-8.38v-1.17l4.43-4.92c.66-.74,1.11-1.35,1.36-1.81s.37-.95,.37-1.45c0-.67-.2-1.22-.61-1.64s-.94-.64-1.62-.64c-.81,0-1.44,.23-1.88,.69s-.67,1.1-.67,1.92h-1.63c0-1.18,.38-2.13,1.14-2.86s1.77-1.09,3.04-1.09c1.19,0,2.13,.31,2.82,.94s1.04,1.45,1.04,2.49c0,1.26-.8,2.76-2.41,4.5l-3.43,3.72h6.42v1.33Z"/><path class="cls-5" d="M647.81,207.37h1.22c.77-.01,1.37-.21,1.81-.61s.66-.92,.66-1.59c0-1.5-.75-2.25-2.24-2.25-.7,0-1.26,.2-1.68,.6s-.63,.93-.63,1.6h-1.63c0-1.01,.37-1.86,1.11-2.53s1.68-1.01,2.83-1.01c1.21,0,2.15,.32,2.84,.96s1.03,1.53,1.03,2.66c0,.56-.18,1.1-.54,1.62s-.85,.91-1.47,1.17c.7,.22,1.25,.59,1.63,1.11s.58,1.15,.58,1.89c0,1.15-.38,2.06-1.12,2.73s-1.73,1.01-2.93,1.01-2.18-.33-2.93-.98-1.13-1.51-1.13-2.58h1.63c0,.67,.22,1.21,.66,1.62s1.03,.61,1.77,.61c.79,0,1.39-.21,1.8-.62s.62-1,.62-1.77-.23-1.32-.69-1.71-1.12-.6-1.98-.62h-1.22v-1.33Z"/><path class="cls-5" d="M502.47,194.4h-1.63v-10.84l-3.28,1.2v-1.48l4.66-1.75h.25v12.86Z"/><g><path class="cls-5" d="M486.05,76.96l3.66-10.56h1.85l-4.75,12.8h-1.49l-4.74-12.8h1.84l3.64,10.56Z"/><path class="cls-5" d="M492.77,79.2v-8.53h2.41c.74,0,1.4,.16,1.97,.49s1.01,.79,1.32,1.4,.47,1.3,.47,2.09v.54c0,.8-.16,1.51-.47,2.12s-.75,1.07-1.33,1.39-1.25,.49-2.01,.5h-2.36Zm1.12-7.61v6.69h1.18c.87,0,1.54-.27,2.02-.81s.72-1.31,.72-2.31v-.5c0-.97-.23-1.72-.68-2.26-.46-.54-1.1-.81-1.94-.82h-1.31Z"/><path class="cls-5" d="M500.64,79.2v-8.53h2.41c.74,0,1.4,.16,1.97,.49s1.01,.79,1.32,1.4,.47,1.3,.47,2.09v.54c0,.8-.16,1.51-.47,2.12s-.75,1.07-1.33,1.39-1.25,.49-2.01,.5h-2.36Zm1.12-7.61v6.69h1.18c.87,0,1.54-.27,2.02-.81s.72-1.31,.72-2.31v-.5c0-.97-.23-1.72-.68-2.26-.46-.54-1.1-.81-1.94-.82h-1.31Z"/></g><g><path class="cls-5" d="M583.28,331.84l3.66-10.56h1.85l-4.75,12.8h-1.49l-4.74-12.8h1.84l3.64,10.56Z"/><path class="cls-5" d="M592.51,330.28c-.96-.28-1.67-.62-2.11-1.02s-.66-.9-.66-1.5c0-.67,.27-1.23,.81-1.67s1.24-.66,2.09-.66c.59,0,1.11,.11,1.57,.34s.81,.54,1.07,.94,.38,.83,.38,1.31h-1.13c0-.52-.16-.92-.49-1.22s-.79-.44-1.39-.44c-.55,0-.99,.12-1.3,.37-.31,.24-.47,.58-.47,1.02,0,.35,.15,.64,.44,.88,.29,.24,.8,.46,1.51,.66,.71,.2,1.26,.42,1.66,.66s.7,.52,.89,.84,.29,.7,.29,1.13c0,.69-.27,1.25-.81,1.66s-1.26,.62-2.16,.62c-.59,0-1.13-.11-1.64-.34s-.9-.53-1.17-.92-.41-.83-.41-1.33h1.13c0,.52,.19,.92,.57,1.22s.89,.45,1.53,.45c.59,0,1.05-.12,1.37-.36s.47-.57,.47-.99-.15-.74-.44-.97-.82-.45-1.59-.68Z"/><path class="cls-5" d="M599.63,330.28c-.96-.28-1.67-.62-2.11-1.02s-.66-.9-.66-1.5c0-.67,.27-1.23,.81-1.67s1.24-.66,2.09-.66c.59,0,1.11,.11,1.57,.34s.81,.54,1.07,.94,.38,.83,.38,1.31h-1.13c0-.52-.16-.92-.49-1.22s-.79-.44-1.39-.44c-.55,0-.99,.12-1.3,.37-.31,.24-.47,.58-.47,1.02,0,.35,.15,.64,.44,.88,.29,.24,.8,.46,1.51,.66,.71,.2,1.26,.42,1.66,.66s.7,.52,.89,.84,.29,.7,.29,1.13c0,.69-.27,1.25-.81,1.66s-1.26,.62-2.16,.62c-.59,0-1.13-.11-1.64-.34s-.9-.53-1.17-.92-.41-.83-.41-1.33h1.13c0,.52,.19,.92,.57,1.22s.89,.45,1.53,.45c.59,0,1.05-.12,1.37-.36s.47-.57,.47-.99-.15-.74-.44-.97-.82-.45-1.59-.68Z"/></g><g><path class="cls-5" d="M579.65,143.2l3.66-10.56h1.85l-4.75,12.8h-1.49l-4.74-12.8h1.84l3.64,10.56Z"/><path class="cls-5" d="M586.37,145.44v-8.53h2.41c.74,0,1.4,.16,1.97,.49s1.01,.79,1.32,1.4,.47,1.3,.47,2.09v.54c0,.8-.16,1.51-.47,2.12s-.75,1.07-1.33,1.39-1.25,.49-2.01,.5h-2.36Zm1.12-7.61v6.69h1.18c.87,0,1.54-.27,2.02-.81s.72-1.31,.72-2.31v-.5c0-.97-.23-1.72-.68-2.26-.46-.54-1.1-.81-1.94-.82h-1.31Z"/><path class="cls-5" d="M594.24,145.44v-8.53h2.41c.74,0,1.4,.16,1.97,.49s1.01,.79,1.32,1.4,.47,1.3,.47,2.09v.54c0,.8-.16,1.51-.47,2.12s-.75,1.07-1.33,1.39-1.25,.49-2.01,.5h-2.36Zm1.12-7.61v6.69h1.18c.87,0,1.54-.27,2.02-.81s.72-1.31,.72-2.31v-.5c0-.97-.23-1.72-.68-2.26-.46-.54-1.1-.81-1.94-.82h-1.31Z"/></g><g><path class="cls-5" d="M543.5,174.24h-1.63v-10.84l-3.28,1.2v-1.48l4.66-1.75h.25v12.86Z"/><path class="cls-5" d="M555.13,169.94h1.78v1.33h-1.78v2.97h-1.63v-2.97h-5.83v-.96l5.73-8.87h1.73v8.5Zm-5.62,0h3.98v-6.28l-.19,.35-3.79,5.92Z"/></g><path class="cls-5" d="M555.79,280.44l-5.3,11.88h-1.71l5.28-11.46h-6.93v-1.34h8.65v.91Z"/><g><path class="cls-5" d="M845.18,421.06h-3.01v5.18h-1.7v-12.8h4.24c1.44,0,2.55,.33,3.33,.98s1.16,1.61,1.16,2.87c0,.8-.21,1.49-.65,2.08s-1.03,1.03-1.8,1.33l3.01,5.43v.11h-1.81l-2.78-5.18Zm-3.01-1.38h2.59c.84,0,1.5-.22,2-.65,.5-.43,.74-1.02,.74-1.74,0-.79-.24-1.4-.71-1.82s-1.15-.64-2.04-.64h-2.58v4.86Z"/><path class="cls-5" d="M859.54,426.24h-8.38v-1.17l4.43-4.92c.66-.74,1.11-1.35,1.36-1.82s.37-.95,.37-1.45c0-.67-.2-1.22-.61-1.64s-.94-.64-1.62-.64c-.81,0-1.44,.23-1.88,.69s-.67,1.1-.67,1.92h-1.63c0-1.18,.38-2.13,1.14-2.86s1.77-1.09,3.04-1.09c1.19,0,2.13,.31,2.82,.94s1.04,1.46,1.04,2.49c0,1.26-.8,2.76-2.41,4.5l-3.43,3.72h6.42v1.33Z"/></g><g><path class="cls-5" d="M773.27,423.62c-.16,1.35-.66,2.4-1.5,3.13-.84,.74-1.96,1.1-3.35,1.1-1.51,0-2.72-.54-3.63-1.63-.91-1.08-1.37-2.53-1.37-4.35v-1.23c0-1.19,.21-2.24,.64-3.14,.42-.9,1.03-1.59,1.81-2.08,.78-.48,1.68-.72,2.71-.72,1.36,0,2.45,.38,3.27,1.14,.82,.76,1.3,1.81,1.43,3.15h-1.7c-.15-1.02-.46-1.76-.95-2.22-.49-.46-1.17-.69-2.05-.69-1.08,0-1.92,.4-2.54,1.2-.61,.8-.92,1.93-.92,3.4v1.24c0,1.39,.29,2.5,.87,3.32s1.39,1.23,2.43,1.23c.94,0,1.66-.21,2.16-.64,.5-.42,.83-1.16,1-2.22h1.7Z"/><path class="cls-5" d="M783.53,427.68h-8.38v-1.17l4.43-4.92c.66-.74,1.11-1.35,1.36-1.82,.25-.46,.37-.95,.37-1.45,0-.67-.2-1.22-.61-1.64s-.94-.64-1.62-.64c-.81,0-1.44,.23-1.88,.69-.45,.46-.67,1.1-.67,1.92h-1.63c0-1.18,.38-2.13,1.14-2.86,.76-.73,1.77-1.09,3.04-1.09,1.19,0,2.13,.31,2.82,.94,.69,.62,1.04,1.46,1.04,2.49,0,1.26-.8,2.76-2.41,4.5l-3.43,3.72h6.42v1.33Z"/></g><g><path class="cls-5" d="M767.6,523.36l3.66-10.56h1.85l-4.75,12.8h-1.49l-4.74-12.8h1.84l3.64,10.56Z"/><path class="cls-5" d="M776.83,521.8c-.96-.28-1.67-.62-2.11-1.02s-.66-.9-.66-1.5c0-.67,.27-1.23,.81-1.67s1.24-.66,2.09-.66c.59,0,1.11,.11,1.57,.34s.81,.54,1.07,.94,.38,.83,.38,1.31h-1.13c0-.52-.16-.92-.49-1.22s-.79-.44-1.39-.44c-.55,0-.99,.12-1.3,.37-.31,.24-.47,.58-.47,1.02,0,.35,.15,.64,.44,.88s.8,.46,1.51,.66c.71,.2,1.26,.42,1.66,.66s.7,.52,.89,.84,.29,.7,.29,1.13c0,.69-.27,1.25-.81,1.66s-1.26,.62-2.16,.62c-.59,0-1.13-.11-1.64-.34s-.9-.53-1.17-.92-.41-.83-.41-1.33h1.13c0,.52,.19,.92,.57,1.22s.89,.45,1.53,.45c.59,0,1.05-.12,1.37-.36s.47-.57,.47-.99-.15-.74-.44-.97-.82-.45-1.59-.68Z"/><path class="cls-5" d="M783.95,521.8c-.96-.28-1.67-.62-2.11-1.02s-.66-.9-.66-1.5c0-.67,.27-1.23,.81-1.67s1.24-.66,2.09-.66c.59,0,1.11,.11,1.57,.34s.81,.54,1.07,.94,.38,.83,.38,1.31h-1.13c0-.52-.16-.92-.49-1.22s-.79-.44-1.39-.44c-.55,0-.99,.12-1.3,.37-.31,.24-.47,.58-.47,1.02,0,.35,.15,.64,.44,.88s.8,.46,1.51,.66c.71,.2,1.26,.42,1.66,.66s.7,.52,.89,.84,.29,.7,.29,1.13c0,.69-.27,1.25-.81,1.66s-1.26,.62-2.16,.62c-.59,0-1.13-.11-1.64-.34s-.9-.53-1.17-.92-.41-.83-.41-1.33h1.13c0,.52,.19,.92,.57,1.22s.89,.45,1.53,.45c.59,0,1.05-.12,1.37-.36s.47-.57,.47-.99-.15-.74-.44-.97-.82-.45-1.59-.68Z"/></g><g><path class="cls-5" d="M903.03,205.92h-1.63v-10.84l-3.28,1.2v-1.48l4.66-1.75h.25v12.86Z"/><path class="cls-5" d="M908.28,207.02h-1.4l5.34-13.9h1.39l-5.33,13.9Z"/><path class="cls-5" d="M922.07,201.62h1.78v1.33h-1.78v2.97h-1.63v-2.97h-5.83v-.96l5.73-8.87h1.73v8.5Zm-5.62,0h3.98v-6.28l-.19,.35-3.79,5.92Z"/><path class="cls-5" d="M939.61,201.86c-.16,1.35-.66,2.4-1.5,3.13-.84,.74-1.96,1.1-3.35,1.1-1.51,0-2.72-.54-3.63-1.63-.91-1.08-1.37-2.53-1.37-4.35v-1.23c0-1.19,.21-2.24,.64-3.14,.42-.9,1.03-1.6,1.81-2.08s1.68-.73,2.71-.73c1.36,0,2.45,.38,3.27,1.14s1.3,1.81,1.43,3.15h-1.7c-.15-1.02-.46-1.76-.95-2.22-.49-.46-1.17-.69-2.05-.69-1.08,0-1.92,.4-2.54,1.2-.61,.8-.92,1.93-.92,3.4v1.24c0,1.39,.29,2.5,.87,3.32s1.39,1.23,2.43,1.23c.94,0,1.66-.21,2.16-.64,.5-.42,.83-1.16,1-2.22h1.7Z"/><path class="cls-5" d="M941.91,205.92v-12.8h3.61c1.11,0,2.1,.25,2.95,.74s1.52,1.19,1.98,2.1c.47,.91,.7,1.95,.71,3.13v.82c0,1.21-.23,2.26-.7,3.17-.47,.91-1.13,1.61-2,2.09-.86,.49-1.87,.74-3.02,.75h-3.54Zm1.69-11.42v10.04h1.78c1.3,0,2.31-.4,3.04-1.21,.72-.81,1.08-1.96,1.08-3.46v-.75c0-1.45-.34-2.58-1.02-3.39-.68-.81-1.65-1.22-2.9-1.23h-1.97Z"/><path class="cls-5" d="M960.16,201.62h1.78v1.33h-1.78v2.97h-1.63v-2.97h-5.83v-.96l5.73-8.87h1.73v8.5Zm-5.62,0h3.98v-6.28l-.19,.35-3.79,5.92Z"/><path class="cls-5" d="M971.43,200.46c0,1.9-.33,3.32-.98,4.25s-1.67,1.39-3.05,1.39-2.38-.45-3.03-1.36-1-2.26-1.02-4.06v-2.17c0-1.88,.33-3.28,.98-4.19s1.67-1.37,3.06-1.37,2.39,.44,3.04,1.32,.98,2.24,1,4.08v2.11Zm-1.63-2.22c0-1.38-.19-2.38-.58-3.01s-1-.94-1.84-.94-1.44,.31-1.82,.94-.58,1.59-.59,2.89v2.6c0,1.38,.2,2.4,.6,3.06,.4,.66,1.01,.99,1.82,.99s1.4-.31,1.79-.93c.39-.62,.59-1.6,.61-2.94v-2.66Z"/><path class="cls-5" d="M979.74,200.29c-.34,.4-.75,.73-1.22,.98-.47,.25-.99,.37-1.55,.37-.74,0-1.38-.18-1.93-.54-.55-.36-.97-.87-1.27-1.53s-.45-1.39-.45-2.18c0-.86,.16-1.63,.49-2.31,.32-.69,.79-1.21,1.38-1.57s1.29-.54,2.09-.54c1.27,0,2.26,.47,2.99,1.42,.73,.95,1.09,2.24,1.09,3.87v.47c0,2.49-.49,4.31-1.48,5.45s-2.47,1.73-4.46,1.76h-.32v-1.38h.34c1.34-.02,2.37-.37,3.09-1.05,.72-.68,1.11-1.74,1.18-3.21Zm-2.5,0c.54,0,1.05-.17,1.51-.5,.46-.33,.8-.75,1.01-1.24v-.65c0-1.07-.23-1.93-.69-2.6s-1.05-1-1.76-1-1.29,.27-1.72,.82-.65,1.27-.65,2.17,.21,1.59,.63,2.16c.42,.57,.98,.85,1.68,.85Z"/><path class="cls-5" d="M985.98,198.73h1.22c.77-.01,1.37-.21,1.81-.61s.66-.92,.66-1.59c0-1.5-.75-2.25-2.24-2.25-.7,0-1.26,.2-1.68,.6-.42,.4-.63,.93-.63,1.6h-1.63c0-1.01,.37-1.86,1.11-2.53,.74-.67,1.68-1.01,2.83-1.01,1.21,0,2.15,.32,2.84,.96s1.03,1.53,1.03,2.66c0,.56-.18,1.1-.54,1.62-.36,.52-.85,.91-1.47,1.17,.7,.22,1.25,.59,1.63,1.11,.38,.52,.58,1.15,.58,1.89,0,1.15-.38,2.06-1.12,2.73s-1.73,1.01-2.93,1.01-2.18-.33-2.93-.98c-.75-.65-1.13-1.51-1.13-2.58h1.63c0,.67,.22,1.21,.66,1.62s1.03,.61,1.77,.61c.79,0,1.39-.21,1.8-.62s.62-1,.62-1.77-.23-1.32-.69-1.71-1.12-.6-1.98-.62h-1.22v-1.33Z"/></g><path class="cls-5" d="M775.8,281.58l.65-6.38h6.56v1.5h-5.18l-.39,3.49c.63-.37,1.34-.55,2.14-.55,1.17,0,2.09,.38,2.78,1.16s1.03,1.81,1.03,3.12-.36,2.36-1.07,3.12-1.71,1.14-2.98,1.14c-1.13,0-2.05-.31-2.77-.94s-1.12-1.49-1.22-2.6h1.54c.1,.73,.36,1.28,.78,1.66s.98,.56,1.67,.56c.76,0,1.35-.26,1.78-.77s.65-1.23,.65-2.14c0-.86-.23-1.54-.7-2.06s-1.09-.78-1.86-.78c-.71,0-1.27,.16-1.67,.47l-.43,.35-1.3-.33Z"/><path class="cls-5" d="M930.24,239.06h1.78v1.33h-1.78v2.97h-1.63v-2.97h-5.83v-.96l5.73-8.87h1.73v8.5Zm-5.62,0h3.98v-6.28l-.19,.35-3.79,5.92Z"/><path class="cls-5" d="M781.43,210.39v1.38h-.3c-1.27,.02-2.27,.4-3.02,1.12s-1.18,1.75-1.3,3.07c.67-.77,1.59-1.16,2.76-1.16s2,.39,2.67,1.18,1,1.8,1,3.04c0,1.32-.36,2.37-1.08,3.16s-1.68,1.19-2.89,1.19-2.22-.47-2.98-1.41-1.14-2.15-1.14-3.63v-.62c0-2.36,.5-4.16,1.51-5.4s2.5-1.88,4.49-1.91h.29Zm-2.14,5.77c-.56,0-1.07,.17-1.54,.5s-.79,.75-.98,1.26v.6c0,1.05,.24,1.9,.71,2.55s1.07,.97,1.78,.97,1.31-.27,1.73-.81,.63-1.25,.63-2.12-.21-1.59-.64-2.13-.99-.81-1.69-.81Z"/></g></svg>