<?xml version="1.0" encoding="UTF-8"?><svg xmlns="http://www.w3.org/2000/svg" viewBox="0 0 1080 600.48"><defs><style>.cls-1{stroke-dasharray:0 0 3.96 3.96;}.cls-1,.cls-2,.cls-3,.cls-4,.cls-5,.cls-6,.cls-7,.cls-8,.cls-9{fill:none;stroke-miterlimit:10;}.cls-1,.cls-2,.cls-3,.cls-5,.cls-8,.cls-9{stroke:#1d1e1b;}.cls-2{stroke-width:3px;}.cls-10{fill:#fff;}.cls-11{fill:#1d1e1b;}.cls-12{fill:#1d1e1c;}.cls-13{fill:#1d1f1c;}.cls-3{stroke-dasharray:0 0 6.07 6.07;}.cls-4{stroke:#1d1e1c;}.cls-4,.cls-5,.cls-6{stroke-width:2px;}.cls-6,.cls-7{stroke:#1d1f1c;}.cls-7,.cls-8{stroke-width:2px;}</style></defs><g id="TEXT_Vector"><path class="cls-11" d="m84.87,92.87h-1.63v-10.84l-3.28,1.2v-1.48l4.66-1.75h.25v12.86Z"/><path class="cls-11" d="m87.91,150.47h-8.38v-1.17l4.43-4.92c.66-.74,1.11-1.35,1.36-1.81s.37-.95.37-1.45c0-.67-.2-1.22-.61-1.64s-.94-.64-1.62-.64c-.81,0-1.44.23-1.89.69s-.67,1.1-.67,1.92h-1.63c0-1.18.38-2.13,1.14-2.86s1.77-1.09,3.05-1.09c1.19,0,2.13.31,2.82.94s1.04,1.45,1.04,2.49c0,1.26-.8,2.76-2.41,4.5l-3.43,3.72h6.42v1.33Z"/><path class="cls-11" d="m81.89,200.88h1.22c.77-.01,1.37-.21,1.81-.61s.66-.92.66-1.59c0-1.5-.75-2.25-2.24-2.25-.7,0-1.26.2-1.68.6s-.63.93-.63,1.6h-1.63c0-1.01.37-1.86,1.11-2.53s1.68-1.01,2.83-1.01c1.21,0,2.15.32,2.84.96s1.03,1.53,1.03,2.66c0,.56-.18,1.1-.54,1.62s-.85.91-1.47,1.17c.7.22,1.25.59,1.63,1.11s.58,1.15.58,1.89c0,1.15-.38,2.06-1.12,2.73s-1.73,1.01-2.93,1.01-2.18-.33-2.93-.98-1.13-1.51-1.13-2.58h1.63c0,.67.22,1.21.66,1.62s1.03.61,1.77.61c.79,0,1.39-.21,1.8-.62s.62-1,.62-1.77-.23-1.32-.69-1.71-1.12-.6-1.98-.62h-1.22v-1.33Z"/><path class="cls-11" d="m86.39,261.37h1.78v1.33h-1.78v2.97h-1.63v-2.97h-5.83v-.96l5.73-8.87h1.73v8.5Zm-5.62,0h3.98v-6.28l-.19.35-3.79,5.92Z"/><path class="cls-11" d="m80.28,316.85l.65-6.38h6.56v1.5h-5.18l-.39,3.49c.63-.37,1.34-.55,2.14-.55,1.17,0,2.09.38,2.78,1.16s1.03,1.81,1.03,3.12-.36,2.36-1.07,3.12-1.71,1.14-2.98,1.14c-1.13,0-2.05-.31-2.77-.94s-1.12-1.49-1.22-2.6h1.54c.1.73.36,1.28.78,1.66s.98.56,1.67.56c.76,0,1.35-.26,1.78-.77s.65-1.23.65-2.14c0-.86-.23-1.54-.7-2.06s-1.09-.78-1.86-.78c-.71,0-1.27.16-1.67.47l-.43.35-1.3-.33Z"/><path class="cls-11" d="m85.91,368.06v1.38h-.3c-1.27.02-2.27.4-3.02,1.12s-1.18,1.75-1.3,3.07c.67-.77,1.59-1.16,2.76-1.16s2,.39,2.67,1.18,1,1.8,1,3.04c0,1.32-.36,2.37-1.08,3.16s-1.68,1.19-2.89,1.19-2.22-.47-2.98-1.41-1.14-2.15-1.14-3.63v-.62c0-2.36.5-4.16,1.51-5.4s2.5-1.88,4.49-1.91h.29Zm-2.14,5.77c-.56,0-1.07.17-1.54.5s-.79.75-.98,1.26v.6c0,1.05.24,1.9.71,2.55s1.07.97,1.78.97,1.31-.27,1.73-.81.63-1.25.63-2.12-.21-1.59-.64-2.13-.99-.81-1.69-.81Z"/><path class="cls-11" d="m87.79,426.58l-5.3,11.88h-1.71l5.28-11.46h-6.93v-1.34h8.65v.91Z"/><g><path class="cls-11" d="m338.3,208.07h-1.63v-10.84l-3.28,1.2v-1.48l4.66-1.75h.25v12.86Z"/><path class="cls-11" d="m349.93,203.77h1.78v1.33h-1.78v2.97h-1.63v-2.97h-5.83v-.96l5.73-8.87h1.73v8.5Zm-5.62,0h3.98v-6.28l-.19.35-3.79,5.92Z"/></g><g><path class="cls-11" d="m338.3,265.67h-1.63v-10.84l-3.28,1.2v-1.48l4.66-1.75h.25v12.86Z"/><path class="cls-11" d="m345.43,258.48h1.22c.77-.01,1.37-.21,1.81-.61s.66-.92.66-1.59c0-1.5-.75-2.25-2.24-2.25-.7,0-1.26.2-1.68.6s-.63.93-.63,1.6h-1.63c0-1.01.37-1.86,1.11-2.53s1.68-1.01,2.83-1.01c1.21,0,2.15.32,2.84.96s1.03,1.53,1.03,2.66c0,.56-.18,1.1-.54,1.62s-.85.91-1.47,1.17c.7.22,1.25.59,1.63,1.11s.58,1.15.58,1.89c0,1.15-.38,2.06-1.12,2.73s-1.73,1.01-2.93,1.01-2.18-.33-2.93-.98-1.13-1.51-1.13-2.58h1.63c0,.67.22,1.21.66,1.62s1.03.61,1.77.61c.79,0,1.39-.21,1.8-.62s.62-1,.62-1.77-.23-1.32-.69-1.71-1.12-.6-1.98-.62h-1.22v-1.33Z"/></g><g><path class="cls-11" d="m338.3,323.27h-1.63v-10.84l-3.28,1.2v-1.48l4.66-1.75h.25v12.86Z"/><path class="cls-11" d="m351.45,323.27h-8.38v-1.17l4.43-4.92c.66-.74,1.11-1.35,1.36-1.81s.37-.95.37-1.45c0-.67-.2-1.22-.61-1.64s-.94-.64-1.62-.64c-.81,0-1.44.23-1.89.69s-.67,1.1-.67,1.92h-1.63c0-1.18.38-2.13,1.14-2.86s1.77-1.09,3.05-1.09c1.19,0,2.13.31,2.82.94s1.04,1.45,1.04,2.49c0,1.26-.8,2.76-2.41,4.5l-3.43,3.72h6.42v1.33Z"/></g><g><path class="cls-11" d="m338.3,380.87h-1.63v-10.84l-3.28,1.2v-1.48l4.66-1.75h.25v12.86Z"/><path class="cls-11" d="m348.41,380.87h-1.63v-10.84l-3.28,1.2v-1.48l4.66-1.75h.25v12.86Z"/></g><g><path class="cls-11" d="m338.3,438.47h-1.63v-10.84l-3.28,1.2v-1.48l4.66-1.75h.25v12.86Z"/><path class="cls-11" d="m351.09,433.01c0,1.9-.33,3.32-.98,4.25s-1.67,1.39-3.05,1.39-2.38-.45-3.03-1.36-1-2.26-1.02-4.06v-2.17c0-1.88.33-3.28.98-4.19s1.67-1.37,3.06-1.37,2.39.44,3.04,1.32.98,2.24,1,4.08v2.11Zm-1.63-2.22c0-1.38-.19-2.38-.58-3.01s-1-.94-1.84-.94-1.44.31-1.82.94-.58,1.59-.59,2.89v2.6c0,1.38.2,2.4.6,3.06s1.01.99,1.82.99,1.4-.31,1.79-.93.59-1.6.61-2.94v-2.66Z"/></g><path class="cls-11" d="m344.96,490.44c-.34.4-.75.73-1.22.98s-.99.37-1.55.37c-.74,0-1.38-.18-1.93-.54s-.97-.87-1.27-1.53c-.3-.66-.45-1.39-.45-2.18,0-.86.16-1.63.49-2.31s.79-1.21,1.38-1.57,1.29-.54,2.09-.54c1.27,0,2.26.47,2.99,1.42.73.95,1.09,2.24,1.09,3.87v.47c0,2.49-.49,4.31-1.48,5.45-.98,1.15-2.47,1.73-4.46,1.76h-.32v-1.38h.34c1.34-.02,2.37-.37,3.09-1.05.72-.68,1.11-1.74,1.18-3.21Zm-2.5,0c.54,0,1.05-.17,1.51-.5s.8-.75,1.01-1.24v-.65c0-1.07-.23-1.93-.69-2.6s-1.05-1-1.76-1-1.29.27-1.72.82c-.43.55-.65,1.27-.65,2.17s.21,1.59.63,2.16c.42.56.98.85,1.68.85Z"/><g><path class="cls-11" d="m118.04,493.82l3.66-10.56h1.85l-4.75,12.8h-1.49l-4.74-12.8h1.84l3.64,10.56Z"/><path class="cls-11" d="m127.28,492.26c-.96-.28-1.67-.62-2.11-1.02s-.66-.9-.66-1.5c0-.67.27-1.23.81-1.67s1.24-.66,2.09-.66c.59,0,1.11.11,1.57.34s.81.54,1.07.94.38.83.38,1.31h-1.13c0-.52-.16-.92-.49-1.22s-.79-.44-1.39-.44c-.55,0-.99.12-1.3.37-.31.24-.47.58-.47,1.02,0,.35.15.64.44.88.29.24.8.46,1.51.66.71.2,1.26.42,1.66.66s.7.52.89.84.29.7.29,1.13c0,.69-.27,1.25-.81,1.66s-1.26.62-2.16.62c-.59,0-1.13-.11-1.64-.34s-.9-.53-1.17-.92-.41-.83-.41-1.33h1.13c0,.52.19.92.57,1.22s.89.45,1.53.45c.59,0,1.05-.12,1.37-.36s.47-.57.47-.99-.15-.74-.44-.97-.82-.45-1.59-.68Z"/><path class="cls-11" d="m134.4,492.26c-.96-.28-1.67-.62-2.11-1.02s-.66-.9-.66-1.5c0-.67.27-1.23.81-1.67s1.24-.66,2.09-.66c.59,0,1.11.11,1.57.34s.81.54,1.07.94.38.83.38,1.31h-1.13c0-.52-.16-.92-.49-1.22s-.79-.44-1.39-.44c-.55,0-.99.12-1.3.37-.31.24-.47.58-.47,1.02,0,.35.15.64.44.88.29.24.8.46,1.51.66.71.2,1.26.42,1.66.66s.7.52.89.84.29.7.29,1.13c0,.69-.27,1.25-.81,1.66s-1.26.62-2.16.62c-.59,0-1.13-.11-1.64-.34s-.9-.53-1.17-.92-.41-.83-.41-1.33h1.13c0,.52.19.92.57,1.22s.89.45,1.53.45c.59,0,1.05-.12,1.37-.36s.47-.57.47-.99-.15-.74-.44-.97-.82-.45-1.59-.68Z"/></g><g><path class="cls-11" d="m292.45,90.63l3.66-10.56h1.85l-4.75,12.8h-1.49l-4.74-12.8h1.84l3.64,10.56Z"/><path class="cls-11" d="m299.17,92.87v-8.53h2.41c.74,0,1.4.16,1.97.49s1.01.79,1.32,1.4.47,1.3.47,2.09v.54c0,.8-.16,1.51-.47,2.12s-.75,1.07-1.33,1.39-1.25.49-2.01.5h-2.36Zm1.12-7.61v6.69h1.18c.87,0,1.54-.27,2.02-.81.48-.54.72-1.31.72-2.3v-.5c0-.97-.23-1.72-.68-2.26-.46-.54-1.1-.81-1.94-.82h-1.31Z"/><path class="cls-11" d="m307.04,92.87v-8.53h2.41c.74,0,1.4.16,1.97.49s1.01.79,1.32,1.4.47,1.3.47,2.09v.54c0,.8-.16,1.51-.47,2.12s-.75,1.07-1.33,1.39-1.25.49-2.01.5h-2.36Zm1.12-7.61v6.69h1.18c.87,0,1.54-.27,2.02-.81.48-.54.72-1.31.72-2.3v-.5c0-.97-.23-1.72-.68-2.26-.46-.54-1.1-.81-1.94-.82h-1.31Z"/></g><g><path class="cls-11" d="m192.04,554.66c-.16,1.35-.66,2.4-1.5,3.13s-1.96,1.1-3.35,1.1c-1.51,0-2.72-.54-3.63-1.63s-1.37-2.53-1.37-4.35v-1.23c0-1.19.21-2.24.64-3.14s1.03-1.59,1.81-2.08,1.68-.73,2.71-.73c1.36,0,2.45.38,3.27,1.14s1.3,1.81,1.43,3.15h-1.7c-.15-1.02-.46-1.76-.95-2.22-.49-.46-1.17-.69-2.05-.69-1.08,0-1.92.4-2.54,1.2-.61.8-.92,1.93-.92,3.4v1.24c0,1.39.29,2.5.87,3.32.58.82,1.39,1.23,2.43,1.23.94,0,1.66-.21,2.16-.64s.83-1.17,1-2.22h1.7Z"/><path class="cls-11" d="m194.35,558.72v-12.8h3.61c1.11,0,2.1.25,2.95.74s1.52,1.19,1.98,2.1.7,1.95.71,3.13v.82c0,1.21-.23,2.26-.7,3.17s-1.13,1.61-2,2.09-1.87.74-3.02.75h-3.54Zm1.69-11.42v10.04h1.78c1.3,0,2.31-.4,3.04-1.21.72-.81,1.09-1.96,1.09-3.46v-.75c0-1.45-.34-2.58-1.02-3.39s-1.65-1.22-2.9-1.23h-1.97Z"/><path class="cls-11" d="m212.59,554.42h1.78v1.33h-1.78v2.97h-1.63v-2.97h-5.83v-.96l5.73-8.87h1.73v8.5Zm-5.62,0h3.98v-6.28l-.19.35-3.79,5.92Z"/><path class="cls-11" d="m223.86,553.26c0,1.9-.33,3.32-.98,4.25s-1.67,1.39-3.05,1.39-2.38-.45-3.03-1.36-1-2.26-1.02-4.06v-2.17c0-1.88.33-3.28.98-4.19s1.67-1.37,3.06-1.37,2.39.44,3.04,1.32.98,2.24,1,4.08v2.11Zm-1.63-2.22c0-1.38-.19-2.38-.58-3.01s-1-.95-1.84-.95-1.44.31-1.82.94-.58,1.59-.59,2.89v2.6c0,1.38.2,2.4.6,3.06s1.01.99,1.82.99,1.4-.31,1.79-.93.59-1.6.61-2.94v-2.66Z"/><path class="cls-11" d="m226.69,552.3l.65-6.38h6.56v1.5h-5.18l-.39,3.49c.63-.37,1.34-.55,2.14-.55,1.17,0,2.09.39,2.78,1.16s1.03,1.81,1.03,3.12-.36,2.36-1.07,3.12-1.71,1.14-2.98,1.14c-1.13,0-2.05-.31-2.77-.94s-1.12-1.49-1.22-2.6h1.54c.1.73.36,1.29.78,1.66s.98.56,1.67.56c.76,0,1.35-.26,1.78-.77s.65-1.23.65-2.14c0-.86-.23-1.54-.7-2.06s-1.09-.78-1.86-.78c-.71,0-1.27.16-1.67.47l-.43.35-1.3-.33Z"/><path class="cls-11" d="m241.39,558.72h-1.63v-10.84l-3.28,1.2v-1.48l4.66-1.75h.25v12.86Z"/></g><path class="cls-11" d="m87.29,486.61c0,.64-.17,1.21-.51,1.71s-.79.89-1.37,1.17c.67.29,1.2.71,1.59,1.26s.58,1.17.58,1.87c0,1.11-.37,1.99-1.12,2.65s-1.73.98-2.95.98-2.22-.33-2.96-.99-1.11-1.54-1.11-2.64c0-.69.19-1.32.57-1.87s.9-.98,1.57-1.27c-.57-.28-1.02-.67-1.34-1.17s-.49-1.06-.49-1.7c0-1.08.35-1.93,1.04-2.57s1.6-.95,2.73-.95,2.03.32,2.73.95,1.04,1.49,1.04,2.57Zm-1.33,5.97c0-.71-.23-1.3-.68-1.75s-1.05-.68-1.78-.68-1.32.22-1.76.67-.66,1.03-.66,1.76.22,1.3.65,1.71,1.03.62,1.8.62,1.36-.21,1.79-.63.65-.99.65-1.71Zm-2.44-8.15c-.64,0-1.16.2-1.55.59s-.59.93-.59,1.61.19,1.18.58,1.58.91.6,1.56.6,1.17-.2,1.56-.6.58-.93.58-1.58-.2-1.18-.61-1.59-.92-.62-1.54-.62Z"/><g><path class="cls-11" d="m338.3,92.87h-1.63v-10.84l-3.28,1.2v-1.48l4.66-1.75h.25v12.86Z"/><path class="cls-11" d="m349.44,80.06v1.38h-.3c-1.27.02-2.27.4-3.02,1.12s-1.18,1.75-1.3,3.07c.67-.77,1.59-1.16,2.76-1.16s2,.39,2.67,1.18,1,1.8,1,3.04c0,1.32-.36,2.37-1.08,3.16s-1.68,1.19-2.89,1.19-2.22-.47-2.98-1.41-1.14-2.15-1.14-3.63v-.62c0-2.36.5-4.16,1.51-5.4s2.5-1.88,4.49-1.91h.29Zm-2.14,5.77c-.56,0-1.07.17-1.54.5s-.79.75-.98,1.26v.6c0,1.05.24,1.9.71,2.55s1.07.97,1.78.97,1.31-.27,1.73-.81.63-1.25.63-2.12-.21-1.59-.64-2.13-.99-.81-1.69-.81Z"/></g><g><path class="cls-11" d="m338.3,150.47h-1.63v-10.84l-3.28,1.2v-1.48l4.66-1.75h.25v12.86Z"/><path class="cls-11" d="m343.81,144.05l.65-6.38h6.56v1.5h-5.18l-.39,3.49c.63-.37,1.34-.55,2.14-.55,1.17,0,2.09.38,2.78,1.16s1.03,1.81,1.03,3.12-.36,2.36-1.07,3.12-1.71,1.14-2.98,1.14c-1.13,0-2.05-.31-2.77-.94s-1.12-1.49-1.22-2.6h1.54c.1.73.36,1.28.78,1.66s.98.56,1.67.56c.76,0,1.35-.26,1.78-.77s.65-1.23.65-2.14c0-.86-.23-1.54-.7-2.06s-1.09-.78-1.86-.78c-.71,0-1.27.16-1.67.47l-.43.35-1.3-.33Z"/></g><g><path class="cls-11" d="m113.77,83.67l-.92-.63c.54-.76.83-1.56.84-2.41v-1.27h1.61v1.14c0,.59-.15,1.17-.44,1.75s-.65,1.05-1.09,1.41Zm2.7,0l-.92-.63c.54-.76.83-1.56.84-2.41v-1.27h1.61v1.14c0,.59-.15,1.17-.44,1.75s-.65,1.05-1.09,1.41Z"/><path class="cls-11" d="m126.67,88.57h1.78v1.33h-1.78v2.97h-1.63v-2.97h-5.83v-.96l5.73-8.87h1.73v8.5Zm-5.62,0h3.98v-6.28l-.19.35-3.79,5.92Z"/><path class="cls-11" d="m131.3,79.2l.93.63c-.54.74-.83,1.55-.84,2.41v1.2h-1.62v-1.02c0-.6.14-1.19.43-1.78s.65-1.07,1.1-1.44Zm2.77,0l.93.63c-.54.74-.83,1.55-.84,2.41v1.2h-1.62v-1.02c0-.6.14-1.19.43-1.78s.65-1.07,1.1-1.44Z"/></g><g><path class="cls-11" d="m113.77,142.71l-.92-.63c.54-.76.83-1.56.84-2.41v-1.27h1.61v1.14c0,.59-.15,1.17-.44,1.75s-.65,1.05-1.09,1.41Zm2.7,0l-.92-.63c.54-.76.83-1.56.84-2.41v-1.27h1.61v1.14c0,.59-.15,1.17-.44,1.75s-.65,1.05-1.09,1.41Z"/><path class="cls-11" d="m126.19,139.1v1.38h-.3c-1.27.02-2.27.4-3.02,1.12s-1.18,1.75-1.3,3.07c.67-.77,1.59-1.16,2.76-1.16s2,.39,2.67,1.18,1,1.8,1,3.04c0,1.32-.36,2.37-1.08,3.16s-1.68,1.19-2.89,1.19-2.22-.47-2.98-1.41-1.14-2.15-1.14-3.63v-.62c0-2.36.5-4.16,1.51-5.4s2.5-1.88,4.49-1.91h.29Zm-2.14,5.77c-.56,0-1.07.17-1.54.5s-.79.75-.98,1.26v.6c0,1.05.24,1.9.71,2.55s1.07.97,1.78.97,1.31-.27,1.73-.81.63-1.25.63-2.12-.21-1.59-.64-2.13-.99-.81-1.69-.81Z"/><path class="cls-11" d="m131.3,138.24l.93.63c-.54.74-.83,1.55-.84,2.41v1.2h-1.62v-1.02c0-.6.14-1.19.43-1.78s.65-1.07,1.1-1.44Zm2.77,0l.93.63c-.54.74-.83,1.55-.84,2.41v1.2h-1.62v-1.02c0-.6.14-1.19.43-1.78s.65-1.07,1.1-1.44Z"/></g><g><path class="cls-11" d="m123.22,195c-.16,1.35-.66,2.4-1.5,3.13s-1.96,1.1-3.35,1.1c-1.51,0-2.72-.54-3.63-1.63s-1.37-2.53-1.37-4.35v-1.23c0-1.19.21-2.24.64-3.14s1.03-1.6,1.81-2.08,1.68-.73,2.71-.73c1.36,0,2.45.38,3.27,1.14s1.3,1.81,1.43,3.15h-1.7c-.15-1.02-.46-1.76-.95-2.22s-1.17-.69-2.05-.69c-1.08,0-1.92.4-2.54,1.2-.61.8-.92,1.93-.92,3.4v1.24c0,1.39.29,2.5.87,3.32s1.39,1.23,2.43,1.23c.94,0,1.66-.21,2.16-.64s.83-1.16,1-2.22h1.7Z"/><path class="cls-11" d="m135.36,193.08c0,1.25-.21,2.35-.63,3.28s-1.02,1.65-1.79,2.14-1.68.74-2.71.74-1.9-.25-2.68-.74-1.38-1.2-1.81-2.12-.65-1.98-.66-3.19v-.92c0-1.23.21-2.32.64-3.26s1.03-1.67,1.81-2.17,1.68-.75,2.69-.75,1.93.25,2.71.74,1.38,1.21,1.81,2.15.63,2.03.63,3.28v.81Zm-1.68-.83c0-1.52-.3-2.68-.91-3.49s-1.46-1.22-2.56-1.22-1.91.41-2.52,1.22-.93,1.94-.94,3.38v.94c0,1.47.31,2.63.93,3.47s1.47,1.26,2.55,1.26,1.93-.4,2.53-1.19.91-1.93.92-3.41v-.95Z"/><path class="cls-11" d="m140.08,186.26l4.18,10.44,4.18-10.44h2.19v12.8h-1.69v-4.98l.16-5.38-4.2,10.36h-1.29l-4.19-10.34.17,5.35v4.98h-1.69v-12.8h2.18Z"/><path class="cls-11" d="m155.79,186.26l4.18,10.44,4.18-10.44h2.19v12.8h-1.69v-4.98l.16-5.38-4.2,10.36h-1.29l-4.19-10.34.17,5.35v4.98h-1.69v-12.8h2.18Z"/><path class="cls-11" d="m179.17,193.08c0,1.25-.21,2.35-.63,3.28s-1.02,1.65-1.79,2.14-1.68.74-2.71.74-1.9-.25-2.68-.74-1.38-1.2-1.81-2.12-.65-1.98-.66-3.19v-.92c0-1.23.21-2.32.64-3.26s1.03-1.67,1.81-2.17,1.68-.75,2.69-.75,1.93.25,2.71.74,1.38,1.21,1.81,2.15.63,2.03.63,3.28v.81Zm-1.68-.83c0-1.52-.3-2.68-.91-3.49s-1.46-1.22-2.56-1.22-1.91.41-2.52,1.22-.93,1.94-.94,3.38v.94c0,1.47.31,2.63.93,3.47s1.47,1.26,2.55,1.26,1.93-.4,2.53-1.19.91-1.93.92-3.41v-.95Z"/><path class="cls-11" d="m191.54,199.06h-1.7l-6.44-9.86v9.86h-1.7v-12.8h1.7l6.46,9.91v-9.91h1.68v12.8Z"/><path class="cls-11" d="m123.65,214.68c0,1.25-.21,2.35-.63,3.28s-1.02,1.65-1.79,2.14-1.68.74-2.71.74-1.9-.25-2.68-.74-1.38-1.2-1.81-2.12-.65-1.98-.66-3.19v-.92c0-1.23.21-2.32.64-3.26s1.03-1.67,1.81-2.17,1.68-.75,2.69-.75,1.93.25,2.71.74,1.38,1.21,1.81,2.15.63,2.03.63,3.28v.81Zm-1.68-.83c0-1.52-.3-2.68-.91-3.49s-1.46-1.22-2.56-1.22-1.91.41-2.52,1.22-.93,1.94-.94,3.38v.94c0,1.47.31,2.63.93,3.47s1.47,1.26,2.55,1.26,1.93-.4,2.53-1.19.91-1.93.92-3.41v-.95Z"/><path class="cls-11" d="m135.19,207.86v8.7c0,1.21-.39,2.19-1.14,2.96s-1.77,1.2-3.06,1.29l-.45.02c-1.4,0-2.52-.38-3.35-1.13s-1.25-1.8-1.27-3.12v-8.72h1.67v8.67c0,.93.25,1.65.76,2.16s1.24.77,2.18.77,1.69-.25,2.19-.76.76-1.23.76-2.15v-8.67h1.7Z"/><path class="cls-11" d="m146.69,209.24h-4.11v11.42h-1.68v-11.42h-4.1v-1.38h9.9v1.38Z"/><path class="cls-11" d="m148.66,221.76h-1.4l5.34-13.9h1.39l-5.33,13.9Z"/><path class="cls-11" d="m157.82,220.66h-1.69v-12.8h1.69v12.8Z"/><path class="cls-11" d="m170.74,220.66h-1.7l-6.44-9.86v9.86h-1.7v-12.8h1.7l6.46,9.91v-9.91h1.68v12.8Z"/></g><g><path class="cls-11" d="m114.76,252l.93.63c-.54.74-.83,1.55-.84,2.41v1.2h-1.62v-1.02c0-.6.14-1.19.43-1.78s.65-1.07,1.1-1.44Zm2.77,0l.93.63c-.54.74-.83,1.55-.84,2.41v1.2h-1.62v-1.02c0-.6.14-1.19.43-1.78s.65-1.07,1.1-1.44Z"/><path class="cls-11" d="m128.01,253.78l-5.3,11.88h-1.71l5.28-11.46h-6.93v-1.34h8.65v.91Z"/><path class="cls-11" d="m131.23,252l.93.63c-.54.74-.83,1.55-.84,2.41v1.2h-1.62v-1.02c0-.6.14-1.19.43-1.78s.65-1.07,1.1-1.44Zm2.77,0l.93.63c-.54.74-.83,1.55-.84,2.41v1.2h-1.62v-1.02c0-.6.14-1.19.43-1.78s.65-1.07,1.1-1.44Z"/></g><g><path class="cls-11" d="m114.76,309.6l.93.63c-.54.74-.83,1.55-.84,2.41v1.2h-1.62v-1.02c0-.6.14-1.19.43-1.78s.65-1.07,1.1-1.44Zm2.77,0l.93.63c-.54.74-.83,1.55-.84,2.41v1.2h-1.62v-1.02c0-.6.14-1.19.43-1.78s.65-1.07,1.1-1.44Z"/><path class="cls-11" d="m120.49,316.85l.65-6.38h6.56v1.5h-5.18l-.39,3.49c.63-.37,1.34-.55,2.14-.55,1.17,0,2.09.39,2.78,1.16s1.03,1.81,1.03,3.12-.36,2.36-1.07,3.12-1.71,1.14-2.98,1.14c-1.13,0-2.05-.31-2.77-.94s-1.12-1.49-1.22-2.6h1.54c.1.73.36,1.29.78,1.66s.98.56,1.67.56c.76,0,1.35-.26,1.78-.77s.65-1.23.65-2.14c0-.86-.23-1.54-.7-2.06s-1.09-.78-1.86-.78c-.71,0-1.27.16-1.67.47l-.43.35-1.3-.33Z"/><path class="cls-11" d="m131.23,309.6l.93.63c-.54.74-.83,1.55-.84,2.41v1.2h-1.62v-1.02c0-.6.14-1.19.43-1.78s.65-1.07,1.1-1.44Zm2.77,0l.93.63c-.54.74-.83,1.55-.84,2.41v1.2h-1.62v-1.02c0-.6.14-1.19.43-1.78s.65-1.07,1.1-1.44Z"/></g><g><path class="cls-11" d="m115.62,380.87h-1.69v-12.8h1.69v12.8Z"/><path class="cls-11" d="m128.54,380.87h-1.7l-6.44-9.86v9.86h-1.7v-12.8h1.7l6.46,9.91v-9.91h1.68v12.8Z"/><path class="cls-11" d="m141.37,380.87h-1.7v-5.92h-6.45v5.92h-1.69v-12.8h1.69v5.5h6.45v-5.5h1.7v12.8Z"/><path class="cls-11" d="m146.18,380.87h-1.69v-12.8h1.69v12.8Z"/><path class="cls-11" d="m149.26,380.87v-12.8h4.18c1.39,0,2.43.29,3.13.86s1.05,1.42,1.05,2.55c0,.6-.17,1.13-.51,1.59s-.8.82-1.39,1.07c.69.19,1.24.56,1.64,1.1s.6,1.19.6,1.94c0,1.15-.37,2.05-1.12,2.71s-1.8.98-3.16.98h-4.44Zm1.69-7.34h2.55c.74,0,1.33-.19,1.77-.55.44-.37.66-.87.66-1.51,0-.7-.21-1.22-.62-1.54-.41-.32-1.03-.48-1.87-.48h-2.5v4.08Zm0,1.35v4.61h2.79c.79,0,1.4-.2,1.86-.61s.68-.97.68-1.68c0-1.54-.84-2.31-2.51-2.31h-2.81Z"/><path class="cls-11" d="m162.28,380.87h-1.69v-12.8h1.69v12.8Z"/><path class="cls-11" d="m173.95,369.45h-4.11v11.42h-1.68v-11.42h-4.1v-1.38h9.9v1.38Z"/></g><g><path class="cls-11" d="m293.53,194.4l.93.63c-.54.74-.83,1.55-.84,2.41v1.2h-1.62v-1.02c0-.6.14-1.19.43-1.78s.65-1.07,1.1-1.44Zm2.77,0l.93.63c-.54.74-.83,1.55-.84,2.41v1.2h-1.62v-1.02c0-.6.14-1.19.43-1.78s.65-1.07,1.1-1.44Z"/><path class="cls-11" d="m303.86,208.07h-1.63v-10.84l-3.28,1.2v-1.48l4.66-1.75h.25v12.86Z"/><path class="cls-11" d="m310,194.4l.93.63c-.54.74-.83,1.55-.84,2.41v1.2h-1.62v-1.02c0-.6.14-1.19.43-1.78s.65-1.07,1.1-1.44Zm2.77,0l.93.63c-.54.74-.83,1.55-.84,2.41v1.2h-1.62v-1.02c0-.6.14-1.19.43-1.78s.65-1.07,1.1-1.44Z"/></g><g><path class="cls-11" d="m293.53,252l.93.63c-.54.74-.83,1.55-.84,2.41v1.2h-1.62v-1.02c0-.6.14-1.19.43-1.78s.65-1.07,1.1-1.44Zm2.77,0l.93.63c-.54.74-.83,1.55-.84,2.41v1.2h-1.62v-1.02c0-.6.14-1.19.43-1.78s.65-1.07,1.1-1.44Z"/><path class="cls-11" d="m306.54,260.21c0,1.9-.33,3.32-.98,4.25s-1.67,1.39-3.05,1.39-2.38-.45-3.03-1.36-1-2.26-1.02-4.06v-2.17c0-1.88.33-3.28.98-4.19s1.67-1.37,3.06-1.37,2.39.44,3.04,1.32.98,2.24,1,4.08v2.11Zm-1.63-2.22c0-1.38-.19-2.38-.58-3.01s-1-.94-1.84-.94-1.44.31-1.82.94-.58,1.59-.59,2.89v2.6c0,1.38.2,2.4.6,3.06s1.01.99,1.82.99,1.4-.31,1.79-.93.59-1.6.61-2.94v-2.66Z"/><path class="cls-11" d="m310,252l.93.63c-.54.74-.83,1.55-.84,2.41v1.2h-1.62v-1.02c0-.6.14-1.19.43-1.78s.65-1.07,1.1-1.44Zm2.77,0l.93.63c-.54.74-.83,1.55-.84,2.41v1.2h-1.62v-1.02c0-.6.14-1.19.43-1.78s.65-1.07,1.1-1.44Z"/></g><g><path class="cls-11" d="m293.53,309.6l.93.63c-.54.74-.83,1.55-.84,2.41v1.2h-1.62v-1.02c0-.6.14-1.19.43-1.78s.65-1.07,1.1-1.44Zm2.77,0l.93.63c-.54.74-.83,1.55-.84,2.41v1.2h-1.62v-1.02c0-.6.14-1.19.43-1.78s.65-1.07,1.1-1.44Z"/><path class="cls-11" d="m300.88,316.08h1.22c.77-.01,1.37-.21,1.81-.61s.66-.92.66-1.59c0-1.5-.75-2.25-2.24-2.25-.7,0-1.26.2-1.68.6s-.63.93-.63,1.6h-1.63c0-1.01.37-1.86,1.11-2.53s1.68-1.01,2.83-1.01c1.21,0,2.15.32,2.84.96s1.03,1.53,1.03,2.66c0,.56-.18,1.1-.54,1.62s-.85.91-1.47,1.17c.7.22,1.25.59,1.63,1.11s.58,1.15.58,1.89c0,1.15-.38,2.06-1.12,2.73s-1.73,1.01-2.93,1.01-2.18-.33-2.93-.98-1.13-1.51-1.13-2.58h1.63c0,.67.22,1.21.66,1.62s1.03.61,1.77.61c.79,0,1.39-.21,1.8-.62s.62-1,.62-1.77-.23-1.32-.69-1.71-1.12-.6-1.98-.62h-1.22v-1.33Z"/><path class="cls-11" d="m310,309.6l.93.63c-.54.74-.83,1.55-.84,2.41v1.2h-1.62v-1.02c0-.6.14-1.19.43-1.78s.65-1.07,1.1-1.44Zm2.77,0l.93.63c-.54.74-.83,1.55-.84,2.41v1.2h-1.62v-1.02c0-.6.14-1.19.43-1.78s.65-1.07,1.1-1.44Z"/></g><path class="cls-11" d="m310.73,377.52h-5.36l-1.2,3.35h-1.74l4.89-12.8h1.48l4.9,12.8h-1.73l-1.22-3.35Zm-4.85-1.38h4.35l-2.18-5.99-2.17,5.99Z"/><path class="cls-11" d="m304.2,438.47v-12.8h4.18c1.39,0,2.43.29,3.13.86s1.05,1.42,1.05,2.55c0,.6-.17,1.13-.51,1.59s-.8.82-1.39,1.07c.69.19,1.24.56,1.64,1.1s.6,1.19.6,1.94c0,1.15-.37,2.05-1.12,2.71s-1.8.98-3.16.98h-4.44Zm1.69-7.34h2.55c.74,0,1.33-.18,1.77-.55s.66-.87.66-1.51c0-.71-.21-1.22-.62-1.54s-1.03-.48-1.87-.48h-2.5v4.08Zm0,1.35v4.61h2.79c.79,0,1.4-.2,1.86-.61s.68-.97.68-1.68c0-1.54-.84-2.31-2.51-2.31h-2.81Z"/><path class="cls-11" d="m313.1,492.01c-.16,1.35-.66,2.4-1.5,3.13-.84.74-1.96,1.1-3.35,1.1-1.51,0-2.72-.54-3.63-1.63s-1.37-2.53-1.37-4.35v-1.23c0-1.19.21-2.24.64-3.14s1.03-1.59,1.81-2.08c.78-.48,1.68-.72,2.71-.72,1.36,0,2.45.38,3.27,1.14.82.76,1.3,1.81,1.43,3.15h-1.7c-.15-1.02-.46-1.76-.95-2.22s-1.17-.69-2.05-.69c-1.08,0-1.92.4-2.54,1.2-.61.8-.92,1.93-.92,3.4v1.24c0,1.39.29,2.5.87,3.32s1.39,1.23,2.43,1.23c.94,0,1.66-.21,2.16-.64.5-.42.83-1.16,1-2.22h1.7Z"/><g><path class="cls-11" d="m293.53,136.8l.93.63c-.54.74-.83,1.55-.84,2.41v1.2h-1.62v-1.02c0-.6.14-1.19.43-1.78s.65-1.07,1.1-1.44Zm2.77,0l.93.63c-.54.74-.83,1.55-.84,2.41v1.2h-1.62v-1.02c0-.6.14-1.19.43-1.78s.65-1.07,1.1-1.44Z"/><path class="cls-11" d="m306.9,150.47h-8.38v-1.17l4.43-4.92c.66-.74,1.11-1.35,1.36-1.82s.37-.95.37-1.45c0-.67-.2-1.22-.61-1.64s-.94-.64-1.62-.64c-.81,0-1.44.23-1.89.69s-.67,1.1-.67,1.92h-1.63c0-1.18.38-2.13,1.14-2.86s1.77-1.09,3.05-1.09c1.19,0,2.13.31,2.82.94s1.04,1.46,1.04,2.49c0,1.26-.8,2.76-2.41,4.5l-3.43,3.72h6.42v1.33Z"/><path class="cls-11" d="m310,136.8l.93.63c-.54.74-.83,1.55-.84,2.41v1.2h-1.62v-1.02c0-.6.14-1.19.43-1.78s.65-1.07,1.1-1.44Zm2.77,0l.93.63c-.54.74-.83,1.55-.84,2.41v1.2h-1.62v-1.02c0-.6.14-1.19.43-1.78s.65-1.07,1.1-1.44Z"/></g><g><path class="cls-11" d="m583.79,116.64h-1.63v-10.84l-3.28,1.2v-1.48l4.66-1.75h.25v12.86Z"/><path class="cls-11" d="m593.9,116.64h-1.63v-10.84l-3.28,1.2v-1.48l4.66-1.75h.25v12.86Z"/></g><g><path class="cls-11" d="m583.79,159.84h-1.63v-10.84l-3.28,1.2v-1.48l4.66-1.75h.25v12.86Z"/><path class="cls-11" d="m596.58,154.38c0,1.9-.33,3.32-.98,4.25s-1.67,1.39-3.05,1.39-2.38-.45-3.03-1.36-1-2.26-1.02-4.06v-2.17c0-1.88.33-3.28.98-4.19s1.67-1.37,3.06-1.37,2.39.44,3.04,1.32.98,2.24,1,4.08v2.11Zm-1.63-2.22c0-1.38-.19-2.38-.58-3.01s-1-.94-1.84-.94-1.44.31-1.82.94-.58,1.59-.59,2.89v2.6c0,1.38.2,2.4.6,3.06s1.01.99,1.82.99,1.4-.31,1.79-.93.59-1.6.61-2.94v-2.66Z"/></g><path class="cls-11" d="m594.79,198.85c-.34.4-.75.73-1.22.98s-.99.37-1.55.37c-.74,0-1.38-.18-1.93-.54s-.97-.87-1.27-1.53-.45-1.39-.45-2.18c0-.86.16-1.63.49-2.31s.79-1.21,1.38-1.57,1.29-.54,2.09-.54c1.27,0,2.26.47,2.99,1.42s1.09,2.24,1.09,3.87v.47c0,2.49-.49,4.31-1.48,5.45s-2.47,1.73-4.46,1.76h-.32v-1.38h.34c1.34-.02,2.37-.37,3.09-1.05.72-.68,1.11-1.74,1.18-3.21Zm-2.5,0c.54,0,1.05-.17,1.51-.5s.79-.75,1.01-1.24v-.65c0-1.07-.23-1.93-.69-2.6s-1.05-1-1.76-1-1.29.27-1.72.82-.65,1.27-.65,2.17.21,1.59.63,2.16.98.85,1.68.85Z"/><g><path class="cls-11" d="m799.79,118.08h-1.63v-10.84l-3.28,1.2v-1.48l4.66-1.75h.25v12.86Z"/><path class="cls-11" d="m806.92,110.89h1.22c.77-.01,1.37-.21,1.81-.61s.66-.92.66-1.59c0-1.5-.75-2.25-2.24-2.25-.7,0-1.26.2-1.68.6s-.63.93-.63,1.6h-1.63c0-1.01.37-1.86,1.11-2.53s1.68-1.01,2.83-1.01c1.21,0,2.15.32,2.84.96s1.03,1.53,1.03,2.66c0,.56-.18,1.1-.54,1.62s-.85.91-1.47,1.17c.7.22,1.25.59,1.63,1.11s.58,1.15.58,1.89c0,1.15-.38,2.06-1.12,2.73s-1.73,1.01-2.93,1.01-2.18-.33-2.93-.98-1.13-1.51-1.13-2.58h1.63c0,.67.22,1.21.66,1.62s1.03.61,1.77.61c.79,0,1.39-.21,1.8-.62s.62-1,.62-1.77-.23-1.32-.69-1.71-1.12-.6-1.98-.62h-1.22v-1.33Z"/></g><g><path class="cls-11" d="m799.79,161.28h-1.63v-10.84l-3.28,1.2v-1.48l4.66-1.75h.25v12.86Z"/><path class="cls-11" d="m811.42,156.98h1.78v1.33h-1.78v2.97h-1.63v-2.97h-5.83v-.96l5.73-8.87h1.73v8.5Zm-5.62,0h3.98v-6.28l-.19.35-3.79,5.92Z"/></g><g><path class="cls-11" d="m799.79,204.48h-1.63v-10.84l-3.28,1.2v-1.48l4.66-1.75h.25v12.86Z"/><path class="cls-11" d="m805.3,198.06l.65-6.38h6.56v1.5h-5.18l-.39,3.49c.63-.37,1.34-.55,2.14-.55,1.17,0,2.09.39,2.78,1.16s1.03,1.81,1.03,3.12-.36,2.36-1.07,3.12-1.71,1.14-2.98,1.14c-1.13,0-2.05-.31-2.77-.94s-1.12-1.49-1.22-2.6h1.54c.1.73.36,1.28.78,1.66s.98.56,1.67.56c.76,0,1.35-.26,1.78-.77s.65-1.23.65-2.14c0-.86-.23-1.54-.7-2.06s-1.09-.78-1.86-.78c-.71,0-1.27.16-1.67.47l-.43.35-1.3-.33Z"/></g><g><path class="cls-11" d="m799.79,247.68h-1.63v-10.84l-3.28,1.2v-1.48l4.66-1.75h.25v12.86Z"/><path class="cls-11" d="m812.94,247.68h-8.38v-1.17l4.43-4.92c.66-.74,1.11-1.35,1.36-1.81s.37-.95.37-1.45c0-.67-.2-1.22-.61-1.64s-.94-.64-1.62-.64c-.81,0-1.44.23-1.89.69s-.67,1.1-.67,1.92h-1.63c0-1.18.38-2.13,1.14-2.86s1.77-1.09,3.05-1.09c1.19,0,2.13.31,2.82.94s1.04,1.45,1.04,2.49c0,1.26-.8,2.76-2.41,4.5l-3.43,3.72h6.42v1.33Z"/></g><path class="cls-11" d="m803.86,327.66l.65-6.38h6.56v1.5h-5.18l-.39,3.49c.63-.37,1.34-.55,2.14-.55,1.17,0,2.09.38,2.78,1.16s1.03,1.81,1.03,3.12-.36,2.36-1.07,3.12-1.71,1.14-2.98,1.14c-1.13,0-2.05-.31-2.77-.94s-1.12-1.49-1.22-2.6h1.54c.1.73.36,1.28.78,1.66s.98.56,1.67.56c.76,0,1.35-.26,1.78-.77s.65-1.23.65-2.14c0-.86-.23-1.54-.7-2.06s-1.09-.78-1.86-.78c-.71,0-1.27.16-1.67.47l-.43.35-1.3-.33Z"/><path class="cls-11" d="m811.5,377.28h-8.38v-1.17l4.43-4.92c.66-.74,1.11-1.35,1.36-1.81s.37-.95.37-1.45c0-.67-.2-1.22-.61-1.64s-.94-.64-1.62-.64c-.81,0-1.44.23-1.89.69s-.67,1.1-.67,1.92h-1.63c0-1.18.38-2.13,1.14-2.86.76-.73,1.77-1.09,3.05-1.09,1.19,0,2.13.31,2.82.94s1.04,1.45,1.04,2.49c0,1.26-.8,2.76-2.41,4.5l-3.43,3.72h6.42v1.33Z"/><path class="cls-11" d="m809.98,416.18h1.78v1.33h-1.78v2.97h-1.63v-2.97h-5.83v-.96l5.73-8.87h1.73v8.5Zm-5.62,0h3.98v-6.28l-.19.35-3.79,5.92Z"/><path class="cls-11" d="m518.45,160.38v-12.8h4.18c1.39,0,2.43.29,3.13.86s1.05,1.42,1.05,2.55c0,.6-.17,1.13-.51,1.59s-.8.82-1.39,1.07c.69.19,1.24.56,1.64,1.1s.6,1.19.6,1.94c0,1.15-.37,2.05-1.12,2.71s-1.8.98-3.16.98h-4.44Zm1.69-7.34h2.55c.74,0,1.33-.19,1.77-.55.44-.37.66-.87.66-1.51,0-.7-.21-1.22-.62-1.54-.41-.32-1.03-.48-1.87-.48h-2.5v4.08Zm0,1.35v4.61h2.79c.79,0,1.4-.2,1.86-.61s.68-.97.68-1.68c0-1.54-.84-2.31-2.51-2.31h-2.81Z"/><path class="cls-11" d="m526.42,202.4c-.16,1.35-.66,2.4-1.5,3.13s-1.96,1.1-3.35,1.1c-1.51,0-2.72-.54-3.63-1.63s-1.37-2.53-1.37-4.35v-1.23c0-1.19.21-2.24.64-3.14s1.03-1.6,1.81-2.08,1.68-.73,2.71-.73c1.36,0,2.45.38,3.27,1.14s1.3,1.81,1.43,3.15h-1.7c-.15-1.02-.46-1.76-.95-2.22-.49-.46-1.17-.69-2.05-.69-1.08,0-1.92.4-2.54,1.2-.61.8-.92,1.93-.92,3.4v1.24c0,1.39.29,2.5.87,3.32.58.82,1.39,1.23,2.43,1.23.94,0,1.66-.21,2.16-.64s.83-1.16,1-2.22h1.7Z"/><path class="cls-11" d="m525.51,116.71h-5.36l-1.2,3.35h-1.74l4.89-12.8h1.48l4.9,12.8h-1.73l-1.22-3.35Zm-4.85-1.38h4.35l-2.18-5.99-2.17,5.99Z"/><g><path class="cls-11" d="m713.57,59.68l3.66-10.56h1.85l-4.75,12.8h-1.49l-4.74-12.8h1.84l3.64,10.56Z"/><path class="cls-11" d="m720.29,61.92v-8.53h2.41c.74,0,1.4.16,1.97.49s1.01.79,1.32,1.4.47,1.3.47,2.09v.54c0,.8-.16,1.51-.47,2.12s-.75,1.07-1.33,1.39-1.25.49-2.01.5h-2.36Zm1.12-7.61v6.69h1.18c.87,0,1.54-.27,2.02-.81s.72-1.31.72-2.31v-.5c0-.97-.23-1.72-.68-2.26-.46-.54-1.1-.81-1.94-.82h-1.31Z"/><path class="cls-11" d="m728.16,61.92v-8.53h2.41c.74,0,1.4.16,1.97.49s1.01.79,1.32,1.4.47,1.3.47,2.09v.54c0,.8-.16,1.51-.47,2.12s-.75,1.07-1.33,1.39-1.25.49-2.01.5h-2.36Zm1.12-7.61v6.69h1.18c.87,0,1.54-.27,2.02-.81s.72-1.31.72-2.31v-.5c0-.97-.23-1.72-.68-2.26-.46-.54-1.1-.81-1.94-.82h-1.31Z"/></g><g><path class="cls-11" d="m996.15,115.93l.93.63c-.54.74-.83,1.55-.84,2.41v1.2h-1.62v-1.02c0-.6.14-1.19.43-1.78s.65-1.07,1.1-1.44Zm2.77,0l.93.63c-.54.74-.83,1.55-.84,2.41v1.2h-1.62v-1.02c0-.6.14-1.19.43-1.78s.65-1.07,1.1-1.44Z"/><path class="cls-11" d="m1009.15,124.14c0,1.9-.33,3.32-.98,4.25s-1.67,1.39-3.05,1.39-2.38-.45-3.03-1.36-1-2.26-1.02-4.06v-2.17c0-1.88.33-3.28.98-4.19s1.67-1.37,3.06-1.37,2.39.44,3.04,1.32.98,2.24,1,4.08v2.11Zm-1.63-2.22c0-1.38-.19-2.38-.58-3.01s-1-.94-1.84-.94-1.44.31-1.82.94-.58,1.59-.59,2.89v2.6c0,1.38.2,2.4.6,3.06s1.01.99,1.82.99,1.4-.31,1.79-.93.59-1.6.61-2.94v-2.66Z"/><path class="cls-11" d="m1012.62,115.93l.93.63c-.54.74-.83,1.55-.84,2.41v1.2h-1.62v-1.02c0-.6.14-1.19.43-1.78s.65-1.07,1.1-1.44Zm2.77,0l.93.63c-.54.74-.83,1.55-.84,2.41v1.2h-1.62v-1.02c0-.6.14-1.19.43-1.78s.65-1.07,1.1-1.44Z"/></g><g><path class="cls-11" d="m996.15,159.13l.93.63c-.54.74-.83,1.55-.84,2.41v1.2h-1.62v-1.02c0-.6.14-1.19.43-1.78s.65-1.07,1.1-1.44Zm2.77,0l.93.63c-.54.74-.83,1.55-.84,2.41v1.2h-1.62v-1.02c0-.6.14-1.19.43-1.78s.65-1.07,1.1-1.44Z"/><path class="cls-11" d="m1006.47,172.8h-1.63v-10.84l-3.28,1.2v-1.48l4.66-1.75h.25v12.86Z"/><path class="cls-11" d="m1012.62,159.13l.93.63c-.54.74-.83,1.55-.84,2.41v1.2h-1.62v-1.02c0-.6.14-1.19.43-1.78s.65-1.07,1.1-1.44Zm2.77,0l.93.63c-.54.74-.83,1.55-.84,2.41v1.2h-1.62v-1.02c0-.6.14-1.19.43-1.78s.65-1.07,1.1-1.44Z"/></g><g><path class="cls-11" d="m996.15,202.33l.93.63c-.54.74-.83,1.55-.84,2.41v1.2h-1.62v-1.02c0-.6.14-1.19.43-1.78s.65-1.07,1.1-1.44Zm2.77,0l.93.63c-.54.74-.83,1.55-.84,2.41v1.2h-1.62v-1.02c0-.6.14-1.19.43-1.78s.65-1.07,1.1-1.44Z"/><path class="cls-11" d="m1009.51,216h-8.38v-1.17l4.43-4.92c.66-.74,1.11-1.35,1.36-1.81s.37-.95.37-1.45c0-.67-.2-1.22-.61-1.64s-.94-.64-1.62-.64c-.81,0-1.44.23-1.88.69s-.67,1.1-.67,1.92h-1.63c0-1.18.38-2.13,1.14-2.86s1.77-1.09,3.04-1.09c1.19,0,2.13.31,2.82.94s1.04,1.45,1.04,2.49c0,1.26-.8,2.76-2.41,4.5l-3.43,3.72h6.42v1.33Z"/><path class="cls-11" d="m1012.62,202.33l.93.63c-.54.74-.83,1.55-.84,2.41v1.2h-1.62v-1.02c0-.6.14-1.19.43-1.78s.65-1.07,1.1-1.44Zm2.77,0l.93.63c-.54.74-.83,1.55-.84,2.41v1.2h-1.62v-1.02c0-.6.14-1.19.43-1.78s.65-1.07,1.1-1.44Z"/></g><g><path class="cls-11" d="m996.15,245.53l.93.63c-.54.74-.83,1.55-.84,2.41v1.2h-1.62v-1.02c0-.6.14-1.19.43-1.78.29-.59.65-1.07,1.1-1.44Zm2.77,0l.93.63c-.54.74-.83,1.55-.84,2.41v1.2h-1.62v-1.02c0-.6.14-1.19.43-1.78.28-.59.65-1.07,1.1-1.44Z"/><path class="cls-11" d="m1003.49,252.01h1.22c.77-.01,1.37-.21,1.81-.61s.66-.92.66-1.59c0-1.5-.75-2.25-2.24-2.25-.7,0-1.26.2-1.68.6-.42.4-.63.93-.63,1.6h-1.63c0-1.01.37-1.86,1.11-2.53.74-.67,1.68-1.01,2.83-1.01,1.21,0,2.15.32,2.84.96s1.03,1.53,1.03,2.66c0,.56-.18,1.1-.54,1.62-.36.52-.85.91-1.47,1.17.7.22,1.25.59,1.63,1.11.38.52.58,1.15.58,1.89,0,1.15-.38,2.06-1.12,2.73s-1.73,1.01-2.93,1.01-2.18-.33-2.93-.98c-.75-.65-1.13-1.51-1.13-2.58h1.63c0,.67.22,1.21.66,1.62s1.03.61,1.77.61c.79,0,1.39-.21,1.8-.62s.62-1,.62-1.77-.23-1.32-.69-1.71-1.12-.6-1.98-.62h-1.22v-1.33Z"/><path class="cls-11" d="m1012.62,245.53l.93.63c-.54.74-.83,1.55-.84,2.41v1.2h-1.62v-1.02c0-.6.14-1.19.43-1.78.29-.59.65-1.07,1.1-1.44Zm2.77,0l.93.63c-.54.74-.83,1.55-.84,2.41v1.2h-1.62v-1.02c0-.6.14-1.19.43-1.78.28-.59.65-1.07,1.1-1.44Z"/></g><g><path class="cls-11" d="m996.15,288.73l.93.63c-.54.74-.83,1.55-.84,2.41v1.2h-1.62v-1.02c0-.6.14-1.19.43-1.78s.65-1.07,1.1-1.44Zm2.77,0l.93.63c-.54.74-.83,1.55-.84,2.41v1.2h-1.62v-1.02c0-.6.14-1.19.43-1.78s.65-1.07,1.1-1.44Z"/><path class="cls-11" d="m1007.99,298.1h1.78v1.33h-1.78v2.97h-1.63v-2.97h-5.83v-.96l5.73-8.87h1.73v8.5Zm-5.62,0h3.98v-6.28l-.19.35-3.79,5.92Z"/><path class="cls-11" d="m1012.62,288.73l.93.63c-.54.74-.83,1.55-.84,2.41v1.2h-1.62v-1.02c0-.6.14-1.19.43-1.78s.65-1.07,1.1-1.44Zm2.77,0l.93.63c-.54.74-.83,1.55-.84,2.41v1.2h-1.62v-1.02c0-.6.14-1.19.43-1.78s.65-1.07,1.1-1.44Z"/></g><g><path class="cls-11" d="m996.15,331.93l.93.63c-.54.74-.83,1.55-.84,2.41v1.2h-1.62v-1.02c0-.6.14-1.19.43-1.78s.65-1.07,1.1-1.44Zm2.77,0l.93.63c-.54.74-.83,1.55-.84,2.41v1.2h-1.62v-1.02c0-.6.14-1.19.43-1.78s.65-1.07,1.1-1.44Z"/><path class="cls-11" d="m1001.88,339.18l.65-6.38h6.56v1.5h-5.18l-.39,3.49c.63-.37,1.34-.55,2.14-.55,1.17,0,2.09.38,2.78,1.16s1.03,1.81,1.03,3.12-.36,2.36-1.07,3.12-1.71,1.14-2.98,1.14c-1.13,0-2.05-.31-2.77-.94s-1.12-1.49-1.22-2.6h1.54c.1.73.36,1.28.78,1.66s.98.56,1.67.56c.76,0,1.35-.26,1.78-.77s.65-1.23.65-2.14c0-.86-.23-1.54-.7-2.06s-1.08-.78-1.86-.78c-.71,0-1.27.16-1.67.47l-.43.35-1.3-.33Z"/><path class="cls-11" d="m1012.62,331.93l.93.63c-.54.74-.83,1.55-.84,2.41v1.2h-1.62v-1.02c0-.6.14-1.19.43-1.78s.65-1.07,1.1-1.44Zm2.77,0l.93.63c-.54.74-.83,1.55-.84,2.41v1.2h-1.62v-1.02c0-.6.14-1.19.43-1.78s.65-1.07,1.1-1.44Z"/></g><g><path class="cls-11" d="m996.15,375.13l.93.63c-.54.74-.83,1.55-.84,2.41v1.2h-1.62v-1.02c0-.6.14-1.19.43-1.78s.65-1.07,1.1-1.44Zm2.77,0l.93.63c-.54.74-.83,1.55-.84,2.41v1.2h-1.62v-1.02c0-.6.14-1.19.43-1.78s.65-1.07,1.1-1.44Z"/><path class="cls-11" d="m1007.51,375.99v1.38h-.3c-1.27.02-2.27.4-3.02,1.12s-1.18,1.75-1.3,3.07c.67-.77,1.59-1.16,2.76-1.16s2,.39,2.67,1.18,1,1.8,1,3.04c0,1.32-.36,2.37-1.08,3.16s-1.68,1.19-2.89,1.19-2.22-.47-2.98-1.41-1.14-2.15-1.14-3.63v-.62c0-2.36.5-4.16,1.51-5.4s2.5-1.88,4.49-1.91h.29Zm-2.14,5.77c-.56,0-1.07.17-1.54.5s-.79.75-.98,1.26v.6c0,1.05.24,1.9.71,2.55s1.07.97,1.78.97,1.31-.27,1.73-.81.63-1.25.63-2.12-.21-1.59-.64-2.13-.99-.81-1.69-.81Z"/><path class="cls-11" d="m1012.62,375.13l.93.63c-.54.74-.83,1.55-.84,2.41v1.2h-1.62v-1.02c0-.6.14-1.19.43-1.78s.65-1.07,1.1-1.44Zm2.77,0l.93.63c-.54.74-.83,1.55-.84,2.41v1.2h-1.62v-1.02c0-.6.14-1.19.43-1.78s.65-1.07,1.1-1.44Z"/></g><g><path class="cls-11" d="m996.15,418.33l.93.63c-.54.74-.83,1.55-.84,2.41v1.2h-1.62v-1.02c0-.6.14-1.19.43-1.78s.65-1.07,1.1-1.44Zm2.77,0l.93.63c-.54.74-.83,1.55-.84,2.41v1.2h-1.62v-1.02c0-.6.14-1.19.43-1.78s.65-1.07,1.1-1.44Z"/><path class="cls-11" d="m1009.39,420.12l-5.3,11.88h-1.71l5.28-11.46h-6.93v-1.34h8.65v.91Z"/><path class="cls-11" d="m1012.62,418.33l.93.63c-.54.74-.83,1.55-.84,2.41v1.2h-1.62v-1.02c0-.6.14-1.19.43-1.78s.65-1.07,1.1-1.44Zm2.77,0l.93.63c-.54.74-.83,1.55-.84,2.41v1.2h-1.62v-1.02c0-.6.14-1.19.43-1.78s.65-1.07,1.1-1.44Z"/></g><g><path class="cls-11" d="m1051.2,330.7v1.69h-12.8v-1.69h12.8Z"/><path class="cls-11" d="m1041.69,326.33l1.2-.05c-.91-.73-1.37-1.68-1.37-2.85,0-2.01,1.13-3.02,3.4-3.04h6.28v1.62h-6.29c-.69,0-1.19.16-1.52.47s-.49.79-.49,1.44c0,.53.14.99.42,1.39s.65.71,1.11.93h6.78v1.62h-9.51v-1.54Z"/><path class="cls-11" d="m1046.55,309.9c1.45,0,2.61.33,3.5.99s1.33,1.56,1.33,2.69-.37,2.06-1.1,2.72h4.58v1.62h-13.17v-1.48l1.05-.08c-.82-.66-1.23-1.58-1.23-2.76s.43-2.05,1.29-2.71,2.06-1,3.59-1h.15Zm-.18,1.63c-1.07,0-1.92.23-2.54.69s-.93,1.08-.93,1.88c0,.98.44,1.72,1.31,2.21h4.54c.87-.49,1.3-1.23,1.3-2.23,0-.78-.31-1.4-.93-1.86s-1.54-.69-2.76-.69Z"/><path class="cls-11" d="m1050.26,301.97c.74.63,1.12,1.56,1.12,2.79,0,1.01-.29,1.79-.88,2.32s-1.46.8-2.62.8h-6.19v-1.63h6.14c1.44,0,2.16-.59,2.16-1.76,0-1.24-.46-2.07-1.39-2.48h-6.92v-1.62h9.51v1.55l-.94.04Z"/><path class="cls-11" d="m1039.39,295.71h2.3v-1.78h1.26v1.78h5.91c.38,0,.67-.08.86-.24.19-.16.29-.43.29-.81,0-.19-.04-.45-.11-.77h1.31c.12.43.17.84.17,1.25,0,.73-.22,1.28-.66,1.64s-1.06.55-1.87.55h-5.9v1.73h-1.26v-1.73h-2.3v-1.62Z"/><path class="cls-11" d="m1048.68,286.5c-.44,0-.78.17-1.02.5s-.45.91-.63,1.73-.39,1.48-.63,1.96-.54.84-.88,1.07-.74.35-1.21.35c-.78,0-1.44-.33-1.98-.99s-.81-1.5-.81-2.53c0-1.08.28-1.95.83-2.62s1.27-1.01,2.14-1.01v1.63c-.45,0-.83.19-1.15.57s-.48.85-.48,1.43.13,1.05.39,1.39.59.5,1.01.5c.39,0,.69-.15.89-.46s.39-.87.57-1.68.4-1.47.65-1.97.56-.88.91-1.12.79-.37,1.3-.37c.85,0,1.53.34,2.04,1.02s.77,1.56.77,2.65c0,.76-.13,1.44-.4,2.02s-.65,1.04-1.13,1.38-1.01.5-1.57.5v-1.62c.54-.03.98-.25,1.3-.66s.48-.94.48-1.61c0-.62-.12-1.11-.37-1.48s-.58-.56-1-.56Z"/><path class="cls-11" d="m1052.3,282.43v1.4l-13.9-5.34v-1.39l13.9,5.33Z"/><path class="cls-11" d="m1045.21,265.24c1.25,0,2.35.21,3.28.63s1.65,1.02,2.14,1.79.74,1.68.74,2.71-.25,1.9-.74,2.68-1.2,1.38-2.12,1.81-1.98.65-3.19.66h-.92c-1.23,0-2.32-.21-3.26-.64s-1.67-1.03-2.17-1.81-.75-1.68-.75-2.69.25-1.93.74-2.71,1.21-1.38,2.15-1.81,2.03-.63,3.28-.63h.81Zm-.83,1.68c-1.52,0-2.68.3-3.49.91s-1.22,1.46-1.22,2.56.41,1.91,1.22,2.52,1.94.93,3.38.94h.94c1.47,0,2.63-.31,3.47-.93s1.26-1.47,1.26-2.55-.4-1.93-1.19-2.53-1.93-.9-3.42-.92h-.95Z"/><path class="cls-11" d="m1050.26,257.09c.74.63,1.12,1.56,1.12,2.79,0,1.01-.29,1.79-.88,2.32s-1.46.8-2.62.8h-6.19v-1.63h6.14c1.44,0,2.16-.59,2.16-1.76,0-1.24-.46-2.07-1.39-2.48h-6.92v-1.63h9.51v1.55l-.94.04Z"/><path class="cls-11" d="m1039.39,250.83h2.3v-1.78h1.26v1.78h5.91c.38,0,.67-.08.86-.24.19-.16.29-.43.29-.81,0-.19-.04-.45-.11-.77h1.31c.12.43.17.84.17,1.25,0,.73-.22,1.27-.66,1.64s-1.06.55-1.87.55h-5.9v1.73h-1.26v-1.73h-2.3v-1.63Z"/><path class="cls-11" d="m1046.55,239.12c1.45,0,2.61.33,3.5.99s1.33,1.56,1.33,2.69-.37,2.06-1.1,2.72h4.58v1.63h-13.17v-1.49l1.05-.08c-.82-.66-1.23-1.58-1.23-2.76s.43-2.05,1.29-2.71,2.06-1,3.59-1h.15Zm-.18,1.63c-1.07,0-1.92.23-2.54.69s-.93,1.08-.93,1.88c0,.98.44,1.72,1.31,2.21h4.54c.87-.49,1.3-1.23,1.3-2.23,0-.78-.31-1.4-.93-1.86s-1.54-.69-2.76-.69Z"/><path class="cls-11" d="m1050.26,231.19c.74.63,1.12,1.56,1.12,2.79,0,1.01-.29,1.79-.88,2.32s-1.46.8-2.62.8h-6.19v-1.63h6.14c1.44,0,2.16-.59,2.16-1.76,0-1.24-.46-2.07-1.39-2.48h-6.92v-1.63h9.51v1.55l-.94.04Z"/><path class="cls-11" d="m1039.39,224.93h2.3v-1.78h1.26v1.78h5.91c.38,0,.67-.08.86-.24.19-.16.29-.43.29-.81,0-.19-.04-.45-.11-.77h1.31c.12.43.17.84.17,1.25,0,.73-.22,1.27-.66,1.64s-1.06.55-1.87.55h-5.9v1.73h-1.26v-1.73h-2.3v-1.63Z"/><path class="cls-11" d="m1048.68,215.72c-.44,0-.78.17-1.02.5s-.45.91-.63,1.73-.39,1.48-.63,1.96-.54.84-.88,1.07-.74.35-1.21.35c-.78,0-1.44-.33-1.98-.99s-.81-1.5-.81-2.53c0-1.08.28-1.95.83-2.62s1.27-1.01,2.14-1.01v1.63c-.45,0-.83.19-1.15.57s-.48.85-.48,1.43.13,1.05.39,1.39.59.5,1.01.5c.39,0,.69-.16.89-.47s.39-.87.57-1.68.4-1.47.65-1.97.56-.88.91-1.12.79-.36,1.3-.36c.85,0,1.53.34,2.04,1.02s.77,1.56.77,2.65c0,.76-.13,1.44-.4,2.02s-.65,1.04-1.13,1.38-1.01.5-1.57.5v-1.63c.54-.03.98-.25,1.3-.65s.48-.94.48-1.61c0-.62-.12-1.11-.37-1.48s-.58-.56-1-.56Z"/></g><g><path class="cls-11" d="m118.04,436.22l3.66-10.56h1.85l-4.75,12.8h-1.49l-4.74-12.8h1.84l3.64,10.56Z"/><path class="cls-11" d="m129.58,434.52h-3.7v3.02h4.29v.92h-5.42v-8.53h5.36v.92h-4.24v2.75h3.7v.92Z"/><path class="cls-11" d="m136.4,434.52h-3.7v3.02h4.29v.92h-5.42v-8.53h5.36v.92h-4.24v2.75h3.7v.92Z"/></g><path class="cls-11" d="m590.92,260.65h1.22c.77-.01,1.37-.21,1.81-.61s.66-.92.66-1.59c0-1.5-.75-2.25-2.24-2.25-.7,0-1.26.2-1.68.6s-.63.93-.63,1.6h-1.63c0-1.01.37-1.86,1.11-2.53s1.68-1.01,2.83-1.01c1.21,0,2.15.32,2.84.96s1.03,1.53,1.03,2.66c0,.56-.18,1.1-.54,1.62s-.85.91-1.47,1.17c.7.22,1.25.59,1.63,1.11s.58,1.15.58,1.89c0,1.15-.38,2.06-1.12,2.73s-1.73,1.01-2.93,1.01-2.18-.32-2.93-.97-1.13-1.51-1.13-2.58h1.63c0,.67.22,1.21.66,1.62s1.03.61,1.77.61c.79,0,1.39-.21,1.8-.62s.62-1,.62-1.77-.23-1.31-.69-1.71-1.12-.6-1.98-.62h-1.22v-1.33Z"/><g><path class="cls-11" d="m513.46,265.76c-.16,1.35-.66,2.4-1.5,3.13s-1.96,1.1-3.35,1.1c-1.51,0-2.72-.54-3.63-1.63s-1.37-2.53-1.37-4.35v-1.23c0-1.19.21-2.24.64-3.14s1.03-1.59,1.81-2.08,1.68-.73,2.71-.73c1.36,0,2.45.38,3.27,1.14s1.3,1.81,1.43,3.15h-1.7c-.15-1.02-.46-1.76-.95-2.22-.49-.46-1.17-.69-2.05-.69-1.08,0-1.92.4-2.54,1.2-.61.8-.92,1.93-.92,3.4v1.24c0,1.39.29,2.5.87,3.32.58.82,1.39,1.23,2.43,1.23.94,0,1.66-.21,2.16-.64s.83-1.17,1-2.22h1.7Z"/><path class="cls-11" d="m525.61,263.84c0,1.25-.21,2.35-.63,3.28s-1.02,1.65-1.79,2.14-1.68.74-2.71.74-1.9-.25-2.68-.74-1.38-1.2-1.82-2.12-.65-1.98-.66-3.19v-.92c0-1.23.21-2.32.64-3.26.43-.94,1.03-1.67,1.81-2.17s1.68-.75,2.69-.75,1.93.25,2.71.74,1.38,1.21,1.81,2.15.63,2.03.63,3.28v.81Zm-1.68-.83c0-1.52-.3-2.68-.91-3.49s-1.46-1.22-2.56-1.22-1.91.41-2.52,1.22-.93,1.94-.94,3.38v.94c0,1.47.31,2.63.93,3.47s1.47,1.26,2.55,1.26,1.93-.4,2.53-1.19.91-1.93.92-3.42v-.95Z"/><path class="cls-11" d="m530.32,257.02l4.18,10.44,4.18-10.44h2.19v12.8h-1.69v-4.98l.16-5.38-4.2,10.36h-1.29l-4.19-10.34.17,5.35v4.98h-1.69v-12.8h2.18Z"/></g><path class="cls-11" d="m594.94,427.83v1.38h-.3c-1.27.02-2.27.4-3.02,1.12s-1.18,1.75-1.3,3.07c.67-.77,1.59-1.16,2.76-1.16s2,.39,2.67,1.18,1,1.8,1,3.04c0,1.32-.36,2.37-1.08,3.16s-1.68,1.19-2.89,1.19-2.22-.47-2.98-1.41-1.14-2.15-1.14-3.63v-.62c0-2.36.5-4.16,1.51-5.4s2.5-1.88,4.49-1.91h.29Zm-2.14,5.77c-.56,0-1.07.17-1.54.5s-.79.75-.98,1.26v.6c0,1.05.24,1.9.71,2.55s1.07.97,1.78.97,1.31-.27,1.73-.81.63-1.25.63-2.12-.21-1.59-.64-2.13-.99-.81-1.69-.81Z"/><g><path class="cls-11" d="m507.78,442.62h-1.69v-12.8h1.69v12.8Z"/><path class="cls-11" d="m520.7,442.62h-1.7l-6.44-9.86v9.86h-1.7v-12.8h1.7l6.46,9.91v-9.91h1.68v12.8Z"/><path class="cls-11" d="m533.54,442.62h-1.7v-5.92h-6.45v5.92h-1.69v-12.8h1.69v5.5h6.45v-5.5h1.7v12.8Z"/></g><g><path class="cls-11" d="m678.14,91.26h-1.63v-10.84l-3.28,1.2v-1.48l4.66-1.75h.25v12.86Z"/><path class="cls-11" d="m689.28,78.45v1.38h-.3c-1.27.02-2.27.4-3.02,1.12s-1.18,1.75-1.3,3.07c.67-.77,1.59-1.16,2.76-1.16s2,.39,2.67,1.18,1,1.8,1,3.04c0,1.32-.36,2.37-1.08,3.16s-1.68,1.19-2.89,1.19-2.22-.47-2.98-1.41-1.14-2.15-1.14-3.63v-.62c0-2.36.5-4.16,1.51-5.4,1-1.25,2.5-1.88,4.49-1.91h.29Zm-2.14,5.77c-.56,0-1.07.17-1.54.5s-.79.75-.98,1.26v.6c0,1.05.24,1.9.71,2.55s1.07.97,1.78.97,1.31-.27,1.73-.81.63-1.25.63-2.12-.21-1.59-.64-2.13-.99-.81-1.69-.81Z"/></g><path class="cls-11" d="m808.46,290.88h-1.63v-10.84l-3.28,1.2v-1.48l4.66-1.75h.25v12.86Z"/><g><path class="cls-13" d="m697.86,560.8l3.66-10.56h1.85l-4.75,12.8h-1.49l-4.74-12.8h1.84l3.64,10.56Z"/><path class="cls-13" d="m707.09,559.24c-.96-.28-1.67-.62-2.11-1.02s-.66-.9-.66-1.5c0-.67.27-1.23.81-1.67s1.24-.66,2.09-.66c.59,0,1.11.11,1.57.34s.81.54,1.07.94.38.83.38,1.31h-1.13c0-.52-.16-.92-.49-1.22s-.79-.44-1.39-.44c-.55,0-.99.12-1.3.37-.31.24-.47.58-.47,1.02,0,.35.15.64.44.88s.8.46,1.51.66c.71.2,1.26.42,1.66.66s.7.52.89.84.29.7.29,1.13c0,.69-.27,1.25-.81,1.66s-1.26.62-2.16.62c-.59,0-1.13-.11-1.64-.34s-.9-.53-1.17-.92-.41-.83-.41-1.33h1.13c0,.52.19.92.57,1.22s.89.45,1.53.45c.59,0,1.05-.12,1.37-.36s.47-.57.47-.99-.15-.74-.44-.97-.82-.45-1.59-.68Z"/><path class="cls-13" d="m714.21,559.24c-.96-.28-1.67-.62-2.11-1.02s-.66-.9-.66-1.5c0-.67.27-1.23.81-1.67s1.24-.66,2.09-.66c.59,0,1.11.11,1.57.34s.81.54,1.07.94.38.83.38,1.31h-1.13c0-.52-.16-.92-.49-1.22s-.79-.44-1.39-.44c-.55,0-.99.12-1.3.37-.31.24-.47.58-.47,1.02,0,.35.15.64.44.88s.8.46,1.51.66c.71.2,1.26.42,1.66.66s.7.52.89.84.29.7.29,1.13c0,.69-.27,1.25-.81,1.66s-1.26.62-2.16.62c-.59,0-1.13-.11-1.64-.34s-.9-.53-1.17-.92-.41-.83-.41-1.33h1.13c0,.52.19.92.57,1.22s.89.45,1.53.45c.59,0,1.05-.12,1.37-.36s.47-.57.47-.99-.15-.74-.44-.97-.82-.45-1.59-.68Z"/></g><path class="cls-13" d="m666.99,508.04c0,.64-.17,1.21-.5,1.71s-.79.89-1.37,1.17c.67.29,1.2.71,1.59,1.26s.58,1.17.58,1.87c0,1.11-.37,1.99-1.12,2.65s-1.73.98-2.95.98-2.22-.33-2.96-.99-1.11-1.54-1.11-2.64c0-.69.19-1.32.57-1.87s.9-.98,1.57-1.27c-.57-.28-1.02-.67-1.34-1.17s-.49-1.06-.49-1.7c0-1.08.35-1.93,1.04-2.57s1.6-.95,2.73-.95,2.04.32,2.73.95,1.04,1.49,1.04,2.57Zm-1.33,5.97c0-.71-.23-1.3-.68-1.75s-1.05-.68-1.78-.68-1.32.22-1.76.67-.66,1.03-.66,1.76.22,1.3.65,1.71,1.03.62,1.8.62,1.36-.21,1.79-.63.65-.99.65-1.71Zm-2.44-8.15c-.64,0-1.16.2-1.55.59s-.59.93-.59,1.61.2,1.18.58,1.58.91.6,1.56.6,1.17-.2,1.56-.6.58-.93.58-1.58-.2-1.18-.61-1.59-.92-.62-1.54-.62Z"/><g><path class="cls-13" d="m745.68,560.8l3.66-10.56h1.85l-4.75,12.8h-1.49l-4.74-12.8h1.84l3.64,10.56Z"/><path class="cls-13" d="m757.22,559.1h-3.7v3.02h4.29v.92h-5.42v-8.53h5.36v.92h-4.24v2.75h3.7v.92Z"/><path class="cls-13" d="m764.04,559.1h-3.7v3.02h4.29v.92h-5.42v-8.53h5.36v.92h-4.24v2.75h3.7v.92Z"/></g><path class="cls-13" d="m730.85,505.62l-5.3,11.88h-1.71l5.28-11.46h-6.93v-1.34h8.65v.91Z"/></g><g id="Line"><line class="cls-2" x1="97.92" y1="43.2" x2="198.72" y2="43.2"/><line class="cls-2" x1="227.52" y1="43.2" x2="328.32" y2="43.2"/><path class="cls-2" d="m227.52,43.2c0,7.95-6.45,14.4-14.4,14.4s-14.4-6.45-14.4-14.4"/><rect class="cls-9" x="69.12" y="72" width="28.8" height="28.8"/><rect class="cls-9" x="69.12" y="129.6" width="28.8" height="28.8"/><rect class="cls-9" x="69.12" y="187.2" width="28.8" height="28.8"/><line class="cls-2" x1="97.92" y1="43.2" x2="97.92" y2="534.24"/><line class="cls-2" x1="97.92" y1="532.8" x2="328.32" y2="532.8"/><line class="cls-2" x1="328.32" y1="43.2" x2="328.32" y2="532.8"/><rect class="cls-9" x="69.12" y="244.8" width="28.8" height="28.8"/><rect class="cls-9" x="69.12" y="302.4" width="28.8" height="28.8"/><rect class="cls-9" x="69.12" y="360" width="28.8" height="28.8"/><rect class="cls-9" x="69.12" y="417.6" width="28.8" height="28.8"/><rect class="cls-9" x="328.32" y="187.2" width="28.8" height="28.8"/><rect class="cls-9" x="328.32" y="244.8" width="28.8" height="28.8"/><rect class="cls-9" x="328.32" y="302.4" width="28.8" height="28.8"/><rect class="cls-9" x="328.32" y="360" width="28.8" height="28.8"/><rect class="cls-9" x="328.32" y="417.6" width="28.8" height="28.8"/><rect class="cls-9" x="328.32" y="475.2" width="28.8" height="28.8"/><rect class="cls-9" x="69.12" y="475.2" width="28.8" height="28.8"/><rect class="cls-9" x="328.32" y="72" width="28.8" height="28.8"/><rect class="cls-9" x="328.32" y="129.6" width="28.8" height="28.8"/><rect class="cls-8" x="610.56" y="95.04" width="172.8" height="403.2"/><g><line class="cls-5" x1="784.66" y1="123.84" x2="988.55" y2="123.84"/><polygon class="cls-11" points="788.64 128.75 789.46 127.87 785.12 123.84 789.46 119.81 788.64 118.93 783.36 123.84 788.64 128.75"/><polygon class="cls-11" points="981.92 132.02 980.55 130.56 987.78 123.84 980.55 117.12 981.92 115.66 990.72 123.84 981.92 132.02"/></g><g><line class="cls-5" x1="784.66" y1="167.04" x2="988.55" y2="167.04"/><polygon class="cls-11" points="788.64 171.95 789.46 171.07 785.12 167.04 789.46 163.01 788.64 162.13 783.36 167.04 788.64 171.95"/><polygon class="cls-11" points="981.92 175.22 980.55 173.76 987.78 167.04 980.55 160.32 981.92 158.86 990.72 167.04 981.92 175.22"/></g><g><line class="cls-5" x1="784.66" y1="210.24" x2="988.55" y2="210.24"/><polygon class="cls-11" points="788.64 215.15 789.46 214.27 785.12 210.24 789.46 206.21 788.64 205.33 783.36 210.24 788.64 215.15"/><polygon class="cls-11" points="981.92 218.42 980.55 216.96 987.78 210.24 980.55 203.52 981.92 202.06 990.72 210.24 981.92 218.42"/></g><g><line class="cls-5" x1="784.66" y1="253.44" x2="988.55" y2="253.44"/><polygon class="cls-11" points="788.64 258.35 789.46 257.47 785.12 253.44 789.46 249.41 788.64 248.53 783.36 253.44 788.64 258.35"/><polygon class="cls-11" points="981.92 261.62 980.55 260.16 987.78 253.44 980.55 246.72 981.92 245.26 990.72 253.44 981.92 261.62"/></g><g><line class="cls-5" x1="784.66" y1="296.64" x2="988.55" y2="296.64"/><polygon class="cls-11" points="788.64 301.55 789.46 300.67 785.12 296.64 789.46 292.61 788.64 291.73 783.36 296.64 788.64 301.55"/><polygon class="cls-11" points="981.92 304.82 980.55 303.36 987.78 296.64 980.55 289.92 981.92 288.46 990.72 296.64 981.92 304.82"/></g><g><line class="cls-5" x1="784.66" y1="339.84" x2="988.55" y2="339.84"/><polygon class="cls-11" points="788.64 344.75 789.46 343.87 785.12 339.84 789.46 335.81 788.64 334.93 783.36 339.84 788.64 344.75"/><polygon class="cls-11" points="981.92 348.02 980.55 346.56 987.78 339.84 980.55 333.12 981.92 331.66 990.72 339.84 981.92 348.02"/></g><g><line class="cls-5" x1="784.66" y1="383.04" x2="988.55" y2="383.04"/><polygon class="cls-11" points="788.64 387.95 789.46 387.07 785.12 383.04 789.46 379.01 788.64 378.13 783.36 383.04 788.64 387.95"/><polygon class="cls-11" points="981.92 391.22 980.55 389.76 987.78 383.04 980.55 376.32 981.92 374.86 990.72 383.04 981.92 391.22"/></g><g><line class="cls-5" x1="784.66" y1="426.24" x2="988.55" y2="426.24"/><polygon class="cls-11" points="788.64 431.15 789.46 430.27 785.12 426.24 789.46 422.21 788.64 421.33 783.36 426.24 788.64 431.15"/><polygon class="cls-11" points="981.92 434.42 980.55 432.96 987.78 426.24 980.55 419.52 981.92 418.06 990.72 426.24 981.92 434.42"/></g><g><line class="cls-4" x1="462.24" y1="123.84" x2="608.39" y2="123.84"/><polygon class="cls-12" points="601.76 132.02 600.39 130.56 607.62 123.84 600.39 117.12 601.76 115.66 610.56 123.84 601.76 132.02"/></g><g><line class="cls-4" x1="462.24" y1="167.04" x2="608.39" y2="167.04"/><polygon class="cls-12" points="601.76 175.22 600.39 173.76 607.62 167.04 600.39 160.32 601.76 158.86 610.56 167.04 601.76 175.22"/></g><g><line class="cls-4" x1="462.24" y1="210.24" x2="608.39" y2="210.24"/><polygon class="cls-12" points="601.76 218.42 600.39 216.96 607.62 210.24 600.39 203.52 601.76 202.06 610.56 210.24 601.76 218.42"/></g><g><line class="cls-8" x1="696.96" y1="95.04" x2="696.96" y2="54.56"/><polygon class="cls-11" points="706.5 72.29 703.68 73.32 696.96 54.85 690.24 73.32 687.42 72.29 696.96 46.08 706.5 72.29"/></g><g><line class="cls-4" x1="463.54" y1="273.6" x2="608.39" y2="273.6"/><polygon class="cls-12" points="467.52 278.51 468.34 277.63 464 273.6 468.34 269.57 467.52 268.69 462.24 273.6 467.52 278.51"/><polygon class="cls-12" points="601.76 281.78 600.39 280.32 607.62 273.6 600.39 266.88 601.76 265.42 610.56 273.6 601.76 281.78"/></g><g><line class="cls-4" x1="462.73" y1="446.4" x2="608.88" y2="446.4"/><polygon class="cls-12" points="602.25 454.58 600.88 453.12 608.11 446.4 600.88 439.68 602.25 438.22 611.05 446.4 602.25 454.58"/></g><g><path class="cls-9" d="m680.76,237.96c.47.47.94.95,1.39,1.44"/><path class="cls-1" d="m684.72,242.41c14.81,18.76,14.39,45.61-1.25,63.91"/><path class="cls-9" d="m682.14,307.8c-.45.49-.91.97-1.39,1.44"/></g><line class="cls-9" x1="708.48" y1="344.16" x2="783.36" y2="426.24"/><line class="cls-9" x1="783.36" y1="383.04" x2="720" y2="332.64"/><line class="cls-9" x1="783.36" y1="339.84" x2="730.08" y2="315.36"/><line class="cls-9" x1="783.36" y1="296.64" x2="738.72" y2="289.44"/><line class="cls-9" x1="783.36" y1="253.44" x2="738.72" y2="260.64"/><line class="cls-9" x1="783.36" y1="210.24" x2="731.52" y2="234.72"/><line class="cls-9" x1="783.36" y1="167.04" x2="720" y2="216"/><line class="cls-9" x1="783.36" y1="123.84" x2="709.92" y2="204.48"/><g><line class="cls-9" x1="696.51" y1="344.16" x2="708.48" y2="344.16"/><g><circle class="cls-10" cx="696.64" cy="344.16" r="2.26"/><path class="cls-11" d="m696.64,346.72c1.41,0,2.56-1.15,2.56-2.56s-1.15-2.56-2.56-2.56-2.56,1.15-2.56,2.56,1.15,2.56,2.56,2.56-1.41,0,0,0Zm0-4.51c1.08,0,1.96.88,1.96,1.96s-.88,1.96-1.96,1.96-1.96-.88-1.96-1.96.88-1.96,1.96-1.96-1.08,0,0,0Z"/></g></g><g><line class="cls-9" x1="708.03" y1="332.64" x2="720" y2="332.64"/><g><path class="cls-10" d="m708.16,334.9c-1.25,0-2.26-1.01-2.26-2.26s1.01-2.26,2.26-2.26,2.26,1.01,2.26,2.26-1.01,2.26-2.26,2.26Z"/><path class="cls-11" d="m708.16,335.2c1.41,0,2.56-1.15,2.56-2.56s-1.15-2.56-2.56-2.56-2.56,1.15-2.56,2.56,1.15,2.56,2.56,2.56-1.41,0,0,0Zm0-4.51c1.08,0,1.96.88,1.96,1.96s-.88,1.96-1.96,1.96-1.96-.88-1.96-1.96.88-1.96,1.96-1.96-1.08,0,0,0Z"/></g></g><g><line class="cls-9" x1="719.55" y1="315.36" x2="731.52" y2="315.36"/><g><path class="cls-10" d="m719.68,317.62c-1.25,0-2.26-1.01-2.26-2.26s1.01-2.26,2.26-2.26,2.26,1.01,2.26,2.26-1.01,2.26-2.26,2.26Z"/><path class="cls-11" d="m719.68,317.92c1.41,0,2.56-1.15,2.56-2.56s-1.15-2.56-2.56-2.56-2.56,1.15-2.56,2.56,1.15,2.56,2.56,2.56-1.41,0,0,0Zm0-4.51c1.08,0,1.96.88,1.96,1.96s-.88,1.96-1.96,1.96-1.96-.88-1.96-1.96.88-1.96,1.96-1.96-1.08,0,0,0Z"/></g></g><g><line class="cls-9" x1="726.75" y1="289.44" x2="738.72" y2="289.44"/><g><circle class="cls-10" cx="726.88" cy="289.44" r="2.26"/><path class="cls-11" d="m726.88,292c1.41,0,2.56-1.15,2.56-2.56s-1.15-2.56-2.56-2.56-2.56,1.15-2.56,2.56,1.15,2.56,2.56,2.56-1.41,0,0,0Zm0-4.51c1.08,0,1.96.88,1.96,1.96s-.88,1.96-1.96,1.96-1.96-.88-1.96-1.96.88-1.96,1.96-1.96-1.08,0,0,0Z"/></g></g><g><line class="cls-9" x1="726.75" y1="260.64" x2="738.72" y2="260.64"/><g><circle class="cls-10" cx="726.88" cy="260.64" r="2.26"/><path class="cls-11" d="m726.88,263.2c1.41,0,2.56-1.15,2.56-2.56s-1.15-2.56-2.56-2.56-2.56,1.15-2.56,2.56,1.15,2.56,2.56,2.56-1.41,0,0,0Zm0-4.51c1.08,0,1.96.88,1.96,1.96s-.88,1.96-1.96,1.96-1.96-.88-1.96-1.96.88-1.96,1.96-1.96-1.08,0,0,0Z"/></g></g><g><line class="cls-9" x1="719.55" y1="234.72" x2="731.52" y2="234.72"/><g><path class="cls-10" d="m719.68,236.98c-1.25,0-2.26-1.01-2.26-2.26s1.01-2.26,2.26-2.26,2.26,1.01,2.26,2.26-1.01,2.26-2.26,2.26Z"/><path class="cls-11" d="m719.68,237.28c1.41,0,2.56-1.15,2.56-2.56s-1.15-2.56-2.56-2.56-2.56,1.15-2.56,2.56,1.15,2.56,2.56,2.56-1.41,0,0,0Zm0-4.51c1.08,0,1.96.88,1.96,1.96s-.88,1.96-1.96,1.96-1.96-.88-1.96-1.96.88-1.96,1.96-1.96-1.08,0,0,0Z"/></g></g><g><line class="cls-9" x1="708.03" y1="216" x2="720" y2="216"/><g><path class="cls-10" d="m708.16,218.26c-1.25,0-2.26-1.01-2.26-2.26s1.01-2.26,2.26-2.26,2.26,1.01,2.26,2.26-1.01,2.26-2.26,2.26Z"/><path class="cls-11" d="m708.16,218.56c1.41,0,2.56-1.15,2.56-2.56s-1.15-2.56-2.56-2.56-2.56,1.15-2.56,2.56,1.15,2.56,2.56,2.56-1.41,0,0,0Zm0-4.51c1.08,0,1.96.88,1.96,1.96s-.88,1.96-1.96,1.96-1.96-.88-1.96-1.96.88-1.96,1.96-1.96-1.08,0,0,0Z"/></g></g><g><line class="cls-9" x1="697.95" y1="204.48" x2="709.92" y2="204.48"/><g><circle class="cls-10" cx="698.08" cy="204.48" r="2.26"/><path class="cls-11" d="m698.08,207.04c1.41,0,2.56-1.15,2.56-2.56s-1.15-2.56-2.56-2.56-2.56,1.15-2.56,2.56,1.15,2.56,2.56,2.56-1.41,0,0,0Zm0-4.51c1.08,0,1.96.88,1.96,1.96s-.88,1.96-1.96,1.96-1.96-.88-1.96-1.96.88-1.96,1.96-1.96-1.08,0,0,0Z"/></g></g><line class="cls-9" x1="610.56" y1="273.6" x2="616.32" y2="273.6"/><g><line class="cls-9" x1="640.35" y1="273.6" x2="645.12" y2="273.6"/><g><circle class="cls-10" cx="640.48" cy="273.6" r="2.26"/><path class="cls-11" d="m640.48,276.16c1.41,0,2.56-1.15,2.56-2.56s-1.15-2.56-2.56-2.56-2.56,1.15-2.56,2.56,1.15,2.56,2.56,2.56-1.41,0,0,0Zm0-4.51c1.08,0,1.96.88,1.96,1.96s-.88,1.96-1.96,1.96-1.96-.88-1.96-1.96.88-1.96,1.96-1.96-1.08,0,0,0Z"/></g></g><line class="cls-9" x1="695.52" y1="204.48" x2="645.12" y2="273.6"/><line class="cls-9" x1="639.36" y1="276.48" x2="616.32" y2="273.6"/><g><line class="cls-9" x1="626.4" y1="276.48" x2="626.4" y2="279.48"/><line class="cls-3" x1="626.4" y1="285.55" x2="626.4" y2="440.36"/><line class="cls-9" x1="626.4" y1="443.4" x2="626.4" y2="446.4"/></g><line class="cls-8" x1="610.56" y1="446.4" x2="626.4" y2="446.4"/><line class="cls-7" x1="673.92" y1="498.24" x2="673.92" y2="541.44"/><polygon class="cls-6" points="673.92 541.38 688.32 541.38 681.12 550.05 673.92 558.72 666.72 550.05 659.52 541.38 673.92 541.38"/><line class="cls-7" x1="737.28" y1="498.24" x2="737.28" y2="540"/></g><g id="Field"><circle class="cls-11" cx="616.32" cy="273.6" r="2.88"/></g></svg>