<?xml version="1.0" encoding="UTF-8"?><svg xmlns="http://www.w3.org/2000/svg" viewBox="0 0 1080 600.48"><defs><style>.cls-1{stroke-width:3px;}.cls-1,.cls-2,.cls-3,.cls-4{fill:none;stroke:#1d1e1b;stroke-miterlimit:10;}.cls-5,.cls-6,.cls-7,.cls-8{fill:#1d1e1b;}.cls-5,.cls-7,.cls-8{font-family:Roboto-Regular, Roboto;}.cls-2{stroke-width:2px;}.cls-3{stroke-width:2px;}.cls-9,.cls-7{font-size:18px;}.cls-10,.cls-11{font-size:12px;}.cls-11{letter-spacing:-.02em;}.cls-8{font-size:14px;}</style></defs><g id="Field"><rect class="cls-6" x="424.8" y="444.96" width="60.48" height="7.2"/><circle class="cls-6" cx="954.72" cy="257.76" r="4.32"/><rect class="cls-6" x="424.8" y="433.44" width="60.48" height="7.2"/><circle class="cls-6" cx="732.96" cy="396" r="4.32"/><circle class="cls-6" cx="676.8" cy="228.96" r="4.32"/><circle class="cls-6" cx="455.04" cy="367.2" r="4.32"/><rect class="cls-6" x="702.72" y="444.96" width="60.48" height="7.2"/><rect class="cls-6" x="702.72" y="433.44" width="60.48" height="7.2"/></g><g id="Line"><line class="cls-1" x1="97.92" y1="86.4" x2="198.72" y2="86.4"/><line class="cls-1" x1="227.52" y1="86.4" x2="328.32" y2="86.4"/><path class="cls-1" d="M227.52,86.4c0,7.95-6.45,14.4-14.4,14.4s-14.4-6.45-14.4-14.4"/><rect class="cls-4" x="69.12" y="115.2" width="28.8" height="28.8"/><rect class="cls-4" x="69.12" y="172.8" width="28.8" height="28.8"/><rect class="cls-4" x="69.12" y="230.4" width="28.8" height="28.8"/><line class="cls-1" x1="97.92" y1="86.4" x2="97.92" y2="518.4"/><line class="cls-1" x1="97.92" y1="518.4" x2="328.32" y2="518.4"/><line class="cls-1" x1="328.32" y1="86.4" x2="328.32" y2="518.4"/><rect class="cls-4" x="69.12" y="288" width="28.8" height="28.8"/><rect class="cls-4" x="69.12" y="345.6" width="28.8" height="28.8"/><rect class="cls-4" x="69.12" y="403.2" width="28.8" height="28.8"/><rect class="cls-4" x="69.12" y="460.8" width="28.8" height="28.8"/><rect class="cls-4" x="328.32" y="115.2" width="28.8" height="28.8"/><rect class="cls-4" x="328.32" y="172.8" width="28.8" height="28.8"/><rect class="cls-4" x="328.32" y="230.4" width="28.8" height="28.8"/><rect class="cls-4" x="328.32" y="288" width="28.8" height="28.8"/><rect class="cls-4" x="328.32" y="345.6" width="28.8" height="28.8"/><rect class="cls-4" x="328.32" y="403.2" width="28.8" height="28.8"/><rect class="cls-4" x="328.32" y="460.8" width="28.8" height="28.8"/><g><line class="cls-4" x1="145.44" y1="174.24" x2="145.44" y2="158.4"/><line class="cls-4" x1="99.36" y1="244.8" x2="155.52" y2="244.8"/><line class="cls-4" x1="155.52" y1="218.88" x2="155.52" y2="244.8"/><g><line class="cls-4" x1="138.24" y1="195.84" x2="138.24" y2="174.24"/><line class="cls-4" x1="172.8" y1="195.84" x2="172.8" y2="174.24"/><line class="cls-4" x1="149.76" y1="182.88" x2="149.76" y2="192.96"/><line class="cls-4" x1="149.76" y1="187.2" x2="161.28" y2="190.08"/><line class="cls-4" x1="149.76" y1="192.96" x2="161.28" y2="195.84"/><line class="cls-4" x1="172.8" y1="174.24" x2="138.24" y2="174.24"/><circle class="cls-4" cx="155.52" cy="216" r="2.88"/><path class="cls-4" d="M172.8,195.84c0,9.54-7.74,17.28-17.28,17.28s-17.28-7.74-17.28-17.28"/><line class="cls-4" x1="161.28" y1="190.08" x2="161.28" y2="200.16"/></g><line class="cls-4" x1="165.6" y1="174.24" x2="165.6" y2="129.6"/><line class="cls-4" x1="99.36" y1="129.6" x2="165.6" y2="129.6"/><line class="cls-4" x1="97.92" y1="187.2" x2="118.08" y2="187.2"/><line class="cls-4" x1="118.08" y1="158.4" x2="118.08" y2="187.2"/><line class="cls-4" x1="145.44" y1="158.4" x2="118.08" y2="158.4"/></g><g><line class="cls-4" x1="145.44" y1="372.96" x2="145.44" y2="388.8"/><line class="cls-4" x1="99.36" y1="302.4" x2="155.52" y2="302.4"/><line class="cls-4" x1="155.52" y1="328.32" x2="155.52" y2="302.4"/><g><line class="cls-4" x1="138.24" y1="351.36" x2="138.24" y2="372.96"/><line class="cls-4" x1="172.8" y1="351.36" x2="172.8" y2="372.96"/><line class="cls-4" x1="149.76" y1="364.32" x2="149.76" y2="354.24"/><line class="cls-4" x1="149.76" y1="360" x2="161.28" y2="357.12"/><line class="cls-4" x1="149.76" y1="354.24" x2="161.28" y2="351.36"/><line class="cls-4" x1="172.8" y1="372.96" x2="138.24" y2="372.96"/><circle class="cls-4" cx="155.52" cy="331.2" r="2.88"/><path class="cls-4" d="M172.8,351.36c0-9.54-7.74-17.28-17.28-17.28s-17.28,7.74-17.28,17.28"/><line class="cls-4" x1="161.28" y1="357.12" x2="161.28" y2="347.04"/></g><line class="cls-4" x1="165.6" y1="372.96" x2="165.6" y2="417.6"/><line class="cls-4" x1="99.36" y1="417.6" x2="165.6" y2="417.6"/><line class="cls-4" x1="97.92" y1="360" x2="118.08" y2="360"/><line class="cls-4" x1="118.08" y1="388.8" x2="118.08" y2="360"/><line class="cls-4" x1="145.44" y1="388.8" x2="118.08" y2="388.8"/></g><g><line class="cls-4" x1="280.8" y1="231.84" x2="280.8" y2="216"/><line class="cls-4" x1="326.88" y1="302.4" x2="270.72" y2="302.4"/><line class="cls-4" x1="270.72" y1="276.48" x2="270.72" y2="302.4"/><g><line class="cls-4" x1="288" y1="253.44" x2="288" y2="231.84"/><line class="cls-4" x1="253.44" y1="253.44" x2="253.44" y2="231.84"/><line class="cls-4" x1="276.48" y1="240.48" x2="276.48" y2="250.56"/><line class="cls-4" x1="276.48" y1="244.8" x2="264.96" y2="247.68"/><line class="cls-4" x1="276.48" y1="250.56" x2="264.96" y2="253.44"/><line class="cls-4" x1="253.44" y1="231.84" x2="288" y2="231.84"/><circle class="cls-4" cx="270.72" cy="273.6" r="2.88"/><path class="cls-4" d="M253.44,253.44c0,9.54,7.74,17.28,17.28,17.28s17.28-7.74,17.28-17.28"/><line class="cls-4" x1="264.96" y1="247.68" x2="264.96" y2="257.76"/></g><line class="cls-4" x1="260.64" y1="231.84" x2="260.64" y2="187.2"/><line class="cls-4" x1="326.88" y1="187.2" x2="260.64" y2="187.2"/><line class="cls-4" x1="328.32" y1="244.8" x2="308.16" y2="244.8"/><line class="cls-4" x1="308.16" y1="216" x2="308.16" y2="244.8"/><line class="cls-4" x1="280.8" y1="216" x2="308.16" y2="216"/></g><g><line class="cls-4" x1="280.8" y1="430.56" x2="280.8" y2="446.4"/><line class="cls-4" x1="326.88" y1="360" x2="270.72" y2="360"/><line class="cls-4" x1="270.72" y1="385.92" x2="270.72" y2="360"/><g><line class="cls-4" x1="288" y1="408.96" x2="288" y2="430.56"/><line class="cls-4" x1="253.44" y1="408.96" x2="253.44" y2="430.56"/><line class="cls-4" x1="276.48" y1="421.92" x2="276.48" y2="411.84"/><line class="cls-4" x1="276.48" y1="417.6" x2="264.96" y2="414.72"/><line class="cls-4" x1="276.48" y1="411.84" x2="264.96" y2="408.96"/><line class="cls-4" x1="253.44" y1="430.56" x2="288" y2="430.56"/><circle class="cls-4" cx="270.72" cy="388.8" r="2.88"/><path class="cls-4" d="M253.44,408.96c0-9.54,7.74-17.28,17.28-17.28s17.28,7.74,17.28,17.28"/><line class="cls-4" x1="264.96" y1="414.72" x2="264.96" y2="404.64"/></g><line class="cls-4" x1="260.64" y1="430.56" x2="260.64" y2="475.2"/><line class="cls-4" x1="326.88" y1="475.2" x2="260.64" y2="475.2"/><line class="cls-4" x1="328.32" y1="417.6" x2="308.16" y2="417.6"/><line class="cls-4" x1="308.16" y1="446.4" x2="308.16" y2="417.6"/><line class="cls-4" x1="280.8" y1="446.4" x2="308.16" y2="446.4"/></g><line class="cls-4" x1="191.52" y1="54.72" x2="165.6" y2="54.72"/><line class="cls-4" x1="236.16" y1="44.64" x2="262.08" y2="44.64"/><g><line class="cls-4" x1="213.12" y1="61.92" x2="191.52" y2="61.92"/><line class="cls-4" x1="213.12" y1="27.36" x2="191.52" y2="27.36"/><line class="cls-4" x1="200.16" y1="50.4" x2="210.24" y2="50.4"/><line class="cls-4" x1="204.48" y1="50.4" x2="207.36" y2="38.88"/><line class="cls-4" x1="210.24" y1="50.4" x2="213.12" y2="38.88"/><line class="cls-4" x1="191.52" y1="27.36" x2="191.52" y2="61.92"/><circle class="cls-4" cx="233.28" cy="44.64" r="2.88"/><path class="cls-4" d="M213.12,27.36c9.54,0,17.28,7.74,17.28,17.28s-7.74,17.28-17.28,17.28"/><line class="cls-4" x1="207.36" y1="38.88" x2="217.44" y2="38.88"/></g><line class="cls-4" x1="191.52" y1="34.56" x2="165.6" y2="34.56"/><line class="cls-3" x1="511.2" y1="178.56" x2="511.2" y2="272.16"/><line class="cls-3" x1="554.4" y1="250.56" x2="558.72" y2="207.36"/><line class="cls-3" x1="540" y1="250.56" x2="573.12" y2="250.56"/><line class="cls-3" x1="573.12" y1="250.56" x2="577.44" y2="207.36"/><circle class="cls-3" cx="646.56" cy="228.96" r="8.64"/><line class="cls-3" x1="511.2" y1="243.36" x2="455.04" y2="243.36"/><line class="cls-3" x1="455.04" y1="436.32" x2="455.04" y2="243.36"/><line class="cls-3" x1="455.04" y1="447.84" x2="455.04" y2="515.52"/><line class="cls-3" x1="455.04" y1="367.2" x2="541.44" y2="367.2"/><line class="cls-3" x1="612" y1="367.2" x2="676.8" y2="367.2"/><line class="cls-3" x1="676.8" y1="367.2" x2="676.8" y2="228.96"/><line class="cls-3" x1="655.2" y1="228.96" x2="696.96" y2="228.96"/><g><line class="cls-3" x1="936" y1="257.76" x2="1033.19" y2="257.76"/><path class="cls-6" d="M1012.69,272.16c-.45-.7-.24-1.63,.46-2.07l19.36-12.33-19.36-12.33c-.7-.45-.91-1.37-.46-2.07,.45-.7,1.38-.9,2.07-.46l21.34,13.59c.43,.28,.69,.75,.69,1.27s-.26,.99-.69,1.27l-21.34,13.59c-.25,.16-.53,.23-.81,.23-.5,0-.98-.25-1.27-.69Z"/></g><rect class="cls-3" x="540" y="355.68" width="72" height="23.04"/><line class="cls-3" x1="591.84" y1="178.56" x2="511.2" y2="178.56"/><line class="cls-3" x1="591.84" y1="272.16" x2="511.2" y2="272.16"/><line class="cls-3" x1="558.72" y1="207.36" x2="591.84" y2="207.36"/><line class="cls-3" x1="511.2" y1="200.16" x2="455.04" y2="200.16"/><g><line class="cls-3" x1="455.04" y1="200.16" x2="455.04" y2="64.64"/><polygon class="cls-6" points="464.58 82.37 461.76 83.4 455.04 64.93 448.32 83.4 445.5 82.37 455.04 56.16 464.58 82.37"/></g><path class="cls-3" d="M591.12,272.16c25.85,0,46.8-20.95,46.8-46.8s-20.95-46.8-46.8-46.8"/><g><line class="cls-3" x1="563.04" y1="178.56" x2="563.04" y2="138.08"/><polygon class="cls-6" points="572.58 155.81 569.76 156.84 563.04 138.37 556.32 156.84 553.5 155.81 563.04 129.6 572.58 155.81"/></g><line class="cls-3" x1="563.04" y1="272.16" x2="563.04" y2="315.36"/><line class="cls-3" x1="789.12" y1="207.36" x2="789.12" y2="300.96"/><line class="cls-3" x1="832.32" y1="279.36" x2="836.64" y2="236.16"/><line class="cls-3" x1="817.92" y1="279.36" x2="851.04" y2="279.36"/><line class="cls-3" x1="851.04" y1="279.36" x2="855.36" y2="236.16"/><circle class="cls-3" cx="924.48" cy="257.76" r="8.64"/><line class="cls-3" x1="789.12" y1="272.16" x2="732.96" y2="272.16"/><line class="cls-3" x1="732.96" y1="436.32" x2="732.96" y2="272.16"/><line class="cls-3" x1="732.96" y1="449.28" x2="732.96" y2="515.52"/><line class="cls-3" x1="732.96" y1="396" x2="817.92" y2="396"/><line class="cls-3" x1="889.92" y1="396" x2="954.72" y2="396"/><line class="cls-3" x1="954.72" y1="396" x2="954.72" y2="257.76"/><line class="cls-3" x1="933.12" y1="257.76" x2="974.88" y2="257.76"/><rect class="cls-3" x="817.92" y="384.48" width="72" height="23.04"/><line class="cls-3" x1="869.76" y1="207.36" x2="789.12" y2="207.36"/><line class="cls-3" x1="869.76" y1="300.96" x2="789.12" y2="300.96"/><line class="cls-3" x1="836.64" y1="236.16" x2="869.76" y2="236.16"/><line class="cls-3" x1="789.12" y1="228.96" x2="666.72" y2="228.96"/><path class="cls-3" d="M869.04,300.96c25.85,0,46.8-20.95,46.8-46.8s-20.95-46.8-46.8-46.8"/><polygon class="cls-2" points="455.04 515.52 469.44 515.52 462.24 524.16 455.04 532.8 447.84 524.16 440.64 515.52 455.04 515.52"/><polygon class="cls-2" points="732.96 515.52 747.36 515.52 740.16 524.16 732.96 532.8 725.76 524.16 718.56 515.52 732.96 515.52"/><polygon class="cls-2" points="563.04 315.36 577.44 315.36 570.24 324 563.04 332.64 555.84 324 548.64 315.36 563.04 315.36"/></g><g id="TEXT"><text class="cls-7" transform="translate(78.47 138.78)"><tspan x="0" y="0">1</tspan></text><text class="cls-7" transform="translate(78.47 196.38)"><tspan x="0" y="0">2</tspan></text><text class="cls-7" transform="translate(78.47 253.98)"><tspan x="0" y="0">3</tspan></text><text class="cls-7" transform="translate(78.47 311.58)"><tspan x="0" y="0">4</tspan></text><text class="cls-7" transform="translate(78.47 369.18)"><tspan x="0" y="0">5</tspan></text><text class="cls-7" transform="translate(78.47 426.78)"><tspan x="0" y="0">6</tspan></text><text class="cls-7" transform="translate(78.47 484.38)"><tspan x="0" y="0">7</tspan></text><text class="cls-7" transform="translate(331.89 138.78)"><tspan x="0" y="0">14</tspan></text><text class="cls-7" transform="translate(331.89 196.38)"><tspan x="0" y="0">13</tspan></text><text class="cls-7" transform="translate(331.89 253.98)"><tspan x="0" y="0">12</tspan></text><text class="cls-7" transform="translate(331.89 311.58)"><tspan x="0" y="0">11</tspan></text><text class="cls-7" transform="translate(331.89 369.18)"><tspan x="0" y="0">10</tspan></text><text class="cls-7" transform="translate(337.67 426.78)"><tspan x="0" y="0">9</tspan></text><text class="cls-7" transform="translate(337.67 484.38)"><tspan x="0" y="0">8</tspan></text><text class="cls-5" transform="translate(105.23 484.38)"><tspan class="cls-9" x="0" y="0">V</tspan><tspan class="cls-10" x="11.45" y="0">SS</tspan></text><text class="cls-5" transform="translate(290.24 138.78)"><tspan class="cls-9" x="0" y="0">V</tspan><tspan class="cls-10" x="11.45" y="0">DD</tspan></text><text class="cls-7" transform="translate(181.15 547.2)"><tspan x="0" y="0">CD4093</tspan></text><text class="cls-8" transform="translate(106.54 39.3)"><tspan x="0" y="0">1,5,8,12</tspan></text><text class="cls-8" transform="translate(105.82 59.46)"><tspan x="0" y="0">2,6,9,13</tspan></text><text class="cls-8" transform="translate(269.65 50.46)"><tspan x="0" y="0">3,4,10,11</tspan></text><text class="cls-7" transform="translate(561.08 397.44)"><tspan x="0" y="0">R1</tspan></text><text class="cls-7" transform="translate(484.45 427.68)"><tspan x="0" y="0">C1</tspan></text><text class="cls-5" transform="translate(1026.8 234.72)"><tspan class="cls-9" x="0" y="0">V</tspan><tspan class="cls-10" x="11.45" y="0">OU</tspan><tspan class="cls-11" x="27.48" y="0">T</tspan></text><text class="cls-5" transform="translate(483.95 525.6)"><tspan class="cls-9" x="0" y="0">V</tspan><tspan class="cls-10" x="11.45" y="0">SS</tspan></text><text class="cls-7" transform="translate(618.7 177.12)"><tspan x="0" y="0">1/4 CD4093</tspan></text><text class="cls-7" transform="translate(496.07 259.2)"><tspan x="0" y="0">2</tspan></text><text class="cls-7" transform="translate(644.39 214.56)"><tspan x="0" y="0">3</tspan></text><text class="cls-7" transform="translate(496.07 194.4)"><tspan x="0" y="0">1</tspan></text><text class="cls-5" transform="translate(480.32 79.2)"><tspan class="cls-9" x="0" y="0">V</tspan><tspan class="cls-10" x="11.45" y="0">DD</tspan></text><text class="cls-5" transform="translate(577.55 334.08)"><tspan class="cls-9" x="0" y="0">V</tspan><tspan class="cls-10" x="11.45" y="0">SS</tspan></text><text class="cls-5" transform="translate(573.93 145.44)"><tspan class="cls-9" x="0" y="0">V</tspan><tspan class="cls-10" x="11.45" y="0">DD</tspan></text><text class="cls-7" transform="translate(537.09 174.24)"><tspan x="0" y="0">14</tspan></text><text class="cls-7" transform="translate(546.47 292.32)"><tspan x="0" y="0">7</tspan></text><text class="cls-7" transform="translate(839 426.24)"><tspan x="0" y="0">R2</tspan></text><text class="cls-7" transform="translate(762.37 427.68)"><tspan x="0" y="0">C2</tspan></text><text class="cls-5" transform="translate(761.87 525.6)"><tspan class="cls-9" x="0" y="0">V</tspan><tspan class="cls-10" x="11.45" y="0">SS</tspan></text><text class="cls-7" transform="translate(896.62 205.92)"><tspan x="0" y="0">1/4 CD4093</tspan></text><text class="cls-7" transform="translate(773.99 288)"><tspan x="0" y="0">5</tspan></text><text class="cls-7" transform="translate(922.31 243.36)"><tspan x="0" y="0">4</tspan></text><text class="cls-7" transform="translate(773.99 223.2)"><tspan x="0" y="0">6</tspan></text></g></svg>