<?xml version="1.0" encoding="UTF-8"?><svg xmlns="http://www.w3.org/2000/svg" viewBox="0 0 1080 600.48"><defs><style>.cls-1{stroke-width:3px;}.cls-1,.cls-2,.cls-3,.cls-4{fill:none;stroke:#1d1e1b;stroke-miterlimit:10;}.cls-5,.cls-6,.cls-7,.cls-8{fill:#1d1e1b;}.cls-5,.cls-7,.cls-8{font-family:Roboto-Regular, Roboto;}.cls-2{stroke-width:2px;}.cls-3{stroke-width:2px;}.cls-9,.cls-7{font-size:18px;}.cls-10{font-size:12px;}.cls-8{font-size:14px;}</style></defs><g id="Field"><circle class="cls-6" cx="584.64" cy="200.16" r="4.32"/><circle class="cls-6" cx="707.04" cy="367.2" r="4.32"/><circle class="cls-6" cx="928.8" cy="228.96" r="4.32"/><rect class="cls-6" x="678.24" y="444.96" width="57.6" height="7.2"/><rect class="cls-6" x="678.24" y="433.44" width="57.6" height="7.2"/></g><g id="Line"><line class="cls-1" x1="97.92" y1="86.4" x2="198.72" y2="86.4"/><line class="cls-1" x1="227.52" y1="86.4" x2="328.32" y2="86.4"/><path class="cls-1" d="M227.52,86.4c0,7.95-6.45,14.4-14.4,14.4s-14.4-6.45-14.4-14.4"/><rect class="cls-4" x="69.12" y="115.2" width="28.8" height="28.8"/><rect class="cls-4" x="69.12" y="172.8" width="28.8" height="28.8"/><rect class="cls-4" x="69.12" y="230.4" width="28.8" height="28.8"/><line class="cls-1" x1="97.92" y1="86.4" x2="97.92" y2="518.4"/><line class="cls-1" x1="97.92" y1="518.4" x2="328.32" y2="518.4"/><line class="cls-1" x1="328.32" y1="86.4" x2="328.32" y2="518.4"/><rect class="cls-4" x="69.12" y="288" width="28.8" height="28.8"/><rect class="cls-4" x="69.12" y="345.6" width="28.8" height="28.8"/><rect class="cls-4" x="69.12" y="403.2" width="28.8" height="28.8"/><rect class="cls-4" x="69.12" y="460.8" width="28.8" height="28.8"/><rect class="cls-4" x="328.32" y="115.2" width="28.8" height="28.8"/><rect class="cls-4" x="328.32" y="172.8" width="28.8" height="28.8"/><rect class="cls-4" x="328.32" y="230.4" width="28.8" height="28.8"/><rect class="cls-4" x="328.32" y="288" width="28.8" height="28.8"/><rect class="cls-4" x="328.32" y="345.6" width="28.8" height="28.8"/><rect class="cls-4" x="328.32" y="403.2" width="28.8" height="28.8"/><rect class="cls-4" x="328.32" y="460.8" width="28.8" height="28.8"/><line class="cls-4" x1="145.44" y1="174.24" x2="145.44" y2="158.4"/><line class="cls-4" x1="99.36" y1="244.8" x2="155.52" y2="244.8"/><line class="cls-4" x1="155.52" y1="218.88" x2="155.52" y2="244.8"/><line class="cls-4" x1="138.24" y1="195.84" x2="138.24" y2="174.24"/><line class="cls-4" x1="172.8" y1="195.84" x2="172.8" y2="174.24"/><line class="cls-4" x1="149.76" y1="182.88" x2="149.76" y2="192.96"/><line class="cls-4" x1="149.76" y1="187.2" x2="161.28" y2="190.08"/><line class="cls-4" x1="149.76" y1="192.96" x2="161.28" y2="195.84"/><line class="cls-4" x1="172.8" y1="174.24" x2="138.24" y2="174.24"/><circle class="cls-4" cx="155.52" cy="216" r="2.88"/><path class="cls-4" d="M172.8,195.84c0,9.54-7.74,17.28-17.28,17.28s-17.28-7.74-17.28-17.28"/><line class="cls-4" x1="161.28" y1="190.08" x2="161.28" y2="200.16"/><line class="cls-4" x1="165.6" y1="174.24" x2="165.6" y2="129.6"/><line class="cls-4" x1="99.36" y1="129.6" x2="165.6" y2="129.6"/><line class="cls-4" x1="97.92" y1="187.2" x2="118.08" y2="187.2"/><line class="cls-4" x1="118.08" y1="158.4" x2="118.08" y2="187.2"/><line class="cls-4" x1="145.44" y1="158.4" x2="118.08" y2="158.4"/><line class="cls-4" x1="145.44" y1="372.96" x2="145.44" y2="388.8"/><line class="cls-4" x1="99.36" y1="302.4" x2="155.52" y2="302.4"/><line class="cls-4" x1="155.52" y1="328.32" x2="155.52" y2="302.4"/><line class="cls-4" x1="138.24" y1="351.36" x2="138.24" y2="372.96"/><line class="cls-4" x1="172.8" y1="351.36" x2="172.8" y2="372.96"/><line class="cls-4" x1="149.76" y1="364.32" x2="149.76" y2="354.24"/><line class="cls-4" x1="149.76" y1="360" x2="161.28" y2="357.12"/><line class="cls-4" x1="149.76" y1="354.24" x2="161.28" y2="351.36"/><line class="cls-4" x1="172.8" y1="372.96" x2="138.24" y2="372.96"/><circle class="cls-4" cx="155.52" cy="331.2" r="2.88"/><path class="cls-4" d="M172.8,351.36c0-9.54-7.74-17.28-17.28-17.28s-17.28,7.74-17.28,17.28"/><line class="cls-4" x1="161.28" y1="357.12" x2="161.28" y2="347.04"/><line class="cls-4" x1="165.6" y1="372.96" x2="165.6" y2="417.6"/><line class="cls-4" x1="99.36" y1="417.6" x2="165.6" y2="417.6"/><line class="cls-4" x1="97.92" y1="360" x2="118.08" y2="360"/><line class="cls-4" x1="118.08" y1="388.8" x2="118.08" y2="360"/><line class="cls-4" x1="145.44" y1="388.8" x2="118.08" y2="388.8"/><line class="cls-4" x1="280.8" y1="231.84" x2="280.8" y2="216"/><line class="cls-4" x1="326.88" y1="302.4" x2="270.72" y2="302.4"/><line class="cls-4" x1="270.72" y1="276.48" x2="270.72" y2="302.4"/><line class="cls-4" x1="288" y1="253.44" x2="288" y2="231.84"/><line class="cls-4" x1="253.44" y1="253.44" x2="253.44" y2="231.84"/><line class="cls-4" x1="276.48" y1="240.48" x2="276.48" y2="250.56"/><line class="cls-4" x1="276.48" y1="244.8" x2="264.96" y2="247.68"/><line class="cls-4" x1="276.48" y1="250.56" x2="264.96" y2="253.44"/><line class="cls-4" x1="253.44" y1="231.84" x2="288" y2="231.84"/><circle class="cls-4" cx="270.72" cy="273.6" r="2.88"/><path class="cls-4" d="M253.44,253.44c0,9.54,7.74,17.28,17.28,17.28s17.28-7.74,17.28-17.28"/><line class="cls-4" x1="264.96" y1="247.68" x2="264.96" y2="257.76"/><line class="cls-4" x1="260.64" y1="231.84" x2="260.64" y2="187.2"/><line class="cls-4" x1="326.88" y1="187.2" x2="260.64" y2="187.2"/><line class="cls-4" x1="328.32" y1="244.8" x2="308.16" y2="244.8"/><line class="cls-4" x1="308.16" y1="216" x2="308.16" y2="244.8"/><line class="cls-4" x1="280.8" y1="216" x2="308.16" y2="216"/><line class="cls-4" x1="280.8" y1="430.56" x2="280.8" y2="446.4"/><line class="cls-4" x1="326.88" y1="360" x2="270.72" y2="360"/><line class="cls-4" x1="270.72" y1="385.92" x2="270.72" y2="360"/><line class="cls-4" x1="288" y1="408.96" x2="288" y2="430.56"/><line class="cls-4" x1="253.44" y1="408.96" x2="253.44" y2="430.56"/><line class="cls-4" x1="276.48" y1="421.92" x2="276.48" y2="411.84"/><line class="cls-4" x1="276.48" y1="417.6" x2="264.96" y2="414.72"/><line class="cls-4" x1="276.48" y1="411.84" x2="264.96" y2="408.96"/><line class="cls-4" x1="253.44" y1="430.56" x2="288" y2="430.56"/><circle class="cls-4" cx="270.72" cy="388.8" r="2.88"/><path class="cls-4" d="M253.44,408.96c0-9.54,7.74-17.28,17.28-17.28s17.28,7.74,17.28,17.28"/><line class="cls-4" x1="264.96" y1="414.72" x2="264.96" y2="404.64"/><line class="cls-4" x1="260.64" y1="430.56" x2="260.64" y2="475.2"/><line class="cls-4" x1="326.88" y1="475.2" x2="260.64" y2="475.2"/><line class="cls-4" x1="328.32" y1="417.6" x2="308.16" y2="417.6"/><line class="cls-4" x1="308.16" y1="446.4" x2="308.16" y2="417.6"/><line class="cls-4" x1="280.8" y1="446.4" x2="308.16" y2="446.4"/><line class="cls-4" x1="191.52" y1="54.72" x2="165.6" y2="54.72"/><line class="cls-4" x1="236.16" y1="44.64" x2="262.08" y2="44.64"/><g><line class="cls-4" x1="213.12" y1="61.92" x2="191.52" y2="61.92"/><line class="cls-4" x1="213.12" y1="27.36" x2="191.52" y2="27.36"/><line class="cls-4" x1="200.16" y1="50.4" x2="210.24" y2="50.4"/><line class="cls-4" x1="204.48" y1="50.4" x2="207.36" y2="38.88"/><line class="cls-4" x1="210.24" y1="50.4" x2="213.12" y2="38.88"/><line class="cls-4" x1="191.52" y1="27.36" x2="191.52" y2="61.92"/><circle class="cls-4" cx="233.28" cy="44.64" r="2.88"/><path class="cls-4" d="M213.12,27.36c9.54,0,17.28,7.74,17.28,17.28s-7.74,17.28-17.28,17.28"/><line class="cls-4" x1="207.36" y1="38.88" x2="217.44" y2="38.88"/></g><line class="cls-4" x1="191.52" y1="34.56" x2="165.6" y2="34.56"/><line class="cls-3" x1="763.2" y1="178.56" x2="763.2" y2="272.16"/><line class="cls-3" x1="806.4" y1="250.56" x2="810.72" y2="207.36"/><line class="cls-3" x1="792" y1="250.56" x2="825.12" y2="250.56"/><line class="cls-3" x1="825.12" y1="250.56" x2="829.44" y2="207.36"/><circle class="cls-3" cx="898.56" cy="228.96" r="8.64"/><line class="cls-3" x1="763.2" y1="243.36" x2="707.04" y2="243.36"/><line class="cls-3" x1="707.04" y1="436.32" x2="707.04" y2="243.36"/><line class="cls-3" x1="707.04" y1="447.84" x2="707.04" y2="515.52"/><line class="cls-3" x1="707.04" y1="367.2" x2="792" y2="367.2"/><line class="cls-3" x1="864" y1="367.2" x2="928.8" y2="367.2"/><line class="cls-3" x1="928.8" y1="367.2" x2="928.8" y2="228.96"/><line class="cls-3" x1="907.2" y1="228.96" x2="1005.12" y2="228.96"/><rect class="cls-3" x="792" y="355.68" width="72" height="23.04"/><line class="cls-3" x1="843.84" y1="178.56" x2="763.2" y2="178.56"/><line class="cls-3" x1="843.84" y1="272.16" x2="763.2" y2="272.16"/><line class="cls-3" x1="810.72" y1="207.36" x2="843.84" y2="207.36"/><line class="cls-3" x1="763.2" y1="200.16" x2="544.32" y2="200.16"/><g><line class="cls-3" x1="426.24" y1="200.16" x2="426.24" y2="64.64"/><polygon class="cls-6" points="435.78 82.37 432.96 83.4 426.24 64.93 419.52 83.4 416.7 82.37 426.24 56.16 435.78 82.37"/></g><path class="cls-3" d="M843.12,272.16c25.85,0,46.8-20.95,46.8-46.8s-20.95-46.8-46.8-46.8"/><g><line class="cls-3" x1="815.04" y1="178.56" x2="815.04" y2="138.08"/><polygon class="cls-6" points="824.58 155.81 821.76 156.84 815.04 138.37 808.32 156.84 805.5 155.81 815.04 129.6 824.58 155.81"/></g><line class="cls-3" x1="815.04" y1="272.16" x2="815.04" y2="315.36"/><line class="cls-3" x1="466.56" y1="200.16" x2="426.24" y2="200.16"/><line class="cls-3" x1="584.64" y1="288" x2="584.64" y2="201.6"/><rect class="cls-3" x="548.64" y="312.48" width="72" height="23.04" transform="translate(908.64 -260.64) rotate(90)"/><line class="cls-3" x1="584.64" y1="360" x2="584.64" y2="515.52"/><circle class="cls-3" cx="469.44" cy="200.16" r="2.88"/><circle class="cls-3" cx="541.44" cy="200.16" r="2.88"/><line class="cls-3" x1="542.88" y1="191.52" x2="468" y2="191.52"/><line class="cls-3" x1="505.44" y1="177.12" x2="505.44" y2="191.52"/><polygon class="cls-2" points="584.64 515.52 599.04 515.52 591.84 524.44 584.64 533.36 577.44 524.44 570.24 515.52 584.64 515.52"/><polygon class="cls-2" points="707.04 514.96 721.44 514.96 714.24 523.88 707.04 532.8 699.84 523.88 692.64 514.96 707.04 514.96"/><polygon class="cls-2" points="815.04 315.36 829.44 315.36 822.24 324.28 815.04 333.2 807.84 324.28 800.64 315.36 815.04 315.36"/></g><g id="TEXT"><text class="cls-7" transform="translate(78.47 138.78)"><tspan x="0" y="0">1</tspan></text><text class="cls-7" transform="translate(78.47 196.38)"><tspan x="0" y="0">2</tspan></text><text class="cls-7" transform="translate(78.47 253.98)"><tspan x="0" y="0">3</tspan></text><text class="cls-7" transform="translate(78.47 311.58)"><tspan x="0" y="0">4</tspan></text><text class="cls-7" transform="translate(78.47 369.18)"><tspan x="0" y="0">5</tspan></text><text class="cls-7" transform="translate(78.47 426.78)"><tspan x="0" y="0">6</tspan></text><text class="cls-7" transform="translate(78.47 484.38)"><tspan x="0" y="0">7</tspan></text><text class="cls-7" transform="translate(331.89 138.78)"><tspan x="0" y="0">14</tspan></text><text class="cls-7" transform="translate(331.89 196.38)"><tspan x="0" y="0">13</tspan></text><text class="cls-7" transform="translate(331.89 253.98)"><tspan x="0" y="0">12</tspan></text><text class="cls-7" transform="translate(331.89 311.58)"><tspan x="0" y="0">11</tspan></text><text class="cls-7" transform="translate(331.89 369.18)"><tspan x="0" y="0">10</tspan></text><text class="cls-7" transform="translate(337.67 426.78)"><tspan x="0" y="0">9</tspan></text><text class="cls-7" transform="translate(337.67 484.38)"><tspan x="0" y="0">8</tspan></text><text class="cls-5" transform="translate(105.23 484.38)"><tspan class="cls-9" x="0" y="0">V</tspan><tspan class="cls-10" x="11.45" y="0">SS</tspan></text><text class="cls-5" transform="translate(290.24 138.78)"><tspan class="cls-9" x="0" y="0">V</tspan><tspan class="cls-10" x="11.45" y="0">DD</tspan></text><text class="cls-7" transform="translate(181.15 547.2)"><tspan x="0" y="0">CD4093</tspan></text><text class="cls-8" transform="translate(106.54 39.3)"><tspan x="0" y="0">1,5,8,12</tspan></text><text class="cls-8" transform="translate(105.82 59.46)"><tspan x="0" y="0">2,6,9,13</tspan></text><text class="cls-8" transform="translate(269.65 50.46)"><tspan x="0" y="0">3,4,10,11</tspan></text><text class="cls-7" transform="translate(813.08 397.44)"><tspan x="0" y="0">R1</tspan></text><text class="cls-7" transform="translate(736.45 427.68)"><tspan x="0" y="0">C1</tspan></text><text class="cls-5" transform="translate(735.95 525.6)"><tspan class="cls-9" x="0" y="0">V</tspan><tspan class="cls-10" x="11.45" y="0">SS</tspan></text><text class="cls-7" transform="translate(886.54 175.68)"><tspan x="0" y="0">1/4 CD4093</tspan></text><text class="cls-7" transform="translate(748.07 259.2)"><tspan x="0" y="0">2</tspan></text><text class="cls-7" transform="translate(896.39 214.56)"><tspan x="0" y="0">3</tspan></text><text class="cls-7" transform="translate(748.07 194.4)"><tspan x="0" y="0">1</tspan></text><text class="cls-5" transform="translate(451.52 79.2)"><tspan class="cls-9" x="0" y="0">V</tspan><tspan class="cls-10" x="11.45" y="0">DD</tspan></text><text class="cls-5" transform="translate(829.55 334.08)"><tspan class="cls-9" x="0" y="0">V</tspan><tspan class="cls-10" x="11.45" y="0">SS</tspan></text><text class="cls-5" transform="translate(825.93 145.44)"><tspan class="cls-9" x="0" y="0">V</tspan><tspan class="cls-10" x="11.45" y="0">DD</tspan></text><text class="cls-7" transform="translate(789.09 174.24)"><tspan x="0" y="0">14</tspan></text><text class="cls-7" transform="translate(798.47 292.32)"><tspan x="0" y="0">7</tspan></text><text class="cls-5" transform="translate(535.8 527.04)"><tspan class="cls-9" x="0" y="0">V</tspan><tspan class="cls-10" x="11.45" y="0">SS</tspan></text><text class="cls-7" transform="translate(539.49 331.2)"><tspan x="0" y="0">R2</tspan></text><g><path class="cls-6" d="M495.65,373.71v5.01h-1.69v-12.8h4.72c1.4,0,2.5,.36,3.29,1.07s1.19,1.66,1.19,2.84c0,1.24-.39,2.2-1.17,2.87s-1.89,1.01-3.33,1.01h-3.01Zm0-1.38h3.03c.9,0,1.59-.21,2.07-.64s.72-1.04,.72-1.84c0-.76-.24-1.37-.72-1.83s-1.14-.7-1.98-.71h-3.13v5.03Z"/><path class="cls-6" d="M510.94,377.78c-.63,.74-1.56,1.12-2.79,1.12-1.01,0-1.79-.29-2.32-.88s-.8-1.46-.8-2.61v-6.19h1.63v6.14c0,1.44,.59,2.16,1.76,2.16,1.24,0,2.07-.46,2.48-1.39v-6.92h1.63v9.51h-1.55l-.04-.94Z"/><path class="cls-6" d="M516.76,378.72h-1.63v-13.5h1.63v13.5Z"/><path class="cls-6" d="M521.12,378.72h-1.63v-13.5h1.63v13.5Z"/><path class="cls-6" d="M527.11,373.95h-4.29v-1.33h4.29v1.33Z"/><path class="cls-6" d="M528.3,373.89c0-1.46,.35-2.63,1.04-3.52s1.6-1.33,2.72-1.33,2,.38,2.65,1.14v-4.96h1.63v13.5h-1.49l-.08-1.02c-.65,.8-1.56,1.2-2.72,1.2s-2-.45-2.69-1.35-1.04-2.08-1.04-3.53v-.12Zm1.63,.18c0,1.08,.22,1.92,.67,2.53s1.06,.91,1.85,.91c1.03,0,1.78-.46,2.26-1.39v-4.37c-.49-.9-1.23-1.34-2.24-1.34-.8,0-1.42,.31-1.86,.92s-.67,1.53-.67,2.73Z"/><path class="cls-6" d="M538.41,373.88c0-.93,.18-1.77,.55-2.51s.88-1.32,1.53-1.72,1.4-.61,2.24-.61c1.29,0,2.34,.45,3.14,1.34s1.2,2.09,1.2,3.58v.11c0,.93-.18,1.76-.53,2.49s-.86,1.31-1.52,1.72-1.42,.62-2.27,.62c-1.29,0-2.33-.45-3.13-1.34s-1.2-2.08-1.2-3.56v-.11Zm1.63,.19c0,1.05,.24,1.9,.73,2.54s1.14,.96,1.96,.96,1.48-.32,1.97-.97,.73-1.55,.73-2.72c0-1.04-.25-1.89-.74-2.54s-1.15-.97-1.97-.97-1.45,.32-1.94,.96-.74,1.55-.74,2.74Z"/><path class="cls-6" d="M557.53,376.48l1.83-7.27h1.63l-2.77,9.51h-1.32l-2.31-7.21-2.25,7.21h-1.32l-2.76-9.51h1.62l1.87,7.12,2.21-7.12h1.31l2.26,7.27Z"/><path class="cls-6" d="M564.17,369.21l.05,1.2c.73-.91,1.68-1.37,2.85-1.37,2.01,0,3.02,1.13,3.04,3.4v6.28h-1.63v-6.29c0-.69-.16-1.19-.47-1.52s-.79-.49-1.44-.49c-.53,0-.99,.14-1.39,.42s-.71,.65-.93,1.11v6.78h-1.63v-9.51h1.54Z"/><path class="cls-6" d="M498.66,395.14h-3.01v5.18h-1.7v-12.8h4.24c1.44,0,2.55,.33,3.33,.98s1.17,1.61,1.17,2.87c0,.8-.22,1.49-.65,2.08s-1.03,1.03-1.8,1.33l3.01,5.43v.11h-1.81l-2.78-5.18Zm-3.01-1.38h2.59c.84,0,1.5-.22,2-.65s.74-1.02,.74-1.74c0-.79-.24-1.4-.71-1.82-.47-.42-1.15-.64-2.04-.64h-2.58v4.86Z"/><path class="cls-6" d="M508.74,400.5c-1.29,0-2.34-.42-3.15-1.27s-1.21-1.98-1.21-3.4v-.3c0-.94,.18-1.79,.54-2.53s.86-1.32,1.51-1.74,1.35-.63,2.11-.63c1.24,0,2.2,.41,2.88,1.22s1.03,1.98,1.03,3.5v.68h-6.44c.02,.94,.3,1.7,.82,2.27s1.19,.87,2,.87c.57,0,1.06-.12,1.46-.35s.75-.54,1.05-.93l.99,.77c-.8,1.22-1.99,1.84-3.59,1.84Zm-.2-8.53c-.66,0-1.21,.24-1.65,.72s-.72,1.15-.83,2.01h4.76v-.12c-.05-.83-.27-1.47-.67-1.92s-.94-.68-1.62-.68Z"/><path class="cls-6" d="M519.87,397.8c0-.44-.17-.78-.5-1.02s-.91-.45-1.73-.63-1.48-.39-1.96-.63-.84-.54-1.07-.88-.35-.74-.35-1.21c0-.78,.33-1.44,.99-1.98s1.5-.81,2.53-.81c1.08,0,1.95,.28,2.62,.83s1.01,1.27,1.01,2.14h-1.63c0-.45-.19-.83-.57-1.15s-.85-.48-1.43-.48-1.05,.13-1.39,.39-.5,.59-.5,1.01c0,.39,.16,.69,.47,.89s.87,.39,1.68,.57,1.47,.4,1.97,.65,.88,.56,1.12,.91,.37,.79,.37,1.3c0,.85-.34,1.53-1.02,2.04s-1.56,.77-2.65,.77c-.76,0-1.44-.13-2.02-.4s-1.04-.65-1.38-1.13-.5-1.01-.5-1.57h1.63c.03,.54,.25,.98,.65,1.3s.95,.48,1.61,.48c.62,0,1.11-.12,1.48-.37s.56-.58,.56-1Z"/><path class="cls-6" d="M523.62,388.29c0-.26,.08-.49,.24-.67s.4-.27,.72-.27,.56,.09,.72,.27,.25,.4,.25,.67-.08,.48-.25,.66-.4,.26-.72,.26-.56-.09-.72-.26-.24-.4-.24-.66Zm1.76,12.03h-1.63v-9.51h1.63v9.51Z"/><path class="cls-6" d="M533.52,397.8c0-.44-.17-.78-.5-1.02s-.91-.45-1.73-.63-1.48-.39-1.96-.63-.84-.54-1.07-.88-.35-.74-.35-1.21c0-.78,.33-1.44,.99-1.98s1.5-.81,2.53-.81c1.08,0,1.95,.28,2.62,.83s1.01,1.27,1.01,2.14h-1.63c0-.45-.19-.83-.57-1.15s-.85-.48-1.43-.48-1.05,.13-1.39,.39-.5,.59-.5,1.01c0,.39,.16,.69,.47,.89s.87,.39,1.68,.57,1.47,.4,1.97,.65,.88,.56,1.12,.91,.37,.79,.37,1.3c0,.85-.34,1.53-1.02,2.04s-1.56,.77-2.65,.77c-.76,0-1.44-.13-2.02-.4s-1.04-.65-1.38-1.13-.5-1.01-.5-1.57h1.63c.03,.54,.25,.98,.65,1.3s.95,.48,1.61,.48c.62,0,1.11-.12,1.48-.37s.56-.58,.56-1Z"/><path class="cls-6" d="M539.47,388.51v2.3h1.78v1.26h-1.78v5.91c0,.38,.08,.67,.24,.86,.16,.19,.43,.29,.81,.29,.19,0,.45-.04,.77-.11v1.31c-.43,.12-.84,.17-1.25,.17-.73,0-1.27-.22-1.64-.66s-.55-1.06-.55-1.87v-5.9h-1.73v-1.26h1.73v-2.3h1.63Z"/><path class="cls-6" d="M542.53,395.48c0-.93,.18-1.77,.55-2.51s.88-1.32,1.53-1.72,1.4-.61,2.24-.61c1.29,0,2.34,.45,3.14,1.34s1.2,2.09,1.2,3.58v.11c0,.93-.18,1.76-.53,2.49s-.86,1.31-1.52,1.72-1.42,.62-2.27,.62c-1.29,0-2.33-.45-3.13-1.34s-1.2-2.08-1.2-3.56v-.11Zm1.63,.19c0,1.05,.24,1.9,.73,2.54s1.14,.96,1.96,.96,1.48-.32,1.97-.97,.73-1.55,.73-2.72c0-1.04-.25-1.89-.74-2.54s-1.15-.97-1.97-.97-1.45,.32-1.94,.96-.74,1.55-.74,2.74Z"/><path class="cls-6" d="M557.83,392.27c-.25-.04-.51-.06-.8-.06-1.07,0-1.79,.45-2.17,1.36v6.75h-1.63v-9.51h1.58l.03,1.1c.53-.85,1.29-1.27,2.27-1.27,.32,0,.56,.04,.72,.12v1.51Z"/></g><g><path class="cls-6" d="M461.09,130.35v5.01h-1.69v-12.8h4.72c1.4,0,2.5,.36,3.29,1.07s1.19,1.66,1.19,2.84c0,1.24-.39,2.2-1.16,2.87s-1.89,1.01-3.34,1.01h-3.01Zm0-1.38h3.03c.9,0,1.59-.21,2.07-.64,.48-.43,.72-1.04,.72-1.84s-.24-1.37-.72-1.83c-.48-.46-1.14-.7-1.98-.71h-3.13v5.03Z"/><path class="cls-6" d="M476.38,134.42c-.63,.74-1.56,1.12-2.79,1.12-1.01,0-1.79-.29-2.32-.88s-.8-1.46-.8-2.61v-6.19h1.63v6.14c0,1.44,.59,2.16,1.76,2.16,1.24,0,2.07-.46,2.48-1.39v-6.92h1.63v9.51h-1.55l-.04-.94Z"/><path class="cls-6" d="M485.97,132.84c0-.44-.17-.78-.5-1.02s-.91-.45-1.73-.63c-.82-.18-1.48-.39-1.96-.63s-.84-.54-1.07-.88-.35-.74-.35-1.21c0-.78,.33-1.44,.99-1.98s1.5-.81,2.53-.81c1.08,0,1.95,.28,2.62,.83s1.01,1.27,1.01,2.14h-1.63c0-.45-.19-.83-.57-1.15s-.85-.48-1.43-.48-1.05,.13-1.39,.39-.5,.59-.5,1.01c0,.39,.16,.69,.47,.89s.87,.39,1.68,.57,1.47,.4,1.97,.65,.88,.56,1.12,.91,.36,.79,.36,1.3c0,.85-.34,1.53-1.02,2.04s-1.56,.77-2.65,.77c-.76,0-1.44-.13-2.02-.4s-1.04-.65-1.38-1.13-.5-1.01-.5-1.57h1.63c.03,.54,.25,.98,.65,1.3s.94,.48,1.61,.48c.62,0,1.11-.12,1.48-.37s.56-.58,.56-1Z"/><path class="cls-6" d="M491.34,127c.72-.88,1.66-1.33,2.81-1.33,2.01,0,3.02,1.13,3.04,3.4v6.28h-1.63v-6.29c0-.69-.16-1.19-.47-1.52s-.79-.49-1.44-.49c-.53,0-.99,.14-1.39,.42s-.71,.65-.93,1.11v6.78h-1.63v-13.5h1.63v5.14Z"/><path class="cls-6" d="M512.13,130.71c0,1.45-.33,2.62-1,3.5s-1.56,1.32-2.69,1.32c-1.2,0-2.13-.42-2.79-1.27l-.08,1.1h-1.49v-13.5h1.63v5.04c.66-.81,1.56-1.22,2.72-1.22s2.06,.44,2.72,1.31,.99,2.07,.99,3.59v.14Zm-1.63-.18c0-1.11-.21-1.96-.64-2.57s-1.04-.91-1.85-.91c-1.07,0-1.84,.5-2.31,1.49v4.11c.5,1,1.27,1.49,2.33,1.49,.78,0,1.39-.3,1.82-.91s.65-1.51,.65-2.72Z"/><path class="cls-6" d="M520.05,134.42c-.63,.74-1.56,1.12-2.79,1.12-1.01,0-1.79-.29-2.32-.88s-.8-1.46-.8-2.61v-6.19h1.63v6.14c0,1.44,.59,2.16,1.76,2.16,1.24,0,2.07-.46,2.48-1.39v-6.92h1.63v9.51h-1.55l-.04-.94Z"/><path class="cls-6" d="M526.31,123.55v2.3h1.78v1.26h-1.78v5.9c0,.38,.08,.67,.24,.86,.16,.19,.43,.29,.81,.29,.19,0,.45-.04,.77-.11v1.31c-.43,.12-.84,.17-1.25,.17-.73,0-1.27-.22-1.64-.66s-.55-1.06-.55-1.87v-5.9h-1.73v-1.26h1.73v-2.3h1.63Z"/><path class="cls-6" d="M532.19,123.55v2.3h1.78v1.26h-1.78v5.9c0,.38,.08,.67,.24,.86,.16,.19,.43,.29,.81,.29,.19,0,.45-.04,.77-.11v1.31c-.43,.12-.84,.17-1.25,.17-.73,0-1.27-.22-1.64-.66s-.55-1.06-.55-1.87v-5.9h-1.73v-1.26h1.73v-2.3h1.63Z"/><path class="cls-6" d="M535.25,130.52c0-.93,.18-1.77,.55-2.51s.88-1.32,1.53-1.72,1.4-.61,2.24-.61c1.29,0,2.34,.45,3.14,1.34s1.2,2.09,1.2,3.58v.11c0,.93-.18,1.76-.53,2.49s-.86,1.31-1.52,1.72-1.42,.62-2.27,.62c-1.29,0-2.33-.45-3.13-1.34s-1.2-2.08-1.2-3.56v-.11Zm1.63,.19c0,1.05,.25,1.9,.73,2.54s1.14,.96,1.96,.96,1.48-.32,1.97-.97,.73-1.55,.73-2.72c0-1.04-.25-1.89-.74-2.54s-1.15-.97-1.97-.97-1.45,.32-1.94,.96-.74,1.55-.74,2.74Z"/><path class="cls-6" d="M547.49,125.85l.05,1.2c.73-.91,1.68-1.37,2.85-1.37,2.01,0,3.02,1.13,3.04,3.4v6.28h-1.63v-6.29c0-.69-.16-1.19-.47-1.52-.31-.33-.79-.49-1.44-.49-.53,0-.99,.14-1.39,.42s-.71,.65-.93,1.11v6.78h-1.63v-9.51h1.54Z"/><path class="cls-6" d="M563.72,130.59h-4.29v-1.33h4.29v1.33Z"/><path class="cls-6" d="M460.69,147.45l.05,1.2c.73-.91,1.68-1.37,2.85-1.37,2.01,0,3.02,1.13,3.04,3.4v6.28h-1.63v-6.29c0-.69-.16-1.19-.47-1.52s-.79-.49-1.44-.49c-.53,0-.99,.14-1.39,.42s-.71,.65-.93,1.11v6.78h-1.63v-9.51h1.54Z"/><path class="cls-6" d="M468.65,152.12c0-.93,.18-1.77,.55-2.51s.88-1.32,1.53-1.72,1.4-.61,2.24-.61c1.29,0,2.34,.45,3.14,1.34s1.2,2.09,1.2,3.58v.11c0,.93-.18,1.76-.53,2.49s-.86,1.31-1.52,1.72-1.42,.62-2.27,.62c-1.29,0-2.33-.45-3.13-1.34s-1.2-2.08-1.2-3.56v-.11Zm1.63,.19c0,1.05,.24,1.9,.73,2.54s1.14,.96,1.96,.96,1.48-.32,1.97-.97,.73-1.55,.73-2.72c0-1.04-.25-1.89-.74-2.54s-1.15-.97-1.97-.97-1.45,.32-1.94,.96-.74,1.55-.74,2.74Z"/><path class="cls-6" d="M483.94,148.91c-.25-.04-.51-.06-.8-.06-1.07,0-1.79,.45-2.17,1.36v6.75h-1.63v-9.51h1.58l.03,1.1c.53-.85,1.29-1.27,2.27-1.27,.32,0,.56,.04,.72,.12v1.51Z"/><path class="cls-6" d="M486.97,147.45l.04,1.05c.7-.82,1.64-1.23,2.82-1.23,1.33,0,2.24,.51,2.72,1.53,.32-.46,.73-.83,1.24-1.11s1.11-.42,1.8-.42c2.09,0,3.15,1.1,3.18,3.31v6.37h-1.63v-6.28c0-.68-.16-1.19-.47-1.52s-.83-.51-1.56-.51c-.6,0-1.1,.18-1.5,.54s-.63,.85-.69,1.45v6.31h-1.63v-6.23c0-1.38-.68-2.07-2.03-2.07-1.07,0-1.8,.45-2.19,1.36v6.94h-1.63v-9.51h1.54Z"/><path class="cls-6" d="M507.09,156.96c-.09-.19-.17-.52-.23-1-.76,.79-1.66,1.18-2.71,1.18-.94,0-1.71-.27-2.31-.8s-.9-1.2-.9-2.02c0-.99,.38-1.76,1.13-2.31s1.81-.82,3.18-.82h1.58v-.75c0-.57-.17-1.02-.51-1.36s-.84-.51-1.5-.51c-.58,0-1.07,.15-1.46,.44s-.59,.65-.59,1.06h-1.63c0-.47,.17-.93,.51-1.38s.79-.79,1.37-1.05,1.21-.39,1.9-.39c1.1,0,1.95,.27,2.58,.82s.94,1.3,.97,2.26v4.38c0,.87,.11,1.57,.33,2.08v.14h-1.71Zm-2.7-1.24c.51,0,.99-.13,1.45-.4s.79-.61,.99-1.03v-1.95h-1.27c-1.99,0-2.99,.58-2.99,1.75,0,.51,.17,.91,.51,1.2s.78,.43,1.31,.43Z"/><path class="cls-6" d="M512.77,156.96h-1.63v-13.5h1.63v13.5Z"/><path class="cls-6" d="M517.14,156.96h-1.63v-13.5h1.63v13.5Z"/><path class="cls-6" d="M522.85,154.58l2.21-7.13h1.74l-3.82,10.98c-.59,1.58-1.53,2.37-2.82,2.37l-.31-.03-.61-.11v-1.32l.44,.04c.55,0,.98-.11,1.29-.33s.56-.63,.76-1.22l.36-.97-3.39-9.4h1.78l2.37,7.13Z"/><path class="cls-6" d="M532.28,152.12c0-.93,.18-1.77,.55-2.51s.88-1.32,1.53-1.72,1.4-.61,2.24-.61c1.29,0,2.34,.45,3.14,1.34s1.2,2.09,1.2,3.58v.11c0,.93-.18,1.76-.53,2.49s-.86,1.31-1.52,1.72-1.42,.62-2.27,.62c-1.29,0-2.33-.45-3.13-1.34s-1.2-2.08-1.2-3.56v-.11Zm1.63,.19c0,1.05,.25,1.9,.73,2.54s1.14,.96,1.96,.96,1.48-.32,1.97-.97,.73-1.55,.73-2.72c0-1.04-.25-1.89-.74-2.54s-1.15-.97-1.97-.97-1.45,.32-1.94,.96-.74,1.55-.74,2.74Z"/><path class="cls-6" d="M551.01,152.31c0,1.45-.33,2.61-.99,3.5s-1.56,1.33-2.69,1.33-2.06-.37-2.72-1.1v4.58h-1.63v-13.17h1.49l.08,1.05c.66-.82,1.58-1.23,2.76-1.23s2.05,.43,2.71,1.29,1,2.06,1,3.59v.15Zm-1.63-.18c0-1.07-.23-1.92-.69-2.54s-1.08-.93-1.88-.93c-.98,0-1.72,.44-2.21,1.31v4.54c.49,.87,1.23,1.3,2.23,1.3,.78,0,1.4-.31,1.86-.93,.46-.62,.69-1.54,.69-2.76Z"/><path class="cls-6" d="M557.03,157.14c-1.29,0-2.34-.42-3.15-1.27s-1.21-1.98-1.21-3.4v-.3c0-.94,.18-1.79,.54-2.53,.36-.74,.86-1.32,1.51-1.74s1.35-.63,2.11-.63c1.24,0,2.2,.41,2.88,1.22s1.03,1.98,1.03,3.5v.68h-6.44c.02,.94,.3,1.69,.82,2.27,.52,.58,1.19,.87,2,.87,.57,0,1.06-.12,1.46-.35s.75-.54,1.05-.93l.99,.77c-.8,1.22-1.99,1.84-3.59,1.84Zm-.2-8.53c-.66,0-1.21,.24-1.65,.72s-.72,1.15-.83,2.01h4.76v-.12c-.05-.83-.27-1.47-.67-1.92s-.94-.68-1.62-.68Z"/><path class="cls-6" d="M564.15,147.45l.05,1.2c.73-.91,1.68-1.37,2.85-1.37,2.01,0,3.02,1.13,3.04,3.4v6.28h-1.63v-6.29c0-.69-.16-1.19-.47-1.52-.31-.33-.79-.49-1.44-.49-.53,0-.99,.14-1.39,.42s-.71,.65-.93,1.11v6.78h-1.63v-9.51h1.54Z"/></g></g></svg>