<?xml version="1.0" encoding="UTF-8"?><svg xmlns="http://www.w3.org/2000/svg" viewBox="0 0 1080 600.48"><defs><style>.cls-1{stroke-width:3px;}.cls-1,.cls-2,.cls-3,.cls-4{fill:none;stroke:#cad2d9;stroke-miterlimit:10;}.cls-5,.cls-6,.cls-7{fill:#cad2d9;}.cls-5,.cls-7{font-family:Roboto-Regular, Roboto;}.cls-8{letter-spacing:0em;}.cls-2{stroke-width:2px;}.cls-3{stroke-width:2.03px;}.cls-9,.cls-7{font-size:18px;}.cls-10{font-size:12px;}</style></defs><g id="Line"><line class="cls-1" x1="97.92" y1="43.2" x2="198.72" y2="43.2"/><line class="cls-1" x1="227.52" y1="43.2" x2="328.32" y2="43.2"/><path class="cls-1" d="M227.52,43.2c0,7.95-6.45,14.4-14.4,14.4s-14.4-6.45-14.4-14.4"/><rect class="cls-4" x="69.12" y="72" width="28.8" height="28.8"/><rect class="cls-4" x="69.12" y="129.6" width="28.8" height="28.8"/><rect class="cls-4" x="69.12" y="187.2" width="28.8" height="28.8"/><line class="cls-1" x1="97.92" y1="43.2" x2="97.92" y2="534.24"/><line class="cls-1" x1="97.92" y1="532.8" x2="328.32" y2="532.8"/><line class="cls-1" x1="328.32" y1="43.2" x2="328.32" y2="532.8"/><rect class="cls-4" x="69.12" y="244.8" width="28.8" height="28.8"/><rect class="cls-4" x="69.12" y="302.4" width="28.8" height="28.8"/><rect class="cls-4" x="69.12" y="360" width="28.8" height="28.8"/><rect class="cls-4" x="69.12" y="417.6" width="28.8" height="28.8"/><rect class="cls-4" x="328.32" y="187.2" width="28.8" height="28.8"/><rect class="cls-4" x="328.32" y="244.8" width="28.8" height="28.8"/><rect class="cls-4" x="328.32" y="302.4" width="28.8" height="28.8"/><rect class="cls-4" x="328.32" y="360" width="28.8" height="28.8"/><rect class="cls-4" x="328.32" y="417.6" width="28.8" height="28.8"/><rect class="cls-4" x="328.32" y="475.2" width="28.8" height="28.8"/><rect class="cls-4" x="69.12" y="475.2" width="28.8" height="28.8"/><rect class="cls-4" x="328.32" y="72" width="28.8" height="28.8"/><rect class="cls-4" x="328.32" y="129.6" width="28.8" height="28.8"/><rect class="cls-2" x="610.56" y="95.04" width="172.8" height="403.2"/><g><line class="cls-2" x1="783.36" y1="123.84" x2="987.47" y2="123.84"/><polygon class="cls-6" points="977.53 136.11 975.48 133.91 986.32 123.84 975.48 113.77 977.53 111.57 990.72 123.84 977.53 136.11"/></g><g><line class="cls-2" x1="783.36" y1="167.04" x2="987.47" y2="167.04"/><polygon class="cls-6" points="977.53 179.31 975.48 177.11 986.32 167.04 975.48 156.97 977.53 154.77 990.72 167.04 977.53 179.31"/></g><g><line class="cls-2" x1="783.36" y1="210.24" x2="987.47" y2="210.24"/><polygon class="cls-6" points="977.53 222.51 975.48 220.31 986.32 210.24 975.48 200.17 977.53 197.97 990.72 210.24 977.53 222.51"/></g><g><line class="cls-2" x1="783.36" y1="253.44" x2="987.47" y2="253.44"/><polygon class="cls-6" points="977.53 265.71 975.48 263.51 986.32 253.44 975.48 243.37 977.53 241.17 990.72 253.44 977.53 265.71"/></g><g><line class="cls-2" x1="783.36" y1="296.64" x2="987.47" y2="296.64"/><polygon class="cls-6" points="977.53 308.91 975.48 306.71 986.32 296.64 975.48 286.57 977.53 284.37 990.72 296.64 977.53 308.91"/></g><g><line class="cls-2" x1="783.36" y1="339.84" x2="987.47" y2="339.84"/><polygon class="cls-6" points="977.53 352.11 975.48 349.91 986.32 339.84 975.48 329.77 977.53 327.57 990.72 339.84 977.53 352.11"/></g><g><line class="cls-2" x1="783.36" y1="383.04" x2="987.47" y2="383.04"/><polygon class="cls-6" points="977.53 395.31 975.48 393.11 986.32 383.04 975.48 372.97 977.53 370.77 990.72 383.04 977.53 395.31"/></g><g><line class="cls-2" x1="783.36" y1="426.24" x2="987.47" y2="426.24"/><polygon class="cls-6" points="977.53 438.51 975.48 436.31 986.32 426.24 975.48 416.17 977.53 413.97 990.72 426.24 977.53 438.51"/></g><line class="cls-2" x1="783.36" y1="469.44" x2="826.56" y2="469.44"/><g><line class="cls-2" x1="462.24" y1="123.84" x2="607.31" y2="123.84"/><polygon class="cls-6" points="597.37 136.11 595.32 133.91 606.16 123.84 595.32 113.77 597.37 111.57 610.56 123.84 597.37 136.11"/></g><g><line class="cls-2" x1="462.24" y1="167.04" x2="607.31" y2="167.04"/><polygon class="cls-6" points="597.37 179.31 595.32 177.11 606.16 167.04 595.32 156.97 597.37 154.77 610.56 167.04 597.37 179.31"/></g><g><line class="cls-2" x1="462.24" y1="210.24" x2="607.31" y2="210.24"/><polygon class="cls-6" points="597.37 222.51 595.32 220.31 606.16 210.24 595.32 200.17 597.37 197.97 610.56 210.24 597.37 222.51"/></g><g><line class="cls-2" x1="696.96" y1="95.04" x2="696.96" y2="54.56"/><polygon class="cls-6" points="706.5 72.29 703.68 73.32 696.96 54.85 690.24 73.32 687.42 72.29 696.96 46.08 706.5 72.29"/></g><line class="cls-2" x1="696.96" y1="498.24" x2="696.96" y2="541.44"/><line class="cls-2" x1="826.56" y1="532.8" x2="826.56" y2="469.44"/><g><line class="cls-2" x1="826.56" y1="532.8" x2="987.47" y2="532.8"/><polygon class="cls-6" points="977.53 545.07 975.48 542.87 986.32 532.8 975.48 522.73 977.53 520.53 990.72 532.8 977.53 545.07"/></g><polygon class="cls-3" points="696.92 541.44 712.8 541.44 704.86 550.8 696.92 560.16 688.98 550.8 681.04 541.44 696.92 541.44"/></g><g id="TEXT"><text class="cls-7" transform="translate(78.47 95.58)"><tspan x="0" y="0">1</tspan></text><text class="cls-7" transform="translate(78.47 153.18)"><tspan x="0" y="0">2</tspan></text><text class="cls-7" transform="translate(78.47 210.78)"><tspan x="0" y="0">3</tspan></text><text class="cls-7" transform="translate(78.47 268.38)"><tspan x="0" y="0">4</tspan></text><text class="cls-7" transform="translate(78.47 325.98)"><tspan x="0" y="0">5</tspan></text><text class="cls-7" transform="translate(78.47 383.58)"><tspan x="0" y="0">6</tspan></text><text class="cls-7" transform="translate(78.47 441.18)"><tspan x="0" y="0">7</tspan></text><text class="cls-7" transform="translate(331.89 210.78)"><tspan x="0" y="0">14</tspan></text><text class="cls-7" transform="translate(331.89 268.38)"><tspan x="0" y="0">13</tspan></text><text class="cls-7" transform="translate(331.89 325.98)"><tspan x="0" y="0">12</tspan></text><text class="cls-7" transform="translate(331.89 383.58)"><tspan x="0" y="0">11</tspan></text><text class="cls-7" transform="translate(331.89 441.18)"><tspan x="0" y="0">10</tspan></text><text class="cls-7" transform="translate(337.67 498.78)"><tspan x="0" y="0">9</tspan></text><text class="cls-5" transform="translate(112.32 498.78)"><tspan class="cls-9" x="0" y="0">V</tspan><tspan class="cls-10" x="11.45" y="0">SS</tspan></text><text class="cls-5" transform="translate(293.93 95.58)"><tspan class="cls-9" x="0" y="0">V</tspan><tspan class="cls-10" x="11.45" y="0">DD</tspan></text><text class="cls-7" transform="translate(181.15 558.72)"><tspan x="0" y="0">CD4022</tspan></text><text class="cls-7" transform="translate(78.47 498.78)"><tspan x="0" y="0">8</tspan></text><text class="cls-7" transform="translate(331.89 95.58)"><tspan x="0" y="0">16</tspan></text><text class="cls-7" transform="translate(331.89 153.18)"><tspan x="0" y="0">15</tspan></text><text class="cls-7" transform="translate(112.32 95.58)"><tspan x="0" y="0">”1“</tspan></text><text class="cls-7" transform="translate(112.32 153.18)"><tspan x="0" y="0">”0“</tspan></text><text class="cls-7" transform="translate(112.32 210.78)"><tspan x="0" y="0">“2“</tspan></text><text class="cls-7" transform="translate(112.32 268.38)"><tspan x="0" y="0">“5“</tspan></text><text class="cls-7" transform="translate(112.32 325.98)"><tspan x="0" y="0">“6“</tspan></text><text class="cls-7" transform="translate(112.32 383.58)"><tspan x="0" y="0">NC</tspan></text><text class="cls-7" transform="translate(112.32 441.18)"><tspan x="0" y="0">“3“</tspan></text><text class="cls-7" transform="translate(269.03 210.78)"><tspan x="0" y="0">Clock</tspan></text><text class="cls-7" transform="translate(215.11 268.38)"><tspan x="0" y="0">Clock Inhibit</tspan></text><text class="cls-7" transform="translate(238.92 325.98)"><tspan x="0" y="0">Car</tspan><tspan class="cls-8" x="27.6" y="0">r</tspan><tspan x="33.85" y="0">y Out</tspan></text><text class="cls-7" transform="translate(291.09 383.58)"><tspan x="0" y="0">“4“</tspan></text><text class="cls-7" transform="translate(291.09 441.18)"><tspan x="0" y="0">“7“</tspan></text><text class="cls-7" transform="translate(289.37 498.78)"><tspan x="0" y="0">NC</tspan></text><text class="cls-7" transform="translate(268.6 153.18)"><tspan x="0" y="0">Reset</tspan></text><text class="cls-7" transform="translate(571.65 115.2)"><tspan x="0" y="0">15</tspan></text><text class="cls-7" transform="translate(571.65 158.4)"><tspan x="0" y="0">14</tspan></text><text class="cls-7" transform="translate(571.65 203.04)"><tspan x="0" y="0">13</tspan></text><text class="cls-7" transform="translate(792.71 118.08)"><tspan x="0" y="0">2</tspan></text><text class="cls-7" transform="translate(792.71 161.28)"><tspan x="0" y="0">1</tspan></text><text class="cls-7" transform="translate(792.71 204.48)"><tspan x="0" y="0">3</tspan></text><text class="cls-7" transform="translate(792.71 247.68)"><tspan x="0" y="0">7</tspan></text><text class="cls-7" transform="translate(787.65 290.88)"><tspan x="0" y="0">11</tspan></text><text class="cls-7" transform="translate(792.71 334.08)"><tspan x="0" y="0">4</tspan></text><text class="cls-7" transform="translate(792.71 377.28)"><tspan x="0" y="0">5</tspan></text><text class="cls-7" transform="translate(787.65 420.48)"><tspan x="0" y="0">10</tspan></text><text class="cls-7" transform="translate(787.65 463.68)"><tspan x="0" y="0">12</tspan></text><text class="cls-5" transform="translate(714.35 563.04)"><tspan class="cls-9" x="0" y="0">V</tspan><tspan class="cls-10" x="11.45" y="0">SS</tspan></text><text class="cls-7" transform="translate(461.39 160.38)"><tspan x="0" y="0">Clock</tspan></text><text class="cls-7" transform="translate(458.2 206.46)"><tspan x="0" y="0">Clock Inhibit</tspan></text><text class="cls-7" transform="translate(461.18 120.06)"><tspan x="0" y="0">Reset</tspan></text><text class="cls-7" transform="translate(871.14 527.58)"><tspan x="0" y="0">Car</tspan><tspan class="cls-8" x="27.6" y="0">r</tspan><tspan x="33.85" y="0">y Out</tspan></text><text class="cls-5" transform="translate(707.85 61.92)"><tspan class="cls-9" x="0" y="0">V</tspan><tspan class="cls-10" x="11.45" y="0">DD</tspan></text><text class="cls-7" transform="translate(993.7 129.6)"><tspan x="0" y="0">“0“</tspan></text><text class="cls-7" transform="translate(993.7 172.8)"><tspan x="0" y="0">“1“</tspan></text><text class="cls-7" transform="translate(993.7 216)"><tspan x="0" y="0">“2“</tspan></text><text class="cls-7" transform="translate(993.7 259.2)"><tspan x="0" y="0">“3“</tspan></text><text class="cls-7" transform="translate(993.7 302.4)"><tspan x="0" y="0">“4“</tspan></text><text class="cls-7" transform="translate(993.7 345.6)"><tspan x="0" y="0">“5“</tspan></text><text class="cls-7" transform="translate(993.7 388.8)"><tspan x="0" y="0">“6“</tspan></text><text class="cls-7" transform="translate(993.7 432)"><tspan x="0" y="0">“7“</tspan></text><text class="cls-7" transform="translate(764.64 347.26) rotate(-90)"><tspan x="0" y="0">Decoded Outputs</tspan></text><text class="cls-7" transform="translate(673.89 91.26)"><tspan x="0" y="0">16</tspan></text><text class="cls-7" transform="translate(682.55 517.5)"><tspan x="0" y="0">8</tspan></text></g></svg>