<?xml version="1.0" encoding="UTF-8"?><svg xmlns="http://www.w3.org/2000/svg" viewBox="0 0 1080 600.48"><defs><style>.cls-1{stroke-width:3px;}.cls-1,.cls-2,.cls-3,.cls-4,.cls-5,.cls-6,.cls-7,.cls-8,.cls-9,.cls-10,.cls-11,.cls-12,.cls-13,.cls-14,.cls-15,.cls-16{fill:none;stroke:#1d1e1b;stroke-miterlimit:10;}.cls-2{stroke-width:1.09px;}.cls-3{stroke-dasharray:0 0 2.02 2.02;}.cls-4{stroke-width:2.26px;}.cls-5{stroke-dasharray:0 0 1.92 1.92;}.cls-17{fill:#1d1e1b;}.cls-6{stroke-width:.84px;}.cls-7{stroke-dasharray:0 0 2.05 2.05;}.cls-8{stroke-dasharray:0 0 2.07 2.07;}.cls-9{stroke-dasharray:0 0 2.06 2.06;}.cls-10{stroke-dasharray:0 0 1.96 1.96;}.cls-11{stroke-dasharray:0 0 2.06 2.06;}.cls-12{stroke-width:2px;}.cls-13{stroke-width:2px;}.cls-15{stroke-width:1.18px;}.cls-16{stroke-width:1.96px;}</style></defs><g id="Linie"><line class="cls-13" x1="725.76" y1="180" x2="769.94" y2="163.15"/><g><line class="cls-13" x1="745.92" y1="115.2" x2="745.92" y2="54.56"/><polygon class="cls-17" points="755.46 72.29 752.64 73.32 745.92 54.85 739.2 73.32 736.38 72.29 745.92 46.08 755.46 72.29"/></g><line class="cls-13" x1="745.92" y1="475.2" x2="745.92" y2="522.72"/><polygon class="cls-13" points="731.52 522.72 760.32 522.72 745.92 540 731.52 522.72"/><line class="cls-12" x1="659.52" y1="181.44" x2="594.72" y2="181.44"/><line class="cls-12" x1="780.48" y1="181.44" x2="897.12" y2="181.44"/><rect class="cls-15" x="709.92" y="151.2" width="72" height="43.2"/><line class="cls-13" x1="745.92" y1="151.2" x2="745.92" y2="129.6"/><line class="cls-4" x1="542.88" y1="129.6" x2="745.73" y2="129.6"/><line class="cls-12" x1="659.52" y1="181.44" x2="717.12" y2="181.44"/><line class="cls-12" x1="774.72" y1="181.44" x2="810.72" y2="181.44"/><g><line class="cls-14" x1="745.92" y1="138.24" x2="745.92" y2="139.24"/><line class="cls-8" x1="745.92" y1="141.32" x2="745.92" y2="169.32"/><line class="cls-14" x1="745.92" y1="170.36" x2="745.92" y2="171.36"/></g><rect class="cls-16" x="659.52" y="115.2" width="172.8" height="360"/><rect class="cls-15" x="710.59" y="237.6" width="72" height="43.2"/><line class="cls-13" x1="746.59" y1="237.6" x2="746.59" y2="216"/><line class="cls-4" x1="543.74" y1="216" x2="746.59" y2="216"/><g><line class="cls-14" x1="746.59" y1="224.64" x2="746.59" y2="225.64"/><line class="cls-8" x1="746.59" y1="227.72" x2="746.59" y2="255.72"/><line class="cls-14" x1="746.59" y1="256.76" x2="746.59" y2="257.76"/></g><rect class="cls-15" x="709.92" y="324" width="72" height="43.2"/><line class="cls-13" x1="745.92" y1="324" x2="745.92" y2="302.4"/><line class="cls-4" x1="542.88" y1="302.4" x2="745.73" y2="302.4"/><g><line class="cls-14" x1="745.92" y1="311.04" x2="745.92" y2="312.04"/><line class="cls-8" x1="745.92" y1="314.12" x2="745.92" y2="342.12"/><line class="cls-14" x1="745.92" y1="343.16" x2="745.92" y2="344.16"/></g><rect class="cls-15" x="710.59" y="410.4" width="72" height="43.2"/><line class="cls-13" x1="746.59" y1="410.4" x2="746.59" y2="388.8"/><line class="cls-4" x1="543.74" y1="388.8" x2="746.59" y2="388.8"/><g><line class="cls-14" x1="746.59" y1="397.44" x2="746.59" y2="398.44"/><line class="cls-8" x1="746.59" y1="400.52" x2="746.59" y2="428.52"/><line class="cls-14" x1="746.59" y1="429.56" x2="746.59" y2="430.56"/></g><circle class="cls-2" cx="721.44" cy="181.44" r="4.32"/><circle class="cls-2" cx="770.4" cy="181.44" r="4.32"/><line class="cls-13" x1="725.76" y1="264.99" x2="769.94" y2="248.13"/><line class="cls-12" x1="659.52" y1="266.43" x2="594.72" y2="266.43"/><line class="cls-12" x1="780.48" y1="266.43" x2="897.12" y2="266.4"/><line class="cls-12" x1="659.52" y1="266.42" x2="717.12" y2="266.43"/><line class="cls-12" x1="774.72" y1="266.43" x2="810.72" y2="266.43"/><circle class="cls-2" cx="721.44" cy="266.43" r="4.32"/><circle class="cls-2" cx="770.4" cy="266.43" r="4.32"/><line class="cls-13" x1="725.76" y1="352.8" x2="769.94" y2="335.95"/><line class="cls-12" x1="659.52" y1="354.24" x2="594.72" y2="354.24"/><line class="cls-12" x1="780.48" y1="354.24" x2="897.12" y2="354.24"/><line class="cls-12" x1="659.52" y1="354.24" x2="717.12" y2="354.24"/><line class="cls-12" x1="774.72" y1="354.24" x2="810.72" y2="354.24"/><circle class="cls-2" cx="721.44" cy="354.24" r="4.32"/><circle class="cls-2" cx="770.4" cy="354.24" r="4.32"/><line class="cls-13" x1="725.76" y1="439.2" x2="769.94" y2="422.35"/><line class="cls-12" x1="659.52" y1="440.64" x2="594.72" y2="440.64"/><line class="cls-12" x1="780.48" y1="440.64" x2="897.12" y2="440.64"/><line class="cls-12" x1="659.52" y1="440.64" x2="717.12" y2="440.64"/><line class="cls-12" x1="774.72" y1="440.64" x2="810.72" y2="440.64"/><circle class="cls-2" cx="721.44" cy="440.64" r="4.32"/><circle class="cls-2" cx="770.4" cy="440.64" r="4.32"/><line class="cls-1" x1="97.92" y1="86.4" x2="198.72" y2="86.4"/><line class="cls-1" x1="227.52" y1="86.4" x2="328.32" y2="86.4"/><path class="cls-1" d="M227.52,86.4c0,7.95-6.45,14.4-14.4,14.4s-14.4-6.45-14.4-14.4"/><rect class="cls-14" x="69.12" y="115.2" width="28.8" height="28.8"/><rect class="cls-14" x="69.12" y="172.8" width="28.8" height="28.8"/><rect class="cls-14" x="69.12" y="230.4" width="28.8" height="28.8"/><line class="cls-1" x1="97.92" y1="86.4" x2="97.92" y2="518.4"/><line class="cls-1" x1="97.92" y1="518.4" x2="328.32" y2="518.4"/><line class="cls-1" x1="328.32" y1="86.4" x2="328.32" y2="518.4"/><rect class="cls-14" x="69.12" y="288" width="28.8" height="28.8"/><rect class="cls-14" x="69.12" y="345.6" width="28.8" height="28.8"/><rect class="cls-14" x="69.12" y="403.2" width="28.8" height="28.8"/><rect class="cls-14" x="69.12" y="460.8" width="28.8" height="28.8"/><rect class="cls-14" x="328.32" y="115.2" width="28.8" height="28.8"/><rect class="cls-14" x="328.32" y="172.8" width="28.8" height="28.8"/><rect class="cls-14" x="328.32" y="230.4" width="28.8" height="28.8"/><rect class="cls-14" x="328.32" y="288" width="28.8" height="28.8"/><rect class="cls-14" x="328.32" y="345.6" width="28.8" height="28.8"/><rect class="cls-14" x="328.32" y="403.2" width="28.8" height="28.8"/><rect class="cls-14" x="328.32" y="460.8" width="28.8" height="28.8"/><line class="cls-13" x1="141.12" y1="144" x2="155.52" y2="169.92"/><rect class="cls-6" x="123.12" y="140.4" width="43.2" height="36" transform="translate(303.12 13.68) rotate(90)"/><g><line class="cls-12" x1="141.12" y1="144.02" x2="141.12" y2="129.6"/><path class="cls-17" d="M144.13,143.87c0,1.66-1.35,3.01-3.01,3.01s-3.01-1.35-3.01-3.01,1.35-3.01,3.01-3.01,3.01,1.35,3.01,3.01Z"/></g><g><line class="cls-12" x1="141.12" y1="172.78" x2="141.12" y2="187.2"/><circle class="cls-17" cx="141.12" cy="172.93" r="3.01" transform="translate(-58.43 272.93) rotate(-77.4)"/></g><line class="cls-12" x1="97.92" y1="129.6" x2="141.12" y2="129.6"/><line class="cls-12" x1="97.92" y1="187.2" x2="141.12" y2="187.2"/><line class="cls-13" x1="141.12" y1="259.2" x2="155.52" y2="285.12"/><rect class="cls-6" x="123.12" y="255.6" width="43.2" height="36" transform="translate(418.32 128.88) rotate(90)"/><g><line class="cls-14" x1="184.32" y1="273.6" x2="183.32" y2="273.6"/><line class="cls-5" x1="181.4" y1="273.6" x2="151.72" y2="273.6"/><line class="cls-14" x1="150.76" y1="273.6" x2="149.76" y2="273.6"/></g><g><line class="cls-12" x1="141.12" y1="259.22" x2="141.12" y2="244.8"/><path class="cls-17" d="M144.13,259.07c0,1.66-1.35,3.01-3.01,3.01s-3.01-1.35-3.01-3.01,1.35-3.01,3.01-3.01,3.01,1.35,3.01,3.01Z"/></g><g><line class="cls-12" x1="141.12" y1="287.98" x2="141.12" y2="302.4"/><path class="cls-17" d="M138.11,288.13c0-1.66,1.35-3.01,3.01-3.01s3.01,1.35,3.01,3.01-1.35,3.01-3.01,3.01-3.01-1.35-3.01-3.01Z"/></g><line class="cls-12" x1="97.92" y1="244.8" x2="141.12" y2="244.8"/><line class="cls-12" x1="97.92" y1="302.4" x2="141.12" y2="302.4"/><g><line class="cls-14" x1="328.32" y1="187.2" x2="327.32" y2="187.2"/><line class="cls-3" x1="325.3" y1="187.2" x2="229.53" y2="187.2"/><line class="cls-14" x1="228.52" y1="187.2" x2="227.52" y2="187.2"/></g><g><line class="cls-14" x1="227.52" y1="158.4" x2="227.52" y2="159.4"/><line class="cls-11" x1="227.52" y1="161.46" x2="227.52" y2="185.17"/><line class="cls-14" x1="227.52" y1="186.2" x2="227.52" y2="187.2"/></g><line class="cls-13" x1="285.12" y1="460.8" x2="270.72" y2="434.88"/><rect class="cls-6" x="259.92" y="428.4" width="43.2" height="36" transform="translate(-164.88 727.92) rotate(-90)"/><g><line class="cls-14" x1="198.72" y1="446.4" x2="199.72" y2="446.4"/><line class="cls-7" x1="201.77" y1="446.4" x2="274.46" y2="446.4"/><line class="cls-14" x1="275.48" y1="446.4" x2="276.48" y2="446.4"/></g><g><line class="cls-12" x1="285.12" y1="460.78" x2="285.12" y2="475.2"/><circle class="cls-17" cx="285.12" cy="460.93" r="3.01"/></g><g><line class="cls-12" x1="285.12" y1="432.02" x2="285.12" y2="417.6"/><circle class="cls-17" cx="285.12" cy="431.87" r="3.01"/></g><line class="cls-12" x1="328.32" y1="475.2" x2="285.12" y2="475.2"/><line class="cls-12" x1="328.32" y1="417.6" x2="285.12" y2="417.6"/><line class="cls-13" x1="285.12" y1="345.6" x2="270.72" y2="319.68"/><rect class="cls-6" x="259.92" y="313.2" width="43.2" height="36" transform="translate(-49.68 612.72) rotate(-90)"/><g><line class="cls-14" x1="241.92" y1="331.2" x2="242.92" y2="331.2"/><line class="cls-5" x1="244.84" y1="331.2" x2="274.52" y2="331.2"/><line class="cls-14" x1="275.48" y1="331.2" x2="276.48" y2="331.2"/></g><g><line class="cls-12" x1="285.12" y1="345.58" x2="285.12" y2="360"/><path class="cls-17" d="M282.11,345.73c0-1.66,1.35-3.01,3.01-3.01s3.01,1.35,3.01,3.01-1.35,3.01-3.01,3.01-3.01-1.35-3.01-3.01Z"/></g><g><line class="cls-12" x1="285.12" y1="316.82" x2="285.12" y2="302.4"/><path class="cls-17" d="M288.13,316.67c0,1.66-1.35,3.01-3.01,3.01s-3.01-1.35-3.01-3.01,1.35-3.01,3.01-3.01,3.01,1.35,3.01,3.01Z"/></g><line class="cls-12" x1="328.32" y1="360" x2="285.12" y2="360"/><line class="cls-12" x1="328.32" y1="302.4" x2="285.12" y2="302.4"/><g><line class="cls-14" x1="184.32" y1="360" x2="184.32" y2="359"/><line class="cls-10" x1="184.32" y1="357.04" x2="184.32" y2="275.58"/><line class="cls-14" x1="184.32" y1="274.6" x2="184.32" y2="273.6"/></g><g><line class="cls-14" x1="184.32" y1="360" x2="183.32" y2="360"/><line class="cls-10" x1="181.36" y1="360" x2="99.9" y2="360"/><line class="cls-14" x1="98.92" y1="360" x2="97.92" y2="360"/></g><g><line class="cls-14" x1="97.92" y1="417.6" x2="98.92" y2="417.6"/><line class="cls-3" x1="100.94" y1="417.6" x2="196.71" y2="417.6"/><line class="cls-14" x1="197.72" y1="417.6" x2="198.72" y2="417.6"/></g><g><line class="cls-14" x1="198.72" y1="446.33" x2="198.72" y2="445.33"/><line class="cls-9" x1="198.72" y1="443.28" x2="198.72" y2="419.63"/><line class="cls-14" x1="198.72" y1="418.6" x2="198.72" y2="417.6"/></g><g><line class="cls-14" x1="241.92" y1="331.2" x2="241.92" y2="330.2"/><line class="cls-10" x1="241.92" y1="328.24" x2="241.92" y2="246.78"/><line class="cls-14" x1="241.92" y1="245.8" x2="241.92" y2="244.8"/></g><g><line class="cls-14" x1="328.32" y1="244.8" x2="327.32" y2="244.8"/><line class="cls-10" x1="325.36" y1="244.8" x2="243.9" y2="244.8"/><line class="cls-14" x1="242.92" y1="244.8" x2="241.92" y2="244.8"/></g><line class="cls-13" x1="198.72" y1="54.72" x2="224.64" y2="40.32"/><rect class="cls-6" x="191.52" y="33.12" width="43.2" height="36"/><g><line class="cls-12" x1="198.74" y1="54.72" x2="155.52" y2="54.72"/><path class="cls-17" d="M198.59,51.71c1.66,0,3.01,1.35,3.01,3.01s-1.35,3.01-3.01,3.01-3.01-1.35-3.01-3.01,1.35-3.01,3.01-3.01Z"/></g><g><line class="cls-14" x1="213.12" y1="18.72" x2="213.12" y2="19.72"/><line class="cls-11" x1="213.12" y1="21.78" x2="213.12" y2="45.49"/><line class="cls-14" x1="213.12" y1="46.52" x2="213.12" y2="47.52"/></g><g><line class="cls-12" x1="227.5" y1="54.72" x2="270.72" y2="54.72"/><path class="cls-17" d="M227.65,57.73c-1.66,0-3.01-1.35-3.01-3.01s1.35-3.01,3.01-3.01,3.01,1.35,3.01,3.01-1.35,3.01-3.01,3.01Z"/></g><g><line class="cls-14" x1="149.76" y1="158.4" x2="150.76" y2="158.4"/><line class="cls-7" x1="152.81" y1="158.4" x2="225.5" y2="158.4"/><line class="cls-14" x1="226.52" y1="158.4" x2="227.52" y2="158.4"/></g></g><g id="TEXT_Vector"><path class="cls-17" d="M850.41,177.12h-8.38v-1.17l4.43-4.92c.66-.74,1.11-1.35,1.36-1.81s.37-.95,.37-1.45c0-.67-.2-1.22-.61-1.64s-.94-.64-1.62-.64c-.81,0-1.44,.23-1.88,.69s-.67,1.1-.67,1.92h-1.63c0-1.18,.38-2.13,1.14-2.86s1.77-1.09,3.04-1.09c1.19,0,2.13,.31,2.82,.94s1.04,1.45,1.04,2.49c0,1.26-.8,2.76-2.41,4.5l-3.43,3.72h6.42v1.33Z"/><g><path class="cls-17" d="M639.95,125.28h-1.63v-10.84l-3.28,1.2v-1.48l4.66-1.75h.25v12.86Z"/><path class="cls-17" d="M647.08,118.09h1.22c.77-.01,1.37-.21,1.81-.61s.66-.92,.66-1.59c0-1.5-.75-2.25-2.24-2.25-.7,0-1.26,.2-1.68,.6s-.63,.93-.63,1.6h-1.63c0-1.01,.37-1.86,1.11-2.53s1.68-1.01,2.83-1.01c1.21,0,2.15,.32,2.84,.96s1.03,1.53,1.03,2.66c0,.56-.18,1.1-.54,1.62s-.85,.91-1.47,1.17c.7,.22,1.25,.59,1.63,1.11s.58,1.15,.58,1.89c0,1.15-.38,2.06-1.12,2.73s-1.73,1.01-2.93,1.01-2.18-.33-2.93-.98-1.13-1.51-1.13-2.58h1.63c0,.67,.22,1.21,.66,1.62s1.03,.61,1.77,.61c.79,0,1.39-.21,1.8-.62s.62-1,.62-1.77-.23-1.32-.69-1.71-1.12-.6-1.98-.62h-1.22v-1.33Z"/></g><path class="cls-17" d="M650.06,177.12h-1.63v-10.84l-3.28,1.2v-1.48l4.66-1.75h.25v12.86Z"/><g><path class="cls-17" d="M767.6,542.08l3.66-10.56h1.85l-4.75,12.8h-1.49l-4.74-12.8h1.84l3.64,10.56Z"/><path class="cls-17" d="M776.83,540.52c-.96-.28-1.67-.62-2.11-1.02s-.66-.9-.66-1.5c0-.67,.27-1.23,.81-1.67s1.24-.66,2.09-.66c.59,0,1.11,.11,1.57,.34s.81,.54,1.07,.94,.38,.83,.38,1.31h-1.13c0-.52-.16-.92-.49-1.22s-.79-.44-1.39-.44c-.55,0-.99,.12-1.3,.37-.31,.24-.47,.58-.47,1.02,0,.35,.15,.64,.44,.88,.29,.24,.8,.46,1.51,.66,.71,.2,1.26,.42,1.66,.66s.7,.52,.89,.84,.29,.7,.29,1.13c0,.69-.27,1.25-.81,1.66s-1.26,.62-2.16,.62c-.59,0-1.13-.11-1.64-.34s-.9-.53-1.17-.92-.41-.83-.41-1.33h1.13c0,.52,.19,.92,.57,1.22s.89,.45,1.53,.45c.59,0,1.05-.12,1.37-.36s.47-.57,.47-.99-.15-.74-.44-.97-.82-.45-1.59-.68Z"/><path class="cls-17" d="M783.95,540.52c-.96-.28-1.67-.62-2.11-1.02s-.66-.9-.66-1.5c0-.67,.27-1.23,.81-1.67s1.24-.66,2.09-.66c.59,0,1.11,.11,1.57,.34s.81,.54,1.07,.94,.38,.83,.38,1.31h-1.13c0-.52-.16-.92-.49-1.22s-.79-.44-1.39-.44c-.55,0-.99,.12-1.3,.37-.31,.24-.47,.58-.47,1.02,0,.35,.15,.64,.44,.88,.29,.24,.8,.46,1.51,.66,.71,.2,1.26,.42,1.66,.66s.7,.52,.89,.84,.29,.7,.29,1.13c0,.69-.27,1.25-.81,1.66s-1.26,.62-2.16,.62c-.59,0-1.13-.11-1.64-.34s-.9-.53-1.17-.92-.41-.83-.41-1.33h1.13c0,.52,.19,.92,.57,1.22s.89,.45,1.53,.45c.59,0,1.05-.12,1.37-.36s.47-.57,.47-.99-.15-.74-.44-.97-.82-.45-1.59-.68Z"/></g><g><path class="cls-17" d="M762.53,51.04l3.66-10.56h1.85l-4.75,12.8h-1.49l-4.74-12.8h1.84l3.64,10.56Z"/><path class="cls-17" d="M769.25,53.28v-8.53h2.41c.74,0,1.4,.16,1.97,.49s1.01,.79,1.32,1.4,.47,1.3,.47,2.09v.54c0,.8-.16,1.51-.47,2.12s-.75,1.07-1.33,1.39-1.25,.49-2.01,.5h-2.36Zm1.12-7.61v6.69h1.18c.87,0,1.54-.27,2.02-.81s.72-1.31,.72-2.31v-.5c0-.97-.23-1.72-.68-2.26-.46-.54-1.1-.81-1.94-.82h-1.31Z"/><path class="cls-17" d="M777.12,53.28v-8.53h2.41c.74,0,1.4,.16,1.97,.49s1.01,.79,1.32,1.4,.47,1.3,.47,2.09v.54c0,.8-.16,1.51-.47,2.12s-.75,1.07-1.33,1.39-1.25,.49-2.01,.5h-2.36Zm1.12-7.61v6.69h1.18c.87,0,1.54-.27,2.02-.81s.72-1.31,.72-2.31v-.5c0-.97-.23-1.72-.68-2.26-.46-.54-1.1-.81-1.94-.82h-1.31Z"/></g><g><path class="cls-17" d="M729.26,112.32h-1.63v-10.84l-3.28,1.2v-1.48l4.66-1.75h.25v12.86Z"/><path class="cls-17" d="M740.89,108.02h1.78v1.33h-1.78v2.97h-1.63v-2.97h-5.83v-.96l5.73-8.87h1.73v8.5Zm-5.62,0h3.98v-6.28l-.19,.35-3.79,5.92Z"/></g><path class="cls-17" d="M741.55,487.8l-5.3,11.88h-1.71l5.28-11.46h-6.93v-1.34h8.65v.91Z"/><g><path class="cls-17" d="M515.56,187.2h-1.69v-12.8h1.69v12.8Z"/><path class="cls-17" d="M519.92,177.69l.05,1.2c.73-.91,1.68-1.37,2.85-1.37,2.01,0,3.02,1.13,3.04,3.4v6.28h-1.63v-6.29c0-.69-.16-1.19-.47-1.52s-.79-.49-1.44-.49c-.53,0-.99,.14-1.39,.42s-.71,.65-.93,1.11v6.78h-1.63v-9.51h1.54Z"/><path class="cls-17" d="M528.64,188.3h-1.4l5.34-13.9h1.39l-5.33,13.9Z"/><path class="cls-17" d="M545.83,181.21c0,1.25-.21,2.35-.63,3.28s-1.02,1.65-1.79,2.14-1.68,.74-2.71,.74-1.9-.25-2.68-.74-1.38-1.2-1.81-2.12-.65-1.98-.66-3.19v-.92c0-1.23,.21-2.32,.64-3.26s1.03-1.67,1.82-2.17,1.68-.75,2.68-.75,1.93,.25,2.71,.74,1.38,1.21,1.81,2.15,.63,2.03,.63,3.28v.81Zm-1.68-.83c0-1.52-.3-2.68-.91-3.49s-1.46-1.22-2.56-1.22-1.91,.41-2.52,1.22-.93,1.94-.95,3.38v.94c0,1.47,.31,2.63,.93,3.47s1.47,1.26,2.55,1.26,1.93-.4,2.53-1.19,.91-1.93,.92-3.41v-.95Z"/><path class="cls-17" d="M553.98,186.26c-.63,.74-1.56,1.12-2.79,1.12-1.01,0-1.79-.29-2.32-.88s-.8-1.46-.8-2.61v-6.19h1.63v6.14c0,1.44,.59,2.16,1.76,2.16,1.24,0,2.07-.46,2.48-1.39v-6.92h1.63v9.51h-1.55l-.04-.94Z"/><path class="cls-17" d="M560.24,175.39v2.3h1.78v1.26h-1.78v5.9c0,.38,.08,.67,.24,.86,.16,.19,.43,.29,.81,.29,.19,0,.45-.04,.77-.11v1.31c-.43,.12-.84,.17-1.25,.17-.73,0-1.27-.22-1.64-.66s-.55-1.06-.55-1.87v-5.9h-1.73v-1.26h1.73v-2.3h1.63Z"/><path class="cls-17" d="M575.69,183.85h-5.36l-1.2,3.35h-1.74l4.89-12.8h1.48l4.9,12.8h-1.73l-1.22-3.35Zm-4.85-1.38h4.35l-2.18-5.99-2.17,5.99Z"/></g><g><path class="cls-17" d="M916.26,187.2h-1.69v-12.8h1.69v12.8Z"/><path class="cls-17" d="M920.62,177.69l.05,1.2c.73-.91,1.68-1.37,2.85-1.37,2.01,0,3.02,1.13,3.04,3.4v6.28h-1.63v-6.29c0-.69-.16-1.19-.47-1.52s-.79-.49-1.44-.49c-.53,0-.99,.14-1.39,.42s-.71,.65-.93,1.11v6.78h-1.63v-9.51h1.54Z"/><path class="cls-17" d="M929.34,188.3h-1.4l5.34-13.9h1.39l-5.33,13.9Z"/><path class="cls-17" d="M946.53,181.21c0,1.25-.21,2.35-.63,3.28s-1.02,1.65-1.79,2.14-1.68,.74-2.71,.74-1.9-.25-2.68-.74-1.38-1.2-1.81-2.12-.65-1.98-.66-3.19v-.92c0-1.23,.21-2.32,.64-3.26s1.03-1.67,1.82-2.17,1.68-.75,2.68-.75,1.93,.25,2.71,.74,1.38,1.21,1.81,2.15,.63,2.03,.63,3.28v.81Zm-1.68-.83c0-1.52-.3-2.68-.91-3.49s-1.46-1.22-2.56-1.22-1.91,.41-2.52,1.22-.93,1.94-.95,3.38v.94c0,1.47,.31,2.63,.93,3.47s1.47,1.26,2.55,1.26,1.93-.4,2.53-1.19,.91-1.93,.92-3.41v-.95Z"/><path class="cls-17" d="M954.68,186.26c-.63,.74-1.56,1.12-2.79,1.12-1.01,0-1.79-.29-2.32-.88s-.8-1.46-.8-2.61v-6.19h1.63v6.14c0,1.44,.59,2.16,1.76,2.16,1.24,0,2.07-.46,2.48-1.39v-6.92h1.63v9.51h-1.55l-.04-.94Z"/><path class="cls-17" d="M960.94,175.39v2.3h1.78v1.26h-1.78v5.9c0,.38,.08,.67,.24,.86,.16,.19,.43,.29,.81,.29,.19,0,.45-.04,.77-.11v1.31c-.43,.12-.84,.17-1.25,.17-.73,0-1.27-.22-1.64-.66s-.55-1.06-.55-1.87v-5.9h-1.73v-1.26h1.73v-2.3h1.63Z"/><path class="cls-17" d="M976.39,183.85h-5.36l-1.2,3.35h-1.74l4.89-12.8h1.48l4.9,12.8h-1.73l-1.22-3.35Zm-4.85-1.38h4.35l-2.18-5.99-2.17,5.99Z"/></g><g><path class="cls-17" d="M471.87,132.74c-.16,1.35-.66,2.4-1.5,3.13s-1.96,1.1-3.35,1.1c-1.51,0-2.72-.54-3.63-1.63s-1.37-2.53-1.37-4.35v-1.23c0-1.19,.21-2.24,.64-3.14s1.03-1.6,1.81-2.08,1.68-.73,2.71-.73c1.36,0,2.45,.38,3.27,1.14s1.3,1.81,1.43,3.15h-1.7c-.15-1.02-.46-1.76-.95-2.22s-1.17-.69-2.05-.69c-1.08,0-1.92,.4-2.54,1.2-.61,.8-.92,1.93-.92,3.4v1.24c0,1.39,.29,2.5,.87,3.32s1.39,1.23,2.43,1.23c.94,0,1.66-.21,2.16-.64s.83-1.16,1-2.22h1.7Z"/><path class="cls-17" d="M473.49,131.96c0-.93,.18-1.77,.55-2.51s.88-1.32,1.53-1.72,1.4-.61,2.24-.61c1.29,0,2.34,.45,3.14,1.34s1.2,2.09,1.2,3.58v.11c0,.93-.18,1.76-.53,2.49s-.86,1.31-1.52,1.72-1.42,.62-2.27,.62c-1.29,0-2.33-.45-3.13-1.34s-1.2-2.08-1.2-3.56v-.11Zm1.63,.19c0,1.05,.24,1.9,.73,2.54s1.14,.96,1.96,.96,1.48-.32,1.97-.97,.73-1.55,.73-2.72c0-1.04-.25-1.89-.74-2.54s-1.15-.97-1.97-.97-1.45,.32-1.94,.96-.74,1.55-.74,2.74Z"/><path class="cls-17" d="M485.72,127.29l.05,1.2c.73-.91,1.68-1.37,2.85-1.37,2.01,0,3.02,1.13,3.04,3.4v6.28h-1.63v-6.29c0-.69-.16-1.19-.47-1.52s-.79-.49-1.44-.49c-.53,0-.99,.14-1.39,.42s-.71,.65-.93,1.11v6.78h-1.63v-9.51h1.54Z"/><path class="cls-17" d="M496.32,124.99v2.3h1.78v1.26h-1.78v5.9c0,.38,.08,.67,.24,.86,.16,.19,.43,.29,.81,.29,.19,0,.45-.04,.77-.11v1.31c-.43,.12-.84,.17-1.25,.17-.73,0-1.27-.22-1.64-.66s-.55-1.06-.55-1.87v-5.9h-1.73v-1.26h1.73v-2.3h1.63Z"/><path class="cls-17" d="M504.59,128.75c-.25-.04-.51-.06-.8-.06-1.07,0-1.79,.45-2.17,1.36v6.75h-1.63v-9.51h1.58l.03,1.1c.53-.85,1.29-1.27,2.27-1.27,.32,0,.56,.04,.72,.12v1.51Z"/><path class="cls-17" d="M505.48,131.96c0-.93,.18-1.77,.55-2.51s.88-1.32,1.53-1.72,1.4-.61,2.24-.61c1.29,0,2.34,.45,3.14,1.34s1.2,2.09,1.2,3.58v.11c0,.93-.18,1.76-.53,2.49s-.86,1.31-1.52,1.72-1.42,.62-2.27,.62c-1.29,0-2.33-.45-3.13-1.34s-1.2-2.08-1.2-3.56v-.11Zm1.63,.19c0,1.05,.24,1.9,.73,2.54s1.14,.96,1.96,.96,1.48-.32,1.97-.97,.73-1.55,.73-2.72c0-1.04-.25-1.89-.74-2.54s-1.15-.97-1.97-.97-1.45,.32-1.94,.96-.74,1.55-.74,2.74Z"/><path class="cls-17" d="M517.94,136.8h-1.63v-13.5h1.63v13.5Z"/><path class="cls-17" d="M532.32,133.45h-5.36l-1.2,3.35h-1.74l4.89-12.8h1.48l4.9,12.8h-1.73l-1.22-3.35Zm-4.85-1.38h4.35l-2.18-5.99-2.17,5.99Z"/></g><path class="cls-17" d="M848.89,259.22h1.78v1.33h-1.78v2.97h-1.63v-2.97h-5.83v-.96l5.73-8.87h1.73v8.5Zm-5.62,0h3.98v-6.28l-.19,.35-3.79,5.92Z"/><path class="cls-17" d="M645.46,205.26l.65-6.38h6.56v1.5h-5.18l-.39,3.49c.63-.37,1.34-.55,2.14-.55,1.17,0,2.09,.39,2.78,1.16s1.03,1.81,1.03,3.12-.36,2.36-1.07,3.12-1.71,1.14-2.98,1.14c-1.13,0-2.05-.31-2.77-.94s-1.12-1.49-1.22-2.6h1.54c.1,.73,.36,1.28,.78,1.66s.98,.56,1.67,.56c.76,0,1.35-.26,1.78-.77s.65-1.23,.65-2.14c0-.86-.23-1.54-.7-2.06s-1.09-.78-1.86-.78c-.71,0-1.27,.16-1.67,.47l-.43,.35-1.3-.33Z"/><path class="cls-17" d="M647.08,256.33h1.22c.77-.01,1.37-.21,1.81-.61s.66-.92,.66-1.59c0-1.5-.75-2.25-2.24-2.25-.7,0-1.26,.2-1.68,.6s-.63,.93-.63,1.6h-1.63c0-1.01,.37-1.86,1.11-2.53s1.68-1.01,2.83-1.01c1.21,0,2.15,.32,2.84,.96s1.03,1.53,1.03,2.66c0,.56-.18,1.1-.54,1.62s-.85,.91-1.47,1.17c.7,.22,1.25,.59,1.63,1.11s.58,1.15,.58,1.89c0,1.15-.38,2.06-1.12,2.73s-1.73,1.01-2.93,1.01-2.18-.32-2.93-.98-1.13-1.51-1.13-2.58h1.63c0,.67,.22,1.21,.66,1.62s1.03,.61,1.77,.61c.79,0,1.39-.21,1.8-.62s.62-1,.62-1.77-.23-1.32-.69-1.71-1.12-.6-1.98-.62h-1.22v-1.33Z"/><g><path class="cls-17" d="M517.53,273.6h-1.69v-12.8h1.69v12.8Z"/><path class="cls-17" d="M521.9,264.09l.05,1.2c.73-.91,1.68-1.37,2.85-1.37,2.01,0,3.02,1.13,3.04,3.4v6.28h-1.63v-6.29c0-.69-.16-1.19-.47-1.52s-.79-.49-1.44-.49c-.53,0-.99,.14-1.39,.42s-.71,.65-.93,1.11v6.78h-1.63v-9.51h1.54Z"/><path class="cls-17" d="M530.62,274.7h-1.4l5.34-13.9h1.39l-5.33,13.9Z"/><path class="cls-17" d="M547.81,267.61c0,1.25-.21,2.35-.63,3.28s-1.02,1.65-1.79,2.14-1.68,.74-2.71,.74-1.9-.25-2.68-.74-1.38-1.2-1.81-2.12-.65-1.98-.66-3.19v-.92c0-1.23,.21-2.32,.64-3.26s1.03-1.67,1.82-2.17,1.68-.75,2.68-.75,1.93,.25,2.71,.74,1.38,1.21,1.81,2.15,.63,2.03,.63,3.28v.81Zm-1.68-.83c0-1.52-.3-2.68-.91-3.49s-1.46-1.22-2.56-1.22-1.91,.41-2.52,1.22-.93,1.94-.95,3.38v.94c0,1.47,.31,2.63,.93,3.47s1.47,1.26,2.55,1.26,1.93-.4,2.53-1.19,.91-1.93,.92-3.42v-.95Z"/><path class="cls-17" d="M555.96,272.66c-.63,.74-1.56,1.12-2.79,1.12-1.01,0-1.79-.29-2.32-.88s-.8-1.46-.8-2.62v-6.19h1.63v6.14c0,1.44,.59,2.16,1.76,2.16,1.24,0,2.07-.46,2.48-1.39v-6.92h1.63v9.51h-1.55l-.04-.94Z"/><path class="cls-17" d="M562.21,261.79v2.3h1.78v1.26h-1.78v5.91c0,.38,.08,.67,.24,.86,.16,.19,.43,.29,.81,.29,.19,0,.45-.04,.77-.11v1.31c-.43,.12-.84,.17-1.25,.17-.73,0-1.27-.22-1.64-.66s-.55-1.06-.55-1.87v-5.9h-1.73v-1.26h1.73v-2.3h1.63Z"/><path class="cls-17" d="M570.6,273.6v-12.8h4.18c1.39,0,2.43,.29,3.13,.86s1.05,1.42,1.05,2.55c0,.6-.17,1.13-.51,1.59s-.8,.82-1.39,1.07c.69,.19,1.24,.56,1.64,1.1s.6,1.19,.6,1.94c0,1.15-.37,2.05-1.12,2.71s-1.8,.98-3.16,.98h-4.44Zm1.69-7.34h2.55c.74,0,1.33-.18,1.77-.55s.66-.87,.66-1.51c0-.71-.21-1.22-.62-1.54s-1.03-.48-1.87-.48h-2.5v4.08Zm0,1.35v4.61h2.79c.79,0,1.41-.2,1.86-.61s.68-.97,.68-1.68c0-1.54-.84-2.31-2.51-2.31h-2.81Z"/></g><g><path class="cls-17" d="M916.26,273.6h-1.69v-12.8h1.69v12.8Z"/><path class="cls-17" d="M920.62,264.09l.05,1.2c.73-.91,1.68-1.37,2.85-1.37,2.01,0,3.02,1.13,3.04,3.4v6.28h-1.63v-6.29c0-.69-.16-1.19-.47-1.52s-.79-.49-1.44-.49c-.53,0-.99,.14-1.39,.42s-.71,.65-.93,1.11v6.78h-1.63v-9.51h1.54Z"/><path class="cls-17" d="M929.34,274.7h-1.4l5.34-13.9h1.39l-5.33,13.9Z"/><path class="cls-17" d="M946.53,267.61c0,1.25-.21,2.35-.63,3.28s-1.02,1.65-1.79,2.14-1.68,.74-2.71,.74-1.9-.25-2.68-.74-1.38-1.2-1.82-2.12-.65-1.98-.66-3.19v-.92c0-1.23,.21-2.32,.64-3.26,.43-.94,1.03-1.67,1.81-2.17s1.68-.75,2.69-.75,1.93,.25,2.71,.74,1.38,1.21,1.81,2.15,.63,2.04,.63,3.28v.81Zm-1.68-.83c0-1.52-.3-2.68-.91-3.49s-1.46-1.22-2.56-1.22-1.91,.41-2.52,1.22-.93,1.94-.94,3.38v.94c0,1.47,.31,2.63,.93,3.47s1.47,1.26,2.55,1.26,1.93-.4,2.53-1.19,.91-1.93,.92-3.41v-.95Z"/><path class="cls-17" d="M954.68,272.66c-.63,.74-1.56,1.12-2.79,1.12-1.01,0-1.79-.29-2.32-.88s-.8-1.46-.8-2.61v-6.19h1.63v6.14c0,1.44,.59,2.16,1.76,2.16,1.24,0,2.07-.46,2.48-1.39v-6.92h1.63v9.51h-1.55l-.04-.94Z"/><path class="cls-17" d="M960.94,261.79v2.3h1.78v1.26h-1.78v5.9c0,.38,.08,.67,.24,.86s.43,.29,.81,.29c.19,0,.45-.04,.77-.11v1.31c-.43,.12-.84,.17-1.25,.17-.73,0-1.27-.22-1.64-.66s-.55-1.06-.55-1.87v-5.9h-1.73v-1.26h1.73v-2.3h1.63Z"/><path class="cls-17" d="M969.32,273.6v-12.8h4.18c1.39,0,2.43,.29,3.13,.86s1.05,1.42,1.05,2.55c0,.6-.17,1.13-.51,1.59s-.8,.82-1.39,1.07c.69,.19,1.24,.56,1.64,1.1s.6,1.19,.6,1.94c0,1.15-.37,2.05-1.12,2.71s-1.8,.98-3.16,.98h-4.44Zm1.69-7.34h2.55c.74,0,1.33-.19,1.77-.55,.44-.37,.66-.87,.66-1.51,0-.7-.21-1.22-.62-1.54-.41-.32-1.03-.48-1.87-.48h-2.5v4.08Zm0,1.35v4.61h2.79c.79,0,1.4-.2,1.86-.61s.68-.97,.68-1.68c0-1.54-.84-2.31-2.51-2.31h-2.81Z"/></g><path class="cls-17" d="M848.26,344.3c-.34,.4-.75,.73-1.22,.98s-.99,.37-1.55,.37c-.74,0-1.38-.18-1.93-.54s-.97-.88-1.27-1.53-.45-1.39-.45-2.18c0-.86,.16-1.63,.49-2.31s.79-1.21,1.38-1.57,1.29-.54,2.09-.54c1.27,0,2.26,.47,2.99,1.42s1.09,2.24,1.09,3.87v.47c0,2.49-.49,4.31-1.48,5.45s-2.47,1.73-4.46,1.76h-.32v-1.38h.34c1.34-.02,2.37-.37,3.09-1.05,.72-.68,1.11-1.74,1.18-3.21Zm-2.51,0c.54,0,1.05-.17,1.51-.5s.79-.75,1.01-1.24v-.65c0-1.07-.23-1.93-.69-2.6s-1.05-1-1.76-1-1.29,.27-1.72,.82-.65,1.27-.65,2.17,.21,1.59,.63,2.16,.98,.85,1.68,.85Z"/><path class="cls-17" d="M651.1,285.27v1.38h-.3c-1.27,.02-2.27,.4-3.02,1.12s-1.18,1.75-1.3,3.07c.67-.77,1.59-1.16,2.76-1.16s2,.39,2.67,1.18,1,1.8,1,3.04c0,1.32-.36,2.37-1.08,3.16s-1.68,1.19-2.89,1.19-2.22-.47-2.98-1.41-1.14-2.15-1.14-3.63v-.62c0-2.36,.5-4.16,1.51-5.4s2.5-1.88,4.49-1.91h.29Zm-2.14,5.77c-.56,0-1.07,.17-1.54,.5s-.79,.75-.98,1.26v.6c0,1.05,.24,1.9,.71,2.55s1.07,.97,1.78,.97,1.31-.27,1.73-.81,.63-1.24,.63-2.12-.21-1.59-.64-2.13-.99-.81-1.69-.81Z"/><path class="cls-17" d="M652.48,340.46c0,.64-.17,1.21-.5,1.71s-.79,.89-1.37,1.17c.67,.29,1.2,.71,1.59,1.26s.58,1.17,.58,1.87c0,1.11-.37,1.99-1.12,2.65s-1.73,.98-2.95,.98-2.22-.33-2.96-.99-1.11-1.54-1.11-2.64c0-.69,.19-1.32,.57-1.87s.9-.98,1.57-1.27c-.57-.28-1.02-.67-1.34-1.17s-.49-1.06-.49-1.7c0-1.08,.35-1.93,1.04-2.57s1.6-.95,2.73-.95,2.04,.32,2.73,.95,1.04,1.49,1.04,2.57Zm-1.33,5.97c0-.71-.23-1.3-.68-1.75s-1.05-.68-1.78-.68-1.32,.22-1.76,.67-.66,1.03-.66,1.76,.22,1.3,.65,1.71,1.03,.62,1.8,.62,1.36-.21,1.79-.63,.65-.99,.65-1.71Zm-2.44-8.15c-.64,0-1.16,.2-1.55,.59s-.59,.93-.59,1.61,.2,1.18,.58,1.58,.91,.6,1.56,.6,1.17-.2,1.56-.6,.58-.93,.58-1.58-.2-1.18-.61-1.59-.92-.62-1.54-.62Z"/><g><path class="cls-17" d="M515.58,360h-1.69v-12.8h1.69v12.8Z"/><path class="cls-17" d="M519.95,350.49l.05,1.2c.73-.91,1.68-1.37,2.85-1.37,2.01,0,3.02,1.13,3.04,3.4v6.28h-1.63v-6.29c0-.69-.16-1.19-.47-1.52s-.79-.49-1.44-.49c-.53,0-.99,.14-1.39,.42s-.71,.65-.93,1.11v6.78h-1.63v-9.51h1.54Z"/><path class="cls-17" d="M528.67,361.1h-1.4l5.34-13.9h1.39l-5.33,13.9Z"/><path class="cls-17" d="M545.86,354.02c0,1.25-.21,2.35-.63,3.28s-1.02,1.65-1.79,2.14-1.68,.74-2.71,.74-1.9-.25-2.68-.74-1.38-1.2-1.82-2.12-.65-1.98-.66-3.19v-.92c0-1.23,.21-2.32,.64-3.26s1.03-1.67,1.81-2.17,1.68-.75,2.69-.75,1.93,.25,2.71,.74,1.38,1.21,1.81,2.15,.63,2.04,.63,3.28v.81Zm-1.68-.83c0-1.52-.3-2.68-.91-3.49s-1.46-1.22-2.56-1.22-1.91,.41-2.52,1.22-.93,1.94-.94,3.38v.94c0,1.47,.31,2.63,.93,3.47s1.47,1.26,2.55,1.26,1.93-.4,2.53-1.19,.91-1.93,.92-3.41v-.95Z"/><path class="cls-17" d="M554.01,359.06c-.63,.74-1.56,1.12-2.79,1.12-1.01,0-1.79-.29-2.32-.88s-.8-1.46-.8-2.61v-6.19h1.63v6.14c0,1.44,.59,2.16,1.76,2.16,1.24,0,2.07-.46,2.48-1.39v-6.92h1.63v9.51h-1.55l-.04-.94Z"/><path class="cls-17" d="M560.27,348.19v2.3h1.78v1.26h-1.78v5.9c0,.38,.08,.67,.24,.86s.43,.29,.81,.29c.19,0,.45-.04,.77-.11v1.31c-.43,.12-.84,.17-1.25,.17-.73,0-1.27-.22-1.64-.66s-.55-1.06-.55-1.87v-5.9h-1.73v-1.26h1.73v-2.3h1.63Z"/><path class="cls-17" d="M578.06,355.94c-.16,1.35-.66,2.4-1.5,3.13s-1.96,1.1-3.35,1.1c-1.51,0-2.72-.54-3.63-1.63s-1.37-2.53-1.37-4.35v-1.23c0-1.19,.21-2.24,.64-3.14s1.03-1.6,1.81-2.08,1.68-.72,2.71-.72c1.36,0,2.45,.38,3.27,1.14s1.3,1.81,1.43,3.15h-1.7c-.15-1.02-.46-1.76-.95-2.22-.49-.46-1.17-.69-2.05-.69-1.08,0-1.92,.4-2.54,1.2s-.92,1.93-.92,3.4v1.24c0,1.39,.29,2.5,.87,3.32,.58,.82,1.39,1.23,2.43,1.23,.94,0,1.66-.21,2.16-.64s.83-1.16,1-2.22h1.7Z"/></g><g><path class="cls-17" d="M916.26,360h-1.69v-12.8h1.69v12.8Z"/><path class="cls-17" d="M920.62,350.49l.05,1.2c.73-.91,1.68-1.37,2.85-1.37,2.01,0,3.02,1.13,3.04,3.4v6.28h-1.63v-6.29c0-.69-.16-1.19-.47-1.52s-.79-.49-1.44-.49c-.53,0-.99,.14-1.39,.42s-.71,.65-.93,1.11v6.78h-1.63v-9.51h1.54Z"/><path class="cls-17" d="M929.34,361.1h-1.4l5.34-13.9h1.39l-5.33,13.9Z"/><path class="cls-17" d="M946.53,354.01c0,1.25-.21,2.35-.63,3.28s-1.02,1.65-1.79,2.14-1.68,.74-2.71,.74-1.9-.25-2.68-.74-1.38-1.2-1.81-2.12-.65-1.98-.66-3.19v-.92c0-1.23,.21-2.32,.64-3.26s1.03-1.67,1.82-2.17,1.68-.75,2.68-.75,1.93,.25,2.71,.74,1.38,1.21,1.81,2.15,.63,2.03,.63,3.28v.81Zm-1.68-.83c0-1.52-.3-2.68-.91-3.49s-1.46-1.22-2.56-1.22-1.91,.41-2.52,1.22-.93,1.94-.95,3.38v.94c0,1.47,.31,2.63,.93,3.47s1.47,1.26,2.55,1.26,1.93-.4,2.53-1.19,.91-1.93,.92-3.42v-.95Z"/><path class="cls-17" d="M954.68,359.06c-.63,.74-1.56,1.12-2.79,1.12-1.01,0-1.79-.29-2.32-.88s-.8-1.46-.8-2.62v-6.19h1.63v6.14c0,1.44,.59,2.16,1.76,2.16,1.24,0,2.07-.46,2.48-1.39v-6.92h1.63v9.51h-1.55l-.04-.94Z"/><path class="cls-17" d="M960.94,348.19v2.3h1.78v1.26h-1.78v5.91c0,.38,.08,.67,.24,.86,.16,.19,.43,.29,.81,.29,.19,0,.45-.04,.77-.11v1.31c-.43,.12-.84,.17-1.25,.17-.73,0-1.27-.22-1.64-.66s-.55-1.06-.55-1.87v-5.9h-1.73v-1.26h1.73v-2.3h1.63Z"/><path class="cls-17" d="M978.74,355.94c-.16,1.35-.66,2.4-1.5,3.13s-1.96,1.1-3.35,1.1c-1.51,0-2.72-.54-3.63-1.63s-1.37-2.53-1.37-4.35v-1.23c0-1.19,.21-2.24,.64-3.14s1.03-1.59,1.81-2.08,1.68-.73,2.71-.73c1.36,0,2.45,.38,3.27,1.14s1.3,1.81,1.43,3.15h-1.7c-.15-1.02-.46-1.76-.95-2.22-.49-.46-1.17-.69-2.05-.69-1.08,0-1.92,.4-2.54,1.2-.61,.8-.92,1.93-.92,3.4v1.24c0,1.39,.29,2.5,.87,3.32,.58,.82,1.39,1.23,2.43,1.23,.94,0,1.66-.21,2.16-.64s.83-1.17,1-2.22h1.7Z"/></g><g><path class="cls-17" d="M845.93,436.32h-1.63v-10.84l-3.28,1.2v-1.48l4.66-1.75h.25v12.86Z"/><path class="cls-17" d="M856.03,436.32h-1.63v-10.84l-3.28,1.2v-1.48l4.66-1.75h.25v12.86Z"/></g><g><path class="cls-17" d="M639.95,384.48h-1.63v-10.84l-3.28,1.2v-1.48l4.66-1.75h.25v12.86Z"/><path class="cls-17" d="M653.1,384.48h-8.38v-1.17l4.43-4.92c.66-.74,1.11-1.35,1.36-1.82s.37-.95,.37-1.45c0-.67-.2-1.22-.61-1.64s-.94-.64-1.62-.64c-.81,0-1.44,.23-1.88,.69s-.67,1.1-.67,1.92h-1.63c0-1.18,.38-2.13,1.14-2.86s1.77-1.09,3.04-1.09c1.19,0,2.13,.31,2.82,.94s1.04,1.46,1.04,2.49c0,1.26-.8,2.76-2.41,4.5l-3.43,3.72h6.42v1.33Z"/></g><g><path class="cls-17" d="M639.95,436.32h-1.63v-10.84l-3.28,1.2v-1.48l4.66-1.75h.25v12.86Z"/><path class="cls-17" d="M652.74,430.86c0,1.9-.33,3.32-.98,4.25s-1.67,1.39-3.05,1.39-2.38-.45-3.03-1.36c-.66-.9-1-2.26-1.02-4.06v-2.17c0-1.88,.33-3.28,.98-4.19s1.67-1.37,3.06-1.37,2.39,.44,3.04,1.32c.65,.88,.98,2.24,1,4.08v2.11Zm-1.63-2.22c0-1.38-.19-2.38-.58-3.01-.39-.63-1-.94-1.84-.94s-1.44,.31-1.82,.94-.58,1.59-.59,2.89v2.6c0,1.38,.2,2.4,.6,3.06,.4,.66,1.01,.99,1.82,.99s1.4-.31,1.79-.93,.59-1.6,.61-2.94v-2.66Z"/></g><g><path class="cls-17" d="M515.49,446.4h-1.69v-12.8h1.69v12.8Z"/><path class="cls-17" d="M519.86,436.89l.05,1.2c.73-.91,1.68-1.37,2.85-1.37,2.01,0,3.02,1.13,3.04,3.4v6.28h-1.63v-6.29c0-.69-.16-1.19-.47-1.52s-.79-.49-1.44-.49c-.53,0-.99,.14-1.39,.42s-.71,.65-.93,1.11v6.78h-1.63v-9.51h1.54Z"/><path class="cls-17" d="M528.58,447.5h-1.4l5.34-13.9h1.39l-5.33,13.9Z"/><path class="cls-17" d="M545.77,440.41c0,1.25-.21,2.35-.63,3.28s-1.02,1.65-1.79,2.14-1.68,.74-2.71,.74-1.9-.25-2.68-.74-1.38-1.2-1.81-2.12-.65-1.98-.66-3.19v-.92c0-1.23,.21-2.32,.64-3.26s1.03-1.67,1.82-2.17,1.68-.75,2.68-.75,1.93,.25,2.71,.74,1.38,1.21,1.81,2.15,.63,2.04,.63,3.28v.81Zm-1.68-.83c0-1.52-.3-2.68-.91-3.49s-1.46-1.22-2.56-1.22-1.91,.41-2.52,1.22-.93,1.94-.95,3.38v.94c0,1.47,.31,2.63,.93,3.47s1.47,1.26,2.55,1.26,1.93-.4,2.53-1.19,.91-1.93,.92-3.41v-.95Z"/><path class="cls-17" d="M553.92,445.46c-.63,.74-1.56,1.12-2.79,1.12-1.01,0-1.79-.29-2.32-.88s-.8-1.46-.8-2.61v-6.19h1.63v6.14c0,1.44,.59,2.16,1.76,2.16,1.24,0,2.07-.46,2.48-1.39v-6.92h1.63v9.51h-1.55l-.04-.94Z"/><path class="cls-17" d="M560.18,434.59v2.3h1.78v1.26h-1.78v5.9c0,.38,.08,.67,.24,.86s.43,.29,.81,.29c.19,0,.45-.04,.77-.11v1.31c-.43,.12-.84,.17-1.25,.17-.73,0-1.27-.22-1.64-.66s-.55-1.06-.55-1.87v-5.9h-1.73v-1.26h1.73v-2.3h1.63Z"/><path class="cls-17" d="M568.56,446.4v-12.8h3.61c1.11,0,2.1,.25,2.95,.74s1.52,1.19,1.98,2.1,.7,1.95,.71,3.13v.82c0,1.21-.23,2.26-.7,3.17s-1.13,1.61-2,2.09-1.87,.74-3.02,.75h-3.54Zm1.69-11.42v10.04h1.78c1.3,0,2.31-.41,3.04-1.21,.72-.81,1.08-1.96,1.08-3.46v-.75c0-1.45-.34-2.58-1.02-3.39-.68-.81-1.65-1.21-2.91-1.23h-1.97Z"/></g><g><path class="cls-17" d="M916.26,446.4h-1.69v-12.8h1.69v12.8Z"/><path class="cls-17" d="M920.62,436.89l.05,1.2c.73-.91,1.68-1.37,2.85-1.37,2.01,0,3.02,1.13,3.04,3.4v6.29h-1.63v-6.29c0-.69-.16-1.19-.47-1.52s-.79-.49-1.44-.49c-.53,0-.99,.14-1.39,.42s-.71,.65-.93,1.11v6.78h-1.63v-9.51h1.54Z"/><path class="cls-17" d="M929.34,447.5h-1.4l5.34-13.89h1.39l-5.33,13.89Z"/><path class="cls-17" d="M946.53,440.41c0,1.25-.21,2.35-.63,3.28s-1.02,1.65-1.79,2.14-1.68,.74-2.71,.74-1.9-.25-2.68-.74-1.38-1.2-1.82-2.12-.65-1.98-.66-3.19v-.92c0-1.23,.21-2.32,.64-3.26s1.03-1.67,1.81-2.17,1.68-.75,2.69-.75,1.93,.25,2.71,.74,1.38,1.21,1.81,2.15,.63,2.03,.63,3.28v.81Zm-1.68-.83c0-1.52-.3-2.68-.91-3.49s-1.46-1.22-2.56-1.22-1.91,.41-2.52,1.22-.93,1.94-.94,3.38v.94c0,1.47,.31,2.63,.93,3.47s1.47,1.26,2.55,1.26,1.93-.4,2.53-1.19,.91-1.93,.92-3.42v-.95Z"/><path class="cls-17" d="M954.68,445.46c-.63,.74-1.56,1.12-2.79,1.12-1.01,0-1.79-.29-2.32-.88s-.8-1.46-.8-2.61v-6.19h1.63v6.14c0,1.44,.59,2.16,1.76,2.16,1.24,0,2.07-.46,2.48-1.39v-6.92h1.63v9.51h-1.55l-.04-.94Z"/><path class="cls-17" d="M960.94,434.59v2.3h1.78v1.26h-1.78v5.91c0,.38,.08,.67,.24,.86,.16,.19,.43,.29,.81,.29,.19,0,.45-.04,.77-.11v1.31c-.43,.12-.84,.18-1.25,.18-.73,0-1.27-.22-1.64-.66s-.55-1.06-.55-1.87v-5.9h-1.73v-1.26h1.73v-2.3h1.63Z"/><path class="cls-17" d="M969.32,446.4v-12.8h3.61c1.11,0,2.1,.25,2.95,.74s1.52,1.19,1.98,2.1,.7,1.95,.71,3.13v.82c0,1.21-.23,2.26-.7,3.17s-1.13,1.61-2,2.09-1.87,.74-3.02,.75h-3.54Zm1.69-11.42v10.04h1.78c1.3,0,2.31-.4,3.04-1.21,.72-.81,1.09-1.96,1.09-3.46v-.75c0-1.46-.34-2.58-1.02-3.39-.68-.81-1.65-1.22-2.9-1.23h-1.97Z"/></g><g><path class="cls-17" d="M476.46,219.14c-.16,1.35-.66,2.4-1.5,3.13s-1.96,1.1-3.35,1.1c-1.51,0-2.72-.54-3.63-1.63s-1.37-2.53-1.37-4.35v-1.23c0-1.19,.21-2.24,.64-3.14s1.03-1.6,1.81-2.08,1.68-.73,2.71-.73c1.36,0,2.45,.38,3.27,1.14s1.3,1.81,1.43,3.15h-1.7c-.15-1.02-.46-1.76-.95-2.22s-1.17-.69-2.05-.69c-1.08,0-1.92,.4-2.54,1.2-.61,.8-.92,1.93-.92,3.4v1.24c0,1.39,.29,2.5,.87,3.32s1.39,1.23,2.43,1.23c.94,0,1.66-.21,2.16-.64s.83-1.16,1-2.22h1.7Z"/><path class="cls-17" d="M478.07,218.36c0-.93,.18-1.77,.55-2.51s.88-1.32,1.53-1.72,1.4-.61,2.24-.61c1.29,0,2.34,.45,3.14,1.34s1.2,2.09,1.2,3.58v.11c0,.93-.18,1.76-.53,2.49s-.86,1.31-1.52,1.72-1.42,.62-2.27,.62c-1.29,0-2.33-.45-3.13-1.34s-1.2-2.08-1.2-3.56v-.11Zm1.63,.19c0,1.05,.24,1.9,.73,2.54s1.14,.96,1.96,.96,1.48-.32,1.97-.97,.73-1.55,.73-2.72c0-1.04-.25-1.89-.74-2.54s-1.15-.97-1.97-.97-1.45,.32-1.94,.96-.74,1.55-.74,2.74Z"/><path class="cls-17" d="M490.31,213.69l.05,1.2c.73-.91,1.68-1.37,2.85-1.37,2.01,0,3.02,1.13,3.04,3.4v6.28h-1.63v-6.29c0-.69-.16-1.19-.47-1.52s-.79-.49-1.44-.49c-.53,0-.99,.14-1.39,.42s-.71,.65-.93,1.11v6.78h-1.63v-9.51h1.54Z"/><path class="cls-17" d="M500.91,211.39v2.3h1.78v1.26h-1.78v5.9c0,.38,.08,.67,.24,.86,.16,.19,.43,.29,.81,.29,.19,0,.45-.04,.77-.11v1.31c-.43,.12-.84,.17-1.25,.17-.73,0-1.27-.22-1.64-.66s-.55-1.06-.55-1.87v-5.9h-1.73v-1.26h1.73v-2.3h1.63Z"/><path class="cls-17" d="M509.18,215.15c-.25-.04-.51-.06-.8-.06-1.07,0-1.79,.45-2.17,1.36v6.75h-1.63v-9.51h1.58l.03,1.1c.53-.85,1.29-1.27,2.27-1.27,.32,0,.56,.04,.72,.12v1.51Z"/><path class="cls-17" d="M510.07,218.36c0-.93,.18-1.77,.55-2.51s.88-1.32,1.53-1.72,1.4-.61,2.24-.61c1.29,0,2.34,.45,3.14,1.34s1.2,2.09,1.2,3.58v.11c0,.93-.18,1.76-.53,2.49s-.86,1.31-1.52,1.72-1.42,.62-2.27,.62c-1.29,0-2.33-.45-3.13-1.34s-1.2-2.08-1.2-3.56v-.11Zm1.63,.19c0,1.05,.24,1.9,.73,2.54s1.14,.96,1.96,.96,1.48-.32,1.97-.97,.73-1.55,.73-2.72c0-1.04-.25-1.89-.74-2.54s-1.15-.97-1.97-.97-1.45,.32-1.94,.96-.74,1.55-.74,2.74Z"/><path class="cls-17" d="M522.53,223.2h-1.63v-13.5h1.63v13.5Z"/><path class="cls-17" d="M529.84,223.2v-12.8h4.18c1.39,0,2.43,.29,3.13,.86s1.05,1.42,1.05,2.55c0,.6-.17,1.13-.51,1.59s-.8,.82-1.39,1.07c.69,.19,1.24,.56,1.64,1.1s.6,1.19,.6,1.94c0,1.15-.37,2.05-1.12,2.71s-1.8,.98-3.16,.98h-4.44Zm1.69-7.34h2.55c.74,0,1.33-.19,1.77-.55,.44-.37,.66-.87,.66-1.51,0-.7-.21-1.22-.62-1.54-.41-.32-1.03-.48-1.87-.48h-2.5v4.08Zm0,1.35v4.61h2.79c.79,0,1.4-.2,1.86-.61s.68-.97,.68-1.68c0-1.54-.84-2.31-2.51-2.31h-2.81Z"/></g><g><path class="cls-17" d="M476.2,304.1c-.16,1.35-.66,2.4-1.5,3.13s-1.96,1.1-3.35,1.1c-1.51,0-2.72-.54-3.63-1.63s-1.37-2.53-1.37-4.35v-1.23c0-1.19,.21-2.24,.64-3.14s1.03-1.6,1.81-2.08,1.68-.72,2.71-.72c1.36,0,2.45,.38,3.27,1.14s1.3,1.81,1.43,3.15h-1.7c-.15-1.02-.46-1.76-.95-2.22-.49-.46-1.17-.69-2.05-.69-1.08,0-1.92,.4-2.54,1.2s-.92,1.93-.92,3.4v1.24c0,1.39,.29,2.5,.87,3.32,.58,.82,1.39,1.23,2.43,1.23,.94,0,1.66-.21,2.16-.64s.83-1.16,1-2.22h1.7Z"/><path class="cls-17" d="M477.82,303.32c0-.93,.18-1.77,.55-2.51s.88-1.32,1.53-1.72,1.4-.61,2.24-.61c1.3,0,2.34,.45,3.14,1.34s1.2,2.09,1.2,3.58v.11c0,.93-.18,1.76-.53,2.49s-.86,1.31-1.52,1.72-1.42,.62-2.27,.62c-1.29,0-2.33-.45-3.13-1.34s-1.2-2.08-1.2-3.56v-.11Zm1.63,.19c0,1.05,.24,1.9,.73,2.54s1.14,.96,1.96,.96,1.48-.32,1.97-.97,.73-1.55,.73-2.72c0-1.04-.25-1.89-.74-2.54s-1.15-.97-1.97-.97-1.45,.32-1.94,.96-.74,1.55-.74,2.74Z"/><path class="cls-17" d="M490.05,298.65l.05,1.2c.73-.91,1.68-1.37,2.85-1.37,2.01,0,3.02,1.13,3.04,3.4v6.28h-1.63v-6.29c0-.69-.16-1.19-.47-1.52s-.79-.49-1.44-.49c-.53,0-.99,.14-1.39,.42s-.71,.65-.93,1.11v6.78h-1.63v-9.51h1.54Z"/><path class="cls-17" d="M500.65,296.35v2.3h1.78v1.26h-1.78v5.9c0,.38,.08,.67,.24,.86s.43,.29,.81,.29c.19,0,.45-.04,.77-.11v1.31c-.43,.12-.84,.17-1.25,.17-.73,0-1.27-.22-1.64-.66s-.55-1.06-.55-1.87v-5.9h-1.73v-1.26h1.73v-2.3h1.63Z"/><path class="cls-17" d="M508.92,300.11c-.25-.04-.51-.06-.8-.06-1.07,0-1.79,.45-2.17,1.36v6.75h-1.63v-9.51h1.58l.03,1.1c.53-.85,1.29-1.27,2.27-1.27,.32,0,.56,.04,.72,.12v1.51Z"/><path class="cls-17" d="M509.81,303.32c0-.93,.18-1.77,.55-2.51s.88-1.32,1.53-1.72,1.4-.61,2.24-.61c1.29,0,2.34,.45,3.14,1.34s1.2,2.09,1.2,3.58v.11c0,.93-.18,1.76-.53,2.49s-.86,1.31-1.52,1.72-1.42,.62-2.27,.62c-1.29,0-2.33-.45-3.13-1.34s-1.2-2.08-1.2-3.56v-.11Zm1.63,.19c0,1.05,.24,1.9,.73,2.54s1.14,.96,1.96,.96,1.48-.32,1.97-.97,.73-1.55,.73-2.72c0-1.04-.25-1.89-.74-2.54s-1.15-.97-1.97-.97-1.45,.32-1.94,.96-.74,1.55-.74,2.74Z"/><path class="cls-17" d="M522.28,308.16h-1.63v-13.5h1.63v13.5Z"/><path class="cls-17" d="M539,304.1c-.16,1.35-.66,2.4-1.5,3.13s-1.96,1.1-3.35,1.1c-1.51,0-2.72-.54-3.63-1.63s-1.37-2.53-1.37-4.35v-1.23c0-1.19,.21-2.24,.64-3.14s1.03-1.6,1.81-2.08,1.68-.72,2.71-.72c1.36,0,2.45,.38,3.27,1.14s1.3,1.81,1.43,3.15h-1.7c-.15-1.02-.46-1.76-.95-2.22-.49-.46-1.17-.69-2.05-.69-1.08,0-1.92,.4-2.54,1.2s-.92,1.93-.92,3.4v1.24c0,1.39,.29,2.5,.87,3.32,.58,.82,1.39,1.23,2.43,1.23,.94,0,1.66-.21,2.16-.64s.83-1.16,1-2.22h1.7Z"/></g><g><path class="cls-17" d="M477.6,390.5c-.16,1.35-.66,2.4-1.5,3.13s-1.96,1.1-3.35,1.1c-1.51,0-2.72-.54-3.63-1.63s-1.37-2.53-1.37-4.35v-1.23c0-1.19,.21-2.24,.64-3.14s1.03-1.6,1.81-2.08,1.68-.72,2.71-.72c1.36,0,2.45,.38,3.27,1.14s1.3,1.81,1.43,3.15h-1.7c-.15-1.02-.46-1.76-.95-2.22-.49-.46-1.17-.69-2.05-.69-1.08,0-1.92,.4-2.54,1.2s-.92,1.93-.92,3.4v1.24c0,1.39,.29,2.5,.87,3.32,.58,.82,1.39,1.23,2.43,1.23,.94,0,1.66-.21,2.16-.64s.83-1.16,1-2.22h1.7Z"/><path class="cls-17" d="M479.22,389.72c0-.93,.18-1.77,.55-2.51s.88-1.32,1.53-1.72,1.4-.61,2.24-.61c1.29,0,2.34,.45,3.14,1.34s1.2,2.09,1.2,3.58v.11c0,.93-.18,1.76-.53,2.49s-.86,1.31-1.52,1.72-1.42,.62-2.27,.62c-1.29,0-2.33-.45-3.13-1.34s-1.2-2.08-1.2-3.56v-.11Zm1.63,.19c0,1.05,.24,1.9,.73,2.54s1.14,.96,1.96,.96,1.48-.32,1.97-.97,.73-1.55,.73-2.72c0-1.04-.25-1.89-.74-2.54s-1.15-.97-1.97-.97-1.45,.32-1.94,.96-.74,1.55-.74,2.74Z"/><path class="cls-17" d="M491.45,385.05l.05,1.2c.73-.91,1.68-1.37,2.85-1.37,2.01,0,3.02,1.13,3.04,3.4v6.28h-1.63v-6.29c0-.69-.16-1.19-.47-1.52s-.79-.49-1.44-.49c-.53,0-.99,.14-1.39,.42s-.71,.65-.93,1.11v6.78h-1.63v-9.51h1.54Z"/><path class="cls-17" d="M502.05,382.75v2.3h1.78v1.26h-1.78v5.9c0,.38,.08,.67,.24,.86s.43,.29,.81,.29c.19,0,.45-.04,.77-.11v1.31c-.43,.12-.84,.17-1.25,.17-.73,0-1.27-.22-1.64-.66s-.55-1.06-.55-1.87v-5.9h-1.73v-1.26h1.73v-2.3h1.63Z"/><path class="cls-17" d="M510.32,386.51c-.25-.04-.51-.06-.8-.06-1.07,0-1.79,.45-2.17,1.36v6.75h-1.63v-9.51h1.58l.03,1.1c.53-.85,1.29-1.27,2.27-1.27,.32,0,.56,.04,.72,.12v1.51Z"/><path class="cls-17" d="M511.21,389.72c0-.93,.18-1.77,.55-2.51s.88-1.32,1.53-1.72,1.4-.61,2.24-.61c1.29,0,2.34,.45,3.14,1.34s1.2,2.09,1.2,3.58v.11c0,.93-.18,1.76-.53,2.49s-.86,1.31-1.52,1.72-1.42,.62-2.27,.62c-1.29,0-2.33-.45-3.13-1.34s-1.2-2.08-1.2-3.56v-.11Zm1.63,.19c0,1.05,.24,1.9,.73,2.54s1.14,.96,1.96,.96,1.48-.32,1.97-.97,.73-1.55,.73-2.72c0-1.04-.25-1.89-.74-2.54s-1.15-.97-1.97-.97-1.45,.32-1.94,.96-.74,1.55-.74,2.74Z"/><path class="cls-17" d="M523.67,394.56h-1.63v-13.5h1.63v13.5Z"/><path class="cls-17" d="M530.98,394.56v-12.8h3.61c1.11,0,2.1,.25,2.95,.74s1.52,1.19,1.98,2.1,.7,1.95,.71,3.13v.82c0,1.21-.23,2.26-.7,3.17s-1.13,1.61-2,2.09-1.87,.74-3.02,.75h-3.54Zm1.69-11.42v10.04h1.78c1.3,0,2.31-.41,3.04-1.21,.72-.81,1.09-1.96,1.09-3.46v-.75c0-1.45-.34-2.58-1.02-3.39-.68-.81-1.65-1.21-2.9-1.23h-1.97Z"/></g><path class="cls-17" d="M84.87,136.8h-1.63v-10.84l-3.28,1.2v-1.48l4.66-1.75h.25v12.86Z"/><path class="cls-17" d="M87.91,194.4h-8.38v-1.17l4.43-4.92c.66-.74,1.11-1.35,1.36-1.81s.37-.95,.37-1.45c0-.67-.2-1.22-.61-1.64s-.94-.64-1.62-.64c-.81,0-1.44,.23-1.89,.69s-.67,1.1-.67,1.92h-1.63c0-1.18,.38-2.13,1.14-2.86s1.77-1.09,3.05-1.09c1.19,0,2.13,.31,2.82,.94s1.04,1.45,1.04,2.49c0,1.26-.8,2.76-2.41,4.5l-3.43,3.72h6.42v1.33Z"/><path class="cls-17" d="M81.89,244.81h1.22c.77-.01,1.37-.21,1.81-.61s.66-.92,.66-1.59c0-1.5-.75-2.25-2.24-2.25-.7,0-1.26,.2-1.68,.6s-.63,.93-.63,1.6h-1.63c0-1.01,.37-1.86,1.11-2.53s1.68-1.01,2.83-1.01c1.21,0,2.15,.32,2.84,.96s1.03,1.53,1.03,2.66c0,.56-.18,1.1-.54,1.62s-.85,.91-1.47,1.17c.7,.22,1.25,.59,1.63,1.11s.58,1.15,.58,1.89c0,1.15-.38,2.06-1.12,2.73s-1.73,1.01-2.93,1.01-2.18-.33-2.93-.98-1.13-1.51-1.13-2.58h1.63c0,.67,.22,1.21,.66,1.62s1.03,.61,1.77,.61c.79,0,1.39-.21,1.8-.62s.62-1,.62-1.77-.23-1.32-.69-1.71-1.12-.6-1.98-.62h-1.22v-1.33Z"/><path class="cls-17" d="M86.39,305.3h1.78v1.33h-1.78v2.97h-1.63v-2.97h-5.83v-.96l5.73-8.87h1.73v8.5Zm-5.62,0h3.98v-6.28l-.19,.35-3.79,5.92Z"/><path class="cls-17" d="M80.28,360.78l.65-6.38h6.56v1.5h-5.18l-.39,3.49c.63-.37,1.34-.55,2.14-.55,1.17,0,2.09,.38,2.78,1.16s1.03,1.81,1.03,3.12-.36,2.36-1.07,3.12-1.71,1.14-2.98,1.14c-1.13,0-2.05-.31-2.77-.94s-1.12-1.49-1.22-2.6h1.54c.1,.73,.36,1.28,.78,1.66s.98,.56,1.67,.56c.76,0,1.35-.26,1.78-.77s.65-1.23,.65-2.14c0-.86-.23-1.54-.7-2.06s-1.09-.78-1.86-.78c-.71,0-1.27,.16-1.67,.47l-.43,.35-1.3-.33Z"/><path class="cls-17" d="M85.91,411.99v1.38h-.3c-1.27,.02-2.27,.4-3.02,1.12s-1.18,1.75-1.3,3.07c.67-.77,1.59-1.16,2.76-1.16s2,.39,2.67,1.18,1,1.8,1,3.04c0,1.32-.36,2.37-1.08,3.16s-1.68,1.19-2.89,1.19-2.22-.47-2.98-1.41-1.14-2.15-1.14-3.63v-.62c0-2.36,.5-4.16,1.51-5.4s2.5-1.88,4.49-1.91h.29Zm-2.14,5.77c-.56,0-1.07,.17-1.54,.5s-.79,.75-.98,1.26v.6c0,1.05,.24,1.9,.71,2.55s1.07,.97,1.78,.97,1.31-.27,1.73-.81,.63-1.25,.63-2.12-.21-1.59-.64-2.13-.99-.81-1.69-.81Z"/><path class="cls-17" d="M87.79,470.52l-5.3,11.88h-1.71l5.28-11.46h-6.93v-1.34h8.65v.91Z"/><g><path class="cls-17" d="M338.3,136.7h-1.63v-10.84l-3.28,1.2v-1.48l4.66-1.75h.25v12.86Z"/><path class="cls-17" d="M349.93,132.4h1.78v1.33h-1.78v2.97h-1.63v-2.97h-5.83v-.96l5.73-8.87h1.73v8.5Zm-5.62,0h3.98v-6.28l-.19,.35-3.79,5.92Z"/></g><g><path class="cls-17" d="M338.3,194.3h-1.63v-10.84l-3.28,1.2v-1.48l4.66-1.75h.25v12.86Z"/><path class="cls-17" d="M345.43,187.11h1.22c.77-.01,1.37-.21,1.81-.61s.66-.92,.66-1.59c0-1.5-.75-2.25-2.24-2.25-.7,0-1.26,.2-1.68,.6s-.63,.93-.63,1.6h-1.63c0-1.01,.37-1.86,1.11-2.53s1.68-1.01,2.83-1.01c1.21,0,2.15,.32,2.84,.96s1.03,1.53,1.03,2.66c0,.56-.18,1.1-.54,1.62s-.85,.91-1.47,1.17c.7,.22,1.25,.59,1.63,1.11s.58,1.15,.58,1.89c0,1.15-.38,2.06-1.12,2.73s-1.73,1.01-2.93,1.01-2.18-.33-2.93-.98-1.13-1.51-1.13-2.58h1.63c0,.67,.22,1.21,.66,1.62s1.03,.61,1.77,.61c.79,0,1.39-.21,1.8-.62s.62-1,.62-1.77-.23-1.32-.69-1.71-1.12-.6-1.98-.62h-1.22v-1.33Z"/></g><g><path class="cls-17" d="M338.3,251.9h-1.63v-10.84l-3.28,1.2v-1.48l4.66-1.75h.25v12.86Z"/><path class="cls-17" d="M351.45,251.9h-8.38v-1.17l4.43-4.92c.66-.74,1.11-1.35,1.36-1.81s.37-.95,.37-1.45c0-.67-.2-1.22-.61-1.64s-.94-.64-1.62-.64c-.81,0-1.44,.23-1.89,.69s-.67,1.1-.67,1.92h-1.63c0-1.18,.38-2.13,1.14-2.86s1.77-1.09,3.05-1.09c1.19,0,2.13,.31,2.82,.94s1.04,1.45,1.04,2.49c0,1.26-.8,2.76-2.41,4.5l-3.43,3.72h6.42v1.33Z"/></g><g><path class="cls-17" d="M338.3,309.5h-1.63v-10.84l-3.28,1.2v-1.48l4.66-1.75h.25v12.86Z"/><path class="cls-17" d="M348.41,309.5h-1.63v-10.84l-3.28,1.2v-1.48l4.66-1.75h.25v12.86Z"/></g><g><path class="cls-17" d="M338.3,367.1h-1.63v-10.84l-3.28,1.2v-1.48l4.66-1.75h.25v12.86Z"/><path class="cls-17" d="M351.09,361.64c0,1.9-.33,3.32-.98,4.25s-1.67,1.39-3.05,1.39-2.38-.45-3.03-1.36-1-2.26-1.02-4.06v-2.17c0-1.88,.33-3.28,.98-4.19s1.67-1.37,3.06-1.37,2.39,.44,3.04,1.32,.98,2.24,1,4.08v2.11Zm-1.63-2.22c0-1.38-.19-2.38-.58-3.01s-1-.94-1.84-.94-1.44,.31-1.82,.94-.58,1.59-.59,2.89v2.6c0,1.38,.2,2.4,.6,3.06s1.01,.99,1.82,.99,1.4-.31,1.79-.93,.59-1.6,.61-2.94v-2.66Z"/></g><path class="cls-17" d="M344.96,419.07c-.34,.4-.75,.73-1.22,.98s-.99,.37-1.55,.37c-.74,0-1.38-.18-1.93-.54s-.97-.87-1.27-1.53-.45-1.39-.45-2.18c0-.86,.16-1.63,.49-2.31s.79-1.21,1.38-1.57,1.29-.54,2.09-.54c1.27,0,2.26,.47,2.99,1.42s1.09,2.24,1.09,3.87v.47c0,2.49-.49,4.31-1.48,5.45s-2.47,1.73-4.46,1.76h-.32v-1.38h.34c1.34-.02,2.37-.37,3.09-1.05s1.11-1.74,1.18-3.21Zm-2.5,0c.54,0,1.05-.17,1.51-.5s.8-.75,1.01-1.24v-.65c0-1.07-.23-1.93-.69-2.6s-1.05-1-1.76-1-1.29,.27-1.72,.82-.65,1.27-.65,2.17,.21,1.59,.63,2.16,.98,.85,1.68,.85Z"/><path class="cls-17" d="M346.49,472.84c0,.64-.17,1.21-.51,1.71s-.79,.89-1.37,1.17c.67,.29,1.2,.71,1.59,1.26s.58,1.17,.58,1.87c0,1.11-.37,1.99-1.12,2.65s-1.73,.98-2.95,.98-2.22-.33-2.96-.99-1.11-1.54-1.11-2.64c0-.69,.19-1.32,.57-1.87s.9-.98,1.57-1.27c-.57-.28-1.02-.67-1.34-1.17s-.49-1.06-.49-1.7c0-1.08,.35-1.93,1.04-2.57s1.6-.95,2.73-.95,2.03,.32,2.73,.95,1.04,1.49,1.04,2.57Zm-1.33,5.97c0-.71-.23-1.3-.68-1.75s-1.05-.68-1.78-.68-1.32,.22-1.76,.67-.66,1.03-.66,1.76,.22,1.3,.65,1.71,1.03,.62,1.8,.62,1.36-.21,1.79-.63,.65-.99,.65-1.71Zm-2.44-8.15c-.64,0-1.16,.2-1.55,.59s-.59,.93-.59,1.61,.19,1.18,.58,1.58,.91,.6,1.56,.6,1.17-.2,1.56-.6,.58-.93,.58-1.58-.2-1.18-.61-1.59-.92-.62-1.54-.62Z"/><g><path class="cls-17" d="M110.6,482.14l3.66-10.56h1.85l-4.75,12.8h-1.49l-4.74-12.8h1.84l3.64,10.56Z"/><path class="cls-17" d="M119.83,480.58c-.96-.28-1.67-.62-2.11-1.02s-.66-.9-.66-1.5c0-.67,.27-1.23,.81-1.67s1.24-.66,2.09-.66c.59,0,1.11,.11,1.57,.34s.81,.54,1.07,.94,.38,.83,.38,1.31h-1.13c0-.52-.16-.92-.49-1.22s-.79-.44-1.39-.44c-.55,0-.99,.12-1.3,.37-.31,.24-.47,.58-.47,1.02,0,.35,.15,.64,.44,.88,.29,.24,.8,.46,1.51,.66,.71,.2,1.26,.42,1.66,.66s.7,.52,.89,.84,.29,.7,.29,1.13c0,.69-.27,1.25-.81,1.66s-1.26,.62-2.16,.62c-.59,0-1.13-.11-1.64-.34s-.9-.53-1.17-.92-.41-.83-.41-1.33h1.13c0,.52,.19,.92,.57,1.22s.89,.45,1.53,.45c.59,0,1.05-.12,1.37-.36s.47-.57,.47-.99-.15-.74-.44-.97-.82-.45-1.59-.68Z"/><path class="cls-17" d="M126.95,480.58c-.96-.28-1.67-.62-2.11-1.02s-.66-.9-.66-1.5c0-.67,.27-1.23,.81-1.67s1.24-.66,2.09-.66c.59,0,1.11,.11,1.57,.34s.81,.54,1.07,.94,.38,.83,.38,1.31h-1.13c0-.52-.16-.92-.49-1.22s-.79-.44-1.39-.44c-.55,0-.99,.12-1.3,.37-.31,.24-.47,.58-.47,1.02,0,.35,.15,.64,.44,.88,.29,.24,.8,.46,1.51,.66,.71,.2,1.26,.42,1.66,.66s.7,.52,.89,.84,.29,.7,.29,1.13c0,.69-.27,1.25-.81,1.66s-1.26,.62-2.16,.62c-.59,0-1.13-.11-1.64-.34s-.9-.53-1.17-.92-.41-.83-.41-1.33h1.13c0,.52,.19,.92,.57,1.22s.89,.45,1.53,.45c.59,0,1.05-.12,1.37-.36s.47-.57,.47-.99-.15-.74-.44-.97-.82-.45-1.59-.68Z"/></g><g><path class="cls-17" d="M301.73,136.54l3.66-10.56h1.85l-4.75,12.8h-1.49l-4.74-12.8h1.84l3.64,10.56Z"/><path class="cls-17" d="M308.45,138.78v-8.53h2.41c.74,0,1.4,.16,1.97,.49s1.01,.79,1.32,1.4,.47,1.3,.47,2.09v.54c0,.8-.16,1.51-.47,2.12s-.75,1.07-1.33,1.39-1.25,.49-2.01,.5h-2.36Zm1.12-7.61v6.69h1.18c.87,0,1.54-.27,2.02-.81,.48-.54,.72-1.31,.72-2.3v-.5c0-.97-.23-1.72-.68-2.26-.46-.54-1.1-.81-1.94-.82h-1.31Z"/><path class="cls-17" d="M316.32,138.78v-8.53h2.41c.74,0,1.4,.16,1.97,.49s1.01,.79,1.32,1.4,.47,1.3,.47,2.09v.54c0,.8-.16,1.51-.47,2.12s-.75,1.07-1.33,1.39-1.25,.49-2.01,.5h-2.36Zm1.12-7.61v6.69h1.18c.87,0,1.54-.27,2.02-.81,.48-.54,.72-1.31,.72-2.3v-.5c0-.97-.23-1.72-.68-2.26-.46-.54-1.1-.81-1.94-.82h-1.31Z"/></g><g><path class="cls-17" d="M192.04,543.14c-.16,1.35-.66,2.4-1.5,3.13s-1.96,1.1-3.35,1.1c-1.51,0-2.72-.54-3.63-1.63s-1.37-2.53-1.37-4.35v-1.23c0-1.19,.21-2.24,.64-3.14s1.03-1.6,1.81-2.08,1.68-.72,2.71-.72c1.36,0,2.45,.38,3.27,1.14s1.3,1.81,1.43,3.15h-1.7c-.15-1.02-.46-1.76-.95-2.22-.49-.46-1.17-.69-2.05-.69-1.08,0-1.92,.4-2.54,1.2s-.92,1.93-.92,3.4v1.24c0,1.39,.29,2.5,.87,3.32,.58,.82,1.39,1.23,2.43,1.23,.94,0,1.66-.21,2.16-.64s.83-1.16,1-2.22h1.7Z"/><path class="cls-17" d="M194.35,547.2v-12.8h3.61c1.11,0,2.1,.25,2.95,.74s1.52,1.19,1.98,2.1,.7,1.95,.71,3.13v.82c0,1.21-.23,2.26-.7,3.17s-1.13,1.61-2,2.09-1.87,.74-3.02,.75h-3.54Zm1.69-11.42v10.04h1.78c1.3,0,2.31-.41,3.04-1.21,.72-.81,1.09-1.96,1.09-3.46v-.75c0-1.45-.34-2.58-1.02-3.39-.68-.81-1.65-1.21-2.9-1.23h-1.97Z"/><path class="cls-17" d="M212.59,542.9h1.78v1.33h-1.78v2.97h-1.63v-2.97h-5.83v-.96l5.73-8.87h1.73v8.5Zm-5.62,0h3.98v-6.28l-.19,.35-3.79,5.92Z"/><path class="cls-17" d="M223.86,541.74c0,1.9-.33,3.32-.98,4.25s-1.67,1.39-3.05,1.39-2.38-.45-3.03-1.36-1-2.26-1.02-4.06v-2.17c0-1.88,.33-3.28,.98-4.19s1.67-1.37,3.06-1.37,2.39,.44,3.04,1.32,.98,2.24,1,4.08v2.11Zm-1.63-2.22c0-1.38-.19-2.38-.58-3.01s-1-.94-1.84-.94-1.44,.31-1.82,.94-.58,1.59-.59,2.89v2.6c0,1.38,.2,2.4,.6,3.06s1.01,.99,1.82,.99,1.4-.31,1.79-.93,.59-1.6,.61-2.94v-2.66Z"/><path class="cls-17" d="M232.32,534.39v1.38h-.3c-1.27,.02-2.27,.4-3.02,1.12s-1.18,1.75-1.3,3.07c.67-.77,1.59-1.16,2.76-1.16s2,.39,2.67,1.18,1,1.8,1,3.04c0,1.32-.36,2.37-1.08,3.16s-1.68,1.19-2.89,1.19-2.22-.47-2.98-1.41-1.14-2.15-1.14-3.63v-.62c0-2.36,.5-4.16,1.51-5.4s2.5-1.88,4.49-1.91h.29Zm-2.14,5.77c-.56,0-1.07,.17-1.54,.5s-.79,.75-.98,1.26v.6c0,1.05,.24,1.9,.71,2.55s1.07,.97,1.78,.97,1.31-.27,1.73-.81,.63-1.25,.63-2.12-.21-1.59-.64-2.13-.99-.81-1.69-.81Z"/><path class="cls-17" d="M242.43,534.39v1.38h-.3c-1.27,.02-2.27,.4-3.02,1.12s-1.18,1.75-1.3,3.07c.67-.77,1.59-1.16,2.76-1.16s2,.39,2.67,1.18,1,1.8,1,3.04c0,1.32-.36,2.37-1.08,3.16s-1.68,1.19-2.89,1.19-2.22-.47-2.98-1.41-1.14-2.15-1.14-3.63v-.62c0-2.36,.5-4.16,1.51-5.4s2.5-1.88,4.49-1.91h.29Zm-2.14,5.77c-.56,0-1.07,.17-1.54,.5s-.79,.75-.98,1.26v.6c0,1.05,.24,1.9,.71,2.55s1.07,.97,1.78,.97,1.31-.27,1.73-.81,.63-1.25,.63-2.12-.21-1.59-.64-2.13-.99-.81-1.69-.81Z"/></g><g><path class="cls-17" d="M108.65,58.02h-1.27v-8.43l-2.55,.94v-1.15l3.62-1.36h.2v10Z"/><path class="cls-17" d="M112.44,60l-.72-.49c.43-.6,.65-1.21,.67-1.85v-1.14h1.24v.99c0,.46-.11,.92-.34,1.38s-.51,.83-.85,1.11Z"/><path class="cls-17" d="M116.94,52.43h.95c.6,0,1.07-.17,1.41-.47s.51-.72,.51-1.24c0-1.17-.58-1.75-1.74-1.75-.55,0-.98,.16-1.31,.47s-.49,.73-.49,1.24h-1.26c0-.79,.29-1.44,.86-1.97s1.31-.78,2.2-.78c.94,0,1.67,.25,2.21,.75s.8,1.19,.8,2.07c0,.43-.14,.85-.42,1.26s-.66,.71-1.15,.91c.55,.17,.97,.46,1.27,.86s.45,.89,.45,1.47c0,.89-.29,1.6-.88,2.13s-1.34,.79-2.28,.79-1.69-.25-2.28-.76-.88-1.17-.88-2h1.27c0,.52,.17,.94,.51,1.26s.8,.47,1.37,.47c.61,0,1.08-.16,1.4-.48s.49-.78,.49-1.37-.18-1.02-.53-1.33-.87-.47-1.54-.48h-.95v-1.03Z"/><path class="cls-17" d="M123.05,60l-.72-.49c.43-.6,.65-1.21,.67-1.85v-1.14h1.24v.99c0,.46-.11,.92-.34,1.38s-.51,.83-.85,1.11Z"/><path class="cls-17" d="M131.75,50.66c0,.5-.13,.94-.39,1.33s-.62,.69-1.06,.91c.52,.22,.93,.55,1.23,.98s.45,.91,.45,1.46c0,.86-.29,1.55-.87,2.06s-1.35,.77-2.29,.77-1.72-.26-2.3-.77-.86-1.2-.86-2.05c0-.54,.15-1.02,.44-1.46s.7-.76,1.22-.98c-.44-.22-.79-.52-1.05-.91s-.38-.83-.38-1.32c0-.84,.27-1.5,.81-2s1.25-.74,2.13-.74,1.58,.25,2.12,.74,.81,1.16,.81,2Zm-1.03,4.64c0-.56-.18-1.01-.53-1.36s-.81-.53-1.38-.53-1.03,.17-1.37,.52-.52,.8-.52,1.37,.17,1.01,.5,1.33,.8,.49,1.4,.49,1.06-.16,1.39-.49,.51-.77,.51-1.33Zm-1.9-6.34c-.5,0-.9,.15-1.21,.46s-.46,.73-.46,1.25,.15,.92,.45,1.23,.71,.47,1.21,.47,.91-.16,1.21-.47,.45-.72,.45-1.23-.16-.92-.47-1.24-.71-.48-1.2-.48Z"/><path class="cls-17" d="M133.66,60l-.72-.49c.43-.6,.65-1.21,.67-1.85v-1.14h1.24v.99c0,.46-.11,.92-.34,1.38s-.51,.83-.85,1.11Z"/><path class="cls-17" d="M140.48,58.02h-1.27v-8.43l-2.55,.94v-1.15l3.62-1.36h.2v10Z"/><path class="cls-17" d="M150.42,53.77c0,1.48-.25,2.58-.76,3.3s-1.3,1.08-2.37,1.08-1.85-.35-2.36-1.06-.77-1.76-.79-3.15v-1.69c0-1.46,.25-2.55,.76-3.26s1.3-1.07,2.38-1.07,1.86,.34,2.37,1.03,.77,1.74,.78,3.18v1.64Zm-1.26-1.73c0-1.07-.15-1.85-.45-2.34s-.78-.73-1.43-.73-1.12,.24-1.42,.73-.45,1.24-.46,2.25v2.02c0,1.08,.16,1.87,.47,2.38s.79,.77,1.42,.77,1.09-.24,1.39-.72,.46-1.24,.48-2.28v-2.07Z"/></g><g><path class="cls-17" d="M157.3,18.47l.51-4.96h5.1v1.17h-4.03l-.3,2.71c.49-.29,1.04-.43,1.66-.43,.91,0,1.63,.3,2.16,.9s.8,1.41,.8,2.43-.28,1.83-.83,2.42-1.33,.89-2.32,.89c-.88,0-1.6-.24-2.15-.73s-.87-1.16-.95-2.02h1.2c.08,.57,.28,1,.61,1.29s.76,.43,1.3,.43c.59,0,1.05-.2,1.38-.6s.5-.95,.5-1.66c0-.67-.18-1.2-.54-1.6s-.84-.6-1.45-.6c-.55,0-.98,.12-1.3,.36l-.33,.27-1.01-.26Z"/><path class="cls-17" d="M164.67,25.44l-.72-.49c.43-.6,.65-1.21,.67-1.85v-1.14h1.24v.99c0,.46-.11,.92-.34,1.38s-.51,.83-.85,1.11Z"/><path class="cls-17" d="M172.29,13.5v1.07h-.23c-.98,.02-1.77,.31-2.35,.88s-.92,1.36-1.01,2.39c.52-.6,1.24-.9,2.15-.9s1.56,.31,2.07,.92,.78,1.4,.78,2.37c0,1.03-.28,1.85-.84,2.46s-1.31,.92-2.25,.92-1.73-.37-2.32-1.1-.89-1.67-.89-2.83v-.49c0-1.83,.39-3.23,1.17-4.2s1.94-1.46,3.49-1.49h.23Zm-1.66,4.48c-.43,0-.83,.13-1.2,.39s-.62,.59-.76,.98v.46c0,.82,.18,1.48,.55,1.98s.83,.75,1.38,.75,1.02-.21,1.34-.63,.49-.97,.49-1.65-.17-1.24-.5-1.66-.77-.63-1.32-.63Z"/><path class="cls-17" d="M175.28,25.44l-.72-.49c.43-.6,.65-1.21,.67-1.85v-1.14h1.24v.99c0,.46-.11,.92-.34,1.38s-.51,.83-.85,1.11Z"/><path class="cls-17" d="M182.1,23.46h-1.27V15.03l-2.55,.94v-1.15l3.62-1.36h.2v10Z"/><path class="cls-17" d="M192.32,23.46h-6.52v-.91l3.45-3.83c.51-.58,.86-1.05,1.06-1.41s.29-.74,.29-1.12c0-.52-.16-.95-.47-1.28s-.73-.5-1.26-.5c-.63,0-1.12,.18-1.47,.54s-.52,.86-.52,1.49h-1.26c0-.92,.29-1.66,.89-2.22s1.38-.85,2.37-.85c.93,0,1.66,.24,2.19,.73s.81,1.13,.81,1.94c0,.98-.62,2.15-1.87,3.5l-2.67,2.89h5v1.03Z"/><path class="cls-17" d="M193.75,25.44l-.72-.49c.43-.6,.65-1.21,.67-1.85v-1.14h1.24v.99c0,.46-.11,.92-.34,1.38s-.51,.83-.85,1.11Z"/><path class="cls-17" d="M200.57,23.46h-1.27V15.03l-2.55,.94v-1.15l3.62-1.36h.2v10Z"/><path class="cls-17" d="M206.11,17.87h.95c.6,0,1.07-.17,1.41-.47s.51-.72,.51-1.24c0-1.17-.58-1.75-1.74-1.75-.55,0-.98,.16-1.31,.47s-.49,.73-.49,1.24h-1.26c0-.79,.29-1.44,.86-1.97s1.31-.78,2.2-.78c.94,0,1.67,.25,2.21,.75s.8,1.19,.8,2.07c0,.43-.14,.85-.42,1.26s-.66,.71-1.15,.91c.55,.17,.97,.46,1.27,.86s.45,.89,.45,1.47c0,.89-.29,1.6-.88,2.13s-1.34,.79-2.28,.79-1.69-.25-2.28-.76-.88-1.17-.88-2h1.27c0,.52,.17,.94,.51,1.26s.8,.47,1.37,.47c.61,0,1.08-.16,1.4-.48s.49-.78,.49-1.37-.18-1.02-.53-1.33-.87-.47-1.54-.48h-.95v-1.03Z"/></g><g><path class="cls-17" d="M282.37,58.02h-6.52v-.91l3.45-3.83c.51-.58,.86-1.05,1.06-1.41s.29-.74,.29-1.12c0-.52-.16-.95-.47-1.28s-.73-.5-1.26-.5c-.63,0-1.12,.18-1.47,.54s-.52,.86-.52,1.49h-1.26c0-.92,.29-1.66,.89-2.22s1.38-.85,2.37-.85c.93,0,1.66,.24,2.19,.73s.81,1.13,.81,1.94c0,.98-.62,2.15-1.87,3.5l-2.67,2.89h5v1.03Z"/><path class="cls-17" d="M283.8,60l-.72-.49c.43-.6,.65-1.21,.67-1.85v-1.14h1.24v.99c0,.46-.11,.92-.34,1.38s-.51,.83-.85,1.11Z"/><path class="cls-17" d="M291.8,54.68h1.38v1.03h-1.38v2.31h-1.27v-2.31h-4.53v-.75l4.46-6.9h1.35v6.61Zm-4.37,0h3.1v-4.88l-.15,.27-2.95,4.61Z"/><path class="cls-17" d="M294.41,60l-.72-.49c.43-.6,.65-1.21,.67-1.85v-1.14h1.24v.99c0,.46-.11,.92-.34,1.38s-.51,.83-.85,1.11Z"/><path class="cls-17" d="M301.92,53.64c-.26,.31-.58,.57-.95,.76s-.77,.29-1.21,.29c-.57,0-1.07-.14-1.5-.42s-.76-.68-.99-1.19-.35-1.08-.35-1.7c0-.67,.13-1.26,.38-1.8s.61-.94,1.08-1.22,1.01-.42,1.63-.42c.98,0,1.76,.37,2.33,1.1s.85,1.74,.85,3.01v.37c0,1.94-.38,3.35-1.15,4.24s-1.92,1.35-3.47,1.37h-.25v-1.07h.27c1.04-.02,1.85-.29,2.41-.82,.56-.52,.87-1.36,.92-2.49Zm-1.95,0c.42,0,.81-.13,1.17-.39s.62-.58,.78-.96v-.51c0-.83-.18-1.5-.54-2.02s-.82-.78-1.37-.78-1,.21-1.34,.64-.51,.99-.51,1.69,.16,1.24,.49,1.68,.76,.66,1.31,.66Z"/><path class="cls-17" d="M305.02,60l-.72-.49c.43-.6,.65-1.21,.67-1.85v-1.14h1.24v.99c0,.46-.11,.92-.34,1.38s-.51,.83-.85,1.11Z"/><path class="cls-17" d="M311.84,58.02h-1.27v-8.43l-2.55,.94v-1.15l3.62-1.36h.2v10Z"/><path class="cls-17" d="M319.7,58.02h-1.27v-8.43l-2.55,.94v-1.15l3.62-1.36h.2v10Z"/></g><g><path class="cls-17" d="M105.54,124.38h-1.69v-12.8h1.69v12.8Z"/><path class="cls-17" d="M109.9,114.87l.05,1.2c.73-.91,1.68-1.37,2.85-1.37,2.01,0,3.02,1.13,3.04,3.4v6.28h-1.63v-6.29c0-.69-.16-1.19-.47-1.52s-.79-.49-1.44-.49c-.53,0-.99,.14-1.39,.42s-.71,.65-.93,1.11v6.78h-1.63v-9.51h1.54Z"/><path class="cls-17" d="M118.62,125.48h-1.4l5.34-13.9h1.39l-5.33,13.9Z"/><path class="cls-17" d="M135.81,118.39c0,1.25-.21,2.35-.63,3.28-.42,.94-1.02,1.65-1.79,2.14s-1.68,.74-2.71,.74-1.9-.25-2.68-.74-1.38-1.2-1.81-2.12c-.43-.92-.65-1.98-.66-3.19v-.92c0-1.23,.21-2.32,.64-3.26s1.03-1.67,1.81-2.17c.78-.5,1.68-.75,2.69-.75s1.93,.25,2.71,.74c.78,.5,1.38,1.21,1.81,2.15,.42,.94,.63,2.03,.63,3.28v.81Zm-1.68-.83c0-1.52-.3-2.68-.91-3.49s-1.46-1.22-2.56-1.22-1.91,.41-2.52,1.22-.93,1.94-.94,3.38v.94c0,1.47,.31,2.63,.93,3.47s1.47,1.26,2.55,1.26,1.93-.4,2.53-1.19,.91-1.93,.92-3.42v-.95Z"/><path class="cls-17" d="M143.96,123.44c-.63,.74-1.56,1.12-2.79,1.12-1.01,0-1.79-.29-2.32-.88-.53-.59-.8-1.46-.8-2.62v-6.19h1.63v6.14c0,1.44,.59,2.16,1.76,2.16,1.24,0,2.07-.46,2.48-1.39v-6.92h1.63v9.51h-1.55l-.04-.94Z"/><path class="cls-17" d="M150.22,112.57v2.3h1.78v1.26h-1.78v5.91c0,.38,.08,.67,.24,.86s.43,.29,.81,.29c.19,0,.45-.04,.77-.11v1.31c-.43,.12-.84,.17-1.25,.17-.73,0-1.27-.22-1.64-.66s-.55-1.06-.55-1.87v-5.9h-1.73v-1.26h1.73v-2.3h1.63Z"/><path class="cls-17" d="M165.67,121.03h-5.36l-1.2,3.35h-1.74l4.89-12.8h1.48l4.9,12.8h-1.73l-1.22-3.35Zm-4.85-1.38h4.35l-2.18-5.99-2.17,5.99Z"/></g><g><path class="cls-17" d="M105.54,241.02h-1.69v-12.8h1.69v12.8Z"/><path class="cls-17" d="M109.9,231.51l.05,1.2c.73-.91,1.68-1.37,2.85-1.37,2.01,0,3.02,1.13,3.04,3.4v6.28h-1.63v-6.29c0-.69-.16-1.19-.47-1.52s-.79-.49-1.44-.49c-.53,0-.99,.14-1.39,.42s-.71,.65-.93,1.11v6.78h-1.63v-9.51h1.54Z"/><path class="cls-17" d="M118.62,242.12h-1.4l5.34-13.9h1.39l-5.33,13.9Z"/><path class="cls-17" d="M135.81,235.04c0,1.25-.21,2.35-.63,3.28-.42,.94-1.02,1.65-1.79,2.14s-1.68,.74-2.71,.74-1.9-.25-2.68-.74-1.38-1.2-1.81-2.12c-.43-.92-.65-1.98-.66-3.19v-.92c0-1.23,.21-2.32,.64-3.26s1.03-1.67,1.81-2.17c.78-.5,1.68-.75,2.69-.75s1.93,.25,2.71,.74c.78,.5,1.38,1.21,1.81,2.15,.42,.94,.63,2.03,.63,3.28v.81Zm-1.68-.83c0-1.52-.3-2.68-.91-3.49s-1.46-1.22-2.56-1.22-1.91,.41-2.52,1.22-.93,1.94-.94,3.38v.94c0,1.47,.31,2.63,.93,3.47s1.47,1.26,2.55,1.26,1.93-.4,2.53-1.19,.91-1.93,.92-3.42v-.95Z"/><path class="cls-17" d="M143.96,240.08c-.63,.74-1.56,1.12-2.79,1.12-1.01,0-1.79-.29-2.32-.88-.53-.59-.8-1.46-.8-2.62v-6.19h1.63v6.14c0,1.44,.59,2.16,1.76,2.16,1.24,0,2.07-.46,2.48-1.39v-6.92h1.63v9.51h-1.55l-.04-.94Z"/><path class="cls-17" d="M150.22,229.21v2.3h1.78v1.26h-1.78v5.91c0,.38,.08,.67,.24,.86s.43,.29,.81,.29c.19,0,.45-.04,.77-.11v1.31c-.43,.12-.84,.17-1.25,.17-.73,0-1.27-.22-1.64-.66s-.55-1.06-.55-1.87v-5.9h-1.73v-1.26h1.73v-2.3h1.63Z"/><path class="cls-17" d="M158.6,241.02v-12.8h4.18c1.39,0,2.43,.29,3.13,.86s1.05,1.42,1.05,2.55c0,.6-.17,1.13-.51,1.59-.34,.46-.8,.82-1.39,1.07,.69,.19,1.24,.56,1.64,1.1s.6,1.19,.6,1.94c0,1.15-.37,2.05-1.12,2.71s-1.8,.98-3.16,.98h-4.44Zm1.69-7.34h2.55c.74,0,1.33-.18,1.77-.55s.66-.87,.66-1.51c0-.7-.21-1.22-.62-1.54-.41-.32-1.03-.48-1.87-.48h-2.5v4.08Zm0,1.35v4.61h2.79c.79,0,1.4-.2,1.86-.61s.68-.97,.68-1.68c0-1.54-.84-2.31-2.51-2.31h-2.81Z"/></g><g><path class="cls-17" d="M105.54,318.78h-1.69v-12.8h1.69v12.8Z"/><path class="cls-17" d="M109.9,309.27l.05,1.2c.73-.91,1.68-1.37,2.85-1.37,2.01,0,3.02,1.13,3.04,3.4v6.28h-1.63v-6.29c0-.69-.16-1.19-.47-1.52s-.79-.49-1.44-.49c-.53,0-.99,.14-1.39,.42s-.71,.65-.93,1.11v6.78h-1.63v-9.51h1.54Z"/><path class="cls-17" d="M118.62,319.88h-1.4l5.34-13.9h1.39l-5.33,13.9Z"/><path class="cls-17" d="M135.81,312.8c0,1.25-.21,2.35-.63,3.28-.42,.94-1.02,1.65-1.79,2.14s-1.68,.74-2.71,.74-1.9-.25-2.68-.74-1.38-1.2-1.81-2.12c-.43-.92-.65-1.98-.66-3.19v-.92c0-1.23,.21-2.32,.64-3.26s1.03-1.67,1.81-2.17c.78-.5,1.68-.75,2.69-.75s1.93,.25,2.71,.74c.78,.5,1.38,1.21,1.81,2.15,.42,.94,.63,2.03,.63,3.28v.81Zm-1.68-.83c0-1.52-.3-2.68-.91-3.49s-1.46-1.22-2.56-1.22-1.91,.41-2.52,1.22-.93,1.94-.94,3.38v.94c0,1.47,.31,2.63,.93,3.47s1.47,1.26,2.55,1.26,1.93-.4,2.53-1.19,.91-1.93,.92-3.42v-.95Z"/><path class="cls-17" d="M143.96,317.84c-.63,.74-1.56,1.12-2.79,1.12-1.01,0-1.79-.29-2.32-.88-.53-.59-.8-1.46-.8-2.62v-6.19h1.63v6.14c0,1.44,.59,2.16,1.76,2.16,1.24,0,2.07-.46,2.48-1.39v-6.92h1.63v9.51h-1.55l-.04-.94Z"/><path class="cls-17" d="M150.22,306.97v2.3h1.78v1.26h-1.78v5.91c0,.38,.08,.67,.24,.86s.43,.29,.81,.29c.19,0,.45-.04,.77-.11v1.31c-.43,.12-.84,.17-1.25,.17-.73,0-1.27-.22-1.64-.66s-.55-1.06-.55-1.87v-5.9h-1.73v-1.26h1.73v-2.3h1.63Z"/><path class="cls-17" d="M158.6,318.78v-12.8h4.18c1.39,0,2.43,.29,3.13,.86s1.05,1.42,1.05,2.55c0,.6-.17,1.13-.51,1.59-.34,.46-.8,.82-1.39,1.07,.69,.19,1.24,.56,1.64,1.1s.6,1.19,.6,1.94c0,1.15-.37,2.05-1.12,2.71s-1.8,.98-3.16,.98h-4.44Zm1.69-7.34h2.55c.74,0,1.33-.18,1.77-.55s.66-.87,.66-1.51c0-.7-.21-1.22-.62-1.54-.41-.32-1.03-.48-1.87-.48h-2.5v4.08Zm0,1.35v4.61h2.79c.79,0,1.4-.2,1.86-.61s.68-.97,.68-1.68c0-1.54-.84-2.31-2.51-2.31h-2.81Z"/></g><g><path class="cls-17" d="M114.58,373.76c-.16,1.35-.66,2.4-1.5,3.13-.84,.74-1.96,1.1-3.35,1.1-1.51,0-2.72-.54-3.63-1.63s-1.37-2.53-1.37-4.35v-1.23c0-1.19,.21-2.24,.64-3.14s1.03-1.59,1.81-2.08c.78-.48,1.68-.72,2.71-.72,1.36,0,2.45,.38,3.27,1.14s1.3,1.81,1.43,3.15h-1.7c-.15-1.02-.46-1.76-.95-2.22-.49-.46-1.17-.69-2.05-.69-1.08,0-1.92,.4-2.54,1.2s-.92,1.93-.92,3.4v1.24c0,1.39,.29,2.5,.87,3.32s1.39,1.23,2.43,1.23c.94,0,1.66-.21,2.16-.64,.5-.42,.83-1.16,1-2.22h1.7Z"/><path class="cls-17" d="M116.2,372.98c0-.93,.18-1.77,.55-2.51s.88-1.32,1.53-1.72,1.4-.61,2.24-.61c1.29,0,2.34,.45,3.14,1.34s1.2,2.09,1.2,3.58v.11c0,.93-.18,1.76-.53,2.49-.35,.74-.86,1.31-1.52,1.72s-1.42,.62-2.27,.62c-1.29,0-2.33-.45-3.13-1.34s-1.2-2.08-1.2-3.56v-.11Zm1.63,.19c0,1.05,.24,1.9,.73,2.54s1.14,.96,1.96,.96,1.48-.32,1.97-.97c.49-.65,.73-1.55,.73-2.72,0-1.04-.25-1.89-.74-2.54-.5-.65-1.15-.97-1.97-.97s-1.45,.32-1.94,.96-.74,1.55-.74,2.74Z"/><path class="cls-17" d="M128.43,368.31l.05,1.2c.73-.91,1.68-1.37,2.85-1.37,2.01,0,3.02,1.13,3.04,3.4v6.28h-1.63v-6.29c0-.69-.16-1.19-.47-1.52s-.79-.49-1.44-.49c-.53,0-.99,.14-1.39,.42s-.71,.65-.93,1.11v6.78h-1.63v-9.51h1.54Z"/><path class="cls-17" d="M139.03,366.01v2.3h1.78v1.26h-1.78v5.91c0,.38,.08,.67,.24,.86s.43,.29,.81,.29c.19,0,.45-.04,.77-.11v1.31c-.43,.12-.84,.17-1.25,.17-.73,0-1.27-.22-1.64-.66s-.55-1.06-.55-1.87v-5.9h-1.73v-1.26h1.73v-2.3h1.63Z"/><path class="cls-17" d="M147.3,369.77c-.25-.04-.51-.06-.8-.06-1.07,0-1.79,.45-2.17,1.36v6.75h-1.63v-9.51h1.58l.03,1.1c.53-.85,1.29-1.27,2.27-1.27,.32,0,.56,.04,.72,.12v1.51Z"/><path class="cls-17" d="M148.19,372.98c0-.93,.18-1.77,.55-2.51s.88-1.32,1.53-1.72,1.4-.61,2.24-.61c1.29,0,2.34,.45,3.14,1.34s1.2,2.09,1.2,3.58v.11c0,.93-.18,1.76-.53,2.49-.35,.74-.86,1.31-1.52,1.72s-1.42,.62-2.27,.62c-1.29,0-2.33-.45-3.13-1.34s-1.2-2.08-1.2-3.56v-.11Zm1.63,.19c0,1.05,.24,1.9,.73,2.54s1.14,.96,1.96,.96,1.48-.32,1.97-.97c.49-.65,.73-1.55,.73-2.72,0-1.04-.25-1.89-.74-2.54-.5-.65-1.15-.97-1.97-.97s-1.45,.32-1.94,.96-.74,1.55-.74,2.74Z"/><path class="cls-17" d="M160.65,377.82h-1.63v-13.5h1.63v13.5Z"/><path class="cls-17" d="M167.96,377.82v-12.8h4.18c1.39,0,2.43,.29,3.13,.86s1.05,1.42,1.05,2.55c0,.6-.17,1.13-.51,1.59-.34,.46-.8,.82-1.39,1.07,.69,.19,1.24,.56,1.64,1.1s.6,1.19,.6,1.94c0,1.15-.37,2.05-1.12,2.71s-1.8,.98-3.16,.98h-4.44Zm1.69-7.34h2.55c.74,0,1.33-.18,1.77-.55s.66-.87,.66-1.51c0-.7-.21-1.22-.62-1.54-.41-.32-1.03-.48-1.87-.48h-2.5v4.08Zm0,1.35v4.61h2.79c.79,0,1.4-.2,1.86-.61s.68-.97,.68-1.68c0-1.54-.84-2.31-2.51-2.31h-2.81Z"/></g><g><path class="cls-17" d="M114.58,429.92c-.16,1.35-.66,2.4-1.5,3.13-.84,.74-1.96,1.1-3.35,1.1-1.51,0-2.72-.54-3.63-1.63s-1.37-2.53-1.37-4.35v-1.23c0-1.19,.21-2.24,.64-3.14s1.03-1.59,1.81-2.08c.78-.48,1.68-.72,2.71-.72,1.36,0,2.45,.38,3.27,1.14s1.3,1.81,1.43,3.15h-1.7c-.15-1.02-.46-1.76-.95-2.22-.49-.46-1.17-.69-2.05-.69-1.08,0-1.92,.4-2.54,1.2s-.92,1.93-.92,3.4v1.24c0,1.39,.29,2.5,.87,3.32s1.39,1.23,2.43,1.23c.94,0,1.66-.21,2.16-.64,.5-.42,.83-1.16,1-2.22h1.7Z"/><path class="cls-17" d="M116.2,429.14c0-.93,.18-1.77,.55-2.51s.88-1.32,1.53-1.72,1.4-.61,2.24-.61c1.29,0,2.34,.45,3.14,1.34s1.2,2.09,1.2,3.58v.11c0,.93-.18,1.76-.53,2.49-.35,.74-.86,1.31-1.52,1.72s-1.42,.62-2.27,.62c-1.29,0-2.33-.45-3.13-1.34s-1.2-2.08-1.2-3.56v-.11Zm1.63,.19c0,1.05,.24,1.9,.73,2.54s1.14,.96,1.96,.96,1.48-.32,1.97-.97c.49-.65,.73-1.55,.73-2.72,0-1.04-.25-1.89-.74-2.54-.5-.65-1.15-.97-1.97-.97s-1.45,.32-1.94,.96-.74,1.55-.74,2.74Z"/><path class="cls-17" d="M128.43,424.47l.05,1.2c.73-.91,1.68-1.37,2.85-1.37,2.01,0,3.02,1.13,3.04,3.4v6.28h-1.63v-6.29c0-.69-.16-1.19-.47-1.52s-.79-.49-1.44-.49c-.53,0-.99,.14-1.39,.42s-.71,.65-.93,1.11v6.78h-1.63v-9.51h1.54Z"/><path class="cls-17" d="M139.03,422.17v2.3h1.78v1.26h-1.78v5.91c0,.38,.08,.67,.24,.86s.43,.29,.81,.29c.19,0,.45-.04,.77-.11v1.31c-.43,.12-.84,.17-1.25,.17-.73,0-1.27-.22-1.64-.66s-.55-1.06-.55-1.87v-5.9h-1.73v-1.26h1.73v-2.3h1.63Z"/><path class="cls-17" d="M147.3,425.93c-.25-.04-.51-.06-.8-.06-1.07,0-1.79,.45-2.17,1.36v6.75h-1.63v-9.51h1.58l.03,1.1c.53-.85,1.29-1.27,2.27-1.27,.32,0,.56,.04,.72,.12v1.51Z"/><path class="cls-17" d="M148.19,429.14c0-.93,.18-1.77,.55-2.51s.88-1.32,1.53-1.72,1.4-.61,2.24-.61c1.29,0,2.34,.45,3.14,1.34s1.2,2.09,1.2,3.58v.11c0,.93-.18,1.76-.53,2.49-.35,.74-.86,1.31-1.52,1.72s-1.42,.62-2.27,.62c-1.29,0-2.33-.45-3.13-1.34s-1.2-2.08-1.2-3.56v-.11Zm1.63,.19c0,1.05,.24,1.9,.73,2.54s1.14,.96,1.96,.96,1.48-.32,1.97-.97c.49-.65,.73-1.55,.73-2.72,0-1.04-.25-1.89-.74-2.54-.5-.65-1.15-.97-1.97-.97s-1.45,.32-1.94,.96-.74,1.55-.74,2.74Z"/><path class="cls-17" d="M160.65,433.98h-1.63v-13.5h1.63v13.5Z"/><path class="cls-17" d="M177.38,429.92c-.16,1.35-.66,2.4-1.5,3.13-.84,.74-1.96,1.1-3.35,1.1-1.51,0-2.72-.54-3.63-1.63s-1.37-2.53-1.37-4.35v-1.23c0-1.19,.21-2.24,.64-3.14s1.03-1.59,1.81-2.08c.78-.48,1.68-.72,2.71-.72,1.36,0,2.45,.38,3.27,1.14s1.3,1.81,1.43,3.15h-1.7c-.15-1.02-.46-1.76-.95-2.22-.49-.46-1.17-.69-2.05-.69-1.08,0-1.92,.4-2.54,1.2s-.92,1.93-.92,3.4v1.24c0,1.39,.29,2.5,.87,3.32s1.39,1.23,2.43,1.23c.94,0,1.66-.21,2.16-.64,.5-.42,.83-1.16,1-2.22h1.7Z"/></g><g><path class="cls-17" d="M259.17,298.62h-1.69v-12.8h1.69v12.8Z"/><path class="cls-17" d="M263.54,289.11l.05,1.2c.73-.91,1.68-1.37,2.85-1.37,2.01,0,3.02,1.13,3.04,3.4v6.28h-1.63v-6.29c0-.69-.16-1.19-.47-1.52s-.79-.49-1.44-.49c-.53,0-.99,.14-1.39,.42s-.71,.65-.93,1.11v6.78h-1.63v-9.51h1.54Z"/><path class="cls-17" d="M272.26,299.72h-1.4l5.34-13.9h1.39l-5.33,13.9Z"/><path class="cls-17" d="M289.45,292.64c0,1.25-.21,2.35-.63,3.28-.42,.94-1.02,1.65-1.79,2.14s-1.68,.74-2.71,.74-1.9-.25-2.68-.74-1.38-1.2-1.81-2.12c-.43-.92-.65-1.98-.66-3.19v-.92c0-1.23,.21-2.32,.64-3.26s1.03-1.67,1.81-2.17c.78-.5,1.68-.75,2.69-.75s1.93,.25,2.71,.74c.78,.5,1.38,1.21,1.81,2.15,.42,.94,.63,2.03,.63,3.28v.81Zm-1.68-.83c0-1.52-.3-2.68-.91-3.49s-1.46-1.22-2.56-1.22-1.91,.41-2.52,1.22-.93,1.94-.94,3.38v.94c0,1.47,.31,2.63,.93,3.47s1.47,1.26,2.55,1.26,1.93-.4,2.53-1.19,.91-1.93,.92-3.42v-.95Z"/><path class="cls-17" d="M297.6,297.68c-.63,.74-1.56,1.12-2.79,1.12-1.01,0-1.79-.29-2.32-.88-.53-.59-.8-1.46-.8-2.62v-6.19h1.63v6.14c0,1.44,.59,2.16,1.76,2.16,1.24,0,2.07-.46,2.48-1.39v-6.92h1.63v9.51h-1.55l-.04-.94Z"/><path class="cls-17" d="M303.86,286.81v2.3h1.78v1.26h-1.78v5.91c0,.38,.08,.67,.24,.86s.43,.29,.81,.29c.19,0,.45-.04,.77-.11v1.31c-.43,.12-.84,.17-1.25,.17-.73,0-1.27-.22-1.64-.66s-.55-1.06-.55-1.87v-5.9h-1.73v-1.26h1.73v-2.3h1.63Z"/><path class="cls-17" d="M312.24,298.62v-12.8h3.61c1.11,0,2.1,.25,2.95,.74s1.52,1.19,1.98,2.1c.46,.91,.7,1.95,.71,3.13v.82c0,1.21-.23,2.26-.7,3.17-.46,.91-1.13,1.61-1.99,2.09-.87,.49-1.87,.74-3.02,.75h-3.54Zm1.69-11.42v10.04h1.78c1.3,0,2.31-.4,3.04-1.21s1.09-1.96,1.09-3.46v-.75c0-1.45-.34-2.58-1.02-3.39-.68-.81-1.65-1.22-2.91-1.23h-1.97Z"/></g><g><path class="cls-17" d="M259.17,377.82h-1.69v-12.8h1.69v12.8Z"/><path class="cls-17" d="M263.54,368.31l.05,1.2c.73-.91,1.68-1.37,2.85-1.37,2.01,0,3.02,1.13,3.04,3.4v6.28h-1.63v-6.29c0-.69-.16-1.19-.47-1.52s-.79-.49-1.44-.49c-.53,0-.99,.14-1.39,.42s-.71,.65-.93,1.11v6.78h-1.63v-9.51h1.54Z"/><path class="cls-17" d="M272.26,378.92h-1.4l5.34-13.9h1.39l-5.33,13.9Z"/><path class="cls-17" d="M289.45,371.84c0,1.25-.21,2.35-.63,3.28-.42,.94-1.02,1.65-1.79,2.14s-1.68,.74-2.71,.74-1.9-.25-2.68-.74-1.38-1.2-1.81-2.12c-.43-.92-.65-1.98-.66-3.19v-.92c0-1.23,.21-2.32,.64-3.26s1.03-1.67,1.81-2.17c.78-.5,1.68-.75,2.69-.75s1.93,.25,2.71,.74c.78,.5,1.38,1.21,1.81,2.15,.42,.94,.63,2.03,.63,3.28v.81Zm-1.68-.83c0-1.52-.3-2.68-.91-3.49s-1.46-1.22-2.56-1.22-1.91,.41-2.52,1.22-.93,1.94-.94,3.38v.94c0,1.47,.31,2.63,.93,3.47s1.47,1.26,2.55,1.26,1.93-.4,2.53-1.19,.91-1.93,.92-3.42v-.95Z"/><path class="cls-17" d="M297.6,376.88c-.63,.74-1.56,1.12-2.79,1.12-1.01,0-1.79-.29-2.32-.88-.53-.59-.8-1.46-.8-2.62v-6.19h1.63v6.14c0,1.44,.59,2.16,1.76,2.16,1.24,0,2.07-.46,2.48-1.39v-6.92h1.63v9.51h-1.55l-.04-.94Z"/><path class="cls-17" d="M303.86,366.01v2.3h1.78v1.26h-1.78v5.91c0,.38,.08,.67,.24,.86s.43,.29,.81,.29c.19,0,.45-.04,.77-.11v1.31c-.43,.12-.84,.17-1.25,.17-.73,0-1.27-.22-1.64-.66s-.55-1.06-.55-1.87v-5.9h-1.73v-1.26h1.73v-2.3h1.63Z"/><path class="cls-17" d="M312.24,377.82v-12.8h3.61c1.11,0,2.1,.25,2.95,.74s1.52,1.19,1.98,2.1c.46,.91,.7,1.95,.71,3.13v.82c0,1.21-.23,2.26-.7,3.17-.46,.91-1.13,1.61-1.99,2.09-.87,.49-1.87,.74-3.02,.75h-3.54Zm1.69-11.42v10.04h1.78c1.3,0,2.31-.4,3.04-1.21s1.09-1.96,1.09-3.46v-.75c0-1.45-.34-2.58-1.02-3.39-.68-.81-1.65-1.22-2.91-1.23h-1.97Z"/></g><g><path class="cls-17" d="M259.26,413.82h-1.69v-12.8h1.69v12.8Z"/><path class="cls-17" d="M263.63,404.31l.05,1.2c.73-.91,1.68-1.37,2.85-1.37,2.01,0,3.02,1.13,3.04,3.4v6.28h-1.63v-6.29c0-.69-.16-1.19-.47-1.52s-.79-.49-1.44-.49c-.53,0-.99,.14-1.39,.42s-.71,.65-.93,1.11v6.78h-1.63v-9.51h1.54Z"/><path class="cls-17" d="M272.35,414.92h-1.4l5.34-13.9h1.39l-5.33,13.9Z"/><path class="cls-17" d="M289.54,407.84c0,1.25-.21,2.35-.63,3.28-.42,.94-1.02,1.65-1.79,2.14s-1.68,.74-2.71,.74-1.9-.25-2.68-.74-1.38-1.2-1.81-2.12c-.43-.92-.65-1.98-.66-3.19v-.92c0-1.23,.21-2.32,.64-3.26s1.03-1.67,1.81-2.17c.78-.5,1.68-.75,2.69-.75s1.93,.25,2.71,.74c.78,.5,1.38,1.21,1.81,2.15,.42,.94,.63,2.03,.63,3.28v.81Zm-1.68-.83c0-1.52-.3-2.68-.91-3.49s-1.46-1.22-2.56-1.22-1.91,.41-2.52,1.22-.93,1.94-.94,3.38v.94c0,1.47,.31,2.63,.93,3.47s1.47,1.26,2.55,1.26,1.93-.4,2.53-1.19,.91-1.93,.92-3.42v-.95Z"/><path class="cls-17" d="M297.69,412.88c-.63,.74-1.56,1.12-2.79,1.12-1.01,0-1.79-.29-2.32-.88-.53-.59-.8-1.46-.8-2.62v-6.19h1.63v6.14c0,1.44,.59,2.16,1.76,2.16,1.24,0,2.07-.46,2.48-1.39v-6.92h1.63v9.51h-1.55l-.04-.94Z"/><path class="cls-17" d="M303.95,402.01v2.3h1.78v1.26h-1.78v5.91c0,.38,.08,.67,.24,.86s.43,.29,.81,.29c.19,0,.45-.04,.77-.11v1.31c-.43,.12-.84,.17-1.25,.17-.73,0-1.27-.22-1.64-.66s-.55-1.06-.55-1.87v-5.9h-1.73v-1.26h1.73v-2.3h1.63Z"/><path class="cls-17" d="M321.74,409.76c-.16,1.35-.66,2.4-1.5,3.13-.84,.74-1.96,1.1-3.35,1.1-1.51,0-2.72-.54-3.63-1.63-.91-1.08-1.37-2.53-1.37-4.35v-1.23c0-1.19,.21-2.24,.64-3.14s1.03-1.59,1.81-2.08c.78-.48,1.68-.72,2.71-.72,1.36,0,2.45,.38,3.27,1.14s1.3,1.81,1.43,3.15h-1.7c-.15-1.02-.46-1.76-.95-2.22-.49-.46-1.17-.69-2.05-.69-1.08,0-1.92,.4-2.54,1.2s-.92,1.93-.92,3.4v1.24c0,1.39,.29,2.5,.87,3.32s1.39,1.23,2.43,1.23c.94,0,1.66-.21,2.16-.64,.5-.42,.83-1.16,1-2.22h1.7Z"/></g><g><path class="cls-17" d="M258.92,200.96c-.16,1.35-.66,2.4-1.5,3.13-.84,.74-1.96,1.1-3.35,1.1-1.51,0-2.72-.54-3.63-1.63s-1.37-2.53-1.37-4.35v-1.23c0-1.19,.21-2.24,.64-3.14s1.03-1.59,1.81-2.08c.78-.48,1.68-.72,2.71-.72,1.36,0,2.45,.38,3.27,1.14s1.3,1.81,1.43,3.15h-1.7c-.15-1.02-.46-1.76-.95-2.22-.49-.46-1.17-.69-2.05-.69-1.08,0-1.92,.4-2.54,1.2s-.92,1.93-.92,3.4v1.24c0,1.39,.29,2.5,.87,3.32s1.39,1.23,2.43,1.23c.94,0,1.66-.21,2.16-.64,.5-.42,.83-1.16,1-2.22h1.7Z"/><path class="cls-17" d="M260.54,200.18c0-.93,.18-1.77,.55-2.51s.88-1.32,1.53-1.72,1.4-.61,2.24-.61c1.29,0,2.34,.45,3.14,1.34s1.2,2.09,1.2,3.58v.11c0,.93-.18,1.76-.53,2.49-.35,.74-.86,1.31-1.52,1.72s-1.42,.62-2.27,.62c-1.29,0-2.33-.45-3.13-1.34s-1.2-2.08-1.2-3.56v-.11Zm1.63,.19c0,1.05,.24,1.9,.73,2.54s1.14,.96,1.96,.96,1.48-.32,1.97-.97c.49-.65,.73-1.55,.73-2.72,0-1.04-.25-1.89-.74-2.54-.5-.65-1.15-.97-1.97-.97s-1.45,.32-1.94,.96-.74,1.55-.74,2.74Z"/><path class="cls-17" d="M272.77,195.51l.05,1.2c.73-.91,1.68-1.37,2.85-1.37,2.01,0,3.02,1.13,3.04,3.4v6.28h-1.63v-6.29c0-.69-.16-1.19-.47-1.52s-.79-.49-1.44-.49c-.53,0-.99,.14-1.39,.42s-.71,.65-.93,1.11v6.78h-1.63v-9.51h1.54Z"/><path class="cls-17" d="M283.37,193.21v2.3h1.78v1.26h-1.78v5.91c0,.38,.08,.67,.24,.86s.43,.29,.81,.29c.19,0,.45-.04,.77-.11v1.31c-.43,.12-.84,.17-1.25,.17-.73,0-1.27-.22-1.64-.66s-.55-1.06-.55-1.87v-5.9h-1.73v-1.26h1.73v-2.3h1.63Z"/><path class="cls-17" d="M291.64,196.97c-.25-.04-.51-.06-.8-.06-1.07,0-1.79,.45-2.17,1.36v6.75h-1.63v-9.51h1.58l.03,1.1c.53-.85,1.29-1.27,2.27-1.27,.32,0,.56,.04,.72,.12v1.51Z"/><path class="cls-17" d="M292.53,200.18c0-.93,.18-1.77,.55-2.51s.88-1.32,1.53-1.72,1.4-.61,2.24-.61c1.29,0,2.34,.45,3.14,1.34s1.2,2.09,1.2,3.58v.11c0,.93-.18,1.76-.53,2.49-.35,.74-.86,1.31-1.52,1.72s-1.42,.62-2.27,.62c-1.29,0-2.33-.45-3.13-1.34s-1.2-2.08-1.2-3.56v-.11Zm1.63,.19c0,1.05,.24,1.9,.73,2.54s1.14,.96,1.96,.96,1.48-.32,1.97-.97c.49-.65,.73-1.55,.73-2.72,0-1.04-.25-1.89-.74-2.54-.5-.65-1.15-.97-1.97-.97s-1.45,.32-1.94,.96-.74,1.55-.74,2.74Z"/><path class="cls-17" d="M304.99,205.02h-1.63v-13.5h1.63v13.5Z"/><path class="cls-17" d="M319.37,201.67h-5.36l-1.2,3.35h-1.74l4.89-12.8h1.48l4.9,12.8h-1.73l-1.22-3.35Zm-4.85-1.38h4.35l-2.18-5.99-2.17,5.99Z"/></g><g><path class="cls-17" d="M258.86,258.56c-.16,1.35-.66,2.4-1.5,3.13-.84,.74-1.96,1.1-3.35,1.1-1.51,0-2.72-.54-3.63-1.63s-1.37-2.53-1.37-4.35v-1.23c0-1.19,.21-2.24,.64-3.14s1.03-1.59,1.81-2.08c.78-.48,1.68-.72,2.71-.72,1.36,0,2.45,.38,3.27,1.14s1.3,1.81,1.43,3.15h-1.7c-.15-1.02-.46-1.76-.95-2.22-.49-.46-1.17-.69-2.05-.69-1.08,0-1.92,.4-2.54,1.2s-.92,1.93-.92,3.4v1.24c0,1.39,.29,2.5,.87,3.32s1.39,1.23,2.43,1.23c.94,0,1.66-.21,2.16-.64,.5-.42,.83-1.16,1-2.22h1.7Z"/><path class="cls-17" d="M260.47,257.78c0-.93,.18-1.77,.55-2.51s.88-1.32,1.53-1.72,1.4-.61,2.24-.61c1.29,0,2.34,.45,3.14,1.34s1.2,2.09,1.2,3.58v.11c0,.93-.18,1.76-.53,2.49-.35,.74-.86,1.31-1.52,1.72s-1.42,.62-2.27,.62c-1.29,0-2.33-.45-3.13-1.34s-1.2-2.08-1.2-3.56v-.11Zm1.63,.19c0,1.05,.24,1.9,.73,2.54s1.14,.96,1.96,.96,1.48-.32,1.97-.97c.49-.65,.73-1.55,.73-2.72,0-1.04-.25-1.89-.74-2.54-.5-.65-1.15-.97-1.97-.97s-1.45,.32-1.94,.96-.74,1.55-.74,2.74Z"/><path class="cls-17" d="M272.71,253.11l.05,1.2c.73-.91,1.68-1.37,2.85-1.37,2.01,0,3.02,1.13,3.04,3.4v6.28h-1.63v-6.29c0-.69-.16-1.19-.47-1.52s-.79-.49-1.44-.49c-.53,0-.99,.14-1.39,.42s-.71,.65-.93,1.11v6.78h-1.63v-9.51h1.54Z"/><path class="cls-17" d="M283.31,250.81v2.3h1.78v1.26h-1.78v5.91c0,.38,.08,.67,.24,.86s.43,.29,.81,.29c.19,0,.45-.04,.77-.11v1.31c-.43,.12-.84,.17-1.25,.17-.73,0-1.27-.22-1.64-.66s-.55-1.06-.55-1.87v-5.9h-1.73v-1.26h1.73v-2.3h1.63Z"/><path class="cls-17" d="M291.58,254.57c-.25-.04-.51-.06-.8-.06-1.07,0-1.79,.45-2.17,1.36v6.75h-1.63v-9.51h1.58l.03,1.1c.53-.85,1.29-1.27,2.27-1.27,.32,0,.56,.04,.72,.12v1.51Z"/><path class="cls-17" d="M292.47,257.78c0-.93,.18-1.77,.55-2.51s.88-1.32,1.53-1.72,1.4-.61,2.24-.61c1.29,0,2.34,.45,3.14,1.34s1.2,2.09,1.2,3.58v.11c0,.93-.18,1.76-.53,2.49-.35,.74-.86,1.31-1.52,1.72s-1.42,.62-2.27,.62c-1.29,0-2.33-.45-3.13-1.34s-1.2-2.08-1.2-3.56v-.11Zm1.63,.19c0,1.05,.24,1.9,.73,2.54s1.14,.96,1.96,.96,1.48-.32,1.97-.97c.49-.65,.73-1.55,.73-2.72,0-1.04-.25-1.89-.74-2.54-.5-.65-1.15-.97-1.97-.97s-1.45,.32-1.94,.96-.74,1.55-.74,2.74Z"/><path class="cls-17" d="M304.93,262.62h-1.63v-13.5h1.63v13.5Z"/><path class="cls-17" d="M312.24,262.62v-12.8h3.61c1.11,0,2.1,.25,2.95,.74s1.52,1.19,1.98,2.1c.46,.91,.7,1.95,.71,3.13v.82c0,1.21-.23,2.26-.7,3.17-.46,.91-1.13,1.61-1.99,2.09-.87,.49-1.87,.74-3.02,.75h-3.54Zm1.69-11.42v10.04h1.78c1.3,0,2.31-.4,3.04-1.21s1.09-1.96,1.09-3.46v-.75c0-1.45-.34-2.58-1.02-3.39-.68-.81-1.65-1.22-2.91-1.23h-1.97Z"/></g><g><path class="cls-17" d="M259.26,491.58h-1.69v-12.8h1.69v12.8Z"/><path class="cls-17" d="M263.63,482.07l.05,1.2c.73-.91,1.68-1.37,2.85-1.37,2.01,0,3.02,1.13,3.04,3.4v6.28h-1.63v-6.29c0-.69-.16-1.19-.47-1.52s-.79-.49-1.44-.49c-.53,0-.99,.14-1.39,.42s-.71,.65-.93,1.11v6.78h-1.63v-9.51h1.54Z"/><path class="cls-17" d="M272.35,492.68h-1.4l5.34-13.9h1.39l-5.33,13.9Z"/><path class="cls-17" d="M289.54,485.6c0,1.25-.21,2.35-.63,3.28-.42,.94-1.02,1.65-1.79,2.14s-1.68,.74-2.71,.74-1.9-.25-2.68-.74-1.38-1.2-1.81-2.12c-.43-.92-.65-1.98-.66-3.19v-.92c0-1.23,.21-2.32,.64-3.26s1.03-1.67,1.81-2.17c.78-.5,1.68-.75,2.69-.75s1.93,.25,2.71,.74c.78,.5,1.38,1.21,1.81,2.15,.42,.94,.63,2.03,.63,3.28v.81Zm-1.68-.83c0-1.52-.3-2.68-.91-3.49s-1.46-1.22-2.56-1.22-1.91,.41-2.52,1.22-.93,1.94-.94,3.38v.94c0,1.47,.31,2.63,.93,3.47s1.47,1.26,2.55,1.26,1.93-.4,2.53-1.19,.91-1.93,.92-3.42v-.95Z"/><path class="cls-17" d="M297.69,490.64c-.63,.74-1.56,1.12-2.79,1.12-1.01,0-1.79-.29-2.32-.88-.53-.59-.8-1.46-.8-2.62v-6.19h1.63v6.14c0,1.44,.59,2.16,1.76,2.16,1.24,0,2.07-.46,2.48-1.39v-6.92h1.63v9.51h-1.55l-.04-.94Z"/><path class="cls-17" d="M303.95,479.77v2.3h1.78v1.26h-1.78v5.91c0,.38,.08,.67,.24,.86s.43,.29,.81,.29c.19,0,.45-.04,.77-.11v1.31c-.43,.12-.84,.17-1.25,.17-.73,0-1.27-.22-1.64-.66s-.55-1.06-.55-1.87v-5.9h-1.73v-1.26h1.73v-2.3h1.63Z"/><path class="cls-17" d="M321.74,487.52c-.16,1.35-.66,2.4-1.5,3.13-.84,.74-1.96,1.1-3.35,1.1-1.51,0-2.72-.54-3.63-1.63-.91-1.08-1.37-2.53-1.37-4.35v-1.23c0-1.19,.21-2.24,.64-3.14s1.03-1.59,1.81-2.08c.78-.48,1.68-.72,2.71-.72,1.36,0,2.45,.38,3.27,1.14s1.3,1.81,1.43,3.15h-1.7c-.15-1.02-.46-1.76-.95-2.22-.49-.46-1.17-.69-2.05-.69-1.08,0-1.92,.4-2.54,1.2s-.92,1.93-.92,3.4v1.24c0,1.39,.29,2.5,.87,3.32s1.39,1.23,2.43,1.23c.94,0,1.66-.21,2.16-.64,.5-.42,.83-1.16,1-2.22h1.7Z"/></g></g></svg>