<?xml version="1.0" encoding="UTF-8"?><svg xmlns="http://www.w3.org/2000/svg" viewBox="0 0 1080 600.48"><defs><style>.cls-1{fill:#cad2d9;}.cls-2,.cls-3{fill:none;stroke:#cad2d9;stroke-miterlimit:10;}.cls-3{stroke-width:.25px;}</style></defs><g id="TEXT"><g><path class="cls-1" d="M79.35,37.43l-.92-.63c.54-.76,.83-1.56,.84-2.41v-1.27h1.61v1.14c0,.59-.15,1.17-.44,1.75s-.65,1.05-1.09,1.41Zm2.7,0l-.92-.63c.54-.76,.83-1.56,.84-2.41v-1.27h1.61v1.14c0,.59-.15,1.17-.44,1.75s-.65,1.05-1.09,1.41Z"/><path class="cls-1" d="M93.42,41.16c0,1.9-.33,3.32-.98,4.25s-1.67,1.39-3.05,1.39-2.38-.45-3.03-1.36-1-2.26-1.02-4.06v-2.17c0-1.88,.33-3.28,.98-4.19s1.67-1.37,3.06-1.37,2.39,.44,3.04,1.32,.98,2.24,1,4.08v2.11Zm-1.63-2.22c0-1.38-.19-2.38-.58-3.01s-1-.94-1.84-.94-1.44,.31-1.82,.94-.58,1.59-.59,2.89v2.6c0,1.38,.2,2.4,.6,3.06s1.01,.99,1.82,.99,1.4-.31,1.79-.93,.59-1.6,.61-2.94v-2.66Z"/><path class="cls-1" d="M96.88,32.95l.93,.63c-.54,.74-.83,1.55-.84,2.41v1.2h-1.62v-1.02c0-.6,.14-1.19,.43-1.78s.65-1.07,1.1-1.44Zm2.77,0l.93,.63c-.54,.74-.83,1.55-.84,2.41v1.2h-1.62v-1.02c0-.6,.14-1.19,.43-1.78s.65-1.07,1.1-1.44Z"/></g><g><path class="cls-1" d="M79.35,80.63l-.92-.63c.54-.76,.83-1.56,.84-2.41v-1.27h1.61v1.14c0,.59-.15,1.17-.44,1.75s-.65,1.05-1.09,1.41Zm2.7,0l-.92-.63c.54-.76,.83-1.56,.84-2.41v-1.27h1.61v1.14c0,.59-.15,1.17-.44,1.75s-.65,1.05-1.09,1.41Z"/><path class="cls-1" d="M90.74,89.82h-1.63v-10.84l-3.28,1.2v-1.48l4.66-1.75h.25v12.86Z"/><path class="cls-1" d="M96.88,76.15l.93,.63c-.54,.74-.83,1.55-.84,2.41v1.2h-1.62v-1.02c0-.6,.14-1.19,.43-1.78s.65-1.07,1.1-1.44Zm2.77,0l.93,.63c-.54,.74-.83,1.55-.84,2.41v1.2h-1.62v-1.02c0-.6,.14-1.19,.43-1.78s.65-1.07,1.1-1.44Z"/></g><g><path class="cls-1" d="M80.41,119.35l.93,.63c-.54,.74-.83,1.55-.84,2.41v1.2h-1.62v-1.02c0-.6,.14-1.19,.43-1.78s.65-1.07,1.1-1.44Zm2.77,0l.93,.63c-.54,.74-.83,1.55-.84,2.41v1.2h-1.62v-1.02c0-.6,.14-1.19,.43-1.78s.65-1.07,1.1-1.44Z"/><path class="cls-1" d="M93.78,133.02h-8.38v-1.17l4.43-4.92c.66-.74,1.11-1.35,1.36-1.81s.37-.95,.37-1.45c0-.67-.2-1.22-.61-1.64s-.94-.64-1.62-.64c-.81,0-1.44,.23-1.89,.69s-.67,1.1-.67,1.92h-1.63c0-1.18,.38-2.13,1.14-2.86s1.77-1.09,3.05-1.09c1.19,0,2.13,.31,2.82,.94s1.04,1.45,1.04,2.49c0,1.26-.8,2.76-2.41,4.5l-3.43,3.72h6.42v1.33Z"/><path class="cls-1" d="M96.88,119.35l.93,.63c-.54,.74-.83,1.55-.84,2.41v1.2h-1.62v-1.02c0-.6,.14-1.19,.43-1.78s.65-1.07,1.1-1.44Zm2.77,0l.93,.63c-.54,.74-.83,1.55-.84,2.41v1.2h-1.62v-1.02c0-.6,.14-1.19,.43-1.78s.65-1.07,1.1-1.44Z"/></g><g><path class="cls-1" d="M80.41,162.55l.93,.63c-.54,.74-.83,1.55-.84,2.41v1.2h-1.62v-1.02c0-.6,.14-1.19,.43-1.78s.65-1.07,1.1-1.44Zm2.77,0l.93,.63c-.54,.74-.83,1.55-.84,2.41v1.2h-1.62v-1.02c0-.6,.14-1.19,.43-1.78s.65-1.07,1.1-1.44Z"/><path class="cls-1" d="M87.76,169.03h1.22c.77-.01,1.37-.21,1.81-.61s.66-.92,.66-1.59c0-1.5-.75-2.25-2.24-2.25-.7,0-1.26,.2-1.68,.6s-.63,.93-.63,1.6h-1.63c0-1.01,.37-1.86,1.11-2.53s1.68-1.01,2.83-1.01c1.21,0,2.15,.32,2.84,.96s1.03,1.53,1.03,2.66c0,.56-.18,1.1-.54,1.62s-.85,.91-1.47,1.17c.7,.22,1.25,.59,1.63,1.11s.58,1.15,.58,1.89c0,1.15-.38,2.06-1.12,2.73s-1.73,1.01-2.93,1.01-2.18-.33-2.93-.98-1.13-1.51-1.13-2.58h1.63c0,.67,.22,1.21,.66,1.62s1.03,.61,1.77,.61c.79,0,1.39-.21,1.8-.62s.62-1,.62-1.77-.23-1.32-.69-1.71-1.12-.6-1.98-.62h-1.22v-1.33Z"/><path class="cls-1" d="M96.88,162.55l.93,.63c-.54,.74-.83,1.55-.84,2.41v1.2h-1.62v-1.02c0-.6,.14-1.19,.43-1.78s.65-1.07,1.1-1.44Zm2.77,0l.93,.63c-.54,.74-.83,1.55-.84,2.41v1.2h-1.62v-1.02c0-.6,.14-1.19,.43-1.78s.65-1.07,1.1-1.44Z"/></g><g><path class="cls-1" d="M80.41,205.75l.93,.63c-.54,.74-.83,1.55-.84,2.41v1.2h-1.62v-1.02c0-.6,.14-1.19,.43-1.78s.65-1.07,1.1-1.44Zm2.77,0l.93,.63c-.54,.74-.83,1.55-.84,2.41v1.2h-1.62v-1.02c0-.6,.14-1.19,.43-1.78s.65-1.07,1.1-1.44Z"/><path class="cls-1" d="M92.26,215.12h1.78v1.33h-1.78v2.97h-1.63v-2.97h-5.83v-.96l5.73-8.87h1.73v8.5Zm-5.62,0h3.98v-6.28l-.19,.35-3.79,5.92Z"/><path class="cls-1" d="M96.88,205.75l.93,.63c-.54,.74-.83,1.55-.84,2.41v1.2h-1.62v-1.02c0-.6,.14-1.19,.43-1.78s.65-1.07,1.1-1.44Zm2.77,0l.93,.63c-.54,.74-.83,1.55-.84,2.41v1.2h-1.62v-1.02c0-.6,.14-1.19,.43-1.78s.65-1.07,1.1-1.44Z"/></g><g><path class="cls-1" d="M80.41,248.95l.93,.63c-.54,.74-.83,1.55-.84,2.41v1.2h-1.62v-1.02c0-.6,.14-1.19,.43-1.78s.65-1.07,1.1-1.44Zm2.77,0l.93,.63c-.54,.74-.83,1.55-.84,2.41v1.2h-1.62v-1.02c0-.6,.14-1.19,.43-1.78s.65-1.07,1.1-1.44Z"/><path class="cls-1" d="M86.14,256.2l.65-6.38h6.56v1.5h-5.18l-.39,3.49c.63-.37,1.34-.55,2.14-.55,1.17,0,2.09,.39,2.78,1.16s1.03,1.81,1.03,3.12-.36,2.36-1.07,3.12-1.71,1.14-2.98,1.14c-1.13,0-2.05-.31-2.77-.94s-1.12-1.49-1.22-2.6h1.54c.1,.73,.36,1.28,.78,1.66s.98,.56,1.67,.56c.76,0,1.35-.26,1.78-.77s.65-1.23,.65-2.14c0-.86-.23-1.54-.7-2.06s-1.09-.78-1.86-.78c-.71,0-1.27,.16-1.67,.47l-.43,.35-1.3-.33Z"/><path class="cls-1" d="M96.88,248.95l.93,.63c-.54,.74-.83,1.55-.84,2.41v1.2h-1.62v-1.02c0-.6,.14-1.19,.43-1.78s.65-1.07,1.1-1.44Zm2.77,0l.93,.63c-.54,.74-.83,1.55-.84,2.41v1.2h-1.62v-1.02c0-.6,.14-1.19,.43-1.78s.65-1.07,1.1-1.44Z"/></g><g><path class="cls-1" d="M80.41,292.15l.93,.63c-.54,.74-.83,1.55-.84,2.41v1.2h-1.62v-1.02c0-.6,.14-1.19,.43-1.78s.65-1.07,1.1-1.44Zm2.77,0l.93,.63c-.54,.74-.83,1.55-.84,2.41v1.2h-1.62v-1.02c0-.6,.14-1.19,.43-1.78s.65-1.07,1.1-1.44Z"/><path class="cls-1" d="M91.77,293.01v1.38h-.3c-1.27,.02-2.27,.4-3.02,1.12s-1.18,1.75-1.3,3.07c.67-.77,1.59-1.16,2.76-1.16s2,.39,2.67,1.18,1,1.8,1,3.04c0,1.32-.36,2.37-1.08,3.16s-1.68,1.19-2.89,1.19-2.22-.47-2.98-1.41c-.76-.94-1.14-2.15-1.14-3.63v-.62c0-2.36,.5-4.16,1.51-5.4,1-1.25,2.5-1.88,4.49-1.91h.29Zm-2.14,5.77c-.56,0-1.07,.17-1.54,.5s-.79,.75-.98,1.26v.6c0,1.05,.24,1.9,.71,2.55s1.07,.97,1.78,.97,1.31-.27,1.73-.81,.63-1.25,.63-2.12-.21-1.59-.64-2.13c-.42-.54-.99-.81-1.69-.81Z"/><path class="cls-1" d="M96.88,292.15l.93,.63c-.54,.74-.83,1.55-.84,2.41v1.2h-1.62v-1.02c0-.6,.14-1.19,.43-1.78s.65-1.07,1.1-1.44Zm2.77,0l.93,.63c-.54,.74-.83,1.55-.84,2.41v1.2h-1.62v-1.02c0-.6,.14-1.19,.43-1.78s.65-1.07,1.1-1.44Z"/></g><g><path class="cls-1" d="M80.41,335.35l.93,.63c-.54,.74-.83,1.55-.84,2.41v1.2h-1.62v-1.02c0-.6,.14-1.19,.43-1.78s.65-1.07,1.1-1.44Zm2.77,0l.93,.63c-.54,.74-.83,1.55-.84,2.41v1.2h-1.62v-1.02c0-.6,.14-1.19,.43-1.78s.65-1.07,1.1-1.44Z"/><path class="cls-1" d="M93.65,337.14l-5.3,11.88h-1.71l5.28-11.46h-6.93v-1.34h8.65v.91Z"/><path class="cls-1" d="M96.88,335.35l.93,.63c-.54,.74-.83,1.55-.84,2.41v1.2h-1.62v-1.02c0-.6,.14-1.19,.43-1.78s.65-1.07,1.1-1.44Zm2.77,0l.93,.63c-.54,.74-.83,1.55-.84,2.41v1.2h-1.62v-1.02c0-.6,.14-1.19,.43-1.78s.65-1.07,1.1-1.44Z"/></g><g><path class="cls-1" d="M66.8,431.36c-.16,1.35-.66,2.4-1.5,3.13s-1.96,1.1-3.35,1.1c-1.51,0-2.72-.54-3.63-1.63s-1.37-2.53-1.37-4.35v-1.23c0-1.19,.21-2.24,.64-3.14s1.03-1.59,1.81-2.08,1.68-.73,2.71-.73c1.36,0,2.45,.38,3.27,1.14s1.3,1.81,1.43,3.15h-1.7c-.15-1.02-.46-1.76-.95-2.22-.49-.46-1.17-.69-2.05-.69-1.08,0-1.92,.4-2.54,1.2-.61,.8-.92,1.93-.92,3.4v1.24c0,1.39,.29,2.5,.87,3.32,.58,.82,1.39,1.23,2.43,1.23,.94,0,1.66-.21,2.16-.64s.83-1.17,1-2.22h1.7Z"/><path class="cls-1" d="M70.62,435.42h-1.63v-13.5h1.63v13.5Z"/><path class="cls-1" d="M72.79,430.58c0-.93,.18-1.77,.55-2.51s.88-1.32,1.53-1.72,1.4-.61,2.24-.61c1.29,0,2.34,.45,3.14,1.34s1.2,2.09,1.2,3.58v.11c0,.93-.18,1.76-.53,2.49s-.86,1.31-1.52,1.72-1.42,.62-2.27,.62c-1.29,0-2.33-.45-3.13-1.34s-1.2-2.08-1.2-3.56v-.11Zm1.63,.19c0,1.05,.24,1.9,.73,2.54s1.14,.96,1.96,.96,1.48-.32,1.97-.97,.73-1.55,.73-2.72c0-1.04-.25-1.89-.74-2.54s-1.15-.97-1.97-.97-1.45,.32-1.94,.96-.74,1.55-.74,2.74Z"/><path class="cls-1" d="M87.3,434.27c.58,0,1.09-.18,1.52-.53s.67-.79,.72-1.32h1.54c-.03,.54-.22,1.06-.56,1.56s-.81,.88-1.38,1.18-1.19,.44-1.83,.44c-1.29,0-2.32-.43-3.09-1.3s-1.15-2.05-1.15-3.55v-.27c0-.93,.17-1.75,.51-2.47s.83-1.28,1.46-1.68,1.39-.6,2.25-.6c1.07,0,1.95,.32,2.66,.96s1.08,1.47,1.13,2.49h-1.54c-.05-.62-.28-1.12-.7-1.52s-.94-.59-1.55-.59c-.83,0-1.47,.3-1.92,.89s-.68,1.45-.68,2.58v.31c0,1.1,.23,1.94,.68,2.53s1.1,.89,1.93,.89Z"/><path class="cls-1" d="M95.56,431.02l-1.02,1.06v3.34h-1.63v-13.5h1.63v8.17l.87-1.05,2.96-3.13h1.98l-3.7,3.97,4.13,5.54h-1.91l-3.31-4.4Z"/></g><g><path class="cls-1" d="M54.64,478.62h-1.69v-12.8h1.69v12.8Z"/><path class="cls-1" d="M59.01,469.11l.05,1.2c.73-.91,1.68-1.37,2.85-1.37,2.01,0,3.02,1.13,3.04,3.4v6.28h-1.63v-6.29c0-.69-.16-1.19-.47-1.52s-.79-.49-1.44-.49c-.53,0-.99,.14-1.39,.42s-.71,.65-.93,1.11v6.78h-1.63v-9.51h1.54Z"/><path class="cls-1" d="M69.03,470.26c.72-.88,1.66-1.33,2.81-1.33,2.01,0,3.02,1.13,3.04,3.4v6.28h-1.63v-6.29c0-.69-.16-1.19-.47-1.52s-.79-.49-1.44-.49c-.53,0-.99,.14-1.39,.42s-.71,.65-.93,1.11v6.78h-1.63v-13.5h1.63v5.14Z"/><path class="cls-1" d="M77.32,466.59c0-.26,.08-.49,.24-.67s.4-.27,.72-.27,.56,.09,.72,.27,.25,.4,.25,.67-.08,.48-.25,.66-.4,.26-.72,.26-.56-.09-.72-.26-.24-.4-.24-.66Zm1.76,12.03h-1.63v-9.51h1.63v9.51Z"/><path class="cls-1" d="M89.73,473.97c0,1.45-.33,2.62-1,3.5s-1.56,1.32-2.69,1.32c-1.2,0-2.13-.42-2.79-1.27l-.08,1.1h-1.49v-13.5h1.63v5.04c.66-.81,1.56-1.22,2.72-1.22s2.06,.44,2.72,1.31,.99,2.07,.99,3.59v.14Zm-1.63-.18c0-1.11-.21-1.96-.64-2.57s-1.04-.91-1.85-.91c-1.07,0-1.84,.5-2.31,1.49v4.11c.5,1,1.27,1.49,2.33,1.49,.78,0,1.39-.3,1.82-.91s.65-1.51,.65-2.72Z"/><path class="cls-1" d="M91.79,466.59c0-.26,.08-.49,.24-.67s.4-.27,.72-.27,.56,.09,.72,.27,.25,.4,.25,.67-.08,.48-.25,.66-.4,.26-.72,.26-.56-.09-.72-.26-.24-.4-.24-.66Zm1.76,12.03h-1.63v-9.51h1.63v9.51Z"/><path class="cls-1" d="M98.36,466.81v2.3h1.78v1.26h-1.78v5.91c0,.38,.08,.67,.24,.86,.16,.19,.43,.29,.81,.29,.19,0,.45-.04,.77-.11v1.31c-.43,.12-.84,.17-1.25,.17-.73,0-1.27-.22-1.64-.66s-.55-1.06-.55-1.87v-5.9h-1.73v-1.26h1.73v-2.3h1.63Z"/></g><g><path class="cls-1" d="M61.66,516.64h-3.01v5.18h-1.7v-12.8h4.24c1.44,0,2.55,.33,3.33,.98s1.16,1.61,1.16,2.87c0,.8-.22,1.49-.65,2.08s-1.03,1.03-1.8,1.33l3.01,5.43v.11h-1.81l-2.78-5.18Zm-3.01-1.38h2.59c.84,0,1.5-.22,2-.65,.5-.43,.74-1.02,.74-1.74,0-.79-.24-1.4-.71-1.82-.47-.42-1.15-.64-2.04-.64h-2.58v4.86Z"/><path class="cls-1" d="M71.74,522c-1.29,0-2.34-.42-3.15-1.27-.81-.85-1.21-1.98-1.21-3.4v-.3c0-.94,.18-1.79,.54-2.53,.36-.74,.86-1.32,1.51-1.74,.65-.42,1.35-.63,2.1-.63,1.24,0,2.2,.41,2.88,1.22s1.03,1.98,1.03,3.5v.68h-6.44c.02,.94,.3,1.69,.82,2.27,.52,.58,1.19,.87,2,.87,.57,0,1.06-.12,1.46-.35s.75-.54,1.05-.93l.99,.77c-.8,1.22-1.99,1.84-3.59,1.84Zm-.2-8.53c-.66,0-1.21,.24-1.65,.72-.45,.48-.72,1.15-.83,2.01h4.76v-.12c-.05-.83-.27-1.47-.67-1.92-.4-.45-.94-.68-1.62-.68Z"/><path class="cls-1" d="M82.87,519.3c0-.44-.17-.78-.5-1.02-.33-.24-.91-.45-1.73-.63s-1.48-.39-1.96-.63-.84-.54-1.07-.88-.35-.74-.35-1.21c0-.78,.33-1.44,.99-1.98s1.5-.81,2.53-.81c1.08,0,1.95,.28,2.62,.83s1.01,1.27,1.01,2.14h-1.63c0-.45-.19-.83-.57-1.15s-.85-.48-1.43-.48-1.05,.13-1.39,.39-.5,.59-.5,1.01c0,.39,.16,.69,.47,.89s.87,.39,1.68,.57,1.47,.4,1.97,.65,.88,.55,1.12,.91c.24,.35,.36,.79,.36,1.3,0,.85-.34,1.53-1.02,2.04-.68,.51-1.56,.77-2.65,.77-.76,0-1.44-.13-2.02-.4s-1.04-.65-1.38-1.13c-.33-.48-.5-1.01-.5-1.57h1.63c.03,.54,.25,.98,.65,1.3,.41,.32,.94,.48,1.61,.48,.62,0,1.11-.12,1.48-.37,.37-.25,.56-.58,.56-1Z"/><path class="cls-1" d="M90.56,522c-1.29,0-2.34-.42-3.15-1.27-.81-.85-1.21-1.98-1.21-3.4v-.3c0-.94,.18-1.79,.54-2.53,.36-.74,.86-1.32,1.51-1.74,.65-.42,1.35-.63,2.1-.63,1.24,0,2.2,.41,2.88,1.22s1.03,1.98,1.03,3.5v.68h-6.44c.02,.94,.3,1.69,.82,2.27,.52,.58,1.19,.87,2,.87,.57,0,1.06-.12,1.46-.35s.75-.54,1.05-.93l.99,.77c-.8,1.22-1.99,1.84-3.59,1.84Zm-.2-8.53c-.66,0-1.21,.24-1.65,.72-.45,.48-.72,1.15-.83,2.01h4.76v-.12c-.05-.83-.27-1.47-.67-1.92-.4-.45-.94-.68-1.62-.68Z"/><path class="cls-1" d="M98.36,510.01v2.3h1.78v1.26h-1.78v5.9c0,.38,.08,.67,.24,.86s.43,.29,.81,.29c.19,0,.45-.04,.77-.11v1.31c-.43,.12-.84,.17-1.25,.17-.73,0-1.27-.22-1.64-.66s-.55-1.06-.55-1.87v-5.9h-1.73v-1.26h1.73v-2.3h1.63Z"/></g><path class="cls-1" d="M113.91,56.46h3.03v.69h-3.88v-6.4h.85v5.71Z"/><path class="cls-1" d="M117.98,29.79h-.85v-2.96h-3.23v2.96h-.84v-6.4h.84v2.75h3.23v-2.75h.85v6.4Z"/><path class="cls-1" d="M113.91,98.22h3.03v.69h-3.88v-6.4h.85v5.71Z"/><path class="cls-1" d="M117.98,71.55h-.85v-2.96h-3.23v2.96h-.84v-6.4h.84v2.75h3.23v-2.75h.85v6.4Z"/><path class="cls-1" d="M113.91,141.42h3.03v.69h-3.88v-6.4h.85v5.71Z"/><path class="cls-1" d="M117.98,114.75h-.85v-2.96h-3.23v2.96h-.84v-6.4h.84v2.75h3.23v-2.75h.85v6.4Z"/><path class="cls-1" d="M113.91,183.18h3.03v.69h-3.88v-6.4h.85v5.71Z"/><path class="cls-1" d="M117.98,156.51h-.85v-2.96h-3.23v2.96h-.84v-6.4h.84v2.75h3.23v-2.75h.85v6.4Z"/><path class="cls-1" d="M113.91,227.82h3.03v.69h-3.88v-6.4h.85v5.71Z"/><path class="cls-1" d="M117.98,201.15h-.85v-2.96h-3.23v2.96h-.84v-6.4h.84v2.75h3.23v-2.75h.85v6.4Z"/><path class="cls-1" d="M113.91,269.58h3.03v.69h-3.88v-6.4h.85v5.71Z"/><path class="cls-1" d="M117.98,242.91h-.85v-2.96h-3.23v2.96h-.84v-6.4h.84v2.75h3.23v-2.75h.85v6.4Z"/><path class="cls-1" d="M113.91,312.78h3.03v.69h-3.88v-6.4h.85v5.71Z"/><path class="cls-1" d="M117.98,286.11h-.85v-2.96h-3.23v2.96h-.84v-6.4h.84v2.75h3.23v-2.75h.85v6.4Z"/><path class="cls-1" d="M113.91,354.54h3.03v.69h-3.88v-6.4h.85v5.71Z"/><path class="cls-1" d="M117.98,327.87h-.85v-2.96h-3.23v2.96h-.84v-6.4h.84v2.75h3.23v-2.75h.85v6.4Z"/><path class="cls-1" d="M113.91,445.26h3.03v.69h-3.88v-6.4h.85v5.71Z"/><path class="cls-1" d="M117.98,418.59h-.85v-2.96h-3.23v2.96h-.84v-6.4h.84v2.75h3.23v-2.75h.85v6.4Z"/><path class="cls-1" d="M113.91,487.02h3.03v.69h-3.88v-6.4h.85v5.71Z"/><path class="cls-1" d="M117.98,460.35h-.85v-2.96h-3.23v2.96h-.84v-6.4h.84v2.75h3.23v-2.75h.85v6.4Z"/><path class="cls-1" d="M113.91,530.22h3.03v.69h-3.88v-6.4h.85v5.71Z"/><path class="cls-1" d="M117.98,503.55h-.85v-2.96h-3.23v2.96h-.84v-6.4h.84v2.75h3.23v-2.75h.85v6.4Z"/><g><path class="cls-1" d="M36.7,560.96c-.16,1.35-.66,2.4-1.5,3.13s-1.96,1.1-3.35,1.1c-1.51,0-2.72-.54-3.63-1.63s-1.37-2.53-1.37-4.35v-1.23c0-1.19,.21-2.24,.64-3.14s1.03-1.6,1.81-2.08,1.68-.72,2.71-.72c1.36,0,2.45,.38,3.27,1.14s1.3,1.81,1.43,3.15h-1.7c-.15-1.02-.46-1.76-.95-2.22-.49-.46-1.17-.69-2.05-.69-1.08,0-1.92,.4-2.54,1.2s-.92,1.93-.92,3.4v1.24c0,1.39,.29,2.5,.87,3.32,.58,.82,1.39,1.23,2.43,1.23,.94,0,1.66-.21,2.16-.64s.83-1.16,1-2.22h1.7Z"/><path class="cls-1" d="M44.62,565.02c-.09-.19-.17-.52-.23-1-.76,.79-1.66,1.18-2.71,1.18-.94,0-1.71-.27-2.31-.8s-.9-1.2-.9-2.02c0-.99,.38-1.76,1.13-2.31s1.81-.82,3.18-.82h1.58v-.75c0-.57-.17-1.02-.51-1.36s-.84-.5-1.5-.5c-.58,0-1.07,.15-1.46,.44s-.59,.65-.59,1.06h-1.63c0-.47,.17-.93,.51-1.38s.79-.79,1.37-1.05,1.21-.39,1.9-.39c1.1,0,1.95,.27,2.58,.82s.94,1.3,.97,2.26v4.38c0,.87,.11,1.57,.33,2.08v.14h-1.71Zm-2.7-1.24c.51,0,.99-.13,1.45-.4s.79-.61,.99-1.03v-1.95h-1.27c-1.99,0-2.99,.58-2.99,1.75,0,.51,.17,.91,.51,1.2s.78,.43,1.31,.43Z"/><path class="cls-1" d="M53.14,556.97c-.25-.04-.51-.06-.8-.06-1.07,0-1.79,.45-2.17,1.36v6.75h-1.63v-9.51h1.58l.03,1.1c.53-.85,1.29-1.27,2.27-1.27,.32,0,.56,.04,.72,.12v1.51Z"/><path class="cls-1" d="M59.23,556.97c-.25-.04-.51-.06-.8-.06-1.07,0-1.79,.45-2.17,1.36v6.75h-1.63v-9.51h1.58l.03,1.1c.53-.85,1.29-1.27,2.27-1.27,.32,0,.56,.04,.72,.12v1.51Z"/><path class="cls-1" d="M63.99,562.64l2.21-7.13h1.74l-3.82,10.98c-.59,1.58-1.53,2.37-2.82,2.37l-.31-.03-.61-.11v-1.32l.44,.04c.55,0,.98-.11,1.29-.33s.56-.63,.76-1.22l.36-.97-3.39-9.4h1.78l2.37,7.13Z"/><path class="cls-1" d="M83.95,559.03c0,1.25-.21,2.35-.63,3.28s-1.02,1.65-1.79,2.14-1.68,.74-2.71,.74-1.9-.25-2.68-.74-1.38-1.2-1.81-2.12-.65-1.98-.66-3.19v-.92c0-1.23,.21-2.32,.64-3.26s1.03-1.67,1.81-2.17,1.68-.75,2.69-.75,1.93,.25,2.71,.74,1.38,1.21,1.81,2.15,.63,2.04,.63,3.28v.81Zm-1.68-.83c0-1.52-.3-2.68-.91-3.49s-1.46-1.22-2.56-1.22-1.91,.41-2.52,1.22-.93,1.94-.94,3.38v.94c0,1.47,.31,2.63,.93,3.47s1.47,1.26,2.55,1.26,1.93-.4,2.53-1.19,.91-1.93,.92-3.41v-.95Z"/><path class="cls-1" d="M92.1,564.08c-.63,.74-1.56,1.12-2.79,1.12-1.01,0-1.79-.29-2.32-.88s-.8-1.46-.8-2.61v-6.19h1.63v6.14c0,1.44,.59,2.16,1.76,2.16,1.24,0,2.07-.46,2.48-1.39v-6.92h1.63v9.51h-1.55l-.04-.94Z"/><path class="cls-1" d="M98.36,553.21v2.3h1.78v1.26h-1.78v5.9c0,.38,.08,.67,.24,.86s.43,.29,.81,.29c.19,0,.45-.04,.77-.11v1.31c-.43,.12-.84,.17-1.25,.17-.73,0-1.27-.22-1.64-.66s-.55-1.06-.55-1.87v-5.9h-1.73v-1.26h1.73v-2.3h1.63Z"/></g><path class="cls-1" d="M113.91,573.42h3.03v.69h-3.88v-6.4h.85v5.71Z"/><path class="cls-1" d="M117.98,546.75h-.85v-2.96h-3.23v2.96h-.84v-6.4h.84v2.75h3.23v-2.75h.85v6.4Z"/></g><g id="Linie"><line class="cls-2" x1="122.4" y1="414.72" x2="136.8" y2="414.72"/><line class="cls-2" x1="122.4" y1="443.52" x2="122.4" y2="414.72"/><line class="cls-2" x1="136.8" y1="443.52" x2="136.8" y2="414.72"/><line class="cls-2" x1="136.8" y1="443.52" x2="151.2" y2="443.52"/><line class="cls-2" x1="151.2" y1="414.72" x2="165.6" y2="414.72"/><line class="cls-2" x1="151.2" y1="443.52" x2="151.2" y2="414.72"/><line class="cls-2" x1="165.6" y1="443.52" x2="165.6" y2="414.72"/><line class="cls-2" x1="165.6" y1="443.52" x2="180" y2="443.52"/><line class="cls-2" x1="180" y1="414.72" x2="194.4" y2="414.72"/><line class="cls-2" x1="180" y1="443.52" x2="180" y2="414.72"/><line class="cls-2" x1="194.4" y1="443.52" x2="194.4" y2="414.72"/><line class="cls-2" x1="194.4" y1="443.52" x2="208.8" y2="443.52"/><line class="cls-2" x1="208.8" y1="414.72" x2="223.2" y2="414.72"/><line class="cls-2" x1="208.8" y1="443.52" x2="208.8" y2="414.72"/><line class="cls-2" x1="223.2" y1="443.52" x2="223.2" y2="414.72"/><line class="cls-2" x1="223.2" y1="443.52" x2="237.6" y2="443.52"/><line class="cls-2" x1="237.6" y1="414.72" x2="252" y2="414.72"/><line class="cls-2" x1="237.6" y1="443.52" x2="237.6" y2="414.72"/><line class="cls-2" x1="252" y1="443.52" x2="252" y2="414.72"/><line class="cls-2" x1="252" y1="443.52" x2="266.4" y2="443.52"/><line class="cls-2" x1="266.4" y1="414.72" x2="280.8" y2="414.72"/><line class="cls-2" x1="266.4" y1="443.52" x2="266.4" y2="414.72"/><line class="cls-2" x1="280.8" y1="443.52" x2="280.8" y2="414.72"/><line class="cls-2" x1="280.8" y1="443.52" x2="295.2" y2="443.52"/><line class="cls-2" x1="295.2" y1="414.72" x2="309.6" y2="414.72"/><line class="cls-2" x1="309.6" y1="443.52" x2="309.6" y2="414.72"/><line class="cls-2" x1="309.6" y1="443.52" x2="324" y2="443.52"/><line class="cls-2" x1="324" y1="414.72" x2="338.4" y2="414.72"/><line class="cls-2" x1="324" y1="443.52" x2="324" y2="414.72"/><line class="cls-2" x1="338.4" y1="443.52" x2="338.4" y2="414.72"/><line class="cls-2" x1="338.4" y1="443.52" x2="352.8" y2="443.52"/><line class="cls-2" x1="295.2" y1="443.52" x2="295.2" y2="414.72"/><line class="cls-2" x1="352.8" y1="414.72" x2="367.2" y2="414.72"/><line class="cls-2" x1="352.8" y1="443.52" x2="352.8" y2="414.72"/><line class="cls-2" x1="367.2" y1="443.52" x2="367.2" y2="414.72"/><line class="cls-2" x1="367.2" y1="443.52" x2="381.6" y2="443.52"/><line class="cls-2" x1="381.6" y1="414.72" x2="396" y2="414.72"/><line class="cls-2" x1="381.6" y1="443.52" x2="381.6" y2="414.72"/><line class="cls-2" x1="396" y1="443.52" x2="396" y2="414.72"/><line class="cls-2" x1="396" y1="443.52" x2="410.4" y2="443.52"/><line class="cls-2" x1="410.4" y1="414.72" x2="424.8" y2="414.72"/><line class="cls-2" x1="410.4" y1="443.52" x2="410.4" y2="414.72"/><line class="cls-2" x1="424.8" y1="443.52" x2="424.8" y2="414.72"/><line class="cls-2" x1="424.8" y1="443.52" x2="439.2" y2="443.52"/><line class="cls-2" x1="439.2" y1="414.72" x2="453.6" y2="414.72"/><line class="cls-2" x1="439.2" y1="443.52" x2="439.2" y2="414.72"/><line class="cls-2" x1="453.6" y1="443.52" x2="453.6" y2="414.72"/><line class="cls-2" x1="453.6" y1="443.52" x2="468" y2="443.52"/><line class="cls-2" x1="468" y1="414.72" x2="482.4" y2="414.72"/><line class="cls-2" x1="468" y1="443.52" x2="468" y2="414.72"/><line class="cls-2" x1="482.4" y1="443.52" x2="482.4" y2="414.72"/><line class="cls-2" x1="482.4" y1="443.52" x2="496.8" y2="443.52"/><line class="cls-2" x1="496.8" y1="414.72" x2="511.2" y2="414.72"/><line class="cls-2" x1="496.8" y1="443.52" x2="496.8" y2="414.72"/><line class="cls-2" x1="511.2" y1="443.52" x2="511.2" y2="414.72"/><line class="cls-2" x1="511.2" y1="443.52" x2="525.6" y2="443.52"/><line class="cls-2" x1="525.6" y1="414.72" x2="540" y2="414.72"/><line class="cls-2" x1="540" y1="443.52" x2="540" y2="414.72"/><line class="cls-2" x1="540" y1="443.52" x2="554.4" y2="443.52"/><line class="cls-2" x1="554.4" y1="414.72" x2="568.8" y2="414.72"/><line class="cls-2" x1="554.4" y1="443.52" x2="554.4" y2="414.72"/><line class="cls-2" x1="568.8" y1="443.52" x2="568.8" y2="414.72"/><line class="cls-2" x1="568.8" y1="443.52" x2="583.2" y2="443.52"/><line class="cls-2" x1="525.6" y1="443.52" x2="525.6" y2="414.72"/><line class="cls-2" x1="583.2" y1="414.72" x2="597.6" y2="414.72"/><line class="cls-2" x1="583.2" y1="443.52" x2="583.2" y2="414.72"/><line class="cls-2" x1="597.6" y1="443.52" x2="597.6" y2="414.72"/><line class="cls-2" x1="597.6" y1="443.52" x2="612" y2="443.52"/><line class="cls-2" x1="612" y1="414.72" x2="626.4" y2="414.72"/><line class="cls-2" x1="612" y1="443.52" x2="612" y2="414.72"/><line class="cls-2" x1="626.4" y1="443.52" x2="626.4" y2="414.72"/><line class="cls-2" x1="626.4" y1="443.52" x2="640.8" y2="443.52"/><line class="cls-2" x1="640.8" y1="414.72" x2="655.2" y2="414.72"/><line class="cls-2" x1="640.8" y1="443.52" x2="640.8" y2="414.72"/><line class="cls-2" x1="655.2" y1="443.52" x2="655.2" y2="414.72"/><line class="cls-2" x1="655.2" y1="443.52" x2="669.6" y2="443.52"/><line class="cls-2" x1="669.6" y1="414.72" x2="684" y2="414.72"/><line class="cls-2" x1="669.6" y1="443.52" x2="669.6" y2="414.72"/><line class="cls-2" x1="684" y1="443.52" x2="684" y2="414.72"/><line class="cls-2" x1="684" y1="443.52" x2="698.4" y2="443.52"/><line class="cls-2" x1="698.4" y1="414.72" x2="712.8" y2="414.72"/><line class="cls-2" x1="698.4" y1="443.52" x2="698.4" y2="414.72"/><line class="cls-2" x1="712.8" y1="443.52" x2="712.8" y2="414.72"/><line class="cls-2" x1="712.8" y1="443.52" x2="727.2" y2="443.52"/><line class="cls-2" x1="727.2" y1="414.72" x2="741.6" y2="414.72"/><line class="cls-2" x1="727.2" y1="443.52" x2="727.2" y2="414.72"/><line class="cls-2" x1="741.6" y1="443.52" x2="741.6" y2="414.72"/><line class="cls-2" x1="741.6" y1="443.52" x2="756" y2="443.52"/><line class="cls-2" x1="756" y1="414.72" x2="770.4" y2="414.72"/><line class="cls-2" x1="770.4" y1="443.52" x2="770.4" y2="414.72"/><line class="cls-2" x1="770.4" y1="443.52" x2="784.8" y2="443.52"/><line class="cls-2" x1="784.8" y1="414.72" x2="799.2" y2="414.72"/><line class="cls-2" x1="784.8" y1="443.52" x2="784.8" y2="414.72"/><line class="cls-2" x1="799.2" y1="443.52" x2="799.2" y2="414.72"/><line class="cls-2" x1="799.2" y1="443.52" x2="813.6" y2="443.52"/><line class="cls-2" x1="756" y1="443.52" x2="756" y2="414.72"/><line class="cls-2" x1="813.6" y1="414.72" x2="828" y2="414.72"/><line class="cls-2" x1="813.6" y1="443.52" x2="813.6" y2="414.72"/><line class="cls-2" x1="828" y1="443.52" x2="828" y2="414.72"/><line class="cls-2" x1="828" y1="443.52" x2="842.4" y2="443.52"/><line class="cls-2" x1="842.4" y1="414.72" x2="856.8" y2="414.72"/><line class="cls-2" x1="842.4" y1="443.52" x2="842.4" y2="414.72"/><line class="cls-2" x1="856.8" y1="443.52" x2="856.8" y2="414.72"/><line class="cls-2" x1="856.8" y1="443.52" x2="871.2" y2="443.52"/><line class="cls-2" x1="871.2" y1="414.72" x2="885.6" y2="414.72"/><line class="cls-2" x1="871.2" y1="443.52" x2="871.2" y2="414.72"/><line class="cls-2" x1="885.6" y1="443.52" x2="885.6" y2="414.72"/><line class="cls-2" x1="885.6" y1="443.52" x2="900" y2="443.52"/><line class="cls-2" x1="122.4" y1="25.92" x2="151.2" y2="25.92"/><line class="cls-2" x1="122.4" y1="54.72" x2="122.4" y2="25.92"/><line class="cls-2" x1="151.2" y1="54.72" x2="151.2" y2="25.92"/><line class="cls-2" x1="151.2" y1="54.72" x2="352.8" y2="54.72"/><line class="cls-2" x1="151.2" y1="69.12" x2="180" y2="69.12"/><line class="cls-2" x1="151.2" y1="97.92" x2="151.2" y2="69.12"/><line class="cls-2" x1="180" y1="97.92" x2="180" y2="69.12"/><line class="cls-2" x1="180" y1="97.92" x2="381.6" y2="97.92"/><line class="cls-2" x1="180" y1="112.32" x2="208.8" y2="112.32"/><line class="cls-2" x1="180" y1="141.12" x2="180" y2="112.32"/><line class="cls-2" x1="208.8" y1="141.12" x2="208.8" y2="112.32"/><line class="cls-2" x1="208.8" y1="141.12" x2="410.4" y2="141.12"/><line class="cls-2" x1="208.8" y1="155.52" x2="237.6" y2="155.52"/><line class="cls-2" x1="208.8" y1="184.32" x2="208.8" y2="155.52"/><line class="cls-2" x1="237.6" y1="184.32" x2="237.6" y2="155.52"/><line class="cls-2" x1="237.6" y1="184.32" x2="439.2" y2="184.32"/><line class="cls-2" x1="237.6" y1="198.72" x2="266.4" y2="198.72"/><line class="cls-2" x1="237.6" y1="227.52" x2="237.6" y2="198.72"/><line class="cls-2" x1="266.4" y1="227.52" x2="266.4" y2="198.72"/><line class="cls-2" x1="266.4" y1="227.52" x2="468" y2="227.52"/><line class="cls-2" x1="266.4" y1="241.92" x2="295.2" y2="241.92"/><line class="cls-2" x1="266.4" y1="270.72" x2="266.4" y2="241.92"/><line class="cls-2" x1="295.2" y1="270.72" x2="295.2" y2="241.92"/><line class="cls-2" x1="295.2" y1="270.72" x2="525.6" y2="270.72"/><line class="cls-2" x1="295.2" y1="285.12" x2="324" y2="285.12"/><line class="cls-2" x1="295.2" y1="313.92" x2="295.2" y2="285.12"/><line class="cls-2" x1="324" y1="313.92" x2="324" y2="285.12"/><line class="cls-2" x1="324" y1="313.92" x2="612" y2="313.92"/><line class="cls-2" x1="324" y1="328.32" x2="352.8" y2="328.32"/><line class="cls-2" x1="324" y1="357.12" x2="324" y2="328.32"/><line class="cls-2" x1="352.8" y1="357.12" x2="352.8" y2="328.32"/><line class="cls-2" x1="352.8" y1="357.12" x2="640.8" y2="357.12"/><line class="cls-2" x1="352.8" y1="25.92" x2="381.6" y2="25.92"/><line class="cls-2" x1="352.8" y1="54.72" x2="352.8" y2="25.92"/><line class="cls-2" x1="381.6" y1="54.72" x2="381.6" y2="25.92"/><line class="cls-2" x1="381.6" y1="54.72" x2="669.6" y2="54.72"/><line class="cls-2" x1="381.6" y1="69.12" x2="410.4" y2="69.12"/><line class="cls-2" x1="381.6" y1="97.92" x2="381.6" y2="69.12"/><line class="cls-2" x1="410.4" y1="97.92" x2="410.4" y2="69.12"/><line class="cls-2" x1="410.4" y1="112.32" x2="525.6" y2="112.32"/><line class="cls-2" x1="410.4" y1="141.12" x2="410.4" y2="112.32"/><line class="cls-2" x1="525.6" y1="141.12" x2="525.6" y2="112.32"/><line class="cls-2" x1="439.2" y1="184.32" x2="525.6" y2="184.32"/><line class="cls-2" x1="468" y1="227.52" x2="554.4" y2="227.52"/><line class="cls-2" x1="525.6" y1="270.72" x2="583.2" y2="270.72"/><line class="cls-2" x1="554.4" y1="198.72" x2="583.2" y2="198.72"/><line class="cls-2" x1="554.4" y1="227.52" x2="554.4" y2="198.72"/><line class="cls-2" x1="583.2" y1="227.52" x2="583.2" y2="198.72"/><line class="cls-2" x1="640.8" y1="328.32" x2="669.6" y2="328.32"/><line class="cls-2" x1="640.8" y1="357.12" x2="640.8" y2="328.32"/><line class="cls-2" x1="669.6" y1="357.12" x2="669.6" y2="328.32"/><line class="cls-2" x1="669.6" y1="25.92" x2="698.4" y2="25.92"/><line class="cls-2" x1="698.4" y1="54.72" x2="698.4" y2="25.92"/><line class="cls-2" x1="324" y1="357.12" x2="122.4" y2="357.12"/><line class="cls-2" x1="295.2" y1="313.92" x2="122.4" y2="313.92"/><line class="cls-2" x1="266.4" y1="270.72" x2="122.4" y2="270.72"/><line class="cls-2" x1="237.6" y1="227.52" x2="122.4" y2="227.52"/><line class="cls-2" x1="208.8" y1="184.32" x2="122.4" y2="184.32"/><line class="cls-2" x1="180" y1="141.12" x2="122.4" y2="141.12"/><line class="cls-2" x1="151.2" y1="97.92" x2="122.4" y2="97.92"/><line class="cls-2" x1="122.4" y1="486.72" x2="424.8" y2="486.72"/><line class="cls-2" x1="424.8" y1="457.92" x2="511.2" y2="457.92"/><line class="cls-2" x1="424.8" y1="486.72" x2="424.8" y2="457.92"/><line class="cls-2" x1="511.2" y1="486.72" x2="986.4" y2="486.72"/><line class="cls-2" x1="122.4" y1="529.92" x2="756" y2="529.92"/><line class="cls-2" x1="511.2" y1="486.72" x2="511.2" y2="457.92"/><line class="cls-2" x1="756" y1="501.12" x2="799.2" y2="501.12"/><line class="cls-2" x1="756" y1="529.92" x2="756" y2="501.12"/><line class="cls-2" x1="799.2" y1="529.92" x2="799.2" y2="501.12"/><line class="cls-2" x1="799.2" y1="529.92" x2="986.4" y2="529.92"/><line class="cls-3" x1="122.4" y1="25.92" x2="122.4" y2="573.12"/><line class="cls-3" x1="151.2" y1="25.92" x2="151.2" y2="573.12"/><line class="cls-3" x1="180" y1="25.92" x2="180" y2="573.12"/><line class="cls-3" x1="208.8" y1="25.92" x2="208.8" y2="573.12"/><line class="cls-3" x1="237.6" y1="25.92" x2="237.6" y2="573.12"/><line class="cls-3" x1="266.4" y1="25.92" x2="266.4" y2="573.12"/><line class="cls-3" x1="295.2" y1="25.92" x2="295.2" y2="573.12"/><line class="cls-3" x1="324" y1="25.92" x2="324" y2="573.12"/><line class="cls-3" x1="352.8" y1="25.92" x2="352.8" y2="573.12"/><line class="cls-3" x1="381.6" y1="25.92" x2="381.6" y2="573.12"/><line class="cls-3" x1="410.4" y1="25.92" x2="410.4" y2="573.12"/><line class="cls-3" x1="439.2" y1="25.92" x2="439.2" y2="573.12"/><line class="cls-3" x1="468" y1="25.92" x2="468" y2="573.12"/><line class="cls-3" x1="496.8" y1="25.92" x2="496.8" y2="573.12"/><line class="cls-3" x1="525.6" y1="25.92" x2="525.6" y2="573.12"/><line class="cls-3" x1="554.4" y1="25.92" x2="554.4" y2="573.12"/><line class="cls-3" x1="583.2" y1="25.92" x2="583.2" y2="573.12"/><line class="cls-3" x1="612" y1="25.92" x2="612" y2="573.12"/><line class="cls-3" x1="640.8" y1="25.92" x2="640.8" y2="573.12"/><line class="cls-2" x1="583.2" y1="241.92" x2="612" y2="241.92"/><line class="cls-2" x1="583.2" y1="270.72" x2="583.2" y2="241.92"/><line class="cls-2" x1="612" y1="270.72" x2="612" y2="241.92"/><line class="cls-2" x1="612" y1="285.12" x2="640.8" y2="285.12"/><line class="cls-2" x1="612" y1="313.92" x2="612" y2="285.12"/><line class="cls-2" x1="640.8" y1="313.92" x2="640.8" y2="285.12"/><line class="cls-2" x1="698.4" y1="54.72" x2="756" y2="54.72"/><line class="cls-2" x1="698.4" y1="69.12" x2="727.2" y2="69.12"/><line class="cls-2" x1="698.4" y1="97.92" x2="698.4" y2="69.12"/><line class="cls-2" x1="727.2" y1="97.92" x2="727.2" y2="69.12"/><line class="cls-2" x1="727.2" y1="112.32" x2="756" y2="112.32"/><line class="cls-2" x1="727.2" y1="141.12" x2="727.2" y2="112.32"/><line class="cls-2" x1="756" y1="141.12" x2="756" y2="112.32"/><line class="cls-2" x1="756" y1="25.92" x2="813.6" y2="25.92"/><line class="cls-2" x1="756" y1="54.72" x2="756" y2="25.92"/><line class="cls-2" x1="813.6" y1="54.72" x2="813.6" y2="25.92"/><line class="cls-2" x1="813.6" y1="54.72" x2="986.4" y2="54.72"/><line class="cls-2" x1="813.6" y1="69.12" x2="842.4" y2="69.12"/><line class="cls-2" x1="813.6" y1="97.92" x2="813.6" y2="69.12"/><line class="cls-2" x1="842.4" y1="97.92" x2="842.4" y2="69.12"/><line class="cls-2" x1="842.4" y1="97.92" x2="986.4" y2="97.92"/><line class="cls-2" x1="842.4" y1="112.32" x2="871.2" y2="112.32"/><line class="cls-2" x1="842.4" y1="141.12" x2="842.4" y2="112.32"/><line class="cls-2" x1="871.2" y1="141.12" x2="871.2" y2="112.32"/><line class="cls-2" x1="871.2" y1="141.12" x2="986.4" y2="141.12"/><line class="cls-2" x1="871.2" y1="155.52" x2="900" y2="155.52"/><line class="cls-2" x1="871.2" y1="184.32" x2="871.2" y2="155.52"/><line class="cls-2" x1="900" y1="184.32" x2="900" y2="155.52"/><line class="cls-2" x1="900" y1="184.32" x2="986.4" y2="184.32"/><line class="cls-2" x1="900" y1="198.72" x2="928.8" y2="198.72"/><line class="cls-2" x1="900" y1="227.52" x2="900" y2="198.72"/><line class="cls-2" x1="928.8" y1="227.52" x2="928.8" y2="198.72"/><line class="cls-2" x1="928.8" y1="227.52" x2="986.4" y2="227.52"/><line class="cls-2" x1="986.4" y1="357.12" x2="669.6" y2="357.12"/><line class="cls-2" x1="957.6" y1="313.92" x2="640.8" y2="313.92"/><line class="cls-2" x1="928.8" y1="270.72" x2="612" y2="270.72"/><line class="cls-2" x1="900" y1="227.52" x2="583.2" y2="227.52"/><line class="cls-2" x1="871.2" y1="184.32" x2="554.4" y2="184.32"/><line class="cls-2" x1="727.2" y1="141.12" x2="525.6" y2="141.12"/><line class="cls-2" x1="698.4" y1="97.92" x2="410.4" y2="97.92"/><line class="cls-3" x1="640.8" y1="25.92" x2="640.8" y2="573.12"/><line class="cls-3" x1="669.6" y1="25.92" x2="669.6" y2="573.12"/><line class="cls-3" x1="698.4" y1="25.92" x2="698.4" y2="573.12"/><line class="cls-3" x1="727.2" y1="25.92" x2="727.2" y2="573.12"/><line class="cls-3" x1="756" y1="25.92" x2="756" y2="573.12"/><line class="cls-3" x1="784.8" y1="25.92" x2="784.8" y2="573.12"/><line class="cls-3" x1="813.6" y1="25.92" x2="813.6" y2="573.12"/><line class="cls-3" x1="842.4" y1="25.92" x2="842.4" y2="573.12"/><line class="cls-2" x1="669.6" y1="54.72" x2="669.6" y2="25.92"/><line class="cls-2" x1="525.6" y1="155.52" x2="554.4" y2="155.52"/><line class="cls-2" x1="525.6" y1="184.32" x2="525.6" y2="155.52"/><line class="cls-2" x1="554.4" y1="184.32" x2="554.4" y2="155.52"/><line class="cls-2" x1="727.2" y1="97.92" x2="813.6" y2="97.92"/><line class="cls-2" x1="756" y1="141.12" x2="842.4" y2="141.12"/><line class="cls-3" x1="871.2" y1="25.92" x2="871.2" y2="573.12"/><line class="cls-2" x1="885.6" y1="443.52" x2="900" y2="443.52"/><line class="cls-2" x1="900" y1="414.72" x2="914.4" y2="414.72"/><line class="cls-2" x1="900" y1="443.52" x2="900" y2="414.72"/><line class="cls-2" x1="914.4" y1="443.52" x2="914.4" y2="414.72"/><line class="cls-2" x1="914.4" y1="443.52" x2="928.8" y2="443.52"/><line class="cls-2" x1="928.8" y1="414.72" x2="943.2" y2="414.72"/><line class="cls-2" x1="928.8" y1="443.52" x2="928.8" y2="414.72"/><line class="cls-2" x1="943.2" y1="443.52" x2="943.2" y2="414.72"/><line class="cls-2" x1="943.2" y1="443.52" x2="957.6" y2="443.52"/><line class="cls-2" x1="957.6" y1="414.72" x2="972" y2="414.72"/><line class="cls-2" x1="957.6" y1="443.52" x2="957.6" y2="414.72"/><line class="cls-2" x1="972" y1="443.52" x2="972" y2="414.72"/><line class="cls-2" x1="865.44" y1="270.72" x2="928.8" y2="270.72"/><line class="cls-3" x1="900" y1="25.92" x2="900" y2="573.12"/><line class="cls-3" x1="928.8" y1="25.92" x2="928.8" y2="573.12"/><line class="cls-3" x1="957.6" y1="25.92" x2="957.6" y2="573.12"/><line class="cls-2" x1="928.8" y1="241.92" x2="957.6" y2="241.92"/><line class="cls-2" x1="928.8" y1="270.72" x2="928.8" y2="241.92"/><line class="cls-2" x1="957.6" y1="270.72" x2="957.6" y2="241.92"/><line class="cls-2" x1="957.6" y1="285.12" x2="986.4" y2="285.12"/><line class="cls-2" x1="957.6" y1="313.92" x2="957.6" y2="285.12"/><line class="cls-2" x1="986.4" y1="313.92" x2="986.4" y2="285.12"/><line class="cls-3" x1="957.6" y1="25.92" x2="957.6" y2="573.12"/><line class="cls-2" x1="972" y1="443.52" x2="986.4" y2="443.52"/><line class="cls-2" x1="957.6" y1="270.72" x2="986.4" y2="270.72"/><line class="cls-3" x1="986.4" y1="25.92" x2="122.4" y2="25.92"/><line class="cls-3" x1="986.4" y1="69.12" x2="122.4" y2="69.12"/><line class="cls-3" x1="986.4" y1="112.32" x2="122.4" y2="112.32"/><line class="cls-3" x1="986.4" y1="155.52" x2="122.4" y2="155.52"/><line class="cls-3" x1="986.4" y1="198.72" x2="122.4" y2="198.72"/><line class="cls-3" x1="986.4" y1="241.92" x2="122.4" y2="241.92"/><line class="cls-3" x1="986.4" y1="285.12" x2="122.4" y2="285.12"/><line class="cls-3" x1="986.4" y1="328.32" x2="122.4" y2="328.32"/><line class="cls-3" x1="986.4" y1="414.72" x2="122.4" y2="414.72"/><line class="cls-3" x1="986.4" y1="457.92" x2="122.4" y2="457.92"/><line class="cls-3" x1="986.4" y1="501.12" x2="122.4" y2="501.12"/><line class="cls-3" x1="986.4" y1="54.72" x2="122.4" y2="54.72"/><line class="cls-3" x1="986.4" y1="97.92" x2="122.4" y2="97.92"/><line class="cls-3" x1="986.4" y1="141.12" x2="122.4" y2="141.12"/><line class="cls-3" x1="986.4" y1="184.32" x2="122.4" y2="184.32"/><line class="cls-3" x1="986.4" y1="227.52" x2="122.4" y2="227.52"/><line class="cls-3" x1="986.4" y1="270.72" x2="122.4" y2="270.72"/><line class="cls-3" x1="986.4" y1="313.92" x2="122.4" y2="313.92"/><line class="cls-3" x1="986.4" y1="357.12" x2="122.4" y2="357.12"/><line class="cls-3" x1="986.4" y1="443.52" x2="122.4" y2="443.52"/><line class="cls-3" x1="986.4" y1="486.72" x2="122.4" y2="486.72"/><line class="cls-3" x1="986.4" y1="529.92" x2="122.4" y2="529.92"/><line class="cls-3" x1="986.4" y1="25.92" x2="986.4" y2="573.12"/><line class="cls-3" x1="986.4" y1="25.92" x2="986.4" y2="573.12"/><line class="cls-2" x1="122.4" y1="544.32" x2="237.6" y2="544.32"/><line class="cls-3" x1="986.4" y1="544.32" x2="122.4" y2="544.32"/><line class="cls-3" x1="986.4" y1="573.12" x2="122.4" y2="573.12"/><line class="cls-2" x1="237.6" y1="573.12" x2="237.6" y2="544.32"/><line class="cls-2" x1="352.8" y1="573.12" x2="352.8" y2="544.32"/><line class="cls-2" x1="237.6" y1="573.12" x2="352.8" y2="573.12"/><line class="cls-2" x1="352.8" y1="544.32" x2="468" y2="544.32"/><line class="cls-2" x1="468" y1="573.12" x2="468" y2="544.32"/><line class="cls-2" x1="583.2" y1="573.12" x2="583.2" y2="544.32"/><line class="cls-2" x1="468" y1="573.12" x2="583.2" y2="573.12"/><line class="cls-2" x1="698.4" y1="573.12" x2="698.4" y2="544.32"/><line class="cls-2" x1="583.2" y1="544.32" x2="698.4" y2="544.32"/><line class="cls-2" x1="813.6" y1="573.12" x2="813.6" y2="544.32"/><line class="cls-2" x1="928.8" y1="573.12" x2="928.8" y2="544.32"/><line class="cls-2" x1="813.6" y1="544.32" x2="928.8" y2="544.32"/><line class="cls-2" x1="698.4" y1="573.12" x2="813.6" y2="573.12"/><line class="cls-2" x1="928.8" y1="573.12" x2="986.4" y2="573.12"/></g></svg>