<?xml version="1.0" encoding="UTF-8"?><svg xmlns="http://www.w3.org/2000/svg" viewBox="0 0 1080 600.48"><defs><style>.cls-1{stroke-width:1.53px;}.cls-1,.cls-2,.cls-3,.cls-4,.cls-5,.cls-6,.cls-7{fill:none;stroke:#cad2d9;stroke-miterlimit:10;}.cls-2{stroke-width:3px;}.cls-8,.cls-9,.cls-10{fill:#cad2d9;}.cls-8,.cls-10{font-family:Roboto-Regular, Roboto;}.cls-11{letter-spacing:-.01em;}.cls-3{stroke-width:2px;}.cls-4{stroke-width:2px;}.cls-12,.cls-10{font-size:18px;}.cls-13{letter-spacing:-.06em;}.cls-14{letter-spacing:-.02em;}.cls-15{font-size:12px;}.cls-16{letter-spacing:-.04em;}.cls-6{stroke-width:1.56px;}.cls-17{letter-spacing:0em;}.cls-7{stroke-width:.93px;}</style></defs><g id="TEXT"><text class="cls-10" transform="translate(78.47 95.58)"><tspan x="0" y="0">1</tspan></text><text class="cls-10" transform="translate(78.47 153.18)"><tspan x="0" y="0">2</tspan></text><text class="cls-10" transform="translate(78.47 210.78)"><tspan x="0" y="0">3</tspan></text><text class="cls-10" transform="translate(78.47 268.38)"><tspan x="0" y="0">4</tspan></text><text class="cls-10" transform="translate(78.47 325.98)"><tspan x="0" y="0">5</tspan></text><text class="cls-10" transform="translate(78.47 383.58)"><tspan x="0" y="0">6</tspan></text><text class="cls-10" transform="translate(78.47 441.18)"><tspan x="0" y="0">7</tspan></text><text class="cls-10" transform="translate(331.89 210.78)"><tspan x="0" y="0">14</tspan></text><text class="cls-10" transform="translate(331.89 268.38)"><tspan x="0" y="0">13</tspan></text><text class="cls-10" transform="translate(331.89 325.98)"><tspan x="0" y="0">12</tspan></text><text class="cls-10" transform="translate(331.89 383.58)"><tspan x="0" y="0">11</tspan></text><text class="cls-10" transform="translate(331.89 441.18)"><tspan x="0" y="0">10</tspan></text><text class="cls-10" transform="translate(337.67 498.78)"><tspan x="0" y="0">9</tspan></text><text class="cls-8" transform="translate(112.32 497.34)"><tspan class="cls-12" x="0" y="0">V</tspan><tspan class="cls-15" x="11.45" y="0">SS</tspan></text><text class="cls-8" transform="translate(286.73 94.14)"><tspan class="cls-12" x="0" y="0">V</tspan><tspan class="cls-15" x="11.45" y="0">DD</tspan></text><text class="cls-10" transform="translate(181.15 558.72)"><tspan x="0" y="0">CD4015</tspan></text><text class="cls-10" transform="translate(78.47 498.78)"><tspan x="0" y="0">8</tspan></text><text class="cls-10" transform="translate(331.89 95.58)"><tspan x="0" y="0">16</tspan></text><text class="cls-10" transform="translate(331.89 153.18)"><tspan x="0" y="0">15</tspan></text><text class="cls-10" transform="translate(112.32 95.58)"><tspan x="0" y="0">Clock B</tspan></text><text class="cls-10" transform="translate(112.32 153.18)"><tspan x="0" y="0">Q4B</tspan></text><text class="cls-10" transform="translate(112.32 325.98)"><tspan x="0" y="0">Q1A</tspan></text><text class="cls-10" transform="translate(112.32 383.58)"><tspan x="0" y="0">RES</tspan><tspan class="cls-17" x="31.99" y="0">E</tspan><tspan class="cls-14" x="42.4" y="0">T</tspan><tspan x="52.79" y="0" xml:space="preserve"> A</tspan></text><text class="cls-10" transform="translate(245.47 210.78)"><tspan x="0" y="0">RES</tspan><tspan class="cls-17" x="31.99" y="0">E</tspan><tspan class="cls-14" x="42.4" y="0">T</tspan><tspan x="52.79" y="0" xml:space="preserve"> B</tspan></text><text class="cls-10" transform="translate(280.23 268.38)"><tspan x="0" y="0">Q1B</tspan></text><text class="cls-10" transform="translate(280.23 325.98)"><tspan x="0" y="0">Q2B</tspan></text><text class="cls-10" transform="translate(280.23 383.58)"><tspan x="0" y="0">Q3B</tspan></text><text class="cls-10" transform="translate(254.27 498.78)"><tspan x="0" y="0">Clock A</tspan></text><text class="cls-10" transform="translate(254.24 153.18)"><tspan class="cls-11" x="0" y="0">D</tspan><tspan class="cls-13" x="11.62" y="0">A</tspan><tspan class="cls-16" x="22.23" y="0">T</tspan><tspan x="32.27" y="0">A B</tspan></text><text class="cls-10" transform="translate(591.81 109.44)"><tspan x="0" y="0">7</tspan></text><text class="cls-10" transform="translate(591.81 152.64)"><tspan x="0" y="0">9</tspan></text><text class="cls-10" transform="translate(591.81 197.28)"><tspan x="0" y="0">6</tspan></text><text class="cls-10" transform="translate(813.57 108)"><tspan x="0" y="0">5</tspan></text><text class="cls-10" transform="translate(813.57 151.2)"><tspan x="0" y="0">4</tspan></text><text class="cls-10" transform="translate(813.57 194.4)"><tspan x="0" y="0">3</tspan></text><text class="cls-10" transform="translate(803.47 237.6)"><tspan x="0" y="0">10</tspan></text><text class="cls-10" transform="translate(802.02 321.12)"><tspan x="0" y="0">13</tspan></text><text class="cls-10" transform="translate(802.02 364.32)"><tspan x="0" y="0">12</tspan></text><text class="cls-10" transform="translate(802.02 407.52)"><tspan x="0" y="0">11</tspan></text><text class="cls-10" transform="translate(812.13 450.72)"><tspan x="0" y="0">2</tspan></text><text class="cls-8" transform="translate(724.44 552.96)"><tspan class="cls-12" x="0" y="0">V</tspan><tspan class="cls-15" x="11.45" y="0">SS</tspan></text><text class="cls-10" transform="translate(493.31 166.14)"><tspan x="0" y="0">Clock A</tspan></text><text class="cls-10" transform="translate(492.89 210.78)"><tspan x="0" y="0">Reset A</tspan></text><text class="cls-10" transform="translate(500.94 125.82)"><tspan x="0" y="0">Data A</tspan></text><text class="cls-8" transform="translate(717.93 51.84)"><tspan class="cls-12" x="0" y="0">V</tspan><tspan class="cls-15" x="11.45" y="0">DD</tspan></text><text class="cls-10" transform="translate(887.21 120.96)"><tspan x="0" y="0">Q1A</tspan></text><text class="cls-10" transform="translate(887.21 164.16)"><tspan x="0" y="0">Q2A</tspan></text><text class="cls-10" transform="translate(887.21 207.36)"><tspan x="0" y="0">Q3A</tspan></text><text class="cls-10" transform="translate(887.21 250.56)"><tspan x="0" y="0">Q4A</tspan></text><text class="cls-10" transform="translate(887.48 460.8)"><tspan x="0" y="0">Q4B</tspan></text><text class="cls-10" transform="translate(887.48 331.2)"><tspan x="0" y="0">Q1B</tspan></text><text class="cls-10" transform="translate(887.48 374.4)"><tspan x="0" y="0">Q2B</tspan></text><text class="cls-10" transform="translate(887.48 417.6)"><tspan x="0" y="0">Q3B</tspan></text><text class="cls-10" transform="translate(972 426.87) rotate(-90)"><tspan x="0" y="0">Outputs B</tspan></text><text class="cls-10" transform="translate(112.32 441.18)"><tspan class="cls-11" x="0" y="0">D</tspan><tspan class="cls-13" x="11.62" y="0">A</tspan><tspan class="cls-16" x="22.23" y="0">T</tspan><tspan x="32.27" y="0">A A</tspan></text><text class="cls-10" transform="translate(681.81 81.18)"><tspan x="0" y="0">16</tspan></text><text class="cls-10" transform="translate(690.47 507.42)"><tspan x="0" y="0">8</tspan></text><text class="cls-10" transform="translate(112.32 210.78)"><tspan x="0" y="0">Q3A</tspan></text><text class="cls-10" transform="translate(112.32 264.06)"><tspan x="0" y="0">Q2A</tspan></text><text class="cls-10" transform="translate(279.7 441.18)"><tspan x="0" y="0">Q4A</tspan></text><text class="cls-10" transform="translate(581.71 319.68)"><tspan x="0" y="0">15</tspan></text><text class="cls-10" transform="translate(591.81 362.88)"><tspan x="0" y="0">1</tspan></text><text class="cls-10" transform="translate(581.71 407.52)"><tspan x="0" y="0">14</tspan></text><text class="cls-10" transform="translate(493.84 376.38)"><tspan x="0" y="0">Clock B</tspan></text><text class="cls-10" transform="translate(493.42 421.02)"><tspan x="0" y="0">Reset B</tspan></text><text class="cls-10" transform="translate(501.47 336.06)"><tspan x="0" y="0">Data B</tspan></text><text class="cls-10" transform="translate(478.08 404.35) rotate(-90)"><tspan x="0" y="0">Inputs B</tspan></text><text class="cls-10" transform="translate(678.93 187.74)"><tspan x="0" y="0">4 Stage</tspan></text><text class="cls-10" transform="translate(678.93 397.98)"><tspan x="0" y="0">4 Stage</tspan></text><text class="cls-10" transform="translate(967.68 221.22) rotate(-90)"><tspan x="0" y="0">Outputs A</tspan></text><text class="cls-10" transform="translate(478.08 194.39) rotate(-90)"><tspan x="0" y="0">Inputs A</tspan></text></g><g id="Line"><line class="cls-2" x1="97.92" y1="43.2" x2="198.72" y2="43.2"/><line class="cls-2" x1="227.52" y1="43.2" x2="328.32" y2="43.2"/><path class="cls-2" d="M227.52,43.2c0,7.95-6.45,14.4-14.4,14.4s-14.4-6.45-14.4-14.4"/><rect class="cls-5" x="69.12" y="72" width="28.8" height="28.8"/><rect class="cls-5" x="69.12" y="129.6" width="28.8" height="28.8"/><rect class="cls-5" x="69.12" y="187.2" width="28.8" height="28.8"/><line class="cls-2" x1="97.92" y1="43.2" x2="97.92" y2="534.24"/><line class="cls-2" x1="97.92" y1="532.8" x2="328.32" y2="532.8"/><line class="cls-2" x1="328.32" y1="43.2" x2="328.32" y2="532.8"/><rect class="cls-5" x="69.12" y="244.8" width="28.8" height="28.8"/><rect class="cls-5" x="69.12" y="302.4" width="28.8" height="28.8"/><rect class="cls-5" x="69.12" y="360" width="28.8" height="28.8"/><rect class="cls-5" x="69.12" y="417.6" width="28.8" height="28.8"/><rect class="cls-5" x="328.32" y="187.2" width="28.8" height="28.8"/><rect class="cls-5" x="328.32" y="244.8" width="28.8" height="28.8"/><rect class="cls-5" x="328.32" y="302.4" width="28.8" height="28.8"/><rect class="cls-5" x="328.32" y="360" width="28.8" height="28.8"/><rect class="cls-5" x="328.32" y="417.6" width="28.8" height="28.8"/><rect class="cls-5" x="328.32" y="475.2" width="28.8" height="28.8"/><rect class="cls-5" x="69.12" y="475.2" width="28.8" height="28.8"/><rect class="cls-5" x="328.32" y="72" width="28.8" height="28.8"/><rect class="cls-5" x="328.32" y="129.6" width="28.8" height="28.8"/><rect class="cls-4" x="620.64" y="84.96" width="172.8" height="403.2"/><g><line class="cls-6" x1="758.88" y1="116.64" x2="883.06" y2="116.64"/><polygon class="cls-9" points="875.29 126.23 873.69 124.51 882.16 116.64 873.69 108.77 875.29 107.05 885.6 116.64 875.29 126.23"/></g><g><line class="cls-6" x1="758.88" y1="159.84" x2="883.06" y2="159.84"/><polygon class="cls-9" points="875.29 169.43 873.69 167.71 882.16 159.84 873.69 151.97 875.29 150.25 885.6 159.84 875.29 169.43"/></g><g><line class="cls-6" x1="758.88" y1="203.04" x2="883.06" y2="203.04"/><polygon class="cls-9" points="875.29 212.63 873.69 210.91 882.16 203.04 873.69 195.17 875.29 193.45 885.6 203.04 875.29 212.63"/></g><g><line class="cls-6" x1="758.88" y1="246.24" x2="883.06" y2="246.24"/><polygon class="cls-9" points="875.29 255.83 873.69 254.11 882.16 246.24 873.69 238.37 875.29 236.65 885.6 246.24 875.29 255.83"/></g><g><line class="cls-6" x1="758.88" y1="326.88" x2="883.06" y2="326.88"/><polygon class="cls-9" points="875.29 336.47 873.69 334.75 882.16 326.88 873.69 319.01 875.29 317.29 885.6 326.88 875.29 336.47"/></g><g><line class="cls-6" x1="758.88" y1="370.08" x2="883.06" y2="370.08"/><polygon class="cls-9" points="875.29 379.67 873.69 377.95 882.16 370.08 873.69 362.21 875.29 360.49 885.6 370.08 875.29 379.67"/></g><g><line class="cls-6" x1="758.88" y1="413.28" x2="883.06" y2="413.28"/><polygon class="cls-9" points="875.29 422.87 873.69 421.15 882.16 413.28 873.69 405.41 875.29 403.69 885.6 413.28 875.29 422.87"/></g><g><line class="cls-6" x1="758.88" y1="456.48" x2="883.06" y2="456.48"/><polygon class="cls-9" points="875.29 466.07 873.69 464.35 882.16 456.48 873.69 448.61 875.29 446.89 885.6 456.48 875.29 466.07"/></g><g><line class="cls-1" x1="568.8" y1="116.64" x2="652.72" y2="116.64"/><polygon class="cls-9" points="645.13 126 643.57 124.33 651.84 116.64 643.57 108.95 645.13 107.28 655.2 116.64 645.13 126"/></g><g><line class="cls-1" x1="568.8" y1="159.84" x2="652.72" y2="159.84"/><polygon class="cls-9" points="645.13 169.2 643.57 167.53 651.84 159.84 643.57 152.15 645.13 150.48 655.2 159.84 645.13 169.2"/></g><g><line class="cls-1" x1="568.8" y1="203.04" x2="652.72" y2="203.04"/><polygon class="cls-9" points="645.13 212.4 643.57 210.73 651.84 203.04 643.57 195.35 645.13 193.68 655.2 203.04 645.13 212.4"/></g><g><line class="cls-4" x1="707.04" y1="84.96" x2="707.04" y2="44.48"/><polygon class="cls-9" points="716.58 62.21 713.76 63.24 707.04 44.77 700.32 63.24 697.5 62.21 707.04 36 716.58 62.21"/></g><line class="cls-4" x1="707.04" y1="488.16" x2="707.04" y2="531.36"/><rect class="cls-7" x="655.2" y="315.36" width="103.68" height="152.64"/><rect class="cls-7" x="655.2" y="105.12" width="103.68" height="152.64"/><g><line class="cls-1" x1="568.8" y1="326.88" x2="652.72" y2="326.88"/><polygon class="cls-9" points="645.13 336.24 643.57 334.57 651.84 326.88 643.57 319.19 645.13 317.52 655.2 326.88 645.13 336.24"/></g><g><line class="cls-1" x1="568.8" y1="370.08" x2="652.72" y2="370.08"/><polygon class="cls-9" points="645.13 379.44 643.57 377.77 651.84 370.08 643.57 362.39 645.13 360.72 655.2 370.08 645.13 379.44"/></g><g><line class="cls-1" x1="568.8" y1="413.28" x2="652.72" y2="413.28"/><polygon class="cls-9" points="645.13 422.64 643.57 420.97 651.84 413.28 643.57 405.59 645.13 403.92 655.2 413.28 645.13 422.64"/></g><polygon class="cls-3" points="707.04 531.36 721.44 531.36 714.24 540 707.04 548.64 699.84 540 692.64 531.36 707.04 531.36"/></g></svg>