<?xml version="1.0" encoding="UTF-8"?><svg xmlns="http://www.w3.org/2000/svg" viewBox="0 0 1080 600.48"><defs><style>.cls-1{stroke-width:3px;}.cls-1,.cls-2,.cls-3,.cls-4,.cls-5,.cls-6,.cls-7,.cls-8,.cls-9{fill:none;stroke:#cad2d9;stroke-miterlimit:10;}.cls-2{stroke-width:1.09px;}.cls-10,.cls-11,.cls-12,.cls-13{fill:#cad2d9;}.cls-10,.cls-12,.cls-13{font-family:Roboto-Regular, Roboto;}.cls-3{stroke-width:2.26px;}.cls-4{stroke-dasharray:0 0 2.07 2.07;}.cls-5{stroke-width:2px;}.cls-6{stroke-width:2px;}.cls-14,.cls-12{font-size:18px;}.cls-8{stroke-width:1.18px;}.cls-15{letter-spacing:0em;}.cls-16{font-size:12px;}.cls-9{stroke-width:1.96px;}.cls-13{font-size:14px;}</style></defs><g id="Linie"><line class="cls-6" x1="725.76" y1="180" x2="769.94" y2="163.15"/><line class="cls-1" x1="97.92" y1="86.4" x2="198.72" y2="86.4"/><line class="cls-1" x1="227.52" y1="86.4" x2="328.32" y2="86.4"/><path class="cls-1" d="M227.52,86.4c0,7.95-6.45,14.4-14.4,14.4s-14.4-6.45-14.4-14.4"/><rect class="cls-7" x="69.12" y="115.2" width="28.8" height="28.8"/><rect class="cls-7" x="69.12" y="172.8" width="28.8" height="28.8"/><rect class="cls-7" x="69.12" y="230.4" width="28.8" height="28.8"/><line class="cls-1" x1="97.92" y1="86.4" x2="97.92" y2="518.4"/><line class="cls-1" x1="97.92" y1="518.4" x2="328.32" y2="518.4"/><line class="cls-1" x1="328.32" y1="86.4" x2="328.32" y2="518.4"/><rect class="cls-7" x="69.12" y="288" width="28.8" height="28.8"/><rect class="cls-7" x="69.12" y="345.6" width="28.8" height="28.8"/><rect class="cls-7" x="69.12" y="403.2" width="28.8" height="28.8"/><rect class="cls-7" x="69.12" y="460.8" width="28.8" height="28.8"/><rect class="cls-7" x="328.32" y="115.2" width="28.8" height="28.8"/><rect class="cls-7" x="328.32" y="172.8" width="28.8" height="28.8"/><rect class="cls-7" x="328.32" y="230.4" width="28.8" height="28.8"/><rect class="cls-7" x="328.32" y="288" width="28.8" height="28.8"/><rect class="cls-7" x="328.32" y="345.6" width="28.8" height="28.8"/><rect class="cls-7" x="328.32" y="403.2" width="28.8" height="28.8"/><rect class="cls-7" x="328.32" y="460.8" width="28.8" height="28.8"/><line class="cls-7" x1="241.92" y1="53.28" x2="270.72" y2="53.28"/><g><line class="cls-6" x1="745.92" y1="115.2" x2="745.92" y2="54.56"/><polygon class="cls-11" points="755.46 72.29 752.64 73.32 745.92 54.85 739.2 73.32 736.38 72.29 745.92 46.08 755.46 72.29"/></g><line class="cls-6" x1="745.92" y1="475.2" x2="745.92" y2="522.72"/><polygon class="cls-6" points="731.52 522.72 760.32 522.72 745.92 540 731.52 522.72"/><line class="cls-5" x1="659.52" y1="181.44" x2="594.72" y2="181.44"/><line class="cls-5" x1="780.48" y1="181.44" x2="897.12" y2="181.44"/><line class="cls-7" x1="184.32" y1="53.28" x2="155.52" y2="53.28"/><rect class="cls-8" x="709.92" y="151.2" width="72" height="43.2"/><line class="cls-6" x1="745.92" y1="151.2" x2="745.92" y2="129.6"/><line class="cls-3" x1="542.88" y1="129.6" x2="745.73" y2="129.6"/><rect class="cls-7" x="184.32" y="38.88" width="57.6" height="28.8"/><line class="cls-7" x1="198.72" y1="24.48" x2="198.72" y2="38.88"/><line class="cls-5" x1="659.52" y1="181.44" x2="717.12" y2="181.44"/><line class="cls-5" x1="774.72" y1="181.44" x2="810.72" y2="181.44"/><g><line class="cls-7" x1="745.92" y1="138.24" x2="745.92" y2="139.24"/><line class="cls-4" x1="745.92" y1="141.32" x2="745.92" y2="169.32"/><line class="cls-7" x1="745.92" y1="170.36" x2="745.92" y2="171.36"/></g><rect class="cls-9" x="659.52" y="115.2" width="172.8" height="360"/><rect class="cls-8" x="710.59" y="237.6" width="72" height="43.2"/><line class="cls-6" x1="746.59" y1="237.6" x2="746.59" y2="216"/><line class="cls-3" x1="543.74" y1="216" x2="746.59" y2="216"/><g><line class="cls-7" x1="746.59" y1="224.64" x2="746.59" y2="225.64"/><line class="cls-4" x1="746.59" y1="227.72" x2="746.59" y2="255.72"/><line class="cls-7" x1="746.59" y1="256.76" x2="746.59" y2="257.76"/></g><rect class="cls-8" x="709.92" y="324" width="72" height="43.2"/><line class="cls-6" x1="745.92" y1="324" x2="745.92" y2="302.4"/><line class="cls-3" x1="542.88" y1="302.4" x2="745.73" y2="302.4"/><g><line class="cls-7" x1="745.92" y1="311.04" x2="745.92" y2="312.04"/><line class="cls-4" x1="745.92" y1="314.12" x2="745.92" y2="342.12"/><line class="cls-7" x1="745.92" y1="343.16" x2="745.92" y2="344.16"/></g><rect class="cls-8" x="710.59" y="410.4" width="72" height="43.2"/><line class="cls-6" x1="746.59" y1="410.4" x2="746.59" y2="388.8"/><line class="cls-3" x1="543.74" y1="388.8" x2="746.59" y2="388.8"/><g><line class="cls-7" x1="746.59" y1="397.44" x2="746.59" y2="398.44"/><line class="cls-4" x1="746.59" y1="400.52" x2="746.59" y2="428.52"/><line class="cls-7" x1="746.59" y1="429.56" x2="746.59" y2="430.56"/></g><circle class="cls-2" cx="721.44" cy="181.44" r="4.32"/><circle class="cls-2" cx="770.4" cy="181.44" r="4.32"/><line class="cls-6" x1="725.76" y1="264.99" x2="769.94" y2="248.13"/><line class="cls-5" x1="659.52" y1="266.43" x2="594.72" y2="266.43"/><line class="cls-5" x1="780.48" y1="266.43" x2="897.12" y2="266.4"/><line class="cls-5" x1="659.52" y1="266.42" x2="717.12" y2="266.43"/><line class="cls-5" x1="774.72" y1="266.43" x2="810.72" y2="266.43"/><circle class="cls-2" cx="721.44" cy="266.43" r="4.32"/><circle class="cls-2" cx="770.4" cy="266.43" r="4.32"/><line class="cls-6" x1="725.76" y1="352.8" x2="769.94" y2="335.95"/><line class="cls-5" x1="659.52" y1="354.24" x2="594.72" y2="354.24"/><line class="cls-5" x1="780.48" y1="354.24" x2="897.12" y2="354.24"/><line class="cls-5" x1="659.52" y1="354.24" x2="717.12" y2="354.24"/><line class="cls-5" x1="774.72" y1="354.24" x2="810.72" y2="354.24"/><circle class="cls-2" cx="721.44" cy="354.24" r="4.32"/><circle class="cls-2" cx="770.4" cy="354.24" r="4.32"/><line class="cls-6" x1="725.76" y1="439.2" x2="769.94" y2="422.35"/><line class="cls-5" x1="659.52" y1="440.64" x2="594.72" y2="440.64"/><line class="cls-5" x1="780.48" y1="440.64" x2="897.12" y2="440.64"/><line class="cls-5" x1="659.52" y1="440.64" x2="717.12" y2="440.64"/><line class="cls-5" x1="774.72" y1="440.64" x2="810.72" y2="440.64"/><circle class="cls-2" cx="721.44" cy="440.64" r="4.32"/><circle class="cls-2" cx="770.4" cy="440.64" r="4.32"/></g><g id="TEXT"><text class="cls-12" transform="translate(78.47 138.78)"><tspan x="0" y="0">1</tspan></text><text class="cls-12" transform="translate(78.47 196.38)"><tspan x="0" y="0">2</tspan></text><text class="cls-12" transform="translate(78.47 253.98)"><tspan x="0" y="0">3</tspan></text><text class="cls-12" transform="translate(78.47 311.58)"><tspan x="0" y="0">4</tspan></text><text class="cls-12" transform="translate(78.47 369.18)"><tspan x="0" y="0">5</tspan></text><text class="cls-12" transform="translate(78.47 426.78)"><tspan x="0" y="0">6</tspan></text><text class="cls-12" transform="translate(78.47 484.38)"><tspan x="0" y="0">7</tspan></text><text class="cls-12" transform="translate(331.89 138.78)"><tspan x="0" y="0">14</tspan></text><text class="cls-12" transform="translate(331.89 196.38)"><tspan x="0" y="0">13</tspan></text><text class="cls-12" transform="translate(331.89 253.98)"><tspan x="0" y="0">12</tspan></text><text class="cls-12" transform="translate(331.89 311.58)"><tspan x="0" y="0">11</tspan></text><text class="cls-12" transform="translate(331.89 369.18)"><tspan x="0" y="0">10</tspan></text><text class="cls-12" transform="translate(337.67 426.78)"><tspan x="0" y="0">9</tspan></text><text class="cls-12" transform="translate(337.67 484.38)"><tspan x="0" y="0">8</tspan></text><text class="cls-10" transform="translate(105.23 484.38)"><tspan class="cls-14" x="0" y="0">V</tspan><tspan class="cls-16" x="11.45" y="0">SS</tspan></text><text class="cls-10" transform="translate(290.24 138.78)"><tspan class="cls-14" x="0" y="0">V</tspan><tspan class="cls-16" x="11.45" y="0">DD</tspan></text><text class="cls-12" transform="translate(181.15 547.2)"><tspan x="0" y="0">CD4066</tspan></text><text class="cls-13" transform="translate(103.66 58.02)"><tspan x="0" y="0">1,3,8,10</tspan></text><text class="cls-13" transform="translate(140.05 29.22)"><tspan x="0" y="0">5,6,12,13</tspan></text><text class="cls-13" transform="translate(279.34 58.02)"><tspan x="0" y="0">2,4,9,11</tspan></text><text class="cls-12" transform="translate(840.96 177.12)"><tspan x="0" y="0">2</tspan></text><text class="cls-12" transform="translate(633.55 125.28)"><tspan x="0" y="0">13</tspan></text><text class="cls-12" transform="translate(643.65 177.12)"><tspan x="0" y="0">1</tspan></text><text class="cls-10" transform="translate(761.87 544.32)"><tspan class="cls-14" x="0" y="0">V</tspan><tspan class="cls-16" x="11.45" y="0">SS</tspan></text><text class="cls-10" transform="translate(756.81 53.28)"><tspan class="cls-14" x="0" y="0">V</tspan><tspan class="cls-16" x="11.45" y="0">DD</tspan></text><text class="cls-12" transform="translate(722.85 112.32)"><tspan x="0" y="0">14</tspan></text><text class="cls-12" transform="translate(732.23 499.68)"><tspan x="0" y="0">7</tspan></text><text class="cls-12" transform="translate(106.56 138.78)"><tspan x="0" y="0">SIG A In/Out</tspan></text><text class="cls-12" transform="translate(108 196.38)"><tspan x="0" y="0">SIG A In/Out</tspan></text><text class="cls-12" transform="translate(108 251.1)"><tspan x="0" y="0">SIG B In/Out</tspan></text><text class="cls-12" transform="translate(108 311.58)"><tspan x="0" y="0">SIG B In/Out</tspan></text><text class="cls-12" transform="translate(108 369.18)"><tspan x="0" y="0">Cont</tspan><tspan class="cls-15" x="37.79" y="0">r</tspan><tspan x="43.71" y="0">ol B</tspan></text><text class="cls-12" transform="translate(109.44 426.78)"><tspan x="0" y="0">Cont</tspan><tspan class="cls-15" x="37.79" y="0">r</tspan><tspan x="43.71" y="0">ol C</tspan></text><text class="cls-12" transform="translate(217.83 311.58)"><tspan x="0" y="0">SIG D In/Out</tspan></text><text class="cls-12" transform="translate(217.83 369.18)"><tspan x="0" y="0">SIG D In/Out</tspan></text><text class="cls-12" transform="translate(217.91 426.78)"><tspan x="0" y="0">SIG C In/Out</tspan></text><text class="cls-12" transform="translate(217.91 484.38)"><tspan x="0" y="0">SIG C In/Out</tspan></text><text class="cls-12" transform="translate(242.26 196.38)"><tspan x="0" y="0">Cont</tspan><tspan class="cls-15" x="37.79" y="0">r</tspan><tspan x="43.71" y="0">ol A</tspan></text><text class="cls-12" transform="translate(242.2 253.98)"><tspan x="0" y="0">Cont</tspan><tspan class="cls-15" x="37.79" y="0">r</tspan><tspan x="43.71" y="0">ol D</tspan></text><text class="cls-12" transform="translate(512.26 187.2)"><tspan x="0" y="0">In/Out A</tspan></text><text class="cls-12" transform="translate(912.96 187.2)"><tspan x="0" y="0">In/Out A</tspan></text><text class="cls-12" transform="translate(460.97 136.8)"><tspan x="0" y="0">Cont</tspan><tspan class="cls-15" x="37.79" y="0">r</tspan><tspan x="43.71" y="0">ol A</tspan></text><text class="cls-12" transform="translate(840.96 263.52)"><tspan x="0" y="0">4</tspan></text><text class="cls-12" transform="translate(643.65 211.68)"><tspan x="0" y="0">5</tspan></text><text class="cls-12" transform="translate(643.65 263.52)"><tspan x="0" y="0">3</tspan></text><text class="cls-12" transform="translate(514.24 273.6)"><tspan x="0" y="0">In/Out B</tspan></text><text class="cls-12" transform="translate(912.96 273.6)"><tspan x="0" y="0">In/Out B</tspan></text><text class="cls-12" transform="translate(840.96 349.92)"><tspan x="0" y="0">9</tspan></text><text class="cls-12" transform="translate(643.65 298.08)"><tspan x="0" y="0">6</tspan></text><text class="cls-12" transform="translate(643.65 349.92)"><tspan x="0" y="0">8</tspan></text><text class="cls-12" transform="translate(512.29 360)"><tspan x="0" y="0">In/Out C</tspan></text><text class="cls-12" transform="translate(912.96 360)"><tspan x="0" y="0">In/Out C</tspan></text><text class="cls-12" transform="translate(839.52 436.32)"><tspan x="0" y="0">11</tspan></text><text class="cls-12" transform="translate(633.54 384.48)"><tspan x="0" y="0">12</tspan></text><text class="cls-12" transform="translate(633.55 436.32)"><tspan x="0" y="0">10</tspan></text><text class="cls-12" transform="translate(512.2 446.4)"><tspan x="0" y="0">In/Out D</tspan></text><text class="cls-12" transform="translate(912.96 446.4)"><tspan x="0" y="0">In/Out D</tspan></text><text class="cls-12" transform="translate(465.56 223.2)"><tspan x="0" y="0">Cont</tspan><tspan class="cls-15" x="37.79" y="0">r</tspan><tspan x="43.71" y="0">ol B</tspan></text><text class="cls-12" transform="translate(465.3 308.16)"><tspan x="0" y="0">Cont</tspan><tspan class="cls-15" x="37.79" y="0">r</tspan><tspan x="43.71" y="0">ol C</tspan></text><text class="cls-12" transform="translate(466.7 394.56)"><tspan x="0" y="0">Cont</tspan><tspan class="cls-15" x="37.79" y="0">r</tspan><tspan x="43.71" y="0">ol D</tspan></text></g></svg>