<?xml version="1.0" encoding="UTF-8"?><svg xmlns="http://www.w3.org/2000/svg" viewBox="0 0 1080 600.48"><defs><style>.cls-1{stroke-width:3px;}.cls-1,.cls-2,.cls-3{fill:none;stroke:#1d1e1b;stroke-miterlimit:10;}.cls-4,.cls-5,.cls-6{fill:#1d1e1b;}.cls-4,.cls-6{font-family:Roboto-Regular, Roboto;}.cls-2{stroke-width:2px;}.cls-7,.cls-6{font-size:18px;}.cls-8{font-size:12px;}</style></defs><g id="TEXT"><text class="cls-6" transform="translate(78.47 95.58)"><tspan x="0" y="0">1</tspan></text><text class="cls-6" transform="translate(78.47 153.18)"><tspan x="0" y="0">2</tspan></text><text class="cls-6" transform="translate(78.47 210.78)"><tspan x="0" y="0">3</tspan></text><text class="cls-6" transform="translate(78.47 268.38)"><tspan x="0" y="0">4</tspan></text><text class="cls-6" transform="translate(78.47 325.98)"><tspan x="0" y="0">5</tspan></text><text class="cls-6" transform="translate(78.47 383.58)"><tspan x="0" y="0">6</tspan></text><text class="cls-6" transform="translate(78.47 441.18)"><tspan x="0" y="0">7</tspan></text><text class="cls-6" transform="translate(331.89 210.78)"><tspan x="0" y="0">14</tspan></text><text class="cls-6" transform="translate(331.89 268.38)"><tspan x="0" y="0">13</tspan></text><text class="cls-6" transform="translate(331.89 325.98)"><tspan x="0" y="0">12</tspan></text><text class="cls-6" transform="translate(331.89 383.58)"><tspan x="0" y="0">11</tspan></text><text class="cls-6" transform="translate(331.89 441.18)"><tspan x="0" y="0">10</tspan></text><text class="cls-6" transform="translate(337.67 498.78)"><tspan x="0" y="0">9</tspan></text><text class="cls-4" transform="translate(112.32 498.78)"><tspan class="cls-7" x="0" y="0">V</tspan><tspan class="cls-8" x="11.45" y="0">SS</tspan></text><text class="cls-4" transform="translate(286.73 95.58)"><tspan class="cls-7" x="0" y="0">V</tspan><tspan class="cls-8" x="11.45" y="0">DD</tspan></text><text class="cls-6" transform="translate(181.15 558.72)"><tspan x="0" y="0">CD4040</tspan></text><text class="cls-6" transform="translate(78.47 498.78)"><tspan x="0" y="0">8</tspan></text><text class="cls-6" transform="translate(331.89 95.58)"><tspan x="0" y="0">16</tspan></text><text class="cls-6" transform="translate(331.89 153.18)"><tspan x="0" y="0">15</tspan></text><text class="cls-6" transform="translate(112.32 95.58)"><tspan x="0" y="0">”Q12“</tspan></text><text class="cls-6" transform="translate(112.32 153.18)"><tspan x="0" y="0">”Q6“</tspan></text><text class="cls-6" transform="translate(112.32 210.78)"><tspan x="0" y="0">“Q5“</tspan></text><text class="cls-6" transform="translate(112.32 268.38)"><tspan x="0" y="0">“Q7“</tspan></text><text class="cls-6" transform="translate(112.32 325.98)"><tspan x="0" y="0">“Q4“</tspan></text><text class="cls-6" transform="translate(112.32 383.58)"><tspan x="0" y="0">“Q3“</tspan></text><text class="cls-6" transform="translate(112.32 441.18)"><tspan x="0" y="0">“Q2“</tspan></text><text class="cls-6" transform="translate(268.6 210.78)"><tspan x="0" y="0">“Q10“</tspan></text><text class="cls-6" transform="translate(278.71 268.38)"><tspan x="0" y="0">“Q8“</tspan></text><text class="cls-6" transform="translate(278.71 325.98)"><tspan x="0" y="0">“Q9“</tspan></text><text class="cls-6" transform="translate(268.6 383.58)"><tspan x="0" y="0">Reset</tspan></text><text class="cls-6" transform="translate(273.19 441.18)"><tspan x="0" y="0">Input</tspan></text><text class="cls-6" transform="translate(278.71 498.78)"><tspan x="0" y="0">“Q1“</tspan></text><text class="cls-6" transform="translate(268.77 153.18)"><tspan x="0" y="0">“Q11“</tspan></text><text class="cls-6" transform="translate(581.73 115.2)"><tspan x="0" y="0">10</tspan></text><text class="cls-6" transform="translate(581.73 437.76)"><tspan x="0" y="0">11</tspan></text><text class="cls-6" transform="translate(792.71 123.84)"><tspan x="0" y="0">9</tspan></text><text class="cls-6" transform="translate(792.71 152.64)"><tspan x="0" y="0">7</tspan></text><text class="cls-6" transform="translate(792.71 181.44)"><tspan x="0" y="0">6</tspan></text><text class="cls-6" transform="translate(792.71 210.24)"><tspan x="0" y="0">5</tspan></text><text class="cls-6" transform="translate(792.71 239.04)"><tspan x="0" y="0">3</tspan></text><text class="cls-6" transform="translate(792.71 267.84)"><tspan x="0" y="0">2</tspan></text><text class="cls-6" transform="translate(792.71 296.64)"><tspan x="0" y="0">4</tspan></text><text class="cls-6" transform="translate(787.65 325.44)"><tspan x="0" y="0">13</tspan></text><text class="cls-4" transform="translate(714.35 563.04)"><tspan class="cls-7" x="0" y="0">V</tspan><tspan class="cls-8" x="11.45" y="0">SS</tspan></text><text class="cls-6" transform="translate(461.18 439.74)"><tspan x="0" y="0">Reset</tspan></text><text class="cls-6" transform="translate(464.92 120.06)"><tspan x="0" y="0">Input</tspan></text><text class="cls-4" transform="translate(707.85 61.92)"><tspan class="cls-7" x="0" y="0">V</tspan><tspan class="cls-8" x="11.45" y="0">DD</tspan></text><text class="cls-6" transform="translate(1001.92 135.36)"><tspan x="0" y="0">“Q1“</tspan></text><text class="cls-6" transform="translate(1001.92 164.16)"><tspan x="0" y="0">“Q2“</tspan></text><text class="cls-6" transform="translate(1001.91 192.96)"><tspan x="0" y="0">“Q3“</tspan></text><text class="cls-6" transform="translate(1001.92 221.76)"><tspan x="0" y="0">“Q4“</tspan></text><text class="cls-6" transform="translate(1001.91 250.56)"><tspan x="0" y="0">“Q5“</tspan></text><text class="cls-6" transform="translate(1001.92 279.36)"><tspan x="0" y="0">“Q6“</tspan></text><text class="cls-6" transform="translate(1001.92 308.16)"><tspan x="0" y="0">“Q7“</tspan></text><text class="cls-6" transform="translate(1001.91 336.96)"><tspan x="0" y="0">“Q8“</tspan></text><text class="cls-6" transform="translate(673.89 91.26)"><tspan x="0" y="0">16</tspan></text><text class="cls-6" transform="translate(682.55 517.5)"><tspan x="0" y="0">8</tspan></text><text class="cls-6" transform="translate(787.65 354.24)"><tspan x="0" y="0">12</tspan></text><text class="cls-6" transform="translate(787.65 383.04)"><tspan x="0" y="0">14</tspan></text><text class="cls-6" transform="translate(787.65 411.84)"><tspan x="0" y="0">15</tspan></text><text class="cls-6" transform="translate(1001.91 365.76)"><tspan x="0" y="0">“Q9“</tspan></text><text class="cls-6" transform="translate(996.86 394.56)"><tspan x="0" y="0">“Q10“</tspan></text><text class="cls-6" transform="translate(996.86 423.36)"><tspan x="0" y="0">“Q11“</tspan></text><text class="cls-6" transform="translate(792.71 440.64)"><tspan x="0" y="0">1</tspan></text><text class="cls-6" transform="translate(996.86 452.16)"><tspan x="0" y="0">“Q12“</tspan></text></g><g id="Linie"><line class="cls-1" x1="97.92" y1="43.2" x2="198.72" y2="43.2"/><line class="cls-1" x1="227.52" y1="43.2" x2="328.32" y2="43.2"/><path class="cls-1" d="M227.52,43.2c0,7.95-6.45,14.4-14.4,14.4s-14.4-6.45-14.4-14.4"/><rect class="cls-3" x="69.12" y="72" width="28.8" height="28.8"/><rect class="cls-3" x="69.12" y="129.6" width="28.8" height="28.8"/><rect class="cls-3" x="69.12" y="187.2" width="28.8" height="28.8"/><line class="cls-1" x1="97.92" y1="43.2" x2="97.92" y2="534.24"/><line class="cls-1" x1="97.92" y1="532.8" x2="328.32" y2="532.8"/><line class="cls-1" x1="328.32" y1="43.2" x2="328.32" y2="532.8"/><rect class="cls-3" x="69.12" y="244.8" width="28.8" height="28.8"/><rect class="cls-3" x="69.12" y="302.4" width="28.8" height="28.8"/><rect class="cls-3" x="69.12" y="360" width="28.8" height="28.8"/><rect class="cls-3" x="69.12" y="417.6" width="28.8" height="28.8"/><rect class="cls-3" x="328.32" y="187.2" width="28.8" height="28.8"/><rect class="cls-3" x="328.32" y="244.8" width="28.8" height="28.8"/><rect class="cls-3" x="328.32" y="302.4" width="28.8" height="28.8"/><rect class="cls-3" x="328.32" y="360" width="28.8" height="28.8"/><rect class="cls-3" x="328.32" y="417.6" width="28.8" height="28.8"/><rect class="cls-3" x="328.32" y="475.2" width="28.8" height="28.8"/><rect class="cls-3" x="69.12" y="475.2" width="28.8" height="28.8"/><rect class="cls-3" x="328.32" y="72" width="28.8" height="28.8"/><rect class="cls-3" x="328.32" y="129.6" width="28.8" height="28.8"/><rect class="cls-2" x="610.56" y="95.04" width="172.8" height="403.2"/><g><line class="cls-2" x1="783.36" y1="129.6" x2="988.55" y2="129.6"/><polygon class="cls-5" points="981.92 137.78 980.56 136.31 987.78 129.6 980.56 122.89 981.92 121.42 990.72 129.6 981.92 137.78"/></g><g><line class="cls-2" x1="783.36" y1="158.4" x2="988.55" y2="158.4"/><polygon class="cls-5" points="981.92 166.58 980.56 165.11 987.78 158.4 980.56 151.69 981.92 150.22 990.72 158.4 981.92 166.58"/></g><g><line class="cls-2" x1="783.36" y1="187.2" x2="988.55" y2="187.2"/><polygon class="cls-5" points="981.92 195.38 980.56 193.91 987.78 187.2 980.56 180.49 981.92 179.02 990.72 187.2 981.92 195.38"/></g><g><line class="cls-2" x1="783.36" y1="216" x2="988.55" y2="216"/><polygon class="cls-5" points="981.92 224.18 980.56 222.71 987.78 216 980.56 209.29 981.92 207.82 990.72 216 981.92 224.18"/></g><g><line class="cls-2" x1="783.36" y1="244.8" x2="988.55" y2="244.8"/><polygon class="cls-5" points="981.92 252.98 980.56 251.52 987.78 244.8 980.56 238.09 981.92 236.62 990.72 244.8 981.92 252.98"/></g><g><line class="cls-2" x1="783.36" y1="273.6" x2="988.55" y2="273.6"/><polygon class="cls-5" points="981.92 281.78 980.56 280.31 987.78 273.6 980.56 266.89 981.92 265.42 990.72 273.6 981.92 281.78"/></g><g><line class="cls-2" x1="783.36" y1="302.4" x2="988.55" y2="302.4"/><polygon class="cls-5" points="981.92 310.58 980.56 309.11 987.78 302.4 980.56 295.69 981.92 294.22 990.72 302.4 981.92 310.58"/></g><g><line class="cls-2" x1="783.36" y1="331.2" x2="988.55" y2="331.2"/><polygon class="cls-5" points="981.92 339.38 980.56 337.91 987.78 331.2 980.56 324.49 981.92 323.02 990.72 331.2 981.92 339.38"/></g><g><line class="cls-2" x1="462.24" y1="123.84" x2="608.39" y2="123.84"/><polygon class="cls-5" points="601.76 132.02 600.4 130.55 607.62 123.84 600.4 117.13 601.76 115.66 610.56 123.84 601.76 132.02"/></g><g><line class="cls-2" x1="462.24" y1="446.4" x2="608.39" y2="446.4"/><polygon class="cls-5" points="601.76 454.58 600.4 453.11 607.62 446.4 600.4 439.69 601.76 438.22 610.56 446.4 601.76 454.58"/></g><g><line class="cls-2" x1="696.96" y1="95.04" x2="696.96" y2="54.56"/><polygon class="cls-5" points="706.5 72.29 703.68 73.32 696.96 54.85 690.24 73.32 687.42 72.29 696.96 46.08 706.5 72.29"/></g><line class="cls-2" x1="696.96" y1="498.24" x2="696.96" y2="541.44"/><polygon class="cls-2" points="682.56 541.44 711.36 541.44 696.96 558.72 682.56 541.44"/><g><line class="cls-2" x1="783.36" y1="360" x2="988.55" y2="360"/><polygon class="cls-5" points="981.92 368.18 980.56 366.72 987.78 360 980.56 353.29 981.92 351.82 990.72 360 981.92 368.18"/></g><g><line class="cls-2" x1="783.36" y1="388.8" x2="988.55" y2="388.8"/><polygon class="cls-5" points="981.92 396.98 980.56 395.51 987.78 388.8 980.56 382.09 981.92 380.62 990.72 388.8 981.92 396.98"/></g><g><line class="cls-2" x1="783.36" y1="417.6" x2="988.55" y2="417.6"/><polygon class="cls-5" points="981.92 425.78 980.56 424.31 987.78 417.6 980.56 410.89 981.92 409.42 990.72 417.6 981.92 425.78"/></g><g><line class="cls-2" x1="783.36" y1="446.4" x2="988.55" y2="446.4"/><polygon class="cls-5" points="981.92 454.58 980.56 453.11 987.78 446.4 980.56 439.69 981.92 438.22 990.72 446.4 981.92 454.58"/></g></g></svg>