<?xml version="1.0" encoding="UTF-8"?><svg xmlns="http://www.w3.org/2000/svg" viewBox="0 0 1080 600.48"><defs><style>.cls-1{letter-spacing:0em;}.cls-2{stroke-width:3px;}.cls-2,.cls-3,.cls-4,.cls-5,.cls-6,.cls-7,.cls-8,.cls-9,.cls-10,.cls-11,.cls-12,.cls-13{stroke:#cad2d9;stroke-miterlimit:10;}.cls-2,.cls-3,.cls-4,.cls-6,.cls-7,.cls-8,.cls-9,.cls-10,.cls-11,.cls-12,.cls-13{fill:none;}.cls-3{stroke-dasharray:0 0 4.12 4.12;}.cls-14,.cls-15,.cls-5,.cls-16{fill:#cad2d9;}.cls-14,.cls-16{font-family:Roboto-Regular, Roboto;}.cls-17{letter-spacing:-.01em;}.cls-4{stroke-width:1.63px;}.cls-5,.cls-11{stroke-width:2px;}.cls-6{stroke-dasharray:0 0 4.01 4.01;}.cls-18{letter-spacing:-.01em;}.cls-7{stroke-width:1.44px;}.cls-8{stroke-width:1.44px;}.cls-9{stroke-width:1.98px;}.cls-19{letter-spacing:0em;}.cls-10{stroke-width:2px;}.cls-20{letter-spacing:-.03em;}.cls-21{letter-spacing:0em;}.cls-22,.cls-16{font-size:18px;}.cls-23{letter-spacing:-.06em;}.cls-24{letter-spacing:-.02em;}.cls-25{font-size:12px;}.cls-26{letter-spacing:-.04em;}.cls-13{stroke-width:1.91px;}.cls-27{letter-spacing:0em;}</style></defs><g id="TEXT"><text class="cls-16" transform="translate(78.47 94.14)"><tspan x="0" y="0">1</tspan></text><text class="cls-16" transform="translate(78.47 151.74)"><tspan x="0" y="0">2</tspan></text><text class="cls-16" transform="translate(78.47 209.34)"><tspan x="0" y="0">3</tspan></text><text class="cls-16" transform="translate(78.47 266.94)"><tspan x="0" y="0">4</tspan></text><text class="cls-16" transform="translate(78.47 324.54)"><tspan x="0" y="0">5</tspan></text><text class="cls-16" transform="translate(78.47 382.14)"><tspan x="0" y="0">6</tspan></text><text class="cls-16" transform="translate(78.47 439.74)"><tspan x="0" y="0">7</tspan></text><text class="cls-16" transform="translate(331.89 209.34)"><tspan x="0" y="0">14</tspan></text><text class="cls-16" transform="translate(331.89 266.94)"><tspan x="0" y="0">13</tspan></text><text class="cls-16" transform="translate(331.89 324.54)"><tspan x="0" y="0">12</tspan></text><text class="cls-16" transform="translate(331.89 382.14)"><tspan x="0" y="0">11</tspan></text><text class="cls-16" transform="translate(331.89 439.74)"><tspan x="0" y="0">10</tspan></text><text class="cls-16" transform="translate(337.67 497.34)"><tspan x="0" y="0">9</tspan></text><text class="cls-14" transform="translate(112.32 498.78)"><tspan class="cls-22" x="0" y="0">V</tspan><tspan class="cls-25" x="11.45" y="0">SS</tspan></text><text class="cls-14" transform="translate(286.73 95.58)"><tspan class="cls-22" x="0" y="0">V</tspan><tspan class="cls-25" x="11.45" y="0">DD</tspan></text><text class="cls-16" transform="translate(181.15 565.92)"><tspan x="0" y="0">CD4018</tspan></text><text class="cls-16" transform="translate(78.47 497.34)"><tspan x="0" y="0">8</tspan></text><text class="cls-16" transform="translate(331.89 94.14)"><tspan x="0" y="0">16</tspan></text><text class="cls-16" transform="translate(331.89 151.74)"><tspan x="0" y="0">15</tspan></text><text class="cls-16" transform="translate(112.32 94.14)"><tspan class="cls-17" x="0" y="0">D</tspan><tspan class="cls-23" x="11.62" y="0">A</tspan><tspan class="cls-26" x="22.23" y="0">T</tspan><tspan x="32.27" y="0">A</tspan></text><text class="cls-16" transform="translate(112.32 153.18)"><tspan class="cls-18" x="0" y="0">J</tspan><tspan x="9.74" y="0">AM 1</tspan></text><text class="cls-16" transform="translate(112.32 210.78)"><tspan class="cls-18" x="0" y="0">J</tspan><tspan x="9.74" y="0">AM 2</tspan></text><text class="cls-16" transform="translate(112.32 268.38)"><tspan x="0" y="0">Q 2</tspan></text><text class="cls-16" transform="translate(112.32 325.98)"><tspan x="0" y="0">Q 1</tspan></text><text class="cls-16" transform="translate(112.32 383.58)"><tspan x="0" y="0">Q 3</tspan></text><text class="cls-16" transform="translate(112.32 441.18)"><tspan class="cls-18" x="0" y="0">J</tspan><tspan x="9.74" y="0">AM 3</tspan></text><text class="cls-16" transform="translate(257.71 210.78)"><tspan x="0" y="0">C</tspan><tspan class="cls-20" x="11.72" y="0">L</tspan><tspan x="20.83" y="0">OCK</tspan></text><text class="cls-16" transform="translate(286.98 268.38)"><tspan x="0" y="0">Q 5</tspan></text><text class="cls-16" transform="translate(262.16 325.98)"><tspan class="cls-18" x="0" y="0">J</tspan><tspan x="9.74" y="0">AM 5</tspan></text><text class="cls-16" transform="translate(286.98 383.58)"><tspan x="0" y="0">Q 4</tspan></text><text class="cls-16" transform="translate(249.78 431.1)"><tspan x="0" y="0">PRES</tspan><tspan class="cls-27" x="43.35" y="0">E</tspan><tspan class="cls-24" x="53.75" y="0">T</tspan><tspan x="64.14" y="0"> </tspan><tspan x="-1.94" y="21.6">E</tspan><tspan class="cls-19" x="8.29" y="21.6">N</tspan><tspan x="21.28" y="21.6">ABLE</tspan></text><text class="cls-16" transform="translate(262.16 498.78)"><tspan class="cls-18" x="0" y="0">J</tspan><tspan x="9.74" y="0">AM 4</tspan></text><text class="cls-16" transform="translate(261.13 153.18)"><tspan x="0" y="0">RES</tspan><tspan class="cls-27" x="31.99" y="0">E</tspan><tspan class="cls-24" x="42.4" y="0">T</tspan></text><text class="cls-14" transform="translate(591.96 525.83)"><tspan class="cls-22" x="0" y="0">V</tspan><tspan class="cls-25" x="11.45" y="0">SS</tspan></text><text class="cls-14" transform="translate(588.33 82.08)"><tspan class="cls-22" x="0" y="0">V</tspan><tspan class="cls-25" x="11.45" y="0">DD</tspan></text><text class="cls-16" transform="translate(490.99 385.02)"><tspan x="0" y="0">14</tspan></text><text class="cls-16" transform="translate(499.65 413.82)"><tspan x="0" y="0">1</tspan></text><text class="cls-16" transform="translate(489.55 442.62)"><tspan x="0" y="0">15</tspan></text><text class="cls-16" transform="translate(498.21 212.22)"><tspan x="0" y="0">9</tspan></text><text class="cls-16" transform="translate(585.35 476.64)"><tspan x="0" y="0">8</tspan></text><text class="cls-16" transform="translate(581.73 109.44)"><tspan x="0" y="0">16</tspan></text><text class="cls-16" transform="translate(490.99 356.22)"><tspan x="0" y="0">10</tspan></text><text class="cls-16" transform="translate(490.99 241.02)"><tspan x="0" y="0">12</tspan></text><text class="cls-16" transform="translate(501.09 183.42)"><tspan x="0" y="0">7</tspan></text><text class="cls-16" transform="translate(501.09 154.62)"><tspan x="0" y="0">3</tspan></text><text class="cls-16" transform="translate(501.09 125.82)"><tspan x="0" y="0">2</tspan></text><text class="cls-16" transform="translate(642.19 341.82)"><tspan x="0" y="0">11</tspan></text><text class="cls-16" transform="translate(642.19 399.42)"><tspan x="0" y="0">13</tspan></text><text class="cls-16" transform="translate(652.29 226.62)"><tspan x="0" y="0">4</tspan></text><text class="cls-16" transform="translate(652.29 284.22)"><tspan x="0" y="0">6</tspan></text><text class="cls-16" transform="translate(652.29 169.02)"><tspan x="0" y="0">5</tspan></text><text class="cls-16" transform="translate(629.28 305.28) rotate(-90)"><tspan x="0" y="0">Outputs</tspan></text><text class="cls-16" transform="translate(384.25 364.32)"><tspan x="0" y="0">P</tspan><tspan class="cls-1" x="11.36" y="0">r</tspan><tspan x="17.28" y="0">eset En.</tspan></text><text class="cls-16" transform="translate(421.07 393.12)"><tspan x="0" y="0">Clock</tspan></text><text class="cls-16" transform="translate(427.77 421.92)"><tspan x="0" y="0">Data</tspan></text><text class="cls-16" transform="translate(420.86 450.72)"><tspan x="0" y="0">Reset</tspan></text><text class="cls-16" transform="translate(419.93 135.36)"><tspan x="0" y="0">Jam 1</tspan></text><text class="cls-16" transform="translate(418.49 192.96)"><tspan x="0" y="0">Jam 3</tspan></text><text class="cls-16" transform="translate(418.49 164.16)"><tspan x="0" y="0">Jam 2</tspan></text><text class="cls-16" transform="translate(418.49 221.76)"><tspan x="0" y="0">Jam 4</tspan></text><text class="cls-16" transform="translate(418.49 250.56)"><tspan x="0" y="0">Jam 5</tspan></text><text class="cls-16" transform="translate(694.5 179.1)"><tspan x="0" y="0">Q 1</tspan></text><text class="cls-16" transform="translate(694.5 236.96)"><tspan x="0" y="0">Q 2</tspan></text><text class="cls-16" transform="translate(694.5 294.56)"><tspan x="0" y="0">Q 3</tspan></text><text class="cls-16" transform="translate(694.5 352.16)"><tspan x="0" y="0">Q 4</tspan></text><text class="cls-16" transform="translate(694.5 409.76)"><tspan x="0" y="0">Q 5</tspan></text><text class="cls-16" transform="translate(895.34 33.12)"><tspan x="0" y="0">Jam Inputs</tspan></text><text class="cls-16" transform="translate(951.34 515.52)"><tspan x="0" y="0">1/2 CD4011</tspan></text><text class="cls-14" transform="translate(1048.44 195.84)"><tspan class="cls-22" x="0" y="0">V</tspan><tspan class="cls-25" x="11.45" y="0">SS</tspan></text><text class="cls-16" transform="translate(706.64 89.28)"><tspan x="0" y="0">Clock Input</tspan></text><text class="cls-16" transform="translate(708.4 507.68)"><tspan x="0" y="0">Divide </tspan><tspan class="cls-21" x="53.4" y="0">b</tspan><tspan x="63.4" y="0">y 3</tspan></text><text class="cls-16" transform="translate(756.09 133.92)"><tspan x="0" y="0">Data</tspan></text><text class="cls-16" transform="translate(1009.41 125.28)"><tspan x="0" y="0">15</tspan></text><text class="cls-16" transform="translate(1009.41 82.08)"><tspan x="0" y="0">10</tspan></text><text class="cls-16" transform="translate(866.15 69.12)"><tspan x="0" y="0">2</tspan></text><text class="cls-16" transform="translate(894.95 69.12)"><tspan x="0" y="0">3</tspan></text><text class="cls-16" transform="translate(923.75 69.12)"><tspan x="0" y="0">7</tspan></text><text class="cls-16" transform="translate(952.55 69.12)"><tspan x="0" y="0">9</tspan></text><text class="cls-16" transform="translate(979.17 69.12)"><tspan x="0" y="0">12</tspan></text><text class="cls-16" transform="translate(807.79 84.06)"><tspan x="0" y="0">14</tspan></text><text class="cls-16" transform="translate(820.77 127.26)"><tspan x="0" y="0">1</tspan></text><text class="cls-16" transform="translate(912.88 137.6)"><tspan x="0" y="0">Q 1</tspan></text><text class="cls-16" transform="translate(958.96 137.6)"><tspan x="0" y="0">Q 2</tspan></text><text class="cls-16" transform="translate(882.43 109.44)"><tspan x="0" y="0">CD4018</tspan></text></g><g id="Line"><line class="cls-2" x1="97.92" y1="43.2" x2="198.72" y2="43.2"/><line class="cls-2" x1="227.52" y1="43.2" x2="328.32" y2="43.2"/><path class="cls-2" d="M227.52,43.2c0,7.95-6.45,14.4-14.4,14.4s-14.4-6.45-14.4-14.4"/><rect class="cls-12" x="69.12" y="72" width="28.8" height="28.8"/><rect class="cls-12" x="69.12" y="129.6" width="28.8" height="28.8"/><rect class="cls-12" x="69.12" y="187.2" width="28.8" height="28.8"/><line class="cls-2" x1="97.92" y1="43.2" x2="97.92" y2="534.24"/><line class="cls-2" x1="97.92" y1="532.8" x2="328.32" y2="532.8"/><line class="cls-2" x1="328.32" y1="43.2" x2="328.32" y2="532.8"/><rect class="cls-12" x="69.12" y="244.8" width="28.8" height="28.8"/><rect class="cls-12" x="69.12" y="302.4" width="28.8" height="28.8"/><rect class="cls-12" x="69.12" y="360" width="28.8" height="28.8"/><rect class="cls-12" x="69.12" y="417.6" width="28.8" height="28.8"/><rect class="cls-12" x="328.32" y="187.2" width="28.8" height="28.8"/><rect class="cls-12" x="328.32" y="244.8" width="28.8" height="28.8"/><rect class="cls-12" x="328.32" y="302.4" width="28.8" height="28.8"/><rect class="cls-12" x="328.32" y="360" width="28.8" height="28.8"/><rect class="cls-12" x="328.32" y="417.6" width="28.8" height="28.8"/><rect class="cls-12" x="328.32" y="475.2" width="28.8" height="28.8"/><rect class="cls-12" x="69.12" y="475.2" width="28.8" height="28.8"/><rect class="cls-12" x="328.32" y="72" width="28.8" height="28.8"/><rect class="cls-12" x="328.32" y="129.6" width="28.8" height="28.8"/><line class="cls-7" x1="469.44" y1="446.4" x2="515.52" y2="446.4"/><line class="cls-7" x1="469.44" y1="388.8" x2="515.52" y2="388.8"/><line class="cls-7" x1="469.44" y1="417.6" x2="515.52" y2="417.6"/><line class="cls-11" x1="577.44" y1="460.8" x2="577.44" y2="505.67"/><rect class="cls-4" x="515.52" y="115.2" width="123.84" height="345.6"/><g><line class="cls-11" x1="577.44" y1="115.2" x2="577.44" y2="74.72"/><polygon class="cls-15" points="586.98 92.45 584.16 93.48 577.44 75.01 570.72 93.48 567.9 92.45 577.44 66.24 586.98 92.45"/></g><line class="cls-7" x1="469.44" y1="360" x2="515.52" y2="360"/><line class="cls-7" x1="469.44" y1="244.8" x2="515.52" y2="244.8"/><line class="cls-7" x1="469.44" y1="216" x2="515.52" y2="216"/><line class="cls-7" x1="469.44" y1="187.2" x2="515.52" y2="187.2"/><line class="cls-7" x1="469.44" y1="158.4" x2="515.52" y2="158.4"/><line class="cls-7" x1="469.44" y1="129.6" x2="515.52" y2="129.6"/><line class="cls-8" x1="639.36" y1="345.6" x2="685.44" y2="345.6"/><line class="cls-8" x1="639.36" y1="403.2" x2="685.44" y2="403.2"/><line class="cls-8" x1="639.36" y1="230.4" x2="685.44" y2="230.4"/><line class="cls-8" x1="639.36" y1="288" x2="685.44" y2="288"/><line class="cls-8" x1="639.36" y1="172.8" x2="685.44" y2="172.8"/><line class="cls-11" x1="993.99" y1="172.8" x2="901.44" y2="172.8"/><circle class="cls-11" cx="947.52" cy="293.76" r="8.64"/><line class="cls-11" x1="924.48" y1="172.8" x2="924.48" y2="144"/><line class="cls-11" x1="993.6" y1="239.04" x2="993.6" y2="172.8"/><line class="cls-11" x1="901.44" y1="239.04" x2="901.44" y2="172.8"/><line class="cls-11" x1="970.56" y1="172.8" x2="970.56" y2="144"/><path class="cls-9" d="M901.44,238.32c0,25.85,20.63,46.8,46.08,46.8s46.08-20.95,46.08-46.8"/><line class="cls-11" x1="947.52" y1="331.2" x2="947.52" y2="302.4"/><line class="cls-11" x1="993.99" y1="360" x2="901.44" y2="360"/><circle class="cls-11" cx="947.52" cy="480.96" r="8.64"/><line class="cls-11" x1="924.48" y1="360" x2="924.48" y2="331.2"/><line class="cls-11" x1="993.6" y1="426.24" x2="993.6" y2="360"/><line class="cls-11" x1="901.44" y1="426.24" x2="901.44" y2="360"/><line class="cls-11" x1="970.56" y1="360" x2="970.56" y2="331.2"/><path class="cls-9" d="M901.44,425.52c0,25.85,20.63,46.8,46.08,46.8s46.08-20.95,46.08-46.8"/><line class="cls-11" x1="947.52" y1="518.4" x2="947.52" y2="489.6"/><line class="cls-11" x1="924.48" y1="331.2" x2="970.56" y2="331.2"/><rect class="cls-13" x="832.32" y="72" width="172.8" height="72"/><line class="cls-11" x1="1033.92" y1="43.2" x2="1033.92" y2="177.12"/><line class="cls-11" x1="1005.12" y1="129.6" x2="1033.92" y2="129.6"/><line class="cls-11" x1="1005.12" y1="86.4" x2="1033.92" y2="86.4"/><line class="cls-11" x1="976.32" y1="72" x2="976.32" y2="43.2"/><line class="cls-11" x1="947.52" y1="72" x2="947.52" y2="43.2"/><line class="cls-11" x1="918.72" y1="72" x2="918.72" y2="43.2"/><line class="cls-11" x1="889.92" y1="72" x2="889.92" y2="43.2"/><line class="cls-11" x1="861.12" y1="72" x2="861.12" y2="43.2"/><line class="cls-11" x1="861.12" y1="43.2" x2="1033.92" y2="43.2"/><line class="cls-11" x1="803.52" y1="86.4" x2="832.32" y2="86.4"/><line class="cls-11" x1="803.52" y1="129.6" x2="832.32" y2="129.6"/><line class="cls-11" x1="947.52" y1="518.4" x2="803.52" y2="518.4"/><line class="cls-11" x1="803.52" y1="129.6" x2="803.52" y2="518.4"/><g><polyline class="cls-12" points="1005.12 493.36 1005.12 495.36 1003.12 495.36"/><line class="cls-3" x1="999" y1="495.36" x2="893.98" y2="495.36"/><polyline class="cls-12" points="891.92 495.36 889.92 495.36 889.92 493.36"/><line class="cls-6" x1="889.92" y1="489.35" x2="889.92" y2="162.41"/><polyline class="cls-12" points="889.92 160.4 889.92 158.4 891.92 158.4"/><line class="cls-3" x1="896.04" y1="158.4" x2="1001.06" y2="158.4"/><polyline class="cls-12" points="1003.12 158.4 1005.12 158.4 1005.12 160.4"/><line class="cls-6" x1="1005.12" y1="164.41" x2="1005.12" y2="491.35"/></g><line class="cls-11" x1="803.52" y1="518.4" x2="745.92" y2="518.4"/><line class="cls-12" x1="914.4" y1="122.66" x2="924.48" y2="122.66"/><line class="cls-12" x1="960.48" y1="122.66" x2="970.56" y2="122.66"/><polygon class="cls-10" points="1033.92 177.12 1048.32 177.12 1041.12 185.76 1033.92 194.4 1026.72 185.76 1019.52 177.12 1033.92 177.12"/><polygon class="cls-10" points="577.44 505.44 591.84 505.44 584.64 514.08 577.44 522.72 570.24 514.08 563.04 505.44 577.44 505.44"/><line class="cls-12" x1="695.52" y1="164.16" x2="705.6" y2="164.16"/><line class="cls-12" x1="695.52" y1="222.02" x2="705.6" y2="222.02"/><line class="cls-12" x1="695.52" y1="279.62" x2="705.6" y2="279.62"/><line class="cls-12" x1="695.52" y1="337.22" x2="705.6" y2="337.22"/><line class="cls-12" x1="288" y1="253.44" x2="298.08" y2="253.44"/><line class="cls-12" x1="288" y1="368.64" x2="298.08" y2="368.64"/><line class="cls-12" x1="113.76" y1="368.64" x2="123.84" y2="368.64"/><line class="cls-12" x1="113.76" y1="311.04" x2="123.84" y2="311.04"/><line class="cls-12" x1="113.76" y1="253.44" x2="123.84" y2="253.44"/><line class="cls-12" x1="695.52" y1="394.82" x2="705.6" y2="394.82"/></g><g id="Field"><circle class="cls-5" cx="889.92" cy="43.2" r="2.88"/><circle class="cls-5" cx="918.72" cy="43.2" r="2.88"/><circle class="cls-5" cx="947.52" cy="43.2" r="2.88"/><circle class="cls-5" cx="976.32" cy="43.2" r="2.88"/><circle class="cls-5" cx="1033.92" cy="86.4" r="2.88"/><circle class="cls-5" cx="1033.92" cy="129.6" r="2.88"/><circle class="cls-5" cx="803.52" cy="518.4" r="2.88"/><circle class="cls-5" cx="947.52" cy="331.2" r="2.88"/></g></svg>