<?xml version="1.0" encoding="UTF-8"?><svg xmlns="http://www.w3.org/2000/svg" viewBox="0 0 1080 600.48"><defs><style>.cls-1{font-size:9px;}.cls-1,.cls-2{fill:#1d1e1b;font-family:Roboto-Regular, Roboto;}.cls-3{letter-spacing:0em;}.cls-4,.cls-5{fill:none;stroke:#1d1e1b;stroke-miterlimit:10;}.cls-2{font-size:18px;}.cls-5{stroke-width:.25px;}</style></defs><g id="TEXT"><text class="cls-2" transform="translate(77.9 46.62)"><tspan x="0" y="0">”0“</tspan></text><text class="cls-2" transform="translate(77.9 89.82)"><tspan x="0" y="0">”1“</tspan></text><text class="cls-2" transform="translate(77.97 133.02)"><tspan x="0" y="0">“2“</tspan></text><text class="cls-2" transform="translate(77.97 176.22)"><tspan x="0" y="0">“3“</tspan></text><text class="cls-2" transform="translate(77.97 219.42)"><tspan x="0" y="0">“4“</tspan></text><text class="cls-2" transform="translate(77.97 262.62)"><tspan x="0" y="0">“5“</tspan></text><text class="cls-2" transform="translate(77.97 305.82)"><tspan x="0" y="0">“6“</tspan></text><text class="cls-2" transform="translate(77.97 349.02)"><tspan x="0" y="0">“7“</tspan></text><text class="cls-2" transform="translate(55.91 435.42)"><tspan x="0" y="0">Clock</tspan></text><text class="cls-2" transform="translate(51.34 478.62)"><tspan x="0" y="0">Inhibit</tspan></text><text class="cls-2" transform="translate(55.48 521.82)"><tspan x="0" y="0">Reset</tspan></text><text class="cls-1" transform="translate(112.32 57.15)"><tspan x="0" y="0">L</tspan></text><text class="cls-1" transform="translate(112.32 29.79)"><tspan x="0" y="0">H</tspan></text><text class="cls-1" transform="translate(112.32 98.91)"><tspan x="0" y="0">L</tspan></text><text class="cls-1" transform="translate(112.32 71.55)"><tspan x="0" y="0">H</tspan></text><text class="cls-1" transform="translate(112.32 142.11)"><tspan x="0" y="0">L</tspan></text><text class="cls-1" transform="translate(112.32 114.75)"><tspan x="0" y="0">H</tspan></text><text class="cls-1" transform="translate(112.32 183.87)"><tspan x="0" y="0">L</tspan></text><text class="cls-1" transform="translate(112.32 156.51)"><tspan x="0" y="0">H</tspan></text><text class="cls-1" transform="translate(112.32 228.51)"><tspan x="0" y="0">L</tspan></text><text class="cls-1" transform="translate(112.32 201.15)"><tspan x="0" y="0">H</tspan></text><text class="cls-1" transform="translate(112.32 270.27)"><tspan x="0" y="0">L</tspan></text><text class="cls-1" transform="translate(112.32 242.91)"><tspan x="0" y="0">H</tspan></text><text class="cls-1" transform="translate(112.32 313.47)"><tspan x="0" y="0">L</tspan></text><text class="cls-1" transform="translate(112.32 286.11)"><tspan x="0" y="0">H</tspan></text><text class="cls-1" transform="translate(112.32 355.23)"><tspan x="0" y="0">L</tspan></text><text class="cls-1" transform="translate(112.32 327.87)"><tspan x="0" y="0">H</tspan></text><text class="cls-1" transform="translate(112.32 445.95)"><tspan x="0" y="0">L</tspan></text><text class="cls-1" transform="translate(112.32 418.59)"><tspan x="0" y="0">H</tspan></text><text class="cls-1" transform="translate(112.32 487.71)"><tspan x="0" y="0">L</tspan></text><text class="cls-1" transform="translate(112.32 460.35)"><tspan x="0" y="0">H</tspan></text><text class="cls-1" transform="translate(112.32 530.91)"><tspan x="0" y="0">L</tspan></text><text class="cls-1" transform="translate(112.32 503.55)"><tspan x="0" y="0">H</tspan></text><text class="cls-2" transform="translate(25.8 565.02)"><tspan x="0" y="0">Car</tspan><tspan class="cls-3" x="27.6" y="0">r</tspan><tspan x="33.85" y="0">y Out</tspan></text><text class="cls-1" transform="translate(112.32 574.11)"><tspan x="0" y="0">L</tspan></text><text class="cls-1" transform="translate(112.32 546.75)"><tspan x="0" y="0">H</tspan></text></g><g id="Linie"><line class="cls-4" x1="122.4" y1="414.72" x2="136.8" y2="414.72"/><line class="cls-4" x1="122.4" y1="443.52" x2="122.4" y2="414.72"/><line class="cls-4" x1="136.8" y1="443.52" x2="136.8" y2="414.72"/><line class="cls-4" x1="136.8" y1="443.52" x2="151.2" y2="443.52"/><line class="cls-4" x1="151.2" y1="414.72" x2="165.6" y2="414.72"/><line class="cls-4" x1="151.2" y1="443.52" x2="151.2" y2="414.72"/><line class="cls-4" x1="165.6" y1="443.52" x2="165.6" y2="414.72"/><line class="cls-4" x1="165.6" y1="443.52" x2="180" y2="443.52"/><line class="cls-4" x1="180" y1="414.72" x2="194.4" y2="414.72"/><line class="cls-4" x1="180" y1="443.52" x2="180" y2="414.72"/><line class="cls-4" x1="194.4" y1="443.52" x2="194.4" y2="414.72"/><line class="cls-4" x1="194.4" y1="443.52" x2="208.8" y2="443.52"/><line class="cls-4" x1="208.8" y1="414.72" x2="223.2" y2="414.72"/><line class="cls-4" x1="208.8" y1="443.52" x2="208.8" y2="414.72"/><line class="cls-4" x1="223.2" y1="443.52" x2="223.2" y2="414.72"/><line class="cls-4" x1="223.2" y1="443.52" x2="237.6" y2="443.52"/><line class="cls-4" x1="237.6" y1="414.72" x2="252" y2="414.72"/><line class="cls-4" x1="237.6" y1="443.52" x2="237.6" y2="414.72"/><line class="cls-4" x1="252" y1="443.52" x2="252" y2="414.72"/><line class="cls-4" x1="252" y1="443.52" x2="266.4" y2="443.52"/><line class="cls-4" x1="266.4" y1="414.72" x2="280.8" y2="414.72"/><line class="cls-4" x1="266.4" y1="443.52" x2="266.4" y2="414.72"/><line class="cls-4" x1="280.8" y1="443.52" x2="280.8" y2="414.72"/><line class="cls-4" x1="280.8" y1="443.52" x2="295.2" y2="443.52"/><line class="cls-4" x1="295.2" y1="414.72" x2="309.6" y2="414.72"/><line class="cls-4" x1="309.6" y1="443.52" x2="309.6" y2="414.72"/><line class="cls-4" x1="309.6" y1="443.52" x2="324" y2="443.52"/><line class="cls-4" x1="324" y1="414.72" x2="338.4" y2="414.72"/><line class="cls-4" x1="324" y1="443.52" x2="324" y2="414.72"/><line class="cls-4" x1="338.4" y1="443.52" x2="338.4" y2="414.72"/><line class="cls-4" x1="338.4" y1="443.52" x2="352.8" y2="443.52"/><line class="cls-4" x1="295.2" y1="443.52" x2="295.2" y2="414.72"/><line class="cls-4" x1="352.8" y1="414.72" x2="367.2" y2="414.72"/><line class="cls-4" x1="352.8" y1="443.52" x2="352.8" y2="414.72"/><line class="cls-4" x1="367.2" y1="443.52" x2="367.2" y2="414.72"/><line class="cls-4" x1="367.2" y1="443.52" x2="381.6" y2="443.52"/><line class="cls-4" x1="381.6" y1="414.72" x2="396" y2="414.72"/><line class="cls-4" x1="381.6" y1="443.52" x2="381.6" y2="414.72"/><line class="cls-4" x1="396" y1="443.52" x2="396" y2="414.72"/><line class="cls-4" x1="396" y1="443.52" x2="410.4" y2="443.52"/><line class="cls-4" x1="410.4" y1="414.72" x2="424.8" y2="414.72"/><line class="cls-4" x1="410.4" y1="443.52" x2="410.4" y2="414.72"/><line class="cls-4" x1="424.8" y1="443.52" x2="424.8" y2="414.72"/><line class="cls-4" x1="424.8" y1="443.52" x2="439.2" y2="443.52"/><line class="cls-4" x1="439.2" y1="414.72" x2="453.6" y2="414.72"/><line class="cls-4" x1="439.2" y1="443.52" x2="439.2" y2="414.72"/><line class="cls-4" x1="453.6" y1="443.52" x2="453.6" y2="414.72"/><line class="cls-4" x1="453.6" y1="443.52" x2="468" y2="443.52"/><line class="cls-4" x1="468" y1="414.72" x2="482.4" y2="414.72"/><line class="cls-4" x1="468" y1="443.52" x2="468" y2="414.72"/><line class="cls-4" x1="482.4" y1="443.52" x2="482.4" y2="414.72"/><line class="cls-4" x1="482.4" y1="443.52" x2="496.8" y2="443.52"/><line class="cls-4" x1="496.8" y1="414.72" x2="511.2" y2="414.72"/><line class="cls-4" x1="496.8" y1="443.52" x2="496.8" y2="414.72"/><line class="cls-4" x1="511.2" y1="443.52" x2="511.2" y2="414.72"/><line class="cls-4" x1="511.2" y1="443.52" x2="525.6" y2="443.52"/><line class="cls-4" x1="525.6" y1="414.72" x2="540" y2="414.72"/><line class="cls-4" x1="540" y1="443.52" x2="540" y2="414.72"/><line class="cls-4" x1="540" y1="443.52" x2="554.4" y2="443.52"/><line class="cls-4" x1="554.4" y1="414.72" x2="568.8" y2="414.72"/><line class="cls-4" x1="554.4" y1="443.52" x2="554.4" y2="414.72"/><line class="cls-4" x1="568.8" y1="443.52" x2="568.8" y2="414.72"/><line class="cls-4" x1="568.8" y1="443.52" x2="583.2" y2="443.52"/><line class="cls-4" x1="525.6" y1="443.52" x2="525.6" y2="414.72"/><line class="cls-4" x1="583.2" y1="414.72" x2="597.6" y2="414.72"/><line class="cls-4" x1="583.2" y1="443.52" x2="583.2" y2="414.72"/><line class="cls-4" x1="597.6" y1="443.52" x2="597.6" y2="414.72"/><line class="cls-4" x1="597.6" y1="443.52" x2="612" y2="443.52"/><line class="cls-4" x1="612" y1="414.72" x2="626.4" y2="414.72"/><line class="cls-4" x1="612" y1="443.52" x2="612" y2="414.72"/><line class="cls-4" x1="626.4" y1="443.52" x2="626.4" y2="414.72"/><line class="cls-4" x1="626.4" y1="443.52" x2="640.8" y2="443.52"/><line class="cls-4" x1="640.8" y1="414.72" x2="655.2" y2="414.72"/><line class="cls-4" x1="640.8" y1="443.52" x2="640.8" y2="414.72"/><line class="cls-4" x1="655.2" y1="443.52" x2="655.2" y2="414.72"/><line class="cls-4" x1="655.2" y1="443.52" x2="669.6" y2="443.52"/><line class="cls-4" x1="669.6" y1="414.72" x2="684" y2="414.72"/><line class="cls-4" x1="669.6" y1="443.52" x2="669.6" y2="414.72"/><line class="cls-4" x1="684" y1="443.52" x2="684" y2="414.72"/><line class="cls-4" x1="684" y1="443.52" x2="698.4" y2="443.52"/><line class="cls-4" x1="698.4" y1="414.72" x2="712.8" y2="414.72"/><line class="cls-4" x1="698.4" y1="443.52" x2="698.4" y2="414.72"/><line class="cls-4" x1="712.8" y1="443.52" x2="712.8" y2="414.72"/><line class="cls-4" x1="712.8" y1="443.52" x2="727.2" y2="443.52"/><line class="cls-4" x1="727.2" y1="414.72" x2="741.6" y2="414.72"/><line class="cls-4" x1="727.2" y1="443.52" x2="727.2" y2="414.72"/><line class="cls-4" x1="741.6" y1="443.52" x2="741.6" y2="414.72"/><line class="cls-4" x1="741.6" y1="443.52" x2="756" y2="443.52"/><line class="cls-4" x1="756" y1="414.72" x2="770.4" y2="414.72"/><line class="cls-4" x1="770.4" y1="443.52" x2="770.4" y2="414.72"/><line class="cls-4" x1="770.4" y1="443.52" x2="784.8" y2="443.52"/><line class="cls-4" x1="784.8" y1="414.72" x2="799.2" y2="414.72"/><line class="cls-4" x1="784.8" y1="443.52" x2="784.8" y2="414.72"/><line class="cls-4" x1="799.2" y1="443.52" x2="799.2" y2="414.72"/><line class="cls-4" x1="799.2" y1="443.52" x2="813.6" y2="443.52"/><line class="cls-4" x1="756" y1="443.52" x2="756" y2="414.72"/><line class="cls-4" x1="813.6" y1="414.72" x2="828" y2="414.72"/><line class="cls-4" x1="813.6" y1="443.52" x2="813.6" y2="414.72"/><line class="cls-4" x1="828" y1="443.52" x2="828" y2="414.72"/><line class="cls-4" x1="828" y1="443.52" x2="842.4" y2="443.52"/><line class="cls-4" x1="842.4" y1="414.72" x2="856.8" y2="414.72"/><line class="cls-4" x1="842.4" y1="443.52" x2="842.4" y2="414.72"/><line class="cls-4" x1="856.8" y1="443.52" x2="856.8" y2="414.72"/><line class="cls-4" x1="856.8" y1="443.52" x2="871.2" y2="443.52"/><line class="cls-4" x1="871.2" y1="414.72" x2="885.6" y2="414.72"/><line class="cls-4" x1="871.2" y1="443.52" x2="871.2" y2="414.72"/><line class="cls-4" x1="885.6" y1="443.52" x2="885.6" y2="414.72"/><line class="cls-4" x1="885.6" y1="443.52" x2="900" y2="443.52"/><line class="cls-4" x1="122.4" y1="25.92" x2="151.2" y2="25.92"/><line class="cls-4" x1="122.4" y1="54.72" x2="122.4" y2="25.92"/><line class="cls-4" x1="151.2" y1="54.72" x2="151.2" y2="25.92"/><line class="cls-4" x1="151.2" y1="54.72" x2="352.8" y2="54.72"/><line class="cls-4" x1="151.2" y1="69.12" x2="180" y2="69.12"/><line class="cls-4" x1="151.2" y1="97.92" x2="151.2" y2="69.12"/><line class="cls-4" x1="180" y1="97.92" x2="180" y2="69.12"/><line class="cls-4" x1="180" y1="97.92" x2="381.6" y2="97.92"/><line class="cls-4" x1="180" y1="112.32" x2="208.8" y2="112.32"/><line class="cls-4" x1="180" y1="141.12" x2="180" y2="112.32"/><line class="cls-4" x1="208.8" y1="141.12" x2="208.8" y2="112.32"/><line class="cls-4" x1="208.8" y1="141.12" x2="410.4" y2="141.12"/><line class="cls-4" x1="208.8" y1="155.52" x2="237.6" y2="155.52"/><line class="cls-4" x1="208.8" y1="184.32" x2="208.8" y2="155.52"/><line class="cls-4" x1="237.6" y1="184.32" x2="237.6" y2="155.52"/><line class="cls-4" x1="237.6" y1="184.32" x2="439.2" y2="184.32"/><line class="cls-4" x1="237.6" y1="198.72" x2="266.4" y2="198.72"/><line class="cls-4" x1="237.6" y1="227.52" x2="237.6" y2="198.72"/><line class="cls-4" x1="266.4" y1="227.52" x2="266.4" y2="198.72"/><line class="cls-4" x1="266.4" y1="227.52" x2="468" y2="227.52"/><line class="cls-4" x1="266.4" y1="241.92" x2="295.2" y2="241.92"/><line class="cls-4" x1="266.4" y1="270.72" x2="266.4" y2="241.92"/><line class="cls-4" x1="295.2" y1="270.72" x2="295.2" y2="241.92"/><line class="cls-4" x1="295.2" y1="270.72" x2="525.6" y2="270.72"/><line class="cls-4" x1="295.2" y1="285.12" x2="324" y2="285.12"/><line class="cls-4" x1="295.2" y1="313.92" x2="295.2" y2="285.12"/><line class="cls-4" x1="324" y1="313.92" x2="324" y2="285.12"/><line class="cls-4" x1="324" y1="313.92" x2="612" y2="313.92"/><line class="cls-4" x1="324" y1="328.32" x2="352.8" y2="328.32"/><line class="cls-4" x1="324" y1="357.12" x2="324" y2="328.32"/><line class="cls-4" x1="352.8" y1="357.12" x2="352.8" y2="328.32"/><line class="cls-4" x1="352.8" y1="357.12" x2="640.8" y2="357.12"/><line class="cls-4" x1="352.8" y1="25.92" x2="381.6" y2="25.92"/><line class="cls-4" x1="352.8" y1="54.72" x2="352.8" y2="25.92"/><line class="cls-4" x1="381.6" y1="54.72" x2="381.6" y2="25.92"/><line class="cls-4" x1="381.6" y1="54.72" x2="669.6" y2="54.72"/><line class="cls-4" x1="381.6" y1="69.12" x2="410.4" y2="69.12"/><line class="cls-4" x1="381.6" y1="97.92" x2="381.6" y2="69.12"/><line class="cls-4" x1="410.4" y1="97.92" x2="410.4" y2="69.12"/><line class="cls-4" x1="410.4" y1="112.32" x2="525.6" y2="112.32"/><line class="cls-4" x1="410.4" y1="141.12" x2="410.4" y2="112.32"/><line class="cls-4" x1="525.6" y1="141.12" x2="525.6" y2="112.32"/><line class="cls-4" x1="439.2" y1="184.32" x2="525.6" y2="184.32"/><line class="cls-4" x1="468" y1="227.52" x2="554.4" y2="227.52"/><line class="cls-4" x1="525.6" y1="270.72" x2="583.2" y2="270.72"/><line class="cls-4" x1="554.4" y1="198.72" x2="583.2" y2="198.72"/><line class="cls-4" x1="554.4" y1="227.52" x2="554.4" y2="198.72"/><line class="cls-4" x1="583.2" y1="227.52" x2="583.2" y2="198.72"/><line class="cls-4" x1="640.8" y1="328.32" x2="669.6" y2="328.32"/><line class="cls-4" x1="640.8" y1="357.12" x2="640.8" y2="328.32"/><line class="cls-4" x1="669.6" y1="357.12" x2="669.6" y2="328.32"/><line class="cls-4" x1="669.6" y1="25.92" x2="698.4" y2="25.92"/><line class="cls-4" x1="698.4" y1="54.72" x2="698.4" y2="25.92"/><line class="cls-4" x1="324" y1="357.12" x2="122.4" y2="357.12"/><line class="cls-4" x1="295.2" y1="313.92" x2="122.4" y2="313.92"/><line class="cls-4" x1="266.4" y1="270.72" x2="122.4" y2="270.72"/><line class="cls-4" x1="237.6" y1="227.52" x2="122.4" y2="227.52"/><line class="cls-4" x1="208.8" y1="184.32" x2="122.4" y2="184.32"/><line class="cls-4" x1="180" y1="141.12" x2="122.4" y2="141.12"/><line class="cls-4" x1="151.2" y1="97.92" x2="122.4" y2="97.92"/><line class="cls-4" x1="122.4" y1="486.72" x2="424.8" y2="486.72"/><line class="cls-4" x1="424.8" y1="457.92" x2="511.2" y2="457.92"/><line class="cls-4" x1="424.8" y1="486.72" x2="424.8" y2="457.92"/><line class="cls-4" x1="511.2" y1="486.72" x2="986.4" y2="486.72"/><line class="cls-4" x1="122.4" y1="529.92" x2="756" y2="529.92"/><line class="cls-4" x1="511.2" y1="486.72" x2="511.2" y2="457.92"/><line class="cls-4" x1="756" y1="501.12" x2="799.2" y2="501.12"/><line class="cls-4" x1="756" y1="529.92" x2="756" y2="501.12"/><line class="cls-4" x1="799.2" y1="529.92" x2="799.2" y2="501.12"/><line class="cls-4" x1="799.2" y1="529.92" x2="986.4" y2="529.92"/><line class="cls-5" x1="122.4" y1="25.92" x2="122.4" y2="573.12"/><line class="cls-5" x1="151.2" y1="25.92" x2="151.2" y2="573.12"/><line class="cls-5" x1="180" y1="25.92" x2="180" y2="573.12"/><line class="cls-5" x1="208.8" y1="25.92" x2="208.8" y2="573.12"/><line class="cls-5" x1="237.6" y1="25.92" x2="237.6" y2="573.12"/><line class="cls-5" x1="266.4" y1="25.92" x2="266.4" y2="573.12"/><line class="cls-5" x1="295.2" y1="25.92" x2="295.2" y2="573.12"/><line class="cls-5" x1="324" y1="25.92" x2="324" y2="573.12"/><line class="cls-5" x1="352.8" y1="25.92" x2="352.8" y2="573.12"/><line class="cls-5" x1="381.6" y1="25.92" x2="381.6" y2="573.12"/><line class="cls-5" x1="410.4" y1="25.92" x2="410.4" y2="573.12"/><line class="cls-5" x1="439.2" y1="25.92" x2="439.2" y2="573.12"/><line class="cls-5" x1="468" y1="25.92" x2="468" y2="573.12"/><line class="cls-5" x1="496.8" y1="25.92" x2="496.8" y2="573.12"/><line class="cls-5" x1="525.6" y1="25.92" x2="525.6" y2="573.12"/><line class="cls-5" x1="554.4" y1="25.92" x2="554.4" y2="573.12"/><line class="cls-5" x1="583.2" y1="25.92" x2="583.2" y2="573.12"/><line class="cls-5" x1="612" y1="25.92" x2="612" y2="573.12"/><line class="cls-5" x1="640.8" y1="25.92" x2="640.8" y2="573.12"/><line class="cls-4" x1="583.2" y1="241.92" x2="612" y2="241.92"/><line class="cls-4" x1="583.2" y1="270.72" x2="583.2" y2="241.92"/><line class="cls-4" x1="612" y1="270.72" x2="612" y2="241.92"/><line class="cls-4" x1="612" y1="285.12" x2="640.8" y2="285.12"/><line class="cls-4" x1="612" y1="313.92" x2="612" y2="285.12"/><line class="cls-4" x1="640.8" y1="313.92" x2="640.8" y2="285.12"/><line class="cls-4" x1="698.4" y1="54.72" x2="756" y2="54.72"/><line class="cls-4" x1="698.4" y1="69.12" x2="727.2" y2="69.12"/><line class="cls-4" x1="698.4" y1="97.92" x2="698.4" y2="69.12"/><line class="cls-4" x1="727.2" y1="97.92" x2="727.2" y2="69.12"/><line class="cls-4" x1="727.2" y1="112.32" x2="756" y2="112.32"/><line class="cls-4" x1="727.2" y1="141.12" x2="727.2" y2="112.32"/><line class="cls-4" x1="756" y1="141.12" x2="756" y2="112.32"/><line class="cls-4" x1="756" y1="25.92" x2="813.6" y2="25.92"/><line class="cls-4" x1="756" y1="54.72" x2="756" y2="25.92"/><line class="cls-4" x1="813.6" y1="54.72" x2="813.6" y2="25.92"/><line class="cls-4" x1="813.6" y1="54.72" x2="986.4" y2="54.72"/><line class="cls-4" x1="813.6" y1="69.12" x2="842.4" y2="69.12"/><line class="cls-4" x1="813.6" y1="97.92" x2="813.6" y2="69.12"/><line class="cls-4" x1="842.4" y1="97.92" x2="842.4" y2="69.12"/><line class="cls-4" x1="842.4" y1="97.92" x2="986.4" y2="97.92"/><line class="cls-4" x1="842.4" y1="112.32" x2="871.2" y2="112.32"/><line class="cls-4" x1="842.4" y1="141.12" x2="842.4" y2="112.32"/><line class="cls-4" x1="871.2" y1="141.12" x2="871.2" y2="112.32"/><line class="cls-4" x1="871.2" y1="141.12" x2="986.4" y2="141.12"/><line class="cls-4" x1="871.2" y1="155.52" x2="900" y2="155.52"/><line class="cls-4" x1="871.2" y1="184.32" x2="871.2" y2="155.52"/><line class="cls-4" x1="900" y1="184.32" x2="900" y2="155.52"/><line class="cls-4" x1="900" y1="184.32" x2="986.4" y2="184.32"/><line class="cls-4" x1="900" y1="198.72" x2="928.8" y2="198.72"/><line class="cls-4" x1="900" y1="227.52" x2="900" y2="198.72"/><line class="cls-4" x1="928.8" y1="227.52" x2="928.8" y2="198.72"/><line class="cls-4" x1="928.8" y1="227.52" x2="986.4" y2="227.52"/><line class="cls-4" x1="986.4" y1="357.12" x2="669.6" y2="357.12"/><line class="cls-4" x1="957.6" y1="313.92" x2="640.8" y2="313.92"/><line class="cls-4" x1="928.8" y1="270.72" x2="612" y2="270.72"/><line class="cls-4" x1="900" y1="227.52" x2="583.2" y2="227.52"/><line class="cls-4" x1="871.2" y1="184.32" x2="554.4" y2="184.32"/><line class="cls-4" x1="727.2" y1="141.12" x2="525.6" y2="141.12"/><line class="cls-4" x1="698.4" y1="97.92" x2="410.4" y2="97.92"/><line class="cls-5" x1="640.8" y1="25.92" x2="640.8" y2="573.12"/><line class="cls-5" x1="669.6" y1="25.92" x2="669.6" y2="573.12"/><line class="cls-5" x1="698.4" y1="25.92" x2="698.4" y2="573.12"/><line class="cls-5" x1="727.2" y1="25.92" x2="727.2" y2="573.12"/><line class="cls-5" x1="756" y1="25.92" x2="756" y2="573.12"/><line class="cls-5" x1="784.8" y1="25.92" x2="784.8" y2="573.12"/><line class="cls-5" x1="813.6" y1="25.92" x2="813.6" y2="573.12"/><line class="cls-5" x1="842.4" y1="25.92" x2="842.4" y2="573.12"/><line class="cls-4" x1="669.6" y1="54.72" x2="669.6" y2="25.92"/><line class="cls-4" x1="525.6" y1="155.52" x2="554.4" y2="155.52"/><line class="cls-4" x1="525.6" y1="184.32" x2="525.6" y2="155.52"/><line class="cls-4" x1="554.4" y1="184.32" x2="554.4" y2="155.52"/><line class="cls-4" x1="727.2" y1="97.92" x2="813.6" y2="97.92"/><line class="cls-4" x1="756" y1="141.12" x2="842.4" y2="141.12"/><line class="cls-5" x1="871.2" y1="25.92" x2="871.2" y2="573.12"/><line class="cls-4" x1="885.6" y1="443.52" x2="900" y2="443.52"/><line class="cls-4" x1="900" y1="414.72" x2="914.4" y2="414.72"/><line class="cls-4" x1="900" y1="443.52" x2="900" y2="414.72"/><line class="cls-4" x1="914.4" y1="443.52" x2="914.4" y2="414.72"/><line class="cls-4" x1="914.4" y1="443.52" x2="928.8" y2="443.52"/><line class="cls-4" x1="928.8" y1="414.72" x2="943.2" y2="414.72"/><line class="cls-4" x1="928.8" y1="443.52" x2="928.8" y2="414.72"/><line class="cls-4" x1="943.2" y1="443.52" x2="943.2" y2="414.72"/><line class="cls-4" x1="943.2" y1="443.52" x2="957.6" y2="443.52"/><line class="cls-4" x1="957.6" y1="414.72" x2="972" y2="414.72"/><line class="cls-4" x1="957.6" y1="443.52" x2="957.6" y2="414.72"/><line class="cls-4" x1="972" y1="443.52" x2="972" y2="414.72"/><line class="cls-4" x1="865.44" y1="270.72" x2="928.8" y2="270.72"/><line class="cls-5" x1="900" y1="25.92" x2="900" y2="573.12"/><line class="cls-5" x1="928.8" y1="25.92" x2="928.8" y2="573.12"/><line class="cls-5" x1="957.6" y1="25.92" x2="957.6" y2="573.12"/><line class="cls-4" x1="928.8" y1="241.92" x2="957.6" y2="241.92"/><line class="cls-4" x1="928.8" y1="270.72" x2="928.8" y2="241.92"/><line class="cls-4" x1="957.6" y1="270.72" x2="957.6" y2="241.92"/><line class="cls-4" x1="957.6" y1="285.12" x2="986.4" y2="285.12"/><line class="cls-4" x1="957.6" y1="313.92" x2="957.6" y2="285.12"/><line class="cls-4" x1="986.4" y1="313.92" x2="986.4" y2="285.12"/><line class="cls-5" x1="957.6" y1="25.92" x2="957.6" y2="573.12"/><line class="cls-4" x1="972" y1="443.52" x2="986.4" y2="443.52"/><line class="cls-4" x1="957.6" y1="270.72" x2="986.4" y2="270.72"/><line class="cls-5" x1="986.4" y1="25.92" x2="122.4" y2="25.92"/><line class="cls-5" x1="986.4" y1="69.12" x2="122.4" y2="69.12"/><line class="cls-5" x1="986.4" y1="112.32" x2="122.4" y2="112.32"/><line class="cls-5" x1="986.4" y1="155.52" x2="122.4" y2="155.52"/><line class="cls-5" x1="986.4" y1="198.72" x2="122.4" y2="198.72"/><line class="cls-5" x1="986.4" y1="241.92" x2="122.4" y2="241.92"/><line class="cls-5" x1="986.4" y1="285.12" x2="122.4" y2="285.12"/><line class="cls-5" x1="986.4" y1="328.32" x2="122.4" y2="328.32"/><line class="cls-5" x1="986.4" y1="414.72" x2="122.4" y2="414.72"/><line class="cls-5" x1="986.4" y1="457.92" x2="122.4" y2="457.92"/><line class="cls-5" x1="986.4" y1="501.12" x2="122.4" y2="501.12"/><line class="cls-5" x1="986.4" y1="54.72" x2="122.4" y2="54.72"/><line class="cls-5" x1="986.4" y1="97.92" x2="122.4" y2="97.92"/><line class="cls-5" x1="986.4" y1="141.12" x2="122.4" y2="141.12"/><line class="cls-5" x1="986.4" y1="184.32" x2="122.4" y2="184.32"/><line class="cls-5" x1="986.4" y1="227.52" x2="122.4" y2="227.52"/><line class="cls-5" x1="986.4" y1="270.72" x2="122.4" y2="270.72"/><line class="cls-5" x1="986.4" y1="313.92" x2="122.4" y2="313.92"/><line class="cls-5" x1="986.4" y1="357.12" x2="122.4" y2="357.12"/><line class="cls-5" x1="986.4" y1="443.52" x2="122.4" y2="443.52"/><line class="cls-5" x1="986.4" y1="486.72" x2="122.4" y2="486.72"/><line class="cls-5" x1="986.4" y1="529.92" x2="122.4" y2="529.92"/><line class="cls-5" x1="986.4" y1="25.92" x2="986.4" y2="573.12"/><line class="cls-5" x1="986.4" y1="25.92" x2="986.4" y2="573.12"/><line class="cls-4" x1="122.4" y1="544.32" x2="237.6" y2="544.32"/><line class="cls-5" x1="986.4" y1="544.32" x2="122.4" y2="544.32"/><line class="cls-5" x1="986.4" y1="573.12" x2="122.4" y2="573.12"/><line class="cls-4" x1="237.6" y1="573.12" x2="237.6" y2="544.32"/><line class="cls-4" x1="352.8" y1="573.12" x2="352.8" y2="544.32"/><line class="cls-4" x1="237.6" y1="573.12" x2="352.8" y2="573.12"/><line class="cls-4" x1="352.8" y1="544.32" x2="468" y2="544.32"/><line class="cls-4" x1="468" y1="573.12" x2="468" y2="544.32"/><line class="cls-4" x1="583.2" y1="573.12" x2="583.2" y2="544.32"/><line class="cls-4" x1="468" y1="573.12" x2="583.2" y2="573.12"/><line class="cls-4" x1="698.4" y1="573.12" x2="698.4" y2="544.32"/><line class="cls-4" x1="583.2" y1="544.32" x2="698.4" y2="544.32"/><line class="cls-4" x1="813.6" y1="573.12" x2="813.6" y2="544.32"/><line class="cls-4" x1="928.8" y1="573.12" x2="928.8" y2="544.32"/><line class="cls-4" x1="813.6" y1="544.32" x2="928.8" y2="544.32"/><line class="cls-4" x1="698.4" y1="573.12" x2="813.6" y2="573.12"/><line class="cls-4" x1="928.8" y1="573.12" x2="986.4" y2="573.12"/></g></svg>