<?xml version="1.0" encoding="UTF-8"?>
<svg xmlns="http://www.w3.org/2000/svg" viewBox="0 0 1080 600.48">
  <defs>
    <style>
      .cls-1 {
        stroke-width: 2.83px;
      }

      .cls-1, .cls-2, .cls-3, .cls-4, .cls-5, .cls-6 {
        fill: none;
        stroke: #0D1117;
      }

      .cls-2 {
        stroke-width: 1.63px;0D1117
      }

      .cls-2, .cls-4, .cls-6 {
        stroke-miterlimit: 10;
      }

      .cls-7 {
        fill: #0D1117;
      }

      .cls-3, .cls-6 {
        stroke-width: 1px;
      }

      .cls-4 {
        stroke-width: 1.42px;
      }
    </style>
  </defs>
  <g id="rendered">
    <g>
      <path class="cls-7" d="m743.16,130.36c-.43.62-1.04,1.09-1.82,1.39s-1.68.46-2.71.46-1.97-.24-2.78-.73-1.43-1.19-1.88-2.09-.67-1.95-.68-3.14v-1.12c0-1.93.45-3.42,1.35-4.48s2.16-1.59,3.79-1.59c1.34,0,2.41.34,3.23,1.02s1.31,1.65,1.49,2.9h-1.69c-.32-1.7-1.32-2.55-3.02-2.55-1.13,0-1.99.4-2.57,1.19-.58.79-.88,1.95-.88,3.45v1.05c0,1.44.33,2.58.98,3.43.66.85,1.54,1.27,2.66,1.27.63,0,1.19-.07,1.66-.21.47-.14.87-.38,1.18-.71v-2.87h-2.96v-1.38h4.64v4.69Z"/>
      <path class="cls-7" d="m750.32,123.99c-.25-.04-.51-.06-.8-.06-1.07,0-1.79.45-2.17,1.36v6.75h-1.63v-9.51h1.58l.03,1.1c.53-.85,1.29-1.27,2.27-1.27.32,0,.56.04.72.12v1.51Z"/>
      <path class="cls-7" d="m751.2,127.2c0-.93.18-1.77.55-2.51s.88-1.32,1.53-1.72,1.4-.61,2.24-.61c1.29,0,2.34.45,3.14,1.34s1.2,2.09,1.2,3.58v.11c0,.93-.18,1.76-.53,2.49s-.86,1.31-1.52,1.72-1.42.62-2.27.62c-1.29,0-2.33-.45-3.13-1.34s-1.2-2.08-1.2-3.56v-.11Zm1.63.19c0,1.05.24,1.9.73,2.54s1.14.96,1.96.96,1.48-.32,1.97-.97.73-1.55.73-2.72c0-1.04-.25-1.89-.74-2.54s-1.15-.97-1.97-.97-1.45.32-1.94.96-.74,1.55-.74,2.74Z"/>
      <path class="cls-7" d="m767.77,131.1c-.63.74-1.56,1.12-2.79,1.12-1.01,0-1.79-.29-2.32-.88s-.8-1.46-.8-2.61v-6.19h1.63v6.14c0,1.44.59,2.16,1.76,2.16,1.24,0,2.07-.46,2.48-1.39v-6.92h1.63v9.51h-1.55l-.04-.94Z"/>
      <path class="cls-7" d="m773.36,122.53l.05,1.2c.73-.91,1.68-1.37,2.85-1.37,2.01,0,3.02,1.13,3.04,3.4v6.28h-1.63v-6.29c0-.69-.16-1.19-.47-1.52s-.79-.49-1.44-.49c-.53,0-.99.14-1.39.42s-.71.65-.93,1.11v6.78h-1.63v-9.51h1.54Z"/>
      <path class="cls-7" d="m781.36,127.2c0-1.46.35-2.63,1.04-3.52s1.6-1.33,2.72-1.33,2,.38,2.65,1.14v-4.96h1.63v13.5h-1.49l-.08-1.02c-.65.8-1.56,1.2-2.72,1.2s-2-.45-2.69-1.35-1.04-2.08-1.04-3.53v-.12Zm1.63.18c0,1.08.22,1.92.67,2.53s1.06.91,1.85.91c1.03,0,1.78-.46,2.26-1.39v-4.37c-.49-.9-1.23-1.34-2.24-1.34-.8,0-1.42.31-1.86.92s-.67,1.53-.67,2.73Z"/>
      <path class="cls-7" d="m796.3,126.84c0-1.32.18-2.6.53-3.81s.88-2.33,1.59-3.32,1.43-1.7,2.19-2.11l.33,1.07c-.86.66-1.56,1.66-2.11,3.01s-.85,2.86-.9,4.53v.75c0,2.26.4,4.22,1.23,5.89.5,1,1.09,1.78,1.78,2.34l-.33.99c-.78-.43-1.52-1.16-2.23-2.18-1.38-1.99-2.07-4.37-2.07-7.15Z"/>
      <path class="cls-7" d="m812.22,130.36c-.43.62-1.04,1.09-1.82,1.39s-1.68.46-2.71.46-1.97-.24-2.78-.73-1.43-1.19-1.88-2.09-.67-1.95-.68-3.14v-1.12c0-1.93.45-3.42,1.35-4.48s2.16-1.59,3.79-1.59c1.34,0,2.41.34,3.23,1.02s1.31,1.65,1.49,2.9h-1.69c-.32-1.7-1.32-2.55-3.02-2.55-1.13,0-1.99.4-2.57,1.19-.58.79-.88,1.95-.88,3.45v1.05c0,1.44.33,2.58.98,3.43.66.85,1.54,1.27,2.66,1.27.63,0,1.19-.07,1.66-.21.47-.14.87-.38,1.18-.71v-2.87h-2.96v-1.38h4.64v4.69Z"/>
      <path class="cls-7" d="m824.86,132.04h-1.7l-6.44-9.86v9.86h-1.7v-12.8h1.7l6.46,9.91v-9.91h1.68v12.8Z"/>
      <path class="cls-7" d="m827.86,132.04v-12.8h3.61c1.11,0,2.1.25,2.95.74s1.52,1.19,1.98,2.1.7,1.95.71,3.13v.82c0,1.21-.23,2.26-.7,3.17s-1.13,1.61-2,2.09-1.87.74-3.02.75h-3.54Zm1.69-11.42v10.04h1.78c1.3,0,2.31-.4,3.04-1.21s1.09-1.96,1.09-3.46v-.75c0-1.45-.34-2.58-1.02-3.39-.68-.81-1.65-1.22-2.9-1.23h-1.97Z"/>
      <path class="cls-7" d="m843.16,126.93c0,1.31-.17,2.56-.51,3.76s-.87,2.3-1.57,3.32-1.45,1.73-2.22,2.16l-.34-.99c.9-.69,1.63-1.77,2.17-3.22s.83-3.07.84-4.85v-.28c0-1.23-.13-2.37-.39-3.43s-.62-2.01-1.08-2.84-.98-1.49-1.55-1.96l.34-.99c.77.43,1.51,1.14,2.21,2.14s1.22,2.11,1.57,3.31.52,2.5.52,3.88Z"/>
    </g>
    <g>
      <path class="cls-7" d="m742.09,535.74h6.06v1.38h-7.76v-12.8h1.7v11.42Z"/>
      <path class="cls-7" d="m749.39,532.28c0-.93.18-1.77.55-2.51s.88-1.32,1.53-1.72,1.4-.61,2.24-.61c1.29,0,2.34.45,3.14,1.34s1.2,2.09,1.2,3.58v.11c0,.93-.18,1.76-.53,2.49s-.86,1.31-1.52,1.72-1.42.62-2.27.62c-1.29,0-2.33-.45-3.13-1.34s-1.2-2.08-1.2-3.56v-.11Zm1.63.19c0,1.05.24,1.9.73,2.54s1.14.96,1.96.96,1.48-.32,1.97-.97.73-1.55.73-2.72c0-1.04-.25-1.89-.74-2.54s-1.15-.97-1.97-.97-1.45.32-1.94.96-.74,1.55-.74,2.74Z"/>
      <path class="cls-7" d="m765.96,536.18c-.63.74-1.56,1.12-2.79,1.12-1.01,0-1.79-.29-2.32-.88s-.8-1.46-.8-2.61v-6.19h1.63v6.14c0,1.44.59,2.16,1.76,2.16,1.24,0,2.07-.46,2.48-1.39v-6.92h1.63v9.51h-1.55l-.04-.94Z"/>
      <path class="cls-7" d="m769.62,532.29c0-1.46.35-2.63,1.04-3.52s1.6-1.33,2.72-1.33,2,.38,2.65,1.14v-4.96h1.63v13.5h-1.49l-.08-1.02c-.65.8-1.56,1.2-2.72,1.2s-2-.45-2.69-1.35-1.04-2.08-1.04-3.53v-.12Zm1.63.18c0,1.08.22,1.92.67,2.53s1.06.91,1.85.91c1.03,0,1.78-.46,2.26-1.39v-4.37c-.49-.9-1.23-1.34-2.24-1.34-.8,0-1.42.31-1.86.92s-.67,1.53-.67,2.73Z"/>
      <path class="cls-7" d="m785.7,534.6c0-.44-.17-.78-.5-1.02s-.91-.45-1.73-.63-1.48-.39-1.96-.63-.84-.54-1.07-.88-.35-.74-.35-1.21c0-.78.33-1.44.99-1.98s1.5-.81,2.53-.81c1.08,0,1.95.28,2.62.83s1.01,1.27,1.01,2.14h-1.63c0-.45-.19-.83-.57-1.15s-.85-.48-1.43-.48-1.05.13-1.39.39-.5.59-.5,1.01c0,.39.16.69.47.89s.87.39,1.68.57,1.47.4,1.97.65.88.55,1.12.91.37.79.37,1.3c0,.85-.34,1.53-1.02,2.04s-1.56.77-2.65.77c-.76,0-1.44-.13-2.02-.4s-1.04-.65-1.38-1.13-.5-1.01-.5-1.57h1.63c.03.54.25.98.65,1.3s.95.48,1.61.48c.62,0,1.11-.12,1.48-.37s.56-.58.56-1Z"/>
      <path class="cls-7" d="m797.48,532.47c0,1.45-.33,2.61-.99,3.5s-1.56,1.33-2.69,1.33-2.06-.37-2.72-1.1v4.58h-1.63v-13.17h1.49l.08,1.05c.66-.82,1.58-1.23,2.76-1.23s2.05.43,2.71,1.29,1,2.06,1,3.59v.15Zm-1.63-.18c0-1.07-.23-1.92-.69-2.54s-1.08-.93-1.88-.93c-.98,0-1.72.44-2.21,1.31v4.54c.49.87,1.23,1.3,2.23,1.3.78,0,1.4-.31,1.86-.93s.69-1.54.69-2.75Z"/>
      <path class="cls-7" d="m803.49,537.3c-1.29,0-2.34-.42-3.15-1.27s-1.21-1.98-1.21-3.4v-.3c0-.94.18-1.79.54-2.53s.86-1.32,1.51-1.74,1.35-.63,2.11-.63c1.24,0,2.2.41,2.88,1.22s1.03,1.98,1.03,3.5v.68h-6.44c.02.94.3,1.69.82,2.27s1.19.87,2,.87c.57,0,1.06-.12,1.46-.35s.75-.54,1.05-.93l.99.77c-.8,1.22-1.99,1.84-3.59,1.84Zm-.2-8.53c-.66,0-1.21.24-1.65.72s-.72,1.15-.83,2.01h4.76v-.12c-.05-.83-.27-1.47-.67-1.92s-.94-.68-1.62-.68Z"/>
      <path class="cls-7" d="m814.95,537.12c-.09-.19-.17-.52-.23-1-.76.79-1.66,1.18-2.71,1.18-.94,0-1.71-.27-2.31-.8s-.9-1.2-.9-2.02c0-.99.38-1.76,1.13-2.31s1.81-.82,3.18-.82h1.58v-.75c0-.57-.17-1.02-.51-1.36s-.84-.5-1.5-.5c-.58,0-1.07.15-1.46.44s-.59.65-.59,1.06h-1.63c0-.47.17-.93.5-1.38s.79-.79,1.37-1.05,1.21-.39,1.9-.39c1.1,0,1.95.27,2.58.82s.94,1.3.97,2.26v4.38c0,.87.11,1.57.33,2.08v.14h-1.71Zm-2.7-1.24c.51,0,.99-.13,1.45-.4s.79-.61.99-1.03v-1.95h-1.27c-1.99,0-2.99.58-2.99,1.75,0,.51.17.91.51,1.2s.78.43,1.31.43Z"/>
      <path class="cls-7" d="m821.52,532.72l-1.02,1.06v3.34h-1.63v-13.5h1.63v8.17l.87-1.05,2.96-3.13h1.98l-3.7,3.97,4.13,5.54h-1.91l-3.31-4.4Z"/>
      <path class="cls-7" d="m831.76,537.3c-1.29,0-2.34-.42-3.15-1.27s-1.21-1.98-1.21-3.4v-.3c0-.94.18-1.79.54-2.53s.86-1.32,1.51-1.74,1.35-.63,2.11-.63c1.24,0,2.2.41,2.88,1.22s1.03,1.98,1.03,3.5v.68h-6.44c.02.94.3,1.69.82,2.27s1.19.87,2,.87c.57,0,1.06-.12,1.46-.35s.75-.54,1.05-.93l.99.77c-.8,1.22-1.99,1.84-3.59,1.84Zm-.2-8.53c-.66,0-1.21.24-1.65.72s-.72,1.15-.83,2.01h4.76v-.12c-.05-.83-.27-1.47-.67-1.92s-.94-.68-1.62-.68Z"/>
      <path class="cls-7" d="m841.95,529.07c-.25-.04-.51-.06-.8-.06-1.07,0-1.79.45-2.17,1.36v6.75h-1.63v-9.51h1.58l.03,1.1c.53-.85,1.29-1.27,2.27-1.27.32,0,.56.04.72.12v1.51Z"/>
    </g>
    <g>
      <path class="cls-7" d="m921.92,132.04v-12.8h4.18c1.39,0,2.43.29,3.13.86s1.05,1.42,1.05,2.55c0,.6-.17,1.13-.51,1.59s-.8.82-1.39,1.07c.69.19,1.24.56,1.64,1.1s.6,1.19.6,1.94c0,1.15-.37,2.05-1.12,2.71s-1.8.98-3.16.98h-4.44Zm1.69-7.34h2.55c.74,0,1.33-.19,1.77-.55.44-.37.66-.87.66-1.51,0-.7-.21-1.22-.62-1.54-.41-.32-1.03-.48-1.87-.48h-2.5v4.08Zm0,1.35v4.61h2.79c.79,0,1.4-.2,1.86-.61s.68-.97.68-1.68c0-1.54-.84-2.31-2.51-2.31h-2.81Z"/>
      <path class="cls-7" d="m938.74,132.04c-.09-.19-.17-.52-.23-1-.76.79-1.66,1.18-2.71,1.18-.94,0-1.71-.27-2.31-.8s-.9-1.2-.9-2.02c0-.99.38-1.76,1.13-2.31s1.81-.82,3.18-.82h1.58v-.75c0-.57-.17-1.02-.51-1.36s-.84-.51-1.5-.51c-.58,0-1.07.15-1.46.44s-.59.65-.59,1.06h-1.63c0-.47.17-.93.5-1.38s.79-.79,1.37-1.05,1.21-.39,1.9-.39c1.1,0,1.95.27,2.58.82s.94,1.3.97,2.26v4.38c0,.87.11,1.57.33,2.08v.14h-1.71Zm-2.7-1.24c.51,0,.99-.13,1.45-.4s.79-.61.99-1.03v-1.95h-1.27c-1.99,0-2.99.58-2.99,1.75,0,.51.17.91.51,1.2s.78.43,1.31.43Z"/>
      <path class="cls-7" d="m944.87,120.23v2.3h1.78v1.26h-1.78v5.9c0,.38.08.67.24.86.16.19.43.29.81.29.19,0,.45-.04.77-.11v1.31c-.43.12-.84.17-1.25.17-.73,0-1.27-.22-1.64-.66s-.55-1.06-.55-1.87v-5.9h-1.73v-1.26h1.73v-2.3h1.63Z"/>
      <path class="cls-7" d="m950.74,120.23v2.3h1.78v1.26h-1.78v5.9c0,.38.08.67.24.86.16.19.43.29.81.29.19,0,.45-.04.77-.11v1.31c-.43.12-.84.17-1.25.17-.73,0-1.27-.22-1.64-.66s-.55-1.06-.55-1.87v-5.9h-1.73v-1.26h1.73v-2.3h1.63Z"/>
      <path class="cls-7" d="m958.37,132.21c-1.29,0-2.34-.42-3.15-1.27s-1.21-1.98-1.21-3.4v-.3c0-.94.18-1.79.54-2.53s.86-1.32,1.51-1.74,1.35-.63,2.11-.63c1.24,0,2.2.41,2.88,1.22s1.03,1.98,1.03,3.5v.68h-6.44c.02.94.3,1.69.82,2.27s1.19.87,2,.87c.57,0,1.06-.12,1.46-.35s.75-.54,1.05-.93l.99.77c-.8,1.22-1.99,1.84-3.59,1.84Zm-.2-8.53c-.66,0-1.21.24-1.65.72s-.72,1.15-.83,2.01h4.76v-.12c-.05-.83-.27-1.47-.67-1.92s-.94-.68-1.62-.68Z"/>
      <path class="cls-7" d="m968.55,123.99c-.25-.04-.51-.06-.8-.06-1.07,0-1.79.45-2.17,1.36v6.75h-1.63v-9.51h1.58l.03,1.1c.53-.85,1.29-1.27,2.27-1.27.32,0,.56.04.72.12v1.51Z"/>
      <path class="cls-7" d="m973.32,129.66l2.21-7.13h1.74l-3.82,10.98c-.59,1.58-1.53,2.37-2.82,2.37l-.31-.03-.61-.11v-1.32l.44.04c.55,0,.98-.11,1.29-.33s.56-.63.76-1.22l.36-.97-3.39-9.4h1.78l2.37,7.13Z"/>
    </g>
    <g>
      <path class="cls-7" d="m421.31,128l.25,1.69.36-1.52,2.53-8.93h1.42l2.47,8.93.35,1.55.27-1.72,1.99-8.75h1.7l-3.1,12.8h-1.54l-2.64-9.33-.2-.98-.2.98-2.73,9.33h-1.54l-3.09-12.8h1.69l2.02,8.76Z"/>
      <path class="cls-7" d="m434.28,120.01c0-.26.08-.49.24-.67s.4-.27.72-.27.56.09.72.27.25.4.25.67-.08.48-.25.66-.4.26-.72.26-.56-.09-.72-.26-.24-.4-.24-.66Zm1.76,12.03h-1.63v-9.51h1.63v9.51Z"/>
      <path class="cls-7" d="m443.23,123.99c-.25-.04-.51-.06-.8-.06-1.07,0-1.79.45-2.17,1.36v6.75h-1.63v-9.51h1.58l.03,1.1c.53-.85,1.29-1.27,2.27-1.27.32,0,.56.04.72.12v1.51Z"/>
      <path class="cls-7" d="m448.5,132.21c-1.29,0-2.34-.42-3.15-1.27s-1.21-1.98-1.21-3.4v-.3c0-.94.18-1.79.54-2.53s.86-1.32,1.51-1.74,1.35-.63,2.1-.63c1.24,0,2.2.41,2.88,1.22s1.03,1.98,1.03,3.5v.68h-6.44c.02.94.3,1.69.82,2.27s1.19.87,2,.87c.57,0,1.06-.12,1.46-.35s.75-.54,1.05-.93l.99.77c-.8,1.22-1.99,1.84-3.59,1.84Zm-.2-8.53c-.66,0-1.21.24-1.65.72s-.72,1.15-.83,2.01h4.76v-.12c-.05-.83-.27-1.47-.67-1.92s-.94-.68-1.62-.68Z"/>
      <path class="cls-7" d="m459.63,129.52c0-.44-.17-.78-.5-1.02s-.91-.45-1.73-.63-1.48-.39-1.96-.63-.84-.54-1.07-.88-.35-.74-.35-1.21c0-.78.33-1.44.99-1.98s1.5-.81,2.53-.81c1.08,0,1.95.28,2.62.83s1.01,1.27,1.01,2.14h-1.63c0-.45-.19-.83-.57-1.15s-.85-.48-1.43-.48-1.05.13-1.39.39-.5.59-.5,1.01c0,.39.16.69.47.89s.87.39,1.68.57,1.47.4,1.97.65.88.56,1.12.91.36.79.36,1.3c0,.85-.34,1.53-1.02,2.04s-1.56.77-2.65.77c-.76,0-1.44-.13-2.02-.4s-1.04-.65-1.38-1.13-.5-1.01-.5-1.57h1.63c.03.54.25.98.65,1.3s.94.48,1.61.48c.62,0,1.11-.12,1.48-.37s.56-.58.56-1Z"/>
      <path class="cls-7" d="m471.65,130.89c.58,0,1.09-.18,1.52-.53s.67-.79.72-1.32h1.54c-.03.54-.22,1.06-.56,1.56s-.81.88-1.38,1.18c-.58.29-1.19.44-1.83.44-1.29,0-2.32-.43-3.09-1.3s-1.15-2.05-1.15-3.55v-.27c0-.93.17-1.75.51-2.47s.83-1.28,1.46-1.68,1.39-.6,2.25-.6c1.07,0,1.95.32,2.66.96s1.08,1.47,1.13,2.49h-1.54c-.05-.62-.28-1.12-.7-1.52-.42-.4-.94-.59-1.55-.59-.83,0-1.47.3-1.92.89s-.68,1.45-.68,2.58v.31c0,1.1.23,1.94.68,2.53s1.1.89,1.93.89Z"/>
      <path class="cls-7" d="m481.85,123.99c-.25-.04-.51-.06-.8-.06-1.07,0-1.79.45-2.17,1.36v6.75h-1.63v-9.51h1.58l.03,1.1c.53-.85,1.29-1.27,2.27-1.27.32,0,.56.04.72.12v1.51Z"/>
      <path class="cls-7" d="m482.74,127.2c0-.93.18-1.77.55-2.51s.88-1.32,1.53-1.72,1.4-.61,2.24-.61c1.29,0,2.34.45,3.14,1.34s1.2,2.09,1.2,3.58v.11c0,.93-.18,1.76-.53,2.49s-.86,1.31-1.52,1.72-1.42.62-2.27.62c-1.29,0-2.33-.45-3.13-1.34s-1.2-2.08-1.2-3.56v-.11Zm1.63.19c0,1.05.24,1.9.73,2.54s1.14.96,1.96.96,1.48-.32,1.97-.97.73-1.55.73-2.72c0-1.04-.25-1.89-.74-2.54s-1.15-.97-1.97-.97-1.45.32-1.94.96-.74,1.55-.74,2.74Z"/>
      <path class="cls-7" d="m498.97,129.52c0-.44-.17-.78-.5-1.02s-.91-.45-1.73-.63-1.48-.39-1.96-.63-.84-.54-1.07-.88-.35-.74-.35-1.21c0-.78.33-1.44.99-1.98s1.5-.81,2.53-.81c1.08,0,1.95.28,2.62.83s1.01,1.27,1.01,2.14h-1.63c0-.45-.19-.83-.57-1.15s-.85-.48-1.43-.48-1.05.13-1.39.39-.5.59-.5,1.01c0,.39.16.69.47.89s.87.39,1.68.57,1.47.4,1.97.65.88.56,1.12.91.37.79.37,1.3c0,.85-.34,1.53-1.02,2.04s-1.56.77-2.65.77c-.76,0-1.44-.13-2.02-.4s-1.04-.65-1.38-1.13-.5-1.01-.5-1.57h1.63c.03.54.25.98.65,1.3s.95.48,1.61.48c.62,0,1.11-.12,1.48-.37s.56-.58.56-1Z"/>
      <path class="cls-7" d="m508.25,129.52c0-.44-.17-.78-.5-1.02s-.91-.45-1.73-.63-1.48-.39-1.96-.63-.84-.54-1.07-.88-.35-.74-.35-1.21c0-.78.33-1.44.99-1.98s1.5-.81,2.53-.81c1.08,0,1.95.28,2.62.83s1.01,1.27,1.01,2.14h-1.63c0-.45-.19-.83-.57-1.15s-.85-.48-1.43-.48-1.05.13-1.39.39-.5.59-.5,1.01c0,.39.16.69.47.89s.87.39,1.68.57,1.47.4,1.97.65.88.56,1.12.91.37.79.37,1.3c0,.85-.34,1.53-1.02,2.04s-1.56.77-2.65.77c-.76,0-1.44-.13-2.02-.4s-1.04-.65-1.38-1.13-.5-1.01-.5-1.57h1.63c.03.54.25.98.65,1.3s.95.48,1.61.48c.62,0,1.11-.12,1.48-.37s.56-.58.56-1Z"/>
      <path class="cls-7" d="m515.94,132.21c-1.29,0-2.34-.42-3.15-1.27s-1.21-1.98-1.21-3.4v-.3c0-.94.18-1.79.54-2.53s.86-1.32,1.51-1.74,1.35-.63,2.11-.63c1.24,0,2.2.41,2.88,1.22s1.03,1.98,1.03,3.5v.68h-6.44c.02.94.3,1.69.82,2.27s1.19.87,2,.87c.57,0,1.06-.12,1.46-.35s.75-.54,1.05-.93l.99.77c-.8,1.22-1.99,1.84-3.59,1.84Zm-.2-8.53c-.66,0-1.21.24-1.65.72s-.72,1.15-.83,2.01h4.76v-.12c-.05-.83-.27-1.47-.67-1.92s-.94-.68-1.62-.68Z"/>
      <path class="cls-7" d="m521.14,127.2c0-1.46.35-2.63,1.04-3.52s1.6-1.33,2.72-1.33,2,.38,2.65,1.14v-4.96h1.63v13.5h-1.49l-.08-1.02c-.65.8-1.56,1.2-2.72,1.2s-2-.45-2.69-1.35-1.04-2.08-1.04-3.53v-.12Zm1.63.18c0,1.08.22,1.92.67,2.53s1.06.91,1.85.91c1.03,0,1.78-.46,2.26-1.39v-4.37c-.49-.9-1.23-1.34-2.24-1.34-.8,0-1.42.31-1.86.92s-.67,1.53-.67,2.73Z"/>
      <path class="cls-7" d="m422.45,151.4l1.83-7.27h1.63l-2.77,9.51h-1.32l-2.31-7.21-2.25,7.21h-1.32l-2.76-9.51h1.62l1.87,7.12,2.21-7.12h1.31l2.26,7.27Z"/>
      <path class="cls-7" d="m427.56,141.61c0-.26.08-.49.24-.67s.4-.27.72-.27.56.09.72.27.25.4.25.67-.08.48-.25.66-.4.26-.72.26-.56-.09-.72-.26-.24-.4-.24-.66Zm1.76,12.03h-1.63v-9.51h1.63v9.51Z"/>
      <path class="cls-7" d="m434.13,141.83v2.3h1.78v1.26h-1.78v5.9c0,.38.08.67.24.86.16.19.43.29.81.29.19,0,.45-.04.77-.11v1.31c-.43.12-.84.17-1.25.17-.73,0-1.27-.22-1.64-.66s-.55-1.06-.55-1.87v-5.9h-1.73v-1.26h1.73v-2.3h1.63Z"/>
      <path class="cls-7" d="m439.43,145.28c.72-.88,1.66-1.33,2.81-1.33,2.01,0,3.02,1.13,3.04,3.4v6.28h-1.63v-6.29c0-.69-.16-1.19-.47-1.52s-.79-.49-1.44-.49c-.53,0-.99.14-1.39.42s-.71.65-.93,1.11v6.78h-1.63v-13.5h1.63v5.14Z"/>
      <path class="cls-7" d="m447.28,148.8c0-.93.18-1.77.55-2.51s.88-1.32,1.53-1.72,1.4-.61,2.24-.61c1.29,0,2.34.45,3.14,1.34s1.2,2.09,1.2,3.58v.11c0,.93-.18,1.76-.53,2.49s-.86,1.31-1.52,1.72-1.42.62-2.27.62c-1.29,0-2.33-.45-3.13-1.34s-1.2-2.08-1.2-3.56v-.11Zm1.63.19c0,1.05.24,1.9.73,2.54s1.14.96,1.96.96,1.48-.32,1.97-.97.73-1.55.73-2.72c0-1.04-.25-1.89-.74-2.54s-1.15-.97-1.97-.97-1.45.32-1.94.96-.74,1.55-.74,2.74Z"/>
      <path class="cls-7" d="m463.85,152.7c-.63.74-1.56,1.12-2.79,1.12-1.01,0-1.79-.29-2.32-.88s-.8-1.46-.8-2.61v-6.19h1.63v6.14c0,1.44.59,2.16,1.76,2.16,1.24,0,2.07-.46,2.48-1.39v-6.92h1.63v9.51h-1.55l-.04-.94Z"/>
      <path class="cls-7" d="m470.11,141.83v2.3h1.78v1.26h-1.78v5.9c0,.38.08.67.24.86.16.19.43.29.81.29.19,0,.45-.04.77-.11v1.31c-.43.12-.84.17-1.25.17-.73,0-1.27-.22-1.64-.66s-.55-1.06-.55-1.87v-5.9h-1.73v-1.26h1.73v-2.3h1.63Z"/>
      <path class="cls-7" d="m479.92,144.13v10.61c0,1.83-.83,2.74-2.49,2.74-.36,0-.69-.05-.99-.16v-1.29c.19.05.43.07.74.07.36,0,.64-.1.83-.29.19-.2.29-.54.29-1.02v-10.65h1.63Zm-1.79-2.52c0-.26.08-.48.24-.66s.4-.28.71-.28.56.09.72.27.25.4.25.67-.08.48-.25.66-.4.26-.72.26-.55-.09-.71-.26-.24-.4-.24-.66Z"/>
      <path class="cls-7" d="m482.11,148.8c0-.93.18-1.77.55-2.51s.88-1.32,1.53-1.72,1.4-.61,2.24-.61c1.29,0,2.34.45,3.14,1.34s1.2,2.09,1.2,3.58v.11c0,.93-.18,1.76-.53,2.49s-.86,1.31-1.52,1.72-1.42.62-2.27.62c-1.29,0-2.33-.45-3.13-1.34s-1.2-2.08-1.2-3.56v-.11Zm1.63.19c0,1.05.24,1.9.73,2.54s1.14.96,1.96.96,1.48-.32,1.97-.97.73-1.55.73-2.72c0-1.04-.25-1.89-.74-2.54s-1.15-.97-1.97-.97-1.45.32-1.94.96-.74,1.55-.74,2.74Z"/>
      <path class="cls-7" d="m492.81,141.61c0-.26.08-.49.24-.67s.4-.27.72-.27.56.09.72.27.25.4.25.67-.08.48-.25.66-.4.26-.72.26-.56-.09-.72-.26-.24-.4-.24-.66Zm1.76,12.03h-1.63v-9.51h1.63v9.51Z"/>
      <path class="cls-7" d="m498.71,144.13l.05,1.2c.73-.91,1.68-1.37,2.85-1.37,2.01,0,3.02,1.13,3.04,3.4v6.28h-1.63v-6.29c0-.69-.16-1.19-.47-1.52s-.79-.49-1.44-.49c-.53,0-.99.14-1.39.42s-.71.65-.93,1.11v6.78h-1.63v-9.51h1.54Z"/>
      <path class="cls-7" d="m507.11,141.61c0-.26.08-.49.24-.67s.4-.27.72-.27.56.09.72.27.25.4.25.67-.08.48-.25.66-.4.26-.72.26-.56-.09-.72-.26-.24-.4-.24-.66Zm1.76,12.03h-1.63v-9.51h1.63v9.51Z"/>
      <path class="cls-7" d="m513.01,144.13l.05,1.2c.73-.91,1.68-1.37,2.85-1.37,2.01,0,3.02,1.13,3.04,3.4v6.28h-1.63v-6.29c0-.69-.16-1.19-.47-1.52s-.79-.49-1.44-.49c-.53,0-.99.14-1.39.42s-.71.65-.93,1.11v6.78h-1.63v-9.51h1.54Z"/>
      <path class="cls-7" d="m521.01,148.8c0-1.48.34-2.66,1.03-3.54s1.59-1.31,2.72-1.31,2.07.41,2.72,1.23l.08-1.05h1.49v9.28c0,1.23-.37,2.2-1.09,2.91s-1.71,1.06-2.94,1.06c-.69,0-1.36-.15-2.01-.44s-1.16-.69-1.5-1.2l.84-.98c.7.86,1.55,1.29,2.56,1.29.79,0,1.41-.22,1.85-.67s.66-1.07.66-1.88v-.82c-.65.75-1.54,1.12-2.66,1.12s-2.01-.45-2.7-1.34-1.03-2.12-1.03-3.67Zm1.63.18c0,1.07.22,1.91.66,2.53s1.05.92,1.85.92c1.03,0,1.78-.47,2.26-1.4v-4.34c-.5-.91-1.25-1.36-2.24-1.36-.79,0-1.41.31-1.85.92s-.67,1.53-.67,2.73Z"/>
    </g>
    <g>
      <path class="cls-7" d="m262.91,128l.25,1.69.36-1.52,2.53-8.93h1.42l2.47,8.93.35,1.55.27-1.72,1.99-8.75h1.7l-3.1,12.8h-1.54l-2.64-9.33-.2-.98-.2.98-2.73,9.33h-1.54l-3.09-12.8h1.69l2.02,8.76Z"/>
      <path class="cls-7" d="m275.88,120.01c0-.26.08-.49.24-.67s.4-.27.72-.27.56.09.72.27.25.4.25.67-.08.48-.25.66-.4.26-.72.26-.56-.09-.72-.26-.24-.4-.24-.66Zm1.76,12.03h-1.63v-9.51h1.63v9.51Z"/>
      <path class="cls-7" d="m284.83,123.99c-.25-.04-.51-.06-.8-.06-1.07,0-1.79.45-2.17,1.36v6.75h-1.63v-9.51h1.58l.03,1.1c.53-.85,1.29-1.27,2.27-1.27.32,0,.56.04.72.12v1.51Z"/>
      <path class="cls-7" d="m290.1,132.21c-1.29,0-2.34-.42-3.15-1.27s-1.21-1.98-1.21-3.4v-.3c0-.94.18-1.79.54-2.53s.86-1.32,1.51-1.74,1.35-.63,2.1-.63c1.24,0,2.2.41,2.88,1.22s1.03,1.98,1.03,3.5v.68h-6.44c.02.94.3,1.69.82,2.27s1.19.87,2,.87c.57,0,1.06-.12,1.46-.35s.75-.54,1.05-.93l.99.77c-.8,1.22-1.99,1.84-3.59,1.84Zm-.2-8.53c-.66,0-1.21.24-1.65.72s-.72,1.15-.83,2.01h4.76v-.12c-.05-.83-.27-1.47-.67-1.92s-.94-.68-1.62-.68Z"/>
      <path class="cls-7" d="m301.23,129.52c0-.44-.17-.78-.5-1.02s-.91-.45-1.73-.63-1.48-.39-1.96-.63-.84-.54-1.07-.88-.35-.74-.35-1.21c0-.78.33-1.44.99-1.98s1.5-.81,2.53-.81c1.08,0,1.95.28,2.62.83s1.01,1.27,1.01,2.14h-1.63c0-.45-.19-.83-.57-1.15s-.85-.48-1.43-.48-1.05.13-1.39.39-.5.59-.5,1.01c0,.39.16.69.47.89s.87.39,1.68.57,1.47.4,1.97.65.88.56,1.12.91.36.79.36,1.3c0,.85-.34,1.53-1.02,2.04s-1.56.77-2.65.77c-.76,0-1.44-.13-2.02-.4s-1.04-.65-1.38-1.13-.5-1.01-.5-1.57h1.63c.03.54.25.98.65,1.3s.94.48,1.61.48c.62,0,1.11-.12,1.48-.37s.56-.58.56-1Z"/>
      <path class="cls-7" d="m313.25,130.89c.58,0,1.09-.18,1.52-.53s.67-.79.72-1.32h1.54c-.03.54-.22,1.06-.56,1.56s-.81.88-1.38,1.18-1.19.44-1.83.44c-1.29,0-2.32-.43-3.09-1.3s-1.15-2.05-1.15-3.55v-.27c0-.93.17-1.75.51-2.47s.83-1.28,1.46-1.68,1.39-.6,2.25-.6c1.07,0,1.95.32,2.66.96s1.08,1.47,1.13,2.49h-1.54c-.05-.62-.28-1.12-.7-1.52s-.94-.59-1.55-.59c-.83,0-1.47.3-1.92.89s-.68,1.45-.68,2.58v.31c0,1.1.23,1.94.68,2.53s1.1.89,1.93.89Z"/>
      <path class="cls-7" d="m323.45,123.99c-.25-.04-.51-.06-.8-.06-1.07,0-1.79.45-2.17,1.36v6.75h-1.63v-9.51h1.58l.03,1.1c.53-.85,1.29-1.27,2.27-1.27.32,0,.56.04.72.12v1.51Z"/>
      <path class="cls-7" d="m324.34,127.2c0-.93.18-1.77.55-2.51s.88-1.32,1.53-1.72,1.4-.61,2.24-.61c1.29,0,2.34.45,3.14,1.34s1.2,2.09,1.2,3.58v.11c0,.93-.18,1.76-.53,2.49s-.86,1.31-1.52,1.72-1.42.62-2.27.62c-1.29,0-2.33-.45-3.13-1.34s-1.2-2.08-1.2-3.56v-.11Zm1.63.19c0,1.05.24,1.9.73,2.54s1.14.96,1.96.96,1.48-.32,1.97-.97.73-1.55.73-2.72c0-1.04-.25-1.89-.74-2.54s-1.15-.97-1.97-.97-1.45.32-1.94.96-.74,1.55-.74,2.74Z"/>
      <path class="cls-7" d="m340.57,129.52c0-.44-.17-.78-.5-1.02s-.91-.45-1.73-.63-1.48-.39-1.96-.63-.84-.54-1.07-.88-.35-.74-.35-1.21c0-.78.33-1.44.99-1.98s1.5-.81,2.53-.81c1.08,0,1.95.28,2.62.83s1.01,1.27,1.01,2.14h-1.63c0-.45-.19-.83-.57-1.15s-.85-.48-1.43-.48-1.05.13-1.39.39-.5.59-.5,1.01c0,.39.16.69.47.89s.87.39,1.68.57,1.47.4,1.97.65.88.56,1.12.91.36.79.36,1.3c0,.85-.34,1.53-1.02,2.04s-1.56.77-2.65.77c-.76,0-1.44-.13-2.02-.4s-1.04-.65-1.38-1.13-.5-1.01-.5-1.57h1.63c.03.54.25.98.65,1.3s.94.48,1.61.48c.62,0,1.11-.12,1.48-.37s.56-.58.56-1Z"/>
      <path class="cls-7" d="m349.85,129.52c0-.44-.17-.78-.5-1.02s-.91-.45-1.73-.63-1.48-.39-1.96-.63-.84-.54-1.07-.88-.35-.74-.35-1.21c0-.78.33-1.44.99-1.98s1.5-.81,2.53-.81c1.08,0,1.95.28,2.62.83s1.01,1.27,1.01,2.14h-1.63c0-.45-.19-.83-.57-1.15s-.85-.48-1.43-.48-1.05.13-1.39.39-.5.59-.5,1.01c0,.39.16.69.47.89s.87.39,1.68.57,1.47.4,1.97.65.88.56,1.12.91.36.79.36,1.3c0,.85-.34,1.53-1.02,2.04s-1.56.77-2.65.77c-.76,0-1.44-.13-2.02-.4s-1.04-.65-1.38-1.13-.5-1.01-.5-1.57h1.63c.03.54.25.98.65,1.3s.94.48,1.61.48c.62,0,1.11-.12,1.48-.37s.56-.58.56-1Z"/>
      <path class="cls-7" d="m357.54,132.21c-1.29,0-2.34-.42-3.15-1.27s-1.21-1.98-1.21-3.4v-.3c0-.94.18-1.79.54-2.53s.86-1.32,1.51-1.74,1.35-.63,2.1-.63c1.24,0,2.2.41,2.88,1.22s1.03,1.98,1.03,3.5v.68h-6.44c.02.94.3,1.69.82,2.27s1.19.87,2,.87c.57,0,1.06-.12,1.46-.35s.75-.54,1.05-.93l.99.77c-.8,1.22-1.99,1.84-3.59,1.84Zm-.2-8.53c-.66,0-1.21.24-1.65.72s-.72,1.15-.83,2.01h4.76v-.12c-.05-.83-.27-1.47-.67-1.92s-.94-.68-1.62-.68Z"/>
      <path class="cls-7" d="m362.74,127.2c0-1.46.35-2.63,1.04-3.52s1.6-1.33,2.72-1.33,2,.38,2.65,1.14v-4.96h1.63v13.5h-1.49l-.08-1.02c-.65.8-1.56,1.2-2.72,1.2s-2-.45-2.69-1.35-1.04-2.08-1.04-3.53v-.12Zm1.63.18c0,1.08.22,1.92.67,2.53s1.06.91,1.85.91c1.03,0,1.78-.46,2.26-1.39v-4.37c-.49-.9-1.23-1.34-2.24-1.34-.8,0-1.42.31-1.86.92s-.67,1.53-.67,2.73Z"/>
      <path class="cls-7" d="m281.02,153.64c-.09-.19-.17-.52-.23-1-.76.79-1.66,1.18-2.71,1.18-.94,0-1.71-.27-2.31-.8s-.9-1.2-.9-2.02c0-.99.38-1.76,1.13-2.31s1.81-.82,3.18-.82h1.58v-.75c0-.57-.17-1.02-.51-1.36s-.84-.51-1.5-.51c-.58,0-1.07.15-1.46.44s-.59.65-.59,1.06h-1.63c0-.47.17-.93.51-1.38s.79-.79,1.37-1.05,1.21-.39,1.9-.39c1.1,0,1.95.27,2.58.82s.94,1.3.97,2.26v4.38c0,.87.11,1.57.33,2.08v.14h-1.71Zm-2.7-1.24c.51,0,.99-.13,1.45-.4s.79-.61.99-1.03v-1.95h-1.27c-1.99,0-2.99.58-2.99,1.75,0,.51.17.91.51,1.2s.78.43,1.31.43Z"/>
      <path class="cls-7" d="m286.48,144.13l.05,1.2c.73-.91,1.68-1.37,2.85-1.37,2.01,0,3.02,1.13,3.04,3.4v6.28h-1.63v-6.29c0-.69-.16-1.19-.47-1.52s-.79-.49-1.44-.49c-.53,0-.99.14-1.39.42s-.71.65-.93,1.11v6.78h-1.63v-9.51h1.54Z"/>
      <path class="cls-7" d="m294.48,148.8c0-1.46.35-2.63,1.04-3.52s1.6-1.33,2.72-1.33,2,.38,2.65,1.14v-4.96h1.63v13.5h-1.49l-.08-1.02c-.65.8-1.56,1.2-2.72,1.2s-2-.45-2.69-1.35-1.04-2.08-1.04-3.53v-.12Zm1.63.18c0,1.08.22,1.92.67,2.53s1.06.91,1.85.91c1.03,0,1.78-.46,2.26-1.39v-4.37c-.49-.9-1.23-1.34-2.24-1.34-.8,0-1.42.31-1.86.92s-.67,1.53-.67,2.73Z"/>
      <path class="cls-7" d="m311.16,144.13v10.61c0,1.83-.83,2.74-2.49,2.74-.36,0-.69-.05-.99-.16v-1.29c.19.05.43.07.74.07.36,0,.64-.1.83-.29.19-.2.29-.54.29-1.02v-10.65h1.63Zm-1.79-2.52c0-.26.08-.48.24-.66s.4-.28.71-.28.56.09.72.27.25.4.25.67-.08.48-.25.66-.4.26-.72.26-.55-.09-.71-.26-.24-.4-.24-.66Z"/>
      <path class="cls-7" d="m313.35,148.8c0-.93.18-1.77.55-2.51s.88-1.32,1.53-1.72,1.4-.61,2.24-.61c1.29,0,2.34.45,3.14,1.34s1.2,2.09,1.2,3.58v.11c0,.93-.18,1.76-.53,2.49s-.86,1.31-1.52,1.72-1.42.62-2.27.62c-1.29,0-2.33-.45-3.13-1.34s-1.2-2.08-1.2-3.56v-.11Zm1.63.19c0,1.05.24,1.9.73,2.54s1.14.96,1.96.96,1.48-.32,1.97-.97.73-1.55.73-2.72c0-1.04-.25-1.89-.74-2.54s-1.15-.97-1.97-.97-1.45.32-1.94.96-.74,1.55-.74,2.74Z"/>
      <path class="cls-7" d="m324.05,141.61c0-.26.08-.49.24-.67s.4-.27.72-.27.56.09.72.27.25.4.25.67-.08.48-.25.66-.4.26-.72.26-.56-.09-.72-.26-.24-.4-.24-.66Zm1.76,12.03h-1.63v-9.51h1.63v9.51Z"/>
      <path class="cls-7" d="m329.95,144.13l.05,1.2c.73-.91,1.68-1.37,2.85-1.37,2.01,0,3.02,1.13,3.04,3.4v6.28h-1.63v-6.29c0-.69-.16-1.19-.47-1.52s-.79-.49-1.44-.49c-.53,0-.99.14-1.39.42s-.71.65-.93,1.11v6.78h-1.63v-9.51h1.54Z"/>
      <path class="cls-7" d="m342.29,153.81c-1.29,0-2.34-.42-3.15-1.27s-1.21-1.98-1.21-3.4v-.3c0-.94.18-1.79.54-2.53s.86-1.32,1.51-1.74,1.35-.63,2.1-.63c1.24,0,2.2.41,2.88,1.22s1.03,1.98,1.03,3.5v.68h-6.44c.02.94.3,1.69.82,2.27s1.19.87,2,.87c.57,0,1.06-.12,1.46-.35s.75-.54,1.05-.93l.99.77c-.8,1.22-1.99,1.84-3.59,1.84Zm-.2-8.53c-.66,0-1.21.24-1.65.72s-.72,1.15-.83,2.01h4.76v-.12c-.05-.83-.27-1.47-.67-1.92s-.94-.68-1.62-.68Z"/>
      <path class="cls-7" d="m347.48,148.8c0-1.46.35-2.63,1.04-3.52s1.6-1.33,2.72-1.33,2,.38,2.65,1.14v-4.96h1.63v13.5h-1.49l-.08-1.02c-.65.8-1.56,1.2-2.72,1.2s-2-.45-2.69-1.35-1.04-2.08-1.04-3.53v-.12Zm1.63.18c0,1.08.22,1.92.67,2.53s1.06.91,1.85.91c1.03,0,1.78-.46,2.26-1.39v-4.37c-.49-.9-1.23-1.34-2.24-1.34-.8,0-1.42.31-1.86.92s-.67,1.53-.67,2.73Z"/>
    </g>
    <g>
      <path class="cls-7" d="m143.31,128l.25,1.69.36-1.52,2.53-8.93h1.42l2.47,8.93.35,1.55.27-1.72,1.99-8.75h1.7l-3.1,12.8h-1.54l-2.64-9.33-.2-.98-.2.98-2.73,9.33h-1.54l-3.09-12.8h1.69l2.02,8.76Z"/>
      <path class="cls-7" d="m156.27,120.01c0-.26.08-.49.24-.67s.4-.27.72-.27.56.09.72.27.25.4.25.67-.08.48-.25.66-.4.26-.72.26-.56-.09-.72-.26-.24-.4-.24-.66Zm1.76,12.03h-1.63v-9.51h1.63v9.51Z"/>
      <path class="cls-7" d="m165.23,123.99c-.25-.04-.51-.06-.8-.06-1.07,0-1.79.45-2.17,1.36v6.75h-1.63v-9.51h1.58l.03,1.1c.53-.85,1.29-1.27,2.27-1.27.32,0,.56.04.72.12v1.51Z"/>
      <path class="cls-7" d="m170.5,132.21c-1.29,0-2.34-.42-3.15-1.27s-1.21-1.98-1.21-3.4v-.3c0-.94.18-1.79.54-2.53s.86-1.32,1.51-1.74,1.35-.63,2.1-.63c1.24,0,2.2.41,2.88,1.22s1.03,1.98,1.03,3.5v.68h-6.44c.02.94.3,1.69.82,2.27s1.19.87,2,.87c.57,0,1.06-.12,1.46-.35s.75-.54,1.05-.93l.99.77c-.8,1.22-1.99,1.84-3.59,1.84Zm-.2-8.53c-.66,0-1.21.24-1.65.72s-.72,1.15-.83,2.01h4.76v-.12c-.05-.83-.27-1.47-.67-1.92s-.94-.68-1.62-.68Z"/>
    </g>
    <g>
      <path class="cls-7" d="m128.89,313.73h-3.01v5.18h-1.7v-12.8h4.24c1.44,0,2.55.33,3.33.98s1.16,1.61,1.16,2.87c0,.8-.22,1.49-.65,2.08s-1.03,1.03-1.8,1.33l3.01,5.43v.11h-1.81l-2.78-5.18Zm-3.01-1.38h2.59c.84,0,1.5-.22,2-.65s.74-1.02.74-1.74c0-.79-.24-1.4-.71-1.82-.47-.42-1.15-.64-2.04-.64h-2.58v4.86Z"/>
      <path class="cls-7" d="m138.98,319.08c-1.29,0-2.34-.42-3.15-1.27s-1.21-1.98-1.21-3.4v-.3c0-.94.18-1.79.54-2.53s.86-1.32,1.51-1.74,1.35-.63,2.1-.63c1.24,0,2.2.41,2.88,1.22s1.03,1.98,1.03,3.5v.68h-6.44c.02.94.3,1.7.82,2.27s1.19.87,2,.87c.57,0,1.06-.12,1.46-.35s.75-.54,1.05-.93l.99.77c-.8,1.22-1.99,1.84-3.59,1.84Zm-.2-8.53c-.66,0-1.21.24-1.65.72s-.72,1.15-.83,2.01h4.76v-.12c-.05-.83-.27-1.47-.67-1.92s-.94-.68-1.62-.68Z"/>
      <path class="cls-7" d="m150.1,316.38c0-.44-.17-.78-.5-1.02s-.91-.45-1.73-.63-1.48-.39-1.96-.63-.84-.54-1.07-.88-.35-.74-.35-1.21c0-.78.33-1.44.99-1.98s1.5-.81,2.53-.81c1.08,0,1.95.28,2.62.83s1.01,1.27,1.01,2.14h-1.63c0-.45-.19-.83-.57-1.15s-.85-.48-1.43-.48-1.05.13-1.39.39-.5.59-.5,1.01c0,.39.16.69.47.89s.87.39,1.68.57,1.47.4,1.97.65.88.56,1.12.91.36.79.36,1.3c0,.85-.34,1.53-1.02,2.04s-1.56.77-2.65.77c-.76,0-1.44-.13-2.02-.4s-1.04-.65-1.38-1.13-.5-1.01-.5-1.57h1.63c.03.54.25.98.65,1.3s.94.48,1.61.48c.62,0,1.11-.12,1.48-.37s.56-.58.56-1Z"/>
      <path class="cls-7" d="m153.86,306.87c0-.26.08-.49.24-.67s.4-.27.72-.27.56.09.72.27.25.4.25.67-.08.48-.25.66-.4.26-.72.26-.56-.09-.72-.26-.24-.4-.24-.66Zm1.76,12.03h-1.63v-9.51h1.63v9.51Z"/>
      <path class="cls-7" d="m163.75,316.38c0-.44-.17-.78-.5-1.02s-.91-.45-1.73-.63-1.48-.39-1.96-.63-.84-.54-1.07-.88-.35-.74-.35-1.21c0-.78.33-1.44.99-1.98s1.5-.81,2.53-.81c1.08,0,1.95.28,2.62.83s1.01,1.27,1.01,2.14h-1.63c0-.45-.19-.83-.57-1.15s-.85-.48-1.43-.48-1.05.13-1.39.39-.5.59-.5,1.01c0,.39.16.69.47.89s.87.39,1.68.57,1.47.4,1.97.65.88.56,1.12.91.36.79.36,1.3c0,.85-.34,1.53-1.02,2.04s-1.56.77-2.65.77c-.76,0-1.44-.13-2.02-.4s-1.04-.65-1.38-1.13-.5-1.01-.5-1.57h1.63c.03.54.25.98.65,1.3s.94.48,1.61.48c.62,0,1.11-.12,1.48-.37s.56-.58.56-1Z"/>
      <path class="cls-7" d="m169.7,307.09v2.3h1.78v1.26h-1.78v5.91c0,.38.08.67.24.86.16.19.43.29.81.29.19,0,.45-.04.77-.11v1.31c-.43.12-.84.17-1.25.17-.73,0-1.27-.22-1.64-.66s-.55-1.06-.55-1.87v-5.9h-1.73v-1.26h1.73v-2.3h1.63Z"/>
      <path class="cls-7" d="m172.77,314.06c0-.93.18-1.77.55-2.51s.88-1.32,1.53-1.72,1.4-.61,2.24-.61c1.29,0,2.34.45,3.14,1.34s1.2,2.09,1.2,3.58v.11c0,.93-.18,1.76-.53,2.49s-.86,1.31-1.52,1.72-1.42.62-2.27.62c-1.29,0-2.33-.45-3.13-1.34s-1.2-2.08-1.2-3.56v-.11Zm1.63.19c0,1.05.24,1.9.73,2.54s1.14.96,1.96.96,1.48-.32,1.97-.97.73-1.55.73-2.72c0-1.04-.25-1.89-.74-2.54s-1.15-.97-1.97-.97-1.45.32-1.94.96-.74,1.55-.74,2.74Z"/>
      <path class="cls-7" d="m188.06,310.85c-.25-.04-.51-.06-.8-.06-1.07,0-1.79.45-2.17,1.36v6.75h-1.63v-9.51h1.58l.03,1.1c.53-.85,1.29-1.27,2.27-1.27.32,0,.56.04.72.12v1.51Z"/>
    </g>
    <g>
      <path class="cls-7" d="m267.2,313.89v5.01h-1.69v-12.8h4.72c1.4,0,2.5.36,3.29,1.07s1.19,1.66,1.19,2.84c0,1.24-.39,2.2-1.16,2.87s-1.89,1.01-3.34,1.01h-3.01Zm0-1.38h3.03c.9,0,1.59-.21,2.07-.64s.72-1.04.72-1.84c0-.76-.24-1.37-.72-1.83s-1.14-.7-1.98-.71h-3.13v5.03Z"/>
      <path class="cls-7" d="m276.07,314.06c0-.93.18-1.77.55-2.51s.88-1.32,1.53-1.72,1.4-.61,2.24-.61c1.29,0,2.34.45,3.14,1.34s1.2,2.09,1.2,3.58v.11c0,.93-.18,1.76-.53,2.49s-.86,1.31-1.52,1.72-1.42.62-2.27.62c-1.29,0-2.33-.45-3.13-1.34s-1.2-2.08-1.2-3.56v-.11Zm1.63.19c0,1.05.24,1.9.73,2.54s1.14.96,1.96.96,1.48-.32,1.97-.97.73-1.55.73-2.72c0-1.04-.25-1.89-.74-2.54s-1.15-.97-1.97-.97-1.45.32-1.94.96-.74,1.55-.74,2.74Z"/>
      <path class="cls-7" d="m288.97,307.09v2.3h1.78v1.26h-1.78v5.9c0,.38.08.67.24.86s.43.29.81.29c.19,0,.45-.04.77-.11v1.31c-.43.12-.84.17-1.25.17-.73,0-1.27-.22-1.64-.66s-.55-1.06-.55-1.87v-5.9h-1.73v-1.26h1.73v-2.3h1.63Z"/>
      <path class="cls-7" d="m296.59,319.08c-1.29,0-2.34-.42-3.15-1.27s-1.21-1.98-1.21-3.4v-.3c0-.94.18-1.79.54-2.53s.86-1.32,1.51-1.74,1.35-.63,2.1-.63c1.24,0,2.2.41,2.88,1.22s1.03,1.98,1.03,3.5v.68h-6.44c.02.94.3,1.69.82,2.27s1.19.87,2,.87c.57,0,1.06-.12,1.46-.35s.75-.54,1.05-.93l.99.77c-.8,1.22-1.99,1.84-3.59,1.84Zm-.2-8.53c-.66,0-1.21.24-1.65.72s-.72,1.15-.83,2.01h4.76v-.12c-.05-.83-.27-1.47-.67-1.92s-.94-.68-1.62-.68Z"/>
      <path class="cls-7" d="m303.72,309.39l.05,1.2c.73-.91,1.68-1.37,2.85-1.37,2.01,0,3.02,1.13,3.04,3.4v6.28h-1.63v-6.29c0-.69-.16-1.19-.47-1.52s-.79-.49-1.44-.49c-.53,0-.99.14-1.39.42s-.71.65-.93,1.11v6.78h-1.63v-9.51h1.54Z"/>
      <path class="cls-7" d="m314.32,307.09v2.3h1.78v1.26h-1.78v5.9c0,.38.08.67.24.86s.43.29.81.29c.19,0,.45-.04.77-.11v1.31c-.43.12-.84.17-1.25.17-.73,0-1.27-.22-1.64-.66s-.55-1.06-.55-1.87v-5.9h-1.73v-1.26h1.73v-2.3h1.63Z"/>
      <path class="cls-7" d="m318,306.87c0-.26.08-.49.24-.67s.4-.27.72-.27.56.09.72.27.25.4.25.67-.08.48-.25.66-.4.26-.72.26-.56-.09-.72-.26-.24-.4-.24-.66Zm1.76,12.03h-1.63v-9.51h1.63v9.51Z"/>
      <path class="cls-7" d="m321.93,314.06c0-.93.18-1.77.55-2.51s.88-1.32,1.53-1.72,1.4-.61,2.24-.61c1.29,0,2.34.45,3.14,1.34s1.2,2.09,1.2,3.58v.11c0,.93-.18,1.76-.53,2.49s-.86,1.31-1.52,1.72-1.42.62-2.27.62c-1.29,0-2.33-.45-3.13-1.34s-1.2-2.08-1.2-3.56v-.11Zm1.63.19c0,1.05.24,1.9.73,2.54s1.14.96,1.96.96,1.48-.32,1.97-.97.73-1.55.73-2.72c0-1.04-.25-1.89-.74-2.54s-1.15-.97-1.97-.97-1.45.32-1.94.96-.74,1.55-.74,2.74Z"/>
      <path class="cls-7" d="m334.15,309.39l.04,1.05c.7-.82,1.64-1.23,2.82-1.23,1.33,0,2.24.51,2.72,1.53.32-.46.73-.83,1.23-1.11s1.11-.42,1.8-.42c2.09,0,3.15,1.1,3.18,3.31v6.37h-1.63v-6.28c0-.68-.16-1.19-.47-1.53s-.83-.5-1.56-.5c-.6,0-1.1.18-1.5.54s-.63.85-.69,1.46v6.31h-1.63v-6.23c0-1.38-.68-2.07-2.03-2.07-1.07,0-1.8.45-2.19,1.36v6.94h-1.63v-9.51h1.54Z"/>
      <path class="cls-7" d="m352.35,319.08c-1.29,0-2.34-.42-3.15-1.27s-1.21-1.98-1.21-3.4v-.3c0-.94.18-1.79.54-2.53s.86-1.32,1.51-1.74,1.35-.63,2.1-.63c1.24,0,2.2.41,2.88,1.22s1.03,1.98,1.03,3.5v.68h-6.44c.02.94.3,1.69.82,2.27s1.19.87,2,.87c.57,0,1.06-.12,1.46-.35s.75-.54,1.05-.93l.99.77c-.8,1.22-1.99,1.84-3.59,1.84Zm-.2-8.53c-.66,0-1.21.24-1.65.72s-.72,1.15-.83,2.01h4.76v-.12c-.05-.83-.27-1.47-.67-1.92s-.94-.68-1.62-.68Z"/>
      <path class="cls-7" d="m360.14,307.09v2.3h1.78v1.26h-1.78v5.9c0,.38.08.67.24.86s.43.29.81.29c.19,0,.45-.04.77-.11v1.31c-.43.12-.84.17-1.25.17-.73,0-1.27-.22-1.64-.66s-.55-1.06-.55-1.87v-5.9h-1.73v-1.26h1.73v-2.3h1.63Z"/>
      <path class="cls-7" d="m367.76,319.08c-1.29,0-2.34-.42-3.15-1.27s-1.21-1.98-1.21-3.4v-.3c0-.94.18-1.79.54-2.53s.86-1.32,1.51-1.74,1.35-.63,2.1-.63c1.24,0,2.2.41,2.88,1.22s1.03,1.98,1.03,3.5v.68h-6.44c.02.94.3,1.69.82,2.27s1.19.87,2,.87c.57,0,1.06-.12,1.46-.35s.75-.54,1.05-.93l.99.77c-.8,1.22-1.99,1.84-3.59,1.84Zm-.2-8.53c-.66,0-1.21.24-1.65.72s-.72,1.15-.83,2.01h4.76v-.12c-.05-.83-.27-1.47-.67-1.92s-.94-.68-1.62-.68Z"/>
      <path class="cls-7" d="m377.95,310.85c-.25-.04-.51-.06-.8-.06-1.07,0-1.79.45-2.17,1.36v6.75h-1.63v-9.51h1.58l.03,1.1c.53-.85,1.29-1.27,2.27-1.27.32,0,.56.04.72.12v1.51Z"/>
    </g>
    <g>
      <path class="cls-7" d="m412.11,317.52h6.06v1.38h-7.76v-12.8h1.7v11.42Z"/>
      <path class="cls-7" d="m419.85,306.87c0-.26.08-.49.24-.67s.4-.27.72-.27.56.09.72.27.25.4.25.67-.08.48-.25.66-.4.26-.72.26-.56-.09-.72-.26-.24-.4-.24-.66Zm1.76,12.03h-1.63v-9.51h1.63v9.51Z"/>
      <path class="cls-7" d="m423.82,314.07c0-1.48.34-2.66,1.03-3.54s1.59-1.31,2.72-1.31,2.07.41,2.72,1.23l.08-1.05h1.49v9.28c0,1.23-.36,2.2-1.09,2.91s-1.71,1.06-2.94,1.06c-.69,0-1.36-.15-2.01-.44s-1.16-.69-1.5-1.2l.84-.98c.7.86,1.55,1.29,2.56,1.29.79,0,1.41-.22,1.85-.67s.66-1.07.66-1.88v-.82c-.65.75-1.54,1.12-2.66,1.12s-2.01-.45-2.7-1.34-1.03-2.12-1.03-3.67Zm1.63.18c0,1.07.22,1.91.66,2.53s1.05.92,1.85.92c1.03,0,1.78-.47,2.26-1.4v-4.34c-.5-.91-1.25-1.36-2.24-1.36-.79,0-1.41.31-1.85.92s-.67,1.53-.67,2.73Z"/>
      <path class="cls-7" d="m435.94,310.55c.72-.88,1.66-1.33,2.81-1.33,2.01,0,3.02,1.13,3.04,3.4v6.28h-1.63v-6.29c0-.69-.16-1.19-.47-1.52s-.79-.49-1.44-.49c-.53,0-.99.14-1.39.42s-.71.65-.93,1.11v6.78h-1.63v-13.5h1.63v5.14Z"/>
      <path class="cls-7" d="m446.43,307.09v2.3h1.78v1.26h-1.78v5.9c0,.38.08.67.24.86s.43.29.81.29c.19,0,.45-.04.77-.11v1.31c-.43.12-.84.17-1.25.17-.73,0-1.27-.22-1.64-.66s-.55-1.06-.55-1.87v-5.9h-1.73v-1.26h1.73v-2.3h1.63Z"/>
      <path class="cls-7" d="m453.49,314.13h-4.29v-1.33h4.29v1.33Z"/>
      <path class="cls-7" d="m454.67,314.07c0-1.46.35-2.63,1.04-3.52s1.6-1.33,2.72-1.33,2,.38,2.65,1.14v-4.96h1.63v13.5h-1.49l-.08-1.02c-.65.8-1.56,1.2-2.72,1.2s-2-.45-2.69-1.35-1.04-2.08-1.04-3.53v-.12Zm1.63.18c0,1.08.22,1.92.67,2.53s1.06.91,1.85.91c1.03,0,1.78-.46,2.26-1.39v-4.37c-.49-.9-1.23-1.34-2.24-1.34-.8,0-1.42.31-1.86.92s-.67,1.53-.67,2.73Z"/>
      <path class="cls-7" d="m469.17,319.08c-1.29,0-2.34-.42-3.15-1.27s-1.21-1.98-1.21-3.4v-.3c0-.94.18-1.79.54-2.53s.86-1.32,1.51-1.74,1.35-.63,2.1-.63c1.24,0,2.2.41,2.88,1.22s1.03,1.98,1.03,3.5v.68h-6.44c.02.94.3,1.69.82,2.27s1.19.87,2,.87c.57,0,1.06-.12,1.46-.35s.75-.54,1.05-.93l.99.77c-.8,1.22-1.99,1.84-3.59,1.84Zm-.2-8.53c-.66,0-1.21.24-1.65.72s-.72,1.15-.83,2.01h4.76v-.12c-.05-.83-.27-1.47-.67-1.92s-.94-.68-1.62-.68Z"/>
      <path class="cls-7" d="m482.79,314.25c0,1.45-.33,2.61-.99,3.5s-1.56,1.33-2.69,1.33-2.06-.37-2.72-1.1v4.58h-1.63v-13.17h1.49l.08,1.05c.66-.82,1.58-1.23,2.76-1.23s2.05.43,2.71,1.29,1,2.06,1,3.59v.15Zm-1.63-.18c0-1.07-.23-1.92-.69-2.54s-1.08-.93-1.88-.93c-.98,0-1.72.44-2.21,1.31v4.54c.49.87,1.23,1.3,2.23,1.3.78,0,1.4-.31,1.86-.93s.69-1.54.69-2.75Z"/>
      <path class="cls-7" d="m488.8,319.08c-1.29,0-2.34-.42-3.15-1.27s-1.21-1.98-1.21-3.4v-.3c0-.94.18-1.79.54-2.53s.86-1.32,1.51-1.74,1.35-.63,2.1-.63c1.24,0,2.2.41,2.88,1.22s1.03,1.98,1.03,3.5v.68h-6.44c.02.94.3,1.69.82,2.27s1.19.87,2,.87c.57,0,1.06-.12,1.46-.35s.75-.54,1.05-.93l.99.77c-.8,1.22-1.99,1.84-3.59,1.84Zm-.2-8.53c-.66,0-1.21.24-1.65.72s-.72,1.15-.83,2.01h4.76v-.12c-.05-.83-.27-1.47-.67-1.92s-.94-.68-1.62-.68Z"/>
      <path class="cls-7" d="m495.93,309.39l.05,1.2c.73-.91,1.68-1.37,2.85-1.37,2.01,0,3.02,1.13,3.04,3.4v6.28h-1.63v-6.29c0-.69-.16-1.19-.47-1.52s-.79-.49-1.44-.49c-.53,0-.99.14-1.39.42s-.71.65-.93,1.11v6.78h-1.63v-9.51h1.54Z"/>
      <path class="cls-7" d="m503.93,314.07c0-1.46.35-2.63,1.04-3.52s1.6-1.33,2.72-1.33,2,.38,2.65,1.14v-4.96h1.63v13.5h-1.49l-.08-1.02c-.65.8-1.56,1.2-2.72,1.2s-2-.45-2.69-1.35-1.04-2.08-1.04-3.53v-.12Zm1.63.18c0,1.08.22,1.92.67,2.53s1.06.91,1.85.91c1.03,0,1.78-.46,2.26-1.39v-4.37c-.49-.9-1.23-1.34-2.24-1.34-.8,0-1.42.31-1.86.92s-.67,1.53-.67,2.73Z"/>
      <path class="cls-7" d="m518.42,319.08c-1.29,0-2.34-.42-3.15-1.27s-1.21-1.98-1.21-3.4v-.3c0-.94.18-1.79.54-2.53s.86-1.32,1.51-1.74,1.35-.63,2.1-.63c1.24,0,2.2.41,2.88,1.22s1.03,1.98,1.03,3.5v.68h-6.44c.02.94.3,1.69.82,2.27s1.19.87,2,.87c.57,0,1.06-.12,1.46-.35s.75-.54,1.05-.93l.99.77c-.8,1.22-1.99,1.84-3.59,1.84Zm-.2-8.53c-.66,0-1.21.24-1.65.72s-.72,1.15-.83,2.01h4.76v-.12c-.05-.83-.27-1.47-.67-1.92s-.94-.68-1.62-.68Z"/>
      <path class="cls-7" d="m525.55,309.39l.05,1.2c.73-.91,1.68-1.37,2.85-1.37,2.01,0,3.02,1.13,3.04,3.4v6.28h-1.63v-6.29c0-.69-.16-1.19-.47-1.52s-.79-.49-1.44-.49c-.53,0-.99.14-1.39.42s-.71.65-.93,1.11v6.78h-1.63v-9.51h1.54Z"/>
      <path class="cls-7" d="m536.15,307.09v2.3h1.78v1.26h-1.78v5.9c0,.38.08.67.24.86s.43.29.81.29c.19,0,.45-.04.77-.11v1.31c-.43.12-.84.17-1.25.17-.73,0-1.27-.22-1.64-.66s-.55-1.06-.55-1.87v-5.9h-1.73v-1.26h1.73v-2.3h1.63Z"/>
      <path class="cls-7" d="m447.13,335.33h-3.01v5.18h-1.7v-12.8h4.24c1.44,0,2.55.33,3.33.98s1.16,1.61,1.16,2.87c0,.8-.22,1.49-.65,2.08s-1.03,1.03-1.8,1.33l3.01,5.43v.11h-1.81l-2.78-5.18Zm-3.01-1.38h2.59c.84,0,1.5-.22,2-.65s.74-1.02.74-1.74c0-.79-.24-1.4-.71-1.82-.47-.42-1.15-.64-2.04-.64h-2.58v4.86Z"/>
      <path class="cls-7" d="m457.21,340.68c-1.29,0-2.34-.42-3.15-1.27s-1.21-1.98-1.21-3.4v-.3c0-.94.18-1.79.54-2.53s.86-1.32,1.51-1.74,1.35-.63,2.1-.63c1.24,0,2.2.41,2.88,1.22s1.03,1.98,1.03,3.5v.68h-6.44c.02.94.3,1.7.82,2.27s1.19.87,2,.87c.57,0,1.06-.12,1.46-.35s.75-.54,1.05-.93l.99.77c-.8,1.22-1.99,1.84-3.59,1.84Zm-.2-8.53c-.66,0-1.21.24-1.65.72s-.72,1.15-.83,2.01h4.76v-.12c-.05-.83-.27-1.47-.67-1.92s-.94-.68-1.62-.68Z"/>
      <path class="cls-7" d="m468.34,337.98c0-.44-.17-.78-.5-1.02s-.91-.45-1.73-.63-1.48-.39-1.96-.63-.84-.54-1.07-.88-.35-.74-.35-1.21c0-.78.33-1.44.99-1.98s1.5-.81,2.53-.81c1.08,0,1.95.28,2.62.83s1.01,1.27,1.01,2.14h-1.63c0-.45-.19-.83-.57-1.15s-.85-.48-1.43-.48-1.05.13-1.39.39-.5.59-.5,1.01c0,.39.16.69.47.89s.87.39,1.68.57,1.47.4,1.97.65.88.56,1.12.91.36.79.36,1.3c0,.85-.34,1.53-1.02,2.04s-1.56.77-2.65.77c-.76,0-1.44-.13-2.02-.4s-1.04-.65-1.38-1.13-.5-1.01-.5-1.57h1.63c.03.54.25.98.65,1.3s.94.48,1.61.48c.62,0,1.11-.12,1.48-.37s.56-.58.56-1Z"/>
      <path class="cls-7" d="m472.09,328.47c0-.26.08-.49.24-.67s.4-.27.72-.27.56.09.72.27.25.4.25.67-.08.48-.25.66-.4.26-.72.26-.56-.09-.72-.26-.24-.4-.24-.66Zm1.76,12.03h-1.63v-9.51h1.63v9.51Z"/>
      <path class="cls-7" d="m481.99,337.98c0-.44-.17-.78-.5-1.02s-.91-.45-1.73-.63-1.48-.39-1.96-.63-.84-.54-1.07-.88-.35-.74-.35-1.21c0-.78.33-1.44.99-1.98s1.5-.81,2.53-.81c1.08,0,1.95.28,2.62.83s1.01,1.27,1.01,2.14h-1.63c0-.45-.19-.83-.57-1.15s-.85-.48-1.43-.48-1.05.13-1.39.39-.5.59-.5,1.01c0,.39.16.69.47.89s.87.39,1.68.57,1.47.4,1.97.65.88.56,1.12.91.36.79.36,1.3c0,.85-.34,1.53-1.02,2.04s-1.56.77-2.65.77c-.76,0-1.44-.13-2.02-.4s-1.04-.65-1.38-1.13-.5-1.01-.5-1.57h1.63c.03.54.25.98.66,1.3s.94.48,1.61.48c.62,0,1.11-.12,1.48-.37s.56-.58.56-1Z"/>
      <path class="cls-7" d="m487.94,328.69v2.3h1.78v1.26h-1.78v5.91c0,.38.08.67.24.86.16.19.43.29.81.29.19,0,.45-.04.77-.11v1.31c-.43.12-.84.17-1.25.17-.73,0-1.27-.22-1.64-.66s-.55-1.06-.55-1.87v-5.9h-1.73v-1.26h1.73v-2.3h1.63Z"/>
      <path class="cls-7" d="m491.01,335.66c0-.93.18-1.77.55-2.51s.88-1.32,1.53-1.72,1.4-.61,2.24-.61c1.29,0,2.34.45,3.14,1.34s1.2,2.09,1.2,3.58v.11c0,.93-.18,1.76-.53,2.49s-.86,1.31-1.52,1.72-1.42.62-2.27.62c-1.29,0-2.33-.45-3.13-1.34s-1.2-2.08-1.2-3.56v-.11Zm1.63.19c0,1.05.25,1.9.73,2.54s1.14.96,1.96.96,1.48-.32,1.97-.97.73-1.55.73-2.72c0-1.04-.25-1.89-.74-2.54s-1.15-.97-1.97-.97-1.45.32-1.94.96-.74,1.55-.74,2.74Z"/>
      <path class="cls-7" d="m506.3,332.45c-.25-.04-.51-.06-.8-.06-1.07,0-1.79.45-2.17,1.36v6.75h-1.63v-9.51h1.58l.03,1.1c.53-.85,1.29-1.27,2.27-1.27.32,0,.56.04.72.12v1.51Z"/>
    </g>
    <g>
      <path class="cls-7" d="m762.83,314.84c-.16,1.35-.66,2.4-1.5,3.13s-1.96,1.1-3.35,1.1c-1.51,0-2.72-.54-3.63-1.63s-1.37-2.53-1.37-4.35v-1.23c0-1.19.21-2.24.64-3.14s1.03-1.6,1.81-2.08,1.68-.72,2.71-.72c1.36,0,2.45.38,3.27,1.14s1.3,1.81,1.43,3.15h-1.7c-.15-1.02-.46-1.76-.95-2.22-.49-.46-1.17-.69-2.05-.69-1.08,0-1.92.4-2.54,1.2s-.92,1.93-.92,3.4v1.24c0,1.39.29,2.5.87,3.32.58.82,1.39,1.23,2.43,1.23.94,0,1.66-.21,2.16-.64s.83-1.16,1-2.22h1.7Z"/>
      <path class="cls-7" d="m770.75,318.9c-.09-.19-.17-.52-.23-1-.76.79-1.66,1.18-2.71,1.18-.94,0-1.71-.27-2.31-.8s-.9-1.2-.9-2.02c0-.99.38-1.76,1.13-2.31s1.81-.82,3.18-.82h1.58v-.75c0-.57-.17-1.02-.51-1.36s-.84-.5-1.5-.5c-.58,0-1.07.15-1.46.44s-.59.65-.59,1.06h-1.63c0-.47.17-.93.5-1.38s.79-.79,1.37-1.05,1.21-.39,1.9-.39c1.1,0,1.95.27,2.58.82s.94,1.3.97,2.26v4.38c0,.87.11,1.57.33,2.08v.14h-1.71Zm-2.7-1.24c.51,0,.99-.13,1.45-.4s.79-.61.99-1.03v-1.95h-1.27c-1.99,0-2.99.58-2.99,1.75,0,.51.17.91.51,1.2s.78.43,1.31.43Z"/>
      <path class="cls-7" d="m782.71,314.25c0,1.45-.33,2.61-.99,3.5s-1.56,1.33-2.69,1.33-2.06-.37-2.72-1.1v4.58h-1.63v-13.17h1.49l.08,1.05c.66-.82,1.58-1.23,2.76-1.23s2.05.43,2.71,1.29,1,2.06,1,3.59v.15Zm-1.63-.18c0-1.07-.23-1.92-.69-2.54s-1.08-.93-1.88-.93c-.98,0-1.72.44-2.21,1.31v4.54c.49.87,1.23,1.3,2.23,1.3.78,0,1.4-.31,1.86-.93s.69-1.54.69-2.75Z"/>
      <path class="cls-7" d="m790.64,318.9c-.09-.19-.17-.52-.23-1-.76.79-1.66,1.18-2.71,1.18-.94,0-1.71-.27-2.31-.8s-.9-1.2-.9-2.02c0-.99.38-1.76,1.13-2.31s1.81-.82,3.18-.82h1.58v-.75c0-.57-.17-1.02-.51-1.36s-.84-.5-1.5-.5c-.58,0-1.07.15-1.46.44s-.59.65-.59,1.06h-1.63c0-.47.17-.93.5-1.38s.79-.79,1.37-1.05,1.21-.39,1.9-.39c1.1,0,1.95.27,2.58.82s.94,1.3.97,2.26v4.38c0,.87.11,1.57.33,2.08v.14h-1.71Zm-2.7-1.24c.51,0,.99-.13,1.45-.4s.79-.61.99-1.03v-1.95h-1.27c-1.99,0-2.99.58-2.99,1.75,0,.51.17.91.51,1.2s.78.43,1.31.43Z"/>
      <path class="cls-7" d="m798.38,317.75c.58,0,1.09-.18,1.52-.53s.67-.79.72-1.32h1.54c-.03.54-.22,1.06-.56,1.56s-.81.88-1.38,1.18-1.19.44-1.83.44c-1.29,0-2.33-.43-3.09-1.3s-1.15-2.05-1.15-3.55v-.27c0-.93.17-1.75.51-2.47s.83-1.28,1.46-1.68,1.39-.6,2.25-.6c1.07,0,1.95.32,2.66.96s1.08,1.47,1.13,2.49h-1.54c-.05-.62-.28-1.12-.7-1.52s-.94-.59-1.55-.59c-.83,0-1.47.3-1.92.89s-.68,1.46-.68,2.58v.31c0,1.1.23,1.94.68,2.53s1.1.89,1.93.89Z"/>
      <path class="cls-7" d="m803.99,306.87c0-.26.08-.49.24-.67s.4-.27.72-.27.56.09.72.27.25.4.25.67-.08.48-.25.66-.4.26-.72.26-.56-.09-.72-.26-.24-.4-.24-.66Zm1.76,12.03h-1.63v-9.51h1.63v9.51Z"/>
      <path class="cls-7" d="m810.56,307.09v2.3h1.78v1.26h-1.78v5.9c0,.38.08.67.24.86s.43.29.81.29c.19,0,.45-.04.77-.11v1.31c-.43.12-.84.17-1.25.17-.73,0-1.27-.22-1.64-.66s-.55-1.06-.55-1.87v-5.9h-1.73v-1.26h1.73v-2.3h1.63Z"/>
      <path class="cls-7" d="m813.63,314.06c0-.93.18-1.77.55-2.51s.88-1.32,1.53-1.72,1.4-.61,2.24-.61c1.29,0,2.34.45,3.14,1.34s1.2,2.09,1.2,3.58v.11c0,.93-.18,1.76-.53,2.49s-.86,1.31-1.52,1.72-1.42.62-2.27.62c-1.29,0-2.33-.45-3.13-1.34s-1.2-2.08-1.2-3.56v-.11Zm1.63.19c0,1.05.24,1.9.73,2.54s1.14.96,1.96.96,1.48-.32,1.97-.97.73-1.55.73-2.72c0-1.04-.25-1.89-.74-2.54s-1.15-.97-1.97-.97-1.45.32-1.94.96-.74,1.55-.74,2.74Z"/>
      <path class="cls-7" d="m828.92,310.85c-.25-.04-.51-.06-.8-.06-1.07,0-1.79.45-2.17,1.36v6.75h-1.63v-9.51h1.58l.03,1.1c.53-.85,1.29-1.27,2.27-1.27.32,0,.56.04.72.12v1.51Z"/>
    </g>
    <g>
      <path class="cls-7" d="m598.04,313.89v5.01h-1.69v-12.8h4.72c1.4,0,2.5.36,3.29,1.07s1.19,1.66,1.19,2.84c0,1.24-.39,2.2-1.17,2.87s-1.89,1.01-3.33,1.01h-3.01Zm0-1.38h3.03c.9,0,1.59-.21,2.07-.64s.72-1.04.72-1.84c0-.76-.24-1.37-.72-1.83s-1.14-.7-1.98-.71h-3.13v5.03Z"/>
      <path class="cls-7" d="m606.91,314.06c0-.93.18-1.77.55-2.51s.88-1.32,1.53-1.72,1.4-.61,2.24-.61c1.29,0,2.34.45,3.14,1.34s1.2,2.09,1.2,3.58v.11c0,.93-.18,1.76-.53,2.49s-.86,1.31-1.52,1.72-1.42.62-2.27.62c-1.29,0-2.33-.45-3.13-1.34s-1.2-2.08-1.2-3.56v-.11Zm1.63.19c0,1.05.24,1.9.73,2.54s1.14.96,1.96.96,1.48-.32,1.97-.97.73-1.55.73-2.72c0-1.04-.25-1.89-.74-2.54s-1.15-.97-1.97-.97-1.45.32-1.94.96-.74,1.55-.74,2.74Z"/>
      <path class="cls-7" d="m619.37,318.9h-1.63v-13.5h1.63v13.5Z"/>
      <path class="cls-7" d="m627.84,318.9c-.09-.19-.17-.52-.23-1-.76.79-1.66,1.18-2.71,1.18-.94,0-1.71-.27-2.31-.8s-.9-1.2-.9-2.02c0-.99.38-1.76,1.13-2.31s1.81-.82,3.18-.82h1.58v-.75c0-.57-.17-1.02-.51-1.36s-.84-.5-1.5-.5c-.58,0-1.07.15-1.46.44s-.59.65-.59,1.06h-1.63c0-.47.17-.93.5-1.38s.79-.79,1.37-1.05,1.21-.39,1.9-.39c1.1,0,1.95.27,2.58.82s.94,1.3.97,2.26v4.38c0,.87.11,1.57.33,2.08v.14h-1.71Zm-2.7-1.24c.51,0,.99-.13,1.45-.4s.79-.61.99-1.03v-1.95h-1.27c-1.99,0-2.99.58-2.99,1.75,0,.51.17.91.51,1.2s.78.43,1.31.43Z"/>
      <path class="cls-7" d="m636.36,310.85c-.25-.04-.51-.06-.8-.06-1.07,0-1.79.45-2.17,1.36v6.75h-1.63v-9.51h1.58l.03,1.1c.53-.85,1.29-1.27,2.27-1.27.32,0,.56.04.72.12v1.51Z"/>
      <path class="cls-7" d="m637.86,306.87c0-.26.08-.49.24-.67s.4-.27.72-.27.56.09.72.27.25.4.25.67-.08.48-.25.66-.4.26-.72.26-.56-.09-.72-.26-.24-.4-.24-.66Zm1.76,12.03h-1.63v-9.51h1.63v9.51Z"/>
      <path class="cls-7" d="m643.75,317.58h5.56v1.33h-7.55v-1.2l5.25-6.97h-5.17v-1.34h7.21v1.15l-5.3,7.03Z"/>
      <path class="cls-7" d="m654.95,319.08c-1.29,0-2.34-.42-3.15-1.27s-1.21-1.98-1.21-3.4v-.3c0-.94.18-1.79.54-2.53s.86-1.32,1.51-1.74,1.35-.63,2.11-.63c1.24,0,2.2.41,2.88,1.22s1.03,1.98,1.03,3.5v.68h-6.44c.02.94.3,1.69.82,2.27s1.19.87,2,.87c.57,0,1.06-.12,1.46-.35s.75-.54,1.05-.93l.99.77c-.8,1.22-1.99,1.84-3.59,1.84Zm-.2-8.53c-.66,0-1.21.24-1.65.72s-.72,1.15-.83,2.01h4.76v-.12c-.05-.83-.27-1.47-.67-1.92s-.94-.68-1.62-.68Z"/>
      <path class="cls-7" d="m660.14,314.07c0-1.46.35-2.63,1.04-3.52s1.6-1.33,2.72-1.33,2,.38,2.65,1.14v-4.96h1.63v13.5h-1.49l-.08-1.02c-.65.8-1.56,1.2-2.72,1.2s-2-.45-2.69-1.35-1.04-2.08-1.04-3.53v-.12Zm1.63.18c0,1.08.22,1.92.67,2.53s1.06.91,1.85.91c1.03,0,1.78-.46,2.26-1.39v-4.37c-.49-.9-1.23-1.34-2.24-1.34-.8,0-1.42.31-1.86.92s-.67,1.53-.67,2.73Z"/>
      <path class="cls-7" d="m604.44,336.44c-.16,1.35-.66,2.4-1.5,3.13s-1.96,1.1-3.35,1.1c-1.51,0-2.72-.54-3.63-1.63s-1.37-2.53-1.37-4.35v-1.23c0-1.19.21-2.24.64-3.14s1.03-1.59,1.81-2.08,1.68-.73,2.71-.73c1.36,0,2.45.38,3.27,1.14s1.3,1.81,1.43,3.15h-1.7c-.15-1.02-.46-1.76-.95-2.22-.49-.46-1.17-.69-2.05-.69-1.08,0-1.92.4-2.54,1.2-.61.8-.92,1.93-.92,3.4v1.24c0,1.39.29,2.5.87,3.32.58.82,1.39,1.23,2.43,1.23.94,0,1.66-.21,2.16-.64s.83-1.17,1-2.22h1.7Z"/>
      <path class="cls-7" d="m612.35,340.5c-.09-.19-.17-.52-.23-1-.76.79-1.66,1.18-2.71,1.18-.94,0-1.71-.26-2.31-.79s-.9-1.2-.9-2.02c0-.99.38-1.76,1.13-2.31s1.81-.82,3.18-.82h1.58v-.75c0-.57-.17-1.02-.51-1.36s-.84-.51-1.5-.51c-.58,0-1.07.15-1.46.44s-.59.65-.59,1.06h-1.63c0-.47.17-.93.5-1.38s.79-.79,1.37-1.05,1.21-.39,1.9-.39c1.1,0,1.95.27,2.58.82s.94,1.3.97,2.26v4.38c0,.87.11,1.57.33,2.08v.14h-1.71Zm-2.7-1.24c.51,0,.99-.13,1.45-.4s.79-.61.99-1.03v-1.95h-1.27c-1.99,0-2.99.58-2.99,1.75,0,.51.17.91.51,1.2s.78.43,1.31.43Z"/>
      <path class="cls-7" d="m624.31,335.85c0,1.45-.33,2.61-.99,3.5s-1.56,1.33-2.69,1.33-2.06-.37-2.72-1.1v4.58h-1.63v-13.17h1.49l.08,1.05c.66-.82,1.58-1.23,2.76-1.23s2.05.43,2.71,1.29,1,2.06,1,3.59v.15Zm-1.63-.18c0-1.07-.23-1.92-.69-2.54s-1.08-.93-1.88-.93c-.98,0-1.72.44-2.21,1.31v4.54c.49.87,1.23,1.3,2.23,1.3.78,0,1.4-.31,1.86-.93s.69-1.54.69-2.76Z"/>
      <path class="cls-7" d="m632.24,340.5c-.09-.19-.17-.52-.23-1-.76.79-1.66,1.18-2.71,1.18-.94,0-1.71-.26-2.31-.79s-.9-1.2-.9-2.02c0-.99.38-1.76,1.13-2.31s1.81-.82,3.18-.82h1.58v-.75c0-.57-.17-1.02-.51-1.36s-.84-.51-1.5-.51c-.58,0-1.07.15-1.46.44s-.59.65-.59,1.06h-1.63c0-.47.17-.93.5-1.38s.79-.79,1.37-1.05,1.21-.39,1.9-.39c1.1,0,1.95.27,2.58.82s.94,1.3.97,2.26v4.38c0,.87.11,1.57.33,2.08v.14h-1.71Zm-2.7-1.24c.51,0,.99-.13,1.45-.4s.79-.61.99-1.03v-1.95h-1.27c-1.99,0-2.99.58-2.99,1.75,0,.51.17.91.51,1.2s.78.43,1.31.43Z"/>
      <path class="cls-7" d="m639.98,339.35c.58,0,1.09-.18,1.52-.53s.67-.79.72-1.32h1.54c-.03.54-.22,1.06-.56,1.56s-.81.88-1.38,1.18-1.19.44-1.83.44c-1.29,0-2.33-.43-3.09-1.3s-1.15-2.05-1.15-3.55v-.27c0-.93.17-1.75.51-2.47s.83-1.28,1.46-1.68,1.39-.6,2.25-.6c1.07,0,1.95.32,2.66.96s1.08,1.47,1.13,2.49h-1.54c-.05-.62-.28-1.12-.7-1.52s-.94-.59-1.55-.59c-.83,0-1.47.3-1.92.89s-.68,1.45-.68,2.58v.31c0,1.1.23,1.94.68,2.53s1.1.89,1.93.89Z"/>
      <path class="cls-7" d="m645.59,328.47c0-.26.08-.49.24-.67s.4-.27.72-.27.56.09.72.27.25.4.25.67-.08.48-.25.66-.4.26-.72.26-.56-.09-.72-.26-.24-.4-.24-.66Zm1.76,12.03h-1.63v-9.51h1.63v9.51Z"/>
      <path class="cls-7" d="m652.16,328.69v2.3h1.78v1.26h-1.78v5.91c0,.38.08.67.24.86.16.19.43.29.81.29.19,0,.45-.04.77-.11v1.31c-.43.12-.84.17-1.25.17-.73,0-1.27-.22-1.64-.66s-.55-1.06-.55-1.87v-5.9h-1.73v-1.26h1.73v-2.3h1.63Z"/>
      <path class="cls-7" d="m655.23,335.66c0-.93.18-1.77.55-2.51s.88-1.32,1.53-1.72,1.4-.61,2.24-.61c1.29,0,2.34.45,3.14,1.34s1.2,2.09,1.2,3.58v.11c0,.93-.18,1.76-.53,2.49s-.86,1.31-1.52,1.72-1.42.62-2.27.62c-1.29,0-2.33-.45-3.13-1.34s-1.2-2.08-1.2-3.56v-.11Zm1.63.19c0,1.05.24,1.9.73,2.54s1.14.96,1.96.96,1.48-.32,1.97-.97.73-1.55.73-2.72c0-1.04-.25-1.89-.74-2.54s-1.15-.97-1.97-.97-1.45.32-1.94.96-.74,1.55-.74,2.74Z"/>
      <path class="cls-7" d="m670.52,332.45c-.25-.04-.51-.06-.8-.06-1.07,0-1.79.45-2.17,1.36v6.75h-1.63v-9.51h1.58l.03,1.1c.53-.85,1.29-1.27,2.27-1.27.32,0,.56.04.72.12v1.51Z"/>
    </g>
    <g>
      <path class="cls-7" d="m302.68,535.74h6.06v1.38h-7.76v-12.8h1.7v11.42Z"/>
      <path class="cls-7" d="m317.9,531.2h-5.55v4.54h6.44v1.38h-8.13v-12.8h8.04v1.38h-6.35v4.12h5.55v1.38Z"/>
      <path class="cls-7" d="m320.9,537.12v-12.8h3.61c1.11,0,2.1.25,2.95.74s1.52,1.19,1.98,2.1.7,1.95.71,3.13v.82c0,1.21-.23,2.26-.7,3.17s-1.13,1.61-2,2.09-1.87.74-3.02.75h-3.54Zm1.69-11.42v10.04h1.78c1.3,0,2.31-.41,3.04-1.21s1.09-1.96,1.09-3.46v-.75c0-1.45-.34-2.58-1.02-3.39s-1.65-1.22-2.9-1.23h-1.97Z"/>
    </g>
    <g>
      <path class="cls-7" d="m135.38,537.12v-12.8h3.61c1.11,0,2.1.25,2.95.74s1.52,1.19,1.98,2.1.7,1.95.71,3.13v.82c0,1.21-.23,2.26-.7,3.17s-1.13,1.61-2,2.09-1.87.74-3.02.75h-3.54Zm1.69-11.42v10.04h1.78c1.3,0,2.31-.41,3.04-1.21.72-.81,1.09-1.96,1.09-3.46v-.75c0-1.45-.34-2.58-1.02-3.39-.68-.81-1.65-1.21-2.9-1.23h-1.97Z"/>
      <path class="cls-7" d="m146.94,525.09c0-.26.08-.49.24-.67s.4-.27.72-.27.56.09.72.27.25.4.25.67-.08.48-.25.66-.4.26-.72.26-.56-.09-.72-.26-.24-.4-.24-.66Zm1.76,12.03h-1.63v-9.51h1.63v9.51Z"/>
      <path class="cls-7" d="m150.87,532.28c0-.93.18-1.77.55-2.51s.88-1.32,1.53-1.72,1.4-.61,2.24-.61c1.29,0,2.34.45,3.14,1.34s1.2,2.09,1.2,3.58v.11c0,.93-.18,1.76-.53,2.49s-.86,1.31-1.52,1.72-1.42.62-2.27.62c-1.29,0-2.33-.45-3.13-1.34s-1.2-2.08-1.2-3.56v-.11Zm1.63.19c0,1.05.24,1.9.73,2.54s1.14.96,1.96.96,1.48-.32,1.97-.97.73-1.55.73-2.72c0-1.04-.25-1.89-.74-2.54s-1.15-.97-1.97-.97-1.45.32-1.94.96-.74,1.55-.74,2.74Z"/>
      <path class="cls-7" d="m161.17,532.29c0-1.46.35-2.63,1.04-3.52s1.6-1.33,2.72-1.33,2,.38,2.65,1.14v-4.96h1.63v13.5h-1.49l-.08-1.02c-.65.8-1.56,1.2-2.72,1.2s-2-.45-2.69-1.35-1.04-2.08-1.04-3.53v-.12Zm1.63.18c0,1.08.22,1.92.67,2.53s1.06.91,1.85.91c1.03,0,1.78-.46,2.26-1.39v-4.37c-.49-.9-1.23-1.34-2.24-1.34-.8,0-1.42.31-1.86.92s-.67,1.53-.67,2.73Z"/>
      <path class="cls-7" d="m175.66,537.3c-1.29,0-2.34-.42-3.15-1.27s-1.21-1.98-1.21-3.4v-.3c0-.94.18-1.79.54-2.53s.86-1.32,1.51-1.74,1.35-.63,2.1-.63c1.24,0,2.2.41,2.88,1.22s1.03,1.98,1.03,3.5v.68h-6.44c.02.94.3,1.69.82,2.27s1.19.87,2,.87c.57,0,1.06-.12,1.46-.35s.75-.54,1.05-.93l.99.77c-.8,1.22-1.99,1.84-3.59,1.84Zm-.2-8.53c-.66,0-1.21.24-1.65.72s-.72,1.15-.83,2.01h4.76v-.12c-.05-.83-.27-1.47-.67-1.92s-.94-.68-1.62-.68Z"/>
    </g>
    <g>
      <path class="cls-7" d="m423.82,525.7h-4.11v11.42h-1.68v-11.42h-4.1v-1.38h9.9v1.38Z"/>
      <path class="cls-7" d="m429.4,529.07c-.25-.04-.51-.06-.8-.06-1.07,0-1.79.45-2.17,1.36v6.75h-1.63v-9.51h1.58l.03,1.1c.53-.85,1.29-1.28,2.27-1.28.32,0,.56.04.72.12v1.51Z"/>
      <path class="cls-7" d="m436.42,537.12c-.09-.19-.17-.52-.23-1-.76.79-1.66,1.18-2.71,1.18-.94,0-1.71-.26-2.31-.79s-.9-1.2-.9-2.02c0-.99.38-1.76,1.13-2.31s1.81-.82,3.18-.82h1.58v-.75c0-.57-.17-1.02-.51-1.36s-.84-.5-1.5-.5c-.58,0-1.07.15-1.46.44s-.59.65-.59,1.06h-1.63c0-.47.17-.93.51-1.38s.79-.79,1.37-1.05,1.21-.39,1.9-.39c1.1,0,1.95.27,2.58.82s.94,1.3.97,2.26v4.38c0,.87.11,1.57.33,2.08v.14h-1.71Zm-2.7-1.24c.51,0,.99-.13,1.45-.4s.79-.61.99-1.03v-1.95h-1.27c-1.99,0-2.99.58-2.99,1.75,0,.51.17.91.51,1.2s.78.43,1.31.43Z"/>
      <path class="cls-7" d="m441.87,527.61l.05,1.2c.73-.91,1.68-1.37,2.85-1.37,2.01,0,3.02,1.13,3.04,3.4v6.28h-1.63v-6.29c0-.69-.16-1.19-.47-1.52s-.79-.49-1.44-.49c-.53,0-.99.14-1.39.42s-.71.65-.93,1.11v6.78h-1.63v-9.51h1.54Z"/>
      <path class="cls-7" d="m455.8,534.6c0-.44-.17-.78-.5-1.02s-.91-.45-1.73-.63-1.48-.39-1.96-.63-.84-.54-1.07-.88-.35-.74-.35-1.21c0-.78.33-1.44.99-1.98s1.5-.81,2.53-.81c1.08,0,1.95.28,2.62.84s1.01,1.27,1.01,2.13h-1.63c0-.45-.19-.83-.57-1.15s-.85-.48-1.43-.48-1.05.13-1.39.39-.5.6-.5,1.01c0,.39.16.69.47.89s.87.39,1.68.57,1.47.4,1.97.65.88.55,1.12.91.36.79.36,1.3c0,.85-.34,1.53-1.02,2.04s-1.56.77-2.65.77c-.76,0-1.44-.13-2.02-.4s-1.04-.65-1.38-1.13-.5-1.01-.5-1.57h1.63c.03.54.25.98.65,1.3s.94.48,1.61.48c.62,0,1.11-.12,1.48-.37s.56-.58.56-1Z"/>
      <path class="cls-7" d="m459.56,525.09c0-.26.08-.49.24-.67s.4-.27.72-.27.56.09.72.27.25.4.25.67-.08.48-.25.66-.4.26-.72.26-.56-.09-.72-.26-.24-.39-.24-.66Zm1.76,12.03h-1.63v-9.51h1.63v9.51Z"/>
      <path class="cls-7" d="m469.45,534.6c0-.44-.17-.78-.5-1.02s-.91-.45-1.73-.63-1.48-.39-1.96-.63-.84-.54-1.07-.88-.35-.74-.35-1.21c0-.78.33-1.44.99-1.98s1.5-.81,2.53-.81c1.08,0,1.95.28,2.62.84s1.01,1.27,1.01,2.13h-1.63c0-.45-.19-.83-.57-1.15s-.85-.48-1.43-.48-1.05.13-1.39.39-.5.6-.5,1.01c0,.39.16.69.47.89s.87.39,1.68.57,1.47.4,1.97.65.88.55,1.12.91.36.79.36,1.3c0,.85-.34,1.53-1.02,2.04s-1.56.77-2.65.77c-.76,0-1.44-.13-2.02-.4s-1.04-.65-1.38-1.13-.5-1.01-.5-1.57h1.63c.03.54.25.98.65,1.3s.94.48,1.61.48c.62,0,1.11-.12,1.48-.37s.56-.58.56-1Z"/>
      <path class="cls-7" d="m475.4,525.31v2.3h1.78v1.26h-1.78v5.9c0,.38.08.67.24.86.16.19.43.29.81.29.19,0,.45-.04.77-.11v1.31c-.43.12-.84.17-1.25.17-.73,0-1.27-.22-1.64-.66s-.55-1.06-.55-1.87v-5.9h-1.73v-1.26h1.73v-2.3h1.63Z"/>
      <path class="cls-7" d="m478.47,532.28c0-.93.18-1.77.55-2.51s.88-1.32,1.53-1.72,1.4-.61,2.24-.61c1.29,0,2.34.45,3.14,1.35s1.2,2.09,1.2,3.58v.12c0,.93-.18,1.76-.53,2.49s-.86,1.31-1.52,1.72-1.42.62-2.27.62c-1.29,0-2.33-.45-3.13-1.34s-1.2-2.08-1.2-3.56v-.11Zm1.63.19c0,1.05.24,1.9.73,2.54s1.14.96,1.96.96,1.48-.32,1.97-.97.73-1.55.73-2.72c0-1.04-.25-1.89-.74-2.54s-1.15-.97-1.97-.97-1.45.32-1.94.96-.74,1.55-.74,2.74Z"/>
      <path class="cls-7" d="m493.76,529.07c-.25-.04-.51-.06-.8-.06-1.07,0-1.79.45-2.17,1.36v6.75h-1.63v-9.51h1.58l.03,1.1c.53-.85,1.29-1.28,2.27-1.28.32,0,.56.04.72.12v1.51Z"/>
      <path class="cls-7" d="m501.66,532.11v5.01h-1.69v-12.8h4.72c1.4,0,2.5.36,3.29,1.07s1.19,1.66,1.19,2.84c0,1.24-.39,2.2-1.17,2.87s-1.89,1.01-3.33,1.01h-3.01Zm0-1.38h3.03c.9,0,1.59-.21,2.07-.64s.72-1.04.72-1.84-.24-1.37-.72-1.83c-.48-.46-1.14-.7-1.98-.71h-3.13v5.03Z"/>
      <path class="cls-7" d="m521.16,537.12h-1.7l-6.44-9.86v9.86h-1.7v-12.8h1.7l6.46,9.91v-9.91h1.68v12.8Z"/>
      <path class="cls-7" d="m525.84,532.11v5.01h-1.69v-12.8h4.72c1.4,0,2.5.36,3.29,1.07s1.19,1.66,1.19,2.84c0,1.24-.39,2.2-1.17,2.87s-1.89,1.01-3.33,1.01h-3.01Zm0-1.38h3.03c.9,0,1.59-.21,2.07-.64s.72-1.04.72-1.84-.24-1.37-.72-1.83c-.48-.46-1.14-.7-1.98-.71h-3.13v5.03Z"/>
    </g>
    <g>
      <path class="cls-7" d="m581.48,525.7h-4.11v11.42h-1.68v-11.42h-4.1v-1.38h9.9v1.38Z"/>
      <path class="cls-7" d="m587.06,529.07c-.25-.04-.51-.06-.8-.06-1.07,0-1.79.45-2.17,1.36v6.75h-1.63v-9.51h1.58l.03,1.1c.53-.85,1.29-1.27,2.27-1.27.32,0,.56.04.72.12v1.51Z"/>
      <path class="cls-7" d="m594.08,537.12c-.09-.19-.17-.52-.23-1-.76.79-1.66,1.18-2.71,1.18-.94,0-1.71-.27-2.31-.8s-.9-1.2-.9-2.02c0-.99.38-1.76,1.13-2.31s1.81-.82,3.18-.82h1.58v-.75c0-.57-.17-1.02-.51-1.36s-.84-.5-1.5-.5c-.58,0-1.07.15-1.46.44s-.59.65-.59,1.06h-1.63c0-.47.17-.93.51-1.38s.79-.79,1.37-1.05,1.21-.39,1.9-.39c1.1,0,1.95.27,2.58.82s.94,1.3.97,2.26v4.38c0,.87.11,1.57.33,2.08v.14h-1.71Zm-2.7-1.24c.51,0,.99-.13,1.45-.4s.79-.61.99-1.03v-1.95h-1.27c-1.99,0-2.99.58-2.99,1.75,0,.51.17.91.51,1.2s.78.43,1.31.43Z"/>
      <path class="cls-7" d="m599.53,527.61l.05,1.2c.73-.91,1.68-1.37,2.85-1.37,2.01,0,3.02,1.13,3.04,3.4v6.28h-1.63v-6.29c0-.69-.16-1.19-.47-1.52s-.79-.49-1.44-.49c-.53,0-.99.14-1.39.42s-.71.65-.93,1.11v6.78h-1.63v-9.51h1.54Z"/>
      <path class="cls-7" d="m613.47,534.6c0-.44-.17-.78-.5-1.02s-.91-.45-1.73-.63-1.48-.39-1.96-.63-.84-.54-1.07-.88-.35-.74-.35-1.21c0-.78.33-1.44.99-1.98s1.5-.81,2.53-.81c1.08,0,1.95.28,2.62.83s1.01,1.27,1.01,2.14h-1.63c0-.45-.19-.83-.57-1.15s-.85-.48-1.43-.48-1.05.13-1.39.39-.5.59-.5,1.01c0,.39.16.69.47.89s.87.39,1.68.57,1.47.4,1.97.65.88.55,1.12.91.36.79.36,1.3c0,.85-.34,1.53-1.02,2.04s-1.56.77-2.65.77c-.76,0-1.44-.13-2.02-.4s-1.04-.65-1.38-1.13-.5-1.01-.5-1.57h1.63c.03.54.25.98.66,1.3s.94.48,1.61.48c.62,0,1.11-.12,1.48-.37s.56-.58.56-1Z"/>
      <path class="cls-7" d="m617.22,525.09c0-.26.08-.49.24-.67s.4-.27.72-.27.56.09.72.27.25.4.25.67-.08.48-.25.66-.4.26-.72.26-.55-.09-.72-.26-.24-.4-.24-.66Zm1.76,12.03h-1.63v-9.51h1.63v9.51Z"/>
      <path class="cls-7" d="m627.12,534.6c0-.44-.17-.78-.5-1.02s-.91-.45-1.73-.63-1.48-.39-1.96-.63-.84-.54-1.07-.88-.35-.74-.35-1.21c0-.78.33-1.44.99-1.98s1.5-.81,2.53-.81c1.08,0,1.95.28,2.62.83s1.01,1.27,1.01,2.14h-1.63c0-.45-.19-.83-.57-1.15s-.85-.48-1.43-.48-1.05.13-1.39.39-.5.59-.5,1.01c0,.39.16.69.47.89s.87.39,1.68.57,1.47.4,1.97.65.88.55,1.12.91.36.79.36,1.3c0,.85-.34,1.53-1.02,2.04s-1.56.77-2.65.77c-.76,0-1.44-.13-2.02-.4s-1.04-.65-1.38-1.13-.5-1.01-.5-1.57h1.63c.03.54.25.98.66,1.3s.94.48,1.61.48c.62,0,1.11-.12,1.48-.37s.56-.58.56-1Z"/>
      <path class="cls-7" d="m633.07,525.31v2.3h1.78v1.26h-1.78v5.9c0,.38.08.67.24.86s.43.29.81.29c.19,0,.45-.04.77-.11v1.31c-.43.12-.84.17-1.25.17-.73,0-1.27-.22-1.64-.66s-.55-1.06-.55-1.87v-5.9h-1.73v-1.26h1.73v-2.3h1.63Z"/>
      <path class="cls-7" d="m636.13,532.28c0-.93.18-1.77.55-2.51s.88-1.32,1.53-1.72,1.4-.61,2.24-.61c1.29,0,2.34.45,3.14,1.34s1.2,2.09,1.2,3.58v.11c0,.93-.18,1.76-.53,2.49s-.86,1.31-1.52,1.72-1.42.62-2.27.62c-1.29,0-2.33-.45-3.13-1.34s-1.2-2.08-1.2-3.56v-.11Zm1.63.19c0,1.05.25,1.9.73,2.54s1.14.96,1.96.96,1.48-.32,1.97-.97.73-1.55.73-2.72c0-1.04-.25-1.89-.74-2.54s-1.15-.97-1.97-.97-1.45.32-1.94.96-.74,1.55-.74,2.74Z"/>
      <path class="cls-7" d="m651.43,529.07c-.25-.04-.51-.06-.8-.06-1.07,0-1.79.45-2.17,1.36v6.75h-1.63v-9.51h1.58l.03,1.1c.53-.85,1.29-1.27,2.27-1.27.32,0,.56.04.72.12v1.51Z"/>
      <path class="cls-7" d="m667.47,537.12h-1.7l-6.44-9.86v9.86h-1.7v-12.8h1.7l6.46,9.91v-9.91h1.68v12.8Z"/>
      <path class="cls-7" d="m672.15,532.11v5.01h-1.69v-12.8h4.72c1.4,0,2.5.36,3.29,1.07s1.19,1.66,1.19,2.84c0,1.24-.39,2.2-1.16,2.87s-1.89,1.01-3.34,1.01h-3.01Zm0-1.38h3.03c.9,0,1.59-.21,2.07-.64s.72-1.04.72-1.84c0-.76-.24-1.37-.72-1.83s-1.14-.7-1.98-.71h-3.13v5.03Z"/>
      <path class="cls-7" d="m691.65,537.12h-1.7l-6.44-9.86v9.86h-1.7v-12.8h1.7l6.46,9.91v-9.91h1.68v12.8Z"/>
    </g>
    <g>
      <path class="cls-7" d="m904.91,524.32l4.18,10.44,4.18-10.44h2.19v12.8h-1.69v-4.98l.16-5.38-4.2,10.36h-1.29l-4.19-10.34.17,5.35v4.98h-1.69v-12.8h2.18Z"/>
      <path class="cls-7" d="m918.2,525.09c0-.26.08-.49.24-.67s.4-.27.72-.27.56.09.72.27.25.4.25.67-.08.48-.25.66-.4.26-.72.26-.56-.09-.72-.26-.24-.4-.24-.66Zm1.76,12.03h-1.63v-9.51h1.63v9.51Z"/>
      <path class="cls-7" d="m926.37,535.97c.58,0,1.09-.18,1.52-.53s.67-.79.72-1.32h1.54c-.03.54-.22,1.06-.56,1.56s-.81.88-1.38,1.18-1.19.44-1.83.44c-1.29,0-2.33-.43-3.09-1.3s-1.15-2.05-1.15-3.55v-.27c0-.93.17-1.75.51-2.47s.83-1.28,1.46-1.68,1.39-.6,2.25-.6c1.07,0,1.95.32,2.66.96s1.08,1.47,1.13,2.49h-1.54c-.05-.62-.28-1.12-.7-1.52s-.94-.59-1.55-.59c-.83,0-1.47.3-1.92.89s-.68,1.46-.68,2.58v.31c0,1.1.23,1.94.68,2.53s1.1.89,1.93.89Z"/>
      <path class="cls-7" d="m936.58,529.07c-.25-.04-.51-.06-.8-.06-1.07,0-1.79.45-2.17,1.36v6.75h-1.63v-9.51h1.58l.03,1.1c.53-.85,1.29-1.27,2.27-1.27.32,0,.56.04.72.12v1.51Z"/>
      <path class="cls-7" d="m937.46,532.28c0-.93.18-1.77.55-2.51s.88-1.32,1.53-1.72,1.4-.61,2.24-.61c1.29,0,2.34.45,3.14,1.34s1.2,2.09,1.2,3.58v.11c0,.93-.18,1.76-.53,2.49s-.86,1.31-1.52,1.72-1.42.62-2.27.62c-1.29,0-2.33-.45-3.13-1.34s-1.2-2.08-1.2-3.56v-.11Zm1.63.19c0,1.05.24,1.9.73,2.54s1.14.96,1.96.96,1.48-.32,1.97-.97.73-1.55.73-2.72c0-1.04-.25-1.89-.74-2.54s-1.15-.97-1.97-.97-1.45.32-1.94.96-.74,1.55-.74,2.74Z"/>
      <path class="cls-7" d="m956.19,532.47c0,1.45-.33,2.61-.99,3.5s-1.56,1.33-2.69,1.33-2.06-.37-2.72-1.1v4.58h-1.63v-13.17h1.49l.08,1.05c.66-.82,1.58-1.23,2.76-1.23s2.05.43,2.71,1.29,1,2.06,1,3.59v.15Zm-1.63-.18c0-1.07-.23-1.92-.69-2.54s-1.08-.93-1.88-.93c-.98,0-1.72.44-2.21,1.31v4.54c.49.87,1.23,1.3,2.23,1.3.78,0,1.4-.31,1.86-.93s.69-1.54.69-2.75Z"/>
      <path class="cls-7" d="m959.88,528.76c.72-.88,1.66-1.33,2.81-1.33,2.01,0,3.02,1.13,3.04,3.4v6.28h-1.63v-6.29c0-.69-.16-1.19-.47-1.52s-.79-.49-1.44-.49c-.53,0-.99.14-1.39.42s-.71.65-.93,1.11v6.78h-1.63v-13.5h1.63v5.14Z"/>
      <path class="cls-7" d="m967.74,532.28c0-.93.18-1.77.55-2.51s.88-1.32,1.53-1.72,1.4-.61,2.24-.61c1.29,0,2.34.45,3.14,1.34s1.2,2.09,1.2,3.58v.11c0,.93-.18,1.76-.53,2.49s-.86,1.31-1.52,1.72-1.42.62-2.27.62c-1.29,0-2.33-.45-3.13-1.34s-1.2-2.08-1.2-3.56v-.11Zm1.63.19c0,1.05.24,1.9.73,2.54s1.14.96,1.96.96,1.48-.32,1.97-.97.73-1.55.73-2.72c0-1.04-.25-1.89-.74-2.54s-1.15-.97-1.97-.97-1.45.32-1.94.96-.74,1.55-.74,2.74Z"/>
      <path class="cls-7" d="m979.98,527.61l.05,1.2c.73-.91,1.68-1.37,2.85-1.37,2.01,0,3.02,1.13,3.04,3.4v6.28h-1.63v-6.29c0-.69-.16-1.19-.47-1.52s-.79-.49-1.44-.49c-.53,0-.99.14-1.39.42s-.71.65-.93,1.11v6.78h-1.63v-9.51h1.54Z"/>
      <path class="cls-7" d="m992.32,537.3c-1.29,0-2.34-.42-3.15-1.27s-1.21-1.98-1.21-3.4v-.3c0-.94.18-1.79.54-2.53s.86-1.32,1.51-1.74,1.35-.63,2.11-.63c1.24,0,2.2.41,2.88,1.22s1.03,1.98,1.03,3.5v.68h-6.44c.02.94.3,1.69.82,2.27s1.19.87,2,.87c.57,0,1.06-.12,1.46-.35s.75-.54,1.05-.93l.99.77c-.8,1.22-1.99,1.84-3.59,1.84Zm-.2-8.53c-.66,0-1.21.24-1.65.72s-.72,1.15-.83,2.01h4.76v-.12c-.05-.83-.27-1.47-.67-1.92s-.94-.68-1.62-.68Z"/>
    </g>
    <g>
      <path class="cls-7" d="m580.93,126.57v5.01h-1.69v-12.8h4.72c1.4,0,2.5.36,3.29,1.07s1.19,1.66,1.19,2.84c0,1.24-.39,2.2-1.17,2.87s-1.89,1.01-3.33,1.01h-3.01Zm0-1.38h3.03c.9,0,1.59-.21,2.07-.64.48-.43.72-1.04.72-1.84s-.24-1.37-.72-1.83c-.48-.46-1.14-.7-1.98-.71h-3.13v5.03Z"/>
      <path class="cls-7" d="m589.8,126.74c0-.93.18-1.77.55-2.51s.88-1.32,1.53-1.72,1.4-.61,2.24-.61c1.29,0,2.34.45,3.14,1.34s1.2,2.09,1.2,3.58v.11c0,.93-.18,1.76-.53,2.49s-.86,1.31-1.52,1.72-1.42.62-2.27.62c-1.29,0-2.33-.45-3.13-1.34s-1.2-2.08-1.2-3.56v-.11Zm1.63.19c0,1.05.24,1.9.73,2.54s1.14.96,1.96.96,1.48-.32,1.97-.97.73-1.55.73-2.72c0-1.04-.25-1.89-.74-2.54s-1.15-.97-1.97-.97-1.45.32-1.94.96-.74,1.55-.74,2.74Z"/>
      <path class="cls-7" d="m608.92,129.34l1.83-7.27h1.63l-2.77,9.51h-1.32l-2.31-7.21-2.25,7.21h-1.32l-2.76-9.51h1.62l1.87,7.12,2.21-7.12h1.31l2.26,7.27Z"/>
      <path class="cls-7" d="m617.97,131.76c-1.29,0-2.34-.42-3.15-1.27s-1.21-1.98-1.21-3.4v-.3c0-.94.18-1.79.54-2.53s.86-1.32,1.51-1.74,1.35-.63,2.11-.63c1.24,0,2.2.41,2.88,1.22s1.03,1.98,1.03,3.5v.68h-6.44c.02.94.3,1.69.82,2.27s1.19.87,2,.87c.57,0,1.06-.12,1.46-.35s.75-.54,1.05-.93l.99.77c-.8,1.22-1.99,1.84-3.59,1.84Zm-.2-8.53c-.66,0-1.21.24-1.65.72s-.72,1.15-.83,2.01h4.76v-.12c-.05-.83-.27-1.47-.67-1.92s-.94-.68-1.62-.68Z"/>
      <path class="cls-7" d="m628.16,123.53c-.25-.04-.51-.06-.8-.06-1.07,0-1.79.45-2.17,1.36v6.75h-1.63v-9.51h1.58l.03,1.1c.53-.85,1.29-1.27,2.27-1.27.32,0,.56.04.72.12v1.51Z"/>
      <path class="cls-7" d="m638.13,125.88c-1.45-.42-2.5-.93-3.16-1.53s-.99-1.35-.99-2.25c0-1.01.4-1.84,1.21-2.5s1.85-.99,3.14-.99c.88,0,1.66.17,2.35.51s1.22.81,1.6,1.41.57,1.25.57,1.96h-1.7c0-.78-.25-1.39-.74-1.83s-1.19-.67-2.08-.67c-.83,0-1.48.18-1.95.55-.47.37-.7.88-.7,1.53,0,.52.22.96.66,1.33s1.2.69,2.26.99,1.9.63,2.5.99,1.05.78,1.34,1.26.44,1.05.44,1.7c0,1.04-.4,1.87-1.21,2.49s-1.89.94-3.24.94c-.88,0-1.7-.17-2.46-.51s-1.35-.8-1.76-1.38-.62-1.25-.62-2h1.7c0,.77.29,1.38.86,1.83s1.33.67,2.29.67c.89,0,1.57-.18,2.05-.54s.71-.86.71-1.49-.22-1.11-.66-1.45-1.24-.68-2.39-1.02Z"/>
      <path class="cls-7" d="m650.66,130.64c-.63.74-1.56,1.12-2.79,1.12-1.01,0-1.79-.29-2.32-.88s-.8-1.46-.8-2.61v-6.19h1.63v6.14c0,1.44.59,2.16,1.76,2.16,1.24,0,2.07-.46,2.48-1.39v-6.92h1.63v9.51h-1.55l-.04-.94Z"/>
      <path class="cls-7" d="m662.74,126.93c0,1.45-.33,2.61-.99,3.5s-1.56,1.33-2.69,1.33-2.06-.37-2.72-1.1v4.58h-1.63v-13.17h1.49l.08,1.05c.66-.82,1.58-1.23,2.76-1.23s2.05.43,2.71,1.29,1,2.06,1,3.59v.15Zm-1.63-.18c0-1.07-.23-1.92-.69-2.54s-1.08-.93-1.88-.93c-.98,0-1.72.44-2.21,1.31v4.54c.49.87,1.23,1.3,2.23,1.3.78,0,1.4-.31,1.86-.93s.69-1.54.69-2.76Z"/>
      <path class="cls-7" d="m672.84,126.93c0,1.45-.33,2.61-.99,3.5s-1.56,1.33-2.69,1.33-2.06-.37-2.72-1.1v4.58h-1.63v-13.17h1.49l.08,1.05c.66-.82,1.58-1.23,2.76-1.23s2.05.43,2.71,1.29,1,2.06,1,3.59v.15Zm-1.63-.18c0-1.07-.23-1.92-.69-2.54s-1.08-.93-1.88-.93c-.98,0-1.72.44-2.21,1.31v4.54c.49.87,1.23,1.3,2.23,1.3.78,0,1.4-.31,1.86-.93s.69-1.54.69-2.76Z"/>
      <path class="cls-7" d="m676.67,131.58h-1.63v-13.5h1.63v13.5Z"/>
      <path class="cls-7" d="m682.38,129.2l2.21-7.13h1.74l-3.82,10.98c-.59,1.58-1.53,2.37-2.82,2.37l-.31-.03-.61-.11v-1.32l.44.04c.55,0,.98-.11,1.29-.33s.56-.63.76-1.22l.36-.97-3.39-9.4h1.78l2.37,7.13Z"/>
      <path class="cls-7" d="m592.4,147.99c0-1.32.18-2.6.53-3.81s.88-2.33,1.59-3.32,1.43-1.7,2.19-2.11l.33,1.07c-.86.66-1.56,1.66-2.11,3.01s-.85,2.86-.9,4.53v.75c0,2.26.4,4.22,1.23,5.89.5,1,1.09,1.78,1.78,2.34l-.33.99c-.78-.43-1.52-1.16-2.23-2.18-1.38-1.99-2.07-4.37-2.07-7.15Z"/>
      <path class="cls-7" d="m603.28,150.94l3.66-10.56h1.85l-4.75,12.8h-1.49l-4.74-12.8h1.84l3.64,10.56Z"/>
      <path class="cls-7" d="m613.67,152.03c.58,0,1.09-.18,1.52-.53s.67-.79.72-1.32h1.54c-.03.54-.22,1.06-.56,1.56s-.81.88-1.38,1.18-1.19.44-1.83.44c-1.29,0-2.33-.43-3.09-1.3s-1.15-2.05-1.15-3.55v-.27c0-.93.17-1.75.51-2.47s.83-1.28,1.46-1.68,1.39-.6,2.25-.6c1.07,0,1.95.32,2.66.96s1.08,1.47,1.13,2.49h-1.54c-.05-.62-.28-1.12-.7-1.52s-.94-.59-1.55-.59c-.83,0-1.47.3-1.92.89s-.68,1.45-.68,2.58v.31c0,1.1.23,1.94.68,2.53s1.1.89,1.93.89Z"/>
      <path class="cls-7" d="m623.09,152.03c.58,0,1.09-.18,1.52-.53s.67-.79.72-1.32h1.54c-.03.54-.22,1.06-.56,1.56s-.81.88-1.38,1.18-1.19.44-1.83.44c-1.29,0-2.33-.43-3.09-1.3s-1.15-2.05-1.15-3.55v-.27c0-.93.17-1.75.51-2.47s.83-1.28,1.46-1.68,1.39-.6,2.25-.6c1.07,0,1.95.32,2.66.96s1.08,1.47,1.13,2.49h-1.54c-.05-.62-.28-1.12-.7-1.52s-.94-.59-1.55-.59c-.83,0-1.47.3-1.92.89s-.68,1.45-.68,2.58v.31c0,1.1.23,1.94.68,2.53s1.1.89,1.93.89Z"/>
      <path class="cls-7" d="m628.65,155.73l-.92-.63c.55-.77.84-1.56.86-2.37v-1.47h1.59v1.27c0,.59-.15,1.18-.44,1.78s-.65,1.07-1.09,1.42Z"/>
      <path class="cls-7" d="m641.18,150.94l3.66-10.56h1.85l-4.75,12.8h-1.49l-4.74-12.8h1.84l3.64,10.56Z"/>
      <path class="cls-7" d="m647.36,148.35c0-1.46.35-2.63,1.04-3.52s1.6-1.33,2.72-1.33,2,.38,2.65,1.14v-4.96h1.63v13.5h-1.49l-.08-1.02c-.65.8-1.56,1.2-2.72,1.2s-2-.45-2.69-1.35-1.04-2.08-1.04-3.53v-.12Zm1.63.18c0,1.08.22,1.92.67,2.53s1.06.91,1.85.91c1.03,0,1.78-.46,2.26-1.39v-4.37c-.49-.9-1.23-1.34-2.24-1.34-.8,0-1.42.31-1.86.92s-.67,1.53-.67,2.73Z"/>
      <path class="cls-7" d="m657.51,148.35c0-1.46.35-2.63,1.04-3.52s1.6-1.33,2.72-1.33,2,.38,2.65,1.14v-4.96h1.63v13.5h-1.49l-.08-1.02c-.65.8-1.56,1.2-2.72,1.2s-2-.45-2.69-1.35-1.04-2.08-1.04-3.53v-.12Zm1.63.18c0,1.08.22,1.92.67,2.53s1.06.91,1.85.91c1.03,0,1.78-.46,2.26-1.39v-4.37c-.49-.9-1.23-1.34-2.24-1.34-.8,0-1.42.31-1.86.92s-.67,1.53-.67,2.73Z"/>
      <path class="cls-7" d="m671.81,148.07c0,1.31-.17,2.56-.51,3.76s-.87,2.3-1.57,3.32-1.45,1.73-2.22,2.16l-.34-.99c.9-.69,1.63-1.77,2.17-3.22s.83-3.07.84-4.85v-.28c0-1.23-.13-2.37-.39-3.43s-.62-2.01-1.08-2.84-.98-1.49-1.55-1.96l.34-.99c.77.43,1.51,1.14,2.21,2.14s1.22,2.11,1.57,3.31.52,2.5.52,3.88Z"/>
    </g>
    <path class="cls-7" d="m497.82,416.67h-4.31v3.53h5.01v1.07h-6.32v-9.95h6.25v1.07h-4.94v3.21h4.31v1.07Z"/>
    <path class="cls-7" d="m437.47,451.51v-9.95h3.25c1.08,0,1.89.22,2.44.67.54.45.82,1.11.82,1.98,0,.46-.13.88-.4,1.23-.26.36-.62.63-1.08.83.54.15.96.44,1.27.86.31.42.47.92.47,1.51,0,.89-.29,1.59-.87,2.1-.58.51-1.4.77-2.45.77h-3.45Zm1.31-5.71h1.98c.57,0,1.03-.14,1.38-.43.34-.29.52-.68.52-1.17,0-.55-.16-.95-.48-1.2-.32-.25-.8-.37-1.46-.37h-1.94v3.17Zm0,1.05v3.58h2.17c.61,0,1.09-.16,1.45-.47.35-.32.53-.75.53-1.31,0-1.2-.65-1.8-1.95-1.8h-2.19Z"/>
    <path class="cls-7" d="m499.51,493c-.12,1.05-.51,1.86-1.17,2.44-.65.57-1.52.86-2.61.86-1.17,0-2.12-.42-2.83-1.26-.71-.84-1.06-1.97-1.06-3.38v-.96c0-.92.17-1.74.5-2.44s.8-1.24,1.4-1.62c.61-.38,1.31-.56,2.1-.56,1.06,0,1.9.29,2.54.88s1.01,1.41,1.11,2.45h-1.32c-.11-.79-.36-1.37-.74-1.73-.38-.36-.91-.53-1.6-.53-.84,0-1.5.31-1.97.93-.48.62-.71,1.5-.71,2.65v.96c0,1.08.23,1.94.68,2.58.45.64,1.08.96,1.89.96.73,0,1.29-.17,1.68-.5.39-.33.65-.91.78-1.73h1.32Z"/>
    <path class="cls-7" d="m657.91,418.12c-.12,1.05-.51,1.86-1.17,2.44-.65.57-1.52.86-2.61.86-1.17,0-2.12-.42-2.83-1.26-.71-.84-1.06-1.97-1.06-3.38v-.96c0-.92.17-1.74.5-2.44s.8-1.24,1.4-1.62c.61-.38,1.31-.56,2.1-.56,1.06,0,1.9.29,2.54.88s1.01,1.41,1.11,2.45h-1.32c-.11-.79-.36-1.37-.74-1.73-.38-.36-.91-.53-1.6-.53-.84,0-1.5.31-1.97.93-.48.62-.71,1.5-.71,2.65v.96c0,1.08.23,1.94.68,2.58.45.64,1.08.96,1.89.96.73,0,1.29-.17,1.68-.5.39-.33.65-.91.78-1.73h1.32Z"/>
    <path class="cls-7" d="m595.87,451.51v-9.95h3.25c1.08,0,1.89.22,2.44.67s.82,1.11.82,1.98c0,.46-.13.88-.4,1.23s-.62.63-1.08.83c.54.15.96.44,1.28.86.31.42.47.92.47,1.51,0,.89-.29,1.59-.87,2.1-.58.51-1.4.77-2.45.77h-3.45Zm1.31-5.71h1.98c.57,0,1.03-.14,1.38-.43.34-.29.52-.68.52-1.17,0-.55-.16-.95-.48-1.2s-.8-.37-1.46-.37h-1.94v3.17Zm0,1.05v3.58h2.16c.61,0,1.09-.16,1.45-.47s.53-.75.53-1.31c0-1.2-.65-1.8-1.95-1.8h-2.19Z"/>
    <path class="cls-7" d="m656.22,491.55h-4.31v3.53h5.01v1.07h-6.32v-9.95h6.25v1.07h-4.94v3.21h4.31v1.07Z"/>
  </g>
  <g id="Symbols">
    <line class="cls-5" x1="744.48" y1="266.4" x2="787.68" y2="266.4"/>
    <line class="cls-5" x1="794.88" y1="266.4" x2="838.08" y2="266.4"/>
    <line class="cls-5" x1="584.64" y1="266.4" x2="627.84" y2="266.4"/>
    <line class="cls-5" x1="635.04" y1="266.4" x2="678.24" y2="266.4"/>
    <line class="cls-5" x1="619.2" y1="260.64" x2="624.96" y2="260.64"/>
    <line class="cls-5" x1="622.08" y1="257.76" x2="622.08" y2="263.52"/>
    <line class="cls-5" x1="257.76" y1="453.6" x2="372.96" y2="453.6"/>
    <g>
      <line class="cls-4" x1="324.25" y1="434.88" x2="337.83" y2="420.9"/>
      <polygon class="cls-7" points="339.03 426.76 348.34 410.1 331.94 419.88 339.03 426.76"/>
    </g>
    <g>
      <line class="cls-4" x1="313.92" y1="424.84" x2="327.51" y2="410.87"/>
      <polygon class="cls-7" points="328.7 416.73 338.01 400.06 321.61 409.84 328.7 416.73"/>
    </g>
    <polygon class="cls-5" points="174.24 453.6 156.14 463.68 138.03 473.76 138.03 453.6 138.03 433.44 156.14 443.52 174.24 453.6"/>
    <line class="cls-5" x1="99.36" y1="453.6" x2="214.56" y2="453.6"/>
    <line class="cls-5" x1="174.24" y1="473.76" x2="174.24" y2="433.44"/>
    <circle class="cls-5" cx="479.52" cy="453.6" r="31.68"/>
    <line class="cls-5" x1="436.32" y1="453.6" x2="465.12" y2="453.6"/>
    <line class="cls-5" x1="465.12" y1="434.88" x2="465.12" y2="472.32"/>
    <line class="cls-5" x1="486.72" y1="410.4" x2="486.72" y2="427.68"/>
    <line class="cls-5" x1="486.72" y1="479.52" x2="486.72" y2="496.8"/>
    <g>
      <line class="cls-3" x1="475.17" y1="437.69" x2="486.72" y2="427.68"/>
      <polygon class="cls-7" points="480.27 439.04 465.12 446.4 474.56 432.45 480.27 439.04"/>
    </g>
    <line class="cls-5" x1="465.12" y1="460.8" x2="486.72" y2="479.52"/>
    <circle class="cls-5" cx="637.92" cy="453.6" r="31.68"/>
    <line class="cls-5" x1="594.72" y1="453.6" x2="623.52" y2="453.6"/>
    <line class="cls-5" x1="623.52" y1="472.32" x2="623.52" y2="434.88"/>
    <g>
      <line class="cls-3" x1="623.52" y1="460.8" x2="635.07" y2="470.81"/>
      <polygon class="cls-7" points="629.97 472.16 645.12 479.52 635.68 465.57 629.97 472.16"/>
    </g>
    <line class="cls-5" x1="623.52" y1="446.4" x2="645.12" y2="427.68"/>
    <line class="cls-5" x1="645.12" y1="410.4" x2="645.12" y2="427.68"/>
    <line class="cls-5" x1="645.12" y1="479.52" x2="645.12" y2="496.8"/>
    <g>
      <circle class="cls-3" cx="956.16" cy="453.6" r="21.6"/>
      <line class="cls-1" x1="979.2" y1="430.56" x2="979.2" y2="476.64"/>
      <line class="cls-3" x1="918.72" y1="468" x2="940.32" y2="468"/>
      <line class="cls-3" x1="918.72" y1="439.2" x2="940.32" y2="439.2"/>
    </g>
    <g>
      <line class="cls-5" x1="936" y1="79.2" x2="905.76" y2="79.2"/>
      <line class="cls-5" x1="936" y1="54.72" x2="936" y2="103.68"/>
      <line class="cls-5" x1="953.28" y1="54.72" x2="953.28" y2="103.68"/>
      <line class="cls-5" x1="944.64" y1="70.56" x2="944.64" y2="87.84"/>
      <line class="cls-5" x1="961.92" y1="70.56" x2="961.92" y2="87.84"/>
      <line class="cls-5" x1="930.24" y1="60.48" x2="930.24" y2="54.72"/>
      <line class="cls-5" x1="927.36" y1="57.6" x2="933.12" y2="57.6"/>
      <line class="cls-5" x1="964.8" y1="57.6" x2="970.56" y2="57.6"/>
      <line class="cls-5" x1="992.16" y1="79.2" x2="961.92" y2="79.2"/>
    </g>
    <g>
      <rect class="cls-5" x="120.96" y="254.88" width="72" height="23.04"/>
      <line class="cls-5" x1="92.16" y1="266.4" x2="120.96" y2="266.4"/>
      <line class="cls-5" x1="192.96" y1="266.4" x2="221.76" y2="266.4"/>
    </g>
    <g>
      <rect class="cls-5" x="279.36" y="254.88" width="72" height="23.04"/>
      <g>
        <line class="cls-6" x1="315.36" y1="226.08" x2="315.36" y2="241.58"/>
        <polygon class="cls-7" points="311 238.61 315.36 254.88 319.72 238.61 311 238.61"/>
      </g>
      <line class="cls-6" x1="380.16" y1="226.08" x2="315.36" y2="226.08"/>
      <line class="cls-5" x1="250.56" y1="266.4" x2="279.36" y2="266.4"/>
      <line class="cls-5" x1="351.36" y1="266.4" x2="380.16" y2="266.4"/>
    </g>
    <g>
      <line class="cls-4" x1="500.87" y1="212.86" x2="487.29" y2="226.84"/>
      <polygon class="cls-7" points="486.09 220.98 476.78 237.64 493.18 227.87 486.09 220.98"/>
    </g>
    <g>
      <line class="cls-4" x1="511.2" y1="222.9" x2="497.61" y2="236.88"/>
      <polygon class="cls-7" points="496.42 231.01 487.11 247.68 503.51 237.9 496.42 231.01"/>
    </g>
    <rect class="cls-5" x="437.76" y="254.88" width="72" height="23.04"/>
    <line class="cls-5" x1="408.96" y1="266.4" x2="437.76" y2="266.4"/>
    <line class="cls-5" x1="509.76" y1="266.4" x2="538.56" y2="266.4"/>
    <g>
      <line class="cls-6" x1="790.56" y1="61.2" x2="790.56" y2="79.92"/>
      <polygon class="cls-6" points="776.16 79.92 804.96 79.92 790.56 97.2 776.16 79.92"/>
    </g>
    <g>
      <line class="cls-6" x1="632.16" y1="99.36" x2="632.16" y2="60.84"/>
      <path class="cls-7" d="m639.36,71.1c-.35.22-.81.12-1.04-.23l-6.17-9.68-6.17,9.68c-.22.35-.69.45-1.04.23s-.45-.69-.23-1.04l6.8-10.68c.14-.22.38-.35.63-.35.26,0,.5.13.63.35l6.8,10.68c.08.13.12.27.12.4,0,.25-.12.49-.35.63Z"/>
    </g>
    <g>
      <rect class="cls-5" x="761.76" y="419.04" width="28.8" height="69.12"/>
      <polyline class="cls-5" points="790.56 419.04 819.36 396 819.36 511.2 790.56 488.16"/>
    </g>
    <line class="cls-5" x1="128.16" y1="79.2" x2="185.76" y2="79.2"/>
    <g>
      <line class="cls-5" x1="279.36" y1="79.2" x2="351.36" y2="79.2"/>
      <line class="cls-5" x1="293.76" y1="79.2" x2="293.76" y2="93.6"/>
      <line class="cls-5" x1="322.56" y1="64.8" x2="322.56" y2="108"/>
      <path class="cls-7" d="m293.76,79.15s.05.02.05.05-.02.05-.05.05-.05-.02-.05-.05.02-.05.05-.05m0-2.83c-1.59,0-2.88,1.29-2.88,2.88s1.29,2.88,2.88,2.88,2.88-1.29,2.88-2.88-1.29-2.88-2.88-2.88h0Z"/>
      <path class="cls-7" d="m322.56,79.15s.05.02.05.05-.02.05-.05.05-.05-.02-.05-.05.02-.05.05-.05m0-2.83c-1.59,0-2.88,1.29-2.88,2.88s1.29,2.88,2.88,2.88,2.88-1.29,2.88-2.88-1.29-2.88-2.88-2.88h0Z"/>
    </g>
    <line class="cls-5" x1="452.16" y1="79.2" x2="495.36" y2="79.2"/>
    <line class="cls-2" x1="627.84" y1="240.48" x2="627.84" y2="292.32"/>
    <line class="cls-2" x1="635.04" y1="240.48" x2="635.04" y2="292.32"/>
    <line class="cls-2" x1="787.68" y1="240.48" x2="787.68" y2="292.32"/>
    <line class="cls-2" x1="794.88" y1="240.48" x2="794.88" y2="292.32"/>
    <line class="cls-3" x1="740.16" y1="470.88" x2="761.76" y2="470.88"/>
    <line class="cls-3" x1="740.16" y1="436.32" x2="761.76" y2="436.32"/>
    <polygon class="cls-5" points="335.73 453.6 317.62 463.68 299.52 473.76 299.52 453.6 299.52 433.44 317.62 443.52 335.73 453.6"/>
    <line class="cls-5" x1="335.73" y1="473.76" x2="335.73" y2="433.44"/>
    <path class="cls-5" d="m466.56,56.16v17.28c3.18,0,5.76,2.58,5.76,5.76s-2.58,5.76-5.76,5.76v17.28"/>
  </g>
</svg>