<?xml version="1.0" encoding="UTF-8"?><svg id="Ebene_1" xmlns="http://www.w3.org/2000/svg" viewBox="0 0 1080 600.48"><defs><style>.cls-1{letter-spacing:0em;}.cls-2{letter-spacing:-.04em;}.cls-3,.cls-4{fill:#cad2d9;}.cls-5{fill:#878787;}.cls-6{fill:#313230;}.cls-7{letter-spacing:-.02em;}.cls-8{stroke-dasharray:0 0 1.93 4.82;}.cls-8,.cls-9,.cls-10,.cls-11,.cls-12,.cls-13,.cls-14,.cls-15,.cls-16{fill:none;stroke:#cad2d9;stroke-miterlimit:10;}.cls-9{stroke-width:.75px;}.cls-10{stroke-width:.75px;}.cls-11{stroke-width:2px;}.cls-12{stroke-width:2px;}.cls-17{letter-spacing:-.03em;}.cls-14{stroke-dasharray:0 0 1.97 4.92;}.cls-18{letter-spacing:-.02em;}.cls-4{font-family:Roboto-Regular, Roboto;font-size:18px;}.cls-15{stroke-dasharray:0 0 2.03 5.09;}.cls-19{letter-spacing:0em;}.cls-16{stroke-dasharray:0 0 2.06 5.15;}</style></defs><rect class="cls-6" x="764.64" y="178.56" width="86.4" height="164.16"/><rect class="cls-6" x="721.44" y="288" width="86.4" height="162.72"/><rect class="cls-6" x="267.84" y="178.56" width="87.84" height="80.64"/><rect class="cls-6" x="267.84" y="368.64" width="87.84" height="82.08"/><text class="cls-4" transform="translate(283.02 418.14)"><tspan class="cls-17" x="0" y="0">L</tspan><tspan x="9.11" y="0">OW (0)</tspan></text><text class="cls-4" transform="translate(282.5 225.18)"><tspan x="0" y="0">HIGH (1)</tspan></text><line class="cls-11" x1="267.84" y1="178.56" x2="267.84" y2="450.72"/><line class="cls-12" x1="253.68" y1="450.72" x2="282.48" y2="450.72"/><g><line class="cls-13" x1="267.84" y1="178.56" x2="268.84" y2="178.56"/><line class="cls-8" x1="273.66" y1="178.56" x2="352.27" y2="178.56"/><line class="cls-13" x1="354.68" y1="178.56" x2="355.68" y2="178.56"/></g><text class="cls-4" transform="translate(275.32 318.78)"><tspan x="0" y="0">Undefined</tspan></text><g><line class="cls-10" x1="312.48" y1="362" x2="312.48" y2="322.56"/><polygon class="cls-3" points="314.66 360.51 312.48 368.64 310.3 360.51 314.66 360.51"/></g><text class="cls-4" transform="translate(201.95 184.86)"><tspan x="0" y="0">V</tspan></text><text class="cls-4" transform="translate(213.4 190.85) scale(.58)"><tspan x="0" y="0">DD</tspan></text><text class="cls-4" transform="translate(204.43 457.02)"><tspan x="0" y="0">0 V</tspan></text><text class="cls-4" transform="translate(187.25 374.94)"><tspan x="0" y="0">0.3 V</tspan></text><text class="cls-4" transform="translate(228.11 380.93) scale(.58)"><tspan x="0" y="0">DD</tspan></text><text class="cls-4" transform="translate(189.29 265.5)"><tspan x="0" y="0">0.7 V</tspan></text><text class="cls-4" transform="translate(230.15 271.49) scale(.58)"><tspan x="0" y="0">DD</tspan></text><g><line class="cls-9" x1="355.68" y1="444.06" x2="355.68" y2="375.3"/><polygon class="cls-3" points="357.86 442.58 355.68 450.72 353.5 442.58 357.86 442.58"/><polygon class="cls-3" points="357.86 376.78 355.68 368.64 353.5 376.78 357.86 376.78"/></g><text class="cls-4" transform="translate(368.85 374.94)"><tspan x="0" y="0">V</tspan></text><text class="cls-4" transform="translate(380.3 380.93) scale(.58)"><tspan x="0" y="0">IL</tspan></text><text class="cls-4" transform="translate(367.01 266.94)"><tspan x="0" y="0">V</tspan></text><text class="cls-4" transform="translate(378.47 272.93) scale(.58)"><tspan x="0" y="0">IH</tspan></text><line class="cls-12" x1="253.44" y1="368.64" x2="282.24" y2="368.64"/><line class="cls-12" x1="253.44" y1="259.2" x2="282.24" y2="259.2"/><line class="cls-12" x1="253.44" y1="178.56" x2="282.24" y2="178.56"/><g><line class="cls-13" x1="267.84" y1="259.2" x2="268.84" y2="259.2"/><line class="cls-8" x1="273.66" y1="259.2" x2="352.27" y2="259.2"/><line class="cls-13" x1="354.68" y1="259.2" x2="355.68" y2="259.2"/></g><g><line class="cls-13" x1="267.84" y1="368.64" x2="268.84" y2="368.64"/><line class="cls-8" x1="273.66" y1="368.64" x2="352.27" y2="368.64"/><line class="cls-13" x1="354.68" y1="368.64" x2="355.68" y2="368.64"/></g><g><line class="cls-13" x1="267.84" y1="450.72" x2="268.84" y2="450.72"/><line class="cls-8" x1="273.66" y1="450.72" x2="352.27" y2="450.72"/><line class="cls-13" x1="354.68" y1="450.72" x2="355.68" y2="450.72"/></g><g><line class="cls-10" x1="312.48" y1="265.84" x2="312.48" y2="305.28"/><polygon class="cls-3" points="310.3 267.33 312.48 259.2 314.66 267.33 310.3 267.33"/></g><g><line class="cls-9" x1="355.68" y1="185.21" x2="355.68" y2="252.55"/><polygon class="cls-3" points="353.5 186.7 355.68 178.56 357.86 186.7 353.5 186.7"/><polygon class="cls-3" points="353.5 251.06 355.68 259.2 357.86 251.06 353.5 251.06"/></g><line class="cls-11" x1="721.44" y1="178.56" x2="721.44" y2="450.72"/><line class="cls-12" x1="707.28" y1="450.72" x2="736.08" y2="450.72"/><g><line class="cls-13" x1="721.44" y1="178.56" x2="722.44" y2="178.56"/><line class="cls-15" x1="727.53" y1="178.56" x2="846.06" y2="178.56"/><line class="cls-13" x1="848.6" y1="178.56" x2="849.6" y2="178.56"/></g><line class="cls-12" x1="707.04" y1="342.72" x2="735.84" y2="342.72"/><line class="cls-12" x1="707.04" y1="178.56" x2="735.84" y2="178.56"/><rect class="cls-5" x="764.64" y="288" width="43.2" height="54.72"/><g><line class="cls-13" x1="721.44" y1="288" x2="722.44" y2="288"/><line class="cls-14" x1="727.36" y1="288" x2="876.38" y2="288"/><line class="cls-13" x1="878.84" y1="288" x2="879.84" y2="288"/></g><g><line class="cls-13" x1="721.44" y1="342.72" x2="722.44" y2="342.72"/><line class="cls-14" x1="727.36" y1="342.72" x2="876.38" y2="342.72"/><line class="cls-13" x1="878.84" y1="342.72" x2="879.84" y2="342.72"/></g><g><line class="cls-13" x1="721.44" y1="450.72" x2="722.44" y2="450.72"/><line class="cls-16" x1="727.59" y1="450.72" x2="804.27" y2="450.72"/><line class="cls-13" x1="806.84" y1="450.72" x2="807.84" y2="450.72"/></g><line class="cls-12" x1="707.04" y1="288" x2="735.84" y2="288"/><text class="cls-4" transform="translate(670.27 457.02)"><tspan x="0" y="0">0 V</tspan></text><text class="cls-4" transform="translate(674.3 349.02)"><tspan x="0" y="0">V</tspan></text><text class="cls-4" transform="translate(685.75 355.01) scale(.58)"><tspan x="0" y="0">N</tspan></text><text class="cls-4" transform="translate(672.8 294.3)"><tspan x="0" y="0">V</tspan></text><text class="cls-4" transform="translate(684.26 300.29) scale(.58)"><tspan x="0" y="0">P</tspan></text><text class="cls-4" transform="translate(668.51 186.3)"><tspan x="0" y="0">V</tspan></text><text class="cls-4" transform="translate(679.97 192.29) scale(.58)"><tspan x="0" y="0">DD</tspan></text><g><line class="cls-9" x1="807.84" y1="444.06" x2="807.84" y2="294.65"/><polygon class="cls-3" points="810.02 442.58 807.84 450.72 805.66 442.58 810.02 442.58"/><polygon class="cls-3" points="810.02 296.14 807.84 288 805.66 296.14 810.02 296.14"/></g><g><line class="cls-9" x1="851.04" y1="336.06" x2="851.04" y2="185.21"/><polygon class="cls-3" points="853.22 334.58 851.04 342.72 848.86 334.58 853.22 334.58"/><polygon class="cls-3" points="853.22 186.7 851.04 178.56 848.86 186.7 853.22 186.7"/></g><g><line class="cls-9" x1="879.84" y1="281.34" x2="879.84" y2="262.08"/><polygon class="cls-3" points="882.02 279.86 879.84 288 877.66 279.86 882.02 279.86"/></g><text class="cls-4" transform="translate(865.74 321.66)"><tspan x="0" y="0">Hyste</tspan><tspan class="cls-1" x="46.05" y="0">r</tspan><tspan x="51.97" y="0">esis </tspan><tspan class="cls-7" x="88.89" y="0">V</tspan><tspan x="99.94" y="0">oltage</tspan></text><text class="cls-4" transform="translate(364.23 45.18)"><tspan x="0" y="0">Common CMOS Input </tspan><tspan class="cls-7" x="178.31" y="0">V</tspan><tspan x="189.36" y="0">oltage L</tspan><tspan class="cls-19" x="253.44" y="0">ev</tspan><tspan x="271.47" y="0">els</tspan></text><text class="cls-4" transform="translate(240.53 497.34)"><tspan x="0" y="0">Without Hyste</tspan><tspan class="cls-1" x="112.7" y="0">r</tspan><tspan x="118.63" y="0">esis</tspan></text><text class="cls-4" transform="translate(735.18 374.94)"><tspan class="cls-17" x="0" y="0">L</tspan><tspan x="9.11" y="0">OW (0)</tspan></text><text class="cls-4" transform="translate(775.94 268.38)"><tspan x="0" y="0">HIGH (1)</tspan></text><text/><text class="cls-4" transform="translate(660.31 497.34)"><tspan x="0" y="0">Schmitt</tspan><tspan class="cls-18" x="61.92" y="0"> </tspan><tspan class="cls-2" x="66.02" y="0">T</tspan><tspan x="76.1" y="0">rigger With Hyste</tspan><tspan class="cls-1" x="213.48" y="0">r</tspan><tspan x="219.4" y="0">esis</tspan></text><g><line class="cls-9" x1="879.84" y1="349.37" x2="879.84" y2="368.64"/><polygon class="cls-3" points="877.66 350.86 879.84 342.72 882.02 350.86 877.66 350.86"/></g></svg>