<?xml version="1.0" encoding="UTF-8"?><svg xmlns="http://www.w3.org/2000/svg" viewBox="0 0 1080 600.48"><defs><style>.cls-1{letter-spacing:0em;}.cls-2{letter-spacing:0em;}.cls-3{letter-spacing:0em;}.cls-4{letter-spacing:0em;}.cls-5,.cls-6,.cls-7{fill:#cad1d8;}.cls-8{letter-spacing:-.02em;}.cls-9{letter-spacing:0em;}.cls-10{stroke-width:1.42px;}.cls-10,.cls-11,.cls-12,.cls-13{fill:none;stroke:#cad1d8;stroke-miterlimit:10;}.cls-14{letter-spacing:0em;}.cls-11{stroke-width:2px;}.cls-12{stroke-width:2px;}.cls-15{letter-spacing:-.01em;}.cls-16{letter-spacing:0em;}.cls-17{letter-spacing:0em;}.cls-6{font-size:12px;}.cls-6,.cls-7{font-family:MyriadPro-Regular, 'Myriad Pro';}.cls-18{letter-spacing:0em;}.cls-13{stroke-width:1.98px;}.cls-19{letter-spacing:-.01em;}.cls-7{font-size:18px;}</style></defs><g id="Ebene_3"><line class="cls-11" x1="436.32" y1="226.08" x2="465.12" y2="226.08"/><line class="cls-11" x1="444.96" y1="230.4" x2="456.48" y2="230.4"/><line class="cls-11" x1="450.72" y1="269.28" x2="450.72" y2="230.4"/><line class="cls-11" x1="450.72" y1="269.28" x2="623.52" y2="269.28"/><line class="cls-13" x1="623.52" y1="154.08" x2="623.52" y2="269.28"/><rect class="cls-13" x="443.52" y="168.48" width="14.4" height="43.2"/><g><g><polygon class="cls-13" points="623.52 218.88 631.92 204.48 615.12 204.48 623.52 218.88"/><line class="cls-13" x1="613.44" y1="220.32" x2="633.6" y2="220.32"/></g><g><line class="cls-10" x1="637.02" y1="216.93" x2="630.72" y2="211.68"/><polygon class="cls-5" points="637.9 214.9 639.36 218.88 635.18 218.16 637.9 214.9"/></g><g><line class="cls-10" x1="641.34" y1="211.17" x2="635.04" y2="205.92"/><polygon class="cls-5" points="642.22 209.14 643.68 213.12 639.5 212.4 642.22 209.14"/></g></g><line class="cls-13" x1="450.72" y1="154.08" x2="479.52" y2="154.08"/><line class="cls-13" x1="508.32" y1="154.08" x2="551.52" y2="154.08"/><line class="cls-13" x1="580.32" y1="154.08" x2="623.52" y2="154.08"/><line class="cls-11" x1="479.52" y1="154.08" x2="504" y2="142.56"/><line class="cls-11" x1="551.52" y1="154.08" x2="576" y2="142.56"/><line class="cls-11" x1="709.92" y1="236.16" x2="738.72" y2="236.16"/><line class="cls-11" x1="718.56" y1="240.48" x2="730.08" y2="240.48"/><line class="cls-11" x1="724.32" y1="279.36" x2="724.32" y2="240.48"/><line class="cls-11" x1="724.32" y1="279.36" x2="897.12" y2="279.36"/><line class="cls-13" x1="897.12" y1="164.16" x2="897.12" y2="279.36"/><rect class="cls-13" x="717.12" y="178.56" width="14.4" height="43.2"/><g><g><polygon class="cls-13" points="897.12 228.96 905.52 214.56 888.72 214.56 897.12 228.96"/><line class="cls-13" x1="887.04" y1="230.4" x2="907.2" y2="230.4"/></g><g><line class="cls-10" x1="910.62" y1="227.01" x2="904.32" y2="221.76"/><polygon class="cls-5" points="911.5 224.98 912.96 228.96 908.78 228.24 911.5 224.98"/></g><g><line class="cls-10" x1="914.94" y1="221.25" x2="908.64" y2="216"/><polygon class="cls-5" points="915.82 219.22 917.28 223.2 913.1 222.48 915.82 219.22"/></g></g><line class="cls-13" x1="724.32" y1="164.16" x2="753.12" y2="164.16"/><line class="cls-13" x1="853.92" y1="164.16" x2="897.12" y2="164.16"/><line class="cls-11" x1="789.12" y1="192.96" x2="813.6" y2="181.44"/><line class="cls-12" x1="753.12" y1="164.16" x2="753.12" y2="192.96"/><line class="cls-12" x1="753.12" y1="135.36" x2="753.12" y2="164.16"/><line class="cls-12" x1="753.12" y1="192.96" x2="789.12" y2="192.96"/><line class="cls-12" x1="817.92" y1="192.96" x2="853.92" y2="192.96"/><line class="cls-12" x1="853.92" y1="135.36" x2="853.92" y2="192.96"/><line class="cls-11" x1="789.12" y1="135.36" x2="813.6" y2="123.84"/><line class="cls-12" x1="753.12" y1="135.36" x2="789.12" y2="135.36"/><line class="cls-12" x1="817.92" y1="135.36" x2="853.92" y2="135.36"/><line class="cls-13" x1="203.04" y1="168.48" x2="203.04" y2="154.08"/><line class="cls-11" x1="188.64" y1="226.08" x2="217.44" y2="226.08"/><line class="cls-11" x1="197.28" y1="230.4" x2="208.8" y2="230.4"/><line class="cls-11" x1="203.04" y1="269.28" x2="203.04" y2="230.4"/><line class="cls-11" x1="203.04" y1="269.28" x2="303.84" y2="269.28"/><line class="cls-13" x1="303.84" y1="154.08" x2="303.84" y2="269.28"/><rect class="cls-13" x="195.84" y="168.48" width="14.4" height="43.2"/><g><g><polygon class="cls-13" points="303.84 218.88 312.24 204.48 295.44 204.48 303.84 218.88"/><line class="cls-13" x1="293.76" y1="220.32" x2="313.92" y2="220.32"/></g><g><line class="cls-10" x1="317.34" y1="216.93" x2="311.04" y2="211.68"/><polygon class="cls-5" points="318.22 214.9 319.68 218.88 315.5 218.16 318.22 214.9"/></g><g><line class="cls-10" x1="321.66" y1="211.17" x2="315.36" y2="205.92"/><polygon class="cls-5" points="322.54 209.14 324 213.12 319.82 212.4 322.54 209.14"/></g></g><line class="cls-13" x1="203.04" y1="154.08" x2="231.84" y2="154.08"/><line class="cls-13" x1="260.64" y1="154.08" x2="303.84" y2="154.08"/><line class="cls-11" x1="231.84" y1="154.08" x2="256.32" y2="142.56"/><line class="cls-11" x1="714.24" y1="521.28" x2="743.04" y2="521.28"/><line class="cls-11" x1="722.88" y1="525.6" x2="734.4" y2="525.6"/><line class="cls-11" x1="728.64" y1="564.48" x2="728.64" y2="525.6"/><line class="cls-11" x1="728.64" y1="564.48" x2="901.44" y2="564.48"/><line class="cls-13" x1="901.44" y1="449.28" x2="901.44" y2="564.48"/><rect class="cls-13" x="721.44" y="463.68" width="14.4" height="43.2"/><g><g><polygon class="cls-13" points="901.44 514.08 909.84 499.68 893.04 499.68 901.44 514.08"/><line class="cls-13" x1="891.36" y1="515.52" x2="911.52" y2="515.52"/></g><g><line class="cls-10" x1="914.94" y1="512.13" x2="908.64" y2="506.88"/><polygon class="cls-5" points="915.82 510.1 917.28 514.08 913.1 513.36 915.82 510.1"/></g><g><line class="cls-10" x1="919.26" y1="506.37" x2="912.96" y2="501.12"/><polygon class="cls-5" points="920.14 504.34 921.6 508.32 917.42 507.6 920.14 504.34"/></g></g><line class="cls-13" x1="728.64" y1="449.28" x2="858.24" y2="449.28"/><line class="cls-13" x1="858.24" y1="449.28" x2="901.44" y2="449.28"/><line class="cls-11" x1="840.96" y1="521.28" x2="829.44" y2="496.8"/><line class="cls-12" x1="840.96" y1="564.48" x2="840.96" y2="521.28"/><line class="cls-12" x1="840.96" y1="492.48" x2="840.96" y2="449.28"/><line class="cls-11" x1="783.36" y1="521.28" x2="771.84" y2="496.8"/><line class="cls-12" x1="783.36" y1="564.48" x2="783.36" y2="521.28"/><line class="cls-12" x1="783.36" y1="492.48" x2="783.36" y2="449.28"/><line class="cls-11" x1="162.72" y1="521.28" x2="191.52" y2="521.28"/><line class="cls-11" x1="171.36" y1="525.6" x2="182.88" y2="525.6"/><line class="cls-11" x1="177.12" y1="564.48" x2="177.12" y2="525.6"/><line class="cls-11" x1="177.12" y1="564.48" x2="326.88" y2="564.48"/><line class="cls-13" x1="326.88" y1="449.28" x2="326.88" y2="564.48"/><g><g><polygon class="cls-13" points="326.88 514.08 335.28 499.68 318.48 499.68 326.88 514.08"/><line class="cls-13" x1="316.8" y1="515.52" x2="336.96" y2="515.52"/></g><g><line class="cls-10" x1="340.38" y1="512.13" x2="334.08" y2="506.88"/><polygon class="cls-5" points="341.26 510.1 342.72 514.08 338.54 513.36 341.26 510.1"/></g><g><line class="cls-10" x1="344.7" y1="506.37" x2="338.4" y2="501.12"/><polygon class="cls-5" points="345.58 504.34 347.04 508.32 342.86 507.6 345.58 504.34"/></g></g><line class="cls-13" x1="177.12" y1="449.28" x2="289.44" y2="449.28"/><line class="cls-13" x1="283.68" y1="449.28" x2="326.88" y2="449.28"/><line class="cls-11" x1="253.44" y1="521.28" x2="241.92" y2="496.8"/><line class="cls-12" x1="253.44" y1="540" x2="253.44" y2="521.28"/><line class="cls-12" x1="253.44" y1="492.48" x2="253.44" y2="473.76"/><line class="cls-12" x1="253.44" y1="540" x2="253.44" y2="564.48"/><line class="cls-12" x1="253.44" y1="473.76" x2="253.44" y2="449.28"/><rect class="cls-13" x="169.92" y="463.68" width="14.4" height="43.2" transform="translate(354.24 970.56) rotate(180)"/><line class="cls-11" x1="439.2" y1="521.28" x2="468" y2="521.28"/><line class="cls-11" x1="447.84" y1="525.6" x2="459.36" y2="525.6"/><line class="cls-11" x1="453.6" y1="564.48" x2="453.6" y2="525.6"/><line class="cls-11" x1="453.6" y1="564.48" x2="626.4" y2="564.48"/><line class="cls-13" x1="626.4" y1="449.28" x2="626.4" y2="564.48"/><g><g><polygon class="cls-13" points="626.4 514.08 634.8 499.68 618 499.68 626.4 514.08"/><line class="cls-13" x1="616.32" y1="515.52" x2="636.48" y2="515.52"/></g><g><line class="cls-10" x1="639.9" y1="512.13" x2="633.6" y2="506.88"/><polygon class="cls-5" points="640.78 510.1 642.24 514.08 638.06 513.36 640.78 510.1"/></g><g><line class="cls-10" x1="644.22" y1="506.37" x2="637.92" y2="501.12"/><polygon class="cls-5" points="645.1 504.34 646.56 508.32 642.38 507.6 645.1 504.34"/></g></g><line class="cls-13" x1="453.6" y1="449.28" x2="583.2" y2="449.28"/><line class="cls-13" x1="583.2" y1="449.28" x2="626.4" y2="449.28"/><line class="cls-11" x1="537.12" y1="550.08" x2="525.6" y2="525.6"/><line class="cls-12" x1="537.21" y1="550.08" x2="537.12" y2="564.48"/><line class="cls-12" x1="537.21" y1="463.68" x2="537.12" y2="449.28"/><rect class="cls-13" x="446.4" y="463.68" width="14.4" height="43.2" transform="translate(907.2 970.56) rotate(180)"/><line class="cls-11" x1="537.21" y1="492.48" x2="525.69" y2="468"/><line class="cls-13" x1="537.21" y1="492.48" x2="537.21" y2="521.28"/><line class="cls-13" x1="203.04" y1="226.08" x2="203.04" y2="211.68"/><line class="cls-13" x1="177.12" y1="463.68" x2="177.12" y2="449.28"/><line class="cls-13" x1="177.12" y1="521.28" x2="177.12" y2="506.88"/><line class="cls-13" x1="453.6" y1="463.68" x2="453.6" y2="449.28"/><line class="cls-13" x1="453.6" y1="521.28" x2="453.6" y2="506.88"/><line class="cls-13" x1="450.72" y1="168.48" x2="450.72" y2="154.08"/><line class="cls-13" x1="450.72" y1="226.08" x2="450.72" y2="211.68"/><line class="cls-13" x1="724.32" y1="178.56" x2="724.32" y2="164.16"/><line class="cls-13" x1="724.32" y1="236.16" x2="724.32" y2="221.76"/><line class="cls-13" x1="728.64" y1="463.68" x2="728.64" y2="449.28"/><line class="cls-13" x1="728.64" y1="521.28" x2="728.64" y2="506.88"/></g><g id="Ebene_7"><circle class="cls-5" cx="479.52" cy="154.08" r="1.44"/><circle class="cls-5" cx="508.32" cy="154.08" r="1.44"/><circle class="cls-5" cx="580.32" cy="154.08" r="1.44"/><circle class="cls-5" cx="551.52" cy="154.08" r="1.44"/><circle class="cls-5" cx="789.12" cy="192.96" r="1.44"/><circle class="cls-5" cx="817.92" cy="192.96" r="1.44"/><circle class="cls-5" cx="853.92" cy="164.16" r="2.88"/><circle class="cls-5" cx="753.12" cy="164.16" r="2.88"/><circle class="cls-5" cx="789.12" cy="135.36" r="1.44"/><circle class="cls-5" cx="817.92" cy="135.36" r="1.44"/><circle class="cls-5" cx="231.84" cy="154.08" r="1.44"/><circle class="cls-5" cx="260.64" cy="154.08" r="1.44"/><circle class="cls-5" cx="840.96" cy="521.28" r="1.44"/><circle class="cls-5" cx="840.96" cy="492.48" r="1.44"/><circle class="cls-5" cx="840.96" cy="449.28" r="2.88"/><circle class="cls-5" cx="783.36" cy="521.28" r="1.44"/><circle class="cls-5" cx="783.36" cy="492.48" r="1.44"/><circle class="cls-5" cx="253.44" cy="521.28" r="1.44"/><circle class="cls-5" cx="253.44" cy="492.48" r="1.44"/><circle class="cls-5" cx="537.12" cy="550.08" r="1.44"/><circle class="cls-5" cx="537.12" cy="521.28" r="1.44"/><circle class="cls-5" cx="537.21" cy="492.48" r="1.44"/><circle class="cls-5" cx="537.21" cy="463.68" r="1.44"/><circle class="cls-5" cx="783.36" cy="449.28" r="2.88"/><circle class="cls-5" cx="783.36" cy="564.48" r="2.88"/><circle class="cls-5" cx="840.96" cy="564.48" r="2.88"/><circle class="cls-5" cx="537.12" cy="449.28" r="2.88"/><circle class="cls-5" cx="537.12" cy="564.48" r="2.88"/><circle class="cls-5" cx="253.44" cy="449.28" r="2.88"/><circle class="cls-5" cx="253.44" cy="564.48" r="2.88"/></g><g id="Text"><text class="cls-7" transform="translate(413.28 47.52)"><tspan class="cls-17" x="0" y="0">S</tspan><tspan x="8.73" y="0">wi</tspan><tspan class="cls-9" x="26.19" y="0">t</tspan><tspan x="32.04" y="0">ching </tspan><tspan class="cls-1" x="78.17" y="0">C</tspan><tspan class="cls-14" x="88.56" y="0">i</tspan><tspan class="cls-18" x="92.77" y="0">r</tspan><tspan class="cls-2" x="98.48" y="0">cuits </tspan><tspan class="cls-19" x="137.57" y="0">f</tspan><tspan x="142.59" y="0">or </tspan><tspan class="cls-15" x="162.18" y="0">L</tspan><tspan x="170.42" y="0">o</tspan><tspan class="cls-3" x="180.3" y="0">g</tspan><tspan x="190.26" y="0">ic </tspan><tspan class="cls-4" x="206.35" y="0">G</tspan><tspan class="cls-16" x="218.12" y="0">a</tspan><tspan class="cls-9" x="226.73" y="0">t</tspan><tspan x="232.58" y="0">es</tspan></text><text class="cls-7" transform="translate(228.96 109.44)"><tspan x="0" y="0">Bu</tspan><tspan class="cls-19" x="19.67" y="0">ff</tspan><tspan class="cls-14" x="29.93" y="0">er</tspan></text><text class="cls-7" transform="translate(519.84 109.44)"><tspan x="0" y="0">AND</tspan></text><text class="cls-7" transform="translate(800.64 109.44)"><tspan x="0" y="0">OR</tspan></text><text class="cls-7" transform="translate(227.52 410.4)"><tspan x="0" y="0">N</tspan><tspan class="cls-8" x="11.84" y="0">O</tspan><tspan x="23.8" y="0">T</tspan></text><text class="cls-7" transform="translate(518.4 410.4)"><tspan x="0" y="0">NAND</tspan></text><text class="cls-7" transform="translate(799.2 410.4)"><tspan x="0" y="0">NOR</tspan></text><text class="cls-6" transform="translate(432 218.88)"><tspan x="0" y="0">+</tspan></text><text class="cls-6" transform="translate(433.44 239.04)"><tspan x="0" y="0">-</tspan></text><text class="cls-6" transform="translate(705.6 228.96)"><tspan x="0" y="0">+</tspan></text><text class="cls-6" transform="translate(707.04 249.12)"><tspan x="0" y="0">-</tspan></text><text class="cls-6" transform="translate(184.32 218.88)"><tspan x="0" y="0">+</tspan></text><text class="cls-6" transform="translate(185.76 239.04)"><tspan x="0" y="0">-</tspan></text><text class="cls-6" transform="translate(709.92 514.08)"><tspan x="0" y="0">+</tspan></text><text class="cls-6" transform="translate(711.36 534.24)"><tspan x="0" y="0">-</tspan></text><text class="cls-6" transform="translate(158.4 514.08)"><tspan x="0" y="0">+</tspan></text><text class="cls-6" transform="translate(159.84 534.24)"><tspan x="0" y="0">-</tspan></text><text class="cls-6" transform="translate(434.88 514.08)"><tspan x="0" y="0">+</tspan></text><text class="cls-6" transform="translate(436.32 534.24)"><tspan x="0" y="0">-</tspan></text></g></svg>