<?xml version="1.0" encoding="UTF-8"?>
<svg id="Signal_Flow" data-name="Signal Flow" xmlns="http://www.w3.org/2000/svg" viewBox="0 0 1079.03 599.34">
  <defs>
    <style>
      .cls-1 {
        fill: none;
        stroke: #c9d1d8;
        stroke-miterlimit: 10;
        stroke-width: 1.42px;
      }

      .cls-2 {
        fill: #c9d1d9;
        font-family: Roboto-Regular, Roboto;
        font-size: 18px;
      }

      .cls-2, .cls-3 {
        isolation: isolate;
      }
    </style>
  </defs>
  <polyline class="cls-1" points="1046.87 478.22 620.16 478.22 620.16 424.88 566.82 424.88 566.82 478.22 140.1 478.22 140.1 424.88 86.76 424.88 86.76 478.22"/>
  <polyline class="cls-1" points="1046.87 398.21 886.85 398.21 886.85 344.87 833.51 344.87 833.51 398.21 513.48 398.21 513.48 344.87 460.14 344.87 460.14 398.21 140.1 398.21 140.1 344.87 86.76 344.87 86.76 398.21"/>
  <polyline class="cls-1" points="1046.87 318.2 940.19 318.2 940.19 264.86 886.85 264.86 886.85 318.2 673.5 318.2 673.5 264.86 620.16 264.86 620.16 318.2 406.8 318.2 406.8 264.86 353.46 264.86 353.46 318.2 140.1 318.2 140.1 264.86 86.76 264.86 86.76 318.2"/>
  <polyline class="cls-1" points="1046.87 238.19 940.19 238.19 940.19 184.85 886.85 184.85 886.85 238.19 780.17 238.19 780.17 184.85 726.84 184.85 726.84 238.19 620.16 238.19 620.16 184.85 566.82 184.85 566.82 238.19 460.14 238.19 460.14 184.85 406.8 184.85 406.8 238.19 300.12 238.19 300.12 184.85 246.78 184.85 246.78 238.19 140.1 238.19 140.1 184.85 86.76 184.85 86.76 238.19"/>
  <polyline class="cls-1" points="1046.87 158.18 1020.2 158.18 1020.2 104.84 993.53 104.84 993.53 158.18 966.86 158.18 966.86 104.84 940.19 104.84 940.19 158.18 913.52 158.18 913.52 104.84 886.85 104.84 886.85 158.18 860.18 158.18 860.18 104.84 833.51 104.84 833.51 158.18 806.84 158.18 806.84 104.84 780.17 104.84 780.17 158.18 753.51 158.18 753.51 104.84 726.84 104.84 726.84 158.18 700.17 158.18 700.17 104.84 673.5 104.84 673.5 158.18 646.83 158.18 646.83 104.84 620.16 104.84 620.16 158.18 593.49 158.18 593.49 104.84 566.82 104.84 566.82 158.18 540.15 158.18 540.15 104.84 513.48 104.84 513.48 158.18 486.81 158.18 486.81 104.84 460.14 104.84 460.14 158.18 433.47 158.18 433.47 104.84 406.8 104.84 406.8 158.18 380.13 158.18 380.13 104.84 353.46 104.84 353.46 158.18 326.79 158.18 326.79 104.84 300.12 104.84 300.12 158.18 273.45 158.18 273.45 104.84 246.78 104.84 246.78 158.18 220.11 158.18 220.11 104.84 193.44 104.84 193.44 158.18 166.77 158.18 166.77 104.84 140.1 104.84 140.1 158.18 113.43 158.18 113.43 104.84 86.76 104.84 86.76 158.18"/>
  <g class="cls-3">
    <text class="cls-2" transform="translate(26.76 136.77)"><tspan x="0" y="0">f</tspan></text>
  </g>
  <g class="cls-3">
    <text class="cls-2" transform="translate(26.76 216.78)"><tspan x="0" y="0">1/3</tspan></text>
  </g>
  <g class="cls-3">
    <text class="cls-2" transform="translate(26.76 376.8)"><tspan x="0" y="0">1/7</tspan></text>
  </g>
  <g class="cls-3">
    <text class="cls-2" transform="translate(26.76 296.79)"><tspan x="0" y="0">1/5</tspan></text>
  </g>
  <g class="cls-3">
    <text class="cls-2" transform="translate(26.76 456.81)"><tspan x="0" y="0">1/9</tspan></text>
  </g>
</svg>