<?xml version="1.0" encoding="UTF-8"?>
<svg id="Signal_Flow" data-name="Signal Flow" xmlns="http://www.w3.org/2000/svg" viewBox="0 0 1079.03 599.34">
  <defs>
    <style>
      .cls-1, .cls-2, .cls-3, .cls-4 {
        fill: none;
        stroke: #c9d1d9;
        stroke-miterlimit: 10;
      }

      .cls-1, .cls-3 {
        stroke-width: .85px;
      }

      .cls-5, .cls-6 {
        fill: #c9d1d9;
      }

      .cls-2 {
        stroke-width: 1.42px;
      }

      .cls-3 {
        stroke-dasharray: 0 0 11.62 11.62;
      }

      .cls-4 {
        stroke-width: 2.83px;
      }

      .cls-7 {
        letter-spacing: 0em;
      }

      .cls-6 {
        font-family: Roboto-Regular, Roboto;
        font-size: 18px;
      }
    </style>
  </defs>
  <rect class="cls-4" x="100.94" y="270.97" width="216" height="216"/>
  <text class="cls-6" transform="translate(244.54 162.97)"><tspan x="0" y="0">Cont</tspan><tspan class="cls-7" x="37.79" y="0">r</tspan><tspan x="43.71" y="0">ol Input/Gate</tspan></text>
  <g>
    <path class="cls-5" d="m154.36,369.37c-.16,1.35-.66,2.4-1.5,3.13s-1.96,1.1-3.35,1.1c-1.51,0-2.72-.54-3.63-1.63s-1.37-2.53-1.37-4.35v-1.23c0-1.19.21-2.24.64-3.14s1.03-1.6,1.81-2.08,1.68-.73,2.71-.73c1.36,0,2.45.38,3.27,1.14s1.3,1.81,1.43,3.15h-1.7c-.15-1.02-.46-1.76-.95-2.22s-1.17-.69-2.05-.69c-1.08,0-1.92.4-2.54,1.2-.61.8-.92,1.93-.92,3.4v1.24c0,1.39.29,2.5.87,3.32s1.39,1.23,2.43,1.23c.94,0,1.66-.21,2.16-.64s.83-1.16,1-2.22h1.7Z"/>
    <path class="cls-5" d="m158.84,360.63l4.18,10.44,4.18-10.44h2.19v12.8h-1.69v-4.98l.16-5.38-4.2,10.36h-1.29l-4.19-10.34.17,5.35v4.98h-1.69v-12.8h2.18Z"/>
    <path class="cls-5" d="m182.22,367.44c0,1.25-.21,2.35-.63,3.28s-1.02,1.65-1.79,2.14-1.68.74-2.71.74-1.9-.25-2.68-.74-1.38-1.2-1.81-2.12-.65-1.98-.66-3.19v-.92c0-1.23.21-2.32.64-3.26s1.03-1.67,1.81-2.17,1.68-.75,2.69-.75,1.93.25,2.71.74,1.38,1.21,1.81,2.15.63,2.03.63,3.28v.81Zm-1.68-.83c0-1.52-.3-2.68-.91-3.49s-1.46-1.22-2.56-1.22-1.91.41-2.52,1.22-.93,1.94-.94,3.38v.94c0,1.47.31,2.63.93,3.47s1.47,1.26,2.55,1.26,1.93-.4,2.53-1.19.91-1.93.92-3.41v-.95Z"/>
    <path class="cls-5" d="m188.52,367.73c-1.45-.42-2.5-.93-3.16-1.53s-.99-1.35-.99-2.25c0-1.01.4-1.84,1.21-2.5s1.85-.99,3.14-.99c.88,0,1.66.17,2.35.51s1.22.81,1.6,1.41.57,1.25.57,1.96h-1.7c0-.78-.25-1.39-.74-1.83s-1.19-.67-2.08-.67c-.83,0-1.48.18-1.95.55-.47.37-.7.88-.7,1.53,0,.52.22.96.66,1.33s1.2.69,2.26.99,1.9.63,2.5.99,1.05.78,1.34,1.26.44,1.05.44,1.7c0,1.04-.4,1.87-1.21,2.49s-1.89.94-3.24.94c-.88,0-1.7-.17-2.46-.51s-1.35-.8-1.76-1.38-.62-1.25-.62-2h1.7c0,.77.29,1.38.86,1.83s1.33.67,2.29.67c.89,0,1.57-.18,2.05-.54s.71-.86.71-1.49-.22-1.11-.66-1.45-1.24-.68-2.39-1.02Z"/>
    <path class="cls-5" d="m209.73,367.44c0,1.25-.21,2.35-.63,3.28s-1.02,1.65-1.79,2.14-1.68.74-2.71.74-1.9-.25-2.68-.74-1.38-1.2-1.81-2.12-.65-1.98-.66-3.19v-.92c0-1.23.21-2.32.64-3.26s1.03-1.67,1.81-2.17,1.68-.75,2.69-.75,1.93.25,2.71.74,1.38,1.21,1.81,2.15.63,2.03.63,3.28v.81Zm-1.68-.83c0-1.52-.3-2.68-.91-3.49s-1.46-1.22-2.56-1.22-1.91.41-2.52,1.22-.93,1.94-.94,3.38v.94c0,1.47.31,2.63.93,3.47s1.47,1.26,2.55,1.26,1.93-.4,2.53-1.19.91-1.93.92-3.41v-.95Z"/>
    <path class="cls-5" d="m217.54,370.91c0-.44-.17-.78-.5-1.02s-.91-.45-1.73-.63-1.48-.39-1.96-.63-.84-.54-1.07-.88-.35-.74-.35-1.21c0-.78.33-1.44.99-1.98s1.5-.81,2.53-.81c1.08,0,1.95.28,2.62.83s1.01,1.27,1.01,2.14h-1.63c0-.45-.19-.83-.57-1.15s-.85-.48-1.43-.48-1.05.13-1.39.39-.5.59-.5,1.01c0,.39.16.69.47.89s.87.39,1.68.57,1.47.4,1.97.65.88.56,1.12.91.36.79.36,1.3c0,.85-.34,1.53-1.02,2.04s-1.56.77-2.65.77c-.76,0-1.44-.13-2.02-.4s-1.04-.65-1.38-1.13-.5-1.01-.5-1.57h1.63c.03.54.25.98.65,1.3s.94.48,1.61.48c.62,0,1.11-.12,1.48-.37s.56-.58.56-1Z"/>
    <path class="cls-5" d="m225.1,372.28c.58,0,1.09-.18,1.52-.53s.67-.79.72-1.32h1.54c-.03.54-.22,1.06-.56,1.56s-.81.88-1.38,1.18-1.19.44-1.83.44c-1.29,0-2.32-.43-3.09-1.3s-1.15-2.05-1.15-3.55v-.27c0-.93.17-1.75.51-2.47s.83-1.28,1.46-1.68,1.39-.6,2.25-.6c1.07,0,1.95.32,2.66.96s1.08,1.47,1.13,2.49h-1.54c-.05-.62-.28-1.12-.7-1.52s-.94-.59-1.55-.59c-.83,0-1.47.3-1.92.89s-.68,1.45-.68,2.58v.31c0,1.1.23,1.94.68,2.53s1.1.89,1.93.89Z"/>
    <path class="cls-5" d="m230.71,361.4c0-.26.08-.49.24-.67s.4-.27.72-.27.56.09.72.27.25.4.25.67-.08.48-.25.66-.4.26-.72.26-.56-.09-.72-.26-.24-.4-.24-.66Zm1.76,12.03h-1.63v-9.51h1.63v9.51Z"/>
    <path class="cls-5" d="m236.84,373.43h-1.63v-13.5h1.63v13.5Z"/>
    <path class="cls-5" d="m241.21,373.43h-1.63v-13.5h1.63v13.5Z"/>
    <path class="cls-5" d="m249.68,373.43c-.09-.19-.17-.52-.23-1-.76.79-1.66,1.18-2.71,1.18-.94,0-1.71-.27-2.31-.8s-.9-1.2-.9-2.02c0-.99.38-1.76,1.13-2.31s1.81-.82,3.18-.82h1.58v-.75c0-.57-.17-1.02-.51-1.36s-.84-.51-1.5-.51c-.58,0-1.07.15-1.46.44s-.59.65-.59,1.06h-1.63c0-.47.17-.93.51-1.38s.79-.79,1.37-1.05,1.21-.39,1.9-.39c1.1,0,1.95.27,2.58.82s.94,1.3.97,2.26v4.38c0,.87.11,1.57.33,2.08v.14h-1.71Zm-2.7-1.24c.51,0,.99-.13,1.45-.4s.79-.61.99-1.03v-1.95h-1.27c-1.99,0-2.99.58-2.99,1.75,0,.51.17.91.51,1.2s.78.43,1.31.43Z"/>
    <path class="cls-5" d="m255.81,361.62v2.3h1.78v1.26h-1.78v5.9c0,.38.08.67.24.86.16.19.43.29.81.29.19,0,.45-.04.77-.11v1.31c-.43.12-.84.17-1.25.17-.73,0-1.27-.22-1.64-.66s-.55-1.06-.55-1.87v-5.9h-1.73v-1.26h1.73v-2.3h1.63Z"/>
    <path class="cls-5" d="m258.87,368.59c0-.93.18-1.77.55-2.51s.88-1.32,1.53-1.72,1.4-.61,2.24-.61c1.29,0,2.34.45,3.14,1.34s1.2,2.09,1.2,3.58v.11c0,.93-.18,1.76-.53,2.49s-.86,1.31-1.52,1.72-1.42.62-2.27.62c-1.29,0-2.33-.45-3.13-1.34s-1.2-2.08-1.2-3.56v-.11Zm1.63.19c0,1.05.24,1.9.73,2.54s1.14.96,1.96.96,1.48-.32,1.97-.97.73-1.55.73-2.72c0-1.04-.25-1.89-.74-2.54s-1.15-.97-1.97-.97-1.45.32-1.94.96-.74,1.55-.74,2.74Z"/>
    <path class="cls-5" d="m274.17,365.38c-.25-.04-.51-.06-.8-.06-1.07,0-1.79.45-2.17,1.36v6.75h-1.63v-9.51h1.58l.03,1.1c.53-.85,1.29-1.27,2.27-1.27.32,0,.56.04.72.12v1.51Z"/>
    <path class="cls-5" d="m187.87,390.97c-.16,1.35-.66,2.4-1.5,3.13s-1.96,1.1-3.35,1.1c-1.51,0-2.72-.54-3.63-1.63s-1.37-2.53-1.37-4.35v-1.23c0-1.19.21-2.24.64-3.14s1.03-1.6,1.81-2.08,1.68-.73,2.71-.73c1.36,0,2.45.38,3.27,1.14s1.3,1.81,1.43,3.15h-1.7c-.15-1.02-.46-1.76-.95-2.22s-1.17-.69-2.05-.69c-1.08,0-1.92.4-2.54,1.2-.61.8-.92,1.93-.92,3.4v1.24c0,1.39.29,2.5.87,3.32s1.39,1.23,2.43,1.23c.94,0,1.66-.21,2.16-.64s.83-1.16,1-2.22h1.7Z"/>
    <path class="cls-5" d="m190.17,395.03v-12.8h3.61c1.11,0,2.1.25,2.95.74s1.52,1.19,1.98,2.1.7,1.95.71,3.13v.82c0,1.21-.23,2.26-.7,3.17s-1.13,1.61-2,2.09-1.87.74-3.02.75h-3.54Zm1.69-11.42v10.04h1.78c1.3,0,2.31-.4,3.04-1.21s1.09-1.96,1.09-3.46v-.75c0-1.45-.34-2.58-1.02-3.39-.68-.81-1.65-1.22-2.9-1.23h-1.97Z"/>
    <path class="cls-5" d="m208.42,390.73h1.78v1.33h-1.78v2.97h-1.63v-2.97h-5.83v-.96l5.73-8.87h1.73v8.5Zm-5.62,0h3.98v-6.28l-.19.35-3.79,5.92Z"/>
    <path class="cls-5" d="m219.68,389.57c0,1.9-.33,3.32-.98,4.25s-1.67,1.39-3.05,1.39-2.38-.45-3.03-1.36-1-2.26-1.02-4.06v-2.17c0-1.88.33-3.28.98-4.19s1.67-1.37,3.06-1.37,2.39.44,3.04,1.32.98,2.24,1,4.08v2.11Zm-1.63-2.22c0-1.38-.19-2.38-.58-3.01s-1-.94-1.84-.94-1.44.31-1.82.94-.58,1.59-.59,2.89v2.6c0,1.38.2,2.4.6,3.06s1.01.99,1.82.99,1.4-.31,1.79-.93.59-1.6.61-2.94v-2.66Z"/>
    <path class="cls-5" d="m228,389.4c-.34.4-.75.73-1.22.98s-.99.37-1.55.37c-.74,0-1.38-.18-1.93-.54s-.97-.87-1.27-1.53-.45-1.39-.45-2.18c0-.86.16-1.63.49-2.31s.79-1.21,1.38-1.57,1.29-.54,2.09-.54c1.27,0,2.26.47,2.99,1.42s1.09,2.24,1.09,3.87v.47c0,2.49-.49,4.31-1.48,5.45s-2.47,1.73-4.46,1.76h-.32v-1.38h.34c1.34-.02,2.37-.37,3.09-1.05.72-.68,1.11-1.74,1.18-3.21Zm-2.5,0c.54,0,1.05-.17,1.51-.5s.8-.75,1.01-1.24v-.65c0-1.07-.23-1.93-.69-2.6s-1.05-1-1.76-1-1.29.27-1.72.82-.65,1.27-.65,2.17.21,1.59.63,2.16.98.85,1.68.85Z"/>
    <path class="cls-5" d="m234.24,387.84h1.22c.77-.01,1.37-.21,1.81-.61s.66-.92.66-1.59c0-1.5-.75-2.25-2.24-2.25-.7,0-1.26.2-1.68.6s-.63.93-.63,1.6h-1.63c0-1.01.37-1.86,1.11-2.53s1.68-1.01,2.83-1.01c1.21,0,2.15.32,2.84.96s1.03,1.53,1.03,2.66c0,.56-.18,1.1-.54,1.62s-.85.91-1.47,1.17c.7.22,1.25.59,1.63,1.11s.58,1.15.58,1.89c0,1.15-.38,2.06-1.12,2.73s-1.73,1.01-2.93,1.01-2.18-.33-2.93-.98-1.13-1.51-1.13-2.58h1.63c0,.67.22,1.21.66,1.62s1.03.61,1.77.61c.79,0,1.39-.21,1.8-.62s.62-1,.62-1.77-.23-1.32-.69-1.71-1.12-.6-1.98-.62h-1.22v-1.33Z"/>
  </g>
  <text class="cls-6" transform="translate(342.14 371.77)"><tspan x="0" y="0">Out</tspan></text>
  <g>
    <line class="cls-4" x1="316.94" y1="378.97" x2="407.14" y2="378.97"/>
    <path class="cls-5" d="m387.76,392.57c-.42-.66-.22-1.54.44-1.96l18.29-11.65-18.29-11.65c-.66-.42-.86-1.3-.44-1.96s1.3-.85,1.96-.43l20.17,12.84c.41.26.66.71.66,1.2s-.25.94-.66,1.2l-20.17,12.84c-.24.15-.5.22-.76.22-.47,0-.93-.23-1.2-.66Z"/>
  </g>
  <g>
    <line class="cls-4" x1="208.94" y1="177.37" x2="208.94" y2="267.56"/>
    <path class="cls-5" d="m195.34,248.19c.66-.42,1.54-.22,1.96.44l11.65,18.29,11.65-18.29c.42-.66,1.3-.86,1.96-.44.66.42.85,1.3.43,1.96l-12.84,20.17c-.26.41-.71.66-1.2.66s-.94-.25-1.2-.66l-12.84-20.17c-.15-.24-.22-.5-.22-.76,0-.47.23-.93.66-1.2Z"/>
  </g>
  <line class="cls-4" x1="208.94" y1="177.37" x2="428.54" y2="177.37"/>
  <g>
    <line class="cls-1" x1="442.94" y1="119.77" x2="442.94" y2="125.77"/>
    <line class="cls-3" x1="442.94" y1="137.38" x2="442.94" y2="410.36"/>
    <line class="cls-1" x1="442.94" y1="416.17" x2="442.94" y2="422.17"/>
  </g>
  <g>
    <line class="cls-1" x1="547.34" y1="119.77" x2="547.34" y2="125.77"/>
    <line class="cls-3" x1="547.34" y1="137.38" x2="547.34" y2="410.36"/>
    <line class="cls-1" x1="547.34" y1="416.17" x2="547.34" y2="422.17"/>
  </g>
  <g>
    <line class="cls-1" x1="633.74" y1="119.77" x2="633.74" y2="125.77"/>
    <line class="cls-3" x1="633.74" y1="137.38" x2="633.74" y2="410.36"/>
    <line class="cls-1" x1="633.74" y1="416.17" x2="633.74" y2="422.17"/>
  </g>
  <g>
    <line class="cls-1" x1="738.14" y1="119.77" x2="738.14" y2="125.77"/>
    <line class="cls-3" x1="738.14" y1="137.38" x2="738.14" y2="410.36"/>
    <line class="cls-1" x1="738.14" y1="416.17" x2="738.14" y2="422.17"/>
  </g>
  <g>
    <line class="cls-1" x1="824.54" y1="119.77" x2="824.54" y2="125.77"/>
    <line class="cls-3" x1="824.54" y1="137.38" x2="824.54" y2="410.36"/>
    <line class="cls-1" x1="824.54" y1="416.17" x2="824.54" y2="422.17"/>
  </g>
  <g>
    <line class="cls-1" x1="928.94" y1="119.77" x2="928.94" y2="125.77"/>
    <line class="cls-3" x1="928.94" y1="137.38" x2="928.94" y2="410.36"/>
    <line class="cls-1" x1="928.94" y1="416.17" x2="928.94" y2="422.17"/>
  </g>
  <polyline class="cls-2" points="964.94 198.97 928.94 198.97 928.94 126.97 824.54 126.97 824.54 198.97 738.14 198.97 738.14 126.97 633.74 126.97 633.74 198.97 547.34 198.97 547.34 126.97 442.94 126.97 442.94 198.97"/>
  <polyline class="cls-2" points="964.94 414.97 921.74 414.97 921.74 342.97 910.94 342.97 910.94 414.97 900.14 414.97 900.14 342.97 889.34 342.97 889.34 414.97 878.54 414.97 878.54 342.97 867.74 342.97 867.74 414.97 856.94 414.97 856.94 342.97 846.14 342.97 846.14 414.97 835.34 414.97 835.34 342.97 824.54 342.97 824.54 414.97 730.94 414.97 730.94 342.97 720.14 342.97 720.14 414.97 709.34 414.97 709.34 342.97 698.54 342.97 698.54 414.97 687.74 414.97 687.74 342.97 676.94 342.97 676.94 414.97 666.14 414.97 666.14 342.97 655.34 342.97 655.34 414.97 644.54 414.97 644.54 342.97 633.74 342.97 633.74 414.97 540.14 414.97 540.14 342.97 529.34 342.97 529.34 414.97 518.54 414.97 518.54 342.97 507.74 342.97 507.74 414.97 496.94 414.97 496.94 342.97 486.14 342.97 486.14 414.97 475.34 414.97 475.34 342.97 464.54 342.97 464.54 414.97 453.74 414.97 453.74 342.97 442.94 342.97 442.94 414.97"/>
</svg>