<?xml version="1.0" encoding="UTF-8"?>
<svg id="Ebene_1" data-name="Ebene 1" xmlns="http://www.w3.org/2000/svg" viewBox="0 0 1080 600.48">
  <defs>
    <style>
      .cls-1, .cls-2, .cls-3 {
        fill: #c9d1d9;
      }

      .cls-4 {
        fill: #d85648;
      }

      .cls-5 {
        stroke-width: 1.42px;
      }

      .cls-5, .cls-6, .cls-7, .cls-8, .cls-9 {
        fill: none;
        stroke-miterlimit: 10;
      }

      .cls-5, .cls-6, .cls-9 {
        stroke: #c9d1d9;
      }

      .cls-2 {
        font-size: 24px;
      }

      .cls-2, .cls-3 {
        font-family: Roboto-Regular, Roboto;
      }

      .cls-10 {
        letter-spacing: -.05em;
      }

      .cls-6, .cls-7, .cls-8 {
        stroke-width: 2.83px;
      }

      .cls-7 {
        stroke: #d85648;
      }

      .cls-8 {
        stroke: #307eef;
      }

      .cls-11 {
        letter-spacing: 0em;
      }

      .cls-3 {
        font-size: 18px;
      }

      .cls-9 {
        stroke-width: 5.67px;
      }
    </style>
  </defs>
  <rect class="cls-9" x="432" y="150.48" width="144" height="334.8"/>
  <rect class="cls-6" x="417.6" y="172.08" width="14.4" height="32.4"/>
  <rect class="cls-6" x="417.6" y="215.28" width="14.4" height="32.4"/>
  <rect class="cls-6" x="417.6" y="258.48" width="14.4" height="32.4"/>
  <rect class="cls-6" x="417.6" y="301.68" width="14.4" height="32.4"/>
  <rect class="cls-6" x="417.6" y="344.88" width="14.4" height="32.4"/>
  <rect class="cls-6" x="417.6" y="388.08" width="14.4" height="32.4"/>
  <rect class="cls-6" x="417.6" y="431.28" width="14.4" height="32.4"/>
  <rect class="cls-6" x="576" y="172.08" width="14.4" height="32.4"/>
  <rect class="cls-6" x="576" y="215.28" width="14.4" height="32.4"/>
  <rect class="cls-6" x="576" y="258.48" width="14.4" height="32.4"/>
  <rect class="cls-6" x="576" y="301.68" width="14.4" height="32.4"/>
  <rect class="cls-6" x="576" y="344.88" width="14.4" height="32.4"/>
  <rect class="cls-6" x="576" y="388.08" width="14.4" height="32.4"/>
  <rect class="cls-6" x="576" y="431.28" width="14.4" height="32.4"/>
  <path class="cls-6" d="m518.4,150.48v16.2c0,8.95-7.25,16.2-16.2,16.2s-16.2-7.25-16.2-16.2v-16.2"/>
  <text class="cls-2" transform="translate(446.4 197.09)"><tspan x="0" y="0">1</tspan></text>
  <text class="cls-2" transform="translate(446.4 240.29)"><tspan x="0" y="0">2</tspan></text>
  <text class="cls-2" transform="translate(446.4 283.49)"><tspan x="0" y="0">3</tspan></text>
  <text class="cls-2" transform="translate(446.4 326.69)"><tspan x="0" y="0">4</tspan></text>
  <text class="cls-2" transform="translate(446.4 369.89)"><tspan x="0" y="0">5</tspan></text>
  <text class="cls-2" transform="translate(446.4 413.09)"><tspan x="0" y="0">6</tspan></text>
  <text class="cls-2" transform="translate(446.4 456.29)"><tspan x="0" y="0">7</tspan></text>
  <text class="cls-2" transform="translate(548.12 456.29)"><tspan x="0" y="0">8</tspan></text>
  <text class="cls-2" transform="translate(548.12 413.09)"><tspan x="0" y="0">9</tspan></text>
  <text class="cls-2" transform="translate(534.65 369.89)"><tspan x="0" y="0">10</tspan></text>
  <text class="cls-2" transform="translate(534.65 326.69)"><tspan x="0" y="0">11</tspan></text>
  <text class="cls-2" transform="translate(534.65 283.49)"><tspan x="0" y="0">12</tspan></text>
  <text class="cls-2" transform="translate(534.65 240.29)"><tspan x="0" y="0">13</tspan></text>
  <text class="cls-2" transform="translate(534.65 197.09)"><tspan x="0" y="0">14</tspan></text>
  <circle class="cls-1" cx="448.2" cy="166.68" r="5.4"/>
  <g>
    <path class="cls-7" d="m601.2,140.49v47.79h-18"/>
    <polygon class="cls-4" points="592.18 157.25 594.85 158.21 601.2 140.77 607.55 158.21 610.21 157.25 601.2 132.48 592.18 157.25"/>
  </g>
  <polyline class="cls-8" points="406.8 492.48 406.8 447.48 424.8 447.48"/>
  <polygon class="cls-8" points="407 492.88 423.39 492.88 415.2 507.08 407 521.28 398.8 507.08 390.6 492.88 407 492.88"/>
  <text class="cls-3" transform="translate(248.4 478.08)"><tspan x="0" y="0">G</tspan><tspan class="cls-11" x="12.26" y="0">r</tspan><tspan x="18.18" y="0">ound (GN</tspan><tspan class="cls-10" x="94.15" y="0">D</tspan><tspan x="105.06" y="0">, V</tspan></text>
  <text class="cls-3" transform="translate(372.9 484.07) scale(.58)"><tspan x="0" y="0">SS</tspan></text>
  <text class="cls-3" transform="translate(385.35 478.08)"><tspan x="0" y="0">)</tspan></text>
  <g>
    <path class="cls-1" d="m622.37,145.47v5.01h-1.69v-12.8h4.72c1.4,0,2.5.36,3.29,1.07s1.19,1.66,1.19,2.84c0,1.24-.39,2.2-1.17,2.87s-1.89,1.01-3.33,1.01h-3.01Zm0-1.38h3.03c.9,0,1.59-.21,2.07-.64.48-.42.72-1.04.72-1.84,0-.76-.24-1.37-.72-1.83s-1.14-.7-1.98-.71h-3.13v5.03Z"/>
    <path class="cls-1" d="m631.24,145.64c0-.93.18-1.77.55-2.51s.88-1.32,1.53-1.72,1.4-.61,2.24-.61c1.29,0,2.34.45,3.14,1.34s1.2,2.09,1.2,3.58v.11c0,.93-.18,1.76-.53,2.49-.35.74-.86,1.31-1.52,1.72s-1.42.62-2.27.62c-1.29,0-2.33-.45-3.13-1.34s-1.2-2.08-1.2-3.56v-.11Zm1.63.19c0,1.05.24,1.9.73,2.54s1.14.96,1.96.96,1.48-.32,1.97-.97c.49-.65.73-1.55.73-2.72,0-1.04-.25-1.89-.74-2.54-.5-.65-1.15-.97-1.97-.97s-1.45.32-1.94.96-.74,1.55-.74,2.74Z"/>
    <path class="cls-1" d="m647.47,147.96c0-.44-.17-.78-.5-1.02-.33-.24-.91-.45-1.73-.63s-1.48-.39-1.96-.63-.84-.54-1.07-.88-.35-.74-.35-1.21c0-.78.33-1.44.99-1.98s1.5-.81,2.53-.81c1.08,0,1.95.28,2.62.83s1.01,1.27,1.01,2.14h-1.63c0-.45-.19-.83-.57-1.15s-.85-.48-1.43-.48-1.05.13-1.39.39-.5.59-.5,1.01c0,.39.16.69.47.89s.87.39,1.68.57,1.47.4,1.97.65.88.56,1.12.91c.24.36.37.79.37,1.3,0,.85-.34,1.53-1.02,2.04-.68.51-1.56.77-2.65.77-.76,0-1.44-.13-2.02-.4s-1.04-.65-1.38-1.13c-.33-.48-.5-1.01-.5-1.57h1.63c.03.54.25.98.65,1.3.41.32.95.48,1.61.48.62,0,1.11-.12,1.48-.37.37-.25.56-.58.56-1Z"/>
    <path class="cls-1" d="m651.23,138.45c0-.26.08-.49.24-.67s.4-.27.72-.27.56.09.72.27.25.4.25.67-.08.48-.25.66-.4.26-.72.26-.56-.09-.72-.26-.24-.4-.24-.66Zm1.76,12.03h-1.63v-9.51h1.63v9.51Z"/>
    <path class="cls-1" d="m657.79,138.67v2.3h1.78v1.26h-1.78v5.91c0,.38.08.67.24.86s.43.29.81.29c.19,0,.45-.04.77-.11v1.31c-.43.12-.84.17-1.25.17-.73,0-1.27-.22-1.64-.66s-.55-1.06-.55-1.87v-5.9h-1.73v-1.26h1.73v-2.3h1.63Z"/>
    <path class="cls-1" d="m661.48,138.45c0-.26.08-.49.24-.67s.4-.27.72-.27.56.09.72.27.25.4.25.67-.08.48-.25.66-.4.26-.72.26-.56-.09-.72-.26-.24-.4-.24-.66Zm1.76,12.03h-1.63v-9.51h1.63v9.51Z"/>
    <path class="cls-1" d="m668.97,148.27l2.36-7.3h1.66l-3.41,9.51h-1.24l-3.45-9.51h1.66l2.42,7.3Z"/>
    <path class="cls-1" d="m678.39,150.66c-1.29,0-2.34-.42-3.15-1.27s-1.21-1.98-1.21-3.4v-.3c0-.94.18-1.79.54-2.53s.86-1.32,1.51-1.74,1.35-.63,2.11-.63c1.24,0,2.2.41,2.88,1.22s1.03,1.98,1.03,3.5v.68h-6.44c.02.94.3,1.7.82,2.27.52.58,1.19.87,2,.87.57,0,1.06-.12,1.46-.35s.75-.54,1.05-.93l.99.77c-.8,1.22-1.99,1.84-3.59,1.84Zm-.2-8.53c-.66,0-1.21.24-1.65.72s-.72,1.15-.83,2.01h4.76v-.12c-.05-.83-.27-1.47-.67-1.92s-.94-.68-1.62-.68Z"/>
    <path class="cls-1" d="m693.97,147.96c0-.44-.17-.78-.5-1.02-.33-.24-.91-.45-1.73-.63s-1.48-.39-1.96-.63-.84-.54-1.07-.88-.35-.74-.35-1.21c0-.78.33-1.44.99-1.98s1.5-.81,2.53-.81c1.08,0,1.95.28,2.62.83s1.01,1.27,1.01,2.14h-1.63c0-.45-.19-.83-.57-1.15s-.85-.48-1.43-.48-1.05.13-1.39.39-.5.59-.5,1.01c0,.39.16.69.47.89s.87.39,1.68.57,1.47.4,1.97.65.88.56,1.12.91c.24.36.37.79.37,1.3,0,.85-.34,1.53-1.02,2.04-.68.51-1.56.77-2.65.77-.76,0-1.44-.13-2.02-.4s-1.04-.65-1.38-1.13c-.33-.48-.5-1.01-.5-1.57h1.63c.03.54.25.98.65,1.3.41.32.95.48,1.61.48.62,0,1.11-.12,1.48-.37.37-.25.56-.58.56-1Z"/>
    <path class="cls-1" d="m703.58,149.54c-.63.74-1.56,1.12-2.79,1.12-1.01,0-1.79-.29-2.32-.88-.53-.59-.8-1.46-.8-2.62v-6.19h1.63v6.14c0,1.44.59,2.16,1.76,2.16,1.24,0,2.07-.46,2.48-1.39v-6.92h1.63v9.51h-1.55l-.04-.94Z"/>
    <path class="cls-1" d="m715.67,145.83c0,1.45-.33,2.61-.99,3.5s-1.56,1.33-2.69,1.33-2.06-.37-2.72-1.1v4.58h-1.63v-13.17h1.49l.08,1.05c.66-.82,1.58-1.23,2.76-1.23s2.05.43,2.71,1.29,1,2.06,1,3.59v.15Zm-1.63-.18c0-1.07-.23-1.92-.69-2.54s-1.08-.93-1.88-.93c-.98,0-1.72.44-2.21,1.31v4.54c.49.87,1.23,1.3,2.23,1.3.78,0,1.4-.31,1.86-.93s.69-1.54.69-2.76Z"/>
    <path class="cls-1" d="m725.77,145.83c0,1.45-.33,2.61-.99,3.5s-1.56,1.33-2.69,1.33-2.06-.37-2.72-1.1v4.58h-1.63v-13.17h1.49l.08,1.05c.66-.82,1.58-1.23,2.76-1.23s2.05.43,2.71,1.29,1,2.06,1,3.59v.15Zm-1.63-.18c0-1.07-.23-1.92-.69-2.54s-1.08-.93-1.88-.93c-.98,0-1.72.44-2.21,1.31v4.54c.49.87,1.23,1.3,2.23,1.3.78,0,1.4-.31,1.86-.93s.69-1.54.69-2.76Z"/>
    <path class="cls-1" d="m729.6,150.48h-1.63v-13.5h1.63v13.5Z"/>
    <path class="cls-1" d="m735.31,148.1l2.21-7.13h1.74l-3.82,10.98c-.59,1.58-1.53,2.37-2.82,2.37l-.31-.03-.61-.11v-1.32l.44.04c.55,0,.98-.11,1.29-.33s.56-.63.76-1.22l.36-.97-3.39-9.4h1.78l2.37,7.13Z"/>
    <path class="cls-1" d="m748.31,148.27l2.36-7.3h1.66l-3.41,9.51h-1.24l-3.45-9.51h1.66l2.42,7.3Z"/>
    <path class="cls-1" d="m753.33,145.64c0-.93.18-1.77.55-2.51s.88-1.32,1.53-1.72,1.4-.61,2.24-.61c1.29,0,2.34.45,3.14,1.34s1.2,2.09,1.2,3.58v.11c0,.93-.18,1.76-.53,2.49-.35.74-.86,1.31-1.52,1.72s-1.42.62-2.27.62c-1.29,0-2.33-.45-3.13-1.34s-1.2-2.08-1.2-3.56v-.11Zm1.63.19c0,1.05.24,1.9.73,2.54s1.14.96,1.96.96,1.48-.32,1.97-.97c.49-.65.73-1.55.73-2.72,0-1.04-.25-1.89-.74-2.54-.5-.65-1.15-.97-1.97-.97s-1.45.32-1.94.96-.74,1.55-.74,2.74Z"/>
    <path class="cls-1" d="m765.79,150.48h-1.63v-13.5h1.63v13.5Z"/>
    <path class="cls-1" d="m770.6,138.67v2.3h1.78v1.26h-1.78v5.91c0,.38.08.67.24.86s.43.29.81.29c.19,0,.45-.04.77-.11v1.31c-.43.12-.84.17-1.25.17-.73,0-1.27-.22-1.64-.66s-.55-1.06-.55-1.87v-5.9h-1.73v-1.26h1.73v-2.3h1.63Z"/>
    <path class="cls-1" d="m780.15,150.48c-.09-.19-.17-.52-.23-1-.76.79-1.66,1.18-2.71,1.18-.94,0-1.71-.26-2.31-.79s-.9-1.2-.9-2.02c0-.99.38-1.76,1.13-2.31s1.81-.82,3.18-.82h1.58v-.75c0-.57-.17-1.02-.51-1.36-.34-.34-.84-.5-1.5-.5-.58,0-1.07.15-1.46.44s-.59.65-.59,1.06h-1.63c0-.47.17-.93.5-1.38s.79-.79,1.37-1.05,1.21-.39,1.9-.39c1.1,0,1.95.27,2.58.82s.94,1.3.97,2.26v4.38c0,.87.11,1.57.33,2.08v.14h-1.71Zm-2.7-1.24c.51,0,.99-.13,1.45-.4s.79-.61.99-1.03v-1.95h-1.27c-1.99,0-2.99.58-2.99,1.75,0,.51.17.91.51,1.2s.78.43,1.31.43Z"/>
    <path class="cls-1" d="m783.68,145.65c0-1.48.34-2.66,1.03-3.54s1.59-1.31,2.72-1.31,2.07.41,2.72,1.23l.08-1.05h1.49v9.28c0,1.23-.37,2.2-1.09,2.91s-1.71,1.06-2.94,1.06c-.69,0-1.36-.15-2.01-.44s-1.16-.69-1.5-1.2l.84-.98c.7.86,1.55,1.29,2.56,1.29.79,0,1.41-.22,1.85-.67s.66-1.07.66-1.88v-.82c-.65.75-1.54,1.12-2.66,1.12s-2.01-.45-2.7-1.34-1.03-2.12-1.03-3.67Zm1.63.18c0,1.07.22,1.92.66,2.53.44.61,1.05.92,1.85.92,1.03,0,1.78-.47,2.26-1.4v-4.34c-.5-.91-1.25-1.36-2.24-1.36-.79,0-1.41.31-1.85.92s-.67,1.53-.67,2.73Z"/>
    <path class="cls-1" d="m798.11,150.66c-1.29,0-2.34-.42-3.15-1.27s-1.21-1.98-1.21-3.4v-.3c0-.94.18-1.79.54-2.53s.86-1.32,1.51-1.74,1.35-.63,2.11-.63c1.24,0,2.2.41,2.88,1.22s1.03,1.98,1.03,3.5v.68h-6.44c.02.94.3,1.7.82,2.27.52.58,1.19.87,2,.87.57,0,1.06-.12,1.46-.35s.75-.54,1.05-.93l.99.77c-.8,1.22-1.99,1.84-3.59,1.84Zm-.2-8.53c-.66,0-1.21.24-1.65.72s-.72,1.15-.83,2.01h4.76v-.12c-.05-.83-.27-1.47-.67-1.92s-.94-.68-1.62-.68Z"/>
    <path class="cls-1" d="m620.37,166.89c0-1.32.18-2.6.53-3.81s.88-2.33,1.59-3.32,1.43-1.7,2.19-2.11l.33,1.07c-.86.66-1.56,1.66-2.11,3.01s-.85,2.86-.9,4.53v.75c0,2.26.4,4.22,1.23,5.89.5,1,1.09,1.78,1.78,2.34l-.33.99c-.78-.43-1.52-1.16-2.23-2.18-1.38-1.99-2.07-4.37-2.07-7.15Z"/>
    <path class="cls-1" d="m631.25,169.84l3.66-10.56h1.85l-4.75,12.8h-1.49l-4.74-12.8h1.84l3.64,10.56Z"/>
    <path class="cls-1" d="m642.87,165.22h3.57v1.54h-3.57v4.04h-1.63v-4.04h-3.57v-1.54h3.57v-3.74h1.63v3.74Z"/>
    <path class="cls-1" d="m648.36,174.63l-.92-.63c.55-.77.84-1.56.86-2.37v-1.47h1.59v1.27c0,.59-.15,1.18-.44,1.78s-.65,1.07-1.09,1.42Z"/>
    <path class="cls-1" d="m660.9,169.84l3.66-10.56h1.85l-4.75,12.8h-1.49l-4.74-12.8h1.84l3.64,10.56Z"/>
    <path class="cls-1" d="m667.49,178.07v-7.46h2.11c.65,0,1.22.14,1.72.43s.88.7,1.16,1.22.41,1.14.41,1.82v.48c0,.7-.14,1.32-.41,1.85-.27.53-.66.94-1.16,1.22s-1.09.43-1.76.44h-2.07Zm.98-6.66v5.85h1.04c.76,0,1.35-.24,1.77-.71.42-.47.63-1.14.63-2.02v-.44c0-.85-.2-1.51-.6-1.98-.4-.47-.96-.71-1.69-.72h-1.15Z"/>
    <path class="cls-1" d="m674.37,178.07v-7.46h2.11c.65,0,1.22.14,1.72.43.5.29.88.7,1.16,1.22s.41,1.14.41,1.82v.48c0,.7-.14,1.32-.41,1.85s-.66.94-1.16,1.22-1.09.43-1.76.44h-2.07Zm.98-6.66v5.85h1.04c.76,0,1.35-.24,1.77-.71.42-.47.63-1.14.63-2.02v-.44c0-.85-.2-1.51-.6-1.98-.4-.47-.96-.71-1.69-.72h-1.15Z"/>
    <path class="cls-1" d="m685.37,166.97c0,1.31-.17,2.56-.51,3.76-.34,1.2-.87,2.3-1.57,3.32s-1.45,1.73-2.22,2.16l-.34-.99c.9-.69,1.63-1.77,2.18-3.22.55-1.46.83-3.07.84-4.85v-.28c0-1.23-.13-2.37-.39-3.43-.26-1.06-.62-2-1.08-2.84s-.98-1.49-1.55-1.96l.34-.99c.77.43,1.51,1.14,2.21,2.14s1.22,2.11,1.57,3.31.52,2.5.52,3.88Z"/>
  </g>
  <text class="cls-3" transform="translate(408.43 100.08)"><tspan x="0" y="0">Notch, orientation guide</tspan></text>
  <text class="cls-3" transform="translate(131.4 197.09)"><tspan x="0" y="0">First pin </tspan><tspan class="cls-11" x="68.88" y="0">t</tspan><tspan x="74.58" y="0">o the left of the notch</tspan></text>
  <g>
    <path class="cls-1" d="m540.52,515.88h-1.7l-6.44-9.86v9.86h-1.7v-12.8h1.7l6.46,9.91v-9.91h1.68v12.8Z"/>
    <path class="cls-1" d="m549.13,514.94c-.63.74-1.56,1.12-2.79,1.12-1.01,0-1.79-.29-2.32-.88-.53-.59-.8-1.46-.8-2.62v-6.19h1.63v6.14c0,1.44.59,2.16,1.76,2.16,1.24,0,2.07-.46,2.48-1.39v-6.92h1.63v9.51h-1.55l-.04-.94Z"/>
    <path class="cls-1" d="m554.71,506.37l.04,1.05c.7-.82,1.64-1.23,2.82-1.23,1.33,0,2.24.51,2.72,1.53.32-.46.73-.83,1.24-1.11s1.11-.42,1.8-.42c2.09,0,3.15,1.1,3.18,3.31v6.37h-1.63v-6.28c0-.68-.16-1.19-.47-1.53-.31-.34-.83-.5-1.56-.5-.6,0-1.1.18-1.5.54-.4.36-.63.85-.69,1.46v6.31h-1.63v-6.23c0-1.38-.68-2.07-2.03-2.07-1.07,0-1.8.45-2.19,1.36v6.94h-1.63v-9.51h1.54Z"/>
    <path class="cls-1" d="m577.01,511.23c0,1.45-.33,2.62-1,3.5s-1.56,1.32-2.69,1.32c-1.2,0-2.13-.42-2.79-1.27l-.08,1.1h-1.49v-13.5h1.63v5.04c.66-.81,1.56-1.22,2.72-1.22s2.06.44,2.72,1.31.99,2.07.99,3.59v.14Zm-1.63-.18c0-1.11-.21-1.96-.64-2.57s-1.04-.91-1.85-.91c-1.07,0-1.84.5-2.31,1.49v4.11c.5,1,1.27,1.49,2.33,1.49.78,0,1.39-.3,1.82-.91s.65-1.51.65-2.72Z"/>
    <path class="cls-1" d="m583.01,516.06c-1.29,0-2.34-.42-3.15-1.27s-1.21-1.98-1.21-3.4v-.3c0-.94.18-1.79.54-2.53s.86-1.32,1.51-1.74,1.35-.63,2.1-.63c1.24,0,2.2.41,2.88,1.22s1.03,1.98,1.03,3.5v.68h-6.44c.02.94.3,1.7.82,2.27.52.58,1.19.87,2,.87.57,0,1.06-.12,1.46-.35s.75-.54,1.05-.93l.99.77c-.8,1.22-1.99,1.84-3.59,1.84Zm-.2-8.53c-.66,0-1.21.24-1.65.72s-.72,1.15-.83,2.01h4.76v-.12c-.05-.83-.27-1.47-.67-1.92s-.94-.68-1.62-.68Z"/>
    <path class="cls-1" d="m593.19,507.83c-.25-.04-.51-.06-.8-.06-1.07,0-1.79.45-2.17,1.36v6.75h-1.63v-9.51h1.58l.03,1.1c.53-.85,1.29-1.27,2.27-1.27.32,0,.56.04.72.12v1.51Z"/>
    <path class="cls-1" d="m594.7,503.85c0-.26.08-.49.24-.67s.4-.27.72-.27.56.09.72.27.25.4.25.67-.08.48-.25.66-.4.26-.72.26-.55-.09-.72-.26-.24-.4-.24-.66Zm1.76,12.03h-1.63v-9.51h1.63v9.51Z"/>
    <path class="cls-1" d="m600.59,506.37l.05,1.2c.73-.91,1.68-1.37,2.85-1.37,2.01,0,3.02,1.13,3.04,3.4v6.28h-1.63v-6.29c0-.69-.16-1.19-.47-1.52s-.79-.49-1.44-.49c-.53,0-.99.14-1.39.42s-.71.65-.93,1.11v6.78h-1.63v-9.51h1.54Z"/>
    <path class="cls-1" d="m608.6,511.05c0-1.48.34-2.66,1.03-3.54s1.59-1.31,2.72-1.31,2.07.41,2.72,1.23l.08-1.05h1.49v9.28c0,1.23-.36,2.2-1.09,2.91s-1.71,1.06-2.94,1.06c-.69,0-1.36-.15-2.01-.44s-1.16-.69-1.5-1.2l.84-.98c.7.86,1.55,1.29,2.56,1.29.79,0,1.41-.22,1.85-.67s.66-1.07.66-1.88v-.82c-.65.75-1.54,1.12-2.66,1.12s-2.01-.45-2.7-1.34-1.03-2.12-1.03-3.67Zm1.63.18c0,1.07.22,1.92.66,2.53.44.61,1.05.92,1.85.92,1.03,0,1.78-.47,2.26-1.4v-4.34c-.5-.91-1.25-1.36-2.24-1.36-.79,0-1.41.31-1.85.92s-.67,1.53-.67,2.73Z"/>
    <path class="cls-1" d="m534.25,536.33c.58,0,1.09-.18,1.52-.53s.67-.79.72-1.32h1.54c-.03.54-.22,1.06-.56,1.56s-.81.88-1.38,1.18-1.19.44-1.83.44c-1.29,0-2.32-.43-3.09-1.3-.76-.86-1.15-2.05-1.15-3.55v-.27c0-.93.17-1.75.51-2.47s.83-1.28,1.46-1.68,1.39-.6,2.25-.6c1.07,0,1.95.32,2.66.96s1.08,1.47,1.13,2.49h-1.54c-.05-.62-.28-1.12-.7-1.52-.42-.4-.94-.59-1.55-.59-.83,0-1.47.3-1.92.89s-.68,1.45-.68,2.58v.31c0,1.1.23,1.94.68,2.53s1.1.89,1.93.89Z"/>
    <path class="cls-1" d="m539.42,532.64c0-.93.18-1.77.55-2.51s.88-1.32,1.53-1.72c.65-.4,1.4-.61,2.24-.61,1.29,0,2.34.45,3.14,1.34s1.2,2.09,1.2,3.58v.11c0,.93-.18,1.76-.53,2.49-.35.74-.86,1.31-1.52,1.72s-1.42.62-2.27.62c-1.29,0-2.33-.45-3.13-1.34-.8-.9-1.2-2.08-1.2-3.56v-.11Zm1.63.19c0,1.05.25,1.9.73,2.54s1.14.96,1.96.96,1.48-.32,1.97-.97c.49-.65.73-1.55.73-2.72,0-1.04-.25-1.89-.74-2.54-.5-.65-1.15-.97-1.97-.97s-1.45.32-1.94.96-.74,1.55-.74,2.74Z"/>
    <path class="cls-1" d="m555.99,536.54c-.63.74-1.56,1.12-2.79,1.12-1.01,0-1.79-.29-2.32-.88-.53-.59-.8-1.46-.8-2.62v-6.19h1.63v6.14c0,1.44.59,2.16,1.76,2.16,1.24,0,2.07-.46,2.48-1.39v-6.92h1.63v9.51h-1.55l-.04-.94Z"/>
    <path class="cls-1" d="m561.58,527.97l.05,1.2c.73-.91,1.68-1.37,2.85-1.37,2.01,0,3.02,1.13,3.04,3.4v6.28h-1.63v-6.29c0-.69-.16-1.19-.47-1.52s-.79-.49-1.44-.49c-.53,0-.99.14-1.39.42s-.71.65-.93,1.11v6.78h-1.63v-9.51h1.54Z"/>
    <path class="cls-1" d="m572.18,525.67v2.3h1.78v1.26h-1.78v5.91c0,.38.08.67.24.86s.43.29.81.29c.19,0,.45-.04.77-.11v1.31c-.43.12-.84.17-1.25.17-.73,0-1.27-.22-1.64-.66s-.55-1.06-.55-1.87v-5.9h-1.73v-1.26h1.73v-2.3h1.63Z"/>
    <path class="cls-1" d="m579.8,537.66c-1.29,0-2.34-.42-3.15-1.27s-1.21-1.98-1.21-3.4v-.3c0-.94.18-1.79.54-2.53s.86-1.32,1.51-1.74,1.35-.63,2.1-.63c1.24,0,2.2.41,2.88,1.22s1.03,1.98,1.03,3.5v.68h-6.44c.02.94.3,1.7.82,2.27.52.58,1.19.87,2,.87.57,0,1.06-.12,1.46-.35s.75-.54,1.05-.93l.99.77c-.8,1.22-1.99,1.84-3.59,1.84Zm-.2-8.53c-.66,0-1.21.24-1.65.72s-.72,1.15-.83,2.01h4.76v-.12c-.05-.83-.27-1.47-.67-1.92s-.94-.68-1.62-.68Z"/>
    <path class="cls-1" d="m589.99,529.43c-.25-.04-.51-.06-.8-.06-1.07,0-1.79.45-2.17,1.36v6.75h-1.63v-9.51h1.58l.03,1.1c.53-.85,1.29-1.27,2.27-1.27.32,0,.56.04.72.12v1.51Z"/>
    <path class="cls-1" d="m595.13,536.33c.58,0,1.09-.18,1.52-.53s.67-.79.72-1.32h1.54c-.03.54-.22,1.06-.56,1.56s-.81.88-1.38,1.18-1.19.44-1.83.44c-1.29,0-2.32-.43-3.09-1.3-.76-.86-1.15-2.05-1.15-3.55v-.27c0-.93.17-1.75.51-2.47s.83-1.28,1.46-1.68,1.39-.6,2.25-.6c1.07,0,1.95.32,2.66.96s1.08,1.47,1.13,2.49h-1.54c-.05-.62-.28-1.12-.7-1.52-.42-.4-.94-.59-1.55-.59-.83,0-1.47.3-1.92.89s-.68,1.45-.68,2.58v.31c0,1.1.23,1.94.68,2.53s1.1.89,1.93.89Z"/>
    <path class="cls-1" d="m602.5,537.48h-1.63v-13.5h1.63v13.5Z"/>
    <path class="cls-1" d="m604.67,532.64c0-.93.18-1.77.55-2.51s.88-1.32,1.53-1.72,1.4-.61,2.24-.61c1.29,0,2.34.45,3.14,1.34s1.2,2.09,1.2,3.58v.11c0,.93-.18,1.76-.53,2.49-.35.74-.86,1.31-1.52,1.72s-1.42.62-2.27.62c-1.29,0-2.33-.45-3.13-1.34s-1.2-2.08-1.2-3.56v-.11Zm1.63.19c0,1.05.25,1.9.73,2.54s1.14.96,1.96.96,1.48-.32,1.97-.97c.49-.65.73-1.55.73-2.72,0-1.04-.25-1.89-.74-2.54-.5-.65-1.15-.97-1.97-.97s-1.45.32-1.94.96-.74,1.55-.74,2.74Z"/>
    <path class="cls-1" d="m619.18,536.33c.58,0,1.09-.18,1.52-.53s.67-.79.72-1.32h1.54c-.03.54-.22,1.06-.56,1.56s-.81.88-1.38,1.18-1.19.44-1.83.44c-1.29,0-2.32-.43-3.09-1.3-.76-.86-1.15-2.05-1.15-3.55v-.27c0-.93.17-1.75.51-2.47s.83-1.28,1.46-1.68,1.39-.6,2.25-.6c1.07,0,1.95.32,2.66.96s1.08,1.47,1.13,2.49h-1.54c-.05-.62-.28-1.12-.7-1.52-.42-.4-.94-.59-1.55-.59-.83,0-1.47.3-1.92.89s-.68,1.45-.68,2.58v.31c0,1.1.23,1.94.68,2.53s1.1.89,1.93.89Z"/>
    <path class="cls-1" d="m627.44,533.08l-1.02,1.06v3.34h-1.63v-13.5h1.63v8.17l.87-1.05,2.96-3.13h1.98l-3.7,3.97,4.13,5.54h-1.91l-3.31-4.4Z"/>
    <path class="cls-1" d="m642.33,535.24l1.83-7.27h1.63l-2.77,9.51h-1.32l-2.31-7.21-2.25,7.21h-1.32l-2.76-9.51h1.62l1.87,7.12,2.21-7.12h1.31l2.26,7.27Z"/>
    <path class="cls-1" d="m647.45,525.45c0-.26.08-.49.24-.67s.4-.27.72-.27.56.09.72.27.25.4.25.67-.08.48-.25.66-.4.26-.72.26-.55-.09-.72-.26-.24-.4-.24-.66Zm1.76,12.03h-1.63v-9.51h1.63v9.51Z"/>
    <path class="cls-1" d="m657.34,534.96c0-.44-.17-.78-.5-1.02-.33-.24-.91-.45-1.73-.63s-1.48-.39-1.96-.63-.84-.54-1.07-.88-.35-.74-.35-1.21c0-.78.33-1.44.99-1.98s1.5-.81,2.53-.81c1.08,0,1.95.28,2.62.83s1.01,1.27,1.01,2.14h-1.63c0-.45-.19-.83-.57-1.15s-.85-.48-1.43-.48-1.05.13-1.39.39-.5.59-.5,1.01c0,.39.16.69.47.89s.87.39,1.68.57,1.47.4,1.97.65.88.56,1.12.91c.24.36.36.79.36,1.3,0,.85-.34,1.53-1.02,2.04-.68.51-1.56.77-2.65.77-.76,0-1.44-.13-2.02-.4s-1.04-.65-1.38-1.13c-.33-.48-.5-1.01-.5-1.57h1.63c.03.54.25.98.66,1.3.41.32.94.48,1.61.48.62,0,1.11-.12,1.48-.37.37-.25.56-.58.56-1Z"/>
    <path class="cls-1" d="m665.04,537.66c-1.29,0-2.34-.42-3.15-1.27s-1.21-1.98-1.21-3.4v-.3c0-.94.18-1.79.54-2.53s.86-1.32,1.51-1.74,1.35-.63,2.1-.63c1.24,0,2.2.41,2.88,1.22s1.03,1.98,1.03,3.5v.68h-6.44c.02.94.3,1.7.82,2.27.52.58,1.19.87,2,.87.57,0,1.06-.12,1.46-.35s.75-.54,1.05-.93l.99.77c-.8,1.22-1.99,1.84-3.59,1.84Zm-.2-8.53c-.66,0-1.21.24-1.65.72s-.72,1.15-.83,2.01h4.76v-.12c-.05-.83-.27-1.47-.67-1.92s-.94-.68-1.62-.68Z"/>
  </g>
  <polyline class="cls-5" points="513 130.68 504 141.48 495 130.68"/>
  <line class="cls-5" x1="504" y1="114.48" x2="504" y2="141.48"/>
  <polyline class="cls-5" points="402.07 181.08 412.87 190.08 402.07 199.08"/>
  <line class="cls-5" x1="385.87" y1="190.08" x2="412.87" y2="190.08"/>
</svg>