<?xml version="1.0" encoding="UTF-8"?>
<svg id="Ebene_1" data-name="Ebene 1" xmlns="http://www.w3.org/2000/svg" viewBox="0 0 1080 600.48">
  <defs>
    <style>
      .cls-1, .cls-2 {
        fill: #0D1117;
      }

      .cls-3 {
        fill: #d85648;
      }

      .cls-4 {
        stroke-width: 1.42px;
      }

      .cls-4, .cls-5, .cls-6, .cls-7, .cls-8 {
        fill: none;
        stroke-miterlimit: 10;
      }

      .cls-4, .cls-5, .cls-8 {
        stroke: #0D1117;
      }

      .cls-2 {
        font-family: Roboto-Regular, Roboto;
        font-size: 24px;
      }

      .cls-9 {
        letter-spacing: -.05em;
      }

      .cls-5, .cls-6, .cls-7 {
        stroke-width: 2.83px;
      }

      .cls-6 {
        stroke: #d85648;
      }

      .cls-7 {
        stroke: #307eef;
      }

      .cls-10 {
        letter-spacing: 0em;
      }

      .cls-8 {
        stroke-width: 5.67px;
      }
    </style>
  </defs>
  <rect class="cls-8" x="432" y="150.48" width="144" height="334.8"/>
  <rect class="cls-5" x="417.6" y="172.08" width="14.4" height="32.4"/>
  <rect class="cls-5" x="417.6" y="215.28" width="14.4" height="32.4"/>
  <rect class="cls-5" x="417.6" y="258.48" width="14.4" height="32.4"/>
  <rect class="cls-5" x="417.6" y="301.68" width="14.4" height="32.4"/>
  <rect class="cls-5" x="417.6" y="344.88" width="14.4" height="32.4"/>
  <rect class="cls-5" x="417.6" y="388.08" width="14.4" height="32.4"/>
  <rect class="cls-5" x="417.6" y="431.28" width="14.4" height="32.4"/>
  <rect class="cls-5" x="576" y="172.08" width="14.4" height="32.4"/>
  <rect class="cls-5" x="576" y="215.28" width="14.4" height="32.4"/>
  <rect class="cls-5" x="576" y="258.48" width="14.4" height="32.4"/>
  <rect class="cls-5" x="576" y="301.68" width="14.4" height="32.4"/>
  <rect class="cls-5" x="576" y="344.88" width="14.4" height="32.4"/>
  <rect class="cls-5" x="576" y="388.08" width="14.4" height="32.4"/>
  <rect class="cls-5" x="576" y="431.28" width="14.4" height="32.4"/>
  <path class="cls-5" d="m518.4,150.48v16.2c0,8.95-7.25,16.2-16.2,16.2s-16.2-7.25-16.2-16.2v-16.2"/>
  <text class="cls-2" transform="translate(446.4 197.09)"><tspan x="0" y="0">1</tspan></text>
  <text class="cls-2" transform="translate(446.4 240.29)"><tspan x="0" y="0">2</tspan></text>
  <text class="cls-2" transform="translate(446.4 283.49)"><tspan x="0" y="0">3</tspan></text>
  <text class="cls-2" transform="translate(446.4 326.69)"><tspan x="0" y="0">4</tspan></text>
  <text class="cls-2" transform="translate(446.4 369.89)"><tspan x="0" y="0">5</tspan></text>
  <text class="cls-2" transform="translate(446.4 413.09)"><tspan x="0" y="0">6</tspan></text>
  <text class="cls-2" transform="translate(446.4 456.29)"><tspan x="0" y="0">7</tspan></text>
  <text class="cls-2" transform="translate(548.12 456.29)"><tspan x="0" y="0">8</tspan></text>
  <text class="cls-2" transform="translate(548.12 413.09)"><tspan x="0" y="0">9</tspan></text>
  <text class="cls-2" transform="translate(534.65 369.89)"><tspan x="0" y="0">10</tspan></text>
  <text class="cls-2" transform="translate(534.65 326.69)"><tspan x="0" y="0">11</tspan></text>
  <text class="cls-2" transform="translate(534.65 283.49)"><tspan x="0" y="0">12</tspan></text>
  <text class="cls-2" transform="translate(534.65 240.29)"><tspan x="0" y="0">13</tspan></text>
  <text class="cls-2" transform="translate(534.65 197.09)"><tspan x="0" y="0">14</tspan></text>
  <circle class="cls-1" cx="448.2" cy="166.68" r="5.4"/>
  <g>
    <path class="cls-6" d="m601.2,140.49v47.79h-18"/>
    <polygon class="cls-3" points="592.18 157.25 594.85 158.21 601.2 140.77 607.55 158.21 610.21 157.25 601.2 132.48 592.18 157.25"/>
  </g>
  <polyline class="cls-7" points="406.8 492.48 406.8 447.48 424.8 447.48"/>
  <polygon class="cls-7" points="407 492.88 423.39 492.88 415.2 507.08 407 521.28 398.8 507.08 390.6 492.88 407 492.88"/>
  <text class="cls-2" transform="translate(205.2 478.08)"><tspan x="0" y="0">G</tspan><tspan class="cls-10" x="16.35" y="0">r</tspan><tspan x="24.23" y="0">ound (GN</tspan><tspan class="cls-9" x="125.53" y="0">D</tspan><tspan x="140.07" y="0">, V</tspan></text>
  <text class="cls-2" transform="translate(371.2 486.07) scale(.58)"><tspan x="0" y="0">SS</tspan></text>
  <text class="cls-2" transform="translate(387.8 478.08)"><tspan x="0" y="0">)</tspan></text>
  <g>
    <path class="cls-1" d="m623.43,163.6v6.68h-2.25v-17.06h6.29c1.87,0,3.33.48,4.39,1.43s1.59,2.21,1.59,3.79c0,1.66-.52,2.93-1.55,3.83s-2.52,1.34-4.45,1.34h-4.02Zm0-1.84h4.04c1.2,0,2.12-.28,2.77-.85.64-.57.96-1.39.96-2.46s-.32-1.83-.96-2.44-1.52-.93-2.64-.95h-4.17v6.7Z"/>
    <path class="cls-1" d="m635.25,163.82c0-1.24.24-2.36.73-3.35s1.17-1.76,2.04-2.3,1.87-.81,2.98-.81c1.73,0,3.12.6,4.19,1.79s1.6,2.79,1.6,4.77v.15c0,1.23-.24,2.34-.71,3.32s-1.15,1.74-2.03,2.29-1.89.82-3.03.82c-1.72,0-3.11-.6-4.18-1.79s-1.6-2.78-1.6-4.75v-.15Zm2.18.26c0,1.41.33,2.54.98,3.39s1.53,1.28,2.62,1.28,1.98-.43,2.62-1.29.97-2.07.97-3.63c0-1.39-.33-2.52-.99-3.38s-1.54-1.29-2.63-1.29-1.93.43-2.59,1.28-.98,2.07-.98,3.66Z"/>
    <path class="cls-1" d="m656.9,166.92c0-.59-.22-1.04-.66-1.37s-1.21-.6-2.31-.84-1.97-.52-2.61-.84-1.12-.72-1.43-1.17-.46-.99-.46-1.62c0-1.04.44-1.92,1.32-2.64s2-1.08,3.37-1.08c1.44,0,2.6.37,3.5,1.11s1.34,1.69,1.34,2.85h-2.18c0-.59-.25-1.11-.76-1.54s-1.14-.64-1.9-.64-1.41.17-1.85.52-.67.79-.67,1.35c0,.52.21.92.62,1.18s1.16.52,2.24.76,1.96.53,2.63.87,1.17.74,1.49,1.21.49,1.05.49,1.73c0,1.13-.45,2.04-1.36,2.72s-2.08,1.03-3.53,1.03c-1.02,0-1.91-.18-2.7-.54s-1.39-.86-1.83-1.51-.66-1.34-.66-2.09h2.17c.04.73.33,1.3.87,1.73s1.26.64,2.15.64c.82,0,1.48-.17,1.97-.5s.74-.78.74-1.33Z"/>
    <path class="cls-1" d="m661.9,154.24c0-.35.11-.65.32-.89s.53-.36.96-.36.74.12.96.36.33.54.33.89-.11.64-.33.88-.54.35-.96.35-.74-.12-.96-.35-.32-.53-.32-.88Zm2.34,16.04h-2.17v-12.68h2.17v12.68Z"/>
    <path class="cls-1" d="m670.66,154.53v3.07h2.37v1.68h-2.37v7.87c0,.51.11.89.32,1.14.21.25.57.38,1.08.38.25,0,.59-.05,1.03-.14v1.75c-.57.15-1.12.23-1.66.23-.97,0-1.7-.29-2.19-.88s-.74-1.42-.74-2.5v-7.86h-2.31v-1.68h2.31v-3.07h2.17Z"/>
    <path class="cls-1" d="m675.57,154.24c0-.35.11-.65.32-.89s.53-.36.96-.36.74.12.96.36.33.54.33.89-.11.64-.33.88-.54.35-.96.35-.74-.12-.96-.35-.32-.53-.32-.88Zm2.34,16.04h-2.17v-12.68h2.17v12.68Z"/>
    <path class="cls-1" d="m685.56,167.34l3.14-9.74h2.21l-4.55,12.68h-1.65l-4.59-12.68h2.21l3.22,9.74Z"/>
    <path class="cls-1" d="m698.11,170.51c-1.72,0-3.12-.56-4.2-1.69s-1.62-2.64-1.62-4.53v-.4c0-1.26.24-2.38.72-3.37s1.15-1.76,2.02-2.32,1.8-.84,2.81-.84c1.65,0,2.93.54,3.84,1.63s1.37,2.64,1.37,4.66v.9h-8.59c.03,1.25.4,2.26,1.1,3.03s1.59,1.15,2.67,1.15c.77,0,1.41-.16,1.95-.47s1-.73,1.39-1.24l1.32,1.03c-1.06,1.63-2.66,2.45-4.78,2.45Zm-.27-11.37c-.88,0-1.61.32-2.2.96s-.96,1.53-1.1,2.68h6.35v-.16c-.06-1.1-.36-1.96-.89-2.56s-1.25-.91-2.16-.91Z"/>
    <path class="cls-1" d="m718.89,166.92c0-.59-.22-1.04-.66-1.37s-1.21-.6-2.31-.84-1.97-.52-2.61-.84-1.12-.72-1.43-1.17-.46-.99-.46-1.62c0-1.04.44-1.92,1.32-2.64s2-1.08,3.37-1.08c1.44,0,2.6.37,3.5,1.11s1.34,1.69,1.34,2.85h-2.18c0-.59-.25-1.11-.76-1.54s-1.14-.64-1.9-.64-1.41.17-1.85.52-.67.79-.67,1.35c0,.52.21.92.62,1.18s1.16.52,2.24.76,1.96.53,2.63.87,1.17.74,1.49,1.21.49,1.05.49,1.73c0,1.13-.45,2.04-1.36,2.72s-2.08,1.03-3.53,1.03c-1.02,0-1.91-.18-2.7-.54s-1.39-.86-1.83-1.51-.66-1.34-.66-2.09h2.17c.04.73.33,1.3.87,1.73s1.26.64,2.15.64c.82,0,1.48-.17,1.97-.5s.74-.78.74-1.33Z"/>
    <path class="cls-1" d="m731.71,169.03c-.84.99-2.08,1.49-3.71,1.49-1.35,0-2.38-.39-3.09-1.18s-1.06-1.95-1.07-3.49v-8.25h2.17v8.19c0,1.92.78,2.88,2.34,2.88,1.66,0,2.76-.62,3.3-1.85v-9.22h2.17v12.68h-2.06l-.05-1.25Z"/>
    <path class="cls-1" d="m747.83,164.08c0,1.93-.44,3.48-1.32,4.66s-2.08,1.77-3.59,1.77-2.75-.49-3.63-1.46v6.11h-2.17v-17.55h1.98l.11,1.41c.88-1.09,2.11-1.64,3.68-1.64s2.73.57,3.62,1.72,1.33,2.75,1.33,4.79v.2Zm-2.17-.25c0-1.43-.3-2.56-.91-3.39s-1.45-1.24-2.51-1.24c-1.31,0-2.3.58-2.95,1.75v6.06c.65,1.16,1.64,1.73,2.98,1.73,1.04,0,1.87-.41,2.48-1.24s.92-2.05.92-3.67Z"/>
    <path class="cls-1" d="m761.29,164.08c0,1.93-.44,3.48-1.32,4.66s-2.08,1.77-3.59,1.77-2.75-.49-3.63-1.46v6.11h-2.17v-17.55h1.98l.11,1.41c.88-1.09,2.11-1.64,3.68-1.64s2.73.57,3.62,1.72,1.33,2.75,1.33,4.79v.2Zm-2.17-.25c0-1.43-.3-2.56-.91-3.39s-1.45-1.24-2.51-1.24c-1.31,0-2.3.58-2.95,1.75v6.06c.65,1.16,1.64,1.73,2.98,1.73,1.04,0,1.87-.41,2.48-1.24s.92-2.05.92-3.67Z"/>
    <path class="cls-1" d="m766.4,170.28h-2.17v-18h2.17v18Z"/>
    <path class="cls-1" d="m774.02,167.1l2.95-9.5h2.32l-5.1,14.64c-.79,2.11-2.04,3.16-3.76,3.16l-.41-.04-.81-.15v-1.76l.59.05c.73,0,1.31-.15,1.72-.45s.75-.84,1.01-1.63l.48-1.29-4.52-12.54h2.37l3.16,9.5Z"/>
    <path class="cls-1" d="m791.35,167.34l3.14-9.74h2.21l-4.55,12.68h-1.65l-4.59-12.68h2.21l3.22,9.74Z"/>
    <path class="cls-1" d="m798.04,163.82c0-1.24.24-2.36.73-3.35s1.17-1.76,2.04-2.3,1.87-.81,2.98-.81c1.73,0,3.12.6,4.19,1.79s1.6,2.79,1.6,4.77v.15c0,1.23-.24,2.34-.71,3.32s-1.15,1.74-2.03,2.29-1.89.82-3.03.82c-1.72,0-3.11-.6-4.18-1.79s-1.6-2.78-1.6-4.75v-.15Zm2.18.26c0,1.41.33,2.54.98,3.39s1.53,1.28,2.62,1.28,1.98-.43,2.62-1.29.97-2.07.97-3.63c0-1.39-.33-2.52-.99-3.38s-1.54-1.29-2.63-1.29-1.93.43-2.59,1.28-.98,2.07-.98,3.66Z"/>
    <path class="cls-1" d="m814.66,170.28h-2.17v-18h2.17v18Z"/>
    <path class="cls-1" d="m821.07,154.53v3.07h2.37v1.68h-2.37v7.87c0,.51.11.89.32,1.14.21.25.57.38,1.08.38.25,0,.59-.05,1.03-.14v1.75c-.57.15-1.12.23-1.66.23-.97,0-1.7-.29-2.19-.88s-.74-1.42-.74-2.5v-7.86h-2.31v-1.68h2.31v-3.07h2.17Z"/>
    <path class="cls-1" d="m833.79,170.28c-.12-.25-.23-.7-.3-1.34-1.01,1.05-2.21,1.57-3.61,1.57-1.25,0-2.28-.35-3.08-1.06s-1.2-1.6-1.2-2.69c0-1.32.5-2.35,1.51-3.08s2.42-1.1,4.24-1.1h2.11v-1c0-.76-.23-1.36-.68-1.81s-1.12-.67-2-.67c-.77,0-1.42.2-1.95.59s-.79.86-.79,1.42h-2.18c0-.63.22-1.24.67-1.83s1.06-1.06,1.83-1.4,1.62-.52,2.54-.52c1.46,0,2.61.37,3.43,1.1s1.26,1.74,1.29,3.02v5.84c0,1.16.15,2.09.45,2.78v.19h-2.27Zm-3.6-1.65c.68,0,1.32-.18,1.93-.53s1.05-.81,1.32-1.37v-2.6h-1.7c-2.66,0-3.98.78-3.98,2.33,0,.68.23,1.21.68,1.59s1.04.57,1.75.57Z"/>
    <path class="cls-1" d="m838.5,163.83c0-1.98.46-3.55,1.37-4.72s2.12-1.75,3.63-1.75,2.75.55,3.62,1.64l.11-1.41h1.98v12.38c0,1.64-.49,2.93-1.46,3.88s-2.28,1.42-3.92,1.42c-.91,0-1.81-.2-2.68-.59-.88-.39-1.54-.93-2-1.61l1.12-1.3c.93,1.15,2.07,1.72,3.41,1.72,1.05,0,1.88-.3,2.47-.89s.88-1.43.88-2.51v-1.09c-.87,1-2.05,1.5-3.55,1.5s-2.68-.6-3.6-1.79-1.38-2.82-1.38-4.89Zm2.18.25c0,1.43.29,2.55.88,3.37.58.82,1.41,1.22,2.46,1.22,1.37,0,2.37-.62,3.01-1.86v-5.79c-.66-1.21-1.66-1.82-2.99-1.82-1.05,0-1.88.41-2.47,1.23-.59.82-.89,2.04-.89,3.64Z"/>
    <path class="cls-1" d="m857.75,170.51c-1.72,0-3.12-.56-4.2-1.69s-1.62-2.64-1.62-4.53v-.4c0-1.26.24-2.38.72-3.37s1.15-1.76,2.02-2.32,1.8-.84,2.81-.84c1.65,0,2.93.54,3.84,1.63s1.37,2.64,1.37,4.66v.9h-8.59c.03,1.25.4,2.26,1.1,3.03s1.59,1.15,2.67,1.15c.77,0,1.41-.16,1.95-.47s1-.73,1.39-1.24l1.32,1.03c-1.06,1.63-2.66,2.45-4.78,2.45Zm-.27-11.37c-.88,0-1.61.32-2.2.96s-.96,1.53-1.1,2.68h6.35v-.16c-.06-1.1-.36-1.96-.89-2.56s-1.25-.91-2.16-.91Z"/>
    <path class="cls-1" d="m620.76,192.15c0-1.77.24-3.46.71-5.09s1.18-3.1,2.12-4.43,1.91-2.27,2.92-2.81l.45,1.43c-1.14.88-2.08,2.21-2.81,4.01s-1.13,3.81-1.2,6.04v1c-.01,3.02.54,5.63,1.64,7.85.66,1.33,1.45,2.37,2.37,3.12l-.45,1.32c-1.04-.58-2.03-1.55-2.98-2.91-1.84-2.66-2.77-5.83-2.77-9.53Z"/>
    <path class="cls-1" d="m635.27,196.09l4.88-14.07h2.46l-6.33,17.06h-1.99l-6.32-17.06h2.45l4.85,14.07Z"/>
    <path class="cls-1" d="m650.76,189.93h4.76v2.05h-4.76v5.39h-2.18v-5.39h-4.76v-2.05h4.76v-4.98h2.18v4.98Z"/>
    <path class="cls-1" d="m658.08,202.48l-1.23-.84c.73-1.02,1.12-2.08,1.15-3.16v-1.96h2.12v1.7c0,.79-.19,1.58-.58,2.37s-.87,1.42-1.46,1.9Z"/>
    <path class="cls-1" d="m674.79,196.09l4.88-14.07h2.46l-6.33,17.06h-1.99l-6.32-17.06h2.45l4.85,14.07Z"/>
    <path class="cls-1" d="m683.59,207.07v-9.95h2.81c.87,0,1.63.19,2.3.57.67.38,1.18.93,1.54,1.63.36.71.54,1.52.55,2.43v.64c0,.94-.18,1.76-.54,2.47-.36.71-.88,1.25-1.55,1.63-.67.38-1.45.57-2.35.58h-2.75Zm1.31-8.88v7.8h1.38c1.01,0,1.8-.31,2.36-.94.56-.63.84-1.52.84-2.69v-.58c0-1.13-.27-2.01-.8-2.64-.53-.63-1.28-.94-2.26-.95h-1.53Z"/>
    <path class="cls-1" d="m692.76,207.07v-9.95h2.81c.87,0,1.63.19,2.3.57.66.38,1.18.93,1.54,1.63s.55,1.52.55,2.43v.64c0,.94-.18,1.76-.54,2.47s-.88,1.25-1.55,1.63c-.67.38-1.45.57-2.35.58h-2.75Zm1.31-8.88v7.8h1.38c1.01,0,1.8-.31,2.36-.94.56-.63.84-1.52.84-2.69v-.58c0-1.13-.27-2.01-.8-2.64s-1.28-.94-2.26-.95h-1.53Z"/>
    <path class="cls-1" d="m707.43,192.27c0,1.74-.23,3.41-.69,5.01s-1.16,3.07-2.1,4.42-1.93,2.31-2.96,2.88l-.46-1.32c1.2-.92,2.17-2.35,2.9-4.29s1.1-4.1,1.12-6.46v-.38c0-1.64-.17-3.17-.52-4.58s-.82-2.67-1.44-3.79-1.3-1.99-2.07-2.61l.46-1.32c1.03.57,2.01,1.52,2.95,2.86s1.63,2.81,2.1,4.42.7,3.33.7,5.17Z"/>
  </g>
  <text class="cls-2" transform="translate(376.57 100.08)"><tspan x="0" y="0">Notch,orientation guide</tspan></text>
  <text class="cls-2" transform="translate(55.8 197.09)"><tspan x="0" y="0">First pin </tspan><tspan class="cls-10" x="91.84" y="0">t</tspan><tspan x="99.45" y="0">o the left of the notch</tspan></text>
  <g>
    <path class="cls-1" d="m483.23,526.68h-2.26l-8.59-13.15v13.15h-2.26v-17.06h2.26l8.61,13.21v-13.21h2.24v17.06Z"/>
    <path class="cls-1" d="m494.71,525.43c-.84.99-2.08,1.49-3.71,1.49-1.35,0-2.38-.39-3.09-1.18s-1.06-1.95-1.07-3.49v-8.25h2.17v8.19c0,1.92.78,2.88,2.34,2.88,1.66,0,2.76-.62,3.3-1.85v-9.22h2.17v12.68h-2.06l-.05-1.25Z"/>
    <path class="cls-1" d="m502.16,514l.06,1.41c.93-1.09,2.18-1.64,3.76-1.64,1.77,0,2.98.68,3.62,2.04.42-.61.97-1.1,1.65-1.48s1.47-.56,2.4-.56c2.78,0,4.2,1.47,4.24,4.42v8.5h-2.17v-8.37c0-.91-.21-1.58-.62-2.03s-1.11-.67-2.09-.67c-.8,0-1.47.24-2,.72s-.84,1.13-.93,1.94v8.41h-2.18v-8.31c0-1.84-.9-2.77-2.71-2.77-1.42,0-2.39.61-2.92,1.82v9.26h-2.17v-12.68h2.05Z"/>
    <path class="cls-1" d="m531.89,520.48c0,1.94-.45,3.49-1.34,4.67s-2.09,1.76-3.59,1.76c-1.6,0-2.84-.57-3.71-1.7l-.11,1.46h-1.99v-18h2.17v6.71c.88-1.09,2.08-1.63,3.62-1.63s2.75.58,3.63,1.75,1.32,2.76,1.32,4.78v.19Zm-2.17-.25c0-1.48-.29-2.62-.86-3.42s-1.39-1.21-2.46-1.21c-1.43,0-2.46.66-3.08,1.99v5.48c.66,1.33,1.7,1.99,3.11,1.99,1.04,0,1.85-.4,2.43-1.21s.87-2.02.87-3.63Z"/>
    <path class="cls-1" d="m539.88,526.92c-1.72,0-3.12-.56-4.2-1.69s-1.62-2.64-1.62-4.53v-.4c0-1.26.24-2.38.72-3.37s1.15-1.76,2.02-2.32,1.8-.84,2.81-.84c1.65,0,2.93.54,3.84,1.63s1.37,2.64,1.37,4.66v.9h-8.59c.03,1.25.4,2.26,1.1,3.03s1.59,1.15,2.67,1.15c.77,0,1.41-.16,1.95-.47s1-.73,1.39-1.24l1.32,1.03c-1.06,1.63-2.66,2.45-4.78,2.45Zm-.27-11.37c-.88,0-1.61.32-2.2.96s-.96,1.53-1.1,2.68h6.35v-.16c-.06-1.1-.36-1.96-.89-2.56s-1.25-.91-2.16-.91Z"/>
    <path class="cls-1" d="m553.46,515.95c-.33-.05-.68-.08-1.07-.08-1.42,0-2.39.61-2.89,1.82v9h-2.17v-12.68h2.11l.04,1.46c.71-1.13,1.72-1.7,3.02-1.7.42,0,.74.05.96.16v2.02Z"/>
    <path class="cls-1" d="m555.46,510.64c0-.35.11-.65.32-.89s.53-.36.96-.36.74.12.96.36.33.54.33.89-.11.64-.33.88-.54.35-.96.35-.74-.12-.96-.35-.32-.53-.32-.88Zm2.34,16.04h-2.17v-12.68h2.17v12.68Z"/>
    <path class="cls-1" d="m563.33,514l.07,1.59c.97-1.22,2.23-1.83,3.8-1.83,2.68,0,4.03,1.51,4.05,4.54v8.38h-2.17v-8.39c0-.91-.22-1.59-.63-2.03s-1.05-.66-1.92-.66c-.7,0-1.32.19-1.85.56s-.95.87-1.24,1.48v9.04h-2.17v-12.68h2.05Z"/>
    <path class="cls-1" d="m574,520.24c0-1.98.46-3.55,1.37-4.72s2.12-1.75,3.63-1.75,2.75.55,3.62,1.64l.11-1.41h1.98v12.38c0,1.64-.49,2.93-1.46,3.88s-2.28,1.42-3.92,1.42c-.91,0-1.81-.2-2.68-.59s-1.54-.93-2-1.61l1.12-1.3c.93,1.15,2.07,1.72,3.41,1.72,1.05,0,1.88-.3,2.47-.89s.88-1.43.88-2.51v-1.09c-.87,1-2.05,1.5-3.55,1.5s-2.69-.6-3.6-1.79-1.38-2.82-1.38-4.89Zm2.18.25c0,1.43.29,2.55.88,3.37s1.41,1.22,2.46,1.22c1.37,0,2.37-.62,3.01-1.86v-5.79c-.66-1.21-1.66-1.82-2.99-1.82-1.05,0-1.88.41-2.47,1.23s-.89,2.04-.89,3.64Z"/>
    <path class="cls-1" d="m474.86,553.95c.77,0,1.45-.23,2.03-.7s.9-1.05.96-1.76h2.05c-.04.73-.29,1.42-.75,2.07s-1.08,1.18-1.85,1.57-1.58.59-2.44.59c-1.73,0-3.1-.58-4.12-1.73s-1.53-2.73-1.53-4.73v-.36c0-1.23.23-2.33.68-3.29s1.1-1.71,1.95-2.24,1.85-.8,3.01-.8c1.42,0,2.6.43,3.54,1.28s1.44,1.96,1.51,3.32h-2.05c-.06-.82-.37-1.49-.93-2.02s-1.25-.79-2.07-.79c-1.1,0-1.96.4-2.56,1.19s-.91,1.94-.91,3.44v.41c0,1.46.3,2.59.9,3.38s1.46,1.18,2.58,1.18Z"/>
    <path class="cls-1" d="m481.77,549.02c0-1.24.24-2.36.73-3.35s1.17-1.76,2.04-2.3,1.87-.81,2.98-.81c1.73,0,3.12.6,4.19,1.79s1.6,2.79,1.6,4.77v.15c0,1.23-.24,2.34-.71,3.32s-1.15,1.74-2.03,2.29-1.89.82-3.03.82c-1.72,0-3.11-.6-4.18-1.79s-1.6-2.78-1.6-4.75v-.15Zm2.18.26c0,1.41.33,2.54.98,3.39s1.53,1.28,2.62,1.28,1.98-.43,2.62-1.29.97-2.07.97-3.63c0-1.39-.33-2.52-.99-3.38s-1.54-1.29-2.63-1.29-1.93.43-2.59,1.28-.98,2.07-.98,3.66Z"/>
    <path class="cls-1" d="m503.86,554.23c-.84.99-2.08,1.49-3.71,1.49-1.35,0-2.38-.39-3.09-1.18s-1.06-1.95-1.07-3.49v-8.25h2.17v8.19c0,1.92.78,2.88,2.34,2.88,1.66,0,2.76-.62,3.3-1.85v-9.22h2.17v12.68h-2.06l-.05-1.25Z"/>
    <path class="cls-1" d="m511.31,542.8l.07,1.59c.97-1.22,2.23-1.83,3.8-1.83,2.68,0,4.03,1.51,4.05,4.54v8.38h-2.17v-8.39c0-.91-.22-1.59-.63-2.03s-1.05-.66-1.92-.66c-.7,0-1.32.19-1.85.56s-.95.87-1.24,1.48v9.04h-2.17v-12.68h2.05Z"/>
    <path class="cls-1" d="m525.44,539.73v3.07h2.37v1.68h-2.37v7.87c0,.51.11.89.32,1.14.21.25.57.38,1.08.38.25,0,.59-.05,1.03-.14v1.75c-.57.15-1.12.23-1.66.23-.97,0-1.7-.29-2.19-.88s-.74-1.42-.74-2.5v-7.86h-2.31v-1.68h2.31v-3.07h2.17Z"/>
    <path class="cls-1" d="m535.6,555.71c-1.72,0-3.12-.56-4.2-1.69s-1.62-2.64-1.62-4.53v-.4c0-1.26.24-2.38.72-3.37s1.15-1.76,2.02-2.32,1.8-.84,2.81-.84c1.65,0,2.93.54,3.84,1.63s1.37,2.64,1.37,4.66v.9h-8.59c.03,1.25.4,2.26,1.1,3.03s1.59,1.15,2.67,1.15c.77,0,1.41-.16,1.95-.47s1-.73,1.39-1.24l1.32,1.03c-1.06,1.63-2.66,2.45-4.78,2.45Zm-.27-11.37c-.88,0-1.61.32-2.2.96s-.96,1.53-1.1,2.68h6.35v-.16c-.06-1.1-.36-1.96-.89-2.56s-1.25-.91-2.16-.91Z"/>
    <path class="cls-1" d="m549.18,544.75c-.33-.05-.68-.08-1.07-.08-1.42,0-2.39.61-2.89,1.82v9h-2.17v-12.68h2.11l.04,1.46c.71-1.13,1.72-1.7,3.02-1.7.42,0,.74.05.96.16v2.02Z"/>
    <path class="cls-1" d="m556.04,553.95c.77,0,1.45-.23,2.03-.7s.9-1.05.96-1.76h2.05c-.04.73-.29,1.42-.75,2.07s-1.08,1.18-1.85,1.57-1.58.59-2.44.59c-1.73,0-3.1-.58-4.12-1.73s-1.53-2.73-1.53-4.73v-.36c0-1.23.23-2.33.68-3.29s1.1-1.71,1.95-2.24,1.85-.8,3.01-.8c1.42,0,2.6.43,3.54,1.28s1.44,1.96,1.51,3.32h-2.05c-.06-.82-.37-1.49-.93-2.02s-1.25-.79-2.07-.79c-1.1,0-1.96.4-2.56,1.19s-.91,1.94-.91,3.44v.41c0,1.46.3,2.59.9,3.38s1.46,1.18,2.58,1.18Z"/>
    <path class="cls-1" d="m565.87,555.48h-2.17v-18h2.17v18Z"/>
    <path class="cls-1" d="m568.77,549.02c0-1.24.24-2.36.73-3.35s1.17-1.76,2.04-2.3,1.87-.81,2.98-.81c1.73,0,3.12.6,4.19,1.79s1.6,2.79,1.6,4.77v.15c0,1.23-.24,2.34-.71,3.32s-1.15,1.74-2.03,2.29-1.89.82-3.03.82c-1.72,0-3.11-.6-4.18-1.79s-1.6-2.78-1.6-4.75v-.15Zm2.18.26c0,1.41.33,2.54.98,3.39s1.53,1.28,2.62,1.28,1.98-.43,2.62-1.29.97-2.07.97-3.63c0-1.39-.33-2.52-.99-3.38s-1.54-1.29-2.63-1.29-1.93.43-2.59,1.28-.98,2.07-.98,3.66Z"/>
    <path class="cls-1" d="m588.11,553.95c.77,0,1.45-.23,2.03-.7s.9-1.05.96-1.76h2.05c-.04.73-.29,1.42-.75,2.07s-1.08,1.18-1.85,1.57-1.58.59-2.44.59c-1.73,0-3.1-.58-4.12-1.73s-1.53-2.73-1.53-4.73v-.36c0-1.23.23-2.33.68-3.29s1.1-1.71,1.95-2.24,1.85-.8,3.01-.8c1.42,0,2.6.43,3.54,1.28s1.44,1.96,1.51,3.32h-2.05c-.06-.82-.37-1.49-.93-2.02s-1.25-.79-2.07-.79c-1.1,0-1.96.4-2.56,1.19s-.91,1.94-.91,3.44v.41c0,1.46.3,2.59.9,3.38s1.46,1.18,2.58,1.18Z"/>
    <path class="cls-1" d="m599.13,549.61l-1.36,1.42v4.45h-2.17v-18h2.17v10.89l1.16-1.39,3.95-4.17h2.64l-4.93,5.3,5.51,7.38h-2.54l-4.42-5.87Z"/>
    <path class="cls-1" d="m618.98,552.49l2.44-9.69h2.17l-3.69,12.68h-1.76l-3.08-9.61-3,9.61h-1.76l-3.68-12.68h2.16l2.5,9.49,2.95-9.49h1.75l3.01,9.69Z"/>
    <path class="cls-1" d="m625.8,539.44c0-.35.11-.65.32-.89s.53-.36.96-.36.74.12.96.36.33.54.33.89-.11.64-.33.88-.54.35-.96.35-.74-.12-.96-.35-.32-.53-.32-.88Zm2.34,16.04h-2.17v-12.68h2.17v12.68Z"/>
    <path class="cls-1" d="m639,552.12c0-.59-.22-1.04-.66-1.37s-1.21-.6-2.31-.84-1.97-.52-2.61-.84-1.12-.72-1.43-1.17-.46-.99-.46-1.62c0-1.04.44-1.92,1.32-2.64s2-1.08,3.37-1.08c1.44,0,2.6.37,3.5,1.11s1.34,1.69,1.34,2.85h-2.18c0-.59-.25-1.11-.76-1.54s-1.14-.64-1.9-.64-1.41.17-1.85.52-.67.79-.67,1.35c0,.52.21.92.62,1.18s1.16.52,2.24.76,1.96.53,2.63.87,1.17.74,1.49,1.21.49,1.05.49,1.73c0,1.13-.45,2.04-1.36,2.72s-2.08,1.03-3.53,1.03c-1.02,0-1.91-.18-2.7-.54s-1.39-.86-1.83-1.51-.66-1.34-.66-2.09h2.17c.04.73.33,1.3.87,1.73s1.26.64,2.15.64c.82,0,1.48-.17,1.97-.5s.74-.78.74-1.33Z"/>
    <path class="cls-1" d="m649.25,555.71c-1.72,0-3.12-.56-4.2-1.69s-1.62-2.64-1.62-4.53v-.4c0-1.26.24-2.38.72-3.37s1.15-1.76,2.02-2.32,1.8-.84,2.81-.84c1.65,0,2.93.54,3.84,1.63s1.37,2.64,1.37,4.66v.9h-8.59c.03,1.25.4,2.26,1.1,3.03s1.59,1.15,2.67,1.15c.77,0,1.41-.16,1.95-.47s1-.73,1.39-1.24l1.32,1.03c-1.06,1.63-2.66,2.45-4.78,2.45Zm-.27-11.37c-.88,0-1.61.32-2.2.96s-.96,1.53-1.1,2.68h6.35v-.16c-.06-1.1-.36-1.96-.89-2.56s-1.25-.91-2.16-.91Z"/>
  </g>
  <polyline class="cls-4" points="513 130.68 504 141.48 495 130.68"/>
  <line class="cls-4" x1="504" y1="114.48" x2="504" y2="141.48"/>
  <polyline class="cls-4" points="402.07 181.08 412.87 190.08 402.07 199.08"/>
  <line class="cls-4" x1="385.87" y1="190.08" x2="412.87" y2="190.08"/>
</svg>