<?xml version="1.0" encoding="utf-8"?>
<!-- Generator: Adobe Illustrator 27.4.1, SVG Export Plug-In . SVG Version: 6.00 Build 0)  -->
<svg version="1.1" id="Ebene_1" xmlns="http://www.w3.org/2000/svg" xmlns:xlink="http://www.w3.org/1999/xlink" x="0px" y="0px"
	 viewBox="0 0 1080 600.5" style="enable-background:new 0 0 1080 600.5;" xml:space="preserve">
<style type="text/css">
	.st0{fill:none;stroke:#C9D1D9;stroke-width:2.8346;stroke-miterlimit:10;}
	.st1{fill:none;stroke:#C9D1D9;stroke-width:1.0006;stroke-miterlimit:10;}
	.st2{fill:none;stroke:#C9D1D9;stroke-width:2.83;stroke-miterlimit:10;}
	.st3{enable-background:new    ;}
	.st4{fill:#C9D1D9;}
	.st5{fill:none;stroke:#D85648;stroke-width:2.83;stroke-miterlimit:10;}
	.st6{fill:#D85648;}
	.st7{fill:none;stroke:#307EEF;stroke-width:2.83;stroke-miterlimit:10;}
	.st8{fill:none;stroke:#C9D1D9;stroke-width:1.42;stroke-miterlimit:10;}
	.st9{font-family:'Roboto-Regular';}
	.st10{font-size:10.494px;}
	.st11{font-size:18px;}
</style>
<rect x="436" y="150.5" class="st0" width="144" height="334.8"/>
<rect x="421.6" y="172.1" class="st1" width="14.4" height="32.4"/>
<rect x="421.6" y="215.3" class="st1" width="14.4" height="32.4"/>
<rect x="421.6" y="258.5" class="st1" width="14.4" height="32.4"/>
<rect x="421.6" y="301.7" class="st1" width="14.4" height="32.4"/>
<rect x="421.6" y="344.9" class="st1" width="14.4" height="32.4"/>
<rect x="421.6" y="388.1" class="st1" width="14.4" height="32.4"/>
<rect x="421.6" y="431.3" class="st1" width="14.4" height="32.4"/>
<rect x="580" y="172.1" class="st1" width="14.4" height="32.4"/>
<rect x="580" y="215.3" class="st1" width="14.4" height="32.4"/>
<rect x="580" y="258.5" class="st1" width="14.4" height="32.4"/>
<rect x="580" y="301.7" class="st1" width="14.4" height="32.4"/>
<rect x="580" y="344.9" class="st1" width="14.4" height="32.4"/>
<rect x="580" y="388.1" class="st1" width="14.4" height="32.4"/>
<rect x="580" y="431.3" class="st1" width="14.4" height="32.4"/>
<path class="st2" d="M522.4,150.5v16.2c0,8.9-7.2,16.2-16.2,16.2s-16.2-7.2-16.2-16.2v-16.2"/>
<g class="st3">
	<path class="st4" d="M458.9,197.1h-2.2v-14.4l-4.4,1.6v-2l6.2-2.3h0.3V197.1z"/>
</g>
<g class="st3">
	<path class="st4" d="M463,240.3h-11.2v-1.6l5.9-6.6c0.9-1,1.5-1.8,1.8-2.4s0.5-1.3,0.5-1.9c0-0.9-0.3-1.6-0.8-2.2s-1.3-0.9-2.2-0.9
		c-1.1,0-1.9,0.3-2.5,0.9s-0.9,1.5-0.9,2.6h-2.2c0-1.6,0.5-2.8,1.5-3.8s2.4-1.5,4.1-1.5c1.6,0,2.8,0.4,3.8,1.2s1.4,1.9,1.4,3.3
		c0,1.7-1.1,3.7-3.2,6l-4.6,5h8.6V240.3z"/>
</g>
<g class="st3">
	<path class="st4" d="M455,273.9h1.6c1,0,1.8-0.3,2.4-0.8s0.9-1.2,0.9-2.1c0-2-1-3-3-3c-0.9,0-1.7,0.3-2.2,0.8s-0.8,1.2-0.8,2.1
		h-2.2c0-1.4,0.5-2.5,1.5-3.4s2.2-1.3,3.8-1.3c1.6,0,2.9,0.4,3.8,1.3s1.4,2,1.4,3.6c0,0.7-0.2,1.5-0.7,2.2s-1.1,1.2-2,1.6
		c0.9,0.3,1.7,0.8,2.2,1.5s0.8,1.5,0.8,2.5c0,1.5-0.5,2.7-1.5,3.6s-2.3,1.3-3.9,1.3s-2.9-0.4-3.9-1.3s-1.5-2-1.5-3.4h2.2
		c0,0.9,0.3,1.6,0.9,2.2s1.4,0.8,2.4,0.8c1,0,1.8-0.3,2.4-0.8s0.8-1.3,0.8-2.4c0-1-0.3-1.8-0.9-2.3s-1.5-0.8-2.6-0.8H455V273.9z"/>
</g>
<g class="st3">
	<path class="st4" d="M461,321h2.4v1.8H461v4h-2.2v-4H451v-1.3l7.6-11.8h2.3V321z M453.5,321h5.3v-8.4l-0.3,0.5L453.5,321z"/>
</g>
<g class="st3">
	<path class="st4" d="M452.8,361.3l0.9-8.5h8.7v2h-6.9l-0.5,4.7c0.8-0.5,1.8-0.7,2.8-0.7c1.6,0,2.8,0.5,3.7,1.5s1.4,2.4,1.4,4.2
		c0,1.8-0.5,3.1-1.4,4.2s-2.3,1.5-4,1.5c-1.5,0-2.7-0.4-3.7-1.3s-1.5-2-1.6-3.5h2.1c0.1,1,0.5,1.7,1,2.2s1.3,0.7,2.2,0.7
		c1,0,1.8-0.3,2.4-1s0.9-1.6,0.9-2.8c0-1.1-0.3-2.1-0.9-2.7s-1.4-1-2.5-1c-0.9,0-1.7,0.2-2.2,0.6l-0.6,0.5L452.8,361.3z"/>
</g>
<g class="st3">
	<path class="st4" d="M460.3,396v1.8h-0.4c-1.7,0-3,0.5-4,1.5s-1.6,2.3-1.7,4.1c0.9-1,2.1-1.5,3.7-1.5c1.5,0,2.7,0.5,3.6,1.6
		s1.3,2.4,1.3,4.1c0,1.8-0.5,3.2-1.4,4.2s-2.2,1.6-3.8,1.6c-1.6,0-3-0.6-4-1.9s-1.5-2.9-1.5-4.8v-0.8c0-3.1,0.7-5.5,2-7.2
		s3.3-2.5,6-2.5H460.3z M457.5,403.7c-0.7,0-1.4,0.2-2.1,0.7s-1.1,1-1.3,1.7v0.8c0,1.4,0.3,2.5,0.9,3.4s1.4,1.3,2.4,1.3
		c1,0,1.7-0.4,2.3-1.1s0.8-1.7,0.8-2.8c0-1.2-0.3-2.1-0.8-2.8S458.4,403.7,457.5,403.7z"/>
</g>
<g class="st3">
	<path class="st4" d="M462.8,440.4l-7.1,15.8h-2.3l7-15.3h-9.2v-1.8h11.5V440.4z"/>
</g>
<g class="st3">
	<path class="st4" d="M563.9,443.7c0,0.9-0.2,1.6-0.7,2.3s-1.1,1.2-1.8,1.6c0.9,0.4,1.6,0.9,2.1,1.7s0.8,1.6,0.8,2.5
		c0,1.5-0.5,2.7-1.5,3.5s-2.3,1.3-3.9,1.3c-1.6,0-3-0.4-3.9-1.3s-1.5-2.1-1.5-3.5c0-0.9,0.3-1.8,0.8-2.5s1.2-1.3,2.1-1.7
		c-0.8-0.4-1.4-0.9-1.8-1.6s-0.7-1.4-0.7-2.3c0-1.4,0.5-2.6,1.4-3.4s2.1-1.3,3.6-1.3c1.5,0,2.7,0.4,3.6,1.3S563.9,442.2,563.9,443.7
		z M562.1,451.6c0-1-0.3-1.7-0.9-2.3s-1.4-0.9-2.4-0.9s-1.8,0.3-2.3,0.9s-0.9,1.4-0.9,2.3s0.3,1.7,0.9,2.3s1.4,0.8,2.4,0.8
		c1,0,1.8-0.3,2.4-0.8S562.1,452.6,562.1,451.6z M558.9,440.8c-0.9,0-1.5,0.3-2.1,0.8s-0.8,1.2-0.8,2.2c0,0.9,0.3,1.6,0.8,2.1
		s1.2,0.8,2.1,0.8s1.6-0.3,2.1-0.8s0.8-1.2,0.8-2.1s-0.3-1.6-0.8-2.1S559.7,440.8,558.9,440.8z"/>
</g>
<g class="st3">
	<path class="st4" d="M561.8,405.6c-0.5,0.5-1,1-1.6,1.3s-1.3,0.5-2.1,0.5c-1,0-1.8-0.2-2.6-0.7s-1.3-1.2-1.7-2s-0.6-1.8-0.6-2.9
		c0-1.1,0.2-2.2,0.7-3.1s1-1.6,1.8-2.1s1.7-0.7,2.8-0.7c1.7,0,3,0.6,4,1.9s1.5,3,1.5,5.2v0.6c0,3.3-0.7,5.7-2,7.3s-3.3,2.3-5.9,2.3
		h-0.4v-1.8h0.5c1.8,0,3.2-0.5,4.1-1.4S561.8,407.5,561.8,405.6z M558.5,405.6c0.7,0,1.4-0.2,2-0.7s1.1-1,1.3-1.7v-0.9
		c0-1.4-0.3-2.6-0.9-3.5s-1.4-1.3-2.3-1.3c-1,0-1.7,0.4-2.3,1.1s-0.9,1.7-0.9,2.9c0,1.2,0.3,2.1,0.8,2.9S557.6,405.6,558.5,405.6z"
		/>
</g>
<g class="st3">
	<path class="st4" d="M547.2,369.9H545v-14.4l-4.4,1.6v-2l6.2-2.3h0.3V369.9z"/>
	<path class="st4" d="M564.2,362.6c0,2.5-0.4,4.4-1.3,5.7s-2.2,1.9-4.1,1.9c-1.8,0-3.2-0.6-4-1.8s-1.3-3-1.4-5.4V360
		c0-2.5,0.4-4.4,1.3-5.6s2.2-1.8,4.1-1.8c1.8,0,3.2,0.6,4.1,1.8s1.3,3,1.3,5.4V362.6z M562.1,359.6c0-1.8-0.3-3.2-0.8-4
		s-1.3-1.3-2.4-1.3c-1.1,0-1.9,0.4-2.4,1.3s-0.8,2.1-0.8,3.9v3.5c0,1.8,0.3,3.2,0.8,4.1s1.3,1.3,2.4,1.3c1.1,0,1.9-0.4,2.4-1.2
		s0.8-2.1,0.8-3.9V359.6z"/>
</g>
<g class="st3">
	<path class="st4" d="M547.2,326.7H545v-14.4l-4.4,1.6v-2l6.2-2.3h0.3V326.7z"/>
	<path class="st4" d="M560.7,326.7h-2.2v-14.4l-4.4,1.6v-2l6.2-2.3h0.3V326.7z"/>
</g>
<g class="st3">
	<path class="st4" d="M547.2,283.5H545V269l-4.4,1.6v-2l6.2-2.3h0.3V283.5z"/>
	<path class="st4" d="M564.7,283.5h-11.2v-1.6l5.9-6.6c0.9-1,1.5-1.8,1.8-2.4s0.5-1.3,0.5-1.9c0-0.9-0.3-1.6-0.8-2.2
		s-1.3-0.9-2.2-0.9c-1.1,0-1.9,0.3-2.5,0.9s-0.9,1.5-0.9,2.6h-2.2c0-1.6,0.5-2.8,1.5-3.8s2.4-1.5,4.1-1.5c1.6,0,2.8,0.4,3.8,1.2
		s1.4,1.9,1.4,3.3c0,1.7-1.1,3.7-3.2,6l-4.6,5h8.6V283.5z"/>
</g>
<g class="st3">
	<path class="st4" d="M547.2,240.3H545v-14.4l-4.4,1.6v-2l6.2-2.3h0.3V240.3z"/>
	<path class="st4" d="M556.7,230.7h1.6c1,0,1.8-0.3,2.4-0.8s0.9-1.2,0.9-2.1c0-2-1-3-3-3c-0.9,0-1.7,0.3-2.2,0.8s-0.8,1.2-0.8,2.1
		h-2.2c0-1.4,0.5-2.5,1.5-3.4s2.2-1.3,3.8-1.3c1.6,0,2.9,0.4,3.8,1.3s1.4,2,1.4,3.6c0,0.7-0.2,1.5-0.7,2.2s-1.1,1.2-2,1.6
		c0.9,0.3,1.7,0.8,2.2,1.5s0.8,1.5,0.8,2.5c0,1.5-0.5,2.7-1.5,3.6s-2.3,1.3-3.9,1.3s-2.9-0.4-3.9-1.3s-1.5-2-1.5-3.4h2.2
		c0,0.9,0.3,1.6,0.9,2.2s1.4,0.8,2.4,0.8c1,0,1.8-0.3,2.4-0.8s0.8-1.3,0.8-2.4c0-1-0.3-1.8-0.9-2.3s-1.5-0.8-2.6-0.8h-1.6V230.7z"/>
</g>
<g class="st3">
	<path class="st4" d="M547.2,197.1H545v-14.4l-4.4,1.6v-2l6.2-2.3h0.3V197.1z"/>
	<path class="st4" d="M562.7,191.4h2.4v1.8h-2.4v4h-2.2v-4h-7.8v-1.3l7.6-11.8h2.3V191.4z M555.2,191.4h5.3V183l-0.3,0.5
		L555.2,191.4z"/>
</g>
<circle class="st4" cx="452.2" cy="166.7" r="5.4"/>
<g>
	<path class="st5" d="M605.2,140.5v47.8h-18"/>
	<polygon class="st6" points="596.2,157.2 598.8,158.2 605.2,140.8 611.5,158.2 614.2,157.2 605.2,132.5 	"/>
</g>
<polyline class="st7" points="410.8,492.5 410.8,447.5 428.8,447.5 "/>
<polygon class="st7" points="411,492.9 427.4,492.9 419.2,507.1 411,521.3 402.8,507.1 394.6,492.9 "/>
<g>
	<g class="st3">
		<path class="st4" d="M348.9,552.5c-0.4,0.6-1,1.1-1.8,1.4c-0.8,0.3-1.7,0.5-2.7,0.5c-1,0-2-0.2-2.8-0.7c-0.8-0.5-1.4-1.2-1.9-2.1
			s-0.7-1.9-0.7-3.1v-1.1c0-1.9,0.4-3.4,1.3-4.5s2.2-1.6,3.8-1.6c1.3,0,2.4,0.3,3.2,1c0.8,0.7,1.3,1.7,1.5,2.9h-1.7
			c-0.3-1.7-1.3-2.5-3-2.5c-1.1,0-2,0.4-2.6,1.2c-0.6,0.8-0.9,1.9-0.9,3.5v1c0,1.4,0.3,2.6,1,3.4c0.7,0.8,1.5,1.3,2.7,1.3
			c0.6,0,1.2-0.1,1.7-0.2c0.5-0.1,0.9-0.4,1.2-0.7v-2.9h-3v-1.4h4.6V552.5z"/>
	</g>
	<g class="st3">
		<path class="st4" d="M356.1,546.1c-0.2,0-0.5-0.1-0.8-0.1c-1.1,0-1.8,0.5-2.2,1.4v6.8h-1.6v-9.5h1.6l0,1.1
			c0.5-0.8,1.3-1.3,2.3-1.3c0.3,0,0.6,0,0.7,0.1V546.1z"/>
	</g>
	<g class="st3">
		<path class="st4" d="M357,549.3c0-0.9,0.2-1.8,0.5-2.5s0.9-1.3,1.5-1.7s1.4-0.6,2.2-0.6c1.3,0,2.3,0.4,3.1,1.3s1.2,2.1,1.2,3.6
			v0.1c0,0.9-0.2,1.8-0.5,2.5c-0.4,0.7-0.9,1.3-1.5,1.7s-1.4,0.6-2.3,0.6c-1.3,0-2.3-0.4-3.1-1.3s-1.2-2.1-1.2-3.6V549.3z
			 M358.6,549.5c0,1.1,0.2,1.9,0.7,2.5s1.1,1,2,1c0.8,0,1.5-0.3,2-1c0.5-0.6,0.7-1.6,0.7-2.7c0-1-0.2-1.9-0.7-2.5
			c-0.5-0.6-1.2-1-2-1c-0.8,0-1.5,0.3-1.9,1S358.6,548.3,358.6,549.5z"/>
		<path class="st4" d="M373.5,553.2c-0.6,0.7-1.6,1.1-2.8,1.1c-1,0-1.8-0.3-2.3-0.9c-0.5-0.6-0.8-1.5-0.8-2.6v-6.2h1.6v6.1
			c0,1.4,0.6,2.2,1.8,2.2c1.2,0,2.1-0.5,2.5-1.4v-6.9h1.6v9.5h-1.5L373.5,553.2z"/>
		<path class="st4" d="M379.1,544.6l0.1,1.2c0.7-0.9,1.7-1.4,2.8-1.4c2,0,3,1.1,3,3.4v6.3h-1.6v-6.3c0-0.7-0.2-1.2-0.5-1.5
			s-0.8-0.5-1.4-0.5c-0.5,0-1,0.1-1.4,0.4s-0.7,0.7-0.9,1.1v6.8h-1.6v-9.5H379.1z"/>
		<path class="st4" d="M387.1,549.3c0-1.5,0.3-2.6,1-3.5c0.7-0.9,1.6-1.3,2.7-1.3c1.1,0,2,0.4,2.6,1.1v-5h1.6v13.5h-1.5l-0.1-1
			c-0.7,0.8-1.6,1.2-2.7,1.2c-1.1,0-2-0.5-2.7-1.4s-1-2.1-1-3.5V549.3z M388.8,549.5c0,1.1,0.2,1.9,0.7,2.5s1.1,0.9,1.8,0.9
			c1,0,1.8-0.5,2.3-1.4v-4.4c-0.5-0.9-1.2-1.3-2.2-1.3c-0.8,0-1.4,0.3-1.9,0.9S388.8,548.3,388.8,549.5z"/>
		<path class="st4" d="M402.1,549c0-1.3,0.2-2.6,0.5-3.8s0.9-2.3,1.6-3.3s1.4-1.7,2.2-2.1l0.3,1.1c-0.9,0.7-1.6,1.7-2.1,3
			s-0.8,2.9-0.9,4.5l0,0.7c0,2.3,0.4,4.2,1.2,5.9c0.5,1,1.1,1.8,1.8,2.3l-0.3,1c-0.8-0.4-1.5-1.2-2.2-2.2
			C402.8,554.1,402.1,551.7,402.1,549z"/>
		<path class="st4" d="M418,552.5c-0.4,0.6-1,1.1-1.8,1.4c-0.8,0.3-1.7,0.5-2.7,0.5c-1,0-2-0.2-2.8-0.7c-0.8-0.5-1.4-1.2-1.9-2.1
			s-0.7-1.9-0.7-3.1v-1.1c0-1.9,0.5-3.4,1.3-4.5s2.2-1.6,3.8-1.6c1.3,0,2.4,0.3,3.2,1c0.8,0.7,1.3,1.7,1.5,2.9h-1.7
			c-0.3-1.7-1.3-2.5-3-2.5c-1.1,0-2,0.4-2.6,1.2c-0.6,0.8-0.9,1.9-0.9,3.5v1c0,1.4,0.3,2.6,1,3.4c0.7,0.8,1.5,1.3,2.7,1.3
			c0.6,0,1.2-0.1,1.7-0.2c0.5-0.1,0.9-0.4,1.2-0.7v-2.9h-3v-1.4h4.6V552.5z"/>
		<path class="st4" d="M430.6,554.2h-1.7l-6.4-9.9v9.9h-1.7v-12.8h1.7l6.5,9.9v-9.9h1.7V554.2z"/>
	</g>
	<g class="st3">
		<path class="st4" d="M433.6,554.2v-12.8h3.6c1.1,0,2.1,0.2,3,0.7s1.5,1.2,2,2.1s0.7,2,0.7,3.1v0.8c0,1.2-0.2,2.3-0.7,3.2
			s-1.1,1.6-2,2.1s-1.9,0.7-3,0.7H433.6z M435.3,542.7v10h1.8c1.3,0,2.3-0.4,3-1.2s1.1-2,1.1-3.5v-0.7c0-1.5-0.3-2.6-1-3.4
			c-0.7-0.8-1.7-1.2-2.9-1.2H435.3z"/>
	</g>
	<g class="st3">
		<path class="st4" d="M444.2,556.7l-0.9-0.6c0.6-0.8,0.8-1.6,0.9-2.4v-1.5h1.6v1.3c0,0.6-0.1,1.2-0.4,1.8S444.7,556.3,444.2,556.7z
			"/>
		<path class="st4" d="M456.8,551.9l3.7-10.6h1.8l-4.7,12.8H456l-4.7-12.8h1.8L456.8,551.9z"/>
	</g>
	<g class="st3">
		<path class="st4" d="M465.5,556.8c-0.8-0.2-1.5-0.5-1.8-0.9s-0.6-0.8-0.6-1.3c0-0.6,0.2-1.1,0.7-1.4c0.5-0.4,1.1-0.6,1.8-0.6
			c0.5,0,1,0.1,1.4,0.3s0.7,0.5,0.9,0.8c0.2,0.3,0.3,0.7,0.3,1.1h-1c0-0.5-0.1-0.8-0.4-1.1c-0.3-0.3-0.7-0.4-1.2-0.4
			c-0.5,0-0.9,0.1-1.1,0.3c-0.3,0.2-0.4,0.5-0.4,0.9c0,0.3,0.1,0.6,0.4,0.8c0.3,0.2,0.7,0.4,1.3,0.6c0.6,0.2,1.1,0.4,1.4,0.6
			s0.6,0.5,0.8,0.7c0.2,0.3,0.3,0.6,0.3,1c0,0.6-0.2,1.1-0.7,1.4c-0.5,0.4-1.1,0.5-1.9,0.5c-0.5,0-1-0.1-1.4-0.3
			c-0.4-0.2-0.8-0.5-1-0.8c-0.2-0.3-0.4-0.7-0.4-1.2h1c0,0.4,0.2,0.8,0.5,1.1s0.8,0.4,1.3,0.4c0.5,0,0.9-0.1,1.2-0.3
			s0.4-0.5,0.4-0.9s-0.1-0.6-0.4-0.8S466.2,557,465.5,556.8z"/>
		<path class="st4" d="M471.7,556.8c-0.8-0.2-1.5-0.5-1.8-0.9s-0.6-0.8-0.6-1.3c0-0.6,0.2-1.1,0.7-1.4c0.5-0.4,1.1-0.6,1.8-0.6
			c0.5,0,1,0.1,1.4,0.3s0.7,0.5,0.9,0.8c0.2,0.3,0.3,0.7,0.3,1.1h-1c0-0.5-0.1-0.8-0.4-1.1c-0.3-0.3-0.7-0.4-1.2-0.4
			c-0.5,0-0.9,0.1-1.1,0.3c-0.3,0.2-0.4,0.5-0.4,0.9c0,0.3,0.1,0.6,0.4,0.8c0.3,0.2,0.7,0.4,1.3,0.6c0.6,0.2,1.1,0.4,1.4,0.6
			s0.6,0.5,0.8,0.7c0.2,0.3,0.3,0.6,0.3,1c0,0.6-0.2,1.1-0.7,1.4c-0.5,0.4-1.1,0.5-1.9,0.5c-0.5,0-1-0.1-1.4-0.3
			c-0.4-0.2-0.8-0.5-1-0.8c-0.2-0.3-0.4-0.7-0.4-1.2h1c0,0.4,0.2,0.8,0.5,1.1s0.8,0.4,1.3,0.4c0.5,0,0.9-0.1,1.2-0.3
			s0.4-0.5,0.4-0.9s-0.1-0.6-0.4-0.8S472.4,557,471.7,556.8z"/>
	</g>
	<g class="st3">
		<path class="st4" d="M479.9,549c0,1.3-0.2,2.6-0.5,3.8c-0.3,1.2-0.9,2.3-1.6,3.3s-1.4,1.7-2.2,2.2l-0.3-1c0.9-0.7,1.6-1.8,2.2-3.2
			c0.5-1.5,0.8-3.1,0.8-4.8v-0.3c0-1.2-0.1-2.4-0.4-3.4c-0.3-1.1-0.6-2-1.1-2.8s-1-1.5-1.6-2l0.3-1c0.8,0.4,1.5,1.1,2.2,2.1
			s1.2,2.1,1.6,3.3S479.9,547.7,479.9,549z"/>
	</g>
</g>
<g class="st3">
	<path class="st4" d="M423.8,100.1h-1.7l-6.4-9.9v9.9h-1.7V87.3h1.7l6.5,9.9v-9.9h1.7V100.1z"/>
	<path class="st4" d="M426.1,95.2c0-0.9,0.2-1.8,0.5-2.5s0.9-1.3,1.5-1.7s1.4-0.6,2.2-0.6c1.3,0,2.3,0.4,3.1,1.3s1.2,2.1,1.2,3.6
		v0.1c0,0.9-0.2,1.8-0.5,2.5c-0.4,0.7-0.9,1.3-1.5,1.7s-1.4,0.6-2.3,0.6c-1.3,0-2.3-0.4-3.1-1.3s-1.2-2.1-1.2-3.6V95.2z M427.7,95.4
		c0,1.1,0.2,1.9,0.7,2.5s1.1,1,2,1c0.8,0,1.5-0.3,2-1c0.5-0.6,0.7-1.6,0.7-2.7c0-1-0.2-1.9-0.7-2.5c-0.5-0.6-1.2-1-2-1
		c-0.8,0-1.5,0.3-1.9,1S427.7,94.2,427.7,95.4z"/>
	<path class="st4" d="M439,88.3v2.3h1.8v1.3H439v5.9c0,0.4,0.1,0.7,0.2,0.9s0.4,0.3,0.8,0.3c0.2,0,0.4,0,0.8-0.1v1.3
		c-0.4,0.1-0.8,0.2-1.2,0.2c-0.7,0-1.3-0.2-1.6-0.7s-0.6-1.1-0.6-1.9v-5.9h-1.7v-1.3h1.7v-2.3H439z"/>
	<path class="st4" d="M446.5,98.9c0.6,0,1.1-0.2,1.5-0.5s0.7-0.8,0.7-1.3h1.5c0,0.5-0.2,1.1-0.6,1.6s-0.8,0.9-1.4,1.2
		s-1.2,0.4-1.8,0.4c-1.3,0-2.3-0.4-3.1-1.3c-0.8-0.9-1.1-2-1.1-3.5v-0.3c0-0.9,0.2-1.7,0.5-2.5s0.8-1.3,1.5-1.7s1.4-0.6,2.3-0.6
		c1.1,0,2,0.3,2.7,1s1.1,1.5,1.1,2.5h-1.5c0-0.6-0.3-1.1-0.7-1.5c-0.4-0.4-0.9-0.6-1.6-0.6c-0.8,0-1.5,0.3-1.9,0.9s-0.7,1.5-0.7,2.6
		v0.3c0,1.1,0.2,1.9,0.7,2.5S445.6,98.9,446.5,98.9z"/>
	<path class="st4" d="M453.7,91.7c0.7-0.9,1.7-1.3,2.8-1.3c2,0,3,1.1,3,3.4v6.3h-1.6v-6.3c0-0.7-0.2-1.2-0.5-1.5s-0.8-0.5-1.4-0.5
		c-0.5,0-1,0.1-1.4,0.4s-0.7,0.7-0.9,1.1v6.8h-1.6V86.6h1.6V91.7z"/>
	<path class="st4" d="M461.9,102.6L461,102c0.6-0.8,0.8-1.6,0.9-2.4v-1.5h1.6v1.3c0,0.6-0.1,1.2-0.4,1.8S462.4,102.3,461.9,102.6z"
		/>
	<path class="st4" d="M469.5,95.2c0-0.9,0.2-1.8,0.5-2.5s0.9-1.3,1.5-1.7s1.4-0.6,2.2-0.6c1.3,0,2.3,0.4,3.1,1.3s1.2,2.1,1.2,3.6
		v0.1c0,0.9-0.2,1.8-0.5,2.5c-0.4,0.7-0.9,1.3-1.5,1.7s-1.4,0.6-2.3,0.6c-1.3,0-2.3-0.4-3.1-1.3s-1.2-2.1-1.2-3.6V95.2z M471.2,95.4
		c0,1.1,0.2,1.9,0.7,2.5s1.1,1,2,1c0.8,0,1.5-0.3,2-1c0.5-0.6,0.7-1.6,0.7-2.7c0-1-0.2-1.9-0.7-2.5c-0.5-0.6-1.2-1-2-1
		c-0.8,0-1.5,0.3-1.9,1S471.2,94.2,471.2,95.4z"/>
	<path class="st4" d="M484.8,92c-0.2,0-0.5-0.1-0.8-0.1c-1.1,0-1.8,0.5-2.2,1.4v6.8h-1.6v-9.5h1.6l0,1.1c0.5-0.8,1.3-1.3,2.3-1.3
		c0.3,0,0.6,0,0.7,0.1V92z"/>
	<path class="st4" d="M486.3,88c0-0.3,0.1-0.5,0.2-0.7s0.4-0.3,0.7-0.3s0.6,0.1,0.7,0.3s0.2,0.4,0.2,0.7s-0.1,0.5-0.2,0.7
		s-0.4,0.3-0.7,0.3s-0.6-0.1-0.7-0.3S486.3,88.3,486.3,88z M488.1,100.1h-1.6v-9.5h1.6V100.1z"/>
	<path class="st4" d="M494.6,100.3c-1.3,0-2.3-0.4-3.1-1.3s-1.2-2-1.2-3.4v-0.3c0-0.9,0.2-1.8,0.5-2.5s0.9-1.3,1.5-1.7
		s1.3-0.6,2.1-0.6c1.2,0,2.2,0.4,2.9,1.2s1,2,1,3.5v0.7h-6.4c0,0.9,0.3,1.7,0.8,2.3c0.5,0.6,1.2,0.9,2,0.9c0.6,0,1.1-0.1,1.5-0.4
		s0.7-0.5,1-0.9l1,0.8C497.4,99.6,496.2,100.3,494.6,100.3z M494.4,91.7c-0.7,0-1.2,0.2-1.7,0.7s-0.7,1.1-0.8,2h4.8v-0.1
		c0-0.8-0.3-1.5-0.7-1.9S495.1,91.7,494.4,91.7z"/>
	<path class="st4" d="M501.8,90.6l0.1,1.2c0.7-0.9,1.7-1.4,2.8-1.4c2,0,3,1.1,3,3.4v6.3h-1.6v-6.3c0-0.7-0.2-1.2-0.5-1.5
		s-0.8-0.5-1.4-0.5c-0.5,0-1,0.1-1.4,0.4s-0.7,0.7-0.9,1.1v6.8h-1.6v-9.5H501.8z"/>
	<path class="st4" d="M512.4,88.3v2.3h1.8v1.3h-1.8v5.9c0,0.4,0.1,0.7,0.2,0.9s0.4,0.3,0.8,0.3c0.2,0,0.4,0,0.8-0.1v1.3
		c-0.4,0.1-0.8,0.2-1.2,0.2c-0.7,0-1.3-0.2-1.6-0.7s-0.6-1.1-0.6-1.9v-5.9H509v-1.3h1.7v-2.3H512.4z"/>
	<path class="st4" d="M521.9,100.1c-0.1-0.2-0.2-0.5-0.2-1c-0.8,0.8-1.7,1.2-2.7,1.2c-0.9,0-1.7-0.3-2.3-0.8s-0.9-1.2-0.9-2
		c0-1,0.4-1.8,1.1-2.3s1.8-0.8,3.2-0.8h1.6v-0.7c0-0.6-0.2-1-0.5-1.4c-0.3-0.3-0.8-0.5-1.5-0.5c-0.6,0-1.1,0.1-1.5,0.4
		s-0.6,0.6-0.6,1.1H516c0-0.5,0.2-0.9,0.5-1.4s0.8-0.8,1.4-1.1s1.2-0.4,1.9-0.4c1.1,0,2,0.3,2.6,0.8s0.9,1.3,1,2.3v4.4
		c0,0.9,0.1,1.6,0.3,2.1v0.1H521.9z M519.2,98.8c0.5,0,1-0.1,1.5-0.4s0.8-0.6,1-1v-2h-1.3c-2,0-3,0.6-3,1.7c0,0.5,0.2,0.9,0.5,1.2
		S518.7,98.8,519.2,98.8z"/>
	<path class="st4" d="M528,88.3v2.3h1.8v1.3H528v5.9c0,0.4,0.1,0.7,0.2,0.9s0.4,0.3,0.8,0.3c0.2,0,0.4,0,0.8-0.1v1.3
		c-0.4,0.1-0.8,0.2-1.2,0.2c-0.7,0-1.3-0.2-1.6-0.7s-0.6-1.1-0.6-1.9v-5.9h-1.7v-1.3h1.7v-2.3H528z"/>
	<path class="st4" d="M531.7,88c0-0.3,0.1-0.5,0.2-0.7s0.4-0.3,0.7-0.3s0.6,0.1,0.7,0.3s0.2,0.4,0.2,0.7s-0.1,0.5-0.2,0.7
		S533,89,532.7,89s-0.6-0.1-0.7-0.3S531.7,88.3,531.7,88z M533.5,100.1h-1.6v-9.5h1.6V100.1z"/>
	<path class="st4" d="M535.6,95.2c0-0.9,0.2-1.8,0.5-2.5s0.9-1.3,1.5-1.7s1.4-0.6,2.2-0.6c1.3,0,2.3,0.4,3.1,1.3s1.2,2.1,1.2,3.6
		v0.1c0,0.9-0.2,1.8-0.5,2.5c-0.4,0.7-0.9,1.3-1.5,1.7s-1.4,0.6-2.3,0.6c-1.3,0-2.3-0.4-3.1-1.3s-1.2-2.1-1.2-3.6V95.2z M537.3,95.4
		c0,1.1,0.2,1.9,0.7,2.5s1.1,1,2,1c0.8,0,1.5-0.3,2-1c0.5-0.6,0.7-1.6,0.7-2.7c0-1-0.2-1.9-0.7-2.5c-0.5-0.6-1.2-1-2-1
		c-0.8,0-1.5,0.3-1.9,1S537.3,94.2,537.3,95.4z"/>
	<path class="st4" d="M547.9,90.6l0.1,1.2c0.7-0.9,1.7-1.4,2.8-1.4c2,0,3,1.1,3,3.4v6.3h-1.6v-6.3c0-0.7-0.2-1.2-0.5-1.5
		s-0.8-0.5-1.4-0.5c-0.5,0-1,0.1-1.4,0.4s-0.7,0.7-0.9,1.1v6.8h-1.6v-9.5H547.9z"/>
	<path class="st4" d="M560.3,95.2c0-1.5,0.3-2.7,1-3.5s1.6-1.3,2.7-1.3c1.2,0,2.1,0.4,2.7,1.2l0.1-1.1h1.5v9.3
		c0,1.2-0.4,2.2-1.1,2.9s-1.7,1.1-2.9,1.1c-0.7,0-1.4-0.1-2-0.4s-1.2-0.7-1.5-1.2l0.8-1c0.7,0.9,1.5,1.3,2.6,1.3
		c0.8,0,1.4-0.2,1.9-0.7s0.7-1.1,0.7-1.9v-0.8c-0.7,0.8-1.5,1.1-2.7,1.1c-1.1,0-2-0.4-2.7-1.3S560.3,96.8,560.3,95.2z M562,95.4
		c0,1.1,0.2,1.9,0.7,2.5c0.4,0.6,1.1,0.9,1.8,0.9c1,0,1.8-0.5,2.3-1.4v-4.3c-0.5-0.9-1.2-1.4-2.2-1.4c-0.8,0-1.4,0.3-1.9,0.9
		S562,94.2,562,95.4z"/>
	<path class="st4" d="M576.7,99.1c-0.6,0.7-1.6,1.1-2.8,1.1c-1,0-1.8-0.3-2.3-0.9c-0.5-0.6-0.8-1.5-0.8-2.6v-6.2h1.6v6.1
		c0,1.4,0.6,2.2,1.8,2.2c1.2,0,2.1-0.5,2.5-1.4v-6.9h1.6v9.5h-1.5L576.7,99.1z"/>
	<path class="st4" d="M580.8,88c0-0.3,0.1-0.5,0.2-0.7s0.4-0.3,0.7-0.3s0.6,0.1,0.7,0.3s0.2,0.4,0.2,0.7s-0.1,0.5-0.2,0.7
		S582,89,581.7,89s-0.6-0.1-0.7-0.3S580.8,88.3,580.8,88z M582.5,100.1h-1.6v-9.5h1.6V100.1z"/>
	<path class="st4" d="M584.7,95.2c0-1.5,0.3-2.6,1-3.5c0.7-0.9,1.6-1.3,2.7-1.3c1.1,0,2,0.4,2.6,1.1v-5h1.6v13.5h-1.5l-0.1-1
		c-0.7,0.8-1.6,1.2-2.7,1.2c-1.1,0-2-0.5-2.7-1.4s-1-2.1-1-3.5V95.2z M586.3,95.4c0,1.1,0.2,1.9,0.7,2.5s1.1,0.9,1.8,0.9
		c1,0,1.8-0.5,2.3-1.4v-4.4c-0.5-0.9-1.2-1.3-2.2-1.3c-0.8,0-1.4,0.3-1.9,0.9S586.3,94.2,586.3,95.4z"/>
	<path class="st4" d="M599.2,100.3c-1.3,0-2.3-0.4-3.1-1.3s-1.2-2-1.2-3.4v-0.3c0-0.9,0.2-1.8,0.5-2.5s0.9-1.3,1.5-1.7
		s1.3-0.6,2.1-0.6c1.2,0,2.2,0.4,2.9,1.2s1,2,1,3.5v0.7h-6.4c0,0.9,0.3,1.7,0.8,2.3c0.5,0.6,1.2,0.9,2,0.9c0.6,0,1.1-0.1,1.5-0.4
		s0.7-0.5,1-0.9l1,0.8C602,99.6,600.8,100.3,599.2,100.3z M599,91.7c-0.7,0-1.2,0.2-1.7,0.7s-0.7,1.1-0.8,2h4.8v-0.1
		c0-0.8-0.3-1.5-0.7-1.9S599.7,91.7,599,91.7z"/>
</g>
<polyline class="st8" points="517,130.7 508,141.5 499,130.7 "/>
<line class="st8" x1="508" y1="114.5" x2="508" y2="141.5"/>
<polyline class="st8" points="406.1,181.1 416.9,190.1 406.1,199.1 "/>
<line class="st8" x1="389.9" y1="190.1" x2="416.9" y2="190.1"/>
<g class="st3">
	<path class="st4" d="M643.8,146.8v5h-1.7V139h4.7c1.4,0,2.5,0.4,3.3,1.1s1.2,1.7,1.2,2.8c0,1.2-0.4,2.2-1.2,2.9s-1.9,1-3.3,1H643.8
		z M643.8,145.5h3c0.9,0,1.6-0.2,2.1-0.6c0.5-0.4,0.7-1,0.7-1.8c0-0.8-0.2-1.4-0.7-1.8s-1.1-0.7-2-0.7h-3.1V145.5z"/>
	<path class="st4" d="M652.7,147c0-0.9,0.2-1.8,0.5-2.5s0.9-1.3,1.5-1.7s1.4-0.6,2.2-0.6c1.3,0,2.3,0.4,3.1,1.3s1.2,2.1,1.2,3.6v0.1
		c0,0.9-0.2,1.8-0.5,2.5c-0.4,0.7-0.9,1.3-1.5,1.7s-1.4,0.6-2.3,0.6c-1.3,0-2.3-0.4-3.1-1.3s-1.2-2.1-1.2-3.6V147z M654.3,147.2
		c0,1.1,0.2,1.9,0.7,2.5s1.1,1,2,1c0.8,0,1.5-0.3,2-1c0.5-0.6,0.7-1.6,0.7-2.7c0-1-0.2-1.9-0.7-2.5c-0.5-0.6-1.2-1-2-1
		c-0.8,0-1.5,0.3-1.9,1S654.3,146,654.3,147.2z"/>
	<path class="st4" d="M668.9,149.3c0-0.4-0.2-0.8-0.5-1c-0.3-0.2-0.9-0.5-1.7-0.6s-1.5-0.4-2-0.6s-0.8-0.5-1.1-0.9s-0.3-0.7-0.3-1.2
		c0-0.8,0.3-1.4,1-2s1.5-0.8,2.5-0.8c1.1,0,2,0.3,2.6,0.8s1,1.3,1,2.1h-1.6c0-0.4-0.2-0.8-0.6-1.2s-0.9-0.5-1.4-0.5
		c-0.6,0-1.1,0.1-1.4,0.4s-0.5,0.6-0.5,1c0,0.4,0.2,0.7,0.5,0.9s0.9,0.4,1.7,0.6s1.5,0.4,2,0.7s0.9,0.6,1.1,0.9
		c0.2,0.4,0.4,0.8,0.4,1.3c0,0.8-0.3,1.5-1,2c-0.7,0.5-1.6,0.8-2.6,0.8c-0.8,0-1.4-0.1-2-0.4s-1-0.6-1.4-1.1c-0.3-0.5-0.5-1-0.5-1.6
		h1.6c0,0.5,0.2,1,0.7,1.3c0.4,0.3,0.9,0.5,1.6,0.5c0.6,0,1.1-0.1,1.5-0.4C668.7,150.1,668.9,149.7,668.9,149.3z"/>
	<path class="st4" d="M672.7,139.8c0-0.3,0.1-0.5,0.2-0.7s0.4-0.3,0.7-0.3s0.6,0.1,0.7,0.3s0.2,0.4,0.2,0.7s-0.1,0.5-0.2,0.7
		s-0.4,0.3-0.7,0.3s-0.6-0.1-0.7-0.3S672.7,140.1,672.7,139.8z M674.4,151.8h-1.6v-9.5h1.6V151.8z"/>
	<path class="st4" d="M679.2,140v2.3h1.8v1.3h-1.8v5.9c0,0.4,0.1,0.7,0.2,0.9s0.4,0.3,0.8,0.3c0.2,0,0.4,0,0.8-0.1v1.3
		c-0.4,0.1-0.8,0.2-1.2,0.2c-0.7,0-1.3-0.2-1.6-0.7s-0.6-1.1-0.6-1.9v-5.9h-1.7v-1.3h1.7V140H679.2z"/>
	<path class="st4" d="M682.9,139.8c0-0.3,0.1-0.5,0.2-0.7s0.4-0.3,0.7-0.3s0.6,0.1,0.7,0.3s0.2,0.4,0.2,0.7s-0.1,0.5-0.2,0.7
		s-0.4,0.3-0.7,0.3s-0.6-0.1-0.7-0.3S682.9,140.1,682.9,139.8z M684.7,151.8H683v-9.5h1.6V151.8z"/>
	<path class="st4" d="M690.4,149.6l2.4-7.3h1.7l-3.4,9.5h-1.2l-3.4-9.5h1.7L690.4,149.6z"/>
	<path class="st4" d="M699.8,152c-1.3,0-2.3-0.4-3.1-1.3s-1.2-2-1.2-3.4v-0.3c0-0.9,0.2-1.8,0.5-2.5s0.9-1.3,1.5-1.7
		s1.3-0.6,2.1-0.6c1.2,0,2.2,0.4,2.9,1.2s1,2,1,3.5v0.7h-6.4c0,0.9,0.3,1.7,0.8,2.3c0.5,0.6,1.2,0.9,2,0.9c0.6,0,1.1-0.1,1.5-0.4
		s0.7-0.5,1-0.9l1,0.8C702.6,151.4,701.4,152,699.8,152z M699.6,143.5c-0.7,0-1.2,0.2-1.7,0.7s-0.7,1.1-0.8,2h4.8v-0.1
		c0-0.8-0.3-1.5-0.7-1.9S700.3,143.5,699.6,143.5z"/>
	<path class="st4" d="M715.4,149.3c0-0.4-0.2-0.8-0.5-1c-0.3-0.2-0.9-0.5-1.7-0.6s-1.5-0.4-2-0.6s-0.8-0.5-1.1-0.9s-0.3-0.7-0.3-1.2
		c0-0.8,0.3-1.4,1-2s1.5-0.8,2.5-0.8c1.1,0,2,0.3,2.6,0.8s1,1.3,1,2.1h-1.6c0-0.4-0.2-0.8-0.6-1.2s-0.9-0.5-1.4-0.5
		c-0.6,0-1.1,0.1-1.4,0.4s-0.5,0.6-0.5,1c0,0.4,0.2,0.7,0.5,0.9s0.9,0.4,1.7,0.6s1.5,0.4,2,0.7s0.9,0.6,1.1,0.9
		c0.2,0.4,0.4,0.8,0.4,1.3c0,0.8-0.3,1.5-1,2c-0.7,0.5-1.6,0.8-2.6,0.8c-0.8,0-1.4-0.1-2-0.4s-1-0.6-1.4-1.1c-0.3-0.5-0.5-1-0.5-1.6
		h1.6c0,0.5,0.2,1,0.7,1.3c0.4,0.3,0.9,0.5,1.6,0.5c0.6,0,1.1-0.1,1.5-0.4C715.2,150.1,715.4,149.7,715.4,149.3z"/>
	<path class="st4" d="M725,150.9c-0.6,0.7-1.6,1.1-2.8,1.1c-1,0-1.8-0.3-2.3-0.9c-0.5-0.6-0.8-1.5-0.8-2.6v-6.2h1.6v6.1
		c0,1.4,0.6,2.2,1.8,2.2c1.2,0,2.1-0.5,2.5-1.4v-6.9h1.6v9.5h-1.5L725,150.9z"/>
	<path class="st4" d="M737.1,147.2c0,1.4-0.3,2.6-1,3.5s-1.6,1.3-2.7,1.3c-1.2,0-2.1-0.4-2.7-1.1v4.6h-1.6v-13.2h1.5l0.1,1.1
		c0.7-0.8,1.6-1.2,2.8-1.2c1.1,0,2,0.4,2.7,1.3s1,2.1,1,3.6V147.2z M735.5,147c0-1.1-0.2-1.9-0.7-2.5s-1.1-0.9-1.9-0.9
		c-1,0-1.7,0.4-2.2,1.3v4.5c0.5,0.9,1.2,1.3,2.2,1.3c0.8,0,1.4-0.3,1.9-0.9S735.5,148.2,735.5,147z"/>
	<path class="st4" d="M747.2,147.2c0,1.4-0.3,2.6-1,3.5s-1.6,1.3-2.7,1.3c-1.2,0-2.1-0.4-2.7-1.1v4.6h-1.6v-13.2h1.5l0.1,1.1
		c0.7-0.8,1.6-1.2,2.8-1.2c1.1,0,2,0.4,2.7,1.3s1,2.1,1,3.6V147.2z M745.6,147c0-1.1-0.2-1.9-0.7-2.5s-1.1-0.9-1.9-0.9
		c-1,0-1.7,0.4-2.2,1.3v4.5c0.5,0.9,1.2,1.3,2.2,1.3c0.8,0,1.4-0.3,1.9-0.9S745.6,148.2,745.6,147z"/>
	<path class="st4" d="M751,151.8h-1.6v-13.5h1.6V151.8z"/>
	<path class="st4" d="M756.7,149.5l2.2-7.1h1.7l-3.8,11c-0.6,1.6-1.5,2.4-2.8,2.4l-0.3,0l-0.6-0.1v-1.3l0.4,0c0.6,0,1-0.1,1.3-0.3
		s0.6-0.6,0.8-1.2l0.4-1l-3.4-9.4h1.8L756.7,149.5z"/>
	<path class="st4" d="M769.7,149.6l2.4-7.3h1.7l-3.4,9.5h-1.2l-3.4-9.5h1.7L769.7,149.6z"/>
	<path class="st4" d="M774.8,147c0-0.9,0.2-1.8,0.5-2.5s0.9-1.3,1.5-1.7s1.4-0.6,2.2-0.6c1.3,0,2.3,0.4,3.1,1.3s1.2,2.1,1.2,3.6v0.1
		c0,0.9-0.2,1.8-0.5,2.5c-0.4,0.7-0.9,1.3-1.5,1.7s-1.4,0.6-2.3,0.6c-1.3,0-2.3-0.4-3.1-1.3s-1.2-2.1-1.2-3.6V147z M776.4,147.2
		c0,1.1,0.2,1.9,0.7,2.5s1.1,1,2,1c0.8,0,1.5-0.3,2-1c0.5-0.6,0.7-1.6,0.7-2.7c0-1-0.2-1.9-0.7-2.5c-0.5-0.6-1.2-1-2-1
		c-0.8,0-1.5,0.3-1.9,1S776.4,146,776.4,147.2z"/>
	<path class="st4" d="M787.2,151.8h-1.6v-13.5h1.6V151.8z"/>
	<path class="st4" d="M792,140v2.3h1.8v1.3H792v5.9c0,0.4,0.1,0.7,0.2,0.9s0.4,0.3,0.8,0.3c0.2,0,0.4,0,0.8-0.1v1.3
		c-0.4,0.1-0.8,0.2-1.2,0.2c-0.7,0-1.3-0.2-1.6-0.7s-0.6-1.1-0.6-1.9v-5.9h-1.7v-1.3h1.7V140H792z"/>
	<path class="st4" d="M801.6,151.8c-0.1-0.2-0.2-0.5-0.2-1c-0.8,0.8-1.7,1.2-2.7,1.2c-0.9,0-1.7-0.3-2.3-0.8s-0.9-1.2-0.9-2
		c0-1,0.4-1.8,1.1-2.3s1.8-0.8,3.2-0.8h1.6v-0.7c0-0.6-0.2-1-0.5-1.4c-0.3-0.3-0.8-0.5-1.5-0.5c-0.6,0-1.1,0.1-1.5,0.4
		s-0.6,0.6-0.6,1.1h-1.6c0-0.5,0.2-0.9,0.5-1.4s0.8-0.8,1.4-1.1s1.2-0.4,1.9-0.4c1.1,0,2,0.3,2.6,0.8s0.9,1.3,1,2.3v4.4
		c0,0.9,0.1,1.6,0.3,2.1v0.1H801.6z M798.9,150.6c0.5,0,1-0.1,1.5-0.4s0.8-0.6,1-1v-2h-1.3c-2,0-3,0.6-3,1.7c0,0.5,0.2,0.9,0.5,1.2
		S798.4,150.6,798.9,150.6z"/>
	<path class="st4" d="M805.1,147c0-1.5,0.3-2.7,1-3.5s1.6-1.3,2.7-1.3c1.2,0,2.1,0.4,2.7,1.2l0.1-1.1h1.5v9.3c0,1.2-0.4,2.2-1.1,2.9
		s-1.7,1.1-2.9,1.1c-0.7,0-1.4-0.1-2-0.4s-1.2-0.7-1.5-1.2l0.8-1c0.7,0.9,1.5,1.3,2.6,1.3c0.8,0,1.4-0.2,1.9-0.7s0.7-1.1,0.7-1.9
		v-0.8c-0.7,0.8-1.5,1.1-2.7,1.1c-1.1,0-2-0.4-2.7-1.3S805.1,148.6,805.1,147z M806.8,147.2c0,1.1,0.2,1.9,0.7,2.5
		c0.4,0.6,1.1,0.9,1.8,0.9c1,0,1.8-0.5,2.3-1.4v-4.3c-0.5-0.9-1.2-1.4-2.2-1.4c-0.8,0-1.4,0.3-1.9,0.9S806.8,146,806.8,147.2z"/>
	<path class="st4" d="M819.5,152c-1.3,0-2.3-0.4-3.1-1.3s-1.2-2-1.2-3.4v-0.3c0-0.9,0.2-1.8,0.5-2.5s0.9-1.3,1.5-1.7
		s1.3-0.6,2.1-0.6c1.2,0,2.2,0.4,2.9,1.2s1,2,1,3.5v0.7h-6.4c0,0.9,0.3,1.7,0.8,2.3c0.5,0.6,1.2,0.9,2,0.9c0.6,0,1.1-0.1,1.5-0.4
		s0.7-0.5,1-0.9l1,0.8C822.3,151.4,821.1,152,819.5,152z M819.3,143.5c-0.7,0-1.2,0.2-1.7,0.7s-0.7,1.1-0.8,2h4.8v-0.1
		c0-0.8-0.3-1.5-0.7-1.9S820,143.5,819.3,143.5z"/>
</g>
<g class="st3">
	<path class="st4" d="M641.8,168.2c0-1.3,0.2-2.6,0.5-3.8s0.9-2.3,1.6-3.3s1.4-1.7,2.2-2.1l0.3,1.1c-0.9,0.7-1.6,1.7-2.1,3
		s-0.8,2.9-0.9,4.5l0,0.7c0,2.3,0.4,4.2,1.2,5.9c0.5,1,1.1,1.8,1.8,2.3l-0.3,1c-0.8-0.4-1.5-1.2-2.2-2.2
		C642.5,173.4,641.8,171,641.8,168.2z"/>
	<path class="st4" d="M652.7,171.2l3.7-10.6h1.8l-4.7,12.8h-1.5l-4.7-12.8h1.8L652.7,171.2z"/>
	<path class="st4" d="M664.3,166.6h3.6v1.5h-3.6v4h-1.6v-4h-3.6v-1.5h3.6v-3.7h1.6V166.6z"/>
	<path class="st4" d="M669.8,176l-0.9-0.6c0.6-0.8,0.8-1.6,0.9-2.4v-1.5h1.6v1.3c0,0.6-0.1,1.2-0.4,1.8S670.2,175.6,669.8,176z"/>
	<path class="st4" d="M682.3,171.2l3.7-10.6h1.8l-4.7,12.8h-1.5l-4.7-12.8h1.8L682.3,171.2z"/>
</g>
<text transform="matrix(1 0 0 1 687.8867 179.437)" class="st4 st9 st10">DD</text>
<text transform="matrix(1 0 0 1 701.6501 173.443)" class="st4 st9 st11">)</text>
<g class="st3">
	<path class="st4" d="M264.5,292.9h-1.7l-6.4-9.9v9.9h-1.7v-12.8h1.7l6.5,9.9v-9.9h1.7V292.9z"/>
	<path class="st4" d="M273.1,292c-0.6,0.7-1.6,1.1-2.8,1.1c-1,0-1.8-0.3-2.3-0.9c-0.5-0.6-0.8-1.5-0.8-2.6v-6.2h1.6v6.1
		c0,1.4,0.6,2.2,1.8,2.2c1.2,0,2.1-0.5,2.5-1.4v-6.9h1.6v9.5h-1.5L273.1,292z"/>
	<path class="st4" d="M278.7,283.4l0,1.1c0.7-0.8,1.6-1.2,2.8-1.2c1.3,0,2.2,0.5,2.7,1.5c0.3-0.5,0.7-0.8,1.2-1.1s1.1-0.4,1.8-0.4
		c2.1,0,3.1,1.1,3.2,3.3v6.4h-1.6v-6.3c0-0.7-0.2-1.2-0.5-1.5c-0.3-0.3-0.8-0.5-1.6-0.5c-0.6,0-1.1,0.2-1.5,0.5
		c-0.4,0.4-0.6,0.8-0.7,1.5v6.3H283v-6.2c0-1.4-0.7-2.1-2-2.1c-1.1,0-1.8,0.5-2.2,1.4v6.9h-1.6v-9.5H278.7z"/>
	<path class="st4" d="M301,288.3c0,1.5-0.3,2.6-1,3.5s-1.6,1.3-2.7,1.3c-1.2,0-2.1-0.4-2.8-1.3l-0.1,1.1H293v-13.5h1.6v5
		c0.7-0.8,1.6-1.2,2.7-1.2s2.1,0.4,2.7,1.3s1,2.1,1,3.6V288.3z M299.4,288.1c0-1.1-0.2-2-0.6-2.6s-1-0.9-1.8-0.9
		c-1.1,0-1.8,0.5-2.3,1.5v4.1c0.5,1,1.3,1.5,2.3,1.5c0.8,0,1.4-0.3,1.8-0.9S299.4,289.3,299.4,288.1z"/>
	<path class="st4" d="M307,293.1c-1.3,0-2.3-0.4-3.1-1.3s-1.2-2-1.2-3.4v-0.3c0-0.9,0.2-1.8,0.5-2.5s0.9-1.3,1.5-1.7
		s1.3-0.6,2.1-0.6c1.2,0,2.2,0.4,2.9,1.2s1,2,1,3.5v0.7h-6.4c0,0.9,0.3,1.7,0.8,2.3c0.5,0.6,1.2,0.9,2,0.9c0.6,0,1.1-0.1,1.5-0.4
		s0.7-0.5,1-0.9l1,0.8C309.8,292.5,308.6,293.1,307,293.1z M306.8,284.6c-0.7,0-1.2,0.2-1.7,0.7s-0.7,1.1-0.8,2h4.8v-0.1
		c0-0.8-0.3-1.5-0.7-1.9S307.5,284.6,306.8,284.6z"/>
	<path class="st4" d="M317.2,284.9c-0.2,0-0.5-0.1-0.8-0.1c-1.1,0-1.8,0.5-2.2,1.4v6.8h-1.6v-9.5h1.6l0,1.1c0.5-0.8,1.3-1.3,2.3-1.3
		c0.3,0,0.6,0,0.7,0.1V284.9z"/>
	<path class="st4" d="M318.7,280.9c0-0.3,0.1-0.5,0.2-0.7s0.4-0.3,0.7-0.3s0.6,0.1,0.7,0.3s0.2,0.4,0.2,0.7s-0.1,0.5-0.2,0.7
		s-0.4,0.3-0.7,0.3s-0.6-0.1-0.7-0.3S318.7,281.1,318.7,280.9z M320.4,292.9h-1.6v-9.5h1.6V292.9z"/>
	<path class="st4" d="M324.6,283.4l0.1,1.2c0.7-0.9,1.7-1.4,2.8-1.4c2,0,3,1.1,3,3.4v6.3h-1.6v-6.3c0-0.7-0.2-1.2-0.5-1.5
		s-0.8-0.5-1.4-0.5c-0.5,0-1,0.1-1.4,0.4s-0.7,0.7-0.9,1.1v6.8H323v-9.5H324.6z"/>
	<path class="st4" d="M332.6,288.1c0-1.5,0.3-2.7,1-3.5s1.6-1.3,2.7-1.3c1.2,0,2.1,0.4,2.7,1.2l0.1-1.1h1.5v9.3
		c0,1.2-0.4,2.2-1.1,2.9s-1.7,1.1-2.9,1.1c-0.7,0-1.4-0.1-2-0.4s-1.2-0.7-1.5-1.2l0.8-1c0.7,0.9,1.5,1.3,2.6,1.3
		c0.8,0,1.4-0.2,1.9-0.7s0.7-1.1,0.7-1.9V292c-0.7,0.8-1.5,1.1-2.7,1.1c-1.1,0-2-0.4-2.7-1.3S332.6,289.6,332.6,288.1z M334.2,288.3
		c0,1.1,0.2,1.9,0.7,2.5c0.4,0.6,1.1,0.9,1.8,0.9c1,0,1.8-0.5,2.3-1.4V286c-0.5-0.9-1.2-1.4-2.2-1.4c-0.8,0-1.4,0.3-1.9,0.9
		S334.2,287.1,334.2,288.3z"/>
</g>
<g class="st3">
	<path class="st4" d="M258.2,313.4c0.6,0,1.1-0.2,1.5-0.5s0.7-0.8,0.7-1.3h1.5c0,0.5-0.2,1.1-0.6,1.6s-0.8,0.9-1.4,1.2
		s-1.2,0.4-1.8,0.4c-1.3,0-2.3-0.4-3.1-1.3c-0.8-0.9-1.1-2-1.1-3.5v-0.3c0-0.9,0.2-1.7,0.5-2.5s0.8-1.3,1.5-1.7s1.4-0.6,2.3-0.6
		c1.1,0,2,0.3,2.7,1s1.1,1.5,1.1,2.5h-1.5c0-0.6-0.3-1.1-0.7-1.5c-0.4-0.4-0.9-0.6-1.6-0.6c-0.8,0-1.5,0.3-1.9,0.9s-0.7,1.5-0.7,2.6
		v0.3c0,1.1,0.2,1.9,0.7,2.5S257.4,313.4,258.2,313.4z"/>
	<path class="st4" d="M263.4,309.7c0-0.9,0.2-1.8,0.5-2.5s0.9-1.3,1.5-1.7s1.4-0.6,2.2-0.6c1.3,0,2.3,0.4,3.1,1.3s1.2,2.1,1.2,3.6
		v0.1c0,0.9-0.2,1.8-0.5,2.5c-0.4,0.7-0.9,1.3-1.5,1.7s-1.4,0.6-2.3,0.6c-1.3,0-2.3-0.4-3.1-1.3s-1.2-2.1-1.2-3.6V309.7z M265,309.9
		c0,1.1,0.2,1.9,0.7,2.5s1.1,1,2,1c0.8,0,1.5-0.3,2-1c0.5-0.6,0.7-1.6,0.7-2.7c0-1-0.2-1.9-0.7-2.5c-0.5-0.6-1.2-1-2-1
		c-0.8,0-1.5,0.3-1.9,1S265,308.7,265,309.9z"/>
	<path class="st4" d="M280,313.6c-0.6,0.7-1.6,1.1-2.8,1.1c-1,0-1.8-0.3-2.3-0.9c-0.5-0.6-0.8-1.5-0.8-2.6V305h1.6v6.1
		c0,1.4,0.6,2.2,1.8,2.2c1.2,0,2.1-0.5,2.5-1.4V305h1.6v9.5H280L280,313.6z"/>
	<path class="st4" d="M285.6,305l0.1,1.2c0.7-0.9,1.7-1.4,2.8-1.4c2,0,3,1.1,3,3.4v6.3h-1.6v-6.3c0-0.7-0.2-1.2-0.5-1.5
		s-0.8-0.5-1.4-0.5c-0.5,0-1,0.1-1.4,0.4s-0.7,0.7-0.9,1.1v6.8H284V305H285.6z"/>
	<path class="st4" d="M296.2,302.7v2.3h1.8v1.3h-1.8v5.9c0,0.4,0.1,0.7,0.2,0.9s0.4,0.3,0.8,0.3c0.2,0,0.4,0,0.8-0.1v1.3
		c-0.4,0.1-0.8,0.2-1.2,0.2c-0.7,0-1.3-0.2-1.6-0.7s-0.6-1.1-0.6-1.9v-5.9h-1.7V305h1.7v-2.3H296.2z"/>
	<path class="st4" d="M303.8,314.7c-1.3,0-2.3-0.4-3.1-1.3s-1.2-2-1.2-3.4v-0.3c0-0.9,0.2-1.8,0.5-2.5s0.9-1.3,1.5-1.7
		s1.3-0.6,2.1-0.6c1.2,0,2.2,0.4,2.9,1.2s1,2,1,3.5v0.7h-6.4c0,0.9,0.3,1.7,0.8,2.3c0.5,0.6,1.2,0.9,2,0.9c0.6,0,1.1-0.1,1.5-0.4
		s0.7-0.5,1-0.9l1,0.8C306.6,314.1,305.4,314.7,303.8,314.7z M303.6,306.2c-0.7,0-1.2,0.2-1.7,0.7s-0.7,1.1-0.8,2h4.8v-0.1
		c0-0.8-0.3-1.5-0.7-1.9S304.3,306.2,303.6,306.2z"/>
	<path class="st4" d="M314,306.5c-0.2,0-0.5-0.1-0.8-0.1c-1.1,0-1.8,0.5-2.2,1.4v6.8h-1.6V305h1.6l0,1.1c0.5-0.8,1.3-1.3,2.3-1.3
		c0.3,0,0.6,0,0.7,0.1V306.5z"/>
	<path class="st4" d="M319.1,313.4c0.6,0,1.1-0.2,1.5-0.5s0.7-0.8,0.7-1.3h1.5c0,0.5-0.2,1.1-0.6,1.6s-0.8,0.9-1.4,1.2
		s-1.2,0.4-1.8,0.4c-1.3,0-2.3-0.4-3.1-1.3c-0.8-0.9-1.1-2-1.1-3.5v-0.3c0-0.9,0.2-1.7,0.5-2.5s0.8-1.3,1.5-1.7s1.4-0.6,2.3-0.6
		c1.1,0,2,0.3,2.7,1s1.1,1.5,1.1,2.5h-1.5c0-0.6-0.3-1.1-0.7-1.5c-0.4-0.4-0.9-0.6-1.6-0.6c-0.8,0-1.5,0.3-1.9,0.9s-0.7,1.5-0.7,2.6
		v0.3c0,1.1,0.2,1.9,0.7,2.5S318.3,313.4,319.1,313.4z"/>
	<path class="st4" d="M326.5,314.5h-1.6V301h1.6V314.5z"/>
	<path class="st4" d="M328.7,309.7c0-0.9,0.2-1.8,0.5-2.5s0.9-1.3,1.5-1.7s1.4-0.6,2.2-0.6c1.3,0,2.3,0.4,3.1,1.3s1.2,2.1,1.2,3.6
		v0.1c0,0.9-0.2,1.8-0.5,2.5c-0.4,0.7-0.9,1.3-1.5,1.7s-1.4,0.6-2.3,0.6c-1.3,0-2.3-0.4-3.1-1.3s-1.2-2.1-1.2-3.6V309.7z
		 M330.3,309.9c0,1.1,0.2,1.9,0.7,2.5s1.1,1,2,1c0.8,0,1.5-0.3,2-1c0.5-0.6,0.7-1.6,0.7-2.7c0-1-0.2-1.9-0.7-2.5c-0.5-0.6-1.2-1-2-1
		c-0.8,0-1.5,0.3-1.9,1S330.3,308.7,330.3,309.9z"/>
	<path class="st4" d="M343.2,313.4c0.6,0,1.1-0.2,1.5-0.5s0.7-0.8,0.7-1.3h1.5c0,0.5-0.2,1.1-0.6,1.6s-0.8,0.9-1.4,1.2
		s-1.2,0.4-1.8,0.4c-1.3,0-2.3-0.4-3.1-1.3c-0.8-0.9-1.1-2-1.1-3.5v-0.3c0-0.9,0.2-1.7,0.5-2.5s0.8-1.3,1.5-1.7s1.4-0.6,2.3-0.6
		c1.1,0,2,0.3,2.7,1s1.1,1.5,1.1,2.5h-1.5c0-0.6-0.3-1.1-0.7-1.5c-0.4-0.4-0.9-0.6-1.6-0.6c-0.8,0-1.5,0.3-1.9,0.9s-0.7,1.5-0.7,2.6
		v0.3c0,1.1,0.2,1.9,0.7,2.5S342.3,313.4,343.2,313.4z"/>
	<path class="st4" d="M351.4,310.1l-1,1.1v3.3h-1.6V301h1.6v8.2l0.9-1l3-3.1h2l-3.7,4l4.1,5.5h-1.9L351.4,310.1z"/>
	<path class="st4" d="M366.3,312.3l1.8-7.3h1.6l-2.8,9.5h-1.3l-2.3-7.2l-2.2,7.2h-1.3L357,305h1.6l1.9,7.1l2.2-7.1h1.3L366.3,312.3z
		"/>
	<path class="st4" d="M371.4,302.5c0-0.3,0.1-0.5,0.2-0.7s0.4-0.3,0.7-0.3s0.6,0.1,0.7,0.3s0.2,0.4,0.2,0.7s-0.1,0.5-0.2,0.7
		s-0.4,0.3-0.7,0.3s-0.6-0.1-0.7-0.3S371.4,302.7,371.4,302.5z M373.2,314.5h-1.6V305h1.6V314.5z"/>
	<path class="st4" d="M381.3,312c0-0.4-0.2-0.8-0.5-1c-0.3-0.2-0.9-0.5-1.7-0.6s-1.5-0.4-2-0.6s-0.8-0.5-1.1-0.9s-0.3-0.7-0.3-1.2
		c0-0.8,0.3-1.4,1-2s1.5-0.8,2.5-0.8c1.1,0,2,0.3,2.6,0.8s1,1.3,1,2.1h-1.6c0-0.4-0.2-0.8-0.6-1.2s-0.9-0.5-1.4-0.5
		c-0.6,0-1.1,0.1-1.4,0.4s-0.5,0.6-0.5,1c0,0.4,0.2,0.7,0.5,0.9s0.9,0.4,1.7,0.6s1.5,0.4,2,0.7s0.9,0.6,1.1,0.9
		c0.2,0.4,0.4,0.8,0.4,1.3c0,0.8-0.3,1.5-1,2c-0.7,0.5-1.6,0.8-2.6,0.8c-0.8,0-1.4-0.1-2-0.4s-1-0.6-1.4-1.1c-0.3-0.5-0.5-1-0.5-1.6
		h1.6c0,0.5,0.2,1,0.7,1.3c0.4,0.3,0.9,0.5,1.6,0.5c0.6,0,1.1-0.1,1.5-0.4C381.1,312.7,381.3,312.4,381.3,312z"/>
	<path class="st4" d="M389,314.7c-1.3,0-2.3-0.4-3.1-1.3s-1.2-2-1.2-3.4v-0.3c0-0.9,0.2-1.8,0.5-2.5s0.9-1.3,1.5-1.7
		s1.3-0.6,2.1-0.6c1.2,0,2.2,0.4,2.9,1.2s1,2,1,3.5v0.7h-6.4c0,0.9,0.3,1.7,0.8,2.3c0.5,0.6,1.2,0.9,2,0.9c0.6,0,1.1-0.1,1.5-0.4
		s0.7-0.5,1-0.9l1,0.8C391.8,314.1,390.6,314.7,389,314.7z M388.8,306.2c-0.7,0-1.2,0.2-1.7,0.7s-0.7,1.1-0.8,2h4.8v-0.1
		c0-0.8-0.3-1.5-0.7-1.9S389.5,306.2,388.8,306.2z"/>
</g>
<g class="st3">
	<path class="st4" d="M482.9,495.9h-4.1v11.4h-1.7v-11.4H473v-1.4h9.9V495.9z"/>
	<path class="st4" d="M483.2,502.5c0-0.9,0.2-1.8,0.5-2.5s0.9-1.3,1.5-1.7s1.4-0.6,2.2-0.6c1.3,0,2.3,0.4,3.1,1.3s1.2,2.1,1.2,3.6
		v0.1c0,0.9-0.2,1.8-0.5,2.5c-0.4,0.7-0.9,1.3-1.5,1.7s-1.4,0.6-2.3,0.6c-1.3,0-2.3-0.4-3.1-1.3s-1.2-2.1-1.2-3.6V502.5z
		 M484.9,502.7c0,1.1,0.2,1.9,0.7,2.5s1.1,1,2,1c0.8,0,1.5-0.3,2-1c0.5-0.6,0.7-1.6,0.7-2.7c0-1-0.2-1.9-0.7-2.5c-0.5-0.6-1.2-1-2-1
		c-0.8,0-1.5,0.3-1.9,1S484.9,501.5,484.9,502.7z"/>
	<path class="st4" d="M502,502.7c0,1.4-0.3,2.6-1,3.5s-1.6,1.3-2.7,1.3c-1.2,0-2.1-0.4-2.7-1.1v4.6h-1.6v-13.2h1.5l0.1,1.1
		c0.7-0.8,1.6-1.2,2.8-1.2c1.1,0,2,0.4,2.7,1.3s1,2.1,1,3.6V502.7z M500.4,502.5c0-1.1-0.2-1.9-0.7-2.5s-1.1-0.9-1.9-0.9
		c-1,0-1.7,0.4-2.2,1.3v4.5c0.5,0.9,1.2,1.3,2.2,1.3c0.8,0,1.4-0.3,1.9-0.9S500.4,503.7,500.4,502.5z"/>
	<path class="st4" d="M511.6,505.1l2.4-7.3h1.7l-3.4,9.5H511l-3.4-9.5h1.7L511.6,505.1z"/>
	<path class="st4" d="M517.2,495.3c0-0.3,0.1-0.5,0.2-0.7s0.4-0.3,0.7-0.3s0.6,0.1,0.7,0.3s0.2,0.4,0.2,0.7s-0.1,0.5-0.2,0.7
		s-0.4,0.3-0.7,0.3s-0.6-0.1-0.7-0.3S517.2,495.5,517.2,495.3z M519,507.3h-1.6v-9.5h1.6V507.3z"/>
	<path class="st4" d="M525.5,507.5c-1.3,0-2.3-0.4-3.1-1.3s-1.2-2-1.2-3.4v-0.3c0-0.9,0.2-1.8,0.5-2.5s0.9-1.3,1.5-1.7
		s1.3-0.6,2.1-0.6c1.2,0,2.2,0.4,2.9,1.2s1,2,1,3.5v0.7h-6.4c0,0.9,0.3,1.7,0.8,2.3c0.5,0.6,1.2,0.9,2,0.9c0.6,0,1.1-0.1,1.5-0.4
		s0.7-0.5,1-0.9l1,0.8C528.3,506.9,527.1,507.5,525.5,507.5z M525.3,499c-0.7,0-1.2,0.2-1.7,0.7s-0.7,1.1-0.8,2h4.8v-0.1
		c0-0.8-0.3-1.5-0.7-1.9S526,499,525.3,499z"/>
	<path class="st4" d="M539.5,505.1l1.8-7.3h1.6l-2.8,9.5h-1.3l-2.3-7.2l-2.2,7.2H533l-2.8-9.5h1.6l1.9,7.1l2.2-7.1h1.3L539.5,505.1z
		"/>
</g>
<g class="st3">
	<path class="st4" d="M261.7,179.7h-5.4v5.7h-1.7v-12.8h7.9v1.4h-6.2v4.4h5.4V179.7z"/>
	<path class="st4" d="M264.4,173.3c0-0.3,0.1-0.5,0.2-0.7s0.4-0.3,0.7-0.3s0.6,0.1,0.7,0.3s0.2,0.4,0.2,0.7s-0.1,0.5-0.2,0.7
		s-0.4,0.3-0.7,0.3s-0.6-0.1-0.7-0.3S264.4,173.6,264.4,173.3z M266.1,185.4h-1.6v-9.5h1.6V185.4z"/>
	<path class="st4" d="M273.3,177.3c-0.2,0-0.5-0.1-0.8-0.1c-1.1,0-1.8,0.5-2.2,1.4v6.8h-1.6v-9.5h1.6l0,1.1c0.5-0.8,1.3-1.3,2.3-1.3
		c0.3,0,0.6,0,0.7,0.1V177.3z"/>
	<path class="st4" d="M280.4,182.8c0-0.4-0.2-0.8-0.5-1c-0.3-0.2-0.9-0.5-1.7-0.6s-1.5-0.4-2-0.6s-0.8-0.5-1.1-0.9s-0.3-0.7-0.3-1.2
		c0-0.8,0.3-1.4,1-2s1.5-0.8,2.5-0.8c1.1,0,2,0.3,2.6,0.8s1,1.3,1,2.1h-1.6c0-0.4-0.2-0.8-0.6-1.2s-0.9-0.5-1.4-0.5
		c-0.6,0-1.1,0.1-1.4,0.4s-0.5,0.6-0.5,1c0,0.4,0.2,0.7,0.5,0.9s0.9,0.4,1.7,0.6s1.5,0.4,2,0.7s0.9,0.6,1.1,0.9
		c0.2,0.4,0.4,0.8,0.4,1.3c0,0.8-0.3,1.5-1,2c-0.7,0.5-1.6,0.8-2.6,0.8c-0.8,0-1.4-0.1-2-0.4s-1-0.6-1.4-1.1c-0.3-0.5-0.5-1-0.5-1.6
		h1.6c0,0.5,0.2,1,0.7,1.3c0.4,0.3,0.9,0.5,1.6,0.5c0.6,0,1.1-0.1,1.5-0.4C280.2,183.6,280.4,183.2,280.4,182.8z"/>
	<path class="st4" d="M286.3,173.5v2.3h1.8v1.3h-1.8v5.9c0,0.4,0.1,0.7,0.2,0.9s0.4,0.3,0.8,0.3c0.2,0,0.4,0,0.8-0.1v1.3
		c-0.4,0.1-0.8,0.2-1.2,0.2c-0.7,0-1.3-0.2-1.6-0.7s-0.6-1.1-0.6-1.9v-5.9H283v-1.3h1.7v-2.3H286.3z"/>
	<path class="st4" d="M302.5,180.7c0,1.4-0.3,2.6-1,3.5s-1.6,1.3-2.7,1.3c-1.2,0-2.1-0.4-2.7-1.1v4.6h-1.6v-13.2h1.5l0.1,1.1
		c0.7-0.8,1.6-1.2,2.8-1.2c1.1,0,2,0.4,2.7,1.3s1,2.1,1,3.6V180.7z M300.9,180.5c0-1.1-0.2-1.9-0.7-2.5s-1.1-0.9-1.9-0.9
		c-1,0-1.7,0.4-2.2,1.3v4.5c0.5,0.9,1.2,1.3,2.2,1.3c0.8,0,1.4-0.3,1.9-0.9S300.9,181.7,300.9,180.5z"/>
	<path class="st4" d="M304.6,173.3c0-0.3,0.1-0.5,0.2-0.7s0.4-0.3,0.7-0.3s0.6,0.1,0.7,0.3s0.2,0.4,0.2,0.7s-0.1,0.5-0.2,0.7
		s-0.4,0.3-0.7,0.3s-0.6-0.1-0.7-0.3S304.6,173.6,304.6,173.3z M306.3,185.4h-1.6v-9.5h1.6V185.4z"/>
	<path class="st4" d="M310.4,175.8l0.1,1.2c0.7-0.9,1.7-1.4,2.8-1.4c2,0,3,1.1,3,3.4v6.3h-1.6v-6.3c0-0.7-0.2-1.2-0.5-1.5
		s-0.8-0.5-1.4-0.5c-0.5,0-1,0.1-1.4,0.4s-0.7,0.7-0.9,1.1v6.8h-1.6v-9.5H310.4z"/>
	<path class="st4" d="M325.5,173.5v2.3h1.8v1.3h-1.8v5.9c0,0.4,0.1,0.7,0.2,0.9s0.4,0.3,0.8,0.3c0.2,0,0.4,0,0.8-0.1v1.3
		c-0.4,0.1-0.8,0.2-1.2,0.2c-0.7,0-1.3-0.2-1.6-0.7s-0.6-1.1-0.6-1.9v-5.9h-1.7v-1.3h1.7v-2.3H325.5z"/>
	<path class="st4" d="M328.6,180.5c0-0.9,0.2-1.8,0.5-2.5s0.9-1.3,1.5-1.7s1.4-0.6,2.2-0.6c1.3,0,2.3,0.4,3.1,1.3s1.2,2.1,1.2,3.6
		v0.1c0,0.9-0.2,1.8-0.5,2.5c-0.4,0.7-0.9,1.3-1.5,1.7s-1.4,0.6-2.3,0.6c-1.3,0-2.3-0.4-3.1-1.3s-1.2-2.1-1.2-3.6V180.5z
		 M330.2,180.7c0,1.1,0.2,1.9,0.7,2.5s1.1,1,2,1c0.8,0,1.5-0.3,2-1c0.5-0.6,0.7-1.6,0.7-2.7c0-1-0.2-1.9-0.7-2.5c-0.5-0.6-1.2-1-2-1
		c-0.8,0-1.5,0.3-1.9,1S330.2,179.5,330.2,180.7z"/>
	<path class="st4" d="M345.9,173.5v2.3h1.8v1.3h-1.8v5.9c0,0.4,0.1,0.7,0.2,0.9s0.4,0.3,0.8,0.3c0.2,0,0.4,0,0.8-0.1v1.3
		c-0.4,0.1-0.8,0.2-1.2,0.2c-0.7,0-1.3-0.2-1.6-0.7s-0.6-1.1-0.6-1.9v-5.9h-1.7v-1.3h1.7v-2.3H345.9z"/>
	<path class="st4" d="M351.2,177c0.7-0.9,1.7-1.3,2.8-1.3c2,0,3,1.1,3,3.4v6.3h-1.6v-6.3c0-0.7-0.2-1.2-0.5-1.5s-0.8-0.5-1.4-0.5
		c-0.5,0-1,0.1-1.4,0.4s-0.7,0.7-0.9,1.1v6.8h-1.6v-13.5h1.6V177z"/>
	<path class="st4" d="M363.5,185.5c-1.3,0-2.3-0.4-3.1-1.3s-1.2-2-1.2-3.4v-0.3c0-0.9,0.2-1.8,0.5-2.5s0.9-1.3,1.5-1.7
		s1.3-0.6,2.1-0.6c1.2,0,2.2,0.4,2.9,1.2s1,2,1,3.5v0.7h-6.4c0,0.9,0.3,1.7,0.8,2.3c0.5,0.6,1.2,0.9,2,0.9c0.6,0,1.1-0.1,1.5-0.4
		s0.7-0.5,1-0.9l1,0.8C366.3,184.9,365.1,185.5,363.5,185.5z M363.3,177c-0.7,0-1.2,0.2-1.7,0.7s-0.7,1.1-0.8,2h4.8v-0.1
		c0-0.8-0.3-1.5-0.7-1.9S363.9,177,363.3,177z"/>
</g>
<g class="st3">
	<path class="st4" d="M256.2,206.9h-1.6v-13.5h1.6V206.9z"/>
	<path class="st4" d="M262.7,207.1c-1.3,0-2.3-0.4-3.1-1.3s-1.2-2-1.2-3.4v-0.3c0-0.9,0.2-1.8,0.5-2.5s0.9-1.3,1.5-1.7
		s1.3-0.6,2.1-0.6c1.2,0,2.2,0.4,2.9,1.2s1,2,1,3.5v0.7H260c0,0.9,0.3,1.7,0.8,2.3c0.5,0.6,1.2,0.9,2,0.9c0.6,0,1.1-0.1,1.5-0.4
		s0.7-0.5,1-0.9l1,0.8C265.5,206.5,264.3,207.1,262.7,207.1z M262.5,198.6c-0.7,0-1.2,0.2-1.7,0.7s-0.7,1.1-0.8,2h4.8v-0.1
		c0-0.8-0.3-1.5-0.7-1.9S263.2,198.6,262.5,198.6z"/>
	<path class="st4" d="M269.1,206.9v-8.3h-1.5v-1.3h1.5v-1c0-1,0.3-1.8,0.8-2.4s1.3-0.8,2.3-0.8c0.4,0,0.7,0,1.1,0.1l-0.1,1.3
		c-0.3-0.1-0.6-0.1-0.9-0.1c-0.5,0-0.9,0.2-1.2,0.5s-0.4,0.8-0.4,1.3v1h2v1.3h-2v8.3H269.1z"/>
	<path class="st4" d="M276.8,195.1v2.3h1.8v1.3h-1.8v5.9c0,0.4,0.1,0.7,0.2,0.9s0.4,0.3,0.8,0.3c0.2,0,0.4,0,0.8-0.1v1.3
		c-0.4,0.1-0.8,0.2-1.2,0.2c-0.7,0-1.3-0.2-1.6-0.7s-0.6-1.1-0.6-1.9v-5.9h-1.7v-1.3h1.7v-2.3H276.8z"/>
	<path class="st4" d="M284.5,202.1c0-0.9,0.2-1.8,0.5-2.5s0.9-1.3,1.5-1.7s1.4-0.6,2.2-0.6c1.3,0,2.3,0.4,3.1,1.3s1.2,2.1,1.2,3.6
		v0.1c0,0.9-0.2,1.8-0.5,2.5c-0.4,0.7-0.9,1.3-1.5,1.7s-1.4,0.6-2.3,0.6c-1.3,0-2.3-0.4-3.1-1.3s-1.2-2.1-1.2-3.6V202.1z
		 M286.1,202.3c0,1.1,0.2,1.9,0.7,2.5s1.1,1,2,1c0.8,0,1.5-0.3,2-1c0.5-0.6,0.7-1.6,0.7-2.7c0-1-0.2-1.9-0.7-2.5c-0.5-0.6-1.2-1-2-1
		c-0.8,0-1.5,0.3-1.9,1S286.1,201.1,286.1,202.3z"/>
	<path class="st4" d="M296,206.9v-8.3h-1.5v-1.3h1.5v-1c0-1,0.3-1.8,0.8-2.4s1.3-0.8,2.3-0.8c0.4,0,0.7,0,1.1,0.1l-0.1,1.3
		c-0.3-0.1-0.6-0.1-0.9-0.1c-0.5,0-0.9,0.2-1.2,0.5s-0.4,0.8-0.4,1.3v1h2v1.3h-2v8.3H296z"/>
	<path class="st4" d="M312.5,195.1v2.3h1.8v1.3h-1.8v5.9c0,0.4,0.1,0.7,0.2,0.9s0.4,0.3,0.8,0.3c0.2,0,0.4,0,0.8-0.1v1.3
		c-0.4,0.1-0.8,0.2-1.2,0.2c-0.7,0-1.3-0.2-1.6-0.7s-0.6-1.1-0.6-1.9v-5.9h-1.7v-1.3h1.7v-2.3H312.5z"/>
	<path class="st4" d="M317.8,198.6c0.7-0.9,1.7-1.3,2.8-1.3c2,0,3,1.1,3,3.4v6.3h-1.6v-6.3c0-0.7-0.2-1.2-0.5-1.5s-0.8-0.5-1.4-0.5
		c-0.5,0-1,0.1-1.4,0.4s-0.7,0.7-0.9,1.1v6.8h-1.6v-13.5h1.6V198.6z"/>
	<path class="st4" d="M330.1,207.1c-1.3,0-2.3-0.4-3.1-1.3s-1.2-2-1.2-3.4v-0.3c0-0.9,0.2-1.8,0.5-2.5s0.9-1.3,1.5-1.7
		s1.3-0.6,2.1-0.6c1.2,0,2.2,0.4,2.9,1.2s1,2,1,3.5v0.7h-6.4c0,0.9,0.3,1.7,0.8,2.3c0.5,0.6,1.2,0.9,2,0.9c0.6,0,1.1-0.1,1.5-0.4
		s0.7-0.5,1-0.9l1,0.8C332.9,206.5,331.7,207.1,330.1,207.1z M329.9,198.6c-0.7,0-1.2,0.2-1.7,0.7s-0.7,1.1-0.8,2h4.8v-0.1
		c0-0.8-0.3-1.5-0.7-1.9S330.6,198.6,329.9,198.6z"/>
	<path class="st4" d="M341.7,197.4l0.1,1.2c0.7-0.9,1.7-1.4,2.8-1.4c2,0,3,1.1,3,3.4v6.3H346v-6.3c0-0.7-0.2-1.2-0.5-1.5
		s-0.8-0.5-1.4-0.5c-0.5,0-1,0.1-1.4,0.4s-0.7,0.7-0.9,1.1v6.8h-1.6v-9.5H341.7z"/>
	<path class="st4" d="M349.6,202.1c0-0.9,0.2-1.8,0.5-2.5s0.9-1.3,1.5-1.7s1.4-0.6,2.2-0.6c1.3,0,2.3,0.4,3.1,1.3s1.2,2.1,1.2,3.6
		v0.1c0,0.9-0.2,1.8-0.5,2.5c-0.4,0.7-0.9,1.3-1.5,1.7s-1.4,0.6-2.3,0.6c-1.3,0-2.3-0.4-3.1-1.3s-1.2-2.1-1.2-3.6V202.1z
		 M351.3,202.3c0,1.1,0.2,1.9,0.7,2.5s1.1,1,2,1c0.8,0,1.5-0.3,2-1c0.5-0.6,0.7-1.6,0.7-2.7c0-1-0.2-1.9-0.7-2.5c-0.5-0.6-1.2-1-2-1
		c-0.8,0-1.5,0.3-1.9,1S351.3,201.1,351.3,202.3z"/>
	<path class="st4" d="M362.5,195.1v2.3h1.8v1.3h-1.8v5.9c0,0.4,0.1,0.7,0.2,0.9s0.4,0.3,0.8,0.3c0.2,0,0.4,0,0.8-0.1v1.3
		c-0.4,0.1-0.8,0.2-1.2,0.2c-0.7,0-1.3-0.2-1.6-0.7s-0.6-1.1-0.6-1.9v-5.9h-1.7v-1.3h1.7v-2.3H362.5z"/>
	<path class="st4" d="M370,205.8c0.6,0,1.1-0.2,1.5-0.5s0.7-0.8,0.7-1.3h1.5c0,0.5-0.2,1.1-0.6,1.6s-0.8,0.9-1.4,1.2
		s-1.2,0.4-1.8,0.4c-1.3,0-2.3-0.4-3.1-1.3c-0.8-0.9-1.1-2-1.1-3.5V202c0-0.9,0.2-1.7,0.5-2.5s0.8-1.3,1.5-1.7s1.4-0.6,2.3-0.6
		c1.1,0,2,0.3,2.7,1s1.1,1.5,1.1,2.5h-1.5c0-0.6-0.3-1.1-0.7-1.5c-0.4-0.4-0.9-0.6-1.6-0.6c-0.8,0-1.5,0.3-1.9,0.9s-0.7,1.5-0.7,2.6
		v0.3c0,1.1,0.2,1.9,0.7,2.5S369.2,205.8,370,205.8z"/>
	<path class="st4" d="M377.2,198.6c0.7-0.9,1.7-1.3,2.8-1.3c2,0,3,1.1,3,3.4v6.3h-1.6v-6.3c0-0.7-0.2-1.2-0.5-1.5s-0.8-0.5-1.4-0.5
		c-0.5,0-1,0.1-1.4,0.4s-0.7,0.7-0.9,1.1v6.8h-1.6v-13.5h1.6V198.6z"/>
</g>
</svg>
