<?xml version="1.0" encoding="UTF-8"?>
<svg xmlns="http://www.w3.org/2000/svg" viewBox="0 0 1080 600.48">
  <defs>
    <style>
      .cls-1 {
        stroke-width: 2.83px;
      }

      .cls-1, .cls-2 {
        stroke-miterlimit: 9.78;
      }

      .cls-1, .cls-2, .cls-3, .cls-4 {
        fill: none;
        stroke: #c9d1d9;
      }

      .cls-2, .cls-3, .cls-4 {
        stroke-width: 2.83px;
      }

      .cls-5, .cls-6 {
        fill: #c9d1d9;
      }

      .cls-3 {
        stroke-linecap: round;
        stroke-linejoin: round;
      }

      .cls-4 {
        stroke-miterlimit: 10;
      }

      .cls-7 {
        letter-spacing: -.02em;
      }

      .cls-6 {
        font-family: Roboto-Regular, Roboto;
        font-size: 12px;
      }
    </style>
  </defs>
  <g id="Text">
    <path id="path5133" class="cls-4" d="m150.01,320.02c.49,10.41-24.92,10.7-25.73.62.7-9.79,24.1-9.85,25.73-.62Z"/>
    <polygon id="polygon5135" class="cls-4" points="261.75 460.86 261.72 460.87 256.27 457.73 256.27 455.64 261.75 458.81 261.75 460.86"/>
    <polygon id="polygon5137" class="cls-4" points="308.08 434.13 302.63 430.99 302.63 428.9 308.12 432.07 308.12 434.12 308.08 434.13"/>
    <polygon id="polygon5151" class="cls-4" points="305.76 356.54 307.19 355.72 307.19 430.76 307.16 430.73 301.71 427.59 301.71 354.17 305.76 356.54"/>
    <polygon id="polygon5153" class="cls-4" points="259.4 383.28 260.83 382.46 260.83 457.49 260.79 457.47 255.42 454.32 255.42 380.92 259.4 383.28"/>
    <path id="path5155" class="cls-4" d="m238.26,324.65l23.25-13.47v.03s.08-.04.08-.04v.04s3.64,2.09,3.64,2.09c.58.35,1.15.73,1.7,1.17,5.33,4.02,9.09,11.22,9.27,17.76v33.77l-6.72,11.51v.03s-1.33.72-1.33.72v.03s.01,75.04.01,75.04l-.99,2.29.06.03v2.09l-5.49,3.13v-2.05l-.97-1.34.04.03v-75.04l-1.43.83-3.98-2.36-2.55-1.51v-33.67c-.1-6.95-4.88-15.52-10.97-18.93l-3.63-2.16Z"/>
    <path id="path5157" class="cls-4" d="m313.54,428.88l.06.03v2.09l-5.49,3.13v-2.05l-.97-1.34.04.03v-75.04l-1.43.83-4.06-2.37-2.55-1.49v-33.67c.08-7.19-4.8-15.31-10.9-19.01l-3.71-2.09,23.32-13.55v.03s.08-.04.08-.04v.04s3.64,2.17,3.64,2.17c.58.32,1.15.7,1.69,1.1,5.32,3.93,9.16,11.49,9.29,17.84v33.69l-6.72,11.51.03.04-1.37.77.03.04v74.96l-.99,2.37h0Z"/>
    <path id="path5169" class="cls-4" d="m299.16,352.68v.03l-5.41-3.17v-33.77c-.21-3.77-2.32-7.39-5.49-9.43l-3.71-2.12v-6.3l3.71,2.09c6.09,3.7,10.97,11.82,10.9,19.01v33.66h0Z"/>
    <path id="path5171" class="cls-4" d="m252.87,379.44l-5.49-3.17v-33.69c-.23-3.78-2.28-7.47-5.49-9.51l-3.63-2.11v-6.31l3.63,2.16c6.09,3.41,10.87,11.98,10.97,18.93v33.69h0Z"/>
    <path id="path5173" class="cls-4" d="m206.5,406.22v.04l-5.49-3.17v-33.85c-.19-3.55-2.42-7.59-5.49-9.35l-3.63-2.19v-6.23l3.63,2.09c6.22,3.68,10.78,11.73,10.97,18.93v33.74h0Z"/>
    <path id="path5175" class="cls-4" d="m229.84,368.82v23.92l-6.72,11.51v.03s-1.33.72-1.33.72v.03s.01,75.04.01,75.04l-.99,2.29.06.03v2.16l-5.49,3.13v-2.12l-.89-1.26.04.03v-75.04l-1.43.75-4.06-2.33-2.55-1.47v-33.73c-.19-7.2-4.75-15.25-10.97-18.93l-3.63-2.09,23.25-13.55v.03s.08-.04.08-.04v.04s3.64,2.09,3.64,2.09c.58.35,1.15.73,1.7,1.16,5.25,4.02,9.25,11.49,9.27,17.85v9.77h0Z"/>
    <polygon id="polygon5177" class="cls-4" points="209.05 407.69 213.11 410.02 214.54 409.27 214.54 484.31 214.5 484.28 209.05 481.14 209.05 407.69"/>
    <polygon id="polygon5179" class="cls-4" points="215.39 487.67 215.35 487.68 209.98 484.54 209.98 482.38 215.39 485.55 215.39 487.67"/>
    <polygon id="polygon5181" class="cls-4" points="169.1 514.41 169.06 514.42 163.61 511.28 163.61 509.19 169.1 512.36 169.1 514.41"/>
    <polygon id="polygon5183" class="cls-4" points="162.68 434.47 166.74 436.83 168.17 436.01 168.17 511.05 168.13 511.02 162.68 507.88 162.68 434.47"/>
    <path id="path5185" class="cls-4" d="m145.53,378.21l23.25-13.55v.03s.08-.04.08-.04v.04s3.64,2.17,3.64,2.17c.58.31,1.15.68,1.7,1.08,5.24,3.88,9.27,11.66,9.27,17.85v33.69l-6.72,11.51.03.04-1.37.77.03.04v74.96l-.99,2.37.06.03v2.09l-5.41,3.13v-2.05l-.97-1.34.04.03v-75.04l-1.43.82-4.06-2.37-2.55-1.49v-33.67c-.18-7.28-4.73-15.24-10.97-19.01l-3.63-2.09h0Z"/>
    <path id="path5187" class="cls-4" d="m160.13,433l-5.49-3.17v-33.77c.14-3.35-2.67-7.77-5.49-9.43l-3.63-2.11v-6.31l3.63,2.09c6.25,3.78,10.79,11.73,10.97,19.01v33.69Z"/>
    <polygon id="polygon5189" class="cls-4" points="76.36 407.42 70.88 404.22 70.88 402.09 70.84 402.03 76.36 405.25 76.36 407.42"/>
    <polygon id="polygon5191" class="cls-4" points="30 434.16 24.51 430.96 24.51 428.9 24.47 428.85 30 432.07 30 434.16"/>
    <polygon id="polygon5193" class="cls-4" points="36.41 426.43 35.48 428.9 35.48 430.91 30 434.16 30 432.07 29.07 430.76 29.07 376.83 36.41 381.07 36.41 426.43"/>
    <polygon id="polygon5195" class="cls-4" points="29.07 376.83 29.07 430.76 23.58 427.56 23.58 373.66 29.07 376.83"/>
    <path id="path5199" class="cls-4" d="m308.09,284.17l23.43-13.41v6.26l-18,10.43h0c-.56-.4-1.12-.77-1.7-1.08l-3.71-2.16v-.04s-.01,0-.01,0Z"/>
    <path id="path5213" class="cls-4" d="m284.55,304.21l3.71,2.12c3.17,2.03,5.28,5.66,5.49,9.43v16.15l-17.54,10.08v-9.78c-.18-6.54-3.94-13.74-9.27-17.76h0s17.58-10.27,17.58-10.27l.04.02h0Z"/>
    <path id="path5215" class="cls-4" d="m284.51,304.2l-17.58,10.25h0c-.55-.42-1.12-.81-1.7-1.16l-3.63-2.09v-.04s22.95-13.25,22.95-13.25v6.26l-.04.02Z"/>
    <path id="path5217" class="cls-4" d="m238.26,330.96l3.63,2.11c3.21,2.03,5.25,5.73,5.49,9.51v16.15l-17.54,10.08v-9.78c-.03-6.36-4.02-13.83-9.27-17.85l17.66-10.25.04.02h0Z"/>
    <path id="path5219" class="cls-4" d="m238.22,330.94l-17.66,10.25c-.55-.43-1.12-.81-1.7-1.16l-3.63-2.09v-.04s23.03-13.25,23.03-13.25v6.26l-.04.02h0Z"/>
    <path id="path5221" class="cls-4" d="m191.89,357.7l3.63,2.19c3.07,1.76,5.29,5.8,5.49,9.35v16.23l-17.54,10.08v-9.78c0-6.2-4.03-13.98-9.27-17.85l17.66-10.25.04.02h0Z"/>
    <path id="path5223" class="cls-4" d="m191.86,357.68l-17.66,10.25c-.55-.4-1.12-.77-1.7-1.08l-3.63-2.17v-.04s23.03-13.17,23.03-13.17v6.18l-.04.02h0Z"/>
    <path id="path5225" class="cls-4" d="m145.53,384.52l3.63,2.11c2.82,1.66,5.63,6.08,5.49,9.43v16.15l-32.15,18.51v-32.88l22.99-13.34s.04.02.04.02Z"/>
    <polygon id="polygon5227" class="cls-4" points="122.5 397.76 122.5 391.5 122.5 391.46 145.53 378.21 145.53 384.47 145.49 384.49 122.5 397.84 122.5 397.76"/>
    <polygon id="polygon5229" class="cls-4" points="7.2 331.22 7.2 324.88 122.46 391.47 122.5 391.5 122.5 397.76 122.5 397.84 7.2 331.22"/>
    <polygon id="polygon5231" class="cls-4" points="7.2 331.22 122.5 397.84 122.5 430.72 122.46 430.73 79.13 405.73 75.45 403.61 36.41 381.07 29.07 376.83 23.58 373.66 19.41 371.25 7.2 331.22"/>
    <path id="path5233" class="cls-4" d="m90.49,321.63c-4.61-5.15-15.12-5.34-20.85-2.07l-10.03,5.82.9-6.83v-.04s9.13-5.29,9.13-5.29c5.82-2.9,12.49-2.9,18.31,0,3.93,2.48,4.77,5.63,2.54,8.41Z"/>
    <path id="path5235" class="cls-4" d="m90.49,321.63c-.62.75-1.44,1.47-2.5,2.15l-.04-.05-9.12,5.33-1,6.88-18.24-10.51v-.05s10.05-5.82,10.05-5.82c5.73-3.27,16.24-3.08,20.85,2.07Z"/>
    <polygon id="polygon5239" class="cls-4" points="122.5 391.46 122.46 391.47 7.2 324.88 16.86 293.28 60.48 318.52 60.51 318.55 59.61 325.38 59.59 325.43 77.83 335.94 78.84 329.06 122.46 354.3 122.5 354.33 122.5 391.42 122.5 391.46"/>
    <line id="line5243" class="cls-3" x1="7.2" y1="331.22" x2="122.5" y2="397.84"/>
    <polyline id="polyline5245" class="cls-3" points="19.41 371.25 23.58 373.66 29.07 376.83 36.41 381.07 75.45 403.61 79.13 405.73 122.46 430.73 122.5 430.76"/>
    <polyline id="polyline5247" class="cls-3" points="122.5 430.76 122.5 430.72 122.5 397.84"/>
    <path id="path5249" class="cls-3" d="m90.51,321.64h-.01c-4.61-5.17-15.12-5.36-20.85-2.09"/>
    <polyline id="polyline5251" class="cls-3" points="78.84 329.06 122.46 354.3 122.5 354.33"/>
    <polyline id="polyline5253" class="cls-3" points="122.5 391.42 122.5 354.33 122.5 354.29 122.5 354.25"/>
    <polyline id="polyline5255" class="cls-3" points="7.2 324.88 122.46 391.47 122.5 391.5"/>
    <polyline id="polyline5257" class="cls-3" points="16.86 293.28 60.48 318.52 60.51 318.55 60.52 318.55"/>
    <polyline id="polyline5263" class="cls-3" points="238.26 324.65 215.22 337.91 215.16 337.95"/>
    <polyline id="polyline5265" class="cls-3" points="191.89 351.47 168.85 364.65 168.79 364.68"/>
    <polyline id="polyline5267" class="cls-3" points="145.53 378.21 122.5 391.46 122.46 391.47 122.42 391.5"/>
    <path id="polyline5269" class="cls-3" d="m321.49,239.15l-198.99,115.14h-.04s-.04.04-.04.04"/>
    <path id="polyline5271" class="cls-3" d="m215.78,178.1L16.85,293.24l-.06.04"/>
    <polyline id="polyline5273" class="cls-3" points="122.5 397.84 122.5 397.76 122.5 391.5 122.5 391.46 122.5 391.42"/>
    <polyline id="polyline5275" class="cls-3" points="331.37 270.92 307.94 284.33 307.88 284.37"/>
    <line id="line5279" class="cls-3" x1="313.37" y1="287.61" x2="331.37" y2="277.18"/>
    <polyline id="polyline5281" class="cls-3" points="59.59 325.43 59.61 325.38 60.51 318.55 60.52 318.51 60.52 318.47"/>
    <polyline id="polyline5285" class="cls-3" points="331.37 270.92 331.37 277.18 331.37 277.26"/>
    <line id="line5289" class="cls-3" x1="69.64" y1="317.62" x2="69.64" y2="314.99"/>
    <line id="line5291" class="cls-3" x1="168.87" y1="364.68" x2="172.5" y2="366.85"/>
    <line id="line5293" class="cls-3" x1="145.53" y1="378.21" x2="149.16" y2="380.29"/>
    <path id="path5295" class="cls-3" d="m172.5,366.85c.58.31,1.15.68,1.7,1.08,5.24,3.88,9.27,11.66,9.27,17.85"/>
    <polyline id="polyline5297" class="cls-3" points="183.47 385.78 183.47 395.56 183.47 419.47"/>
    <path id="path5299" class="cls-3" d="m154.65,396.06c.14-3.35-2.67-7.77-5.49-9.43"/>
    <polyline id="polyline5301" class="cls-3" points="149.16 386.63 145.53 384.52 145.49 384.49 145.45 384.47"/>
    <path id="path5303" class="cls-3" d="m149.16,380.29c6.25,3.78,10.79,11.73,10.97,19.01"/>
    <polyline id="polyline5305" class="cls-3" points="160.13 399.3 160.13 432.97 160.13 433"/>
    <polyline id="polyline5307" class="cls-3" points="154.65 429.83 154.65 412.21 154.65 396.14 154.65 396.06"/>
    <polyline id="polyline5309" class="cls-3" points="162.68 507.88 168.13 511.02 168.17 511.05"/>
    <line id="line5311" class="cls-3" x1="163.61" y1="509.19" x2="169.1" y2="512.36"/>
    <polyline id="polyline5313" class="cls-3" points="163.61 511.28 169.06 514.42 169.1 514.45"/>
    <polyline id="polyline5315" class="cls-3" points="169.1 514.45 169.1 514.41 169.1 512.36 169.1 512.28"/>
    <polyline id="polyline5317" class="cls-3" points="168.17 511.05 168.17 436.01 168.17 435.93"/>
    <polyline id="polyline5319" class="cls-3" points="168.17 436.01 166.74 436.83 166.7 436.86"/>
    <polyline id="polyline5321" class="cls-3" points="166.78 436.86 166.74 436.83 162.68 434.47 160.13 432.97 160.06 432.92"/>
    <polyline id="polyline5323" class="cls-3" points="175.43 506.8 174.44 509.17 174.43 509.19"/>
    <line id="line5325" class="cls-3" x1="174.51" y1="509.19" x2="174.51" y2="511.28"/>
    <line id="line5327" class="cls-3" x1="175.43" y1="431.84" x2="175.43" y2="506.8"/>
    <line id="line5329" class="cls-3" x1="183.47" y1="419.47" x2="176.75" y2="430.99"/>
    <polyline id="polyline5331" class="cls-3" points="176.83 430.99 176.77 431.03 175.41 431.8 175.36 431.84"/>
    <polyline id="polyline5333" class="cls-3" points="284.55 297.92 261.59 311.17 261.52 311.21"/>
    <polyline id="polyline5337" class="cls-3" points="220.57 341.19 238.22 330.94 238.26 330.91"/>
    <polyline id="polyline5339" class="cls-3" points="266.93 314.45 284.51 304.2 284.55 304.17"/>
    <line id="line5347" class="cls-3" x1="78.84" y1="329.06" x2="77.83" y2="335.94"/>
    <polyline id="polyline5349" class="cls-3" points="174.2 367.93 191.86 357.68 191.89 357.65"/>
    <line id="line5351" class="cls-3" x1="16.86" y1="293.28" x2="7.2" y2="324.88"/>
    <polyline id="polyline5353" class="cls-3" points="122.5 397.84 145.49 384.49 145.53 384.47"/>
    <polyline id="polyline5355" class="cls-3" points="154.65 412.21 122.5 430.72 122.46 430.73 122.42 430.76"/>
    <polyline id="polyline5357" class="cls-3" points="201.01 385.47 183.47 395.56 183.39 395.59"/>
    <polyline id="polyline5359" class="cls-3" points="247.38 358.73 229.84 368.82 229.76 368.86"/>
    <polyline id="polyline5361" class="cls-3" points="293.75 331.92 276.21 342 276.13 342.04"/>
    <line id="line5369" class="cls-3" x1="59.59" y1="325.43" x2="77.83" y2="335.94"/>
    <line id="line5371" class="cls-3" x1="7.2" y1="324.88" x2="7.2" y2="331.22"/>
    <line id="line5373" class="cls-3" x1="7.2" y1="331.22" x2="19.41" y2="371.25"/>
    <path id="path5375" class="cls-3" d="m124.28,320.64c.7-9.79,24.1-9.85,25.73-.62.49,10.41-24.92,10.7-25.73.62Z"/>
    <polyline id="polyline5389" class="cls-3" points="284.55 297.92 307.88 284.37 307.97 284.31"/>
    <polyline id="polyline5391" class="cls-3" points="284.55 304.25 284.55 304.21 284.55 304.17 284.55 297.92 284.55 297.84"/>
    <polyline id="polyline5393" class="cls-3" points="238.26 324.65 261.51 311.18 261.6 311.13"/>
    <polyline id="polyline5395" class="cls-3" points="238.26 330.99 238.26 330.96 238.26 330.91 238.26 324.65 238.26 324.58"/>
    <polyline id="polyline5397" class="cls-3" points="191.89 351.47 215.14 337.92 215.23 337.87"/>
    <polyline id="polyline5399" class="cls-3" points="191.89 357.73 191.89 357.7 191.89 357.65 191.89 351.47 191.89 351.39"/>
    <polyline id="polyline5401" class="cls-3" points="145.53 378.21 168.78 364.66 168.87 364.61"/>
    <polyline id="polyline5403" class="cls-3" points="145.53 384.54 145.53 384.52 145.53 384.47 145.53 378.21 145.53 378.13"/>
    <line id="line5405" class="cls-3" x1="78.84" y1="329.06" x2="87.96" y2="323.73"/>
    <path id="path5407" class="cls-3" d="m87.96,323.8s.03-.01.04-.03c1.06-.68,1.88-1.4,2.5-2.15,2.23-2.78,1.39-5.93-2.54-8.41-5.82-2.9-12.49-2.9-18.31,0"/>
    <polyline id="polyline5409" class="cls-3" points="69.64 313.22 60.52 318.51 60.48 318.52 60.44 318.55"/>
    <polyline id="polyline5411" class="cls-3" points="69.64 319.55 59.61 325.38 59.52 325.43"/>
    <line id="line5413" class="cls-3" x1="167.48" y1="369.78" x2="154.11" y2="377.43"/>
    <polyline id="polyline5415" class="cls-3" points="174.51 511.28 169.1 514.41 169.06 514.42 169.02 514.45"/>
    <line id="line5417" class="cls-3" x1="178.37" y1="388.72" x2="165.08" y2="396.37"/>
    <line id="line5419" class="cls-3" x1="215.23" y1="337.95" x2="218.87" y2="340.03"/>
    <path id="path5421" class="cls-3" d="m218.87,340.03c.58.35,1.15.73,1.7,1.16,5.25,4.02,9.25,11.49,9.27,17.85"/>
    <line id="line5423" class="cls-3" x1="191.89" y1="351.47" x2="195.53" y2="353.56"/>
    <polyline id="polyline5425" class="cls-3" points="229.84 359.04 229.84 368.82 229.84 392.74"/>
    <path id="path5427" class="cls-3" d="m201.01,369.24c-.19-3.55-2.42-7.59-5.49-9.35"/>
    <polyline id="polyline5429" class="cls-3" points="195.53 359.89 191.89 357.7 191.86 357.68 191.82 357.65"/>
    <path id="path5431" class="cls-3" d="m195.53,353.56c6.22,3.68,10.78,11.73,10.97,18.93"/>
    <polyline id="polyline5433" class="cls-3" points="206.5 372.49 206.5 406.22 206.5 406.26"/>
    <polyline id="polyline5435" class="cls-3" points="201.01 403.09 201.01 385.47 201.01 369.32 201.01 369.24"/>
    <polyline id="polyline5437" class="cls-3" points="209.05 481.14 214.5 484.28 214.54 484.31"/>
    <line id="line5439" class="cls-3" x1="209.98" y1="482.38" x2="215.39" y2="485.55"/>
    <polyline id="polyline5441" class="cls-3" points="209.98 484.54 215.35 487.68 215.39 487.71"/>
    <polyline id="polyline5443" class="cls-3" points="215.39 487.71 215.39 487.67 215.39 485.55 215.39 485.47"/>
    <polyline id="polyline5445" class="cls-3" points="214.54 484.31 214.54 409.27 214.54 409.19"/>
    <polyline id="polyline5447" class="cls-3" points="214.54 409.27 213.11 410.02 213.07 410.05"/>
    <polyline id="polyline5449" class="cls-3" points="213.15 410.05 213.11 410.02 209.05 407.69 206.5 406.22 206.42 406.18"/>
    <polyline id="polyline5451" class="cls-3" points="221.8 480.06 220.81 482.35 220.8 482.38"/>
    <line id="line5453" class="cls-3" x1="220.87" y1="482.38" x2="220.87" y2="484.54"/>
    <line id="line5455" class="cls-3" x1="221.8" y1="405.02" x2="221.8" y2="480.06"/>
    <line id="line5457" class="cls-3" x1="229.84" y1="392.74" x2="223.12" y2="404.25"/>
    <polyline id="polyline5459" class="cls-3" points="223.19 404.25 223.13 404.28 221.79 405 221.72 405.02"/>
    <polyline id="polyline5461" class="cls-3" points="169.1 512.36 168.13 511.02 168.09 510.97"/>
    <polyline id="polyline5463" class="cls-3" points="162.68 507.88 162.68 434.47 162.68 434.39"/>
    <polyline id="polyline5465" class="cls-3" points="163.61 509.19 162.67 507.89 162.61 507.8"/>
    <polyline id="polyline5467" class="cls-3" points="163.61 511.28 163.61 509.19 163.61 509.11"/>
    <line id="line5469" class="cls-3" x1="154.65" y1="429.83" x2="160.13" y2="433"/>
    <line id="line5471" class="cls-3" x1="213.76" y1="342.97" x2="200.47" y2="350.62"/>
    <line id="line5473" class="cls-3" x1="201.01" y1="403.09" x2="206.5" y2="406.26"/>
    <polyline id="polyline5475" class="cls-3" points="220.87 484.54 215.39 487.67 215.35 487.68 215.31 487.71"/>
    <line id="line5477" class="cls-3" x1="224.74" y1="361.98" x2="211.45" y2="369.63"/>
    <line id="line5479" class="cls-3" x1="261.6" y1="311.21" x2="265.23" y2="313.29"/>
    <path id="path5481" class="cls-3" d="m265.23,313.29c.58.35,1.15.73,1.7,1.17,5.33,4.02,9.09,11.22,9.27,17.76"/>
    <line id="line5483" class="cls-3" x1="238.26" y1="324.65" x2="241.89" y2="326.82"/>
    <polyline id="polyline5485" class="cls-3" points="276.21 332.23 276.21 342 276.21 366"/>
    <path id="path5487" class="cls-3" d="m247.38,342.58c-.23-3.78-2.28-7.47-5.49-9.51"/>
    <polyline id="polyline5489" class="cls-3" points="241.89 333.08 238.26 330.96 238.22 330.94 238.18 330.91"/>
    <path id="path5491" class="cls-3" d="m241.89,326.82c6.09,3.41,10.87,11.98,10.97,18.93"/>
    <polyline id="polyline5493" class="cls-3" points="252.87 345.75 252.87 379.42 252.87 379.44"/>
    <polyline id="polyline5495" class="cls-3" points="247.38 376.28 247.38 358.73 247.38 342.58 247.38 342.51"/>
    <polyline id="polyline5497" class="cls-3" points="255.42 454.32 260.79 457.47 260.83 457.49"/>
    <line id="line5499" class="cls-3" x1="256.27" y1="455.64" x2="261.75" y2="458.81"/>
    <polyline id="polyline5501" class="cls-3" points="256.27 457.73 261.72 460.87 261.75 460.89"/>
    <polyline id="polyline5503" class="cls-3" points="261.75 460.89 261.75 460.86 261.75 458.81 261.75 458.73"/>
    <polyline id="polyline5505" class="cls-3" points="260.83 457.49 260.83 382.46 260.83 382.38"/>
    <polyline id="polyline5507" class="cls-3" points="260.83 382.46 259.4 383.28 259.36 383.31"/>
    <polyline id="polyline5509" class="cls-3" points="259.44 383.31 259.4 383.28 255.42 380.92 252.87 379.42 252.79 379.37"/>
    <polyline id="polyline5511" class="cls-3" points="268.17 453.32 267.18 455.61 267.16 455.64"/>
    <line id="line5513" class="cls-3" x1="267.24" y1="455.64" x2="267.24" y2="457.73"/>
    <line id="line5515" class="cls-3" x1="268.17" y1="378.28" x2="268.17" y2="453.32"/>
    <line id="line5517" class="cls-3" x1="276.21" y1="366" x2="269.48" y2="377.51"/>
    <polyline id="polyline5519" class="cls-3" points="269.56 377.51 269.5 377.54 268.16 378.26 268.09 378.28"/>
    <polyline id="polyline5521" class="cls-3" points="215.39 485.55 214.5 484.28 214.46 484.23"/>
    <polyline id="polyline5523" class="cls-3" points="209.05 481.14 209.05 407.69 209.05 407.65"/>
    <polyline id="polyline5525" class="cls-3" points="209.98 482.38 209.04 481.15 208.97 481.06"/>
    <polyline id="polyline5527" class="cls-3" points="209.98 484.54 209.98 482.38 209.98 482.3"/>
    <line id="line5529" class="cls-3" x1="260.13" y1="316.23" x2="246.84" y2="323.88"/>
    <line id="line5531" class="cls-3" x1="247.38" y1="376.28" x2="252.87" y2="379.44"/>
    <polyline id="polyline5533" class="cls-3" points="267.24 457.73 261.75 460.86 261.72 460.87 261.68 460.89"/>
    <line id="line5535" class="cls-3" x1="271.11" y1="335.16" x2="257.74" y2="342.81"/>
    <line id="line5537" class="cls-3" x1="307.97" y1="284.39" x2="311.6" y2="286.56"/>
    <path id="path5539" class="cls-3" d="m311.6,286.56c.58.32,1.15.7,1.69,1.1,5.32,3.93,9.16,11.49,9.29,17.84"/>
    <line id="line5541" class="cls-3" x1="284.55" y1="297.92" x2="288.26" y2="300"/>
    <polyline id="polyline5543" class="cls-3" points="322.57 305.49 322.57 315.26 322.57 339.18"/>
    <path id="path5545" class="cls-3" d="m293.75,315.77c-.21-3.77-2.32-7.39-5.49-9.43"/>
    <polyline id="polyline5547" class="cls-3" points="288.26 306.34 284.55 304.21 284.51 304.2 284.47 304.17"/>
    <path id="path5549" class="cls-3" d="m288.26,300c6.09,3.7,10.97,11.82,10.9,19.01"/>
    <polyline id="polyline5551" class="cls-3" points="299.16 319.01 299.16 352.68 299.16 352.71"/>
    <polyline id="polyline5553" class="cls-3" points="293.75 349.54 293.75 331.92 293.75 315.84 293.75 315.77"/>
    <polyline id="polyline5555" class="cls-3" points="301.71 427.59 307.16 430.73 307.19 430.76"/>
    <line id="line5557" class="cls-3" x1="302.63" y1="428.9" x2="308.12" y2="432.07"/>
    <polyline id="polyline5559" class="cls-3" points="302.63 430.99 308.08 434.13 308.12 434.16"/>
    <polyline id="polyline5561" class="cls-3" points="308.12 434.16 308.12 434.12 308.12 432.07 308.12 431.99"/>
    <polyline id="polyline5563" class="cls-3" points="307.19 430.76 307.19 355.72 307.19 355.64"/>
    <polyline id="polyline5565" class="cls-3" points="307.19 355.72 305.76 356.54 305.73 356.57"/>
    <polyline id="polyline5567" class="cls-3" points="305.8 356.57 305.76 356.54 301.71 354.17 299.16 352.68 299.08 352.63"/>
    <polyline id="polyline5569" class="cls-3" points="314.54 426.51 313.54 428.88 313.53 428.9"/>
    <line id="line5571" class="cls-3" x1="313.61" y1="428.9" x2="313.61" y2="430.99"/>
    <line id="line5573" class="cls-3" x1="314.54" y1="351.55" x2="314.54" y2="426.51"/>
    <line id="line5575" class="cls-3" x1="322.57" y1="339.18" x2="315.85" y2="350.7"/>
    <polyline id="polyline5577" class="cls-3" points="315.93 350.7 315.88 350.74 314.51 351.51 314.46 351.55"/>
    <polyline id="polyline5579" class="cls-3" points="261.75 458.81 260.79 457.47 260.75 457.42"/>
    <polyline id="polyline5581" class="cls-3" points="255.42 454.32 255.42 380.92 255.42 380.83"/>
    <polyline id="polyline5583" class="cls-3" points="256.27 455.64 255.4 454.34 255.34 454.25"/>
    <polyline id="polyline5585" class="cls-3" points="256.27 457.73 256.27 455.64 256.27 455.56"/>
    <line id="line5587" class="cls-3" x1="306.5" y1="289.49" x2="293.21" y2="297.14"/>
    <line id="line5589" class="cls-3" x1="293.75" y1="349.54" x2="299.16" y2="352.71"/>
    <polyline id="polyline5591" class="cls-3" points="313.61 430.99 308.12 434.12 308.08 434.13 308.04 434.16"/>
    <line id="line5593" class="cls-3" x1="317.47" y1="308.43" x2="304.1" y2="316.08"/>
    <polyline id="polyline5637" class="cls-3" points="308.12 432.07 307.16 430.73 307.12 430.68"/>
    <polyline id="polyline5639" class="cls-3" points="301.71 427.59 301.71 354.17 301.71 354.1"/>
    <polyline id="polyline5641" class="cls-3" points="302.63 428.9 301.69 427.6 301.63 427.51"/>
    <polyline id="polyline5643" class="cls-3" points="302.63 430.99 302.63 428.9 302.63 428.82"/>
    <line id="line5769" class="cls-3" x1="75.44" y1="403.63" x2="75.44" y2="404.02"/>
    <line id="line5771" class="cls-3" x1="75.44" y1="404.02" x2="76.36" y2="405.25"/>
    <line id="line5773" class="cls-3" x1="76.36" y1="405.25" x2="76.36" y2="407.42"/>
    <polyline id="polyline5775" class="cls-3" points="76.36 407.42 79.13 405.73 79.15 405.72"/>
    <polyline id="polyline5777" class="cls-3" points="75.44 404.02 69.95 400.82 69.87 400.77"/>
    <polyline id="polyline5779" class="cls-3" points="76.36 405.25 70.84 402.03 70.8 402.01"/>
    <polyline id="polyline5781" class="cls-3" points="69.95 400.85 70.84 402.03 70.88 402.09"/>
    <polyline id="polyline5783" class="cls-3" points="76.36 407.42 70.88 404.22 70.8 404.17"/>
    <polyline id="polyline5785" class="cls-3" points="70.88 402.09 70.88 404.22 70.88 404.25"/>
    <polyline id="polyline5787" class="cls-3" points="69.95 400.46 69.95 400.82 69.95 400.85"/>
    <polyline id="polyline5789" class="cls-3" points="29.07 376.82 29.07 376.83 29.07 430.76"/>
    <line id="line5791" class="cls-3" x1="29.07" y1="430.76" x2="30" y2="432.07"/>
    <polyline id="polyline5793" class="cls-3" points="36.41 426.51 36.41 426.43 36.41 381.07 36.41 380.99"/>
    <line id="line5795" class="cls-3" x1="35.48" y1="428.9" x2="36.41" y2="426.43"/>
    <polyline id="polyline5797" class="cls-3" points="35.48 430.99 35.48 430.91 35.48 428.9 35.48 428.82"/>
    <line id="line5799" class="cls-3" x1="30" y1="432.07" x2="30" y2="434.16"/>
    <line id="line5801" class="cls-3" x1="30" y1="434.16" x2="35.48" y2="430.91"/>
    <polyline id="polyline5803" class="cls-3" points="29.07 430.76 23.58 427.56 23.51 427.51"/>
    <polyline id="polyline5805" class="cls-3" points="30 432.07 24.47 428.85 24.43 428.82"/>
    <polyline id="polyline5807" class="cls-3" points="23.58 427.59 24.47 428.85 24.51 428.9"/>
    <polyline id="polyline5809" class="cls-3" points="30 434.16 24.51 430.96 24.43 430.91"/>
    <polyline id="polyline5811" class="cls-3" points="24.51 428.9 24.51 430.96 24.51 430.99"/>
    <polyline id="polyline5813" class="cls-3" points="23.58 373.65 23.58 373.66 23.58 427.56 23.58 427.59"/>
  </g>
  <g id="Ebene_3" data-name="Ebene 3">
    <polyline id="polyline5263-2" data-name="polyline5263" class="cls-3" points="377.36 244.37 354.32 257.62 354.26 257.66"/>
    <polyline id="polyline5265-2" data-name="polyline5265" class="cls-3" points="331 271.18 307.96 284.36 307.89 284.4"/>
    <polyline id="polyline5267-2" data-name="polyline5267" class="cls-3" points="284.63 297.92 261.6 311.17 261.56 311.19 261.52 311.21"/>
    <path id="polyline5269-2" data-name="polyline5269" class="cls-3" d="m460.6,158.87l-198.99,115.14h-.04s-.04.04-.04.04"/>
    <path id="polyline5271-2" data-name="polyline5271" class="cls-3" d="m354.88,97.82l-198.93,115.14-.06.04"/>
    <polyline id="polyline5275-2" data-name="polyline5275" class="cls-3" points="470.47 190.63 447.05 204.04 446.98 204.08"/>
    <line id="line5279-2" data-name="line5279" class="cls-3" x1="452.47" y1="207.33" x2="470.47" y2="196.89"/>
    <line id="line5283" class="cls-3" x1="354.88" y1="97.82" x2="460.6" y2="158.87"/>
    <polyline id="polyline5285-2" data-name="polyline5285" class="cls-3" points="470.47 190.63 470.47 196.89 470.47 196.97"/>
    <line id="line5287" class="cls-3" x1="460.81" y1="159.03" x2="470.47" y2="190.63"/>
    <line id="line5291-2" data-name="line5291" class="cls-3" x1="307.97" y1="284.4" x2="311.6" y2="286.56"/>
    <line id="line5293-2" data-name="line5293" class="cls-3" x1="284.63" y1="297.92" x2="288.26" y2="300.01"/>
    <path id="path5295-2" data-name="path5295" class="cls-3" d="m311.6,286.56c.58.31,1.15.68,1.7,1.08,5.24,3.88,9.27,11.66,9.27,17.85"/>
    <polyline id="polyline5297-2" data-name="polyline5297" class="cls-3" points="322.57 305.49 322.57 315.27 322.57 339.19"/>
    <path id="path5299-2" data-name="path5299" class="cls-3" d="m293.75,315.77c.14-3.35-2.67-7.77-5.49-9.43"/>
    <polyline id="polyline5301-2" data-name="polyline5301" class="cls-3" points="288.26 306.34 284.63 304.23 284.59 304.21 284.55 304.18"/>
    <path id="path5303-2" data-name="path5303" class="cls-3" d="m288.26,300.01c6.25,3.78,10.79,11.73,10.97,19.01"/>
    <polyline id="polyline5305-2" data-name="polyline5305" class="cls-3" points="299.24 319.02 299.24 352.68 299.24 352.71"/>
    <polyline id="polyline5307-2" data-name="polyline5307" class="cls-3" points="293.75 349.54 293.75 331.92 293.75 315.85 293.75 315.77"/>
    <polyline id="polyline5309-2" data-name="polyline5309" class="cls-3" points="301.79 427.59 307.23 430.74 307.27 430.76"/>
    <line id="line5311-2" data-name="line5311" class="cls-3" x1="302.71" y1="428.91" x2="308.2" y2="432.08"/>
    <polyline id="polyline5313-2" data-name="polyline5313" class="cls-3" points="302.71 430.99 308.16 434.14 308.2 434.16"/>
    <polyline id="polyline5315-2" data-name="polyline5315" class="cls-3" points="308.2 434.16 308.2 434.12 308.2 432.08 308.2 432"/>
    <polyline id="polyline5317-2" data-name="polyline5317" class="cls-3" points="307.27 430.76 307.27 355.72 307.27 355.65"/>
    <polyline id="polyline5319-2" data-name="polyline5319" class="cls-3" points="307.27 355.72 305.84 356.55 305.8 356.57"/>
    <polyline id="polyline5321-2" data-name="polyline5321" class="cls-3" points="305.88 356.57 305.84 356.55 301.79 354.18 299.24 352.68 299.16 352.63"/>
    <polyline id="polyline5323-2" data-name="polyline5323" class="cls-3" points="314.54 426.51 313.55 428.88 313.53 428.91"/>
    <line id="line5325-2" data-name="line5325" class="cls-3" x1="313.61" y1="428.91" x2="313.61" y2="430.99"/>
    <line id="line5327-2" data-name="line5327" class="cls-3" x1="314.54" y1="351.55" x2="314.54" y2="426.51"/>
    <line id="line5329-2" data-name="line5329" class="cls-3" x1="322.57" y1="339.19" x2="315.85" y2="350.7"/>
    <polyline id="polyline5331-2" data-name="polyline5331" class="cls-3" points="315.93 350.7 315.88 350.74 314.51 351.51 314.46 351.55"/>
    <polyline id="polyline5333-2" data-name="polyline5333" class="cls-3" points="423.65 217.63 400.69 230.88 400.62 230.92"/>
    <polyline id="polyline5337-2" data-name="polyline5337" class="cls-3" points="359.67 260.9 377.33 250.65 377.36 250.63"/>
    <polyline id="polyline5339-2" data-name="polyline5339" class="cls-3" points="406.03 234.17 423.62 223.91 423.65 223.89"/>
    <polyline id="polyline5349-2" data-name="polyline5349" class="cls-3" points="313.3 287.64 330.96 277.39 331 277.37"/>
    <polyline id="polyline5357-2" data-name="polyline5357" class="cls-3" points="340.12 305.18 322.57 315.27 322.5 315.31"/>
    <polyline id="polyline5359-2" data-name="polyline5359" class="cls-3" points="386.48 278.45 368.94 288.53 368.86 288.57"/>
    <polyline id="polyline5361-2" data-name="polyline5361" class="cls-3" points="432.85 251.63 415.31 261.72 415.23 261.76"/>
    <line id="line5377" class="cls-3" x1="461.66" y1="225.64" x2="470.47" y2="196.89"/>
    <polyline id="polyline5389-2" data-name="polyline5389" class="cls-3" points="423.65 217.63 446.98 204.08 447.07 204.03"/>
    <polyline id="polyline5391-2" data-name="polyline5391" class="cls-3" points="423.65 223.97 423.65 223.93 423.65 223.89 423.65 217.63 423.65 217.55"/>
    <polyline id="polyline5393-2" data-name="polyline5393" class="cls-3" points="377.36 244.37 400.61 230.9 400.7 230.84"/>
    <polyline id="polyline5395-2" data-name="polyline5395" class="cls-3" points="377.36 250.7 377.36 250.68 377.36 250.63 377.36 244.37 377.36 244.29"/>
    <polyline id="polyline5397-2" data-name="polyline5397" class="cls-3" points="331 271.18 354.24 257.63 354.34 257.58"/>
    <polyline id="polyline5399-2" data-name="polyline5399" class="cls-3" points="331 277.44 331 277.42 331 277.37 331 271.18 331 271.11"/>
    <polyline id="polyline5401-2" data-name="polyline5401" class="cls-3" points="284.63 297.92 307.88 284.37 307.97 284.32"/>
    <polyline id="polyline5403-2" data-name="polyline5403" class="cls-3" points="284.63 304.26 284.63 304.23 284.63 304.18 284.63 297.92 284.63 297.84"/>
    <line id="line5413-2" data-name="line5413" class="cls-3" x1="306.58" y1="289.5" x2="293.21" y2="297.15"/>
    <polyline id="polyline5415-2" data-name="polyline5415" class="cls-3" points="313.61 430.99 308.2 434.12 308.16 434.14 308.12 434.16"/>
    <line id="line5417-2" data-name="line5417" class="cls-3" x1="317.47" y1="308.43" x2="304.18" y2="316.08"/>
    <line id="line5419-2" data-name="line5419" class="cls-3" x1="354.34" y1="257.66" x2="357.97" y2="259.75"/>
    <path id="path5421-2" data-name="path5421" class="cls-3" d="m357.97,259.75c.58.35,1.15.73,1.7,1.16,5.25,4.02,9.25,11.49,9.27,17.85"/>
    <line id="line5423-2" data-name="line5423" class="cls-3" x1="331" y1="271.18" x2="334.63" y2="273.27"/>
    <polyline id="polyline5425-2" data-name="polyline5425" class="cls-3" points="368.94 278.76 368.94 288.53 368.94 312.45"/>
    <path id="path5427-2" data-name="path5427" class="cls-3" d="m340.12,288.96c-.19-3.55-2.42-7.59-5.49-9.35"/>
    <polyline id="polyline5429-2" data-name="polyline5429" class="cls-3" points="334.63 279.61 331 277.42 330.96 277.39 330.92 277.37"/>
    <path id="path5431-2" data-name="path5431" class="cls-3" d="m334.63,273.27c6.22,3.68,10.78,11.73,10.97,18.93"/>
    <polyline id="polyline5433-2" data-name="polyline5433" class="cls-3" points="345.6 292.2 345.6 325.93 345.6 325.97"/>
    <polyline id="polyline5435-2" data-name="polyline5435" class="cls-3" points="340.12 322.8 340.12 305.18 340.12 289.03 340.12 288.96"/>
    <polyline id="polyline5437-2" data-name="polyline5437" class="cls-3" points="348.15 400.85 353.6 404 353.64 404.02"/>
    <line id="line5439-2" data-name="line5439" class="cls-3" x1="349.08" y1="402.09" x2="354.49" y2="405.26"/>
    <polyline id="polyline5441-2" data-name="polyline5441" class="cls-3" points="349.08 404.25 354.45 407.4 354.49 407.42"/>
    <polyline id="polyline5443-2" data-name="polyline5443" class="cls-3" points="354.49 407.42 354.49 407.38 354.49 405.26 354.49 405.18"/>
    <polyline id="polyline5445-2" data-name="polyline5445" class="cls-3" points="353.64 404.02 353.64 328.99 353.64 328.91"/>
    <polyline id="polyline5447-2" data-name="polyline5447" class="cls-3" points="353.64 328.99 352.21 329.73 352.17 329.76"/>
    <polyline id="polyline5449-2" data-name="polyline5449" class="cls-3" points="352.25 329.76 352.21 329.73 348.15 327.4 345.6 325.93 345.53 325.9"/>
    <polyline id="polyline5451-2" data-name="polyline5451" class="cls-3" points="360.9 399.77 359.91 402.07 359.9 402.09"/>
    <line id="line5453-2" data-name="line5453" class="cls-3" x1="359.98" y1="402.09" x2="359.98" y2="404.25"/>
    <line id="line5455-2" data-name="line5455" class="cls-3" x1="360.9" y1="324.74" x2="360.9" y2="399.77"/>
    <line id="line5457-2" data-name="line5457" class="cls-3" x1="368.94" y1="312.45" x2="362.22" y2="323.96"/>
    <polyline id="polyline5459-2" data-name="polyline5459" class="cls-3" points="362.29 323.96 362.23 323.99 360.89 324.71 360.83 324.74"/>
    <polyline id="polyline5461-2" data-name="polyline5461" class="cls-3" points="308.2 432.08 307.23 430.74 307.2 430.68"/>
    <polyline id="polyline5463-2" data-name="polyline5463" class="cls-3" points="301.79 427.59 301.79 354.18 301.79 354.1"/>
    <polyline id="polyline5465-2" data-name="polyline5465" class="cls-3" points="302.71 428.91 301.77 427.61 301.71 427.52"/>
    <polyline id="polyline5467-2" data-name="polyline5467" class="cls-3" points="302.71 430.99 302.71 428.91 302.71 428.83"/>
    <line id="line5469-2" data-name="line5469" class="cls-3" x1="293.75" y1="349.54" x2="299.24" y2="352.71"/>
    <line id="line5471-2" data-name="line5471" class="cls-3" x1="352.87" y1="262.68" x2="339.58" y2="270.33"/>
    <line id="line5473-2" data-name="line5473" class="cls-3" x1="340.12" y1="322.8" x2="345.6" y2="325.97"/>
    <polyline id="polyline5475-2" data-name="polyline5475" class="cls-3" points="359.98 404.25 354.49 407.38 354.45 407.4 354.41 407.42"/>
    <line id="line5477-2" data-name="line5477" class="cls-3" x1="363.84" y1="281.69" x2="350.55" y2="289.34"/>
    <line id="line5479-2" data-name="line5479" class="cls-3" x1="400.7" y1="230.92" x2="404.33" y2="233.01"/>
    <path id="path5481-2" data-name="path5481" class="cls-3" d="m404.33,233.01c.58.35,1.15.73,1.7,1.17,5.33,4.02,9.09,11.22,9.27,17.76"/>
    <line id="line5483-2" data-name="line5483" class="cls-3" x1="377.36" y1="244.37" x2="381" y2="246.53"/>
    <polyline id="polyline5485-2" data-name="polyline5485" class="cls-3" points="415.31 251.94 415.31 261.72 415.31 285.71"/>
    <path id="path5487-2" data-name="path5487" class="cls-3" d="m386.48,262.3c-.23-3.78-2.28-7.47-5.49-9.51"/>
    <polyline id="polyline5489-2" data-name="polyline5489" class="cls-3" points="381 252.79 377.36 250.68 377.33 250.65 377.29 250.63"/>
    <path id="path5491-2" data-name="path5491" class="cls-3" d="m381,246.53c6.09,3.41,10.87,11.98,10.97,18.93"/>
    <polyline id="polyline5493-2" data-name="polyline5493" class="cls-3" points="391.97 265.46 391.97 299.13 391.97 299.16"/>
    <polyline id="polyline5495-2" data-name="polyline5495" class="cls-3" points="386.48 295.99 386.48 278.45 386.48 262.3 386.48 262.22"/>
    <polyline id="polyline5497-2" data-name="polyline5497" class="cls-3" points="394.52 374.04 399.89 377.18 399.93 377.21"/>
    <line id="line5499-2" data-name="line5499" class="cls-3" x1="395.37" y1="375.35" x2="400.86" y2="378.52"/>
    <polyline id="polyline5501-2" data-name="polyline5501" class="cls-3" points="395.37 377.44 400.82 380.58 400.86 380.61"/>
    <polyline id="polyline5503-2" data-name="polyline5503" class="cls-3" points="400.86 380.61 400.86 380.57 400.86 378.52 400.86 378.44"/>
    <polyline id="polyline5505-2" data-name="polyline5505" class="cls-3" points="399.93 377.21 399.93 302.17 399.93 302.09"/>
    <polyline id="polyline5507-2" data-name="polyline5507" class="cls-3" points="399.93 302.17 398.5 303 398.46 303.02"/>
    <polyline id="polyline5509-2" data-name="polyline5509" class="cls-3" points="398.54 303.02 398.5 303 394.52 300.64 391.97 299.13 391.89 299.08"/>
    <polyline id="polyline5511-2" data-name="polyline5511" class="cls-3" points="407.27 373.03 406.28 375.33 406.27 375.35"/>
    <line id="line5513-2" data-name="line5513" class="cls-3" x1="406.34" y1="375.35" x2="406.34" y2="377.44"/>
    <line id="line5515-2" data-name="line5515" class="cls-3" x1="407.27" y1="298" x2="407.27" y2="373.03"/>
    <line id="line5517-2" data-name="line5517" class="cls-3" x1="415.31" y1="285.71" x2="408.58" y2="297.23"/>
    <polyline id="polyline5519-2" data-name="polyline5519" class="cls-3" points="408.66 297.23 408.6 297.25 407.26 297.97 407.19 298"/>
    <polyline id="polyline5521-2" data-name="polyline5521" class="cls-3" points="354.49 405.26 353.6 404 353.56 403.95"/>
    <polyline id="polyline5523-2" data-name="polyline5523" class="cls-3" points="348.15 400.85 348.15 327.4 348.15 327.36"/>
    <polyline id="polyline5525-2" data-name="polyline5525" class="cls-3" points="349.08 402.09 348.14 400.87 348.08 400.78"/>
    <polyline id="polyline5527-2" data-name="polyline5527" class="cls-3" points="349.08 404.25 349.08 402.09 349.08 402.01"/>
    <line id="line5529-2" data-name="line5529" class="cls-3" x1="399.23" y1="235.94" x2="385.94" y2="243.59"/>
    <line id="line5531-2" data-name="line5531" class="cls-3" x1="386.48" y1="295.99" x2="391.97" y2="299.16"/>
    <polyline id="polyline5533-2" data-name="polyline5533" class="cls-3" points="406.34 377.44 400.86 380.57 400.82 380.58 400.78 380.61"/>
    <line id="line5535-2" data-name="line5535" class="cls-3" x1="410.21" y1="254.88" x2="396.84" y2="262.53"/>
    <line id="line5537-2" data-name="line5537" class="cls-3" x1="447.07" y1="204.11" x2="450.7" y2="206.27"/>
    <path id="path5539-2" data-name="path5539" class="cls-3" d="m450.7,206.27c.58.32,1.15.7,1.69,1.1,5.32,3.93,9.16,11.49,9.29,17.84"/>
    <line id="line5541-2" data-name="line5541" class="cls-3" x1="423.65" y1="217.63" x2="427.36" y2="219.72"/>
    <polyline id="polyline5543-2" data-name="polyline5543" class="cls-3" points="461.67 225.2 461.67 234.98 461.67 258.9"/>
    <path id="path5545-2" data-name="path5545" class="cls-3" d="m432.85,235.48c-.21-3.77-2.32-7.39-5.49-9.43"/>
    <polyline id="polyline5547-2" data-name="polyline5547" class="cls-3" points="427.36 226.05 423.65 223.93 423.62 223.91 423.58 223.89"/>
    <path id="path5549-2" data-name="path5549" class="cls-3" d="m427.36,219.72c6.09,3.7,10.97,11.82,10.9,19.01"/>
    <polyline id="polyline5551-2" data-name="polyline5551" class="cls-3" points="438.26 238.73 438.26 272.39 438.26 272.42"/>
    <polyline id="polyline5553-2" data-name="polyline5553" class="cls-3" points="432.85 269.25 432.85 251.63 432.85 235.56 432.85 235.48"/>
    <polyline id="polyline5555-2" data-name="polyline5555" class="cls-3" points="440.81 347.3 446.26 350.44 446.3 350.47"/>
    <line id="line5557-2" data-name="line5557" class="cls-3" x1="441.74" y1="348.62" x2="447.22" y2="351.78"/>
    <polyline id="polyline5559-2" data-name="polyline5559" class="cls-3" points="441.74 350.7 447.18 353.84 447.22 353.87"/>
    <polyline id="polyline5561-2" data-name="polyline5561" class="cls-3" points="447.22 353.87 447.22 353.83 447.22 351.78 447.22 351.71"/>
    <polyline id="polyline5563-2" data-name="polyline5563" class="cls-3" points="446.3 350.47 446.3 275.43 446.3 275.36"/>
    <polyline id="polyline5565-2" data-name="polyline5565" class="cls-3" points="446.3 275.43 444.87 276.26 444.83 276.28"/>
    <polyline id="polyline5567-2" data-name="polyline5567" class="cls-3" points="444.91 276.28 444.87 276.26 440.81 273.89 438.26 272.39 438.18 272.34"/>
    <polyline id="polyline5569-2" data-name="polyline5569" class="cls-3" points="453.64 346.22 452.65 348.59 452.63 348.62"/>
    <line id="line5571-2" data-name="line5571" class="cls-3" x1="452.71" y1="348.62" x2="452.71" y2="350.7"/>
    <line id="line5573-2" data-name="line5573" class="cls-3" x1="453.64" y1="271.26" x2="453.64" y2="346.22"/>
    <line id="line5575-2" data-name="line5575" class="cls-3" x1="461.67" y1="258.9" x2="454.95" y2="270.41"/>
    <polyline id="polyline5577-2" data-name="polyline5577" class="cls-3" points="455.03 270.41 454.98 270.45 453.61 271.22 453.56 271.26"/>
    <polyline id="polyline5579-2" data-name="polyline5579" class="cls-3" points="400.86 378.52 399.89 377.18 399.85 377.13"/>
    <polyline id="polyline5581-2" data-name="polyline5581" class="cls-3" points="394.52 374.04 394.52 300.64 394.52 300.55"/>
    <polyline id="polyline5583-2" data-name="polyline5583" class="cls-3" points="395.37 375.35 394.51 374.05 394.44 373.96"/>
    <polyline id="polyline5585-2" data-name="polyline5585" class="cls-3" points="395.37 377.44 395.37 375.35 395.37 375.27"/>
    <line id="line5587-2" data-name="line5587" class="cls-3" x1="445.6" y1="209.21" x2="432.31" y2="216.86"/>
    <line id="line5589-2" data-name="line5589" class="cls-3" x1="432.85" y1="269.25" x2="438.26" y2="272.42"/>
    <polyline id="polyline5591-2" data-name="polyline5591" class="cls-3" points="452.71 350.7 447.22 353.83 447.18 353.84 447.15 353.87"/>
    <line id="line5593-2" data-name="line5593" class="cls-3" x1="456.57" y1="228.14" x2="443.21" y2="235.79"/>
    <polyline id="polyline5637-2" data-name="polyline5637" class="cls-3" points="447.22 351.78 446.26 350.44 446.22 350.39"/>
    <polyline id="polyline5639-2" data-name="polyline5639" class="cls-3" points="440.81 347.3 440.81 273.89 440.81 273.81"/>
    <polyline id="polyline5641-2" data-name="polyline5641" class="cls-3" points="441.74 348.62 440.8 347.31 440.73 347.22"/>
    <polyline id="polyline5643-2" data-name="polyline5643" class="cls-3" points="441.74 350.7 441.74 348.62 441.74 348.54"/>
    <g>
      <line class="cls-2" x1="583.2" y1="118.08" x2="583.2" y2="161.28"/>
      <line class="cls-2" x1="594" y1="128.88" x2="594" y2="150.48"/>
      <line class="cls-2" x1="594" y1="157.68" x2="594" y2="172.08"/>
      <line class="cls-2" x1="594" y1="107.28" x2="594" y2="121.68"/>
      <line class="cls-2" x1="583.2" y1="139.68" x2="568.8" y2="139.68"/>
      <line class="cls-2" x1="608.4" y1="164.88" x2="594" y2="164.88"/>
      <line class="cls-2" x1="608.4" y1="114.48" x2="594" y2="114.48"/>
    </g>
    <g>
      <line class="cls-2" x1="583.2" y1="226.08" x2="583.2" y2="269.28"/>
      <line class="cls-2" x1="594" y1="236.88" x2="594" y2="258.48"/>
      <line class="cls-2" x1="594" y1="265.68" x2="594" y2="280.08"/>
      <line class="cls-2" x1="594" y1="215.28" x2="594" y2="229.68"/>
      <line class="cls-2" x1="583.2" y1="247.68" x2="568.8" y2="247.68"/>
      <line class="cls-2" x1="608.4" y1="272.88" x2="594" y2="272.88"/>
      <line class="cls-2" x1="608.4" y1="222.48" x2="594" y2="222.48"/>
    </g>
    <g>
      <line class="cls-2" x1="583.2" y1="334.08" x2="583.2" y2="377.28"/>
      <line class="cls-2" x1="594" y1="344.88" x2="594" y2="366.48"/>
      <line class="cls-2" x1="594" y1="373.68" x2="594" y2="388.08"/>
      <line class="cls-2" x1="594" y1="323.28" x2="594" y2="337.68"/>
      <line class="cls-2" x1="583.2" y1="355.68" x2="568.8" y2="355.68"/>
      <line class="cls-2" x1="608.4" y1="380.88" x2="594" y2="380.88"/>
      <line class="cls-2" x1="608.4" y1="330.48" x2="594" y2="330.48"/>
    </g>
    <g>
      <line class="cls-2" x1="583.2" y1="442.08" x2="583.2" y2="485.28"/>
      <line class="cls-2" x1="594" y1="452.88" x2="594" y2="474.48"/>
      <line class="cls-2" x1="594" y1="481.68" x2="594" y2="496.08"/>
      <line class="cls-2" x1="594" y1="431.28" x2="594" y2="445.68"/>
      <line class="cls-2" x1="583.2" y1="463.68" x2="568.8" y2="463.68"/>
      <line class="cls-2" x1="608.4" y1="488.88" x2="594" y2="488.88"/>
      <line class="cls-2" x1="608.4" y1="438.48" x2="594" y2="438.48"/>
    </g>
    <g>
      <line class="cls-2" x1="702" y1="370.08" x2="658.8" y2="370.08"/>
      <line class="cls-2" x1="691.2" y1="380.88" x2="669.6" y2="380.88"/>
      <line class="cls-2" x1="662.4" y1="380.88" x2="648" y2="380.88"/>
      <line class="cls-2" x1="712.8" y1="380.88" x2="698.4" y2="380.88"/>
      <line class="cls-2" x1="680.4" y1="370.08" x2="680.4" y2="355.68"/>
      <line class="cls-2" x1="655.2" y1="395.28" x2="655.2" y2="380.88"/>
      <line class="cls-2" x1="705.6" y1="395.28" x2="705.6" y2="380.88"/>
    </g>
    <path class="cls-5" d="m622.8,298.08c-1.99,0-3.6,1.61-3.6,3.6s1.61,3.6,3.6,3.6,3.6-1.61,3.6-3.6-1.61-3.6-3.6-3.6h0Z"/>
    <path class="cls-5" d="m622.8,406.08c-1.99,0-3.6,1.61-3.6,3.6s1.61,3.6,3.6,3.6,3.6-1.61,3.6-3.6-1.61-3.6-3.6-3.6h0Z"/>
    <path class="cls-5" d="m622.8,190.08c-1.99,0-3.6,1.61-3.6,3.6s1.61,3.6,3.6,3.6,3.6-1.61,3.6-3.6-1.61-3.6-3.6-3.6h0Z"/>
    <polyline class="cls-1" points="608.4 222.48 622.8 222.48 622.8 164.88 608.4 164.88"/>
    <polyline class="cls-1" points="608.4 330.48 622.8 330.48 622.8 272.88 608.4 272.88"/>
    <polyline class="cls-1" points="608.4 438.48 622.8 438.48 622.8 380.88 608.4 380.88"/>
    <polyline class="cls-1" points="622.8 521.28 622.8 488.88 608.4 488.88"/>
    <g>
      <line class="cls-2" x1="658.8" y1="233.28" x2="702" y2="233.28"/>
      <line class="cls-2" x1="669.6" y1="222.48" x2="691.2" y2="222.48"/>
      <line class="cls-2" x1="698.4" y1="222.48" x2="712.8" y2="222.48"/>
      <line class="cls-2" x1="648" y1="222.48" x2="662.4" y2="222.48"/>
      <line class="cls-2" x1="680.4" y1="233.28" x2="680.4" y2="247.68"/>
      <line class="cls-2" x1="705.6" y1="208.08" x2="705.6" y2="222.48"/>
      <line class="cls-2" x1="655.2" y1="208.08" x2="655.2" y2="222.48"/>
    </g>
    <polyline class="cls-2" points="622.8 193.68 655.2 193.68 655.2 208.08"/>
    <polyline class="cls-2" points="622.8 409.68 655.2 409.68 655.2 395.28"/>
    <line class="cls-2" x1="680.4" y1="247.68" x2="680.4" y2="355.68"/>
    <line class="cls-2" x1="622.8" y1="301.68" x2="781.2" y2="301.68"/>
    <path class="cls-5" d="m680.4,298.08c-1.99,0-3.6,1.61-3.6,3.6s1.61,3.6,3.6,3.6,3.6-1.61,3.6-3.6-1.61-3.6-3.6-3.6h0Z"/>
    <polygon class="cls-1" points="622.8 521.28 640.8 521.28 631.8 532.08 622.8 542.88 613.8 532.08 604.8 521.28 622.8 521.28"/>
    <polygon class="cls-1" points="748.8 222.48 766.8 222.48 757.8 233.28 748.8 244.08 739.8 233.28 730.8 222.48 748.8 222.48"/>
    <polyline class="cls-1" points="748.8 222.48 748.8 193.68 705.6 193.68 705.6 208.08"/>
    <polyline class="cls-1" points="748.8 438.48 748.8 409.68 705.6 409.68 705.6 395.28"/>
    <circle class="cls-1" cx="748.8" cy="445.68" r="7.2"/>
    <circle class="cls-1" cx="655.2" cy="78.48" r="7.2"/>
    <polyline class="cls-1" points="655.2 85.68 655.2 114.48 608.4 114.48"/>
    <g>
      <line class="cls-2" x1="871.2" y1="269.28" x2="871.2" y2="226.08"/>
      <line class="cls-2" x1="860.4" y1="258.48" x2="860.4" y2="236.88"/>
      <line class="cls-2" x1="860.4" y1="229.68" x2="860.4" y2="215.28"/>
      <line class="cls-2" x1="860.4" y1="280.08" x2="860.4" y2="265.68"/>
      <line class="cls-2" x1="871.2" y1="247.68" x2="885.6" y2="247.68"/>
      <line class="cls-2" x1="846" y1="222.48" x2="860.4" y2="222.48"/>
      <line class="cls-2" x1="846" y1="272.88" x2="860.4" y2="272.88"/>
    </g>
    <g>
      <line class="cls-2" x1="871.2" y1="161.28" x2="871.2" y2="118.08"/>
      <line class="cls-2" x1="860.4" y1="150.48" x2="860.4" y2="128.88"/>
      <line class="cls-2" x1="860.4" y1="121.68" x2="860.4" y2="107.28"/>
      <line class="cls-2" x1="860.4" y1="172.08" x2="860.4" y2="157.68"/>
      <line class="cls-2" x1="871.2" y1="139.68" x2="885.6" y2="139.68"/>
      <line class="cls-2" x1="846" y1="114.48" x2="860.4" y2="114.48"/>
      <line class="cls-2" x1="846" y1="164.88" x2="860.4" y2="164.88"/>
    </g>
    <polyline class="cls-1" points="831.6 305.28 831.6 272.88 846 272.88"/>
    <polygon class="cls-1" points="831.6 305.28 849.6 305.28 840.6 316.08 831.6 326.88 822.6 316.08 813.6 305.28 831.6 305.28"/>
    <path class="cls-5" d="m831.6,190.08c-1.99,0-3.6,1.61-3.6,3.6s1.61,3.6,3.6,3.6,3.6-1.61,3.6-3.6-1.61-3.6-3.6-3.6h0Z"/>
    <polyline class="cls-1" points="846 164.88 831.6 164.88 831.6 222.48 846 222.48"/>
    <circle class="cls-1" cx="831.6" cy="78.48" r="7.2"/>
    <polyline class="cls-1" points="846 114.48 831.6 114.48 831.6 85.68"/>
    <polyline class="cls-1" points="885.6 247.68 900 247.68 900 139.68 885.6 139.68"/>
    <path class="cls-5" d="m900,190.08c-1.99,0-3.6,1.61-3.6,3.6s1.61,3.6,3.6,3.6,3.6-1.61,3.6-3.6-1.61-3.6-3.6-3.6h0Z"/>
    <g>
      <line class="cls-2" x1="853.2" y1="485.28" x2="853.2" y2="442.08"/>
      <line class="cls-2" x1="864" y1="474.48" x2="864" y2="452.88"/>
      <line class="cls-2" x1="864" y1="445.68" x2="864" y2="431.28"/>
      <line class="cls-2" x1="864" y1="496.08" x2="864" y2="481.68"/>
      <line class="cls-2" x1="853.2" y1="463.68" x2="838.8" y2="463.68"/>
      <line class="cls-2" x1="878.4" y1="438.48" x2="864" y2="438.48"/>
      <line class="cls-2" x1="878.4" y1="488.88" x2="864" y2="488.88"/>
    </g>
    <g>
      <line class="cls-2" x1="853.2" y1="377.28" x2="853.2" y2="334.08"/>
      <line class="cls-2" x1="864" y1="366.48" x2="864" y2="344.88"/>
      <line class="cls-2" x1="864" y1="337.68" x2="864" y2="323.28"/>
      <line class="cls-2" x1="864" y1="388.08" x2="864" y2="373.68"/>
      <line class="cls-2" x1="853.2" y1="355.68" x2="838.8" y2="355.68"/>
      <line class="cls-2" x1="878.4" y1="330.48" x2="864" y2="330.48"/>
      <line class="cls-2" x1="878.4" y1="380.88" x2="864" y2="380.88"/>
    </g>
    <polyline class="cls-1" points="892.8 521.28 892.8 488.88 878.4 488.88"/>
    <polygon class="cls-1" points="892.8 521.28 874.8 521.28 883.8 532.08 892.8 542.88 901.8 532.08 910.8 521.28 892.8 521.28"/>
    <path class="cls-5" d="m892.8,406.08c-1.99,0-3.6,1.61-3.6,3.6s1.61,3.6,3.6,3.6,3.6-1.61,3.6-3.6-1.61-3.6-3.6-3.6h0Z"/>
    <polyline class="cls-1" points="878.4 438.48 892.8 438.48 892.8 380.88 878.4 380.88"/>
    <circle class="cls-1" cx="892.8" cy="294.48" r="7.2"/>
    <polyline class="cls-1" points="878.4 330.48 892.8 330.48 892.8 301.68"/>
    <line class="cls-1" x1="824.4" y1="355.68" x2="838.8" y2="355.68"/>
    <polyline class="cls-1" points="824.4 355.68 824.4 463.68 838.8 463.68"/>
    <path class="cls-5" d="m824.4,406.08c-1.99,0-3.6,1.61-3.6,3.6s1.61,3.6,3.6,3.6,3.6-1.61,3.6-3.6-1.61-3.6-3.6-3.6h0Z"/>
    <path class="cls-5" d="m781.2,298.08c-1.99,0-3.6,1.61-3.6,3.6s1.61,3.6,3.6,3.6,3.6-1.61,3.6-3.6-1.61-3.6-3.6-3.6h0Z"/>
    <polyline class="cls-2" points="831.6 193.68 781.2 193.68 781.2 409.68 824.4 409.68"/>
    <polyline class="cls-1" points="892.8 409.68 936 409.68 936 193.68 900 193.68"/>
    <path class="cls-5" d="m936,298.08c-1.99,0-3.6,1.61-3.6,3.6s1.61,3.6,3.6,3.6,3.6-1.61,3.6-3.6-1.61-3.6-3.6-3.6h0Z"/>
    <g>
      <line class="cls-2" x1="986.4" y1="118.08" x2="986.4" y2="161.28"/>
      <line class="cls-2" x1="997.2" y1="128.88" x2="997.2" y2="150.48"/>
      <line class="cls-2" x1="997.2" y1="157.68" x2="997.2" y2="172.08"/>
      <line class="cls-2" x1="997.2" y1="107.28" x2="997.2" y2="121.68"/>
      <line class="cls-2" x1="986.4" y1="139.68" x2="972" y2="139.68"/>
      <line class="cls-2" x1="1011.6" y1="164.88" x2="997.2" y2="164.88"/>
      <line class="cls-2" x1="1011.6" y1="114.48" x2="997.2" y2="114.48"/>
    </g>
    <g>
      <line class="cls-2" x1="986.4" y1="442.08" x2="986.4" y2="485.28"/>
      <line class="cls-2" x1="997.2" y1="452.88" x2="997.2" y2="474.48"/>
      <line class="cls-2" x1="997.2" y1="481.68" x2="997.2" y2="496.08"/>
      <line class="cls-2" x1="997.2" y1="431.28" x2="997.2" y2="445.68"/>
      <line class="cls-2" x1="986.4" y1="463.68" x2="972" y2="463.68"/>
      <line class="cls-2" x1="1011.6" y1="488.88" x2="997.2" y2="488.88"/>
      <line class="cls-2" x1="1011.6" y1="438.48" x2="997.2" y2="438.48"/>
    </g>
    <polyline class="cls-1" points="1011.6 438.48 1026 438.48 1026 164.88 1011.6 164.88"/>
    <polyline class="cls-1" points="1026 521.28 1026 488.88 1011.6 488.88"/>
    <polygon class="cls-1" points="1026 521.28 1044 521.28 1035 532.08 1026 542.88 1017 532.08 1008 521.28 1026 521.28"/>
    <circle class="cls-1" cx="1058.4" cy="78.48" r="7.2"/>
    <polyline class="cls-1" points="1058.4 85.68 1058.4 114.48 1011.6 114.48"/>
    <line class="cls-1" x1="972" y1="463.68" x2="957.6" y2="463.68"/>
    <line class="cls-1" x1="972" y1="139.68" x2="957.6" y2="139.68"/>
    <line class="cls-2" x1="957.6" y1="139.68" x2="957.6" y2="463.68"/>
    <path class="cls-5" d="m957.6,298.08c-1.99,0-3.6,1.61-3.6,3.6s1.61,3.6,3.6,3.6,3.6-1.61,3.6-3.6-1.61-3.6-3.6-3.6h0Z"/>
    <line class="cls-1" x1="936" y1="301.68" x2="957.6" y2="301.68"/>
    <line class="cls-1" x1="568.8" y1="355.68" x2="554.4" y2="355.68"/>
    <line class="cls-1" x1="568.8" y1="247.68" x2="554.4" y2="247.68"/>
    <polyline class="cls-1" points="568.8 139.68 554.4 139.68 554.4 463.68 568.8 463.68"/>
    <path class="cls-5" d="m554.4,352.08c-1.99,0-3.6,1.61-3.6,3.6s1.61,3.6,3.6,3.6,3.6-1.61,3.6-3.6-1.61-3.6-3.6-3.6h0Z"/>
    <path class="cls-5" d="m554.4,244.08c-1.99,0-3.6,1.61-3.6,3.6s1.61,3.6,3.6,3.6,3.6-1.61,3.6-3.6-1.61-3.6-3.6-3.6h0Z"/>
    <circle class="cls-1" cx="1058.4" cy="301.68" r="7.2"/>
    <line class="cls-1" x1="1026" y1="301.68" x2="1051.2" y2="301.68"/>
    <path class="cls-5" d="m1026,298.08c-1.99,0-3.6,1.61-3.6,3.6s1.61,3.6,3.6,3.6,3.6-1.61,3.6-3.6-1.61-3.6-3.6-3.6h0Z"/>
    <circle class="cls-1" cx="522" cy="301.68" r="7.2"/>
    <line class="cls-1" x1="554.4" y1="301.68" x2="529.2" y2="301.68"/>
  </g>
  <g id="Ebene_4" data-name="Ebene 4">
    <text class="cls-6" transform="translate(604.8 143.28)"><tspan x="0" y="0">P</tspan></text>
    <text class="cls-6" transform="translate(604.8 251.28)"><tspan x="0" y="0">P</tspan></text>
    <text class="cls-6" transform="translate(604.8 359.28)"><tspan x="0" y="0">N</tspan></text>
    <text class="cls-6" transform="translate(604.8 467.28)"><tspan x="0" y="0">N</tspan></text>
    <text class="cls-6" transform="translate(676.8 398.88)"><tspan x="0" y="0">N</tspan></text>
    <text class="cls-6" transform="translate(676.8 211.68)"><tspan x="0" y="0">P</tspan></text>
    <text class="cls-6" transform="translate(842.4 143.28)"><tspan x="0" y="0">P</tspan></text>
    <text class="cls-6" transform="translate(838.8 251.28)"><tspan x="0" y="0">N</tspan></text>
    <text class="cls-6" transform="translate(874.8 359.28)"><tspan x="0" y="0">P</tspan></text>
    <text class="cls-6" transform="translate(874.8 467.28)"><tspan x="0" y="0">N</tspan></text>
    <text class="cls-6" transform="translate(1008 467.28)"><tspan x="0" y="0">N</tspan></text>
    <text class="cls-6" transform="translate(1008 143.28)"><tspan x="0" y="0">P</tspan></text>
    <text class="cls-6" transform="translate(514.8 326.88)"><tspan x="0" y="0">IN</tspan></text>
    <text class="cls-6" transform="translate(1047.6 323.28)"><tspan x="0" y="0">OU</tspan><tspan class="cls-7" x="16.03" y="0">T</tspan></text>
  </g>
</svg>