<?xml version="1.0" encoding="utf-8"?>
<!-- Generator: Adobe Illustrator 27.4.1, SVG Export Plug-In . SVG Version: 6.00 Build 0)  -->
<svg version="1.1" xmlns="http://www.w3.org/2000/svg" xmlns:xlink="http://www.w3.org/1999/xlink" x="0px" y="0px"
	 viewBox="0 0 1080 600.5" style="enable-background:new 0 0 1080 600.5;" xml:space="preserve">
<style type="text/css">
	.st0{fill:none;stroke:#C9D1D9;stroke-width:2.83;stroke-miterlimit:10;}
	.st1{fill:none;stroke:#C9D1D9;stroke-width:2.83;stroke-linecap:round;stroke-linejoin:round;}
	.st2{fill:none;stroke:#C9D1D9;stroke-width:2.83;stroke-miterlimit:9.78;}
	.st3{fill:#C9D1D9;}
	.st4{enable-background:new    ;}
</style>
<g id="Ebene_1">
	<g id="Text">
		<path id="path5133" class="st0" d="M150,320c0.5,10.4-24.9,10.7-25.7,0.6C125,310.8,148.4,310.8,150,320z"/>
		<polygon id="polygon5135" class="st0" points="261.8,460.9 261.7,460.9 256.3,457.7 256.3,455.6 261.8,458.8 		"/>
		<polygon id="polygon5137" class="st0" points="308.1,434.1 302.6,431 302.6,428.9 308.1,432.1 308.1,434.1 		"/>
		<polygon id="polygon5151" class="st0" points="305.8,356.5 307.2,355.7 307.2,430.8 307.2,430.7 301.7,427.6 301.7,354.2 		"/>
		<polygon id="polygon5153" class="st0" points="259.4,383.3 260.8,382.5 260.8,457.5 260.8,457.5 255.4,454.3 255.4,380.9 		"/>
		<path id="path5155" class="st0" d="M238.3,324.6l23.3-13.5v0l0.1,0v0l3.6,2.1c0.6,0.4,1.1,0.7,1.7,1.2c5.3,4,9.1,11.2,9.3,17.8
			V366l-6.7,11.5v0l-1.3,0.7v0l0,75l-1,2.3l0.1,0v2.1l-5.5,3.1v-2l-1-1.3l0,0v-75l-1.4,0.8l-4-2.4l-2.6-1.5v-33.7
			c-0.1-7-4.9-15.5-11-18.9L238.3,324.6L238.3,324.6z"/>
		<path id="path5157" class="st0" d="M313.5,428.9L313.5,428.9l0.1,2.1l-5.5,3.1v-2l-1-1.3l0,0v-75l-1.4,0.8l-4.1-2.4l-2.5-1.5V319
			c0.1-7.2-4.8-15.3-10.9-19l-3.7-2.1l23.3-13.5v0l0.1,0v0l3.6,2.2c0.6,0.3,1.1,0.7,1.7,1.1c5.3,3.9,9.2,11.5,9.3,17.8v33.7
			l-6.7,11.5l0,0l-1.4,0.8l0,0v75L313.5,428.9L313.5,428.9L313.5,428.9z"/>
		<path id="path5169" class="st0" d="M299.2,352.7L299.2,352.7l-5.4-3.1v-33.8c-0.2-3.8-2.3-7.4-5.5-9.4l-3.7-2.1v-6.3l3.7,2.1
			c6.1,3.7,11,11.8,10.9,19V352.7L299.2,352.7L299.2,352.7z"/>
		<path id="path5171" class="st0" d="M252.9,379.4l-5.5-3.2v-33.7c-0.2-3.8-2.3-7.5-5.5-9.5l-3.6-2.1v-6.3l3.6,2.2
			c6.1,3.4,10.9,12,11,18.9L252.9,379.4L252.9,379.4L252.9,379.4z"/>
		<path id="path5173" class="st0" d="M206.5,406.2L206.5,406.2l-5.5-3.1v-33.9c-0.2-3.5-2.4-7.6-5.5-9.4l-3.6-2.2v-6.2l3.6,2.1
			c6.2,3.7,10.8,11.7,11,18.9L206.5,406.2L206.5,406.2L206.5,406.2z"/>
		<path id="path5175" class="st0" d="M229.8,368.8v23.9l-6.7,11.5v0l-1.3,0.7v0l0,75l-1,2.3l0.1,0v2.2l-5.5,3.1v-2.1l-0.9-1.3l0,0
			v-75l-1.4,0.8l-4.1-2.3l-2.6-1.5v-33.7c-0.2-7.2-4.8-15.2-11-18.9l-3.6-2.1l23.2-13.5v0l0.1,0v0l3.6,2.1c0.6,0.4,1.1,0.7,1.7,1.2
			c5.2,4,9.2,11.5,9.3,17.9L229.8,368.8L229.8,368.8L229.8,368.8z"/>
		<polygon id="polygon5177" class="st0" points="209.1,407.7 213.1,410 214.5,409.3 214.5,484.3 214.5,484.3 209.1,481.1 		"/>
		<polygon id="polygon5179" class="st0" points="215.4,487.7 215.4,487.7 210,484.5 210,482.4 215.4,485.5 		"/>
		<polygon id="polygon5181" class="st0" points="169.1,514.4 169.1,514.4 163.6,511.3 163.6,509.2 169.1,512.4 		"/>
		<polygon id="polygon5183" class="st0" points="162.7,434.5 166.7,436.8 168.2,436 168.2,511 168.1,511 162.7,507.9 		"/>
		<path id="path5185" class="st0" d="M145.5,378.2l23.2-13.5v0l0.1,0v0l3.6,2.2c0.6,0.3,1.1,0.7,1.7,1.1c5.2,3.9,9.3,11.7,9.3,17.9
			v33.7l-6.7,11.5l0,0l-1.4,0.8l0,0v75l-1,2.4l0.1,0v2.1l-5.4,3.1v-2l-1-1.3l0,0v-75l-1.4,0.8l-4.1-2.4l-2.6-1.5v-33.7
			c-0.2-7.3-4.7-15.2-11-19L145.5,378.2L145.5,378.2L145.5,378.2z"/>
		<path id="path5187" class="st0" d="M160.1,433l-5.5-3.2v-33.8c0.1-3.4-2.7-7.8-5.5-9.4l-3.6-2.1v-6.3l3.6,2.1
			c6.2,3.8,10.8,11.7,11,19L160.1,433L160.1,433z"/>
		<polygon id="polygon5189" class="st0" points="76.4,407.4 70.9,404.2 70.9,402.1 70.8,402 76.4,405.2 		"/>
		<polygon id="polygon5191" class="st0" points="30,434.2 24.5,431 24.5,428.9 24.5,428.9 30,432.1 		"/>
		<polygon id="polygon5193" class="st0" points="36.4,426.4 35.5,428.9 35.5,430.9 30,434.2 30,432.1 29.1,430.8 29.1,376.8 
			36.4,381.1 		"/>
		<polygon id="polygon5195" class="st0" points="29.1,376.8 29.1,430.8 23.6,427.6 23.6,373.7 		"/>
		<path id="path5199" class="st0" d="M308.1,284.2l23.4-13.4v6.3l-18,10.4l0,0c-0.6-0.4-1.1-0.8-1.7-1.1L308.1,284.2L308.1,284.2
			L308.1,284.2L308.1,284.2z"/>
		<path id="path5213" class="st0" d="M284.5,304.2l3.7,2.1c3.2,2,5.3,5.7,5.5,9.4v16.1L276.2,342v-9.8c-0.2-6.5-3.9-13.7-9.3-17.8
			l0,0L284.5,304.2L284.5,304.2L284.5,304.2L284.5,304.2z"/>
		<path id="path5215" class="st0" d="M284.5,304.2l-17.6,10.2l0,0c-0.5-0.4-1.1-0.8-1.7-1.2l-3.6-2.1v0l23-13.2L284.5,304.2
			L284.5,304.2L284.5,304.2z"/>
		<path id="path5217" class="st0" d="M238.3,331l3.6,2.1c3.2,2,5.2,5.7,5.5,9.5v16.1l-17.5,10.1V359c0-6.4-4-13.8-9.3-17.9
			L238.3,331L238.3,331L238.3,331L238.3,331z"/>
		<path id="path5219" class="st0" d="M238.2,330.9l-17.7,10.2c-0.6-0.4-1.1-0.8-1.7-1.2l-3.6-2.1v0l23-13.2L238.2,330.9L238.2,330.9
			L238.2,330.9L238.2,330.9z"/>
		<path id="path5221" class="st0" d="M191.9,357.7l3.6,2.2c3.1,1.8,5.3,5.8,5.5,9.4v16.2l-17.5,10.1v-9.8c0-6.2-4-14-9.3-17.9
			L191.9,357.7L191.9,357.7L191.9,357.7L191.9,357.7z"/>
		<path id="path5223" class="st0" d="M191.9,357.7l-17.7,10.2c-0.6-0.4-1.1-0.8-1.7-1.1l-3.6-2.2v0l23-13.2L191.9,357.7L191.9,357.7
			L191.9,357.7L191.9,357.7z"/>
		<path id="path5225" class="st0" d="M145.5,384.5l3.6,2.1c2.8,1.7,5.6,6.1,5.5,9.4v16.1l-32.2,18.5v-32.9L145.5,384.5L145.5,384.5
			L145.5,384.5z"/>
		<polygon id="polygon5227" class="st0" points="122.5,397.8 122.5,391.5 122.5,391.5 145.5,378.2 145.5,384.5 145.5,384.5 
			122.5,397.8 		"/>
		<polygon id="polygon5229" class="st0" points="7.2,331.2 7.2,324.9 122.5,391.5 122.5,391.5 122.5,397.8 122.5,397.8 		"/>
		<polygon id="polygon5231" class="st0" points="7.2,331.2 122.5,397.8 122.5,430.7 122.5,430.7 79.1,405.7 75.4,403.6 36.4,381.1 
			29.1,376.8 23.6,373.7 19.4,371.2 		"/>
		<path id="path5233" class="st0" d="M90.5,321.6c-4.6-5.1-15.1-5.3-20.8-2.1l-10,5.8l0.9-6.8v0l9.1-5.3c5.8-2.9,12.5-2.9,18.3,0
			C91.9,315.7,92.7,318.9,90.5,321.6z"/>
		<path id="path5235" class="st0" d="M90.5,321.6c-0.6,0.8-1.4,1.5-2.5,2.1l0,0l-9.1,5.3l-1,6.9l-18.2-10.5v0l10.1-5.8
			C75.4,316.3,85.9,316.5,90.5,321.6z"/>
		<polygon id="polygon5239" class="st0" points="122.5,391.5 122.5,391.5 7.2,324.9 16.9,293.3 60.5,318.5 60.5,318.5 59.6,325.4 
			59.6,325.4 77.8,335.9 78.8,329.1 122.5,354.3 122.5,354.3 122.5,391.4 		"/>
		<line id="line5243" class="st1" x1="7.2" y1="331.2" x2="122.5" y2="397.8"/>
		<polyline id="polyline5245" class="st1" points="19.4,371.2 23.6,373.7 29.1,376.8 36.4,381.1 75.4,403.6 79.1,405.7 122.5,430.7 
			122.5,430.8 		"/>
		<polyline id="polyline5247" class="st1" points="122.5,430.8 122.5,430.7 122.5,397.8 		"/>
		<path id="path5249" class="st1" d="M90.5,321.6L90.5,321.6c-4.6-5.2-15.1-5.4-20.9-2.1"/>
		<polyline id="polyline5251" class="st1" points="78.8,329.1 122.5,354.3 122.5,354.3 		"/>
		<polyline id="polyline5253" class="st1" points="122.5,391.4 122.5,354.3 122.5,354.3 122.5,354.2 		"/>
		<polyline id="polyline5255" class="st1" points="7.2,324.9 122.5,391.5 122.5,391.5 		"/>
		<polyline id="polyline5257" class="st1" points="16.9,293.3 60.5,318.5 60.5,318.5 60.5,318.5 		"/>
		<polyline id="polyline5263" class="st1" points="238.3,324.6 215.2,337.9 215.2,338 		"/>
		<polyline id="polyline5265" class="st1" points="191.9,351.5 168.9,364.6 168.8,364.7 		"/>
		<polyline id="polyline5267" class="st1" points="145.5,378.2 122.5,391.5 122.5,391.5 122.4,391.5 		"/>
		<path id="polyline5269" class="st1" d="M321.5,239.1l-199,115.1h0l0,0"/>
		<path id="polyline5271" class="st1" d="M215.8,178.1L16.9,293.2l-0.1,0"/>
		<polyline id="polyline5273" class="st1" points="122.5,397.8 122.5,397.8 122.5,391.5 122.5,391.5 122.5,391.4 		"/>
		<polyline id="polyline5275" class="st1" points="331.4,270.9 307.9,284.3 307.9,284.4 		"/>
		<line id="line5279" class="st1" x1="313.4" y1="287.6" x2="331.4" y2="277.2"/>
		<polyline id="polyline5281" class="st1" points="59.6,325.4 59.6,325.4 60.5,318.5 60.5,318.5 60.5,318.5 		"/>
		<polyline id="polyline5285" class="st1" points="331.4,270.9 331.4,277.2 331.4,277.3 		"/>
		<line id="line5289" class="st1" x1="69.6" y1="317.6" x2="69.6" y2="315"/>
		<line id="line5291" class="st1" x1="168.9" y1="364.7" x2="172.5" y2="366.9"/>
		<line id="line5293" class="st1" x1="145.5" y1="378.2" x2="149.2" y2="380.3"/>
		<path id="path5295" class="st1" d="M172.5,366.9c0.6,0.3,1.1,0.7,1.7,1.1c5.2,3.9,9.3,11.7,9.3,17.9"/>
		<polyline id="polyline5297" class="st1" points="183.5,385.8 183.5,395.6 183.5,419.5 		"/>
		<path id="path5299" class="st1" d="M154.6,396.1c0.1-3.4-2.7-7.8-5.5-9.4"/>
		<polyline id="polyline5301" class="st1" points="149.2,386.6 145.5,384.5 145.5,384.5 145.4,384.5 		"/>
		<path id="path5303" class="st1" d="M149.2,380.3c6.2,3.8,10.8,11.7,11,19"/>
		<polyline id="polyline5305" class="st1" points="160.1,399.3 160.1,433 160.1,433 		"/>
		<polyline id="polyline5307" class="st1" points="154.6,429.8 154.6,412.2 154.6,396.1 154.6,396.1 		"/>
		<polyline id="polyline5309" class="st1" points="162.7,507.9 168.1,511 168.2,511 		"/>
		<line id="line5311" class="st1" x1="163.6" y1="509.2" x2="169.1" y2="512.4"/>
		<polyline id="polyline5313" class="st1" points="163.6,511.3 169.1,514.4 169.1,514.5 		"/>
		<polyline id="polyline5315" class="st1" points="169.1,514.5 169.1,514.4 169.1,512.4 169.1,512.3 		"/>
		<polyline id="polyline5317" class="st1" points="168.2,511 168.2,436 168.2,435.9 		"/>
		<polyline id="polyline5319" class="st1" points="168.2,436 166.7,436.8 166.7,436.9 		"/>
		<polyline id="polyline5321" class="st1" points="166.8,436.9 166.7,436.8 162.7,434.5 160.1,433 160.1,432.9 		"/>
		<polyline id="polyline5323" class="st1" points="175.4,506.8 174.4,509.2 174.4,509.2 		"/>
		<line id="line5325" class="st1" x1="174.5" y1="509.2" x2="174.5" y2="511.3"/>
		<line id="line5327" class="st1" x1="175.4" y1="431.8" x2="175.4" y2="506.8"/>
		<line id="line5329" class="st1" x1="183.5" y1="419.5" x2="176.8" y2="431"/>
		<polyline id="polyline5331" class="st1" points="176.8,431 176.8,431 175.4,431.8 175.4,431.8 		"/>
		<polyline id="polyline5333" class="st1" points="284.5,297.9 261.6,311.2 261.5,311.2 		"/>
		<polyline id="polyline5337" class="st1" points="220.6,341.2 238.2,330.9 238.3,330.9 		"/>
		<polyline id="polyline5339" class="st1" points="266.9,314.5 284.5,304.2 284.5,304.2 		"/>
		<line id="line5347" class="st1" x1="78.8" y1="329.1" x2="77.8" y2="335.9"/>
		<polyline id="polyline5349" class="st1" points="174.2,367.9 191.9,357.7 191.9,357.6 		"/>
		<line id="line5351" class="st1" x1="16.9" y1="293.3" x2="7.2" y2="324.9"/>
		<polyline id="polyline5353" class="st1" points="122.5,397.8 145.5,384.5 145.5,384.5 		"/>
		<polyline id="polyline5355" class="st1" points="154.6,412.2 122.5,430.7 122.5,430.7 122.4,430.8 		"/>
		<polyline id="polyline5357" class="st1" points="201,385.5 183.5,395.6 183.4,395.6 		"/>
		<polyline id="polyline5359" class="st1" points="247.4,358.7 229.8,368.8 229.8,368.9 		"/>
		<polyline id="polyline5361" class="st1" points="293.8,331.9 276.2,342 276.1,342 		"/>
		<line id="line5369" class="st1" x1="59.6" y1="325.4" x2="77.8" y2="335.9"/>
		<line id="line5371" class="st1" x1="7.2" y1="324.9" x2="7.2" y2="331.2"/>
		<line id="line5373" class="st1" x1="7.2" y1="331.2" x2="19.4" y2="371.2"/>
		<path id="path5375" class="st1" d="M124.3,320.6c0.7-9.8,24.1-9.9,25.7-0.6C150.5,330.4,125.1,330.7,124.3,320.6z"/>
		<polyline id="polyline5389" class="st1" points="284.5,297.9 307.9,284.4 308,284.3 		"/>
		<polyline id="polyline5391" class="st1" points="284.5,304.2 284.5,304.2 284.5,304.2 284.5,297.9 284.5,297.8 		"/>
		<polyline id="polyline5393" class="st1" points="238.3,324.6 261.5,311.2 261.6,311.1 		"/>
		<polyline id="polyline5395" class="st1" points="238.3,331 238.3,331 238.3,330.9 238.3,324.6 238.3,324.6 		"/>
		<polyline id="polyline5397" class="st1" points="191.9,351.5 215.1,337.9 215.2,337.9 		"/>
		<polyline id="polyline5399" class="st1" points="191.9,357.7 191.9,357.7 191.9,357.6 191.9,351.5 191.9,351.4 		"/>
		<polyline id="polyline5401" class="st1" points="145.5,378.2 168.8,364.7 168.9,364.6 		"/>
		<polyline id="polyline5403" class="st1" points="145.5,384.5 145.5,384.5 145.5,384.5 145.5,378.2 145.5,378.1 		"/>
		<line id="line5405" class="st1" x1="78.8" y1="329.1" x2="88" y2="323.7"/>
		<path id="path5407" class="st1" d="M88,323.8C88,323.8,88,323.8,88,323.8c1.1-0.7,1.9-1.4,2.5-2.2c2.2-2.8,1.4-5.9-2.5-8.4
			c-5.8-2.9-12.5-2.9-18.3,0"/>
		<polyline id="polyline5409" class="st1" points="69.6,313.2 60.5,318.5 60.5,318.5 60.4,318.5 		"/>
		<polyline id="polyline5411" class="st1" points="69.6,319.5 59.6,325.4 59.5,325.4 		"/>
		<line id="line5413" class="st1" x1="167.5" y1="369.8" x2="154.1" y2="377.4"/>
		<polyline id="polyline5415" class="st1" points="174.5,511.3 169.1,514.4 169.1,514.4 169,514.5 		"/>
		<line id="line5417" class="st1" x1="178.4" y1="388.7" x2="165.1" y2="396.4"/>
		<line id="line5419" class="st1" x1="215.2" y1="338" x2="218.9" y2="340"/>
		<path id="path5421" class="st1" d="M218.9,340c0.6,0.4,1.1,0.7,1.7,1.2c5.2,4,9.2,11.5,9.3,17.9"/>
		<line id="line5423" class="st1" x1="191.9" y1="351.5" x2="195.5" y2="353.6"/>
		<polyline id="polyline5425" class="st1" points="229.8,359 229.8,368.8 229.8,392.7 		"/>
		<path id="path5427" class="st1" d="M201,369.2c-0.2-3.5-2.4-7.6-5.5-9.4"/>
		<polyline id="polyline5429" class="st1" points="195.5,359.9 191.9,357.7 191.9,357.7 191.8,357.6 		"/>
		<path id="path5431" class="st1" d="M195.5,353.6c6.2,3.7,10.8,11.7,11,18.9"/>
		<polyline id="polyline5433" class="st1" points="206.5,372.5 206.5,406.2 206.5,406.3 		"/>
		<polyline id="polyline5435" class="st1" points="201,403.1 201,385.5 201,369.3 201,369.2 		"/>
		<polyline id="polyline5437" class="st1" points="209.1,481.1 214.5,484.3 214.5,484.3 		"/>
		<line id="line5439" class="st1" x1="210" y1="482.4" x2="215.4" y2="485.5"/>
		<polyline id="polyline5441" class="st1" points="210,484.5 215.4,487.7 215.4,487.7 		"/>
		<polyline id="polyline5443" class="st1" points="215.4,487.7 215.4,487.7 215.4,485.5 215.4,485.5 		"/>
		<polyline id="polyline5445" class="st1" points="214.5,484.3 214.5,409.3 214.5,409.2 		"/>
		<polyline id="polyline5447" class="st1" points="214.5,409.3 213.1,410 213.1,410 		"/>
		<polyline id="polyline5449" class="st1" points="213.1,410 213.1,410 209.1,407.7 206.5,406.2 206.4,406.2 		"/>
		<polyline id="polyline5451" class="st1" points="221.8,480.1 220.8,482.4 220.8,482.4 		"/>
		<line id="line5453" class="st1" x1="220.9" y1="482.4" x2="220.9" y2="484.5"/>
		<line id="line5455" class="st1" x1="221.8" y1="405" x2="221.8" y2="480.1"/>
		<line id="line5457" class="st1" x1="229.8" y1="392.7" x2="223.1" y2="404.2"/>
		<polyline id="polyline5459" class="st1" points="223.2,404.2 223.1,404.3 221.8,405 221.7,405 		"/>
		<polyline id="polyline5461" class="st1" points="169.1,512.4 168.1,511 168.1,511 		"/>
		<polyline id="polyline5463" class="st1" points="162.7,507.9 162.7,434.5 162.7,434.4 		"/>
		<polyline id="polyline5465" class="st1" points="163.6,509.2 162.7,507.9 162.6,507.8 		"/>
		<polyline id="polyline5467" class="st1" points="163.6,511.3 163.6,509.2 163.6,509.1 		"/>
		<line id="line5469" class="st1" x1="154.6" y1="429.8" x2="160.1" y2="433"/>
		<line id="line5471" class="st1" x1="213.8" y1="343" x2="200.5" y2="350.6"/>
		<line id="line5473" class="st1" x1="201" y1="403.1" x2="206.5" y2="406.3"/>
		<polyline id="polyline5475" class="st1" points="220.9,484.5 215.4,487.7 215.4,487.7 215.3,487.7 		"/>
		<line id="line5477" class="st1" x1="224.7" y1="362" x2="211.4" y2="369.6"/>
		<line id="line5479" class="st1" x1="261.6" y1="311.2" x2="265.2" y2="313.3"/>
		<path id="path5481" class="st1" d="M265.2,313.3c0.6,0.4,1.1,0.7,1.7,1.2c5.3,4,9.1,11.2,9.3,17.8"/>
		<line id="line5483" class="st1" x1="238.3" y1="324.6" x2="241.9" y2="326.8"/>
		<polyline id="polyline5485" class="st1" points="276.2,332.2 276.2,342 276.2,366 		"/>
		<path id="path5487" class="st1" d="M247.4,342.6c-0.2-3.8-2.3-7.5-5.5-9.5"/>
		<polyline id="polyline5489" class="st1" points="241.9,333.1 238.3,331 238.2,330.9 238.2,330.9 		"/>
		<path id="path5491" class="st1" d="M241.9,326.8c6.1,3.4,10.9,12,11,18.9"/>
		<polyline id="polyline5493" class="st1" points="252.9,345.8 252.9,379.4 252.9,379.4 		"/>
		<polyline id="polyline5495" class="st1" points="247.4,376.3 247.4,358.7 247.4,342.6 247.4,342.5 		"/>
		<polyline id="polyline5497" class="st1" points="255.4,454.3 260.8,457.5 260.8,457.5 		"/>
		<line id="line5499" class="st1" x1="256.3" y1="455.6" x2="261.8" y2="458.8"/>
		<polyline id="polyline5501" class="st1" points="256.3,457.7 261.7,460.9 261.8,460.9 		"/>
		<polyline id="polyline5503" class="st1" points="261.8,460.9 261.8,460.9 261.8,458.8 261.8,458.7 		"/>
		<polyline id="polyline5505" class="st1" points="260.8,457.5 260.8,382.5 260.8,382.4 		"/>
		<polyline id="polyline5507" class="st1" points="260.8,382.5 259.4,383.3 259.4,383.3 		"/>
		<polyline id="polyline5509" class="st1" points="259.4,383.3 259.4,383.3 255.4,380.9 252.9,379.4 252.8,379.4 		"/>
		<polyline id="polyline5511" class="st1" points="268.2,453.3 267.2,455.6 267.2,455.6 		"/>
		<line id="line5513" class="st1" x1="267.2" y1="455.6" x2="267.2" y2="457.7"/>
		<line id="line5515" class="st1" x1="268.2" y1="378.3" x2="268.2" y2="453.3"/>
		<line id="line5517" class="st1" x1="276.2" y1="366" x2="269.5" y2="377.5"/>
		<polyline id="polyline5519" class="st1" points="269.6,377.5 269.5,377.5 268.2,378.3 268.1,378.3 		"/>
		<polyline id="polyline5521" class="st1" points="215.4,485.5 214.5,484.3 214.5,484.2 		"/>
		<polyline id="polyline5523" class="st1" points="209.1,481.1 209.1,407.7 209.1,407.6 		"/>
		<polyline id="polyline5525" class="st1" points="210,482.4 209,481.1 209,481.1 		"/>
		<polyline id="polyline5527" class="st1" points="210,484.5 210,482.4 210,482.3 		"/>
		<line id="line5529" class="st1" x1="260.1" y1="316.2" x2="246.8" y2="323.9"/>
		<line id="line5531" class="st1" x1="247.4" y1="376.3" x2="252.9" y2="379.4"/>
		<polyline id="polyline5533" class="st1" points="267.2,457.7 261.8,460.9 261.7,460.9 261.7,460.9 		"/>
		<line id="line5535" class="st1" x1="271.1" y1="335.2" x2="257.7" y2="342.8"/>
		<line id="line5537" class="st1" x1="308" y1="284.4" x2="311.6" y2="286.6"/>
		<path id="path5539" class="st1" d="M311.6,286.6c0.6,0.3,1.1,0.7,1.7,1.1c5.3,3.9,9.2,11.5,9.3,17.8"/>
		<line id="line5541" class="st1" x1="284.5" y1="297.9" x2="288.3" y2="300"/>
		<polyline id="polyline5543" class="st1" points="322.6,305.5 322.6,315.3 322.6,339.2 		"/>
		<path id="path5545" class="st1" d="M293.8,315.8c-0.2-3.8-2.3-7.4-5.5-9.4"/>
		<polyline id="polyline5547" class="st1" points="288.3,306.3 284.5,304.2 284.5,304.2 284.5,304.2 		"/>
		<path id="path5549" class="st1" d="M288.3,300c6.1,3.7,11,11.8,10.9,19"/>
		<polyline id="polyline5551" class="st1" points="299.2,319 299.2,352.7 299.2,352.7 		"/>
		<polyline id="polyline5553" class="st1" points="293.8,349.5 293.8,331.9 293.8,315.8 293.8,315.8 		"/>
		<polyline id="polyline5555" class="st1" points="301.7,427.6 307.2,430.7 307.2,430.8 		"/>
		<line id="line5557" class="st1" x1="302.6" y1="428.9" x2="308.1" y2="432.1"/>
		<polyline id="polyline5559" class="st1" points="302.6,431 308.1,434.1 308.1,434.2 		"/>
		<polyline id="polyline5561" class="st1" points="308.1,434.2 308.1,434.1 308.1,432.1 308.1,432 		"/>
		<polyline id="polyline5563" class="st1" points="307.2,430.8 307.2,355.7 307.2,355.6 		"/>
		<polyline id="polyline5565" class="st1" points="307.2,355.7 305.8,356.5 305.7,356.6 		"/>
		<polyline id="polyline5567" class="st1" points="305.8,356.6 305.8,356.5 301.7,354.2 299.2,352.7 299.1,352.6 		"/>
		<polyline id="polyline5569" class="st1" points="314.5,426.5 313.5,428.9 313.5,428.9 		"/>
		<line id="line5571" class="st1" x1="313.6" y1="428.9" x2="313.6" y2="431"/>
		<line id="line5573" class="st1" x1="314.5" y1="351.5" x2="314.5" y2="426.5"/>
		<line id="line5575" class="st1" x1="322.6" y1="339.2" x2="315.9" y2="350.7"/>
		<polyline id="polyline5577" class="st1" points="315.9,350.7 315.9,350.7 314.5,351.5 314.5,351.5 		"/>
		<polyline id="polyline5579" class="st1" points="261.8,458.8 260.8,457.5 260.8,457.4 		"/>
		<polyline id="polyline5581" class="st1" points="255.4,454.3 255.4,380.9 255.4,380.8 		"/>
		<polyline id="polyline5583" class="st1" points="256.3,455.6 255.4,454.3 255.3,454.2 		"/>
		<polyline id="polyline5585" class="st1" points="256.3,457.7 256.3,455.6 256.3,455.6 		"/>
		<line id="line5587" class="st1" x1="306.5" y1="289.5" x2="293.2" y2="297.1"/>
		<line id="line5589" class="st1" x1="293.8" y1="349.5" x2="299.2" y2="352.7"/>
		<polyline id="polyline5591" class="st1" points="313.6,431 308.1,434.1 308.1,434.1 308,434.2 		"/>
		<line id="line5593" class="st1" x1="317.5" y1="308.4" x2="304.1" y2="316.1"/>
		<polyline id="polyline5637" class="st1" points="308.1,432.1 307.2,430.7 307.1,430.7 		"/>
		<polyline id="polyline5639" class="st1" points="301.7,427.6 301.7,354.2 301.7,354.1 		"/>
		<polyline id="polyline5641" class="st1" points="302.6,428.9 301.7,427.6 301.6,427.5 		"/>
		<polyline id="polyline5643" class="st1" points="302.6,431 302.6,428.9 302.6,428.8 		"/>
		<line id="line5769" class="st1" x1="75.4" y1="403.6" x2="75.4" y2="404"/>
		<line id="line5771" class="st1" x1="75.4" y1="404" x2="76.4" y2="405.2"/>
		<line id="line5773" class="st1" x1="76.4" y1="405.2" x2="76.4" y2="407.4"/>
		<polyline id="polyline5775" class="st1" points="76.4,407.4 79.1,405.7 79.2,405.7 		"/>
		<polyline id="polyline5777" class="st1" points="75.4,404 69.9,400.8 69.9,400.8 		"/>
		<polyline id="polyline5779" class="st1" points="76.4,405.2 70.8,402 70.8,402 		"/>
		<polyline id="polyline5781" class="st1" points="69.9,400.9 70.8,402 70.9,402.1 		"/>
		<polyline id="polyline5783" class="st1" points="76.4,407.4 70.9,404.2 70.8,404.2 		"/>
		<polyline id="polyline5785" class="st1" points="70.9,402.1 70.9,404.2 70.9,404.2 		"/>
		<polyline id="polyline5787" class="st1" points="69.9,400.5 69.9,400.8 69.9,400.9 		"/>
		<polyline id="polyline5789" class="st1" points="29.1,376.8 29.1,376.8 29.1,430.8 		"/>
		<line id="line5791" class="st1" x1="29.1" y1="430.8" x2="30" y2="432.1"/>
		<polyline id="polyline5793" class="st1" points="36.4,426.5 36.4,426.4 36.4,381.1 36.4,381 		"/>
		<line id="line5795" class="st1" x1="35.5" y1="428.9" x2="36.4" y2="426.4"/>
		<polyline id="polyline5797" class="st1" points="35.5,431 35.5,430.9 35.5,428.9 35.5,428.8 		"/>
		<line id="line5799" class="st1" x1="30" y1="432.1" x2="30" y2="434.2"/>
		<line id="line5801" class="st1" x1="30" y1="434.2" x2="35.5" y2="430.9"/>
		<polyline id="polyline5803" class="st1" points="29.1,430.8 23.6,427.6 23.5,427.5 		"/>
		<polyline id="polyline5805" class="st1" points="30,432.1 24.5,428.9 24.4,428.8 		"/>
		<polyline id="polyline5807" class="st1" points="23.6,427.6 24.5,428.9 24.5,428.9 		"/>
		<polyline id="polyline5809" class="st1" points="30,434.2 24.5,431 24.4,430.9 		"/>
		<polyline id="polyline5811" class="st1" points="24.5,428.9 24.5,431 24.5,431 		"/>
		<polyline id="polyline5813" class="st1" points="23.6,373.6 23.6,373.7 23.6,427.6 23.6,427.6 		"/>
	</g>
	<g id="Ebene_3">
		<polyline id="polyline5263-2" class="st1" points="377.4,244.4 354.3,257.6 354.3,257.7 		"/>
		<polyline id="polyline5265-2" class="st1" points="331,271.2 308,284.4 307.9,284.4 		"/>
		<polyline id="polyline5267-2" class="st1" points="284.6,297.9 261.6,311.2 261.6,311.2 261.5,311.2 		"/>
		<path id="polyline5269-2" class="st1" d="M460.6,158.9L261.6,274h0l0,0"/>
		<path id="polyline5271-2" class="st1" d="M354.9,97.8L156,213l-0.1,0"/>
		<polyline id="polyline5275-2" class="st1" points="470.5,190.6 447,204 447,204.1 		"/>
		<line id="line5279-2" class="st1" x1="452.5" y1="207.3" x2="470.5" y2="196.9"/>
		<line id="line5283" class="st1" x1="354.9" y1="97.8" x2="460.6" y2="158.9"/>
		<polyline id="polyline5285-2" class="st1" points="470.5,190.6 470.5,196.9 470.5,197 		"/>
		<line id="line5287" class="st1" x1="460.8" y1="159" x2="470.5" y2="190.6"/>
		<line id="line5291-2" class="st1" x1="308" y1="284.4" x2="311.6" y2="286.6"/>
		<line id="line5293-2" class="st1" x1="284.6" y1="297.9" x2="288.3" y2="300"/>
		<path id="path5295-2" class="st1" d="M311.6,286.6c0.6,0.3,1.1,0.7,1.7,1.1c5.2,3.9,9.3,11.7,9.3,17.9"/>
		<polyline id="polyline5297-2" class="st1" points="322.6,305.5 322.6,315.3 322.6,339.2 		"/>
		<path id="path5299-2" class="st1" d="M293.8,315.8c0.1-3.4-2.7-7.8-5.5-9.4"/>
		<polyline id="polyline5301-2" class="st1" points="288.3,306.3 284.6,304.2 284.6,304.2 284.5,304.2 		"/>
		<path id="path5303-2" class="st1" d="M288.3,300c6.2,3.8,10.8,11.7,11,19"/>
		<polyline id="polyline5305-2" class="st1" points="299.2,319 299.2,352.7 299.2,352.7 		"/>
		<polyline id="polyline5307-2" class="st1" points="293.8,349.5 293.8,331.9 293.8,315.9 293.8,315.8 		"/>
		<polyline id="polyline5309-2" class="st1" points="301.8,427.6 307.2,430.7 307.3,430.8 		"/>
		<line id="line5311-2" class="st1" x1="302.7" y1="428.9" x2="308.2" y2="432.1"/>
		<polyline id="polyline5313-2" class="st1" points="302.7,431 308.2,434.1 308.2,434.2 		"/>
		<polyline id="polyline5315-2" class="st1" points="308.2,434.2 308.2,434.1 308.2,432.1 308.2,432 		"/>
		<polyline id="polyline5317-2" class="st1" points="307.3,430.8 307.3,355.7 307.3,355.6 		"/>
		<polyline id="polyline5319-2" class="st1" points="307.3,355.7 305.8,356.5 305.8,356.6 		"/>
		<polyline id="polyline5321-2" class="st1" points="305.9,356.6 305.8,356.5 301.8,354.2 299.2,352.7 299.2,352.6 		"/>
		<polyline id="polyline5323-2" class="st1" points="314.5,426.5 313.5,428.9 313.5,428.9 		"/>
		<line id="line5325-2" class="st1" x1="313.6" y1="428.9" x2="313.6" y2="431"/>
		<line id="line5327-2" class="st1" x1="314.5" y1="351.5" x2="314.5" y2="426.5"/>
		<line id="line5329-2" class="st1" x1="322.6" y1="339.2" x2="315.9" y2="350.7"/>
		<polyline id="polyline5331-2" class="st1" points="315.9,350.7 315.9,350.7 314.5,351.5 314.5,351.5 		"/>
		<polyline id="polyline5333-2" class="st1" points="423.6,217.6 400.7,230.9 400.6,230.9 		"/>
		<polyline id="polyline5337-2" class="st1" points="359.7,260.9 377.3,250.6 377.4,250.6 		"/>
		<polyline id="polyline5339-2" class="st1" points="406,234.2 423.6,223.9 423.6,223.9 		"/>
		<polyline id="polyline5349-2" class="st1" points="313.3,287.6 331,277.4 331,277.4 		"/>
		<polyline id="polyline5357-2" class="st1" points="340.1,305.2 322.6,315.3 322.5,315.3 		"/>
		<polyline id="polyline5359-2" class="st1" points="386.5,278.5 368.9,288.5 368.9,288.6 		"/>
		<polyline id="polyline5361-2" class="st1" points="432.9,251.6 415.3,261.7 415.2,261.8 		"/>
		<line id="line5377" class="st1" x1="461.7" y1="225.6" x2="470.5" y2="196.9"/>
		<polyline id="polyline5389-2" class="st1" points="423.6,217.6 447,204.1 447.1,204 		"/>
		<polyline id="polyline5391-2" class="st1" points="423.6,224 423.6,223.9 423.6,223.9 423.6,217.6 423.6,217.6 		"/>
		<polyline id="polyline5393-2" class="st1" points="377.4,244.4 400.6,230.9 400.7,230.8 		"/>
		<polyline id="polyline5395-2" class="st1" points="377.4,250.7 377.4,250.7 377.4,250.6 377.4,244.4 377.4,244.3 		"/>
		<polyline id="polyline5397-2" class="st1" points="331,271.2 354.2,257.6 354.3,257.6 		"/>
		<polyline id="polyline5399-2" class="st1" points="331,277.4 331,277.4 331,277.4 331,271.2 331,271.1 		"/>
		<polyline id="polyline5401-2" class="st1" points="284.6,297.9 307.9,284.4 308,284.3 		"/>
		<polyline id="polyline5403-2" class="st1" points="284.6,304.3 284.6,304.2 284.6,304.2 284.6,297.9 284.6,297.8 		"/>
		<line id="line5413-2" class="st1" x1="306.6" y1="289.5" x2="293.2" y2="297.1"/>
		<polyline id="polyline5415-2" class="st1" points="313.6,431 308.2,434.1 308.2,434.1 308.1,434.2 		"/>
		<line id="line5417-2" class="st1" x1="317.5" y1="308.4" x2="304.2" y2="316.1"/>
		<line id="line5419-2" class="st1" x1="354.3" y1="257.7" x2="358" y2="259.8"/>
		<path id="path5421-2" class="st1" d="M358,259.8c0.6,0.4,1.1,0.7,1.7,1.2c5.2,4,9.2,11.5,9.3,17.9"/>
		<line id="line5423-2" class="st1" x1="331" y1="271.2" x2="334.6" y2="273.3"/>
		<polyline id="polyline5425-2" class="st1" points="368.9,278.8 368.9,288.5 368.9,312.5 		"/>
		<path id="path5427-2" class="st1" d="M340.1,289c-0.2-3.5-2.4-7.6-5.5-9.4"/>
		<polyline id="polyline5429-2" class="st1" points="334.6,279.6 331,277.4 331,277.4 330.9,277.4 		"/>
		<path id="path5431-2" class="st1" d="M334.6,273.3c6.2,3.7,10.8,11.7,11,18.9"/>
		<polyline id="polyline5433-2" class="st1" points="345.6,292.2 345.6,325.9 345.6,326 		"/>
		<polyline id="polyline5435-2" class="st1" points="340.1,322.8 340.1,305.2 340.1,289 340.1,289 		"/>
		<polyline id="polyline5437-2" class="st1" points="348.1,400.9 353.6,404 353.6,404 		"/>
		<line id="line5439-2" class="st1" x1="349.1" y1="402.1" x2="354.5" y2="405.3"/>
		<polyline id="polyline5441-2" class="st1" points="349.1,404.2 354.5,407.4 354.5,407.4 		"/>
		<polyline id="polyline5443-2" class="st1" points="354.5,407.4 354.5,407.4 354.5,405.3 354.5,405.2 		"/>
		<polyline id="polyline5445-2" class="st1" points="353.6,404 353.6,329 353.6,328.9 		"/>
		<polyline id="polyline5447-2" class="st1" points="353.6,329 352.2,329.7 352.2,329.8 		"/>
		<polyline id="polyline5449-2" class="st1" points="352.2,329.8 352.2,329.7 348.1,327.4 345.6,325.9 345.5,325.9 		"/>
		<polyline id="polyline5451-2" class="st1" points="360.9,399.8 359.9,402.1 359.9,402.1 		"/>
		<line id="line5453-2" class="st1" x1="360" y1="402.1" x2="360" y2="404.2"/>
		<line id="line5455-2" class="st1" x1="360.9" y1="324.7" x2="360.9" y2="399.8"/>
		<line id="line5457-2" class="st1" x1="368.9" y1="312.5" x2="362.2" y2="324"/>
		<polyline id="polyline5459-2" class="st1" points="362.3,324 362.2,324 360.9,324.7 360.8,324.7 		"/>
		<polyline id="polyline5461-2" class="st1" points="308.2,432.1 307.2,430.7 307.2,430.7 		"/>
		<polyline id="polyline5463-2" class="st1" points="301.8,427.6 301.8,354.2 301.8,354.1 		"/>
		<polyline id="polyline5465-2" class="st1" points="302.7,428.9 301.8,427.6 301.7,427.5 		"/>
		<polyline id="polyline5467-2" class="st1" points="302.7,431 302.7,428.9 302.7,428.8 		"/>
		<line id="line5469-2" class="st1" x1="293.8" y1="349.5" x2="299.2" y2="352.7"/>
		<line id="line5471-2" class="st1" x1="352.9" y1="262.7" x2="339.6" y2="270.3"/>
		<line id="line5473-2" class="st1" x1="340.1" y1="322.8" x2="345.6" y2="326"/>
		<polyline id="polyline5475-2" class="st1" points="360,404.2 354.5,407.4 354.5,407.4 354.4,407.4 		"/>
		<line id="line5477-2" class="st1" x1="363.8" y1="281.7" x2="350.5" y2="289.3"/>
		<line id="line5479-2" class="st1" x1="400.7" y1="230.9" x2="404.3" y2="233"/>
		<path id="path5481-2" class="st1" d="M404.3,233c0.6,0.4,1.1,0.7,1.7,1.2c5.3,4,9.1,11.2,9.3,17.8"/>
		<line id="line5483-2" class="st1" x1="377.4" y1="244.4" x2="381" y2="246.5"/>
		<polyline id="polyline5485-2" class="st1" points="415.3,251.9 415.3,261.7 415.3,285.7 		"/>
		<path id="path5487-2" class="st1" d="M386.5,262.3c-0.2-3.8-2.3-7.5-5.5-9.5"/>
		<polyline id="polyline5489-2" class="st1" points="381,252.8 377.4,250.7 377.3,250.6 377.3,250.6 		"/>
		<path id="path5491-2" class="st1" d="M381,246.5c6.1,3.4,10.9,12,11,18.9"/>
		<polyline id="polyline5493-2" class="st1" points="392,265.5 392,299.1 392,299.2 		"/>
		<polyline id="polyline5495-2" class="st1" points="386.5,296 386.5,278.5 386.5,262.3 386.5,262.2 		"/>
		<polyline id="polyline5497-2" class="st1" points="394.5,374 399.9,377.2 399.9,377.2 		"/>
		<line id="line5499-2" class="st1" x1="395.4" y1="375.4" x2="400.9" y2="378.5"/>
		<polyline id="polyline5501-2" class="st1" points="395.4,377.4 400.8,380.6 400.9,380.6 		"/>
		<polyline id="polyline5503-2" class="st1" points="400.9,380.6 400.9,380.6 400.9,378.5 400.9,378.4 		"/>
		<polyline id="polyline5505-2" class="st1" points="399.9,377.2 399.9,302.2 399.9,302.1 		"/>
		<polyline id="polyline5507-2" class="st1" points="399.9,302.2 398.5,303 398.5,303 		"/>
		<polyline id="polyline5509-2" class="st1" points="398.5,303 398.5,303 394.5,300.6 392,299.1 391.9,299.1 		"/>
		<polyline id="polyline5511-2" class="st1" points="407.3,373 406.3,375.3 406.3,375.4 		"/>
		<line id="line5513-2" class="st1" x1="406.3" y1="375.4" x2="406.3" y2="377.4"/>
		<line id="line5515-2" class="st1" x1="407.3" y1="298" x2="407.3" y2="373"/>
		<line id="line5517-2" class="st1" x1="415.3" y1="285.7" x2="408.6" y2="297.2"/>
		<polyline id="polyline5519-2" class="st1" points="408.7,297.2 408.6,297.2 407.3,298 407.2,298 		"/>
		<polyline id="polyline5521-2" class="st1" points="354.5,405.3 353.6,404 353.6,404 		"/>
		<polyline id="polyline5523-2" class="st1" points="348.1,400.9 348.1,327.4 348.1,327.4 		"/>
		<polyline id="polyline5525-2" class="st1" points="349.1,402.1 348.1,400.9 348.1,400.8 		"/>
		<polyline id="polyline5527-2" class="st1" points="349.1,404.2 349.1,402.1 349.1,402 		"/>
		<line id="line5529-2" class="st1" x1="399.2" y1="235.9" x2="385.9" y2="243.6"/>
		<line id="line5531-2" class="st1" x1="386.5" y1="296" x2="392" y2="299.2"/>
		<polyline id="polyline5533-2" class="st1" points="406.3,377.4 400.9,380.6 400.8,380.6 400.8,380.6 		"/>
		<line id="line5535-2" class="st1" x1="410.2" y1="254.9" x2="396.8" y2="262.5"/>
		<line id="line5537-2" class="st1" x1="447.1" y1="204.1" x2="450.7" y2="206.3"/>
		<path id="path5539-2" class="st1" d="M450.7,206.3c0.6,0.3,1.1,0.7,1.7,1.1c5.3,3.9,9.2,11.5,9.3,17.8"/>
		<line id="line5541-2" class="st1" x1="423.6" y1="217.6" x2="427.4" y2="219.7"/>
		<polyline id="polyline5543-2" class="st1" points="461.7,225.2 461.7,235 461.7,258.9 		"/>
		<path id="path5545-2" class="st1" d="M432.9,235.5c-0.2-3.8-2.3-7.4-5.5-9.4"/>
		<polyline id="polyline5547-2" class="st1" points="427.4,226.1 423.6,223.9 423.6,223.9 423.6,223.9 		"/>
		<path id="path5549-2" class="st1" d="M427.4,219.7c6.1,3.7,11,11.8,10.9,19"/>
		<polyline id="polyline5551-2" class="st1" points="438.3,238.7 438.3,272.4 438.3,272.4 		"/>
		<polyline id="polyline5553-2" class="st1" points="432.9,269.2 432.9,251.6 432.9,235.6 432.9,235.5 		"/>
		<polyline id="polyline5555-2" class="st1" points="440.8,347.3 446.3,350.4 446.3,350.5 		"/>
		<line id="line5557-2" class="st1" x1="441.7" y1="348.6" x2="447.2" y2="351.8"/>
		<polyline id="polyline5559-2" class="st1" points="441.7,350.7 447.2,353.8 447.2,353.9 		"/>
		<polyline id="polyline5561-2" class="st1" points="447.2,353.9 447.2,353.8 447.2,351.8 447.2,351.7 		"/>
		<polyline id="polyline5563-2" class="st1" points="446.3,350.5 446.3,275.4 446.3,275.4 		"/>
		<polyline id="polyline5565-2" class="st1" points="446.3,275.4 444.9,276.3 444.8,276.3 		"/>
		<polyline id="polyline5567-2" class="st1" points="444.9,276.3 444.9,276.3 440.8,273.9 438.3,272.4 438.2,272.3 		"/>
		<polyline id="polyline5569-2" class="st1" points="453.6,346.2 452.6,348.6 452.6,348.6 		"/>
		<line id="line5571-2" class="st1" x1="452.7" y1="348.6" x2="452.7" y2="350.7"/>
		<line id="line5573-2" class="st1" x1="453.6" y1="271.3" x2="453.6" y2="346.2"/>
		<line id="line5575-2" class="st1" x1="461.7" y1="258.9" x2="455" y2="270.4"/>
		<polyline id="polyline5577-2" class="st1" points="455,270.4 455,270.5 453.6,271.2 453.6,271.3 		"/>
		<polyline id="polyline5579-2" class="st1" points="400.9,378.5 399.9,377.2 399.9,377.1 		"/>
		<polyline id="polyline5581-2" class="st1" points="394.5,374 394.5,300.6 394.5,300.5 		"/>
		<polyline id="polyline5583-2" class="st1" points="395.4,375.4 394.5,374 394.4,374 		"/>
		<polyline id="polyline5585-2" class="st1" points="395.4,377.4 395.4,375.4 395.4,375.3 		"/>
		<line id="line5587-2" class="st1" x1="445.6" y1="209.2" x2="432.3" y2="216.9"/>
		<line id="line5589-2" class="st1" x1="432.9" y1="269.2" x2="438.3" y2="272.4"/>
		<polyline id="polyline5591-2" class="st1" points="452.7,350.7 447.2,353.8 447.2,353.8 447.1,353.9 		"/>
		<line id="line5593-2" class="st1" x1="456.6" y1="228.1" x2="443.2" y2="235.8"/>
		<polyline id="polyline5637-2" class="st1" points="447.2,351.8 446.3,350.4 446.2,350.4 		"/>
		<polyline id="polyline5639-2" class="st1" points="440.8,347.3 440.8,273.9 440.8,273.8 		"/>
		<polyline id="polyline5641-2" class="st1" points="441.7,348.6 440.8,347.3 440.7,347.2 		"/>
		<polyline id="polyline5643-2" class="st1" points="441.7,350.7 441.7,348.6 441.7,348.5 		"/>
		<g>
			<line class="st2" x1="583.2" y1="118.1" x2="583.2" y2="161.3"/>
			<line class="st2" x1="594" y1="128.9" x2="594" y2="150.5"/>
			<line class="st2" x1="594" y1="157.7" x2="594" y2="172.1"/>
			<line class="st2" x1="594" y1="107.3" x2="594" y2="121.7"/>
			<line class="st2" x1="583.2" y1="139.7" x2="568.8" y2="139.7"/>
			<line class="st2" x1="608.4" y1="164.9" x2="594" y2="164.9"/>
			<line class="st2" x1="608.4" y1="114.5" x2="594" y2="114.5"/>
		</g>
		<g>
			<line class="st2" x1="583.2" y1="226.1" x2="583.2" y2="269.3"/>
			<line class="st2" x1="594" y1="236.9" x2="594" y2="258.5"/>
			<line class="st2" x1="594" y1="265.7" x2="594" y2="280.1"/>
			<line class="st2" x1="594" y1="215.3" x2="594" y2="229.7"/>
			<line class="st2" x1="583.2" y1="247.7" x2="568.8" y2="247.7"/>
			<line class="st2" x1="608.4" y1="272.9" x2="594" y2="272.9"/>
			<line class="st2" x1="608.4" y1="222.5" x2="594" y2="222.5"/>
		</g>
		<g>
			<line class="st2" x1="583.2" y1="334.1" x2="583.2" y2="377.3"/>
			<line class="st2" x1="594" y1="344.9" x2="594" y2="366.5"/>
			<line class="st2" x1="594" y1="373.7" x2="594" y2="388.1"/>
			<line class="st2" x1="594" y1="323.3" x2="594" y2="337.7"/>
			<line class="st2" x1="583.2" y1="355.7" x2="568.8" y2="355.7"/>
			<line class="st2" x1="608.4" y1="380.9" x2="594" y2="380.9"/>
			<line class="st2" x1="608.4" y1="330.5" x2="594" y2="330.5"/>
		</g>
		<g>
			<line class="st2" x1="583.2" y1="442.1" x2="583.2" y2="485.3"/>
			<line class="st2" x1="594" y1="452.9" x2="594" y2="474.5"/>
			<line class="st2" x1="594" y1="481.7" x2="594" y2="496.1"/>
			<line class="st2" x1="594" y1="431.3" x2="594" y2="445.7"/>
			<line class="st2" x1="583.2" y1="463.7" x2="568.8" y2="463.7"/>
			<line class="st2" x1="608.4" y1="488.9" x2="594" y2="488.9"/>
			<line class="st2" x1="608.4" y1="438.5" x2="594" y2="438.5"/>
		</g>
		<g>
			<line class="st2" x1="702" y1="370.1" x2="658.8" y2="370.1"/>
			<line class="st2" x1="691.2" y1="380.9" x2="669.6" y2="380.9"/>
			<line class="st2" x1="662.4" y1="380.9" x2="648" y2="380.9"/>
			<line class="st2" x1="712.8" y1="380.9" x2="698.4" y2="380.9"/>
			<line class="st2" x1="680.4" y1="370.1" x2="680.4" y2="355.7"/>
			<line class="st2" x1="655.2" y1="395.3" x2="655.2" y2="380.9"/>
			<line class="st2" x1="705.6" y1="395.3" x2="705.6" y2="380.9"/>
		</g>
		<path class="st3" d="M622.8,298.1c-2,0-3.6,1.6-3.6,3.6s1.6,3.6,3.6,3.6s3.6-1.6,3.6-3.6S624.8,298.1,622.8,298.1L622.8,298.1z"/>
		<path class="st3" d="M622.8,406.1c-2,0-3.6,1.6-3.6,3.6s1.6,3.6,3.6,3.6s3.6-1.6,3.6-3.6S624.8,406.1,622.8,406.1L622.8,406.1z"/>
		<path class="st3" d="M622.8,190.1c-2,0-3.6,1.6-3.6,3.6s1.6,3.6,3.6,3.6s3.6-1.6,3.6-3.6S624.8,190.1,622.8,190.1L622.8,190.1z"/>
		<polyline class="st2" points="608.4,222.5 622.8,222.5 622.8,164.9 608.4,164.9 		"/>
		<polyline class="st2" points="608.4,330.5 622.8,330.5 622.8,272.9 608.4,272.9 		"/>
		<polyline class="st2" points="608.4,438.5 622.8,438.5 622.8,380.9 608.4,380.9 		"/>
		<polyline class="st2" points="622.8,521.3 622.8,488.9 608.4,488.9 		"/>
		<g>
			<line class="st2" x1="658.8" y1="233.3" x2="702" y2="233.3"/>
			<line class="st2" x1="669.6" y1="222.5" x2="691.2" y2="222.5"/>
			<line class="st2" x1="698.4" y1="222.5" x2="712.8" y2="222.5"/>
			<line class="st2" x1="648" y1="222.5" x2="662.4" y2="222.5"/>
			<line class="st2" x1="680.4" y1="233.3" x2="680.4" y2="247.7"/>
			<line class="st2" x1="705.6" y1="208.1" x2="705.6" y2="222.5"/>
			<line class="st2" x1="655.2" y1="208.1" x2="655.2" y2="222.5"/>
		</g>
		<polyline class="st2" points="622.8,193.7 655.2,193.7 655.2,208.1 		"/>
		<polyline class="st2" points="622.8,409.7 655.2,409.7 655.2,395.3 		"/>
		<line class="st2" x1="680.4" y1="247.7" x2="680.4" y2="355.7"/>
		<line class="st2" x1="622.8" y1="301.7" x2="781.2" y2="301.7"/>
		<path class="st3" d="M680.4,298.1c-2,0-3.6,1.6-3.6,3.6s1.6,3.6,3.6,3.6s3.6-1.6,3.6-3.6S682.4,298.1,680.4,298.1L680.4,298.1z"/>
		<polygon class="st2" points="622.8,521.3 640.8,521.3 631.8,532.1 622.8,542.9 613.8,532.1 604.8,521.3 		"/>
		<polygon class="st2" points="748.8,222.5 766.8,222.5 757.8,233.3 748.8,244.1 739.8,233.3 730.8,222.5 		"/>
		<polyline class="st2" points="748.8,222.5 748.8,193.7 705.6,193.7 705.6,208.1 		"/>
		<polyline class="st2" points="748.8,438.5 748.8,409.7 705.6,409.7 705.6,395.3 		"/>
		<circle class="st2" cx="748.8" cy="445.7" r="7.2"/>
		<circle class="st2" cx="655.2" cy="78.5" r="7.2"/>
		<polyline class="st2" points="655.2,85.7 655.2,114.5 608.4,114.5 		"/>
		<g>
			<line class="st2" x1="871.2" y1="269.3" x2="871.2" y2="226.1"/>
			<line class="st2" x1="860.4" y1="258.5" x2="860.4" y2="236.9"/>
			<line class="st2" x1="860.4" y1="229.7" x2="860.4" y2="215.3"/>
			<line class="st2" x1="860.4" y1="280.1" x2="860.4" y2="265.7"/>
			<line class="st2" x1="871.2" y1="247.7" x2="885.6" y2="247.7"/>
			<line class="st2" x1="846" y1="222.5" x2="860.4" y2="222.5"/>
			<line class="st2" x1="846" y1="272.9" x2="860.4" y2="272.9"/>
		</g>
		<g>
			<line class="st2" x1="871.2" y1="161.3" x2="871.2" y2="118.1"/>
			<line class="st2" x1="860.4" y1="150.5" x2="860.4" y2="128.9"/>
			<line class="st2" x1="860.4" y1="121.7" x2="860.4" y2="107.3"/>
			<line class="st2" x1="860.4" y1="172.1" x2="860.4" y2="157.7"/>
			<line class="st2" x1="871.2" y1="139.7" x2="885.6" y2="139.7"/>
			<line class="st2" x1="846" y1="114.5" x2="860.4" y2="114.5"/>
			<line class="st2" x1="846" y1="164.9" x2="860.4" y2="164.9"/>
		</g>
		<polyline class="st2" points="831.6,305.3 831.6,272.9 846,272.9 		"/>
		<polygon class="st2" points="831.6,305.3 849.6,305.3 840.6,316.1 831.6,326.9 822.6,316.1 813.6,305.3 		"/>
		<path class="st3" d="M831.6,190.1c-2,0-3.6,1.6-3.6,3.6s1.6,3.6,3.6,3.6s3.6-1.6,3.6-3.6S833.6,190.1,831.6,190.1L831.6,190.1z"/>
		<polyline class="st2" points="846,164.9 831.6,164.9 831.6,222.5 846,222.5 		"/>
		<circle class="st2" cx="831.6" cy="78.5" r="7.2"/>
		<polyline class="st2" points="846,114.5 831.6,114.5 831.6,85.7 		"/>
		<polyline class="st2" points="885.6,247.7 900,247.7 900,139.7 885.6,139.7 		"/>
		<path class="st3" d="M900,190.1c-2,0-3.6,1.6-3.6,3.6s1.6,3.6,3.6,3.6s3.6-1.6,3.6-3.6S902,190.1,900,190.1L900,190.1z"/>
		<g>
			<line class="st2" x1="853.2" y1="485.3" x2="853.2" y2="442.1"/>
			<line class="st2" x1="864" y1="474.5" x2="864" y2="452.9"/>
			<line class="st2" x1="864" y1="445.7" x2="864" y2="431.3"/>
			<line class="st2" x1="864" y1="496.1" x2="864" y2="481.7"/>
			<line class="st2" x1="853.2" y1="463.7" x2="838.8" y2="463.7"/>
			<line class="st2" x1="878.4" y1="438.5" x2="864" y2="438.5"/>
			<line class="st2" x1="878.4" y1="488.9" x2="864" y2="488.9"/>
		</g>
		<g>
			<line class="st2" x1="853.2" y1="377.3" x2="853.2" y2="334.1"/>
			<line class="st2" x1="864" y1="366.5" x2="864" y2="344.9"/>
			<line class="st2" x1="864" y1="337.7" x2="864" y2="323.3"/>
			<line class="st2" x1="864" y1="388.1" x2="864" y2="373.7"/>
			<line class="st2" x1="853.2" y1="355.7" x2="838.8" y2="355.7"/>
			<line class="st2" x1="878.4" y1="330.5" x2="864" y2="330.5"/>
			<line class="st2" x1="878.4" y1="380.9" x2="864" y2="380.9"/>
		</g>
		<polyline class="st2" points="892.8,521.3 892.8,488.9 878.4,488.9 		"/>
		<polygon class="st2" points="892.8,521.3 874.8,521.3 883.8,532.1 892.8,542.9 901.8,532.1 910.8,521.3 		"/>
		<path class="st3" d="M892.8,406.1c-2,0-3.6,1.6-3.6,3.6s1.6,3.6,3.6,3.6s3.6-1.6,3.6-3.6S894.8,406.1,892.8,406.1L892.8,406.1z"/>
		<polyline class="st2" points="878.4,438.5 892.8,438.5 892.8,380.9 878.4,380.9 		"/>
		<circle class="st2" cx="892.8" cy="294.5" r="7.2"/>
		<polyline class="st2" points="878.4,330.5 892.8,330.5 892.8,301.7 		"/>
		<line class="st2" x1="824.4" y1="355.7" x2="838.8" y2="355.7"/>
		<polyline class="st2" points="824.4,355.7 824.4,463.7 838.8,463.7 		"/>
		<path class="st3" d="M824.4,406.1c-2,0-3.6,1.6-3.6,3.6s1.6,3.6,3.6,3.6s3.6-1.6,3.6-3.6S826.4,406.1,824.4,406.1L824.4,406.1z"/>
		<path class="st3" d="M781.2,298.1c-2,0-3.6,1.6-3.6,3.6s1.6,3.6,3.6,3.6s3.6-1.6,3.6-3.6S783.2,298.1,781.2,298.1L781.2,298.1z"/>
		<polyline class="st2" points="831.6,193.7 781.2,193.7 781.2,409.7 824.4,409.7 		"/>
		<polyline class="st2" points="892.8,409.7 936,409.7 936,193.7 900,193.7 		"/>
		<path class="st3" d="M936,298.1c-2,0-3.6,1.6-3.6,3.6s1.6,3.6,3.6,3.6s3.6-1.6,3.6-3.6S938,298.1,936,298.1L936,298.1z"/>
		<g>
			<line class="st2" x1="986.4" y1="118.1" x2="986.4" y2="161.3"/>
			<line class="st2" x1="997.2" y1="128.9" x2="997.2" y2="150.5"/>
			<line class="st2" x1="997.2" y1="157.7" x2="997.2" y2="172.1"/>
			<line class="st2" x1="997.2" y1="107.3" x2="997.2" y2="121.7"/>
			<line class="st2" x1="986.4" y1="139.7" x2="972" y2="139.7"/>
			<line class="st2" x1="1011.6" y1="164.9" x2="997.2" y2="164.9"/>
			<line class="st2" x1="1011.6" y1="114.5" x2="997.2" y2="114.5"/>
		</g>
		<g>
			<line class="st2" x1="986.4" y1="442.1" x2="986.4" y2="485.3"/>
			<line class="st2" x1="997.2" y1="452.9" x2="997.2" y2="474.5"/>
			<line class="st2" x1="997.2" y1="481.7" x2="997.2" y2="496.1"/>
			<line class="st2" x1="997.2" y1="431.3" x2="997.2" y2="445.7"/>
			<line class="st2" x1="986.4" y1="463.7" x2="972" y2="463.7"/>
			<line class="st2" x1="1011.6" y1="488.9" x2="997.2" y2="488.9"/>
			<line class="st2" x1="1011.6" y1="438.5" x2="997.2" y2="438.5"/>
		</g>
		<polyline class="st2" points="1011.6,438.5 1026,438.5 1026,164.9 1011.6,164.9 		"/>
		<polyline class="st2" points="1026,521.3 1026,488.9 1011.6,488.9 		"/>
		<polygon class="st2" points="1026,521.3 1044,521.3 1035,532.1 1026,542.9 1017,532.1 1008,521.3 		"/>
		<circle class="st2" cx="1058.4" cy="78.5" r="7.2"/>
		<polyline class="st2" points="1058.4,85.7 1058.4,114.5 1011.6,114.5 		"/>
		<line class="st2" x1="972" y1="463.7" x2="957.6" y2="463.7"/>
		<line class="st2" x1="972" y1="139.7" x2="957.6" y2="139.7"/>
		<line class="st2" x1="957.6" y1="139.7" x2="957.6" y2="463.7"/>
		<path class="st3" d="M957.6,298.1c-2,0-3.6,1.6-3.6,3.6s1.6,3.6,3.6,3.6s3.6-1.6,3.6-3.6S959.6,298.1,957.6,298.1L957.6,298.1z"/>
		<line class="st2" x1="936" y1="301.7" x2="957.6" y2="301.7"/>
		<line class="st2" x1="568.8" y1="355.7" x2="554.4" y2="355.7"/>
		<line class="st2" x1="568.8" y1="247.7" x2="554.4" y2="247.7"/>
		<polyline class="st2" points="568.8,139.7 554.4,139.7 554.4,463.7 568.8,463.7 		"/>
		<path class="st3" d="M554.4,352.1c-2,0-3.6,1.6-3.6,3.6s1.6,3.6,3.6,3.6s3.6-1.6,3.6-3.6S556.4,352.1,554.4,352.1L554.4,352.1z"/>
		<path class="st3" d="M554.4,244.1c-2,0-3.6,1.6-3.6,3.6s1.6,3.6,3.6,3.6s3.6-1.6,3.6-3.6S556.4,244.1,554.4,244.1L554.4,244.1z"/>
		<circle class="st2" cx="1058.4" cy="301.7" r="7.2"/>
		<line class="st2" x1="1026" y1="301.7" x2="1051.2" y2="301.7"/>
		<path class="st3" d="M1026,298.1c-2,0-3.6,1.6-3.6,3.6s1.6,3.6,3.6,3.6s3.6-1.6,3.6-3.6S1028,298.1,1026,298.1L1026,298.1z"/>
		<circle class="st2" cx="522" cy="301.7" r="7.2"/>
		<line class="st2" x1="554.4" y1="301.7" x2="529.2" y2="301.7"/>
	</g>
</g>
<g id="Ebene_2">
	<g id="Ebene_4">
		<g class="st4">
			<path class="st3" d="M606.9,139.9v3.3h-1.1v-8.5h3.1c0.9,0,1.7,0.2,2.2,0.7s0.8,1.1,0.8,1.9c0,0.8-0.3,1.5-0.8,1.9
				s-1.3,0.7-2.2,0.7H606.9z M606.9,139h2c0.6,0,1.1-0.1,1.4-0.4c0.3-0.3,0.5-0.7,0.5-1.2c0-0.5-0.2-0.9-0.5-1.2
				c-0.3-0.3-0.8-0.5-1.3-0.5h-2.1V139z"/>
		</g>
		<g class="st4">
			<path class="st3" d="M606.9,247.9v3.3h-1.1v-8.5h3.1c0.9,0,1.7,0.2,2.2,0.7s0.8,1.1,0.8,1.9c0,0.8-0.3,1.5-0.8,1.9
				s-1.3,0.7-2.2,0.7H606.9z M606.9,247h2c0.6,0,1.1-0.1,1.4-0.4c0.3-0.3,0.5-0.7,0.5-1.2c0-0.5-0.2-0.9-0.5-1.2
				c-0.3-0.3-0.8-0.5-1.3-0.5h-2.1V247z"/>
		</g>
		<g class="st4">
			<path class="st3" d="M612.3,359.3h-1.1l-4.3-6.6v6.6h-1.1v-8.5h1.1l4.3,6.6v-6.6h1.1V359.3z"/>
		</g>
		<g class="st4">
			<path class="st3" d="M612.3,467.3h-1.1l-4.3-6.6v6.6h-1.1v-8.5h1.1l4.3,6.6v-6.6h1.1V467.3z"/>
		</g>
		<g class="st4">
			<path class="st3" d="M684.3,398.9h-1.1l-4.3-6.6v6.6h-1.1v-8.5h1.1l4.3,6.6v-6.6h1.1V398.9z"/>
		</g>
		<g class="st4">
			<path class="st3" d="M678.9,208.3v3.3h-1.1v-8.5h3.1c0.9,0,1.7,0.2,2.2,0.7s0.8,1.1,0.8,1.9c0,0.8-0.3,1.5-0.8,1.9
				s-1.3,0.7-2.2,0.7H678.9z M678.9,207.4h2c0.6,0,1.1-0.1,1.4-0.4c0.3-0.3,0.5-0.7,0.5-1.2c0-0.5-0.2-0.9-0.5-1.2
				c-0.3-0.3-0.8-0.5-1.3-0.5h-2.1V207.4z"/>
		</g>
		<g class="st4">
			<path class="st3" d="M844.5,139.9v3.3h-1.1v-8.5h3.1c0.9,0,1.7,0.2,2.2,0.7s0.8,1.1,0.8,1.9c0,0.8-0.3,1.5-0.8,1.9
				s-1.3,0.7-2.2,0.7H844.5z M844.5,139h2c0.6,0,1.1-0.1,1.4-0.4c0.3-0.3,0.5-0.7,0.5-1.2c0-0.5-0.2-0.9-0.5-1.2
				c-0.3-0.3-0.8-0.5-1.3-0.5h-2.1V139z"/>
		</g>
		<g class="st4">
			<path class="st3" d="M846.3,251.3h-1.1l-4.3-6.6v6.6h-1.1v-8.5h1.1l4.3,6.6v-6.6h1.1V251.3z"/>
		</g>
		<g class="st4">
			<path class="st3" d="M876.9,355.9v3.3h-1.1v-8.5h3.1c0.9,0,1.7,0.2,2.2,0.7s0.8,1.1,0.8,1.9c0,0.8-0.3,1.5-0.8,1.9
				s-1.3,0.7-2.2,0.7H876.9z M876.9,355h2c0.6,0,1.1-0.1,1.4-0.4c0.3-0.3,0.5-0.7,0.5-1.2c0-0.5-0.2-0.9-0.5-1.2
				c-0.3-0.3-0.8-0.5-1.3-0.5h-2.1V355z"/>
		</g>
		<g class="st4">
			<path class="st3" d="M882.3,467.3h-1.1l-4.3-6.6v6.6h-1.1v-8.5h1.1l4.3,6.6v-6.6h1.1V467.3z"/>
		</g>
		<g class="st4">
			<path class="st3" d="M1015.5,467.3h-1.1l-4.3-6.6v6.6h-1.1v-8.5h1.1l4.3,6.6v-6.6h1.1V467.3z"/>
		</g>
		<g class="st4">
			<path class="st3" d="M1010.1,139.9v3.3h-1.1v-8.5h3.1c0.9,0,1.7,0.2,2.2,0.7s0.8,1.1,0.8,1.9c0,0.8-0.3,1.5-0.8,1.9
				s-1.3,0.7-2.2,0.7H1010.1z M1010.1,139h2c0.6,0,1.1-0.1,1.4-0.4c0.3-0.3,0.5-0.7,0.5-1.2c0-0.5-0.2-0.9-0.5-1.2
				c-0.3-0.3-0.8-0.5-1.3-0.5h-2.1V139z"/>
		</g>
		<g class="st4">
			<path class="st3" d="M517,326.9h-1.1v-8.5h1.1V326.9z"/>
			<path class="st3" d="M525.6,326.9h-1.1l-4.3-6.6v6.6h-1.1v-8.5h1.1l4.3,6.6v-6.6h1.1V326.9z"/>
		</g>
		<g class="st4">
			<path class="st3" d="M1055.2,319.3c0,0.8-0.1,1.6-0.4,2.2s-0.7,1.1-1.2,1.4s-1.1,0.5-1.8,0.5c-0.7,0-1.3-0.2-1.8-0.5
				s-0.9-0.8-1.2-1.4s-0.4-1.3-0.4-2.1v-0.6c0-0.8,0.1-1.5,0.4-2.2s0.7-1.1,1.2-1.4s1.1-0.5,1.8-0.5c0.7,0,1.3,0.2,1.8,0.5
				s0.9,0.8,1.2,1.4s0.4,1.4,0.4,2.2V319.3z M1054,318.7c0-1-0.2-1.8-0.6-2.3s-1-0.8-1.7-0.8c-0.7,0-1.3,0.3-1.7,0.8
				s-0.6,1.3-0.6,2.3v0.6c0,1,0.2,1.8,0.6,2.3s1,0.8,1.7,0.8c0.7,0,1.3-0.3,1.7-0.8s0.6-1.3,0.6-2.3V318.7z"/>
			<path class="st3" d="M1062.8,314.7v5.8c0,0.8-0.3,1.5-0.8,2s-1.2,0.8-2,0.9l-0.3,0c-0.9,0-1.7-0.3-2.2-0.8s-0.8-1.2-0.8-2.1v-5.8
				h1.1v5.8c0,0.6,0.2,1.1,0.5,1.4s0.8,0.5,1.5,0.5c0.6,0,1.1-0.2,1.5-0.5s0.5-0.8,0.5-1.4v-5.8H1062.8z"/>
		</g>
		<g class="st4">
			<path class="st3" d="M1070.5,315.7h-2.7v7.6h-1.1v-7.6h-2.7v-0.9h6.6V315.7z"/>
		</g>
	</g>
</g>
</svg>
