<?xml version="1.0" encoding="UTF-8"?>
<svg xmlns="http://www.w3.org/2000/svg" viewBox="0 0 1080 600.48">
  <defs>
    <style>
      .cls-1, .cls-2, .cls-3 {
        font-family: Roboto-Regular, Roboto;
      }

      .cls-1, .cls-4, .cls-5, .cls-3, .cls-6 {
        fill: #c9d1d9;
      }

      .cls-7 {
        font-family: MyriadPro-Regular, 'Myriad Pro';
      }

      .cls-5, .cls-8, .cls-9, .cls-10, .cls-11 {
        stroke: #c9d1d9;
        stroke-miterlimit: 10;
      }

      .cls-8 {
        stroke-width: 2px;
      }

      .cls-8, .cls-9, .cls-10, .cls-11 {
        fill: none;
      }

      .cls-9 {
        stroke-width: 2px;
      }

      .cls-12, .cls-3, .cls-6 {
        font-size: 18px;
      }

      .cls-11 {
        stroke-width: 2.83px;
      }

      .cls-13 {
        letter-spacing: -.02em;
      }

      .cls-14 {
        letter-spacing: 0em;
      }

      .cls-15, .cls-16 {
        font-size: 12px;
      }

      .cls-16 {
        letter-spacing: -.02em;
      }
    </style>
  </defs>
  <g id="Ebene_1" data-name="Ebene 1">
    <path class="cls-4" d="m158.4,333.31c.42,0,.77.34.77.77s-.34.77-.77.77-.77-.34-.77-.77.34-.77.77-.77m0-2.83c-1.99,0-3.6,1.61-3.6,3.6s1.61,3.6,3.6,3.6,3.6-1.61,3.6-3.6-1.61-3.6-3.6-3.6h0Z"/>
    <line class="cls-9" x1="158.4" y1="355.68" x2="158.4" y2="312.48"/>
    <line class="cls-9" x1="144" y1="226.08" x2="144" y2="312.48"/>
    <rect class="cls-9" x="115.2" y="254.88" width="86.4" height="28.8" transform="translate(-110.88 427.68) rotate(-90)"/>
    <rect class="cls-9" x="115.2" y="384.48" width="86.4" height="28.8" transform="translate(-240.48 557.28) rotate(-90)"/>
    <line class="cls-9" x1="158.4" y1="517.68" x2="158.4" y2="442.08"/>
    <g>
      <line class="cls-8" x1="158.4" y1="334.08" x2="309.88" y2="334.08"/>
      <polygon class="cls-4" points="301.92 343.9 300.29 342.14 308.96 334.08 300.29 326.02 301.92 324.27 312.48 334.08 301.92 343.9"/>
    </g>
    <line class="cls-8" x1="158.4" y1="226.08" x2="158.4" y2="128.88"/>
    <text class="cls-3" transform="translate(257.86 530.14)"><tspan x="0" y="0">=</tspan></text>
    <line class="cls-10" x1="324" y1="524.88" x2="381.6" y2="524.88"/>
    <line class="cls-10" x1="357.12" y1="535.32" x2="348.48" y2="535.32"/>
    <line class="cls-10" x1="352.8" y1="531" x2="352.8" y2="539.64"/>
    <line class="cls-10" x1="318.24" y1="546.48" x2="318.24" y2="503.28"/>
    <line class="cls-10" x1="324" y1="503.28" x2="318.24" y2="503.28"/>
    <line class="cls-10" x1="324" y1="546.48" x2="318.24" y2="546.48"/>
    <line class="cls-10" x1="388.8" y1="503.28" x2="388.8" y2="546.48"/>
    <line class="cls-10" x1="383.04" y1="546.48" x2="388.8" y2="546.48"/>
    <line class="cls-10" x1="383.04" y1="503.28" x2="388.8" y2="503.28"/>
    <polygon class="cls-9" points="158.45 517.68 172.9 517.68 165.68 526.68 158.45 535.68 151.23 526.68 144 517.68 158.45 517.68"/>
    <g>
      <line class="cls-11" x1="219.6" y1="395.28" x2="192.71" y2="412.39"/>
      <polygon class="cls-4" points="192.9 406.41 180 420.48 198.21 414.75 192.9 406.41"/>
    </g>
    <g>
      <line class="cls-11" x1="219.6" y1="366.48" x2="192.71" y2="383.59"/>
      <polygon class="cls-4" points="192.9 377.61 180 391.68 198.21 385.95 192.9 377.61"/>
    </g>
    <rect class="cls-9" x="702" y="164.88" width="86.4" height="28.8" transform="translate(1490.4 358.56) rotate(180)"/>
    <g>
      <line class="cls-11" x1="741.6" y1="118.08" x2="758.71" y2="144.97"/>
      <polygon class="cls-4" points="752.73 144.78 766.8 157.68 761.07 139.47 752.73 144.78"/>
    </g>
    <g>
      <line class="cls-11" x1="712.8" y1="118.08" x2="729.91" y2="144.97"/>
      <polygon class="cls-4" points="723.93 144.78 738 157.68 732.27 139.47 723.93 144.78"/>
    </g>
    <line class="cls-9" x1="666" y1="254.88" x2="666" y2="384.48"/>
    <line class="cls-9" x1="806.4" y1="319.68" x2="666" y2="384.48"/>
    <line class="cls-9" x1="666" y1="254.88" x2="806.4" y2="319.68"/>
    <line class="cls-9" x1="706.86" y1="344.16" x2="711.18" y2="300.96"/>
    <line class="cls-9" x1="698.22" y1="344.16" x2="718.38" y2="344.16"/>
    <line class="cls-9" x1="711.18" y1="300.96" x2="731.34" y2="300.96"/>
    <line class="cls-9" x1="718.38" y1="344.16" x2="722.7" y2="300.96"/>
    <circle class="cls-9" cx="813.6" cy="319.68" r="7.2"/>
    <line class="cls-9" x1="666" y1="319.68" x2="604.8" y2="319.68"/>
    <line class="cls-9" x1="604.8" y1="179.28" x2="702" y2="179.28"/>
    <line class="cls-9" x1="788.4" y1="179.28" x2="860.4" y2="179.28"/>
    <line class="cls-9" x1="860.4" y1="179.28" x2="860.4" y2="319.68"/>
    <line class="cls-9" x1="821.52" y1="319.68" x2="860.4" y2="319.68"/>
    <g>
      <line class="cls-8" x1="860.4" y1="319.68" x2="980.63" y2="319.68"/>
      <polygon class="cls-4" points="974 327.86 972.64 326.4 979.86 319.68 972.64 312.97 974 311.5 982.8 319.68 974 327.86"/>
    </g>
    <line class="cls-9" x1="604.8" y1="179.28" x2="604.8" y2="434.88"/>
    <line class="cls-9" x1="604.8" y1="449.28" x2="604.8" y2="516.96"/>
    <polygon class="cls-9" points="590.4 516.96 619.2 516.96 604.8 534.24 590.4 516.96"/>
    <g>
      <line class="cls-8" x1="734.4" y1="287.28" x2="734.4" y2="241.5"/>
      <polygon class="cls-4" points="742.03 255.69 739.78 256.51 734.4 241.74 729.02 256.51 726.77 255.69 734.4 234.72 742.03 255.69"/>
    </g>
    <line class="cls-9" x1="734.4" y1="352.08" x2="734.4" y2="398.88"/>
    <rect class="cls-5" x="576" y="446.4" width="57.6" height="7.2"/>
    <rect class="cls-5" x="576" y="434.88" width="57.6" height="7.2"/>
    <path class="cls-4" d="m604.8,316.08c-1.99,0-3.6,1.61-3.6,3.6s1.61,3.6,3.6,3.6,3.6-1.61,3.6-3.6-1.61-3.6-3.6-3.6h0Z"/>
    <polygon class="cls-9" points="720 398.88 748.8 398.88 734.4 416.16 720 398.88"/>
    <path class="cls-4" d="m860.4,316.08c-1.99,0-3.6,1.61-3.6,3.6s1.61,3.6,3.6,3.6,3.6-1.61,3.6-3.6-1.61-3.6-3.6-3.6h0Z"/>
  </g>
  <g id="TEXT">
    <text class="cls-6" transform="translate(103.86 274.54)"><tspan class="cls-2" x="0" y="0">R</tspan><tspan class="cls-7" x="11.08" y="0">₁</tspan></text>
    <text class="cls-6" transform="translate(106.86 404.14)"><tspan class="cls-2" x="0" y="0">R</tspan><tspan class="cls-7" x="11.08" y="0">₂</tspan></text>
    <g>
      <path class="cls-4" d="m59.72,58.24l3.66-10.56h1.85l-4.75,12.8h-1.49l-4.74-12.8h1.84l3.64,10.56Z"/>
      <path class="cls-4" d="m65.85,55.64c0-.93.18-1.77.55-2.51s.88-1.32,1.53-1.72,1.4-.61,2.24-.61c1.29,0,2.34.45,3.14,1.34s1.2,2.09,1.2,3.58v.11c0,.93-.18,1.76-.53,2.49s-.86,1.31-1.52,1.72-1.42.62-2.27.62c-1.29,0-2.33-.45-3.13-1.34s-1.2-2.08-1.2-3.56v-.11Zm1.63.19c0,1.05.24,1.9.73,2.54s1.14.96,1.96.96,1.48-.32,1.97-.97.73-1.55.73-2.72c0-1.04-.25-1.89-.74-2.54s-1.15-.97-1.97-.97-1.45.32-1.94.96-.74,1.55-.74,2.74Z"/>
      <path class="cls-4" d="m78.31,60.48h-1.63v-13.5h1.63v13.5Z"/>
      <path class="cls-4" d="m83.12,48.67v2.3h1.78v1.26h-1.78v5.9c0,.38.08.67.24.86.16.19.43.29.81.29.19,0,.45-.04.77-.11v1.31c-.43.12-.84.17-1.25.17-.73,0-1.27-.22-1.64-.66s-.55-1.06-.55-1.87v-5.9h-1.73v-1.26h1.73v-2.3h1.63Z"/>
      <path class="cls-4" d="m92.66,60.48c-.09-.19-.17-.52-.23-1-.76.79-1.66,1.18-2.71,1.18-.94,0-1.71-.27-2.31-.8s-.9-1.2-.9-2.02c0-.99.38-1.76,1.13-2.31s1.81-.82,3.18-.82h1.58v-.75c0-.57-.17-1.02-.51-1.36s-.84-.51-1.5-.51c-.58,0-1.07.15-1.46.44s-.59.65-.59,1.06h-1.63c0-.47.17-.93.51-1.38s.79-.79,1.37-1.05,1.21-.39,1.9-.39c1.1,0,1.95.27,2.58.82s.94,1.3.97,2.26v4.38c0,.87.11,1.57.33,2.08v.14h-1.71Zm-2.7-1.24c.51,0,.99-.13,1.45-.4s.79-.61.99-1.03v-1.95h-1.27c-1.99,0-2.99.58-2.99,1.75,0,.51.17.91.51,1.2s.78.43,1.31.43Z"/>
      <path class="cls-4" d="m96.2,55.65c0-1.48.34-2.66,1.03-3.54s1.59-1.31,2.72-1.31,2.07.41,2.72,1.23l.08-1.05h1.49v9.28c0,1.23-.36,2.2-1.09,2.91s-1.71,1.06-2.94,1.06c-.69,0-1.36-.15-2.01-.44s-1.16-.69-1.5-1.2l.84-.98c.7.86,1.55,1.29,2.56,1.29.79,0,1.41-.22,1.85-.67s.66-1.07.66-1.88v-.82c-.65.75-1.54,1.12-2.66,1.12s-2.01-.45-2.7-1.34-1.03-2.12-1.03-3.67Zm1.63.18c0,1.07.22,1.91.66,2.53s1.05.92,1.85.92c1.03,0,1.78-.47,2.26-1.4v-4.34c-.5-.91-1.25-1.36-2.24-1.36-.79,0-1.41.31-1.85.92s-.67,1.53-.67,2.73Z"/>
      <path class="cls-4" d="m110.63,60.66c-1.29,0-2.34-.42-3.15-1.27s-1.21-1.98-1.21-3.4v-.3c0-.94.18-1.79.54-2.53s.86-1.32,1.51-1.74,1.35-.63,2.1-.63c1.24,0,2.2.41,2.88,1.22s1.03,1.98,1.03,3.5v.68h-6.44c.02.94.3,1.69.82,2.27s1.19.87,2,.87c.57,0,1.06-.12,1.46-.35s.75-.54,1.05-.93l.99.77c-.8,1.22-1.99,1.84-3.59,1.84Zm-.2-8.53c-.66,0-1.21.24-1.65.72s-.72,1.15-.83,2.01h4.76v-.12c-.05-.83-.27-1.47-.67-1.92s-.94-.68-1.62-.68Z"/>
      <path class="cls-4" d="m120.28,55.65c0-1.46.35-2.63,1.04-3.52s1.6-1.33,2.72-1.33,2,.38,2.65,1.14v-4.96h1.63v13.5h-1.49l-.08-1.02c-.65.8-1.56,1.2-2.72,1.2s-2-.45-2.69-1.35-1.04-2.08-1.04-3.53v-.12Zm1.63.18c0,1.08.22,1.92.67,2.53s1.06.91,1.85.91c1.03,0,1.78-.46,2.26-1.39v-4.37c-.49-.9-1.23-1.34-2.24-1.34-.8,0-1.42.31-1.86.92s-.67,1.53-.67,2.73Z"/>
      <path class="cls-4" d="m130.83,48.45c0-.26.08-.49.24-.67s.4-.27.72-.27.56.09.72.27.25.4.25.67-.08.48-.25.66-.4.26-.72.26-.56-.09-.72-.26-.24-.4-.24-.66Zm1.76,12.03h-1.63v-9.51h1.63v9.51Z"/>
      <path class="cls-4" d="m138.33,58.27l2.36-7.3h1.66l-3.41,9.51h-1.24l-3.45-9.51h1.66l2.42,7.3Z"/>
      <path class="cls-4" d="m143.92,48.45c0-.26.08-.49.24-.67s.4-.27.72-.27.56.09.72.27.25.4.25.67-.08.48-.25.66-.4.26-.72.26-.56-.09-.72-.26-.24-.4-.24-.66Zm1.76,12.03h-1.63v-9.51h1.63v9.51Z"/>
      <path class="cls-4" d="m147.88,55.65c0-1.46.35-2.63,1.04-3.52s1.6-1.33,2.72-1.33,2,.38,2.65,1.14v-4.96h1.63v13.5h-1.49l-.08-1.02c-.65.8-1.56,1.2-2.72,1.2s-2-.45-2.69-1.35-1.04-2.08-1.04-3.53v-.12Zm1.63.18c0,1.08.22,1.92.67,2.53s1.06.91,1.85.91c1.03,0,1.78-.46,2.26-1.39v-4.37c-.49-.9-1.23-1.34-2.24-1.34-.8,0-1.42.31-1.86.92s-.67,1.53-.67,2.73Z"/>
      <path class="cls-4" d="m162.38,60.66c-1.29,0-2.34-.42-3.15-1.27s-1.21-1.98-1.21-3.4v-.3c0-.94.18-1.79.54-2.53s.86-1.32,1.51-1.74,1.35-.63,2.1-.63c1.24,0,2.2.41,2.88,1.22s1.03,1.98,1.03,3.5v.68h-6.44c.02.94.3,1.69.82,2.27s1.19.87,2,.87c.57,0,1.06-.12,1.46-.35s.75-.54,1.05-.93l.99.77c-.8,1.22-1.99,1.84-3.59,1.84Zm-.2-8.53c-.66,0-1.21.24-1.65.72s-.72,1.15-.83,2.01h4.76v-.12c-.05-.83-.27-1.47-.67-1.92s-.94-.68-1.62-.68Z"/>
      <path class="cls-4" d="m172.56,52.43c-.25-.04-.51-.06-.8-.06-1.07,0-1.79.45-2.17,1.36v6.75h-1.63v-9.51h1.58l.03,1.1c.53-.85,1.29-1.27,2.27-1.27.32,0,.56.04.72.12v1.51Z"/>
      <path class="cls-4" d="m63.65,79.84l1.83-7.27h1.63l-2.77,9.51h-1.32l-2.31-7.21-2.25,7.21h-1.32l-2.76-9.51h1.62l1.87,7.12,2.21-7.12h1.31l2.26,7.27Z"/>
      <path class="cls-4" d="m68.77,70.05c0-.26.08-.49.24-.67s.4-.27.72-.27.56.09.72.27.25.4.25.67-.08.48-.25.66-.4.26-.72.26-.56-.09-.72-.26-.24-.4-.24-.66Zm1.76,12.03h-1.63v-9.51h1.63v9.51Z"/>
      <path class="cls-4" d="m75.33,70.27v2.3h1.78v1.26h-1.78v5.9c0,.38.08.67.24.86.16.19.43.29.81.29.19,0,.45-.04.77-.11v1.31c-.43.12-.84.17-1.25.17-.73,0-1.27-.22-1.64-.66s-.55-1.06-.55-1.87v-5.9h-1.73v-1.26h1.73v-2.3h1.63Z"/>
      <path class="cls-4" d="m80.63,73.72c.72-.88,1.66-1.33,2.81-1.33,2.01,0,3.02,1.13,3.04,3.4v6.28h-1.63v-6.29c0-.69-.16-1.19-.47-1.52s-.79-.49-1.44-.49c-.53,0-.99.14-1.39.42s-.71.65-.93,1.11v6.78h-1.63v-13.5h1.63v5.14Z"/>
      <path class="cls-4" d="m95.14,82.08h-1.63v-13.5h1.63v13.5Z"/>
      <path class="cls-4" d="m97.75,70.05c0-.26.08-.49.24-.67s.4-.27.72-.27.56.09.72.27.25.4.25.67-.08.48-.25.66-.4.26-.72.26-.56-.09-.72-.26-.24-.4-.24-.66Zm1.76,12.03h-1.63v-9.51h1.63v9.51Z"/>
      <path class="cls-4" d="m101.72,77.25c0-1.48.34-2.66,1.03-3.54s1.59-1.31,2.72-1.31,2.07.41,2.72,1.23l.08-1.05h1.49v9.28c0,1.23-.36,2.2-1.09,2.91s-1.71,1.06-2.94,1.06c-.69,0-1.36-.15-2.01-.44s-1.16-.69-1.5-1.2l.84-.98c.7.86,1.55,1.29,2.56,1.29.79,0,1.41-.22,1.85-.67s.66-1.07.66-1.88v-.82c-.65.75-1.54,1.12-2.66,1.12s-2.01-.45-2.7-1.34-1.03-2.12-1.03-3.67Zm1.63.18c0,1.07.22,1.91.66,2.53s1.05.92,1.85.92c1.03,0,1.78-.47,2.26-1.4v-4.34c-.5-.91-1.25-1.36-2.24-1.36-.79,0-1.41.31-1.85.92s-.67,1.53-.67,2.73Z"/>
      <path class="cls-4" d="m113.84,73.72c.72-.88,1.66-1.33,2.81-1.33,2.01,0,3.02,1.13,3.04,3.4v6.28h-1.63v-6.29c0-.69-.16-1.19-.47-1.52s-.79-.49-1.44-.49c-.53,0-.99.14-1.39.42s-.71.65-.93,1.11v6.78h-1.63v-13.5h1.63v5.14Z"/>
      <path class="cls-4" d="m124.33,70.27v2.3h1.78v1.26h-1.78v5.9c0,.38.08.67.24.86.16.19.43.29.81.29.19,0,.45-.04.77-.11v1.31c-.43.12-.84.17-1.25.17-.73,0-1.27-.22-1.64-.66s-.55-1.06-.55-1.87v-5.9h-1.73v-1.26h1.73v-2.3h1.63Z"/>
      <path class="cls-4" d="m131.39,77.31h-4.29v-1.33h4.29v1.33Z"/>
      <path class="cls-4" d="m132.57,77.25c0-1.46.35-2.63,1.04-3.52s1.6-1.33,2.72-1.33,2,.38,2.65,1.14v-4.96h1.63v13.5h-1.49l-.08-1.02c-.65.8-1.56,1.2-2.72,1.2s-2-.45-2.69-1.35-1.04-2.08-1.04-3.53v-.12Zm1.63.18c0,1.08.22,1.92.67,2.53s1.06.91,1.85.91c1.03,0,1.78-.46,2.26-1.39v-4.37c-.49-.9-1.23-1.34-2.24-1.34-.8,0-1.42.31-1.86.92s-.67,1.53-.67,2.73Z"/>
      <path class="cls-4" d="m147.07,82.26c-1.29,0-2.34-.42-3.15-1.27s-1.21-1.98-1.21-3.4v-.3c0-.94.18-1.79.54-2.53s.86-1.32,1.51-1.74,1.35-.63,2.1-.63c1.24,0,2.2.41,2.88,1.22s1.03,1.98,1.03,3.5v.68h-6.44c.02.94.3,1.69.82,2.27s1.19.87,2,.87c.57,0,1.06-.12,1.46-.35s.75-.54,1.05-.93l.99.77c-.8,1.22-1.99,1.84-3.59,1.84Zm-.2-8.53c-.66,0-1.21.24-1.65.72s-.72,1.15-.83,2.01h4.76v-.12c-.05-.83-.27-1.47-.67-1.92s-.94-.68-1.62-.68Z"/>
      <path class="cls-4" d="m160.69,77.43c0,1.45-.33,2.61-.99,3.5s-1.56,1.33-2.69,1.33-2.06-.37-2.72-1.1v4.58h-1.63v-13.17h1.49l.08,1.05c.66-.82,1.58-1.23,2.76-1.23s2.05.43,2.71,1.29,1,2.06,1,3.59v.15Zm-1.63-.18c0-1.07-.23-1.92-.69-2.54s-1.08-.93-1.88-.93c-.98,0-1.72.44-2.21,1.31v4.54c.49.87,1.23,1.3,2.23,1.3.78,0,1.4-.31,1.86-.93s.69-1.54.69-2.76Z"/>
      <path class="cls-4" d="m166.7,82.26c-1.29,0-2.34-.42-3.15-1.27s-1.21-1.98-1.21-3.4v-.3c0-.94.18-1.79.54-2.53s.86-1.32,1.51-1.74,1.35-.63,2.1-.63c1.24,0,2.2.41,2.88,1.22s1.03,1.98,1.03,3.5v.68h-6.44c.02.94.3,1.69.82,2.27s1.19.87,2,.87c.57,0,1.06-.12,1.46-.35s.75-.54,1.05-.93l.99.77c-.8,1.22-1.99,1.84-3.59,1.84Zm-.2-8.53c-.66,0-1.21.24-1.65.72s-.72,1.15-.83,2.01h4.76v-.12c-.05-.83-.27-1.47-.67-1.92s-.94-.68-1.62-.68Z"/>
      <path class="cls-4" d="m173.83,72.57l.05,1.2c.73-.91,1.68-1.37,2.85-1.37,2.01,0,3.02,1.13,3.04,3.4v6.28h-1.63v-6.29c0-.69-.16-1.19-.47-1.52s-.79-.49-1.44-.49c-.53,0-.99.14-1.39.42s-.71.65-.93,1.11v6.78h-1.63v-9.51h1.54Z"/>
      <path class="cls-4" d="m181.83,77.25c0-1.46.35-2.63,1.04-3.52s1.6-1.33,2.72-1.33,2,.38,2.65,1.14v-4.96h1.63v13.5h-1.49l-.08-1.02c-.65.8-1.56,1.2-2.72,1.2s-2-.45-2.69-1.35-1.04-2.08-1.04-3.53v-.12Zm1.63.18c0,1.08.22,1.92.67,2.53s1.06.91,1.85.91c1.03,0,1.78-.46,2.26-1.39v-4.37c-.49-.9-1.23-1.34-2.24-1.34-.8,0-1.42.31-1.86.92s-.67,1.53-.67,2.73Z"/>
      <path class="cls-4" d="m196.32,82.26c-1.29,0-2.34-.42-3.15-1.27s-1.21-1.98-1.21-3.4v-.3c0-.94.18-1.79.54-2.53s.86-1.32,1.51-1.74,1.35-.63,2.1-.63c1.24,0,2.2.41,2.88,1.22s1.03,1.98,1.03,3.5v.68h-6.44c.02.94.3,1.69.82,2.27s1.19.87,2,.87c.57,0,1.06-.12,1.46-.35s.75-.54,1.05-.93l.99.77c-.8,1.22-1.99,1.84-3.59,1.84Zm-.2-8.53c-.66,0-1.21.24-1.65.72s-.72,1.15-.83,2.01h4.76v-.12c-.05-.83-.27-1.47-.67-1.92s-.94-.68-1.62-.68Z"/>
      <path class="cls-4" d="m203.45,72.57l.05,1.2c.73-.91,1.68-1.37,2.85-1.37,2.01,0,3.02,1.13,3.04,3.4v6.28h-1.63v-6.29c0-.69-.16-1.19-.47-1.52s-.79-.49-1.44-.49c-.53,0-.99.14-1.39.42s-.71.65-.93,1.11v6.78h-1.63v-9.51h1.54Z"/>
      <path class="cls-4" d="m214.05,70.27v2.3h1.78v1.26h-1.78v5.9c0,.38.08.67.24.86.16.19.43.29.81.29.19,0,.45-.04.77-.11v1.31c-.43.12-.84.17-1.25.17-.73,0-1.27-.22-1.64-.66s-.55-1.06-.55-1.87v-5.9h-1.73v-1.26h1.73v-2.3h1.63Z"/>
      <path class="cls-4" d="m226.78,74.03c-.25-.04-.51-.06-.8-.06-1.07,0-1.79.45-2.17,1.36v6.75h-1.63v-9.51h1.58l.03,1.1c.53-.85,1.29-1.27,2.27-1.27.32,0,.56.04.72.12v1.51Z"/>
      <path class="cls-4" d="m232.05,82.26c-1.29,0-2.34-.42-3.15-1.27s-1.21-1.98-1.21-3.4v-.3c0-.94.18-1.79.54-2.53s.86-1.32,1.51-1.74,1.35-.63,2.1-.63c1.24,0,2.2.41,2.88,1.22s1.03,1.98,1.03,3.5v.68h-6.44c.02.94.3,1.69.82,2.27s1.19.87,2,.87c.57,0,1.06-.12,1.46-.35s.75-.54,1.05-.93l.99.77c-.8,1.22-1.99,1.84-3.59,1.84Zm-.2-8.53c-.66,0-1.21.24-1.65.72s-.72,1.15-.83,2.01h4.76v-.12c-.05-.83-.27-1.47-.67-1.92s-.94-.68-1.62-.68Z"/>
      <path class="cls-4" d="m243.18,79.56c0-.44-.17-.78-.5-1.02s-.91-.45-1.73-.63-1.48-.39-1.96-.63-.84-.54-1.07-.88-.35-.74-.35-1.21c0-.78.33-1.44.99-1.98s1.5-.81,2.53-.81c1.08,0,1.95.28,2.62.83s1.01,1.27,1.01,2.14h-1.64c0-.45-.19-.83-.57-1.15s-.85-.48-1.43-.48-1.05.13-1.39.39-.5.59-.5,1.01c0,.39.16.69.47.89s.87.39,1.68.57,1.47.4,1.97.65c.5.25.88.56,1.12.91.24.35.37.79.37,1.3,0,.85-.34,1.53-1.02,2.04-.68.51-1.56.77-2.65.77-.76,0-1.44-.13-2.02-.4s-1.04-.65-1.38-1.13-.5-1.01-.5-1.57h1.63c.03.54.25.98.65,1.3s.94.48,1.61.48c.62,0,1.11-.12,1.48-.37s.56-.58.56-1Z"/>
      <path class="cls-4" d="m246.93,70.05c0-.26.08-.49.24-.67s.4-.27.72-.27.56.09.72.27.25.4.25.67-.08.48-.25.66-.4.26-.72.26-.56-.09-.72-.26-.24-.4-.24-.66Zm1.76,12.03h-1.63v-9.51h1.63v9.51Z"/>
      <path class="cls-4" d="m256.83,79.56c0-.44-.17-.78-.5-1.02-.33-.24-.91-.45-1.73-.63s-1.48-.39-1.96-.63c-.48-.25-.84-.54-1.07-.88-.23-.34-.35-.74-.35-1.21,0-.78.33-1.44.99-1.98.66-.54,1.5-.81,2.53-.81,1.08,0,1.95.28,2.62.83s1.01,1.27,1.01,2.14h-1.63c0-.45-.19-.83-.57-1.15-.38-.32-.85-.48-1.43-.48s-1.05.13-1.39.39-.5.59-.5,1.01c0,.39.16.69.47.89s.87.39,1.68.57c.81.18,1.47.4,1.97.65s.88.56,1.12.91c.24.35.36.79.36,1.3,0,.85-.34,1.53-1.02,2.04s-1.56.77-2.65.77c-.76,0-1.44-.13-2.02-.4s-1.04-.65-1.38-1.13c-.33-.48-.5-1.01-.5-1.57h1.63c.03.54.25.98.65,1.3s.95.48,1.61.48c.62,0,1.11-.12,1.48-.37s.56-.58.56-1Z"/>
      <path class="cls-4" d="m262.78,70.27v2.3h1.78v1.26h-1.78v5.9c0,.38.08.67.24.86.16.19.43.29.81.29.19,0,.45-.04.77-.11v1.31c-.43.12-.84.17-1.25.17-.73,0-1.27-.22-1.64-.66s-.55-1.06-.55-1.87v-5.9h-1.73v-1.26h1.73v-2.3h1.63Z"/>
      <path class="cls-4" d="m265.84,77.24c0-.93.18-1.77.55-2.51.37-.74.88-1.32,1.53-1.72.65-.4,1.4-.61,2.24-.61,1.29,0,2.34.45,3.14,1.34.8.9,1.2,2.09,1.2,3.58v.11c0,.93-.18,1.76-.53,2.49-.36.74-.86,1.31-1.52,1.72-.66.41-1.42.62-2.27.62-1.29,0-2.33-.45-3.13-1.34-.8-.9-1.2-2.08-1.2-3.56v-.11Zm1.63.19c0,1.05.24,1.9.73,2.54s1.14.96,1.96.96,1.48-.32,1.97-.97.73-1.55.73-2.72c0-1.04-.25-1.89-.74-2.54s-1.15-.97-1.97-.97-1.45.32-1.94.96-.74,1.55-.74,2.74Z"/>
      <path class="cls-4" d="m281.14,74.03c-.25-.04-.51-.06-.8-.06-1.07,0-1.79.45-2.17,1.36v6.75h-1.63v-9.51h1.58l.03,1.1c.53-.85,1.29-1.27,2.27-1.27.32,0,.56.04.72.12v1.51Z"/>
      <path class="cls-4" d="m287.02,76.89c0-1.32.18-2.6.53-3.81.35-1.22.88-2.33,1.59-3.32s1.43-1.7,2.19-2.11l.33,1.07c-.86.66-1.56,1.66-2.1,3.01-.55,1.35-.85,2.86-.9,4.53v.75c0,2.26.4,4.22,1.23,5.89.5,1,1.09,1.78,1.78,2.34l-.33.99c-.78-.43-1.52-1.16-2.23-2.18-1.38-1.99-2.07-4.37-2.07-7.15Z"/>
      <path class="cls-4" d="m298.19,76.9h-3.01v5.18h-1.7v-12.8h4.24c1.44,0,2.55.33,3.33.98s1.17,1.61,1.17,2.87c0,.8-.22,1.49-.65,2.08-.43.59-1.03,1.03-1.8,1.33l3.01,5.43v.11h-1.81l-2.78-5.18Zm-3.01-1.38h2.59c.84,0,1.5-.22,2-.65.49-.43.74-1.02.74-1.74,0-.79-.24-1.4-.71-1.82-.47-.42-1.15-.64-2.04-.64h-2.58v4.86Z"/>
      <path class="cls-4" d="m308.6,88.07h-4.89v-.68l2.58-2.87c.38-.43.65-.79.79-1.06.15-.27.22-.55.22-.84,0-.39-.12-.71-.35-.96s-.55-.37-.94-.37c-.47,0-.84.13-1.1.4s-.39.64-.39,1.12h-.95c0-.69.22-1.24.66-1.67.44-.42,1.03-.64,1.78-.64.69,0,1.24.18,1.64.55.4.36.6.85.6,1.45,0,.73-.47,1.61-1.4,2.62l-2,2.17h3.75v.77Z"/>
      <path class="cls-4" d="m313.97,76.97c0,1.31-.17,2.56-.51,3.76-.34,1.2-.87,2.3-1.57,3.32-.71,1.01-1.45,1.73-2.22,2.16l-.34-.99c.9-.69,1.63-1.77,2.18-3.22.55-1.46.83-3.07.84-4.85v-.28c0-1.23-.13-2.37-.39-3.43s-.62-2.01-1.08-2.84-.98-1.49-1.55-1.96l.34-.99c.77.43,1.51,1.14,2.21,2.14s1.22,2.11,1.57,3.31c.35,1.21.52,2.5.52,3.88Z"/>
    </g>
    <text class="cls-3" transform="translate(315.44 334.08)"><tspan x="0" y="0">V</tspan></text>
    <text class="cls-3" transform="translate(326.89 340.07) scale(.58)"><tspan x="0" y="0">OU</tspan><tspan class="cls-13" x="24.05" y="0">T</tspan></text>
    <text class="cls-3" transform="translate(140 560.88)"><tspan x="0" y="0">GND</tspan></text>
    <text class="cls-3" transform="translate(147.51 117.36)"><tspan x="0" y="0">V</tspan></text>
    <text class="cls-3" transform="translate(158.96 123.35) scale(.58)"><tspan x="0" y="0">IN</tspan></text>
    <text class="cls-3" transform="translate(280.71 527.14)"><tspan x="0" y="0">V</tspan></text>
    <text class="cls-3" transform="translate(292.16 533.14) scale(.58)"><tspan x="0" y="0">IN</tspan></text>
    <text class="cls-3" transform="translate(344.31 514.08)"><tspan x="0" y="0">R</tspan></text>
    <text class="cls-3" transform="translate(355.4 520.07) scale(.58)"><tspan x="0" y="0">2</tspan></text>
    <text class="cls-3" transform="translate(214.64 527.14)"><tspan x="0" y="0">V</tspan></text>
    <text class="cls-3" transform="translate(226.09 533.14) scale(.58)"><tspan x="0" y="0">OU</tspan><tspan class="cls-13" x="24.05" y="0">T</tspan></text>
    <text class="cls-3" transform="translate(362.31 542.88)"><tspan x="0" y="0">R</tspan></text>
    <text class="cls-3" transform="translate(373.4 548.87) scale(.58)"><tspan x="0" y="0">2</tspan></text>
    <text class="cls-3" transform="translate(329.91 542.88)"><tspan x="0" y="0">R</tspan></text>
    <text class="cls-3" transform="translate(341 548.87) scale(.58)"><tspan x="0" y="0">1</tspan></text>
    <text class="cls-3" transform="translate(576 68.91)"><tspan x="0" y="0">Light cont</tspan><tspan class="cls-14" x="79.9" y="0">r</tspan><tspan x="85.82" y="0">olled oscilla</tspan><tspan class="cls-14" x="180.83" y="0">t</tspan><tspan x="186.53" y="0">or with CD40106</tspan></text>
    <text class="cls-3" transform="translate(732.51 211.68)"><tspan x="0" y="0">LDR</tspan></text>
    <text class="cls-3" transform="translate(644.84 436.32)"><tspan x="0" y="0">C</tspan></text>
    <text class="cls-1" transform="translate(971.89 303.84)"><tspan class="cls-12" x="0" y="0">V</tspan><tspan class="cls-15" x="11.45" y="0">OU</tspan><tspan class="cls-16" x="27.48" y="0">T</tspan></text>
    <text class="cls-3" transform="translate(775.4 364.32)"><tspan x="0" y="0">1/6 CD40106 </tspan></text>
    <text class="cls-3" transform="translate(744.65 244.08)"><tspan x="0" y="0">V</tspan></text>
    <text class="cls-3" transform="translate(756.11 250.07) scale(.58)"><tspan x="0" y="0">DD</tspan></text>
    <text class="cls-3" transform="translate(651.41 317.34)"><tspan x="0" y="0">1</tspan></text>
    <text class="cls-3" transform="translate(801.17 308.7)"><tspan x="0" y="0">2</tspan></text>
    <text class="cls-3" transform="translate(743.55 284.22)"><tspan x="0" y="0">14</tspan></text>
    <text class="cls-3" transform="translate(742.13 373.5)"><tspan x="0" y="0">7</tspan></text>
    <text class="cls-3" transform="translate(611.55 553.68)"><tspan x="0" y="0">GND</tspan></text>
    <text class="cls-3" transform="translate(748.35 431.28)"><tspan x="0" y="0">GND</tspan></text>
  </g>
</svg>