<?xml version="1.0" encoding="UTF-8"?><svg xmlns="http://www.w3.org/2000/svg" viewBox="0 0 1080 600.48"><defs><style>.cls-1{stroke-width:3px;}.cls-1,.cls-2,.cls-3,.cls-4,.cls-5,.cls-6,.cls-7,.cls-8,.cls-9,.cls-10,.cls-11,.cls-12,.cls-13,.cls-14,.cls-15,.cls-16,.cls-17{stroke:#cad2d9;stroke-miterlimit:10;}.cls-1,.cls-2,.cls-4,.cls-5,.cls-6,.cls-7,.cls-8,.cls-9,.cls-10,.cls-11,.cls-12,.cls-15,.cls-16,.cls-17{fill:none;}.cls-18,.cls-19,.cls-3,.cls-20,.cls-21,.cls-13,.cls-14{fill:#cad2d9;}.cls-18,.cls-20,.cls-21{font-family:Roboto-Regular, Roboto;}.cls-2{stroke-dasharray:0 0 4.23 3.69;}.cls-2,.cls-8,.cls-15{stroke-width:.52px;}.cls-22{fill:#fff;}.cls-3,.cls-9{stroke-width:2px;}.cls-23{letter-spacing:-.03em;}.cls-20{font-size:8px;}.cls-4,.cls-13{stroke-width:.69px;}.cls-5{stroke-dasharray:0 0 4.39 4.39;}.cls-5,.cls-7,.cls-16{stroke-width:.39px;}.cls-6{stroke-width:.75px;}.cls-7{stroke-dasharray:0 0 4.22 4.22;}.cls-10{stroke-dasharray:0 0 3.95 3.45;}.cls-10,.cls-12,.cls-17{stroke-width:.5px;}.cls-24,.cls-21{font-size:18px;}.cls-12{stroke-dasharray:0 0 4.15 3.62;}.cls-25{letter-spacing:0em;}.cls-26{letter-spacing:-.02em;}.cls-27{letter-spacing:-.02em;}.cls-28{font-size:12px;}.cls-29{letter-spacing:-.07em;}.cls-14{stroke-width:.69px;}.cls-15{stroke-dasharray:0 0 4.26 3.72;}</style></defs><g id="Field"><g><rect class="cls-14" x="761.76" y="300.96" width="31.68" height="2.88"/><rect class="cls-14" x="761.76" y="306.72" width="31.68" height="2.88"/></g><rect class="cls-13" x="643.68" y="367.2" width="31.68" height="2.88"/><rect class="cls-13" x="882.72" y="270.72" width="31.68" height="2.88" transform="translate(626.4 1170.72) rotate(-90)"/><circle class="cls-3" cx="777.6" cy="273.6" r="1.44"/><rect class="cls-13" x="646.56" y="156.96" width="31.68" height="2.88" transform="translate(504 820.8) rotate(-90)"/></g><g id="Line"><line class="cls-1" x1="126.72" y1="154.08" x2="198.72" y2="154.08"/><line class="cls-1" x1="227.52" y1="154.08" x2="299.52" y2="154.08"/><path class="cls-1" d="M227.52,154.08c0,7.95-6.45,14.4-14.4,14.4s-14.4-6.45-14.4-14.4"/><rect class="cls-11" x="97.92" y="182.88" width="28.8" height="28.8"/><rect class="cls-11" x="97.92" y="240.48" width="28.8" height="28.8"/><rect class="cls-11" x="97.92" y="298.08" width="28.8" height="28.8"/><line class="cls-1" x1="126.72" y1="154.08" x2="126.72" y2="413.28"/><line class="cls-1" x1="126.72" y1="413.28" x2="299.52" y2="413.28"/><line class="cls-1" x1="299.52" y1="154.08" x2="299.52" y2="412.52"/><rect class="cls-11" x="97.92" y="355.68" width="28.8" height="28.8"/><rect class="cls-11" x="299.52" y="298.08" width="28.8" height="28.8"/><rect class="cls-11" x="299.52" y="355.68" width="28.8" height="28.8"/><rect class="cls-11" x="299.52" y="182.88" width="28.8" height="28.8"/><rect class="cls-11" x="299.52" y="240.48" width="28.8" height="28.8"/><g><line class="cls-11" x1="601.92" y1="133.92" x2="601.92" y2="106.48"/><polygon class="cls-19" points="606.69 115.35 605.28 115.86 601.92 106.63 598.56 115.86 597.15 115.35 601.92 102.24 606.69 115.35"/></g><rect class="cls-11" x="753.12" y="341.28" width="48.96" height="17.28" transform="translate(427.68 1127.52) rotate(-90)"/><polygon class="cls-9" points="695.52 273.6 580.32 216 580.32 331.2 695.52 273.6"/><polygon class="cls-11" points="218.88 283.68 167.04 257.76 167.04 309.6 218.88 283.68"/><line class="cls-11" x1="125.28" y1="313.92" x2="141.12" y2="313.92"/><line class="cls-11" x1="125.28" y1="253.44" x2="141.12" y2="253.44"/><line class="cls-11" x1="141.12" y1="296.64" x2="141.12" y2="313.92"/><line class="cls-11" x1="141.12" y1="253.44" x2="141.12" y2="270.72"/><line class="cls-11" x1="167.04" y1="296.64" x2="141.12" y2="296.64"/><line class="cls-11" x1="167.04" y1="270.72" x2="141.12" y2="270.72"/><line class="cls-11" x1="300.96" y1="371.52" x2="241.92" y2="371.52"/><line class="cls-11" x1="241.92" y1="283.68" x2="241.92" y2="371.52"/><line class="cls-11" x1="217.44" y1="283.68" x2="241.92" y2="283.68"/><rect class="cls-4" x="643.68" y="361.44" width="31.68" height="2.88"/><polygon class="cls-11" points="515.52 433.44 528.48 417.6 502.56 417.6 515.52 433.44"/><line class="cls-11" x1="580.32" y1="302.4" x2="515.52" y2="302.4"/><line class="cls-11" x1="515.52" y1="417.6" x2="515.52" y2="302.4"/><polygon class="cls-11" points="601.92 433.44 614.88 417.6 588.96 417.6 601.92 433.44"/><polygon class="cls-11" points="659.52 433.44 672.48 417.6 646.56 417.6 659.52 433.44"/><line class="cls-11" x1="601.92" y1="417.6" x2="601.92" y2="321.12"/><line class="cls-11" x1="659.52" y1="417.6" x2="659.52" y2="368.64"/><line class="cls-11" x1="659.52" y1="361.44" x2="659.52" y2="292.32"/><rect class="cls-4" x="876.96" y="270.72" width="31.68" height="2.88" transform="translate(620.64 1164.96) rotate(-90)"/><rect class="cls-4" x="640.8" y="156.96" width="31.68" height="2.88" transform="translate(498.24 815.04) rotate(-90)"/><line class="cls-11" x1="601.92" y1="226.08" x2="601.92" y2="132.48"/><line class="cls-11" x1="681.12" y1="266.4" x2="681.12" y2="158.4"/><line class="cls-11" x1="637.92" y1="158.4" x2="637.92" y2="244.8"/><line class="cls-11" x1="637.92" y1="158.4" x2="655.2" y2="158.4"/><line class="cls-11" x1="681.12" y1="158.4" x2="662.4" y2="158.4"/><g><line class="cls-11" x1="580.32" y1="244.8" x2="468.19" y2="244.8"/><polygon class="cls-19" points="473.16 238.67 474.18 239.76 468.76 244.8 474.18 249.83 473.16 250.93 466.56 244.8 473.16 238.67"/></g><polygon class="cls-11" points="777.6 433.44 790.56 417.6 764.64 417.6 777.6 433.44"/><line class="cls-11" x1="777.6" y1="417.6" x2="777.6" y2="374.4"/><line class="cls-11" x1="696.96" y1="273.6" x2="891.36" y2="273.6"/><line class="cls-11" x1="777.6" y1="308.16" x2="777.6" y2="325.44"/><line class="cls-11" x1="777.6" y1="302.4" x2="777.6" y2="273.6"/><line class="cls-11" x1="898.56" y1="273.6" x2="976.32" y2="273.6"/><g><polyline class="cls-8" points="853.92 389.58 853.92 391.68 851.82 391.68"/><line class="cls-2" x1="848.13" y1="391.68" x2="746.98" y2="391.68"/><polyline class="cls-8" points="745.14 391.68 743.04 391.68 743.04 389.58"/><line class="cls-15" x1="743.04" y1="385.87" x2="743.04" y2="291.96"/><polyline class="cls-8" points="743.04 290.1 743.04 288 745.14 288"/><line class="cls-2" x1="748.83" y1="288" x2="849.98" y2="288"/><polyline class="cls-8" points="851.82 288 853.92 288 853.92 290.1"/><line class="cls-15" x1="853.92" y1="293.81" x2="853.92" y2="387.72"/></g><g><polyline class="cls-17" points="731.52 208.24 731.52 210.24 729.52 210.24"/><line class="cls-12" x1="725.9" y1="210.24" x2="634.53" y2="210.24"/><polyline class="cls-17" points="632.72 210.24 630.72 210.24 630.72 208.24"/><line class="cls-10" x1="630.72" y1="204.79" x2="630.72" y2="110.28"/><polyline class="cls-17" points="630.72 108.56 630.72 106.56 632.72 106.56"/><line class="cls-12" x1="636.34" y1="106.56" x2="727.71" y2="106.56"/><polyline class="cls-17" points="729.52 106.56 731.52 106.56 731.52 108.56"/><line class="cls-10" x1="731.52" y1="112.01" x2="731.52" y2="206.52"/></g><g><polyline class="cls-16" points="718.56 393.81 718.56 396 716.37 396"/><line class="cls-5" x1="711.99" y1="396" x2="626.46" y2="396"/><polyline class="cls-16" points="624.27 396 622.08 396 622.08 393.81"/><line class="cls-7" x1="622.08" y1="389.59" x2="622.08" y2="332.62"/><polyline class="cls-16" points="622.08 330.51 622.08 328.32 624.27 328.32"/><line class="cls-5" x1="628.65" y1="328.32" x2="714.18" y2="328.32"/><polyline class="cls-16" points="716.37 328.32 718.56 328.32 718.56 330.51"/><line class="cls-7" x1="718.56" y1="334.73" x2="718.56" y2="391.7"/></g><g><line class="cls-6" x1="171.36" y1="296.64" x2="177.12" y2="296.64"/><line class="cls-6" x1="174.24" y1="293.76" x2="174.24" y2="299.52"/></g><line class="cls-6" x1="171.36" y1="269.28" x2="175.68" y2="269.28"/><line class="cls-11" x1="976.32" y1="259.2" x2="976.32" y2="316.8"/><g><line class="cls-11" x1="990.72" y1="316.8" x2="976.32" y2="316.8"/><line class="cls-11" x1="976.32" y1="259.2" x2="990.72" y2="259.2"/><line class="cls-11" x1="1019.52" y1="230.4" x2="990.72" y2="259.2"/><line class="cls-11" x1="1019.52" y1="345.6" x2="990.72" y2="316.8"/><line class="cls-11" x1="1019.52" y1="230.4" x2="1019.52" y2="345.6"/><line class="cls-11" x1="990.72" y1="259.2" x2="990.72" y2="316.8"/></g><line class="cls-11" x1="976.32" y1="302.4" x2="961.92" y2="302.4"/><line class="cls-11" x1="961.92" y1="417.6" x2="961.92" y2="302.4"/><polygon class="cls-11" points="961.92 433.44 974.88 417.6 948.96 417.6 961.92 433.44"/><rect class="cls-11" x="433.44" y="236.16" width="48.96" height="17.28" transform="translate(213.12 702.72) rotate(-90)"/><polygon class="cls-11" points="457.92 433.44 470.88 417.6 444.96 417.6 457.92 433.44"/><line class="cls-11" x1="457.92" y1="417.6" x2="457.92" y2="269.28"/><g><line class="cls-11" x1="457.92" y1="158.13" x2="457.92" y2="220.32"/><g><path class="cls-22" d="M454.16,158.34c0-2.08,1.68-3.76,3.76-3.76s3.76,1.68,3.76,3.76-1.68,3.76-3.76,3.76-3.76-1.68-3.76-3.76Z"/><path class="cls-19" d="M453.66,158.34c0,2.35,1.91,4.26,4.26,4.26s4.26-1.91,4.26-4.26-1.91-4.26-4.26-4.26-4.26,1.91-4.26,4.26,0-2.35,0,0Zm7.52,0c0,1.8-1.46,3.26-3.26,3.26s-3.26-1.46-3.26-3.26,1.46-3.26,3.26-3.26,3.26,1.46,3.26,3.26,0-1.8,0,0Z"/></g></g><g><line class="cls-11" x1="593.28" y1="244.8" x2="587.52" y2="244.8"/><line class="cls-11" x1="590.4" y1="247.68" x2="590.4" y2="241.92"/></g><line class="cls-11" x1="591.84" y1="302.4" x2="587.52" y2="302.4"/></g><g id="TEXT"><text class="cls-21" transform="translate(107.27 205.02)"><tspan x="0" y="0">1</tspan></text><text class="cls-21" transform="translate(107.27 262.62)"><tspan x="0" y="0">2</tspan></text><text class="cls-21" transform="translate(107.27 320.22)"><tspan x="0" y="0">3</tspan></text><text class="cls-21" transform="translate(107.27 377.82)"><tspan x="0" y="0">4</tspan></text><text class="cls-21" transform="translate(308.15 320.22)"><tspan x="0" y="0">6</tspan></text><text class="cls-21" transform="translate(309.59 377.82)"><tspan x="0" y="0">5</tspan></text><text class="cls-21" transform="translate(341.28 206.46)"><tspan x="0" y="0">GAIN</tspan></text><text class="cls-21" transform="translate(183.03 447.84)"><tspan x="0" y="0">LM 386</tspan></text><text class="cls-21" transform="translate(308.15 206.46)"><tspan x="0" y="0">8</tspan></text><text class="cls-21" transform="translate(308.15 262.62)"><tspan x="0" y="0">7</tspan></text><text class="cls-21" transform="translate(44.67 206.46)"><tspan x="0" y="0">GAIN</tspan></text><text class="cls-21" transform="translate(24.39 264.06)"><tspan x="0" y="0">- INPU</tspan><tspan class="cls-26" x="50.18" y="0">T</tspan></text><text class="cls-21" transform="translate(19.16 321.66)"><tspan x="0" y="0">+ INPU</tspan><tspan class="cls-26" x="55.42" y="0">T</tspan></text><text class="cls-21" transform="translate(48.06 379.26)"><tspan x="0" y="0">GND</tspan></text><text class="cls-21" transform="translate(341.28 379.26)"><tspan x="0" y="0">V</tspan></text><text class="cls-21" transform="translate(352.73 385.25) scale(.58)"><tspan x="0" y="0">OU</tspan><tspan class="cls-27" x="24.05" y="0">T</tspan></text><text class="cls-21" transform="translate(341.28 321.66)"><tspan x="0" y="0">V</tspan></text><text class="cls-21" transform="translate(352.73 327.65) scale(.58)"><tspan x="0" y="0">CC</tspan></text><text class="cls-21" transform="translate(339.84 264.06)"><tspan class="cls-23" x="0" y="0">B</tspan><tspan x="10.72" y="0">Y</tspan><tspan class="cls-29" x="21.53" y="0">P</tspan><tspan x="31.68" y="0">ASS</tspan></text><g><path class="cls-19" d="M801.06,353.38h-3.01v5.18h-1.7v-12.8h4.24c1.44,0,2.55,.33,3.33,.98s1.17,1.61,1.17,2.87c0,.8-.22,1.49-.65,2.08s-1.03,1.03-1.8,1.33l3.01,5.43v.11h-1.81l-2.78-5.18Zm-3.01-1.38h2.59c.84,0,1.5-.22,2-.65s.74-1.02,.74-1.74c0-.79-.24-1.4-.71-1.82-.47-.42-1.15-.64-2.04-.64h-2.58v4.86Z"/><path class="cls-19" d="M812.37,358.56h-1.63v-10.84l-3.28,1.2v-1.48l4.66-1.75h.25v12.86Z"/><path class="cls-19" d="M801.29,380.16h-1.63v-10.84l-3.28,1.2v-1.48l4.66-1.75h.25v12.86Z"/><path class="cls-19" d="M814.07,374.7c0,1.9-.33,3.32-.98,4.25s-1.67,1.39-3.05,1.39-2.38-.45-3.03-1.36-1-2.26-1.02-4.06v-2.17c0-1.88,.33-3.28,.98-4.19s1.67-1.37,3.06-1.37,2.39,.44,3.04,1.32,.98,2.24,1,4.08v2.11Zm-1.63-2.22c0-1.38-.19-2.38-.58-3.01s-1-.94-1.84-.94-1.44,.31-1.82,.94-.58,1.59-.59,2.89v2.6c0,1.38,.2,2.4,.6,3.06s1.01,.99,1.82,.99,1.4-.31,1.79-.93,.59-1.6,.61-2.94v-2.66Z"/><path class="cls-19" d="M821.57,378.74c.81-.16,1.44-.65,1.89-1.49,.45-.83,.69-1.93,.7-3.31v-1.18c0-1.35-.28-2.39-.85-3.11-.57-.72-1.35-1.08-2.34-1.08s-1.77,.37-2.33,1.1c-.56,.73-.84,1.77-.84,3.11v.99c0,1.41,.23,2.55,.69,3.41,.46,.87,1.12,1.38,1.96,1.55v1.42h-4.32v-1.38h1.94c-.62-.6-1.11-1.35-1.46-2.25s-.53-1.82-.53-2.77v-.98c0-1.09,.21-2.06,.62-2.92s.99-1.52,1.74-1.98,1.59-.7,2.53-.7,1.78,.23,2.52,.69,1.32,1.1,1.74,1.93,.63,1.78,.65,2.83v1.14c0,.94-.18,1.86-.53,2.75s-.84,1.65-1.46,2.25h1.93v1.38h-4.25v-1.42Z"/></g><text class="cls-21" transform="translate(582.47 205.02)"><tspan x="0" y="0">6</tspan></text><text class="cls-21" transform="translate(583.47 455.04)"><tspan x="0" y="0">GND</tspan></text><text class="cls-18" transform="translate(569.66 102.24)"><tspan class="cls-24" x="0" y="0">V</tspan><tspan class="cls-28" x="11.45" y="0">CC</tspan></text><text class="cls-21" transform="translate(650.07 128.16)"><tspan x="0" y="0">GAIN 200</tspan></text><text class="cls-21" transform="translate(667.43 253.98)"><tspan x="0" y="0">8</tspan></text><g><path class="cls-19" d="M795.9,411.84v-12.8h4.18c1.39,0,2.43,.29,3.13,.86s1.05,1.42,1.05,2.55c0,.6-.17,1.13-.51,1.59s-.8,.82-1.39,1.07c.69,.19,1.24,.56,1.64,1.1s.6,1.19,.6,1.94c0,1.15-.37,2.05-1.12,2.71s-1.8,.98-3.16,.98h-4.44Zm1.69-7.34h2.55c.74,0,1.33-.19,1.77-.55,.44-.37,.66-.87,.66-1.51,0-.7-.21-1.22-.62-1.54-.41-.32-1.03-.48-1.87-.48h-2.5v4.08Zm0,1.35v4.61h2.79c.79,0,1.41-.2,1.86-.61s.68-.97,.68-1.68c0-1.54-.84-2.31-2.51-2.31h-2.81Z"/><path class="cls-19" d="M806.42,407c0-.93,.18-1.77,.55-2.51s.88-1.32,1.53-1.72,1.4-.61,2.24-.61c1.29,0,2.34,.45,3.14,1.34s1.2,2.09,1.2,3.58v.11c0,.93-.18,1.76-.53,2.49s-.86,1.31-1.52,1.72-1.42,.62-2.27,.62c-1.29,0-2.33-.45-3.13-1.34s-1.2-2.08-1.2-3.56v-.11Zm1.63,.19c0,1.05,.25,1.9,.73,2.54s1.14,.96,1.96,.96,1.48-.32,1.97-.97,.73-1.55,.73-2.72c0-1.04-.25-1.89-.74-2.54s-1.15-.97-1.97-.97-1.45,.32-1.94,.96-.74,1.55-.74,2.74Z"/><path class="cls-19" d="M822.99,410.9c-.63,.74-1.56,1.12-2.79,1.12-1.01,0-1.79-.29-2.32-.88s-.8-1.46-.8-2.61v-6.19h1.63v6.14c0,1.44,.59,2.16,1.76,2.16,1.24,0,2.07-.46,2.48-1.39v-6.92h1.63v9.51h-1.55l-.04-.94Z"/><path class="cls-19" d="M830.85,410.69c.58,0,1.09-.18,1.52-.53s.67-.79,.72-1.32h1.54c-.03,.54-.22,1.06-.56,1.56s-.81,.88-1.38,1.18-1.19,.44-1.83,.44c-1.29,0-2.32-.43-3.09-1.3s-1.15-2.05-1.15-3.55v-.27c0-.93,.17-1.75,.51-2.47s.83-1.28,1.46-1.68,1.39-.6,2.25-.6c1.07,0,1.95,.32,2.66,.96s1.08,1.47,1.13,2.49h-1.54c-.05-.62-.28-1.12-.7-1.52s-.94-.59-1.55-.59c-.83,0-1.47,.3-1.92,.89s-.68,1.46-.68,2.58v.31c0,1.1,.23,1.94,.68,2.53s1.1,.89,1.93,.89Z"/><path class="cls-19" d="M838.08,403.48c.72-.88,1.66-1.33,2.81-1.33,2.01,0,3.02,1.13,3.04,3.4v6.28h-1.63v-6.29c0-.69-.16-1.19-.47-1.52s-.79-.49-1.44-.49c-.53,0-.99,.14-1.39,.42s-.71,.65-.93,1.11v6.78h-1.63v-13.5h1.63v5.14Z"/><path class="cls-19" d="M850.32,412.02c-1.29,0-2.34-.42-3.15-1.27s-1.21-1.98-1.21-3.4v-.3c0-.94,.18-1.79,.54-2.53s.86-1.32,1.51-1.74,1.35-.63,2.1-.63c1.24,0,2.2,.41,2.88,1.22s1.03,1.98,1.03,3.5v.68h-6.44c.02,.94,.3,1.69,.82,2.27s1.19,.87,2,.87c.57,0,1.06-.12,1.46-.35s.75-.54,1.05-.93l.99,.77c-.8,1.22-1.99,1.84-3.59,1.84Zm-.2-8.53c-.66,0-1.21,.24-1.65,.72s-.72,1.15-.83,2.01h4.76v-.12c-.05-.83-.27-1.47-.67-1.92s-.94-.68-1.62-.68Z"/><path class="cls-19" d="M860.51,403.79c-.25-.04-.51-.06-.8-.06-1.07,0-1.79,.45-2.17,1.36v6.75h-1.63v-9.51h1.58l.03,1.1c.53-.85,1.29-1.27,2.27-1.27,.32,0,.56,.04,.72,.12v1.51Z"/><path class="cls-19" d="M861.39,407c0-.93,.18-1.77,.55-2.51s.88-1.32,1.53-1.72,1.4-.61,2.24-.61c1.29,0,2.34,.45,3.14,1.34s1.2,2.09,1.2,3.58v.11c0,.93-.18,1.76-.53,2.49s-.86,1.31-1.52,1.72-1.42,.62-2.27,.62c-1.29,0-2.33-.45-3.13-1.34s-1.2-2.08-1.2-3.56v-.11Zm1.63,.19c0,1.05,.25,1.9,.73,2.54s1.14,.96,1.96,.96,1.48-.32,1.97-.97,.73-1.55,.73-2.72c0-1.04-.25-1.89-.74-2.54s-1.15-.97-1.97-.97-1.45,.32-1.94,.96-.74,1.55-.74,2.74Z"/><path class="cls-19" d="M874.3,400.03v2.3h1.78v1.26h-1.78v5.9c0,.38,.08,.67,.24,.86s.43,.29,.81,.29c.19,0,.45-.04,.77-.11v1.31c-.43,.12-.84,.17-1.25,.17-.73,0-1.27-.22-1.64-.66s-.55-1.06-.55-1.87v-5.9h-1.73v-1.26h1.73v-2.3h1.63Z"/><path class="cls-19" d="M886.24,410.69c.58,0,1.09-.18,1.52-.53s.67-.79,.72-1.32h1.54c-.03,.54-.22,1.06-.56,1.56s-.81,.88-1.38,1.18-1.19,.44-1.83,.44c-1.29,0-2.32-.43-3.09-1.3s-1.15-2.05-1.15-3.55v-.27c0-.93,.17-1.75,.51-2.47s.83-1.28,1.46-1.68,1.39-.6,2.25-.6c1.07,0,1.95,.32,2.66,.96s1.08,1.47,1.13,2.49h-1.54c-.05-.62-.28-1.12-.7-1.52s-.94-.59-1.55-.59c-.83,0-1.47,.3-1.92,.89s-.68,1.46-.68,2.58v.31c0,1.1,.23,1.94,.68,2.53s1.1,.89,1.93,.89Z"/><path class="cls-19" d="M895.79,412.02c-1.29,0-2.34-.42-3.15-1.27s-1.21-1.98-1.21-3.4v-.3c0-.94,.18-1.79,.54-2.53s.86-1.32,1.51-1.74,1.35-.63,2.1-.63c1.24,0,2.2,.41,2.88,1.22s1.03,1.98,1.03,3.5v.68h-6.44c.02,.94,.3,1.69,.82,2.27s1.19,.87,2,.87c.57,0,1.06-.12,1.46-.35s.75-.54,1.05-.93l.99,.77c-.8,1.22-1.99,1.84-3.59,1.84Zm-.2-8.53c-.66,0-1.21,.24-1.65,.72s-.72,1.15-.83,2.01h4.76v-.12c-.05-.83-.27-1.47-.67-1.92s-.94-.68-1.62-.68Z"/><path class="cls-19" d="M903.15,411.84h-1.63v-13.5h1.63v13.5Z"/><path class="cls-19" d="M907.52,411.84h-1.63v-13.5h1.63v13.5Z"/><path class="cls-19" d="M910.45,412.94h-1.4l5.34-13.9h1.39l-5.33,13.9Z"/><path class="cls-19" d="M801.28,432.06h7.32v1.38h-9.32v-1.27l7.01-10.15h-6.9v-1.38h8.92v1.23l-7.04,10.19Z"/><path class="cls-19" d="M809.92,428.6c0-.93,.18-1.77,.55-2.51s.88-1.32,1.53-1.72,1.4-.61,2.24-.61c1.29,0,2.34,.45,3.14,1.34s1.2,2.09,1.2,3.58v.11c0,.93-.18,1.76-.53,2.49s-.86,1.31-1.52,1.72-1.42,.62-2.27,.62c-1.29,0-2.33-.45-3.13-1.34s-1.2-2.08-1.2-3.56v-.11Zm1.63,.19c0,1.05,.25,1.9,.73,2.54s1.14,.96,1.96,.96,1.48-.32,1.97-.97,.73-1.55,.73-2.72c0-1.04-.25-1.89-.74-2.54s-1.15-.97-1.97-.97-1.45,.32-1.94,.96-.74,1.55-.74,2.74Z"/><path class="cls-19" d="M828.66,428.79c0,1.45-.33,2.62-1,3.5s-1.56,1.32-2.69,1.32c-1.2,0-2.13-.42-2.79-1.27l-.08,1.1h-1.49v-13.5h1.63v5.04c.66-.81,1.56-1.22,2.72-1.22s2.06,.44,2.72,1.31,.99,2.07,.99,3.59v.14Zm-1.63-.18c0-1.11-.21-1.96-.64-2.57s-1.04-.91-1.85-.91c-1.07,0-1.84,.5-2.31,1.49v4.11c.5,1,1.27,1.49,2.33,1.49,.78,0,1.39-.3,1.82-.91s.65-1.51,.65-2.72Z"/><path class="cls-19" d="M834.66,433.62c-1.29,0-2.34-.42-3.15-1.27s-1.21-1.98-1.21-3.4v-.3c0-.94,.18-1.79,.54-2.53s.86-1.32,1.51-1.74,1.35-.63,2.1-.63c1.24,0,2.2,.41,2.88,1.22s1.03,1.98,1.03,3.5v.68h-6.44c.02,.94,.3,1.7,.82,2.27s1.19,.87,2,.87c.57,0,1.06-.12,1.46-.35s.75-.54,1.05-.93l.99,.77c-.8,1.22-1.99,1.84-3.59,1.84Zm-.2-8.53c-.66,0-1.21,.24-1.65,.72s-.72,1.15-.83,2.01h4.76v-.12c-.05-.83-.27-1.47-.67-1.92s-.94-.68-1.62-.68Z"/><path class="cls-19" d="M842.01,433.44h-1.63v-13.5h1.63v13.5Z"/><path class="cls-19" d="M850.61,423.93l.05,1.2c.73-.91,1.68-1.37,2.85-1.37,2.01,0,3.02,1.13,3.04,3.4v6.28h-1.63v-6.29c0-.69-.16-1.19-.47-1.52s-.79-.49-1.44-.49c-.53,0-.99,.14-1.39,.42s-.71,.65-.93,1.11v6.78h-1.63v-9.51h1.54Z"/><path class="cls-19" d="M862.95,433.62c-1.29,0-2.34-.42-3.15-1.27s-1.21-1.98-1.21-3.4v-.3c0-.94,.18-1.79,.54-2.53s.86-1.32,1.51-1.74,1.35-.63,2.1-.63c1.24,0,2.2,.41,2.88,1.22s1.03,1.98,1.03,3.5v.68h-6.44c.02,.94,.3,1.7,.82,2.27s1.19,.87,2,.87c.57,0,1.06-.12,1.46-.35s.75-.54,1.05-.93l.99,.77c-.8,1.22-1.99,1.84-3.59,1.84Zm-.2-8.53c-.66,0-1.21,.24-1.65,.72s-.72,1.15-.83,2.01h4.76v-.12c-.05-.83-.27-1.47-.67-1.92s-.94-.68-1.62-.68Z"/><path class="cls-19" d="M870.74,421.63v2.3h1.78v1.26h-1.78v5.91c0,.38,.08,.67,.24,.86,.16,.19,.43,.29,.81,.29,.19,0,.45-.04,.77-.11v1.31c-.43,.12-.84,.17-1.25,.17-.73,0-1.27-.22-1.64-.66s-.55-1.06-.55-1.87v-5.9h-1.73v-1.26h1.73v-2.3h1.63Z"/><path class="cls-19" d="M882.84,431.2l1.83-7.27h1.63l-2.77,9.51h-1.32l-2.31-7.21-2.25,7.21h-1.32l-2.76-9.51h1.62l1.87,7.12,2.21-7.12h1.31l2.26,7.27Z"/><path class="cls-19" d="M887.51,428.6c0-.93,.18-1.77,.55-2.51s.88-1.32,1.53-1.72,1.4-.61,2.24-.61c1.29,0,2.34,.45,3.14,1.34s1.2,2.09,1.2,3.58v.11c0,.93-.18,1.76-.53,2.49s-.86,1.31-1.52,1.72-1.42,.62-2.27,.62c-1.29,0-2.33-.45-3.13-1.34s-1.2-2.08-1.2-3.56v-.11Zm1.63,.19c0,1.05,.25,1.9,.73,2.54s1.14,.96,1.96,.96,1.48-.32,1.97-.97,.73-1.55,.73-2.72c0-1.04-.25-1.89-.74-2.54s-1.15-.97-1.97-.97-1.45,.32-1.94,.96-.74,1.55-.74,2.74Z"/><path class="cls-19" d="M902.81,425.39c-.25-.04-.51-.06-.8-.06-1.07,0-1.79,.45-2.17,1.36v6.75h-1.63v-9.51h1.58l.03,1.1c.53-.85,1.29-1.27,2.27-1.27,.32,0,.56,.04,.72,.12v1.51Z"/><path class="cls-19" d="M906.96,429.04l-1.02,1.06v3.34h-1.63v-13.5h1.63v8.17l.87-1.05,2.96-3.13h1.98l-3.7,3.97,4.13,5.54h-1.91l-3.31-4.4Z"/></g><text class="cls-21" transform="translate(621.35 225.18)"><tspan x="0" y="0">1</tspan></text><text class="cls-21" transform="translate(583.91 349.02)"><tspan x="0" y="0">4</tspan></text><text class="cls-21" transform="translate(497.07 455.04)"><tspan x="0" y="0">GND</tspan></text><text class="cls-21" transform="translate(642.95 321.66)"><tspan x="0" y="0">7</tspan></text><text class="cls-21" transform="translate(560.87 238.14)"><tspan x="0" y="0">3</tspan></text><text class="cls-21" transform="translate(559.43 298.62)"><tspan x="0" y="0">2</tspan></text><text class="cls-21" transform="translate(700.55 271.26)"><tspan x="0" y="0">5</tspan></text><text class="cls-21" transform="translate(433.79 145.44)"><tspan x="0" y="0">INPU</tspan><tspan class="cls-26" x="40.75" y="0">T</tspan></text><text class="cls-21" transform="translate(641.07 455.04)"><tspan x="0" y="0">GND</tspan></text><text class="cls-21" transform="translate(759.15 455.04)"><tspan x="0" y="0">GND</tspan></text><text class="cls-21" transform="translate(980.64 352.8)"><tspan x="0" y="0">4Ω</tspan></text><text class="cls-21" transform="translate(967.68 213.12)"><tspan x="0" y="0">Loudspea</tspan><tspan class="cls-25" x="78.73" y="0">k</tspan><tspan x="87.68" y="0">er</tspan></text><text class="cls-21" transform="translate(662.11 321.12)"><tspan x="0" y="0">Bypass</tspan></text><text class="cls-21" transform="translate(854.5 240.48)"><tspan x="0" y="0">DC Blocking</tspan></text><text class="cls-21" transform="translate(943.47 455.04)"><tspan x="0" y="0">GND</tspan></text><g><path class="cls-19" d="M482.36,193.6l3.66-10.56h1.85l-4.75,12.8h-1.49l-4.74-12.8h1.84l3.64,10.56Z"/><path class="cls-19" d="M494.27,190.66h-3.01v5.18h-1.7v-12.8h4.24c1.44,0,2.55,.33,3.33,.98s1.16,1.61,1.16,2.87c0,.8-.21,1.49-.65,2.08s-1.03,1.03-1.8,1.33l3.01,5.43v.11h-1.81l-2.78-5.18Zm-3.01-1.38h2.59c.84,0,1.5-.22,2-.65,.5-.43,.74-1.02,.74-1.74,0-.79-.24-1.4-.71-1.82-.47-.42-1.15-.64-2.04-.64h-2.58v4.86Z"/><path class="cls-19" d="M505.58,195.84h-1.63v-10.84l-3.28,1.2v-1.48l4.66-1.75h.25v12.86Z"/><path class="cls-19" d="M483.05,217.44h-1.63v-10.84l-3.28,1.2v-1.48l4.66-1.75h.25v12.86Z"/><path class="cls-19" d="M495.84,211.98c0,1.9-.33,3.32-.98,4.25s-1.67,1.39-3.05,1.39-2.38-.45-3.03-1.36-1-2.26-1.02-4.06v-2.17c0-1.88,.33-3.28,.98-4.19s1.67-1.37,3.06-1.37,2.39,.44,3.04,1.32,.98,2.24,1,4.08v2.11Zm-1.63-2.22c0-1.38-.19-2.38-.58-3.01s-1-.94-1.84-.94-1.44,.31-1.82,.94-.58,1.59-.59,2.89v2.6c0,1.38,.2,2.4,.6,3.06s1.01,.99,1.82,.99,1.4-.31,1.79-.93,.59-1.6,.61-2.94v-2.66Z"/><path class="cls-19" d="M500.74,213.04l-1.02,1.06v3.34h-1.63v-13.5h1.63v8.17l.87-1.05,2.96-3.13h1.98l-3.7,3.97,4.13,5.54h-1.91l-3.31-4.4Z"/><path class="cls-19" d="M512.46,216.02c.81-.16,1.44-.65,1.89-1.49,.45-.83,.69-1.94,.7-3.31v-1.18c0-1.35-.28-2.39-.85-3.11s-1.35-1.08-2.34-1.08-1.77,.37-2.33,1.1-.84,1.77-.84,3.11v.99c0,1.41,.23,2.55,.69,3.41,.46,.87,1.11,1.38,1.96,1.55v1.42h-4.32v-1.38h1.94c-.62-.6-1.11-1.35-1.46-2.25s-.53-1.82-.53-2.77v-.98c0-1.09,.21-2.06,.62-2.92s.99-1.52,1.74-1.98,1.59-.7,2.53-.7,1.78,.23,2.52,.69,1.32,1.1,1.74,1.93,.63,1.78,.65,2.83v1.14c0,.94-.18,1.86-.53,2.76s-.84,1.65-1.46,2.25h1.93v1.38h-4.25v-1.42Z"/></g><g><path class="cls-19" d="M810.1,299.78c-.16,1.35-.66,2.4-1.5,3.13-.84,.74-1.96,1.1-3.35,1.1-1.51,0-2.72-.54-3.63-1.63-.91-1.08-1.37-2.53-1.37-4.35v-1.23c0-1.19,.21-2.24,.64-3.14,.43-.9,1.03-1.6,1.81-2.08s1.68-.72,2.71-.72c1.36,0,2.45,.38,3.27,1.14s1.3,1.81,1.43,3.15h-1.7c-.15-1.02-.46-1.76-.95-2.22-.49-.46-1.17-.69-2.05-.69-1.08,0-1.92,.4-2.54,1.2-.61,.8-.92,1.93-.92,3.4v1.24c0,1.39,.29,2.5,.87,3.32,.58,.82,1.39,1.23,2.43,1.23,.94,0,1.66-.21,2.16-.64,.5-.42,.83-1.16,1-2.22h1.7Z"/><path class="cls-19" d="M817.32,303.84h-1.63v-10.84l-3.28,1.2v-1.48l4.66-1.75h.25v12.86Z"/><path class="cls-19" d="M808.29,319.98c0,1.9-.33,3.32-.98,4.25s-1.67,1.39-3.05,1.39-2.38-.45-3.03-1.36-1-2.26-1.02-4.06v-2.17c0-1.88,.33-3.28,.98-4.19s1.67-1.37,3.06-1.37,2.39,.44,3.04,1.32,.98,2.24,1,4.08v2.11Zm-1.63-2.22c0-1.38-.19-2.38-.58-3.01s-1-.95-1.84-.95-1.44,.31-1.82,.94-.58,1.59-.59,2.89v2.6c0,1.38,.2,2.4,.6,3.06,.4,.66,1.01,.99,1.82,.99s1.4-.31,1.79-.93c.39-.62,.59-1.6,.61-2.94v-2.66Z"/><path class="cls-19" d="M810.49,327.99l-.92-.63c.55-.77,.84-1.56,.86-2.37v-1.47h1.59v1.27c0,.59-.15,1.18-.43,1.78-.29,.59-.66,1.07-1.09,1.42Z"/><path class="cls-19" d="M821.93,319.98c0,1.9-.33,3.32-.98,4.25s-1.67,1.39-3.05,1.39-2.38-.45-3.03-1.36-1-2.26-1.02-4.06v-2.17c0-1.88,.33-3.28,.98-4.19s1.67-1.37,3.06-1.37,2.39,.44,3.04,1.32,.98,2.24,1,4.08v2.11Zm-1.63-2.22c0-1.38-.19-2.38-.58-3.01s-1-.95-1.84-.95-1.44,.31-1.82,.94-.58,1.59-.59,2.89v2.6c0,1.38,.2,2.4,.6,3.06,.4,.66,1.01,.99,1.82,.99s1.4-.31,1.79-.93c.39-.62,.59-1.6,.61-2.94v-2.66Z"/><path class="cls-19" d="M824.76,319.02l.65-6.38h6.56v1.5h-5.18l-.39,3.49c.63-.37,1.34-.55,2.14-.55,1.17,0,2.09,.39,2.78,1.16s1.03,1.81,1.03,3.12-.36,2.36-1.07,3.12c-.71,.76-1.71,1.14-2.98,1.14-1.13,0-2.05-.31-2.77-.94s-1.12-1.49-1.22-2.6h1.54c.1,.73,.36,1.29,.78,1.66s.98,.56,1.67,.56c.76,0,1.35-.26,1.78-.77,.43-.52,.65-1.23,.65-2.14,0-.86-.23-1.54-.7-2.06-.47-.52-1.09-.78-1.86-.78-.71,0-1.27,.16-1.67,.47l-.43,.35-1.3-.33Z"/><path class="cls-19" d="M840.16,324.5c-.63,.74-1.56,1.12-2.79,1.12-1.01,0-1.79-.29-2.32-.88-.53-.59-.8-1.46-.8-2.62v-6.19h1.63v6.14c0,1.44,.59,2.16,1.76,2.16,1.24,0,2.07-.46,2.48-1.39v-6.92h1.63v9.51h-1.55l-.04-.94Z"/><path class="cls-19" d="M851.52,319.79h-5.37v5.65h-1.69v-12.8h7.93v1.38h-6.24v4.39h5.37v1.38Z"/></g><g><path class="cls-19" d="M687.7,355.94c-.16,1.35-.66,2.4-1.5,3.13s-1.96,1.1-3.35,1.1c-1.51,0-2.72-.54-3.63-1.63s-1.37-2.53-1.37-4.35v-1.23c0-1.19,.21-2.24,.64-3.14s1.03-1.6,1.81-2.08,1.68-.72,2.71-.72c1.36,0,2.45,.38,3.27,1.14s1.3,1.81,1.43,3.15h-1.7c-.15-1.02-.46-1.76-.95-2.22-.49-.46-1.17-.69-2.05-.69-1.08,0-1.92,.4-2.54,1.2s-.92,1.93-.92,3.4v1.24c0,1.39,.29,2.5,.87,3.32,.58,.82,1.39,1.23,2.43,1.23,.94,0,1.66-.21,2.16-.64s.83-1.16,1-2.22h1.7Z"/><path class="cls-19" d="M697.96,360h-8.38v-1.17l4.43-4.92c.66-.74,1.11-1.35,1.36-1.82s.37-.95,.37-1.45c0-.67-.2-1.22-.61-1.64s-.94-.64-1.62-.64c-.81,0-1.44,.23-1.88,.69s-.67,1.1-.67,1.92h-1.63c0-1.18,.38-2.13,1.14-2.86s1.77-1.09,3.04-1.09c1.19,0,2.13,.31,2.82,.94s1.04,1.46,1.04,2.49c0,1.26-.8,2.76-2.41,4.5l-3.43,3.72h6.42v1.33Z"/><path class="cls-19" d="M683.21,381.6h-1.63v-10.84l-3.28,1.2v-1.48l4.66-1.75h.25v12.86Z"/><path class="cls-19" d="M695.99,376.14c0,1.9-.33,3.32-.98,4.25s-1.67,1.39-3.05,1.39-2.38-.45-3.03-1.36-1-2.26-1.02-4.06v-2.17c0-1.88,.33-3.28,.98-4.19s1.67-1.37,3.06-1.37,2.39,.44,3.04,1.32,.98,2.24,1,4.08v2.11Zm-1.63-2.22c0-1.38-.19-2.38-.58-3.01s-1-.95-1.84-.95-1.44,.31-1.82,.94-.58,1.59-.59,2.89v2.6c0,1.38,.2,2.4,.6,3.06s1.01,.99,1.82,.99,1.4-.31,1.79-.93,.59-1.6,.61-2.94v-2.66Z"/><path class="cls-19" d="M704.12,380.66c-.63,.74-1.56,1.12-2.79,1.12-1.01,0-1.79-.29-2.32-.88s-.8-1.46-.8-2.62v-6.19h1.63v6.14c0,1.44,.59,2.16,1.76,2.16,1.24,0,2.07-.46,2.48-1.39v-6.92h1.63v9.51h-1.55l-.04-.94Z"/><path class="cls-19" d="M715.48,375.95h-5.37v5.65h-1.69v-12.8h7.93v1.38h-6.24v4.39h5.37v1.38Z"/></g><g><path class="cls-19" d="M699.22,152.9c-.16,1.35-.66,2.4-1.5,3.13s-1.96,1.1-3.35,1.1c-1.51,0-2.72-.54-3.63-1.63s-1.37-2.53-1.37-4.35v-1.23c0-1.19,.21-2.24,.64-3.14s1.03-1.6,1.81-2.08,1.68-.73,2.71-.73c1.36,0,2.45,.38,3.27,1.14s1.3,1.81,1.43,3.15h-1.7c-.15-1.02-.46-1.76-.95-2.22s-1.17-.69-2.05-.69c-1.08,0-1.92,.4-2.54,1.2-.61,.8-.92,1.93-.92,3.4v1.24c0,1.39,.29,2.5,.87,3.32s1.39,1.23,2.43,1.23c.94,0,1.66-.21,2.16-.64s.83-1.16,1-2.22h1.7Z"/><path class="cls-19" d="M703.46,149.77h1.22c.77-.01,1.37-.21,1.81-.61s.66-.92,.66-1.59c0-1.5-.75-2.25-2.24-2.25-.7,0-1.26,.2-1.68,.6s-.63,.93-.63,1.6h-1.63c0-1.01,.37-1.86,1.11-2.53s1.68-1.01,2.83-1.01c1.21,0,2.15,.32,2.84,.96s1.03,1.53,1.03,2.66c0,.56-.18,1.1-.54,1.62s-.85,.91-1.47,1.17c.7,.22,1.25,.59,1.63,1.11s.58,1.15,.58,1.89c0,1.15-.38,2.06-1.12,2.73s-1.73,1.01-2.93,1.01-2.18-.33-2.93-.98-1.13-1.51-1.13-2.58h1.63c0,.67,.22,1.21,.66,1.62s1.03,.61,1.77,.61c.79,0,1.39-.21,1.8-.62s.62-1,.62-1.77-.23-1.32-.69-1.71-1.12-.6-1.98-.62h-1.22v-1.33Z"/><path class="cls-19" d="M694.73,178.56h-1.63v-10.84l-3.28,1.2v-1.48l4.66-1.75h.25v12.86Z"/><path class="cls-19" d="M707.52,173.1c0,1.9-.33,3.32-.98,4.25s-1.67,1.39-3.05,1.39-2.38-.45-3.03-1.36-1-2.26-1.02-4.06v-2.17c0-1.88,.33-3.28,.98-4.19s1.67-1.37,3.06-1.37,2.39,.44,3.04,1.32,.98,2.24,1,4.08v2.11Zm-1.63-2.22c0-1.38-.19-2.38-.58-3.01s-1-.94-1.84-.94-1.44,.31-1.82,.94-.58,1.59-.59,2.89v2.6c0,1.38,.2,2.4,.6,3.06s1.01,.99,1.82,.99,1.4-.31,1.79-.93,.59-1.6,.61-2.94v-2.66Z"/><path class="cls-19" d="M715.64,177.62c-.63,.74-1.56,1.12-2.79,1.12-1.01,0-1.79-.29-2.32-.88s-.8-1.46-.8-2.61v-6.19h1.63v6.14c0,1.44,.59,2.16,1.76,2.16,1.24,0,2.07-.46,2.48-1.39v-6.92h1.63v9.51h-1.55l-.04-.94Z"/><path class="cls-19" d="M727,172.91h-5.37v5.65h-1.69v-12.8h7.93v1.38h-6.24v4.39h5.37v1.38Z"/></g><g><path class="cls-19" d="M915.22,296.9c-.16,1.35-.66,2.4-1.5,3.13-.84,.74-1.96,1.1-3.35,1.1-1.51,0-2.72-.54-3.63-1.63-.91-1.08-1.37-2.53-1.37-4.35v-1.23c0-1.19,.21-2.24,.64-3.14,.42-.9,1.03-1.6,1.81-2.08s1.68-.72,2.71-.72c1.36,0,2.45,.38,3.27,1.14s1.3,1.81,1.43,3.15h-1.7c-.15-1.02-.46-1.76-.95-2.22-.49-.46-1.17-.69-2.05-.69-1.08,0-1.92,.4-2.54,1.2-.61,.8-.92,1.93-.92,3.4v1.24c0,1.39,.29,2.5,.87,3.32,.58,.82,1.39,1.23,2.43,1.23,.94,0,1.66-.21,2.16-.64,.5-.42,.83-1.16,1-2.22h1.7Z"/><path class="cls-19" d="M923.96,296.66h1.78v1.33h-1.78v2.97h-1.63v-2.97h-5.83v-.96l5.73-8.87h1.73v8.5Zm-5.62,0h3.98v-6.28l-.19,.35-3.79,5.92Z"/><path class="cls-19" d="M913.77,322.56h-8.38v-1.17l4.43-4.92c.66-.74,1.11-1.35,1.36-1.81,.25-.47,.37-.95,.37-1.45,0-.67-.2-1.22-.61-1.64s-.94-.64-1.62-.64c-.81,0-1.44,.23-1.89,.69-.45,.46-.67,1.1-.67,1.92h-1.63c0-1.18,.38-2.13,1.14-2.86,.76-.73,1.77-1.09,3.05-1.09,1.19,0,2.13,.31,2.82,.94s1.04,1.45,1.04,2.49c0,1.26-.8,2.76-2.41,4.5l-3.43,3.72h6.42v1.33Z"/><path class="cls-19" d="M923.88,322.56h-8.38v-1.17l4.43-4.92c.66-.74,1.11-1.35,1.36-1.81,.25-.47,.37-.95,.37-1.45,0-.67-.2-1.22-.61-1.64s-.94-.64-1.62-.64c-.81,0-1.44,.23-1.89,.69-.45,.46-.67,1.1-.67,1.92h-1.63c0-1.18,.38-2.13,1.14-2.86,.76-.73,1.77-1.09,3.05-1.09,1.19,0,2.13,.31,2.82,.94s1.04,1.45,1.04,2.49c0,1.26-.8,2.76-2.41,4.5l-3.43,3.72h6.42v1.33Z"/><path class="cls-19" d="M933.62,317.1c0,1.9-.33,3.32-.98,4.25s-1.67,1.39-3.05,1.39-2.38-.45-3.03-1.36-1-2.26-1.02-4.06v-2.17c0-1.88,.33-3.28,.98-4.19s1.67-1.37,3.06-1.37,2.39,.44,3.04,1.32,.98,2.24,1,4.08v2.11Zm-1.63-2.22c0-1.38-.19-2.38-.58-3.01s-1-.95-1.84-.95-1.44,.31-1.82,.94-.58,1.59-.59,2.89v2.6c0,1.38,.2,2.4,.6,3.06,.4,.66,1.01,.99,1.82,.99s1.4-.31,1.79-.93c.39-.62,.59-1.6,.61-2.94v-2.66Z"/><path class="cls-19" d="M941.74,321.62c-.63,.74-1.56,1.12-2.79,1.12-1.01,0-1.79-.29-2.32-.88-.53-.59-.8-1.46-.8-2.62v-6.19h1.63v6.14c0,1.44,.59,2.16,1.76,2.16,1.24,0,2.07-.46,2.48-1.39v-6.92h1.63v9.51h-1.55l-.04-.94Z"/><path class="cls-19" d="M953.11,316.91h-5.37v5.65h-1.69v-12.8h7.93v1.38h-6.24v4.39h5.37v1.38Z"/></g><text class="cls-21" transform="translate(439.47 455.04)"><tspan x="0" y="0">GND</tspan></text><text class="cls-20" transform="translate(888.72 284.51) rotate(-90)"><tspan x="0" y="0">+</tspan></text><text class="cls-20" transform="translate(647.17 358.8)"><tspan x="0" y="0">+</tspan></text><text class="cls-20" transform="translate(652.56 170.75) rotate(-90)"><tspan x="0" y="0">+</tspan></text></g></svg>