<?xml version="1.0" encoding="UTF-8"?><svg xmlns="http://www.w3.org/2000/svg" viewBox="0 0 1080 600.48"><defs><style>.cls-1{fill:#cad2d9;}.cls-2{stroke-dasharray:0 0 1.93 4.82;}.cls-2,.cls-3,.cls-4,.cls-5,.cls-6,.cls-7,.cls-8,.cls-9,.cls-10{fill:none;stroke:#cad2d9;stroke-miterlimit:10;}.cls-3{stroke-width:.75px;}.cls-4{stroke-width:.75px;}.cls-5{stroke-width:2px;}.cls-6{stroke-width:2px;}.cls-8{stroke-dasharray:0 0 1.97 4.92;}.cls-9{stroke-dasharray:0 0 2.03 5.09;}.cls-11{fill:#1d1e1b;opacity:.5;}.cls-10{stroke-dasharray:0 0 2.06 5.15;}</style></defs><g id="Field"><rect class="cls-11" x="764.64" y="178.56" width="86.4" height="164.16"/><rect class="cls-11" x="721.44" y="288" width="86.4" height="162.72"/><rect class="cls-11" x="267.84" y="178.56" width="87.84" height="80.64"/><rect class="cls-11" x="267.84" y="368.64" width="87.84" height="82.08"/><rect class="cls-11" x="764.64" y="288" width="43.2" height="54.72"/></g><g id="Line"><line class="cls-5" x1="267.84" y1="178.56" x2="267.84" y2="450.72"/><line class="cls-6" x1="253.68" y1="450.72" x2="282.48" y2="450.72"/><g><line class="cls-7" x1="267.84" y1="178.56" x2="268.84" y2="178.56"/><line class="cls-2" x1="273.66" y1="178.56" x2="352.27" y2="178.56"/><line class="cls-7" x1="354.68" y1="178.56" x2="355.68" y2="178.56"/></g><g><line class="cls-4" x1="312.48" y1="362" x2="312.48" y2="322.56"/><polygon class="cls-1" points="314.66 360.51 312.48 368.64 310.3 360.51 314.66 360.51"/></g><g><line class="cls-3" x1="355.68" y1="444.06" x2="355.68" y2="375.3"/><polygon class="cls-1" points="357.86 442.58 355.68 450.72 353.5 442.58 357.86 442.58"/><polygon class="cls-1" points="357.86 376.78 355.68 368.64 353.5 376.78 357.86 376.78"/></g><line class="cls-6" x1="253.44" y1="368.64" x2="282.24" y2="368.64"/><line class="cls-6" x1="253.44" y1="259.2" x2="282.24" y2="259.2"/><line class="cls-6" x1="253.44" y1="178.56" x2="282.24" y2="178.56"/><g><line class="cls-7" x1="267.84" y1="259.2" x2="268.84" y2="259.2"/><line class="cls-2" x1="273.66" y1="259.2" x2="352.27" y2="259.2"/><line class="cls-7" x1="354.68" y1="259.2" x2="355.68" y2="259.2"/></g><g><line class="cls-7" x1="267.84" y1="368.64" x2="268.84" y2="368.64"/><line class="cls-2" x1="273.66" y1="368.64" x2="352.27" y2="368.64"/><line class="cls-7" x1="354.68" y1="368.64" x2="355.68" y2="368.64"/></g><g><line class="cls-7" x1="267.84" y1="450.72" x2="268.84" y2="450.72"/><line class="cls-2" x1="273.66" y1="450.72" x2="352.27" y2="450.72"/><line class="cls-7" x1="354.68" y1="450.72" x2="355.68" y2="450.72"/></g><g><line class="cls-4" x1="312.48" y1="265.84" x2="312.48" y2="305.28"/><polygon class="cls-1" points="310.3 267.33 312.48 259.2 314.66 267.33 310.3 267.33"/></g><g><line class="cls-3" x1="355.68" y1="185.21" x2="355.68" y2="252.55"/><polygon class="cls-1" points="353.5 186.7 355.68 178.56 357.86 186.7 353.5 186.7"/><polygon class="cls-1" points="353.5 251.06 355.68 259.2 357.86 251.06 353.5 251.06"/></g><line class="cls-5" x1="721.44" y1="178.56" x2="721.44" y2="450.72"/><line class="cls-6" x1="707.28" y1="450.72" x2="736.08" y2="450.72"/><g><line class="cls-7" x1="721.44" y1="178.56" x2="722.44" y2="178.56"/><line class="cls-9" x1="727.53" y1="178.56" x2="846.06" y2="178.56"/><line class="cls-7" x1="848.6" y1="178.56" x2="849.6" y2="178.56"/></g><line class="cls-6" x1="707.04" y1="342.72" x2="735.84" y2="342.72"/><line class="cls-6" x1="707.04" y1="178.56" x2="735.84" y2="178.56"/><g><line class="cls-7" x1="721.44" y1="288" x2="722.44" y2="288"/><line class="cls-8" x1="727.36" y1="288" x2="876.38" y2="288"/><line class="cls-7" x1="878.84" y1="288" x2="879.84" y2="288"/></g><g><line class="cls-7" x1="721.44" y1="342.72" x2="722.44" y2="342.72"/><line class="cls-8" x1="727.36" y1="342.72" x2="876.38" y2="342.72"/><line class="cls-7" x1="878.84" y1="342.72" x2="879.84" y2="342.72"/></g><g><line class="cls-7" x1="721.44" y1="450.72" x2="722.44" y2="450.72"/><line class="cls-10" x1="727.59" y1="450.72" x2="804.27" y2="450.72"/><line class="cls-7" x1="806.84" y1="450.72" x2="807.84" y2="450.72"/></g><line class="cls-6" x1="707.04" y1="288" x2="735.84" y2="288"/><g><line class="cls-3" x1="807.84" y1="444.06" x2="807.84" y2="294.65"/><polygon class="cls-1" points="810.02 442.58 807.84 450.72 805.66 442.58 810.02 442.58"/><polygon class="cls-1" points="810.02 296.14 807.84 288 805.66 296.14 810.02 296.14"/></g><g><line class="cls-3" x1="851.04" y1="336.06" x2="851.04" y2="185.21"/><polygon class="cls-1" points="853.22 334.58 851.04 342.72 848.86 334.58 853.22 334.58"/><polygon class="cls-1" points="853.22 186.7 851.04 178.56 848.86 186.7 853.22 186.7"/></g><g><line class="cls-3" x1="879.84" y1="281.34" x2="879.84" y2="262.08"/><polygon class="cls-1" points="882.02 279.86 879.84 288 877.66 279.86 882.02 279.86"/></g><g><line class="cls-3" x1="879.84" y1="349.37" x2="879.84" y2="368.64"/><polygon class="cls-1" points="877.66 350.86 879.84 342.72 882.02 350.86 877.66 350.86"/></g></g><g id="TEXT_Vector"><g><path class="cls-1" d="M282.22,416.76h6.06v1.38h-7.76v-12.8h1.7v11.42Z"/><path class="cls-1" d="M299.48,412.15c0,1.25-.21,2.35-.63,3.28s-1.02,1.65-1.79,2.14-1.68,.74-2.71,.74-1.9-.25-2.68-.74-1.38-1.2-1.81-2.12-.65-1.98-.66-3.19v-.92c0-1.23,.21-2.32,.64-3.26s1.03-1.67,1.81-2.17,1.68-.75,2.69-.75,1.93,.25,2.71,.74,1.38,1.21,1.81,2.15,.63,2.03,.63,3.28v.81Zm-1.68-.83c0-1.52-.3-2.68-.91-3.49s-1.46-1.22-2.56-1.22-1.91,.41-2.52,1.22-.93,1.94-.94,3.38v.94c0,1.47,.31,2.63,.93,3.47s1.47,1.26,2.55,1.26,1.93-.4,2.53-1.19,.91-1.93,.92-3.42v-.95Z"/><path class="cls-1" d="M304.78,414.11l.25,1.69,.36-1.52,2.53-8.93h1.42l2.47,8.93,.35,1.55,.27-1.72,1.99-8.75h1.7l-3.1,12.8h-1.54l-2.64-9.33-.2-.98-.2,.98-2.73,9.33h-1.54l-3.09-12.8h1.69l2.02,8.76Z"/><path class="cls-1" d="M322.12,412.95c0-1.32,.18-2.6,.53-3.81s.88-2.33,1.59-3.32,1.43-1.7,2.19-2.11l.33,1.07c-.86,.66-1.56,1.66-2.1,3.01s-.85,2.86-.9,4.53v.75c0,2.26,.4,4.22,1.23,5.89,.5,1,1.09,1.78,1.78,2.34l-.33,.99c-.78-.43-1.52-1.16-2.23-2.18-1.38-1.99-2.07-4.37-2.07-7.15Z"/><path class="cls-1" d="M336.2,412.68c0,1.9-.33,3.32-.98,4.25s-1.67,1.39-3.05,1.39-2.38-.45-3.03-1.36-1-2.26-1.02-4.06v-2.17c0-1.88,.33-3.28,.98-4.19s1.67-1.37,3.06-1.37,2.39,.44,3.04,1.32,.98,2.24,1,4.08v2.11Zm-1.63-2.22c0-1.38-.19-2.38-.58-3.01s-1-.95-1.84-.95-1.44,.31-1.82,.94-.58,1.59-.59,2.89v2.6c0,1.38,.2,2.4,.6,3.06s1.01,.99,1.82,.99,1.4-.31,1.79-.93,.59-1.6,.61-2.94v-2.66Z"/><path class="cls-1" d="M342.2,413.03c0,1.31-.17,2.56-.51,3.76s-.87,2.3-1.57,3.32-1.45,1.73-2.22,2.16l-.34-.99c.9-.69,1.63-1.76,2.18-3.22s.83-3.07,.84-4.85v-.28c0-1.23-.13-2.37-.39-3.43s-.62-2.01-1.08-2.84-.98-1.49-1.55-1.96l.34-.99c.77,.43,1.51,1.14,2.21,2.14s1.22,2.11,1.57,3.31,.52,2.5,.52,3.88Z"/></g><g><path class="cls-1" d="M289.84,225.18h-1.7v-5.92h-6.45v5.92h-1.69v-12.8h1.69v5.5h6.45v-5.5h1.7v12.8Z"/><path class="cls-1" d="M294.65,225.18h-1.69v-12.8h1.69v12.8Z"/><path class="cls-1" d="M307.18,223.5c-.43,.62-1.04,1.09-1.81,1.39s-1.68,.46-2.71,.46-1.97-.24-2.78-.73-1.43-1.19-1.88-2.09-.67-1.95-.68-3.14v-1.12c0-1.93,.45-3.42,1.35-4.48s2.16-1.59,3.79-1.59c1.34,0,2.41,.34,3.23,1.02s1.31,1.65,1.49,2.9h-1.69c-.32-1.7-1.32-2.55-3.02-2.55-1.13,0-1.99,.4-2.57,1.19-.58,.79-.88,1.95-.88,3.45v1.05c0,1.44,.33,2.58,.98,3.43,.66,.85,1.54,1.27,2.66,1.27,.63,0,1.19-.07,1.66-.21,.47-.14,.87-.38,1.18-.71v-2.87h-2.96v-1.38h4.64v4.69Z"/><path class="cls-1" d="M319.83,225.18h-1.7v-5.92h-6.45v5.92h-1.69v-12.8h1.69v5.5h6.45v-5.5h1.7v12.8Z"/><path class="cls-1" d="M326.97,219.99c0-1.32,.18-2.6,.53-3.81s.88-2.33,1.59-3.32,1.43-1.7,2.19-2.11l.33,1.07c-.86,.66-1.56,1.66-2.1,3.01s-.85,2.86-.9,4.53v.75c0,2.26,.4,4.22,1.23,5.89,.5,1,1.09,1.78,1.78,2.34l-.33,.99c-.78-.43-1.52-1.16-2.23-2.18-1.38-1.99-2.07-4.37-2.07-7.15Z"/><path class="cls-1" d="M338.36,225.18h-1.63v-10.84l-3.28,1.2v-1.48l4.66-1.75h.25v12.86Z"/><path class="cls-1" d="M347.04,220.07c0,1.31-.17,2.56-.51,3.76s-.87,2.3-1.57,3.32-1.45,1.73-2.22,2.16l-.34-.99c.9-.69,1.63-1.77,2.18-3.22s.83-3.07,.84-4.85v-.28c0-1.23-.13-2.37-.39-3.43s-.62-2.01-1.08-2.84-.98-1.49-1.55-1.96l.34-.99c.77,.43,1.51,1.14,2.21,2.14s1.22,2.11,1.57,3.31,.52,2.5,.52,3.88Z"/></g><g><path class="cls-1" d="M285.81,305.98v8.7c0,1.21-.39,2.19-1.14,2.96s-1.77,1.2-3.06,1.29l-.45,.02c-1.4,0-2.52-.38-3.35-1.13s-1.25-1.8-1.27-3.12v-8.72h1.67v8.67c0,.93,.25,1.65,.76,2.16s1.24,.77,2.18,.77,1.69-.25,2.19-.76,.76-1.23,.76-2.15v-8.67h1.7Z"/><path class="cls-1" d="M289.76,309.27l.05,1.2c.73-.91,1.68-1.37,2.85-1.37,2.01,0,3.02,1.13,3.04,3.4v6.28h-1.63v-6.29c0-.69-.16-1.19-.47-1.52s-.79-.49-1.44-.49c-.53,0-.99,.14-1.39,.42s-.71,.65-.93,1.11v6.78h-1.63v-9.51h1.54Z"/><path class="cls-1" d="M297.76,313.95c0-1.46,.35-2.63,1.04-3.52s1.6-1.33,2.72-1.33,2,.38,2.65,1.14v-4.96h1.63v13.5h-1.49l-.08-1.02c-.65,.8-1.56,1.2-2.72,1.2s-2-.45-2.69-1.35-1.04-2.08-1.04-3.53v-.12Zm1.63,.18c0,1.08,.22,1.92,.67,2.53s1.06,.91,1.85,.91c1.03,0,1.78-.46,2.26-1.39v-4.37c-.49-.9-1.23-1.34-2.24-1.34-.8,0-1.42,.31-1.86,.92s-.67,1.53-.67,2.73Z"/><path class="cls-1" d="M312.25,318.96c-1.29,0-2.34-.42-3.15-1.27s-1.21-1.98-1.21-3.4v-.3c0-.94,.18-1.79,.54-2.53s.86-1.32,1.51-1.74,1.35-.63,2.1-.63c1.24,0,2.2,.41,2.88,1.22s1.03,1.98,1.03,3.5v.68h-6.44c.02,.94,.3,1.7,.82,2.27s1.19,.87,2,.87c.57,0,1.06-.12,1.46-.35s.75-.54,1.05-.93l.99,.77c-.8,1.22-1.99,1.84-3.59,1.84Zm-.2-8.53c-.66,0-1.21,.24-1.65,.72s-.72,1.15-.83,2.01h4.76v-.12c-.05-.83-.27-1.47-.67-1.92s-.94-.68-1.62-.68Z"/><path class="cls-1" d="M318.64,318.78v-8.25h-1.5v-1.26h1.5v-.98c0-1.02,.27-1.81,.82-2.36s1.32-.83,2.31-.83c.38,0,.75,.05,1.12,.15l-.09,1.31c-.28-.05-.57-.08-.88-.08-.53,0-.93,.15-1.22,.46s-.43,.75-.43,1.33v1h2.03v1.26h-2.03v8.25h-1.63Z"/><path class="cls-1" d="M324.1,306.75c0-.26,.08-.49,.24-.67s.4-.27,.72-.27,.56,.09,.72,.27,.25,.4,.25,.67-.08,.48-.25,.66-.4,.26-.72,.26-.56-.09-.72-.26-.24-.4-.24-.66Zm1.76,12.03h-1.63v-9.51h1.63v9.51Z"/><path class="cls-1" d="M329.99,309.27l.05,1.2c.73-.91,1.68-1.37,2.85-1.37,2.01,0,3.02,1.13,3.04,3.4v6.28h-1.63v-6.29c0-.69-.16-1.19-.47-1.52s-.79-.49-1.44-.49c-.53,0-.99,.14-1.39,.42s-.71,.65-.93,1.11v6.78h-1.63v-9.51h1.54Z"/><path class="cls-1" d="M342.33,318.96c-1.29,0-2.34-.42-3.15-1.27s-1.21-1.98-1.21-3.4v-.3c0-.94,.18-1.79,.54-2.53s.86-1.32,1.51-1.74,1.35-.63,2.1-.63c1.24,0,2.2,.41,2.88,1.22s1.03,1.98,1.03,3.5v.68h-6.44c.02,.94,.3,1.7,.82,2.27s1.19,.87,2,.87c.57,0,1.06-.12,1.46-.35s.75-.54,1.05-.93l.99,.77c-.8,1.22-1.99,1.84-3.59,1.84Zm-.2-8.53c-.66,0-1.21,.24-1.65,.72s-.72,1.15-.83,2.01h4.76v-.12c-.05-.83-.27-1.47-.67-1.92s-.94-.68-1.62-.68Z"/><path class="cls-1" d="M347.53,313.95c0-1.46,.35-2.63,1.04-3.52s1.6-1.33,2.72-1.33,2,.38,2.65,1.14v-4.96h1.63v13.5h-1.49l-.08-1.02c-.65,.8-1.56,1.2-2.72,1.2s-2-.45-2.69-1.35-1.04-2.08-1.04-3.53v-.12Zm1.63,.18c0,1.08,.22,1.92,.67,2.53s1.06,.91,1.85,.91c1.03,0,1.78-.46,2.26-1.39v-4.37c-.49-.9-1.23-1.34-2.24-1.34-.8,0-1.42,.31-1.86,.92s-.67,1.53-.67,2.73Z"/></g><g><path class="cls-1" d="M207.67,182.62l3.66-10.56h1.85l-4.75,12.8h-1.49l-4.74-12.8h1.84l3.64,10.56Z"/><path class="cls-1" d="M214.27,190.85v-7.46h2.11c.65,0,1.22,.14,1.72,.43,.5,.29,.88,.7,1.16,1.22,.27,.53,.41,1.14,.41,1.82v.48c0,.7-.14,1.32-.41,1.85-.27,.53-.66,.94-1.16,1.22s-1.09,.43-1.76,.44h-2.07Zm.98-6.66v5.85h1.04c.76,0,1.35-.24,1.77-.71s.63-1.14,.63-2.02v-.44c0-.85-.2-1.51-.6-1.98-.4-.47-.96-.71-1.69-.72h-1.15Z"/><path class="cls-1" d="M221.15,190.85v-7.46h2.11c.65,0,1.22,.14,1.72,.43,.5,.29,.88,.7,1.16,1.22,.27,.53,.41,1.14,.41,1.82v.48c0,.7-.14,1.32-.41,1.85-.27,.53-.66,.94-1.16,1.22s-1.09,.43-1.76,.44h-2.07Zm.98-6.66v5.85h1.04c.76,0,1.35-.24,1.77-.71s.63-1.14,.63-2.02v-.44c0-.85-.2-1.51-.6-1.98-.4-.47-.96-.71-1.69-.72h-1.15Z"/></g><g><path class="cls-1" d="M213.52,451.56c0,1.9-.33,3.32-.98,4.25s-1.67,1.39-3.05,1.39-2.38-.45-3.03-1.36-1-2.26-1.02-4.06v-2.17c0-1.88,.33-3.28,.98-4.19s1.67-1.37,3.06-1.37,2.39,.44,3.04,1.32,.98,2.24,1,4.08v2.11Zm-1.63-2.22c0-1.38-.19-2.38-.58-3.01s-1-.95-1.84-.95-1.44,.31-1.82,.94-.58,1.59-.59,2.89v2.6c0,1.38,.2,2.4,.6,3.06s1.01,.99,1.82,.99,1.4-.31,1.79-.93,.59-1.6,.61-2.94v-2.66Z"/><path class="cls-1" d="M224.72,454.78l3.66-10.56h1.85l-4.75,12.8h-1.49l-4.74-12.8h1.84l3.64,10.56Z"/></g><g><path class="cls-1" d="M196.34,369.48c0,1.9-.33,3.32-.98,4.25s-1.67,1.39-3.05,1.39-2.38-.45-3.03-1.36-1-2.26-1.02-4.06v-2.17c0-1.88,.33-3.28,.98-4.19s1.67-1.37,3.06-1.37,2.39,.44,3.04,1.32,.98,2.24,1,4.08v2.11Zm-1.63-2.22c0-1.38-.19-2.38-.58-3.01s-1-.94-1.84-.94-1.44,.31-1.82,.94-.58,1.59-.59,2.89v2.6c0,1.38,.2,2.4,.6,3.06s1.01,.99,1.82,.99,1.4-.31,1.79-.93,.59-1.6,.61-2.94v-2.66Z"/><path class="cls-1" d="M198.62,374.09c0-.28,.08-.52,.25-.7s.42-.28,.75-.28,.59,.09,.76,.28,.26,.42,.26,.7-.09,.5-.26,.68-.43,.27-.76,.27-.58-.09-.75-.27-.25-.41-.25-.68Z"/><path class="cls-1" d="M205.52,367.75h1.22c.77-.01,1.37-.21,1.81-.61s.66-.92,.66-1.59c0-1.5-.75-2.25-2.24-2.25-.7,0-1.26,.2-1.68,.6s-.63,.93-.63,1.6h-1.63c0-1.01,.37-1.86,1.11-2.53s1.68-1.01,2.83-1.01c1.21,0,2.15,.32,2.84,.96s1.03,1.53,1.03,2.66c0,.56-.18,1.1-.54,1.62s-.85,.91-1.47,1.17c.7,.22,1.25,.59,1.63,1.11s.58,1.15,.58,1.89c0,1.15-.38,2.06-1.12,2.73s-1.73,1.01-2.93,1.01-2.18-.33-2.93-.98-1.13-1.51-1.13-2.58h1.63c0,.67,.22,1.21,.66,1.62s1.03,.61,1.77,.61c.79,0,1.39-.21,1.8-.62s.62-1,.62-1.77-.23-1.32-.69-1.71-1.12-.6-1.98-.62h-1.22v-1.33Z"/><path class="cls-1" d="M222.38,372.7l3.66-10.56h1.85l-4.75,12.8h-1.49l-4.74-12.8h1.84l3.64,10.56Z"/><path class="cls-1" d="M228.97,380.93v-7.46h2.11c.65,0,1.22,.14,1.72,.43,.5,.29,.88,.7,1.16,1.22s.41,1.14,.41,1.82v.48c0,.7-.14,1.32-.41,1.85-.27,.53-.66,.94-1.16,1.22-.5,.28-1.09,.43-1.76,.44h-2.07Zm.98-6.66v5.85h1.04c.76,0,1.35-.24,1.77-.71s.63-1.14,.63-2.02v-.44c0-.85-.2-1.51-.6-1.98-.4-.47-.96-.71-1.69-.72h-1.15Z"/><path class="cls-1" d="M235.86,380.93v-7.46h2.11c.65,0,1.22,.14,1.72,.43,.5,.29,.88,.7,1.16,1.22s.41,1.14,.41,1.82v.48c0,.7-.14,1.32-.41,1.85-.27,.53-.66,.94-1.16,1.22-.5,.28-1.09,.43-1.76,.44h-2.07Zm.98-6.66v5.85h1.04c.76,0,1.35-.24,1.77-.71s.63-1.14,.63-2.02v-.44c0-.85-.2-1.51-.6-1.98-.4-.47-.96-.71-1.69-.72h-1.15Z"/></g><g><path class="cls-1" d="M198.38,260.04c0,1.9-.33,3.32-.98,4.24-.65,.93-1.67,1.39-3.05,1.39s-2.38-.45-3.03-1.36-1-2.26-1.02-4.06v-2.17c0-1.88,.33-3.28,.98-4.19s1.67-1.37,3.06-1.37,2.39,.44,3.04,1.32,.98,2.24,1,4.08v2.11Zm-1.63-2.22c0-1.38-.19-2.38-.58-3.01s-1-.94-1.84-.94-1.44,.31-1.82,.94-.58,1.59-.59,2.89v2.6c0,1.38,.2,2.4,.6,3.06s1.01,.99,1.82,.99,1.4-.31,1.79-.93c.39-.62,.59-1.6,.61-2.94v-2.66Z"/><path class="cls-1" d="M200.66,264.65c0-.28,.08-.52,.25-.7s.42-.28,.75-.28,.59,.09,.76,.28,.26,.42,.26,.7-.09,.5-.26,.68-.43,.27-.76,.27-.58-.09-.75-.27-.25-.41-.25-.68Z"/><path class="cls-1" d="M213.46,253.62l-5.3,11.88h-1.71l5.28-11.46h-6.93v-1.34h8.65v.91Z"/><path class="cls-1" d="M224.42,263.26l3.66-10.56h1.85l-4.75,12.8h-1.49l-4.74-12.8h1.84l3.64,10.56Z"/><path class="cls-1" d="M231.01,271.49v-7.46h2.11c.65,0,1.22,.14,1.72,.43,.5,.29,.88,.7,1.16,1.22,.27,.53,.41,1.14,.41,1.82v.48c0,.7-.14,1.32-.41,1.85-.27,.53-.66,.94-1.16,1.22-.5,.28-1.09,.43-1.76,.44h-2.07Zm.98-6.66v5.85h1.04c.76,0,1.35-.24,1.77-.71s.63-1.14,.63-2.02v-.44c0-.85-.2-1.51-.6-1.98s-.96-.71-1.69-.72h-1.15Z"/><path class="cls-1" d="M237.9,271.49v-7.46h2.11c.65,0,1.22,.14,1.72,.43,.5,.29,.88,.7,1.16,1.22,.27,.53,.41,1.14,.41,1.82v.48c0,.7-.14,1.32-.41,1.85-.27,.53-.66,.94-1.16,1.22-.5,.28-1.09,.43-1.76,.44h-2.07Zm.98-6.66v5.85h1.04c.76,0,1.35-.24,1.77-.71s.63-1.14,.63-2.02v-.44c0-.85-.2-1.51-.6-1.98s-.96-.71-1.69-.72h-1.15Z"/></g><g><path class="cls-1" d="M374.57,372.7l3.66-10.56h1.85l-4.75,12.8h-1.49l-4.74-12.8h1.84l3.64,10.56Z"/><path class="cls-1" d="M382.22,380.93h-.98v-7.46h.98v7.46Z"/><path class="cls-1" d="M385.01,380.13h3.54v.8h-4.52v-7.46h.99v6.66Z"/></g><g><path class="cls-1" d="M372.73,264.7l3.66-10.56h1.85l-4.75,12.8h-1.49l-4.74-12.8h1.84l3.64,10.56Z"/><path class="cls-1" d="M380.39,272.93h-.98v-7.46h.98v7.46Z"/><path class="cls-1" d="M387.92,272.93h-.99v-3.45h-3.76v3.45h-.98v-7.46h.98v3.21h3.76v-3.21h.99v7.46Z"/></g><g><path class="cls-1" d="M679.36,451.56c0,1.9-.33,3.32-.98,4.25s-1.67,1.39-3.05,1.39-2.38-.45-3.03-1.36-1-2.26-1.02-4.06v-2.17c0-1.88,.33-3.28,.98-4.19s1.67-1.37,3.06-1.37,2.39,.44,3.04,1.32,.98,2.24,1,4.08v2.11Zm-1.63-2.22c0-1.38-.19-2.38-.58-3.01s-1-.94-1.84-.94-1.44,.31-1.82,.94-.58,1.59-.59,2.89v2.6c0,1.38,.2,2.4,.6,3.06s1.01,.99,1.82,.99,1.4-.31,1.79-.93,.59-1.6,.61-2.94v-2.66Z"/><path class="cls-1" d="M690.56,454.78l3.66-10.56h1.85l-4.75,12.8h-1.49l-4.74-12.8h1.84l3.64,10.56Z"/></g><g><path class="cls-1" d="M680.02,346.78l3.66-10.56h1.85l-4.75,12.8h-1.49l-4.74-12.8h1.84l3.64,10.56Z"/><path class="cls-1" d="M692.35,355.01h-.99l-3.76-5.75v5.75h-.99v-7.46h.99l3.77,5.77v-5.77h.98v7.46Z"/></g><g><path class="cls-1" d="M678.53,292.06l3.66-10.56h1.85l-4.75,12.8h-1.49l-4.74-12.8h1.84l3.64,10.56Z"/><path class="cls-1" d="M686.11,297.37v2.92h-.98v-7.46h2.75c.82,0,1.46,.21,1.92,.62s.69,.97,.69,1.66c0,.72-.23,1.28-.68,1.67-.45,.39-1.1,.59-1.95,.59h-1.76Zm0-.8h1.77c.53,0,.93-.12,1.21-.37s.42-.61,.42-1.08c0-.44-.14-.8-.42-1.07s-.66-.41-1.15-.42h-1.82v2.93Z"/></g><g><path class="cls-1" d="M674.24,184.06l3.66-10.56h1.85l-4.75,12.8h-1.49l-4.74-12.8h1.84l3.64,10.56Z"/><path class="cls-1" d="M680.83,192.29v-7.46h2.11c.65,0,1.22,.14,1.72,.43,.5,.29,.88,.7,1.16,1.22,.27,.53,.41,1.14,.41,1.82v.48c0,.7-.14,1.32-.41,1.85-.27,.53-.66,.94-1.16,1.22s-1.09,.43-1.76,.44h-2.07Zm.98-6.66v5.85h1.04c.76,0,1.35-.24,1.77-.71s.63-1.14,.63-2.02v-.44c0-.85-.2-1.51-.6-1.98-.4-.47-.96-.71-1.69-.72h-1.15Z"/><path class="cls-1" d="M687.71,192.29v-7.46h2.11c.65,0,1.22,.14,1.72,.43,.5,.29,.88,.7,1.16,1.22,.27,.53,.41,1.14,.41,1.82v.48c0,.7-.14,1.32-.41,1.85-.27,.53-.66,.94-1.16,1.22s-1.09,.43-1.76,.44h-2.07Zm.98-6.66v5.85h1.04c.76,0,1.35-.24,1.77-.71s.63-1.14,.63-2.02v-.44c0-.85-.2-1.51-.6-1.98-.4-.47-.96-.71-1.69-.72h-1.15Z"/></g><g><path class="cls-1" d="M877.06,321.66h-1.7v-5.92h-6.45v5.92h-1.69v-12.8h1.69v5.5h6.45v-5.5h1.7v12.8Z"/><path class="cls-1" d="M882.91,319.28l2.21-7.13h1.74l-3.82,10.98c-.59,1.58-1.53,2.37-2.82,2.37l-.31-.03-.61-.11v-1.32l.44,.04c.55,0,.98-.11,1.29-.33s.56-.63,.76-1.22l.36-.97-3.39-9.4h1.78l2.37,7.13Z"/><path class="cls-1" d="M893.86,319.14c0-.44-.17-.78-.5-1.02s-.91-.45-1.73-.63-1.48-.39-1.96-.63-.84-.54-1.07-.88-.35-.74-.35-1.21c0-.78,.33-1.44,.99-1.98s1.5-.81,2.53-.81c1.08,0,1.95,.28,2.62,.83s1.01,1.27,1.01,2.14h-1.63c0-.45-.19-.83-.57-1.15s-.85-.48-1.43-.48-1.05,.13-1.39,.39-.5,.59-.5,1.01c0,.39,.16,.69,.47,.89s.87,.39,1.68,.57,1.47,.4,1.97,.65,.88,.55,1.12,.91,.36,.79,.36,1.3c0,.85-.34,1.53-1.02,2.04s-1.56,.77-2.65,.77c-.76,0-1.44-.13-2.02-.4s-1.04-.65-1.38-1.13-.5-1.01-.5-1.57h1.63c.03,.54,.25,.98,.66,1.3s.94,.48,1.61,.48c.62,0,1.11-.12,1.48-.37s.56-.58,.56-1Z"/><path class="cls-1" d="M899.81,309.85v2.3h1.78v1.26h-1.78v5.9c0,.38,.08,.67,.24,.86s.43,.29,.81,.29c.19,0,.45-.04,.77-.11v1.31c-.43,.12-.84,.17-1.25,.17-.73,0-1.27-.22-1.64-.66s-.55-1.06-.55-1.87v-5.9h-1.73v-1.26h1.73v-2.3h1.63Z"/><path class="cls-1" d="M907.43,321.84c-1.29,0-2.34-.42-3.15-1.27s-1.21-1.98-1.21-3.4v-.3c0-.94,.18-1.79,.54-2.53s.86-1.32,1.51-1.74,1.35-.63,2.1-.63c1.24,0,2.2,.41,2.88,1.22s1.03,1.98,1.03,3.5v.68h-6.44c.02,.94,.3,1.69,.82,2.27s1.19,.87,2,.87c.57,0,1.06-.12,1.46-.35s.75-.54,1.05-.93l.99,.77c-.8,1.22-1.99,1.84-3.59,1.84Zm-.2-8.53c-.66,0-1.21,.24-1.65,.72s-.72,1.15-.83,2.01h4.76v-.12c-.05-.83-.27-1.47-.67-1.92s-.94-.68-1.62-.68Z"/><path class="cls-1" d="M917.61,313.61c-.25-.04-.51-.06-.8-.06-1.07,0-1.79,.45-2.17,1.36v6.75h-1.63v-9.51h1.58l.03,1.1c.53-.85,1.29-1.27,2.27-1.27,.32,0,.56,.04,.72,.12v1.51Z"/><path class="cls-1" d="M922.89,321.84c-1.29,0-2.34-.42-3.15-1.27s-1.21-1.98-1.21-3.4v-.3c0-.94,.18-1.79,.54-2.53s.86-1.32,1.51-1.74,1.35-.63,2.1-.63c1.24,0,2.2,.41,2.88,1.22s1.03,1.98,1.03,3.5v.68h-6.44c.02,.94,.3,1.69,.82,2.27s1.19,.87,2,.87c.57,0,1.06-.12,1.46-.35s.75-.54,1.05-.93l.99,.77c-.8,1.22-1.99,1.84-3.59,1.84Zm-.2-8.53c-.66,0-1.21,.24-1.65,.72s-.72,1.15-.83,2.01h4.76v-.12c-.05-.83-.27-1.47-.67-1.92s-.94-.68-1.62-.68Z"/><path class="cls-1" d="M934.01,319.14c0-.44-.17-.78-.5-1.02s-.91-.45-1.73-.63-1.48-.39-1.96-.63-.84-.54-1.07-.88-.35-.74-.35-1.21c0-.78,.33-1.44,.99-1.98s1.5-.81,2.53-.81c1.08,0,1.95,.28,2.62,.83s1.01,1.27,1.01,2.14h-1.63c0-.45-.19-.83-.57-1.15s-.85-.48-1.43-.48-1.05,.13-1.39,.39-.5,.59-.5,1.01c0,.39,.16,.69,.47,.89s.87,.39,1.68,.57,1.47,.4,1.97,.65,.88,.55,1.12,.91,.36,.79,.36,1.3c0,.85-.34,1.53-1.02,2.04s-1.56,.77-2.65,.77c-.76,0-1.44-.13-2.02-.4s-1.04-.65-1.38-1.13-.5-1.01-.5-1.57h1.63c.03,.54,.25,.98,.66,1.3s.94,.48,1.61,.48c.62,0,1.11-.12,1.48-.37s.56-.58,.56-1Z"/><path class="cls-1" d="M937.77,309.63c0-.26,.08-.49,.24-.67s.4-.27,.72-.27,.56,.09,.72,.27,.25,.4,.25,.67-.08,.48-.25,.66-.4,.26-.72,.26-.55-.09-.72-.26-.24-.4-.24-.66Zm1.76,12.03h-1.63v-9.51h1.63v9.51Z"/><path class="cls-1" d="M947.66,319.14c0-.44-.17-.78-.5-1.02s-.91-.45-1.73-.63-1.48-.39-1.96-.63-.84-.54-1.07-.88-.35-.74-.35-1.21c0-.78,.33-1.44,.99-1.98s1.5-.81,2.53-.81c1.08,0,1.95,.28,2.62,.83s1.01,1.27,1.01,2.14h-1.63c0-.45-.19-.83-.57-1.15s-.85-.48-1.43-.48-1.05,.13-1.39,.39-.5,.59-.5,1.01c0,.39,.16,.69,.47,.89s.87,.39,1.68,.57,1.47,.4,1.97,.65,.88,.55,1.12,.91,.36,.79,.36,1.3c0,.85-.34,1.53-1.02,2.04s-1.56,.77-2.65,.77c-.76,0-1.44-.13-2.02-.4s-1.04-.65-1.38-1.13-.5-1.01-.5-1.57h1.63c.03,.54,.25,.98,.66,1.3s.94,.48,1.61,.48c.62,0,1.11-.12,1.48-.37s.56-.58,.56-1Z"/><path class="cls-1" d="M960.35,319.42l3.66-10.56h1.85l-4.75,12.8h-1.49l-4.74-12.8h1.84l3.64,10.56Z"/><path class="cls-1" d="M966.48,316.82c0-.93,.18-1.77,.55-2.51s.88-1.32,1.53-1.72,1.4-.61,2.24-.61c1.29,0,2.34,.45,3.14,1.34s1.2,2.09,1.2,3.58v.11c0,.93-.18,1.76-.53,2.49s-.86,1.31-1.52,1.72-1.42,.62-2.27,.62c-1.29,0-2.33-.45-3.13-1.34s-1.2-2.08-1.2-3.56v-.11Zm1.63,.19c0,1.05,.25,1.9,.73,2.54s1.14,.96,1.96,.96,1.48-.32,1.97-.97,.73-1.55,.73-2.72c0-1.04-.25-1.89-.74-2.54s-1.15-.97-1.97-.97-1.45,.32-1.94,.96-.74,1.55-.74,2.74Z"/><path class="cls-1" d="M978.94,321.66h-1.63v-13.5h1.63v13.5Z"/><path class="cls-1" d="M983.75,309.85v2.3h1.78v1.26h-1.78v5.9c0,.38,.08,.67,.24,.86s.43,.29,.81,.29c.19,0,.45-.04,.77-.11v1.31c-.43,.12-.84,.17-1.25,.17-.73,0-1.27-.22-1.64-.66s-.55-1.06-.55-1.87v-5.9h-1.73v-1.26h1.73v-2.3h1.63Z"/><path class="cls-1" d="M993.3,321.66c-.09-.19-.17-.52-.23-1-.76,.79-1.66,1.18-2.71,1.18-.94,0-1.71-.27-2.31-.8s-.9-1.2-.9-2.02c0-.99,.38-1.76,1.13-2.31s1.81-.82,3.18-.82h1.58v-.75c0-.57-.17-1.02-.51-1.36s-.84-.5-1.5-.5c-.58,0-1.07,.15-1.46,.44s-.59,.65-.59,1.06h-1.63c0-.47,.17-.93,.51-1.38s.79-.79,1.37-1.05,1.21-.39,1.9-.39c1.1,0,1.95,.27,2.58,.82s.94,1.3,.97,2.26v4.38c0,.87,.11,1.57,.33,2.08v.14h-1.71Zm-2.7-1.24c.51,0,.99-.13,1.45-.4s.79-.61,.99-1.03v-1.95h-1.27c-1.99,0-2.99,.58-2.99,1.75,0,.51,.17,.91,.51,1.2s.78,.43,1.31,.43Z"/><path class="cls-1" d="M996.83,316.83c0-1.48,.34-2.66,1.03-3.54s1.59-1.31,2.72-1.31,2.07,.41,2.72,1.23l.08-1.05h1.49v9.28c0,1.23-.36,2.2-1.09,2.91s-1.71,1.06-2.94,1.06c-.69,0-1.36-.15-2.01-.44s-1.16-.69-1.5-1.2l.84-.98c.7,.86,1.55,1.29,2.56,1.29,.79,0,1.41-.22,1.85-.67s.66-1.07,.66-1.88v-.82c-.65,.75-1.54,1.12-2.66,1.12s-2.01-.45-2.7-1.34-1.03-2.12-1.03-3.67Zm1.63,.18c0,1.07,.22,1.91,.66,2.53s1.05,.92,1.85,.92c1.03,0,1.78-.47,2.26-1.4v-4.34c-.5-.91-1.25-1.36-2.24-1.36-.79,0-1.41,.31-1.85,.92s-.67,1.53-.67,2.73Z"/><path class="cls-1" d="M1011.26,321.84c-1.29,0-2.34-.42-3.15-1.27s-1.21-1.98-1.21-3.4v-.3c0-.94,.18-1.79,.54-2.53s.86-1.32,1.51-1.74,1.35-.63,2.1-.63c1.24,0,2.2,.41,2.88,1.22s1.03,1.98,1.03,3.5v.68h-6.44c.02,.94,.3,1.69,.82,2.27s1.19,.87,2,.87c.57,0,1.06-.12,1.46-.35s.75-.54,1.05-.93l.99,.77c-.8,1.22-1.99,1.84-3.59,1.84Zm-.2-8.53c-.66,0-1.21,.24-1.65,.72s-.72,1.15-.83,2.01h4.76v-.12c-.05-.83-.27-1.47-.67-1.92s-.94-.68-1.62-.68Z"/></g><g><path class="cls-1" d="M375.13,41.12c-.16,1.35-.66,2.4-1.5,3.13s-1.96,1.1-3.35,1.1c-1.51,0-2.72-.54-3.63-1.63s-1.37-2.53-1.37-4.35v-1.23c0-1.19,.21-2.24,.64-3.14s1.03-1.6,1.81-2.08,1.68-.73,2.71-.73c1.36,0,2.45,.38,3.27,1.14s1.3,1.81,1.43,3.15h-1.7c-.15-1.02-.46-1.76-.95-2.22s-1.17-.69-2.05-.69c-1.08,0-1.92,.4-2.54,1.2-.61,.8-.92,1.93-.92,3.4v1.24c0,1.39,.29,2.5,.87,3.32s1.39,1.23,2.43,1.23c.94,0,1.66-.21,2.16-.64s.83-1.16,1-2.22h1.7Z"/><path class="cls-1" d="M376.75,40.34c0-.93,.18-1.77,.55-2.51s.88-1.32,1.53-1.72,1.4-.61,2.24-.61c1.29,0,2.34,.45,3.14,1.34s1.2,2.09,1.2,3.58v.11c0,.93-.18,1.76-.53,2.49s-.86,1.31-1.52,1.72-1.42,.62-2.27,.62c-1.29,0-2.33-.45-3.13-1.34s-1.2-2.08-1.2-3.56v-.11Zm1.63,.19c0,1.05,.24,1.9,.73,2.54s1.14,.96,1.96,.96,1.48-.32,1.97-.97,.73-1.55,.73-2.72c0-1.04-.25-1.89-.74-2.54s-1.15-.97-1.97-.97-1.45,.32-1.94,.96-.74,1.55-.74,2.74Z"/><path class="cls-1" d="M388.97,35.67l.04,1.05c.7-.82,1.64-1.23,2.82-1.23,1.33,0,2.24,.51,2.72,1.53,.32-.46,.73-.83,1.23-1.11s1.11-.42,1.8-.42c2.09,0,3.15,1.1,3.18,3.31v6.37h-1.63v-6.28c0-.68-.16-1.19-.47-1.52s-.83-.51-1.56-.51c-.6,0-1.1,.18-1.5,.54s-.63,.85-.69,1.45v6.31h-1.63v-6.23c0-1.38-.68-2.07-2.03-2.07-1.07,0-1.8,.45-2.19,1.36v6.94h-1.63v-9.51h1.54Z"/><path class="cls-1" d="M404.75,35.67l.04,1.05c.7-.82,1.64-1.23,2.82-1.23,1.33,0,2.24,.51,2.72,1.53,.32-.46,.73-.83,1.23-1.11s1.11-.42,1.8-.42c2.09,0,3.15,1.1,3.18,3.31v6.37h-1.63v-6.28c0-.68-.16-1.19-.47-1.52s-.83-.51-1.56-.51c-.6,0-1.1,.18-1.5,.54s-.63,.85-.69,1.45v6.31h-1.63v-6.23c0-1.38-.68-2.07-2.03-2.07-1.07,0-1.8,.45-2.19,1.36v6.94h-1.63v-9.51h1.54Z"/><path class="cls-1" d="M418.57,40.34c0-.93,.18-1.77,.55-2.51s.88-1.32,1.53-1.72,1.4-.61,2.24-.61c1.29,0,2.34,.45,3.14,1.34s1.2,2.09,1.2,3.58v.11c0,.93-.18,1.76-.53,2.49s-.86,1.31-1.52,1.72-1.42,.62-2.27,.62c-1.29,0-2.33-.45-3.13-1.34s-1.2-2.08-1.2-3.56v-.11Zm1.63,.19c0,1.05,.24,1.9,.73,2.54s1.14,.96,1.96,.96,1.48-.32,1.97-.97,.73-1.55,.73-2.72c0-1.04-.25-1.89-.74-2.54s-1.15-.97-1.97-.97-1.45,.32-1.94,.96-.74,1.55-.74,2.74Z"/><path class="cls-1" d="M430.8,35.67l.05,1.2c.73-.91,1.68-1.37,2.85-1.37,2.01,0,3.02,1.13,3.04,3.4v6.28h-1.63v-6.29c0-.69-.16-1.19-.47-1.52s-.79-.49-1.44-.49c-.53,0-.99,.14-1.39,.42s-.71,.65-.93,1.11v6.78h-1.63v-9.51h1.54Z"/><path class="cls-1" d="M453.32,41.12c-.16,1.35-.66,2.4-1.5,3.13s-1.96,1.1-3.35,1.1c-1.51,0-2.72-.54-3.63-1.63s-1.37-2.53-1.37-4.35v-1.23c0-1.19,.21-2.24,.64-3.14s1.03-1.6,1.81-2.08,1.68-.73,2.71-.73c1.36,0,2.45,.38,3.27,1.14s1.3,1.81,1.43,3.15h-1.7c-.15-1.02-.46-1.76-.95-2.22s-1.17-.69-2.05-.69c-1.08,0-1.92,.4-2.54,1.2-.61,.8-.92,1.93-.92,3.4v1.24c0,1.39,.29,2.5,.87,3.32s1.39,1.23,2.43,1.23c.94,0,1.66-.21,2.16-.64s.83-1.16,1-2.22h1.7Z"/><path class="cls-1" d="M457.8,32.38l4.18,10.44,4.18-10.44h2.19v12.8h-1.69v-4.98l.16-5.38-4.2,10.36h-1.29l-4.19-10.34,.17,5.35v4.98h-1.69v-12.8h2.18Z"/><path class="cls-1" d="M481.18,39.19c0,1.25-.21,2.35-.63,3.28s-1.02,1.65-1.79,2.14-1.68,.74-2.71,.74-1.9-.25-2.68-.74-1.38-1.2-1.81-2.12-.65-1.98-.66-3.19v-.92c0-1.23,.21-2.32,.64-3.26s1.03-1.67,1.81-2.17,1.68-.75,2.69-.75,1.93,.25,2.71,.74,1.38,1.21,1.81,2.15,.63,2.03,.63,3.28v.81Zm-1.68-.83c0-1.52-.3-2.68-.91-3.49s-1.46-1.22-2.56-1.22-1.91,.41-2.52,1.22-.93,1.94-.94,3.38v.94c0,1.47,.31,2.63,.93,3.47s1.47,1.26,2.55,1.26,1.93-.4,2.53-1.19,.91-1.93,.92-3.41v-.95Z"/><path class="cls-1" d="M487.48,39.48c-1.45-.42-2.5-.93-3.16-1.53s-.99-1.35-.99-2.25c0-1.01,.4-1.84,1.21-2.5s1.85-.99,3.14-.99c.88,0,1.66,.17,2.35,.51s1.22,.81,1.6,1.41c.38,.6,.57,1.25,.57,1.96h-1.7c0-.78-.25-1.39-.74-1.83s-1.19-.67-2.08-.67c-.83,0-1.48,.18-1.95,.55-.47,.37-.7,.88-.7,1.53,0,.52,.22,.96,.66,1.33s1.2,.69,2.26,.99,1.9,.63,2.5,.99,1.05,.78,1.34,1.26,.43,1.05,.43,1.7c0,1.04-.4,1.87-1.21,2.49s-1.89,.94-3.24,.94c-.88,0-1.7-.17-2.46-.51s-1.35-.8-1.76-1.38-.62-1.25-.62-2h1.7c0,.77,.29,1.38,.86,1.83s1.33,.67,2.29,.67c.89,0,1.57-.18,2.05-.54s.71-.86,.71-1.49-.22-1.11-.66-1.45-1.24-.68-2.39-1.02Z"/><path class="cls-1" d="M500.66,45.18h-1.69v-12.8h1.69v12.8Z"/><path class="cls-1" d="M505.03,35.67l.05,1.2c.73-.91,1.68-1.37,2.85-1.37,2.01,0,3.02,1.13,3.04,3.4v6.28h-1.63v-6.29c0-.69-.16-1.19-.47-1.52s-.79-.49-1.44-.49c-.53,0-.99,.14-1.39,.42s-.71,.65-.93,1.11v6.78h-1.63v-9.51h1.54Z"/><path class="cls-1" d="M521.45,40.53c0,1.45-.33,2.61-.99,3.5s-1.56,1.33-2.69,1.33-2.06-.37-2.72-1.1v4.58h-1.63v-13.17h1.49l.08,1.05c.66-.82,1.58-1.23,2.76-1.23s2.05,.43,2.71,1.29,1,2.06,1,3.59v.15Zm-1.63-.18c0-1.07-.23-1.92-.69-2.54s-1.08-.93-1.88-.93c-.98,0-1.72,.44-2.21,1.31v4.54c.49,.87,1.23,1.3,2.23,1.3,.78,0,1.4-.31,1.86-.93s.69-1.54,.69-2.76Z"/><path class="cls-1" d="M529.39,44.24c-.63,.74-1.56,1.12-2.79,1.12-1.01,0-1.79-.29-2.32-.88s-.8-1.46-.8-2.61v-6.19h1.63v6.14c0,1.44,.59,2.16,1.76,2.16,1.24,0,2.07-.46,2.48-1.39v-6.92h1.63v9.51h-1.55l-.04-.94Z"/><path class="cls-1" d="M535.65,33.37v2.3h1.78v1.26h-1.78v5.9c0,.38,.08,.67,.24,.86,.16,.19,.43,.29,.81,.29,.19,0,.45-.04,.77-.11v1.31c-.43,.12-.84,.17-1.25,.17-.73,0-1.27-.22-1.64-.66s-.55-1.06-.55-1.87v-5.9h-1.73v-1.26h1.73v-2.3h1.63Z"/><path class="cls-1" d="M548.27,42.94l3.66-10.56h1.85l-4.75,12.8h-1.49l-4.74-12.8h1.84l3.64,10.56Z"/><path class="cls-1" d="M554.39,40.34c0-.93,.18-1.77,.55-2.51,.37-.74,.88-1.32,1.53-1.72,.65-.4,1.4-.61,2.24-.61,1.29,0,2.34,.45,3.14,1.34,.8,.9,1.2,2.09,1.2,3.58v.11c0,.93-.18,1.76-.53,2.49-.36,.74-.86,1.31-1.52,1.72-.66,.41-1.42,.62-2.27,.62-1.29,0-2.33-.45-3.13-1.34-.8-.9-1.2-2.08-1.2-3.56v-.11Zm1.63,.19c0,1.05,.24,1.9,.73,2.54s1.14,.96,1.96,.96,1.48-.32,1.97-.97,.73-1.55,.73-2.72c0-1.04-.25-1.89-.74-2.54s-1.15-.97-1.97-.97-1.45,.32-1.94,.96-.74,1.55-.74,2.74Z"/><path class="cls-1" d="M566.86,45.18h-1.63v-13.5h1.63v13.5Z"/><path class="cls-1" d="M571.66,33.37v2.3h1.78v1.26h-1.78v5.9c0,.38,.08,.67,.24,.86,.16,.19,.43,.29,.81,.29,.19,0,.45-.04,.77-.11v1.31c-.43,.12-.84,.17-1.25,.17-.73,0-1.27-.22-1.64-.66s-.55-1.06-.55-1.87v-5.9h-1.73v-1.26h1.73v-2.3h1.63Z"/><path class="cls-1" d="M581.21,45.18c-.09-.19-.17-.52-.23-1-.76,.79-1.66,1.18-2.71,1.18-.94,0-1.71-.27-2.31-.8-.6-.53-.9-1.2-.9-2.02,0-.99,.38-1.76,1.13-2.31,.75-.55,1.81-.82,3.18-.82h1.58v-.75c0-.57-.17-1.02-.51-1.36s-.84-.51-1.5-.51c-.58,0-1.07,.15-1.46,.44s-.59,.65-.59,1.06h-1.63c0-.47,.17-.93,.5-1.38s.79-.79,1.37-1.05,1.21-.39,1.9-.39c1.1,0,1.95,.27,2.58,.82s.94,1.3,.97,2.26v4.38c0,.87,.11,1.57,.33,2.08v.14h-1.71Zm-2.7-1.24c.51,0,.99-.13,1.45-.4s.79-.61,.99-1.03v-1.95h-1.27c-1.99,0-2.99,.58-2.99,1.75,0,.51,.17,.91,.51,1.2s.78,.43,1.31,.43Z"/><path class="cls-1" d="M584.74,40.35c0-1.48,.34-2.66,1.03-3.54s1.59-1.31,2.72-1.31,2.07,.41,2.72,1.23l.08-1.05h1.49v9.28c0,1.23-.37,2.2-1.09,2.91-.73,.71-1.71,1.06-2.94,1.06-.69,0-1.36-.15-2.01-.44s-1.16-.69-1.5-1.2l.84-.98c.7,.86,1.55,1.29,2.56,1.29,.79,0,1.41-.22,1.85-.67s.66-1.07,.66-1.88v-.82c-.65,.75-1.54,1.12-2.66,1.12s-2.01-.45-2.7-1.34c-.69-.9-1.03-2.12-1.03-3.67Zm1.63,.18c0,1.07,.22,1.91,.66,2.53s1.05,.92,1.85,.92c1.03,0,1.78-.47,2.26-1.4v-4.34c-.5-.91-1.25-1.36-2.24-1.36-.79,0-1.41,.31-1.85,.92s-.67,1.53-.67,2.73Z"/><path class="cls-1" d="M599.17,45.36c-1.29,0-2.34-.42-3.15-1.27s-1.21-1.98-1.21-3.4v-.3c0-.94,.18-1.79,.54-2.53,.36-.74,.86-1.32,1.51-1.74s1.35-.63,2.11-.63c1.24,0,2.2,.41,2.88,1.22s1.03,1.98,1.03,3.5v.68h-6.44c.02,.94,.3,1.69,.82,2.27,.52,.58,1.19,.87,2,.87,.57,0,1.06-.12,1.46-.35s.75-.54,1.05-.93l.99,.77c-.8,1.22-1.99,1.84-3.59,1.84Zm-.2-8.53c-.66,0-1.21,.24-1.65,.72s-.72,1.15-.83,2.01h4.76v-.12c-.05-.83-.27-1.47-.67-1.92s-.94-.68-1.62-.68Z"/><path class="cls-1" d="M611.17,43.8h6.06v1.38h-7.76v-12.8h1.7v11.42Z"/><path class="cls-1" d="M622.85,45.36c-1.29,0-2.34-.42-3.15-1.27s-1.21-1.98-1.21-3.4v-.3c0-.94,.18-1.79,.54-2.53,.36-.74,.86-1.32,1.51-1.74s1.35-.63,2.11-.63c1.24,0,2.2,.41,2.88,1.22s1.03,1.98,1.03,3.5v.68h-6.44c.02,.94,.3,1.69,.82,2.27,.52,.58,1.19,.87,2,.87,.57,0,1.06-.12,1.46-.35s.75-.54,1.05-.93l.99,.77c-.8,1.22-1.99,1.84-3.59,1.84Zm-.2-8.53c-.66,0-1.21,.24-1.65,.72s-.72,1.15-.83,2.01h4.76v-.12c-.05-.83-.27-1.47-.67-1.92s-.94-.68-1.62-.68Z"/><path class="cls-1" d="M631.46,42.97l2.36-7.3h1.66l-3.41,9.51h-1.24l-3.45-9.51h1.66l2.42,7.3Z"/><path class="cls-1" d="M640.88,45.36c-1.29,0-2.34-.42-3.15-1.27s-1.21-1.98-1.21-3.4v-.3c0-.94,.18-1.79,.54-2.53,.36-.74,.86-1.32,1.51-1.74s1.35-.63,2.11-.63c1.24,0,2.2,.41,2.88,1.22s1.03,1.98,1.03,3.5v.68h-6.44c.02,.94,.3,1.69,.82,2.27,.52,.58,1.19,.87,2,.87,.57,0,1.06-.12,1.46-.35s.75-.54,1.05-.93l.99,.77c-.8,1.22-1.99,1.84-3.59,1.84Zm-.2-8.53c-.66,0-1.21,.24-1.65,.72s-.72,1.15-.83,2.01h4.76v-.12c-.05-.83-.27-1.47-.67-1.92s-.94-.68-1.62-.68Z"/><path class="cls-1" d="M648.23,45.18h-1.63v-13.5h1.63v13.5Z"/><path class="cls-1" d="M656.37,42.66c0-.44-.17-.78-.5-1.02-.33-.24-.91-.45-1.73-.63s-1.48-.39-1.96-.63c-.48-.25-.84-.54-1.07-.88-.23-.34-.35-.74-.35-1.21,0-.78,.33-1.44,.99-1.98,.66-.54,1.5-.81,2.53-.81,1.08,0,1.95,.28,2.62,.83s1.01,1.27,1.01,2.14h-1.63c0-.45-.19-.83-.57-1.15-.38-.32-.85-.48-1.43-.48s-1.05,.13-1.39,.39-.5,.59-.5,1.01c0,.39,.16,.69,.47,.89s.87,.39,1.68,.57c.81,.18,1.47,.4,1.97,.65s.88,.56,1.12,.91c.24,.35,.36,.79,.36,1.3,0,.85-.34,1.53-1.02,2.04s-1.56,.77-2.65,.77c-.76,0-1.44-.13-2.02-.4s-1.04-.65-1.38-1.13c-.33-.48-.5-1.01-.5-1.57h1.63c.03,.54,.25,.98,.65,1.3s.95,.48,1.61,.48c.62,0,1.11-.12,1.48-.37s.56-.58,.56-1Z"/></g><g><path class="cls-1" d="M244.78,493.31l.25,1.69,.36-1.52,2.53-8.93h1.42l2.47,8.93,.35,1.55,.27-1.72,1.99-8.75h1.7l-3.1,12.8h-1.54l-2.64-9.33-.2-.98-.2,.98-2.73,9.33h-1.54l-3.09-12.8h1.69l2.02,8.76Z"/><path class="cls-1" d="M257.74,485.31c0-.26,.08-.49,.24-.67s.4-.27,.72-.27,.56,.09,.72,.27,.25,.4,.25,.67-.08,.48-.25,.66-.4,.26-.72,.26-.56-.09-.72-.26-.24-.4-.24-.66Zm1.76,12.03h-1.63v-9.51h1.63v9.51Z"/><path class="cls-1" d="M264.31,485.53v2.3h1.78v1.26h-1.78v5.9c0,.38,.08,.67,.24,.86s.43,.29,.81,.29c.19,0,.45-.04,.77-.11v1.31c-.43,.12-.84,.17-1.25,.17-.73,0-1.27-.22-1.64-.66s-.55-1.06-.55-1.87v-5.9h-1.73v-1.26h1.73v-2.3h1.63Z"/><path class="cls-1" d="M269.61,488.98c.72-.88,1.66-1.33,2.81-1.33,2.01,0,3.02,1.13,3.04,3.4v6.28h-1.63v-6.29c0-.69-.16-1.19-.47-1.52s-.79-.49-1.44-.49c-.53,0-.99,.14-1.39,.42s-.71,.65-.93,1.11v6.78h-1.63v-13.5h1.63v5.14Z"/><path class="cls-1" d="M277.47,492.5c0-.93,.18-1.77,.55-2.51s.88-1.32,1.53-1.72,1.4-.61,2.24-.61c1.29,0,2.34,.45,3.14,1.34s1.2,2.09,1.2,3.58v.11c0,.93-.18,1.76-.53,2.49s-.86,1.31-1.52,1.72-1.42,.62-2.27,.62c-1.29,0-2.33-.45-3.13-1.34s-1.2-2.08-1.2-3.56v-.11Zm1.63,.19c0,1.05,.24,1.9,.73,2.54s1.14,.96,1.96,.96,1.48-.32,1.97-.97,.73-1.55,.73-2.72c0-1.04-.25-1.89-.74-2.54s-1.15-.97-1.97-.97-1.45,.32-1.94,.96-.74,1.55-.74,2.74Z"/><path class="cls-1" d="M294.03,496.4c-.63,.74-1.56,1.12-2.79,1.12-1.01,0-1.79-.29-2.32-.88s-.8-1.46-.8-2.61v-6.19h1.63v6.14c0,1.44,.59,2.16,1.76,2.16,1.24,0,2.07-.46,2.48-1.39v-6.92h1.63v9.51h-1.55l-.04-.94Z"/><path class="cls-1" d="M300.29,485.53v2.3h1.78v1.26h-1.78v5.9c0,.38,.08,.67,.24,.86s.43,.29,.81,.29c.19,0,.45-.04,.77-.11v1.31c-.43,.12-.84,.17-1.25,.17-.73,0-1.27-.22-1.64-.66s-.55-1.06-.55-1.87v-5.9h-1.73v-1.26h1.73v-2.3h1.63Z"/><path class="cls-1" d="M318.51,497.34h-1.7v-5.92h-6.45v5.92h-1.69v-12.8h1.69v5.5h6.45v-5.5h1.7v12.8Z"/><path class="cls-1" d="M324.36,494.96l2.21-7.13h1.74l-3.82,10.98c-.59,1.58-1.53,2.37-2.82,2.37l-.31-.03-.61-.11v-1.32l.44,.04c.55,0,.98-.11,1.29-.33s.56-.63,.76-1.22l.36-.97-3.39-9.4h1.78l2.37,7.13Z"/><path class="cls-1" d="M335.31,494.82c0-.44-.17-.78-.5-1.02s-.91-.45-1.73-.63-1.48-.39-1.96-.63-.84-.54-1.07-.88-.35-.74-.35-1.21c0-.78,.33-1.44,.99-1.98s1.5-.81,2.53-.81c1.08,0,1.95,.28,2.62,.83s1.01,1.27,1.01,2.14h-1.63c0-.45-.19-.83-.57-1.15s-.85-.48-1.43-.48-1.05,.13-1.39,.39-.5,.59-.5,1.01c0,.39,.16,.69,.47,.89s.87,.39,1.68,.57,1.47,.4,1.97,.65,.88,.55,1.12,.91,.36,.79,.36,1.3c0,.85-.34,1.53-1.02,2.04s-1.56,.77-2.65,.77c-.76,0-1.44-.13-2.02-.4s-1.04-.65-1.38-1.13-.5-1.01-.5-1.57h1.63c.03,.54,.25,.98,.65,1.3s.94,.48,1.61,.48c.62,0,1.11-.12,1.48-.37s.56-.58,.56-1Z"/><path class="cls-1" d="M341.26,485.53v2.3h1.78v1.26h-1.78v5.9c0,.38,.08,.67,.24,.86s.43,.29,.81,.29c.19,0,.45-.04,.77-.11v1.31c-.43,.12-.84,.17-1.25,.17-.73,0-1.27-.22-1.64-.66s-.55-1.06-.55-1.87v-5.9h-1.73v-1.26h1.73v-2.3h1.63Z"/><path class="cls-1" d="M348.88,497.52c-1.29,0-2.34-.42-3.15-1.27s-1.21-1.98-1.21-3.4v-.3c0-.94,.18-1.79,.54-2.53s.86-1.32,1.51-1.74,1.35-.63,2.1-.63c1.24,0,2.2,.41,2.88,1.22s1.03,1.98,1.03,3.5v.68h-6.44c.02,.94,.3,1.69,.82,2.27s1.19,.87,2,.87c.57,0,1.06-.12,1.46-.35s.75-.54,1.05-.93l.99,.77c-.8,1.22-1.99,1.84-3.59,1.84Zm-.2-8.53c-.66,0-1.21,.24-1.65,.72s-.72,1.15-.83,2.01h4.76v-.12c-.05-.83-.27-1.47-.67-1.92s-.94-.68-1.62-.68Z"/><path class="cls-1" d="M359.06,489.29c-.25-.04-.51-.06-.8-.06-1.07,0-1.79,.45-2.17,1.36v6.75h-1.63v-9.51h1.58l.03,1.1c.53-.85,1.29-1.27,2.27-1.27,.32,0,.56,.04,.72,.12v1.51Z"/><path class="cls-1" d="M364.34,497.52c-1.29,0-2.34-.42-3.15-1.27s-1.21-1.98-1.21-3.4v-.3c0-.94,.18-1.79,.54-2.53s.86-1.32,1.51-1.74,1.35-.63,2.1-.63c1.24,0,2.2,.41,2.88,1.22s1.03,1.98,1.03,3.5v.68h-6.44c.02,.94,.3,1.69,.82,2.27s1.19,.87,2,.87c.57,0,1.06-.12,1.46-.35s.75-.54,1.05-.93l.99,.77c-.8,1.22-1.99,1.84-3.59,1.84Zm-.2-8.53c-.66,0-1.21,.24-1.65,.72s-.72,1.15-.83,2.01h4.76v-.12c-.05-.83-.27-1.47-.67-1.92s-.94-.68-1.62-.68Z"/><path class="cls-1" d="M375.46,494.82c0-.44-.17-.78-.5-1.02s-.91-.45-1.73-.63-1.48-.39-1.96-.63-.84-.54-1.07-.88-.35-.74-.35-1.21c0-.78,.33-1.44,.99-1.98s1.5-.81,2.53-.81c1.08,0,1.95,.28,2.62,.83s1.01,1.27,1.01,2.14h-1.63c0-.45-.19-.83-.57-1.15s-.85-.48-1.43-.48-1.05,.13-1.39,.39-.5,.59-.5,1.01c0,.39,.16,.69,.47,.89s.87,.39,1.68,.57,1.47,.4,1.97,.65,.88,.55,1.12,.91,.36,.79,.36,1.3c0,.85-.34,1.53-1.02,2.04s-1.56,.77-2.65,.77c-.76,0-1.44-.13-2.02-.4s-1.04-.65-1.38-1.13-.5-1.01-.5-1.57h1.63c.03,.54,.25,.98,.65,1.3s.94,.48,1.61,.48c.62,0,1.11-.12,1.48-.37s.56-.58,.56-1Z"/><path class="cls-1" d="M379.22,485.31c0-.26,.08-.49,.24-.67s.4-.27,.72-.27,.56,.09,.72,.27,.25,.4,.25,.67-.08,.48-.25,.66-.4,.26-.72,.26-.56-.09-.72-.26-.24-.4-.24-.66Zm1.76,12.03h-1.63v-9.51h1.63v9.51Z"/><path class="cls-1" d="M389.11,494.82c0-.44-.17-.78-.5-1.02s-.91-.45-1.73-.63-1.48-.39-1.96-.63-.84-.54-1.07-.88-.35-.74-.35-1.21c0-.78,.33-1.44,.99-1.98s1.5-.81,2.53-.81c1.08,0,1.95,.28,2.62,.83s1.01,1.27,1.01,2.14h-1.63c0-.45-.19-.83-.57-1.15s-.85-.48-1.43-.48-1.05,.13-1.39,.39c-.33,.26-.5,.59-.5,1.01,0,.39,.16,.69,.47,.89s.87,.39,1.68,.57,1.47,.4,1.97,.65c.5,.25,.88,.55,1.12,.91s.36,.79,.36,1.3c0,.85-.34,1.53-1.02,2.04s-1.56,.77-2.65,.77c-.76,0-1.44-.13-2.02-.4s-1.04-.65-1.38-1.13-.5-1.01-.5-1.57h1.63c.03,.54,.25,.98,.65,1.3s.94,.48,1.61,.48c.62,0,1.11-.12,1.48-.37s.56-.58,.56-1Z"/></g><g><path class="cls-1" d="M734.28,373.56h6.06v1.38h-7.76v-12.8h1.7v11.42Z"/><path class="cls-1" d="M751.55,368.95c0,1.25-.21,2.35-.63,3.28s-1.02,1.65-1.79,2.14-1.68,.74-2.71,.74-1.9-.25-2.68-.74-1.38-1.2-1.82-2.12-.65-1.98-.66-3.19v-.92c0-1.23,.21-2.32,.64-3.26s1.03-1.67,1.81-2.17,1.68-.75,2.69-.75,1.93,.25,2.71,.74,1.38,1.21,1.81,2.15,.63,2.03,.63,3.28v.81Zm-1.68-.83c0-1.52-.3-2.68-.91-3.49s-1.46-1.22-2.56-1.22-1.91,.41-2.52,1.22-.93,1.94-.94,3.38v.94c0,1.47,.31,2.63,.93,3.47s1.47,1.26,2.55,1.26,1.93-.4,2.53-1.19,.91-1.93,.92-3.42v-.95Z"/><path class="cls-1" d="M756.84,370.91l.25,1.69,.36-1.52,2.53-8.93h1.42l2.47,8.93,.35,1.55,.27-1.72,1.99-8.75h1.7l-3.1,12.8h-1.54l-2.64-9.33-.2-.98-.2,.98-2.73,9.33h-1.54l-3.09-12.8h1.69l2.02,8.76Z"/><path class="cls-1" d="M774.19,369.75c0-1.32,.18-2.6,.53-3.81s.88-2.33,1.59-3.32,1.43-1.7,2.19-2.11l.33,1.07c-.86,.66-1.56,1.66-2.11,3.01s-.85,2.86-.9,4.53v.75c0,2.26,.4,4.22,1.23,5.89,.5,1,1.09,1.78,1.78,2.34l-.33,.99c-.78-.43-1.52-1.16-2.23-2.18-1.38-1.99-2.07-4.37-2.07-7.15Z"/><path class="cls-1" d="M788.26,369.48c0,1.9-.33,3.32-.98,4.25-.65,.93-1.67,1.39-3.05,1.39s-2.38-.45-3.03-1.36-1-2.26-1.02-4.06v-2.17c0-1.88,.33-3.28,.98-4.19s1.67-1.37,3.06-1.37,2.39,.44,3.04,1.32,.98,2.24,1,4.08v2.11Zm-1.63-2.22c0-1.38-.19-2.38-.58-3.01s-1-.95-1.84-.95-1.44,.31-1.82,.94-.58,1.59-.59,2.89v2.6c0,1.38,.2,2.4,.6,3.06,.4,.66,1.01,.99,1.82,.99s1.4-.31,1.79-.93,.59-1.6,.61-2.94v-2.66Z"/><path class="cls-1" d="M794.26,369.83c0,1.31-.17,2.56-.51,3.76s-.87,2.3-1.57,3.32-1.45,1.73-2.22,2.16l-.34-.99c.9-.69,1.63-1.76,2.17-3.22s.83-3.07,.84-4.85v-.28c0-1.23-.13-2.37-.39-3.43s-.62-2.01-1.08-2.84-.98-1.49-1.55-1.96l.34-.99c.77,.43,1.51,1.14,2.21,2.14s1.22,2.11,1.57,3.31,.52,2.5,.52,3.88Z"/></g><g><path class="cls-1" d="M783.18,268.38h-1.7v-5.92h-6.45v5.92h-1.69v-12.8h1.69v5.5h6.45v-5.5h1.7v12.8Z"/><path class="cls-1" d="M787.99,268.38h-1.69v-12.8h1.69v12.8Z"/><path class="cls-1" d="M800.52,266.7c-.43,.62-1.04,1.08-1.82,1.39s-1.68,.46-2.71,.46-1.97-.25-2.78-.73-1.43-1.18-1.88-2.09-.67-1.95-.68-3.14v-1.12c0-1.93,.45-3.42,1.35-4.48s2.16-1.59,3.79-1.59c1.34,0,2.41,.34,3.23,1.02s1.31,1.65,1.49,2.9h-1.69c-.32-1.7-1.32-2.55-3.02-2.55-1.13,0-1.99,.4-2.57,1.19-.58,.79-.88,1.95-.88,3.45v1.05c0,1.44,.33,2.58,.98,3.43s1.54,1.27,2.66,1.27c.63,0,1.19-.07,1.66-.21,.47-.14,.87-.38,1.18-.71v-2.87h-2.96v-1.38h4.64v4.69Z"/><path class="cls-1" d="M813.17,268.38h-1.7v-5.92h-6.45v5.92h-1.69v-12.8h1.69v5.5h6.45v-5.5h1.7v12.8Z"/><path class="cls-1" d="M820.31,263.19c0-1.32,.18-2.6,.53-3.81s.88-2.33,1.59-3.32,1.43-1.7,2.19-2.11l.33,1.07c-.86,.66-1.56,1.66-2.11,3.01s-.85,2.86-.9,4.53v.75c0,2.26,.4,4.22,1.23,5.89,.5,1,1.09,1.78,1.78,2.34l-.33,.99c-.78-.43-1.52-1.16-2.23-2.18-1.38-1.99-2.07-4.37-2.07-7.15Z"/><path class="cls-1" d="M831.7,268.38h-1.63v-10.84l-3.28,1.2v-1.48l4.66-1.75h.25v12.86Z"/><path class="cls-1" d="M840.38,263.27c0,1.31-.17,2.56-.51,3.76s-.87,2.3-1.57,3.32-1.45,1.73-2.22,2.16l-.34-.99c.9-.69,1.63-1.77,2.17-3.22s.83-3.07,.84-4.85v-.28c0-1.23-.13-2.37-.39-3.43s-.62-2.01-1.08-2.84-.98-1.49-1.55-1.96l.34-.99c.77,.43,1.51,1.14,2.21,2.14s1.22,2.11,1.57,3.31,.52,2.5,.52,3.88Z"/></g><g><path class="cls-1" d="M665.56,491.64c-1.45-.42-2.5-.93-3.16-1.53-.66-.61-.99-1.35-.99-2.25,0-1.01,.4-1.84,1.21-2.5,.81-.66,1.85-.99,3.14-.99,.88,0,1.66,.17,2.35,.51s1.22,.81,1.6,1.41,.57,1.25,.57,1.96h-1.7c0-.78-.25-1.39-.74-1.83s-1.19-.67-2.08-.67c-.83,0-1.48,.18-1.95,.55-.47,.37-.7,.88-.7,1.53,0,.52,.22,.96,.66,1.33s1.2,.69,2.26,.99,1.9,.63,2.5,.99c.6,.36,1.05,.78,1.34,1.26s.44,1.05,.44,1.7c0,1.04-.4,1.87-1.21,2.49-.81,.62-1.89,.94-3.24,.94-.88,0-1.7-.17-2.46-.51-.76-.34-1.35-.8-1.76-1.38s-.62-1.25-.62-2h1.7c0,.77,.29,1.38,.86,1.83,.57,.45,1.33,.67,2.29,.67,.89,0,1.57-.18,2.05-.54s.71-.86,.71-1.49-.22-1.11-.66-1.46c-.44-.34-1.24-.68-2.39-1.01Z"/><path class="cls-1" d="M676.03,496.19c.58,0,1.09-.18,1.52-.53s.67-.79,.72-1.32h1.54c-.03,.54-.22,1.06-.56,1.56s-.81,.88-1.38,1.18-1.19,.44-1.83,.44c-1.29,0-2.33-.43-3.09-1.3-.76-.86-1.15-2.05-1.15-3.55v-.27c0-.93,.17-1.75,.51-2.47s.83-1.28,1.46-1.68,1.39-.6,2.25-.6c1.07,0,1.95,.32,2.66,.96s1.08,1.47,1.13,2.49h-1.54c-.05-.62-.28-1.12-.7-1.52-.42-.4-.94-.59-1.55-.59-.83,0-1.47,.3-1.92,.89-.45,.59-.68,1.45-.68,2.58v.31c0,1.1,.23,1.94,.68,2.53s1.1,.89,1.93,.89Z"/><path class="cls-1" d="M683.26,488.98c.72-.88,1.66-1.33,2.81-1.33,2.01,0,3.02,1.13,3.04,3.4v6.28h-1.63v-6.29c0-.69-.16-1.19-.47-1.52s-.79-.49-1.44-.49c-.53,0-.99,.14-1.39,.42s-.71,.65-.93,1.11v6.78h-1.63v-13.5h1.63v5.14Z"/><path class="cls-1" d="M693.08,487.83l.04,1.05c.7-.82,1.64-1.23,2.82-1.23,1.33,0,2.24,.51,2.72,1.53,.32-.46,.73-.83,1.23-1.11s1.11-.42,1.8-.42c2.09,0,3.15,1.1,3.18,3.31v6.37h-1.63v-6.28c0-.68-.16-1.19-.47-1.53-.31-.34-.83-.5-1.56-.5-.6,0-1.1,.18-1.5,.54-.4,.36-.63,.85-.69,1.46v6.31h-1.63v-6.23c0-1.38-.68-2.07-2.03-2.07-1.07,0-1.8,.45-2.19,1.36v6.94h-1.63v-9.51h1.54Z"/><path class="cls-1" d="M707.34,485.31c0-.26,.08-.49,.24-.67s.4-.27,.72-.27,.56,.09,.72,.27,.25,.4,.25,.67-.08,.48-.25,.66-.4,.26-.72,.26-.56-.09-.72-.26-.24-.4-.24-.66Zm1.76,12.03h-1.63v-9.51h1.63v9.51Z"/><path class="cls-1" d="M713.9,485.53v2.3h1.78v1.26h-1.78v5.91c0,.38,.08,.67,.24,.86,.16,.19,.43,.29,.81,.29,.19,0,.45-.04,.77-.11v1.31c-.43,.12-.84,.17-1.25,.17-.73,0-1.27-.22-1.64-.66s-.55-1.06-.55-1.87v-5.9h-1.73v-1.26h1.73v-2.3h1.63Z"/><path class="cls-1" d="M719.78,485.53v2.3h1.78v1.26h-1.78v5.91c0,.38,.08,.67,.24,.86,.16,.19,.43,.29,.81,.29,.19,0,.45-.04,.77-.11v1.31c-.43,.12-.84,.17-1.25,.17-.73,0-1.27-.22-1.64-.66s-.55-1.06-.55-1.87v-5.9h-1.73v-1.26h1.73v-2.3h1.63Z"/><path class="cls-1" d="M736.66,485.92h-4.11v11.42h-1.68v-11.42h-4.1v-1.38h9.9v1.38Z"/><path class="cls-1" d="M742.24,489.29c-.25-.04-.51-.06-.8-.06-1.07,0-1.79,.45-2.17,1.36v6.75h-1.63v-9.51h1.58l.03,1.1c.53-.85,1.29-1.27,2.27-1.27,.32,0,.56,.04,.72,.12v1.51Z"/><path class="cls-1" d="M743.74,485.31c0-.26,.08-.49,.24-.67s.4-.27,.72-.27,.56,.09,.72,.27,.25,.4,.25,.67-.08,.48-.25,.66-.4,.26-.72,.26-.56-.09-.72-.26-.24-.4-.24-.66Zm1.76,12.03h-1.63v-9.51h1.63v9.51Z"/><path class="cls-1" d="M747.71,492.51c0-1.48,.34-2.66,1.03-3.54,.69-.88,1.59-1.31,2.72-1.31s2.07,.41,2.72,1.23l.08-1.05h1.49v9.28c0,1.23-.37,2.2-1.09,2.91s-1.71,1.06-2.94,1.06c-.69,0-1.36-.15-2.01-.44s-1.16-.69-1.5-1.2l.84-.98c.7,.86,1.55,1.29,2.56,1.29,.79,0,1.41-.22,1.85-.67s.66-1.07,.66-1.88v-.82c-.65,.75-1.54,1.12-2.66,1.12s-2.01-.45-2.7-1.34-1.03-2.12-1.03-3.67Zm1.63,.18c0,1.07,.22,1.92,.66,2.53,.44,.61,1.05,.92,1.85,.92,1.03,0,1.78-.47,2.26-1.4v-4.34c-.5-.91-1.25-1.36-2.24-1.36-.79,0-1.41,.31-1.85,.92s-.67,1.53-.67,2.73Z"/><path class="cls-1" d="M757.81,492.51c0-1.48,.34-2.66,1.03-3.54,.69-.88,1.59-1.31,2.72-1.31s2.07,.41,2.72,1.23l.08-1.05h1.49v9.28c0,1.23-.37,2.2-1.09,2.91s-1.71,1.06-2.94,1.06c-.69,0-1.36-.15-2.01-.44s-1.16-.69-1.5-1.2l.84-.98c.7,.86,1.55,1.29,2.56,1.29,.79,0,1.41-.22,1.85-.67s.66-1.07,.66-1.88v-.82c-.65,.75-1.54,1.12-2.66,1.12s-2.01-.45-2.7-1.34-1.03-2.12-1.03-3.67Zm1.63,.18c0,1.07,.22,1.92,.66,2.53,.44,.61,1.05,.92,1.85,.92,1.03,0,1.78-.47,2.26-1.4v-4.34c-.5-.91-1.25-1.36-2.24-1.36-.79,0-1.41,.31-1.85,.92s-.67,1.53-.67,2.73Z"/><path class="cls-1" d="M772.24,497.52c-1.29,0-2.34-.42-3.15-1.27-.81-.85-1.21-1.98-1.21-3.4v-.3c0-.94,.18-1.79,.54-2.53,.36-.74,.86-1.32,1.51-1.74,.65-.42,1.35-.63,2.11-.63,1.24,0,2.2,.41,2.88,1.22s1.03,1.98,1.03,3.5v.68h-6.44c.02,.94,.3,1.7,.82,2.27,.52,.58,1.19,.87,2,.87,.57,0,1.06-.12,1.46-.35s.75-.54,1.05-.93l.99,.77c-.8,1.22-1.99,1.84-3.59,1.84Zm-.2-8.53c-.66,0-1.21,.24-1.65,.72-.45,.48-.72,1.15-.83,2.01h4.76v-.12c-.05-.83-.27-1.47-.67-1.92-.4-.46-.94-.68-1.62-.68Z"/><path class="cls-1" d="M782.43,489.29c-.25-.04-.51-.06-.8-.06-1.07,0-1.79,.45-2.17,1.36v6.75h-1.63v-9.51h1.58l.03,1.1c.53-.85,1.29-1.27,2.27-1.27,.32,0,.56,.04,.72,.12v1.51Z"/><path class="cls-1" d="M791.4,493.31l.25,1.69,.36-1.52,2.53-8.93h1.42l2.47,8.93,.35,1.55,.27-1.72,1.99-8.75h1.7l-3.1,12.8h-1.54l-2.64-9.33-.2-.98-.2,.98-2.73,9.33h-1.54l-3.09-12.8h1.69l2.02,8.76Z"/><path class="cls-1" d="M804.36,485.31c0-.26,.08-.49,.24-.67s.4-.27,.72-.27,.56,.09,.72,.27,.25,.4,.25,.67-.08,.48-.25,.66-.4,.26-.72,.26-.56-.09-.72-.26-.24-.4-.24-.66Zm1.76,12.03h-1.63v-9.51h1.63v9.51Z"/><path class="cls-1" d="M810.92,485.53v2.3h1.78v1.26h-1.78v5.91c0,.38,.08,.67,.24,.86,.16,.19,.43,.29,.81,.29,.19,0,.45-.04,.77-.11v1.31c-.43,.12-.84,.17-1.25,.17-.73,0-1.27-.22-1.64-.66s-.55-1.06-.55-1.87v-5.9h-1.73v-1.26h1.73v-2.3h1.63Z"/><path class="cls-1" d="M816.22,488.98c.72-.88,1.66-1.33,2.81-1.33,2.01,0,3.02,1.13,3.04,3.4v6.28h-1.63v-6.29c0-.69-.16-1.19-.47-1.52s-.79-.49-1.44-.49c-.53,0-.99,.14-1.39,.42-.4,.28-.71,.65-.93,1.11v6.78h-1.63v-13.5h1.63v5.14Z"/><path class="cls-1" d="M839.06,497.34h-1.7v-5.92h-6.45v5.92h-1.69v-12.8h1.69v5.5h6.45v-5.5h1.7v12.8Z"/><path class="cls-1" d="M844.91,494.96l2.21-7.13h1.74l-3.82,10.98c-.59,1.58-1.53,2.37-2.82,2.37l-.31-.03-.61-.11v-1.32l.44,.04c.55,0,.98-.11,1.29-.33s.56-.63,.76-1.22l.36-.97-3.39-9.4h1.78l2.37,7.13Z"/><path class="cls-1" d="M855.85,494.82c0-.44-.17-.78-.5-1.02-.33-.24-.91-.45-1.73-.63s-1.48-.39-1.96-.63-.84-.54-1.07-.88-.35-.74-.35-1.21c0-.78,.33-1.44,.99-1.98s1.5-.81,2.53-.81c1.08,0,1.95,.28,2.62,.83s1.01,1.27,1.01,2.14h-1.63c0-.45-.19-.83-.57-1.15s-.85-.48-1.43-.48-1.05,.13-1.39,.39-.5,.59-.5,1.01c0,.39,.16,.69,.47,.89s.87,.39,1.68,.57,1.47,.4,1.97,.65,.88,.56,1.12,.91c.24,.36,.37,.79,.37,1.3,0,.85-.34,1.53-1.02,2.04-.68,.51-1.56,.77-2.65,.77-.76,0-1.44-.13-2.02-.4s-1.04-.65-1.38-1.13c-.33-.48-.5-1.01-.5-1.57h1.63c.03,.54,.25,.98,.65,1.3,.41,.32,.95,.48,1.61,.48,.62,0,1.11-.12,1.48-.37,.37-.25,.56-.58,.56-1Z"/><path class="cls-1" d="M861.8,485.53v2.3h1.78v1.26h-1.78v5.91c0,.38,.08,.67,.24,.86,.16,.19,.43,.29,.81,.29,.19,0,.45-.04,.77-.11v1.31c-.43,.12-.84,.17-1.25,.17-.73,0-1.27-.22-1.64-.66s-.55-1.06-.55-1.87v-5.9h-1.73v-1.26h1.73v-2.3h1.63Z"/><path class="cls-1" d="M869.42,497.52c-1.29,0-2.34-.42-3.15-1.27-.81-.85-1.21-1.98-1.21-3.4v-.3c0-.94,.18-1.79,.54-2.53,.36-.74,.86-1.32,1.51-1.74,.65-.42,1.35-.63,2.11-.63,1.24,0,2.2,.41,2.88,1.22s1.03,1.98,1.03,3.5v.68h-6.44c.02,.94,.3,1.7,.82,2.27,.52,.58,1.19,.87,2,.87,.57,0,1.06-.12,1.46-.35s.75-.54,1.05-.93l.99,.77c-.8,1.22-1.99,1.84-3.59,1.84Zm-.2-8.53c-.66,0-1.21,.24-1.65,.72-.45,.48-.72,1.15-.83,2.01h4.76v-.12c-.05-.83-.27-1.47-.67-1.92-.4-.46-.94-.68-1.62-.68Z"/><path class="cls-1" d="M879.61,489.29c-.25-.04-.51-.06-.8-.06-1.07,0-1.79,.45-2.17,1.36v6.75h-1.63v-9.51h1.58l.03,1.1c.53-.85,1.29-1.27,2.27-1.27,.32,0,.56,.04,.72,.12v1.51Z"/><path class="cls-1" d="M884.88,497.52c-1.29,0-2.34-.42-3.15-1.27-.81-.85-1.21-1.98-1.21-3.4v-.3c0-.94,.18-1.79,.54-2.53,.36-.74,.86-1.32,1.51-1.74,.65-.42,1.35-.63,2.11-.63,1.24,0,2.2,.41,2.88,1.22s1.03,1.98,1.03,3.5v.68h-6.44c.02,.94,.3,1.7,.82,2.27,.52,.58,1.19,.87,2,.87,.57,0,1.06-.12,1.46-.35s.75-.54,1.05-.93l.99,.77c-.8,1.22-1.99,1.84-3.59,1.84Zm-.2-8.53c-.66,0-1.21,.24-1.65,.72-.45,.48-.72,1.15-.83,2.01h4.76v-.12c-.05-.83-.27-1.47-.67-1.92-.4-.46-.94-.68-1.62-.68Z"/><path class="cls-1" d="M896.01,494.82c0-.44-.17-.78-.5-1.02-.33-.24-.91-.45-1.73-.63s-1.48-.39-1.96-.63-.84-.54-1.07-.88-.35-.74-.35-1.21c0-.78,.33-1.44,.99-1.98s1.5-.81,2.53-.81c1.08,0,1.95,.28,2.62,.83s1.01,1.27,1.01,2.14h-1.63c0-.45-.19-.83-.57-1.15s-.85-.48-1.43-.48-1.05,.13-1.39,.39-.5,.59-.5,1.01c0,.39,.16,.69,.47,.89s.87,.39,1.68,.57,1.47,.4,1.97,.65,.88,.56,1.12,.91c.24,.36,.37,.79,.37,1.3,0,.85-.34,1.53-1.02,2.04-.68,.51-1.56,.77-2.65,.77-.76,0-1.44-.13-2.02-.4s-1.04-.65-1.38-1.13c-.33-.48-.5-1.01-.5-1.57h1.63c.03,.54,.25,.98,.65,1.3,.41,.32,.95,.48,1.61,.48,.62,0,1.11-.12,1.48-.37,.37-.25,.56-.58,.56-1Z"/><path class="cls-1" d="M899.76,485.31c0-.26,.08-.49,.24-.67s.4-.27,.72-.27,.56,.09,.72,.27,.25,.4,.25,.67-.08,.48-.25,.66-.4,.26-.72,.26-.56-.09-.72-.26-.24-.4-.24-.66Zm1.76,12.03h-1.63v-9.51h1.63v9.51Z"/><path class="cls-1" d="M909.66,494.82c0-.44-.17-.78-.5-1.02-.33-.24-.91-.45-1.73-.63s-1.48-.39-1.96-.63-.84-.54-1.07-.88-.35-.74-.35-1.21c0-.78,.33-1.44,.99-1.98,.66-.54,1.5-.81,2.53-.81,1.08,0,1.95,.28,2.62,.83s1.01,1.27,1.01,2.14h-1.63c0-.45-.19-.83-.57-1.15s-.85-.48-1.43-.48-1.05,.13-1.39,.39-.5,.59-.5,1.01c0,.39,.16,.69,.47,.89s.87,.39,1.68,.57,1.47,.4,1.97,.65,.88,.56,1.12,.91c.24,.36,.37,.79,.37,1.3,0,.85-.34,1.53-1.02,2.04-.68,.51-1.56,.77-2.65,.77-.76,0-1.44-.13-2.02-.4s-1.04-.65-1.38-1.13c-.33-.48-.5-1.01-.5-1.57h1.63c.03,.54,.25,.98,.65,1.3,.41,.32,.95,.48,1.61,.48,.62,0,1.11-.12,1.48-.37,.37-.25,.56-.58,.56-1Z"/></g></g></svg>