<?xml version="1.0" encoding="UTF-8"?><svg xmlns="http://www.w3.org/2000/svg" viewBox="0 0 1080 600.48"><defs><style>.cls-1{letter-spacing:0em;}.cls-2{letter-spacing:-.02em;}.cls-3{letter-spacing:0em;}.cls-4{letter-spacing:0em;}.cls-5{letter-spacing:-.01em;}.cls-6{letter-spacing:0em;}.cls-7{letter-spacing:-.03em;}.cls-8{letter-spacing:0em;}.cls-9{letter-spacing:0em;}.cls-10{stroke-width:1.98px;}.cls-10,.cls-11{fill:none;stroke:#cad2d9;stroke-miterlimit:10;}.cls-11{stroke-width:1.98px;}.cls-12{letter-spacing:-.01em;}.cls-13{fill:#cad2d9;font-family:MyriadPro-Regular, 'Myriad Pro';font-size:18px;}</style></defs><g id="Fields"><circle class="cls-11" cx="159.84" cy="493.92" r="5.76"/><circle class="cls-11" cx="456.48" cy="493.92" r="5.76"/><circle class="cls-11" cx="732.96" cy="493.92" r="5.76"/><circle class="cls-11" cx="1020.96" cy="493.92" r="5.76"/></g><g id="Lines"><line class="cls-10" x1="1071.36" y1="493.92" x2="1026.72" y2="493.92"/><line class="cls-10" x1="783.36" y1="493.92" x2="738.72" y2="493.92"/><line class="cls-10" x1="508.32" y1="493.92" x2="462.24" y2="493.92"/><line class="cls-10" x1="208.8" y1="493.92" x2="165.6" y2="493.92"/><line class="cls-10" x1="338.4" y1="450.72" x2="338.4" y2="537.12"/><line class="cls-10" x1="403.2" y1="450.72" x2="338.4" y2="450.72"/><line class="cls-10" x1="403.2" y1="537.12" x2="338.4" y2="537.12"/><path class="cls-10" d="M403.2,537.12c26.24,0,47.52-19.34,47.52-43.2s-21.28-43.2-47.52-43.2"/><line class="cls-10" x1="64.8" y1="493.92" x2="7.2" y2="493.92"/><path class="cls-10" d="M612,450.72c7.95,0,14.4,24.48,14.4,43.2s-6.45,43.2-14.4,43.2"/><polygon class="cls-10" points="64.8 493.92 64.8 450.72 108.72 472.32 152.64 493.92 108.72 515.52 64.8 537.12 64.8 493.92"/><line class="cls-10" x1="338.4" y1="515.52" x2="280.8" y2="515.52"/><line class="cls-10" x1="338.4" y1="472.32" x2="280.8" y2="472.32"/><line class="cls-10" x1="653.76" y1="450.72" x2="612" y2="450.72"/><line class="cls-10" x1="653.76" y1="537.12" x2="612" y2="537.12"/><path class="cls-10" d="M653.76,450.72c39.76,0,72,43.2,72,43.2,0,0-32.24,43.2-72,43.2"/><path class="cls-10" d="M900,450.72c7.95,0,14.4,24.48,14.4,43.2s-6.45,43.2-14.4,43.2"/><line class="cls-10" x1="941.76" y1="450.72" x2="900" y2="450.72"/><line class="cls-10" x1="941.76" y1="537.12" x2="900" y2="537.12"/><path class="cls-10" d="M941.76,450.72c39.76,0,72,43.2,72,43.2,0,0-32.24,43.2-72,43.2"/><path class="cls-10" d="M889.92,450.72c7.95,0,14.4,24.48,14.4,43.2s-6.45,43.2-14.4,43.2"/><line class="cls-10" x1="623.52" y1="472.32" x2="565.92" y2="472.32"/><line class="cls-10" x1="623.52" y1="515.52" x2="565.92" y2="515.52"/><line class="cls-10" x1="911.52" y1="515.52" x2="853.92" y2="515.52"/><line class="cls-10" x1="911.52" y1="472.32" x2="853.92" y2="472.32"/><line class="cls-10" x1="1071.36" y1="213.12" x2="1013.76" y2="213.12"/><line class="cls-10" x1="783.36" y1="213.12" x2="725.76" y2="213.12"/><line class="cls-10" x1="508.32" y1="213.12" x2="450.72" y2="213.12"/><line class="cls-10" x1="208.8" y1="213.12" x2="151.2" y2="213.12"/><line class="cls-10" x1="338.4" y1="169.92" x2="338.4" y2="256.32"/><line class="cls-10" x1="403.2" y1="169.92" x2="338.4" y2="169.92"/><line class="cls-10" x1="403.2" y1="256.32" x2="338.4" y2="256.32"/><path class="cls-10" d="M403.2,256.32c26.24,0,47.52-19.34,47.52-43.2s-21.28-43.2-47.52-43.2"/><line class="cls-10" x1="64.8" y1="213.12" x2="7.2" y2="213.12"/><path class="cls-10" d="M612,169.92c7.95,0,14.4,24.48,14.4,43.2s-6.45,43.2-14.4,43.2"/><polygon class="cls-10" points="64.8 213.12 64.8 169.92 108.72 191.52 152.64 213.12 108.72 234.72 64.8 256.32 64.8 213.12"/><line class="cls-10" x1="338.4" y1="234.72" x2="280.8" y2="234.72"/><line class="cls-10" x1="338.4" y1="191.52" x2="280.8" y2="191.52"/><line class="cls-10" x1="653.76" y1="169.92" x2="612" y2="169.92"/><line class="cls-10" x1="653.76" y1="256.32" x2="612" y2="256.32"/><path class="cls-10" d="M653.76,169.92c39.76,0,72,43.2,72,43.2,0,0-32.24,43.2-72,43.2"/><path class="cls-10" d="M900,169.92c7.95,0,14.4,24.48,14.4,43.2s-6.45,43.2-14.4,43.2"/><line class="cls-10" x1="941.76" y1="169.92" x2="900" y2="169.92"/><line class="cls-10" x1="941.76" y1="256.32" x2="900" y2="256.32"/><path class="cls-10" d="M941.76,169.92c39.76,0,72,43.2,72,43.2,0,0-32.24,43.2-72,43.2"/><path class="cls-10" d="M889.92,169.92c7.95,0,14.4,24.48,14.4,43.2s-6.45,43.2-14.4,43.2"/><line class="cls-10" x1="623.52" y1="191.52" x2="565.92" y2="191.52"/><line class="cls-10" x1="623.52" y1="234.72" x2="565.92" y2="234.72"/><line class="cls-10" x1="911.52" y1="234.72" x2="853.92" y2="234.72"/><line class="cls-10" x1="911.52" y1="191.52" x2="853.92" y2="191.52"/></g><g id="Text"><text class="cls-13" transform="translate(446.4 60.48)"><tspan class="cls-5" x="0" y="0">L</tspan><tspan class="cls-9" x="8.24" y="0">o</tspan><tspan class="cls-3" x="18.13" y="0">g</tspan><tspan x="28.08" y="0">ic </tspan><tspan class="cls-1" x="44.17" y="0">G</tspan><tspan class="cls-6" x="55.94" y="0">a</tspan><tspan class="cls-3" x="64.55" y="0">t</tspan><tspan x="70.4" y="0">es and </tspan><tspan class="cls-8" x="122.99" y="0">S</tspan><tspan x="131.72" y="0">ymbols</tspan></text><text class="cls-13" transform="translate(73.44 164.16)"><tspan x="0" y="0">Bu</tspan><tspan class="cls-12" x="19.67" y="0">ff</tspan><tspan class="cls-4" x="29.93" y="0">er</tspan></text><text class="cls-13" transform="translate(364.32 164.16)"><tspan x="0" y="0">AND</tspan></text><text class="cls-13" transform="translate(645.12 164.16)"><tspan x="0" y="0">OR</tspan></text><text class="cls-13" transform="translate(921.6 164.16)"><tspan class="cls-7" x="0" y="0">X</tspan><tspan x="9.76" y="0">OR</tspan></text><text class="cls-13" transform="translate(72 444.96)"><tspan x="0" y="0">N</tspan><tspan class="cls-2" x="11.84" y="0">O</tspan><tspan x="23.8" y="0">T</tspan></text><text class="cls-13" transform="translate(362.88 444.96)"><tspan x="0" y="0">NAND</tspan></text><text class="cls-13" transform="translate(643.68 444.96)"><tspan x="0" y="0">NOR</tspan></text><text class="cls-13" transform="translate(920.16 444.96)"><tspan x="0" y="0">XNOR</tspan></text></g></svg>