<?xml version="1.0" encoding="UTF-8"?><svg xmlns="http://www.w3.org/2000/svg" viewBox="0 0 1080 600.48"><defs><style>.cls-1,.cls-2,.cls-3{fill:#1d1e1b;}.cls-2,.cls-4,.cls-5,.cls-6,.cls-7,.cls-8,.cls-9,.cls-3,.cls-10,.cls-11{stroke-miterlimit:10;}.cls-2,.cls-4,.cls-5,.cls-6,.cls-8,.cls-9,.cls-3,.cls-10,.cls-11{stroke:#1d1e1b;}.cls-2,.cls-7,.cls-8{stroke-width:2px;}.cls-4{stroke-dasharray:0 0 1 1;}.cls-4,.cls-5,.cls-6,.cls-7,.cls-8,.cls-9,.cls-10,.cls-11{fill:none;}.cls-4,.cls-5,.cls-11{stroke-width:.5px;}.cls-5{stroke-dasharray:0 0 1 1;}.cls-6{stroke-width:2px;}.cls-7{stroke:#36a9e1;}.cls-3{stroke-width:3px;}.cls-10{stroke-width:.25px;}</style></defs><g id="blue"><path class="cls-7" d="M679.68,93.6h161.73c15.59,0,37.37,9.02,48.39,20.04l132.6,132.6"/><path class="cls-7" d="M1022.4,411.84h-161.73c-15.59,0-37.37,9.02-48.39,20.04l-132.6,132.6"/></g><g id="line"><line class="cls-8" x1="285.12" y1="152.64" x2="285.12" y2="69.12"/><line class="cls-8" x1="285.12" y1="171.36" x2="285.12" y2="241.92"/><rect class="cls-8" x="161.28" y="57.6" width="72" height="23.04"/><line class="cls-8" x1="233.28" y1="69.12" x2="285.12" y2="69.12"/><g><line class="cls-8" x1="161.28" y1="69.12" x2="92.49" y2="69.12"/><polygon class="cls-1" points="83.52 63.17 93.56 69.15 83.52 75.14 83.52 63.17"/></g><g><line class="cls-8" x1="285.12" y1="69.12" x2="350.06" y2="69.12"/><polygon class="cls-1" points="346.08 74.03 345.26 73.15 349.6 69.12 345.26 65.09 346.08 64.21 351.36 69.12 346.08 74.03"/></g><line class="cls-8" x1="285.12" y1="421.92" x2="285.12" y2="367.2"/><line class="cls-8" x1="285.12" y1="493.92" x2="285.12" y2="540"/><rect class="cls-8" x="249.12" y="447.51" width="72" height="23.04" transform="translate(-173.91 744.15) rotate(-90)"/><line class="cls-8" x1="205.92" y1="367.2" x2="285.12" y2="367.2"/><g><line class="cls-8" x1="191.52" y1="367.2" x2="92.49" y2="367.2"/><polygon class="cls-1" points="83.52 361.25 93.56 367.23 83.52 373.22 83.52 361.25"/></g><g><line class="cls-8" x1="285.12" y1="367.2" x2="350.06" y2="367.2"/><polygon class="cls-1" points="346.08 372.11 345.26 371.23 349.6 367.2 345.26 363.17 346.08 362.29 351.36 367.2 346.08 372.11"/></g><line class="cls-9" x1="679.92" y1="246.45" x2="1022.64" y2="246.45"/><line class="cls-9" x1="679.92" y1="246.24" x2="679.92" y2="54.72"/><rect class="cls-10" x="679.92" y="54.72" width="342.72" height="191.73"/><line class="cls-9" x1="504" y1="308.16" x2="586.08" y2="308.16"/><g><line class="cls-11" x1="870" y1="54.72" x2="870" y2="55.22"/><line class="cls-5" x1="870" y1="56.22" x2="870" y2="245.24"/><line class="cls-11" x1="870" y1="245.74" x2="870" y2="246.24"/></g><g><line class="cls-11" x1="684.35" y1="87.84" x2="867.34" y2="87.84"/><polygon class="cls-1" points="685.34 89.29 679.92 87.84 685.34 86.39 685.34 89.29"/><polygon class="cls-1" points="866.75 88.71 870 87.84 866.75 86.97 866.75 88.71"/></g><g><line class="cls-11" x1="874.43" y1="87.84" x2="1019.98" y2="87.84"/><polygon class="cls-1" points="875.42 89.29 870 87.84 875.42 86.39 875.42 89.29"/><polygon class="cls-1" points="1019.39 88.71 1022.64 87.84 1019.39 86.97 1019.39 88.71"/></g><line class="cls-9" x1="679.92" y1="564.69" x2="1022.64" y2="564.69"/><line class="cls-9" x1="679.92" y1="564.48" x2="679.92" y2="372.96"/><rect class="cls-10" x="679.92" y="372.96" width="342.72" height="191.73"/><g><line class="cls-11" x1="832.56" y1="372.96" x2="832.56" y2="373.46"/><line class="cls-4" x1="832.56" y1="374.46" x2="832.56" y2="563.48"/><line class="cls-11" x1="832.56" y1="563.98" x2="832.56" y2="564.48"/></g><g><line class="cls-11" x1="684.35" y1="406.08" x2="829.9" y2="406.08"/><polygon class="cls-1" points="685.34 407.53 679.92 406.08 685.34 404.63 685.34 407.53"/><polygon class="cls-1" points="829.31 406.95 832.56 406.08 829.31 405.21 829.31 406.95"/></g><g><line class="cls-11" x1="836.99" y1="406.08" x2="1019.98" y2="406.08"/><polygon class="cls-1" points="837.98 407.53 832.56 406.08 837.98 404.63 837.98 407.53"/><polygon class="cls-1" points="1019.39 406.95 1022.64 406.08 1019.39 405.21 1019.39 406.95"/></g><polygon class="cls-6" points="285.12 259.2 277.92 250.56 270.72 241.92 285.12 241.92 299.52 241.92 292.32 250.56 285.12 259.2"/><polygon class="cls-6" points="285.12 557.28 277.92 548.64 270.72 540 285.12 540 299.52 540 292.32 548.64 285.12 557.28"/></g><g id="field"><rect class="cls-3" x="256.32" y="165.6" width="57.6" height="4.32"/><rect class="cls-3" x="256.32" y="154.08" width="57.6" height="4.32"/><circle class="cls-2" cx="285.12" cy="69.12" r="2.88"/><rect class="cls-3" x="163.44" y="365.04" width="57.6" height="4.32" transform="translate(559.44 174.96) rotate(90)"/><rect class="cls-3" x="174.96" y="365.04" width="57.6" height="4.32" transform="translate(570.96 163.44) rotate(90)"/><circle class="cls-2" cx="285.12" cy="367.2" r="2.88"/></g><g id="TEXT_Vector"><g><path class="cls-1" d="M141.85,185.82h6.06v1.38h-7.76v-12.8h1.7v11.42Z"/><path class="cls-1" d="M149.16,182.36c0-.93,.18-1.77,.55-2.51s.88-1.32,1.53-1.72,1.4-.61,2.24-.61c1.29,0,2.34,.45,3.14,1.34s1.2,2.09,1.2,3.58v.11c0,.93-.18,1.76-.53,2.49s-.86,1.31-1.52,1.72-1.42,.62-2.27,.62c-1.29,0-2.33-.45-3.13-1.34s-1.2-2.08-1.2-3.56v-.11Zm1.63,.19c0,1.05,.24,1.9,.73,2.54s1.14,.96,1.96,.96,1.48-.32,1.97-.97,.73-1.55,.73-2.72c0-1.04-.25-1.89-.74-2.54s-1.15-.97-1.97-.97-1.45,.32-1.94,.96-.74,1.55-.74,2.74Z"/><path class="cls-1" d="M168.27,184.96l1.83-7.27h1.63l-2.77,9.51h-1.32l-2.31-7.21-2.25,7.21h-1.32l-2.76-9.51h1.62l1.87,7.12,2.21-7.12h1.31l2.26,7.27Z"/><path class="cls-1" d="M176.76,182.43h-4.29v-1.33h4.29v1.33Z"/><path class="cls-1" d="M186.38,182.55c0,1.45-.33,2.61-.99,3.5s-1.56,1.33-2.69,1.33-2.06-.37-2.72-1.1v4.58h-1.63v-13.17h1.49l.08,1.05c.66-.82,1.58-1.23,2.76-1.23s2.05,.43,2.71,1.29,1,2.06,1,3.59v.15Zm-1.63-.18c0-1.07-.23-1.92-.69-2.54s-1.08-.93-1.88-.93c-.98,0-1.72,.44-2.21,1.31v4.54c.49,.87,1.23,1.3,2.23,1.3,.78,0,1.4-.31,1.86-.93s.69-1.54,.69-2.76Z"/><path class="cls-1" d="M194.32,187.2c-.09-.19-.17-.52-.23-1-.76,.79-1.66,1.18-2.71,1.18-.94,0-1.71-.27-2.31-.8s-.9-1.2-.9-2.02c0-.99,.38-1.76,1.13-2.31s1.81-.82,3.18-.82h1.58v-.75c0-.57-.17-1.02-.51-1.36s-.84-.51-1.5-.51c-.58,0-1.07,.15-1.46,.44s-.59,.65-.59,1.06h-1.63c0-.47,.17-.93,.51-1.38s.79-.79,1.37-1.05,1.21-.39,1.9-.39c1.1,0,1.95,.27,2.58,.82s.94,1.3,.97,2.26v4.38c0,.87,.11,1.57,.33,2.08v.14h-1.71Zm-2.7-1.24c.51,0,.99-.13,1.45-.4s.79-.61,.99-1.03v-1.95h-1.27c-1.99,0-2.99,.58-2.99,1.75,0,.51,.17,.91,.51,1.2s.78,.43,1.31,.43Z"/><path class="cls-1" d="M203.77,184.68c0-.44-.17-.78-.5-1.02s-.91-.45-1.73-.63-1.48-.39-1.96-.63-.84-.54-1.07-.88-.35-.74-.35-1.21c0-.78,.33-1.44,.99-1.98s1.5-.81,2.53-.81c1.08,0,1.95,.28,2.62,.83s1.01,1.27,1.01,2.14h-1.63c0-.45-.19-.83-.57-1.15s-.85-.48-1.43-.48-1.05,.13-1.39,.39-.5,.59-.5,1.01c0,.39,.16,.69,.47,.89s.87,.39,1.68,.57,1.47,.4,1.97,.65,.88,.56,1.12,.91,.36,.79,.36,1.3c0,.85-.34,1.53-1.02,2.04s-1.56,.77-2.65,.77c-.76,0-1.44-.13-2.02-.4s-1.04-.65-1.38-1.13-.5-1.01-.5-1.57h1.63c.03,.54,.25,.98,.65,1.3s.94,.48,1.61,.48c.62,0,1.11-.12,1.48-.37s.56-.58,.56-1Z"/><path class="cls-1" d="M213.05,184.68c0-.44-.17-.78-.5-1.02s-.91-.45-1.73-.63-1.48-.39-1.96-.63-.84-.54-1.07-.88-.35-.74-.35-1.21c0-.78,.33-1.44,.99-1.98s1.5-.81,2.53-.81c1.08,0,1.95,.28,2.62,.83s1.01,1.27,1.01,2.14h-1.63c0-.45-.19-.83-.57-1.15s-.85-.48-1.43-.48-1.05,.13-1.39,.39-.5,.59-.5,1.01c0,.39,.16,.69,.47,.89s.87,.39,1.68,.57,1.47,.4,1.97,.65,.88,.56,1.12,.91,.36,.79,.36,1.3c0,.85-.34,1.53-1.02,2.04s-1.56,.77-2.65,.77c-.76,0-1.44-.13-2.02-.4s-1.04-.65-1.38-1.13-.5-1.01-.5-1.57h1.63c.03,.54,.25,.98,.65,1.3s.94,.48,1.61,.48c.62,0,1.11-.12,1.48-.37s.56-.58,.56-1Z"/></g><g><path class="cls-1" d="M323.21,139.94c-.16,1.35-.66,2.4-1.5,3.13s-1.96,1.1-3.35,1.1c-1.51,0-2.72-.54-3.63-1.63s-1.37-2.53-1.37-4.35v-1.23c0-1.19,.21-2.24,.64-3.14s1.03-1.6,1.81-2.08,1.68-.73,2.71-.73c1.36,0,2.45,.38,3.27,1.14s1.3,1.81,1.43,3.15h-1.7c-.15-1.02-.46-1.76-.95-2.22s-1.17-.69-2.05-.69c-1.08,0-1.92,.4-2.54,1.2-.61,.8-.92,1.93-.92,3.4v1.24c0,1.39,.29,2.5,.87,3.32s1.39,1.23,2.43,1.23c.94,0,1.66-.21,2.16-.64s.83-1.16,1-2.22h1.7Z"/><path class="cls-1" d="M327.77,149.99h-.95v-6.32l-1.91,.7v-.86l2.72-1.02h.15v7.5Z"/></g><g><path class="cls-1" d="M193.38,40.9h-3.01v5.18h-1.7v-12.8h4.24c1.44,0,2.55,.33,3.33,.98s1.16,1.61,1.16,2.87c0,.8-.22,1.49-.65,2.08s-1.03,1.03-1.8,1.33l3.01,5.43v.11h-1.81l-2.78-5.18Zm-3.01-1.38h2.59c.84,0,1.5-.22,2-.65,.5-.43,.74-1.02,.74-1.74,0-.79-.24-1.4-.71-1.82-.47-.42-1.15-.64-2.04-.64h-2.58v4.86Z"/><path class="cls-1" d="M202.02,52.07h-.95v-6.32l-1.91,.7v-.86l2.72-1.02h.15v7.5Z"/></g><g><path class="cls-1" d="M351.4,49.6l3.66-10.56h1.85l-4.75,12.8h-1.49l-4.74-12.8h1.84l3.64,10.56Z"/><path class="cls-1" d="M364.68,47.85c0,.84-.14,1.57-.42,2.19s-.68,1.1-1.2,1.43-1.12,.49-1.8,.49-1.27-.17-1.79-.5-.92-.8-1.21-1.41-.43-1.32-.44-2.12v-.62c0-.82,.14-1.54,.43-2.17s.69-1.11,1.21-1.44,1.12-.5,1.79-.5,1.29,.17,1.81,.5,.92,.81,1.2,1.44,.42,1.36,.42,2.19v.54Zm-1.12-.55c0-1.01-.2-1.79-.61-2.33s-.97-.81-1.71-.81-1.27,.27-1.68,.81-.62,1.29-.63,2.25v.63c0,.98,.21,1.75,.62,2.31s.98,.84,1.7,.84,1.29-.26,1.69-.79,.6-1.29,.62-2.28v-.63Z"/><path class="cls-1" d="M372.37,43.31v5.8c0,.8-.26,1.46-.76,1.97s-1.18,.8-2.04,.86h-.3c-.93,.01-1.68-.24-2.23-.74s-.84-1.2-.84-2.08v-5.81h1.11v5.78c0,.62,.17,1.1,.51,1.44s.82,.51,1.45,.51,1.12-.17,1.46-.51,.51-.82,.51-1.44v-5.78h1.13Z"/><path class="cls-1" d="M380.04,44.23h-2.74v7.61h-1.12v-7.61h-2.74v-.92h6.6v.92Z"/></g><g><path class="cls-1" d="M307.57,276.24c-.43,.62-1.04,1.08-1.81,1.39s-1.68,.46-2.71,.46-1.97-.25-2.78-.73-1.43-1.18-1.88-2.09-.67-1.95-.68-3.14v-1.12c0-1.93,.45-3.42,1.35-4.48s2.16-1.59,3.79-1.59c1.34,0,2.41,.34,3.23,1.02s1.31,1.65,1.49,2.91h-1.69c-.32-1.7-1.32-2.55-3.02-2.55-1.13,0-1.99,.4-2.57,1.19-.58,.79-.88,1.95-.88,3.45v1.05c0,1.44,.33,2.58,.98,3.43s1.54,1.27,2.66,1.27c.63,0,1.19-.07,1.66-.21,.47-.14,.87-.38,1.18-.71v-2.87h-2.96v-1.38h4.64v4.69Z"/><path class="cls-1" d="M320.22,277.92h-1.7l-6.44-9.86v9.86h-1.7v-12.8h1.7l6.46,9.91v-9.91h1.68v12.8Z"/><path class="cls-1" d="M323.22,277.92v-12.8h3.61c1.11,0,2.1,.25,2.95,.74s1.52,1.19,1.98,2.1,.7,1.95,.71,3.13v.82c0,1.21-.23,2.26-.7,3.17s-1.13,1.61-2,2.09-1.87,.74-3.02,.75h-3.54Zm1.69-11.42v10.04h1.78c1.3,0,2.31-.41,3.04-1.21,.72-.81,1.09-1.96,1.09-3.46v-.75c0-1.45-.34-2.58-1.02-3.39-.68-.81-1.65-1.21-2.9-1.23h-1.97Z"/></g><g><path class="cls-1" d="M57.33,48.16l3.66-10.56h1.85l-4.75,12.8h-1.49l-4.74-12.8h1.84l3.64,10.56Z"/><path class="cls-1" d="M65.26,50.4h-1.12v-8.53h1.12v8.53Z"/><path class="cls-1" d="M73.87,50.4h-1.13l-4.29-6.57v6.57h-1.13v-8.53h1.13l4.31,6.6v-6.6h1.12v8.53Z"/></g><g><path class="cls-1" d="M148.13,492.48h-1.7v-5.92h-6.45v5.92h-1.69v-12.8h1.69v5.5h6.45v-5.5h1.7v12.8Z"/><path class="cls-1" d="M150.88,480.45c0-.26,.08-.49,.24-.67s.4-.27,.72-.27,.56,.09,.72,.27,.25,.4,.25,.67-.08,.48-.25,.66-.4,.26-.72,.26-.56-.09-.72-.26-.24-.4-.24-.66Zm1.76,12.03h-1.63v-9.51h1.63v9.51Z"/><path class="cls-1" d="M154.85,487.65c0-1.48,.34-2.66,1.03-3.54,.69-.88,1.59-1.31,2.72-1.31s2.07,.41,2.72,1.23l.08-1.05h1.49v9.28c0,1.23-.36,2.2-1.09,2.91s-1.71,1.06-2.94,1.06c-.69,0-1.36-.15-2.01-.44s-1.16-.69-1.5-1.2l.84-.98c.7,.86,1.55,1.29,2.56,1.29,.79,0,1.41-.22,1.85-.67s.66-1.07,.66-1.88v-.82c-.65,.75-1.54,1.12-2.66,1.12s-2.01-.45-2.7-1.34-1.03-2.12-1.03-3.67Zm1.63,.18c0,1.07,.22,1.91,.66,2.53,.44,.61,1.05,.92,1.85,.92,1.03,0,1.78-.47,2.26-1.4v-4.34c-.5-.91-1.25-1.36-2.24-1.36-.79,0-1.41,.31-1.85,.92s-.67,1.53-.67,2.73Z"/><path class="cls-1" d="M166.96,484.12c.72-.88,1.66-1.33,2.81-1.33,2.01,0,3.02,1.13,3.04,3.4v6.28h-1.63v-6.29c0-.69-.16-1.19-.47-1.52s-.79-.49-1.44-.49c-.53,0-.99,.14-1.39,.42s-.71,.65-.93,1.11v6.78h-1.63v-13.5h1.63v5.14Z"/><path class="cls-1" d="M178.63,487.71h-4.29v-1.33h4.29v1.33Z"/><path class="cls-1" d="M188.25,487.83c0,1.45-.33,2.61-.99,3.5s-1.56,1.33-2.69,1.33-2.06-.37-2.72-1.1v4.58h-1.63v-13.17h1.49l.08,1.05c.66-.82,1.58-1.23,2.76-1.23s2.05,.43,2.71,1.29,1,2.06,1,3.59v.15Zm-1.63-.18c0-1.07-.23-1.92-.69-2.54s-1.08-.93-1.88-.93c-.98,0-1.72,.44-2.21,1.31v4.54c.49,.87,1.23,1.3,2.23,1.3,.78,0,1.4-.31,1.86-.93,.46-.62,.69-1.54,.69-2.75Z"/><path class="cls-1" d="M196.18,492.48c-.09-.19-.17-.52-.23-1-.76,.79-1.66,1.18-2.71,1.18-.94,0-1.71-.26-2.31-.8-.6-.53-.9-1.2-.9-2.02,0-.99,.38-1.76,1.13-2.31,.75-.55,1.81-.82,3.18-.82h1.58v-.75c0-.57-.17-1.02-.51-1.36-.34-.34-.84-.51-1.5-.51-.58,0-1.07,.15-1.46,.44s-.59,.65-.59,1.06h-1.63c0-.47,.17-.93,.51-1.38,.34-.44,.79-.79,1.37-1.05s1.21-.39,1.9-.39c1.1,0,1.95,.27,2.58,.82,.62,.55,.94,1.3,.97,2.26v4.38c0,.87,.11,1.57,.33,2.08v.14h-1.71Zm-2.7-1.24c.51,0,.99-.13,1.45-.4s.79-.61,.99-1.03v-1.95h-1.27c-1.99,0-2.99,.58-2.99,1.75,0,.51,.17,.91,.51,1.2s.78,.43,1.31,.43Z"/><path class="cls-1" d="M205.64,489.96c0-.44-.17-.78-.5-1.02-.33-.24-.91-.45-1.73-.63s-1.48-.39-1.96-.63-.84-.54-1.07-.88-.35-.74-.35-1.21c0-.78,.33-1.44,.99-1.98s1.5-.81,2.53-.81c1.08,0,1.95,.28,2.62,.83s1.01,1.27,1.01,2.14h-1.63c0-.45-.19-.83-.57-1.15s-.85-.48-1.43-.48-1.05,.13-1.39,.39-.5,.59-.5,1.01c0,.39,.16,.69,.47,.89s.87,.39,1.68,.57,1.47,.4,1.97,.65,.88,.55,1.12,.91c.24,.35,.36,.79,.36,1.3,0,.85-.34,1.53-1.02,2.04-.68,.51-1.56,.77-2.65,.77-.76,0-1.44-.13-2.02-.4s-1.04-.65-1.38-1.13c-.33-.48-.5-1.01-.5-1.57h1.63c.03,.54,.25,.98,.65,1.3,.41,.32,.94,.48,1.61,.48,.62,0,1.11-.12,1.48-.37,.37-.25,.56-.58,.56-1Z"/><path class="cls-1" d="M214.92,489.96c0-.44-.17-.78-.5-1.02-.33-.24-.91-.45-1.73-.63s-1.48-.39-1.96-.63-.84-.54-1.07-.88-.35-.74-.35-1.21c0-.78,.33-1.44,.99-1.98s1.5-.81,2.53-.81c1.08,0,1.95,.28,2.62,.83s1.01,1.27,1.01,2.14h-1.63c0-.45-.19-.83-.57-1.15s-.85-.48-1.43-.48-1.05,.13-1.39,.39-.5,.59-.5,1.01c0,.39,.16,.69,.47,.89s.87,.39,1.68,.57,1.47,.4,1.97,.65,.88,.55,1.12,.91c.24,.35,.36,.79,.36,1.3,0,.85-.34,1.53-1.02,2.04-.68,.51-1.56,.77-2.65,.77-.76,0-1.44-.13-2.02-.4s-1.04-.65-1.38-1.13c-.33-.48-.5-1.01-.5-1.57h1.63c.03,.54,.25,.98,.65,1.3,.41,.32,.94,.48,1.61,.48,.62,0,1.11-.12,1.48-.37,.37-.25,.56-.58,.56-1Z"/></g><g><path class="cls-1" d="M223.85,400.58c-.16,1.35-.66,2.4-1.5,3.13s-1.96,1.1-3.35,1.1c-1.51,0-2.72-.54-3.63-1.63s-1.37-2.53-1.37-4.35v-1.23c0-1.19,.21-2.24,.64-3.14s1.03-1.6,1.81-2.08,1.68-.72,2.71-.72c1.36,0,2.45,.38,3.27,1.14s1.3,1.81,1.43,3.15h-1.7c-.15-1.02-.46-1.76-.95-2.22-.49-.46-1.17-.69-2.05-.69-1.08,0-1.92,.4-2.54,1.2s-.92,1.93-.92,3.4v1.24c0,1.39,.29,2.5,.87,3.32,.58,.82,1.39,1.23,2.43,1.23,.94,0,1.66-.21,2.16-.64s.83-1.16,1-2.22h1.7Z"/><path class="cls-1" d="M228.41,410.63h-.95v-6.32l-1.91,.7v-.86l2.72-1.02h.15v7.5Z"/></g><g><path class="cls-1" d="M317.22,472.9h-3.01v5.18h-1.7v-12.8h4.24c1.44,0,2.55,.33,3.33,.98s1.16,1.61,1.16,2.87c0,.8-.22,1.49-.65,2.08s-1.03,1.03-1.8,1.33l3.01,5.43v.11h-1.81l-2.78-5.18Zm-3.01-1.38h2.59c.84,0,1.5-.22,2-.65s.74-1.02,.74-1.74c0-.79-.24-1.4-.71-1.82-.47-.42-1.15-.64-2.04-.64h-2.58v4.86Z"/><path class="cls-1" d="M325.86,484.07h-.95v-6.32l-1.91,.7v-.86l2.72-1.02h.15v7.5Z"/></g><g><path class="cls-1" d="M307.57,575.76c-.43,.62-1.04,1.09-1.81,1.39s-1.68,.46-2.71,.46-1.97-.24-2.78-.73-1.43-1.19-1.88-2.09-.67-1.95-.68-3.14v-1.12c0-1.93,.45-3.42,1.35-4.48s2.16-1.59,3.79-1.59c1.34,0,2.41,.34,3.23,1.02s1.31,1.65,1.49,2.9h-1.69c-.32-1.7-1.32-2.55-3.02-2.55-1.13,0-1.99,.4-2.57,1.19s-.88,1.95-.88,3.45v1.05c0,1.44,.33,2.58,.98,3.43,.66,.85,1.54,1.27,2.66,1.27,.63,0,1.19-.07,1.66-.21s.87-.38,1.18-.71v-2.87h-2.96v-1.38h4.64v4.69Z"/><path class="cls-1" d="M320.22,577.44h-1.7l-6.44-9.86v9.86h-1.7v-12.8h1.7l6.46,9.91v-9.91h1.68v12.8Z"/><path class="cls-1" d="M323.22,577.44v-12.8h3.61c1.11,0,2.1,.25,2.95,.74s1.52,1.19,1.98,2.1,.7,1.95,.71,3.13v.82c0,1.21-.23,2.26-.7,3.17s-1.13,1.61-2,2.09-1.87,.74-3.02,.75h-3.54Zm1.69-11.42v10.04h1.78c1.3,0,2.31-.4,3.04-1.21,.72-.81,1.09-1.96,1.09-3.46v-.75c0-1.45-.34-2.58-1.02-3.39s-1.65-1.22-2.9-1.23h-1.97Z"/></g><g><path class="cls-1" d="M57.33,346.24l3.66-10.56h1.85l-4.75,12.8h-1.49l-4.74-12.8h1.84l3.64,10.56Z"/><path class="cls-1" d="M65.26,348.48h-1.12v-8.53h1.12v8.53Z"/><path class="cls-1" d="M73.87,348.48h-1.13l-4.29-6.57v6.57h-1.13v-8.53h1.13l4.31,6.6v-6.6h1.12v8.53Z"/></g><g><path class="cls-1" d="M349.96,347.68l3.66-10.56h1.85l-4.75,12.8h-1.49l-4.74-12.8h1.84l3.64,10.56Z"/><path class="cls-1" d="M363.24,345.93c0,.84-.14,1.57-.42,2.19s-.68,1.1-1.2,1.43-1.12,.49-1.8,.49-1.27-.17-1.79-.5-.92-.8-1.21-1.41-.43-1.32-.44-2.12v-.62c0-.82,.14-1.54,.43-2.17s.69-1.11,1.21-1.44,1.12-.5,1.79-.5,1.29,.17,1.81,.5,.92,.81,1.2,1.44,.42,1.36,.42,2.19v.54Zm-1.12-.55c0-1.01-.2-1.79-.61-2.33s-.97-.81-1.71-.81-1.27,.27-1.68,.81-.62,1.29-.63,2.25v.63c0,.98,.21,1.75,.62,2.31s.98,.84,1.7,.84,1.29-.26,1.69-.79,.6-1.29,.62-2.28v-.63Z"/><path class="cls-1" d="M370.93,341.39v5.8c0,.8-.26,1.46-.76,1.97s-1.18,.8-2.04,.86h-.3c-.93,.01-1.68-.24-2.23-.74s-.84-1.2-.84-2.08v-5.81h1.11v5.78c0,.62,.17,1.1,.51,1.44s.82,.51,1.45,.51,1.12-.17,1.46-.51,.51-.82,.51-1.44v-5.78h1.13Z"/><path class="cls-1" d="M378.6,342.31h-2.74v7.61h-1.12v-7.61h-2.74v-.92h6.6v.92Z"/></g><g><path class="cls-1" d="M669.6,157.55c.62,.43,1.08,1.04,1.39,1.81s.46,1.68,.46,2.71-.25,1.97-.73,2.78-1.18,1.43-2.09,1.88-1.95,.67-3.14,.68h-1.12c-1.93,0-3.42-.45-4.48-1.35s-1.59-2.16-1.59-3.79c0-1.34,.34-2.41,1.02-3.23s1.65-1.31,2.91-1.49v1.69c-1.7,.32-2.55,1.32-2.55,3.02,0,1.13,.4,1.99,1.19,2.57,.79,.58,1.95,.88,3.45,.88h1.05c1.44,0,2.58-.33,3.43-.98s1.27-1.54,1.27-2.66c0-.63-.07-1.19-.21-1.66-.14-.47-.38-.87-.71-1.18h-2.87v2.96h-1.38v-4.64h4.69Z"/><path class="cls-1" d="M671.28,149.12c-.19,.09-.52,.17-1,.23,.79,.76,1.18,1.66,1.18,2.71,0,.94-.27,1.71-.8,2.31s-1.2,.9-2.02,.9c-.99,0-1.76-.38-2.31-1.13s-.82-1.81-.82-3.18v-1.58h-.75c-.57,0-1.02,.17-1.36,.51s-.5,.84-.5,1.5c0,.58,.15,1.07,.44,1.46s.65,.59,1.06,.59v1.63c-.47,0-.93-.17-1.38-.51s-.79-.79-1.05-1.37-.39-1.21-.39-1.9c0-1.1,.27-1.95,.82-2.58s1.3-.94,2.26-.97h4.38c.87,0,1.57-.11,2.08-.33h.14v1.71Zm-1.24,2.7c0-.51-.13-.99-.4-1.45s-.61-.79-1.03-.99h-1.95v1.27c0,1.99,.58,2.99,1.75,2.99,.51,0,.91-.17,1.2-.51s.43-.78,.43-1.31Z"/><path class="cls-1" d="M659.25,145.19c-.26,0-.49-.08-.67-.24s-.27-.4-.27-.72,.09-.56,.27-.72,.4-.25,.67-.25,.48,.08,.66,.25,.26,.4,.26,.72-.09,.56-.26,.72-.4,.24-.66,.24Zm12.03-1.76v1.63h-9.51v-1.63h9.51Z"/><path class="cls-1" d="M661.77,139.29l1.2-.05c-.91-.73-1.37-1.68-1.37-2.85,0-2.01,1.13-3.02,3.4-3.04h6.28v1.63h-6.29c-.69,0-1.19,.16-1.52,.47s-.49,.79-.49,1.44c0,.53,.14,.99,.42,1.39s.65,.71,1.11,.93h6.78v1.63h-9.51v-1.54Z"/></g><g><path class="cls-1" d="M819.5,260.75h-5.37v5.65h-1.69v-12.8h7.93v1.38h-6.24v4.39h5.37v1.38Z"/><path class="cls-1" d="M826.51,258.35c-.25-.04-.51-.06-.8-.06-1.07,0-1.79,.45-2.17,1.36v6.75h-1.63v-9.51h1.58l.03,1.1c.53-.85,1.29-1.27,2.27-1.27,.32,0,.56,.04,.72,.12v1.51Z"/><path class="cls-1" d="M831.78,266.58c-1.29,0-2.34-.42-3.15-1.27s-1.21-1.98-1.21-3.4v-.3c0-.94,.18-1.79,.54-2.53s.86-1.32,1.51-1.74,1.35-.63,2.1-.63c1.24,0,2.2,.41,2.88,1.22s1.03,1.98,1.03,3.5v.68h-6.44c.02,.94,.3,1.69,.82,2.27s1.19,.87,2,.87c.57,0,1.06-.12,1.46-.35s.75-.54,1.05-.93l.99,.77c-.8,1.22-1.99,1.84-3.59,1.84Zm-.2-8.53c-.66,0-1.21,.24-1.65,.72s-.72,1.15-.83,2.01h4.76v-.12c-.05-.83-.27-1.47-.67-1.92s-.94-.68-1.62-.68Z"/><path class="cls-1" d="M836.98,261.57c0-1.49,.34-2.68,1.03-3.55s1.61-1.31,2.76-1.31,2.01,.38,2.66,1.13l.07-.96h1.49v13.17h-1.63v-4.54c-.66,.7-1.53,1.05-2.62,1.05-1.15,0-2.06-.45-2.75-1.34s-1.02-2.08-1.02-3.56v-.11Zm1.63,.18c0,1.09,.23,1.95,.69,2.57s1.08,.93,1.86,.93c.97,0,1.71-.43,2.21-1.28v-4.66c-.52-.84-1.25-1.26-2.2-1.26-.79,0-1.41,.31-1.87,.94s-.69,1.55-.69,2.76Z"/><path class="cls-1" d="M853.47,265.46c-.63,.74-1.56,1.12-2.79,1.12-1.01,0-1.79-.29-2.32-.88s-.8-1.46-.8-2.61v-6.19h1.63v6.14c0,1.44,.59,2.16,1.76,2.16,1.24,0,2.07-.46,2.48-1.39v-6.92h1.63v9.51h-1.55l-.04-.94Z"/><path class="cls-1" d="M861.47,266.58c-1.29,0-2.34-.42-3.15-1.27s-1.21-1.98-1.21-3.4v-.3c0-.94,.18-1.79,.54-2.53s.86-1.32,1.51-1.74,1.35-.63,2.1-.63c1.24,0,2.2,.41,2.88,1.22s1.03,1.98,1.03,3.5v.68h-6.44c.02,.94,.3,1.69,.82,2.27s1.19,.87,2,.87c.57,0,1.06-.12,1.46-.35s.75-.54,1.05-.93l.99,.77c-.8,1.22-1.99,1.84-3.59,1.84Zm-.2-8.53c-.66,0-1.21,.24-1.65,.72s-.72,1.15-.83,2.01h4.76v-.12c-.05-.83-.27-1.47-.67-1.92s-.94-.68-1.62-.68Z"/><path class="cls-1" d="M868.6,256.89l.05,1.2c.73-.91,1.68-1.37,2.85-1.37,2.01,0,3.02,1.13,3.04,3.4v6.28h-1.63v-6.29c0-.69-.16-1.19-.47-1.52s-.79-.49-1.44-.49c-.53,0-.99,.14-1.39,.42s-.71,.65-.93,1.11v6.78h-1.63v-9.51h1.54Z"/><path class="cls-1" d="M880.81,265.25c.58,0,1.09-.18,1.52-.53s.67-.79,.72-1.32h1.54c-.03,.55-.22,1.06-.56,1.56s-.81,.88-1.38,1.18-1.19,.44-1.83,.44c-1.29,0-2.32-.43-3.09-1.3s-1.15-2.05-1.15-3.55v-.27c0-.93,.17-1.75,.51-2.47s.83-1.28,1.46-1.68,1.39-.6,2.25-.6c1.07,0,1.95,.32,2.66,.96s1.08,1.47,1.13,2.49h-1.54c-.05-.62-.28-1.12-.7-1.52s-.94-.59-1.55-.59c-.83,0-1.47,.3-1.92,.89s-.68,1.45-.68,2.58v.31c0,1.1,.23,1.94,.68,2.53s1.1,.89,1.93,.89Z"/><path class="cls-1" d="M889.53,264.02l2.21-7.13h1.74l-3.82,10.98c-.59,1.58-1.53,2.37-2.82,2.37l-.31-.03-.61-.11v-1.32l.44,.04c.55,0,.98-.11,1.29-.33s.56-.63,.76-1.22l.36-.97-3.39-9.4h1.78l2.37,7.13Z"/></g><path class="cls-1" d="M521.35,325.44h-8.38v-1.17l4.43-4.92c.66-.74,1.11-1.35,1.36-1.82s.37-.95,.37-1.45c0-.67-.2-1.22-.61-1.64s-.94-.64-1.62-.64c-.81,0-1.44,.23-1.89,.69s-.67,1.1-.67,1.92h-1.63c0-1.18,.38-2.13,1.14-2.86s1.77-1.09,3.05-1.09c1.19,0,2.13,.31,2.82,.94s1.04,1.46,1.04,2.49c0,1.26-.8,2.76-2.41,4.5l-3.43,3.72h6.42v1.33Z"/><path class="cls-1" d="M547.11,302.4h-1.63v-10.84l-3.28,1.2v-1.48l4.66-1.75h.25v12.86Z"/><g><path class="cls-1" d="M451.97,315.36v-8.25h-1.5v-1.26h1.5v-.98c0-1.02,.27-1.81,.82-2.36s1.32-.83,2.31-.83c.38,0,.75,.05,1.12,.15l-.09,1.31c-.28-.05-.57-.08-.88-.08-.53,0-.93,.15-1.22,.46s-.43,.75-.43,1.33v1h2.03v1.26h-2.03v8.25h-1.63Z"/><path class="cls-1" d="M462.54,318.99c-.09,.79-.38,1.4-.87,1.83s-1.14,.64-1.95,.64c-.88,0-1.59-.32-2.12-.95-.53-.63-.8-1.48-.8-2.54v-.72c0-.69,.12-1.3,.37-1.83,.25-.53,.6-.93,1.05-1.21,.45-.28,.98-.42,1.58-.42,.79,0,1.43,.22,1.91,.66,.48,.44,.76,1.05,.84,1.84h-.99c-.09-.6-.27-1.03-.56-1.29-.29-.27-.68-.4-1.2-.4-.63,0-1.12,.23-1.48,.7s-.54,1.13-.54,1.98v.72c0,.81,.17,1.46,.51,1.93s.81,.72,1.42,.72c.55,0,.97-.12,1.26-.37s.49-.68,.58-1.29h.99Z"/></g><path class="cls-1" d="M534.55,317.27h-1.37v5.76c0,.38,.08,.66,.24,.85,.16,.19,.43,.29,.81,.29,.28,0,.54-.04,.76-.11v1.32c-.4,.11-.82,.17-1.25,.17-1.46,0-2.19-.86-2.19-2.58v-5.69h-3.52v8.17h-1.63v-8.17h-1.49v-1.34h9.63v1.34Z"/><g><path class="cls-1" d="M544.89,320.26h-3.01v5.18h-1.7v-12.8h4.24c1.44,0,2.55,.33,3.33,.98s1.17,1.61,1.17,2.87c0,.8-.22,1.49-.65,2.08s-1.03,1.03-1.8,1.33l3.01,5.43v.11h-1.81l-2.78-5.18Zm-3.01-1.38h2.59c.84,0,1.5-.22,2-.65,.5-.43,.74-1.02,.74-1.74,0-.79-.24-1.4-.71-1.82s-1.15-.64-2.04-.64h-2.58v4.86Z"/><path class="cls-1" d="M553.53,331.43h-.95v-6.32l-1.91,.7v-.86l2.72-1.02h.15v7.5Z"/></g><g><path class="cls-1" d="M569.45,321.38c-.16,1.35-.66,2.4-1.5,3.13s-1.96,1.1-3.35,1.1c-1.51,0-2.72-.54-3.63-1.63s-1.37-2.53-1.37-4.35v-1.23c0-1.19,.21-2.24,.64-3.14s1.03-1.59,1.81-2.08,1.68-.73,2.71-.73c1.36,0,2.45,.38,3.27,1.14s1.3,1.81,1.43,3.15h-1.7c-.15-1.02-.46-1.76-.95-2.22-.49-.46-1.17-.69-2.05-.69-1.08,0-1.92,.4-2.54,1.2-.61,.8-.92,1.93-.92,3.4v1.24c0,1.39,.29,2.5,.87,3.32,.58,.82,1.39,1.23,2.43,1.23,.94,0,1.66-.21,2.16-.64s.83-1.17,1-2.22h1.7Z"/><path class="cls-1" d="M574,331.43h-.95v-6.32l-1.91,.7v-.86l2.72-1.02h.15v7.5Z"/></g><g><path class="cls-1" d="M740.69,74.19v5.01h-1.69v-12.8h4.72c1.4,0,2.5,.36,3.29,1.07s1.19,1.66,1.19,2.84c0,1.24-.39,2.2-1.16,2.87s-1.89,1.01-3.34,1.01h-3.01Zm0-1.38h3.03c.9,0,1.59-.21,2.07-.64,.48-.43,.72-1.04,.72-1.84s-.24-1.37-.72-1.83c-.48-.46-1.14-.7-1.98-.71h-3.13v5.03Z"/><path class="cls-1" d="M755.88,79.2c-.09-.19-.17-.52-.23-1-.76,.79-1.66,1.18-2.71,1.18-.94,0-1.71-.27-2.31-.8s-.9-1.2-.9-2.02c0-.99,.38-1.76,1.13-2.31s1.81-.82,3.18-.82h1.58v-.75c0-.57-.17-1.02-.51-1.36s-.84-.51-1.5-.51c-.58,0-1.07,.15-1.46,.44s-.59,.65-.59,1.06h-1.63c0-.47,.17-.93,.51-1.38s.79-.79,1.37-1.05,1.21-.39,1.9-.39c1.1,0,1.96,.27,2.58,.82s.94,1.3,.97,2.26v4.38c0,.87,.11,1.57,.33,2.08v.14h-1.71Zm-2.7-1.24c.51,0,.99-.13,1.45-.4s.79-.61,.99-1.03v-1.95h-1.27c-1.99,0-2.99,.58-2.99,1.75,0,.51,.17,.91,.51,1.2s.78,.43,1.31,.43Z"/><path class="cls-1" d="M765.34,76.68c0-.44-.17-.78-.5-1.02s-.91-.45-1.73-.63-1.48-.39-1.96-.63-.84-.54-1.07-.88-.35-.74-.35-1.21c0-.78,.33-1.44,.99-1.98s1.5-.81,2.53-.81c1.08,0,1.95,.28,2.62,.83s1.01,1.27,1.01,2.14h-1.63c0-.45-.19-.83-.57-1.15s-.85-.48-1.43-.48-1.05,.13-1.39,.39-.5,.59-.5,1.01c0,.39,.16,.69,.47,.89s.87,.39,1.68,.57,1.47,.4,1.97,.65,.88,.56,1.12,.91,.36,.79,.36,1.3c0,.85-.34,1.53-1.02,2.04s-1.56,.77-2.64,.77c-.76,0-1.44-.13-2.02-.4s-1.04-.65-1.38-1.13-.5-1.01-.5-1.57h1.63c.03,.54,.25,.98,.65,1.3s.95,.48,1.61,.48c.62,0,1.11-.12,1.48-.37s.56-.58,.56-1Z"/><path class="cls-1" d="M774.62,76.68c0-.44-.17-.78-.5-1.02s-.91-.45-1.73-.63-1.48-.39-1.96-.63-.84-.54-1.07-.88-.35-.74-.35-1.21c0-.78,.33-1.44,.99-1.98s1.5-.81,2.53-.81c1.08,0,1.95,.28,2.62,.83s1.01,1.27,1.01,2.14h-1.63c0-.45-.19-.83-.57-1.15s-.85-.48-1.43-.48-1.05,.13-1.39,.39-.5,.59-.5,1.01c0,.39,.16,.69,.47,.89s.87,.39,1.68,.57,1.47,.4,1.97,.65,.88,.56,1.12,.91,.36,.79,.36,1.3c0,.85-.34,1.53-1.02,2.04s-1.56,.77-2.64,.77c-.76,0-1.44-.13-2.02-.4s-1.04-.65-1.38-1.13-.5-1.01-.5-1.57h1.63c.03,.54,.25,.98,.65,1.3s.95,.48,1.61,.48c.62,0,1.11-.12,1.48-.37s.56-.58,.56-1Z"/><path class="cls-1" d="M783.07,79.2v-12.8h4.18c1.39,0,2.43,.29,3.13,.86s1.05,1.42,1.05,2.55c0,.6-.17,1.13-.51,1.59s-.8,.82-1.39,1.07c.69,.19,1.24,.56,1.64,1.1s.6,1.19,.6,1.94c0,1.15-.37,2.05-1.12,2.71s-1.8,.98-3.16,.98h-4.44Zm1.69-7.34h2.55c.74,0,1.33-.19,1.77-.55,.44-.37,.66-.87,.66-1.51,0-.7-.21-1.22-.62-1.54-.41-.32-1.03-.48-1.87-.48h-2.5v4.08Zm0,1.35v4.61h2.79c.79,0,1.41-.2,1.86-.61s.68-.97,.68-1.68c0-1.54-.84-2.31-2.51-2.31h-2.81Z"/><path class="cls-1" d="M799.9,79.2c-.09-.19-.17-.52-.23-1-.76,.79-1.66,1.18-2.71,1.18-.94,0-1.71-.27-2.31-.8s-.9-1.2-.9-2.02c0-.99,.38-1.76,1.13-2.31s1.81-.82,3.18-.82h1.58v-.75c0-.57-.17-1.02-.51-1.36s-.84-.51-1.5-.51c-.58,0-1.07,.15-1.46,.44s-.59,.65-.59,1.06h-1.63c0-.47,.17-.93,.51-1.38s.79-.79,1.37-1.05,1.21-.39,1.9-.39c1.1,0,1.96,.27,2.58,.82s.94,1.3,.97,2.26v4.38c0,.87,.11,1.57,.33,2.08v.14h-1.71Zm-2.7-1.24c.51,0,.99-.13,1.45-.4s.79-.61,.99-1.03v-1.95h-1.27c-1.99,0-2.99,.58-2.99,1.75,0,.51,.17,.91,.51,1.2s.78,.43,1.31,.43Z"/><path class="cls-1" d="M805.35,69.69l.05,1.2c.73-.91,1.68-1.37,2.85-1.37,2.01,0,3.02,1.13,3.04,3.4v6.28h-1.62v-6.29c0-.69-.16-1.19-.47-1.52s-.79-.49-1.44-.49c-.53,0-.99,.14-1.39,.42s-.71,.65-.93,1.11v6.78h-1.62v-9.51h1.54Z"/><path class="cls-1" d="M813.35,74.37c0-1.46,.35-2.63,1.04-3.52s1.6-1.33,2.72-1.33,1.99,.38,2.64,1.14v-4.96h1.63v13.5h-1.49l-.08-1.02c-.65,.8-1.55,1.2-2.71,1.2s-2-.45-2.69-1.35-1.04-2.08-1.04-3.53v-.12Zm1.63,.18c0,1.08,.22,1.92,.67,2.53s1.06,.91,1.85,.91c1.03,0,1.78-.46,2.26-1.39v-4.37c-.49-.9-1.23-1.34-2.24-1.34-.8,0-1.42,.31-1.86,.92s-.67,1.53-.67,2.73Z"/></g><g><path class="cls-1" d="M912.7,73.5c-1.45-.42-2.5-.93-3.16-1.53s-.99-1.35-.99-2.25c0-1.01,.4-1.84,1.21-2.5s1.85-.99,3.14-.99c.88,0,1.66,.17,2.35,.51s1.22,.81,1.6,1.41,.57,1.25,.57,1.96h-1.7c0-.78-.25-1.39-.74-1.83s-1.19-.67-2.08-.67c-.83,0-1.48,.18-1.95,.55-.47,.37-.7,.88-.7,1.53,0,.52,.22,.96,.66,1.33s1.2,.69,2.26,.99,1.9,.63,2.5,.99,1.05,.78,1.34,1.26,.43,1.05,.43,1.7c0,1.04-.4,1.87-1.21,2.49s-1.89,.94-3.24,.94c-.88,0-1.7-.17-2.46-.51s-1.35-.8-1.76-1.38-.62-1.25-.62-2h1.7c0,.77,.29,1.38,.86,1.83s1.33,.67,2.29,.67c.89,0,1.57-.18,2.05-.54s.71-.86,.71-1.49-.22-1.11-.66-1.45-1.24-.68-2.39-1.02Z"/><path class="cls-1" d="M921.55,67.39v2.3h1.78v1.26h-1.78v5.9c0,.38,.08,.67,.24,.86,.16,.19,.43,.29,.81,.29,.19,0,.45-.04,.77-.11v1.31c-.43,.12-.84,.17-1.25,.17-.73,0-1.27-.22-1.64-.66s-.55-1.06-.55-1.87v-5.9h-1.73v-1.26h1.73v-2.3h1.63Z"/><path class="cls-1" d="M924.62,74.36c0-.93,.18-1.77,.55-2.51s.88-1.32,1.53-1.72,1.4-.61,2.24-.61c1.29,0,2.34,.45,3.14,1.34s1.2,2.09,1.2,3.58v.11c0,.93-.18,1.76-.53,2.49s-.86,1.31-1.52,1.72-1.42,.62-2.27,.62c-1.29,0-2.33-.45-3.13-1.34s-1.2-2.08-1.2-3.56v-.11Zm1.63,.19c0,1.05,.25,1.9,.73,2.54s1.14,.96,1.96,.96,1.48-.32,1.97-.97,.73-1.55,.73-2.72c0-1.04-.25-1.89-.74-2.54s-1.15-.97-1.97-.97-1.45,.32-1.94,.96-.74,1.55-.74,2.74Z"/><path class="cls-1" d="M943.35,74.55c0,1.45-.33,2.61-.99,3.5s-1.56,1.33-2.69,1.33-2.06-.37-2.72-1.1v4.58h-1.63v-13.17h1.49l.08,1.05c.66-.82,1.58-1.23,2.76-1.23s2.05,.43,2.71,1.29,1,2.06,1,3.59v.15Zm-1.63-.18c0-1.07-.23-1.92-.69-2.54s-1.08-.93-1.88-.93c-.98,0-1.72,.44-2.21,1.31v4.54c.49,.87,1.23,1.3,2.23,1.3,.78,0,1.4-.31,1.86-.93s.69-1.54,.69-2.76Z"/><path class="cls-1" d="M950.13,79.2v-12.8h4.18c1.39,0,2.43,.29,3.13,.86s1.05,1.42,1.05,2.55c0,.6-.17,1.13-.51,1.59s-.8,.82-1.39,1.07c.69,.19,1.24,.56,1.64,1.1s.6,1.19,.6,1.94c0,1.15-.37,2.05-1.12,2.71s-1.8,.98-3.16,.98h-4.44Zm1.69-7.34h2.55c.74,0,1.33-.19,1.77-.55,.44-.37,.66-.87,.66-1.51,0-.7-.21-1.22-.62-1.54-.41-.32-1.03-.48-1.87-.48h-2.5v4.08Zm0,1.35v4.61h2.79c.79,0,1.41-.2,1.86-.61s.68-.97,.68-1.68c0-1.54-.84-2.31-2.51-2.31h-2.81Z"/><path class="cls-1" d="M966.95,79.2c-.09-.19-.17-.52-.23-1-.76,.79-1.66,1.18-2.71,1.18-.94,0-1.71-.27-2.31-.8s-.9-1.2-.9-2.02c0-.99,.38-1.76,1.13-2.31s1.81-.82,3.18-.82h1.58v-.75c0-.57-.17-1.02-.51-1.36s-.84-.51-1.5-.51c-.58,0-1.07,.15-1.46,.44s-.59,.65-.59,1.06h-1.63c0-.47,.17-.93,.51-1.38s.79-.79,1.37-1.05,1.21-.39,1.9-.39c1.1,0,1.95,.27,2.58,.82s.94,1.3,.97,2.26v4.38c0,.87,.11,1.57,.33,2.08v.14h-1.71Zm-2.7-1.24c.51,0,.99-.13,1.45-.4s.79-.61,.99-1.03v-1.95h-1.27c-1.99,0-2.99,.58-2.99,1.75,0,.51,.17,.91,.51,1.2s.78,.43,1.31,.43Z"/><path class="cls-1" d="M972.41,69.69l.05,1.2c.73-.91,1.68-1.37,2.85-1.37,2.01,0,3.02,1.13,3.04,3.4v6.28h-1.63v-6.29c0-.69-.16-1.19-.47-1.52s-.79-.49-1.44-.49c-.53,0-.99,.14-1.39,.42s-.71,.65-.93,1.11v6.78h-1.63v-9.51h1.54Z"/><path class="cls-1" d="M980.41,74.37c0-1.46,.35-2.63,1.04-3.52s1.6-1.33,2.72-1.33,2,.38,2.65,1.14v-4.96h1.63v13.5h-1.49l-.08-1.02c-.65,.8-1.56,1.2-2.72,1.2s-2-.45-2.69-1.35-1.04-2.08-1.04-3.53v-.12Zm1.63,.18c0,1.08,.22,1.92,.67,2.53s1.06,.91,1.85,.91c1.03,0,1.78-.46,2.26-1.39v-4.37c-.49-.9-1.23-1.34-2.24-1.34-.8,0-1.42,.31-1.86,.92s-.67,1.53-.67,2.73Z"/></g><g><path class="cls-1" d="M812.25,42.02c-.16,1.35-.66,2.4-1.5,3.13s-1.96,1.1-3.35,1.1c-1.51,0-2.72-.54-3.63-1.63s-1.37-2.53-1.37-4.35v-1.23c0-1.19,.21-2.24,.64-3.14s1.03-1.6,1.81-2.08,1.68-.73,2.71-.73c1.36,0,2.45,.38,3.27,1.14s1.3,1.81,1.43,3.15h-1.7c-.15-1.02-.46-1.76-.95-2.22s-1.17-.69-2.05-.69c-1.08,0-1.92,.4-2.54,1.2-.61,.8-.92,1.93-.92,3.4v1.24c0,1.39,.29,2.5,.87,3.32s1.39,1.23,2.43,1.23c.94,0,1.66-.21,2.16-.64s.83-1.16,1-2.22h1.7Z"/><path class="cls-1" d="M820.17,45.14c-.63,.74-1.56,1.12-2.79,1.12-1.01,0-1.79-.29-2.32-.88s-.8-1.46-.8-2.61v-6.19h1.63v6.14c0,1.44,.59,2.16,1.76,2.16,1.24,0,2.07-.46,2.48-1.39v-6.92h1.63v9.51h-1.55l-.04-.94Z"/><path class="cls-1" d="M826.42,34.27v2.3h1.78v1.26h-1.78v5.9c0,.38,.08,.67,.24,.86,.16,.19,.43,.29,.81,.29,.19,0,.45-.04,.77-.11v1.31c-.43,.12-.84,.17-1.25,.17-.73,0-1.27-.22-1.64-.66s-.55-1.06-.55-1.87v-5.9h-1.73v-1.26h1.73v-2.3h1.63Z"/><path class="cls-1" d="M829.49,41.24c0-.93,.18-1.77,.55-2.51s.88-1.32,1.53-1.72,1.4-.61,2.24-.61c1.29,0,2.34,.45,3.14,1.34s1.2,2.09,1.2,3.58v.11c0,.93-.18,1.76-.53,2.49s-.86,1.31-1.52,1.72-1.42,.62-2.27,.62c-1.29,0-2.33-.45-3.13-1.34s-1.2-2.08-1.2-3.56v-.11Zm1.63,.19c0,1.05,.25,1.9,.73,2.54s1.14,.96,1.96,.96,1.48-.32,1.97-.97,.73-1.55,.73-2.72c0-1.04-.25-1.89-.74-2.54s-1.15-.97-1.97-.97-1.45,.32-1.94,.96-.74,1.55-.74,2.74Z"/><path class="cls-1" d="M840.99,46.08v-8.25h-1.5v-1.26h1.5v-.98c0-1.02,.27-1.81,.82-2.36s1.32-.83,2.31-.83c.38,0,.75,.05,1.12,.15l-.09,1.31c-.28-.05-.57-.08-.88-.08-.53,0-.93,.15-1.22,.46s-.43,.75-.43,1.33v1h2.03v1.26h-2.03v8.25h-1.63Z"/><path class="cls-1" d="M847.24,46.08v-8.25h-1.5v-1.26h1.5v-.98c0-1.02,.27-1.81,.82-2.36s1.32-.83,2.31-.83c.38,0,.75,.05,1.12,.15l-.09,1.31c-.28-.05-.57-.08-.88-.08-.53,0-.93,.15-1.22,.46s-.43,.75-.43,1.33v1h2.03v1.26h-2.03v8.25h-1.63Z"/><path class="cls-1" d="M864.45,40.43h-5.37v5.65h-1.69v-12.8h7.93v1.38h-6.24v4.39h5.37v1.38Z"/><path class="cls-1" d="M871.46,38.03c-.25-.04-.51-.06-.8-.06-1.07,0-1.79,.45-2.17,1.36v6.75h-1.63v-9.51h1.58l.03,1.1c.53-.85,1.29-1.27,2.27-1.27,.32,0,.56,.04,.72,.12v1.51Z"/><path class="cls-1" d="M876.73,46.26c-1.29,0-2.34-.42-3.15-1.27s-1.21-1.98-1.21-3.4v-.3c0-.94,.18-1.79,.54-2.53s.86-1.32,1.51-1.74,1.35-.63,2.1-.63c1.24,0,2.2,.41,2.88,1.22s1.03,1.98,1.03,3.5v.68h-6.44c.02,.94,.3,1.69,.82,2.27s1.19,.87,2,.87c.57,0,1.06-.12,1.46-.35s.75-.54,1.05-.93l.99,.77c-.8,1.22-1.99,1.84-3.59,1.84Zm-.2-8.53c-.66,0-1.21,.24-1.65,.72s-.72,1.15-.83,2.01h4.76v-.12c-.05-.83-.27-1.47-.67-1.92s-.94-.68-1.62-.68Z"/><path class="cls-1" d="M881.93,41.25c0-1.49,.34-2.68,1.03-3.55s1.61-1.31,2.76-1.31,2.01,.38,2.66,1.13l.07-.96h1.49v13.17h-1.63v-4.54c-.66,.7-1.53,1.05-2.62,1.05-1.15,0-2.06-.45-2.75-1.34s-1.02-2.08-1.02-3.56v-.11Zm1.63,.18c0,1.09,.23,1.95,.69,2.57s1.08,.93,1.86,.93c.97,0,1.71-.43,2.21-1.28v-4.66c-.52-.84-1.25-1.26-2.2-1.26-.79,0-1.41,.31-1.87,.94s-.69,1.55-.69,2.76Z"/><path class="cls-1" d="M898.42,45.14c-.63,.74-1.56,1.12-2.79,1.12-1.01,0-1.79-.29-2.32-.88s-.8-1.46-.8-2.61v-6.19h1.63v6.14c0,1.44,.59,2.16,1.76,2.16,1.24,0,2.07-.46,2.48-1.39v-6.92h1.63v9.51h-1.55l-.04-.94Z"/><path class="cls-1" d="M906.42,46.26c-1.29,0-2.34-.42-3.15-1.27s-1.21-1.98-1.21-3.4v-.3c0-.94,.18-1.79,.54-2.53s.86-1.32,1.51-1.74,1.35-.63,2.1-.63c1.24,0,2.2,.41,2.88,1.22s1.03,1.98,1.03,3.5v.68h-6.44c.02,.94,.3,1.69,.82,2.27s1.19,.87,2,.87c.57,0,1.06-.12,1.46-.35s.75-.54,1.05-.93l.99,.77c-.8,1.22-1.99,1.84-3.59,1.84Zm-.2-8.53c-.66,0-1.21,.24-1.65,.72s-.72,1.15-.83,2.01h4.76v-.12c-.05-.83-.27-1.47-.67-1.92s-.94-.68-1.62-.68Z"/><path class="cls-1" d="M913.55,36.57l.05,1.2c.73-.91,1.68-1.37,2.85-1.37,2.01,0,3.02,1.13,3.04,3.4v6.28h-1.63v-6.29c0-.69-.16-1.19-.47-1.52s-.79-.49-1.44-.49c-.53,0-.99,.14-1.39,.42s-.71,.65-.93,1.11v6.78h-1.63v-9.51h1.54Z"/><path class="cls-1" d="M925.76,44.93c.58,0,1.09-.18,1.52-.53s.67-.79,.72-1.32h1.54c-.03,.54-.22,1.06-.56,1.56s-.81,.88-1.38,1.18-1.19,.44-1.83,.44c-1.29,0-2.32-.43-3.09-1.3s-1.15-2.05-1.15-3.55v-.27c0-.93,.17-1.75,.51-2.47s.83-1.28,1.46-1.68,1.39-.6,2.25-.6c1.07,0,1.95,.32,2.66,.96s1.08,1.47,1.13,2.49h-1.54c-.05-.62-.28-1.12-.7-1.52s-.94-.59-1.55-.59c-.83,0-1.47,.3-1.92,.89s-.68,1.45-.68,2.58v.31c0,1.1,.23,1.94,.68,2.53s1.1,.89,1.93,.89Z"/><path class="cls-1" d="M934.48,43.7l2.21-7.13h1.74l-3.82,10.98c-.59,1.58-1.53,2.37-2.82,2.37l-.31-.03-.61-.11v-1.32l.44,.04c.55,0,.98-.11,1.29-.33s.56-.63,.76-1.22l.36-.97-3.39-9.4h1.78l2.37,7.13Z"/></g><g><path class="cls-1" d="M669.6,475.79c.62,.43,1.09,1.04,1.39,1.82,.31,.78,.46,1.68,.46,2.71s-.24,1.97-.73,2.78-1.19,1.43-2.09,1.88c-.9,.44-1.95,.67-3.14,.68h-1.12c-1.93,0-3.42-.45-4.48-1.35-1.06-.9-1.59-2.16-1.59-3.79,0-1.34,.34-2.41,1.02-3.23s1.65-1.31,2.9-1.49v1.69c-1.7,.32-2.55,1.32-2.55,3.02,0,1.13,.4,1.99,1.19,2.57,.79,.58,1.95,.88,3.45,.88h1.05c1.44,0,2.58-.33,3.43-.98,.85-.66,1.27-1.54,1.27-2.66,0-.63-.07-1.19-.21-1.66s-.38-.87-.71-1.18h-2.87v2.96h-1.38v-4.64h4.69Z"/><path class="cls-1" d="M671.28,467.36c-.19,.09-.52,.17-1,.23,.79,.76,1.18,1.66,1.18,2.71,0,.94-.26,1.71-.79,2.31-.53,.6-1.2,.9-2.02,.9-.99,0-1.76-.38-2.31-1.13-.55-.75-.82-1.81-.82-3.18v-1.58h-.75c-.57,0-1.02,.17-1.36,.51s-.51,.84-.51,1.5c0,.58,.15,1.07,.44,1.46s.65,.59,1.06,.59v1.63c-.47,0-.93-.17-1.38-.5-.44-.34-.79-.79-1.05-1.37-.26-.58-.39-1.21-.39-1.9,0-1.1,.27-1.95,.82-2.58s1.3-.94,2.26-.97h4.38c.87,0,1.57-.11,2.08-.33h.14v1.71Zm-1.24,2.7c0-.51-.13-.99-.4-1.45s-.61-.79-1.03-.99h-1.95v1.27c0,1.99,.58,2.99,1.75,2.99,.51,0,.91-.17,1.2-.51s.43-.78,.43-1.31Z"/><path class="cls-1" d="M659.25,463.43c-.26,0-.49-.08-.67-.24-.18-.16-.27-.4-.27-.72s.09-.56,.27-.72,.4-.25,.67-.25,.48,.08,.66,.25,.26,.4,.26,.72-.09,.55-.26,.72c-.18,.16-.4,.24-.66,.24Zm12.03-1.76v1.63h-9.51v-1.63h9.51Z"/><path class="cls-1" d="M661.77,457.53l1.2-.05c-.91-.73-1.37-1.68-1.37-2.85,0-2.01,1.13-3.02,3.4-3.04h6.28v1.63h-6.29c-.69,0-1.19,.16-1.52,.47-.33,.31-.49,.79-.49,1.44,0,.53,.14,.99,.42,1.39s.65,.71,1.11,.93h6.78v1.63h-9.51v-1.54Z"/></g><g><path class="cls-1" d="M819.5,578.99h-5.37v5.65h-1.69v-12.8h7.93v1.38h-6.24v4.39h5.37v1.38Z"/><path class="cls-1" d="M826.51,576.59c-.25-.04-.51-.06-.8-.06-1.07,0-1.79,.45-2.17,1.36v6.75h-1.63v-9.51h1.58l.03,1.1c.53-.85,1.29-1.27,2.27-1.27,.32,0,.56,.04,.72,.12v1.51Z"/><path class="cls-1" d="M831.78,584.82c-1.29,0-2.34-.42-3.15-1.27s-1.21-1.98-1.21-3.4v-.3c0-.94,.18-1.79,.54-2.53s.86-1.32,1.51-1.74,1.35-.63,2.1-.63c1.24,0,2.2,.41,2.88,1.22s1.03,1.98,1.03,3.5v.68h-6.44c.02,.94,.3,1.69,.82,2.27s1.19,.87,2,.87c.57,0,1.06-.12,1.46-.35s.75-.54,1.05-.93l.99,.77c-.8,1.22-1.99,1.84-3.59,1.84Zm-.2-8.53c-.66,0-1.21,.24-1.65,.72s-.72,1.15-.83,2.01h4.76v-.12c-.05-.83-.27-1.47-.67-1.92s-.94-.68-1.62-.68Z"/><path class="cls-1" d="M836.98,579.81c0-1.49,.34-2.68,1.03-3.55s1.61-1.3,2.76-1.3,2.01,.38,2.66,1.13l.07-.96h1.49v13.17h-1.63v-4.54c-.66,.7-1.53,1.05-2.62,1.05-1.15,0-2.06-.45-2.75-1.34s-1.02-2.08-1.02-3.55v-.11Zm1.63,.18c0,1.09,.23,1.95,.69,2.57s1.08,.93,1.86,.93c.97,0,1.71-.43,2.21-1.28v-4.66c-.52-.84-1.25-1.26-2.2-1.26-.79,0-1.41,.31-1.87,.94s-.69,1.55-.69,2.76Z"/><path class="cls-1" d="M853.47,583.7c-.63,.74-1.56,1.12-2.79,1.12-1.01,0-1.79-.29-2.32-.88s-.8-1.46-.8-2.61v-6.19h1.63v6.14c0,1.44,.59,2.16,1.76,2.16,1.24,0,2.07-.46,2.48-1.39v-6.92h1.63v9.51h-1.55l-.04-.94Z"/><path class="cls-1" d="M861.47,584.82c-1.29,0-2.34-.42-3.15-1.27s-1.21-1.98-1.21-3.4v-.3c0-.94,.18-1.79,.54-2.53s.86-1.32,1.51-1.74,1.35-.63,2.1-.63c1.24,0,2.2,.41,2.88,1.22s1.03,1.98,1.03,3.5v.68h-6.44c.02,.94,.3,1.69,.82,2.27s1.19,.87,2,.87c.57,0,1.06-.12,1.46-.35s.75-.54,1.05-.93l.99,.77c-.8,1.22-1.99,1.84-3.59,1.84Zm-.2-8.53c-.66,0-1.21,.24-1.65,.72s-.72,1.15-.83,2.01h4.76v-.12c-.05-.83-.27-1.47-.67-1.92s-.94-.68-1.62-.68Z"/><path class="cls-1" d="M868.6,575.13l.05,1.2c.73-.91,1.68-1.37,2.85-1.37,2.01,0,3.02,1.13,3.04,3.4v6.28h-1.63v-6.29c0-.69-.16-1.19-.47-1.52s-.79-.49-1.44-.49c-.53,0-.99,.14-1.39,.42s-.71,.65-.93,1.11v6.78h-1.63v-9.51h1.54Z"/><path class="cls-1" d="M880.81,583.49c.58,0,1.09-.18,1.52-.53s.67-.79,.72-1.32h1.54c-.03,.54-.22,1.06-.56,1.56s-.81,.88-1.38,1.18-1.19,.44-1.83,.44c-1.29,0-2.32-.43-3.09-1.3s-1.15-2.05-1.15-3.55v-.27c0-.93,.17-1.75,.51-2.47s.83-1.28,1.46-1.68,1.39-.6,2.25-.6c1.07,0,1.95,.32,2.66,.96s1.08,1.47,1.13,2.49h-1.54c-.05-.62-.28-1.12-.7-1.52s-.94-.59-1.55-.59c-.83,0-1.47,.3-1.92,.89s-.68,1.46-.68,2.58v.31c0,1.1,.23,1.94,.68,2.53s1.1,.89,1.93,.89Z"/><path class="cls-1" d="M889.53,582.26l2.21-7.13h1.74l-3.82,10.98c-.59,1.58-1.53,2.37-2.82,2.37l-.31-.03-.61-.11v-1.32l.44,.04c.55,0,.98-.11,1.29-.33s.56-.63,.76-1.22l.36-.97-3.39-9.4h1.78l2.37,7.13Z"/></g><g><path class="cls-1" d="M893.09,390.99v5.01h-1.69v-12.8h4.72c1.4,0,2.5,.36,3.29,1.07s1.19,1.66,1.19,2.84c0,1.24-.39,2.2-1.17,2.87s-1.89,1.01-3.33,1.01h-3.01Zm0-1.38h3.03c.9,0,1.59-.21,2.07-.64,.48-.43,.72-1.04,.72-1.84s-.24-1.37-.72-1.83c-.48-.46-1.14-.7-1.98-.71h-3.13v5.03Z"/><path class="cls-1" d="M908.28,396c-.09-.19-.17-.52-.23-1-.76,.79-1.66,1.18-2.71,1.18-.94,0-1.71-.26-2.31-.79s-.9-1.2-.9-2.02c0-.99,.38-1.76,1.13-2.31s1.81-.82,3.18-.82h1.58v-.75c0-.57-.17-1.02-.51-1.36s-.84-.51-1.5-.51c-.58,0-1.07,.15-1.46,.44s-.59,.65-.59,1.06h-1.63c0-.47,.17-.93,.5-1.38s.79-.79,1.37-1.05,1.21-.39,1.9-.39c1.1,0,1.95,.27,2.58,.82s.94,1.3,.97,2.26v4.38c0,.87,.11,1.57,.33,2.08v.14h-1.71Zm-2.7-1.24c.51,0,.99-.13,1.45-.4s.79-.61,.99-1.03v-1.95h-1.27c-1.99,0-2.99,.58-2.99,1.75,0,.51,.17,.91,.51,1.2s.78,.43,1.31,.43Z"/><path class="cls-1" d="M917.74,393.48c0-.44-.17-.78-.5-1.02s-.91-.45-1.73-.63-1.48-.39-1.96-.63-.84-.54-1.07-.88-.35-.74-.35-1.21c0-.78,.33-1.44,.99-1.98s1.5-.81,2.53-.81c1.08,0,1.95,.28,2.62,.83s1.01,1.27,1.01,2.14h-1.63c0-.45-.19-.83-.57-1.15s-.85-.48-1.43-.48-1.05,.13-1.39,.39-.5,.59-.5,1.01c0,.39,.16,.69,.47,.89s.87,.39,1.68,.57,1.47,.4,1.97,.65,.88,.56,1.12,.91,.37,.79,.37,1.3c0,.85-.34,1.53-1.02,2.04s-1.56,.77-2.65,.77c-.76,0-1.44-.13-2.02-.4s-1.04-.65-1.38-1.13-.5-1.01-.5-1.57h1.63c.03,.54,.25,.98,.65,1.3s.95,.48,1.61,.48c.62,0,1.11-.12,1.48-.37s.56-.58,.56-1Z"/><path class="cls-1" d="M927.02,393.48c0-.44-.17-.78-.5-1.02s-.91-.45-1.73-.63-1.48-.39-1.96-.63-.84-.54-1.07-.88-.35-.74-.35-1.21c0-.78,.33-1.44,.99-1.98s1.5-.81,2.53-.81c1.08,0,1.95,.28,2.62,.83s1.01,1.27,1.01,2.14h-1.63c0-.45-.19-.83-.57-1.15s-.85-.48-1.43-.48-1.05,.13-1.39,.39-.5,.59-.5,1.01c0,.39,.16,.69,.47,.89s.87,.39,1.68,.57,1.47,.4,1.97,.65,.88,.56,1.12,.91,.37,.79,.37,1.3c0,.85-.34,1.53-1.02,2.04s-1.56,.77-2.65,.77c-.76,0-1.44-.13-2.02-.4s-1.04-.65-1.38-1.13-.5-1.01-.5-1.57h1.63c.03,.54,.25,.98,.65,1.3s.95,.48,1.61,.48c.62,0,1.11-.12,1.48-.37s.56-.58,.56-1Z"/><path class="cls-1" d="M935.47,396v-12.8h4.18c1.39,0,2.43,.29,3.13,.86s1.05,1.42,1.05,2.55c0,.6-.17,1.13-.51,1.59s-.8,.82-1.39,1.07c.69,.19,1.24,.56,1.64,1.1s.6,1.19,.6,1.94c0,1.15-.37,2.05-1.12,2.71s-1.8,.98-3.16,.98h-4.44Zm1.69-7.34h2.55c.74,0,1.33-.18,1.77-.55s.66-.87,.66-1.51c0-.71-.21-1.22-.62-1.54s-1.03-.48-1.87-.48h-2.5v4.08Zm0,1.35v4.61h2.79c.79,0,1.4-.2,1.86-.61s.68-.97,.68-1.68c0-1.54-.84-2.31-2.51-2.31h-2.81Z"/><path class="cls-1" d="M952.3,396c-.09-.19-.17-.52-.23-1-.76,.79-1.66,1.18-2.71,1.18-.94,0-1.71-.26-2.31-.79s-.9-1.2-.9-2.02c0-.99,.38-1.76,1.13-2.31s1.81-.82,3.18-.82h1.58v-.75c0-.57-.17-1.02-.51-1.36s-.84-.51-1.5-.51c-.58,0-1.07,.15-1.46,.44s-.59,.65-.59,1.06h-1.63c0-.47,.17-.93,.5-1.38s.79-.79,1.37-1.05,1.21-.39,1.9-.39c1.1,0,1.95,.27,2.58,.82s.94,1.3,.97,2.26v4.38c0,.87,.11,1.57,.33,2.08v.14h-1.71Zm-2.7-1.24c.51,0,.99-.13,1.45-.4s.79-.61,.99-1.03v-1.95h-1.27c-1.99,0-2.99,.58-2.99,1.75,0,.51,.17,.91,.51,1.2s.78,.43,1.31,.43Z"/><path class="cls-1" d="M957.75,386.49l.05,1.2c.73-.91,1.68-1.37,2.85-1.37,2.01,0,3.02,1.13,3.04,3.4v6.28h-1.63v-6.29c0-.69-.16-1.19-.47-1.52s-.79-.49-1.44-.49c-.53,0-.99,.14-1.39,.42s-.71,.65-.93,1.11v6.78h-1.63v-9.51h1.54Z"/><path class="cls-1" d="M965.75,391.17c0-1.46,.35-2.63,1.04-3.52s1.6-1.33,2.72-1.33,2,.38,2.65,1.14v-4.96h1.63v13.5h-1.49l-.08-1.02c-.65,.8-1.56,1.2-2.72,1.2s-2-.45-2.69-1.35-1.04-2.08-1.04-3.53v-.12Zm1.63,.18c0,1.08,.22,1.92,.67,2.53s1.06,.91,1.85,.91c1.03,0,1.78-.46,2.26-1.39v-4.37c-.49-.9-1.23-1.34-2.24-1.34-.8,0-1.42,.31-1.86,.92s-.67,1.53-.67,2.73Z"/></g><g><path class="cls-1" d="M720.94,390.3c-1.45-.42-2.5-.93-3.16-1.53s-.99-1.35-.99-2.25c0-1.01,.4-1.84,1.21-2.5s1.85-.99,3.14-.99c.88,0,1.66,.17,2.35,.51s1.22,.81,1.6,1.41,.57,1.25,.57,1.96h-1.7c0-.78-.25-1.39-.74-1.83-.49-.44-1.19-.67-2.08-.67-.83,0-1.48,.18-1.95,.55-.47,.37-.7,.88-.7,1.53,0,.52,.22,.96,.66,1.33,.44,.36,1.2,.69,2.26,.99,1.06,.3,1.9,.63,2.5,.99s1.05,.78,1.34,1.26,.43,1.05,.43,1.7c0,1.04-.4,1.87-1.21,2.49s-1.89,.94-3.24,.94c-.88,0-1.7-.17-2.46-.51s-1.35-.8-1.76-1.38-.62-1.25-.62-2h1.7c0,.77,.29,1.38,.86,1.83s1.33,.67,2.29,.67c.89,0,1.57-.18,2.05-.54s.71-.86,.71-1.49-.22-1.11-.66-1.46-1.24-.68-2.39-1.01Z"/><path class="cls-1" d="M729.79,384.19v2.3h1.78v1.26h-1.78v5.9c0,.38,.08,.67,.24,.86s.43,.29,.81,.29c.19,0,.45-.04,.77-.11v1.31c-.43,.12-.84,.17-1.25,.17-.73,0-1.27-.22-1.64-.66s-.55-1.06-.55-1.87v-5.9h-1.73v-1.26h1.73v-2.3h1.63Z"/><path class="cls-1" d="M732.86,391.16c0-.93,.18-1.77,.55-2.51s.88-1.32,1.53-1.72,1.4-.61,2.24-.61c1.29,0,2.34,.45,3.14,1.34s1.2,2.09,1.2,3.58v.11c0,.93-.18,1.76-.53,2.49s-.86,1.31-1.52,1.72-1.42,.62-2.27,.62c-1.29,0-2.33-.45-3.13-1.34s-1.2-2.08-1.2-3.56v-.11Zm1.63,.19c0,1.05,.25,1.9,.73,2.54s1.14,.96,1.96,.96,1.48-.32,1.97-.97,.73-1.55,.73-2.72c0-1.04-.25-1.89-.74-2.54s-1.15-.97-1.97-.97-1.45,.32-1.94,.96-.74,1.55-.74,2.74Z"/><path class="cls-1" d="M751.59,391.35c0,1.45-.33,2.61-.99,3.5s-1.56,1.33-2.69,1.33-2.06-.37-2.72-1.1v4.58h-1.63v-13.17h1.49l.08,1.05c.66-.82,1.58-1.23,2.76-1.23s2.05,.43,2.71,1.29,1,2.06,1,3.59v.15Zm-1.63-.18c0-1.07-.23-1.92-.69-2.54s-1.08-.93-1.88-.93c-.98,0-1.72,.44-2.21,1.31v4.54c.49,.87,1.23,1.3,2.23,1.3,.78,0,1.4-.31,1.86-.93s.69-1.54,.69-2.75Z"/><path class="cls-1" d="M758.37,396v-12.8h4.18c1.39,0,2.43,.29,3.13,.86s1.05,1.42,1.05,2.55c0,.6-.17,1.13-.51,1.59s-.8,.82-1.39,1.07c.69,.19,1.24,.56,1.64,1.1s.6,1.19,.6,1.94c0,1.15-.37,2.05-1.12,2.71s-1.8,.98-3.16,.98h-4.44Zm1.69-7.34h2.55c.74,0,1.33-.19,1.77-.55,.44-.37,.66-.87,.66-1.51,0-.7-.21-1.22-.62-1.54-.41-.32-1.03-.48-1.87-.48h-2.5v4.08Zm0,1.35v4.61h2.79c.79,0,1.41-.2,1.86-.61s.68-.97,.68-1.68c0-1.54-.84-2.31-2.51-2.31h-2.81Z"/><path class="cls-1" d="M775.19,396c-.09-.19-.17-.52-.23-1-.76,.79-1.66,1.18-2.71,1.18-.94,0-1.71-.27-2.31-.8s-.9-1.2-.9-2.02c0-.99,.38-1.76,1.13-2.31s1.81-.82,3.18-.82h1.58v-.75c0-.57-.17-1.02-.51-1.36s-.84-.5-1.5-.5c-.58,0-1.07,.15-1.46,.44s-.59,.65-.59,1.06h-1.63c0-.47,.17-.93,.51-1.38s.79-.79,1.37-1.05,1.21-.39,1.9-.39c1.1,0,1.95,.27,2.58,.82s.94,1.3,.97,2.26v4.38c0,.87,.11,1.57,.33,2.08v.14h-1.71Zm-2.7-1.24c.51,0,.99-.13,1.45-.4s.79-.61,.99-1.03v-1.95h-1.27c-1.99,0-2.99,.58-2.99,1.75,0,.51,.17,.91,.51,1.2s.78,.43,1.31,.43Z"/><path class="cls-1" d="M780.65,386.49l.05,1.2c.73-.91,1.68-1.37,2.85-1.37,2.01,0,3.02,1.13,3.04,3.4v6.28h-1.63v-6.29c0-.69-.16-1.19-.47-1.52s-.79-.49-1.44-.49c-.53,0-.99,.14-1.39,.42s-.71,.65-.93,1.11v6.78h-1.63v-9.51h1.54Z"/><path class="cls-1" d="M788.65,391.17c0-1.46,.35-2.63,1.04-3.52s1.6-1.33,2.72-1.33,2,.38,2.65,1.14v-4.96h1.63v13.5h-1.49l-.08-1.02c-.65,.8-1.56,1.2-2.72,1.2s-2-.45-2.69-1.35-1.04-2.08-1.04-3.53v-.12Zm1.63,.18c0,1.08,.22,1.92,.67,2.53s1.06,.91,1.85,.91c1.03,0,1.78-.46,2.26-1.39v-4.37c-.49-.9-1.23-1.34-2.24-1.34-.8,0-1.42,.31-1.86,.92s-.67,1.53-.67,2.73Z"/></g><g><path class="cls-1" d="M774.81,358.82c-.16,1.35-.66,2.4-1.5,3.13s-1.96,1.1-3.35,1.1c-1.51,0-2.72-.54-3.63-1.63s-1.37-2.53-1.37-4.35v-1.23c0-1.19,.21-2.24,.64-3.14s1.03-1.59,1.81-2.08,1.68-.73,2.71-.73c1.36,0,2.45,.38,3.27,1.14s1.3,1.81,1.43,3.15h-1.7c-.15-1.02-.46-1.76-.95-2.22-.49-.46-1.17-.69-2.05-.69-1.08,0-1.92,.4-2.54,1.2-.61,.8-.92,1.93-.92,3.4v1.24c0,1.39,.29,2.5,.87,3.32,.58,.82,1.39,1.23,2.43,1.23,.94,0,1.66-.21,2.16-.64s.83-1.17,1-2.22h1.7Z"/><path class="cls-1" d="M782.73,361.94c-.63,.74-1.56,1.12-2.79,1.12-1.01,0-1.79-.29-2.32-.88s-.8-1.46-.8-2.62v-6.19h1.63v6.14c0,1.44,.59,2.16,1.76,2.16,1.24,0,2.07-.46,2.48-1.39v-6.92h1.63v9.51h-1.55l-.04-.94Z"/><path class="cls-1" d="M788.98,351.07v2.3h1.78v1.26h-1.78v5.91c0,.38,.08,.67,.24,.86,.16,.19,.43,.29,.81,.29,.19,0,.45-.04,.77-.11v1.31c-.43,.12-.84,.17-1.25,.17-.73,0-1.27-.22-1.64-.66s-.55-1.06-.55-1.87v-5.9h-1.73v-1.26h1.73v-2.3h1.63Z"/><path class="cls-1" d="M792.05,358.04c0-.93,.18-1.77,.55-2.51s.88-1.32,1.53-1.72,1.4-.61,2.24-.61c1.29,0,2.34,.45,3.14,1.34s1.2,2.09,1.2,3.58v.11c0,.93-.18,1.76-.53,2.49s-.86,1.31-1.52,1.72-1.42,.62-2.27,.62c-1.29,0-2.33-.45-3.13-1.34s-1.2-2.08-1.2-3.56v-.11Zm1.63,.19c0,1.05,.24,1.9,.73,2.54s1.14,.96,1.96,.96,1.48-.32,1.97-.97,.73-1.55,.73-2.72c0-1.04-.25-1.89-.74-2.54s-1.15-.97-1.97-.97-1.45,.32-1.94,.96-.74,1.55-.74,2.74Z"/><path class="cls-1" d="M803.55,362.88v-8.25h-1.5v-1.26h1.5v-.98c0-1.02,.27-1.81,.82-2.36s1.32-.83,2.31-.83c.38,0,.75,.05,1.12,.15l-.09,1.31c-.28-.05-.57-.08-.88-.08-.53,0-.93,.15-1.22,.46s-.43,.75-.43,1.33v1h2.03v1.26h-2.03v8.25h-1.63Z"/><path class="cls-1" d="M809.8,362.88v-8.25h-1.5v-1.26h1.5v-.98c0-1.02,.27-1.81,.82-2.36s1.32-.83,2.31-.83c.38,0,.75,.05,1.12,.15l-.09,1.31c-.28-.05-.57-.08-.88-.08-.53,0-.93,.15-1.22,.46s-.43,.75-.43,1.33v1h2.03v1.26h-2.03v8.25h-1.63Z"/><path class="cls-1" d="M827.01,357.23h-5.37v5.65h-1.69v-12.8h7.93v1.38h-6.24v4.39h5.37v1.38Z"/><path class="cls-1" d="M834.02,354.83c-.25-.04-.51-.06-.8-.06-1.07,0-1.79,.45-2.17,1.36v6.75h-1.63v-9.51h1.58l.03,1.1c.53-.85,1.29-1.27,2.27-1.27,.32,0,.56,.04,.72,.12v1.51Z"/><path class="cls-1" d="M839.29,363.06c-1.29,0-2.34-.42-3.15-1.27s-1.21-1.98-1.21-3.4v-.3c0-.94,.18-1.79,.54-2.53s.86-1.32,1.51-1.74,1.35-.63,2.11-.63c1.24,0,2.2,.41,2.88,1.22s1.03,1.98,1.03,3.5v.68h-6.44c.02,.94,.3,1.7,.82,2.27s1.19,.87,2,.87c.57,0,1.06-.12,1.46-.35s.75-.54,1.05-.93l.99,.77c-.8,1.22-1.99,1.84-3.59,1.84Zm-.2-8.53c-.66,0-1.21,.24-1.65,.72s-.72,1.15-.83,2.01h4.76v-.12c-.05-.83-.27-1.47-.67-1.92s-.94-.68-1.62-.68Z"/><path class="cls-1" d="M844.49,358.05c0-1.49,.34-2.68,1.03-3.55s1.61-1.31,2.76-1.31,2.01,.38,2.66,1.13l.07-.96h1.49v13.17h-1.63v-4.54c-.66,.7-1.53,1.05-2.62,1.05-1.15,0-2.06-.45-2.75-1.34s-1.02-2.08-1.02-3.56v-.11Zm1.63,.18c0,1.09,.23,1.95,.69,2.57s1.08,.93,1.86,.93c.97,0,1.71-.43,2.21-1.28v-4.66c-.52-.84-1.25-1.26-2.2-1.26-.79,0-1.41,.31-1.87,.94s-.69,1.54-.69,2.76Z"/><path class="cls-1" d="M860.98,361.94c-.63,.74-1.56,1.12-2.79,1.12-1.01,0-1.79-.29-2.32-.88s-.8-1.46-.8-2.62v-6.19h1.63v6.14c0,1.44,.59,2.16,1.76,2.16,1.24,0,2.07-.46,2.48-1.39v-6.92h1.63v9.51h-1.55l-.04-.94Z"/><path class="cls-1" d="M868.98,363.06c-1.29,0-2.34-.42-3.15-1.27s-1.21-1.98-1.21-3.4v-.3c0-.94,.18-1.79,.54-2.53s.86-1.32,1.51-1.74,1.35-.63,2.11-.63c1.24,0,2.2,.41,2.88,1.22s1.03,1.98,1.03,3.5v.68h-6.44c.02,.94,.3,1.7,.82,2.27s1.19,.87,2,.87c.57,0,1.06-.12,1.46-.35s.75-.54,1.05-.93l.99,.77c-.8,1.22-1.99,1.84-3.59,1.84Zm-.2-8.53c-.66,0-1.21,.24-1.65,.72s-.72,1.15-.83,2.01h4.76v-.12c-.05-.83-.27-1.47-.67-1.92s-.94-.68-1.62-.68Z"/><path class="cls-1" d="M876.11,353.37l.05,1.2c.73-.91,1.68-1.37,2.85-1.37,2.01,0,3.02,1.13,3.04,3.4v6.28h-1.63v-6.29c0-.69-.16-1.19-.47-1.52s-.79-.49-1.44-.49c-.53,0-.99,.14-1.39,.42s-.71,.65-.93,1.11v6.78h-1.63v-9.51h1.54Z"/><path class="cls-1" d="M888.32,361.73c.58,0,1.09-.18,1.52-.53s.67-.79,.72-1.32h1.54c-.03,.54-.22,1.06-.56,1.56s-.81,.88-1.38,1.18-1.19,.44-1.83,.44c-1.29,0-2.33-.43-3.09-1.3s-1.15-2.05-1.15-3.55v-.27c0-.93,.17-1.75,.51-2.47s.83-1.28,1.46-1.68,1.39-.6,2.25-.6c1.07,0,1.95,.32,2.66,.96s1.08,1.47,1.13,2.49h-1.54c-.05-.62-.28-1.12-.7-1.52s-.94-.59-1.55-.59c-.83,0-1.47,.3-1.92,.89s-.68,1.45-.68,2.58v.31c0,1.1,.23,1.94,.68,2.53s1.1,.89,1.93,.89Z"/><path class="cls-1" d="M897.04,360.5l2.21-7.13h1.74l-3.82,10.98c-.59,1.58-1.53,2.37-2.82,2.37l-.31-.03-.61-.11v-1.32l.44,.04c.55,0,.98-.11,1.29-.33s.56-.63,.76-1.22l.36-.97-3.39-9.4h1.78l2.37,7.13Z"/></g><path class="cls-1" d="M486.32,305.91h-7.33v-1.42h7.33v1.42Zm0,3.65h-7.33v-1.41h7.33v1.41Z"/></g></svg>