<?xml version="1.0" encoding="UTF-8"?><svg xmlns="http://www.w3.org/2000/svg" viewBox="0 0 1080 600.48"><defs><style>.cls-1{letter-spacing:-.04em;}.cls-2{letter-spacing:0em;}.cls-3{font-size:13px;}.cls-3,.cls-4,.cls-5,.cls-6{fill:#cad2d9;}.cls-3,.cls-6{font-family:Roboto-Regular, Roboto;}.cls-5,.cls-7,.cls-8,.cls-9{stroke:#cad2d9;stroke-miterlimit:10;}.cls-5,.cls-8{stroke-width:2px;}.cls-10{letter-spacing:-.05em;}.cls-7{stroke-width:2px;}.cls-7,.cls-8,.cls-9{fill:none;}.cls-11{letter-spacing:0em;}.cls-12{letter-spacing:-.02em;}.cls-13{letter-spacing:0em;}.cls-14{letter-spacing:-.02em;}.cls-6{font-size:18px;}.cls-15{letter-spacing:0em;}</style></defs><g id="Field"><circle class="cls-5" cx="492.48" cy="279.36" r="2.88"/></g><g id="Line"><line class="cls-9" x1="830.88" y1="342.72" x2="822.24" y2="342.72"/><line class="cls-9" x1="826.56" y1="338.4" x2="826.56" y2="347.04"/><line class="cls-9" x1="889.92" y1="342.72" x2="881.28" y2="342.72"/><line class="cls-9" x1="885.6" y1="338.4" x2="885.6" y2="347.04"/><line class="cls-8" x1="93.6" y1="178.56" x2="341.28" y2="178.56"/><line class="cls-8" x1="413.28" y1="178.56" x2="492.48" y2="178.56"/><rect class="cls-8" x="341.28" y="167.04" width="72" height="23.04"/><line class="cls-8" x1="174.24" y1="279.36" x2="341.28" y2="279.36"/><line class="cls-8" x1="413.28" y1="279.36" x2="492.48" y2="279.36"/><rect class="cls-8" x="341.28" y="267.84" width="72" height="23.04"/><line class="cls-8" x1="254.88" y1="365.76" x2="341.28" y2="365.76"/><line class="cls-8" x1="413.28" y1="365.76" x2="492.48" y2="365.76"/><rect class="cls-8" x="341.28" y="354.24" width="72" height="23.04"/><line class="cls-8" x1="492.48" y1="365.76" x2="492.48" y2="178.56"/><g><circle class="cls-8" cx="93.6" cy="446.4" r="21.6"/><path class="cls-8" d="M82.08,445.81c1.51-3.94,3.02-7.9,6.04-7.9,6.02,0,6.02,15.69,12.04,15.69,3,0,4.5-3.88,6-7.79"/></g><g><circle class="cls-8" cx="174.24" cy="446.4" r="21.6"/><path class="cls-8" d="M162.72,445.81c1.51-3.94,3.02-7.9,6.04-7.9,6.02,0,6.02,15.69,12.04,15.69,3,0,4.5-3.88,6-7.79"/></g><g><circle class="cls-8" cx="254.88" cy="446.4" r="21.6"/><path class="cls-8" d="M243.36,445.81c1.51-3.94,3.02-7.9,6.04-7.9,6.02,0,6.02,15.69,12.04,15.69,3,0,4.5-3.88,6-7.79"/></g><g><line class="cls-8" x1="495.36" y1="279.36" x2="588.59" y2="279.36"/><polygon class="cls-4" points="578.65 291.63 576.6 289.43 587.44 279.36 576.6 269.29 578.65 267.09 591.84 279.36 578.65 291.63"/></g><line class="cls-8" x1="174.24" y1="279.36" x2="174.24" y2="424.8"/><line class="cls-8" x1="254.88" y1="365.76" x2="254.88" y2="424.8"/><line class="cls-8" x1="93.6" y1="178.56" x2="93.6" y2="424.8"/><line class="cls-8" x1="93.6" y1="468" x2="93.6" y2="489.6"/><line class="cls-8" x1="174.24" y1="468" x2="174.24" y2="489.6"/><line class="cls-8" x1="254.88" y1="468" x2="254.88" y2="489.6"/><line class="cls-9" x1="779.04" y1="188.64" x2="815.04" y2="188.64"/><line class="cls-9" x1="838.08" y1="188.64" x2="874.08" y2="188.64"/><line class="cls-9" x1="830.88" y1="188.64" x2="822.24" y2="188.64"/><line class="cls-9" x1="826.56" y1="184.32" x2="826.56" y2="192.96"/><line class="cls-9" x1="897.12" y1="188.64" x2="933.12" y2="188.64"/><line class="cls-9" x1="889.92" y1="188.64" x2="881.28" y2="188.64"/><line class="cls-9" x1="885.6" y1="184.32" x2="885.6" y2="192.96"/><line class="cls-9" x1="771.84" y1="218.88" x2="940.32" y2="218.88"/><line class="cls-9" x1="779.04" y1="246.24" x2="815.04" y2="246.24"/><line class="cls-9" x1="838.08" y1="246.24" x2="874.08" y2="246.24"/><line class="cls-9" x1="830.88" y1="246.24" x2="822.24" y2="246.24"/><line class="cls-9" x1="826.56" y1="241.92" x2="826.56" y2="250.56"/><line class="cls-9" x1="897.12" y1="246.24" x2="933.12" y2="246.24"/><line class="cls-9" x1="889.92" y1="246.24" x2="881.28" y2="246.24"/><line class="cls-9" x1="885.6" y1="241.92" x2="885.6" y2="250.56"/><line class="cls-9" x1="771.84" y1="360" x2="940.32" y2="360"/><polygon class="cls-7" points="93.6 489.6 108 489.6 100.8 498.24 93.6 506.88 86.4 498.24 79.2 489.6 93.6 489.6"/><polygon class="cls-7" points="174.24 489.6 188.64 489.6 181.44 498.24 174.24 506.88 167.04 498.24 159.84 489.6 174.24 489.6"/><polygon class="cls-7" points="254.88 489.6 269.28 489.6 262.08 498.24 254.88 506.88 247.68 498.24 240.48 489.6 254.88 489.6"/></g><g id="TEXT"><text class="cls-6" transform="translate(367.35 155.52)"><tspan x="0" y="0">R</tspan></text><text class="cls-6" transform="translate(378.44 161.51) scale(.58)"><tspan x="0" y="0">1</tspan></text><text class="cls-6" transform="translate(367.35 256.32)"><tspan x="0" y="0">R</tspan></text><text class="cls-6" transform="translate(378.44 262.31) scale(.58)"><tspan x="0" y="0">2</tspan></text><text class="cls-6" transform="translate(367.35 342.72)"><tspan x="0" y="0">R</tspan></text><text class="cls-6" transform="translate(378.44 348.71) scale(.58)"><tspan x="0" y="0">3</tspan></text><text class="cls-6" transform="translate(596.24 259.2)"><tspan x="0" y="0">V</tspan></text><text class="cls-6" transform="translate(607.69 265.19) scale(.58)"><tspan x="0" y="0">OU</tspan><tspan class="cls-12" x="24.05" y="0">T</tspan></text><text class="cls-6" transform="translate(324.64 99.36)"><tspan class="cls-11" x="0" y="0">P</tspan><tspan x="11.26" y="0">assi</tspan><tspan class="cls-15" x="43.98" y="0">v</tspan><tspan x="52.58" y="0">e Mi</tspan><tspan class="cls-13" x="86.66" y="0">x</tspan><tspan x="95.41" y="0">er</tspan></text><text class="cls-6" transform="translate(326.56 452.16)"><tspan x="0" y="0">Signal Sou</tspan><tspan class="cls-2" x="84.56" y="0">r</tspan><tspan x="90.48" y="0">ces</tspan></text><text class="cls-6" transform="translate(789.09 181.44)"><tspan x="0" y="0">V</tspan></text><text class="cls-6" transform="translate(800.54 187.43) scale(.58)"><tspan x="0" y="0">1</tspan></text><text class="cls-6" transform="translate(694.11 226.08)"><tspan x="0" y="0">V</tspan></text><text class="cls-6" transform="translate(848.13 180)"><tspan x="0" y="0">V</tspan></text><text class="cls-6" transform="translate(859.58 185.99) scale(.58)"><tspan x="0" y="0">2</tspan></text><text class="cls-6" transform="translate(907.17 180)"><tspan x="0" y="0">V</tspan></text><text class="cls-6" transform="translate(918.62 185.99) scale(.58)"><tspan x="0" y="0">3</tspan></text><text class="cls-6" transform="translate(789.28 263.52)"><tspan x="0" y="0">R</tspan></text><text class="cls-6" transform="translate(800.36 269.51) scale(.58)"><tspan x="0" y="0">1</tspan></text><text class="cls-6" transform="translate(788.39 243.36)"><tspan x="0" y="0">1</tspan></text><text class="cls-6" transform="translate(848.31 263.52)"><tspan x="0" y="0">R</tspan></text><text class="cls-6" transform="translate(859.39 269.52) scale(.58)"><tspan x="0" y="0">2</tspan></text><text class="cls-6" transform="translate(847.43 241.92)"><tspan x="0" y="0">1</tspan></text><text class="cls-6" transform="translate(907.35 263.52)"><tspan x="0" y="0">R</tspan></text><text class="cls-6" transform="translate(918.43 269.52) scale(.58)"><tspan x="0" y="0">3</tspan></text><text class="cls-6" transform="translate(906.47 241.92)"><tspan x="0" y="0">1</tspan></text><text class="cls-6" transform="translate(701.35 99.36)"><tspan x="0" y="0">Acco</tspan><tspan class="cls-2" x="40.85" y="0">r</tspan><tspan x="46.78" y="0">ding </tspan><tspan class="cls-13" x="85.78" y="0">t</tspan><tspan x="91.49" y="0">o Millma</tspan><tspan class="cls-10" x="160.59" y="0">n</tspan><tspan class="cls-1" x="169.61" y="0">‘</tspan><tspan x="172.5" y="0">s</tspan><tspan class="cls-14" x="181.78" y="0"> </tspan><tspan x="185.89" y="0">Theo</tspan><tspan class="cls-2" x="226.34" y="0">r</tspan><tspan x="232.27" y="0">em:</tspan></text><text class="cls-6" transform="translate(802.78 463.68)"><tspan x="0" y="0" xml:space="preserve">if  R</tspan></text><text class="cls-6" transform="translate(833.39 469.67) scale(.58)"><tspan x="0" y="0">1</tspan></text><text class="cls-6" transform="translate(839.29 463.68)"><tspan x="0" y="0" xml:space="preserve"> = R</tspan></text><text class="cls-6" transform="translate(869.16 469.67) scale(.58)"><tspan x="0" y="0">2</tspan></text><text class="cls-6" transform="translate(875.05 463.68)"><tspan x="0" y="0" xml:space="preserve"> = R</tspan></text><text class="cls-6" transform="translate(904.93 469.67) scale(.58)"><tspan x="0" y="0">3</tspan></text><text class="cls-6" transform="translate(103.65 423.36)"><tspan x="0" y="0">V</tspan></text><text class="cls-6" transform="translate(115.1 429.35) scale(.58)"><tspan x="0" y="0">1</tspan></text><text class="cls-6" transform="translate(184.29 423.36)"><tspan x="0" y="0">V</tspan></text><text class="cls-6" transform="translate(195.74 429.35) scale(.58)"><tspan x="0" y="0">2</tspan></text><text class="cls-6" transform="translate(264.93 423.36)"><tspan x="0" y="0">V</tspan></text><text class="cls-6" transform="translate(276.38 429.35) scale(.58)"><tspan x="0" y="0">3</tspan></text><text class="cls-6" transform="translate(741.17 364.91)"><tspan x="0" y="0">=</tspan></text><text class="cls-6" transform="translate(851.74 383.04)"><tspan x="0" y="0">3</tspan></text><text class="cls-6" transform="translate(741.17 223.79)"><tspan x="0" y="0">=</tspan></text><text class="cls-3" transform="translate(703.24 228.96)"><tspan x="0" y="0">OU</tspan><tspan class="cls-14" x="17.37" y="0">T</tspan></text><text class="cls-6" transform="translate(954.1 223.79)"><tspan x="0" y="0">=</tspan></text><text class="cls-6" transform="translate(792.16 205.92)"><tspan x="0" y="0">R</tspan></text><text class="cls-6" transform="translate(803.24 211.91) scale(.58)"><tspan x="0" y="0">1</tspan></text><text class="cls-6" transform="translate(851.19 205.92)"><tspan x="0" y="0">R</tspan></text><text class="cls-6" transform="translate(862.28 211.92) scale(.58)"><tspan x="0" y="0">2</tspan></text><text class="cls-6" transform="translate(910.23 205.92)"><tspan x="0" y="0">R</tspan></text><text class="cls-6" transform="translate(921.32 211.92) scale(.58)"><tspan x="0" y="0">3</tspan></text><text class="cls-6" transform="translate(791.97 348.48)"><tspan x="0" y="0">V</tspan></text><text class="cls-6" transform="translate(803.42 354.47) scale(.58)"><tspan x="0" y="0">1</tspan></text><text class="cls-6" transform="translate(851.01 347.04)"><tspan x="0" y="0">V</tspan></text><text class="cls-6" transform="translate(862.46 353.03) scale(.58)"><tspan x="0" y="0">2</tspan></text><text class="cls-6" transform="translate(910.05 347.04)"><tspan x="0" y="0">V</tspan></text><text class="cls-6" transform="translate(921.5 353.04) scale(.58)"><tspan x="0" y="0">3</tspan></text></g></svg>