<?xml version="1.0" encoding="UTF-8"?><svg xmlns="http://www.w3.org/2000/svg" viewBox="0 0 1080 600.48"><defs><style>.cls-1{letter-spacing:0em;}.cls-2,.cls-3,.cls-4,.cls-5,.cls-6{fill:#cad2d9;}.cls-2,.cls-6{font-family:Roboto-Regular, Roboto;}.cls-4,.cls-7,.cls-8,.cls-9,.cls-10,.cls-11,.cls-12,.cls-5,.cls-13,.cls-14{stroke-miterlimit:10;}.cls-4,.cls-7,.cls-8,.cls-10,.cls-11,.cls-12,.cls-5,.cls-13,.cls-14{stroke:#cad2d9;}.cls-4,.cls-9,.cls-10{stroke-width:2px;}.cls-7{stroke-dasharray:0 0 1 1;}.cls-7,.cls-8,.cls-9,.cls-10,.cls-11,.cls-12,.cls-13,.cls-14{fill:none;}.cls-7,.cls-12,.cls-14{stroke-width:.5px;}.cls-8{stroke-width:2px;}.cls-9{stroke:#36a9e1;}.cls-15{letter-spacing:0em;}.cls-16{letter-spacing:-.01em;}.cls-17,.cls-6{font-size:18px;}.cls-12{stroke-dasharray:0 0 1 1;}.cls-5{stroke-width:3px;}.cls-18{letter-spacing:0em;}.cls-19,.cls-20{font-size:12px;}.cls-20{letter-spacing:-.02em;}.cls-13{stroke-width:.25px;}</style></defs><g id="blue"><path class="cls-9" d="M679.68,93.6h161.73c15.59,0,37.37,9.02,48.39,20.04l132.6,132.6"/><path class="cls-9" d="M1022.4,411.84h-161.73c-15.59,0-37.37,9.02-48.39,20.04l-132.6,132.6"/></g><g id="line"><line class="cls-10" x1="285.12" y1="152.64" x2="285.12" y2="69.12"/><line class="cls-10" x1="285.12" y1="171.36" x2="285.12" y2="241.92"/><rect class="cls-10" x="161.28" y="57.6" width="72" height="23.04"/><line class="cls-10" x1="233.28" y1="69.12" x2="285.12" y2="69.12"/><g><line class="cls-10" x1="161.28" y1="69.12" x2="92.49" y2="69.12"/><polygon class="cls-3" points="83.52 63.17 93.56 69.15 83.52 75.14 83.52 63.17"/></g><g><line class="cls-10" x1="285.12" y1="69.12" x2="350.06" y2="69.12"/><polygon class="cls-3" points="346.08 74.03 345.26 73.15 349.6 69.12 345.26 65.09 346.08 64.21 351.36 69.12 346.08 74.03"/></g><line class="cls-10" x1="285.12" y1="421.92" x2="285.12" y2="367.2"/><line class="cls-10" x1="285.12" y1="493.92" x2="285.12" y2="540"/><rect class="cls-10" x="249.12" y="447.51" width="72" height="23.04" transform="translate(-173.91 744.15) rotate(-90)"/><line class="cls-10" x1="205.92" y1="367.2" x2="285.12" y2="367.2"/><g><line class="cls-10" x1="191.52" y1="367.2" x2="92.49" y2="367.2"/><polygon class="cls-3" points="83.52 361.25 93.56 367.23 83.52 373.22 83.52 361.25"/></g><g><line class="cls-10" x1="285.12" y1="367.2" x2="350.06" y2="367.2"/><polygon class="cls-3" points="346.08 372.11 345.26 371.23 349.6 367.2 345.26 363.17 346.08 362.29 351.36 367.2 346.08 372.11"/></g><line class="cls-11" x1="679.92" y1="246.45" x2="1022.64" y2="246.45"/><line class="cls-11" x1="679.92" y1="246.24" x2="679.92" y2="54.72"/><rect class="cls-13" x="679.92" y="54.72" width="342.72" height="191.73"/><line class="cls-11" x1="504" y1="308.16" x2="586.08" y2="308.16"/><g><line class="cls-14" x1="870" y1="54.72" x2="870" y2="55.22"/><line class="cls-7" x1="870" y1="56.22" x2="870" y2="245.24"/><line class="cls-14" x1="870" y1="245.74" x2="870" y2="246.24"/></g><g><line class="cls-14" x1="684.35" y1="87.84" x2="867.34" y2="87.84"/><polygon class="cls-3" points="685.34 89.29 679.92 87.84 685.34 86.39 685.34 89.29"/><polygon class="cls-3" points="866.75 88.71 870 87.84 866.75 86.97 866.75 88.71"/></g><g><line class="cls-14" x1="874.43" y1="87.84" x2="1019.98" y2="87.84"/><polygon class="cls-3" points="875.42 89.29 870 87.84 875.42 86.39 875.42 89.29"/><polygon class="cls-3" points="1019.39 88.71 1022.64 87.84 1019.39 86.97 1019.39 88.71"/></g><line class="cls-11" x1="679.92" y1="564.69" x2="1022.64" y2="564.69"/><line class="cls-11" x1="679.92" y1="564.48" x2="679.92" y2="372.96"/><rect class="cls-13" x="679.92" y="372.96" width="342.72" height="191.73"/><g><line class="cls-14" x1="832.56" y1="372.96" x2="832.56" y2="373.46"/><line class="cls-12" x1="832.56" y1="374.46" x2="832.56" y2="563.48"/><line class="cls-14" x1="832.56" y1="563.98" x2="832.56" y2="564.48"/></g><g><line class="cls-14" x1="684.35" y1="406.08" x2="829.9" y2="406.08"/><polygon class="cls-3" points="685.34 407.53 679.92 406.08 685.34 404.63 685.34 407.53"/><polygon class="cls-3" points="829.31 406.95 832.56 406.08 829.31 405.21 829.31 406.95"/></g><g><line class="cls-14" x1="836.99" y1="406.08" x2="1019.98" y2="406.08"/><polygon class="cls-3" points="837.98 407.53 832.56 406.08 837.98 404.63 837.98 407.53"/><polygon class="cls-3" points="1019.39 406.95 1022.64 406.08 1019.39 405.21 1019.39 406.95"/></g><polygon class="cls-8" points="285.12 259.2 277.92 250.56 270.72 241.92 285.12 241.92 299.52 241.92 292.32 250.56 285.12 259.2"/><polygon class="cls-8" points="285.12 557.28 277.92 548.64 270.72 540 285.12 540 299.52 540 292.32 548.64 285.12 557.28"/></g><g id="field"><rect class="cls-5" x="256.32" y="165.6" width="57.6" height="4.32"/><rect class="cls-5" x="256.32" y="154.08" width="57.6" height="4.32"/><circle class="cls-4" cx="285.12" cy="69.12" r="2.88"/><rect class="cls-5" x="163.44" y="365.04" width="57.6" height="4.32" transform="translate(559.44 174.96) rotate(90)"/><rect class="cls-5" x="174.96" y="365.04" width="57.6" height="4.32" transform="translate(570.96 163.44) rotate(90)"/><circle class="cls-4" cx="285.12" cy="367.2" r="2.88"/></g><g id="TEXT"><text class="cls-6" transform="translate(138.67 187.2)"><tspan x="0" y="0">Low-pass</tspan></text><text class="cls-6" transform="translate(312.32 144)"><tspan x="0" y="0">C</tspan></text><text class="cls-6" transform="translate(324.03 149.99) scale(.58)"><tspan x="0" y="0">1</tspan></text><text class="cls-6" transform="translate(187.2 46.08)"><tspan x="0" y="0">R</tspan></text><text class="cls-6" transform="translate(198.28 52.07) scale(.58)"><tspan x="0" y="0">1</tspan></text><text class="cls-2" transform="translate(345.68 51.84)"><tspan class="cls-17" x="0" y="0">V</tspan><tspan class="cls-19" x="11.45" y="0">OU</tspan><tspan class="cls-20" x="27.48" y="0">T</tspan></text><text class="cls-6" transform="translate(296.64 277.92)"><tspan x="0" y="0">GND</tspan></text><text class="cls-2" transform="translate(51.61 50.4)"><tspan class="cls-17" x="0" y="0">V</tspan><tspan class="cls-19" x="11.45" y="0">IN</tspan></text><text class="cls-6" transform="translate(136.81 492.48)"><tspan x="0" y="0">High-pass</tspan></text><text class="cls-6" transform="translate(212.96 404.64)"><tspan x="0" y="0">C</tspan></text><text class="cls-6" transform="translate(224.67 410.63) scale(.58)"><tspan x="0" y="0">1</tspan></text><text class="cls-6" transform="translate(311.04 478.08)"><tspan x="0" y="0">R</tspan></text><text class="cls-6" transform="translate(322.12 484.07) scale(.58)"><tspan x="0" y="0">1</tspan></text><text class="cls-6" transform="translate(296.64 577.44)"><tspan x="0" y="0">GND</tspan></text><text class="cls-2" transform="translate(51.61 348.48)"><tspan class="cls-17" x="0" y="0">V</tspan><tspan class="cls-19" x="11.45" y="0">IN</tspan></text><text class="cls-2" transform="translate(344.24 349.92)"><tspan class="cls-17" x="0" y="0">V</tspan><tspan class="cls-19" x="11.45" y="0">OU</tspan><tspan class="cls-20" x="27.48" y="0">T</tspan></text><text class="cls-6" transform="translate(671.28 168.48) rotate(-90)"><tspan x="0" y="0">Gain</tspan></text><text class="cls-6" transform="translate(810.96 266.4)"><tspan class="cls-16" x="0" y="0">F</tspan><tspan class="cls-1" x="9.72" y="0">r</tspan><tspan x="15.64" y="0">equency</tspan></text><text class="cls-6" transform="translate(511.91 325.44)"><tspan x="0" y="0">2</tspan></text><text class="cls-6" transform="translate(540.7 302.4)"><tspan x="0" y="0">1</tspan></text><text class="cls-6" transform="translate(449.94 315.36)"><tspan x="0" y="0">f</tspan></text><text class="cls-6" transform="translate(456.19 321.35) scale(.58)"><tspan x="0" y="0">C</tspan></text><text class="cls-6" transform="translate(524.56 325.44)"><tspan x="0" y="0">π</tspan></text><text class="cls-6" transform="translate(538.71 325.44)"><tspan x="0" y="0">R</tspan></text><text class="cls-6" transform="translate(549.8 331.43) scale(.58)"><tspan x="0" y="0">1</tspan></text><text class="cls-6" transform="translate(558.55 325.44)"><tspan x="0" y="0">C</tspan></text><text class="cls-6" transform="translate(570.27 331.43) scale(.58)"><tspan x="0" y="0">1</tspan></text><text class="cls-6" transform="translate(737.52 79.2)"><tspan class="cls-15" x="0" y="0">P</tspan><tspan x="11.26" y="0">ass Band</tspan></text><text class="cls-6" transform="translate(907.44 79.2)"><tspan x="0" y="0">S</tspan><tspan class="cls-18" x="10.68" y="0">t</tspan><tspan x="16.38" y="0">op Band</tspan></text><text class="cls-6" transform="translate(801.35 46.08)"><tspan x="0" y="0">Cu</tspan><tspan class="cls-18" x="21.64" y="0">t</tspan><tspan x="27.34" y="0">off </tspan><tspan class="cls-16" x="54.56" y="0">F</tspan><tspan class="cls-1" x="64.28" y="0">r</tspan><tspan x="70.21" y="0">equency</tspan></text><text class="cls-6" transform="translate(671.28 486.72) rotate(-90)"><tspan x="0" y="0">Gain</tspan></text><text class="cls-6" transform="translate(810.96 584.64)"><tspan class="cls-16" x="0" y="0">F</tspan><tspan class="cls-1" x="9.72" y="0">r</tspan><tspan x="15.64" y="0">equency</tspan></text><text class="cls-6" transform="translate(889.92 396)"><tspan class="cls-15" x="0" y="0">P</tspan><tspan x="11.26" y="0">ass Band</tspan></text><text class="cls-6" transform="translate(715.68 396)"><tspan x="0" y="0">S</tspan><tspan class="cls-18" x="10.68" y="0">t</tspan><tspan x="16.38" y="0">op Band</tspan></text><text class="cls-6" transform="translate(763.91 362.88)"><tspan x="0" y="0">Cu</tspan><tspan class="cls-18" x="21.64" y="0">t</tspan><tspan x="27.34" y="0">off </tspan><tspan class="cls-16" x="54.56" y="0">F</tspan><tspan class="cls-1" x="64.28" y="0">r</tspan><tspan x="70.21" y="0">equency</tspan></text><text class="cls-6" transform="translate(477.66 313.07)"><tspan x="0" y="0">=</tspan></text></g></svg>