<?xml version="1.0" encoding="UTF-8"?>
<svg xmlns="http://www.w3.org/2000/svg" xmlns:xlink="http://www.w3.org/1999/xlink" viewBox="0 0 1080 600.48">
  <defs>
    <style>
      .cls-1 {
        stroke-width: 2.33px;
      }

      .cls-1, .cls-2, .cls-3, .cls-4, .cls-5, .cls-6, .cls-7, .cls-8, .cls-9, .cls-10, .cls-11, .cls-12, .cls-13, .cls-14, .cls-15, .cls-16, .cls-17, .cls-18, .cls-19, .cls-20, .cls-21, .cls-22, .cls-23, .cls-24, .cls-25, .cls-26, .cls-27, .cls-28, .cls-29 {
        stroke: #c9d1d9;
        stroke-miterlimit: 10;
      }

      .cls-1, .cls-2, .cls-3, .cls-4, .cls-5, .cls-6, .cls-7, .cls-8, .cls-9, .cls-10, .cls-11, .cls-12, .cls-13, .cls-14, .cls-15, .cls-16, .cls-17, .cls-18, .cls-19, .cls-20, .cls-22, .cls-23, .cls-24, .cls-25, .cls-26, .cls-27, .cls-28 {
        fill: none;
      }

      .cls-2 {
        stroke-width: .52px;
      }

      .cls-3 {
        stroke-width: .52px;
      }

      .cls-4 {
        stroke-width: 1.65px;
      }

      .cls-5 {
        stroke-width: .82px;
      }

      .cls-30, .cls-21, .cls-31, .cls-29 {
        fill: #c9d1d9;
      }

      .cls-6 {
        stroke-width: .43px;
      }

      .cls-7 {
        stroke-width: 1.27px;
      }

      .cls-8 {
        stroke-width: .48px;
      }

      .cls-9 {
        stroke-width: .24px;
      }

      .cls-10 {
        stroke-width: .72px;
      }

      .cls-11 {
        stroke-width: 1.42px;
      }

      .cls-12 {
        stroke-width: .35px;
      }

      .cls-13 {
        stroke-width: .75px;
      }

      .cls-14 {
        stroke-width: .75px;
      }

      .cls-15 {
        stroke-width: 1.48px;
      }

      .cls-16 {
        stroke-width: 1.37px;
      }

      .cls-17, .cls-29 {
        stroke-width: .37px;
      }

      .cls-18 {
        stroke-width: 1.05px;
      }

      .cls-19 {
        stroke-width: 1.21px;
      }

      .cls-32 {
        letter-spacing: 0em;
      }

      .cls-20 {
        stroke-width: 2px;
      }

      .cls-21 {
        stroke-width: .85px;
      }

      .cls-33, .cls-29 {
        opacity: .2;
      }

      .cls-34 {
        opacity: .4;
      }

      .cls-22 {
        stroke-width: 1.21px;
      }

      .cls-23 {
        stroke-width: 1.19px;
      }

      .cls-35 {
        fill: url(#Unbenannter_Verlauf_5);
      }

      .cls-31 {
        font-family: Roboto-Regular, Roboto;
        font-size: 18px;
      }

      .cls-24 {
        stroke-width: .17px;
      }

      .cls-25 {
        stroke-width: 1.87px;
      }

      .cls-36 {
        letter-spacing: 0em;
      }

      .cls-26 {
        stroke-width: .25px;
      }

      .cls-27 {
        stroke-width: 1px;
      }

      .cls-28 {
        stroke-width: 1px;
      }
    </style>
    <linearGradient id="Unbenannter_Verlauf_5" data-name="Unbenannter Verlauf 5" x1="103.23" y1="211.11" x2="103.23" y2="74.88" gradientUnits="userSpaceOnUse">
      <stop offset="0" stop-color="#c9d1d9" stop-opacity="0"/>
      <stop offset=".29" stop-color="#c9d1d9" stop-opacity=".54"/>
      <stop offset=".53" stop-color="#c9d1d9"/>
      <stop offset="1" stop-color="#c9d1d9" stop-opacity="0"/>
    </linearGradient>
  </defs>
  <g id="Ebene_1" data-name="Ebene 1">
    <rect class="cls-22" x="69.12" y="489.6" width="430.56" height="43.2" rx="3.8" ry="3.8"/>
    <circle class="cls-25" cx="462.24" cy="132.48" r="31.68"/>
    <circle class="cls-15" cx="462.24" cy="132.48" r="25.08"/>
    <rect class="cls-9" x="437.76" y="129.6" width="48.96" height="5.76" transform="translate(229.06 -288.05) rotate(45)"/>
    <line class="cls-26" x1="529.92" y1="106.56" x2="394.56" y2="106.56"/>
    <line class="cls-26" x1="394.56" y1="158.4" x2="529.92" y2="158.4"/>
    <rect class="cls-18" x="79.74" y="74.88" width="46.98" height="136.23" rx="2.23" ry="2.23"/>
    <rect class="cls-19" x="123.84" y="172.8" width="2.88" height="110.88"/>
    <rect class="cls-20" x="135.62" y="120.96" width="5.5" height="51.84"/>
    <rect class="cls-1" x="126.72" y="74.88" width="7.2" height="165.6"/>
    <g>
      <polygon class="cls-5" points="151.2 172.8 146.88 120.96 149.76 120.96 154.08 172.8 151.2 172.8"/>
      <polygon class="cls-5" points="148.32 172.8 144 120.96 146.88 120.96 151.2 172.8 148.32 172.8"/>
      <polygon class="cls-5" points="156.96 172.8 152.64 120.96 155.52 120.96 159.84 172.8 156.96 172.8"/>
      <polygon class="cls-5" points="169.92 120.96 172.8 120.96 172.8 155.52 169.92 120.96"/>
      <polygon class="cls-5" points="145.44 172.8 141.12 120.96 144 120.96 148.32 172.8 145.44 172.8"/>
      <polygon class="cls-5" points="135.36 172.8 135.36 120.96 141.12 120.96 145.44 172.8 135.36 172.8"/>
      <polygon class="cls-5" points="154.08 172.8 149.76 120.96 152.64 120.96 156.96 172.8 154.08 172.8"/>
      <polygon class="cls-5" points="168.48 172.8 164.16 120.96 167.04 120.96 171.36 172.8 168.48 172.8"/>
      <polygon class="cls-5" points="159.84 172.8 155.52 120.96 158.4 120.96 162.72 172.8 159.84 172.8"/>
      <polygon class="cls-5" points="172.8 172.8 171.36 172.8 167.04 120.96 169.92 120.96 172.8 155.52 172.8 172.8"/>
      <polygon class="cls-5" points="165.6 172.8 161.28 120.96 164.16 120.96 168.48 172.8 165.6 172.8"/>
      <polygon class="cls-5" points="162.72 172.8 158.4 120.96 161.28 120.96 165.6 172.8 162.72 172.8"/>
    </g>
    <polygon class="cls-16" points="292.32 142.56 292.32 123.84 174.24 123.84 174.24 169.92 292.32 169.92 292.32 151.2 227.52 151.2 227.52 142.56 292.32 142.56"/>
    <line class="cls-26" x1="292.32" y1="126.72" x2="174.24" y2="126.72"/>
    <line class="cls-26" x1="292.32" y1="129.6" x2="174.24" y2="129.6"/>
    <line class="cls-26" x1="292.32" y1="132.48" x2="174.24" y2="132.48"/>
    <line class="cls-26" x1="292.32" y1="135.36" x2="174.24" y2="135.36"/>
    <line class="cls-26" x1="292.32" y1="135.36" x2="174.24" y2="135.36"/>
    <line class="cls-26" x1="292.32" y1="138.24" x2="174.24" y2="138.24"/>
    <line class="cls-26" x1="292.32" y1="141.12" x2="174.24" y2="141.12"/>
    <line class="cls-26" x1="292.32" y1="142.56" x2="174.24" y2="142.56"/>
    <line class="cls-26" x1="292.32" y1="142.56" x2="174.24" y2="142.56"/>
    <line class="cls-24" x1="227.52" y1="144" x2="174.24" y2="144"/>
    <line class="cls-24" x1="227.52" y1="145.44" x2="174.24" y2="145.44"/>
    <line class="cls-24" x1="227.52" y1="146.88" x2="174.24" y2="146.88"/>
    <line class="cls-24" x1="227.52" y1="148.32" x2="174.24" y2="148.32"/>
    <line class="cls-24" x1="227.52" y1="149.76" x2="174.24" y2="149.76"/>
    <line class="cls-24" x1="227.52" y1="149.76" x2="174.24" y2="149.76"/>
    <line class="cls-26" x1="292.32" y1="151.2" x2="174.24" y2="151.2"/>
    <line class="cls-26" x1="292.32" y1="152.64" x2="174.24" y2="152.64"/>
    <line class="cls-26" x1="292.32" y1="155.52" x2="174.24" y2="155.52"/>
    <line class="cls-26" x1="292.32" y1="158.4" x2="174.24" y2="158.4"/>
    <line class="cls-26" x1="292.32" y1="161.28" x2="174.24" y2="161.28"/>
    <line class="cls-26" x1="292.32" y1="164.16" x2="174.24" y2="164.16"/>
    <line class="cls-26" x1="292.32" y1="164.16" x2="174.24" y2="164.16"/>
    <line class="cls-26" x1="292.32" y1="167.04" x2="174.24" y2="167.04"/>
    <line class="cls-26" x1="292.32" y1="169.92" x2="174.24" y2="169.92"/>
    <rect class="cls-3" x="74.99" y="428.76" width="1.96" height="30.6"/>
    <g class="cls-33">
      <polygon class="cls-21" points="92.61 411.55 92.61 411.58 92.61 428.76 123.92 428.76 123.92 411.58 123.92 411.55 92.61 411.55"/>
      <polygon class="cls-21" points="84.78 411.58 84.78 411.55 70.56 411.55 70.56 428.76 84.78 428.76 84.78 411.58"/>
      <polygon class="cls-21" points="386.17 411.55 386.17 411.58 386.17 428.76 437.05 428.76 437.05 411.58 437.05 411.55 386.17 411.55"/>
      <polygon class="cls-21" points="131.75 411.55 131.75 411.58 131.75 428.76 163.06 428.76 163.06 411.55 131.75 411.55"/>
      <polygon class="cls-21" points="444.88 411.58 444.88 428.76 498.24 428.76 498.24 411.55 444.88 411.55 444.88 411.58"/>
      <rect class="cls-21" x="170.89" y="411.55" width="148.74" height="17.21"/>
      <polygon class="cls-21" points="378.34 411.58 378.34 411.55 327.46 411.55 327.46 428.76 378.34 428.76 378.34 411.58"/>
    </g>
    <polygon class="cls-12" points="484.02 428.76 482.07 428.76 482.07 459.36 484.02 459.36 484.02 430.67 498.24 430.67 498.24 428.76 484.02 428.76"/>
    <polygon class="cls-29" points="456.62 372.35 456.62 339.84 425.31 339.84 425.31 372.35 421.4 372.35 421.4 389.56 460.54 389.56 460.54 372.35 456.62 372.35"/>
    <rect class="cls-22" x="69.12" y="489.6" width="430.56" height="43.2" rx="3.8" ry="3.8"/>
    <circle class="cls-14" cx="76.32" cy="511.2" r="4.32"/>
    <circle class="cls-14" cx="492.48" cy="511.2" r="4.32"/>
    <rect class="cls-13" x="83.52" y="506.88" width="401.76" height="8.64" rx="2.83" ry="2.83"/>
    <rect class="cls-2" x="416.16" y="508.32" width="38.88" height="5.76"/>
    <rect class="cls-8" x="478.08" y="429.12" width="1.96" height="26.28"/>
    <g class="cls-34">
      <rect class="cls-35" x="79.74" y="74.88" width="46.98" height="136.23" rx="2.23" ry="2.23"/>
      <rect class="cls-18" x="79.74" y="74.88" width="46.98" height="136.23" rx="2.23" ry="2.23"/>
    </g>
    <polygon class="cls-17" points="456.62 372.35 456.62 339.84 425.31 339.84 425.31 372.35 421.4 372.35 421.4 389.56 460.54 389.56 460.54 372.35 456.62 372.35"/>
    <rect class="cls-3" x="74.99" y="428.76" width="1.96" height="30.6"/>
    <polygon class="cls-6" points="499.68 390.24 69.12 390.24 69.12 411.55 84.78 411.55 84.78 411.58 84.78 429.12 92.61 429.12 92.61 411.58 92.61 411.55 123.92 411.55 123.92 411.58 123.92 429.12 131.75 429.12 131.75 411.58 131.75 411.55 163.06 411.55 163.06 428.76 170.89 428.76 170.89 411.55 319.63 411.55 319.63 428.76 327.46 428.76 327.46 411.55 378.34 411.55 378.34 411.58 378.34 429.12 386.17 429.12 386.17 411.58 386.17 411.55 437.05 411.55 437.05 411.58 437.05 429.12 444.88 429.12 444.88 411.58 444.88 411.55 499.68 411.55 499.68 390.24"/>
    <polygon class="cls-12" points="484.02 428.76 482.07 428.76 482.07 459.36 484.02 459.36 484.02 430.67 498.24 430.67 498.24 428.76 484.02 428.76"/>
    <rect class="cls-8" x="478.08" y="429.12" width="1.96" height="26.28"/>
    <line class="cls-11" x1="74.88" y1="429.48" x2="70.56" y2="429.48"/>
    <line class="cls-10" x1="70.56" y1="411.84" x2="70.56" y2="429.48"/>
    <line class="cls-11" x1="84.6" y1="429.48" x2="77.04" y2="429.48"/>
    <line class="cls-11" x1="123.84" y1="429.48" x2="92.88" y2="429.48"/>
    <line class="cls-11" x1="163.08" y1="429.48" x2="131.76" y2="429.48"/>
    <line class="cls-11" x1="319.68" y1="429.48" x2="171" y2="429.12"/>
    <line class="cls-11" x1="378.36" y1="429.12" x2="327.24" y2="429.12"/>
    <line class="cls-11" x1="437.04" y1="429.12" x2="386.28" y2="429.12"/>
    <line class="cls-11" x1="499.32" y1="429.12" x2="444.96" y2="429.12"/>
    <line class="cls-11" x1="498.6" y1="428.76" x2="498.6" y2="411.48"/>
  </g>
  <g id="TEXT">
    <text class="cls-31" transform="translate(815.14 286.56)"><tspan x="0" y="0">2</tspan></text>
    <text class="cls-31" transform="translate(764.74 286.56)"><tspan x="0" y="0">1</tspan></text>
    <text class="cls-31" transform="translate(865.55 286.56)"><tspan x="0" y="0">3</tspan></text>
    <text class="cls-31" transform="translate(457.19 296.64)"><tspan x="0" y="0">2</tspan></text>
    <text class="cls-31" transform="translate(406.79 296.64)"><tspan x="0" y="0">1</tspan></text>
    <text class="cls-31" transform="translate(507.59 296.64)"><tspan x="0" y="0">3</tspan></text>
    <text class="cls-31" transform="translate(76.79 53.28)"><tspan x="0" y="0">Rota</tspan><tspan class="cls-32" x="37.02" y="0">r</tspan><tspan x="43.27" y="0">y </tspan><tspan class="cls-36" x="56.24" y="0">P</tspan><tspan x="67.48" y="0">otentiometer</tspan></text>
    <text class="cls-31" transform="translate(470.15 475.2)"><tspan x="0" y="0">2</tspan></text>
    <text class="cls-31" transform="translate(77.03 475.2)"><tspan x="0" y="0">1</tspan></text>
    <text class="cls-31" transform="translate(483.11 475.2)"><tspan x="0" y="0">3</tspan></text>
    <text class="cls-31" transform="translate(105.49 371.52)"><tspan x="0" y="0">Slide </tspan><tspan class="cls-36" x="43.56" y="0">P</tspan><tspan x="54.8" y="0">otentiometer</tspan></text>
    <text class="cls-31" transform="translate(628.55 499.04)"><tspan x="0" y="0">1</tspan></text>
    <text class="cls-31" transform="translate(764.74 406.63)"><tspan x="0" y="0">2</tspan></text>
    <text class="cls-31" transform="translate(998.63 504.8)"><tspan x="0" y="0">3</tspan></text>
    <text class="cls-31" transform="translate(29.44 231.05)"><tspan x="0" y="0">a)</tspan></text>
    <text class="cls-31" transform="translate(61.1 377.28)"><tspan x="0" y="0">a)</tspan></text>
    <text class="cls-31" transform="translate(382.06 282.33)"><tspan x="0" y="0">b)</tspan></text>
    <text class="cls-31" transform="translate(529.68 439.17)"><tspan x="0" y="0">b)</tspan></text>
    <text class="cls-31" transform="translate(297.49 221.76)"><tspan x="0" y="0">c)</tspan></text>
    <text class="cls-31" transform="translate(378.33 353.17)"><tspan x="0" y="0">c)</tspan></text>
    <text class="cls-31" transform="translate(914.19 459.36)"><tspan x="0" y="0">d)</tspan></text>
    <text class="cls-31" transform="translate(919.27 239.04)"><tspan x="0" y="0">d)</tspan></text>
    <text class="cls-31" transform="translate(788.42 436.32)"><tspan x="0" y="0">e)</tspan></text>
    <text class="cls-31" transform="translate(786.02 226.08)"><tspan x="0" y="0">e)</tspan></text>
    <text class="cls-31" transform="translate(109.69 467.56)"><tspan x="0" y="0">b)</tspan></text>
    <text class="cls-31" transform="translate(155.98 263.16)"><tspan x="0" y="0">b)</tspan></text>
  </g>
  <g id="line">
    <g>
      <line class="cls-28" x1="773.38" y1="182.18" x2="816.48" y2="149.76"/>
      <polygon class="cls-30" points="777.54 185.29 767.64 186.49 771.54 177.31 777.54 185.29"/>
    </g>
    <polyline class="cls-28" points="763.24 203.74 767.57 191.74 755.03 194.14 761.17 182.95 748.42 183.37 756.24 173.28 743.57 171.69 752.88 162.96 740.63 159.39 751.2 152.23 739.65 146.79 751.2 141.35 740.63 134.19 752.88 130.62 743.57 121.89 756.24 120.3 748.42 110.21 761.17 110.63 755.03 99.44 767.57 101.84 763.24 89.83 775.25 94.16 772.85 81.62 784.04 87.76 783.62 75.01 793.71 82.83 795.3 70.16 804.03 79.48 807.6 67.22 814.76 77.79 820.2 66.24 825.64 77.79 832.8 67.22 836.37 79.48 845.1 70.16 846.69 82.83 856.78 75.01 856.36 87.77 867.55 81.62 865.15 94.16 877.16 89.83 872.83 101.84 885.37 99.44 879.22 110.63 891.98 110.21 884.16 120.3 896.82 121.89 887.51 130.62 899.77 134.19 889.2 141.35 900.75 146.79 889.2 152.23 899.77 159.39 887.51 162.96 896.82 171.69 884.16 173.28 891.98 183.37 879.22 182.95 885.37 194.14 872.83 191.74 877.15 203.75"/>
    <line class="cls-28" x1="771.24" y1="202.95" x2="771.24" y2="261.99"/>
    <line class="cls-28" x1="820.2" y1="151.11" x2="820.2" y2="261.99"/>
    <line class="cls-28" x1="870.6" y1="202.95" x2="870.6" y2="261.99"/>
    <line class="cls-28" x1="771.24" y1="202.95" x2="764.04" y2="202.95"/>
    <line class="cls-28" x1="870.6" y1="202.95" x2="877.8" y2="202.95"/>
    <path class="cls-28" d="m793.72,173.67c-14.62-14.62-14.62-38.33,0-52.95,14.62-14.62,38.33-14.62,52.95,0s14.62,38.33,0,52.95"/>
    <polyline class="cls-28" points="697.32 494.72 703.47 506.09 714.3 486.08 725.13 506.09 735.96 486.08 746.78 506.09 757.61 486.08 768.44 506.09 779.27 486.08 790.1 506.09 800.93 486.08 811.76 506.09 822.59 486.08 833.42 506.09 844.25 486.08 855.09 506.09 865.92 486.08 876.75 506.09 887.58 486.08 898.41 506.09 909.25 486.08 920.08 506.09 930.92 486.08 935.6 494.72"/>
    <line class="cls-28" x1="697.32" y1="494.72" x2="645.12" y2="494.72"/>
    <line class="cls-28" x1="935.6" y1="494.72" x2="990.72" y2="494.72"/>
    <g>
      <line class="cls-28" x1="758.76" y1="472.34" x2="758.76" y2="411.84"/>
      <polygon class="cls-30" points="763.75 470.88 758.76 479.52 753.77 470.88 763.75 470.88"/>
    </g>
    <line class="cls-28" x1="258.43" y1="158.4" x2="299.11" y2="204.48"/>
    <line class="cls-28" x1="88.69" y1="191.52" x2="47.43" y2="221.01"/>
    <line class="cls-28" x1="79.74" y1="377.28" x2="146.81" y2="400.89"/>
    <line class="cls-28" x1="398.44" y1="348.31" x2="440.97" y2="364.7"/>
    <line class="cls-28" x1="880.13" y1="196.48" x2="917.35" y2="229.05"/>
    <line class="cls-28" x1="874.53" y1="493.36" x2="914.81" y2="457.84"/>
    <line class="cls-28" x1="790.16" y1="212.76" x2="782.76" y2="180.94"/>
    <line class="cls-28" x1="789.84" y1="436.32" x2="763.2" y2="450.23"/>
    <line class="cls-28" x1="79.36" y1="448.96" x2="108.22" y2="461.96"/>
    <line class="cls-28" x1="488.16" y1="445.47" x2="522.93" y2="436.32"/>
    <circle class="cls-4" cx="820.2" cy="146.79" r="4.32"/>
    <path class="cls-23" d="m534.24,132.48c0-39.76-32.24-72-72-72s-72,32.24-72,72c0,16.21,5.36,31.17,14.4,43.2v50.4h115.2v-50.4c9.04-12.03,14.4-26.99,14.4-43.2Z"/>
    <rect class="cls-7" x="413.28" y="226.08" width="11.52" height="43.2"/>
    <rect class="cls-7" x="456.48" y="226.08" width="11.52" height="43.2"/>
    <rect class="cls-7" x="499.68" y="226.08" width="11.52" height="43.2"/>
    <circle class="cls-26" cx="462.24" cy="132.48" r="72"/>
    <line class="cls-27" x1="401.61" y1="272.29" x2="421.4" y2="261.19"/>
    <line class="cls-27" x1="125.64" y1="269.28" x2="155.16" y2="258.12"/>
  </g>
</svg>