<?xml version="1.0" encoding="UTF-8"?><svg xmlns="http://www.w3.org/2000/svg" viewBox="0 0 1080 600.48"><defs><style>.cls-1{stroke-width:3px;}.cls-1,.cls-2,.cls-3,.cls-4{fill:none;stroke:#cad2d9;stroke-miterlimit:10;}.cls-5,.cls-6{fill:#cad2d9;}.cls-2{stroke-width:2px;}.cls-6{font-family:Roboto-Regular, Roboto;font-size:18px;}.cls-4{stroke-width:1px;}</style></defs><g id="TEXT"><text class="cls-6" transform="translate(193.23 480.96)"><tspan x="0" y="0">GND</tspan></text><text class="cls-6" transform="translate(190.48 99.36)"><tspan x="0" y="0">V</tspan></text><text class="cls-6" transform="translate(201.94 105.35) scale(.58)"><tspan x="0" y="0">CC</tspan></text><text class="cls-6" transform="translate(694.48 99.36)"><tspan x="0" y="0">V</tspan></text><text class="cls-6" transform="translate(705.94 105.35) scale(.58)"><tspan x="0" y="0">CC</tspan></text><text class="cls-6" transform="translate(697.23 480.96)"><tspan x="0" y="0">GND</tspan></text><text class="cls-6" transform="translate(156.82 56.16)"><tspan x="0" y="0">Pull-up</tspan></text><text class="cls-6" transform="translate(648.89 56.16)"><tspan x="0" y="0">Pull-down</tspan></text><text class="cls-6" transform="translate(324.32 207.36)"><tspan x="0" y="0">Logic Gate</tspan></text><text class="cls-6" transform="translate(828.32 207.36)"><tspan x="0" y="0">Logic Gate</tspan></text><text class="cls-6" transform="translate(704.38 361.44)"><tspan x="0" y="0">R</tspan></text><text class="cls-6" transform="translate(201.82 207.36)"><tspan x="0" y="0">R</tspan></text><text class="cls-6" transform="translate(153.06 374.4)"><tspan x="0" y="0">S</tspan></text><text class="cls-6" transform="translate(708.9 190.08)"><tspan x="0" y="0">S</tspan></text><text class="cls-6" transform="translate(256.12 279.36)"><tspan x="0" y="0">Input</tspan></text><text class="cls-6" transform="translate(760.12 279.36)"><tspan x="0" y="0">Input</tspan></text></g><g id="LINE"><g><line class="cls-3" x1="688.32" y1="156.96" x2="688.32" y2="100.72"/><polygon class="cls-5" points="693.09 109.59 691.68 110.1 688.32 100.86 684.96 110.1 683.55 109.59 688.32 96.48 693.09 109.59"/></g><line class="cls-3" x1="184.32" y1="259.2" x2="313.92" y2="259.2"/><g><line class="cls-3" x1="184.32" y1="158.4" x2="184.32" y2="100.72"/><polygon class="cls-5" points="189.09 109.59 187.68 110.1 184.32 100.87 180.96 110.1 179.55 109.59 184.32 96.48 189.09 109.59"/></g><rect class="cls-2" x="148.32" y="182.88" width="72" height="23.04" transform="translate(-10.08 378.72) rotate(-90)"/><rect class="cls-2" x="652.32" y="349.92" width="72" height="23.04" transform="translate(326.88 1049.76) rotate(-90)"/><line class="cls-3" x1="688.32" y1="456.48" x2="688.32" y2="397.44"/><line class="cls-3" x1="184.32" y1="259.2" x2="313.92" y2="259.2"/><g><line class="cls-3" x1="184.32" y1="158.4" x2="184.32" y2="100.72"/><polygon class="cls-5" points="189.09 109.59 187.68 110.1 184.32 100.87 180.96 110.1 179.55 109.59 184.32 96.48 189.09 109.59"/></g><rect class="cls-2" x="148.32" y="182.88" width="72" height="23.04" transform="translate(-10.08 378.72) rotate(-90)"/><rect class="cls-2" x="652.32" y="349.92" width="72" height="23.04" transform="translate(326.88 1049.76) rotate(-90)"/><line class="cls-3" x1="688.32" y1="456.48" x2="688.32" y2="397.44"/><rect class="cls-1" x="313.92" y="187.2" width="100.8" height="144"/><line class="cls-3" x1="688.32" y1="259.2" x2="817.92" y2="259.2"/><line class="cls-3" x1="688.32" y1="259.2" x2="817.92" y2="259.2"/><rect class="cls-1" x="817.92" y="187.2" width="100.8" height="144"/><polygon class="cls-4" points="688.32 456.48 702.72 456.48 695.52 465.12 688.32 473.76 681.12 465.12 673.92 456.48 688.32 456.48"/><polygon class="cls-4" points="184.32 456.48 198.72 456.48 191.52 465.12 184.32 473.76 177.12 465.12 169.92 456.48 184.32 456.48"/><line class="cls-4" x1="688.32" y1="230.4" x2="688.32" y2="325.44"/><circle class="cls-4" cx="688.32" cy="227.52" r="2.88"/><circle class="cls-4" cx="688.32" cy="159.84" r="2.88"/><line class="cls-3" x1="717.12" y1="227.52" x2="689.76" y2="162.72"/><line class="cls-4" x1="184.32" y1="316.8" x2="184.32" y2="230.4"/><circle class="cls-4" cx="184.32" cy="319.68" r="2.88"/><circle class="cls-4" cx="184.32" cy="387.36" r="2.88"/><line class="cls-3" x1="155.52" y1="319.68" x2="182.88" y2="384.48"/><line class="cls-3" x1="184.32" y1="390.24" x2="184.32" y2="456.48"/></g><g id="Field"><circle class="cls-5" cx="184.32" cy="259.2" r="2.88"/><circle class="cls-5" cx="688.32" cy="259.2" r="2.88"/></g></svg>