<?xml version="1.0" encoding="UTF-8"?><svg xmlns="http://www.w3.org/2000/svg" viewBox="0 0 1080 600.48"><defs><style>.cls-1{letter-spacing:0em;}.cls-2{stroke-width:.27px;}.cls-2,.cls-3,.cls-4,.cls-5,.cls-6,.cls-7,.cls-8,.cls-9,.cls-10,.cls-11,.cls-12,.cls-13,.cls-14,.cls-15,.cls-16,.cls-17,.cls-18,.cls-19,.cls-20,.cls-21,.cls-22,.cls-23,.cls-24,.cls-25{fill:none;stroke-miterlimit:10;}.cls-2,.cls-3,.cls-4,.cls-5,.cls-7,.cls-8,.cls-9,.cls-10,.cls-11,.cls-12,.cls-14,.cls-15,.cls-16,.cls-17,.cls-18,.cls-19,.cls-20,.cls-21,.cls-22,.cls-23,.cls-24,.cls-25{stroke:#1d1e1b;}.cls-3{opacity:.99;}.cls-3,.cls-7{stroke-width:3.4px;}.cls-26{letter-spacing:0em;}.cls-4{stroke-width:.85px;}.cls-27,.cls-28{fill:#1d1e1b;}.cls-5,.cls-6{stroke-width:2.55px;}.cls-6,.cls-13{stroke:#009fe3;}.cls-8,.cls-19,.cls-20{stroke-width:.75px;}.cls-9{stroke-dasharray:0 0 2.02 5.04;}.cls-10{stroke-width:1.02px;}.cls-11{stroke-width:1.04px;}.cls-12,.cls-13{stroke-width:2px;}.cls-29{letter-spacing:-.03em;}.cls-15{stroke-width:1.12px;}.cls-16{stroke-width:1.12px;}.cls-17{stroke-width:1.22px;}.cls-18{stroke-width:1.22px;}.cls-19{stroke-dasharray:0 0 1.94 4.85;}.cls-30{letter-spacing:-.02em;}.cls-28{font-family:Roboto-Regular, Roboto;font-size:18px;}.cls-20{stroke-dasharray:0 0 1.94 4.84;}.cls-31{letter-spacing:-.02em;}.cls-32{letter-spacing:-.02em;}.cls-21{stroke-dasharray:0 0 1.99 4.99;}.cls-33{letter-spacing:0em;}.cls-22{stroke-width:.99px;}.cls-23{stroke-width:.99px;}.cls-24{stroke-width:1px;}.cls-25{stroke-dasharray:0 0 2.06 5.15;}</style></defs><g id="Ebene_1"><line class="cls-24" x1="246.24" y1="466.56" x2="246.24" y2="449.28"/><line class="cls-24" x1="707.04" y1="466.56" x2="707.04" y2="449.28"/><line class="cls-3" x1="246.24" y1="449.4" x2="246.24" y2="175.8"/><line class="cls-2" x1="145.68" y1="449.28" x2="808.08" y2="449.28"/><line class="cls-7" x1="477.12" y1="449.4" x2="477.12" y2="175.8"/><line class="cls-7" x1="246.48" y1="449.28" x2="145.68" y2="449.28"/><line class="cls-7" x1="476.64" y1="175.68" x2="246.24" y2="175.68"/><g><line class="cls-14" x1="521.28" y1="316.8" x2="521.27" y2="317.8"/><line class="cls-21" x1="521.21" y1="322.78" x2="519.88" y2="445.91"/><line class="cls-14" x1="519.85" y1="448.4" x2="519.84" y2="449.4"/></g><g><line class="cls-14" x1="289.44" y1="316.8" x2="289.44" y2="315.8"/><line class="cls-9" x1="289.44" y1="310.76" x2="289.44" y2="179.2"/><line class="cls-14" x1="289.44" y1="176.68" x2="289.44" y2="175.68"/></g><line class="cls-7" x1="707.04" y1="449.4" x2="707.04" y2="175.8"/><line class="cls-7" x1="807.84" y1="175.68" x2="707.04" y2="175.68"/><g><line class="cls-10" x1="255.3" y1="164.16" x2="322.56" y2="164.16"/><polygon class="cls-27" points="257.33 167.13 246.24 164.16 257.33 161.19 257.33 167.13"/></g><g><line class="cls-11" x1="467.43" y1="164.16" x2="400.32" y2="164.16"/><polygon class="cls-27" points="465.37 161.14 476.64 164.16 465.37 167.18 465.37 161.14"/></g><g><line class="cls-17" x1="487.19" y1="164.16" x2="552.96" y2="164.16"/><polygon class="cls-27" points="489.6 167.69 476.42 164.16 489.6 160.63 489.6 167.69"/></g><g><line class="cls-18" x1="696.28" y1="164.16" x2="630.72" y2="164.16"/><polygon class="cls-27" points="693.87 160.63 707.04 164.16 693.87 167.69 693.87 160.63"/></g><g><line class="cls-8" x1="246.24" y1="175.8" x2="246.24" y2="174.8"/><line class="cls-19" x1="246.24" y1="169.95" x2="246.24" y2="84.18"/><line class="cls-8" x1="246.24" y1="81.76" x2="246.24" y2="80.76"/></g><g><line class="cls-8" x1="476.88" y1="175.56" x2="476.88" y2="174.56"/><line class="cls-20" x1="476.88" y1="169.72" x2="476.88" y2="131.46"/><line class="cls-8" x1="476.88" y1="129.04" x2="476.88" y2="128.04"/></g><g><line class="cls-8" x1="707.04" y1="175.8" x2="707.04" y2="174.8"/><line class="cls-19" x1="707.04" y1="169.95" x2="707.04" y2="84.18"/><line class="cls-8" x1="707.04" y1="81.76" x2="707.04" y2="80.76"/></g><g><line class="cls-4" x1="145.44" y1="183.33" x2="145.44" y2="462.24"/><polygon class="cls-27" points="142.97 185.02 145.44 175.8 147.91 185.02 142.97 185.02"/></g><line class="cls-5" x1="707.52" y1="449.4" x2="477.12" y2="449.4"/><g><line class="cls-23" x1="254.97" y1="80.64" x2="420.48" y2="80.64"/><polygon class="cls-27" points="256.93 83.51 246.22 80.64 256.93 77.77 256.93 83.51"/></g><g><line class="cls-16" x1="256.18" y1="128.16" x2="311.04" y2="128.16"/><polygon class="cls-27" points="258.4 131.42 246.24 128.16 258.4 124.9 258.4 131.42"/></g><g><line class="cls-15" x1="466.7" y1="128.16" x2="411.84" y2="128.16"/><polygon class="cls-27" points="464.48 124.9 476.64 128.16 464.48 131.42 464.48 124.9"/></g><g><line class="cls-22" x1="698.31" y1="80.64" x2="534.24" y2="80.64"/><polygon class="cls-27" points="696.35 77.77 707.06 80.64 696.35 83.51 696.35 77.77"/></g><line class="cls-12" x1="793.44" y1="92.16" x2="879.84" y2="92.16"/><g><line class="cls-14" x1="707.04" y1="449.28" x2="707.04" y2="450.28"/><line class="cls-25" x1="707.04" y1="455.43" x2="707.04" y2="503.31"/><line class="cls-14" x1="707.04" y1="505.88" x2="707.04" y2="506.88"/></g><g><line class="cls-18" x1="707.04" y1="517.64" x2="707.04" y2="534.51"/><polygon class="cls-27" points="703.51 520.05 707.04 506.88 710.57 520.05 703.51 520.05"/></g><g><line class="cls-4" x1="911.19" y1="449.28" x2="131.04" y2="449.28"/><polygon class="cls-27" points="909.5 446.81 918.72 449.28 909.5 451.75 909.5 446.81"/></g><g><g><line class="cls-24" x1="266.4" y1="316.8" x2="255.1" y2="316.8"/><polygon class="cls-27" points="257.09 313.89 246.24 316.8 257.09 319.71 257.09 313.89"/></g><g><line class="cls-24" x1="266.4" y1="316.8" x2="280.58" y2="316.8"/><polygon class="cls-27" points="278.59 319.71 289.44 316.8 278.59 313.89 278.59 319.71"/></g></g><g><line class="cls-24" x1="290.88" y1="466.56" x2="255.1" y2="466.56"/><polygon class="cls-27" points="257.09 463.65 246.24 466.56 257.09 469.47 257.09 463.65"/></g><g><line class="cls-24" x1="432" y1="466.56" x2="467.78" y2="466.56"/><polygon class="cls-27" points="465.79 469.47 476.64 466.56 465.79 463.65 465.79 469.47"/></g><g><line class="cls-24" x1="521.21" y1="466.56" x2="485.44" y2="466.56"/><polygon class="cls-27" points="487.42 463.65 476.57 466.56 487.42 469.47 487.42 463.65"/></g><g><line class="cls-24" x1="662.33" y1="466.56" x2="698.11" y2="466.56"/><polygon class="cls-27" points="696.13 469.47 706.97 466.56 696.13 463.65 696.13 469.47"/></g><line class="cls-24" x1="476.64" y1="466.56" x2="476.64" y2="449.28"/><g><g><line class="cls-24" x1="498.24" y1="316.8" x2="486.94" y2="316.8"/><polygon class="cls-27" points="488.93 313.89 478.08 316.8 488.93 319.71 488.93 313.89"/></g><g><line class="cls-24" x1="498.24" y1="316.8" x2="512.42" y2="316.8"/><polygon class="cls-27" points="510.43 319.71 521.28 316.8 510.43 313.89 510.43 319.71"/></g></g></g><g id="BLUE"><line class="cls-13" x1="793.44" y1="120.36" x2="879.84" y2="120.36"/><line class="cls-6" x1="145.68" y1="449.28" x2="246.48" y2="449.28"/><line class="cls-6" x1="246.72" y1="449.4" x2="289.92" y2="175.8"/><line class="cls-6" x1="289.92" y1="175.8" x2="480" y2="175.8"/><line class="cls-6" x1="480" y1="175.8" x2="520.32" y2="449.4"/><line class="cls-6" x1="520.32" y1="449.28" x2="707.52" y2="449.28"/><line class="cls-6" x1="707.52" y1="449.4" x2="750.72" y2="175.8"/><line class="cls-6" x1="808.32" y1="175.8" x2="750.72" y2="175.8"/></g><g id="TEXT"><text class="cls-28" transform="translate(293.76 323.1)"><tspan x="0" y="0">Rise</tspan><tspan class="cls-30" x="34.27" y="0"> </tspan><tspan x="38.37" y="0">Time t</tspan></text><text class="cls-28" transform="translate(382.89 329.09) scale(.58)"><tspan x="0" y="0">R</tspan></text><text class="cls-28" transform="translate(524.16 323.1)"><tspan class="cls-31" x="0" y="0">F</tspan><tspan x="9.65" y="0">all</tspan><tspan class="cls-30" x="28.18" y="0"> </tspan><tspan x="32.28" y="0">Time t</tspan></text><text class="cls-28" transform="translate(607.2 329.09) scale(.58)"><tspan x="0" y="0">F</tspan></text><text class="cls-28" transform="translate(328.5 169.14)"><tspan x="0" y="0">On</tspan><tspan class="cls-30" x="22.31" y="0"> </tspan><tspan x="26.41" y="0">Time</tspan></text><text class="cls-28" transform="translate(557.62 169.14)"><tspan x="0" y="0">Off</tspan><tspan class="cls-30" x="24.87" y="0"> </tspan><tspan x="28.98" y="0">Time</tspan></text><text class="cls-28" transform="translate(423.44 87.06)"><tspan x="0" y="0">One C</tspan><tspan class="cls-33" x="48.01" y="0">y</tspan><tspan x="56.42" y="0">cle (T)</tspan></text><text class="cls-28" transform="translate(314.8 131.58)"><tspan x="0" y="0">Pulse Width</tspan></text><text class="cls-28" transform="translate(105.36 143.22)"><tspan x="0" y="0">Amplitude</tspan></text><text class="cls-28" transform="translate(885.6 125.22)"><tspan x="0" y="0">Actual Shape</tspan></text><text class="cls-28" transform="translate(887.04 97.02)"><tspan x="0" y="0">Ideal Squa</tspan><tspan class="cls-1" x="83.82" y="0">r</tspan><tspan x="89.75" y="0">e </tspan><tspan class="cls-32" x="103.74" y="0">W</tspan><tspan class="cls-26" x="119.42" y="0">a</tspan><tspan class="cls-33" x="129.08" y="0">v</tspan><tspan x="137.68" y="0">e</tspan></text><text class="cls-28" transform="translate(660.96 552.06)"><tspan x="0" y="0">Signal </tspan><tspan class="cls-1" x="53.69" y="0">E</tspan><tspan x="63.76" y="0">dge</tspan></text><text class="cls-28" transform="translate(108.7 182.1)"><tspan x="0" y="0">V</tspan></text><text class="cls-28" transform="translate(120.16 188.09) scale(.58)"><tspan x="0" y="0">DD</tspan></text><text class="cls-28" transform="translate(106.6 455.7)"><tspan x="0" y="0">0V</tspan></text><text class="cls-28" transform="translate(294.72 472.86)"><tspan x="0" y="0">Logical HIGH (1)</tspan></text><text class="cls-28" transform="translate(528.64 472.86)"><tspan x="0" y="0">Logical </tspan><tspan class="cls-29" x="62.46" y="0">L</tspan><tspan x="71.57" y="0">OW (0)</tspan></text><text class="cls-28" transform="translate(923.04 454.98)"><tspan x="0" y="0">Time</tspan></text></g></svg>