<?xml version="1.0" encoding="UTF-8"?><svg xmlns="http://www.w3.org/2000/svg" viewBox="0 0 1080 600.48"><defs><style>.cls-1{letter-spacing:-.04em;}.cls-2{letter-spacing:0em;}.cls-3{letter-spacing:-.01em;}.cls-4{letter-spacing:.05em;}.cls-5{letter-spacing:-.04em;}.cls-6{letter-spacing:-.04em;}.cls-7{stroke-width:.27px;}.cls-7,.cls-8,.cls-9,.cls-10,.cls-11,.cls-12,.cls-13,.cls-14,.cls-15,.cls-16,.cls-17,.cls-18,.cls-19,.cls-20,.cls-21,.cls-22,.cls-23,.cls-24,.cls-25,.cls-26,.cls-27,.cls-28,.cls-29,.cls-30{fill:none;stroke-miterlimit:10;}.cls-7,.cls-8,.cls-9,.cls-11,.cls-12,.cls-13,.cls-14,.cls-15,.cls-16,.cls-18,.cls-19,.cls-20,.cls-21,.cls-22,.cls-23,.cls-24,.cls-25,.cls-26,.cls-27,.cls-28,.cls-29,.cls-30{stroke:#878787;}.cls-31{letter-spacing:-.02em;}.cls-8{opacity:.99;}.cls-8,.cls-12{stroke-width:3.4px;}.cls-32{letter-spacing:.02em;}.cls-9{stroke-width:.85px;}.cls-33,.cls-34{fill:#878787;}.cls-35{letter-spacing:-.01em;}.cls-36{letter-spacing:-.01em;}.cls-10,.cls-11{stroke-width:2.55px;}.cls-10,.cls-17{stroke:#009fe3;}.cls-37{letter-spacing:0em;}.cls-38{letter-spacing:0em;}.cls-13,.cls-24,.cls-25{stroke-width:.75px;}.cls-39{letter-spacing:-.04em;}.cls-40{letter-spacing:0em;}.cls-14{stroke-dasharray:0 0 2.02 5.04;}.cls-15{stroke-width:1.02px;}.cls-16{stroke-width:1.04px;}.cls-41{letter-spacing:0em;}.cls-42{letter-spacing:-.02em;}.cls-17,.cls-18{stroke-width:2px;}.cls-43{letter-spacing:-.01em;}.cls-44{letter-spacing:0em;}.cls-45{letter-spacing:.06em;}.cls-46{letter-spacing:0em;}.cls-20{stroke-width:1.12px;}.cls-21{stroke-width:1.12px;}.cls-47{letter-spacing:-.05em;}.cls-22{stroke-width:1.22px;}.cls-23{stroke-width:1.22px;}.cls-48{letter-spacing:-.02em;}.cls-24{stroke-dasharray:0 0 1.94 4.85;}.cls-49{letter-spacing:0em;}.cls-25{stroke-dasharray:0 0 1.94 4.84;}.cls-50{letter-spacing:-.03em;}.cls-51{letter-spacing:0em;}.cls-26{stroke-dasharray:0 0 1.99 4.99;}.cls-52{letter-spacing:.01em;}.cls-27{stroke-width:1px;}.cls-34{font-family:MyriadPro-Regular, 'Myriad Pro';font-size:18px;}.cls-28{stroke-width:.99px;}.cls-29{stroke-width:.99px;}.cls-30{stroke-dasharray:0 0 2.06 5.15;}</style></defs><g id="Ebene_1"><line class="cls-27" x1="246.24" y1="466.56" x2="246.24" y2="449.28"/><line class="cls-27" x1="707.04" y1="466.56" x2="707.04" y2="449.28"/><line class="cls-8" x1="246.24" y1="449.4" x2="246.24" y2="175.8"/><line class="cls-7" x1="145.68" y1="449.28" x2="808.08" y2="449.28"/><line class="cls-12" x1="477.12" y1="449.4" x2="477.12" y2="175.8"/><line class="cls-12" x1="246.48" y1="449.28" x2="145.68" y2="449.28"/><line class="cls-12" x1="476.64" y1="175.68" x2="246.24" y2="175.68"/><g><line class="cls-19" x1="521.28" y1="316.8" x2="521.27" y2="317.8"/><line class="cls-26" x1="521.21" y1="322.78" x2="519.88" y2="445.91"/><line class="cls-19" x1="519.85" y1="448.4" x2="519.84" y2="449.4"/></g><g><line class="cls-19" x1="289.44" y1="316.8" x2="289.44" y2="315.8"/><line class="cls-14" x1="289.44" y1="310.76" x2="289.44" y2="179.2"/><line class="cls-19" x1="289.44" y1="176.68" x2="289.44" y2="175.68"/></g><line class="cls-12" x1="707.04" y1="449.4" x2="707.04" y2="175.8"/><line class="cls-12" x1="807.84" y1="175.68" x2="707.04" y2="175.68"/><g><line class="cls-15" x1="255.3" y1="164.16" x2="322.56" y2="164.16"/><polygon class="cls-33" points="257.33 167.13 246.24 164.16 257.33 161.19 257.33 167.13"/></g><g><line class="cls-16" x1="467.43" y1="164.16" x2="400.32" y2="164.16"/><polygon class="cls-33" points="465.37 161.14 476.64 164.16 465.37 167.18 465.37 161.14"/></g><g><line class="cls-22" x1="487.19" y1="164.16" x2="552.96" y2="164.16"/><polygon class="cls-33" points="489.6 167.69 476.42 164.16 489.6 160.63 489.6 167.69"/></g><g><line class="cls-23" x1="696.28" y1="164.16" x2="630.72" y2="164.16"/><polygon class="cls-33" points="693.87 160.63 707.04 164.16 693.87 167.69 693.87 160.63"/></g><g><line class="cls-13" x1="246.24" y1="175.8" x2="246.24" y2="174.8"/><line class="cls-24" x1="246.24" y1="169.95" x2="246.24" y2="84.18"/><line class="cls-13" x1="246.24" y1="81.76" x2="246.24" y2="80.76"/></g><g><line class="cls-13" x1="476.88" y1="175.56" x2="476.88" y2="174.56"/><line class="cls-25" x1="476.88" y1="169.72" x2="476.88" y2="131.46"/><line class="cls-13" x1="476.88" y1="129.04" x2="476.88" y2="128.04"/></g><g><line class="cls-13" x1="707.04" y1="175.8" x2="707.04" y2="174.8"/><line class="cls-24" x1="707.04" y1="169.95" x2="707.04" y2="84.18"/><line class="cls-13" x1="707.04" y1="81.76" x2="707.04" y2="80.76"/></g><g><line class="cls-9" x1="145.44" y1="183.33" x2="145.44" y2="462.24"/><polygon class="cls-33" points="142.97 185.02 145.44 175.8 147.91 185.02 142.97 185.02"/></g><line class="cls-11" x1="707.52" y1="449.4" x2="477.12" y2="449.4"/><g><line class="cls-29" x1="254.97" y1="80.64" x2="424.8" y2="80.64"/><polygon class="cls-33" points="256.93 83.51 246.22 80.64 256.93 77.77 256.93 83.51"/></g><g><line class="cls-20" x1="256.18" y1="128.16" x2="311.04" y2="128.16"/><polygon class="cls-33" points="258.4 131.42 246.24 128.16 258.4 124.9 258.4 131.42"/></g><g><line class="cls-21" x1="466.7" y1="128.16" x2="411.84" y2="128.16"/><polygon class="cls-33" points="464.48 124.9 476.64 128.16 464.48 131.42 464.48 124.9"/></g><g><line class="cls-28" x1="698.31" y1="80.64" x2="529.92" y2="80.64"/><polygon class="cls-33" points="696.35 77.77 707.06 80.64 696.35 83.51 696.35 77.77"/></g><line class="cls-18" x1="793.44" y1="92.16" x2="879.84" y2="92.16"/><g><line class="cls-19" x1="707.04" y1="449.28" x2="707.04" y2="450.28"/><line class="cls-30" x1="707.04" y1="455.43" x2="707.04" y2="503.31"/><line class="cls-19" x1="707.04" y1="505.88" x2="707.04" y2="506.88"/></g><g><line class="cls-23" x1="707.04" y1="517.64" x2="707.04" y2="534.51"/><polygon class="cls-33" points="703.51 520.05 707.04 506.88 710.57 520.05 703.51 520.05"/></g><g><line class="cls-9" x1="911.19" y1="449.28" x2="131.04" y2="449.28"/><polygon class="cls-33" points="909.5 446.81 918.72 449.28 909.5 451.75 909.5 446.81"/></g><g><g><line class="cls-27" x1="266.4" y1="316.8" x2="255.1" y2="316.8"/><polygon class="cls-33" points="257.09 313.89 246.24 316.8 257.09 319.71 257.09 313.89"/></g><g><line class="cls-27" x1="266.4" y1="316.8" x2="280.58" y2="316.8"/><polygon class="cls-33" points="278.59 319.71 289.44 316.8 278.59 313.89 278.59 319.71"/></g></g><g><line class="cls-27" x1="290.88" y1="466.56" x2="255.1" y2="466.56"/><polygon class="cls-33" points="257.09 463.65 246.24 466.56 257.09 469.47 257.09 463.65"/></g><g><line class="cls-27" x1="432" y1="466.56" x2="467.78" y2="466.56"/><polygon class="cls-33" points="465.79 469.47 476.64 466.56 465.79 463.65 465.79 469.47"/></g><g><line class="cls-27" x1="521.21" y1="466.56" x2="485.44" y2="466.56"/><polygon class="cls-33" points="487.42 463.65 476.57 466.56 487.42 469.47 487.42 463.65"/></g><g><line class="cls-27" x1="662.33" y1="466.56" x2="698.11" y2="466.56"/><polygon class="cls-33" points="696.13 469.47 706.97 466.56 696.13 463.65 696.13 469.47"/></g><line class="cls-27" x1="476.64" y1="466.56" x2="476.64" y2="449.28"/><g><g><line class="cls-27" x1="498.24" y1="316.8" x2="486.94" y2="316.8"/><polygon class="cls-33" points="488.93 313.89 478.08 316.8 488.93 319.71 488.93 313.89"/></g><g><line class="cls-27" x1="498.24" y1="316.8" x2="512.42" y2="316.8"/><polygon class="cls-33" points="510.43 319.71 521.28 316.8 510.43 313.89 510.43 319.71"/></g></g></g><g id="BLUE"><line class="cls-17" x1="793.44" y1="120.36" x2="879.84" y2="120.36"/><line class="cls-10" x1="145.68" y1="449.28" x2="246.48" y2="449.28"/><line class="cls-10" x1="246.72" y1="449.4" x2="289.92" y2="175.8"/><line class="cls-10" x1="289.92" y1="175.8" x2="480" y2="175.8"/><line class="cls-10" x1="480" y1="175.8" x2="520.32" y2="449.4"/><line class="cls-10" x1="520.32" y1="449.28" x2="707.52" y2="449.28"/><line class="cls-10" x1="707.52" y1="449.4" x2="750.72" y2="175.8"/><line class="cls-10" x1="808.32" y1="175.8" x2="750.72" y2="175.8"/></g><g id="TEXT"><text class="cls-34" transform="translate(293.76 322.38)"><tspan class="cls-41" x="0" y="0">R</tspan><tspan x="9.86" y="0">ise</tspan><tspan class="cls-6" x="30.22" y="0"> </tspan><tspan class="cls-36" x="33.3" y="0">T</tspan><tspan x="42.03" y="0">ime t</tspan></text><text class="cls-34" transform="translate(373.81 328.37) scale(.58)"><tspan x="0" y="0">R</tspan></text><text class="cls-34" transform="translate(524.16 322.38)"><tspan class="cls-47" x="0" y="0">F</tspan><tspan x="7.96" y="0">all</tspan><tspan class="cls-5" x="25.13" y="0"> </tspan><tspan class="cls-35" x="28.21" y="0">T</tspan><tspan x="36.94" y="0">ime t</tspan></text><text class="cls-34" transform="translate(599.11 328.37) scale(.58)"><tspan x="0" y="0">F</tspan></text><text class="cls-34" transform="translate(330.7 168.42)"><tspan x="0" y="0">On</tspan><tspan class="cls-5" x="22.39" y="0"> </tspan><tspan class="cls-35" x="25.47" y="0">T</tspan><tspan x="34.2" y="0">ime</tspan></text><text class="cls-34" transform="translate(560.7 168.42)"><tspan class="cls-32" x="0" y="0">O</tspan><tspan class="cls-51" x="12.69" y="0">ff</tspan><tspan class="cls-5" x="23.18" y="0"> </tspan><tspan class="cls-36" x="26.26" y="0">T</tspan><tspan x="34.99" y="0">ime</tspan></text><text class="cls-34" transform="translate(427.19 86.34)"><tspan x="0" y="0">One </tspan><tspan class="cls-31" x="35.23" y="0">C</tspan><tspan class="cls-49" x="45.31" y="0">y</tspan><tspan x="53.6" y="0">cle </tspan><tspan class="cls-4" x="78.75" y="0">(</tspan><tspan class="cls-45" x="84.73" y="0">T</tspan><tspan class="cls-40" x="94.75" y="0">)</tspan></text><text class="cls-34" transform="translate(317.9 130.98)"><tspan class="cls-48" x="0" y="0">P</tspan><tspan x="9.31" y="0">ulse</tspan><tspan class="cls-39" x="39.62" y="0"> </tspan><tspan class="cls-42" x="42.79" y="0">W</tspan><tspan x="57.73" y="0">idth</tspan></text><text class="cls-34" transform="translate(105.36 142.5)"><tspan class="cls-2" x="0" y="0">A</tspan><tspan x="10.96" y="0">mplitude</tspan></text><text class="cls-34" transform="translate(885.6 124.5)"><tspan class="cls-35" x="0" y="0">A</tspan><tspan class="cls-52" x="10.8" y="0">c</tspan><tspan x="19.1" y="0">tual Shape</tspan></text><text class="cls-34" transform="translate(887.04 96.3)"><tspan x="0" y="0">Ideal </tspan><tspan class="cls-38" x="40.21" y="0">S</tspan><tspan x="49.19" y="0">qua</tspan><tspan class="cls-49" x="77.92" y="0">r</tspan><tspan x="83.63" y="0">e</tspan><tspan class="cls-39" x="92.65" y="0"> </tspan><tspan class="cls-50" x="95.81" y="0">W</tspan><tspan class="cls-46" x="110.45" y="0">a</tspan><tspan class="cls-3" x="118.98" y="0">v</tspan><tspan x="127.46" y="0">e</tspan></text><text class="cls-34" transform="translate(660.96 551.34)"><tspan x="0" y="0">Si</tspan><tspan class="cls-37" x="13.09" y="0">g</tspan><tspan x="23.04" y="0">nal </tspan><tspan class="cls-44" x="49.77" y="0">E</tspan><tspan x="58.55" y="0">dge</tspan></text><text class="cls-34" transform="translate(108.7 181.38)"><tspan x="0" y="0">V</tspan></text><text class="cls-34" transform="translate(118.74 187.37) scale(.58)"><tspan x="0" y="0">DD</tspan></text><text class="cls-34" transform="translate(107.92 454.98)"><tspan x="0" y="0">0V</tspan></text><text class="cls-34" transform="translate(301.91 472.14)"><tspan class="cls-43" x="0" y="0">L</tspan><tspan x="8.24" y="0">o</tspan><tspan class="cls-37" x="18.13" y="0">g</tspan><tspan x="28.08" y="0">ical HIGH (1)</tspan></text><text class="cls-34" transform="translate(534.18 472.14)"><tspan class="cls-43" x="0" y="0">L</tspan><tspan x="8.24" y="0">o</tspan><tspan class="cls-37" x="18.13" y="0">g</tspan><tspan x="28.08" y="0">ical </tspan><tspan class="cls-1" x="57.1" y="0">L</tspan><tspan x="64.89" y="0">OW (0)</tspan></text><text class="cls-34" transform="translate(923.04 454.26)"><tspan class="cls-35" x="0" y="0">T</tspan><tspan x="8.73" y="0">ime</tspan></text></g></svg>