<?xml version="1.0" encoding="utf-8"?>
<!-- Generator: Adobe Illustrator 27.4.1, SVG Export Plug-In . SVG Version: 6.00 Build 0)  -->
<svg version="1.1" id="Signal_Flow" xmlns="http://www.w3.org/2000/svg" xmlns:xlink="http://www.w3.org/1999/xlink" x="0px"
	 y="0px" viewBox="0 0 1079 111.6" style="enable-background:new 0 0 1079 111.6;" xml:space="preserve">
<style type="text/css">
	.st0{fill:none;stroke:#C9D1D8;stroke-width:1.42;stroke-miterlimit:10;}
	.st1{fill:#C9D1D9;}
	.st2{font-family:'Roboto-Regular';}
	.st3{font-size:18px;}
</style>
<polyline class="st0" points="54.1,74.8 89.9,74.8 89.9,2.8 125.7,2.8 125.7,74.8 161.5,74.8 161.5,2.8 197.2,2.8 197.2,74.8 
	233,74.8 233,2.8 268.8,2.8 268.8,74.8 304.6,74.8 304.6,2.8 340.3,2.8 340.3,74.8 376.1,74.8 376.1,2.8 411.9,2.8 411.9,74.8 
	447.7,74.8 447.7,2.8 483.4,2.8 483.4,74.8 519.2,74.8 519.2,2.8 555,2.8 555,74.8 590.8,74.8 590.8,2.8 626.5,2.8 626.5,74.8 
	662.3,74.8 662.3,2.8 698.1,2.8 698.1,74.8 733.9,74.8 733.9,2.8 769.6,2.8 769.6,74.8 805.4,74.8 805.4,2.8 841.2,2.8 841.2,74.8 
	877,74.8 877,2.8 912.7,2.8 912.7,74.8 948.5,74.8 948.5,2.8 984.3,2.8 984.3,74.8 1020.1,74.8 "/>
<g>
	<text transform="matrix(1 0 0 1 64.94 107.23)" class="st1 st2 st3">0</text>
</g>
<g>
	<text transform="matrix(1 0 0 1 100.94 107.23)" class="st1 st2 st3">1</text>
</g>
<g>
	<text transform="matrix(1 0 0 1 136.94 107.23)" class="st1 st2 st3">0</text>
</g>
<g>
	<text transform="matrix(1 0 0 1 172.94 107.23)" class="st1 st2 st3">1</text>
</g>
<g>
	<text transform="matrix(1 0 0 1 208.94 107.23)" class="st1 st2 st3">0</text>
</g>
<g>
	<text transform="matrix(1 0 0 1 244.94 107.23)" class="st1 st2 st3">1</text>
</g>
<g>
	<text transform="matrix(1 0 0 1 280.94 107.23)" class="st1 st2 st3">0</text>
</g>
<g>
	<text transform="matrix(1 0 0 1 316.94 107.23)" class="st1 st2 st3">1</text>
</g>
<g>
	<text transform="matrix(1 0 0 1 352.94 107.23)" class="st1 st2 st3">0</text>
</g>
<g>
	<text transform="matrix(1 0 0 1 388.94 107.23)" class="st1 st2 st3">1</text>
</g>
<g>
	<text transform="matrix(1 0 0 1 424.94 107.23)" class="st1 st2 st3">0</text>
</g>
<g>
	<text transform="matrix(1 0 0 1 460.94 107.23)" class="st1 st2 st3">1</text>
</g>
<g>
	<text transform="matrix(1 0 0 1 496.94 107.23)" class="st1 st2 st3">0</text>
</g>
<g>
	<text transform="matrix(1 0 0 1 532.94 107.23)" class="st1 st2 st3">1</text>
</g>
<g>
	<text transform="matrix(1 0 0 1 568.94 107.23)" class="st1 st2 st3">0</text>
</g>
<g>
	<text transform="matrix(1 0 0 1 604.94 107.23)" class="st1 st2 st3">1</text>
</g>
<g>
	<text transform="matrix(1 0 0 1 640.9399 107.23)" class="st1 st2 st3">0</text>
</g>
<g>
	<text transform="matrix(1 0 0 1 676.9399 107.23)" class="st1 st2 st3">1</text>
</g>
<g>
	<text transform="matrix(1 0 0 1 712.9399 107.23)" class="st1 st2 st3">0</text>
</g>
<g>
	<text transform="matrix(1 0 0 1 748.9399 107.23)" class="st1 st2 st3">1</text>
</g>
<g>
	<text transform="matrix(1 0 0 1 784.9399 107.23)" class="st1 st2 st3">0</text>
</g>
<g>
	<text transform="matrix(1 0 0 1 820.9399 107.23)" class="st1 st2 st3">1</text>
</g>
<g>
	<text transform="matrix(1 0 0 1 856.9399 107.23)" class="st1 st2 st3">0</text>
</g>
<g>
	<text transform="matrix(1 0 0 1 892.9399 107.23)" class="st1 st2 st3">1</text>
</g>
<g>
	<text transform="matrix(1 0 0 1 928.9399 107.23)" class="st1 st2 st3">0</text>
</g>
<g>
	<text transform="matrix(1 0 0 1 964.9399 107.23)" class="st1 st2 st3">1</text>
</g>
<g>
	<text transform="matrix(1 0 0 1 1000.9399 107.23)" class="st1 st2 st3">0</text>
</g>
</svg>
