<?xml version="1.0" encoding="UTF-8"?><svg xmlns="http://www.w3.org/2000/svg" viewBox="0 0 1080 600.48"><defs><style>.cls-1{stroke-width:.27px;}.cls-1,.cls-2,.cls-3,.cls-4,.cls-5,.cls-6,.cls-7,.cls-8,.cls-9,.cls-10,.cls-11,.cls-12,.cls-13,.cls-14,.cls-15,.cls-16,.cls-17,.cls-18,.cls-19,.cls-20,.cls-21,.cls-22,.cls-23,.cls-24{fill:none;stroke-miterlimit:10;}.cls-1,.cls-2,.cls-3,.cls-4,.cls-6,.cls-7,.cls-8,.cls-9,.cls-10,.cls-11,.cls-13,.cls-14,.cls-15,.cls-16,.cls-17,.cls-18,.cls-19,.cls-20,.cls-21,.cls-22,.cls-23,.cls-24{stroke:#1d1e1b;}.cls-2{opacity:.99;}.cls-2,.cls-6{stroke-width:3.4px;}.cls-3{stroke-width:.85px;}.cls-25{fill:#1d1e1b;}.cls-4,.cls-5{stroke-width:2.55px;}.cls-5,.cls-12{stroke:#009fe3;}.cls-7,.cls-18,.cls-19{stroke-width:.75px;}.cls-8{stroke-dasharray:0 0 2.02 5.04;}.cls-9{stroke-width:1.02px;}.cls-10{stroke-width:1.04px;}.cls-11,.cls-12{stroke-width:2px;}.cls-14{stroke-width:1.12px;}.cls-15{stroke-width:1.12px;}.cls-16{stroke-width:1.22px;}.cls-17{stroke-width:1.22px;}.cls-18{stroke-dasharray:0 0 1.94 4.85;}.cls-19{stroke-dasharray:0 0 1.94 4.84;}.cls-20{stroke-dasharray:0 0 1.99 4.99;}.cls-21{stroke-width:.99px;}.cls-22{stroke-width:.99px;}.cls-23{stroke-width:1px;}.cls-24{stroke-dasharray:0 0 2.06 5.15;}</style></defs><g id="Ebene_1"><line class="cls-23" x1="246.24" y1="466.56" x2="246.24" y2="449.28"/><line class="cls-23" x1="707.04" y1="466.56" x2="707.04" y2="449.28"/><line class="cls-2" x1="246.24" y1="449.4" x2="246.24" y2="175.8"/><line class="cls-1" x1="145.68" y1="449.28" x2="808.08" y2="449.28"/><line class="cls-6" x1="477.12" y1="449.4" x2="477.12" y2="175.8"/><line class="cls-6" x1="246.48" y1="449.28" x2="145.68" y2="449.28"/><line class="cls-6" x1="476.64" y1="175.68" x2="246.24" y2="175.68"/><g><line class="cls-13" x1="521.28" y1="316.8" x2="521.27" y2="317.8"/><line class="cls-20" x1="521.21" y1="322.78" x2="519.88" y2="445.91"/><line class="cls-13" x1="519.85" y1="448.4" x2="519.84" y2="449.4"/></g><g><line class="cls-13" x1="289.44" y1="316.8" x2="289.44" y2="315.8"/><line class="cls-8" x1="289.44" y1="310.76" x2="289.44" y2="179.2"/><line class="cls-13" x1="289.44" y1="176.68" x2="289.44" y2="175.68"/></g><line class="cls-6" x1="707.04" y1="449.4" x2="707.04" y2="175.8"/><line class="cls-6" x1="807.84" y1="175.68" x2="707.04" y2="175.68"/><g><line class="cls-9" x1="255.3" y1="164.16" x2="322.56" y2="164.16"/><polygon class="cls-25" points="257.33 167.13 246.24 164.16 257.33 161.19 257.33 167.13"/></g><g><line class="cls-10" x1="467.43" y1="164.16" x2="400.32" y2="164.16"/><polygon class="cls-25" points="465.37 161.14 476.64 164.16 465.37 167.18 465.37 161.14"/></g><g><line class="cls-16" x1="487.19" y1="164.16" x2="552.96" y2="164.16"/><polygon class="cls-25" points="489.6 167.69 476.42 164.16 489.6 160.63 489.6 167.69"/></g><g><line class="cls-17" x1="696.28" y1="164.16" x2="630.72" y2="164.16"/><polygon class="cls-25" points="693.87 160.63 707.04 164.16 693.87 167.69 693.87 160.63"/></g><g><line class="cls-7" x1="246.24" y1="175.8" x2="246.24" y2="174.8"/><line class="cls-18" x1="246.24" y1="169.95" x2="246.24" y2="84.18"/><line class="cls-7" x1="246.24" y1="81.76" x2="246.24" y2="80.76"/></g><g><line class="cls-7" x1="476.88" y1="175.56" x2="476.88" y2="174.56"/><line class="cls-19" x1="476.88" y1="169.72" x2="476.88" y2="131.46"/><line class="cls-7" x1="476.88" y1="129.04" x2="476.88" y2="128.04"/></g><g><line class="cls-7" x1="707.04" y1="175.8" x2="707.04" y2="174.8"/><line class="cls-18" x1="707.04" y1="169.95" x2="707.04" y2="84.18"/><line class="cls-7" x1="707.04" y1="81.76" x2="707.04" y2="80.76"/></g><g><line class="cls-3" x1="145.44" y1="183.33" x2="145.44" y2="462.24"/><polygon class="cls-25" points="142.97 185.02 145.44 175.8 147.91 185.02 142.97 185.02"/></g><line class="cls-4" x1="707.52" y1="449.4" x2="477.12" y2="449.4"/><g><line class="cls-22" x1="254.97" y1="80.64" x2="420.48" y2="80.64"/><polygon class="cls-25" points="256.93 83.51 246.22 80.64 256.93 77.77 256.93 83.51"/></g><g><line class="cls-15" x1="256.18" y1="128.16" x2="311.04" y2="128.16"/><polygon class="cls-25" points="258.4 131.42 246.24 128.16 258.4 124.9 258.4 131.42"/></g><g><line class="cls-14" x1="466.7" y1="128.16" x2="411.84" y2="128.16"/><polygon class="cls-25" points="464.48 124.9 476.64 128.16 464.48 131.42 464.48 124.9"/></g><g><line class="cls-21" x1="698.31" y1="80.64" x2="534.24" y2="80.64"/><polygon class="cls-25" points="696.35 77.77 707.06 80.64 696.35 83.51 696.35 77.77"/></g><line class="cls-11" x1="793.44" y1="92.16" x2="879.84" y2="92.16"/><g><line class="cls-13" x1="707.04" y1="449.28" x2="707.04" y2="450.28"/><line class="cls-24" x1="707.04" y1="455.43" x2="707.04" y2="503.31"/><line class="cls-13" x1="707.04" y1="505.88" x2="707.04" y2="506.88"/></g><g><line class="cls-17" x1="707.04" y1="517.64" x2="707.04" y2="534.51"/><polygon class="cls-25" points="703.51 520.05 707.04 506.88 710.57 520.05 703.51 520.05"/></g><g><line class="cls-3" x1="911.19" y1="449.28" x2="131.04" y2="449.28"/><polygon class="cls-25" points="909.5 446.81 918.72 449.28 909.5 451.75 909.5 446.81"/></g><g><g><line class="cls-23" x1="266.4" y1="316.8" x2="255.1" y2="316.8"/><polygon class="cls-25" points="257.09 313.89 246.24 316.8 257.09 319.71 257.09 313.89"/></g><g><line class="cls-23" x1="266.4" y1="316.8" x2="280.58" y2="316.8"/><polygon class="cls-25" points="278.59 319.71 289.44 316.8 278.59 313.89 278.59 319.71"/></g></g><g><line class="cls-23" x1="290.88" y1="466.56" x2="255.1" y2="466.56"/><polygon class="cls-25" points="257.09 463.65 246.24 466.56 257.09 469.47 257.09 463.65"/></g><g><line class="cls-23" x1="432" y1="466.56" x2="467.78" y2="466.56"/><polygon class="cls-25" points="465.79 469.47 476.64 466.56 465.79 463.65 465.79 469.47"/></g><g><line class="cls-23" x1="521.21" y1="466.56" x2="485.44" y2="466.56"/><polygon class="cls-25" points="487.42 463.65 476.57 466.56 487.42 469.47 487.42 463.65"/></g><g><line class="cls-23" x1="662.33" y1="466.56" x2="698.11" y2="466.56"/><polygon class="cls-25" points="696.13 469.47 706.97 466.56 696.13 463.65 696.13 469.47"/></g><line class="cls-23" x1="476.64" y1="466.56" x2="476.64" y2="449.28"/><g><g><line class="cls-23" x1="498.24" y1="316.8" x2="486.94" y2="316.8"/><polygon class="cls-25" points="488.93 313.89 478.08 316.8 488.93 319.71 488.93 313.89"/></g><g><line class="cls-23" x1="498.24" y1="316.8" x2="512.42" y2="316.8"/><polygon class="cls-25" points="510.43 319.71 521.28 316.8 510.43 313.89 510.43 319.71"/></g></g></g><g id="BLUE"><line class="cls-12" x1="793.44" y1="120.36" x2="879.84" y2="120.36"/><line class="cls-5" x1="145.68" y1="449.28" x2="246.48" y2="449.28"/><line class="cls-5" x1="246.72" y1="449.4" x2="289.92" y2="175.8"/><line class="cls-5" x1="289.92" y1="175.8" x2="480" y2="175.8"/><line class="cls-5" x1="480" y1="175.8" x2="520.32" y2="449.4"/><line class="cls-5" x1="520.32" y1="449.28" x2="707.52" y2="449.28"/><line class="cls-5" x1="707.52" y1="449.4" x2="750.72" y2="175.8"/><line class="cls-5" x1="808.32" y1="175.8" x2="750.72" y2="175.8"/></g><g id="TEXT_Vector"><g><path class="cls-25" d="M299.94,317.92h-3.01v5.18h-1.7v-12.8h4.24c1.44,0,2.55,.33,3.33,.98s1.16,1.61,1.16,2.87c0,.8-.22,1.49-.65,2.08s-1.03,1.03-1.8,1.33l3.01,5.43v.11h-1.81l-2.78-5.18Zm-3.01-1.38h2.59c.84,0,1.5-.22,2-.65,.5-.43,.74-1.02,.74-1.74,0-.79-.24-1.4-.71-1.82s-1.15-.64-2.04-.64h-2.58v4.86Z"/><path class="cls-25" d="M306.08,311.07c0-.26,.08-.49,.24-.67s.4-.27,.72-.27,.56,.09,.72,.27,.25,.4,.25,.67-.08,.48-.25,.66-.4,.26-.72,.26-.56-.09-.72-.26-.24-.4-.24-.66Zm1.76,12.03h-1.63v-9.51h1.63v9.51Z"/><path class="cls-25" d="M315.98,320.58c0-.44-.17-.78-.5-1.02s-.91-.45-1.73-.63-1.48-.39-1.96-.63-.84-.54-1.07-.88-.35-.74-.35-1.21c0-.78,.33-1.44,.99-1.98s1.5-.81,2.53-.81c1.08,0,1.95,.28,2.62,.83s1.01,1.27,1.01,2.14h-1.63c0-.45-.19-.83-.57-1.15s-.85-.48-1.43-.48-1.05,.13-1.39,.39-.5,.59-.5,1.01c0,.39,.16,.69,.47,.89s.87,.39,1.68,.57,1.47,.4,1.97,.65,.88,.55,1.12,.91,.36,.79,.36,1.3c0,.85-.34,1.53-1.02,2.04s-1.56,.77-2.65,.77c-.76,0-1.44-.13-2.02-.4s-1.04-.65-1.38-1.13-.5-1.01-.5-1.57h1.63c.03,.54,.25,.98,.65,1.3s.94,.48,1.61,.48c.62,0,1.11-.12,1.48-.37s.56-.58,.56-1Z"/><path class="cls-25" d="M323.67,323.28c-1.29,0-2.34-.42-3.15-1.27s-1.21-1.98-1.21-3.4v-.3c0-.94,.18-1.79,.54-2.53s.86-1.32,1.51-1.74,1.35-.63,2.1-.63c1.24,0,2.2,.41,2.88,1.22s1.03,1.98,1.03,3.5v.68h-6.44c.02,.94,.3,1.69,.82,2.27s1.19,.87,2,.87c.57,0,1.06-.12,1.46-.35s.75-.54,1.05-.93l.99,.77c-.8,1.22-1.99,1.84-3.59,1.84Zm-.2-8.53c-.66,0-1.21,.24-1.65,.72s-.72,1.15-.83,2.01h4.76v-.12c-.05-.83-.27-1.47-.67-1.92s-.94-.68-1.62-.68Z"/><path class="cls-25" d="M342.46,311.68h-4.11v11.42h-1.68v-11.42h-4.1v-1.38h9.9v1.38Z"/><path class="cls-25" d="M344.11,311.07c0-.26,.08-.49,.24-.67s.4-.27,.72-.27,.56,.09,.72,.27,.25,.4,.25,.67-.08,.48-.25,.66-.4,.26-.72,.26-.56-.09-.72-.26-.24-.4-.24-.66Zm1.76,12.03h-1.63v-9.51h1.63v9.51Z"/><path class="cls-25" d="M350,313.59l.04,1.05c.7-.82,1.64-1.23,2.82-1.23,1.33,0,2.24,.51,2.72,1.53,.32-.46,.73-.83,1.23-1.11s1.11-.42,1.8-.42c2.09,0,3.15,1.1,3.18,3.31v6.37h-1.63v-6.28c0-.68-.16-1.19-.47-1.53s-.83-.5-1.56-.5c-.6,0-1.1,.18-1.5,.54s-.63,.85-.69,1.46v6.31h-1.63v-6.23c0-1.38-.68-2.07-2.03-2.07-1.07,0-1.8,.45-2.19,1.36v6.94h-1.63v-9.51h1.54Z"/><path class="cls-25" d="M368.19,323.28c-1.29,0-2.34-.42-3.15-1.27s-1.21-1.98-1.21-3.4v-.3c0-.94,.18-1.79,.54-2.53s.86-1.32,1.51-1.74,1.35-.63,2.1-.63c1.24,0,2.2,.41,2.88,1.22s1.03,1.98,1.03,3.5v.68h-6.44c.02,.94,.3,1.69,.82,2.27s1.19,.87,2,.87c.57,0,1.06-.12,1.46-.35s.75-.54,1.05-.93l.99,.77c-.8,1.22-1.99,1.84-3.59,1.84Zm-.2-8.53c-.66,0-1.21,.24-1.65,.72s-.72,1.15-.83,2.01h4.76v-.12c-.05-.83-.27-1.47-.67-1.92s-.94-.68-1.62-.68Z"/><path class="cls-25" d="M380.45,311.29v2.3h1.78v1.26h-1.78v5.9c0,.38,.08,.67,.24,.86s.43,.29,.81,.29c.19,0,.45-.04,.77-.11v1.31c-.43,.12-.84,.17-1.25,.17-.73,0-1.27-.22-1.64-.66s-.55-1.06-.55-1.87v-5.9h-1.73v-1.26h1.73v-2.3h1.63Z"/><path class="cls-25" d="M386.49,326.08h-1.75v3.02h-.99v-7.46h2.47c.84,0,1.49,.19,1.94,.57s.68,.94,.68,1.67c0,.46-.13,.87-.38,1.21s-.6,.6-1.05,.77l1.75,3.17v.06h-1.06l-1.62-3.02Zm-1.75-.8h1.51c.49,0,.88-.13,1.17-.38,.29-.25,.43-.59,.43-1.02,0-.46-.14-.82-.41-1.06-.27-.25-.67-.37-1.19-.38h-1.51v2.83Z"/></g><g><path class="cls-25" d="M532.7,317.45h-5.37v5.65h-1.69v-12.8h7.93v1.38h-6.24v4.39h5.37v1.38Z"/><path class="cls-25" d="M540.91,323.1c-.09-.19-.17-.52-.23-1-.76,.79-1.66,1.18-2.71,1.18-.94,0-1.71-.27-2.31-.8s-.9-1.2-.9-2.02c0-.99,.38-1.76,1.13-2.31s1.81-.82,3.18-.82h1.58v-.75c0-.57-.17-1.02-.51-1.36s-.84-.5-1.5-.5c-.58,0-1.07,.15-1.46,.44s-.59,.65-.59,1.06h-1.63c0-.47,.17-.93,.51-1.38s.79-.79,1.37-1.05,1.21-.39,1.9-.39c1.1,0,1.95,.27,2.58,.82s.94,1.3,.97,2.26v4.38c0,.87,.11,1.57,.33,2.08v.14h-1.71Zm-2.7-1.24c.51,0,.99-.13,1.45-.4s.79-.61,.99-1.03v-1.95h-1.27c-1.99,0-2.99,.58-2.99,1.75,0,.51,.17,.91,.51,1.2s.78,.43,1.31,.43Z"/><path class="cls-25" d="M546.6,323.1h-1.63v-13.5h1.63v13.5Z"/><path class="cls-25" d="M550.97,323.1h-1.63v-13.5h1.63v13.5Z"/><path class="cls-25" d="M566.77,311.68h-4.11v11.42h-1.68v-11.42h-4.1v-1.38h9.9v1.38Z"/><path class="cls-25" d="M568.42,311.07c0-.26,.08-.49,.24-.67s.4-.27,.72-.27,.56,.09,.72,.27,.25,.4,.25,.67-.08,.48-.25,.66-.4,.26-.72,.26-.55-.09-.72-.26-.24-.4-.24-.66Zm1.76,12.03h-1.63v-9.51h1.63v9.51Z"/><path class="cls-25" d="M574.31,313.59l.04,1.05c.7-.82,1.64-1.23,2.82-1.23,1.33,0,2.24,.51,2.72,1.53,.32-.46,.73-.83,1.24-1.11s1.11-.42,1.8-.42c2.09,0,3.15,1.1,3.18,3.31v6.37h-1.63v-6.28c0-.68-.16-1.19-.47-1.53s-.83-.5-1.56-.5c-.6,0-1.1,.18-1.5,.54s-.63,.85-.69,1.46v6.31h-1.63v-6.23c0-1.38-.68-2.07-2.03-2.07-1.07,0-1.8,.45-2.19,1.36v6.94h-1.63v-9.51h1.54Z"/><path class="cls-25" d="M592.5,323.28c-1.29,0-2.34-.42-3.15-1.27s-1.21-1.98-1.21-3.4v-.3c0-.94,.18-1.79,.54-2.53s.86-1.32,1.51-1.74,1.35-.63,2.1-.63c1.24,0,2.2,.41,2.88,1.22s1.03,1.98,1.03,3.5v.68h-6.44c.02,.94,.3,1.69,.82,2.27s1.19,.87,2,.87c.57,0,1.06-.12,1.46-.35s.75-.54,1.05-.93l.99,.77c-.8,1.22-1.99,1.84-3.59,1.84Zm-.2-8.53c-.66,0-1.21,.24-1.65,.72s-.72,1.15-.83,2.01h4.76v-.12c-.05-.83-.27-1.47-.67-1.92s-.94-.68-1.62-.68Z"/><path class="cls-25" d="M604.76,311.29v2.3h1.78v1.26h-1.78v5.9c0,.38,.08,.67,.24,.86s.43,.29,.81,.29c.19,0,.45-.04,.77-.11v1.31c-.43,.12-.84,.17-1.25,.17-.73,0-1.27-.22-1.64-.66s-.55-1.06-.55-1.87v-5.9h-1.73v-1.26h1.73v-2.3h1.63Z"/><path class="cls-25" d="M612.18,325.8h-3.13v3.29h-.98v-7.46h4.62v.8h-3.64v2.56h3.13v.8Z"/></g><g><path class="cls-25" d="M339.83,163.16c0,1.25-.21,2.35-.63,3.28s-1.02,1.65-1.79,2.14-1.68,.74-2.71,.74-1.9-.25-2.68-.74-1.38-1.2-1.81-2.12-.65-1.98-.66-3.19v-.92c0-1.23,.21-2.32,.64-3.26s1.03-1.67,1.81-2.17,1.68-.75,2.69-.75,1.93,.25,2.71,.74,1.38,1.21,1.81,2.15,.63,2.03,.63,3.28v.81Zm-1.68-.83c0-1.52-.3-2.68-.91-3.49s-1.46-1.22-2.56-1.22-1.91,.41-2.52,1.22-.93,1.94-.94,3.38v.94c0,1.47,.31,2.63,.93,3.47s1.47,1.26,2.55,1.26,1.93-.4,2.53-1.19,.91-1.93,.92-3.41v-.95Z"/><path class="cls-25" d="M343.65,159.63l.05,1.2c.73-.91,1.68-1.37,2.85-1.37,2.01,0,3.02,1.13,3.04,3.4v6.28h-1.63v-6.29c0-.69-.16-1.19-.47-1.52s-.79-.49-1.44-.49c-.53,0-.99,.14-1.39,.42s-.71,.65-.93,1.11v6.78h-1.63v-9.51h1.54Z"/><path class="cls-25" d="M365.24,157.72h-4.11v11.42h-1.68v-11.42h-4.1v-1.38h9.9v1.38Z"/><path class="cls-25" d="M366.89,157.11c0-.26,.08-.49,.24-.67s.4-.27,.72-.27,.56,.09,.72,.27,.25,.4,.25,.67-.08,.48-.25,.66-.4,.26-.72,.26-.56-.09-.72-.26-.24-.4-.24-.66Zm1.76,12.03h-1.63v-9.51h1.63v9.51Z"/><path class="cls-25" d="M372.78,159.63l.04,1.05c.7-.82,1.64-1.23,2.82-1.23,1.33,0,2.24,.51,2.72,1.53,.32-.46,.73-.83,1.23-1.11s1.11-.42,1.8-.42c2.09,0,3.15,1.1,3.18,3.31v6.37h-1.63v-6.28c0-.68-.16-1.19-.47-1.52s-.83-.51-1.56-.51c-.6,0-1.1,.18-1.5,.54s-.63,.85-.69,1.45v6.31h-1.63v-6.23c0-1.38-.68-2.07-2.03-2.07-1.07,0-1.8,.45-2.19,1.36v6.94h-1.63v-9.51h1.54Z"/><path class="cls-25" d="M390.98,169.32c-1.29,0-2.34-.42-3.15-1.27s-1.21-1.98-1.21-3.4v-.3c0-.94,.18-1.79,.54-2.53s.86-1.32,1.51-1.74,1.35-.63,2.1-.63c1.24,0,2.2,.41,2.88,1.22s1.03,1.98,1.03,3.5v.68h-6.44c.02,.94,.3,1.69,.82,2.27s1.19,.87,2,.87c.57,0,1.06-.12,1.46-.35s.75-.54,1.05-.93l.99,.77c-.8,1.22-1.99,1.84-3.59,1.84Zm-.2-8.53c-.66,0-1.21,.24-1.65,.72s-.72,1.15-.83,2.01h4.76v-.12c-.05-.83-.27-1.47-.67-1.92s-.94-.68-1.62-.68Z"/></g><g><path class="cls-25" d="M568.95,163.16c0,1.25-.21,2.35-.63,3.28s-1.02,1.65-1.79,2.14-1.68,.74-2.71,.74-1.9-.25-2.68-.74-1.38-1.2-1.82-2.12-.65-1.98-.66-3.19v-.92c0-1.23,.21-2.32,.64-3.26s1.03-1.67,1.81-2.17,1.68-.75,2.69-.75,1.93,.25,2.71,.74,1.38,1.21,1.81,2.15,.63,2.03,.63,3.28v.81Zm-1.68-.83c0-1.52-.3-2.68-.91-3.49s-1.46-1.22-2.56-1.22-1.91,.41-2.52,1.22-.93,1.94-.94,3.38v.94c0,1.47,.31,2.63,.93,3.47s1.47,1.26,2.55,1.26,1.93-.4,2.53-1.19,.91-1.93,.92-3.41v-.95Z"/><path class="cls-25" d="M572.03,169.14v-8.25h-1.5v-1.26h1.5v-.98c0-1.02,.27-1.81,.82-2.36s1.32-.83,2.31-.83c.38,0,.75,.05,1.12,.15l-.09,1.31c-.28-.05-.57-.08-.88-.08-.53,0-.93,.15-1.22,.46s-.43,.75-.43,1.33v1h2.03v1.26h-2.03v8.25h-1.63Z"/><path class="cls-25" d="M578.28,169.14v-8.25h-1.5v-1.26h1.5v-.98c0-1.02,.27-1.81,.82-2.36s1.32-.83,2.31-.83c.38,0,.75,.05,1.12,.15l-.09,1.31c-.28-.05-.57-.08-.88-.08-.53,0-.93,.15-1.22,.46s-.43,.75-.43,1.33v1h2.03v1.26h-2.03v8.25h-1.63Z"/><path class="cls-25" d="M596.93,157.72h-4.11v11.42h-1.68v-11.42h-4.1v-1.38h9.9v1.38Z"/><path class="cls-25" d="M598.58,157.11c0-.26,.08-.49,.24-.67s.4-.27,.72-.27,.56,.09,.72,.27,.25,.4,.25,.67-.08,.48-.25,.66-.4,.26-.72,.26-.56-.09-.72-.26-.24-.4-.24-.66Zm1.76,12.03h-1.63v-9.51h1.63v9.51Z"/><path class="cls-25" d="M604.47,159.63l.04,1.05c.7-.82,1.64-1.23,2.82-1.23,1.33,0,2.24,.51,2.72,1.53,.32-.46,.73-.83,1.23-1.11s1.11-.42,1.8-.42c2.09,0,3.15,1.1,3.18,3.31v6.37h-1.63v-6.28c0-.68-.16-1.19-.47-1.52s-.83-.51-1.56-.51c-.6,0-1.1,.18-1.5,.54s-.63,.85-.69,1.45v6.31h-1.63v-6.23c0-1.38-.68-2.07-2.03-2.07-1.07,0-1.8,.45-2.19,1.36v6.94h-1.63v-9.51h1.54Z"/><path class="cls-25" d="M622.66,169.32c-1.29,0-2.34-.42-3.15-1.27s-1.21-1.98-1.21-3.4v-.3c0-.94,.18-1.79,.54-2.53s.86-1.32,1.51-1.74,1.35-.63,2.11-.63c1.24,0,2.2,.41,2.88,1.22s1.03,1.98,1.03,3.5v.68h-6.44c.02,.94,.3,1.69,.82,2.27s1.19,.87,2,.87c.57,0,1.06-.12,1.46-.35s.75-.54,1.05-.93l.99,.77c-.8,1.22-1.99,1.84-3.59,1.84Zm-.2-8.53c-.66,0-1.21,.24-1.65,.72s-.72,1.15-.83,2.01h4.76v-.12c-.05-.83-.27-1.47-.67-1.92s-.94-.68-1.62-.68Z"/></g><g><path class="cls-25" d="M434.77,81.08c0,1.25-.21,2.35-.63,3.28s-1.02,1.65-1.79,2.14-1.68,.74-2.71,.74-1.9-.25-2.68-.74-1.38-1.2-1.81-2.12-.65-1.98-.66-3.19v-.92c0-1.23,.21-2.32,.64-3.26s1.03-1.67,1.81-2.17,1.68-.75,2.69-.75,1.93,.25,2.71,.74,1.38,1.21,1.81,2.15,.63,2.03,.63,3.28v.81Zm-1.68-.83c0-1.52-.3-2.68-.91-3.49s-1.46-1.22-2.56-1.22-1.91,.41-2.52,1.22-.93,1.94-.94,3.38v.94c0,1.47,.31,2.63,.93,3.47s1.47,1.26,2.55,1.26,1.93-.4,2.53-1.19,.91-1.93,.92-3.41v-.95Z"/><path class="cls-25" d="M438.59,77.55l.05,1.2c.73-.91,1.68-1.37,2.85-1.37,2.01,0,3.02,1.13,3.04,3.4v6.28h-1.63v-6.29c0-.69-.16-1.19-.47-1.52s-.79-.49-1.44-.49c-.53,0-.99,.14-1.39,.42s-.71,.65-.93,1.11v6.78h-1.63v-9.51h1.54Z"/><path class="cls-25" d="M450.93,87.24c-1.29,0-2.34-.42-3.15-1.27s-1.21-1.98-1.21-3.4v-.3c0-.94,.18-1.79,.54-2.53s.86-1.32,1.51-1.74,1.35-.63,2.1-.63c1.24,0,2.2,.41,2.88,1.22s1.03,1.98,1.03,3.5v.68h-6.44c.02,.94,.3,1.69,.82,2.27s1.19,.87,2,.87c.57,0,1.06-.12,1.46-.35s.75-.54,1.05-.93l.99,.77c-.8,1.22-1.99,1.84-3.59,1.84Zm-.2-8.53c-.66,0-1.21,.24-1.65,.72s-.72,1.15-.83,2.01h4.76v-.12c-.05-.83-.27-1.47-.67-1.92s-.94-.68-1.62-.68Z"/><path class="cls-25" d="M470.64,83c-.16,1.35-.66,2.4-1.5,3.13s-1.96,1.1-3.35,1.1c-1.51,0-2.72-.54-3.63-1.63s-1.37-2.53-1.37-4.35v-1.23c0-1.19,.21-2.24,.64-3.14s1.03-1.6,1.81-2.08,1.68-.73,2.71-.73c1.36,0,2.45,.38,3.27,1.14s1.3,1.81,1.43,3.15h-1.7c-.15-1.02-.46-1.76-.95-2.22s-1.17-.69-2.05-.69c-1.08,0-1.92,.4-2.54,1.2-.61,.8-.92,1.93-.92,3.4v1.24c0,1.39,.29,2.5,.87,3.32s1.39,1.23,2.43,1.23c.94,0,1.66-.21,2.16-.64s.83-1.16,1-2.22h1.7Z"/><path class="cls-25" d="M475.8,84.68l2.21-7.13h1.74l-3.82,10.98c-.59,1.58-1.53,2.37-2.82,2.37l-.31-.03-.61-.11v-1.32l.44,.04c.55,0,.98-.11,1.29-.33s.56-.63,.76-1.22l.36-.97-3.39-9.4h1.78l2.37,7.13Z"/><path class="cls-25" d="M484.91,85.91c.58,0,1.09-.18,1.52-.53s.67-.79,.72-1.32h1.54c-.03,.54-.22,1.06-.56,1.56s-.81,.88-1.38,1.18-1.19,.44-1.83,.44c-1.29,0-2.32-.43-3.09-1.3s-1.15-2.05-1.15-3.55v-.27c0-.93,.17-1.75,.51-2.47s.83-1.28,1.46-1.68,1.39-.6,2.25-.6c1.07,0,1.95,.32,2.66,.96s1.08,1.47,1.13,2.49h-1.54c-.05-.62-.28-1.12-.7-1.52s-.94-.59-1.55-.59c-.83,0-1.47,.3-1.92,.89-.45,.59-.68,1.45-.68,2.58v.31c0,1.1,.23,1.94,.68,2.53s1.1,.89,1.93,.89Z"/><path class="cls-25" d="M492.28,87.06h-1.63v-13.5h1.63v13.5Z"/><path class="cls-25" d="M498.83,87.24c-1.29,0-2.34-.42-3.15-1.27s-1.21-1.98-1.21-3.4v-.3c0-.94,.18-1.79,.54-2.53s.86-1.32,1.51-1.74,1.35-.63,2.11-.63c1.24,0,2.2,.41,2.88,1.22s1.03,1.98,1.03,3.5v.68h-6.44c.02,.94,.3,1.69,.82,2.27s1.19,.87,2,.87c.57,0,1.06-.12,1.46-.35s.75-.54,1.05-.93l.99,.77c-.8,1.22-1.99,1.84-3.59,1.84Zm-.2-8.53c-.66,0-1.21,.24-1.65,.72s-.72,1.15-.83,2.01h4.76v-.12c-.05-.83-.27-1.47-.67-1.92s-.94-.68-1.62-.68Z"/><path class="cls-25" d="M508.81,81.87c0-1.32,.18-2.6,.53-3.81s.88-2.33,1.59-3.32,1.43-1.7,2.19-2.11l.33,1.07c-.86,.66-1.56,1.66-2.11,3.01s-.85,2.86-.9,4.53v.75c0,2.26,.4,4.22,1.23,5.89,.5,1,1.09,1.78,1.78,2.34l-.33,.99c-.78-.43-1.52-1.16-2.23-2.18-1.38-1.99-2.07-4.37-2.07-7.15Z"/><path class="cls-25" d="M524.12,75.64h-4.11v11.42h-1.68v-11.42h-4.1v-1.38h9.9v1.38Z"/><path class="cls-25" d="M529.52,81.95c0,1.31-.17,2.56-.51,3.76s-.87,2.3-1.57,3.32-1.45,1.73-2.22,2.16l-.34-.99c.9-.69,1.63-1.77,2.17-3.22s.83-3.07,.84-4.85v-.28c0-1.23-.13-2.37-.39-3.43s-.62-2.01-1.08-2.84-.98-1.49-1.55-1.96l.34-.99c.77,.43,1.51,1.14,2.21,2.14s1.22,2.11,1.57,3.31,.52,2.5,.52,3.88Z"/></g><g><path class="cls-25" d="M317.97,126.57v5.01h-1.69v-12.8h4.72c1.4,0,2.5,.36,3.29,1.07s1.19,1.66,1.19,2.84c0,1.24-.39,2.2-1.16,2.87s-1.89,1.01-3.34,1.01h-3.01Zm0-1.38h3.03c.9,0,1.59-.21,2.07-.64,.48-.43,.72-1.04,.72-1.84s-.24-1.37-.72-1.83c-.48-.46-1.14-.7-1.98-.71h-3.13v5.03Z"/><path class="cls-25" d="M333.26,130.64c-.63,.74-1.56,1.12-2.79,1.12-1.01,0-1.79-.29-2.32-.88s-.8-1.46-.8-2.61v-6.19h1.63v6.14c0,1.44,.59,2.16,1.76,2.16,1.24,0,2.07-.46,2.48-1.39v-6.92h1.63v9.51h-1.55l-.04-.94Z"/><path class="cls-25" d="M339.07,131.58h-1.63v-13.5h1.63v13.5Z"/><path class="cls-25" d="M347.21,129.06c0-.44-.17-.78-.5-1.02s-.91-.45-1.73-.63-1.48-.39-1.96-.63-.84-.54-1.07-.88-.35-.74-.35-1.21c0-.78,.33-1.44,.99-1.98s1.5-.81,2.53-.81c1.08,0,1.95,.28,2.62,.83s1.01,1.27,1.01,2.14h-1.63c0-.45-.19-.83-.57-1.15s-.85-.48-1.43-.48-1.05,.13-1.39,.39-.5,.59-.5,1.01c0,.39,.16,.69,.47,.89s.87,.39,1.68,.57,1.47,.4,1.97,.65,.88,.56,1.12,.91,.36,.79,.36,1.3c0,.85-.34,1.53-1.02,2.04s-1.56,.77-2.65,.77c-.76,0-1.44-.13-2.02-.4s-1.04-.65-1.38-1.13-.5-1.01-.5-1.57h1.63c.03,.54,.25,.98,.65,1.3s.94,.48,1.61,.48c.62,0,1.11-.12,1.48-.37s.56-.58,.56-1Z"/><path class="cls-25" d="M354.9,131.76c-1.29,0-2.34-.42-3.15-1.27s-1.21-1.98-1.21-3.4v-.3c0-.94,.18-1.79,.54-2.53s.86-1.32,1.51-1.74,1.35-.63,2.1-.63c1.24,0,2.2,.41,2.88,1.22s1.03,1.98,1.03,3.5v.68h-6.44c.02,.94,.3,1.69,.82,2.27s1.19,.87,2,.87c.57,0,1.06-.12,1.46-.35s.75-.54,1.05-.93l.99,.77c-.8,1.22-1.99,1.84-3.59,1.84Zm-.2-8.53c-.66,0-1.21,.24-1.65,.72s-.72,1.15-.83,2.01h4.76v-.12c-.05-.83-.27-1.47-.67-1.92s-.94-.68-1.62-.68Z"/><path class="cls-25" d="M367.96,127.55l.25,1.69,.36-1.52,2.53-8.93h1.42l2.47,8.93,.35,1.55,.27-1.72,1.99-8.75h1.7l-3.1,12.8h-1.54l-2.64-9.33-.2-.98-.2,.98-2.73,9.33h-1.54l-3.09-12.8h1.69l2.02,8.76Z"/><path class="cls-25" d="M380.93,119.55c0-.26,.08-.49,.24-.67s.4-.27,.72-.27,.56,.09,.72,.27,.25,.4,.25,.67-.08,.48-.25,.66-.4,.26-.72,.26-.56-.09-.72-.26-.24-.4-.24-.66Zm1.76,12.03h-1.63v-9.51h1.63v9.51Z"/><path class="cls-25" d="M384.89,126.75c0-1.46,.35-2.63,1.04-3.52s1.6-1.33,2.72-1.33,2,.38,2.65,1.14v-4.96h1.63v13.5h-1.49l-.08-1.02c-.65,.8-1.56,1.2-2.72,1.2s-2-.45-2.69-1.35-1.04-2.08-1.04-3.53v-.12Zm1.63,.18c0,1.08,.22,1.92,.67,2.53s1.06,.91,1.85,.91c1.03,0,1.78-.46,2.26-1.39v-4.37c-.49-.9-1.23-1.34-2.24-1.34-.8,0-1.42,.31-1.86,.92s-.67,1.53-.67,2.73Z"/><path class="cls-25" d="M397.64,119.77v2.3h1.78v1.26h-1.78v5.9c0,.38,.08,.67,.24,.86,.16,.19,.43,.29,.81,.29,.19,0,.45-.04,.77-.11v1.31c-.43,.12-.84,.17-1.25,.17-.73,0-1.27-.22-1.64-.66s-.55-1.06-.55-1.87v-5.9h-1.73v-1.26h1.73v-2.3h1.63Z"/><path class="cls-25" d="M402.94,123.22c.72-.88,1.66-1.33,2.81-1.33,2.01,0,3.02,1.13,3.04,3.4v6.28h-1.63v-6.29c0-.69-.16-1.19-.47-1.52s-.79-.49-1.44-.49c-.53,0-.99,.14-1.39,.42s-.71,.65-.93,1.11v6.78h-1.63v-13.5h1.63v5.14Z"/></g><g><path class="cls-25" d="M113.91,139.87h-5.36l-1.2,3.35h-1.74l4.89-12.8h1.48l4.9,12.8h-1.73l-1.22-3.35Zm-4.85-1.38h4.35l-2.18-5.99-2.17,5.99Z"/><path class="cls-25" d="M119.86,133.71l.04,1.05c.7-.82,1.64-1.23,2.82-1.23,1.33,0,2.24,.51,2.72,1.53,.32-.46,.73-.83,1.23-1.11s1.11-.42,1.8-.42c2.09,0,3.15,1.1,3.18,3.31v6.37h-1.63v-6.28c0-.68-.16-1.19-.47-1.52s-.83-.51-1.56-.51c-.6,0-1.1,.18-1.5,.54s-.63,.85-.69,1.45v6.31h-1.63v-6.23c0-1.38-.68-2.07-2.03-2.07-1.07,0-1.8,.45-2.19,1.36v6.94h-1.63v-9.51h1.54Z"/><path class="cls-25" d="M142.14,138.57c0,1.45-.33,2.61-.99,3.5s-1.56,1.33-2.69,1.33-2.06-.37-2.72-1.1v4.58h-1.63v-13.17h1.49l.08,1.05c.66-.82,1.58-1.23,2.76-1.23s2.05,.43,2.71,1.29,1,2.06,1,3.59v.15Zm-1.63-.18c0-1.07-.23-1.92-.69-2.54s-1.08-.93-1.88-.93c-.98,0-1.72,.44-2.21,1.31v4.54c.49,.87,1.23,1.3,2.23,1.3,.78,0,1.4-.31,1.86-.93s.69-1.54,.69-2.76Z"/><path class="cls-25" d="M145.97,143.22h-1.63v-13.5h1.63v13.5Z"/><path class="cls-25" d="M148.58,131.19c0-.26,.08-.49,.24-.67s.4-.27,.72-.27,.56,.09,.72,.27,.25,.4,.25,.67-.08,.48-.25,.66-.4,.26-.72,.26-.56-.09-.72-.26-.24-.4-.24-.66Zm1.76,12.03h-1.63v-9.51h1.63v9.51Z"/><path class="cls-25" d="M155.15,131.41v2.3h1.78v1.26h-1.78v5.9c0,.38,.08,.67,.24,.86,.16,.19,.43,.29,.81,.29,.19,0,.45-.04,.77-.11v1.31c-.43,.12-.84,.17-1.25,.17-.73,0-1.27-.22-1.64-.66s-.55-1.06-.55-1.87v-5.9h-1.73v-1.26h1.73v-2.3h1.63Z"/><path class="cls-25" d="M164.7,142.28c-.63,.74-1.56,1.12-2.79,1.12-1.01,0-1.79-.29-2.32-.88s-.8-1.46-.8-2.61v-6.19h1.63v6.14c0,1.44,.59,2.16,1.76,2.16,1.24,0,2.07-.46,2.48-1.39v-6.92h1.63v9.51h-1.55l-.04-.94Z"/><path class="cls-25" d="M168.35,138.39c0-1.46,.35-2.63,1.04-3.52s1.6-1.33,2.72-1.33,2,.38,2.65,1.14v-4.96h1.63v13.5h-1.49l-.08-1.02c-.65,.8-1.56,1.2-2.72,1.2s-2-.45-2.69-1.35-1.04-2.08-1.04-3.53v-.12Zm1.63,.18c0,1.08,.22,1.92,.67,2.53s1.06,.91,1.85,.91c1.03,0,1.78-.46,2.26-1.39v-4.37c-.49-.9-1.23-1.34-2.24-1.34-.8,0-1.42,.31-1.86,.92s-.67,1.53-.67,2.73Z"/><path class="cls-25" d="M182.84,143.4c-1.29,0-2.34-.42-3.15-1.27s-1.21-1.98-1.21-3.4v-.3c0-.94,.18-1.79,.54-2.53s.86-1.32,1.51-1.74,1.35-.63,2.1-.63c1.24,0,2.2,.41,2.88,1.22s1.03,1.98,1.03,3.5v.68h-6.44c.02,.94,.3,1.69,.82,2.27s1.19,.87,2,.87c.57,0,1.06-.12,1.46-.35s.75-.54,1.05-.93l.99,.77c-.8,1.22-1.99,1.84-3.59,1.84Zm-.2-8.53c-.66,0-1.21,.24-1.65,.72s-.72,1.15-.83,2.01h4.76v-.12c-.05-.83-.27-1.47-.67-1.92s-.94-.68-1.62-.68Z"/></g><g><path class="cls-25" d="M894.15,121.87h-5.36l-1.2,3.35h-1.74l4.89-12.8h1.48l4.9,12.8h-1.73l-1.22-3.35Zm-4.85-1.38h4.35l-2.18-5.99-2.17,5.99Z"/><path class="cls-25" d="M902.39,124.07c.58,0,1.09-.18,1.52-.53s.67-.79,.72-1.32h1.54c-.03,.54-.22,1.06-.56,1.56s-.81,.88-1.38,1.18-1.19,.44-1.83,.44c-1.29,0-2.33-.43-3.09-1.3s-1.15-2.05-1.15-3.55v-.27c0-.93,.17-1.75,.51-2.47s.83-1.28,1.46-1.68,1.39-.6,2.25-.6c1.07,0,1.95,.32,2.66,.96s1.08,1.47,1.13,2.49h-1.54c-.05-.62-.28-1.12-.7-1.52s-.94-.59-1.55-.59c-.83,0-1.47,.3-1.92,.89s-.68,1.45-.68,2.58v.31c0,1.1,.23,1.94,.68,2.53s1.1,.89,1.93,.89Z"/><path class="cls-25" d="M910.2,113.41v2.3h1.78v1.26h-1.78v5.9c0,.38,.08,.67,.24,.86,.16,.19,.43,.29,.81,.29,.19,0,.45-.04,.77-.11v1.31c-.43,.12-.84,.17-1.25,.17-.73,0-1.27-.22-1.64-.66s-.55-1.06-.55-1.87v-5.9h-1.73v-1.26h1.73v-2.3h1.63Z"/><path class="cls-25" d="M919.75,124.28c-.63,.74-1.56,1.12-2.79,1.12-1.01,0-1.79-.29-2.32-.88s-.8-1.46-.8-2.61v-6.19h1.63v6.14c0,1.44,.59,2.16,1.76,2.16,1.24,0,2.07-.46,2.48-1.39v-6.92h1.63v9.51h-1.55l-.04-.94Z"/><path class="cls-25" d="M929.67,125.22c-.09-.19-.17-.52-.23-1-.76,.79-1.66,1.18-2.71,1.18-.94,0-1.71-.27-2.31-.8s-.9-1.2-.9-2.02c0-.99,.38-1.76,1.13-2.31s1.81-.82,3.18-.82h1.58v-.75c0-.57-.17-1.02-.51-1.36s-.84-.51-1.5-.51c-.58,0-1.07,.15-1.46,.44s-.59,.65-.59,1.06h-1.63c0-.47,.17-.93,.5-1.38s.79-.79,1.37-1.05,1.21-.39,1.9-.39c1.1,0,1.95,.27,2.58,.82s.94,1.3,.97,2.26v4.38c0,.87,.11,1.57,.33,2.08v.14h-1.71Zm-2.7-1.24c.51,0,.99-.13,1.45-.4s.79-.61,.99-1.03v-1.95h-1.27c-1.99,0-2.99,.58-2.99,1.75,0,.51,.17,.91,.51,1.2s.78,.43,1.31,.43Z"/><path class="cls-25" d="M935.36,125.22h-1.63v-13.5h1.63v13.5Z"/><path class="cls-25" d="M946.44,119.52c-1.45-.42-2.5-.93-3.16-1.53s-.99-1.35-.99-2.25c0-1.01,.4-1.84,1.21-2.5s1.85-.99,3.14-.99c.88,0,1.66,.17,2.35,.51s1.22,.81,1.6,1.41,.57,1.25,.57,1.96h-1.7c0-.78-.25-1.39-.74-1.83s-1.19-.67-2.08-.67c-.83,0-1.48,.18-1.95,.55-.47,.37-.7,.88-.7,1.53,0,.52,.22,.96,.66,1.33s1.2,.69,2.26,.99,1.9,.63,2.5,.99,1.05,.78,1.34,1.26,.44,1.05,.44,1.7c0,1.04-.4,1.87-1.21,2.49s-1.89,.94-3.24,.94c-.88,0-1.7-.17-2.46-.51s-1.35-.8-1.76-1.38-.62-1.25-.62-2h1.7c0,.77,.29,1.38,.86,1.83s1.33,.67,2.29,.67c.89,0,1.57-.18,2.05-.54s.71-.86,.71-1.49-.22-1.11-.66-1.45-1.24-.68-2.39-1.02Z"/><path class="cls-25" d="M954.72,116.86c.72-.88,1.66-1.33,2.81-1.33,2.01,0,3.02,1.13,3.04,3.4v6.28h-1.63v-6.29c0-.69-.16-1.19-.47-1.52s-.79-.49-1.44-.49c-.53,0-.99,.14-1.39,.42s-.71,.65-.93,1.11v6.78h-1.63v-13.5h1.63v5.14Z"/><path class="cls-25" d="M968.88,125.22c-.09-.19-.17-.52-.23-1-.76,.79-1.66,1.18-2.71,1.18-.94,0-1.71-.27-2.31-.8s-.9-1.2-.9-2.02c0-.99,.38-1.76,1.13-2.31s1.81-.82,3.18-.82h1.58v-.75c0-.57-.17-1.02-.51-1.36s-.84-.51-1.5-.51c-.58,0-1.07,.15-1.46,.44s-.59,.65-.59,1.06h-1.63c0-.47,.17-.93,.5-1.38s.79-.79,1.37-1.05,1.21-.39,1.9-.39c1.1,0,1.95,.27,2.58,.82s.94,1.3,.97,2.26v4.38c0,.87,.11,1.57,.33,2.08v.14h-1.71Zm-2.7-1.24c.51,0,.99-.13,1.45-.4s.79-.61,.99-1.03v-1.95h-1.27c-1.99,0-2.99,.58-2.99,1.75,0,.51,.17,.91,.51,1.2s.78,.43,1.31,.43Z"/><path class="cls-25" d="M980.83,120.57c0,1.45-.33,2.61-.99,3.5s-1.56,1.33-2.69,1.33-2.06-.37-2.72-1.1v4.58h-1.63v-13.17h1.49l.08,1.05c.66-.82,1.58-1.23,2.76-1.23s2.05,.43,2.71,1.29,1,2.06,1,3.59v.15Zm-1.63-.18c0-1.07-.23-1.92-.69-2.54s-1.08-.93-1.88-.93c-.98,0-1.72,.44-2.21,1.31v4.54c.49,.87,1.23,1.3,2.23,1.3,.78,0,1.4-.31,1.86-.93s.69-1.54,.69-2.76Z"/><path class="cls-25" d="M986.84,125.4c-1.29,0-2.34-.42-3.15-1.27s-1.21-1.98-1.21-3.4v-.3c0-.94,.18-1.79,.54-2.53s.86-1.32,1.51-1.74,1.35-.63,2.11-.63c1.24,0,2.2,.41,2.88,1.22s1.03,1.98,1.03,3.5v.68h-6.44c.02,.94,.3,1.69,.82,2.27s1.19,.87,2,.87c.57,0,1.06-.12,1.46-.35s.75-.54,1.05-.93l.99,.77c-.8,1.22-1.99,1.84-3.59,1.84Zm-.2-8.53c-.66,0-1.21,.24-1.65,.72s-.72,1.15-.83,2.01h4.76v-.12c-.05-.83-.27-1.47-.67-1.92s-.94-.68-1.62-.68Z"/></g><g><path class="cls-25" d="M890.34,97.02h-1.69v-12.8h1.69v12.8Z"/><path class="cls-25" d="M892.77,92.19c0-1.46,.35-2.63,1.04-3.52s1.6-1.33,2.72-1.33,2,.38,2.65,1.14v-4.96h1.63v13.5h-1.49l-.08-1.02c-.65,.8-1.56,1.2-2.72,1.2s-2-.45-2.69-1.35c-.7-.9-1.04-2.08-1.04-3.53v-.12Zm1.63,.18c0,1.08,.22,1.92,.67,2.53s1.06,.91,1.85,.91c1.03,0,1.78-.46,2.26-1.39v-4.37c-.49-.9-1.23-1.34-2.24-1.34-.8,0-1.42,.31-1.86,.92s-.67,1.53-.67,2.73Z"/><path class="cls-25" d="M907.26,97.2c-1.29,0-2.34-.42-3.15-1.27s-1.21-1.98-1.21-3.4v-.3c0-.94,.18-1.79,.54-2.53,.36-.74,.86-1.32,1.51-1.74,.65-.42,1.35-.63,2.1-.63,1.24,0,2.2,.41,2.88,1.22s1.03,1.98,1.03,3.5v.68h-6.44c.02,.94,.3,1.69,.82,2.27,.53,.58,1.19,.87,2,.87,.57,0,1.06-.12,1.46-.35s.75-.54,1.05-.93l.99,.77c-.8,1.22-1.99,1.84-3.59,1.84Zm-.2-8.53c-.66,0-1.21,.24-1.65,.72s-.72,1.15-.83,2.01h4.76v-.12c-.05-.83-.27-1.47-.67-1.92s-.94-.68-1.62-.68Z"/><path class="cls-25" d="M918.72,97.02c-.09-.19-.17-.52-.23-1-.76,.79-1.66,1.18-2.71,1.18-.94,0-1.71-.27-2.31-.8-.6-.53-.9-1.2-.9-2.02,0-.99,.38-1.76,1.13-2.31,.75-.55,1.81-.82,3.18-.82h1.58v-.75c0-.57-.17-1.02-.51-1.36s-.84-.51-1.5-.51c-.58,0-1.07,.15-1.46,.44s-.59,.65-.59,1.06h-1.63c0-.47,.17-.93,.5-1.38,.34-.44,.79-.79,1.37-1.05,.58-.26,1.21-.39,1.9-.39,1.1,0,1.95,.27,2.58,.82s.94,1.3,.97,2.26v4.38c0,.87,.11,1.57,.33,2.08v.14h-1.71Zm-2.7-1.24c.51,0,.99-.13,1.45-.4s.79-.61,.99-1.03v-1.95h-1.27c-1.99,0-2.99,.58-2.99,1.75,0,.51,.17,.91,.51,1.2s.78,.43,1.31,.43Z"/><path class="cls-25" d="M924.41,97.02h-1.63v-13.5h1.63v13.5Z"/><path class="cls-25" d="M935.49,91.32c-1.45-.42-2.5-.93-3.16-1.53-.66-.61-.99-1.35-.99-2.25,0-1.01,.4-1.84,1.21-2.5,.8-.66,1.85-.99,3.14-.99,.88,0,1.66,.17,2.35,.51,.69,.34,1.22,.81,1.6,1.41,.38,.6,.57,1.25,.57,1.96h-1.7c0-.78-.25-1.39-.74-1.83s-1.19-.67-2.08-.67c-.83,0-1.48,.18-1.95,.55-.47,.37-.7,.88-.7,1.53,0,.52,.22,.96,.66,1.33,.44,.36,1.2,.69,2.26,.99,1.06,.3,1.9,.63,2.5,.99,.6,.36,1.05,.78,1.34,1.26,.29,.48,.44,1.05,.44,1.7,0,1.04-.4,1.87-1.21,2.49s-1.89,.94-3.24,.94c-.88,0-1.7-.17-2.46-.51s-1.35-.8-1.76-1.38c-.41-.59-.62-1.25-.62-2h1.7c0,.77,.29,1.38,.86,1.83,.57,.45,1.33,.67,2.29,.67,.89,0,1.57-.18,2.05-.54s.71-.86,.71-1.49-.22-1.11-.66-1.45-1.24-.68-2.39-1.02Z"/><path class="cls-25" d="M941.75,92.19c0-1.49,.34-2.68,1.03-3.55s1.61-1.31,2.76-1.31,2.01,.38,2.66,1.13l.07-.96h1.49v13.17h-1.63v-4.54c-.66,.7-1.53,1.05-2.62,1.05-1.15,0-2.06-.45-2.75-1.34-.68-.89-1.02-2.08-1.02-3.56v-.11Zm1.63,.18c0,1.09,.23,1.95,.69,2.57,.46,.62,1.08,.93,1.86,.93,.97,0,1.71-.43,2.21-1.28v-4.66c-.52-.84-1.25-1.26-2.2-1.26-.79,0-1.41,.31-1.87,.94s-.69,1.55-.69,2.76Z"/><path class="cls-25" d="M958.25,96.08c-.63,.74-1.56,1.12-2.79,1.12-1.01,0-1.79-.29-2.32-.88-.53-.59-.8-1.46-.8-2.61v-6.19h1.63v6.14c0,1.44,.59,2.16,1.76,2.16,1.24,0,2.07-.46,2.48-1.39v-6.92h1.63v9.51h-1.55l-.04-.94Z"/><path class="cls-25" d="M968.17,97.02c-.09-.19-.17-.52-.23-1-.76,.79-1.66,1.18-2.71,1.18-.94,0-1.71-.27-2.31-.8-.6-.53-.9-1.2-.9-2.02,0-.99,.38-1.76,1.13-2.31,.75-.55,1.81-.82,3.18-.82h1.58v-.75c0-.57-.17-1.02-.51-1.36s-.84-.51-1.5-.51c-.58,0-1.07,.15-1.46,.44s-.59,.65-.59,1.06h-1.63c0-.47,.17-.93,.5-1.38,.34-.44,.79-.79,1.37-1.05,.58-.26,1.21-.39,1.9-.39,1.1,0,1.95,.27,2.58,.82s.94,1.3,.97,2.26v4.38c0,.87,.11,1.57,.33,2.08v.14h-1.71Zm-2.7-1.24c.51,0,.99-.13,1.45-.4s.79-.61,.99-1.03v-1.95h-1.27c-1.99,0-2.99,.58-2.99,1.75,0,.51,.17,.91,.51,1.2s.78,.43,1.31,.43Z"/><path class="cls-25" d="M976.69,88.97c-.25-.04-.51-.06-.8-.06-1.07,0-1.79,.45-2.17,1.36v6.75h-1.63v-9.51h1.58l.03,1.1c.53-.85,1.29-1.27,2.27-1.27,.32,0,.56,.04,.72,.12v1.51Z"/><path class="cls-25" d="M981.96,97.2c-1.29,0-2.34-.42-3.15-1.27s-1.21-1.98-1.21-3.4v-.3c0-.94,.18-1.79,.54-2.53,.36-.74,.87-1.32,1.51-1.74,.65-.42,1.35-.63,2.11-.63,1.24,0,2.2,.41,2.88,1.22s1.03,1.98,1.03,3.5v.68h-6.44c.02,.94,.3,1.69,.82,2.27,.52,.58,1.19,.87,2,.87,.57,0,1.06-.12,1.46-.35s.75-.54,1.05-.93l.99,.77c-.8,1.22-1.99,1.84-3.59,1.84Zm-.2-8.53c-.66,0-1.21,.24-1.65,.72s-.72,1.15-.83,2.01h4.76v-.12c-.05-.83-.27-1.47-.67-1.92s-.94-.68-1.62-.68Z"/><path class="cls-25" d="M995.02,92.99l.25,1.69,.36-1.52,2.53-8.93h1.42l2.47,8.93,.35,1.55,.27-1.72,1.99-8.75h1.7l-3.1,12.8h-1.54l-2.64-9.33-.2-.98-.2,.98-2.73,9.33h-1.54l-3.09-12.8h1.69l2.02,8.76Z"/><path class="cls-25" d="M1013.56,97.02c-.09-.19-.17-.52-.23-1-.76,.79-1.66,1.18-2.71,1.18-.94,0-1.71-.27-2.31-.8-.6-.53-.9-1.2-.9-2.02,0-.99,.38-1.76,1.13-2.31,.75-.55,1.81-.82,3.18-.82h1.58v-.75c0-.57-.17-1.02-.51-1.36s-.84-.51-1.5-.51c-.58,0-1.07,.15-1.46,.44s-.59,.65-.59,1.06h-1.63c0-.47,.17-.93,.5-1.38,.34-.44,.79-.79,1.37-1.05,.58-.26,1.21-.39,1.9-.39,1.1,0,1.95,.27,2.58,.82s.94,1.3,.97,2.26v4.38c0,.87,.11,1.57,.33,2.08v.14h-1.71Zm-2.7-1.24c.51,0,.99-.13,1.45-.4s.79-.61,.99-1.03v-1.95h-1.27c-1.99,0-2.99,.58-2.99,1.75,0,.51,.17,.91,.51,1.2s.78,.43,1.31,.43Z"/><path class="cls-25" d="M1020.48,94.81l2.36-7.3h1.66l-3.41,9.51h-1.24l-3.45-9.51h1.66l2.42,7.3Z"/><path class="cls-25" d="M1029.9,97.2c-1.29,0-2.34-.42-3.15-1.27s-1.21-1.98-1.21-3.4v-.3c0-.94,.18-1.79,.54-2.53,.36-.74,.87-1.32,1.51-1.74,.65-.42,1.35-.63,2.11-.63,1.24,0,2.2,.41,2.88,1.22s1.03,1.98,1.03,3.5v.68h-6.44c.02,.94,.3,1.69,.82,2.27,.52,.58,1.19,.87,2,.87,.57,0,1.06-.12,1.46-.35s.75-.54,1.05-.93l.99,.77c-.8,1.22-1.99,1.84-3.59,1.84Zm-.2-8.53c-.66,0-1.21,.24-1.65,.72s-.72,1.15-.83,2.01h4.76v-.12c-.05-.83-.27-1.47-.67-1.92s-.94-.68-1.62-.68Z"/></g><g><path class="cls-25" d="M666.22,546.36c-1.45-.42-2.5-.93-3.16-1.53s-.99-1.36-.99-2.25c0-1.01,.4-1.84,1.21-2.5s1.85-.99,3.14-.99c.88,0,1.66,.17,2.35,.51s1.22,.81,1.6,1.41,.57,1.25,.57,1.96h-1.7c0-.78-.25-1.39-.74-1.83-.49-.44-1.19-.67-2.08-.67-.83,0-1.48,.18-1.95,.55s-.7,.88-.7,1.53c0,.52,.22,.96,.66,1.33,.44,.36,1.2,.69,2.26,.99,1.06,.3,1.9,.63,2.5,.99s1.05,.78,1.34,1.26,.44,1.05,.44,1.7c0,1.04-.4,1.87-1.21,2.49s-1.89,.94-3.24,.94c-.88,0-1.7-.17-2.46-.5s-1.35-.8-1.76-1.38-.62-1.25-.62-2h1.7c0,.77,.29,1.38,.86,1.83s1.33,.67,2.29,.67c.89,0,1.57-.18,2.05-.54s.71-.86,.71-1.49-.22-1.11-.66-1.45-1.24-.68-2.39-1.02Z"/><path class="cls-25" d="M672.88,540.03c0-.26,.08-.49,.24-.67s.4-.27,.72-.27,.56,.09,.72,.27,.25,.4,.25,.67-.08,.48-.25,.66-.4,.26-.72,.26-.56-.09-.72-.26-.24-.4-.24-.66Zm1.76,12.03h-1.63v-9.51h1.63v9.51Z"/><path class="cls-25" d="M676.85,547.23c0-1.48,.34-2.66,1.03-3.54s1.59-1.31,2.72-1.31,2.07,.41,2.72,1.23l.08-1.05h1.49v9.28c0,1.23-.37,2.2-1.09,2.91s-1.71,1.06-2.94,1.06c-.69,0-1.36-.15-2.01-.44s-1.16-.69-1.5-1.2l.84-.98c.7,.86,1.55,1.29,2.56,1.29,.79,0,1.41-.22,1.85-.67s.66-1.07,.66-1.88v-.82c-.65,.75-1.54,1.12-2.66,1.12s-2.01-.45-2.7-1.34-1.03-2.12-1.03-3.67Zm1.63,.18c0,1.07,.22,1.92,.66,2.53s1.05,.92,1.85,.92c1.03,0,1.78-.47,2.26-1.4v-4.34c-.5-.91-1.25-1.36-2.24-1.36-.79,0-1.41,.31-1.85,.92s-.67,1.53-.67,2.73Z"/><path class="cls-25" d="M688.87,542.55l.05,1.2c.73-.91,1.68-1.37,2.85-1.37,2.01,0,3.02,1.13,3.04,3.4v6.28h-1.63v-6.29c0-.69-.16-1.19-.47-1.52s-.79-.49-1.44-.49c-.53,0-.99,.14-1.39,.42s-.71,.65-.93,1.11v6.78h-1.63v-9.51h1.54Z"/><path class="cls-25" d="M703.14,552.06c-.09-.19-.17-.52-.23-1-.76,.79-1.66,1.18-2.71,1.18-.94,0-1.71-.26-2.31-.79s-.9-1.2-.9-2.02c0-.99,.38-1.76,1.13-2.31s1.81-.82,3.18-.82h1.58v-.75c0-.57-.17-1.02-.51-1.36s-.84-.51-1.5-.51c-.58,0-1.07,.15-1.46,.44s-.59,.65-.59,1.06h-1.63c0-.47,.17-.93,.5-1.38s.79-.79,1.37-1.05,1.21-.39,1.9-.39c1.1,0,1.95,.27,2.58,.82s.94,1.3,.97,2.26v4.38c0,.87,.11,1.57,.33,2.08v.14h-1.71Zm-2.7-1.24c.51,0,.99-.13,1.45-.4s.79-.61,.99-1.03v-1.95h-1.27c-1.99,0-2.99,.58-2.99,1.75,0,.51,.17,.91,.51,1.2s.78,.43,1.31,.43Z"/><path class="cls-25" d="M708.82,552.06h-1.63v-13.5h1.63v13.5Z"/><path class="cls-25" d="M723.37,546.14h-5.55v4.54h6.44v1.38h-8.13v-12.8h8.04v1.38h-6.35v4.12h5.55v1.38Z"/><path class="cls-25" d="M725.55,547.23c0-1.46,.35-2.63,1.04-3.52s1.6-1.33,2.72-1.33,2,.38,2.65,1.14v-4.96h1.63v13.5h-1.49l-.08-1.02c-.65,.8-1.56,1.2-2.72,1.2s-2-.45-2.69-1.35-1.04-2.08-1.04-3.53v-.12Zm1.63,.18c0,1.08,.22,1.92,.67,2.53s1.06,.91,1.85,.91c1.03,0,1.78-.46,2.26-1.39v-4.37c-.49-.9-1.23-1.34-2.24-1.34-.8,0-1.42,.31-1.86,.92s-.67,1.53-.67,2.73Z"/><path class="cls-25" d="M735.71,547.23c0-1.48,.34-2.66,1.03-3.54s1.59-1.31,2.72-1.31,2.07,.41,2.72,1.23l.08-1.05h1.49v9.28c0,1.23-.37,2.2-1.09,2.91s-1.71,1.06-2.94,1.06c-.69,0-1.36-.15-2.01-.44s-1.16-.69-1.5-1.2l.84-.98c.7,.86,1.55,1.29,2.56,1.29,.79,0,1.41-.22,1.85-.67s.66-1.07,.66-1.88v-.82c-.65,.75-1.54,1.12-2.66,1.12s-2.01-.45-2.7-1.34-1.03-2.12-1.03-3.67Zm1.63,.18c0,1.07,.22,1.92,.66,2.53s1.05,.92,1.85,.92c1.03,0,1.78-.47,2.26-1.4v-4.34c-.5-.91-1.25-1.36-2.24-1.36-.79,0-1.41,.31-1.85,.92s-.67,1.53-.67,2.73Z"/><path class="cls-25" d="M750.14,552.24c-1.29,0-2.34-.42-3.15-1.27s-1.21-1.98-1.21-3.4v-.3c0-.94,.18-1.79,.54-2.53s.86-1.32,1.51-1.74,1.35-.63,2.11-.63c1.24,0,2.2,.41,2.88,1.22s1.03,1.98,1.03,3.5v.68h-6.44c.02,.94,.3,1.7,.82,2.27s1.19,.87,2,.87c.57,0,1.06-.12,1.46-.35s.75-.54,1.05-.93l.99,.77c-.8,1.22-1.99,1.84-3.59,1.84Zm-.2-8.53c-.66,0-1.21,.24-1.65,.72s-.72,1.15-.83,2.01h4.76v-.12c-.05-.83-.27-1.47-.67-1.92s-.94-.68-1.62-.68Z"/></g><g><path class="cls-25" d="M114.43,179.86l3.66-10.56h1.85l-4.75,12.8h-1.49l-4.74-12.8h1.84l3.64,10.56Z"/><path class="cls-25" d="M121.02,188.09v-7.46h2.11c.65,0,1.22,.14,1.72,.43,.5,.29,.88,.7,1.16,1.22,.27,.53,.41,1.14,.41,1.82v.48c0,.7-.14,1.32-.41,1.85-.27,.53-.66,.94-1.16,1.22s-1.09,.43-1.76,.44h-2.07Zm.98-6.66v5.85h1.04c.76,0,1.35-.24,1.77-.71s.63-1.14,.63-2.02v-.44c0-.85-.2-1.51-.6-1.98-.4-.47-.96-.71-1.69-.72h-1.15Z"/><path class="cls-25" d="M127.9,188.09v-7.46h2.11c.65,0,1.22,.14,1.72,.43,.5,.29,.88,.7,1.16,1.22,.27,.53,.41,1.14,.41,1.82v.48c0,.7-.14,1.32-.41,1.85-.27,.53-.66,.94-1.16,1.22s-1.09,.43-1.76,.44h-2.07Zm.98-6.66v5.85h1.04c.76,0,1.35-.24,1.77-.71s.63-1.14,.63-2.02v-.44c0-.85-.2-1.51-.6-1.98-.4-.47-.96-.71-1.69-.72h-1.15Z"/></g><g><path class="cls-25" d="M115.69,450.24c0,1.9-.33,3.32-.98,4.25s-1.67,1.39-3.05,1.39-2.38-.45-3.03-1.36c-.66-.9-1-2.26-1.02-4.06v-2.17c0-1.88,.33-3.28,.98-4.19s1.67-1.37,3.06-1.37,2.39,.44,3.04,1.32c.65,.88,.98,2.24,1,4.08v2.11Zm-1.63-2.22c0-1.38-.19-2.38-.58-3.01-.39-.63-1-.94-1.84-.94s-1.44,.31-1.82,.94-.58,1.59-.59,2.89v2.6c0,1.38,.2,2.4,.6,3.06,.4,.66,1.01,.99,1.82,.99s1.4-.31,1.79-.93,.59-1.6,.61-2.94v-2.66Z"/><path class="cls-25" d="M122.43,453.46l3.66-10.56h1.85l-4.75,12.8h-1.49l-4.74-12.8h1.84l3.64,10.56Z"/></g><g><path class="cls-25" d="M297.9,471.48h6.06v1.38h-7.76v-12.8h1.7v11.42Z"/><path class="cls-25" d="M305.2,468.02c0-.93,.18-1.77,.55-2.51s.88-1.32,1.53-1.72,1.4-.61,2.24-.61c1.29,0,2.34,.45,3.14,1.34s1.2,2.09,1.2,3.58v.11c0,.93-.18,1.76-.53,2.49s-.86,1.31-1.52,1.72-1.42,.62-2.27,.62c-1.29,0-2.33-.45-3.13-1.34s-1.2-2.08-1.2-3.56v-.11Zm1.63,.19c0,1.05,.24,1.9,.73,2.54s1.14,.96,1.96,.96,1.48-.32,1.97-.97,.73-1.55,.73-2.72c0-1.04-.25-1.89-.74-2.54s-1.15-.97-1.97-.97-1.45,.32-1.94,.96-.74,1.55-.74,2.74Z"/><path class="cls-25" d="M315.51,468.03c0-1.48,.34-2.66,1.03-3.54s1.59-1.31,2.72-1.31,2.07,.41,2.72,1.23l.08-1.05h1.49v9.28c0,1.23-.36,2.2-1.09,2.91s-1.71,1.06-2.94,1.06c-.69,0-1.36-.15-2.01-.44s-1.16-.69-1.5-1.2l.84-.98c.7,.86,1.55,1.29,2.56,1.29,.79,0,1.41-.22,1.85-.67s.66-1.07,.66-1.88v-.82c-.65,.75-1.54,1.12-2.66,1.12s-2.01-.45-2.7-1.34-1.03-2.12-1.03-3.67Zm1.63,.18c0,1.07,.22,1.92,.66,2.53s1.05,.92,1.85,.92c1.03,0,1.78-.47,2.26-1.4v-4.34c-.5-.91-1.25-1.36-2.24-1.36-.79,0-1.41,.31-1.85,.92s-.67,1.53-.67,2.73Z"/><path class="cls-25" d="M326,460.83c0-.26,.08-.49,.24-.67s.4-.27,.72-.27,.56,.09,.72,.27,.25,.4,.25,.67-.08,.48-.25,.66-.4,.26-.72,.26-.56-.09-.72-.26-.24-.4-.24-.66Zm1.76,12.03h-1.63v-9.51h1.63v9.51Z"/><path class="cls-25" d="M334.18,471.71c.58,0,1.09-.18,1.52-.53s.67-.79,.72-1.32h1.54c-.03,.54-.22,1.06-.56,1.56s-.81,.88-1.38,1.18-1.19,.44-1.83,.44c-1.29,0-2.32-.43-3.09-1.3s-1.15-2.05-1.15-3.55v-.27c0-.93,.17-1.75,.51-2.47s.83-1.28,1.46-1.68,1.39-.6,2.25-.6c1.07,0,1.95,.32,2.66,.96s1.08,1.47,1.13,2.49h-1.54c-.05-.62-.28-1.12-.7-1.52s-.94-.59-1.55-.59c-.83,0-1.47,.3-1.92,.89s-.68,1.45-.68,2.58v.31c0,1.1,.23,1.94,.68,2.53s1.1,.89,1.93,.89Z"/><path class="cls-25" d="M345.66,472.86c-.09-.19-.17-.52-.23-1-.76,.79-1.66,1.18-2.71,1.18-.94,0-1.71-.26-2.31-.79s-.9-1.2-.9-2.02c0-.99,.38-1.76,1.13-2.31s1.81-.82,3.18-.82h1.58v-.75c0-.57-.17-1.02-.51-1.36s-.84-.51-1.5-.51c-.58,0-1.07,.15-1.46,.44s-.59,.65-.59,1.06h-1.63c0-.47,.17-.93,.51-1.38s.79-.79,1.37-1.05,1.21-.39,1.9-.39c1.1,0,1.95,.27,2.58,.82s.94,1.3,.97,2.26v4.38c0,.87,.11,1.57,.33,2.08v.14h-1.71Zm-2.7-1.24c.51,0,.99-.13,1.45-.4s.79-.61,.99-1.03v-1.95h-1.27c-1.99,0-2.99,.58-2.99,1.75,0,.51,.17,.91,.51,1.2s.78,.43,1.31,.43Z"/><path class="cls-25" d="M351.34,472.86h-1.63v-13.5h1.63v13.5Z"/><path class="cls-25" d="M368.49,472.86h-1.7v-5.92h-6.45v5.92h-1.69v-12.8h1.69v5.5h6.45v-5.5h1.7v12.8Z"/><path class="cls-25" d="M373.3,472.86h-1.69v-12.8h1.69v12.8Z"/><path class="cls-25" d="M385.83,471.18c-.43,.62-1.04,1.09-1.81,1.39s-1.68,.46-2.71,.46-1.97-.24-2.78-.73-1.43-1.19-1.88-2.09-.67-1.95-.68-3.14v-1.12c0-1.93,.45-3.42,1.35-4.48s2.16-1.59,3.79-1.59c1.34,0,2.41,.34,3.23,1.02s1.31,1.65,1.49,2.9h-1.69c-.32-1.7-1.32-2.55-3.02-2.55-1.13,0-1.99,.4-2.57,1.19s-.88,1.95-.88,3.45v1.05c0,1.44,.33,2.58,.98,3.43,.66,.85,1.54,1.27,2.66,1.27,.63,0,1.19-.07,1.66-.21s.87-.38,1.18-.71v-2.87h-2.96v-1.38h4.64v4.69Z"/><path class="cls-25" d="M398.48,472.86h-1.7v-5.92h-6.45v5.92h-1.69v-12.8h1.69v5.5h6.45v-5.5h1.7v12.8Z"/><path class="cls-25" d="M405.62,467.67c0-1.32,.18-2.6,.53-3.81s.88-2.33,1.59-3.32,1.43-1.7,2.19-2.11l.33,1.07c-.86,.66-1.56,1.66-2.1,3.01s-.85,2.86-.9,4.53v.75c0,2.26,.4,4.22,1.23,5.89,.5,1,1.09,1.78,1.78,2.34l-.33,.99c-.78-.43-1.52-1.16-2.23-2.18-1.38-1.99-2.07-4.37-2.07-7.15Z"/><path class="cls-25" d="M417.01,472.86h-1.63v-10.84l-3.28,1.2v-1.48l4.66-1.75h.25v12.86Z"/><path class="cls-25" d="M425.69,467.75c0,1.31-.17,2.56-.51,3.76s-.87,2.3-1.57,3.32-1.45,1.73-2.22,2.16l-.34-.99c.9-.69,1.63-1.76,2.18-3.22s.83-3.07,.84-4.85v-.28c0-1.23-.13-2.37-.39-3.43s-.62-2.01-1.08-2.84-.98-1.49-1.55-1.96l.34-.99c.77,.43,1.51,1.14,2.21,2.14s1.22,2.11,1.57,3.31,.52,2.5,.52,3.88Z"/></g><g><path class="cls-25" d="M531.82,471.48h6.06v1.38h-7.76v-12.8h1.7v11.42Z"/><path class="cls-25" d="M539.12,468.02c0-.93,.18-1.77,.55-2.51s.88-1.32,1.53-1.72,1.4-.61,2.24-.61c1.29,0,2.34,.45,3.14,1.34s1.2,2.09,1.2,3.58v.11c0,.93-.18,1.76-.53,2.49s-.86,1.31-1.52,1.72-1.42,.62-2.27,.62c-1.29,0-2.33-.45-3.13-1.34s-1.2-2.08-1.2-3.56v-.11Zm1.63,.19c0,1.05,.25,1.9,.73,2.54s1.14,.96,1.96,.96,1.48-.32,1.97-.97,.73-1.55,.73-2.72c0-1.04-.25-1.89-.74-2.54s-1.15-.97-1.97-.97-1.45,.32-1.94,.96-.74,1.55-.74,2.74Z"/><path class="cls-25" d="M549.43,468.03c0-1.48,.34-2.66,1.03-3.54s1.59-1.31,2.72-1.31,2.07,.41,2.72,1.23l.08-1.05h1.49v9.28c0,1.23-.36,2.2-1.09,2.91s-1.71,1.06-2.94,1.06c-.69,0-1.36-.15-2.01-.44s-1.16-.69-1.5-1.2l.84-.98c.7,.86,1.55,1.29,2.56,1.29,.79,0,1.41-.22,1.85-.67s.66-1.07,.66-1.88v-.82c-.65,.75-1.54,1.12-2.66,1.12s-2.01-.45-2.7-1.34-1.03-2.12-1.03-3.67Zm1.63,.18c0,1.07,.22,1.92,.66,2.53s1.05,.92,1.85,.92c1.03,0,1.78-.47,2.26-1.4v-4.34c-.5-.91-1.25-1.36-2.24-1.36-.79,0-1.41,.31-1.85,.92s-.67,1.53-.67,2.73Z"/><path class="cls-25" d="M559.92,460.83c0-.26,.08-.49,.24-.67s.4-.27,.72-.27,.56,.09,.72,.27,.25,.4,.25,.67-.08,.48-.25,.66-.4,.26-.72,.26-.55-.09-.72-.26-.24-.4-.24-.66Zm1.76,12.03h-1.63v-9.51h1.63v9.51Z"/><path class="cls-25" d="M568.1,471.71c.58,0,1.09-.18,1.52-.53s.67-.79,.72-1.32h1.54c-.03,.54-.22,1.06-.56,1.56s-.81,.88-1.38,1.18-1.19,.44-1.83,.44c-1.29,0-2.32-.43-3.09-1.3s-1.15-2.05-1.15-3.55v-.27c0-.93,.17-1.75,.51-2.47s.83-1.28,1.46-1.68,1.39-.6,2.25-.6c1.07,0,1.95,.32,2.66,.96s1.08,1.47,1.13,2.49h-1.54c-.05-.62-.28-1.12-.7-1.52s-.94-.59-1.55-.59c-.83,0-1.47,.3-1.92,.89s-.68,1.45-.68,2.58v.31c0,1.1,.23,1.94,.68,2.53s1.1,.89,1.93,.89Z"/><path class="cls-25" d="M579.58,472.86c-.09-.19-.17-.52-.23-1-.76,.79-1.66,1.18-2.71,1.18-.94,0-1.71-.26-2.31-.79s-.9-1.2-.9-2.02c0-.99,.38-1.76,1.13-2.31s1.81-.82,3.18-.82h1.58v-.75c0-.57-.17-1.02-.51-1.36s-.84-.51-1.5-.51c-.58,0-1.07,.15-1.46,.44s-.59,.65-.59,1.06h-1.63c0-.47,.17-.93,.51-1.38s.79-.79,1.37-1.05,1.21-.39,1.9-.39c1.1,0,1.95,.27,2.58,.82s.94,1.3,.97,2.26v4.38c0,.87,.11,1.57,.33,2.08v.14h-1.71Zm-2.7-1.24c.51,0,.99-.13,1.45-.4s.79-.61,.99-1.03v-1.95h-1.27c-1.99,0-2.99,.58-2.99,1.75,0,.51,.17,.91,.51,1.2s.78,.43,1.31,.43Z"/><path class="cls-25" d="M585.26,472.86h-1.63v-13.5h1.63v13.5Z"/><path class="cls-25" d="M594.27,471.48h6.06v1.38h-7.76v-12.8h1.7v11.42Z"/><path class="cls-25" d="M611.53,466.87c0,1.25-.21,2.35-.63,3.28s-1.02,1.65-1.79,2.14-1.68,.74-2.71,.74-1.9-.25-2.68-.74-1.38-1.2-1.81-2.12-.65-1.98-.66-3.19v-.92c0-1.23,.21-2.32,.64-3.26s1.03-1.67,1.82-2.17,1.68-.75,2.68-.75,1.93,.25,2.71,.74,1.38,1.21,1.81,2.15,.63,2.03,.63,3.28v.81Zm-1.68-.83c0-1.52-.3-2.68-.91-3.49s-1.46-1.22-2.56-1.22-1.91,.41-2.52,1.22-.93,1.94-.95,3.38v.94c0,1.47,.31,2.63,.93,3.47s1.47,1.26,2.55,1.26,1.93-.4,2.53-1.19,.91-1.93,.92-3.42v-.95Z"/><path class="cls-25" d="M616.82,468.83l.25,1.69,.36-1.52,2.53-8.93h1.42l2.47,8.93,.35,1.55,.27-1.72,1.99-8.75h1.7l-3.1,12.8h-1.54l-2.64-9.33-.2-.98-.2,.98-2.73,9.33h-1.54l-3.09-12.8h1.69l2.02,8.76Z"/><path class="cls-25" d="M634.17,467.67c0-1.32,.18-2.6,.53-3.81s.88-2.33,1.59-3.32,1.43-1.7,2.19-2.11l.33,1.07c-.86,.66-1.56,1.66-2.1,3.01s-.85,2.86-.9,4.53v.75c0,2.26,.4,4.22,1.23,5.89,.5,1,1.09,1.78,1.78,2.34l-.33,.99c-.78-.43-1.52-1.16-2.23-2.18-1.38-1.99-2.07-4.37-2.07-7.15Z"/><path class="cls-25" d="M648.25,467.4c0,1.9-.33,3.32-.98,4.25s-1.67,1.39-3.05,1.39-2.38-.45-3.03-1.36-1-2.26-1.02-4.06v-2.17c0-1.88,.33-3.28,.98-4.19s1.67-1.37,3.06-1.37,2.39,.44,3.04,1.32,.98,2.24,1,4.08v2.11Zm-1.63-2.22c0-1.38-.19-2.38-.58-3.01s-1-.95-1.84-.95-1.44,.31-1.82,.94-.58,1.59-.59,2.89v2.6c0,1.38,.2,2.4,.6,3.06s1.01,.99,1.82,.99,1.4-.31,1.79-.93,.59-1.6,.61-2.94v-2.66Z"/><path class="cls-25" d="M654.25,467.75c0,1.31-.17,2.56-.51,3.76s-.87,2.3-1.57,3.32-1.45,1.73-2.22,2.16l-.34-.99c.9-.69,1.63-1.76,2.18-3.22s.83-3.07,.84-4.85v-.28c0-1.23-.13-2.37-.39-3.43s-.62-2.01-1.08-2.84-.98-1.49-1.55-1.96l.34-.99c.77,.43,1.51,1.14,2.21,2.14s1.22,2.11,1.57,3.31,.52,2.5,.52,3.88Z"/></g><g><path class="cls-25" d="M933.37,443.56h-4.11v11.42h-1.68v-11.42h-4.1v-1.38h9.9v1.38Z"/><path class="cls-25" d="M935.02,442.95c0-.26,.08-.49,.24-.67s.4-.27,.72-.27,.56,.09,.72,.27,.25,.4,.25,.67-.08,.48-.25,.66-.4,.26-.72,.26-.56-.09-.72-.26-.24-.4-.24-.66Zm1.76,12.03h-1.63v-9.51h1.63v9.51Z"/><path class="cls-25" d="M940.91,445.47l.04,1.05c.7-.82,1.64-1.23,2.82-1.23,1.33,0,2.24,.51,2.72,1.53,.32-.46,.73-.83,1.23-1.11s1.11-.42,1.8-.42c2.09,0,3.15,1.1,3.18,3.31v6.37h-1.63v-6.28c0-.68-.16-1.19-.47-1.53s-.83-.5-1.56-.5c-.6,0-1.1,.18-1.5,.54s-.63,.85-.69,1.46v6.31h-1.63v-6.23c0-1.38-.68-2.07-2.03-2.07-1.07,0-1.8,.45-2.19,1.36v6.94h-1.63v-9.51h1.54Z"/><path class="cls-25" d="M959.1,455.16c-1.29,0-2.34-.42-3.15-1.27s-1.21-1.98-1.21-3.4v-.3c0-.94,.18-1.79,.54-2.53s.86-1.32,1.51-1.74,1.35-.63,2.11-.63c1.24,0,2.2,.41,2.88,1.22s1.03,1.98,1.03,3.5v.68h-6.44c.02,.94,.3,1.69,.82,2.27s1.19,.87,2,.87c.57,0,1.06-.12,1.46-.35s.75-.54,1.05-.93l.99,.77c-.8,1.22-1.99,1.84-3.59,1.84Zm-.2-8.53c-.66,0-1.21,.24-1.65,.72s-.72,1.15-.83,2.01h4.76v-.12c-.05-.83-.27-1.47-.67-1.92s-.94-.68-1.62-.68Z"/></g></g></svg>