<?xml version="1.0" encoding="UTF-8"?><svg xmlns="http://www.w3.org/2000/svg" viewBox="0 0 1080 600.48"><defs><style>.cls-1{letter-spacing:0em;}.cls-2{font-size:11px;}.cls-2,.cls-3,.cls-4{fill:#cad2d9;}.cls-2,.cls-4{font-family:Roboto-Regular, Roboto;}.cls-5{stroke-width:1.07px;}.cls-5,.cls-6,.cls-7,.cls-8,.cls-9,.cls-10,.cls-11{fill:none;stroke:#cad2d9;stroke-miterlimit:10;}.cls-12{fill:#fff;}.cls-6{stroke-dasharray:0 0 6.45 3.23;}.cls-6,.cls-9,.cls-11{stroke-width:.6px;}.cls-7{stroke-width:1.08px;}.cls-8{stroke-width:1.04px;}.cls-4{font-size:9.65px;}.cls-13{letter-spacing:0em;}.cls-14{letter-spacing:0em;}.cls-10{stroke-width:1.13px;}.cls-11{stroke-dasharray:0 0 6.08 3.04;}.cls-15{letter-spacing:0em;}.cls-16{letter-spacing:0em;}</style></defs><g id="TEXT"><text class="cls-2" transform="translate(721.29 239.04)"><tspan class="cls-16" x="0" y="0">V</tspan><tspan class="cls-14" x="6.93" y="0">CO Input</tspan></text><text class="cls-2" transform="translate(836.01 155.52)"><tspan x="0" y="0">VDD</tspan></text><text class="cls-2" transform="translate(877.57 328.32)"><tspan x="0" y="0">11</tspan></text><text class="cls-2" transform="translate(942.48 322.56)"><tspan x="0" y="0">R4</tspan></text><text class="cls-2" transform="translate(778.68 313.53)"><tspan x="0" y="0">6</tspan></text><text class="cls-2" transform="translate(778.62 372.57)"><tspan x="0" y="0">7</tspan></text><text class="cls-2" transform="translate(778.68 241.53)"><tspan x="0" y="0">9</tspan></text><text class="cls-2" transform="translate(877.57 297.69)"><tspan x="0" y="0">12</tspan></text><text class="cls-2" transform="translate(834.78 184.32)"><tspan x="0" y="0">16</tspan></text><text class="cls-2" transform="translate(952.6 224.64)"><tspan x="0" y="0">Output</tspan></text><text class="cls-2" transform="translate(883.74 227.52)"><tspan x="0" y="0">4</tspan></text><g><path class="cls-3" d="M801.68,352.8h-1v-6.62l-2,.74v-.9l2.85-1.07h.16v7.86Z"/><path class="cls-3" d="M804.66,354.36l-.56-.39c.34-.47,.51-.95,.53-1.45v-.9h.97v.78c0,.36-.09,.72-.27,1.08-.18,.36-.4,.65-.67,.87Z"/><path class="cls-3" d="M814.59,352.8h-5.12v-.71l2.71-3.01c.4-.45,.68-.82,.83-1.11,.15-.29,.23-.58,.23-.88,0-.41-.12-.74-.37-1-.25-.26-.58-.39-.99-.39-.49,0-.88,.14-1.15,.42-.27,.28-.41,.67-.41,1.17h-.99c0-.72,.23-1.3,.7-1.75s1.08-.67,1.86-.67c.73,0,1.3,.19,1.72,.57,.42,.38,.63,.89,.63,1.52,0,.77-.49,1.69-1.47,2.75l-2.09,2.27h3.93v.81Z"/><path class="cls-3" d="M815.72,354.36l-.56-.39c.34-.47,.51-.95,.53-1.45v-.9h.97v.78c0,.36-.09,.72-.27,1.08-.18,.36-.4,.65-.67,.87Z"/><path class="cls-3" d="M821.97,348.41h.75c.47,0,.84-.13,1.11-.37,.27-.24,.4-.56,.4-.97,0-.92-.46-1.38-1.37-1.38-.43,0-.77,.12-1.03,.37s-.38,.57-.38,.97h-.99c0-.62,.23-1.13,.68-1.54s1.03-.62,1.73-.62c.74,0,1.32,.2,1.74,.59,.42,.39,.63,.93,.63,1.63,0,.34-.11,.67-.33,.99-.22,.32-.52,.56-.9,.71,.43,.14,.76,.36,1,.68,.23,.32,.35,.7,.35,1.16,0,.7-.23,1.26-.69,1.67-.46,.41-1.05,.62-1.79,.62s-1.33-.2-1.79-.6c-.46-.4-.69-.92-.69-1.57h1c0,.41,.13,.74,.4,.99,.27,.25,.63,.37,1.08,.37,.48,0,.85-.13,1.1-.38,.25-.25,.38-.61,.38-1.08s-.14-.8-.42-1.05c-.28-.24-.68-.37-1.21-.38h-.75v-.81Z"/><path class="cls-3" d="M826.78,354.36l-.56-.39c.34-.47,.51-.95,.53-1.45v-.9h.97v.78c0,.36-.09,.72-.27,1.08-.18,.36-.4,.65-.67,.87Z"/><path class="cls-3" d="M834.85,352.8h-1v-6.62l-2,.74v-.9l2.85-1.07h.16v7.86Z"/><path class="cls-3" d="M842.67,349.46c0,1.16-.2,2.03-.6,2.59-.4,.57-1.02,.85-1.86,.85s-1.45-.28-1.85-.83c-.4-.55-.61-1.38-.62-2.48v-1.33c0-1.15,.2-2,.6-2.56s1.02-.84,1.87-.84,1.46,.27,1.86,.81,.6,1.37,.61,2.49v1.29Zm-.99-1.36c0-.84-.12-1.46-.36-1.84s-.61-.58-1.12-.58-.88,.19-1.11,.57c-.23,.38-.35,.97-.36,1.77v1.59c0,.84,.12,1.47,.37,1.87,.25,.4,.62,.6,1.11,.6s.85-.19,1.09-.57c.24-.38,.36-.98,.37-1.79v-1.63Z"/><path class="cls-3" d="M844.01,354.36l-.56-.39c.34-.47,.51-.95,.53-1.45v-.9h.97v.78c0,.36-.09,.72-.27,1.08-.18,.36-.4,.65-.67,.87Z"/><path class="cls-3" d="M801.68,366h-1v-6.62l-2,.74v-.9l2.85-1.07h.16v7.86Z"/><path class="cls-3" d="M806.03,361.61h.75c.47,0,.84-.13,1.11-.37,.27-.24,.4-.56,.4-.97,0-.92-.46-1.38-1.37-1.38-.43,0-.77,.12-1.03,.37s-.38,.57-.38,.97h-.99c0-.62,.23-1.13,.68-1.54s1.03-.62,1.73-.62c.74,0,1.32,.2,1.74,.59,.42,.39,.63,.93,.63,1.63,0,.34-.11,.67-.33,.99-.22,.32-.52,.56-.9,.71,.43,.14,.76,.36,1,.68,.23,.32,.35,.7,.35,1.16,0,.7-.23,1.26-.69,1.67-.46,.41-1.05,.62-1.79,.62s-1.33-.2-1.79-.6c-.46-.4-.69-.92-.69-1.57h1c0,.41,.13,.74,.4,.99,.27,.25,.63,.37,1.08,.37,.48,0,.85-.13,1.1-.38,.25-.25,.38-.61,.38-1.08s-.14-.8-.42-1.05c-.28-.24-.68-.37-1.21-.38h-.75v-.81Z"/><path class="cls-3" d="M810.83,367.56l-.56-.39c.34-.47,.51-.95,.53-1.45v-.9h.97v.78c0,.36-.09,.72-.27,1.08-.18,.36-.4,.65-.67,.87Z"/><path class="cls-3" d="M818.91,366h-1v-6.62l-2,.74v-.9l2.85-1.07h.16v7.86Z"/><path class="cls-3" d="M826.02,363.37h1.08v.81h-1.08v1.82h-1v-1.82h-3.56v-.58l3.5-5.42h1.06v5.19Zm-3.43,0h2.43v-3.83l-.12,.21-2.32,3.62Z"/><path class="cls-3" d="M828.07,367.56l-.56-.39c.34-.47,.51-.95,.53-1.45v-.9h.97v.78c0,.36-.09,.72-.27,1.08-.18,.36-.4,.65-.67,.87Z"/><path class="cls-3" d="M836.15,366h-1v-6.62l-2,.74v-.9l2.85-1.07h.16v7.86Z"/><path class="cls-3" d="M839.52,362.08l.4-3.9h4.01v.92h-3.16l-.24,2.13c.38-.23,.82-.34,1.3-.34,.71,0,1.28,.24,1.7,.71s.63,1.11,.63,1.91-.22,1.44-.65,1.9c-.43,.46-1.04,.7-1.82,.7-.69,0-1.25-.19-1.69-.57-.44-.38-.69-.91-.75-1.59h.94c.06,.45,.22,.78,.48,1.01s.6,.34,1.02,.34c.46,0,.82-.16,1.09-.47,.26-.32,.39-.75,.39-1.31,0-.52-.14-.94-.43-1.26-.29-.32-.66-.48-1.14-.48-.43,0-.77,.1-1.02,.29l-.26,.21-.79-.2Z"/><path class="cls-3" d="M799.45,373.39l.03,.73c.44-.56,1.02-.84,1.74-.84,1.23,0,1.85,.69,1.86,2.08v3.84h-.99v-3.85c0-.42-.1-.73-.29-.93-.19-.2-.48-.3-.88-.3-.32,0-.61,.09-.85,.26-.24,.17-.43,.4-.57,.68v4.14h-.99v-5.81h.94Z"/><path class="cls-3" d="M804.32,376.24c0-.57,.11-1.08,.34-1.54,.22-.45,.54-.8,.93-1.05,.4-.25,.86-.37,1.37-.37,.79,0,1.43,.27,1.92,.82,.49,.55,.73,1.28,.73,2.19v.07c0,.57-.11,1.07-.33,1.52s-.53,.8-.93,1.05c-.4,.25-.87,.38-1.39,.38-.79,0-1.43-.27-1.92-.82-.49-.55-.73-1.27-.73-2.17v-.07Zm1,.12c0,.64,.15,1.16,.45,1.55s.7,.59,1.2,.59,.91-.2,1.2-.59,.45-.95,.45-1.66c0-.64-.15-1.15-.45-1.55s-.71-.59-1.21-.59-.89,.2-1.19,.58c-.3,.39-.45,.95-.45,1.68Z"/><path class="cls-3" d="M812.2,371.98v1.41h1.09v.77h-1.09v3.61c0,.23,.05,.41,.15,.52,.1,.12,.26,.17,.49,.17,.11,0,.27-.02,.47-.06v.8c-.26,.07-.52,.11-.76,.11-.44,0-.78-.13-1-.4-.23-.27-.34-.65-.34-1.14v-3.6h-1.06v-.77h1.06v-1.41h.99Z"/><path class="cls-3" d="M820.76,378.63c-.39,.45-.95,.68-1.7,.68-.62,0-1.09-.18-1.42-.54-.32-.36-.49-.89-.49-1.6v-3.78h.99v3.75c0,.88,.36,1.32,1.07,1.32,.76,0,1.26-.28,1.51-.85v-4.23h.99v5.81h-.95l-.02-.57Z"/><path class="cls-3" d="M826.62,377.66c0-.27-.1-.48-.3-.63s-.55-.28-1.06-.38-.9-.24-1.2-.39c-.29-.15-.51-.33-.66-.54-.14-.21-.21-.46-.21-.74,0-.48,.2-.88,.6-1.21,.4-.33,.92-.49,1.54-.49,.66,0,1.19,.17,1.6,.51,.41,.34,.62,.77,.62,1.3h-1c0-.27-.12-.51-.35-.7-.23-.2-.52-.3-.87-.3s-.64,.08-.85,.24-.31,.36-.31,.62c0,.24,.09,.42,.28,.54s.53,.24,1.03,.35c.5,.11,.9,.24,1.21,.4,.31,.15,.54,.34,.68,.56s.22,.48,.22,.79c0,.52-.21,.94-.62,1.25-.42,.31-.95,.47-1.62,.47-.47,0-.88-.08-1.24-.25s-.64-.39-.84-.69c-.2-.29-.3-.62-.3-.96h.99c.02,.33,.15,.6,.4,.79s.58,.29,.99,.29c.38,0,.68-.08,.91-.23s.34-.36,.34-.61Z"/><path class="cls-3" d="M831.32,379.31c-.79,0-1.43-.26-1.92-.78s-.74-1.21-.74-2.08v-.18c0-.58,.11-1.09,.33-1.54,.22-.45,.53-.81,.92-1.06s.82-.38,1.29-.38c.76,0,1.34,.25,1.76,.75,.42,.5,.63,1.21,.63,2.14v.41h-3.94c.01,.57,.18,1.04,.5,1.39s.73,.53,1.22,.53c.35,0,.65-.07,.89-.21,.24-.14,.46-.33,.64-.57l.61,.47c-.49,.75-1.22,1.12-2.19,1.12Zm-.12-5.21c-.4,0-.74,.15-1.01,.44s-.44,.7-.5,1.23h2.91v-.08c-.03-.5-.17-.9-.41-1.17s-.57-.42-.99-.42Z"/><path class="cls-3" d="M834.49,376.25c0-.89,.21-1.61,.63-2.15,.42-.54,.98-.81,1.66-.81s1.22,.23,1.62,.7v-3.03h.99v8.25h-.91l-.05-.62c-.4,.49-.95,.73-1.66,.73s-1.22-.28-1.65-.83c-.42-.55-.64-1.27-.64-2.16v-.08Zm.99,.11c0,.66,.14,1.17,.41,1.55,.27,.37,.65,.56,1.13,.56,.63,0,1.09-.28,1.38-.85v-2.67c-.3-.55-.75-.82-1.37-.82-.49,0-.87,.19-1.14,.56s-.41,.93-.41,1.67Z"/></g><text class="cls-2" transform="translate(203.65 256.32)"><tspan x="0" y="0">15</tspan></text><text class="cls-2" transform="translate(203.65 211.68)"><tspan x="0" y="0">14</tspan></text><text class="cls-2" transform="translate(203.65 342.72)"><tspan x="0" y="0">13</tspan></text><text class="cls-2" transform="translate(322.14 198.72)"><tspan x="0" y="0">2</tspan></text><text class="cls-2" transform="translate(323.58 213.12)"><tspan x="0" y="0">1</tspan></text><text class="cls-4" transform="translate(322.9 227.52)"><tspan x="0" y="0">3</tspan></text><text class="cls-4" transform="translate(322.9 241.92)"><tspan x="0" y="0">7</tspan></text><text class="cls-2" transform="translate(317.41 256.32)"><tspan x="0" y="0">11</tspan></text><text class="cls-2" transform="translate(322.14 270.72)"><tspan x="0" y="0">4</tspan></text><text class="cls-2" transform="translate(322.14 285.12)"><tspan x="0" y="0">5</tspan></text><text class="cls-2" transform="translate(315.97 299.52)"><tspan x="0" y="0">10</tspan></text><text class="cls-2" transform="translate(316.38 371.52)"><tspan x="0" y="0">12</tspan></text><g><path class="cls-3" d="M125.65,308.17c-.1,.83-.4,1.47-.92,1.92-.51,.45-1.2,.67-2.05,.67-.92,0-1.66-.33-2.22-.99-.56-.66-.84-1.55-.84-2.66v-.75c0-.73,.13-1.37,.39-1.92,.26-.55,.63-.97,1.1-1.27,.48-.3,1.03-.44,1.65-.44,.83,0,1.5,.23,2,.7s.79,1.11,.88,1.93h-1.04c-.09-.62-.28-1.08-.58-1.36-.3-.28-.72-.42-1.25-.42-.66,0-1.18,.24-1.55,.73-.37,.49-.56,1.18-.56,2.08v.76c0,.85,.18,1.52,.53,2.03s.85,.75,1.49,.75c.57,0,1.01-.13,1.32-.39,.31-.26,.51-.71,.61-1.36h1.04Z"/><path class="cls-3" d="M127.98,310.65h-.99v-8.25h.99v8.25Z"/><path class="cls-3" d="M129.31,307.69c0-.57,.11-1.08,.34-1.54,.22-.45,.54-.8,.93-1.05,.4-.25,.85-.37,1.37-.37,.79,0,1.43,.27,1.92,.82,.49,.55,.73,1.28,.73,2.19v.07c0,.57-.11,1.07-.33,1.52-.22,.45-.53,.8-.93,1.05-.4,.25-.87,.38-1.39,.38-.79,0-1.43-.27-1.92-.82-.49-.55-.73-1.27-.73-2.17v-.07Zm1,.12c0,.64,.15,1.16,.45,1.55,.3,.39,.7,.59,1.2,.59s.91-.2,1.2-.59,.45-.95,.45-1.66c0-.64-.15-1.15-.45-1.55-.3-.4-.7-.59-1.21-.59s-.89,.2-1.19,.58c-.3,.39-.45,.95-.45,1.68Z"/><path class="cls-3" d="M138.18,309.95c.35,0,.66-.11,.93-.32s.41-.48,.44-.81h.94c-.02,.33-.13,.65-.34,.95s-.49,.54-.85,.72c-.35,.18-.73,.27-1.12,.27-.79,0-1.42-.26-1.89-.79-.47-.53-.7-1.25-.7-2.17v-.17c0-.57,.1-1.07,.31-1.51,.21-.44,.51-.78,.89-1.03,.39-.24,.85-.37,1.38-.37,.65,0,1.19,.2,1.62,.58,.43,.39,.66,.9,.69,1.52h-.94c-.03-.38-.17-.68-.43-.93-.26-.24-.57-.36-.95-.36-.5,0-.9,.18-1.17,.54-.28,.36-.42,.89-.42,1.58v.19c0,.67,.14,1.19,.41,1.55s.67,.54,1.18,.54Z"/><path class="cls-3" d="M143.23,307.96l-.62,.65v2.04h-.99v-8.25h.99v4.99l.53-.64,1.81-1.91h1.21l-2.26,2.43,2.52,3.38h-1.17l-2.02-2.69Z"/><path class="cls-3" d="M121.01,323.85h-1.03v-7.82h1.03v7.82Z"/><path class="cls-3" d="M123.68,318.04l.03,.73c.44-.56,1.02-.84,1.74-.84,1.23,0,1.85,.69,1.86,2.08v3.84h-.99v-3.85c0-.42-.1-.73-.29-.93-.19-.2-.48-.3-.88-.3-.32,0-.6,.09-.85,.26s-.43,.4-.57,.68v4.14h-.99v-5.81h.94Z"/><path class="cls-3" d="M129.8,318.74c.44-.54,1.01-.81,1.72-.81,1.23,0,1.85,.69,1.86,2.08v3.84h-.99v-3.85c0-.42-.1-.73-.29-.93-.19-.2-.48-.3-.88-.3-.32,0-.6,.09-.85,.26s-.43,.4-.57,.68v4.14h-.99v-8.25h.99v3.14Z"/><path class="cls-3" d="M134.87,316.5c0-.16,.05-.3,.15-.41,.1-.11,.24-.17,.44-.17s.34,.06,.44,.17c.1,.11,.15,.25,.15,.41s-.05,.3-.15,.4-.25,.16-.44,.16-.34-.05-.44-.16c-.1-.11-.15-.24-.15-.4Zm1.07,7.35h-.99v-5.81h.99v5.81Z"/><path class="cls-3" d="M142.45,321.01c0,.89-.2,1.6-.61,2.14s-.96,.81-1.64,.81c-.73,0-1.3-.26-1.7-.78l-.05,.67h-.91v-8.25h.99v3.08c.4-.5,.95-.75,1.66-.75s1.26,.27,1.66,.8c.4,.53,.6,1.26,.6,2.19v.09Zm-.99-.11c0-.68-.13-1.2-.39-1.57s-.64-.55-1.13-.55c-.66,0-1.13,.3-1.41,.91v2.51c.3,.61,.78,.91,1.42,.91,.48,0,.85-.18,1.11-.55s.4-.92,.4-1.67Z"/><path class="cls-3" d="M143.71,316.5c0-.16,.05-.3,.15-.41,.1-.11,.24-.17,.44-.17s.34,.06,.44,.17c.1,.11,.15,.25,.15,.41s-.05,.3-.15,.4-.25,.16-.44,.16-.34-.05-.44-.16c-.1-.11-.15-.24-.15-.4Zm1.07,7.35h-.99v-5.81h.99v5.81Z"/><path class="cls-3" d="M147.72,316.63v1.41h1.08v.77h-1.08v3.61c0,.23,.05,.41,.15,.52,.1,.12,.26,.17,.49,.17,.11,0,.27-.02,.47-.06v.8c-.26,.07-.52,.11-.76,.11-.44,0-.78-.13-1-.4-.23-.27-.34-.65-.34-1.14v-3.6h-1.06v-.77h1.06v-1.41h.99Z"/></g><text class="cls-2" transform="translate(111.41 237.67)"><tspan x="0" y="0">Reset</tspan></text><text class="cls-2" transform="translate(375.39 395.09)"><tspan x="0" y="0">Car</tspan><tspan class="cls-13" x="16.87" y="0">r</tspan><tspan x="20.68" y="0">y Out</tspan></text><text class="cls-2" transform="translate(274.41 155.52)"><tspan x="0" y="0">VDD</tspan></text><text class="cls-2" transform="translate(295.42 201.6)"><tspan x="0" y="0">“0“</tspan></text><text class="cls-2" transform="translate(295.42 216)"><tspan x="0" y="0">“1“</tspan></text><text class="cls-2" transform="translate(295.42 230.4)"><tspan x="0" y="0">“2“</tspan></text><text class="cls-2" transform="translate(295.42 244.8)"><tspan x="0" y="0">“3“</tspan></text><text class="cls-2" transform="translate(295.42 259.2)"><tspan x="0" y="0">“4“</tspan></text><text class="cls-2" transform="translate(295.42 273.6)"><tspan x="0" y="0">“5“</tspan></text><text class="cls-2" transform="translate(295.42 288)"><tspan x="0" y="0">“6“</tspan></text><text class="cls-2" transform="translate(295.42 302.4)"><tspan x="0" y="0">“7“</tspan></text><text class="cls-2" transform="translate(288 289.89) rotate(-90)"><tspan x="0" y="0">Sequencer steps</tspan></text><text class="cls-4" transform="translate(256.64 184.35)"><tspan x="0" y="0">16</tspan></text><text class="cls-4" transform="translate(262.71 398.4)"><tspan x="0" y="0">8</tspan></text><text class="cls-2" transform="translate(707.57 342.72)"><tspan x="0" y="0">C1</tspan></text><text class="cls-2" transform="translate(1023.13 357.12)"><tspan x="0" y="0">R5</tspan></text><text class="cls-2" transform="translate(883.74 371.52)"><tspan x="0" y="0">5</tspan></text><text class="cls-2" transform="translate(90.72 492.09)"><tspan x="0" y="0">*Pull down </tspan><tspan class="cls-1" x="55.34" y="0">r</tspan><tspan x="58.96" y="0">esis</tspan><tspan class="cls-15" x="78.8" y="0">t</tspan><tspan x="82.29" y="0">ors</tspan></text><text class="cls-2" transform="translate(824.19 399.41)"><tspan x="0" y="0">8</tspan></text><text class="cls-2" transform="translate(547.07 208.8)"><tspan x="0" y="0">Repeat for each step</tspan></text><text class="cls-2" transform="translate(106.36 368.64)"><tspan x="0" y="0">R1*</tspan></text><text class="cls-2" transform="translate(163.96 368.64)"><tspan x="0" y="0">R2*</tspan></text><text class="cls-2" transform="translate(699.13 269.28)"><tspan x="0" y="0">R3</tspan></text><text class="cls-2" transform="translate(538.67 262.08)"><tspan x="0" y="0">VR1</tspan></text><text class="cls-2" transform="translate(496.91 312.48)"><tspan x="0" y="0">VR2</tspan></text><text class="cls-2" transform="translate(619.7 236.16)"><tspan x="0" y="0">D1</tspan></text><text class="cls-2" transform="translate(619.7 286.56)"><tspan x="0" y="0">D2</tspan></text><text class="cls-2" transform="translate(86.65 446.4)"><tspan x="0" y="0">GND</tspan></text><text class="cls-2" transform="translate(144.25 446.4)"><tspan x="0" y="0">GND</tspan></text><text class="cls-2" transform="translate(497.05 446.4)"><tspan x="0" y="0">GND</tspan></text><text class="cls-2" transform="translate(677.05 446.4)"><tspan x="0" y="0">GND</tspan></text><text class="cls-2" transform="translate(921.85 446.4)"><tspan x="0" y="0">GND</tspan></text><text class="cls-2" transform="translate(259.45 446.4)"><tspan x="0" y="0">GND</tspan></text><text class="cls-2" transform="translate(821.05 446.4)"><tspan x="0" y="0">GND</tspan></text><text class="cls-2" transform="translate(157.93 273.6)"><tspan x="0" y="0">V</tspan></text><text class="cls-2" transform="translate(164.92 277.26) scale(.58)"><tspan x="0" y="0">CC</tspan></text><text class="cls-2" transform="translate(115.04 106.17)"><tspan x="0" y="0">Clock Input</tspan></text><text class="cls-2" transform="translate(305.9 170.97)"><tspan x="0" y="0">CD4022</tspan></text><text class="cls-2" transform="translate(874.7 173.85)"><tspan x="0" y="0">CD4046</tspan></text><text class="cls-2" transform="translate(744.98 336.96)"><tspan x="0" y="0">100nF</tspan></text><text class="cls-2" transform="translate(862.69 532.41)"><tspan x="0" y="0">Step Sequencer (N. Collins)</tspan></text><text class="cls-2" transform="translate(914.86 349.92)"><tspan x="0" y="0">10K</tspan></text><text class="cls-2" transform="translate(943.45 394.56)"><tspan x="0" y="0">100K</tspan></text><text class="cls-2" transform="translate(697.21 282.24)"><tspan x="0" y="0">100K</tspan></text><text class="cls-2" transform="translate(944.95 384.48)"><tspan x="0" y="0">VR</tspan></text><text class="cls-2" transform="translate(100.33 187.2)"><tspan x="0" y="0">V</tspan></text><text class="cls-2" transform="translate(107.33 190.86) scale(.58)"><tspan x="0" y="0">CC</tspan></text></g><g id="Field"><circle class="cls-3" cx="97.92" cy="259.2" r="1.44"/><circle class="cls-3" cx="155.52" cy="345.6" r="1.44"/><circle class="cls-3" cx="645.12" cy="244.8" r="1.44"/><circle class="cls-3" cx="688.32" cy="244.8" r="1.44"/><circle class="cls-3" cx="976.32" cy="345.6" r="1.44"/><polygon class="cls-3" points="615.66 244.86 600.48 236.28 600.48 253.44 615.66 244.86"/><polygon class="cls-3" points="615.66 295.26 600.48 286.68 600.48 303.84 615.66 295.26"/><rect class="cls-3" x="722.88" y="347.04" width="31.68" height="2.88"/><rect class="cls-3" x="722.88" y="341.28" width="31.68" height="2.88"/></g><g id="Line"><line class="cls-10" x1="155.52" y1="331.2" x2="165.6" y2="305.28"/><line class="cls-10" x1="97.92" y1="244.8" x2="108" y2="218.88"/><line class="cls-10" x1="738.72" y1="374.4" x2="789.12" y2="374.4"/><line class="cls-10" x1="738.72" y1="316.8" x2="789.12" y2="316.8"/><line class="cls-5" x1="738.72" y1="349.92" x2="738.72" y2="374.4"/><rect class="cls-8" x="789.12" y="187.2" width="86.4" height="201.6"/><line class="cls-10" x1="875.52" y1="331.2" x2="904.32" y2="331.2"/><g><line class="cls-10" x1="875.52" y1="230.4" x2="994.82" y2="230.4"/><polygon class="cls-3" points="989.19 237.36 988.03 236.11 994.17 230.4 988.03 224.69 989.19 223.45 996.67 230.4 989.19 237.36"/></g><line class="cls-10" x1="875.81" y1="302.4" x2="1019.52" y2="302.4"/><rect class="cls-10" x="227.52" y="187.2" width="86.4" height="201.6"/><line class="cls-10" x1="313.92" y1="201.6" x2="529.92" y2="201.6"/><line class="cls-10" x1="313.92" y1="216" x2="486.72" y2="216"/><g><line class="cls-10" x1="313.92" y1="230.4" x2="423.19" y2="230.4"/><polygon class="cls-3" points="417.56 237.36 416.4 236.11 422.54 230.4 416.4 224.69 417.56 223.45 425.04 230.4 417.56 237.36"/></g><g><line class="cls-10" x1="313.92" y1="244.8" x2="423.19" y2="244.8"/><polygon class="cls-3" points="417.56 251.76 416.4 250.51 422.54 244.8 416.4 239.09 417.56 237.85 425.04 244.8 417.56 251.76"/></g><g><line class="cls-10" x1="313.92" y1="259.2" x2="423.19" y2="259.2"/><polygon class="cls-3" points="417.56 266.16 416.4 264.91 422.54 259.2 416.4 253.49 417.56 252.25 425.04 259.2 417.56 266.16"/></g><g><line class="cls-10" x1="313.68" y1="273.6" x2="422.96" y2="273.6"/><polygon class="cls-3" points="417.32 280.56 416.16 279.31 422.3 273.6 416.16 267.89 417.32 266.65 424.8 273.6 417.32 280.56"/></g><g><line class="cls-10" x1="313.68" y1="288" x2="422.96" y2="288"/><polygon class="cls-3" points="417.32 294.96 416.16 293.71 422.3 288 416.16 282.29 417.32 281.05 424.8 288 417.32 294.96"/></g><g><line class="cls-10" x1="313.68" y1="302.4" x2="422.96" y2="302.4"/><polygon class="cls-3" points="417.32 309.36 416.16 308.11 422.3 302.4 416.16 296.69 417.32 295.45 424.8 302.4 417.32 309.36"/></g><line class="cls-5" x1="313.92" y1="374.4" x2="342.72" y2="374.4"/><g><line class="cls-10" x1="97.92" y1="259.2" x2="225.68" y2="259.2"/><polygon class="cls-3" points="220.04 266.16 218.88 264.91 225.02 259.2 218.88 253.49 220.04 252.25 227.52 259.2 220.04 266.16"/></g><g><line class="cls-10" x1="141.12" y1="216" x2="225.68" y2="216"/><polygon class="cls-3" points="220.04 222.96 218.88 221.71 225.02 216 218.88 210.29 220.04 209.05 227.52 216 220.04 222.96"/></g><g><line class="cls-10" x1="155.52" y1="345.6" x2="225.68" y2="345.6"/><polygon class="cls-3" points="220.04 352.56 218.88 351.31 225.02 345.6 218.88 339.89 220.04 338.65 227.52 345.6 220.04 352.56"/></g><g><line class="cls-5" x1="270.72" y1="187.2" x2="270.72" y2="154.3"/><polygon class="cls-3" points="275.83 163.81 274.32 164.35 270.72 154.46 267.12 164.35 265.61 163.81 270.72 149.76 275.83 163.81"/></g><line class="cls-10" x1="270.72" y1="388.69" x2="270.72" y2="417.6"/><line class="cls-10" x1="342.72" y1="403.2" x2="342.72" y2="374.4"/><g><line class="cls-10" x1="342.72" y1="403.2" x2="428.84" y2="403.2"/><polygon class="cls-3" points="423.21 410.16 422.05 408.91 428.19 403.2 422.05 397.49 423.21 396.25 430.69 403.2 423.21 410.16"/></g><rect class="cls-7" x="511.2" y="239.04" width="37.44" height="11.52" transform="translate(774.72 -285.12) rotate(90)"/><line class="cls-10" x1="529.92" y1="226.08" x2="529.92" y2="211.68"/><line class="cls-10" x1="529.92" y1="290.88" x2="529.92" y2="263.52"/><g><line class="cls-10" x1="540.75" y1="244.8" x2="552.96" y2="244.8"/><polygon class="cls-3" points="541.49 239.29 541.49 250.31 535.98 244.8 541.49 239.29"/></g><line class="cls-5" x1="738.72" y1="341.28" x2="738.72" y2="316.8"/><line class="cls-10" x1="875.81" y1="374.4" x2="904.32" y2="374.4"/><line class="cls-10" x1="904.32" y1="417.6" x2="904.32" y2="374.4"/><polygon class="cls-10" points="270.72 429.12 280.8 417.6 260.64 417.6 270.72 429.12"/><polygon class="cls-10" points="97.92 429.12 108 417.6 87.84 417.6 97.92 429.12"/><polygon class="cls-10" points="529.92 429.12 540 417.6 519.84 417.6 529.92 429.12"/><line class="cls-10" x1="616.32" y1="253.44" x2="616.32" y2="236.28"/><line class="cls-10" x1="587.52" y1="244.8" x2="600.48" y2="244.8"/><line class="cls-10" x1="616.32" y1="244.8" x2="630.72" y2="244.8"/><g><rect class="cls-7" x="904.32" y="325.44" width="37.44" height="11.52"/><line class="cls-10" x1="904.32" y1="331.2" x2="889.92" y2="331.2"/><line class="cls-10" x1="961.92" y1="331.2" x2="941.76" y2="331.2"/></g><line class="cls-10" x1="832.32" y1="388.69" x2="832.32" y2="417.6"/><polygon class="cls-10" points="832.32 429.12 842.4 417.6 822.24 417.6 832.32 429.12"/><g><rect class="cls-7" x="1000.8" y="372.96" width="37.44" height="11.52" transform="translate(1398.24 -640.8) rotate(90)"/><line class="cls-10" x1="1019.52" y1="360" x2="1019.52" y2="345.6"/><line class="cls-10" x1="1019.52" y1="417.6" x2="1019.52" y2="397.44"/></g><line class="cls-5" x1="1019.52" y1="345.6" x2="1019.52" y2="302.4"/><g><line class="cls-5" x1="832.32" y1="187.2" x2="832.32" y2="154.3"/><polygon class="cls-3" points="837.43 163.81 835.92 164.35 832.32 154.46 828.72 164.35 827.21 163.81 832.32 149.76 837.43 163.81"/></g><polygon class="cls-10" points="904.32 429.12 914.4 417.6 894.24 417.6 904.32 429.12"/><polygon class="cls-10" points="1019.52 429.12 1029.6 417.6 1009.44 417.6 1019.52 429.12"/><polygon class="cls-10" points="688.32 429.12 698.4 417.6 678.24 417.6 688.32 429.12"/><g><rect class="cls-7" x="669.6" y="272.16" width="37.44" height="11.52" transform="translate(966.24 -410.4) rotate(90)"/><line class="cls-10" x1="688.32" y1="259.2" x2="688.32" y2="244.8"/><line class="cls-10" x1="688.32" y1="316.8" x2="688.32" y2="296.64"/></g><line class="cls-10" x1="688.32" y1="244.8" x2="789.12" y2="244.8"/><line class="cls-10" x1="688.32" y1="316.8" x2="688.32" y2="417.6"/><line class="cls-10" x1="529.92" y1="283.68" x2="529.92" y2="417.6"/><line class="cls-10" x1="529.92" y1="211.68" x2="529.92" y2="201.6"/><line class="cls-10" x1="552.96" y1="244.8" x2="587.52" y2="244.8"/><rect class="cls-7" x="468" y="289.44" width="37.44" height="11.52" transform="translate(781.92 -191.52) rotate(90)"/><line class="cls-10" x1="486.72" y1="276.48" x2="486.72" y2="240.48"/><g><line class="cls-10" x1="497.55" y1="295.2" x2="509.76" y2="295.2"/><polygon class="cls-3" points="498.29 289.69 498.29 300.71 492.78 295.2 498.29 289.69"/></g><line class="cls-10" x1="486.72" y1="240.48" x2="486.72" y2="216"/><line class="cls-10" x1="509.76" y1="295.2" x2="587.52" y2="295.2"/><polygon class="cls-10" points="486.72 429.12 496.8 417.6 476.64 417.6 486.72 429.12"/><line class="cls-10" x1="486.72" y1="313.92" x2="486.72" y2="417.6"/><line class="cls-10" x1="616.32" y1="303.84" x2="616.32" y2="286.68"/><line class="cls-10" x1="587.52" y1="295.2" x2="600.48" y2="295.2"/><line class="cls-10" x1="616.32" y1="295.2" x2="630.72" y2="295.2"/><line class="cls-10" x1="630.72" y1="244.8" x2="688.32" y2="244.8"/><line class="cls-10" x1="630.72" y1="295.2" x2="645.12" y2="295.2"/><line class="cls-10" x1="645.12" y1="244.8" x2="645.12" y2="295.2"/><g><polyline class="cls-9" points="652.32 270.6 652.32 273.6 649.32 273.6"/><line class="cls-11" x1="646.28" y1="273.6" x2="520.04" y2="273.6"/><polyline class="cls-9" points="518.52 273.6 515.52 273.6 515.52 270.6"/><line class="cls-6" x1="515.52" y1="267.38" x2="515.52" y2="220.61"/><polyline class="cls-9" points="515.52 219 515.52 216 518.52 216"/><line class="cls-11" x1="521.56" y1="216" x2="647.8" y2="216"/><polyline class="cls-9" points="649.32 216 652.32 216 652.32 219"/><line class="cls-6" x1="652.32" y1="222.22" x2="652.32" y2="268.99"/></g><g><rect class="cls-7" x="79.2" y="372.96" width="37.44" height="11.52" transform="translate(476.64 280.8) rotate(90)"/><line class="cls-10" x1="97.92" y1="360" x2="97.92" y2="345.6"/><line class="cls-10" x1="97.92" y1="417.6" x2="97.92" y2="397.44"/></g><g><rect class="cls-7" x="136.8" y="372.96" width="37.44" height="11.52" transform="translate(534.24 223.2) rotate(90)"/><line class="cls-10" x1="155.52" y1="360" x2="155.52" y2="345.6"/><line class="cls-10" x1="155.52" y1="417.6" x2="155.52" y2="397.44"/></g><polygon class="cls-10" points="155.52 429.12 165.6 417.6 145.44 417.6 155.52 429.12"/><line class="cls-10" x1="97.92" y1="345.6" x2="97.92" y2="259.2"/><g><line class="cls-10" x1="155.52" y1="301.61" x2="155.52" y2="288"/><g><path class="cls-12" d="M158.93,301.42c0,1.88-1.53,3.41-3.41,3.41s-3.41-1.53-3.41-3.41,1.53-3.41,3.41-3.41,3.41,1.53,3.41,3.41Z"/><path class="cls-3" d="M159.38,301.42c0-2.13-1.73-3.86-3.86-3.86s-3.86,1.73-3.86,3.86,1.73,3.86,3.86,3.86,3.86-1.73,3.86-3.86,0,2.13,0,0Zm-6.82,0c0-1.63,1.33-2.96,2.96-2.96s2.96,1.33,2.96,2.96-1.33,2.96-2.96,2.96-2.96-1.33-2.96-2.96,0,1.63,0,0Z"/></g></g><g><line class="cls-10" x1="97.92" y1="245.59" x2="97.92" y2="259.2"/><g><path class="cls-12" d="M94.51,245.78c0-1.88,1.53-3.41,3.41-3.41s3.41,1.53,3.41,3.41-1.53,3.41-3.41,3.41-3.41-1.53-3.41-3.41Z"/><path class="cls-3" d="M94.06,245.78c0,2.13,1.73,3.86,3.86,3.86s3.86-1.73,3.86-3.86-1.73-3.86-3.86-3.86-3.86,1.73-3.86,3.86,0-2.13,0,0Zm6.82,0c0,1.63-1.33,2.96-2.96,2.96s-2.96-1.33-2.96-2.96,1.33-2.96,2.96-2.96,2.96,1.33,2.96,2.96,0-1.63,0,0Z"/></g></g><g><line class="cls-10" x1="97.92" y1="215.21" x2="97.92" y2="201.6"/><g><path class="cls-12" d="M101.33,215.02c0,1.88-1.53,3.41-3.41,3.41s-3.41-1.53-3.41-3.41,1.53-3.41,3.41-3.41,3.41,1.53,3.41,3.41Z"/><path class="cls-3" d="M101.78,215.02c0-2.13-1.73-3.86-3.86-3.86s-3.86,1.73-3.86,3.86,1.73,3.86,3.86,3.86,3.86-1.73,3.86-3.86,0,2.13,0,0Zm-6.82,0c0-1.63,1.33-2.96,2.96-2.96s2.96,1.33,2.96,2.96-1.33,2.96-2.96,2.96-2.96-1.33-2.96-2.96,0,1.63,0,0Z"/></g></g><g><line class="cls-5" x1="97.92" y1="201.6" x2="97.92" y2="191.74"/><polygon class="cls-3" points="103.03 201.25 101.52 201.79 97.92 191.9 94.32 201.79 92.81 201.25 97.92 187.2 103.03 201.25"/></g><g><line class="cls-5" x1="155.52" y1="288" x2="155.52" y2="278.14"/><polygon class="cls-3" points="160.63 287.65 159.12 288.19 155.52 278.3 151.92 288.19 150.41 287.65 155.52 273.6 160.63 287.65"/></g><g><line class="cls-10" x1="155.52" y1="331.99" x2="155.52" y2="345.6"/><g><path class="cls-12" d="M152.11,332.18c0-1.88,1.53-3.41,3.41-3.41s3.41,1.53,3.41,3.41-1.53,3.41-3.41,3.41-3.41-1.53-3.41-3.41Z"/><path class="cls-3" d="M151.66,332.18c0,2.13,1.73,3.86,3.86,3.86s3.86-1.73,3.86-3.86-1.73-3.86-3.86-3.86-3.86,1.73-3.86,3.86,0-2.13,0,0Zm6.82,0c0,1.63-1.33,2.96-2.96,2.96s-2.96-1.33-2.96-2.96,1.33-2.96,2.96-2.96,2.96,1.33,2.96,2.96,0-1.63,0,0Z"/></g></g><line class="cls-10" x1="141.12" y1="115.2" x2="141.12" y2="216"/><rect class="cls-7" x="957.6" y="372.96" width="37.44" height="11.52" transform="translate(1355.04 -597.6) rotate(90)"/><line class="cls-10" x1="976.32" y1="360" x2="976.32" y2="331.2"/><line class="cls-10" x1="976.32" y1="417.6" x2="976.32" y2="397.44"/><g><line class="cls-10" x1="987.15" y1="378.72" x2="999.36" y2="378.72"/><polygon class="cls-3" points="987.89 373.21 987.89 384.23 982.38 378.72 987.89 373.21"/></g><polygon class="cls-10" points="976.32 429.12 986.4 417.6 966.24 417.6 976.32 429.12"/><line class="cls-10" x1="946.08" y1="331.2" x2="976.32" y2="331.2"/><line class="cls-10" x1="976.32" y1="345.6" x2="999.36" y2="345.6"/><line class="cls-10" x1="999.36" y1="378.72" x2="999.36" y2="345.6"/></g></svg>