<?xml version="1.0" encoding="utf-8"?>
<!-- Generator: Adobe Illustrator 27.4.1, SVG Export Plug-In . SVG Version: 6.00 Build 0)  -->
<svg version="1.1" id="Signal_Flow" xmlns="http://www.w3.org/2000/svg" xmlns:xlink="http://www.w3.org/1999/xlink" x="0px"
	 y="0px" viewBox="0 0 1079 268.2" style="enable-background:new 0 0 1079 268.2;" xml:space="preserve">
<style type="text/css">
	.st0{enable-background:new    ;}
	.st1{fill:#C9D1D9;}
	.st2{fill:none;stroke:#C9D1D9;stroke-width:0.25;stroke-miterlimit:10;}
	.st3{fill:none;stroke:#307EEF;stroke-miterlimit:10;}
	.st4{fill:none;stroke:#C9D1D9;stroke-miterlimit:10;}
	.st5{opacity:0.2;fill:#C9D1D9;enable-background:new    ;}
</style>
<g>
	<g class="st0">
		<path class="st1" d="M204,49.6h-5.4l-1.2,3.3h-1.7l4.9-12.8h1.5L207,53h-1.7L204,49.6z M199.2,48.2h4.4l-2.2-6L199.2,48.2z"/>
	</g>
</g>
<g>
	<g class="st0">
		<path class="st1" d="M197.2,150.2v-12.8h4.2c1.4,0,2.4,0.3,3.1,0.9s1.1,1.4,1.1,2.5c0,0.6-0.2,1.1-0.5,1.6
			c-0.3,0.5-0.8,0.8-1.4,1.1c0.7,0.2,1.2,0.6,1.6,1.1s0.6,1.2,0.6,1.9c0,1.1-0.4,2.1-1.1,2.7s-1.8,1-3.2,1H197.2z M198.9,142.8h2.5
			c0.7,0,1.3-0.2,1.8-0.6s0.7-0.9,0.7-1.5c0-0.7-0.2-1.2-0.6-1.5c-0.4-0.3-1-0.5-1.9-0.5h-2.5V142.8z M198.9,144.2v4.6h2.8
			c0.8,0,1.4-0.2,1.9-0.6s0.7-1,0.7-1.7c0-1.5-0.8-2.3-2.5-2.3H198.9z"/>
	</g>
</g>
<g>
	<g class="st0">
		<path class="st1" d="M177.9,218.8h-5.4l-1.2,3.3h-1.7l4.9-12.8h1.5l4.9,12.8h-1.7L177.9,218.8z M173,217.4h4.4l-2.2-6L173,217.4z"
			/>
	</g>
	<g class="st0">
		<path class="st1" d="M190.5,214.3l3.1-4.9h2l-4,6.3l4.1,6.5h-2l-3.1-5l-3.2,5h-2l4.1-6.5l-4.1-6.3h2L190.5,214.3z"/>
	</g>
	<g class="st0">
		<path class="st1" d="M206.8,216.2c0,1.3-0.2,2.3-0.6,3.3c-0.4,0.9-1,1.6-1.8,2.1s-1.7,0.7-2.7,0.7c-1,0-1.9-0.2-2.7-0.7
			s-1.4-1.2-1.8-2.1c-0.4-0.9-0.7-2-0.7-3.2v-0.9c0-1.2,0.2-2.3,0.6-3.3s1-1.7,1.8-2.2c0.8-0.5,1.7-0.8,2.7-0.8c1,0,1.9,0.2,2.7,0.7
			c0.8,0.5,1.4,1.2,1.8,2.2c0.4,0.9,0.6,2,0.6,3.3V216.2z M205.1,215.3c0-1.5-0.3-2.7-0.9-3.5s-1.5-1.2-2.6-1.2
			c-1.1,0-1.9,0.4-2.5,1.2s-0.9,1.9-0.9,3.4v0.9c0,1.5,0.3,2.6,0.9,3.5s1.5,1.3,2.6,1.3c1.1,0,1.9-0.4,2.5-1.2s0.9-1.9,0.9-3.4
			V215.3z"/>
		<path class="st1" d="M214,217h-3v5.2h-1.7v-12.8h4.2c1.4,0,2.6,0.3,3.3,1s1.2,1.6,1.2,2.9c0,0.8-0.2,1.5-0.6,2.1s-1,1-1.8,1.3
			l3,5.4v0.1h-1.8L214,217z M211,215.6h2.6c0.8,0,1.5-0.2,2-0.7s0.7-1,0.7-1.7c0-0.8-0.2-1.4-0.7-1.8s-1.2-0.6-2-0.6H211V215.6z"/>
		<path class="st1" d="M224.8,222.2v-12.8h4.2c1.4,0,2.4,0.3,3.1,0.9s1.1,1.4,1.1,2.5c0,0.6-0.2,1.1-0.5,1.6
			c-0.3,0.5-0.8,0.8-1.4,1.1c0.7,0.2,1.2,0.6,1.6,1.1s0.6,1.2,0.6,1.9c0,1.1-0.4,2.1-1.1,2.7s-1.8,1-3.2,1H224.8z M226.5,214.8h2.5
			c0.7,0,1.3-0.2,1.8-0.6s0.7-0.9,0.7-1.5c0-0.7-0.2-1.2-0.6-1.5c-0.4-0.3-1-0.5-1.9-0.5h-2.5V214.8z M226.5,216.2v4.6h2.8
			c0.8,0,1.4-0.2,1.9-0.6s0.7-1,0.7-1.7c0-1.5-0.8-2.3-2.5-2.3H226.5z"/>
	</g>
</g>
<line class="st2" x1="295.3" y1="30.6" x2="295.3" y2="235.8"/>
<line class="st2" x1="351.1" y1="30.6" x2="351.1" y2="235.8"/>
<line class="st2" x1="406.9" y1="30.6" x2="406.9" y2="235.8"/>
<line class="st2" x1="462.7" y1="30.6" x2="462.7" y2="235.8"/>
<line class="st2" x1="520.3" y1="30.6" x2="520.3" y2="235.8"/>
<line class="st2" x1="574.3" y1="30.6" x2="574.3" y2="235.8"/>
<line class="st2" x1="685.9" y1="30.6" x2="685.9" y2="235.8"/>
<line class="st2" x1="741.7" y1="30.6" x2="741.7" y2="235.8"/>
<line class="st2" x1="799.3" y1="30.6" x2="799.3" y2="235.8"/>
<line class="st2" x1="855.1" y1="30.6" x2="855.1" y2="235.8"/>
<line class="st2" x1="239.5" y1="30.6" x2="239.5" y2="235.8"/>
<line class="st2" x1="279.1" y1="28.8" x2="279.1" y2="235.8"/>
<line class="st2" x1="316.9" y1="30.6" x2="316.9" y2="235.8"/>
<line class="st2" x1="356.5" y1="28.8" x2="356.5" y2="235.8"/>
<line class="st2" x1="396.1" y1="28.8" x2="396.1" y2="235.8"/>
<line class="st2" x1="435.7" y1="30.6" x2="435.7" y2="235.8"/>
<line class="st2" x1="473.5" y1="28.8" x2="473.5" y2="235.8"/>
<line class="st2" x1="513.1" y1="28.8" x2="513.1" y2="235.8"/>
<line class="st2" x1="552.7" y1="30.6" x2="552.7" y2="235.8"/>
<line class="st2" x1="590.5" y1="28.8" x2="590.5" y2="235.8"/>
<line class="st2" x1="669.7" y1="30.6" x2="669.7" y2="235.8"/>
<line class="st2" x1="709.3" y1="28.8" x2="709.3" y2="235.8"/>
<line class="st2" x1="748.9" y1="30.6" x2="748.9" y2="235.8"/>
<line class="st2" x1="786.7" y1="30.6" x2="786.7" y2="235.8"/>
<line class="st2" x1="826.3" y1="28.8" x2="826.3" y2="235.8"/>
<line class="st2" x1="865.9" y1="30.6" x2="865.9" y2="235.8"/>
<line class="st2" x1="905.5" y1="30.6" x2="905.5" y2="235.8"/>
<polyline class="st3" points="910.9,235.8 905.5,235.8 905.5,198 865.9,198 865.9,235.8 855.1,235.8 855.1,198 826.3,198 
	826.3,235.8 799.3,235.8 799.3,198 786.7,198 786.7,235.8 748.9,235.8 748.9,198 741.7,198 741.7,235.8 709.3,235.8 709.3,198 
	685.9,198 685.9,235.8 669.7,235.8 669.7,198 590.5,198 590.5,235.8 574.3,235.8 574.3,198 552.7,198 552.7,235.8 520.3,235.8 
	520.3,198 513.1,198 513.1,235.8 473.5,235.8 473.5,198 462.7,198 462.7,235.8 435.7,235.8 435.7,198 406.9,198 406.9,235.8 
	396.1,235.8 396.1,198 356.5,198 356.5,235.8 351.1,235.8 351.1,198 316.9,198 316.9,235.8 295.3,235.8 295.3,198 279.1,198 
	279.1,235.8 239.5,235.8 239.5,198 "/>
<polyline class="st4" points="239.5,163.8 239.5,126 279.1,126 279.1,163.8 316.9,163.8 316.9,126 356.5,126 356.5,163.8 
	396.1,163.8 396.1,126 435.7,126 435.7,163.8 473.5,163.8 473.5,126 513.1,126 513.1,163.8 552.7,163.8 552.7,126 590.5,126 
	590.5,163.8 630.1,163.8 630.1,126 669.7,126 669.7,163.8 709.3,163.8 709.3,126 748.9,126 748.9,163.8 786.7,163.8 786.7,126 
	826.3,126 826.3,163.8 865.9,163.8 865.9,126 910.9,126 "/>
<polyline class="st4" points="910.9,66.6 855.1,66.6 855.1,28.8 799.3,28.8 799.3,66.6 741.7,66.6 741.7,28.8 685.9,28.8 
	685.9,66.6 630.1,66.6 630.1,28.8 574.3,28.8 574.3,66.6 518.5,66.6 518.5,28.8 462.7,28.8 462.7,66.6 406.9,66.6 406.9,28.8 
	351.1,28.8 351.1,66.6 295.3,66.6 295.3,28.8 239.5,28.8 239.5,66.6 "/>
<rect x="279.1" y="28.8" class="st5" width="16.2" height="207"/>
<rect x="316.9" y="28.8" class="st5" width="34.2" height="207"/>
<rect x="356.5" y="28.8" class="st5" width="39.6" height="207"/>
<rect x="406.9" y="28.8" class="st5" width="28.8" height="207"/>
<rect x="462.7" y="28.8" class="st5" width="10.8" height="207"/>
<rect x="513.1" y="28.8" class="st5" width="7.2" height="207"/>
<rect x="552.7" y="28.8" class="st5" width="21.6" height="207"/>
<rect x="590.5" y="28.8" class="st5" width="79.2" height="207"/>
<rect x="685.9" y="28.8" class="st5" width="23.4" height="207"/>
<rect x="741.7" y="28.8" class="st5" width="7.2" height="207"/>
<rect x="786.7" y="28.8" class="st5" width="12.6" height="207"/>
<rect x="826.3" y="28.8" class="st5" width="28.8" height="207"/>
<rect x="865.9" y="28.8" class="st5" width="39.6" height="207"/>
</svg>
