<?xml version="1.0" encoding="UTF-8"?>
<svg id="Signal_Flow" data-name="Signal Flow" xmlns="http://www.w3.org/2000/svg" viewBox="0 0 1079.03 268.2">
  <defs>
    <style>
      .cls-1 {
        letter-spacing: 0em;
      }

      .cls-1, .cls-2, .cls-3 {
        fill: #0D1117;
      }

      .cls-1, .cls-3 {
        font-family: Roboto-Regular, Roboto;
        font-size: 18px;
      }

      .cls-1, .cls-3, .cls-4 {
        isolation: isolate;
      }

      .cls-2 {
        opacity: .2;
      }

      .cls-5 {
        stroke: #307eef;
      }

      .cls-5, .cls-6, .cls-7, .cls-8 {
        fill: none;
        stroke-miterlimit: 10;
      }

      .cls-6, .cls-7, .cls-8 {
        stroke: #0D1117;
      }

      .cls-7 {
        stroke-width: .25px;
      }

      .cls-8 {
        stroke-width: 1px;
      }
    </style>
  </defs>
  <g class="cls-4">
    <text class="cls-3" transform="translate(195.49 52.96)"><tspan x="0" y="0">A</tspan></text>
  </g>
  <g class="cls-4">
    <text class="cls-3" transform="translate(195.75 150.16)"><tspan x="0" y="0">B</tspan></text>
  </g>
  <g class="cls-4">
    <text class="cls-3" transform="translate(169.34 222.16)"><tspan x="0" y="0">A </tspan></text>
    <text class="cls-1" transform="translate(184.85 222.16)"><tspan x="0" y="0">X</tspan></text>
    <text class="cls-3" transform="translate(195.44 222.16)"><tspan x="0" y="0">OR B</tspan></text>
  </g>
  <line class="cls-7" x1="295.34" y1="30.6" x2="295.34" y2="235.8"/>
  <line class="cls-7" x1="351.14" y1="30.6" x2="351.14" y2="235.8"/>
  <line class="cls-7" x1="406.94" y1="30.6" x2="406.94" y2="235.8"/>
  <line class="cls-7" x1="462.74" y1="30.6" x2="462.74" y2="235.8"/>
  <line class="cls-7" x1="520.34" y1="30.6" x2="520.34" y2="235.8"/>
  <line class="cls-7" x1="574.34" y1="30.6" x2="574.34" y2="235.8"/>
  <line class="cls-7" x1="685.94" y1="30.6" x2="685.94" y2="235.8"/>
  <line class="cls-7" x1="741.74" y1="30.6" x2="741.74" y2="235.8"/>
  <line class="cls-7" x1="799.34" y1="30.6" x2="799.34" y2="235.8"/>
  <line class="cls-7" x1="855.14" y1="30.6" x2="855.14" y2="235.8"/>
  <line class="cls-7" x1="239.54" y1="30.6" x2="239.54" y2="235.8"/>
  <line class="cls-7" x1="279.14" y1="28.8" x2="279.14" y2="235.8"/>
  <line class="cls-7" x1="316.94" y1="30.6" x2="316.94" y2="235.8"/>
  <line class="cls-7" x1="356.54" y1="28.8" x2="356.54" y2="235.8"/>
  <line class="cls-7" x1="396.14" y1="28.8" x2="396.14" y2="235.8"/>
  <line class="cls-7" x1="435.74" y1="30.6" x2="435.74" y2="235.8"/>
  <line class="cls-7" x1="473.54" y1="28.8" x2="473.54" y2="235.8"/>
  <line class="cls-7" x1="513.14" y1="28.8" x2="513.14" y2="235.8"/>
  <line class="cls-7" x1="552.74" y1="30.6" x2="552.74" y2="235.8"/>
  <line class="cls-7" x1="590.54" y1="28.8" x2="590.54" y2="235.8"/>
  <line class="cls-7" x1="669.74" y1="30.6" x2="669.74" y2="235.8"/>
  <line class="cls-7" x1="709.34" y1="28.8" x2="709.34" y2="235.8"/>
  <line class="cls-7" x1="748.94" y1="30.6" x2="748.94" y2="235.8"/>
  <line class="cls-7" x1="786.74" y1="30.6" x2="786.74" y2="235.8"/>
  <line class="cls-7" x1="826.34" y1="28.8" x2="826.34" y2="235.8"/>
  <line class="cls-7" x1="865.94" y1="30.6" x2="865.94" y2="235.8"/>
  <line class="cls-7" x1="905.54" y1="30.6" x2="905.54" y2="235.8"/>
  <polyline class="cls-5" points="910.94 235.8 905.54 235.8 905.54 198 865.94 198 865.94 235.8 855.14 235.8 855.14 198 826.34 198 826.34 235.8 799.34 235.8 799.34 198 786.74 198 786.74 235.8 748.94 235.8 748.94 198 741.74 198 741.74 235.8 709.34 235.8 709.34 198 685.94 198 685.94 235.8 669.74 235.8 669.74 198 590.54 198 590.54 235.8 574.34 235.8 574.34 198 552.74 198 552.74 235.8 520.34 235.8 520.34 198 513.14 198 513.14 235.8 473.54 235.8 473.54 198 462.74 198 462.74 235.8 435.74 235.8 435.74 198 406.94 198 406.94 235.8 396.14 235.8 396.14 198 356.54 198 356.54 235.8 351.14 235.8 351.14 198 316.94 198 316.94 235.8 295.34 235.8 295.34 198 279.14 198 279.14 235.8 239.54 235.8 239.54 198"/>
  <polyline class="cls-6" points="239.54 163.8 239.54 126 279.14 126 279.14 163.8 316.94 163.8 316.94 126 356.54 126 356.54 163.8 396.14 163.8 396.14 126 435.74 126 435.74 163.8 473.54 163.8 473.54 126 513.14 126 513.14 163.8 552.74 163.8 552.74 126 590.54 126 590.54 163.8 630.14 163.8 630.14 126 669.74 126 669.74 163.8 709.34 163.8 709.34 126 748.94 126 748.94 163.8 786.74 163.8 786.74 126 826.34 126 826.34 163.8 865.94 163.8 865.94 126 910.94 126"/>
  <polyline class="cls-8" points="910.94 66.6 855.14 66.6 855.14 28.8 799.34 28.8 799.34 66.6 741.74 66.6 741.74 28.8 685.94 28.8 685.94 66.6 630.14 66.6 630.14 28.8 574.34 28.8 574.34 66.6 518.54 66.6 518.54 28.8 462.74 28.8 462.74 66.6 406.94 66.6 406.94 28.8 351.14 28.8 351.14 66.6 295.34 66.6 295.34 28.8 239.54 28.8 239.54 66.6"/>
  <rect class="cls-2" x="279.14" y="28.8" width="16.2" height="207"/>
  <rect class="cls-2" x="316.94" y="28.8" width="34.2" height="207"/>
  <rect class="cls-2" x="356.54" y="28.8" width="39.6" height="207"/>
  <rect class="cls-2" x="406.94" y="28.8" width="28.8" height="207"/>
  <rect class="cls-2" x="462.74" y="28.8" width="10.8" height="207"/>
  <rect class="cls-2" x="513.14" y="28.8" width="7.2" height="207"/>
  <rect class="cls-2" x="552.74" y="28.8" width="21.6" height="207"/>
  <rect class="cls-2" x="590.54" y="28.8" width="79.2" height="207"/>
  <rect class="cls-2" x="685.94" y="28.8" width="23.4" height="207"/>
  <rect class="cls-2" x="741.74" y="28.8" width="7.2" height="207"/>
  <rect class="cls-2" x="786.74" y="28.8" width="12.6" height="207"/>
  <rect class="cls-2" x="826.34" y="28.8" width="28.8" height="207"/>
  <rect class="cls-2" x="865.94" y="28.8" width="39.6" height="207"/>
</svg>