<?xml version="1.0" encoding="UTF-8"?>
<svg id="Signal_Flow" data-name="Signal Flow" xmlns="http://www.w3.org/2000/svg" viewBox="0 0 1079.03 268.2">
  <defs>
    <style>
      .cls-1 {
        letter-spacing: 0em;
      }

      .cls-1, .cls-2 {
        fill: #0D1117;
        font-family: Roboto-Regular, Roboto;
        font-size: 18px;
      }

      .cls-1, .cls-2, .cls-3 {
        isolation: isolate;
      }

      .cls-4 {
        stroke-width: .25px;
      }

      .cls-4, .cls-5 {
        stroke: #0D1117;
      }

      .cls-4, .cls-5, .cls-6 {
        fill: none;
        stroke-miterlimit: 10;
      }

      .cls-5, .cls-6 {
        stroke-width: 1px;
      }

      .cls-6 {
        stroke: #307eef;
      }
    </style>
  </defs>
  <polyline class="cls-5" points="910.52 74.61 854.57 74.61 854.57 12.6 798.62 12.6 798.62 74.61 742.67 74.61 742.67 12.6 686.72 12.6 686.72 74.61 630.77 74.61 630.77 12.6 574.82 12.6 574.82 74.61 518.87 74.61 518.87 12.6 462.92 12.6 462.92 74.61 406.97 74.61 406.97 12.6 351.02 12.6 351.02 74.61 295.07 74.61 295.07 12.6 239.12 12.6 239.12 74.61"/>
  <polyline class="cls-5" points="910.52 158.51 904.69 158.51 904.69 96.5 904.92 96.5 865.54 96.5 865.54 158.51 865.77 158.51 826.39 158.51 826.39 96.5 826.62 96.5 787.24 96.5 787.24 158.51 747.85 158.51 748.09 158.51 748.09 96.5 748.32 96.5 708.93 96.5 708.93 158.51 669.55 158.51 669.55 96.5 669.78 96.5 630.4 96.5 630.4 158.51 630.86 158.51 591.48 158.51 591.48 96.5 591.71 96.5 552.33 96.5 552.33 158.51 512.94 158.51 512.94 96.5 513.18 96.5 473.79 96.5 473.79 158.51 474.26 158.51 434.87 158.51 434.87 96.5 435.11 96.5 395.72 96.5 395.72 158.51 356.34 158.51 356.34 96.5 356.57 96.5 317.19 96.5 317.19 158.51 317.65 158.51 278.27 158.51 278.27 96.5 278.5 96.5 239.12 96.5 239.12 158.51"/>
  <polyline class="cls-6" points="910.52 257.4 904.92 257.4 904.92 195.39 865.76 195.39 865.76 257.4 854.57 257.4 854.57 195.39 826.59 195.39 826.59 257.4 798.62 257.4 798.62 195.39 787.43 195.39 787.43 257.4 748.26 257.4 748.26 195.39 742.67 195.39 742.67 257.4 709.1 257.4 709.1 195.39 686.72 195.39 686.72 257.4 669.93 257.4 669.93 195.39 591.6 195.39 591.6 257.4 574.82 257.4 574.82 195.39 552.44 195.39 552.44 257.4 518.87 257.4 518.87 195.39 513.27 195.39 513.27 257.4 474.11 257.4 474.11 195.39 462.92 195.39 462.92 257.4 434.94 257.4 434.94 195.39 406.97 195.39 406.97 257.4 395.78 257.4 395.78 195.39 356.61 195.39 356.61 257.4 351.02 257.4 351.02 195.39 317.45 195.39 317.45 257.4 295.07 257.4 295.07 195.39 278.28 195.39 278.28 257.4 239.12 257.4 239.12 195.39"/>
  <g class="cls-3">
    <text class="cls-2" transform="translate(195.49 48.87)"><tspan x="0" y="0">A</tspan></text>
  </g>
  <g class="cls-3">
    <text class="cls-2" transform="translate(195.75 132.77)"><tspan x="0" y="0">B</tspan></text>
  </g>
  <g class="cls-3">
    <text class="cls-2" transform="translate(169.34 231.65)"><tspan x="0" y="0">A </tspan></text>
    <text class="cls-1" transform="translate(184.85 231.65)"><tspan x="0" y="0">X</tspan></text>
    <text class="cls-2" transform="translate(195.44 231.65)"><tspan x="0" y="0">OR B</tspan></text>
  </g>
  <line class="cls-4" x1="295.07" y1="3.6" x2="295.07" y2="266.4"/>
  <line class="cls-4" x1="351.02" y1="3.6" x2="351.02" y2="266.4"/>
  <line class="cls-4" x1="406.97" y1="3.6" x2="406.97" y2="266.4"/>
  <line class="cls-4" x1="462.92" y1="3.6" x2="462.92" y2="266.4"/>
  <line class="cls-4" x1="518.87" y1="3.6" x2="518.87" y2="266.4"/>
  <line class="cls-4" x1="574.82" y1="3.6" x2="574.82" y2="266.4"/>
  <line class="cls-4" x1="630.77" y1="3.6" x2="630.77" y2="266.4"/>
  <line class="cls-4" x1="686.72" y1="3.6" x2="686.72" y2="266.4"/>
  <line class="cls-4" x1="742.67" y1="3.6" x2="742.67" y2="266.4"/>
  <line class="cls-4" x1="798.62" y1="3.6" x2="798.62" y2="266.4"/>
  <line class="cls-4" x1="854.57" y1="3.6" x2="854.57" y2="266.4"/>
  <line class="cls-4" x1="239.12" y1="3.6" x2="239.12" y2="266.4"/>
</svg>